<?xml version="1.0" encoding="UTF-8" standalone="no"?>
<!DOCTYPE svg PUBLIC "-//W3C//DTD SVG 1.1//EN"
 "http://www.w3.org/Graphics/SVG/1.1/DTD/svg11.dtd">
<!-- Generated by graphviz version 2.43.0 (0)
 -->
<!-- Title: Ogre::Codec Pages: 1 -->
<svg width="541pt" height="256pt"
 viewBox="0.00 0.00 541.00 256.00" xmlns="http://www.w3.org/2000/svg" xmlns:xlink="http://www.w3.org/1999/xlink">
<g id="graph0" class="graph" transform="scale(1 1) rotate(0) translate(4 252)">
<title>Ogre::Codec</title>
<!-- Node1 -->
<g id="node1" class="node">
<title>Node1</title>
<g id="a_node1"><a xlink:title="Abstract class that defines a &#39;codec&#39;.">
<polygon fill="#bfbfbf" stroke="black" points="138,-114.5 138,-133.5 214,-133.5 214,-114.5 138,-114.5"/>
<text text-anchor="middle" x="176" y="-121.5" font-family="Helvetica,sans-Serif" font-size="10.00">Ogre::Codec</text>
</a>
</g>
</g>
<!-- Node3 -->
<g id="node3" class="node">
<title>Node3</title>
<g id="a_node3"><a xlink:href="class_ogre_1_1_image_codec2.html" target="_top" xlink:title="Codec specialized in images.">
<polygon fill="none" stroke="black" points="250,-114.5 250,-133.5 363,-133.5 363,-114.5 250,-114.5"/>
<text text-anchor="middle" x="306.5" y="-121.5" font-family="Helvetica,sans-Serif" font-size="10.00">Ogre::ImageCodec2</text>
</a>
</g>
</g>
<!-- Node1&#45;&gt;Node3 -->
<g id="edge2" class="edge">
<title>Node1&#45;&gt;Node3</title>
<path fill="none" stroke="midnightblue" d="M224.37,-124C232.64,-124 241.3,-124 249.77,-124"/>
<polygon fill="midnightblue" stroke="midnightblue" points="224.17,-120.5 214.17,-124 224.17,-127.5 224.17,-120.5"/>
</g>
<!-- Node2 -->
<g id="node2" class="node">
<title>Node2</title>
<g id="a_node2"><a xlink:title=" ">
<polygon fill="none" stroke="#bfbfbf" points="0,-114.5 0,-133.5 102,-133.5 102,-114.5 0,-114.5"/>
<text text-anchor="middle" x="51" y="-121.5" font-family="Helvetica,sans-Serif" font-size="10.00">OgreAllocatedObj</text>
</a>
</g>
</g>
<!-- Node2&#45;&gt;Node1 -->
<g id="edge1" class="edge">
<title>Node2&#45;&gt;Node1</title>
<path fill="none" stroke="midnightblue" d="M112.23,-124C120.97,-124 129.74,-124 137.85,-124"/>
<polygon fill="midnightblue" stroke="midnightblue" points="112.03,-120.5 102.03,-124 112.03,-127.5 112.03,-120.5"/>
</g>
<!-- Node4 -->
<g id="node4" class="node">
<title>Node4</title>
<g id="a_node4"><a xlink:href="class_ogre_1_1_a_s_t_c_codec.html" target="_top" xlink:title="Codec specialized in loading ASTC (ARM Adaptive Scalable Texture Compression) images.">
<polygon fill="none" stroke="black" points="415.5,-228.5 415.5,-247.5 516.5,-247.5 516.5,-228.5 415.5,-228.5"/>
<text text-anchor="middle" x="466" y="-235.5" font-family="Helvetica,sans-Serif" font-size="10.00">Ogre::ASTCCodec</text>
</a>
</g>
</g>
<!-- Node3&#45;&gt;Node4 -->
<g id="edge3" class="edge">
<title>Node3&#45;&gt;Node4</title>
<path fill="none" stroke="midnightblue" d="M320.08,-141.92C336.03,-163.35 365.53,-198.84 399,-219 405.43,-222.88 412.7,-226 420,-228.5"/>
<polygon fill="midnightblue" stroke="midnightblue" points="322.8,-139.72 314.09,-133.69 317.14,-143.83 322.8,-139.72"/>
</g>
<!-- Node5 -->
<g id="node5" class="node">
<title>Node5</title>
<g id="a_node5"><a xlink:href="class_ogre_1_1_d_d_s_codec2.html" target="_top" xlink:title="Codec specialized in loading DDS (Direct Draw Surface) images.">
<polygon fill="none" stroke="black" points="414.5,-190.5 414.5,-209.5 517.5,-209.5 517.5,-190.5 414.5,-190.5"/>
<text text-anchor="middle" x="466" y="-197.5" font-family="Helvetica,sans-Serif" font-size="10.00">Ogre::DDSCodec2</text>
</a>
</g>
</g>
<!-- Node3&#45;&gt;Node5 -->
<g id="edge4" class="edge">
<title>Node3&#45;&gt;Node5</title>
<path fill="none" stroke="midnightblue" d="M328.73,-139.6C346.7,-152.21 373.52,-169.66 399,-181 407.28,-184.68 416.46,-187.86 425.28,-190.49"/>
<polygon fill="midnightblue" stroke="midnightblue" points="330.37,-136.47 320.2,-133.51 326.3,-142.17 330.37,-136.47"/>
</g>
<!-- Node6 -->
<g id="node6" class="node">
<title>Node6</title>
<g id="a_node6"><a xlink:href="class_ogre_1_1_e_t_c_codec.html" target="_top" xlink:title="Codec specialized in loading ETC (Ericsson Texture Compression) images.">
<polygon fill="none" stroke="black" points="419,-152.5 419,-171.5 513,-171.5 513,-152.5 419,-152.5"/>
<text text-anchor="middle" x="466" y="-159.5" font-family="Helvetica,sans-Serif" font-size="10.00">Ogre::ETCCodec</text>
</a>
</g>
</g>
<!-- Node3&#45;&gt;Node6 -->
<g id="edge5" class="edge">
<title>Node3&#45;&gt;Node6</title>
<path fill="none" stroke="midnightblue" d="M357.1,-135.97C379.18,-141.29 404.8,-147.48 425.54,-152.48"/>
<polygon fill="midnightblue" stroke="midnightblue" points="357.79,-132.53 347.24,-133.59 356.14,-139.34 357.79,-132.53"/>
</g>
<!-- Node7 -->
<g id="node7" class="node">
<title>Node7</title>
<g id="a_node7"><a xlink:href="class_ogre_1_1_free_image_codec2.html" target="_top" xlink:title="Codec specialized in images loaded using FreeImage.">
<polygon fill="none" stroke="black" points="399,-114.5 399,-133.5 533,-133.5 533,-114.5 399,-114.5"/>
<text text-anchor="middle" x="466" y="-121.5" font-family="Helvetica,sans-Serif" font-size="10.00">Ogre::FreeImageCodec2</text>
</a>
</g>
</g>
<!-- Node3&#45;&gt;Node7 -->
<g id="edge6" class="edge">
<title>Node3&#45;&gt;Node7</title>
<path fill="none" stroke="midnightblue" d="M373.25,-124C381.73,-124 390.42,-124 398.91,-124"/>
<polygon fill="midnightblue" stroke="midnightblue" points="373.03,-120.5 363.03,-124 373.03,-127.5 373.03,-120.5"/>
</g>
<!-- Node8 -->
<g id="node8" class="node">
<title>Node8</title>
<g id="a_node8"><a xlink:href="class_ogre_1_1_o_i_t_d_codec.html" target="_top" xlink:title="Codec specialized in loading OITD (Ogre Internal Texture Dump) format.">
<polygon fill="none" stroke="black" points="416,-76.5 416,-95.5 516,-95.5 516,-76.5 416,-76.5"/>
<text text-anchor="middle" x="466" y="-83.5" font-family="Helvetica,sans-Serif" font-size="10.00">Ogre::OITDCodec</text>
</a>
</g>
</g>
<!-- Node3&#45;&gt;Node8 -->
<g id="edge7" class="edge">
<title>Node3&#45;&gt;Node8</title>
<path fill="none" stroke="midnightblue" d="M357.1,-112.03C379.18,-106.71 404.8,-100.52 425.54,-95.52"/>
<polygon fill="midnightblue" stroke="midnightblue" points="356.14,-108.66 347.24,-114.41 357.79,-115.47 356.14,-108.66"/>
</g>
<!-- Node9 -->
<g id="node9" class="node">
<title>Node9</title>
<g id="a_node9"><a xlink:href="class_ogre_1_1_p_v_r_t_c_codec.html" target="_top" xlink:title="Codec specialized in loading PVRTC (PowerVR) images.">
<polygon fill="none" stroke="black" points="412.5,-38.5 412.5,-57.5 519.5,-57.5 519.5,-38.5 412.5,-38.5"/>
<text text-anchor="middle" x="466" y="-45.5" font-family="Helvetica,sans-Serif" font-size="10.00">Ogre::PVRTCCodec</text>
</a>
</g>
</g>
<!-- Node3&#45;&gt;Node9 -->
<g id="edge8" class="edge">
<title>Node3&#45;&gt;Node9</title>
<path fill="none" stroke="midnightblue" d="M328.73,-108.4C346.7,-95.79 373.52,-78.34 399,-67 407.28,-63.32 416.46,-60.14 425.28,-57.51"/>
<polygon fill="midnightblue" stroke="midnightblue" points="326.3,-105.83 320.2,-114.49 330.37,-111.53 326.3,-105.83"/>
</g>
<!-- Node10 -->
<g id="node10" class="node">
<title>Node10</title>
<g id="a_node10"><a xlink:href="class_ogre_1_1_s_t_b_i_image_codec.html" target="_top" xlink:title="Codec specialized in images loaded using stbi (https://github.com/nothings/stb).">
<polygon fill="none" stroke="black" points="402,-0.5 402,-19.5 530,-19.5 530,-0.5 402,-0.5"/>
<text text-anchor="middle" x="466" y="-7.5" font-family="Helvetica,sans-Serif" font-size="10.00">Ogre::STBIImageCodec</text>
</a>
</g>
</g>
<!-- Node3&#45;&gt;Node10 -->
<g id="edge9" class="edge">
<title>Node3&#45;&gt;Node10</title>
<path fill="none" stroke="midnightblue" d="M320.08,-106.08C336.03,-84.65 365.53,-49.16 399,-29 405.43,-25.12 412.7,-22 420,-19.5"/>
<polygon fill="midnightblue" stroke="midnightblue" points="317.14,-104.17 314.09,-114.31 322.8,-108.28 317.14,-104.17"/>
</g>
</g>
</svg>
