<?xml version="1.0" encoding="UTF-8" standalone="no"?>
<!DOCTYPE svg PUBLIC "-//W3C//DTD SVG 1.1//EN"
 "http://www.w3.org/Graphics/SVG/1.1/DTD/svg11.dtd">
<!-- Generated by graphviz version 2.43.0 (0)
 -->
<!-- Title: Ogre::ParticleAffectorFactory Pages: 1 -->
<svg width="504pt" height="459pt"
 viewBox="0.00 0.00 504.00 459.00" xmlns="http://www.w3.org/2000/svg" xmlns:xlink="http://www.w3.org/1999/xlink">
<g id="graph0" class="graph" transform="scale(1 1) rotate(0) translate(4 455)">
<title>Ogre::ParticleAffectorFactory</title>
<!-- Node1 -->
<g id="node1" class="node">
<title>Node1</title>
<g id="a_node1"><a xlink:title="Abstract class defining the interface to be implemented by creators of ParticleAffector subclasses.">
<polygon fill="#bfbfbf" stroke="black" points="138,-205 138,-224 293,-224 293,-205 138,-205"/>
<text text-anchor="middle" x="215.5" y="-212" font-family="Helvetica,sans-Serif" font-size="10.00">Ogre::ParticleAffectorFactory</text>
</a>
</g>
</g>
<!-- Node3 -->
<g id="node3" class="node">
<title>Node3</title>
<g id="a_node3"><a xlink:href="class_ogre_1_1_colour_fader_affector_factory.html" target="_top" xlink:title="Factory class for ColourFaderAffector.">
<polygon fill="none" stroke="black" points="341.5,-420.5 341.5,-450.5 483.5,-450.5 483.5,-420.5 341.5,-420.5"/>
<text text-anchor="start" x="349.5" y="-438.5" font-family="Helvetica,sans-Serif" font-size="10.00">Ogre::ColourFaderAffector</text>
<text text-anchor="middle" x="412.5" y="-427.5" font-family="Helvetica,sans-Serif" font-size="10.00">Factory</text>
</a>
</g>
</g>
<!-- Node1&#45;&gt;Node3 -->
<g id="edge2" class="edge">
<title>Node1&#45;&gt;Node3</title>
<path fill="none" stroke="midnightblue" d="M222.05,-233.7C234.46,-273.14 268.21,-363.59 329,-411.5 333.33,-414.92 338.14,-417.85 343.19,-420.36"/>
<polygon fill="midnightblue" stroke="midnightblue" points="225.36,-232.56 219.12,-224.01 218.67,-234.59 225.36,-232.56"/>
</g>
<!-- Node4 -->
<g id="node4" class="node">
<title>Node4</title>
<g id="a_node4"><a xlink:href="class_ogre_1_1_colour_fader_affector_factory2.html" target="_top" xlink:title="Factory class for ColourFaderAffector.">
<polygon fill="none" stroke="black" points="341.5,-371.5 341.5,-401.5 483.5,-401.5 483.5,-371.5 341.5,-371.5"/>
<text text-anchor="start" x="349.5" y="-389.5" font-family="Helvetica,sans-Serif" font-size="10.00">Ogre::ColourFaderAffector</text>
<text text-anchor="middle" x="412.5" y="-378.5" font-family="Helvetica,sans-Serif" font-size="10.00">Factory2</text>
</a>
</g>
</g>
<!-- Node1&#45;&gt;Node4 -->
<g id="edge3" class="edge">
<title>Node1&#45;&gt;Node4</title>
<path fill="none" stroke="midnightblue" d="M225.59,-233.16C241.88,-264.64 279.07,-328.2 329,-362.5 334.04,-365.96 339.58,-368.93 345.34,-371.48"/>
<polygon fill="midnightblue" stroke="midnightblue" points="228.67,-231.5 221.05,-224.15 222.42,-234.65 228.67,-231.5"/>
</g>
<!-- Node5 -->
<g id="node5" class="node">
<title>Node5</title>
<g id="a_node5"><a xlink:href="class_ogre_1_1_colour_image_affector_factory.html" target="_top" xlink:title="Factory class for ColourImageAffector.">
<polygon fill="none" stroke="black" points="339.5,-322.5 339.5,-352.5 485.5,-352.5 485.5,-322.5 339.5,-322.5"/>
<text text-anchor="start" x="347.5" y="-340.5" font-family="Helvetica,sans-Serif" font-size="10.00">Ogre::ColourImageAffector</text>
<text text-anchor="middle" x="412.5" y="-329.5" font-family="Helvetica,sans-Serif" font-size="10.00">Factory</text>
</a>
</g>
</g>
<!-- Node1&#45;&gt;Node5 -->
<g id="edge4" class="edge">
<title>Node1&#45;&gt;Node5</title>
<path fill="none" stroke="midnightblue" d="M231.59,-231.83C251.7,-253.89 289.37,-291.73 329,-313.5 335.14,-316.88 341.81,-319.82 348.61,-322.38"/>
<polygon fill="midnightblue" stroke="midnightblue" points="234.05,-229.34 224.78,-224.22 228.84,-234.01 234.05,-229.34"/>
</g>
<!-- Node6 -->
<g id="node6" class="node">
<title>Node6</title>
<g id="a_node6"><a xlink:href="class_ogre_1_1_colour_interpolator_affector_factory.html" target="_top" xlink:title="Factory class for ColourInterpolatorAffector.">
<polygon fill="none" stroke="black" points="345.5,-273.5 345.5,-303.5 479.5,-303.5 479.5,-273.5 345.5,-273.5"/>
<text text-anchor="start" x="353.5" y="-291.5" font-family="Helvetica,sans-Serif" font-size="10.00">Ogre::ColourInterpolator</text>
<text text-anchor="middle" x="412.5" y="-280.5" font-family="Helvetica,sans-Serif" font-size="10.00">AffectorFactory</text>
</a>
</g>
</g>
<!-- Node1&#45;&gt;Node6 -->
<g id="edge5" class="edge">
<title>Node1&#45;&gt;Node6</title>
<path fill="none" stroke="midnightblue" d="M245.38,-228.63C267.85,-239.31 299.97,-253.88 329,-264.5 337.55,-267.63 346.7,-270.62 355.69,-273.38"/>
<polygon fill="midnightblue" stroke="midnightblue" points="246.61,-225.34 236.08,-224.18 243.59,-231.65 246.61,-225.34"/>
</g>
<!-- Node7 -->
<g id="node7" class="node">
<title>Node7</title>
<g id="a_node7"><a xlink:href="class_ogre_1_1_deflector_plane_affector_factory.html" target="_top" xlink:title="Factory class for DeflectorPlaneAffector.">
<polygon fill="none" stroke="black" points="335,-224.5 335,-254.5 490,-254.5 490,-224.5 335,-224.5"/>
<text text-anchor="start" x="343" y="-242.5" font-family="Helvetica,sans-Serif" font-size="10.00">Ogre::DeflectorPlaneAffector</text>
<text text-anchor="middle" x="412.5" y="-231.5" font-family="Helvetica,sans-Serif" font-size="10.00">Factory</text>
</a>
</g>
</g>
<!-- Node1&#45;&gt;Node7 -->
<g id="edge6" class="edge">
<title>Node1&#45;&gt;Node7</title>
<path fill="none" stroke="midnightblue" d="M301.02,-225.34C312.26,-226.78 323.74,-228.25 334.84,-229.67"/>
<polygon fill="midnightblue" stroke="midnightblue" points="301.14,-221.82 290.78,-224.02 300.25,-228.77 301.14,-221.82"/>
</g>
<!-- Node8 -->
<g id="node8" class="node">
<title>Node8</title>
<g id="a_node8"><a xlink:href="class_ogre_1_1_direction_randomiser_affector_factory.html" target="_top" xlink:title="Factory class for DirectionRandomiserAffector.">
<polygon fill="none" stroke="black" points="338,-175.5 338,-205.5 487,-205.5 487,-175.5 338,-175.5"/>
<text text-anchor="start" x="346" y="-193.5" font-family="Helvetica,sans-Serif" font-size="10.00">Ogre::DirectionRandomiser</text>
<text text-anchor="middle" x="412.5" y="-182.5" font-family="Helvetica,sans-Serif" font-size="10.00">AffectorFactory</text>
</a>
</g>
</g>
<!-- Node1&#45;&gt;Node8 -->
<g id="edge7" class="edge">
<title>Node1&#45;&gt;Node8</title>
<path fill="none" stroke="midnightblue" d="M303.1,-203.84C314.67,-202.42 326.44,-200.97 337.76,-199.58"/>
<polygon fill="midnightblue" stroke="midnightblue" points="302.51,-200.39 293.01,-205.08 303.36,-207.34 302.51,-200.39"/>
</g>
<!-- Node9 -->
<g id="node9" class="node">
<title>Node9</title>
<g id="a_node9"><a xlink:href="class_ogre_1_1_linear_force_affector_factory.html" target="_top" xlink:title="Factory class for LinearForceAffector.">
<polygon fill="none" stroke="black" points="342.5,-126.5 342.5,-156.5 482.5,-156.5 482.5,-126.5 342.5,-126.5"/>
<text text-anchor="start" x="350.5" y="-144.5" font-family="Helvetica,sans-Serif" font-size="10.00">Ogre::LinearForceAffector</text>
<text text-anchor="middle" x="412.5" y="-133.5" font-family="Helvetica,sans-Serif" font-size="10.00">Factory</text>
</a>
</g>
</g>
<!-- Node1&#45;&gt;Node9 -->
<g id="edge8" class="edge">
<title>Node1&#45;&gt;Node9</title>
<path fill="none" stroke="midnightblue" d="M245.82,-200.5C268.28,-190.08 300.2,-175.91 329,-165.5 337.7,-162.36 347.02,-159.33 356.16,-156.54"/>
<polygon fill="midnightblue" stroke="midnightblue" points="244.08,-197.45 236.51,-204.86 247.05,-203.79 244.08,-197.45"/>
</g>
<!-- Node10 -->
<g id="node10" class="node">
<title>Node10</title>
<g id="a_node10"><a xlink:href="class_ogre_1_1_rotation_affector_factory.html" target="_top" xlink:title="Factory class for RotationAffector.">
<polygon fill="none" stroke="black" points="332,-88 332,-107 493,-107 493,-88 332,-88"/>
<text text-anchor="middle" x="412.5" y="-95" font-family="Helvetica,sans-Serif" font-size="10.00">Ogre::RotationAffectorFactory</text>
</a>
</g>
</g>
<!-- Node1&#45;&gt;Node10 -->
<g id="edge9" class="edge">
<title>Node1&#45;&gt;Node10</title>
<path fill="none" stroke="midnightblue" d="M231.14,-197.34C251.01,-175.19 288.69,-137.05 329,-116.5 336.59,-112.63 344.98,-109.54 353.41,-107.07"/>
<polygon fill="midnightblue" stroke="midnightblue" points="228.4,-195.15 224.43,-204.98 233.66,-199.78 228.4,-195.15"/>
</g>
<!-- Node11 -->
<g id="node11" class="node">
<title>Node11</title>
<g id="a_node11"><a xlink:href="class_ogre_1_1_scale_affector_factory.html" target="_top" xlink:title="Factory class for ScaleAffector.">
<polygon fill="none" stroke="black" points="339.5,-50 339.5,-69 485.5,-69 485.5,-50 339.5,-50"/>
<text text-anchor="middle" x="412.5" y="-57" font-family="Helvetica,sans-Serif" font-size="10.00">Ogre::ScaleAffectorFactory</text>
</a>
</g>
</g>
<!-- Node1&#45;&gt;Node11 -->
<g id="edge10" class="edge">
<title>Node1&#45;&gt;Node11</title>
<path fill="none" stroke="midnightblue" d="M226.51,-195.83C243.46,-166.09 280.74,-108.29 329,-78.5 335.25,-74.64 342.21,-71.56 349.36,-69.11"/>
<polygon fill="midnightblue" stroke="midnightblue" points="223.34,-194.32 221.55,-204.76 229.46,-197.71 223.34,-194.32"/>
</g>
<!-- Node12 -->
<g id="node12" class="node">
<title>Node12</title>
<g id="a_node12"><a xlink:href="class_ogre_1_1_scale_interpolator_affector_factory.html" target="_top" xlink:title="Factory class for ScaleInterpolatorAffector.">
<polygon fill="none" stroke="black" points="329,-0.5 329,-30.5 496,-30.5 496,-0.5 329,-0.5"/>
<text text-anchor="start" x="337" y="-18.5" font-family="Helvetica,sans-Serif" font-size="10.00">Ogre::ScaleInterpolatorAffector</text>
<text text-anchor="middle" x="412.5" y="-7.5" font-family="Helvetica,sans-Serif" font-size="10.00">Factory</text>
</a>
</g>
</g>
<!-- Node1&#45;&gt;Node12 -->
<g id="edge11" class="edge">
<title>Node1&#45;&gt;Node12</title>
<path fill="none" stroke="midnightblue" d="M223.71,-195.17C238.09,-159.25 273.8,-82.08 329,-40.5 334.14,-36.63 339.88,-33.35 345.88,-30.58"/>
<polygon fill="midnightblue" stroke="midnightblue" points="220.28,-194.32 219.93,-204.91 226.81,-196.85 220.28,-194.32"/>
</g>
<!-- Node2 -->
<g id="node2" class="node">
<title>Node2</title>
<g id="a_node2"><a xlink:title=" ">
<polygon fill="none" stroke="#bfbfbf" points="0,-205 0,-224 102,-224 102,-205 0,-205"/>
<text text-anchor="middle" x="51" y="-212" font-family="Helvetica,sans-Serif" font-size="10.00">OgreAllocatedObj</text>
</a>
</g>
</g>
<!-- Node2&#45;&gt;Node1 -->
<g id="edge1" class="edge">
<title>Node2&#45;&gt;Node1</title>
<path fill="none" stroke="midnightblue" d="M112.16,-214.5C120.58,-214.5 129.32,-214.5 137.99,-214.5"/>
<polygon fill="midnightblue" stroke="midnightblue" points="112.08,-211 102.08,-214.5 112.08,-218 112.08,-211"/>
</g>
</g>
</svg>
