<?xml version="1.0" encoding="UTF-8" standalone="no"?>
<!DOCTYPE svg PUBLIC "-//W3C//DTD SVG 1.1//EN"
 "http://www.w3.org/Graphics/SVG/1.1/DTD/svg11.dtd">
<!-- Generated by graphviz version 2.43.0 (0)
 -->
<!-- Title: Ogre::ForwardPlusBase Pages: 1 -->
<svg width="256pt" height="140pt"
 viewBox="0.00 0.00 255.50 140.00" xmlns="http://www.w3.org/2000/svg" xmlns:xlink="http://www.w3.org/1999/xlink">
<g id="graph0" class="graph" transform="scale(1 1) rotate(0) translate(4 136)">
<title>Ogre::ForwardPlusBase</title>
<!-- Node1 -->
<g id="node1" class="node">
<title>Node1</title>
<g id="a_node1"><a xlink:title="ForwardPlusBase.">
<polygon fill="#bfbfbf" stroke="black" points="50.5,-56.5 50.5,-75.5 179.5,-75.5 179.5,-56.5 50.5,-56.5"/>
<text text-anchor="middle" x="115" y="-63.5" font-family="Helvetica,sans-Serif" font-size="10.00">Ogre::ForwardPlusBase</text>
</a>
</g>
</g>
<!-- Node3 -->
<g id="node3" class="node">
<title>Node3</title>
<g id="a_node3"><a xlink:href="class_ogre_1_1_forward3_d.html" target="_top" xlink:title="Forward3D.">
<polygon fill="none" stroke="black" points="0,-0.5 0,-19.5 98,-19.5 98,-0.5 0,-0.5"/>
<text text-anchor="middle" x="49" y="-7.5" font-family="Helvetica,sans-Serif" font-size="10.00">Ogre::Forward3D</text>
</a>
</g>
</g>
<!-- Node1&#45;&gt;Node3 -->
<g id="edge2" class="edge">
<title>Node1&#45;&gt;Node3</title>
<path fill="none" stroke="midnightblue" d="M96.45,-49.82C84.62,-40.15 69.71,-27.95 59.8,-19.83"/>
<polygon fill="midnightblue" stroke="midnightblue" points="94.44,-52.7 104.4,-56.32 98.87,-47.28 94.44,-52.7"/>
</g>
<!-- Node4 -->
<g id="node4" class="node">
<title>Node4</title>
<g id="a_node4"><a xlink:href="class_ogre_1_1_forward_clustered.html" target="_top" xlink:title="Implementation of Clustered Forward Shading.">
<polygon fill="none" stroke="black" points="116.5,-0.5 116.5,-19.5 247.5,-19.5 247.5,-0.5 116.5,-0.5"/>
<text text-anchor="middle" x="182" y="-7.5" font-family="Helvetica,sans-Serif" font-size="10.00">Ogre::ForwardClustered</text>
</a>
</g>
</g>
<!-- Node1&#45;&gt;Node4 -->
<g id="edge3" class="edge">
<title>Node1&#45;&gt;Node4</title>
<path fill="none" stroke="midnightblue" d="M133.83,-49.82C145.84,-40.15 160.97,-27.95 171.04,-19.83"/>
<polygon fill="midnightblue" stroke="midnightblue" points="131.35,-47.32 125.76,-56.32 135.75,-52.77 131.35,-47.32"/>
</g>
<!-- Node2 -->
<g id="node2" class="node">
<title>Node2</title>
<g id="a_node2"><a xlink:title=" ">
<polygon fill="none" stroke="#bfbfbf" points="64,-112.5 64,-131.5 166,-131.5 166,-112.5 64,-112.5"/>
<text text-anchor="middle" x="115" y="-119.5" font-family="Helvetica,sans-Serif" font-size="10.00">OgreAllocatedObj</text>
</a>
</g>
</g>
<!-- Node2&#45;&gt;Node1 -->
<g id="edge1" class="edge">
<title>Node2&#45;&gt;Node1</title>
<path fill="none" stroke="midnightblue" d="M115,-101.8C115,-92.91 115,-82.78 115,-75.75"/>
<polygon fill="midnightblue" stroke="midnightblue" points="111.5,-102.08 115,-112.08 118.5,-102.08 111.5,-102.08"/>
</g>
</g>
</svg>
