<?xml version="1.0" encoding="UTF-8" standalone="no"?>
<!DOCTYPE svg PUBLIC "-//W3C//DTD SVG 1.1//EN"
 "http://www.w3.org/Graphics/SVG/1.1/DTD/svg11.dtd">
<!-- Generated by graphviz version 2.43.0 (0)
 -->
<!-- Title: Ogre::ScriptTranslator Pages: 1 -->
<svg width="725pt" height="810pt"
 viewBox="0.00 0.00 725.00 809.50" xmlns="http://www.w3.org/2000/svg" xmlns:xlink="http://www.w3.org/1999/xlink">
<g id="graph0" class="graph" transform="scale(1 1) rotate(0) translate(4 805.5)">
<title>Ogre::ScriptTranslator</title>
<!-- Node1 -->
<g id="Node000001" class="node">
<title>Node1</title>
<g id="a_Node000001"><a xlink:title="This class translates script AST (abstract syntax tree) into Ogre resources.">
<polygon fill="#999999" stroke="#666666" points="289,-370 167,-370 167,-351 289,-351 289,-370"/>
<text text-anchor="middle" x="228" y="-358" font-family="Helvetica,sans-Serif" font-size="10.00">Ogre::ScriptTranslator</text>
</a>
</g>
</g>
<!-- Node3 -->
<g id="Node000003" class="node">
<title>Node3</title>
<g id="a_Node000003"><a xlink:href="class_ogre_1_1_compositor_load_action_translator.html" target="_top" xlink:title=" ">
<polygon fill="white" stroke="#666666" points="493,-801.5 337,-801.5 337,-771.5 493,-771.5 493,-801.5"/>
<text text-anchor="start" x="345" y="-789.5" font-family="Helvetica,sans-Serif" font-size="10.00">Ogre::CompositorLoadAction</text>
<text text-anchor="middle" x="415" y="-778.5" font-family="Helvetica,sans-Serif" font-size="10.00">Translator</text>
</a>
</g>
</g>
<!-- Node1&#45;&gt;Node3 -->
<g id="edge2_Node000001_Node000003" class="edge">
<title>Node1&#45;&gt;Node3</title>
<g id="a_edge2_Node000001_Node000003"><a xlink:title=" ">
<path fill="none" stroke="#63b8ff" d="M231.08,-380.41C239.11,-453.59 270.42,-706.32 325,-762.5 328.46,-766.06 332.38,-769.11 336.61,-771.72"/>
<polygon fill="#63b8ff" stroke="#63b8ff" points="234.54,-379.84 229.99,-370.27 227.58,-380.58 234.54,-379.84"/>
</a>
</g>
</g>
<!-- Node4 -->
<g id="Node000004" class="node">
<title>Node4</title>
<g id="a_Node000004"><a xlink:href="class_ogre_1_1_compositor_pass_translator.html" target="_top" xlink:title=" ">
<polygon fill="white" stroke="#666666" points="501,-753 329,-753 329,-734 501,-734 501,-753"/>
<text text-anchor="middle" x="415" y="-741" font-family="Helvetica,sans-Serif" font-size="10.00">Ogre::CompositorPassTranslator</text>
</a>
</g>
</g>
<!-- Node1&#45;&gt;Node4 -->
<g id="edge3_Node000001_Node000004" class="edge">
<title>Node1&#45;&gt;Node4</title>
<g id="a_edge3_Node000001_Node000004"><a xlink:title=" ">
<path fill="none" stroke="#63b8ff" d="M231.5,-380.36C240.55,-449.14 273.8,-675.68 325,-724.5 328.89,-728.21 333.31,-731.26 338.06,-733.78"/>
<polygon fill="#63b8ff" stroke="#63b8ff" points="234.92,-379.54 230.17,-370.07 227.98,-380.44 234.92,-379.54"/>
</a>
</g>
</g>
<!-- Node5 -->
<g id="Node000005" class="node">
<title>Node5</title>
<g id="a_Node000005"><a xlink:href="class_ogre_1_1_compositor_render_target_view_translator.html" target="_top" xlink:title=" ">
<polygon fill="white" stroke="#666666" points="498.5,-715.5 331.5,-715.5 331.5,-685.5 498.5,-685.5 498.5,-715.5"/>
<text text-anchor="start" x="339.5" y="-703.5" font-family="Helvetica,sans-Serif" font-size="10.00">Ogre::CompositorRenderTarget</text>
<text text-anchor="middle" x="415" y="-692.5" font-family="Helvetica,sans-Serif" font-size="10.00">ViewTranslator</text>
</a>
</g>
</g>
<!-- Node1&#45;&gt;Node5 -->
<g id="edge4_Node000001_Node000005" class="edge">
<title>Node1&#45;&gt;Node5</title>
<g id="a_edge4_Node000001_Node000005"><a xlink:title=" ">
<path fill="none" stroke="#63b8ff" d="M228.82,-380.38C229.44,-435.78 239.08,-593.25 325,-676.5 328.56,-679.95 332.57,-682.92 336.86,-685.47"/>
<polygon fill="#63b8ff" stroke="#63b8ff" points="232.32,-380.17 228.8,-370.17 225.32,-380.18 232.32,-380.17"/>
</a>
</g>
</g>
<!-- Node6 -->
<g id="Node000006" class="node">
<title>Node6</title>
<g id="a_Node000006"><a xlink:href="class_ogre_1_1_compositor_shadow_map_repeat_translator.html" target="_top" xlink:title=" ">
<polygon fill="white" stroke="#666666" points="495.5,-667.5 334.5,-667.5 334.5,-637.5 495.5,-637.5 495.5,-667.5"/>
<text text-anchor="start" x="342.5" y="-655.5" font-family="Helvetica,sans-Serif" font-size="10.00">Ogre::CompositorShadowMap</text>
<text text-anchor="middle" x="415" y="-644.5" font-family="Helvetica,sans-Serif" font-size="10.00">RepeatTranslator</text>
</a>
</g>
</g>
<!-- Node1&#45;&gt;Node6 -->
<g id="edge5_Node000001_Node000006" class="edge">
<title>Node1&#45;&gt;Node6</title>
<g id="a_edge5_Node000001_Node000006"><a xlink:title=" ">
<path fill="none" stroke="#63b8ff" d="M230.07,-380.28C233.83,-429.79 250.68,-559.94 325,-628.5 328.65,-631.86 332.71,-634.76 337.05,-637.27"/>
<polygon fill="#63b8ff" stroke="#63b8ff" points="233.54,-379.75 229.39,-370.01 226.56,-380.21 233.54,-379.75"/>
</a>
</g>
</g>
<!-- Node7 -->
<g id="Node000007" class="node">
<title>Node7</title>
<g id="a_Node000007"><a xlink:href="class_ogre_1_1_compositor_shadow_map_target_translator.html" target="_top" xlink:title=" ">
<polygon fill="white" stroke="#666666" points="495.5,-619.5 334.5,-619.5 334.5,-589.5 495.5,-589.5 495.5,-619.5"/>
<text text-anchor="start" x="342.5" y="-607.5" font-family="Helvetica,sans-Serif" font-size="10.00">Ogre::CompositorShadowMap</text>
<text text-anchor="middle" x="415" y="-596.5" font-family="Helvetica,sans-Serif" font-size="10.00">TargetTranslator</text>
</a>
</g>
</g>
<!-- Node1&#45;&gt;Node7 -->
<g id="edge6_Node000001_Node000007" class="edge">
<title>Node1&#45;&gt;Node7</title>
<g id="a_edge6_Node000001_Node000007"><a xlink:title=" ">
<path fill="none" stroke="#63b8ff" d="M231.79,-380.18C238.97,-423.25 262.12,-526.3 325,-580.5 329,-583.95 333.45,-586.91 338.16,-589.44"/>
<polygon fill="#63b8ff" stroke="#63b8ff" points="235.23,-379.5 230.24,-370.15 228.31,-380.57 235.23,-379.5"/>
</a>
</g>
</g>
<!-- Node8 -->
<g id="Node000008" class="node">
<title>Node8</title>
<g id="a_Node000008"><a xlink:href="class_ogre_1_1_compositor_shadow_map_target_type_translator.html" target="_top" xlink:title=" ">
<polygon fill="white" stroke="#666666" points="495.5,-571.5 334.5,-571.5 334.5,-541.5 495.5,-541.5 495.5,-571.5"/>
<text text-anchor="start" x="342.5" y="-559.5" font-family="Helvetica,sans-Serif" font-size="10.00">Ogre::CompositorShadowMap</text>
<text text-anchor="middle" x="415" y="-548.5" font-family="Helvetica,sans-Serif" font-size="10.00">TargetTypeTranslator</text>
</a>
</g>
</g>
<!-- Node1&#45;&gt;Node8 -->
<g id="edge7_Node000001_Node000008" class="edge">
<title>Node1&#45;&gt;Node8</title>
<g id="a_edge7_Node000001_Node000008"><a xlink:title=" ">
<path fill="none" stroke="#63b8ff" d="M234.27,-379.73C245.08,-415.46 273.2,-492.08 325,-532.5 329.42,-535.95 334.29,-538.9 339.41,-541.43"/>
<polygon fill="#63b8ff" stroke="#63b8ff" points="237.61,-378.68 231.47,-370.04 230.89,-380.62 237.61,-378.68"/>
</a>
</g>
</g>
<!-- Node9 -->
<g id="Node000009" class="node">
<title>Node9</title>
<g id="a_Node000009"><a xlink:href="class_ogre_1_1_compositor_store_action_translator.html" target="_top" xlink:title=" ">
<polygon fill="white" stroke="#666666" points="494,-523.5 336,-523.5 336,-493.5 494,-493.5 494,-523.5"/>
<text text-anchor="start" x="344" y="-511.5" font-family="Helvetica,sans-Serif" font-size="10.00">Ogre::CompositorStoreAction</text>
<text text-anchor="middle" x="415" y="-500.5" font-family="Helvetica,sans-Serif" font-size="10.00">Translator</text>
</a>
</g>
</g>
<!-- Node1&#45;&gt;Node9 -->
<g id="edge8_Node000001_Node000009" class="edge">
<title>Node1&#45;&gt;Node9</title>
<g id="a_edge8_Node000001_Node000009"><a xlink:title=" ">
<path fill="none" stroke="#63b8ff" d="M238.46,-379.04C253.22,-406.12 284.33,-456.21 325,-483.5 330.73,-487.35 337.05,-490.6 343.59,-493.36"/>
<polygon fill="#63b8ff" stroke="#63b8ff" points="241.54,-377.39 233.77,-370.19 235.36,-380.67 241.54,-377.39"/>
</a>
</g>
</g>
<!-- Node10 -->
<g id="Node000010" class="node">
<title>Node10</title>
<g id="a_Node000010"><a xlink:href="class_ogre_1_1_compositor_target_translator.html" target="_top" xlink:title=" ">
<polygon fill="white" stroke="#666666" points="505,-475 325,-475 325,-456 505,-456 505,-475"/>
<text text-anchor="middle" x="415" y="-463" font-family="Helvetica,sans-Serif" font-size="10.00">Ogre::CompositorTargetTranslator</text>
</a>
</g>
</g>
<!-- Node1&#45;&gt;Node10 -->
<g id="edge9_Node000001_Node000010" class="edge">
<title>Node1&#45;&gt;Node10</title>
<g id="a_edge9_Node000001_Node000010"><a xlink:title=" ">
<path fill="none" stroke="#63b8ff" d="M243.09,-377.65C260.3,-397.42 291.32,-429.37 325,-446.5 332.61,-450.37 340.96,-453.45 349.41,-455.9"/>
<polygon fill="#63b8ff" stroke="#63b8ff" points="245.73,-375.36 236.59,-370.01 240.4,-379.89 245.73,-375.36"/>
</a>
</g>
</g>
<!-- Node11 -->
<g id="Node000011" class="node">
<title>Node11</title>
<g id="a_Node000011"><a xlink:href="class_ogre_1_1_compositor_texture_base_translator.html" target="_top" xlink:title=" ">
<polygon fill="white" stroke="#666666" points="496,-437.5 334,-437.5 334,-407.5 496,-407.5 496,-437.5"/>
<text text-anchor="start" x="342" y="-425.5" font-family="Helvetica,sans-Serif" font-size="10.00">Ogre::CompositorTextureBase</text>
<text text-anchor="middle" x="415" y="-414.5" font-family="Helvetica,sans-Serif" font-size="10.00">Translator</text>
</a>
</g>
</g>
<!-- Node1&#45;&gt;Node11 -->
<g id="edge10_Node000001_Node000011" class="edge">
<title>Node1&#45;&gt;Node11</title>
<g id="a_edge10_Node000001_Node000011"><a xlink:title=" ">
<path fill="none" stroke="#63b8ff" d="M261.47,-373.89C279.94,-381.28 303.59,-390.39 325,-397.5 335.36,-400.94 346.49,-404.32 357.26,-407.42"/>
<polygon fill="#63b8ff" stroke="#63b8ff" points="262.64,-370.59 252.06,-370.09 260.02,-377.08 262.64,-370.59"/>
</a>
</g>
</g>
<!-- Node15 -->
<g id="Node000015" class="node">
<title>Node15</title>
<g id="a_Node000015"><a xlink:href="class_ogre_1_1_gpu_program_translator.html" target="_top" xlink:title=" ">
<polygon fill="white" stroke="#666666" points="492.5,-389 337.5,-389 337.5,-370 492.5,-370 492.5,-389"/>
<text text-anchor="middle" x="415" y="-377" font-family="Helvetica,sans-Serif" font-size="10.00">Ogre::GpuProgramTranslator</text>
</a>
</g>
</g>
<!-- Node1&#45;&gt;Node15 -->
<g id="edge14_Node000001_Node000015" class="edge">
<title>Node1&#45;&gt;Node15</title>
<g id="a_edge14_Node000001_Node000015"><a xlink:title=" ">
<path fill="none" stroke="#63b8ff" d="M299.35,-367.73C311.78,-369 324.77,-370.34 337.36,-371.63"/>
<polygon fill="#63b8ff" stroke="#63b8ff" points="299.37,-364.21 289.06,-366.67 298.65,-371.17 299.37,-364.21"/>
</a>
</g>
</g>
<!-- Node16 -->
<g id="Node000016" class="node">
<title>Node16</title>
<g id="a_Node000016"><a xlink:href="class_ogre_1_1_hlms_translator.html" target="_top" xlink:title=" ">
<polygon fill="white" stroke="#666666" points="474.5,-352 355.5,-352 355.5,-333 474.5,-333 474.5,-352"/>
<text text-anchor="middle" x="415" y="-340" font-family="Helvetica,sans-Serif" font-size="10.00">Ogre::HlmsTranslator</text>
</a>
</g>
</g>
<!-- Node1&#45;&gt;Node16 -->
<g id="edge15_Node000001_Node000016" class="edge">
<title>Node1&#45;&gt;Node16</title>
<g id="a_edge15_Node000001_Node000016"><a xlink:title=" ">
<path fill="none" stroke="#63b8ff" d="M299.23,-353.67C317.79,-351.86 337.63,-349.93 355.5,-348.19"/>
<polygon fill="#63b8ff" stroke="#63b8ff" points="298.68,-350.2 289.06,-354.66 299.36,-357.17 298.68,-350.2"/>
</a>
</g>
</g>
<!-- Node17 -->
<g id="Node000017" class="node">
<title>Node17</title>
<g id="a_Node000017"><a xlink:href="class_ogre_1_1_material_translator.html" target="_top" xlink:title=" ">
<polygon fill="white" stroke="#666666" points="482,-315 348,-315 348,-296 482,-296 482,-315"/>
<text text-anchor="middle" x="415" y="-303" font-family="Helvetica,sans-Serif" font-size="10.00">Ogre::MaterialTranslator</text>
</a>
</g>
</g>
<!-- Node1&#45;&gt;Node17 -->
<g id="edge16_Node000001_Node000017" class="edge">
<title>Node1&#45;&gt;Node17</title>
<g id="a_edge16_Node000001_Node000017"><a xlink:title=" ">
<path fill="none" stroke="#63b8ff" d="M260.17,-346.95C278.73,-339.27 302.91,-329.94 325,-323.5 336.05,-320.28 348.03,-317.43 359.52,-315.01"/>
<polygon fill="#63b8ff" stroke="#63b8ff" points="258.62,-343.81 250.75,-350.9 261.33,-350.26 258.62,-343.81"/>
</a>
</g>
</g>
<!-- Node18 -->
<g id="Node000018" class="node">
<title>Node18</title>
<g id="a_Node000018"><a xlink:href="class_ogre_1_1_particle_affector_translator.html" target="_top" xlink:title=" ">
<polygon fill="white" stroke="#666666" points="499,-278 331,-278 331,-259 499,-259 499,-278"/>
<text text-anchor="middle" x="415" y="-266" font-family="Helvetica,sans-Serif" font-size="10.00">Ogre::ParticleAffectorTranslator</text>
</a>
</g>
</g>
<!-- Node1&#45;&gt;Node18 -->
<g id="edge17_Node000001_Node000018" class="edge">
<title>Node1&#45;&gt;Node18</title>
<g id="a_edge17_Node000001_Node000018"><a xlink:title=" ">
<path fill="none" stroke="#63b8ff" d="M245.73,-343.67C263.72,-326.58 293.95,-300.67 325,-286.5 332.46,-283.1 340.56,-280.33 348.73,-278.09"/>
<polygon fill="#63b8ff" stroke="#63b8ff" points="243.09,-341.35 238.36,-350.83 247.97,-346.37 243.09,-341.35"/>
</a>
</g>
</g>
<!-- Node19 -->
<g id="Node000019" class="node">
<title>Node19</title>
<g id="a_Node000019"><a xlink:href="class_ogre_1_1_particle_emitter_translator.html" target="_top" xlink:title=" ">
<polygon fill="white" stroke="#666666" points="498,-241 332,-241 332,-222 498,-222 498,-241"/>
<text text-anchor="middle" x="415" y="-229" font-family="Helvetica,sans-Serif" font-size="10.00">Ogre::ParticleEmitterTranslator</text>
</a>
</g>
</g>
<!-- Node1&#45;&gt;Node19 -->
<g id="edge18_Node000001_Node000019" class="edge">
<title>Node1&#45;&gt;Node19</title>
<g id="a_edge18_Node000001_Node000019"><a xlink:title=" ">
<path fill="none" stroke="#63b8ff" d="M239.54,-342C254.92,-316.82 285.96,-272.3 325,-249.5 330.85,-246.08 337.25,-243.3 343.85,-241.05"/>
<polygon fill="#63b8ff" stroke="#63b8ff" points="236.35,-340.52 234.27,-350.91 242.37,-344.09 236.35,-340.52"/>
</a>
</g>
</g>
<!-- Node20 -->
<g id="Node000020" class="node">
<title>Node20</title>
<g id="a_Node000020"><a xlink:href="class_ogre_1_1_particle_system_translator.html" target="_top" xlink:title=" ">
<polygon fill="white" stroke="#666666" points="498.5,-204 331.5,-204 331.5,-185 498.5,-185 498.5,-204"/>
<text text-anchor="middle" x="415" y="-192" font-family="Helvetica,sans-Serif" font-size="10.00">Ogre::ParticleSystemTranslator</text>
</a>
</g>
</g>
<!-- Node1&#45;&gt;Node20 -->
<g id="edge19_Node000001_Node000020" class="edge">
<title>Node1&#45;&gt;Node20</title>
<g id="a_edge19_Node000001_Node000020"><a xlink:title=" ">
<path fill="none" stroke="#63b8ff" d="M235.87,-341C248.29,-308.75 277.68,-244.7 325,-212.5 329.95,-209.13 335.4,-206.36 341.08,-204.1"/>
<polygon fill="#63b8ff" stroke="#63b8ff" points="232.49,-340.03 232.3,-350.62 239.06,-342.46 232.49,-340.03"/>
</a>
</g>
</g>
<!-- Node21 -->
<g id="Node000021" class="node">
<title>Node21</title>
<g id="a_Node000021"><a xlink:href="class_ogre_1_1_pass_translator.html" target="_top" xlink:title=" ">
<polygon fill="white" stroke="#666666" points="473,-167 357,-167 357,-148 473,-148 473,-167"/>
<text text-anchor="middle" x="415" y="-155" font-family="Helvetica,sans-Serif" font-size="10.00">Ogre::PassTranslator</text>
</a>
</g>
</g>
<!-- Node1&#45;&gt;Node21 -->
<g id="edge20_Node000001_Node000021" class="edge">
<title>Node1&#45;&gt;Node21</title>
<g id="a_edge20_Node000001_Node000021"><a xlink:title=" ">
<path fill="none" stroke="#63b8ff" d="M233.19,-341.09C242.51,-302.88 268.72,-217.92 325,-175.5 334.19,-168.57 345.38,-164.13 356.67,-161.33"/>
<polygon fill="#63b8ff" stroke="#63b8ff" points="229.75,-340.43 230.91,-350.96 236.57,-342 229.75,-340.43"/>
</a>
</g>
</g>
<!-- Node22 -->
<g id="Node000022" class="node">
<title>Node22</title>
<g id="a_Node000022"><a xlink:href="class_ogre_1_1_shared_params_translator.html" target="_top" xlink:title=" ">
<polygon fill="white" stroke="#666666" points="497,-130 333,-130 333,-111 497,-111 497,-130"/>
<text text-anchor="middle" x="415" y="-118" font-family="Helvetica,sans-Serif" font-size="10.00">Ogre::SharedParamsTranslator</text>
</a>
</g>
</g>
<!-- Node1&#45;&gt;Node22 -->
<g id="edge21_Node000001_Node000022" class="edge">
<title>Node1&#45;&gt;Node22</title>
<g id="a_edge21_Node000001_Node000022"><a xlink:title=" ">
<path fill="none" stroke="#63b8ff" d="M231.44,-340.62C237.94,-296.73 259.88,-191.28 325,-138.5 329.16,-135.13 333.79,-132.33 338.69,-130.02"/>
<polygon fill="#63b8ff" stroke="#63b8ff" points="227.96,-340.23 230.08,-350.61 234.9,-341.17 227.96,-340.23"/>
</a>
</g>
</g>
<!-- Node23 -->
<g id="Node000023" class="node">
<title>Node23</title>
<g id="a_Node000023"><a xlink:href="class_ogre_1_1_technique_translator.html" target="_top" xlink:title=" ">
<polygon fill="white" stroke="#666666" points="486.5,-93 343.5,-93 343.5,-74 486.5,-74 486.5,-93"/>
<text text-anchor="middle" x="415" y="-81" font-family="Helvetica,sans-Serif" font-size="10.00">Ogre::TechniqueTranslator</text>
</a>
</g>
</g>
<!-- Node1&#45;&gt;Node23 -->
<g id="edge22_Node000001_Node000023" class="edge">
<title>Node1&#45;&gt;Node23</title>
<g id="a_edge22_Node000001_Node000023"><a xlink:title=" ">
<path fill="none" stroke="#63b8ff" d="M230.07,-340.75C233.82,-291.97 250.62,-165.14 325,-101.5 330.39,-96.89 336.64,-93.34 343.27,-90.63"/>
<polygon fill="#63b8ff" stroke="#63b8ff" points="226.56,-340.7 229.39,-350.91 233.55,-341.16 226.56,-340.7"/>
</a>
</g>
</g>
<!-- Node24 -->
<g id="Node000024" class="node">
<title>Node24</title>
<g id="a_Node000024"><a xlink:href="class_ogre_1_1_texture_source_translator.html" target="_top" xlink:title=" ">
<polygon fill="white" stroke="#666666" points="496.5,-56 333.5,-56 333.5,-37 496.5,-37 496.5,-56"/>
<text text-anchor="middle" x="415" y="-44" font-family="Helvetica,sans-Serif" font-size="10.00">Ogre::TextureSourceTranslator</text>
</a>
</g>
</g>
<!-- Node1&#45;&gt;Node24 -->
<g id="edge23_Node000001_Node000024" class="edge">
<title>Node1&#45;&gt;Node24</title>
<g id="a_edge23_Node000001_Node000024"><a xlink:title=" ">
<path fill="none" stroke="#63b8ff" d="M229.03,-340.53C230.25,-286.94 241.43,-139.04 325,-64.5 328.76,-61.14 332.98,-58.34 337.47,-56.01"/>
<polygon fill="#63b8ff" stroke="#63b8ff" points="225.52,-340.69 228.89,-350.73 232.52,-340.78 225.52,-340.69"/>
</a>
</g>
</g>
<!-- Node25 -->
<g id="Node000025" class="node">
<title>Node25</title>
<g id="a_Node000025"><a xlink:href="class_ogre_1_1_texture_unit_translator.html" target="_top" xlink:title=" ">
<polygon fill="white" stroke="#666666" points="490,-19 340,-19 340,0 490,0 490,-19"/>
<text text-anchor="middle" x="415" y="-7" font-family="Helvetica,sans-Serif" font-size="10.00">Ogre::TextureUnitTranslator</text>
</a>
</g>
</g>
<!-- Node1&#45;&gt;Node25 -->
<g id="edge24_Node000001_Node000025" class="edge">
<title>Node1&#45;&gt;Node25</title>
<g id="a_edge24_Node000001_Node000025"><a xlink:title=" ">
<path fill="none" stroke="#63b8ff" d="M228.19,-340.43C227.02,-282.41 232.09,-113.16 325,-27.5 329.4,-23.44 334.46,-20.19 339.88,-17.59"/>
<polygon fill="#63b8ff" stroke="#63b8ff" points="224.7,-340.88 228.49,-350.77 231.7,-340.68 224.7,-340.88"/>
</a>
</g>
</g>
<!-- Node2 -->
<g id="Node000002" class="node">
<title>Node2</title>
<g id="a_Node000002"><a xlink:title=" ">
<polygon fill="white" stroke="#666666" points="131,-370 0,-370 0,-351 131,-351 131,-370"/>
<text text-anchor="middle" x="65.5" y="-358" font-family="Helvetica,sans-Serif" font-size="10.00">Ogre::OgreAllocatedObj</text>
</a>
</g>
</g>
<!-- Node2&#45;&gt;Node1 -->
<g id="edge1_Node000001_Node000002" class="edge">
<title>Node2&#45;&gt;Node1</title>
<g id="a_edge1_Node000001_Node000002"><a xlink:title=" ">
<path fill="none" stroke="#63b8ff" d="M141.59,-360.5C150.07,-360.5 158.62,-360.5 166.87,-360.5"/>
<polygon fill="#63b8ff" stroke="#63b8ff" points="141.32,-357 131.32,-360.5 141.32,-364 141.32,-357"/>
</a>
</g>
</g>
<!-- Node12 -->
<g id="Node000012" class="node">
<title>Node12</title>
<g id="a_Node000012"><a xlink:href="class_ogre_1_1_compositor_node_translator.html" target="_top" xlink:title=" ">
<polygon fill="white" stroke="#666666" points="717,-475 541,-475 541,-456 717,-456 717,-475"/>
<text text-anchor="middle" x="629" y="-463" font-family="Helvetica,sans-Serif" font-size="10.00">Ogre::CompositorNodeTranslator</text>
</a>
</g>
</g>
<!-- Node11&#45;&gt;Node12 -->
<g id="edge11_Node000011_Node000012" class="edge">
<title>Node11&#45;&gt;Node12</title>
<g id="a_edge11_Node000011_Node000012"><a xlink:title=" ">
<path fill="none" stroke="#63b8ff" d="M500.18,-439.57C527.71,-445.16 557.29,-451.16 581.05,-455.98"/>
<polygon fill="#63b8ff" stroke="#63b8ff" points="500.64,-436.1 490.15,-437.54 499.25,-442.96 500.64,-436.1"/>
</a>
</g>
</g>
<!-- Node13 -->
<g id="Node000013" class="node">
<title>Node13</title>
<g id="a_Node000013"><a xlink:href="class_ogre_1_1_compositor_shadow_node_translator.html" target="_top" xlink:title=" ">
<polygon fill="white" stroke="#666666" points="712,-437.5 546,-437.5 546,-407.5 712,-407.5 712,-437.5"/>
<text text-anchor="start" x="554" y="-425.5" font-family="Helvetica,sans-Serif" font-size="10.00">Ogre::CompositorShadowNode</text>
<text text-anchor="middle" x="629" y="-414.5" font-family="Helvetica,sans-Serif" font-size="10.00">Translator</text>
</a>
</g>
</g>
<!-- Node11&#45;&gt;Node13 -->
<g id="edge12_Node000011_Node000013" class="edge">
<title>Node11&#45;&gt;Node13</title>
<g id="a_edge12_Node000011_Node000013"><a xlink:title=" ">
<path fill="none" stroke="#63b8ff" d="M506.17,-422.5C519.39,-422.5 532.94,-422.5 545.98,-422.5"/>
<polygon fill="#63b8ff" stroke="#63b8ff" points="506.15,-419 496.15,-422.5 506.15,-426 506.15,-419"/>
</a>
</g>
</g>
<!-- Node14 -->
<g id="Node000014" class="node">
<title>Node14</title>
<g id="a_Node000014"><a xlink:href="class_ogre_1_1_compositor_workspace_translator.html" target="_top" xlink:title=" ">
<polygon fill="white" stroke="#666666" points="706.5,-389.5 551.5,-389.5 551.5,-359.5 706.5,-359.5 706.5,-389.5"/>
<text text-anchor="start" x="559.5" y="-377.5" font-family="Helvetica,sans-Serif" font-size="10.00">Ogre::CompositorWorkspace</text>
<text text-anchor="middle" x="629" y="-366.5" font-family="Helvetica,sans-Serif" font-size="10.00">Translator</text>
</a>
</g>
</g>
<!-- Node11&#45;&gt;Node14 -->
<g id="edge13_Node000011_Node000014" class="edge">
<title>Node11&#45;&gt;Node14</title>
<g id="a_edge13_Node000011_Node000014"><a xlink:title=" ">
<path fill="none" stroke="#63b8ff" d="M492.42,-405.2C515.11,-400.06 539.76,-394.48 561.74,-389.5"/>
<polygon fill="#63b8ff" stroke="#63b8ff" points="491.48,-401.82 482.5,-407.44 493.02,-408.65 491.48,-401.82"/>
</a>
</g>
</g>
</g>
</svg>
