<?xml version="1.0" encoding="UTF-8" standalone="no"?>
<!DOCTYPE svg PUBLIC "-//W3C//DTD SVG 1.1//EN"
 "http://www.w3.org/Graphics/SVG/1.1/DTD/svg11.dtd">
<!-- Generated by graphviz version 2.43.0 (0)
 -->
<!-- Title: Ogre::SceneQueryListener Pages: 1 -->
<svg width="701pt" height="137pt"
 viewBox="0.00 0.00 701.00 137.00" xmlns="http://www.w3.org/2000/svg" xmlns:xlink="http://www.w3.org/1999/xlink">
<g id="graph0" class="graph" transform="scale(1 1) rotate(0) translate(4 133)">
<title>Ogre::SceneQueryListener</title>
<!-- Node1 -->
<g id="node1" class="node">
<title>Node1</title>
<g id="a_node1"><a xlink:title="This optional class allows you to receive per&#45;result callbacks from SceneQuery executions instead of ...">
<polygon fill="#bfbfbf" stroke="black" points="0,-55 0,-74 143,-74 143,-55 0,-55"/>
<text text-anchor="middle" x="71.5" y="-62" font-family="Helvetica,sans-Serif" font-size="10.00">Ogre::SceneQueryListener</text>
</a>
</g>
</g>
<!-- Node2 -->
<g id="node2" class="node">
<title>Node2</title>
<g id="a_node2"><a xlink:href="class_ogre_1_1_region_scene_query.html" target="_top" xlink:title="Abstract class defining a query which returns single results from a region.">
<polygon fill="none" stroke="black" points="179,-55 179,-74 317,-74 317,-55 179,-55"/>
<text text-anchor="middle" x="248" y="-62" font-family="Helvetica,sans-Serif" font-size="10.00">Ogre::RegionSceneQuery</text>
</a>
</g>
</g>
<!-- Node1&#45;&gt;Node2 -->
<g id="edge1" class="edge">
<title>Node1&#45;&gt;Node2</title>
<path fill="none" stroke="midnightblue" d="M153.47,-64.5C161.91,-64.5 170.43,-64.5 178.72,-64.5"/>
<polygon fill="midnightblue" stroke="midnightblue" points="153.22,-61 143.22,-64.5 153.22,-68 153.22,-61"/>
</g>
<!-- Node3 -->
<g id="node3" class="node">
<title>Node3</title>
<g id="a_node3"><a xlink:href="class_ogre_1_1_axis_aligned_box_scene_query.html" target="_top" xlink:title="Specialises the SceneQuery class for querying within an axis aligned box.">
<polygon fill="none" stroke="black" points="353,-98.5 353,-128.5 505,-128.5 505,-98.5 353,-98.5"/>
<text text-anchor="start" x="361" y="-116.5" font-family="Helvetica,sans-Serif" font-size="10.00">Ogre::AxisAlignedBoxScene</text>
<text text-anchor="middle" x="429" y="-105.5" font-family="Helvetica,sans-Serif" font-size="10.00">Query</text>
</a>
</g>
</g>
<!-- Node2&#45;&gt;Node3 -->
<g id="edge2" class="edge">
<title>Node2&#45;&gt;Node3</title>
<path fill="none" stroke="midnightblue" d="M293.85,-76.78C317.87,-83.35 347.67,-91.51 373.07,-98.46"/>
<polygon fill="midnightblue" stroke="midnightblue" points="294.51,-73.33 283.94,-74.06 292.66,-80.08 294.51,-73.33"/>
</g>
<!-- Node5 -->
<g id="node5" class="node">
<title>Node5</title>
<g id="a_node5"><a xlink:href="class_ogre_1_1_plane_bounded_volume_list_scene_query.html" target="_top" xlink:title="Specialises the SceneQuery class for querying within a plane&#45;bounded volume.">
<polygon fill="none" stroke="black" points="353,-49.5 353,-79.5 505,-79.5 505,-49.5 353,-49.5"/>
<text text-anchor="start" x="361" y="-67.5" font-family="Helvetica,sans-Serif" font-size="10.00">Ogre::PlaneBoundedVolume</text>
<text text-anchor="middle" x="429" y="-56.5" font-family="Helvetica,sans-Serif" font-size="10.00">ListSceneQuery</text>
</a>
</g>
</g>
<!-- Node2&#45;&gt;Node5 -->
<g id="edge4" class="edge">
<title>Node2&#45;&gt;Node5</title>
<path fill="none" stroke="midnightblue" d="M327.4,-64.5C335.85,-64.5 344.43,-64.5 352.84,-64.5"/>
<polygon fill="midnightblue" stroke="midnightblue" points="327.18,-61 317.18,-64.5 327.18,-68 327.18,-61"/>
</g>
<!-- Node7 -->
<g id="node7" class="node">
<title>Node7</title>
<g id="a_node7"><a xlink:href="class_ogre_1_1_sphere_scene_query.html" target="_top" xlink:title="Specialises the SceneQuery class for querying within a sphere.">
<polygon fill="none" stroke="black" points="360,-9 360,-28 498,-28 498,-9 360,-9"/>
<text text-anchor="middle" x="429" y="-16" font-family="Helvetica,sans-Serif" font-size="10.00">Ogre::SphereSceneQuery</text>
</a>
</g>
</g>
<!-- Node2&#45;&gt;Node7 -->
<g id="edge6" class="edge">
<title>Node2&#45;&gt;Node7</title>
<path fill="none" stroke="midnightblue" d="M295.82,-52.47C325.5,-44.84 363.37,-35.11 390.96,-28.02"/>
<polygon fill="midnightblue" stroke="midnightblue" points="294.9,-49.09 286.09,-54.97 296.65,-55.87 294.9,-49.09"/>
</g>
<!-- Node4 -->
<g id="node4" class="node">
<title>Node4</title>
<g id="a_node4"><a xlink:href="class_ogre_1_1_default_axis_aligned_box_scene_query.html" target="_top" xlink:title="Default implementation of AxisAlignedBoxSceneQuery.">
<polygon fill="none" stroke="black" points="547,-98.5 547,-128.5 687,-128.5 687,-98.5 547,-98.5"/>
<text text-anchor="start" x="555" y="-116.5" font-family="Helvetica,sans-Serif" font-size="10.00">Ogre::DefaultAxisAligned</text>
<text text-anchor="middle" x="617" y="-105.5" font-family="Helvetica,sans-Serif" font-size="10.00">BoxSceneQuery</text>
</a>
</g>
</g>
<!-- Node3&#45;&gt;Node4 -->
<g id="edge3" class="edge">
<title>Node3&#45;&gt;Node4</title>
<path fill="none" stroke="midnightblue" d="M515.23,-113.5C525.84,-113.5 536.59,-113.5 546.91,-113.5"/>
<polygon fill="midnightblue" stroke="midnightblue" points="515.12,-110 505.12,-113.5 515.12,-117 515.12,-110"/>
</g>
<!-- Node6 -->
<g id="node6" class="node">
<title>Node6</title>
<g id="a_node6"><a xlink:href="class_ogre_1_1_default_plane_bounded_volume_list_scene_query.html" target="_top" xlink:title="Default implementation of PlaneBoundedVolumeListSceneQuery.">
<polygon fill="none" stroke="black" points="541,-49.5 541,-79.5 693,-79.5 693,-49.5 541,-49.5"/>
<text text-anchor="start" x="549" y="-67.5" font-family="Helvetica,sans-Serif" font-size="10.00">Ogre::DefaultPlaneBounded</text>
<text text-anchor="middle" x="617" y="-56.5" font-family="Helvetica,sans-Serif" font-size="10.00">VolumeListSceneQuery</text>
</a>
</g>
</g>
<!-- Node5&#45;&gt;Node6 -->
<g id="edge5" class="edge">
<title>Node5&#45;&gt;Node6</title>
<path fill="none" stroke="midnightblue" d="M515.15,-64.5C523.74,-64.5 532.43,-64.5 540.9,-64.5"/>
<polygon fill="midnightblue" stroke="midnightblue" points="515.12,-61 505.12,-64.5 515.12,-68 515.12,-61"/>
</g>
<!-- Node8 -->
<g id="node8" class="node">
<title>Node8</title>
<g id="a_node8"><a xlink:href="class_ogre_1_1_default_sphere_scene_query.html" target="_top" xlink:title="Default implementation of SphereSceneQuery.">
<polygon fill="none" stroke="black" points="544.5,-0.5 544.5,-30.5 689.5,-30.5 689.5,-0.5 544.5,-0.5"/>
<text text-anchor="start" x="552.5" y="-18.5" font-family="Helvetica,sans-Serif" font-size="10.00">Ogre::DefaultSphereScene</text>
<text text-anchor="middle" x="617" y="-7.5" font-family="Helvetica,sans-Serif" font-size="10.00">Query</text>
</a>
</g>
</g>
<!-- Node7&#45;&gt;Node8 -->
<g id="edge7" class="edge">
<title>Node7&#45;&gt;Node8</title>
<path fill="none" stroke="midnightblue" d="M508.55,-17.23C520.43,-17.04 532.64,-16.84 544.37,-16.66"/>
<polygon fill="midnightblue" stroke="midnightblue" points="508.15,-13.74 498.2,-17.4 508.26,-20.74 508.15,-13.74"/>
</g>
</g>
</svg>
