<?xml version="1.0" encoding="UTF-8" standalone="no"?>
<!DOCTYPE svg PUBLIC "-//W3C//DTD SVG 1.1//EN"
 "http://www.w3.org/Graphics/SVG/1.1/DTD/svg11.dtd">
<!-- Generated by graphviz version 2.43.0 (0)
 -->
<!-- Title: Ogre::Hlms Pages: 1 -->
<svg width="260pt" height="151pt"
 viewBox="0.00 0.00 259.50 151.00" xmlns="http://www.w3.org/2000/svg" xmlns:xlink="http://www.w3.org/1999/xlink">
<g id="graph0" class="graph" transform="scale(1 1) rotate(0) translate(4 147)">
<title>Ogre::Hlms</title>
<!-- Node1 -->
<g id="node1" class="node">
<title>Node1</title>
<g id="a_node1"><a xlink:title="HLMS stands for &quot;High Level Material System&quot;.">
<polygon fill="#bfbfbf" stroke="black" points="89.5,-56.5 89.5,-75.5 160.5,-75.5 160.5,-56.5 89.5,-56.5"/>
<text text-anchor="middle" x="125" y="-63.5" font-family="Helvetica,sans-Serif" font-size="10.00">Ogre::Hlms</text>
</a>
</g>
</g>
<!-- Node3 -->
<g id="node3" class="node">
<title>Node3</title>
<g id="a_node3"><a xlink:href="class_ogre_1_1_hlms_compute.html" target="_top" xlink:title="HLMS implementation that handles compute shaders.">
<polygon fill="none" stroke="black" points="0,-0.5 0,-19.5 116,-19.5 116,-0.5 0,-0.5"/>
<text text-anchor="middle" x="58" y="-7.5" font-family="Helvetica,sans-Serif" font-size="10.00">Ogre::HlmsCompute</text>
</a>
</g>
</g>
<!-- Node1&#45;&gt;Node3 -->
<g id="edge2" class="edge">
<title>Node1&#45;&gt;Node3</title>
<path fill="none" stroke="midnightblue" d="M106.17,-49.82C94.16,-40.15 79.03,-27.95 68.96,-19.83"/>
<polygon fill="midnightblue" stroke="midnightblue" points="104.25,-52.77 114.24,-56.32 108.65,-47.32 104.25,-52.77"/>
</g>
<!-- Node4 -->
<g id="node4" class="node">
<title>Node4</title>
<g id="a_node4"><a xlink:href="class_ogre_1_1_hlms_low_level.html" target="_top" xlink:title="This is an HLMS implementation that acts as proxy to use the Material system from Ogre 1....">
<polygon fill="none" stroke="black" points="134.5,-0.5 134.5,-19.5 251.5,-19.5 251.5,-0.5 134.5,-0.5"/>
<text text-anchor="middle" x="193" y="-7.5" font-family="Helvetica,sans-Serif" font-size="10.00">Ogre::HlmsLowLevel</text>
</a>
</g>
</g>
<!-- Node1&#45;&gt;Node4 -->
<g id="edge3" class="edge">
<title>Node1&#45;&gt;Node4</title>
<path fill="none" stroke="midnightblue" d="M143.76,-50.1C156,-40.38 171.56,-28.03 181.88,-19.83"/>
<polygon fill="midnightblue" stroke="midnightblue" points="141.58,-47.36 135.93,-56.32 145.93,-52.85 141.58,-47.36"/>
</g>
<!-- Node2 -->
<g id="node2" class="node">
<title>Node2</title>
<g id="a_node2"><a xlink:title=" ">
<polygon fill="none" stroke="#bfbfbf" points="58,-112.5 58,-142.5 192,-142.5 192,-112.5 58,-112.5"/>
<text text-anchor="start" x="66" y="-130.5" font-family="Helvetica,sans-Serif" font-size="10.00">Ogre::AllocatedObject</text>
<text text-anchor="middle" x="125" y="-119.5" font-family="Helvetica,sans-Serif" font-size="10.00">&lt; AlignAllocPolicy&lt;&gt; &gt;</text>
</a>
</g>
</g>
<!-- Node2&#45;&gt;Node1 -->
<g id="edge1" class="edge">
<title>Node2&#45;&gt;Node1</title>
<path fill="none" stroke="midnightblue" d="M125,-102.29C125,-92.86 125,-82.65 125,-75.66"/>
<polygon fill="midnightblue" stroke="midnightblue" points="121.5,-102.4 125,-112.4 128.5,-102.4 121.5,-102.4"/>
</g>
</g>
</svg>
