<?xml version="1.0" encoding="UTF-8" standalone="no"?>
<!DOCTYPE svg PUBLIC "-//W3C//DTD SVG 1.1//EN"
 "http://www.w3.org/Graphics/SVG/1.1/DTD/svg11.dtd">
<!-- Generated by graphviz version 2.43.0 (0)
 -->
<!-- Title: Ogre::v1::NodeAnimationTrack Pages: 1 -->
<svg width="173pt" height="137pt"
 viewBox="0.00 0.00 173.00 137.00" xmlns="http://www.w3.org/2000/svg" xmlns:xlink="http://www.w3.org/1999/xlink">
<g id="graph0" class="graph" transform="scale(1 1) rotate(0) translate(4 133)">
<title>Ogre::v1::NodeAnimationTrack</title>
<!-- Node1 -->
<g id="Node000001" class="node">
<title>Node1</title>
<g id="a_Node000001"><a xlink:title="Specialised AnimationTrack for dealing with node transforms.">
<polygon fill="#999999" stroke="#666666" points="165,-19 0,-19 0,0 165,0 165,-19"/>
<text text-anchor="middle" x="82.5" y="-7" font-family="Helvetica,sans-Serif" font-size="10.00">Ogre::v1::NodeAnimationTrack</text>
</a>
</g>
</g>
<!-- Node2 -->
<g id="Node000002" class="node">
<title>Node2</title>
<g id="a_Node000002"><a xlink:href="class_ogre_1_1v1_1_1_animation_track.html" target="_top" xlink:title="A &#39;track&#39; in an animation sequence, i.e.">
<polygon fill="white" stroke="#666666" points="152.5,-74 12.5,-74 12.5,-55 152.5,-55 152.5,-74"/>
<text text-anchor="middle" x="82.5" y="-62" font-family="Helvetica,sans-Serif" font-size="10.00">Ogre::v1::AnimationTrack</text>
</a>
</g>
</g>
<!-- Node2&#45;&gt;Node1 -->
<g id="edge1_Node000001_Node000002" class="edge">
<title>Node2&#45;&gt;Node1</title>
<g id="a_edge1_Node000001_Node000002"><a xlink:title=" ">
<path fill="none" stroke="#63b8ff" d="M82.5,-44.66C82.5,-35.93 82.5,-25.99 82.5,-19.09"/>
<polygon fill="#63b8ff" stroke="#63b8ff" points="79,-44.75 82.5,-54.75 86,-44.75 79,-44.75"/>
</a>
</g>
</g>
<!-- Node3 -->
<g id="Node000003" class="node">
<title>Node3</title>
<g id="a_Node000003"><a xlink:title=" ">
<polygon fill="white" stroke="#666666" points="148,-129 17,-129 17,-110 148,-110 148,-129"/>
<text text-anchor="middle" x="82.5" y="-117" font-family="Helvetica,sans-Serif" font-size="10.00">Ogre::OgreAllocatedObj</text>
</a>
</g>
</g>
<!-- Node3&#45;&gt;Node2 -->
<g id="edge2_Node000002_Node000003" class="edge">
<title>Node3&#45;&gt;Node2</title>
<g id="a_edge2_Node000002_Node000003"><a xlink:title=" ">
<path fill="none" stroke="#63b8ff" d="M82.5,-99.66C82.5,-90.93 82.5,-80.99 82.5,-74.09"/>
<polygon fill="#63b8ff" stroke="#63b8ff" points="79,-99.75 82.5,-109.75 86,-99.75 79,-99.75"/>
</a>
</g>
</g>
</g>
</svg>
