<?xml version="1.0" encoding="UTF-8" standalone="no"?>
<!DOCTYPE svg PUBLIC "-//W3C//DTD SVG 1.1//EN"
 "http://www.w3.org/Graphics/SVG/1.1/DTD/svg11.dtd">
<!-- Generated by graphviz version 2.43.0 (0)
 -->
<!-- Title: Ogre::RenderPassDescriptor Pages: 1 -->
<svg width="554pt" height="138pt"
 viewBox="0.00 0.00 554.00 138.00" xmlns="http://www.w3.org/2000/svg" xmlns:xlink="http://www.w3.org/1999/xlink">
<g id="graph0" class="graph" transform="scale(1 1) rotate(0) translate(4 134)">
<title>Ogre::RenderPassDescriptor</title>
<!-- Node1 -->
<g id="Node000001" class="node">
<title>Node1</title>
<g id="a_Node000001"><a xlink:title=" ">
<polygon fill="#999999" stroke="#666666" points="319,-74 167,-74 167,-55 319,-55 319,-74"/>
<text text-anchor="middle" x="243" y="-62" font-family="Helvetica,sans-Serif" font-size="10.00">Ogre::RenderPassDescriptor</text>
</a>
</g>
</g>
<!-- Node3 -->
<g id="Node000003" class="node">
<title>Node3</title>
<g id="a_Node000003"><a xlink:href="class_ogre_1_1_d3_d11_render_pass_descriptor.html" target="_top" xlink:title="D3D11 will share groups of ID3D11RenderTargetView all D3D11RenderPassDescriptor that share the same R...">
<polygon fill="white" stroke="#666666" points="543,-130 358,-130 358,-111 543,-111 543,-130"/>
<text text-anchor="middle" x="450.5" y="-118" font-family="Helvetica,sans-Serif" font-size="10.00">Ogre::D3D11RenderPassDescriptor</text>
</a>
</g>
</g>
<!-- Node1&#45;&gt;Node3 -->
<g id="edge2_Node000001_Node000003" class="edge">
<title>Node1&#45;&gt;Node3</title>
<g id="a_edge2_Node000001_Node000003"><a xlink:title=" ">
<path fill="none" stroke="#63b8ff" d="M278.27,-77.64C300.02,-85.62 328.88,-95.58 355,-102.5 367.03,-105.69 380.06,-108.54 392.49,-110.99"/>
<polygon fill="#63b8ff" stroke="#63b8ff" points="279.41,-74.33 268.82,-74.13 276.97,-80.89 279.41,-74.33"/>
</a>
</g>
</g>
<!-- Node4 -->
<g id="Node000004" class="node">
<title>Node4</title>
<g id="a_Node000004"><a xlink:href="class_ogre_1_1_g_l3_plus_render_pass_descriptor.html" target="_top" xlink:title="GL3+ will share FBO handles between all GL3PlusRenderPassDescriptor that share the same FBO setup.">
<polygon fill="white" stroke="#666666" points="546,-93 355,-93 355,-74 546,-74 546,-93"/>
<text text-anchor="middle" x="450.5" y="-81" font-family="Helvetica,sans-Serif" font-size="10.00">Ogre::GL3PlusRenderPassDescriptor</text>
</a>
</g>
</g>
<!-- Node1&#45;&gt;Node4 -->
<g id="edge3_Node000001_Node000004" class="edge">
<title>Node1&#45;&gt;Node4</title>
<g id="a_edge3_Node000001_Node000004"><a xlink:title=" ">
<path fill="none" stroke="#63b8ff" d="M329.22,-72.38C337.62,-73.16 346.18,-73.95 354.67,-74.73"/>
<polygon fill="#63b8ff" stroke="#63b8ff" points="329.34,-68.88 319.06,-71.44 328.7,-75.85 329.34,-68.88"/>
</a>
</g>
</g>
<!-- Node5 -->
<g id="Node000005" class="node">
<title>Node5</title>
<g id="a_Node000005"><a xlink:href="class_ogre_1_1_metal_render_pass_descriptor.html" target="_top" xlink:title=" ">
<polygon fill="white" stroke="#666666" points="540.5,-56 360.5,-56 360.5,-37 540.5,-37 540.5,-56"/>
<text text-anchor="middle" x="450.5" y="-44" font-family="Helvetica,sans-Serif" font-size="10.00">Ogre::MetalRenderPassDescriptor</text>
</a>
</g>
</g>
<!-- Node1&#45;&gt;Node5 -->
<g id="edge4_Node000001_Node000005" class="edge">
<title>Node1&#45;&gt;Node5</title>
<g id="a_edge4_Node000001_Node000005"><a xlink:title=" ">
<path fill="none" stroke="#63b8ff" d="M329.24,-57.03C339.5,-56.13 350.01,-55.21 360.34,-54.31"/>
<polygon fill="#63b8ff" stroke="#63b8ff" points="328.72,-53.57 319.06,-57.93 329.33,-60.54 328.72,-53.57"/>
</a>
</g>
</g>
<!-- Node6 -->
<g id="Node000006" class="node">
<title>Node6</title>
<g id="a_Node000006"><a xlink:href="class_ogre_1_1_vulkan_render_pass_descriptor.html" target="_top" xlink:title=" ">
<polygon fill="white" stroke="#666666" points="543,-19 358,-19 358,0 543,0 543,-19"/>
<text text-anchor="middle" x="450.5" y="-7" font-family="Helvetica,sans-Serif" font-size="10.00">Ogre::VulkanRenderPassDescriptor</text>
</a>
</g>
</g>
<!-- Node1&#45;&gt;Node6 -->
<g id="edge5_Node000001_Node000006" class="edge">
<title>Node1&#45;&gt;Node6</title>
<g id="a_edge5_Node000001_Node000006"><a xlink:title=" ">
<path fill="none" stroke="#63b8ff" d="M278.73,-51.59C300.43,-43.86 329.09,-34.25 355,-27.5 367.12,-24.34 380.25,-21.49 392.76,-19.03"/>
<polygon fill="#63b8ff" stroke="#63b8ff" points="277.5,-48.32 269.28,-55 279.87,-54.9 277.5,-48.32"/>
</a>
</g>
</g>
<!-- Node2 -->
<g id="Node000002" class="node">
<title>Node2</title>
<g id="a_Node000002"><a xlink:title=" ">
<polygon fill="white" stroke="#666666" points="131,-74 0,-74 0,-55 131,-55 131,-74"/>
<text text-anchor="middle" x="65.5" y="-62" font-family="Helvetica,sans-Serif" font-size="10.00">Ogre::OgreAllocatedObj</text>
</a>
</g>
</g>
<!-- Node2&#45;&gt;Node1 -->
<g id="edge1_Node000001_Node000002" class="edge">
<title>Node2&#45;&gt;Node1</title>
<g id="a_edge1_Node000001_Node000002"><a xlink:title=" ">
<path fill="none" stroke="#63b8ff" d="M141.46,-64.5C149.84,-64.5 158.37,-64.5 166.74,-64.5"/>
<polygon fill="#63b8ff" stroke="#63b8ff" points="141.35,-61 131.35,-64.5 141.35,-68 141.35,-61"/>
</a>
</g>
</g>
</g>
</svg>
