<?xml version="1.0" encoding="UTF-8" standalone="no"?>
<!DOCTYPE svg PUBLIC "-//W3C//DTD SVG 1.1//EN"
 "http://www.w3.org/Graphics/SVG/1.1/DTD/svg11.dtd">
<!-- Generated by graphviz version 2.43.0 (0)
 -->
<!-- Title: Ogre::BufferPacked Pages: 1 -->
<svg width="1078pt" height="710pt"
 viewBox="0.00 0.00 1078.00 710.00" xmlns="http://www.w3.org/2000/svg" xmlns:xlink="http://www.w3.org/1999/xlink">
<g id="graph0" class="graph" transform="scale(1 1) rotate(0) translate(4 706)">
<title>Ogre::BufferPacked</title>
<!-- Node1 -->
<g id="node1" class="node">
<title>Node1</title>
<g id="a_node1"><a xlink:title=" ">
<polygon fill="#bfbfbf" stroke="black" points="183,-307.5 183,-326.5 292,-326.5 292,-307.5 183,-307.5"/>
<text text-anchor="middle" x="237.5" y="-314.5" font-family="Helvetica,sans-Serif" font-size="10.00">Ogre::BufferPacked</text>
</a>
</g>
</g>
<!-- Node4 -->
<g id="node4" class="node">
<title>Node4</title>
<g id="a_node4"><a xlink:href="class_ogre_1_1_const_buffer_packed.html" target="_top" xlink:title="Represents constant buffers (also known as Uniform Buffers in GL)">
<polygon fill="none" stroke="black" points="332.5,-556.5 332.5,-575.5 469.5,-575.5 469.5,-556.5 332.5,-556.5"/>
<text text-anchor="middle" x="401" y="-563.5" font-family="Helvetica,sans-Serif" font-size="10.00">Ogre::ConstBufferPacked</text>
</a>
</g>
</g>
<!-- Node1&#45;&gt;Node4 -->
<g id="edge3" class="edge">
<title>Node1&#45;&gt;Node4</title>
<path fill="none" stroke="midnightblue" d="M250.28,-335.16C282.19,-384.35 369.52,-519 393.71,-556.31"/>
<polygon fill="midnightblue" stroke="midnightblue" points="253.21,-333.25 244.83,-326.76 247.34,-337.06 253.21,-333.25"/>
</g>
<!-- Node11 -->
<g id="node11" class="node">
<title>Node11</title>
<g id="a_node11"><a xlink:href="class_ogre_1_1_index_buffer_packed.html" target="_top" xlink:title=" ">
<polygon fill="none" stroke="black" points="333,-364.5 333,-383.5 469,-383.5 469,-364.5 333,-364.5"/>
<text text-anchor="middle" x="401" y="-371.5" font-family="Helvetica,sans-Serif" font-size="10.00">Ogre::IndexBufferPacked</text>
</a>
</g>
</g>
<!-- Node1&#45;&gt;Node11 -->
<g id="edge10" class="edge">
<title>Node1&#45;&gt;Node11</title>
<path fill="none" stroke="midnightblue" d="M268.3,-330.92C285.51,-338.64 307.71,-348.05 328,-355 338.15,-358.47 349.29,-361.69 359.71,-364.46"/>
<polygon fill="midnightblue" stroke="midnightblue" points="269.34,-327.55 258.79,-326.61 266.45,-333.93 269.34,-327.55"/>
</g>
<!-- Node12 -->
<g id="node12" class="node">
<title>Node12</title>
<g id="a_node12"><a xlink:href="class_ogre_1_1_indirect_buffer_packed.html" target="_top" xlink:title="Represents Indirect buffers for storing draw call commands.">
<polygon fill="none" stroke="black" points="328,-326.5 328,-345.5 474,-345.5 474,-326.5 328,-326.5"/>
<text text-anchor="middle" x="401" y="-333.5" font-family="Helvetica,sans-Serif" font-size="10.00">Ogre::IndirectBufferPacked</text>
</a>
</g>
</g>
<!-- Node1&#45;&gt;Node12 -->
<g id="edge11" class="edge">
<title>Node1&#45;&gt;Node12</title>
<path fill="none" stroke="midnightblue" d="M302.32,-324.51C310.68,-325.49 319.29,-326.5 327.77,-327.5"/>
<polygon fill="midnightblue" stroke="midnightblue" points="302.62,-321.02 292.28,-323.33 301.8,-327.97 302.62,-321.02"/>
</g>
<!-- Node13 -->
<g id="node13" class="node">
<title>Node13</title>
<g id="a_node13"><a xlink:href="class_ogre_1_1_tex_buffer_packed.html" target="_top" xlink:title="Represents Texture buffers (also known as tbuffers in D3D11)">
<polygon fill="none" stroke="black" points="338.5,-288.5 338.5,-307.5 463.5,-307.5 463.5,-288.5 338.5,-288.5"/>
<text text-anchor="middle" x="401" y="-295.5" font-family="Helvetica,sans-Serif" font-size="10.00">Ogre::TexBufferPacked</text>
</a>
</g>
</g>
<!-- Node1&#45;&gt;Node13 -->
<g id="edge12" class="edge">
<title>Node1&#45;&gt;Node13</title>
<path fill="none" stroke="midnightblue" d="M302.5,-309.47C314.31,-308.08 326.62,-306.63 338.36,-305.25"/>
<polygon fill="midnightblue" stroke="midnightblue" points="301.8,-306.03 292.28,-310.67 302.62,-312.98 301.8,-306.03"/>
</g>
<!-- Node29 -->
<g id="node29" class="node">
<title>Node29</title>
<g id="a_node29"><a xlink:href="class_ogre_1_1_uav_buffer_packed.html" target="_top" xlink:title="Represents UAV buffers (also known as SSBOs in OpenGL) Uav buffers are supported in DX10/DX10....">
<polygon fill="none" stroke="black" points="337,-114.5 337,-133.5 465,-133.5 465,-114.5 337,-114.5"/>
<text text-anchor="middle" x="401" y="-121.5" font-family="Helvetica,sans-Serif" font-size="10.00">Ogre::UavBufferPacked</text>
</a>
</g>
</g>
<!-- Node1&#45;&gt;Node29 -->
<g id="edge28" class="edge">
<title>Node1&#45;&gt;Node29</title>
<path fill="none" stroke="midnightblue" d="M253.2,-299.44C286.4,-259.75 366.31,-164.26 391.94,-133.63"/>
<polygon fill="midnightblue" stroke="midnightblue" points="250.24,-297.51 246.51,-307.43 255.61,-302.01 250.24,-297.51"/>
</g>
<!-- Node35 -->
<g id="node35" class="node">
<title>Node35</title>
<g id="a_node35"><a xlink:href="class_ogre_1_1_vertex_buffer_packed.html" target="_top" xlink:title=" ">
<polygon fill="none" stroke="black" points="331,-76.5 331,-95.5 471,-95.5 471,-76.5 331,-76.5"/>
<text text-anchor="middle" x="401" y="-83.5" font-family="Helvetica,sans-Serif" font-size="10.00">Ogre::VertexBufferPacked</text>
</a>
</g>
</g>
<!-- Node1&#45;&gt;Node35 -->
<g id="edge34" class="edge">
<title>Node1&#45;&gt;Node35</title>
<path fill="none" stroke="midnightblue" d="M241.01,-297.18C247.42,-255.17 268.29,-156.8 328,-105 332.49,-101.1 337.69,-97.99 343.21,-95.51"/>
<polygon fill="midnightblue" stroke="midnightblue" points="237.53,-296.84 239.6,-307.23 244.46,-297.82 237.53,-296.84"/>
</g>
<!-- Node2 -->
<g id="node2" class="node">
<title>Node2</title>
<g id="a_node2"><a xlink:href="struct_ogre_1_1_gpu_tracked_resource.html" target="_top" xlink:title=" ">
<polygon fill="none" stroke="black" points="0,-326.5 0,-345.5 147,-345.5 147,-326.5 0,-326.5"/>
<text text-anchor="middle" x="73.5" y="-333.5" font-family="Helvetica,sans-Serif" font-size="10.00">Ogre::GpuTrackedResource</text>
</a>
</g>
</g>
<!-- Node2&#45;&gt;Node1 -->
<g id="edge1" class="edge">
<title>Node2&#45;&gt;Node1</title>
<path fill="none" stroke="midnightblue" d="M157.54,-326.26C166.15,-325.25 174.72,-324.25 182.88,-323.29"/>
<polygon fill="midnightblue" stroke="midnightblue" points="156.97,-322.8 147.44,-327.44 157.78,-329.76 156.97,-322.8"/>
</g>
<!-- Node3 -->
<g id="node3" class="node">
<title>Node3</title>
<g id="a_node3"><a xlink:title=" ">
<polygon fill="none" stroke="#bfbfbf" points="22.5,-288.5 22.5,-307.5 124.5,-307.5 124.5,-288.5 22.5,-288.5"/>
<text text-anchor="middle" x="73.5" y="-295.5" font-family="Helvetica,sans-Serif" font-size="10.00">OgreAllocatedObj</text>
</a>
</g>
</g>
<!-- Node3&#45;&gt;Node1 -->
<g id="edge2" class="edge">
<title>Node3&#45;&gt;Node1</title>
<path fill="none" stroke="midnightblue" d="M135,-305.1C150.69,-306.94 167.48,-308.9 182.79,-310.7"/>
<polygon fill="midnightblue" stroke="midnightblue" points="135.21,-301.6 124.87,-303.91 134.39,-308.55 135.21,-301.6"/>
</g>
<!-- Node5 -->
<g id="node5" class="node">
<title>Node5</title>
<g id="a_node5"><a xlink:href="class_ogre_1_1_d3_d11_const_buffer_packed.html" target="_top" xlink:title=" ">
<polygon fill="none" stroke="black" points="513.5,-682.5 513.5,-701.5 683.5,-701.5 683.5,-682.5 513.5,-682.5"/>
<text text-anchor="middle" x="598.5" y="-689.5" font-family="Helvetica,sans-Serif" font-size="10.00">Ogre::D3D11ConstBufferPacked</text>
</a>
</g>
</g>
<!-- Node4&#45;&gt;Node5 -->
<g id="edge4" class="edge">
<title>Node4&#45;&gt;Node5</title>
<path fill="none" stroke="midnightblue" d="M414.67,-583.77C432.89,-607.93 468.86,-650.67 510,-673 517.1,-676.86 524.93,-679.93 532.9,-682.38"/>
<polygon fill="midnightblue" stroke="midnightblue" points="417.33,-581.48 408.58,-575.51 411.69,-585.63 417.33,-581.48"/>
</g>
<!-- Node6 -->
<g id="node6" class="node">
<title>Node6</title>
<g id="a_node6"><a xlink:href="class_ogre_1_1_g_l3_plus_const_buffer_packed.html" target="_top" xlink:title=" ">
<polygon fill="none" stroke="black" points="527.5,-633 527.5,-663 669.5,-663 669.5,-633 527.5,-633"/>
<text text-anchor="start" x="535.5" y="-651" font-family="Helvetica,sans-Serif" font-size="10.00">Ogre::GL3PlusConstBuffer</text>
<text text-anchor="middle" x="598.5" y="-640" font-family="Helvetica,sans-Serif" font-size="10.00">Packed</text>
</a>
</g>
</g>
<!-- Node4&#45;&gt;Node6 -->
<g id="edge5" class="edge">
<title>Node4&#45;&gt;Node6</title>
<path fill="none" stroke="midnightblue" d="M426.37,-580.74C447.81,-593.25 480.18,-611.02 510,-623 519.09,-626.65 528.91,-630 538.57,-632.98"/>
<polygon fill="midnightblue" stroke="midnightblue" points="428,-577.64 417.61,-575.57 424.44,-583.66 428,-577.64"/>
</g>
<!-- Node7 -->
<g id="node7" class="node">
<title>Node7</title>
<g id="a_node7"><a xlink:href="class_ogre_1_1_g_l_e_s2_const_buffer_packed.html" target="_top" xlink:title=" ">
<polygon fill="none" stroke="black" points="515,-594.5 515,-613.5 682,-613.5 682,-594.5 515,-594.5"/>
<text text-anchor="middle" x="598.5" y="-601.5" font-family="Helvetica,sans-Serif" font-size="10.00">Ogre::GLES2ConstBufferPacked</text>
</a>
</g>
</g>
<!-- Node4&#45;&gt;Node7 -->
<g id="edge6" class="edge">
<title>Node4&#45;&gt;Node7</title>
<path fill="none" stroke="midnightblue" d="M461.11,-577.49C489,-582.91 521.9,-589.31 548.4,-594.46"/>
<polygon fill="midnightblue" stroke="midnightblue" points="461.56,-574.01 451.08,-575.54 460.23,-580.88 461.56,-574.01"/>
</g>
<!-- Node8 -->
<g id="node8" class="node">
<title>Node8</title>
<g id="a_node8"><a xlink:href="class_ogre_1_1_metal_const_buffer_packed.html" target="_top" xlink:title=" ">
<polygon fill="none" stroke="black" points="516.5,-556.5 516.5,-575.5 680.5,-575.5 680.5,-556.5 516.5,-556.5"/>
<text text-anchor="middle" x="598.5" y="-563.5" font-family="Helvetica,sans-Serif" font-size="10.00">Ogre::MetalConstBufferPacked</text>
</a>
</g>
</g>
<!-- Node4&#45;&gt;Node8 -->
<g id="edge7" class="edge">
<title>Node4&#45;&gt;Node8</title>
<path fill="none" stroke="midnightblue" d="M479.61,-566C491.73,-566 504.28,-566 516.47,-566"/>
<polygon fill="midnightblue" stroke="midnightblue" points="479.55,-562.5 469.55,-566 479.55,-569.5 479.55,-562.5"/>
</g>
<!-- Node9 -->
<g id="node9" class="node">
<title>Node9</title>
<g id="a_node9"><a xlink:href="class_ogre_1_1_n_u_l_l_const_buffer_packed.html" target="_top" xlink:title=" ">
<polygon fill="none" stroke="black" points="517.5,-518.5 517.5,-537.5 679.5,-537.5 679.5,-518.5 517.5,-518.5"/>
<text text-anchor="middle" x="598.5" y="-525.5" font-family="Helvetica,sans-Serif" font-size="10.00">Ogre::NULLConstBufferPacked</text>
</a>
</g>
</g>
<!-- Node4&#45;&gt;Node9 -->
<g id="edge8" class="edge">
<title>Node4&#45;&gt;Node9</title>
<path fill="none" stroke="midnightblue" d="M461.11,-554.51C489,-549.09 521.9,-542.69 548.4,-537.54"/>
<polygon fill="midnightblue" stroke="midnightblue" points="460.23,-551.12 451.08,-556.46 461.56,-557.99 460.23,-551.12"/>
</g>
<!-- Node10 -->
<g id="node10" class="node">
<title>Node10</title>
<g id="a_node10"><a xlink:href="class_ogre_1_1_vulkan_const_buffer_packed.html" target="_top" xlink:title=" ">
<polygon fill="none" stroke="black" points="514,-480.5 514,-499.5 683,-499.5 683,-480.5 514,-480.5"/>
<text text-anchor="middle" x="598.5" y="-487.5" font-family="Helvetica,sans-Serif" font-size="10.00">Ogre::VulkanConstBufferPacked</text>
</a>
</g>
</g>
<!-- Node4&#45;&gt;Node10 -->
<g id="edge9" class="edge">
<title>Node4&#45;&gt;Node10</title>
<path fill="none" stroke="midnightblue" d="M425.82,-551C447.14,-538.17 479.64,-520.07 510,-509 520.37,-505.22 531.72,-502.07 542.7,-499.5"/>
<polygon fill="midnightblue" stroke="midnightblue" points="423.83,-548.11 417.13,-556.31 427.48,-554.08 423.83,-548.11"/>
</g>
<!-- Node14 -->
<g id="node14" class="node">
<title>Node14</title>
<g id="a_node14"><a xlink:href="class_ogre_1_1_d3_d11_tex_buffer_packed.html" target="_top" xlink:title=" ">
<polygon fill="none" stroke="black" points="519.5,-442.5 519.5,-461.5 677.5,-461.5 677.5,-442.5 519.5,-442.5"/>
<text text-anchor="middle" x="598.5" y="-449.5" font-family="Helvetica,sans-Serif" font-size="10.00">Ogre::D3D11TexBufferPacked</text>
</a>
</g>
</g>
<!-- Node13&#45;&gt;Node14 -->
<g id="edge13" class="edge">
<title>Node13&#45;&gt;Node14</title>
<path fill="none" stroke="midnightblue" d="M469.21,-312.98C470.89,-314.22 472.49,-315.56 474,-317 512.98,-354.34 470.2,-396.53 510,-433 514.13,-436.78 518.82,-439.87 523.85,-442.4"/>
<polygon fill="midnightblue" stroke="midnightblue" points="470.62,-309.75 460.25,-307.59 467.01,-315.74 470.62,-309.75"/>
</g>
<!-- Node15 -->
<g id="node15" class="node">
<title>Node15</title>
<g id="a_node15"><a xlink:href="class_ogre_1_1_g_l3_plus_tex_buffer_emulated_packed.html" target="_top" xlink:title=" ">
<polygon fill="none" stroke="black" points="510,-393 510,-423 687,-423 687,-393 510,-393"/>
<text text-anchor="start" x="518" y="-411" font-family="Helvetica,sans-Serif" font-size="10.00">Ogre::GL3PlusTexBufferEmulated</text>
<text text-anchor="middle" x="598.5" y="-400" font-family="Helvetica,sans-Serif" font-size="10.00">Packed</text>
</a>
</g>
</g>
<!-- Node13&#45;&gt;Node15 -->
<g id="edge14" class="edge">
<title>Node13&#45;&gt;Node15</title>
<path fill="none" stroke="midnightblue" d="M466.56,-312.02C469.17,-313.51 471.66,-315.17 474,-317 500.3,-337.61 483.91,-362.12 510,-383 514.81,-386.85 520.19,-390.11 525.84,-392.86"/>
<polygon fill="midnightblue" stroke="midnightblue" points="467.84,-308.75 457.32,-307.51 464.77,-315.04 467.84,-308.75"/>
</g>
<!-- Node16 -->
<g id="node16" class="node">
<title>Node16</title>
<g id="a_node16"><a xlink:href="class_ogre_1_1_g_l3_plus_tex_buffer_packed.html" target="_top" xlink:title=" ">
<polygon fill="none" stroke="black" points="516.5,-354.5 516.5,-373.5 680.5,-373.5 680.5,-354.5 516.5,-354.5"/>
<text text-anchor="middle" x="598.5" y="-361.5" font-family="Helvetica,sans-Serif" font-size="10.00">Ogre::GL3PlusTexBufferPacked</text>
</a>
</g>
</g>
<!-- Node13&#45;&gt;Node16 -->
<g id="edge15" class="edge">
<title>Node13&#45;&gt;Node16</title>
<path fill="none" stroke="midnightblue" d="M459.29,-310.83C464.37,-312.64 469.34,-314.69 474,-317 492.17,-325.99 491.64,-336.41 510,-345 518.31,-348.89 527.43,-351.99 536.56,-354.46"/>
<polygon fill="midnightblue" stroke="midnightblue" points="460.07,-307.4 449.47,-307.61 457.89,-314.05 460.07,-307.4"/>
</g>
<!-- Node17 -->
<g id="node17" class="node">
<title>Node17</title>
<g id="a_node17"><a xlink:href="class_ogre_1_1_g_l_e_s2_tex_buffer_emulated_packed.html" target="_top" xlink:title=" ">
<polygon fill="none" stroke="black" points="514,-305 514,-335 683,-335 683,-305 514,-305"/>
<text text-anchor="start" x="522" y="-323" font-family="Helvetica,sans-Serif" font-size="10.00">Ogre::GLES2TexBufferEmulated</text>
<text text-anchor="middle" x="598.5" y="-312" font-family="Helvetica,sans-Serif" font-size="10.00">Packed</text>
</a>
</g>
</g>
<!-- Node13&#45;&gt;Node17 -->
<g id="edge16" class="edge">
<title>Node13&#45;&gt;Node17</title>
<path fill="none" stroke="midnightblue" d="M473.83,-306.08C486.79,-307.54 500.41,-309.07 513.68,-310.57"/>
<polygon fill="midnightblue" stroke="midnightblue" points="473.92,-302.57 463.59,-304.93 473.13,-309.53 473.92,-302.57"/>
</g>
<!-- Node18 -->
<g id="node18" class="node">
<title>Node18</title>
<g id="a_node18"><a xlink:href="class_ogre_1_1_n_u_l_l_tex_buffer_packed.html" target="_top" xlink:title=" ">
<polygon fill="none" stroke="black" points="523.5,-266.5 523.5,-285.5 673.5,-285.5 673.5,-266.5 523.5,-266.5"/>
<text text-anchor="middle" x="598.5" y="-273.5" font-family="Helvetica,sans-Serif" font-size="10.00">Ogre::NULLTexBufferPacked</text>
</a>
</g>
</g>
<!-- Node13&#45;&gt;Node18 -->
<g id="edge17" class="edge">
<title>Node13&#45;&gt;Node18</title>
<path fill="none" stroke="midnightblue" d="M473.97,-289.9C490.01,-288.1 507.06,-286.18 523.19,-284.36"/>
<polygon fill="midnightblue" stroke="midnightblue" points="473.13,-286.47 463.59,-291.07 473.92,-293.43 473.13,-286.47"/>
</g>
<!-- Node19 -->
<g id="node19" class="node">
<title>Node19</title>
<g id="a_node19"><a xlink:href="class_ogre_1_1_read_only_buffer_packed.html" target="_top" xlink:title="Represents the best way to access read&#45;only data.">
<polygon fill="none" stroke="black" points="520.5,-228.5 520.5,-247.5 676.5,-247.5 676.5,-228.5 520.5,-228.5"/>
<text text-anchor="middle" x="598.5" y="-235.5" font-family="Helvetica,sans-Serif" font-size="10.00">Ogre::ReadOnlyBufferPacked</text>
</a>
</g>
</g>
<!-- Node13&#45;&gt;Node19 -->
<g id="edge18" class="edge">
<title>Node13&#45;&gt;Node19</title>
<path fill="none" stroke="midnightblue" d="M433.93,-284.44C455.2,-275.77 483.94,-264.73 510,-257 521.92,-253.46 534.94,-250.28 547.2,-247.58"/>
<polygon fill="midnightblue" stroke="midnightblue" points="432.33,-281.32 424.42,-288.36 435,-287.79 432.33,-281.32"/>
</g>
<!-- Node28 -->
<g id="node28" class="node">
<title>Node28</title>
<g id="a_node28"><a xlink:href="class_ogre_1_1_vulkan_tex_buffer_packed.html" target="_top" xlink:title=" ">
<polygon fill="none" stroke="black" points="519.5,-190.5 519.5,-209.5 677.5,-209.5 677.5,-190.5 519.5,-190.5"/>
<text text-anchor="middle" x="598.5" y="-197.5" font-family="Helvetica,sans-Serif" font-size="10.00">Ogre::VulkanTexBufferPacked</text>
</a>
</g>
</g>
<!-- Node13&#45;&gt;Node28 -->
<g id="edge27" class="edge">
<title>Node13&#45;&gt;Node28</title>
<path fill="none" stroke="midnightblue" d="M419.58,-281.48C439.81,-263.38 474.81,-234.83 510,-219 518.65,-215.11 528.14,-212 537.59,-209.51"/>
<polygon fill="midnightblue" stroke="midnightblue" points="417.12,-278.98 412.09,-288.3 421.84,-284.15 417.12,-278.98"/>
</g>
<!-- Node20 -->
<g id="node20" class="node">
<title>Node20</title>
<g id="a_node20"><a xlink:href="class_ogre_1_1_d3_d11_read_only_buffer_packed.html" target="_top" xlink:title=" ">
<polygon fill="none" stroke="black" points="726,-370 726,-400 881,-400 881,-370 726,-370"/>
<text text-anchor="start" x="734" y="-388" font-family="Helvetica,sans-Serif" font-size="10.00">Ogre::D3D11ReadOnlyBuffer</text>
<text text-anchor="middle" x="803.5" y="-377" font-family="Helvetica,sans-Serif" font-size="10.00">Packed</text>
</a>
</g>
</g>
<!-- Node19&#45;&gt;Node20 -->
<g id="edge19" class="edge">
<title>Node19&#45;&gt;Node20</title>
<path fill="none" stroke="midnightblue" d="M681.48,-252.69C683.41,-254.02 685.25,-255.45 687,-257 723.59,-289.46 687.73,-327.11 723,-361 726.53,-364.4 730.53,-367.31 734.81,-369.82"/>
<polygon fill="midnightblue" stroke="midnightblue" points="683.01,-249.53 672.6,-247.54 679.5,-255.58 683.01,-249.53"/>
</g>
<!-- Node21 -->
<g id="node21" class="node">
<title>Node21</title>
<g id="a_node21"><a xlink:href="class_ogre_1_1_g_l3_plus_read_only_buffer_emulated_packed.html" target="_top" xlink:title=" ">
<polygon fill="none" stroke="black" points="723,-321 723,-351 884,-351 884,-321 723,-321"/>
<text text-anchor="start" x="731" y="-339" font-family="Helvetica,sans-Serif" font-size="10.00">Ogre::GL3PlusReadOnlyBuffer</text>
<text text-anchor="middle" x="803.5" y="-328" font-family="Helvetica,sans-Serif" font-size="10.00">EmulatedPacked</text>
</a>
</g>
</g>
<!-- Node19&#45;&gt;Node21 -->
<g id="edge20" class="edge">
<title>Node19&#45;&gt;Node21</title>
<path fill="none" stroke="midnightblue" d="M677.8,-251.63C681,-253.23 684.09,-255.01 687,-257 710.83,-273.25 699.93,-293.69 723,-311 728.09,-314.82 733.78,-318.07 739.71,-320.82"/>
<polygon fill="midnightblue" stroke="midnightblue" points="679.07,-248.37 668.51,-247.58 676.28,-254.78 679.07,-248.37"/>
</g>
<!-- Node22 -->
<g id="node22" class="node">
<title>Node22</title>
<g id="a_node22"><a xlink:href="class_ogre_1_1_g_l3_plus_read_only_tex_buffer_packed.html" target="_top" xlink:title=" ">
<polygon fill="none" stroke="black" points="729,-272 729,-302 878,-302 878,-272 729,-272"/>
<text text-anchor="start" x="737" y="-290" font-family="Helvetica,sans-Serif" font-size="10.00">Ogre::GL3PlusReadOnlyTex</text>
<text text-anchor="middle" x="803.5" y="-279" font-family="Helvetica,sans-Serif" font-size="10.00">BufferPacked</text>
</a>
</g>
</g>
<!-- Node19&#45;&gt;Node22 -->
<g id="edge21" class="edge">
<title>Node19&#45;&gt;Node22</title>
<path fill="none" stroke="midnightblue" d="M655.03,-249.7C665.66,-252.05 676.69,-254.54 687,-257 706.45,-261.64 727.65,-267.04 746.51,-271.97"/>
<polygon fill="midnightblue" stroke="midnightblue" points="655.51,-246.23 644.99,-247.51 654.02,-253.07 655.51,-246.23"/>
</g>
<!-- Node23 -->
<g id="node23" class="node">
<title>Node23</title>
<g id="a_node23"><a xlink:href="class_ogre_1_1_g_l3_plus_read_only_uav_buffer_packed.html" target="_top" xlink:title=" ">
<polygon fill="none" stroke="black" points="727.5,-223 727.5,-253 879.5,-253 879.5,-223 727.5,-223"/>
<text text-anchor="start" x="735.5" y="-241" font-family="Helvetica,sans-Serif" font-size="10.00">Ogre::GL3PlusReadOnlyUav</text>
<text text-anchor="middle" x="803.5" y="-230" font-family="Helvetica,sans-Serif" font-size="10.00">BufferPacked</text>
</a>
</g>
</g>
<!-- Node19&#45;&gt;Node23 -->
<g id="edge22" class="edge">
<title>Node19&#45;&gt;Node23</title>
<path fill="none" stroke="midnightblue" d="M686.75,-238C700.21,-238 714.02,-238 727.2,-238"/>
<polygon fill="midnightblue" stroke="midnightblue" points="686.54,-234.5 676.54,-238 686.54,-241.5 686.54,-234.5"/>
</g>
<!-- Node24 -->
<g id="node24" class="node">
<title>Node24</title>
<g id="a_node24"><a xlink:href="class_ogre_1_1_metal_tex_buffer_packed.html" target="_top" xlink:title="In Metal, Tex and ReadOnly buffers are exactly the same, thus we derive from ReadOnlyBufferPacked to ...">
<polygon fill="none" stroke="black" points="727,-184.5 727,-203.5 880,-203.5 880,-184.5 727,-184.5"/>
<text text-anchor="middle" x="803.5" y="-191.5" font-family="Helvetica,sans-Serif" font-size="10.00">Ogre::MetalTexBufferPacked</text>
</a>
</g>
</g>
<!-- Node19&#45;&gt;Node24 -->
<g id="edge23" class="edge">
<title>Node19&#45;&gt;Node24</title>
<path fill="none" stroke="midnightblue" d="M653.44,-226.31C686.28,-219.19 727.7,-210.21 758.54,-203.53"/>
<polygon fill="midnightblue" stroke="midnightblue" points="652.58,-222.91 643.55,-228.45 654.06,-229.75 652.58,-222.91"/>
</g>
<!-- Node26 -->
<g id="node26" class="node">
<title>Node26</title>
<g id="a_node26"><a xlink:href="class_ogre_1_1_n_u_l_l_read_only_buffer_packed.html" target="_top" xlink:title=" ">
<polygon fill="none" stroke="black" points="729.5,-135 729.5,-165 877.5,-165 877.5,-135 729.5,-135"/>
<text text-anchor="start" x="737.5" y="-153" font-family="Helvetica,sans-Serif" font-size="10.00">Ogre::NULLReadOnlyBuffer</text>
<text text-anchor="middle" x="803.5" y="-142" font-family="Helvetica,sans-Serif" font-size="10.00">Packed</text>
</a>
</g>
</g>
<!-- Node19&#45;&gt;Node26 -->
<g id="edge25" class="edge">
<title>Node19&#45;&gt;Node26</title>
<path fill="none" stroke="midnightblue" d="M675.69,-224.85C679.62,-223.13 683.42,-221.19 687,-219 708.55,-205.81 702.07,-189.16 723,-175 728.63,-171.19 734.88,-167.93 741.32,-165.16"/>
<polygon fill="midnightblue" stroke="midnightblue" points="674.39,-221.6 666.32,-228.47 676.91,-228.13 674.39,-221.6"/>
</g>
<!-- Node27 -->
<g id="node27" class="node">
<title>Node27</title>
<g id="a_node27"><a xlink:href="class_ogre_1_1_vulkan_read_only_buffer_packed.html" target="_top" xlink:title=" ">
<polygon fill="none" stroke="black" points="726,-86 726,-116 881,-116 881,-86 726,-86"/>
<text text-anchor="start" x="734" y="-104" font-family="Helvetica,sans-Serif" font-size="10.00">Ogre::VulkanReadOnlyBuffer</text>
<text text-anchor="middle" x="803.5" y="-93" font-family="Helvetica,sans-Serif" font-size="10.00">Packed</text>
</a>
</g>
</g>
<!-- Node19&#45;&gt;Node27 -->
<g id="edge26" class="edge">
<title>Node19&#45;&gt;Node27</title>
<path fill="none" stroke="midnightblue" d="M681.42,-223.23C683.36,-221.93 685.23,-220.52 687,-219 720.94,-189.86 690.24,-155.47 723,-125 726.7,-121.56 730.87,-118.62 735.31,-116.09"/>
<polygon fill="midnightblue" stroke="midnightblue" points="679.44,-220.33 672.46,-228.3 682.89,-226.42 679.44,-220.33"/>
</g>
<!-- Node25 -->
<g id="node25" class="node">
<title>Node25</title>
<g id="a_node25"><a xlink:href="class_ogre_1_1_metal_read_only_buffer_packed.html" target="_top" xlink:title=" ">
<polygon fill="none" stroke="black" points="920,-179 920,-209 1070,-209 1070,-179 920,-179"/>
<text text-anchor="start" x="928" y="-197" font-family="Helvetica,sans-Serif" font-size="10.00">Ogre::MetalReadOnlyBuffer</text>
<text text-anchor="middle" x="995" y="-186" font-family="Helvetica,sans-Serif" font-size="10.00">Packed</text>
</a>
</g>
</g>
<!-- Node24&#45;&gt;Node25 -->
<g id="edge24" class="edge">
<title>Node24&#45;&gt;Node25</title>
<path fill="none" stroke="midnightblue" d="M890.42,-194C900.28,-194 910.27,-194 919.95,-194"/>
<polygon fill="midnightblue" stroke="midnightblue" points="890.21,-190.5 880.21,-194 890.21,-197.5 890.21,-190.5"/>
</g>
<!-- Node30 -->
<g id="node30" class="node">
<title>Node30</title>
<g id="a_node30"><a xlink:href="class_ogre_1_1_d3_d11_uav_buffer_packed.html" target="_top" xlink:title=" ">
<polygon fill="none" stroke="black" points="518,-152.5 518,-171.5 679,-171.5 679,-152.5 518,-152.5"/>
<text text-anchor="middle" x="598.5" y="-159.5" font-family="Helvetica,sans-Serif" font-size="10.00">Ogre::D3D11UavBufferPacked</text>
</a>
</g>
</g>
<!-- Node29&#45;&gt;Node30 -->
<g id="edge29" class="edge">
<title>Node29&#45;&gt;Node30</title>
<path fill="none" stroke="midnightblue" d="M461.11,-135.49C489,-140.91 521.9,-147.31 548.4,-152.46"/>
<polygon fill="midnightblue" stroke="midnightblue" points="461.56,-132.01 451.08,-133.54 460.23,-138.88 461.56,-132.01"/>
</g>
<!-- Node31 -->
<g id="node31" class="node">
<title>Node31</title>
<g id="a_node31"><a xlink:href="class_ogre_1_1_g_l3_plus_uav_buffer_packed.html" target="_top" xlink:title=" ">
<polygon fill="none" stroke="black" points="515,-114.5 515,-133.5 682,-133.5 682,-114.5 515,-114.5"/>
<text text-anchor="middle" x="598.5" y="-121.5" font-family="Helvetica,sans-Serif" font-size="10.00">Ogre::GL3PlusUavBufferPacked</text>
</a>
</g>
</g>
<!-- Node29&#45;&gt;Node31 -->
<g id="edge30" class="edge">
<title>Node29&#45;&gt;Node31</title>
<path fill="none" stroke="midnightblue" d="M475.39,-124C488.29,-124 501.78,-124 514.91,-124"/>
<polygon fill="midnightblue" stroke="midnightblue" points="475.2,-120.5 465.2,-124 475.2,-127.5 475.2,-120.5"/>
</g>
<!-- Node32 -->
<g id="node32" class="node">
<title>Node32</title>
<g id="a_node32"><a xlink:href="class_ogre_1_1_metal_uav_buffer_packed.html" target="_top" xlink:title=" ">
<polygon fill="none" stroke="black" points="520.5,-76.5 520.5,-95.5 676.5,-95.5 676.5,-76.5 520.5,-76.5"/>
<text text-anchor="middle" x="598.5" y="-83.5" font-family="Helvetica,sans-Serif" font-size="10.00">Ogre::MetalUavBufferPacked</text>
</a>
</g>
</g>
<!-- Node29&#45;&gt;Node32 -->
<g id="edge31" class="edge">
<title>Node29&#45;&gt;Node32</title>
<path fill="none" stroke="midnightblue" d="M461.11,-112.51C489,-107.09 521.9,-100.69 548.4,-95.54"/>
<polygon fill="midnightblue" stroke="midnightblue" points="460.23,-109.12 451.08,-114.46 461.56,-115.99 460.23,-109.12"/>
</g>
<!-- Node33 -->
<g id="node33" class="node">
<title>Node33</title>
<g id="a_node33"><a xlink:href="class_ogre_1_1_n_u_l_l_uav_buffer_packed.html" target="_top" xlink:title=" ">
<polygon fill="none" stroke="black" points="521.5,-38.5 521.5,-57.5 675.5,-57.5 675.5,-38.5 521.5,-38.5"/>
<text text-anchor="middle" x="598.5" y="-45.5" font-family="Helvetica,sans-Serif" font-size="10.00">Ogre::NULLUavBufferPacked</text>
</a>
</g>
</g>
<!-- Node29&#45;&gt;Node33 -->
<g id="edge32" class="edge">
<title>Node29&#45;&gt;Node33</title>
<path fill="none" stroke="midnightblue" d="M462.3,-110.85C466.37,-109.13 470.31,-107.19 474,-105 494.01,-93.13 489.73,-78.42 510,-67 516.91,-63.11 524.53,-60.01 532.32,-57.55"/>
<polygon fill="midnightblue" stroke="midnightblue" points="460.77,-107.68 452.63,-114.47 463.23,-114.24 460.77,-107.68"/>
</g>
<!-- Node34 -->
<g id="node34" class="node">
<title>Node34</title>
<g id="a_node34"><a xlink:href="class_ogre_1_1_vulkan_uav_buffer_packed.html" target="_top" xlink:title=" ">
<polygon fill="none" stroke="black" points="518,-0.5 518,-19.5 679,-19.5 679,-0.5 518,-0.5"/>
<text text-anchor="middle" x="598.5" y="-7.5" font-family="Helvetica,sans-Serif" font-size="10.00">Ogre::VulkanUavBufferPacked</text>
</a>
</g>
</g>
<!-- Node29&#45;&gt;Node34 -->
<g id="edge33" class="edge">
<title>Node29&#45;&gt;Node34</title>
<path fill="none" stroke="midnightblue" d="M467.49,-109.66C469.77,-108.25 471.96,-106.7 474,-105 502.75,-81.12 480.73,-52.24 510,-29 514.75,-25.23 520.08,-22.17 525.71,-19.68"/>
<polygon fill="midnightblue" stroke="midnightblue" points="465.53,-106.74 458.27,-114.45 468.75,-112.95 465.53,-106.74"/>
</g>
</g>
</svg>
