<?xml version="1.0" encoding="UTF-8" standalone="no"?>
<!DOCTYPE svg PUBLIC "-//W3C//DTD SVG 1.1//EN"
 "http://www.w3.org/Graphics/SVG/1.1/DTD/svg11.dtd">
<!-- Generated by graphviz version 2.43.0 (0)
 -->
<!-- Title: Ogre::v1::TempBlendedBufferInfo Pages: 1 -->
<svg width="298pt" height="93pt"
 viewBox="0.00 0.00 297.50 93.00" xmlns="http://www.w3.org/2000/svg" xmlns:xlink="http://www.w3.org/1999/xlink">
<g id="graph0" class="graph" transform="scale(1 1) rotate(0) translate(4 89)">
<title>Ogre::v1::TempBlendedBufferInfo</title>
<!-- Node1 -->
<g id="Node000001" class="node">
<title>Node1</title>
<g id="a_Node000001"><a xlink:title="Structure for recording the use of temporary blend buffers.">
<polygon fill="#999999" stroke="#666666" points="236,-19 58,-19 58,0 236,0 236,-19"/>
<text text-anchor="middle" x="147" y="-7" font-family="Helvetica,sans-Serif" font-size="10.00">Ogre::v1::TempBlendedBufferInfo</text>
</a>
</g>
</g>
<!-- Node2 -->
<g id="Node000002" class="node">
<title>Node2</title>
<g id="a_Node000002"><a xlink:href="class_ogre_1_1v1_1_1_hardware_buffer_licensee.html" target="_top" xlink:title="Abstract interface representing a &#39;licensee&#39; of a hardware buffer copy.">
<polygon fill="white" stroke="#666666" points="140,-85 0,-85 0,-55 140,-55 140,-85"/>
<text text-anchor="start" x="8" y="-73" font-family="Helvetica,sans-Serif" font-size="10.00">Ogre::v1::HardwareBuffer</text>
<text text-anchor="middle" x="70" y="-62" font-family="Helvetica,sans-Serif" font-size="10.00">Licensee</text>
</a>
</g>
</g>
<!-- Node2&#45;&gt;Node1 -->
<g id="edge1_Node000001_Node000002" class="edge">
<title>Node2&#45;&gt;Node1</title>
<g id="a_edge1_Node000001_Node000002"><a xlink:title=" ">
<path fill="none" stroke="#63b8ff" d="M96.94,-48.53C110.13,-38.51 125.31,-26.98 135.46,-19.27"/>
<polygon fill="#63b8ff" stroke="#63b8ff" points="94.48,-46 88.64,-54.84 98.72,-51.58 94.48,-46"/>
</a>
</g>
</g>
<!-- Node3 -->
<g id="Node000003" class="node">
<title>Node3</title>
<g id="a_Node000003"><a xlink:title=" ">
<polygon fill="white" stroke="#666666" points="289.5,-79.5 158.5,-79.5 158.5,-60.5 289.5,-60.5 289.5,-79.5"/>
<text text-anchor="middle" x="224" y="-67.5" font-family="Helvetica,sans-Serif" font-size="10.00">Ogre::OgreAllocatedObj</text>
</a>
</g>
</g>
<!-- Node3&#45;&gt;Node1 -->
<g id="edge2_Node000001_Node000003" class="edge">
<title>Node3&#45;&gt;Node1</title>
<g id="a_edge2_Node000001_Node000003"><a xlink:title=" ">
<path fill="none" stroke="#63b8ff" d="M204.31,-54.04C189.77,-42.99 170.48,-28.34 158.41,-19.17"/>
<polygon fill="#63b8ff" stroke="#63b8ff" points="202.56,-57.11 212.64,-60.37 206.79,-51.53 202.56,-57.11"/>
</a>
</g>
</g>
</g>
</svg>
