<?xml version="1.0" encoding="UTF-8" standalone="no"?>
<!DOCTYPE svg PUBLIC "-//W3C//DTD SVG 1.1//EN"
 "http://www.w3.org/Graphics/SVG/1.1/DTD/svg11.dtd">
<!-- Generated by graphviz version 2.43.0 (0)
 -->
<!-- Title: Ogre::AsyncTicket Pages: 1 -->
<svg width="458pt" height="212pt"
 viewBox="0.00 0.00 458.00 212.00" xmlns="http://www.w3.org/2000/svg" xmlns:xlink="http://www.w3.org/1999/xlink">
<g id="graph0" class="graph" transform="scale(1 1) rotate(0) translate(4 208)">
<title>Ogre::AsyncTicket</title>
<!-- Node1 -->
<g id="Node000001" class="node">
<title>Node1</title>
<g id="a_Node000001"><a xlink:title="In Ogre 2.0 data structures, reading data from GPU back to CPU is asynchronous.">
<polygon fill="#999999" stroke="#666666" points="271,-111 167,-111 167,-92 271,-92 271,-111"/>
<text text-anchor="middle" x="219" y="-99" font-family="Helvetica,sans-Serif" font-size="10.00">Ogre::AsyncTicket</text>
</a>
</g>
</g>
<!-- Node3 -->
<g id="Node000003" class="node">
<title>Node3</title>
<g id="a_Node000003"><a xlink:href="class_ogre_1_1_d3_d11_async_ticket.html" target="_top" xlink:title=" ">
<polygon fill="white" stroke="#666666" points="447,-204 310,-204 310,-185 447,-185 447,-204"/>
<text text-anchor="middle" x="378.5" y="-192" font-family="Helvetica,sans-Serif" font-size="10.00">Ogre::D3D11AsyncTicket</text>
</a>
</g>
</g>
<!-- Node1&#45;&gt;Node3 -->
<g id="edge2_Node000001_Node000003" class="edge">
<title>Node1&#45;&gt;Node3</title>
<g id="a_edge2_Node000001_Node000003"><a xlink:title=" ">
<path fill="none" stroke="#63b8ff" d="M235.38,-118.78C251.56,-135.91 278.58,-161.68 307,-176.5 313.5,-179.89 320.67,-182.66 327.88,-184.93"/>
<polygon fill="#63b8ff" stroke="#63b8ff" points="237.7,-116.13 228.35,-111.15 232.55,-120.88 237.7,-116.13"/>
</a>
</g>
</g>
<!-- Node4 -->
<g id="Node000004" class="node">
<title>Node4</title>
<g id="a_Node000004"><a xlink:href="class_ogre_1_1_g_l3_plus_async_ticket.html" target="_top" xlink:title=" ">
<polygon fill="white" stroke="#666666" points="450,-167 307,-167 307,-148 450,-148 450,-167"/>
<text text-anchor="middle" x="378.5" y="-155" font-family="Helvetica,sans-Serif" font-size="10.00">Ogre::GL3PlusAsyncTicket</text>
</a>
</g>
</g>
<!-- Node1&#45;&gt;Node4 -->
<g id="edge3_Node000001_Node000004" class="edge">
<title>Node1&#45;&gt;Node4</title>
<g id="a_edge3_Node000001_Node000004"><a xlink:title=" ">
<path fill="none" stroke="#63b8ff" d="M248.58,-115.38C265.33,-123.16 287.06,-132.65 307,-139.5 316.08,-142.62 325.98,-145.47 335.42,-147.94"/>
<polygon fill="#63b8ff" stroke="#63b8ff" points="249.87,-112.12 239.34,-111.03 246.89,-118.45 249.87,-112.12"/>
</a>
</g>
</g>
<!-- Node5 -->
<g id="Node000005" class="node">
<title>Node5</title>
<g id="a_Node000005"><a xlink:href="class_ogre_1_1_g_l_e_s2_async_ticket.html" target="_top" xlink:title=" ">
<polygon fill="white" stroke="#666666" points="446,-130 311,-130 311,-111 446,-111 446,-130"/>
<text text-anchor="middle" x="378.5" y="-118" font-family="Helvetica,sans-Serif" font-size="10.00">Ogre::GLES2AsyncTicket</text>
</a>
</g>
</g>
<!-- Node1&#45;&gt;Node5 -->
<g id="edge4_Node000001_Node000005" class="edge">
<title>Node1&#45;&gt;Node5</title>
<g id="a_edge4_Node000001_Node000005"><a xlink:title=" ">
<path fill="none" stroke="#63b8ff" d="M281.12,-108.87C290.86,-110.05 300.98,-111.27 310.84,-112.46"/>
<polygon fill="#63b8ff" stroke="#63b8ff" points="281.48,-105.39 271.14,-107.67 280.64,-112.34 281.48,-105.39"/>
</a>
</g>
</g>
<!-- Node6 -->
<g id="Node000006" class="node">
<title>Node6</title>
<g id="a_Node000006"><a xlink:href="class_ogre_1_1_metal_async_ticket.html" target="_top" xlink:title=" ">
<polygon fill="white" stroke="#666666" points="444.5,-93 312.5,-93 312.5,-74 444.5,-74 444.5,-93"/>
<text text-anchor="middle" x="378.5" y="-81" font-family="Helvetica,sans-Serif" font-size="10.00">Ogre::MetalAsyncTicket</text>
</a>
</g>
</g>
<!-- Node1&#45;&gt;Node6 -->
<g id="edge5_Node000001_Node000006" class="edge">
<title>Node1&#45;&gt;Node6</title>
<g id="a_edge5_Node000001_Node000006"><a xlink:title=" ">
<path fill="none" stroke="#63b8ff" d="M281.16,-94.51C291.36,-93.34 301.96,-92.13 312.25,-90.96"/>
<polygon fill="#63b8ff" stroke="#63b8ff" points="280.67,-91.04 271.14,-95.66 281.47,-98 280.67,-91.04"/>
</a>
</g>
</g>
<!-- Node7 -->
<g id="Node000007" class="node">
<title>Node7</title>
<g id="a_Node000007"><a xlink:href="class_ogre_1_1_n_u_l_l_async_ticket.html" target="_top" xlink:title=" ">
<polygon fill="white" stroke="#666666" points="444,-56 313,-56 313,-37 444,-37 444,-56"/>
<text text-anchor="middle" x="378.5" y="-44" font-family="Helvetica,sans-Serif" font-size="10.00">Ogre::NULLAsyncTicket</text>
</a>
</g>
</g>
<!-- Node1&#45;&gt;Node7 -->
<g id="edge6_Node000001_Node000007" class="edge">
<title>Node1&#45;&gt;Node7</title>
<g id="a_edge6_Node000001_Node000007"><a xlink:title=" ">
<path fill="none" stroke="#63b8ff" d="M249.27,-87.73C265.95,-80.22 287.37,-71.14 307,-64.5 316.21,-61.38 326.26,-58.51 335.81,-56.02"/>
<polygon fill="#63b8ff" stroke="#63b8ff" points="247.7,-84.6 240.05,-91.94 250.6,-90.97 247.7,-84.6"/>
</a>
</g>
</g>
<!-- Node8 -->
<g id="Node000008" class="node">
<title>Node8</title>
<g id="a_Node000008"><a xlink:href="class_ogre_1_1_vulkan_async_ticket.html" target="_top" xlink:title=" ">
<polygon fill="white" stroke="#666666" points="447,-19 310,-19 310,0 447,0 447,-19"/>
<text text-anchor="middle" x="378.5" y="-7" font-family="Helvetica,sans-Serif" font-size="10.00">Ogre::VulkanAsyncTicket</text>
</a>
</g>
</g>
<!-- Node1&#45;&gt;Node8 -->
<g id="edge7_Node000001_Node000008" class="edge">
<title>Node1&#45;&gt;Node8</title>
<g id="a_edge7_Node000001_Node000008"><a xlink:title=" ">
<path fill="none" stroke="#63b8ff" d="M235.43,-84.46C251.64,-67.56 278.7,-42.14 307,-27.5 313.51,-24.13 320.69,-21.37 327.9,-19.11"/>
<polygon fill="#63b8ff" stroke="#63b8ff" points="232.66,-82.29 228.38,-91.98 237.77,-87.08 232.66,-82.29"/>
</a>
</g>
</g>
<!-- Node2 -->
<g id="Node000002" class="node">
<title>Node2</title>
<g id="a_Node000002"><a xlink:title=" ">
<polygon fill="white" stroke="#666666" points="131,-111 0,-111 0,-92 131,-92 131,-111"/>
<text text-anchor="middle" x="65.5" y="-99" font-family="Helvetica,sans-Serif" font-size="10.00">Ogre::OgreAllocatedObj</text>
</a>
</g>
</g>
<!-- Node2&#45;&gt;Node1 -->
<g id="edge1_Node000001_Node000002" class="edge">
<title>Node2&#45;&gt;Node1</title>
<g id="a_edge1_Node000001_Node000002"><a xlink:title=" ">
<path fill="none" stroke="#63b8ff" d="M141.29,-101.5C149.93,-101.5 158.58,-101.5 166.8,-101.5"/>
<polygon fill="#63b8ff" stroke="#63b8ff" points="141.19,-98 131.19,-101.5 141.19,-105 141.19,-98"/>
</a>
</g>
</g>
</g>
</svg>
