<?xml version="1.0" encoding="UTF-8" standalone="no"?>
<!DOCTYPE svg PUBLIC "-//W3C//DTD SVG 1.1//EN"
 "http://www.w3.org/Graphics/SVG/1.1/DTD/svg11.dtd">
<!-- Generated by graphviz version 2.43.0 (0)
 -->
<!-- Title: Ogre::v1::TextAreaOverlayElement Pages: 1 -->
<svg width="366pt" height="151pt"
 viewBox="0.00 0.00 366.00 151.00" xmlns="http://www.w3.org/2000/svg" xmlns:xlink="http://www.w3.org/1999/xlink">
<g id="graph0" class="graph" transform="scale(1 1) rotate(0) translate(4 147)">
<title>Ogre::v1::TextAreaOverlayElement</title>
<!-- Node1 -->
<g id="node1" class="node">
<title>Node1</title>
<g id="a_node1"><a xlink:title="This class implements an overlay element which contains simple unformatted text.">
<polygon fill="#bfbfbf" stroke="black" points="114.5,-0.5 114.5,-30.5 259.5,-30.5 259.5,-0.5 114.5,-0.5"/>
<text text-anchor="start" x="122.5" y="-18.5" font-family="Helvetica,sans-Serif" font-size="10.00">Ogre::v1::TextAreaOverlay</text>
<text text-anchor="middle" x="187" y="-7.5" font-family="Helvetica,sans-Serif" font-size="10.00">Element</text>
</a>
</g>
</g>
<!-- Node2 -->
<g id="node2" class="node">
<title>Node2</title>
<g id="a_node2"><a xlink:href="class_ogre_1_1v1_1_1_overlay_element.html" target="_top" xlink:title="Abstract definition of a 2D element to be displayed in an Overlay.">
<polygon fill="none" stroke="black" points="115.5,-67.5 115.5,-86.5 258.5,-86.5 258.5,-67.5 115.5,-67.5"/>
<text text-anchor="middle" x="187" y="-74.5" font-family="Helvetica,sans-Serif" font-size="10.00">Ogre::v1::OverlayElement</text>
</a>
</g>
</g>
<!-- Node2&#45;&gt;Node1 -->
<g id="edge1" class="edge">
<title>Node2&#45;&gt;Node1</title>
<path fill="none" stroke="midnightblue" d="M187,-57.23C187,-48.59 187,-38.5 187,-30.52"/>
<polygon fill="midnightblue" stroke="midnightblue" points="183.5,-57.48 187,-67.48 190.5,-57.48 183.5,-57.48"/>
</g>
<!-- Node3 -->
<g id="node3" class="node">
<title>Node3</title>
<g id="a_node3"><a xlink:href="class_ogre_1_1_string_interface.html" target="_top" xlink:title="Class defining the common interface which classes can use to present a reflection&#45;style,...">
<polygon fill="none" stroke="black" points="0,-123.5 0,-142.5 118,-142.5 118,-123.5 0,-123.5"/>
<text text-anchor="middle" x="59" y="-130.5" font-family="Helvetica,sans-Serif" font-size="10.00">Ogre::StringInterface</text>
</a>
</g>
</g>
<!-- Node3&#45;&gt;Node2 -->
<g id="edge2" class="edge">
<title>Node3&#45;&gt;Node2</title>
<path fill="none" stroke="midnightblue" d="M88.62,-119.5C112.62,-109.38 145.78,-95.39 166.81,-86.52"/>
<polygon fill="midnightblue" stroke="midnightblue" points="87.14,-116.33 79.28,-123.44 89.86,-122.78 87.14,-116.33"/>
</g>
<!-- Node4 -->
<g id="node4" class="node">
<title>Node4</title>
<g id="a_node4"><a xlink:href="class_ogre_1_1_renderable.html" target="_top" xlink:title="Abstract class defining the interface all renderable objects must implement.">
<polygon fill="none" stroke="black" points="136.5,-123.5 136.5,-142.5 237.5,-142.5 237.5,-123.5 136.5,-123.5"/>
<text text-anchor="middle" x="187" y="-130.5" font-family="Helvetica,sans-Serif" font-size="10.00">Ogre::Renderable</text>
</a>
</g>
</g>
<!-- Node4&#45;&gt;Node2 -->
<g id="edge3" class="edge">
<title>Node4&#45;&gt;Node2</title>
<path fill="none" stroke="midnightblue" d="M187,-112.8C187,-103.91 187,-93.78 187,-86.75"/>
<polygon fill="midnightblue" stroke="midnightblue" points="183.5,-113.08 187,-123.08 190.5,-113.08 183.5,-113.08"/>
</g>
<!-- Node5 -->
<g id="node5" class="node">
<title>Node5</title>
<g id="a_node5"><a xlink:title=" ">
<polygon fill="none" stroke="#bfbfbf" points="256,-123.5 256,-142.5 358,-142.5 358,-123.5 256,-123.5"/>
<text text-anchor="middle" x="307" y="-130.5" font-family="Helvetica,sans-Serif" font-size="10.00">OgreAllocatedObj</text>
</a>
</g>
</g>
<!-- Node5&#45;&gt;Node2 -->
<g id="edge4" class="edge">
<title>Node5&#45;&gt;Node2</title>
<path fill="none" stroke="midnightblue" d="M278.63,-119.23C256.18,-109.13 225.46,-95.31 205.93,-86.52"/>
<polygon fill="midnightblue" stroke="midnightblue" points="277.43,-122.53 287.99,-123.44 280.3,-116.15 277.43,-122.53"/>
</g>
</g>
</svg>
