<?xml version="1.0" encoding="UTF-8" standalone="no"?>
<!DOCTYPE svg PUBLIC "-//W3C//DTD SVG 1.1//EN"
 "http://www.w3.org/Graphics/SVG/1.1/DTD/svg11.dtd">
<!-- Generated by graphviz version 2.43.0 (0)
 -->
<!-- Title: Ogre::AnimableObject Pages: 1 -->
<svg width="668pt" height="656pt"
 viewBox="0.00 0.00 668.00 656.00" xmlns="http://www.w3.org/2000/svg" xmlns:xlink="http://www.w3.org/1999/xlink">
<g id="graph0" class="graph" transform="scale(1 1) rotate(0) translate(4 652)">
<title>Ogre::AnimableObject</title>
<!-- Node1 -->
<g id="Node000001" class="node">
<title>Node1</title>
<g id="a_Node000001"><a xlink:title="Defines an interface to classes which have one or more AnimableValue instances to expose.">
<polygon fill="#999999" stroke="#666666" points="124,-333 0,-333 0,-314 124,-314 124,-333"/>
<text text-anchor="middle" x="62" y="-321" font-family="Helvetica,sans-Serif" font-size="10.00">Ogre::AnimableObject</text>
</a>
</g>
</g>
<!-- Node2 -->
<g id="Node000002" class="node">
<title>Node2</title>
<g id="a_Node000002"><a xlink:href="class_ogre_1_1_movable_object.html" target="_top" xlink:title="Abstract class defining a movable object in a scene.">
<polygon fill="white" stroke="#666666" points="279,-333 160,-333 160,-314 279,-314 279,-333"/>
<text text-anchor="middle" x="219.5" y="-321" font-family="Helvetica,sans-Serif" font-size="10.00">Ogre::MovableObject</text>
</a>
</g>
</g>
<!-- Node1&#45;&gt;Node2 -->
<g id="edge1_Node000001_Node000002" class="edge">
<title>Node1&#45;&gt;Node2</title>
<g id="a_edge1_Node000001_Node000002"><a xlink:title=" ">
<path fill="none" stroke="#63b8ff" d="M134.09,-323.5C142.75,-323.5 151.51,-323.5 159.95,-323.5"/>
<polygon fill="#63b8ff" stroke="#63b8ff" points="134.01,-320 124.01,-323.5 134.01,-327 134.01,-320"/>
</a>
</g>
</g>
<!-- Node3 -->
<g id="Node000003" class="node">
<title>Node3</title>
<g id="a_Node000003"><a xlink:href="class_ogre_1_1_decal.html" target="_top" xlink:title="Decals can have diffuse, normal map, and emissive on top of regular objects.">
<polygon fill="white" stroke="#666666" points="431,-648 357,-648 357,-629 431,-629 431,-648"/>
<text text-anchor="middle" x="394" y="-636" font-family="Helvetica,sans-Serif" font-size="10.00">Ogre::Decal</text>
</a>
</g>
</g>
<!-- Node2&#45;&gt;Node3 -->
<g id="edge2_Node000002_Node000003" class="edge">
<title>Node2&#45;&gt;Node3</title>
<g id="a_edge2_Node000002_Node000003"><a xlink:title=" ">
<path fill="none" stroke="#63b8ff" d="M220.5,-343.41C221.66,-396.84 232.53,-544.47 315,-620.5 326.24,-630.86 342.22,-635.64 356.8,-637.72"/>
<polygon fill="#63b8ff" stroke="#63b8ff" points="224,-343.19 220.38,-333.23 217,-343.28 224,-343.19"/>
</a>
</g>
</g>
<!-- Node4 -->
<g id="Node000004" class="node">
<title>Node4</title>
<g id="a_Node000004"><a xlink:href="class_ogre_1_1_frustum.html" target="_top" xlink:title="A frustum represents a pyramid, capped at the near and far end which is used to represent either a vi...">
<polygon fill="white" stroke="#666666" points="437,-611 351,-611 351,-592 437,-592 437,-611"/>
<text text-anchor="middle" x="394" y="-599" font-family="Helvetica,sans-Serif" font-size="10.00">Ogre::Frustum</text>
</a>
</g>
</g>
<!-- Node2&#45;&gt;Node4 -->
<g id="edge3_Node000002_Node000004" class="edge">
<title>Node2&#45;&gt;Node4</title>
<g id="a_edge3_Node000002_Node000004"><a xlink:title=" ">
<path fill="none" stroke="#63b8ff" d="M221.52,-343.19C225.16,-391.85 241.58,-518.52 315,-583.5 324.89,-592.25 338.18,-596.98 350.98,-599.48"/>
<polygon fill="#63b8ff" stroke="#63b8ff" points="225.01,-342.82 220.87,-333.06 218.02,-343.27 225.01,-342.82"/>
</a>
</g>
</g>
<!-- Node6 -->
<g id="Node000006" class="node">
<title>Node6</title>
<g id="a_Node000006"><a xlink:href="class_ogre_1_1_internal_cubemap_probe.html" target="_top" xlink:title="This class is internal and should not be interfaced directly by users.">
<polygon fill="white" stroke="#666666" points="473,-574 315,-574 315,-555 473,-555 473,-574"/>
<text text-anchor="middle" x="394" y="-562" font-family="Helvetica,sans-Serif" font-size="10.00">Ogre::InternalCubemapProbe</text>
</a>
</g>
</g>
<!-- Node2&#45;&gt;Node6 -->
<g id="edge5_Node000002_Node000006" class="edge">
<title>Node2&#45;&gt;Node6</title>
<g id="a_edge5_Node000002_Node000006"><a xlink:title=" ">
<path fill="none" stroke="#63b8ff" d="M222.88,-343.33C229.22,-387.13 250.71,-492.53 315,-546.5 319.04,-549.9 323.61,-552.68 328.44,-554.96"/>
<polygon fill="#63b8ff" stroke="#63b8ff" points="226.34,-342.81 221.55,-333.36 219.4,-343.74 226.34,-342.81"/>
</a>
</g>
</g>
<!-- Node7 -->
<g id="Node000007" class="node">
<title>Node7</title>
<g id="a_Node000007"><a xlink:href="class_ogre_1_1_item.html" target="_top" xlink:title="Defines an instance of a discrete, movable object based on a Mesh.">
<polygon fill="white" stroke="#666666" points="428,-537 360,-537 360,-518 428,-518 428,-537"/>
<text text-anchor="middle" x="394" y="-525" font-family="Helvetica,sans-Serif" font-size="10.00">Ogre::Item</text>
</a>
</g>
</g>
<!-- Node2&#45;&gt;Node7 -->
<g id="edge6_Node000002_Node000007" class="edge">
<title>Node2&#45;&gt;Node7</title>
<g id="a_edge6_Node000002_Node000007"><a xlink:title=" ">
<path fill="none" stroke="#63b8ff" d="M224.59,-342.87C233.72,-381.04 259.43,-466.04 315,-509.5 327.7,-519.43 344.9,-524.06 359.92,-526.15"/>
<polygon fill="#63b8ff" stroke="#63b8ff" points="227.99,-342 222.37,-333.02 221.16,-343.55 227.99,-342"/>
</a>
</g>
</g>
<!-- Node8 -->
<g id="Node000008" class="node">
<title>Node8</title>
<g id="a_Node000008"><a xlink:href="class_ogre_1_1_light.html" target="_top" xlink:title="Representation of a dynamic light source in the scene.">
<polygon fill="white" stroke="#666666" points="429,-500 359,-500 359,-481 429,-481 429,-500"/>
<text text-anchor="middle" x="394" y="-488" font-family="Helvetica,sans-Serif" font-size="10.00">Ogre::Light</text>
</a>
</g>
</g>
<!-- Node2&#45;&gt;Node8 -->
<g id="edge7_Node000002_Node000008" class="edge">
<title>Node2&#45;&gt;Node8</title>
<g id="a_edge7_Node000002_Node000008"><a xlink:title=" ">
<path fill="none" stroke="#63b8ff" d="M227.23,-342.99C239.42,-375.24 268.28,-439.42 315,-472.5 327.7,-481.5 344.22,-486.07 358.78,-488.36"/>
<polygon fill="#63b8ff" stroke="#63b8ff" points="230.44,-341.57 223.74,-333.37 223.86,-343.96 230.44,-341.57"/>
</a>
</g>
</g>
<!-- Node9 -->
<g id="Node000009" class="node">
<title>Node9</title>
<g id="a_Node000009"><a xlink:href="class_ogre_1_1_manual_object.html" target="_top" xlink:title=" ">
<polygon fill="white" stroke="#666666" points="450.5,-463 337.5,-463 337.5,-444 450.5,-444 450.5,-463"/>
<text text-anchor="middle" x="394" y="-451" font-family="Helvetica,sans-Serif" font-size="10.00">Ogre::ManualObject</text>
</a>
</g>
</g>
<!-- Node2&#45;&gt;Node9 -->
<g id="edge8_Node000002_Node000009" class="edge">
<title>Node2&#45;&gt;Node9</title>
<g id="a_edge8_Node000002_Node000009"><a xlink:title=" ">
<path fill="none" stroke="#63b8ff" d="M230.85,-342.02C245.95,-367.25 276.48,-411.97 315,-435.5 321.76,-439.63 329.38,-442.81 337.13,-445.27"/>
<polygon fill="#63b8ff" stroke="#63b8ff" points="233.72,-339.99 225.67,-333.1 227.67,-343.5 233.72,-339.99"/>
</a>
</g>
</g>
<!-- Node10 -->
<g id="Node000010" class="node">
<title>Node10</title>
<g id="a_Node000010"><a xlink:href="class_ogre_1_1_movable_plane.html" target="_top" xlink:title="Definition of a Plane that may be attached to a node, and the derived details of it retrieved simply.">
<polygon fill="white" stroke="#666666" points="451.5,-426 336.5,-426 336.5,-407 451.5,-407 451.5,-426"/>
<text text-anchor="middle" x="394" y="-414" font-family="Helvetica,sans-Serif" font-size="10.00">Ogre::MovablePlane</text>
</a>
</g>
</g>
<!-- Node2&#45;&gt;Node10 -->
<g id="edge9_Node000002_Node000010" class="edge">
<title>Node2&#45;&gt;Node10</title>
<g id="a_edge9_Node000002_Node000010"><a xlink:title=" ">
<path fill="none" stroke="#63b8ff" d="M236.95,-340.4C254.65,-357.6 284.4,-383.76 315,-398.5 322.01,-401.88 329.69,-404.64 337.4,-406.89"/>
<polygon fill="#63b8ff" stroke="#63b8ff" points="239.26,-337.77 229.7,-333.2 234.33,-342.74 239.26,-337.77"/>
</a>
</g>
</g>
<!-- Node11 -->
<g id="Node000011" class="node">
<title>Node11</title>
<g id="a_Node000011"><a xlink:href="class_ogre_1_1_null_entity.html" target="_top" xlink:title=" ">
<polygon fill="white" stroke="#666666" points="441,-389 347,-389 347,-370 441,-370 441,-389"/>
<text text-anchor="middle" x="394" y="-377" font-family="Helvetica,sans-Serif" font-size="10.00">Ogre::NullEntity</text>
</a>
</g>
</g>
<!-- Node2&#45;&gt;Node11 -->
<g id="edge10_Node000002_Node000011" class="edge">
<title>Node2&#45;&gt;Node11</title>
<g id="a_edge10_Node000002_Node000011"><a xlink:title=" ">
<path fill="none" stroke="#63b8ff" d="M250.84,-337.1C269.16,-344.96 293.12,-354.62 315,-361.5 325.21,-364.71 336.33,-367.62 346.9,-370.11"/>
<polygon fill="#63b8ff" stroke="#63b8ff" points="252.12,-333.84 241.55,-333.06 249.32,-340.26 252.12,-333.84"/>
</a>
</g>
</g>
<!-- Node12 -->
<g id="Node000012" class="node">
<title>Node12</title>
<g id="a_Node000012"><a xlink:href="class_ogre_1_1_particle_system.html" target="_top" xlink:title="Class defining particle system based special effects.">
<polygon fill="white" stroke="#666666" points="453.5,-352 334.5,-352 334.5,-333 453.5,-333 453.5,-352"/>
<text text-anchor="middle" x="394" y="-340" font-family="Helvetica,sans-Serif" font-size="10.00">Ogre::ParticleSystem</text>
</a>
</g>
</g>
<!-- Node2&#45;&gt;Node12 -->
<g id="edge11_Node000002_Node000012" class="edge">
<title>Node2&#45;&gt;Node12</title>
<g id="a_edge11_Node000002_Node000012"><a xlink:title=" ">
<path fill="none" stroke="#63b8ff" d="M289.53,-331.1C304.39,-332.74 319.96,-334.46 334.38,-336.04"/>
<polygon fill="#63b8ff" stroke="#63b8ff" points="289.71,-327.6 279.38,-329.99 288.94,-334.56 289.71,-327.6"/>
</a>
</g>
</g>
<!-- Node13 -->
<g id="Node000013" class="node">
<title>Node13</title>
<g id="a_Node000013"><a xlink:href="class_ogre_1_1_rectangle2_d.html" target="_top" xlink:title=" ">
<polygon fill="white" stroke="#666666" points="448,-315 340,-315 340,-296 448,-296 448,-315"/>
<text text-anchor="middle" x="394" y="-303" font-family="Helvetica,sans-Serif" font-size="10.00">Ogre::Rectangle2D</text>
</a>
</g>
</g>
<!-- Node2&#45;&gt;Node13 -->
<g id="edge12_Node000002_Node000013" class="edge">
<title>Node2&#45;&gt;Node13</title>
<g id="a_edge12_Node000002_Node000013"><a xlink:title=" ">
<path fill="none" stroke="#63b8ff" d="M289.66,-316.28C306.39,-314.54 324.02,-312.7 339.88,-311.04"/>
<polygon fill="#63b8ff" stroke="#63b8ff" points="288.96,-312.84 279.38,-317.36 289.69,-319.8 288.96,-312.84"/>
</a>
</g>
</g>
<!-- Node14 -->
<g id="Node000014" class="node">
<title>Node14</title>
<g id="a_Node000014"><a xlink:href="class_ogre_1_1_wire_aabb.html" target="_top" xlink:title="Helper class to display the Aabb of a MovableObject as lines.">
<polygon fill="white" stroke="#666666" points="440.5,-278 347.5,-278 347.5,-259 440.5,-259 440.5,-278"/>
<text text-anchor="middle" x="394" y="-266" font-family="Helvetica,sans-Serif" font-size="10.00">Ogre::WireAabb</text>
</a>
</g>
</g>
<!-- Node2&#45;&gt;Node14 -->
<g id="edge13_Node000002_Node000014" class="edge">
<title>Node2&#45;&gt;Node14</title>
<g id="a_edge13_Node000002_Node000014"><a xlink:title=" ">
<path fill="none" stroke="#63b8ff" d="M252.64,-310.11C270.76,-302.85 293.92,-294.05 315,-287.5 326.05,-284.07 338.13,-280.86 349.42,-278.1"/>
<polygon fill="#63b8ff" stroke="#63b8ff" points="251.09,-306.96 243.13,-313.96 253.72,-313.45 251.09,-306.96"/>
</a>
</g>
</g>
<!-- Node15 -->
<g id="Node000015" class="node">
<title>Node15</title>
<g id="a_Node000015"><a xlink:href="class_ogre_1_1v1_1_1_billboard_chain.html" target="_top" xlink:title="Allows the rendering of a chain of connected billboards.">
<polygon fill="white" stroke="#666666" points="461.5,-241 326.5,-241 326.5,-222 461.5,-222 461.5,-241"/>
<text text-anchor="middle" x="394" y="-229" font-family="Helvetica,sans-Serif" font-size="10.00">Ogre::v1::BillboardChain</text>
</a>
</g>
</g>
<!-- Node2&#45;&gt;Node15 -->
<g id="edge14_Node000002_Node000015" class="edge">
<title>Node2&#45;&gt;Node15</title>
<g id="a_edge14_Node000002_Node000015"><a xlink:title=" ">
<path fill="none" stroke="#63b8ff" d="M237.36,-306.87C255.19,-290.2 284.87,-264.99 315,-250.5 323.04,-246.63 331.93,-243.51 340.75,-241.01"/>
<polygon fill="#63b8ff" stroke="#63b8ff" points="234.85,-304.42 230.04,-313.86 239.69,-309.49 234.85,-304.42"/>
</a>
</g>
</g>
<!-- Node17 -->
<g id="Node000017" class="node">
<title>Node17</title>
<g id="a_Node000017"><a xlink:href="class_ogre_1_1v1_1_1_billboard_set.html" target="_top" xlink:title="A collection of billboards (faces which are always facing the given direction) with the same (default...">
<polygon fill="white" stroke="#666666" points="455.5,-204 332.5,-204 332.5,-185 455.5,-185 455.5,-204"/>
<text text-anchor="middle" x="394" y="-192" font-family="Helvetica,sans-Serif" font-size="10.00">Ogre::v1::BillboardSet</text>
</a>
</g>
</g>
<!-- Node2&#45;&gt;Node17 -->
<g id="edge16_Node000002_Node000017" class="edge">
<title>Node2&#45;&gt;Node17</title>
<g id="a_edge16_Node000002_Node000017"><a xlink:title=" ">
<path fill="none" stroke="#63b8ff" d="M231.2,-305.01C246.53,-280.24 277.1,-236.73 315,-213.5 321.3,-209.64 328.33,-206.56 335.53,-204.11"/>
<polygon fill="#63b8ff" stroke="#63b8ff" points="228.08,-303.42 225.93,-313.79 234.08,-307.02 228.08,-303.42"/>
</a>
</g>
</g>
<!-- Node18 -->
<g id="Node000018" class="node">
<title>Node18</title>
<g id="a_Node000018"><a xlink:href="class_ogre_1_1v1_1_1_entity.html" target="_top" xlink:title="Defines an instance of a discrete, movable object based on a Mesh.">
<polygon fill="white" stroke="#666666" points="440,-167 348,-167 348,-148 440,-148 440,-167"/>
<text text-anchor="middle" x="394" y="-155" font-family="Helvetica,sans-Serif" font-size="10.00">Ogre::v1::Entity</text>
</a>
</g>
</g>
<!-- Node2&#45;&gt;Node18 -->
<g id="edge17_Node000002_Node000018" class="edge">
<title>Node2&#45;&gt;Node18</title>
<g id="a_edge17_Node000002_Node000018"><a xlink:title=" ">
<path fill="none" stroke="#63b8ff" d="M227.35,-304.33C239.71,-272.6 268.83,-209.41 315,-176.5 324.53,-169.71 336.21,-165.32 347.59,-162.5"/>
<polygon fill="#63b8ff" stroke="#63b8ff" points="224.04,-303.2 223.8,-313.8 230.59,-305.66 224.04,-303.2"/>
</a>
</g>
</g>
<!-- Node19 -->
<g id="Node000019" class="node">
<title>Node19</title>
<g id="a_Node000019"><a xlink:href="class_ogre_1_1v1_1_1_manual_object.html" target="_top" xlink:title="Class providing a much simplified interface to generating manual objects with custom geometry.">
<polygon fill="white" stroke="#666666" points="459.5,-130 328.5,-130 328.5,-111 459.5,-111 459.5,-130"/>
<text text-anchor="middle" x="394" y="-118" font-family="Helvetica,sans-Serif" font-size="10.00">Ogre::v1::ManualObject</text>
</a>
</g>
</g>
<!-- Node2&#45;&gt;Node19 -->
<g id="edge18_Node000002_Node000019" class="edge">
<title>Node2&#45;&gt;Node19</title>
<g id="a_edge18_Node000002_Node000019"><a xlink:title=" ">
<path fill="none" stroke="#63b8ff" d="M224.84,-303.86C234.27,-265.94 260.33,-182.6 315,-139.5 319.93,-135.62 325.53,-132.51 331.42,-130.03"/>
<polygon fill="#63b8ff" stroke="#63b8ff" points="221.41,-303.14 222.52,-313.68 228.22,-304.75 221.41,-303.14"/>
</a>
</g>
</g>
<!-- Node20 -->
<g id="Node000020" class="node">
<title>Node20</title>
<g id="a_Node000020"><a xlink:href="class_ogre_1_1v1_1_1_overlay.html" target="_top" xlink:title="Represents a layer which is rendered on top of the &#39;normal&#39; scene contents.">
<polygon fill="white" stroke="#666666" points="445,-93 343,-93 343,-74 445,-74 445,-93"/>
<text text-anchor="middle" x="394" y="-81" font-family="Helvetica,sans-Serif" font-size="10.00">Ogre::v1::Overlay</text>
</a>
</g>
</g>
<!-- Node2&#45;&gt;Node20 -->
<g id="edge19_Node000002_Node000020" class="edge">
<title>Node2&#45;&gt;Node20</title>
<g id="a_edge19_Node000002_Node000020"><a xlink:title=" ">
<path fill="none" stroke="#63b8ff" d="M223.03,-303.62C229.64,-260.15 251.58,-156.23 315,-102.5 322.87,-95.83 332.71,-91.43 342.72,-88.55"/>
<polygon fill="#63b8ff" stroke="#63b8ff" points="219.53,-303.36 221.6,-313.75 226.46,-304.34 219.53,-303.36"/>
</a>
</g>
</g>
<!-- Node21 -->
<g id="Node000021" class="node">
<title>Node21</title>
<g id="a_Node000021"><a xlink:href="class_ogre_1_1v1_1_1_rectangle2_d.html" target="_top" xlink:title="Allows the rendering of a simple 2D rectangle This class renders a simple 2D rectangle; this rectangl...">
<polygon fill="white" stroke="#666666" points="457,-56 331,-56 331,-37 457,-37 457,-56"/>
<text text-anchor="middle" x="394" y="-44" font-family="Helvetica,sans-Serif" font-size="10.00">Ogre::v1::Rectangle2D</text>
</a>
</g>
</g>
<!-- Node2&#45;&gt;Node21 -->
<g id="edge20_Node000002_Node000021" class="edge">
<title>Node2&#45;&gt;Node21</title>
<g id="a_edge20_Node000002_Node000021"><a xlink:title=" ">
<path fill="none" stroke="#63b8ff" d="M221.65,-303.68C225.57,-255.27 242.56,-130.24 315,-65.5 319.68,-61.32 325.12,-58.02 330.91,-55.43"/>
<polygon fill="#63b8ff" stroke="#63b8ff" points="218.15,-303.56 220.94,-313.78 225.13,-304.05 218.15,-303.56"/>
</a>
</g>
</g>
<!-- Node22 -->
<g id="Node000022" class="node">
<title>Node22</title>
<g id="a_Node000022"><a xlink:href="class_ogre_1_1v1_1_1_simple_renderable.html" target="_top" xlink:title="Simple implementation of MovableObject and Renderable for single&#45;part custom objects.">
<polygon fill="white" stroke="#666666" points="470.5,-19 317.5,-19 317.5,0 470.5,0 470.5,-19"/>
<text text-anchor="middle" x="394" y="-7" font-family="Helvetica,sans-Serif" font-size="10.00">Ogre::v1::SimpleRenderable</text>
</a>
</g>
</g>
<!-- Node2&#45;&gt;Node22 -->
<g id="edge21_Node000002_Node000022" class="edge">
<title>Node2&#45;&gt;Node22</title>
<g id="a_edge21_Node000002_Node000022"><a xlink:title=" ">
<path fill="none" stroke="#63b8ff" d="M220.6,-303.78C222,-250.83 233.42,-104.48 315,-28.5 319.08,-24.7 323.79,-21.62 328.83,-19.14"/>
<polygon fill="#63b8ff" stroke="#63b8ff" points="217.1,-303.8 220.43,-313.86 224.1,-303.92 217.1,-303.8"/>
</a>
</g>
</g>
<!-- Node5 -->
<g id="Node000005" class="node">
<title>Node5</title>
<g id="a_Node000005"><a xlink:href="class_ogre_1_1_camera.html" target="_top" xlink:title="A viewpoint from which the scene will be rendered.">
<polygon fill="white" stroke="#666666" points="626.5,-611 542.5,-611 542.5,-592 626.5,-592 626.5,-611"/>
<text text-anchor="middle" x="584.5" y="-599" font-family="Helvetica,sans-Serif" font-size="10.00">Ogre::Camera</text>
</a>
</g>
</g>
<!-- Node4&#45;&gt;Node5 -->
<g id="edge4_Node000004_Node000005" class="edge">
<title>Node4&#45;&gt;Node5</title>
<g id="a_edge4_Node000004_Node000005"><a xlink:title=" ">
<path fill="none" stroke="#63b8ff" d="M447.57,-601.5C477.52,-601.5 514.49,-601.5 542.31,-601.5"/>
<polygon fill="#63b8ff" stroke="#63b8ff" points="447.3,-598 437.3,-601.5 447.3,-605 447.3,-598"/>
</a>
</g>
</g>
<!-- Node16 -->
<g id="Node000016" class="node">
<title>Node16</title>
<g id="a_Node000016"><a xlink:href="class_ogre_1_1v1_1_1_ribbon_trail.html" target="_top" xlink:title="Subclass of BillboardChain which automatically leaves a trail behind one or more Node instances.">
<polygon fill="white" stroke="#666666" points="643.5,-241 525.5,-241 525.5,-222 643.5,-222 643.5,-241"/>
<text text-anchor="middle" x="584.5" y="-229" font-family="Helvetica,sans-Serif" font-size="10.00">Ogre::v1::RibbonTrail</text>
</a>
</g>
</g>
<!-- Node15&#45;&gt;Node16 -->
<g id="edge15_Node000015_Node000016" class="edge">
<title>Node15&#45;&gt;Node16</title>
<g id="a_edge15_Node000015_Node000016"><a xlink:title=" ">
<path fill="none" stroke="#63b8ff" d="M472.08,-231.5C489.86,-231.5 508.49,-231.5 525.32,-231.5"/>
<polygon fill="#63b8ff" stroke="#63b8ff" points="471.72,-228 461.72,-231.5 471.72,-235 471.72,-228"/>
</a>
</g>
</g>
<!-- Node23 -->
<g id="Node000023" class="node">
<title>Node23</title>
<g id="a_Node000023"><a xlink:href="class_ogre_1_1v1_1_1_wire_bounding_box.html" target="_top" xlink:title="Allows the rendering of a wireframe bounding box.">
<polygon fill="white" stroke="#666666" points="660,-19 509,-19 509,0 660,0 660,-19"/>
<text text-anchor="middle" x="584.5" y="-7" font-family="Helvetica,sans-Serif" font-size="10.00">Ogre::v1::WireBoundingBox</text>
</a>
</g>
</g>
<!-- Node22&#45;&gt;Node23 -->
<g id="edge22_Node000022_Node000023" class="edge">
<title>Node22&#45;&gt;Node23</title>
<g id="a_edge22_Node000022_Node000023"><a xlink:title=" ">
<path fill="none" stroke="#63b8ff" d="M480.7,-9.5C490.09,-9.5 499.58,-9.5 508.82,-9.5"/>
<polygon fill="#63b8ff" stroke="#63b8ff" points="480.58,-6 470.58,-9.5 480.58,-13 480.58,-6"/>
</a>
</g>
</g>
</g>
</svg>
