<?xml version="1.0" encoding="UTF-8" standalone="no"?>
<!DOCTYPE svg PUBLIC "-//W3C//DTD SVG 1.1//EN"
 "http://www.w3.org/Graphics/SVG/1.1/DTD/svg11.dtd">
<!-- Generated by graphviz version 2.43.0 (0)
 -->
<!-- Title: Ogre::HighLevelGpuProgram Pages: 1 -->
<svg width="772pt" height="192pt"
 viewBox="0.00 0.00 772.00 192.00" xmlns="http://www.w3.org/2000/svg" xmlns:xlink="http://www.w3.org/1999/xlink">
<g id="graph0" class="graph" transform="scale(1 1) rotate(0) translate(4 188)">
<title>Ogre::HighLevelGpuProgram</title>
<!-- Node1 -->
<g id="node1" class="node">
<title>Node1</title>
<g id="a_node1"><a xlink:title="Abstract base class representing a high&#45;level program (a vertex or fragment program).">
<polygon fill="#bfbfbf" stroke="black" points="424,-88.5 424,-107.5 579,-107.5 579,-88.5 424,-88.5"/>
<text text-anchor="middle" x="501.5" y="-95.5" font-family="Helvetica,sans-Serif" font-size="10.00">Ogre::HighLevelGpuProgram</text>
</a>
</g>
</g>
<!-- Node6 -->
<g id="node6" class="node">
<title>Node6</title>
<g id="a_node6"><a xlink:href="class_ogre_1_1_d3_d11_h_l_s_l_program.html" target="_top" xlink:title="Specialization of HighLevelGpuProgram to provide support for D3D11 High&#45;Level Shader Language (HLSL).">
<polygon fill="none" stroke="black" points="617.5,-164.5 617.5,-183.5 761.5,-183.5 761.5,-164.5 617.5,-164.5"/>
<text text-anchor="middle" x="689.5" y="-171.5" font-family="Helvetica,sans-Serif" font-size="10.00">Ogre::D3D11HLSLProgram</text>
</a>
</g>
</g>
<!-- Node1&#45;&gt;Node6 -->
<g id="edge5" class="edge">
<title>Node1&#45;&gt;Node6</title>
<path fill="none" stroke="midnightblue" d="M527.59,-112.7C549.93,-125.3 583.81,-143.23 615,-155 624.62,-158.63 635.2,-161.81 645.26,-164.48"/>
<polygon fill="midnightblue" stroke="midnightblue" points="529.18,-109.58 518.76,-107.66 525.71,-115.65 529.18,-109.58"/>
</g>
<!-- Node7 -->
<g id="node7" class="node">
<title>Node7</title>
<g id="a_node7"><a xlink:href="class_ogre_1_1_g_l_s_l_shader.html" target="_top" xlink:title="Specialisation of HighLevelGpuProgram to encapsulate shader objects obtained from compiled shaders wr...">
<polygon fill="none" stroke="black" points="637.5,-126.5 637.5,-145.5 741.5,-145.5 741.5,-126.5 637.5,-126.5"/>
<text text-anchor="middle" x="689.5" y="-133.5" font-family="Helvetica,sans-Serif" font-size="10.00">Ogre::GLSLShader</text>
</a>
</g>
</g>
<!-- Node1&#45;&gt;Node7 -->
<g id="edge6" class="edge">
<title>Node1&#45;&gt;Node7</title>
<path fill="none" stroke="midnightblue" d="M559.33,-109.61C585.78,-115.01 616.86,-121.36 641.9,-126.48"/>
<polygon fill="midnightblue" stroke="midnightblue" points="559.93,-106.16 549.44,-107.59 558.53,-113.02 559.93,-106.16"/>
</g>
<!-- Node8 -->
<g id="node8" class="node">
<title>Node8</title>
<g id="a_node8"><a xlink:href="class_ogre_1_1_metal_program.html" target="_top" xlink:title="Specialisation of HighLevelGpuProgram to provide support for Metal Shader Language.">
<polygon fill="none" stroke="black" points="632,-88.5 632,-107.5 747,-107.5 747,-88.5 632,-88.5"/>
<text text-anchor="middle" x="689.5" y="-95.5" font-family="Helvetica,sans-Serif" font-size="10.00">Ogre::MetalProgram</text>
</a>
</g>
</g>
<!-- Node1&#45;&gt;Node8 -->
<g id="edge7" class="edge">
<title>Node1&#45;&gt;Node8</title>
<path fill="none" stroke="midnightblue" d="M589.62,-98C603.96,-98 618.49,-98 631.84,-98"/>
<polygon fill="midnightblue" stroke="midnightblue" points="589.23,-94.5 579.23,-98 589.23,-101.5 589.23,-94.5"/>
</g>
<!-- Node9 -->
<g id="node9" class="node">
<title>Node9</title>
<g id="a_node9"><a xlink:href="class_ogre_1_1_unified_high_level_gpu_program.html" target="_top" xlink:title="Specialisation of HighLevelGpuProgram which just delegates its implementation to one other high level...">
<polygon fill="none" stroke="black" points="615,-39 615,-69 764,-69 764,-39 615,-39"/>
<text text-anchor="start" x="623" y="-57" font-family="Helvetica,sans-Serif" font-size="10.00">Ogre::UnifiedHighLevelGpu</text>
<text text-anchor="middle" x="689.5" y="-46" font-family="Helvetica,sans-Serif" font-size="10.00">Program</text>
</a>
</g>
</g>
<!-- Node1&#45;&gt;Node9 -->
<g id="edge8" class="edge">
<title>Node1&#45;&gt;Node9</title>
<path fill="none" stroke="midnightblue" d="M552.74,-86.12C574.93,-80.87 601.27,-74.64 624.81,-69.07"/>
<polygon fill="midnightblue" stroke="midnightblue" points="551.78,-82.74 542.86,-88.45 553.4,-89.56 551.78,-82.74"/>
</g>
<!-- Node10 -->
<g id="node10" class="node">
<title>Node10</title>
<g id="a_node10"><a xlink:href="class_ogre_1_1_vulkan_program.html" target="_top" xlink:title="Specialisation of HighLevelGpuProgram to provide support for Vulkan Shader Language.">
<polygon fill="none" stroke="black" points="630,-0.5 630,-19.5 749,-19.5 749,-0.5 630,-0.5"/>
<text text-anchor="middle" x="689.5" y="-7.5" font-family="Helvetica,sans-Serif" font-size="10.00">Ogre::VulkanProgram</text>
</a>
</g>
</g>
<!-- Node1&#45;&gt;Node10 -->
<g id="edge9" class="edge">
<title>Node1&#45;&gt;Node10</title>
<path fill="none" stroke="midnightblue" d="M523.52,-82.46C545.37,-66.95 581.08,-43.4 615,-29 623.73,-25.29 633.37,-22.17 642.71,-19.59"/>
<polygon fill="midnightblue" stroke="midnightblue" points="521.38,-79.68 515.31,-88.37 525.47,-85.36 521.38,-79.68"/>
</g>
<!-- Node2 -->
<g id="node2" class="node">
<title>Node2</title>
<g id="a_node2"><a xlink:href="class_ogre_1_1_gpu_program.html" target="_top" xlink:title="Defines a program which runs on the GPU such as a vertex or fragment program.">
<polygon fill="none" stroke="black" points="281,-88.5 281,-107.5 388,-107.5 388,-88.5 281,-88.5"/>
<text text-anchor="middle" x="334.5" y="-95.5" font-family="Helvetica,sans-Serif" font-size="10.00">Ogre::GpuProgram</text>
</a>
</g>
</g>
<!-- Node2&#45;&gt;Node1 -->
<g id="edge1" class="edge">
<title>Node2&#45;&gt;Node1</title>
<path fill="none" stroke="midnightblue" d="M398.25,-98C406.66,-98 415.37,-98 423.98,-98"/>
<polygon fill="midnightblue" stroke="midnightblue" points="398.16,-94.5 388.16,-98 398.16,-101.5 398.16,-94.5"/>
</g>
<!-- Node3 -->
<g id="node3" class="node">
<title>Node3</title>
<g id="a_node3"><a xlink:href="class_ogre_1_1_resource.html" target="_top" xlink:title="Abstract class representing a loadable resource (e.g.">
<polygon fill="none" stroke="black" points="154,-88.5 154,-107.5 245,-107.5 245,-88.5 154,-88.5"/>
<text text-anchor="middle" x="199.5" y="-95.5" font-family="Helvetica,sans-Serif" font-size="10.00">Ogre::Resource</text>
</a>
</g>
</g>
<!-- Node3&#45;&gt;Node2 -->
<g id="edge2" class="edge">
<title>Node3&#45;&gt;Node2</title>
<path fill="none" stroke="midnightblue" d="M255.31,-98C263.77,-98 272.49,-98 280.91,-98"/>
<polygon fill="midnightblue" stroke="midnightblue" points="255.16,-94.5 245.16,-98 255.16,-101.5 255.16,-94.5"/>
</g>
<!-- Node4 -->
<g id="node4" class="node">
<title>Node4</title>
<g id="a_node4"><a xlink:href="class_ogre_1_1_string_interface.html" target="_top" xlink:title="Class defining the common interface which classes can use to present a reflection&#45;style,...">
<polygon fill="none" stroke="black" points="0,-107.5 0,-126.5 118,-126.5 118,-107.5 0,-107.5"/>
<text text-anchor="middle" x="59" y="-114.5" font-family="Helvetica,sans-Serif" font-size="10.00">Ogre::StringInterface</text>
</a>
</g>
</g>
<!-- Node4&#45;&gt;Node3 -->
<g id="edge3" class="edge">
<title>Node4&#45;&gt;Node3</title>
<path fill="none" stroke="midnightblue" d="M128.39,-107.62C136.98,-106.44 145.6,-105.26 153.7,-104.15"/>
<polygon fill="midnightblue" stroke="midnightblue" points="127.77,-104.17 118.34,-109 128.72,-111.11 127.77,-104.17"/>
</g>
<!-- Node5 -->
<g id="node5" class="node">
<title>Node5</title>
<g id="a_node5"><a xlink:title=" ">
<polygon fill="none" stroke="#bfbfbf" points="8,-69.5 8,-88.5 110,-88.5 110,-69.5 8,-69.5"/>
<text text-anchor="middle" x="59" y="-76.5" font-family="Helvetica,sans-Serif" font-size="10.00">OgreAllocatedObj</text>
</a>
</g>
</g>
<!-- Node5&#45;&gt;Node3 -->
<g id="edge4" class="edge">
<title>Node5&#45;&gt;Node3</title>
<path fill="none" stroke="midnightblue" d="M120.19,-87.26C131.41,-88.8 142.96,-90.38 153.63,-91.84"/>
<polygon fill="midnightblue" stroke="midnightblue" points="120.38,-83.75 110,-85.86 119.43,-90.69 120.38,-83.75"/>
</g>
</g>
</svg>
