<?xml version="1.0" encoding="UTF-8" standalone="no"?>
<!DOCTYPE svg PUBLIC "-//W3C//DTD SVG 1.1//EN"
 "http://www.w3.org/Graphics/SVG/1.1/DTD/svg11.dtd">
<!-- Generated by graphviz version 2.43.0 (0)
 -->
<!-- Title: Ogre::GLSLESProgramManagerCommon Pages: 1 -->
<svg width="374pt" height="104pt"
 viewBox="0.00 0.00 374.00 104.00" xmlns="http://www.w3.org/2000/svg" xmlns:xlink="http://www.w3.org/1999/xlink">
<g id="graph0" class="graph" transform="scale(1 1) rotate(0) translate(4 100)">
<title>Ogre::GLSLESProgramManagerCommon</title>
<!-- Node1 -->
<g id="Node000001" class="node">
<title>Node1</title>
<g id="a_Node000001"><a xlink:title="Ogre assumes that there are separate programs to deal with but GLSL ES has one program object that re...">
<polygon fill="#999999" stroke="#666666" points="272,-96 106,-96 106,-66 272,-66 272,-96"/>
<text text-anchor="start" x="114" y="-84" font-family="Helvetica,sans-Serif" font-size="10.00">Ogre::GLSLESProgramManager</text>
<text text-anchor="middle" x="189" y="-73" font-family="Helvetica,sans-Serif" font-size="10.00">Common</text>
</a>
</g>
</g>
<!-- Node2 -->
<g id="Node000002" class="node">
<title>Node2</title>
<g id="a_Node000002"><a xlink:href="class_ogre_1_1_g_l_s_l_e_s_link_program_manager.html" target="_top" xlink:title="Ogre assumes that there are separate vertex and fragment programs to deal with but GLSL ES has one pr...">
<polygon fill="white" stroke="#666666" points="186,-24.5 0,-24.5 0,-5.5 186,-5.5 186,-24.5"/>
<text text-anchor="middle" x="93" y="-12.5" font-family="Helvetica,sans-Serif" font-size="10.00">Ogre::GLSLESLinkProgramManager</text>
</a>
</g>
</g>
<!-- Node1&#45;&gt;Node2 -->
<g id="edge1_Node000001_Node000002" class="edge">
<title>Node1&#45;&gt;Node2</title>
<g id="a_edge1_Node000001_Node000002"><a xlink:title=" ">
<path fill="none" stroke="#63b8ff" d="M159.3,-60.2C141.43,-48.29 119.6,-33.73 105.99,-24.66"/>
<polygon fill="#63b8ff" stroke="#63b8ff" points="157.43,-63.16 167.69,-65.8 161.32,-57.34 157.43,-63.16"/>
</a>
</g>
</g>
<!-- Node3 -->
<g id="Node000003" class="node">
<title>Node3</title>
<g id="a_Node000003"><a xlink:href="class_ogre_1_1_g_l_s_l_e_s_program_pipeline_manager.html" target="_top" xlink:title="Ogre assumes that there are separate vertex and fragment programs to deal with but GLSL ES has one pr...">
<polygon fill="white" stroke="#666666" points="366,-30 204,-30 204,0 366,0 366,-30"/>
<text text-anchor="start" x="212" y="-18" font-family="Helvetica,sans-Serif" font-size="10.00">Ogre::GLSLESProgramPipeline</text>
<text text-anchor="middle" x="285" y="-7" font-family="Helvetica,sans-Serif" font-size="10.00">Manager</text>
</a>
</g>
</g>
<!-- Node1&#45;&gt;Node3 -->
<g id="edge2_Node000001_Node000003" class="edge">
<title>Node1&#45;&gt;Node3</title>
<g id="a_edge2_Node000001_Node000003"><a xlink:title=" ">
<path fill="none" stroke="#63b8ff" d="M218.96,-60.03C233.49,-50.34 250.59,-38.94 263.75,-30.16"/>
<polygon fill="#63b8ff" stroke="#63b8ff" points="216.68,-57.34 210.31,-65.8 220.57,-63.16 216.68,-57.34"/>
</a>
</g>
</g>
</g>
</svg>
