<?xml version="1.0" encoding="UTF-8" standalone="no"?>
<!DOCTYPE svg PUBLIC "-//W3C//DTD SVG 1.1//EN"
 "http://www.w3.org/Graphics/SVG/1.1/DTD/svg11.dtd">
<!-- Generated by graphviz version 2.43.0 (0)
 -->
<!-- Title: Ogre::FrameListener Pages: 1 -->
<svg width="294pt" height="93pt"
 viewBox="0.00 0.00 294.00 93.00" xmlns="http://www.w3.org/2000/svg" xmlns:xlink="http://www.w3.org/1999/xlink">
<g id="graph0" class="graph" transform="scale(1 1) rotate(0) translate(4 89)">
<title>Ogre::FrameListener</title>
<!-- Node1 -->
<g id="Node000001" class="node">
<title>Node1</title>
<g id="a_Node000001"><a xlink:title="A interface class defining a listener which can be used to receive notifications of frame events.">
<polygon fill="#999999" stroke="#666666" points="208.5,-85 92.5,-85 92.5,-66 208.5,-66 208.5,-85"/>
<text text-anchor="middle" x="150.5" y="-73" font-family="Helvetica,sans-Serif" font-size="10.00">Ogre::FrameListener</text>
</a>
</g>
</g>
<!-- Node2 -->
<g id="Node000002" class="node">
<title>Node2</title>
<g id="a_Node000002"><a xlink:href="class_ogre_1_1_frame_time_controller_value.html" target="_top" xlink:title="Predefined controller value for getting the latest frame time.">
<polygon fill="white" stroke="#666666" points="149,-30 0,-30 0,0 149,0 149,-30"/>
<text text-anchor="start" x="8" y="-18" font-family="Helvetica,sans-Serif" font-size="10.00">Ogre::FrameTimeController</text>
<text text-anchor="middle" x="74.5" y="-7" font-family="Helvetica,sans-Serif" font-size="10.00">Value</text>
</a>
</g>
</g>
<!-- Node1&#45;&gt;Node2 -->
<g id="edge1_Node000001_Node000002" class="edge">
<title>Node1&#45;&gt;Node2</title>
<g id="a_edge1_Node000001_Node000002"><a xlink:title=" ">
<path fill="none" stroke="#63b8ff" d="M131.36,-59.77C119.55,-50.68 104.49,-39.09 92.84,-30.11"/>
<polygon fill="#63b8ff" stroke="#63b8ff" points="129.23,-62.54 139.29,-65.87 133.5,-56.99 129.23,-62.54"/>
</a>
</g>
</g>
<!-- Node3 -->
<g id="Node000003" class="node">
<title>Node3</title>
<g id="a_Node000003"><a xlink:href="class_ogre_1_1_volume_1_1_chunk.html" target="_top" xlink:title="A single volume chunk mesh.">
<polygon fill="white" stroke="#666666" points="286,-24.5 167,-24.5 167,-5.5 286,-5.5 286,-24.5"/>
<text text-anchor="middle" x="226.5" y="-12.5" font-family="Helvetica,sans-Serif" font-size="10.00">Ogre::Volume::Chunk</text>
</a>
</g>
</g>
<!-- Node1&#45;&gt;Node3 -->
<g id="edge2_Node000001_Node000003" class="edge">
<title>Node1&#45;&gt;Node3</title>
<g id="a_edge2_Node000001_Node000003"><a xlink:title=" ">
<path fill="none" stroke="#63b8ff" d="M169.94,-59.54C184.29,-48.49 203.32,-33.84 215.24,-24.67"/>
<polygon fill="#63b8ff" stroke="#63b8ff" points="167.5,-56.99 161.71,-65.87 171.77,-62.54 167.5,-56.99"/>
</a>
</g>
</g>
</g>
</svg>
