<?xml version="1.0" encoding="UTF-8" standalone="no"?>
<!DOCTYPE svg PUBLIC "-//W3C//DTD SVG 1.1//EN"
 "http://www.w3.org/Graphics/SVG/1.1/DTD/svg11.dtd">
<!-- Generated by graphviz version 2.43.0 (0)
 -->
<!-- Title: Ogre::UavBufferPacked Pages: 1 -->
<svg width="667pt" height="180pt"
 viewBox="0.00 0.00 667.00 180.00" xmlns="http://www.w3.org/2000/svg" xmlns:xlink="http://www.w3.org/1999/xlink">
<g id="graph0" class="graph" transform="scale(1 1) rotate(0) translate(4 176)">
<title>Ogre::UavBufferPacked</title>
<!-- Node1 -->
<g id="node1" class="node">
<title>Node1</title>
<g id="a_node1"><a xlink:title="Represents UAV buffers (also known as SSBOs in OpenGL) Uav buffers are supported in DX10/DX10....">
<polygon fill="#bfbfbf" stroke="black" points="328,-76.5 328,-95.5 456,-95.5 456,-76.5 328,-76.5"/>
<text text-anchor="middle" x="392" y="-83.5" font-family="Helvetica,sans-Serif" font-size="10.00">Ogre::UavBufferPacked</text>
</a>
</g>
</g>
<!-- Node5 -->
<g id="node5" class="node">
<title>Node5</title>
<g id="a_node5"><a xlink:href="class_ogre_1_1_d3_d11_uav_buffer_packed.html" target="_top" xlink:title=" ">
<polygon fill="none" stroke="black" points="495,-152.5 495,-171.5 656,-171.5 656,-152.5 495,-152.5"/>
<text text-anchor="middle" x="575.5" y="-159.5" font-family="Helvetica,sans-Serif" font-size="10.00">Ogre::D3D11UavBufferPacked</text>
</a>
</g>
</g>
<!-- Node1&#45;&gt;Node5 -->
<g id="edge4" class="edge">
<title>Node1&#45;&gt;Node5</title>
<path fill="none" stroke="midnightblue" d="M415.21,-101.36C434.66,-114.17 464.11,-132.04 492,-143 501.58,-146.76 512.08,-149.89 522.3,-152.44"/>
<polygon fill="midnightblue" stroke="midnightblue" points="417.02,-98.35 406.76,-95.7 413.12,-104.17 417.02,-98.35"/>
</g>
<!-- Node6 -->
<g id="node6" class="node">
<title>Node6</title>
<g id="a_node6"><a xlink:href="class_ogre_1_1_g_l3_plus_uav_buffer_packed.html" target="_top" xlink:title=" ">
<polygon fill="none" stroke="black" points="492,-114.5 492,-133.5 659,-133.5 659,-114.5 492,-114.5"/>
<text text-anchor="middle" x="575.5" y="-121.5" font-family="Helvetica,sans-Serif" font-size="10.00">Ogre::GL3PlusUavBufferPacked</text>
</a>
</g>
</g>
<!-- Node1&#45;&gt;Node6 -->
<g id="edge5" class="edge">
<title>Node1&#45;&gt;Node6</title>
<path fill="none" stroke="midnightblue" d="M448.79,-97.68C474.53,-103.07 504.7,-109.39 529.03,-114.48"/>
<polygon fill="midnightblue" stroke="midnightblue" points="449.31,-94.21 438.8,-95.59 447.87,-101.06 449.31,-94.21"/>
</g>
<!-- Node7 -->
<g id="node7" class="node">
<title>Node7</title>
<g id="a_node7"><a xlink:href="class_ogre_1_1_metal_uav_buffer_packed.html" target="_top" xlink:title=" ">
<polygon fill="none" stroke="black" points="497.5,-76.5 497.5,-95.5 653.5,-95.5 653.5,-76.5 497.5,-76.5"/>
<text text-anchor="middle" x="575.5" y="-83.5" font-family="Helvetica,sans-Serif" font-size="10.00">Ogre::MetalUavBufferPacked</text>
</a>
</g>
</g>
<!-- Node1&#45;&gt;Node7 -->
<g id="edge6" class="edge">
<title>Node1&#45;&gt;Node7</title>
<path fill="none" stroke="midnightblue" d="M466.34,-86C476.58,-86 487.13,-86 497.44,-86"/>
<polygon fill="midnightblue" stroke="midnightblue" points="466.23,-82.5 456.23,-86 466.23,-89.5 466.23,-82.5"/>
</g>
<!-- Node8 -->
<g id="node8" class="node">
<title>Node8</title>
<g id="a_node8"><a xlink:href="class_ogre_1_1_n_u_l_l_uav_buffer_packed.html" target="_top" xlink:title=" ">
<polygon fill="none" stroke="black" points="498.5,-38.5 498.5,-57.5 652.5,-57.5 652.5,-38.5 498.5,-38.5"/>
<text text-anchor="middle" x="575.5" y="-45.5" font-family="Helvetica,sans-Serif" font-size="10.00">Ogre::NULLUavBufferPacked</text>
</a>
</g>
</g>
<!-- Node1&#45;&gt;Node8 -->
<g id="edge7" class="edge">
<title>Node1&#45;&gt;Node8</title>
<path fill="none" stroke="midnightblue" d="M448.79,-74.32C474.53,-68.93 504.7,-62.61 529.03,-57.52"/>
<polygon fill="midnightblue" stroke="midnightblue" points="447.87,-70.94 438.8,-76.41 449.31,-77.79 447.87,-70.94"/>
</g>
<!-- Node9 -->
<g id="node9" class="node">
<title>Node9</title>
<g id="a_node9"><a xlink:href="class_ogre_1_1_vulkan_uav_buffer_packed.html" target="_top" xlink:title=" ">
<polygon fill="none" stroke="black" points="495,-0.5 495,-19.5 656,-19.5 656,-0.5 495,-0.5"/>
<text text-anchor="middle" x="575.5" y="-7.5" font-family="Helvetica,sans-Serif" font-size="10.00">Ogre::VulkanUavBufferPacked</text>
</a>
</g>
</g>
<!-- Node1&#45;&gt;Node9 -->
<g id="edge8" class="edge">
<title>Node1&#45;&gt;Node9</title>
<path fill="none" stroke="midnightblue" d="M415.21,-70.64C434.66,-57.83 464.11,-39.96 492,-29 501.58,-25.24 512.08,-22.11 522.3,-19.56"/>
<polygon fill="midnightblue" stroke="midnightblue" points="413.12,-67.83 406.76,-76.3 417.02,-73.65 413.12,-67.83"/>
</g>
<!-- Node2 -->
<g id="node2" class="node">
<title>Node2</title>
<g id="a_node2"><a xlink:href="class_ogre_1_1_buffer_packed.html" target="_top" xlink:title=" ">
<polygon fill="none" stroke="black" points="183,-76.5 183,-95.5 292,-95.5 292,-76.5 183,-76.5"/>
<text text-anchor="middle" x="237.5" y="-83.5" font-family="Helvetica,sans-Serif" font-size="10.00">Ogre::BufferPacked</text>
</a>
</g>
</g>
<!-- Node2&#45;&gt;Node1 -->
<g id="edge1" class="edge">
<title>Node2&#45;&gt;Node1</title>
<path fill="none" stroke="midnightblue" d="M302.39,-86C310.8,-86 319.41,-86 327.8,-86"/>
<polygon fill="midnightblue" stroke="midnightblue" points="302.27,-82.5 292.27,-86 302.27,-89.5 302.27,-82.5"/>
</g>
<!-- Node3 -->
<g id="node3" class="node">
<title>Node3</title>
<g id="a_node3"><a xlink:href="struct_ogre_1_1_gpu_tracked_resource.html" target="_top" xlink:title=" ">
<polygon fill="none" stroke="black" points="0,-95.5 0,-114.5 147,-114.5 147,-95.5 0,-95.5"/>
<text text-anchor="middle" x="73.5" y="-102.5" font-family="Helvetica,sans-Serif" font-size="10.00">Ogre::GpuTrackedResource</text>
</a>
</g>
</g>
<!-- Node3&#45;&gt;Node2 -->
<g id="edge2" class="edge">
<title>Node3&#45;&gt;Node2</title>
<path fill="none" stroke="midnightblue" d="M157.54,-95.26C166.15,-94.25 174.72,-93.25 182.88,-92.29"/>
<polygon fill="midnightblue" stroke="midnightblue" points="156.97,-91.8 147.44,-96.44 157.78,-98.76 156.97,-91.8"/>
</g>
<!-- Node4 -->
<g id="node4" class="node">
<title>Node4</title>
<g id="a_node4"><a xlink:title=" ">
<polygon fill="none" stroke="#bfbfbf" points="22.5,-57.5 22.5,-76.5 124.5,-76.5 124.5,-57.5 22.5,-57.5"/>
<text text-anchor="middle" x="73.5" y="-64.5" font-family="Helvetica,sans-Serif" font-size="10.00">OgreAllocatedObj</text>
</a>
</g>
</g>
<!-- Node4&#45;&gt;Node2 -->
<g id="edge3" class="edge">
<title>Node4&#45;&gt;Node2</title>
<path fill="none" stroke="midnightblue" d="M135,-74.1C150.69,-75.94 167.48,-77.9 182.79,-79.7"/>
<polygon fill="midnightblue" stroke="midnightblue" points="135.21,-70.6 124.87,-72.91 134.39,-77.55 135.21,-70.6"/>
</g>
</g>
</svg>
