<?xml version="1.0" encoding="UTF-8" standalone="no"?>
<!DOCTYPE svg PUBLIC "-//W3C//DTD SVG 1.1//EN"
 "http://www.w3.org/Graphics/SVG/1.1/DTD/svg11.dtd">
<!-- Generated by graphviz version 2.43.0 (0)
 -->
<!-- Title: Ogre::TextureGpu Pages: 1 -->
<svg width="1038pt" height="251pt"
 viewBox="0.00 0.00 1038.00 250.50" xmlns="http://www.w3.org/2000/svg" xmlns:xlink="http://www.w3.org/1999/xlink">
<g id="graph0" class="graph" transform="scale(1 1) rotate(0) translate(4 246.5)">
<title>Ogre::TextureGpu</title>
<!-- Node1 -->
<g id="node1" class="node">
<title>Node1</title>
<g id="a_node1"><a xlink:title=" ">
<polygon fill="#bfbfbf" stroke="black" points="321,-104 321,-123 422,-123 422,-104 321,-104"/>
<text text-anchor="middle" x="371.5" y="-111" font-family="Helvetica,sans-Serif" font-size="10.00">Ogre::TextureGpu</text>
</a>
</g>
</g>
<!-- Node5 -->
<g id="node5" class="node">
<title>Node5</title>
<g id="a_node5"><a xlink:href="class_ogre_1_1_d3_d11_texture_gpu.html" target="_top" xlink:title=" ">
<polygon fill="none" stroke="black" points="461,-200 461,-219 595,-219 595,-200 461,-200"/>
<text text-anchor="middle" x="528" y="-207" font-family="Helvetica,sans-Serif" font-size="10.00">Ogre::D3D11TextureGpu</text>
</a>
</g>
</g>
<!-- Node1&#45;&gt;Node5 -->
<g id="edge4" class="edge">
<title>Node1&#45;&gt;Node5</title>
<path fill="none" stroke="midnightblue" d="M392.55,-129.54C409.47,-142.7 434.6,-161.39 458,-175.5 473.32,-184.74 491.51,-193.62 505.37,-199.99"/>
<polygon fill="midnightblue" stroke="midnightblue" points="394.53,-126.64 384.51,-123.22 390.21,-132.15 394.53,-126.64"/>
</g>
<!-- Node8 -->
<g id="node8" class="node">
<title>Node8</title>
<g id="a_node8"><a xlink:href="class_ogre_1_1_g_l3_plus_texture_gpu.html" target="_top" xlink:title=" ">
<polygon fill="none" stroke="black" points="458,-147 458,-166 598,-166 598,-147 458,-147"/>
<text text-anchor="middle" x="528" y="-154" font-family="Helvetica,sans-Serif" font-size="10.00">Ogre::GL3PlusTextureGpu</text>
</a>
</g>
</g>
<!-- Node1&#45;&gt;Node8 -->
<g id="edge7" class="edge">
<title>Node1&#45;&gt;Node8</title>
<path fill="none" stroke="midnightblue" d="M416.46,-125.74C440.69,-132.48 470.32,-140.73 492.81,-146.98"/>
<polygon fill="midnightblue" stroke="midnightblue" points="417.36,-122.35 406.79,-123.04 415.48,-129.1 417.36,-122.35"/>
</g>
<!-- Node12 -->
<g id="node12" class="node">
<title>Node12</title>
<g id="a_node12"><a xlink:href="class_ogre_1_1_metal_texture_gpu.html" target="_top" xlink:title=" ">
<polygon fill="none" stroke="black" points="463.5,-104 463.5,-123 592.5,-123 592.5,-104 463.5,-104"/>
<text text-anchor="middle" x="528" y="-111" font-family="Helvetica,sans-Serif" font-size="10.00">Ogre::MetalTextureGpu</text>
</a>
</g>
</g>
<!-- Node1&#45;&gt;Node12 -->
<g id="edge11" class="edge">
<title>Node1&#45;&gt;Node12</title>
<path fill="none" stroke="midnightblue" d="M432.54,-113.5C442.61,-113.5 453.08,-113.5 463.23,-113.5"/>
<polygon fill="midnightblue" stroke="midnightblue" points="432.24,-110 422.24,-113.5 432.24,-117 432.24,-110"/>
</g>
<!-- Node15 -->
<g id="node15" class="node">
<title>Node15</title>
<g id="a_node15"><a xlink:href="class_ogre_1_1_n_u_l_l_texture_gpu.html" target="_top" xlink:title=" ">
<polygon fill="none" stroke="black" points="465,-60 465,-79 591,-79 591,-60 465,-60"/>
<text text-anchor="middle" x="528" y="-67" font-family="Helvetica,sans-Serif" font-size="10.00">Ogre::NULLTextureGpu</text>
</a>
</g>
</g>
<!-- Node1&#45;&gt;Node15 -->
<g id="edge14" class="edge">
<title>Node1&#45;&gt;Node15</title>
<path fill="none" stroke="midnightblue" d="M415.83,-101.16C440.44,-94.15 470.78,-85.51 493.54,-79.03"/>
<polygon fill="midnightblue" stroke="midnightblue" points="414.68,-97.85 406.02,-103.95 416.6,-104.58 414.68,-97.85"/>
</g>
<!-- Node17 -->
<g id="node17" class="node">
<title>Node17</title>
<g id="a_node17"><a xlink:href="class_ogre_1_1_vulkan_texture_gpu.html" target="_top" xlink:title=" ">
<polygon fill="none" stroke="black" points="461,-17 461,-36 595,-36 595,-17 461,-17"/>
<text text-anchor="middle" x="528" y="-24" font-family="Helvetica,sans-Serif" font-size="10.00">Ogre::VulkanTextureGpu</text>
</a>
</g>
</g>
<!-- Node1&#45;&gt;Node17 -->
<g id="edge16" class="edge">
<title>Node1&#45;&gt;Node17</title>
<path fill="none" stroke="midnightblue" d="M391.23,-97.11C407.85,-83.21 433.27,-63.53 458,-50.5 469,-44.71 481.69,-39.83 493.16,-36.02"/>
<polygon fill="midnightblue" stroke="midnightblue" points="388.74,-94.63 383.39,-103.78 393.27,-99.96 388.74,-94.63"/>
</g>
<!-- Node2 -->
<g id="node2" class="node">
<title>Node2</title>
<g id="a_node2"><a xlink:href="struct_ogre_1_1_gpu_tracked_resource.html" target="_top" xlink:title=" ">
<polygon fill="none" stroke="black" points="138,-123 138,-142 285,-142 285,-123 138,-123"/>
<text text-anchor="middle" x="211.5" y="-130" font-family="Helvetica,sans-Serif" font-size="10.00">Ogre::GpuTrackedResource</text>
</a>
</g>
</g>
<!-- Node2&#45;&gt;Node1 -->
<g id="edge1" class="edge">
<title>Node2&#45;&gt;Node1</title>
<path fill="none" stroke="midnightblue" d="M295.03,-122.58C303.89,-121.51 312.69,-120.45 320.99,-119.45"/>
<polygon fill="midnightblue" stroke="midnightblue" points="294.54,-119.11 285.03,-123.78 295.37,-126.06 294.54,-119.11"/>
</g>
<!-- Node3 -->
<g id="node3" class="node">
<title>Node3</title>
<g id="a_node3"><a xlink:href="class_ogre_1_1_gpu_resource.html" target="_top" xlink:title=" ">
<polygon fill="none" stroke="black" points="156.5,-85 156.5,-104 266.5,-104 266.5,-85 156.5,-85"/>
<text text-anchor="middle" x="211.5" y="-92" font-family="Helvetica,sans-Serif" font-size="10.00">Ogre::GpuResource</text>
</a>
</g>
</g>
<!-- Node3&#45;&gt;Node1 -->
<g id="edge2" class="edge">
<title>Node3&#45;&gt;Node1</title>
<path fill="none" stroke="midnightblue" d="M276.88,-102.24C291.53,-104 306.87,-105.85 320.8,-107.52"/>
<polygon fill="midnightblue" stroke="midnightblue" points="277.22,-98.76 266.87,-101.04 276.39,-105.71 277.22,-98.76"/>
</g>
<!-- Node4 -->
<g id="node4" class="node">
<title>Node4</title>
<g id="a_node4"><a xlink:title=" ">
<polygon fill="none" stroke="#bfbfbf" points="0,-85 0,-104 102,-104 102,-85 0,-85"/>
<text text-anchor="middle" x="51" y="-92" font-family="Helvetica,sans-Serif" font-size="10.00">OgreAllocatedObj</text>
</a>
</g>
</g>
<!-- Node4&#45;&gt;Node3 -->
<g id="edge3" class="edge">
<title>Node4&#45;&gt;Node3</title>
<path fill="none" stroke="midnightblue" d="M112.46,-94.5C126.88,-94.5 142.17,-94.5 156.29,-94.5"/>
<polygon fill="midnightblue" stroke="midnightblue" points="112.15,-91 102.15,-94.5 112.15,-98 112.15,-91"/>
</g>
<!-- Node6 -->
<g id="node6" class="node">
<title>Node6</title>
<g id="a_node6"><a xlink:href="class_ogre_1_1_d3_d11_texture_gpu_render_target.html" target="_top" xlink:title=" ">
<polygon fill="none" stroke="black" points="637,-210.5 637,-240.5 806,-240.5 806,-210.5 637,-210.5"/>
<text text-anchor="start" x="645" y="-228.5" font-family="Helvetica,sans-Serif" font-size="10.00">Ogre::D3D11TextureGpuRender</text>
<text text-anchor="middle" x="721.5" y="-217.5" font-family="Helvetica,sans-Serif" font-size="10.00">Target</text>
</a>
</g>
</g>
<!-- Node5&#45;&gt;Node6 -->
<g id="edge5" class="edge">
<title>Node5&#45;&gt;Node6</title>
<path fill="none" stroke="midnightblue" d="M605.37,-215.88C615.69,-216.74 626.32,-217.63 636.76,-218.5"/>
<polygon fill="midnightblue" stroke="midnightblue" points="605.43,-212.37 595.17,-215.03 604.85,-219.35 605.43,-212.37"/>
</g>
<!-- Node7 -->
<g id="node7" class="node">
<title>Node7</title>
<g id="a_node7"><a xlink:href="class_ogre_1_1_d3_d11_texture_gpu_window.html" target="_top" xlink:title=" ">
<polygon fill="none" stroke="black" points="851,-223 851,-242 1024,-242 1024,-223 851,-223"/>
<text text-anchor="middle" x="937.5" y="-230" font-family="Helvetica,sans-Serif" font-size="10.00">Ogre::D3D11TextureGpuWindow</text>
</a>
</g>
</g>
<!-- Node6&#45;&gt;Node7 -->
<g id="edge6" class="edge">
<title>Node6&#45;&gt;Node7</title>
<path fill="none" stroke="midnightblue" d="M816.2,-228.56C827.7,-228.94 839.41,-229.32 850.79,-229.7"/>
<polygon fill="midnightblue" stroke="midnightblue" points="816.27,-225.07 806.16,-228.24 816.04,-232.06 816.27,-225.07"/>
</g>
<!-- Node9 -->
<g id="node9" class="node">
<title>Node9</title>
<g id="a_node9"><a xlink:href="class_ogre_1_1_g_l3_plus_texture_gpu_render_target.html" target="_top" xlink:title=" ">
<polygon fill="none" stroke="black" points="634,-147.5 634,-177.5 809,-177.5 809,-147.5 634,-147.5"/>
<text text-anchor="start" x="642" y="-165.5" font-family="Helvetica,sans-Serif" font-size="10.00">Ogre::GL3PlusTextureGpuRender</text>
<text text-anchor="middle" x="721.5" y="-154.5" font-family="Helvetica,sans-Serif" font-size="10.00">Target</text>
</a>
</g>
</g>
<!-- Node8&#45;&gt;Node9 -->
<g id="edge8" class="edge">
<title>Node8&#45;&gt;Node9</title>
<path fill="none" stroke="midnightblue" d="M608.29,-158.98C616.71,-159.25 625.29,-159.52 633.78,-159.78"/>
<polygon fill="midnightblue" stroke="midnightblue" points="608.24,-155.48 598.14,-158.67 608.02,-162.48 608.24,-155.48"/>
</g>
<!-- Node10 -->
<g id="node10" class="node">
<title>Node10</title>
<g id="a_node10"><a xlink:href="class_ogre_1_1_g_l3_plus_texture_gpu_headless_window.html" target="_top" xlink:title=" ">
<polygon fill="none" stroke="black" points="845,-173.5 845,-203.5 1030,-203.5 1030,-173.5 845,-173.5"/>
<text text-anchor="start" x="853" y="-191.5" font-family="Helvetica,sans-Serif" font-size="10.00">Ogre::GL3PlusTextureGpuHeadless</text>
<text text-anchor="middle" x="937.5" y="-180.5" font-family="Helvetica,sans-Serif" font-size="10.00">Window</text>
</a>
</g>
</g>
<!-- Node9&#45;&gt;Node10 -->
<g id="edge9" class="edge">
<title>Node9&#45;&gt;Node10</title>
<path fill="none" stroke="midnightblue" d="M819.17,-174.25C827.69,-175.28 836.29,-176.32 844.76,-177.35"/>
<polygon fill="midnightblue" stroke="midnightblue" points="819.58,-170.77 809.23,-173.04 818.74,-177.72 819.58,-170.77"/>
</g>
<!-- Node11 -->
<g id="node11" class="node">
<title>Node11</title>
<g id="a_node11"><a xlink:href="class_ogre_1_1_g_l3_plus_texture_gpu_window.html" target="_top" xlink:title=" ">
<polygon fill="none" stroke="black" points="848,-135 848,-154 1027,-154 1027,-135 848,-135"/>
<text text-anchor="middle" x="937.5" y="-142" font-family="Helvetica,sans-Serif" font-size="10.00">Ogre::GL3PlusTextureGpuWindow</text>
</a>
</g>
</g>
<!-- Node9&#45;&gt;Node11 -->
<g id="edge10" class="edge">
<title>Node9&#45;&gt;Node11</title>
<path fill="none" stroke="midnightblue" d="M819.46,-154.34C828.93,-153.55 838.52,-152.74 847.9,-151.95"/>
<polygon fill="midnightblue" stroke="midnightblue" points="818.9,-150.88 809.23,-155.2 819.49,-157.85 818.9,-150.88"/>
</g>
<!-- Node13 -->
<g id="node13" class="node">
<title>Node13</title>
<g id="a_node13"><a xlink:href="class_ogre_1_1_metal_texture_gpu_render_target.html" target="_top" xlink:title=" ">
<polygon fill="none" stroke="black" points="639.5,-98.5 639.5,-128.5 803.5,-128.5 803.5,-98.5 639.5,-98.5"/>
<text text-anchor="start" x="647.5" y="-116.5" font-family="Helvetica,sans-Serif" font-size="10.00">Ogre::MetalTextureGpuRender</text>
<text text-anchor="middle" x="721.5" y="-105.5" font-family="Helvetica,sans-Serif" font-size="10.00">Target</text>
</a>
</g>
</g>
<!-- Node12&#45;&gt;Node13 -->
<g id="edge12" class="edge">
<title>Node12&#45;&gt;Node13</title>
<path fill="none" stroke="midnightblue" d="M602.51,-113.5C614.6,-113.5 627.18,-113.5 639.44,-113.5"/>
<polygon fill="midnightblue" stroke="midnightblue" points="602.5,-110 592.5,-113.5 602.5,-117 602.5,-110"/>
</g>
<!-- Node14 -->
<g id="node14" class="node">
<title>Node14</title>
<g id="a_node14"><a xlink:href="class_ogre_1_1_metal_texture_gpu_window.html" target="_top" xlink:title=" ">
<polygon fill="none" stroke="black" points="853.5,-97 853.5,-116 1021.5,-116 1021.5,-97 853.5,-97"/>
<text text-anchor="middle" x="937.5" y="-104" font-family="Helvetica,sans-Serif" font-size="10.00">Ogre::MetalTextureGpuWindow</text>
</a>
</g>
</g>
<!-- Node13&#45;&gt;Node14 -->
<g id="edge13" class="edge">
<title>Node13&#45;&gt;Node14</title>
<path fill="none" stroke="midnightblue" d="M814.06,-110.51C827.06,-110.08 840.38,-109.64 853.21,-109.22"/>
<polygon fill="midnightblue" stroke="midnightblue" points="813.59,-107.02 803.71,-110.84 813.82,-114.01 813.59,-107.02"/>
</g>
<!-- Node16 -->
<g id="node16" class="node">
<title>Node16</title>
<g id="a_node16"><a xlink:href="class_ogre_1_1_n_u_l_l_texture_gpu_render_target.html" target="_top" xlink:title=" ">
<polygon fill="none" stroke="black" points="641,-49.5 641,-79.5 802,-79.5 802,-49.5 641,-49.5"/>
<text text-anchor="start" x="649" y="-67.5" font-family="Helvetica,sans-Serif" font-size="10.00">Ogre::NULLTextureGpuRender</text>
<text text-anchor="middle" x="721.5" y="-56.5" font-family="Helvetica,sans-Serif" font-size="10.00">Target</text>
</a>
</g>
</g>
<!-- Node15&#45;&gt;Node16 -->
<g id="edge15" class="edge">
<title>Node15&#45;&gt;Node16</title>
<path fill="none" stroke="midnightblue" d="M601.36,-67.61C614.25,-67.27 627.75,-66.92 640.83,-66.58"/>
<polygon fill="midnightblue" stroke="midnightblue" points="601.08,-64.12 591.17,-67.88 601.26,-71.11 601.08,-64.12"/>
</g>
<!-- Node18 -->
<g id="node18" class="node">
<title>Node18</title>
<g id="a_node18"><a xlink:href="class_ogre_1_1_vulkan_texture_gpu_render_target.html" target="_top" xlink:title=" ">
<polygon fill="none" stroke="black" points="637.5,-0.5 637.5,-30.5 805.5,-30.5 805.5,-0.5 637.5,-0.5"/>
<text text-anchor="start" x="645.5" y="-18.5" font-family="Helvetica,sans-Serif" font-size="10.00">Ogre::VulkanTextureGpuRender</text>
<text text-anchor="middle" x="721.5" y="-7.5" font-family="Helvetica,sans-Serif" font-size="10.00">Target</text>
</a>
</g>
</g>
<!-- Node17&#45;&gt;Node18 -->
<g id="edge17" class="edge">
<title>Node17&#45;&gt;Node18</title>
<path fill="none" stroke="midnightblue" d="M605.21,-22.12C615.8,-21.51 626.72,-20.89 637.43,-20.27"/>
<polygon fill="midnightblue" stroke="midnightblue" points="604.95,-18.63 595.17,-22.7 605.36,-25.62 604.95,-18.63"/>
</g>
<!-- Node19 -->
<g id="node19" class="node">
<title>Node19</title>
<g id="a_node19"><a xlink:href="class_ogre_1_1_vulkan_texture_gpu_window.html" target="_top" xlink:title=" ">
<polygon fill="none" stroke="black" points="851,-6 851,-25 1024,-25 1024,-6 851,-6"/>
<text text-anchor="middle" x="937.5" y="-13" font-family="Helvetica,sans-Serif" font-size="10.00">Ogre::VulkanTextureGpuWindow</text>
</a>
</g>
</g>
<!-- Node18&#45;&gt;Node19 -->
<g id="edge18" class="edge">
<title>Node18&#45;&gt;Node19</title>
<path fill="none" stroke="midnightblue" d="M815.69,-15.5C827.32,-15.5 839.17,-15.5 850.68,-15.5"/>
<polygon fill="midnightblue" stroke="midnightblue" points="815.54,-12 805.54,-15.5 815.54,-19 815.54,-12"/>
</g>
</g>
</svg>
