<?xml version="1.0" encoding="UTF-8" standalone="no"?>
<!DOCTYPE svg PUBLIC "-//W3C//DTD SVG 1.1//EN"
 "http://www.w3.org/Graphics/SVG/1.1/DTD/svg11.dtd">
<!-- Generated by graphviz version 2.43.0 (0)
 -->
<!-- Title: Ogre::VulkanWin32Window Pages: 1 -->
<svg width="179pt" height="258pt"
 viewBox="0.00 0.00 179.00 258.00" xmlns="http://www.w3.org/2000/svg" xmlns:xlink="http://www.w3.org/1999/xlink">
<g id="graph0" class="graph" transform="scale(1 1) rotate(0) translate(4 254)">
<title>Ogre::VulkanWin32Window</title>
<!-- Node1 -->
<g id="Node000001" class="node">
<title>Node1</title>
<g id="a_Node000001"><a xlink:title=" ">
<polygon fill="#999999" stroke="#666666" points="159.5,-19 11.5,-19 11.5,0 159.5,0 159.5,-19"/>
<text text-anchor="middle" x="85.5" y="-7" font-family="Helvetica,sans-Serif" font-size="10.00">Ogre::VulkanWin32Window</text>
</a>
</g>
</g>
<!-- Node2 -->
<g id="Node000002" class="node">
<title>Node2</title>
<g id="a_Node000002"><a xlink:href="class_ogre_1_1_vulkan_window_swap_chain_based.html" target="_top" xlink:title=" ">
<polygon fill="white" stroke="#666666" points="171,-85 0,-85 0,-55 171,-55 171,-85"/>
<text text-anchor="start" x="8" y="-73" font-family="Helvetica,sans-Serif" font-size="10.00">Ogre::VulkanWindowSwapChain</text>
<text text-anchor="middle" x="85.5" y="-62" font-family="Helvetica,sans-Serif" font-size="10.00">Based</text>
</a>
</g>
</g>
<!-- Node2&#45;&gt;Node1 -->
<g id="edge1_Node000001_Node000002" class="edge">
<title>Node2&#45;&gt;Node1</title>
<g id="a_edge1_Node000001_Node000002"><a xlink:title=" ">
<path fill="none" stroke="#63b8ff" d="M85.5,-44.75C85.5,-35.72 85.5,-26.03 85.5,-19.27"/>
<polygon fill="#63b8ff" stroke="#63b8ff" points="82,-44.84 85.5,-54.84 89,-44.84 82,-44.84"/>
</a>
</g>
</g>
<!-- Node3 -->
<g id="Node000003" class="node">
<title>Node3</title>
<g id="a_Node000003"><a xlink:href="class_ogre_1_1_vulkan_window.html" target="_top" xlink:title=" ">
<polygon fill="white" stroke="#666666" points="144,-140 27,-140 27,-121 144,-121 144,-140"/>
<text text-anchor="middle" x="85.5" y="-128" font-family="Helvetica,sans-Serif" font-size="10.00">Ogre::VulkanWindow</text>
</a>
</g>
</g>
<!-- Node3&#45;&gt;Node2 -->
<g id="edge2_Node000002_Node000003" class="edge">
<title>Node3&#45;&gt;Node2</title>
<g id="a_edge2_Node000002_Node000003"><a xlink:title=" ">
<path fill="none" stroke="#63b8ff" d="M85.5,-110.65C85.5,-102.36 85.5,-92.78 85.5,-85.11"/>
<polygon fill="#63b8ff" stroke="#63b8ff" points="82,-110.87 85.5,-120.87 89,-110.87 82,-110.87"/>
</a>
</g>
</g>
<!-- Node4 -->
<g id="Node000004" class="node">
<title>Node4</title>
<g id="a_Node000004"><a xlink:href="class_ogre_1_1_window.html" target="_top" xlink:title=" ">
<polygon fill="white" stroke="#666666" points="128,-195 43,-195 43,-176 128,-176 128,-195"/>
<text text-anchor="middle" x="85.5" y="-183" font-family="Helvetica,sans-Serif" font-size="10.00">Ogre::Window</text>
</a>
</g>
</g>
<!-- Node4&#45;&gt;Node3 -->
<g id="edge3_Node000003_Node000004" class="edge">
<title>Node4&#45;&gt;Node3</title>
<g id="a_edge3_Node000003_Node000004"><a xlink:title=" ">
<path fill="none" stroke="#63b8ff" d="M85.5,-165.66C85.5,-156.93 85.5,-146.99 85.5,-140.09"/>
<polygon fill="#63b8ff" stroke="#63b8ff" points="82,-165.75 85.5,-175.75 89,-165.75 82,-165.75"/>
</a>
</g>
</g>
<!-- Node5 -->
<g id="Node000005" class="node">
<title>Node5</title>
<g id="a_Node000005"><a xlink:title=" ">
<polygon fill="white" stroke="#666666" points="151,-250 20,-250 20,-231 151,-231 151,-250"/>
<text text-anchor="middle" x="85.5" y="-238" font-family="Helvetica,sans-Serif" font-size="10.00">Ogre::OgreAllocatedObj</text>
</a>
</g>
</g>
<!-- Node5&#45;&gt;Node4 -->
<g id="edge4_Node000004_Node000005" class="edge">
<title>Node5&#45;&gt;Node4</title>
<g id="a_edge4_Node000004_Node000005"><a xlink:title=" ">
<path fill="none" stroke="#63b8ff" d="M85.5,-220.66C85.5,-211.93 85.5,-201.99 85.5,-195.09"/>
<polygon fill="#63b8ff" stroke="#63b8ff" points="82,-220.75 85.5,-230.75 89,-220.75 82,-220.75"/>
</a>
</g>
</g>
</g>
</svg>
