<?xml version="1.0" encoding="UTF-8" standalone="no"?>
<!DOCTYPE svg PUBLIC "-//W3C//DTD SVG 1.1//EN"
 "http://www.w3.org/Graphics/SVG/1.1/DTD/svg11.dtd">
<!-- Generated by graphviz version 2.43.0 (0)
 -->
<!-- Title: Ogre::DefaultWorkQueueBase Pages: 1 -->
<svg width="170pt" height="196pt"
 viewBox="0.00 0.00 170.00 196.00" xmlns="http://www.w3.org/2000/svg" xmlns:xlink="http://www.w3.org/1999/xlink">
<g id="graph0" class="graph" transform="scale(1 1) rotate(0) translate(4 192)">
<title>Ogre::DefaultWorkQueueBase</title>
<!-- Node1 -->
<g id="node1" class="node">
<title>Node1</title>
<g id="a_node1"><a xlink:title="Base for a general purpose request / response style background work queue.">
<polygon fill="#bfbfbf" stroke="black" points="0,-56.5 0,-75.5 162,-75.5 162,-56.5 0,-56.5"/>
<text text-anchor="middle" x="81" y="-63.5" font-family="Helvetica,sans-Serif" font-size="10.00">Ogre::DefaultWorkQueueBase</text>
</a>
</g>
</g>
<!-- Node4 -->
<g id="node4" class="node">
<title>Node4</title>
<g id="a_node4"><a xlink:href="class_ogre_1_1_default_work_queue.html" target="_top" xlink:title="Implementation of a general purpose request / response style background work queue.">
<polygon fill="none" stroke="black" points="12,-0.5 12,-19.5 150,-19.5 150,-0.5 12,-0.5"/>
<text text-anchor="middle" x="81" y="-7.5" font-family="Helvetica,sans-Serif" font-size="10.00">Ogre::DefaultWorkQueue</text>
</a>
</g>
</g>
<!-- Node1&#45;&gt;Node4 -->
<g id="edge3" class="edge">
<title>Node1&#45;&gt;Node4</title>
<path fill="none" stroke="midnightblue" d="M74.53,-46.1C73.9,-37.14 74.34,-26.86 75.87,-19.75"/>
<polygon fill="midnightblue" stroke="midnightblue" points="71.07,-46.62 75.83,-56.08 78.01,-45.71 71.07,-46.62"/>
</g>
<!-- Node1&#45;&gt;Node4 -->
<g id="edge4" class="edge">
<title>Node1&#45;&gt;Node4</title>
<path fill="none" stroke="midnightblue" d="M87.47,-46.1C88.1,-37.14 87.66,-26.86 86.13,-19.75"/>
<polygon fill="midnightblue" stroke="midnightblue" points="83.99,-45.71 86.17,-56.08 90.93,-46.62 83.99,-45.71"/>
</g>
<!-- Node2 -->
<g id="node2" class="node">
<title>Node2</title>
<g id="a_node2"><a xlink:href="class_ogre_1_1_work_queue.html" target="_top" xlink:title="Interface to a general purpose request / response style background work queue.">
<polygon fill="none" stroke="black" points="30,-112.5 30,-131.5 132,-131.5 132,-112.5 30,-112.5"/>
<text text-anchor="middle" x="81" y="-119.5" font-family="Helvetica,sans-Serif" font-size="10.00">Ogre::WorkQueue</text>
</a>
</g>
</g>
<!-- Node2&#45;&gt;Node1 -->
<g id="edge1" class="edge">
<title>Node2&#45;&gt;Node1</title>
<path fill="none" stroke="midnightblue" d="M81,-101.8C81,-92.91 81,-82.78 81,-75.75"/>
<polygon fill="midnightblue" stroke="midnightblue" points="77.5,-102.08 81,-112.08 84.5,-102.08 77.5,-102.08"/>
</g>
<!-- Node3 -->
<g id="node3" class="node">
<title>Node3</title>
<g id="a_node3"><a xlink:title=" ">
<polygon fill="none" stroke="#bfbfbf" points="30,-168.5 30,-187.5 132,-187.5 132,-168.5 30,-168.5"/>
<text text-anchor="middle" x="81" y="-175.5" font-family="Helvetica,sans-Serif" font-size="10.00">OgreAllocatedObj</text>
</a>
</g>
</g>
<!-- Node3&#45;&gt;Node2 -->
<g id="edge2" class="edge">
<title>Node3&#45;&gt;Node2</title>
<path fill="none" stroke="midnightblue" d="M81,-157.8C81,-148.91 81,-138.78 81,-131.75"/>
<polygon fill="midnightblue" stroke="midnightblue" points="77.5,-158.08 81,-168.08 84.5,-158.08 77.5,-158.08"/>
</g>
</g>
</svg>
