<?xml version="1.0" encoding="UTF-8" standalone="no"?>
<!DOCTYPE svg PUBLIC "-//W3C//DTD SVG 1.1//EN"
 "http://www.w3.org/Graphics/SVG/1.1/DTD/svg11.dtd">
<!-- Generated by graphviz version 2.43.0 (0)
 -->
<!-- Title: Ogre::ArchiveFactory Pages: 1 -->
<svg width="902pt" height="118pt"
 viewBox="0.00 0.00 902.00 118.00" xmlns="http://www.w3.org/2000/svg" xmlns:xlink="http://www.w3.org/1999/xlink">
<g id="graph0" class="graph" transform="scale(1 1) rotate(0) translate(4 114)">
<title>Ogre::ArchiveFactory</title>
<!-- Node1 -->
<g id="Node000001" class="node">
<title>Node1</title>
<g id="a_Node000001"><a xlink:title="Abstract factory class, archive codec plugins can register concrete subclasses of this.">
<polygon fill="#999999" stroke="#666666" points="311,-61.5 193,-61.5 193,-42.5 311,-42.5 311,-61.5"/>
<text text-anchor="middle" x="252" y="-49.5" font-family="Helvetica,sans-Serif" font-size="10.00">Ogre::ArchiveFactory</text>
</a>
</g>
</g>
<!-- Node4 -->
<g id="Node000004" class="node">
<title>Node4</title>
<g id="a_Node000004"><a xlink:href="class_ogre_1_1_a_p_k_file_system_archive_factory.html" target="_top" xlink:title=" ">
<polygon fill="white" stroke="#666666" points="511,-110 355,-110 355,-80 511,-80 511,-110"/>
<text text-anchor="start" x="363" y="-98" font-family="Helvetica,sans-Serif" font-size="10.00">Ogre::APKFileSystemArchive</text>
<text text-anchor="middle" x="433" y="-87" font-family="Helvetica,sans-Serif" font-size="10.00">Factory</text>
</a>
</g>
</g>
<!-- Node1&#45;&gt;Node4 -->
<g id="edge3_Node000001_Node000004" class="edge">
<title>Node1&#45;&gt;Node4</title>
<g id="a_edge3_Node000001_Node000004"><a xlink:title=" ">
<path fill="none" stroke="#63b8ff" d="M302.58,-63.91C323.3,-68.89 347.61,-74.73 369.53,-79.99"/>
<polygon fill="#63b8ff" stroke="#63b8ff" points="303.27,-60.48 292.73,-61.54 301.63,-67.28 303.27,-60.48"/>
</a>
</g>
</g>
<!-- Node5 -->
<g id="Node000005" class="node">
<title>Node5</title>
<g id="a_Node000005"><a xlink:href="class_ogre_1_1_file_system_archive_factory.html" target="_top" xlink:title="Specialisation of ArchiveFactory for FileSystem files.">
<polygon fill="white" stroke="#666666" points="519,-61.5 347,-61.5 347,-42.5 519,-42.5 519,-61.5"/>
<text text-anchor="middle" x="433" y="-49.5" font-family="Helvetica,sans-Serif" font-size="10.00">Ogre::FileSystemArchiveFactory</text>
</a>
</g>
</g>
<!-- Node1&#45;&gt;Node5 -->
<g id="edge4_Node000001_Node000005" class="edge">
<title>Node1&#45;&gt;Node5</title>
<g id="a_edge4_Node000001_Node000005"><a xlink:title=" ">
<path fill="none" stroke="#63b8ff" d="M321.21,-52C329.6,-52 338.27,-52 346.87,-52"/>
<polygon fill="#63b8ff" stroke="#63b8ff" points="321.12,-48.5 311.12,-52 321.12,-55.5 321.12,-48.5"/>
</a>
</g>
</g>
<!-- Node6 -->
<g id="Node000006" class="node">
<title>Node6</title>
<g id="a_Node000006"><a xlink:href="class_ogre_1_1_zip_archive_factory.html" target="_top" xlink:title="Specialisation of ArchiveFactory for Zip files.">
<polygon fill="white" stroke="#666666" points="500,-24.5 366,-24.5 366,-5.5 500,-5.5 500,-24.5"/>
<text text-anchor="middle" x="433" y="-12.5" font-family="Helvetica,sans-Serif" font-size="10.00">Ogre::ZipArchiveFactory</text>
</a>
</g>
</g>
<!-- Node1&#45;&gt;Node6 -->
<g id="edge5_Node000001_Node000006" class="edge">
<title>Node1&#45;&gt;Node6</title>
<g id="a_edge5_Node000001_Node000006"><a xlink:title=" ">
<path fill="none" stroke="#63b8ff" d="M309.04,-40.42C333.7,-35.32 362.33,-29.4 385.75,-24.56"/>
<polygon fill="#63b8ff" stroke="#63b8ff" points="308.18,-37.02 299.1,-42.47 309.6,-43.87 308.18,-37.02"/>
</a>
</g>
</g>
<!-- Node2 -->
<g id="Node000002" class="node">
<title>Node2</title>
<g id="a_Node000002"><a xlink:href="class_ogre_1_1_factory_obj.html" target="_top" xlink:title=" ">
<polygon fill="white" stroke="#666666" points="157,-80.5 0,-80.5 0,-61.5 157,-61.5 157,-80.5"/>
<text text-anchor="middle" x="78.5" y="-68.5" font-family="Helvetica,sans-Serif" font-size="10.00">Ogre::FactoryObj&lt; Archive &gt;</text>
</a>
</g>
</g>
<!-- Node2&#45;&gt;Node1 -->
<g id="edge1_Node000001_Node000002" class="edge">
<title>Node2&#45;&gt;Node1</title>
<g id="a_edge1_Node000001_Node000002"><a xlink:title=" ">
<path fill="none" stroke="#63b8ff" d="M167.35,-61.27C175.98,-60.31 184.58,-59.36 192.8,-58.45"/>
<polygon fill="#63b8ff" stroke="#63b8ff" points="166.78,-57.81 157.22,-62.39 167.55,-64.77 166.78,-57.81"/>
</a>
</g>
</g>
<!-- Node3 -->
<g id="Node000003" class="node">
<title>Node3</title>
<g id="a_Node000003"><a xlink:title=" ">
<polygon fill="white" stroke="#666666" points="144,-43.5 13,-43.5 13,-24.5 144,-24.5 144,-43.5"/>
<text text-anchor="middle" x="78.5" y="-31.5" font-family="Helvetica,sans-Serif" font-size="10.00">Ogre::OgreAllocatedObj</text>
</a>
</g>
</g>
<!-- Node3&#45;&gt;Node1 -->
<g id="edge2_Node000001_Node000003" class="edge">
<title>Node3&#45;&gt;Node1</title>
<g id="a_edge2_Node000001_Node000003"><a xlink:title=" ">
<path fill="none" stroke="#63b8ff" d="M154.54,-41.88C167.37,-43.22 180.52,-44.6 192.83,-45.9"/>
<polygon fill="#63b8ff" stroke="#63b8ff" points="154.65,-38.37 144.34,-40.81 153.92,-45.33 154.65,-38.37"/>
</a>
</g>
</g>
<!-- Node7 -->
<g id="Node000007" class="node">
<title>Node7</title>
<g id="a_Node000007"><a xlink:href="class_ogre_1_1_embedded_zip_archive_factory.html" target="_top" xlink:title="Specialisation of ZipArchiveFactory for embedded Zip files.">
<polygon fill="white" stroke="#666666" points="705,-30 555,-30 555,0 705,0 705,-30"/>
<text text-anchor="start" x="563" y="-18" font-family="Helvetica,sans-Serif" font-size="10.00">Ogre::EmbeddedZipArchive</text>
<text text-anchor="middle" x="630" y="-7" font-family="Helvetica,sans-Serif" font-size="10.00">Factory</text>
</a>
</g>
</g>
<!-- Node6&#45;&gt;Node7 -->
<g id="edge6_Node000006_Node000007" class="edge">
<title>Node6&#45;&gt;Node7</title>
<g id="a_edge6_Node000006_Node000007"><a xlink:title=" ">
<path fill="none" stroke="#63b8ff" d="M510.04,-15C524.71,-15 540.05,-15 554.66,-15"/>
<polygon fill="#63b8ff" stroke="#63b8ff" points="510.02,-11.5 500.02,-15 510.02,-18.5 510.02,-11.5"/>
</a>
</g>
</g>
<!-- Node8 -->
<g id="Node000008" class="node">
<title>Node8</title>
<g id="a_Node000008"><a xlink:href="class_ogre_1_1_a_p_k_zip_archive_factory.html" target="_top" xlink:title=" ">
<polygon fill="white" stroke="#666666" points="894,-24.5 741,-24.5 741,-5.5 894,-5.5 894,-24.5"/>
<text text-anchor="middle" x="817.5" y="-12.5" font-family="Helvetica,sans-Serif" font-size="10.00">Ogre::APKZipArchiveFactory</text>
</a>
</g>
</g>
<!-- Node7&#45;&gt;Node8 -->
<g id="edge7_Node000007_Node000008" class="edge">
<title>Node7&#45;&gt;Node8</title>
<g id="a_edge7_Node000007_Node000008"><a xlink:title=" ">
<path fill="none" stroke="#63b8ff" d="M715.16,-15C723.77,-15 732.48,-15 740.99,-15"/>
<polygon fill="#63b8ff" stroke="#63b8ff" points="715.11,-11.5 705.11,-15 715.11,-18.5 715.11,-11.5"/>
</a>
</g>
</g>
</g>
</svg>
