<?xml version="1.0" encoding="UTF-8" standalone="no"?>
<!DOCTYPE svg PUBLIC "-//W3C//DTD SVG 1.1//EN"
 "http://www.w3.org/Graphics/SVG/1.1/DTD/svg11.dtd">
<!-- Generated by graphviz version 2.43.0 (0)
 -->
<!-- Title: Ogre::WorkQueue::ResponseHandler Pages: 1 -->
<svg width="357pt" height="154pt"
 viewBox="0.00 0.00 357.00 154.00" xmlns="http://www.w3.org/2000/svg" xmlns:xlink="http://www.w3.org/1999/xlink">
<g id="graph0" class="graph" transform="scale(1 1) rotate(0) translate(4 150)">
<title>Ogre::WorkQueue::ResponseHandler</title>
<!-- Node1 -->
<g id="node1" class="node">
<title>Node1</title>
<g id="a_node1"><a xlink:title="Interface definition for a handler of responses.">
<polygon fill="#bfbfbf" stroke="black" points="0,-61 0,-91 155,-91 155,-61 0,-61"/>
<text text-anchor="start" x="8" y="-79" font-family="Helvetica,sans-Serif" font-size="10.00">Ogre::WorkQueue::Response</text>
<text text-anchor="middle" x="77.5" y="-68" font-family="Helvetica,sans-Serif" font-size="10.00">Handler</text>
</a>
</g>
</g>
<!-- Node2 -->
<g id="node2" class="node">
<title>Node2</title>
<g id="a_node2"><a xlink:href="class_ogre_1_1_lod_work_queue_injector.html" target="_top" xlink:title="Injects the output of a request to the mesh in a thread safe way.">
<polygon fill="none" stroke="black" points="192,-126.5 192,-145.5 348,-145.5 348,-126.5 192,-126.5"/>
<text text-anchor="middle" x="270" y="-133.5" font-family="Helvetica,sans-Serif" font-size="10.00">Ogre::LodWorkQueueInjector</text>
</a>
</g>
</g>
<!-- Node1&#45;&gt;Node2 -->
<g id="edge1" class="edge">
<title>Node1&#45;&gt;Node2</title>
<path fill="none" stroke="midnightblue" d="M125.89,-94.59C145.83,-102.07 169.37,-110.45 191,-117 202.34,-120.44 214.75,-123.68 226.26,-126.49"/>
<polygon fill="midnightblue" stroke="midnightblue" points="127.01,-91.27 116.42,-91.01 124.53,-97.82 127.01,-91.27"/>
</g>
<!-- Node3 -->
<g id="node3" class="node">
<title>Node3</title>
<g id="a_node3"><a xlink:href="class_ogre_1_1_page.html" target="_top" xlink:title="Page class.">
<polygon fill="none" stroke="black" points="235.5,-88.5 235.5,-107.5 304.5,-107.5 304.5,-88.5 235.5,-88.5"/>
<text text-anchor="middle" x="270" y="-95.5" font-family="Helvetica,sans-Serif" font-size="10.00">Ogre::Page</text>
</a>
</g>
</g>
<!-- Node1&#45;&gt;Node3 -->
<g id="edge2" class="edge">
<title>Node1&#45;&gt;Node3</title>
<path fill="none" stroke="midnightblue" d="M165.38,-86.03C190.26,-88.91 215.9,-91.87 235.45,-94.13"/>
<polygon fill="midnightblue" stroke="midnightblue" points="165.5,-82.52 155.16,-84.85 164.69,-89.48 165.5,-82.52"/>
</g>
<!-- Node4 -->
<g id="node4" class="node">
<title>Node4</title>
<g id="a_node4"><a xlink:href="class_ogre_1_1_resource_background_queue.html" target="_top" xlink:title="This class is used to perform Resource operations in a background thread.">
<polygon fill="none" stroke="black" points="195.5,-39 195.5,-69 344.5,-69 344.5,-39 195.5,-39"/>
<text text-anchor="start" x="203.5" y="-57" font-family="Helvetica,sans-Serif" font-size="10.00">Ogre::ResourceBackground</text>
<text text-anchor="middle" x="270" y="-46" font-family="Helvetica,sans-Serif" font-size="10.00">Queue</text>
</a>
</g>
</g>
<!-- Node1&#45;&gt;Node4 -->
<g id="edge3" class="edge">
<title>Node1&#45;&gt;Node4</title>
<path fill="none" stroke="midnightblue" d="M165.16,-65.99C175.22,-64.83 185.41,-63.65 195.28,-62.51"/>
<polygon fill="midnightblue" stroke="midnightblue" points="164.69,-62.52 155.16,-67.15 165.5,-69.48 164.69,-62.52"/>
</g>
<!-- Node5 -->
<g id="node5" class="node">
<title>Node5</title>
<g id="a_node5"><a xlink:href="class_ogre_1_1_volume_1_1_chunk_handler.html" target="_top" xlink:title="Handles the WorkQueue management of the chunks.">
<polygon fill="none" stroke="black" points="191,-0.5 191,-19.5 349,-19.5 349,-0.5 191,-0.5"/>
<text text-anchor="middle" x="270" y="-7.5" font-family="Helvetica,sans-Serif" font-size="10.00">Ogre::Volume::ChunkHandler</text>
</a>
</g>
</g>
<!-- Node1&#45;&gt;Node5 -->
<g id="edge4" class="edge">
<title>Node1&#45;&gt;Node5</title>
<path fill="none" stroke="midnightblue" d="M121.22,-56.92C142.02,-48.04 167.55,-37.76 191,-30 202.68,-26.14 215.55,-22.56 227.4,-19.54"/>
<polygon fill="midnightblue" stroke="midnightblue" points="119.81,-53.71 112.02,-60.88 122.58,-60.14 119.81,-53.71"/>
</g>
</g>
</svg>
