<?xml version="1.0" encoding="UTF-8" standalone="no"?>
<!DOCTYPE svg PUBLIC "-//W3C//DTD SVG 1.1//EN"
 "http://www.w3.org/Graphics/SVG/1.1/DTD/svg11.dtd">
<!-- Generated by graphviz version 2.43.0 (0)
 -->
<!-- Title: Ogre::RenderSystem::Listener Pages: 1 -->
<svg width="350pt" height="93pt"
 viewBox="0.00 0.00 350.00 93.00" xmlns="http://www.w3.org/2000/svg" xmlns:xlink="http://www.w3.org/1999/xlink">
<g id="graph0" class="graph" transform="scale(1 1) rotate(0) translate(4 89)">
<title>Ogre::RenderSystem::Listener</title>
<!-- Node1 -->
<g id="Node000001" class="node">
<title>Node1</title>
<g id="a_Node000001"><a xlink:title="Defines a listener on the custom events that this render system can raise.">
<polygon fill="#999999" stroke="#666666" points="241,-85 124,-85 124,-55 241,-55 241,-85"/>
<text text-anchor="start" x="132" y="-73" font-family="Helvetica,sans-Serif" font-size="10.00">Ogre::RenderSystem</text>
<text text-anchor="middle" x="182.5" y="-62" font-family="Helvetica,sans-Serif" font-size="10.00">::Listener</text>
</a>
</g>
</g>
<!-- Node2 -->
<g id="Node000002" class="node">
<title>Node2</title>
<g id="a_Node000002"><a xlink:href="class_ogre_1_1_d3_d11_render_pass_descriptor.html" target="_top" xlink:title="D3D11 will share groups of ID3D11RenderTargetView all D3D11RenderPassDescriptor that share the same R...">
<polygon fill="white" stroke="#666666" points="185,-19 0,-19 0,0 185,0 185,-19"/>
<text text-anchor="middle" x="92.5" y="-7" font-family="Helvetica,sans-Serif" font-size="10.00">Ogre::D3D11RenderPassDescriptor</text>
</a>
</g>
</g>
<!-- Node1&#45;&gt;Node2 -->
<g id="edge1_Node000001_Node000002" class="edge">
<title>Node1&#45;&gt;Node2</title>
<g id="a_edge1_Node000001_Node000002"><a xlink:title=" ">
<path fill="none" stroke="#63b8ff" d="M152.27,-49.35C136.46,-39.07 117.91,-27.02 105.72,-19.09"/>
<polygon fill="#63b8ff" stroke="#63b8ff" points="150.42,-52.32 160.71,-54.84 154.24,-46.45 150.42,-52.32"/>
</a>
</g>
</g>
<!-- Node3 -->
<g id="Node000003" class="node">
<title>Node3</title>
<g id="a_Node000003"><a xlink:href="class_ogre_1_1v1_1_1_overlay_system.html" target="_top" xlink:title="This class simplify initialization / finalization of the overlay system.">
<polygon fill="white" stroke="#666666" points="342,-19 203,-19 203,0 342,0 342,-19"/>
<text text-anchor="middle" x="272.5" y="-7" font-family="Helvetica,sans-Serif" font-size="10.00">Ogre::v1::OverlaySystem</text>
</a>
</g>
</g>
<!-- Node1&#45;&gt;Node3 -->
<g id="edge2_Node000001_Node000003" class="edge">
<title>Node1&#45;&gt;Node3</title>
<g id="a_edge2_Node000001_Node000003"><a xlink:title=" ">
<path fill="none" stroke="#63b8ff" d="M212.73,-49.35C228.54,-39.07 247.09,-27.02 259.28,-19.09"/>
<polygon fill="#63b8ff" stroke="#63b8ff" points="210.76,-46.45 204.29,-54.84 214.58,-52.32 210.76,-46.45"/>
</a>
</g>
</g>
</g>
</svg>
