<?xml version="1.0" encoding="UTF-8" standalone="no"?>
<!DOCTYPE svg PUBLIC "-//W3C//DTD SVG 1.1//EN"
 "http://www.w3.org/Graphics/SVG/1.1/DTD/svg11.dtd">
<!-- Generated by graphviz version 2.43.0 (0)
 -->
<!-- Title: Ogre::Archive Pages: 1 -->
<svg width="436pt" height="137pt"
 viewBox="0.00 0.00 436.00 137.00" xmlns="http://www.w3.org/2000/svg" xmlns:xlink="http://www.w3.org/1999/xlink">
<g id="graph0" class="graph" transform="scale(1 1) rotate(0) translate(4 133)">
<title>Ogre::Archive</title>
<!-- Node1 -->
<g id="Node000001" class="node">
<title>Node1</title>
<g id="a_Node000001"><a xlink:title="Archive&#45;handling class.">
<polygon fill="#999999" stroke="#666666" points="284.5,-74 201.5,-74 201.5,-55 284.5,-55 284.5,-74"/>
<text text-anchor="middle" x="243" y="-62" font-family="Helvetica,sans-Serif" font-size="10.00">Ogre::Archive</text>
</a>
</g>
</g>
<!-- Node3 -->
<g id="Node000003" class="node">
<title>Node3</title>
<g id="a_Node000003"><a xlink:href="class_ogre_1_1_a_p_k_file_system_archive.html" target="_top" xlink:title=" ">
<polygon fill="white" stroke="#666666" points="156,-19 0,-19 0,0 156,0 156,-19"/>
<text text-anchor="middle" x="78" y="-7" font-family="Helvetica,sans-Serif" font-size="10.00">Ogre::APKFileSystemArchive</text>
</a>
</g>
</g>
<!-- Node1&#45;&gt;Node3 -->
<g id="edge2_Node000001_Node000003" class="edge">
<title>Node1&#45;&gt;Node3</title>
<g id="a_edge2_Node000001_Node000003"><a xlink:title=" ">
<path fill="none" stroke="#63b8ff" d="M206.57,-51.8C175.78,-41.91 132.38,-27.97 104.72,-19.08"/>
<polygon fill="#63b8ff" stroke="#63b8ff" points="205.9,-55.26 216.49,-54.98 208.04,-48.59 205.9,-55.26"/>
</a>
</g>
</g>
<!-- Node4 -->
<g id="Node000004" class="node">
<title>Node4</title>
<g id="a_Node000004"><a xlink:href="class_ogre_1_1_file_system_archive.html" target="_top" xlink:title="Specialisation of the Archive class to allow reading of files from filesystem folders / directories.">
<polygon fill="white" stroke="#666666" points="311.5,-19 174.5,-19 174.5,0 311.5,0 311.5,-19"/>
<text text-anchor="middle" x="243" y="-7" font-family="Helvetica,sans-Serif" font-size="10.00">Ogre::FileSystemArchive</text>
</a>
</g>
</g>
<!-- Node1&#45;&gt;Node4 -->
<g id="edge3_Node000001_Node000004" class="edge">
<title>Node1&#45;&gt;Node4</title>
<g id="a_edge3_Node000001_Node000004"><a xlink:title=" ">
<path fill="none" stroke="#63b8ff" d="M243,-44.66C243,-35.93 243,-25.99 243,-19.09"/>
<polygon fill="#63b8ff" stroke="#63b8ff" points="239.5,-44.75 243,-54.75 246.5,-44.75 239.5,-44.75"/>
</a>
</g>
</g>
<!-- Node5 -->
<g id="Node000005" class="node">
<title>Node5</title>
<g id="a_Node000005"><a xlink:href="class_ogre_1_1_zip_archive.html" target="_top" xlink:title="Specialisation of the Archive class to allow reading of files from a zip format source archive.">
<polygon fill="white" stroke="#666666" points="428,-19 330,-19 330,0 428,0 428,-19"/>
<text text-anchor="middle" x="379" y="-7" font-family="Helvetica,sans-Serif" font-size="10.00">Ogre::ZipArchive</text>
</a>
</g>
</g>
<!-- Node1&#45;&gt;Node5 -->
<g id="edge4_Node000001_Node000005" class="edge">
<title>Node1&#45;&gt;Node5</title>
<g id="a_edge4_Node000001_Node000005"><a xlink:title=" ">
<path fill="none" stroke="#63b8ff" d="M274.33,-51.29C299.54,-41.47 334.33,-27.91 356.75,-19.17"/>
<polygon fill="#63b8ff" stroke="#63b8ff" points="272.9,-48.09 264.85,-54.98 275.44,-54.61 272.9,-48.09"/>
</a>
</g>
</g>
<!-- Node2 -->
<g id="Node000002" class="node">
<title>Node2</title>
<g id="a_Node000002"><a xlink:title=" ">
<polygon fill="white" stroke="#666666" points="308.5,-129 177.5,-129 177.5,-110 308.5,-110 308.5,-129"/>
<text text-anchor="middle" x="243" y="-117" font-family="Helvetica,sans-Serif" font-size="10.00">Ogre::OgreAllocatedObj</text>
</a>
</g>
</g>
<!-- Node2&#45;&gt;Node1 -->
<g id="edge1_Node000001_Node000002" class="edge">
<title>Node2&#45;&gt;Node1</title>
<g id="a_edge1_Node000001_Node000002"><a xlink:title=" ">
<path fill="none" stroke="#63b8ff" d="M243,-99.66C243,-90.93 243,-80.99 243,-74.09"/>
<polygon fill="#63b8ff" stroke="#63b8ff" points="239.5,-99.75 243,-109.75 246.5,-99.75 239.5,-99.75"/>
</a>
</g>
</g>
</g>
</svg>
