<?xml version="1.0" encoding="UTF-8" standalone="no"?>
<!DOCTYPE svg PUBLIC "-//W3C//DTD SVG 1.1//EN"
 "http://www.w3.org/Graphics/SVG/1.1/DTD/svg11.dtd">
<!-- Generated by graphviz version 2.43.0 (0)
 -->
<!-- Title: Ogre::StagingTexture Pages: 1 -->
<svg width="694pt" height="138pt"
 viewBox="0.00 0.00 694.00 138.00" xmlns="http://www.w3.org/2000/svg" xmlns:xlink="http://www.w3.org/1999/xlink">
<g id="graph0" class="graph" transform="scale(1 1) rotate(0) translate(4 134)">
<title>Ogre::StagingTexture</title>
<!-- Node1 -->
<g id="Node000001" class="node">
<title>Node1</title>
<g id="a_Node000001"><a xlink:title="A StagingTexture is an intermediate texture that can be read and be written from both CPU &amp; GPU.">
<polygon fill="#999999" stroke="#666666" points="286,-92 167,-92 167,-73 286,-73 286,-92"/>
<text text-anchor="middle" x="226.5" y="-80" font-family="Helvetica,sans-Serif" font-size="10.00">Ogre::StagingTexture</text>
</a>
</g>
</g>
<!-- Node3 -->
<g id="Node000003" class="node">
<title>Node3</title>
<g id="a_Node000003"><a xlink:href="class_ogre_1_1_d3_d11_staging_texture.html" target="_top" xlink:title=" ">
<polygon fill="white" stroke="#666666" points="483,-111 331,-111 331,-92 483,-92 483,-111"/>
<text text-anchor="middle" x="407" y="-99" font-family="Helvetica,sans-Serif" font-size="10.00">Ogre::D3D11StagingTexture</text>
</a>
</g>
</g>
<!-- Node1&#45;&gt;Node3 -->
<g id="edge2_Node000001_Node000003" class="edge">
<title>Node1&#45;&gt;Node3</title>
<g id="a_edge2_Node000001_Node000003"><a xlink:title=" ">
<path fill="none" stroke="#63b8ff" d="M296.61,-89.86C307.84,-91.05 319.52,-92.29 330.89,-93.5"/>
<polygon fill="#63b8ff" stroke="#63b8ff" points="296.76,-86.35 286.44,-88.77 296.02,-93.31 296.76,-86.35"/>
</a>
</g>
</g>
<!-- Node4 -->
<g id="Node000004" class="node">
<title>Node4</title>
<g id="a_Node000004"><a xlink:href="class_ogre_1_1_staging_texture_buffer_impl.html" target="_top" xlink:title="This implementation can be used by all RenderSystem APIs except D3D11, which is why this implementati...">
<polygon fill="white" stroke="#666666" points="492,-74 322,-74 322,-55 492,-55 492,-74"/>
<text text-anchor="middle" x="407" y="-62" font-family="Helvetica,sans-Serif" font-size="10.00">Ogre::StagingTextureBufferImpl</text>
</a>
</g>
</g>
<!-- Node1&#45;&gt;Node4 -->
<g id="edge3_Node000001_Node000004" class="edge">
<title>Node1&#45;&gt;Node4</title>
<g id="a_edge3_Node000001_Node000004"><a xlink:title=" ">
<path fill="none" stroke="#63b8ff" d="M296.47,-75.54C304.81,-74.7 313.4,-73.84 321.93,-72.98"/>
<polygon fill="#63b8ff" stroke="#63b8ff" points="296.04,-72.07 286.44,-76.56 296.74,-79.04 296.04,-72.07"/>
</a>
</g>
</g>
<!-- Node2 -->
<g id="Node000002" class="node">
<title>Node2</title>
<g id="a_Node000002"><a xlink:title=" ">
<polygon fill="white" stroke="#666666" points="131,-92 0,-92 0,-73 131,-73 131,-92"/>
<text text-anchor="middle" x="65.5" y="-80" font-family="Helvetica,sans-Serif" font-size="10.00">Ogre::OgreAllocatedObj</text>
</a>
</g>
</g>
<!-- Node2&#45;&gt;Node1 -->
<g id="edge1_Node000001_Node000002" class="edge">
<title>Node2&#45;&gt;Node1</title>
<g id="a_edge1_Node000001_Node000002"><a xlink:title=" ">
<path fill="none" stroke="#63b8ff" d="M141.19,-82.5C149.78,-82.5 158.44,-82.5 166.77,-82.5"/>
<polygon fill="#63b8ff" stroke="#63b8ff" points="141.17,-79 131.17,-82.5 141.17,-86 141.17,-79"/>
</a>
</g>
</g>
<!-- Node5 -->
<g id="Node000005" class="node">
<title>Node5</title>
<g id="a_Node000005"><a xlink:href="class_ogre_1_1_g_l3_plus_staging_texture.html" target="_top" xlink:title=" ">
<polygon fill="white" stroke="#666666" points="686,-130 528,-130 528,-111 686,-111 686,-130"/>
<text text-anchor="middle" x="607" y="-118" font-family="Helvetica,sans-Serif" font-size="10.00">Ogre::GL3PlusStagingTexture</text>
</a>
</g>
</g>
<!-- Node4&#45;&gt;Node5 -->
<g id="edge4_Node000004_Node000005" class="edge">
<title>Node4&#45;&gt;Node5</title>
<g id="a_edge4_Node000004_Node000005"><a xlink:title=" ">
<path fill="none" stroke="#63b8ff" d="M469.99,-76.57C477.49,-78.6 484.98,-80.9 492,-83.5 508.97,-89.77 511.04,-96.19 528,-102.5 536.86,-105.8 546.51,-108.61 555.92,-110.97"/>
<polygon fill="#63b8ff" stroke="#63b8ff" points="470.71,-73.14 460.15,-74.05 468.98,-79.92 470.71,-73.14"/>
</a>
</g>
</g>
<!-- Node6 -->
<g id="Node000006" class="node">
<title>Node6</title>
<g id="a_Node000006"><a xlink:href="class_ogre_1_1_metal_staging_texture.html" target="_top" xlink:title=" ">
<polygon fill="white" stroke="#666666" points="680,-93 534,-93 534,-74 680,-74 680,-93"/>
<text text-anchor="middle" x="607" y="-81" font-family="Helvetica,sans-Serif" font-size="10.00">Ogre::MetalStagingTexture</text>
</a>
</g>
</g>
<!-- Node4&#45;&gt;Node6 -->
<g id="edge5_Node000004_Node000006" class="edge">
<title>Node4&#45;&gt;Node6</title>
<g id="a_edge5_Node000004_Node000006"><a xlink:title=" ">
<path fill="none" stroke="#63b8ff" d="M502.41,-73.56C513.03,-74.58 523.72,-75.6 534,-76.59"/>
<polygon fill="#63b8ff" stroke="#63b8ff" points="502.55,-70.06 492.26,-72.59 501.88,-77.02 502.55,-70.06"/>
</a>
</g>
</g>
<!-- Node7 -->
<g id="Node000007" class="node">
<title>Node7</title>
<g id="a_Node000007"><a xlink:href="class_ogre_1_1_n_u_l_l_staging_texture.html" target="_top" xlink:title=" ">
<polygon fill="white" stroke="#666666" points="679,-56 535,-56 535,-37 679,-37 679,-56"/>
<text text-anchor="middle" x="607" y="-44" font-family="Helvetica,sans-Serif" font-size="10.00">Ogre::NULLStagingTexture</text>
</a>
</g>
</g>
<!-- Node4&#45;&gt;Node7 -->
<g id="edge6_Node000004_Node000007" class="edge">
<title>Node4&#45;&gt;Node7</title>
<g id="a_edge6_Node000004_Node000007"><a xlink:title=" ">
<path fill="none" stroke="#63b8ff" d="M502.3,-55.93C513.28,-54.93 524.33,-53.92 534.92,-52.96"/>
<polygon fill="#63b8ff" stroke="#63b8ff" points="501.9,-52.45 492.26,-56.84 502.53,-59.42 501.9,-52.45"/>
</a>
</g>
</g>
<!-- Node8 -->
<g id="Node000008" class="node">
<title>Node8</title>
<g id="a_Node000008"><a xlink:href="class_ogre_1_1_vulkan_staging_texture.html" target="_top" xlink:title=" ">
<polygon fill="white" stroke="#666666" points="682.5,-19 531.5,-19 531.5,0 682.5,0 682.5,-19"/>
<text text-anchor="middle" x="607" y="-7" font-family="Helvetica,sans-Serif" font-size="10.00">Ogre::VulkanStagingTexture</text>
</a>
</g>
</g>
<!-- Node4&#45;&gt;Node8 -->
<g id="edge7_Node000004_Node000008" class="edge">
<title>Node4&#45;&gt;Node8</title>
<g id="a_edge7_Node000004_Node000008"><a xlink:title=" ">
<path fill="none" stroke="#63b8ff" d="M446.5,-51.85C469.94,-44.35 500.55,-34.89 528,-27.5 539,-24.54 550.96,-21.63 562.13,-19.04"/>
<polygon fill="#63b8ff" stroke="#63b8ff" points="445.37,-48.54 436.93,-54.94 447.52,-55.2 445.37,-48.54"/>
</a>
</g>
</g>
</g>
</svg>
