<?xml version="1.0" encoding="UTF-8" standalone="no"?>
<!DOCTYPE svg PUBLIC "-//W3C//DTD SVG 1.1//EN"
 "http://www.w3.org/Graphics/SVG/1.1/DTD/svg11.dtd">
<!-- Generated by graphviz version 2.43.0 (0)
 -->
<!-- Title: Ogre::HardwareOcclusionQuery Pages: 1 -->
<svg width="378pt" height="151pt"
 viewBox="0.00 0.00 378.00 151.00" xmlns="http://www.w3.org/2000/svg" xmlns:xlink="http://www.w3.org/1999/xlink">
<g id="graph0" class="graph" transform="scale(1 1) rotate(0) translate(4 147)">
<title>Ogre::HardwareOcclusionQuery</title>
<!-- Node1 -->
<g id="node1" class="node">
<title>Node1</title>
<g id="a_node1"><a xlink:title="This is a abstract class that that provides the interface for the query class for hardware occlusion.">
<polygon fill="#bfbfbf" stroke="black" points="98.5,-67.5 98.5,-86.5 268.5,-86.5 268.5,-67.5 98.5,-67.5"/>
<text text-anchor="middle" x="183.5" y="-74.5" font-family="Helvetica,sans-Serif" font-size="10.00">Ogre::HardwareOcclusionQuery</text>
</a>
</g>
</g>
<!-- Node3 -->
<g id="node3" class="node">
<title>Node3</title>
<g id="a_node3"><a xlink:href="class_ogre_1_1_d3_d11_hardware_occlusion_query.html" target="_top" xlink:title="This is a class that is the DirectX9 implementation of hardware occlusion testing.">
<polygon fill="none" stroke="black" points="0,-0.5 0,-30.5 173,-30.5 173,-0.5 0,-0.5"/>
<text text-anchor="start" x="8" y="-18.5" font-family="Helvetica,sans-Serif" font-size="10.00">Ogre::D3D11HardwareOcclusion</text>
<text text-anchor="middle" x="86.5" y="-7.5" font-family="Helvetica,sans-Serif" font-size="10.00">Query</text>
</a>
</g>
</g>
<!-- Node1&#45;&gt;Node3 -->
<g id="edge2" class="edge">
<title>Node1&#45;&gt;Node3</title>
<path fill="none" stroke="midnightblue" d="M160.69,-62.01C145.22,-52.52 124.84,-40.02 109.36,-30.52"/>
<polygon fill="midnightblue" stroke="midnightblue" points="159.25,-65.23 169.6,-67.48 162.91,-59.26 159.25,-65.23"/>
</g>
<!-- Node4 -->
<g id="node4" class="node">
<title>Node4</title>
<g id="a_node4"><a xlink:href="class_ogre_1_1_g_l3_plus_hardware_occlusion_query.html" target="_top" xlink:title="This is a class that is the base class of the query class for hardware occlusion.">
<polygon fill="none" stroke="black" points="191,-0.5 191,-30.5 370,-30.5 370,-0.5 191,-0.5"/>
<text text-anchor="start" x="199" y="-18.5" font-family="Helvetica,sans-Serif" font-size="10.00">Ogre::GL3PlusHardwareOcclusion</text>
<text text-anchor="middle" x="280.5" y="-7.5" font-family="Helvetica,sans-Serif" font-size="10.00">Query</text>
</a>
</g>
</g>
<!-- Node1&#45;&gt;Node4 -->
<g id="edge3" class="edge">
<title>Node1&#45;&gt;Node4</title>
<path fill="none" stroke="midnightblue" d="M206.31,-62.01C221.78,-52.52 242.16,-40.02 257.64,-30.52"/>
<polygon fill="midnightblue" stroke="midnightblue" points="204.09,-59.26 197.4,-67.48 207.75,-65.23 204.09,-59.26"/>
</g>
<!-- Node2 -->
<g id="node2" class="node">
<title>Node2</title>
<g id="a_node2"><a xlink:title=" ">
<polygon fill="none" stroke="#bfbfbf" points="132.5,-123.5 132.5,-142.5 234.5,-142.5 234.5,-123.5 132.5,-123.5"/>
<text text-anchor="middle" x="183.5" y="-130.5" font-family="Helvetica,sans-Serif" font-size="10.00">OgreAllocatedObj</text>
</a>
</g>
</g>
<!-- Node2&#45;&gt;Node1 -->
<g id="edge1" class="edge">
<title>Node2&#45;&gt;Node1</title>
<path fill="none" stroke="midnightblue" d="M183.5,-112.8C183.5,-103.91 183.5,-93.78 183.5,-86.75"/>
<polygon fill="midnightblue" stroke="midnightblue" points="180,-113.08 183.5,-123.08 187,-113.08 180,-113.08"/>
</g>
</g>
</svg>
