<?xml version="1.0" encoding="UTF-8" standalone="no"?>
<!DOCTYPE svg PUBLIC "-//W3C//DTD SVG 1.1//EN"
 "http://www.w3.org/Graphics/SVG/1.1/DTD/svg11.dtd">
<!-- Generated by graphviz version 2.43.0 (0)
 -->
<!-- Title: Ogre::ConstBufferPacked Pages: 1 -->
<svg width="679pt" height="230pt"
 viewBox="0.00 0.00 679.00 230.00" xmlns="http://www.w3.org/2000/svg" xmlns:xlink="http://www.w3.org/1999/xlink">
<g id="graph0" class="graph" transform="scale(1 1) rotate(0) translate(4 226)">
<title>Ogre::ConstBufferPacked</title>
<!-- Node1 -->
<g id="node1" class="node">
<title>Node1</title>
<g id="a_node1"><a xlink:title="Represents constant buffers (also known as Uniform Buffers in GL)">
<polygon fill="#bfbfbf" stroke="black" points="328,-95.5 328,-114.5 465,-114.5 465,-95.5 328,-95.5"/>
<text text-anchor="middle" x="396.5" y="-102.5" font-family="Helvetica,sans-Serif" font-size="10.00">Ogre::ConstBufferPacked</text>
</a>
</g>
</g>
<!-- Node5 -->
<g id="node5" class="node">
<title>Node5</title>
<g id="a_node5"><a xlink:href="class_ogre_1_1_d3_d11_const_buffer_packed.html" target="_top" xlink:title=" ">
<polygon fill="none" stroke="black" points="501,-202.5 501,-221.5 671,-221.5 671,-202.5 501,-202.5"/>
<text text-anchor="middle" x="586" y="-209.5" font-family="Helvetica,sans-Serif" font-size="10.00">Ogre::D3D11ConstBufferPacked</text>
</a>
</g>
</g>
<!-- Node1&#45;&gt;Node5 -->
<g id="edge4" class="edge">
<title>Node1&#45;&gt;Node5</title>
<path fill="none" stroke="midnightblue" d="M412.67,-122.18C431.41,-142.29 465.21,-175.11 501,-193 508.76,-196.88 517.31,-199.97 525.9,-202.44"/>
<polygon fill="midnightblue" stroke="midnightblue" points="415.15,-119.7 405.82,-114.67 409.97,-124.42 415.15,-119.7"/>
</g>
<!-- Node6 -->
<g id="node6" class="node">
<title>Node6</title>
<g id="a_node6"><a xlink:href="class_ogre_1_1_g_l3_plus_const_buffer_packed.html" target="_top" xlink:title=" ">
<polygon fill="none" stroke="black" points="515,-153 515,-183 657,-183 657,-153 515,-153"/>
<text text-anchor="start" x="523" y="-171" font-family="Helvetica,sans-Serif" font-size="10.00">Ogre::GL3PlusConstBuffer</text>
<text text-anchor="middle" x="586" y="-160" font-family="Helvetica,sans-Serif" font-size="10.00">Packed</text>
</a>
</g>
</g>
<!-- Node1&#45;&gt;Node6 -->
<g id="edge5" class="edge">
<title>Node1&#45;&gt;Node6</title>
<path fill="none" stroke="midnightblue" d="M432.06,-118.3C452.09,-125.86 477.84,-135.31 501,-143 511.11,-146.36 521.97,-149.75 532.42,-152.9"/>
<polygon fill="midnightblue" stroke="midnightblue" points="433.03,-114.93 422.44,-114.66 430.55,-121.48 433.03,-114.93"/>
</g>
<!-- Node7 -->
<g id="node7" class="node">
<title>Node7</title>
<g id="a_node7"><a xlink:href="class_ogre_1_1_g_l_e_s2_const_buffer_packed.html" target="_top" xlink:title=" ">
<polygon fill="none" stroke="black" points="502.5,-114.5 502.5,-133.5 669.5,-133.5 669.5,-114.5 502.5,-114.5"/>
<text text-anchor="middle" x="586" y="-121.5" font-family="Helvetica,sans-Serif" font-size="10.00">Ogre::GLES2ConstBufferPacked</text>
</a>
</g>
</g>
<!-- Node1&#45;&gt;Node7 -->
<g id="edge6" class="edge">
<title>Node1&#45;&gt;Node7</title>
<path fill="none" stroke="midnightblue" d="M475.21,-112.87C484.17,-113.78 493.34,-114.71 502.37,-115.63"/>
<polygon fill="midnightblue" stroke="midnightblue" points="475.49,-109.39 465.19,-111.86 474.79,-116.35 475.49,-109.39"/>
</g>
<!-- Node8 -->
<g id="node8" class="node">
<title>Node8</title>
<g id="a_node8"><a xlink:href="class_ogre_1_1_metal_const_buffer_packed.html" target="_top" xlink:title=" ">
<polygon fill="none" stroke="black" points="504,-76.5 504,-95.5 668,-95.5 668,-76.5 504,-76.5"/>
<text text-anchor="middle" x="586" y="-83.5" font-family="Helvetica,sans-Serif" font-size="10.00">Ogre::MetalConstBufferPacked</text>
</a>
</g>
</g>
<!-- Node1&#45;&gt;Node8 -->
<g id="edge7" class="edge">
<title>Node1&#45;&gt;Node8</title>
<path fill="none" stroke="midnightblue" d="M475.35,-97.11C484.8,-96.15 494.48,-95.17 503.99,-94.21"/>
<polygon fill="midnightblue" stroke="midnightblue" points="474.79,-93.65 465.19,-98.14 475.49,-100.61 474.79,-93.65"/>
</g>
<!-- Node9 -->
<g id="node9" class="node">
<title>Node9</title>
<g id="a_node9"><a xlink:href="class_ogre_1_1_n_u_l_l_const_buffer_packed.html" target="_top" xlink:title=" ">
<polygon fill="none" stroke="black" points="505,-38.5 505,-57.5 667,-57.5 667,-38.5 505,-38.5"/>
<text text-anchor="middle" x="586" y="-45.5" font-family="Helvetica,sans-Serif" font-size="10.00">Ogre::NULLConstBufferPacked</text>
</a>
</g>
</g>
<!-- Node1&#45;&gt;Node9 -->
<g id="edge8" class="edge">
<title>Node1&#45;&gt;Node9</title>
<path fill="none" stroke="midnightblue" d="M430.4,-91.68C450.56,-83.83 477.02,-74.08 501,-67 512.76,-63.53 525.6,-60.33 537.63,-57.59"/>
<polygon fill="midnightblue" stroke="midnightblue" points="429.07,-88.44 421.05,-95.36 431.64,-94.96 429.07,-88.44"/>
</g>
<!-- Node10 -->
<g id="node10" class="node">
<title>Node10</title>
<g id="a_node10"><a xlink:href="class_ogre_1_1_vulkan_const_buffer_packed.html" target="_top" xlink:title=" ">
<polygon fill="none" stroke="black" points="501.5,-0.5 501.5,-19.5 670.5,-19.5 670.5,-0.5 501.5,-0.5"/>
<text text-anchor="middle" x="586" y="-7.5" font-family="Helvetica,sans-Serif" font-size="10.00">Ogre::VulkanConstBufferPacked</text>
</a>
</g>
</g>
<!-- Node1&#45;&gt;Node10 -->
<g id="edge9" class="edge">
<title>Node1&#45;&gt;Node10</title>
<path fill="none" stroke="midnightblue" d="M414.93,-88.65C434.41,-71.26 467.63,-44.22 501,-29 509.43,-25.15 518.71,-22.06 527.93,-19.57"/>
<polygon fill="midnightblue" stroke="midnightblue" points="412.5,-86.12 407.46,-95.44 417.21,-91.3 412.5,-86.12"/>
</g>
<!-- Node2 -->
<g id="node2" class="node">
<title>Node2</title>
<g id="a_node2"><a xlink:href="class_ogre_1_1_buffer_packed.html" target="_top" xlink:title=" ">
<polygon fill="none" stroke="black" points="183,-95.5 183,-114.5 292,-114.5 292,-95.5 183,-95.5"/>
<text text-anchor="middle" x="237.5" y="-102.5" font-family="Helvetica,sans-Serif" font-size="10.00">Ogre::BufferPacked</text>
</a>
</g>
</g>
<!-- Node2&#45;&gt;Node1 -->
<g id="edge1" class="edge">
<title>Node2&#45;&gt;Node1</title>
<path fill="none" stroke="midnightblue" d="M302.28,-105C310.75,-105 319.46,-105 327.99,-105"/>
<polygon fill="midnightblue" stroke="midnightblue" points="302.09,-101.5 292.09,-105 302.09,-108.5 302.09,-101.5"/>
</g>
<!-- Node3 -->
<g id="node3" class="node">
<title>Node3</title>
<g id="a_node3"><a xlink:href="struct_ogre_1_1_gpu_tracked_resource.html" target="_top" xlink:title=" ">
<polygon fill="none" stroke="black" points="0,-114.5 0,-133.5 147,-133.5 147,-114.5 0,-114.5"/>
<text text-anchor="middle" x="73.5" y="-121.5" font-family="Helvetica,sans-Serif" font-size="10.00">Ogre::GpuTrackedResource</text>
</a>
</g>
</g>
<!-- Node3&#45;&gt;Node2 -->
<g id="edge2" class="edge">
<title>Node3&#45;&gt;Node2</title>
<path fill="none" stroke="midnightblue" d="M157.54,-114.26C166.15,-113.25 174.72,-112.25 182.88,-111.29"/>
<polygon fill="midnightblue" stroke="midnightblue" points="156.97,-110.8 147.44,-115.44 157.78,-117.76 156.97,-110.8"/>
</g>
<!-- Node4 -->
<g id="node4" class="node">
<title>Node4</title>
<g id="a_node4"><a xlink:title=" ">
<polygon fill="none" stroke="#bfbfbf" points="22.5,-76.5 22.5,-95.5 124.5,-95.5 124.5,-76.5 22.5,-76.5"/>
<text text-anchor="middle" x="73.5" y="-83.5" font-family="Helvetica,sans-Serif" font-size="10.00">OgreAllocatedObj</text>
</a>
</g>
</g>
<!-- Node4&#45;&gt;Node2 -->
<g id="edge3" class="edge">
<title>Node4&#45;&gt;Node2</title>
<path fill="none" stroke="midnightblue" d="M135,-93.1C150.69,-94.94 167.48,-96.9 182.79,-98.7"/>
<polygon fill="midnightblue" stroke="midnightblue" points="135.21,-89.6 124.87,-91.91 134.39,-96.55 135.21,-89.6"/>
</g>
</g>
</svg>
