<?xml version="1.0" encoding="UTF-8" standalone="no"?>
<!DOCTYPE svg PUBLIC "-//W3C//DTD SVG 1.1//EN"
 "http://www.w3.org/Graphics/SVG/1.1/DTD/svg11.dtd">
<!-- Generated by graphviz version 2.43.0 (0)
 -->
<!-- Title: Ogre::ParticleAffectorFactory Pages: 1 -->
<svg width="533pt" height="449pt"
 viewBox="0.00 0.00 533.00 449.00" xmlns="http://www.w3.org/2000/svg" xmlns:xlink="http://www.w3.org/1999/xlink">
<g id="graph0" class="graph" transform="scale(1 1) rotate(0) translate(4 445)">
<title>Ogre::ParticleAffectorFactory</title>
<!-- Node1 -->
<g id="Node000001" class="node">
<title>Node1</title>
<g id="a_Node000001"><a xlink:title="Abstract class defining the interface to be implemented by creators of ParticleAffector subclasses.">
<polygon fill="#999999" stroke="#666666" points="322,-219.5 167,-219.5 167,-200.5 322,-200.5 322,-219.5"/>
<text text-anchor="middle" x="244.5" y="-207.5" font-family="Helvetica,sans-Serif" font-size="10.00">Ogre::ParticleAffectorFactory</text>
</a>
</g>
</g>
<!-- Node3 -->
<g id="Node000003" class="node">
<title>Node3</title>
<g id="a_Node000003"><a xlink:href="class_ogre_1_1_colour_fader_affector_factory.html" target="_top" xlink:title="Factory class for ColourFaderAffector.">
<polygon fill="white" stroke="#666666" points="512.5,-441 370.5,-441 370.5,-411 512.5,-411 512.5,-441"/>
<text text-anchor="start" x="378.5" y="-429" font-family="Helvetica,sans-Serif" font-size="10.00">Ogre::ColourFaderAffector</text>
<text text-anchor="middle" x="441.5" y="-418" font-family="Helvetica,sans-Serif" font-size="10.00">Factory</text>
</a>
</g>
</g>
<!-- Node1&#45;&gt;Node3 -->
<g id="edge2_Node000001_Node000003" class="edge">
<title>Node1&#45;&gt;Node3</title>
<g id="a_edge2_Node000001_Node000003"><a xlink:title=" ">
<path fill="none" stroke="#63b8ff" d="M251.38,-229.26C264.19,-267.99 298.39,-355.55 358,-402 362.35,-405.39 367.17,-408.31 372.23,-410.81"/>
<polygon fill="#63b8ff" stroke="#63b8ff" points="254.7,-228.17 248.32,-219.7 248.03,-230.3 254.7,-228.17"/>
</a>
</g>
</g>
<!-- Node4 -->
<g id="Node000004" class="node">
<title>Node4</title>
<g id="a_Node000004"><a xlink:href="class_ogre_1_1_colour_fader_affector_factory2.html" target="_top" xlink:title="Factory class for ColourFaderAffector.">
<polygon fill="white" stroke="#666666" points="512.5,-393 370.5,-393 370.5,-363 512.5,-363 512.5,-393"/>
<text text-anchor="start" x="378.5" y="-381" font-family="Helvetica,sans-Serif" font-size="10.00">Ogre::ColourFaderAffector</text>
<text text-anchor="middle" x="441.5" y="-370" font-family="Helvetica,sans-Serif" font-size="10.00">Factory2</text>
</a>
</g>
</g>
<!-- Node1&#45;&gt;Node4 -->
<g id="edge3_Node000001_Node000004" class="edge">
<title>Node1&#45;&gt;Node4</title>
<g id="a_edge3_Node000001_Node000004"><a xlink:title=" ">
<path fill="none" stroke="#63b8ff" d="M255.18,-229C271.9,-259.9 309.15,-320.91 358,-354 363.06,-357.43 368.62,-360.38 374.39,-362.91"/>
<polygon fill="#63b8ff" stroke="#63b8ff" points="258.07,-226.97 250.31,-219.76 251.88,-230.24 258.07,-226.97"/>
</a>
</g>
</g>
<!-- Node5 -->
<g id="Node000005" class="node">
<title>Node5</title>
<g id="a_Node000005"><a xlink:href="class_ogre_1_1_colour_image_affector_factory.html" target="_top" xlink:title="Factory class for ColourImageAffector.">
<polygon fill="white" stroke="#666666" points="514.5,-345 368.5,-345 368.5,-315 514.5,-315 514.5,-345"/>
<text text-anchor="start" x="376.5" y="-333" font-family="Helvetica,sans-Serif" font-size="10.00">Ogre::ColourImageAffector</text>
<text text-anchor="middle" x="441.5" y="-322" font-family="Helvetica,sans-Serif" font-size="10.00">Factory</text>
</a>
</g>
</g>
<!-- Node1&#45;&gt;Node5 -->
<g id="edge4_Node000001_Node000005" class="edge">
<title>Node1&#45;&gt;Node5</title>
<g id="a_edge4_Node000001_Node000005"><a xlink:title=" ">
<path fill="none" stroke="#63b8ff" d="M261.01,-227.11C281.31,-248.52 318.93,-284.92 358,-306 364.3,-309.4 371.14,-312.37 378.09,-314.95"/>
<polygon fill="#63b8ff" stroke="#63b8ff" points="263.49,-224.64 254.11,-219.71 258.37,-229.41 263.49,-224.64"/>
</a>
</g>
</g>
<!-- Node6 -->
<g id="Node000006" class="node">
<title>Node6</title>
<g id="a_Node000006"><a xlink:href="class_ogre_1_1_colour_interpolator_affector_factory.html" target="_top" xlink:title="Factory class for ColourInterpolatorAffector.">
<polygon fill="white" stroke="#666666" points="508.5,-297 374.5,-297 374.5,-267 508.5,-267 508.5,-297"/>
<text text-anchor="start" x="382.5" y="-285" font-family="Helvetica,sans-Serif" font-size="10.00">Ogre::ColourInterpolator</text>
<text text-anchor="middle" x="441.5" y="-274" font-family="Helvetica,sans-Serif" font-size="10.00">AffectorFactory</text>
</a>
</g>
</g>
<!-- Node1&#45;&gt;Node6 -->
<g id="edge5_Node000001_Node000006" class="edge">
<title>Node1&#45;&gt;Node6</title>
<g id="a_edge5_Node000001_Node000006"><a xlink:title=" ">
<path fill="none" stroke="#63b8ff" d="M275.26,-223.86C297.72,-234.03 329.43,-247.79 358,-258 366.71,-261.11 376.04,-264.12 385.18,-266.9"/>
<polygon fill="#63b8ff" stroke="#63b8ff" points="276.49,-220.57 265.94,-219.6 273.58,-226.94 276.49,-220.57"/>
</a>
</g>
</g>
<!-- Node7 -->
<g id="Node000007" class="node">
<title>Node7</title>
<g id="a_Node000007"><a xlink:href="class_ogre_1_1_deflector_plane_affector_factory.html" target="_top" xlink:title="Factory class for DeflectorPlaneAffector.">
<polygon fill="white" stroke="#666666" points="519,-249 364,-249 364,-219 519,-219 519,-249"/>
<text text-anchor="start" x="372" y="-237" font-family="Helvetica,sans-Serif" font-size="10.00">Ogre::DeflectorPlaneAffector</text>
<text text-anchor="middle" x="441.5" y="-226" font-family="Helvetica,sans-Serif" font-size="10.00">Factory</text>
</a>
</g>
</g>
<!-- Node1&#45;&gt;Node7 -->
<g id="edge6_Node000001_Node000007" class="edge">
<title>Node1&#45;&gt;Node7</title>
<g id="a_edge6_Node000001_Node000007"><a xlink:title=" ">
<path fill="none" stroke="#63b8ff" d="M332.1,-220.66C342.69,-221.96 353.46,-223.29 363.89,-224.57"/>
<polygon fill="#63b8ff" stroke="#63b8ff" points="332.36,-217.16 322.01,-219.42 331.51,-224.11 332.36,-217.16"/>
</a>
</g>
</g>
<!-- Node8 -->
<g id="Node000008" class="node">
<title>Node8</title>
<g id="a_Node000008"><a xlink:href="class_ogre_1_1_direction_randomiser_affector_factory.html" target="_top" xlink:title="Factory class for DirectionRandomiserAffector.">
<polygon fill="white" stroke="#666666" points="516,-201 367,-201 367,-171 516,-171 516,-201"/>
<text text-anchor="start" x="375" y="-189" font-family="Helvetica,sans-Serif" font-size="10.00">Ogre::DirectionRandomiser</text>
<text text-anchor="middle" x="441.5" y="-178" font-family="Helvetica,sans-Serif" font-size="10.00">AffectorFactory</text>
</a>
</g>
</g>
<!-- Node1&#45;&gt;Node8 -->
<g id="edge7_Node000001_Node000008" class="edge">
<title>Node1&#45;&gt;Node8</title>
<g id="a_edge7_Node000001_Node000008"><a xlink:title=" ">
<path fill="none" stroke="#63b8ff" d="M332.1,-199.34C343.67,-197.92 355.44,-196.47 366.76,-195.08"/>
<polygon fill="#63b8ff" stroke="#63b8ff" points="331.51,-195.89 322.01,-200.58 332.36,-202.84 331.51,-195.89"/>
</a>
</g>
</g>
<!-- Node9 -->
<g id="Node000009" class="node">
<title>Node9</title>
<g id="a_Node000009"><a xlink:href="class_ogre_1_1_linear_force_affector_factory.html" target="_top" xlink:title="Factory class for LinearForceAffector.">
<polygon fill="white" stroke="#666666" points="511.5,-153 371.5,-153 371.5,-123 511.5,-123 511.5,-153"/>
<text text-anchor="start" x="379.5" y="-141" font-family="Helvetica,sans-Serif" font-size="10.00">Ogre::LinearForceAffector</text>
<text text-anchor="middle" x="441.5" y="-130" font-family="Helvetica,sans-Serif" font-size="10.00">Factory</text>
</a>
</g>
</g>
<!-- Node1&#45;&gt;Node9 -->
<g id="edge8_Node000001_Node000009" class="edge">
<title>Node1&#45;&gt;Node9</title>
<g id="a_edge8_Node000001_Node000009"><a xlink:title=" ">
<path fill="none" stroke="#63b8ff" d="M275.26,-196.14C297.72,-185.97 329.43,-172.21 358,-162 366.71,-158.89 376.04,-155.88 385.18,-153.1"/>
<polygon fill="#63b8ff" stroke="#63b8ff" points="273.58,-193.06 265.94,-200.4 276.49,-199.43 273.58,-193.06"/>
</a>
</g>
</g>
<!-- Node10 -->
<g id="Node000010" class="node">
<title>Node10</title>
<g id="a_Node000010"><a xlink:href="class_ogre_1_1_rotation_affector_factory.html" target="_top" xlink:title="Factory class for RotationAffector.">
<polygon fill="white" stroke="#666666" points="522,-104.5 361,-104.5 361,-85.5 522,-85.5 522,-104.5"/>
<text text-anchor="middle" x="441.5" y="-92.5" font-family="Helvetica,sans-Serif" font-size="10.00">Ogre::RotationAffectorFactory</text>
</a>
</g>
</g>
<!-- Node1&#45;&gt;Node10 -->
<g id="edge9_Node000001_Node000010" class="edge">
<title>Node1&#45;&gt;Node10</title>
<g id="a_edge9_Node000001_Node000010"><a xlink:title=" ">
<path fill="none" stroke="#63b8ff" d="M260.52,-192.87C280.55,-171.13 318.14,-134.07 358,-114 365.75,-110.1 374.3,-106.99 382.89,-104.51"/>
<polygon fill="#63b8ff" stroke="#63b8ff" points="257.84,-190.61 253.74,-200.38 263.04,-195.31 257.84,-190.61"/>
</a>
</g>
</g>
<!-- Node11 -->
<g id="Node000011" class="node">
<title>Node11</title>
<g id="a_Node000011"><a xlink:href="class_ogre_1_1_scale_affector_factory.html" target="_top" xlink:title="Factory class for ScaleAffector.">
<polygon fill="white" stroke="#666666" points="514.5,-67.5 368.5,-67.5 368.5,-48.5 514.5,-48.5 514.5,-67.5"/>
<text text-anchor="middle" x="441.5" y="-55.5" font-family="Helvetica,sans-Serif" font-size="10.00">Ogre::ScaleAffectorFactory</text>
</a>
</g>
</g>
<!-- Node1&#45;&gt;Node11 -->
<g id="edge10_Node000001_Node000011" class="edge">
<title>Node1&#45;&gt;Node11</title>
<g id="a_edge10_Node000001_Node000011"><a xlink:title=" ">
<path fill="none" stroke="#63b8ff" d="M255.54,-191.54C272.54,-162.15 309.89,-105.08 358,-76 363.65,-72.59 369.86,-69.82 376.26,-67.57"/>
<polygon fill="#63b8ff" stroke="#63b8ff" points="252.43,-189.93 250.57,-200.37 258.53,-193.37 252.43,-189.93"/>
</a>
</g>
</g>
<!-- Node12 -->
<g id="Node000012" class="node">
<title>Node12</title>
<g id="a_Node000012"><a xlink:href="class_ogre_1_1_scale_interpolator_affector_factory.html" target="_top" xlink:title="Factory class for ScaleInterpolatorAffector.">
<polygon fill="white" stroke="#666666" points="525,-30 358,-30 358,0 525,0 525,-30"/>
<text text-anchor="start" x="366" y="-18" font-family="Helvetica,sans-Serif" font-size="10.00">Ogre::ScaleInterpolatorAffector</text>
<text text-anchor="middle" x="441.5" y="-7" font-family="Helvetica,sans-Serif" font-size="10.00">Factory</text>
</a>
</g>
</g>
<!-- Node1&#45;&gt;Node12 -->
<g id="edge11_Node000001_Node000012" class="edge">
<title>Node1&#45;&gt;Node12</title>
<g id="a_edge11_Node000001_Node000012"><a xlink:title=" ">
<path fill="none" stroke="#63b8ff" d="M252.96,-190.45C267.57,-154.83 303.33,-79.36 358,-39 362.68,-35.54 367.85,-32.58 373.25,-30.05"/>
<polygon fill="#63b8ff" stroke="#63b8ff" points="249.55,-189.55 249.11,-200.13 256.06,-192.13 249.55,-189.55"/>
</a>
</g>
</g>
<!-- Node2 -->
<g id="Node000002" class="node">
<title>Node2</title>
<g id="a_Node000002"><a xlink:title=" ">
<polygon fill="white" stroke="#666666" points="131,-219.5 0,-219.5 0,-200.5 131,-200.5 131,-219.5"/>
<text text-anchor="middle" x="65.5" y="-207.5" font-family="Helvetica,sans-Serif" font-size="10.00">Ogre::OgreAllocatedObj</text>
</a>
</g>
</g>
<!-- Node2&#45;&gt;Node1 -->
<g id="edge1_Node000001_Node000002" class="edge">
<title>Node2&#45;&gt;Node1</title>
<g id="a_edge1_Node000001_Node000002"><a xlink:title=" ">
<path fill="none" stroke="#63b8ff" d="M141.3,-210C149.7,-210 158.27,-210 166.7,-210"/>
<polygon fill="#63b8ff" stroke="#63b8ff" points="141.15,-206.5 131.15,-210 141.15,-213.5 141.15,-206.5"/>
</a>
</g>
</g>
</g>
</svg>
