<?xml version="1.0" encoding="UTF-8" standalone="no"?>
<!DOCTYPE svg PUBLIC "-//W3C//DTD SVG 1.1//EN"
 "http://www.w3.org/Graphics/SVG/1.1/DTD/svg11.dtd">
<!-- Generated by graphviz version 2.43.0 (0)
 -->
<!-- Title: Ogre::v1::OldNode Pages: 1 -->
<svg width="114pt" height="196pt"
 viewBox="0.00 0.00 114.00 196.00" xmlns="http://www.w3.org/2000/svg" xmlns:xlink="http://www.w3.org/1999/xlink">
<g id="graph0" class="graph" transform="scale(1 1) rotate(0) translate(4 192)">
<title>Ogre::v1::OldNode</title>
<!-- Node1 -->
<g id="node1" class="node">
<title>Node1</title>
<g id="a_node1"><a xlink:title="Class representing a general&#45;purpose OldNode an articulated scene graph.">
<polygon fill="#bfbfbf" stroke="black" points="0,-112.5 0,-131.5 106,-131.5 106,-112.5 0,-112.5"/>
<text text-anchor="middle" x="53" y="-119.5" font-family="Helvetica,sans-Serif" font-size="10.00">Ogre::v1::OldNode</text>
</a>
</g>
</g>
<!-- Node3 -->
<g id="node3" class="node">
<title>Node3</title>
<g id="a_node3"><a xlink:href="class_ogre_1_1v1_1_1_old_bone.html" target="_top" xlink:title="A bone in a skeleton.">
<polygon fill="none" stroke="black" points="0.5,-56.5 0.5,-75.5 105.5,-75.5 105.5,-56.5 0.5,-56.5"/>
<text text-anchor="middle" x="53" y="-63.5" font-family="Helvetica,sans-Serif" font-size="10.00">Ogre::v1::OldBone</text>
</a>
</g>
</g>
<!-- Node1&#45;&gt;Node3 -->
<g id="edge2" class="edge">
<title>Node1&#45;&gt;Node3</title>
<path fill="none" stroke="midnightblue" d="M53,-101.8C53,-92.91 53,-82.78 53,-75.75"/>
<polygon fill="midnightblue" stroke="midnightblue" points="49.5,-102.08 53,-112.08 56.5,-102.08 49.5,-102.08"/>
</g>
<!-- Node2 -->
<g id="node2" class="node">
<title>Node2</title>
<g id="a_node2"><a xlink:title=" ">
<polygon fill="none" stroke="#bfbfbf" points="2,-168.5 2,-187.5 104,-187.5 104,-168.5 2,-168.5"/>
<text text-anchor="middle" x="53" y="-175.5" font-family="Helvetica,sans-Serif" font-size="10.00">OgreAllocatedObj</text>
</a>
</g>
</g>
<!-- Node2&#45;&gt;Node1 -->
<g id="edge1" class="edge">
<title>Node2&#45;&gt;Node1</title>
<path fill="none" stroke="midnightblue" d="M53,-157.8C53,-148.91 53,-138.78 53,-131.75"/>
<polygon fill="midnightblue" stroke="midnightblue" points="49.5,-158.08 53,-168.08 56.5,-158.08 49.5,-158.08"/>
</g>
<!-- Node4 -->
<g id="node4" class="node">
<title>Node4</title>
<g id="a_node4"><a xlink:href="class_ogre_1_1v1_1_1_tag_point.html" target="_top" xlink:title="A tagged point on a skeleton, which can be used to attach entities to on specific other entities.">
<polygon fill="none" stroke="black" points="0.5,-0.5 0.5,-19.5 105.5,-19.5 105.5,-0.5 0.5,-0.5"/>
<text text-anchor="middle" x="53" y="-7.5" font-family="Helvetica,sans-Serif" font-size="10.00">Ogre::v1::TagPoint</text>
</a>
</g>
</g>
<!-- Node3&#45;&gt;Node4 -->
<g id="edge3" class="edge">
<title>Node3&#45;&gt;Node4</title>
<path fill="none" stroke="midnightblue" d="M53,-45.8C53,-36.91 53,-26.78 53,-19.75"/>
<polygon fill="midnightblue" stroke="midnightblue" points="49.5,-46.08 53,-56.08 56.5,-46.08 49.5,-46.08"/>
</g>
</g>
</svg>
