<?xml version="1.0" encoding="UTF-8" standalone="no"?>
<!DOCTYPE svg PUBLIC "-//W3C//DTD SVG 1.1//EN"
 "http://www.w3.org/Graphics/SVG/1.1/DTD/svg11.dtd">
<!-- Generated by graphviz version 2.43.0 (0)
 -->
<!-- Title: Ogre::Window Pages: 1 -->
<svg width="830pt" height="357pt"
 viewBox="0.00 0.00 830.00 356.50" xmlns="http://www.w3.org/2000/svg" xmlns:xlink="http://www.w3.org/1999/xlink">
<g id="graph0" class="graph" transform="scale(1 1) rotate(0) translate(4 352.5)">
<title>Ogre::Window</title>
<!-- Node1 -->
<g id="Node000001" class="node">
<title>Node1</title>
<g id="a_Node000001"><a xlink:title=" ">
<polygon fill="#999999" stroke="#666666" points="252,-189 167,-189 167,-170 252,-170 252,-189"/>
<text text-anchor="middle" x="209.5" y="-177" font-family="Helvetica,sans-Serif" font-size="10.00">Ogre::Window</text>
</a>
</g>
</g>
<!-- Node3 -->
<g id="Node000003" class="node">
<title>Node3</title>
<g id="a_Node000003"><a xlink:href="class_ogre_1_1_cocoa_window.html" target="_top" xlink:title=" ">
<polygon fill="white" stroke="#666666" points="413,-337 298,-337 298,-318 413,-318 413,-337"/>
<text text-anchor="middle" x="355.5" y="-325" font-family="Helvetica,sans-Serif" font-size="10.00">Ogre::CocoaWindow</text>
</a>
</g>
</g>
<!-- Node1&#45;&gt;Node3 -->
<g id="edge2_Node000001_Node000003" class="edge">
<title>Node1&#45;&gt;Node3</title>
<g id="a_edge2_Node000001_Node000003"><a xlink:title=" ">
<path fill="none" stroke="#63b8ff" d="M216.67,-198.67C226.86,-227.22 249.94,-280.64 288,-309.5 292.48,-312.9 297.56,-315.65 302.86,-317.89"/>
<polygon fill="#63b8ff" stroke="#63b8ff" points="219.93,-197.39 213.39,-189.05 213.3,-199.64 219.93,-197.39"/>
</a>
</g>
</g>
<!-- Node4 -->
<g id="Node000004" class="node">
<title>Node4</title>
<g id="a_Node000004"><a xlink:href="class_ogre_1_1_d3_d11_window.html" target="_top" xlink:title=" ">
<polygon fill="white" stroke="#666666" points="414.5,-300 296.5,-300 296.5,-281 414.5,-281 414.5,-300"/>
<text text-anchor="middle" x="355.5" y="-288" font-family="Helvetica,sans-Serif" font-size="10.00">Ogre::D3D11Window</text>
</a>
</g>
</g>
<!-- Node1&#45;&gt;Node4 -->
<g id="edge3_Node000001_Node000004" class="edge">
<title>Node1&#45;&gt;Node4</title>
<g id="a_edge3_Node000001_Node000004"><a xlink:title=" ">
<path fill="none" stroke="#63b8ff" d="M220.89,-197.74C233.87,-218.9 258.08,-253.32 288,-272.5 293.34,-275.92 299.31,-278.7 305.44,-280.95"/>
<polygon fill="#63b8ff" stroke="#63b8ff" points="223.84,-195.87 215.73,-189.06 217.82,-199.44 223.84,-195.87"/>
</a>
</g>
</g>
<!-- Node6 -->
<g id="Node000006" class="node">
<title>Node6</title>
<g id="a_Node000006"><a xlink:href="class_ogre_1_1_e_g_l_window.html" target="_top" xlink:title=" ">
<polygon fill="white" stroke="#666666" points="407,-263 304,-263 304,-244 407,-244 407,-263"/>
<text text-anchor="middle" x="355.5" y="-251" font-family="Helvetica,sans-Serif" font-size="10.00">Ogre::EGLWindow</text>
</a>
</g>
</g>
<!-- Node1&#45;&gt;Node6 -->
<g id="edge5_Node000001_Node000006" class="edge">
<title>Node1&#45;&gt;Node6</title>
<g id="a_edge5_Node000001_Node000006"><a xlink:title=" ">
<path fill="none" stroke="#63b8ff" d="M229.18,-195.99C244.16,-208.45 266.21,-225.11 288,-235.5 295.02,-238.85 302.76,-241.65 310.4,-243.98"/>
<polygon fill="#63b8ff" stroke="#63b8ff" points="231.12,-193.05 221.24,-189.23 226.58,-198.38 231.12,-193.05"/>
</a>
</g>
</g>
<!-- Node11 -->
<g id="Node000011" class="node">
<title>Node11</title>
<g id="a_Node000011"><a xlink:href="class_ogre_1_1_egl_p_buffer_window.html" target="_top" xlink:title="PBuffer implementation of EGL When supported, PBuffer is a surface&#45;less implementation of OpenGL.">
<polygon fill="white" stroke="#666666" points="423,-226 288,-226 288,-207 423,-207 423,-226"/>
<text text-anchor="middle" x="355.5" y="-214" font-family="Helvetica,sans-Serif" font-size="10.00">Ogre::EglPBufferWindow</text>
</a>
</g>
</g>
<!-- Node1&#45;&gt;Node11 -->
<g id="edge10_Node000001_Node000011" class="edge">
<title>Node1&#45;&gt;Node11</title>
<g id="a_edge10_Node000001_Node000011"><a xlink:title=" ">
<path fill="none" stroke="#63b8ff" d="M257.41,-191.55C276.73,-196.52 298.82,-202.19 317.04,-206.88"/>
<polygon fill="#63b8ff" stroke="#63b8ff" points="258.14,-188.13 247.58,-189.03 256.4,-194.91 258.14,-188.13"/>
</a>
</g>
</g>
<!-- Node12 -->
<g id="Node000012" class="node">
<title>Node12</title>
<g id="a_Node000012"><a xlink:href="class_ogre_1_1_g_l_x_window.html" target="_top" xlink:title=" ">
<polygon fill="white" stroke="#666666" points="407.5,-189 303.5,-189 303.5,-170 407.5,-170 407.5,-189"/>
<text text-anchor="middle" x="355.5" y="-177" font-family="Helvetica,sans-Serif" font-size="10.00">Ogre::GLXWindow</text>
</a>
</g>
</g>
<!-- Node1&#45;&gt;Node12 -->
<g id="edge11_Node000001_Node000012" class="edge">
<title>Node1&#45;&gt;Node12</title>
<g id="a_edge11_Node000001_Node000012"><a xlink:title=" ">
<path fill="none" stroke="#63b8ff" d="M262.19,-179.5C275.62,-179.5 290.09,-179.5 303.49,-179.5"/>
<polygon fill="#63b8ff" stroke="#63b8ff" points="262.15,-176 252.15,-179.5 262.15,-183 262.15,-176"/>
</a>
</g>
</g>
<!-- Node13 -->
<g id="Node000013" class="node">
<title>Node13</title>
<g id="a_Node000013"><a xlink:href="class_ogre_1_1_metal_window.html" target="_top" xlink:title=" ">
<polygon fill="white" stroke="#666666" points="412,-152 299,-152 299,-133 412,-133 412,-152"/>
<text text-anchor="middle" x="355.5" y="-140" font-family="Helvetica,sans-Serif" font-size="10.00">Ogre::MetalWindow</text>
</a>
</g>
</g>
<!-- Node1&#45;&gt;Node13 -->
<g id="edge12_Node000001_Node000013" class="edge">
<title>Node1&#45;&gt;Node13</title>
<g id="a_edge12_Node000001_Node000013"><a xlink:title=" ">
<path fill="none" stroke="#63b8ff" d="M257.41,-167.45C276.73,-162.48 298.82,-156.81 317.04,-152.12"/>
<polygon fill="#63b8ff" stroke="#63b8ff" points="256.4,-164.09 247.58,-169.97 258.14,-170.87 256.4,-164.09"/>
</a>
</g>
</g>
<!-- Node14 -->
<g id="Node000014" class="node">
<title>Node14</title>
<g id="a_Node000014"><a xlink:href="class_ogre_1_1_n_u_l_l_window.html" target="_top" xlink:title=" ">
<polygon fill="white" stroke="#666666" points="410.5,-115 300.5,-115 300.5,-96 410.5,-96 410.5,-115"/>
<text text-anchor="middle" x="355.5" y="-103" font-family="Helvetica,sans-Serif" font-size="10.00">Ogre::NULLWindow</text>
</a>
</g>
</g>
<!-- Node1&#45;&gt;Node14 -->
<g id="edge13_Node000001_Node000014" class="edge">
<title>Node1&#45;&gt;Node14</title>
<g id="a_edge13_Node000001_Node000014"><a xlink:title=" ">
<path fill="none" stroke="#63b8ff" d="M229.18,-163.01C244.16,-150.55 266.21,-133.89 288,-123.5 295.02,-120.15 302.76,-117.35 310.4,-115.02"/>
<polygon fill="#63b8ff" stroke="#63b8ff" points="226.58,-160.62 221.24,-169.77 231.12,-165.95 226.58,-160.62"/>
</a>
</g>
</g>
<!-- Node15 -->
<g id="Node000015" class="node">
<title>Node15</title>
<g id="a_Node000015"><a xlink:href="class_ogre_1_1_vulkan_window.html" target="_top" xlink:title=" ">
<polygon fill="white" stroke="#666666" points="414,-78 297,-78 297,-59 414,-59 414,-78"/>
<text text-anchor="middle" x="355.5" y="-66" font-family="Helvetica,sans-Serif" font-size="10.00">Ogre::VulkanWindow</text>
</a>
</g>
</g>
<!-- Node1&#45;&gt;Node15 -->
<g id="edge14_Node000001_Node000015" class="edge">
<title>Node1&#45;&gt;Node15</title>
<g id="a_edge14_Node000001_Node000015"><a xlink:title=" ">
<path fill="none" stroke="#63b8ff" d="M220.89,-161.26C233.87,-140.1 258.08,-105.68 288,-86.5 293.34,-83.08 299.31,-80.3 305.44,-78.05"/>
<polygon fill="#63b8ff" stroke="#63b8ff" points="217.82,-159.56 215.73,-169.94 223.84,-163.13 217.82,-159.56"/>
</a>
</g>
</g>
<!-- Node21 -->
<g id="Node000021" class="node">
<title>Node21</title>
<g id="a_Node000021"><a xlink:href="class_ogre_1_1_win32_window.html" target="_top" xlink:title=" ">
<polygon fill="white" stroke="#666666" points="413.5,-41 297.5,-41 297.5,-22 413.5,-22 413.5,-41"/>
<text text-anchor="middle" x="355.5" y="-29" font-family="Helvetica,sans-Serif" font-size="10.00">Ogre::Win32Window</text>
</a>
</g>
</g>
<!-- Node1&#45;&gt;Node21 -->
<g id="edge20_Node000001_Node000021" class="edge">
<title>Node1&#45;&gt;Node21</title>
<g id="a_edge20_Node000001_Node000021"><a xlink:title=" ">
<path fill="none" stroke="#63b8ff" d="M216.67,-160.33C226.86,-131.78 249.94,-78.36 288,-49.5 292.48,-46.1 297.56,-43.35 302.86,-41.11"/>
<polygon fill="#63b8ff" stroke="#63b8ff" points="213.3,-159.36 213.39,-169.95 219.93,-161.61 213.3,-159.36"/>
</a>
</g>
</g>
<!-- Node2 -->
<g id="Node000002" class="node">
<title>Node2</title>
<g id="a_Node000002"><a xlink:title=" ">
<polygon fill="white" stroke="#666666" points="131,-189 0,-189 0,-170 131,-170 131,-189"/>
<text text-anchor="middle" x="65.5" y="-177" font-family="Helvetica,sans-Serif" font-size="10.00">Ogre::OgreAllocatedObj</text>
</a>
</g>
</g>
<!-- Node2&#45;&gt;Node1 -->
<g id="edge1_Node000001_Node000002" class="edge">
<title>Node2&#45;&gt;Node1</title>
<g id="a_edge1_Node000001_Node000002"><a xlink:title=" ">
<path fill="none" stroke="#63b8ff" d="M141.54,-179.5C150.28,-179.5 158.95,-179.5 166.99,-179.5"/>
<polygon fill="#63b8ff" stroke="#63b8ff" points="141.27,-176 131.27,-179.5 141.27,-183 141.27,-176"/>
</a>
</g>
</g>
<!-- Node5 -->
<g id="Node000005" class="node">
<title>Node5</title>
<g id="a_Node000005"><a xlink:href="class_ogre_1_1_d3_d11_window_swap_chain_based.html" target="_top" xlink:title=" ">
<polygon fill="white" stroke="#666666" points="631,-348.5 459,-348.5 459,-318.5 631,-318.5 631,-348.5"/>
<text text-anchor="start" x="467" y="-336.5" font-family="Helvetica,sans-Serif" font-size="10.00">Ogre::D3D11WindowSwapChain</text>
<text text-anchor="middle" x="545" y="-325.5" font-family="Helvetica,sans-Serif" font-size="10.00">Based</text>
</a>
</g>
</g>
<!-- Node4&#45;&gt;Node5 -->
<g id="edge4_Node000004_Node000005" class="edge">
<title>Node4&#45;&gt;Node5</title>
<g id="a_edge4_Node000004_Node000005"><a xlink:title=" ">
<path fill="none" stroke="#63b8ff" d="M408.14,-302.34C429.91,-307.34 455.5,-313.2 478.57,-318.49"/>
<polygon fill="#63b8ff" stroke="#63b8ff" points="408.64,-298.87 398.11,-300.04 407.08,-305.69 408.64,-298.87"/>
</a>
</g>
</g>
<!-- Node7 -->
<g id="Node000007" class="node">
<title>Node7</title>
<g id="a_Node000007"><a xlink:href="class_ogre_1_1_android_e_g_l_window.html" target="_top" xlink:title=" ">
<polygon fill="white" stroke="#666666" points="615,-300 475,-300 475,-281 615,-281 615,-300"/>
<text text-anchor="middle" x="545" y="-288" font-family="Helvetica,sans-Serif" font-size="10.00">Ogre::AndroidEGLWindow</text>
</a>
</g>
</g>
<!-- Node6&#45;&gt;Node7 -->
<g id="edge6_Node000006_Node000007" class="edge">
<title>Node6&#45;&gt;Node7</title>
<g id="a_edge6_Node000006_Node000007"><a xlink:title=" ">
<path fill="none" stroke="#63b8ff" d="M414.86,-265.02C440.77,-270.13 470.91,-276.08 495.55,-280.94"/>
<polygon fill="#63b8ff" stroke="#63b8ff" points="415.27,-261.53 404.79,-263.03 413.92,-268.4 415.27,-261.53"/>
</a>
</g>
</g>
<!-- Node8 -->
<g id="Node000008" class="node">
<title>Node8</title>
<g id="a_Node000008"><a xlink:href="class_ogre_1_1_emscripten_e_g_l_window.html" target="_top" xlink:title=" ">
<polygon fill="white" stroke="#666666" points="624,-263 466,-263 466,-244 624,-244 624,-263"/>
<text text-anchor="middle" x="545" y="-251" font-family="Helvetica,sans-Serif" font-size="10.00">Ogre::EmscriptenEGLWindow</text>
</a>
</g>
</g>
<!-- Node6&#45;&gt;Node8 -->
<g id="edge7_Node000006_Node000008" class="edge">
<title>Node6&#45;&gt;Node8</title>
<g id="a_edge7_Node000006_Node000008"><a xlink:title=" ">
<path fill="none" stroke="#63b8ff" d="M417.63,-253.5C432.98,-253.5 449.65,-253.5 465.71,-253.5"/>
<polygon fill="#63b8ff" stroke="#63b8ff" points="417.24,-250 407.24,-253.5 417.24,-257 417.24,-250"/>
</a>
</g>
</g>
<!-- Node9 -->
<g id="Node000009" class="node">
<title>Node9</title>
<g id="a_Node000009"><a xlink:href="class_ogre_1_1_win32_e_g_l_window.html" target="_top" xlink:title=" ">
<polygon fill="white" stroke="#666666" points="612,-226 478,-226 478,-207 612,-207 612,-226"/>
<text text-anchor="middle" x="545" y="-214" font-family="Helvetica,sans-Serif" font-size="10.00">Ogre::Win32EGLWindow</text>
</a>
</g>
</g>
<!-- Node6&#45;&gt;Node9 -->
<g id="edge8_Node000006_Node000009" class="edge">
<title>Node6&#45;&gt;Node9</title>
<g id="a_edge8_Node000006_Node000009"><a xlink:title=" ">
<path fill="none" stroke="#63b8ff" d="M414.86,-241.98C440.77,-236.87 470.91,-230.92 495.55,-226.06"/>
<polygon fill="#63b8ff" stroke="#63b8ff" points="413.92,-238.6 404.79,-243.97 415.27,-245.47 413.92,-238.6"/>
</a>
</g>
</g>
<!-- Node10 -->
<g id="Node000010" class="node">
<title>Node10</title>
<g id="a_Node000010"><a xlink:href="class_ogre_1_1_x11_e_g_l_window.html" target="_top" xlink:title=" ">
<polygon fill="white" stroke="#666666" points="606,-189 484,-189 484,-170 606,-170 606,-189"/>
<text text-anchor="middle" x="545" y="-177" font-family="Helvetica,sans-Serif" font-size="10.00">Ogre::X11EGLWindow</text>
</a>
</g>
</g>
<!-- Node6&#45;&gt;Node10 -->
<g id="edge9_Node000006_Node000010" class="edge">
<title>Node6&#45;&gt;Node10</title>
<g id="a_edge9_Node000006_Node000010"><a xlink:title=" ">
<path fill="none" stroke="#63b8ff" d="M413.62,-240.27C416.87,-238.84 420.02,-237.25 423,-235.5 442.78,-223.87 438.97,-209.69 459,-198.5 466.66,-194.22 475.21,-190.91 483.85,-188.34"/>
<polygon fill="#63b8ff" stroke="#63b8ff" points="412.31,-237.02 404.27,-243.93 414.86,-243.54 412.31,-237.02"/>
</a>
</g>
</g>
<!-- Node16 -->
<g id="Node000016" class="node">
<title>Node16</title>
<g id="a_Node000016"><a xlink:href="class_ogre_1_1_vulkan_window_null.html" target="_top" xlink:title=" ">
<polygon fill="white" stroke="#666666" points="613.5,-99 476.5,-99 476.5,-80 613.5,-80 613.5,-99"/>
<text text-anchor="middle" x="545" y="-87" font-family="Helvetica,sans-Serif" font-size="10.00">Ogre::VulkanWindowNull</text>
</a>
</g>
</g>
<!-- Node15&#45;&gt;Node16 -->
<g id="edge15_Node000015_Node000016" class="edge">
<title>Node15&#45;&gt;Node16</title>
<g id="a_edge15_Node000015_Node000016"><a xlink:title=" ">
<path fill="none" stroke="#63b8ff" d="M424.39,-76.1C441.32,-78 459.46,-80.03 476.37,-81.93"/>
<polygon fill="#63b8ff" stroke="#63b8ff" points="424.36,-72.58 414.03,-74.94 423.58,-79.53 424.36,-72.58"/>
</a>
</g>
</g>
<!-- Node17 -->
<g id="Node000017" class="node">
<title>Node17</title>
<g id="a_Node000017"><a xlink:href="class_ogre_1_1_vulkan_window_swap_chain_based.html" target="_top" xlink:title=" ">
<polygon fill="white" stroke="#666666" points="630.5,-61.5 459.5,-61.5 459.5,-31.5 630.5,-31.5 630.5,-61.5"/>
<text text-anchor="start" x="467.5" y="-49.5" font-family="Helvetica,sans-Serif" font-size="10.00">Ogre::VulkanWindowSwapChain</text>
<text text-anchor="middle" x="545" y="-38.5" font-family="Helvetica,sans-Serif" font-size="10.00">Based</text>
</a>
</g>
</g>
<!-- Node15&#45;&gt;Node17 -->
<g id="edge16_Node000015_Node000017" class="edge">
<title>Node15&#45;&gt;Node17</title>
<g id="a_edge16_Node000015_Node000017"><a xlink:title=" ">
<path fill="none" stroke="#63b8ff" d="M424.3,-60.55C435.67,-59.21 447.59,-57.81 459.32,-56.44"/>
<polygon fill="#63b8ff" stroke="#63b8ff" points="423.55,-57.11 414.03,-61.75 424.37,-64.06 423.55,-57.11"/>
</a>
</g>
</g>
<!-- Node18 -->
<g id="Node000018" class="node">
<title>Node18</title>
<g id="a_Node000018"><a xlink:href="class_ogre_1_1_vulkan_android_window.html" target="_top" xlink:title=" ">
<polygon fill="white" stroke="#666666" points="822,-93 667,-93 667,-74 822,-74 822,-93"/>
<text text-anchor="middle" x="744.5" y="-81" font-family="Helvetica,sans-Serif" font-size="10.00">Ogre::VulkanAndroidWindow</text>
</a>
</g>
</g>
<!-- Node17&#45;&gt;Node18 -->
<g id="edge17_Node000017_Node000018" class="edge">
<title>Node17&#45;&gt;Node18</title>
<g id="a_edge17_Node000017_Node000018"><a xlink:title=" ">
<path fill="none" stroke="#63b8ff" d="M636.39,-63.43C655.73,-67.06 675.5,-70.76 692.7,-73.98"/>
<polygon fill="#63b8ff" stroke="#63b8ff" points="636.8,-59.95 626.33,-61.55 635.52,-66.83 636.8,-59.95"/>
</a>
</g>
</g>
<!-- Node19 -->
<g id="Node000019" class="node">
<title>Node19</title>
<g id="a_Node000019"><a xlink:href="class_ogre_1_1_vulkan_win32_window.html" target="_top" xlink:title=" ">
<polygon fill="white" stroke="#666666" points="818.5,-56 670.5,-56 670.5,-37 818.5,-37 818.5,-56"/>
<text text-anchor="middle" x="744.5" y="-44" font-family="Helvetica,sans-Serif" font-size="10.00">Ogre::VulkanWin32Window</text>
</a>
</g>
</g>
<!-- Node17&#45;&gt;Node19 -->
<g id="edge18_Node000017_Node000019" class="edge">
<title>Node17&#45;&gt;Node19</title>
<g id="a_edge18_Node000017_Node000019"><a xlink:title=" ">
<path fill="none" stroke="#63b8ff" d="M640.87,-46.5C650.75,-46.5 660.67,-46.5 670.26,-46.5"/>
<polygon fill="#63b8ff" stroke="#63b8ff" points="640.62,-43 630.62,-46.5 640.62,-50 640.62,-43"/>
</a>
</g>
</g>
<!-- Node20 -->
<g id="Node000020" class="node">
<title>Node20</title>
<g id="a_Node000020"><a xlink:href="class_ogre_1_1_vulkan_xcb_window.html" target="_top" xlink:title=" ">
<polygon fill="white" stroke="#666666" points="812,-19 677,-19 677,0 812,0 812,-19"/>
<text text-anchor="middle" x="744.5" y="-7" font-family="Helvetica,sans-Serif" font-size="10.00">Ogre::VulkanXcbWindow</text>
</a>
</g>
</g>
<!-- Node17&#45;&gt;Node20 -->
<g id="edge19_Node000017_Node000020" class="edge">
<title>Node17&#45;&gt;Node20</title>
<g id="a_edge19_Node000017_Node000020"><a xlink:title=" ">
<path fill="none" stroke="#63b8ff" d="M636.39,-29.57C655.73,-25.94 675.5,-22.24 692.7,-19.02"/>
<polygon fill="#63b8ff" stroke="#63b8ff" points="635.52,-26.17 626.33,-31.45 636.8,-33.05 635.52,-26.17"/>
</a>
</g>
</g>
</g>
</svg>
