<?xml version="1.0" encoding="UTF-8" standalone="no"?>
<!DOCTYPE svg PUBLIC "-//W3C//DTD SVG 1.1//EN"
 "http://www.w3.org/Graphics/SVG/1.1/DTD/svg11.dtd">
<!-- Generated by graphviz version 2.43.0 (0)
 -->
<!-- Title: Ogre::Volume::Source Pages: 1 -->
<svg width="555pt" height="329pt"
 viewBox="0.00 0.00 555.00 328.50" xmlns="http://www.w3.org/2000/svg" xmlns:xlink="http://www.w3.org/1999/xlink">
<g id="graph0" class="graph" transform="scale(1 1) rotate(0) translate(4 324.5)">
<title>Ogre::Volume::Source</title>
<!-- Node1 -->
<g id="node1" class="node">
<title>Node1</title>
<g id="a_node1"><a xlink:title="Abstract class defining the density function.">
<polygon fill="#bfbfbf" stroke="black" points="0,-164.5 0,-183.5 122,-183.5 122,-164.5 0,-164.5"/>
<text text-anchor="middle" x="61" y="-171.5" font-family="Helvetica,sans-Serif" font-size="10.00">Ogre::Volume::Source</text>
</a>
</g>
</g>
<!-- Node2 -->
<g id="node2" class="node">
<title>Node2</title>
<g id="a_node2"><a xlink:href="class_ogre_1_1_volume_1_1_c_s_g_cube_source.html" target="_top" xlink:title="A not rotated cube.">
<polygon fill="none" stroke="black" points="162.5,-290.5 162.5,-309.5 329.5,-309.5 329.5,-290.5 162.5,-290.5"/>
<text text-anchor="middle" x="246" y="-297.5" font-family="Helvetica,sans-Serif" font-size="10.00">Ogre::Volume::CSGCubeSource</text>
</a>
</g>
</g>
<!-- Node1&#45;&gt;Node2 -->
<g id="edge1" class="edge">
<title>Node1&#45;&gt;Node2</title>
<path fill="none" stroke="midnightblue" d="M72.99,-192.11C88.7,-216.34 119.92,-258.83 158,-281 164.68,-284.89 172.07,-287.98 179.64,-290.45"/>
<polygon fill="midnightblue" stroke="midnightblue" points="75.87,-190.11 67.58,-183.51 69.95,-193.84 75.87,-190.11"/>
</g>
<!-- Node3 -->
<g id="node3" class="node">
<title>Node3</title>
<g id="a_node3"><a xlink:href="class_ogre_1_1_volume_1_1_c_s_g_operation_source.html" target="_top" xlink:title="Abstract operation volume source holding two sources as operants.">
<polygon fill="none" stroke="black" points="167.5,-241 167.5,-271 324.5,-271 324.5,-241 167.5,-241"/>
<text text-anchor="start" x="175.5" y="-259" font-family="Helvetica,sans-Serif" font-size="10.00">Ogre::Volume::CSGOperation</text>
<text text-anchor="middle" x="246" y="-248" font-family="Helvetica,sans-Serif" font-size="10.00">Source</text>
</a>
</g>
</g>
<!-- Node1&#45;&gt;Node3 -->
<g id="edge2" class="edge">
<title>Node1&#45;&gt;Node3</title>
<path fill="none" stroke="midnightblue" d="M84.2,-189.41C103.12,-201.99 131.39,-219.5 158,-231 166.51,-234.68 175.72,-237.99 184.85,-240.9"/>
<polygon fill="midnightblue" stroke="midnightblue" points="85.96,-186.38 75.71,-183.68 82.04,-192.18 85.96,-186.38"/>
</g>
<!-- Node7 -->
<g id="node7" class="node">
<title>Node7</title>
<g id="a_node7"><a xlink:href="class_ogre_1_1_volume_1_1_c_s_g_plane_source.html" target="_top" xlink:title="A plane.">
<polygon fill="none" stroke="black" points="161.5,-202.5 161.5,-221.5 330.5,-221.5 330.5,-202.5 161.5,-202.5"/>
<text text-anchor="middle" x="246" y="-209.5" font-family="Helvetica,sans-Serif" font-size="10.00">Ogre::Volume::CSGPlaneSource</text>
</a>
</g>
</g>
<!-- Node1&#45;&gt;Node7 -->
<g id="edge6" class="edge">
<title>Node1&#45;&gt;Node7</title>
<path fill="none" stroke="midnightblue" d="M118.25,-185.68C144.21,-191.07 174.62,-197.39 199.15,-202.48"/>
<polygon fill="midnightblue" stroke="midnightblue" points="118.68,-182.2 108.18,-183.59 117.26,-189.05 118.68,-182.2"/>
</g>
<!-- Node8 -->
<g id="node8" class="node">
<title>Node8</title>
<g id="a_node8"><a xlink:href="class_ogre_1_1_volume_1_1_c_s_g_sphere_source.html" target="_top" xlink:title="A sphere.">
<polygon fill="none" stroke="black" points="158,-164.5 158,-183.5 334,-183.5 334,-164.5 158,-164.5"/>
<text text-anchor="middle" x="246" y="-171.5" font-family="Helvetica,sans-Serif" font-size="10.00">Ogre::Volume::CSGSphereSource</text>
</a>
</g>
</g>
<!-- Node1&#45;&gt;Node8 -->
<g id="edge7" class="edge">
<title>Node1&#45;&gt;Node8</title>
<path fill="none" stroke="midnightblue" d="M132.28,-174C140.68,-174 149.34,-174 157.94,-174"/>
<polygon fill="midnightblue" stroke="midnightblue" points="132.17,-170.5 122.17,-174 132.17,-177.5 132.17,-170.5"/>
</g>
<!-- Node9 -->
<g id="node9" class="node">
<title>Node9</title>
<g id="a_node9"><a xlink:href="class_ogre_1_1_volume_1_1_c_s_g_unary_source.html" target="_top" xlink:title="Source which does a unary operation to another one.">
<polygon fill="none" stroke="black" points="160.5,-126.5 160.5,-145.5 331.5,-145.5 331.5,-126.5 160.5,-126.5"/>
<text text-anchor="middle" x="246" y="-133.5" font-family="Helvetica,sans-Serif" font-size="10.00">Ogre::Volume::CSGUnarySource</text>
</a>
</g>
</g>
<!-- Node1&#45;&gt;Node9 -->
<g id="edge8" class="edge">
<title>Node1&#45;&gt;Node9</title>
<path fill="none" stroke="midnightblue" d="M118.25,-162.32C144.21,-156.93 174.62,-150.61 199.15,-145.52"/>
<polygon fill="midnightblue" stroke="midnightblue" points="117.26,-158.95 108.18,-164.41 118.68,-165.8 117.26,-158.95"/>
</g>
<!-- Node13 -->
<g id="node13" class="node">
<title>Node13</title>
<g id="a_node13"><a xlink:href="class_ogre_1_1_volume_1_1_cache_source.html" target="_top" xlink:title="A caching Source.">
<polygon fill="none" stroke="black" points="170,-88.5 170,-107.5 322,-107.5 322,-88.5 170,-88.5"/>
<text text-anchor="middle" x="246" y="-95.5" font-family="Helvetica,sans-Serif" font-size="10.00">Ogre::Volume::CacheSource</text>
</a>
</g>
</g>
<!-- Node1&#45;&gt;Node13 -->
<g id="edge12" class="edge">
<title>Node1&#45;&gt;Node13</title>
<path fill="none" stroke="midnightblue" d="M83.37,-158.58C102.17,-145.69 130.72,-127.75 158,-117 167.64,-113.2 178.19,-110.09 188.52,-107.57"/>
<polygon fill="midnightblue" stroke="midnightblue" points="81.16,-155.85 74.97,-164.44 85.17,-161.59 81.16,-155.85"/>
</g>
<!-- Node14 -->
<g id="node14" class="node">
<title>Node14</title>
<g id="a_node14"><a xlink:href="class_ogre_1_1_volume_1_1_grid_source.html" target="_top" xlink:title="A volume source from a discrete 3d grid.">
<polygon fill="none" stroke="black" points="175,-44.5 175,-63.5 317,-63.5 317,-44.5 175,-44.5"/>
<text text-anchor="middle" x="246" y="-51.5" font-family="Helvetica,sans-Serif" font-size="10.00">Ogre::Volume::GridSource</text>
</a>
</g>
</g>
<!-- Node1&#45;&gt;Node14 -->
<g id="edge13" class="edge">
<title>Node1&#45;&gt;Node14</title>
<path fill="none" stroke="midnightblue" d="M75.17,-156.38C92.05,-135.01 123.33,-99.32 158,-79 169.53,-72.25 182.99,-67.22 195.83,-63.52"/>
<polygon fill="midnightblue" stroke="midnightblue" points="72.38,-154.27 69.03,-164.33 77.92,-158.55 72.38,-154.27"/>
</g>
<!-- Node4 -->
<g id="node4" class="node">
<title>Node4</title>
<g id="a_node4"><a xlink:href="class_ogre_1_1_volume_1_1_c_s_g_difference_source.html" target="_top" xlink:title="Builds the difference between two sources.">
<polygon fill="none" stroke="black" points="379,-290 379,-320 538,-320 538,-290 379,-290"/>
<text text-anchor="start" x="387" y="-308" font-family="Helvetica,sans-Serif" font-size="10.00">Ogre::Volume::CSGDifference</text>
<text text-anchor="middle" x="458.5" y="-297" font-family="Helvetica,sans-Serif" font-size="10.00">Source</text>
</a>
</g>
</g>
<!-- Node3&#45;&gt;Node4 -->
<g id="edge3" class="edge">
<title>Node3&#45;&gt;Node4</title>
<path fill="none" stroke="midnightblue" d="M321.45,-273.33C344.82,-278.77 370.42,-284.73 393.03,-289.99"/>
<polygon fill="midnightblue" stroke="midnightblue" points="322.12,-269.89 311.59,-271.03 320.53,-276.71 322.12,-269.89"/>
</g>
<!-- Node5 -->
<g id="node5" class="node">
<title>Node5</title>
<g id="a_node5"><a xlink:href="class_ogre_1_1_volume_1_1_c_s_g_intersection_source.html" target="_top" xlink:title="Builds the intersection between two sources.">
<polygon fill="none" stroke="black" points="375,-241 375,-271 542,-271 542,-241 375,-241"/>
<text text-anchor="start" x="383" y="-259" font-family="Helvetica,sans-Serif" font-size="10.00">Ogre::Volume::CSGIntersection</text>
<text text-anchor="middle" x="458.5" y="-248" font-family="Helvetica,sans-Serif" font-size="10.00">Source</text>
</a>
</g>
</g>
<!-- Node3&#45;&gt;Node5 -->
<g id="edge4" class="edge">
<title>Node3&#45;&gt;Node5</title>
<path fill="none" stroke="midnightblue" d="M334.81,-256C348.03,-256 361.63,-256 374.74,-256"/>
<polygon fill="midnightblue" stroke="midnightblue" points="334.78,-252.5 324.78,-256 334.78,-259.5 334.78,-252.5"/>
</g>
<!-- Node6 -->
<g id="node6" class="node">
<title>Node6</title>
<g id="a_node6"><a xlink:href="class_ogre_1_1_volume_1_1_c_s_g_union_source.html" target="_top" xlink:title="Builds the union between two sources.">
<polygon fill="none" stroke="black" points="373.5,-202.5 373.5,-221.5 543.5,-221.5 543.5,-202.5 373.5,-202.5"/>
<text text-anchor="middle" x="458.5" y="-209.5" font-family="Helvetica,sans-Serif" font-size="10.00">Ogre::Volume::CSGUnionSource</text>
</a>
</g>
</g>
<!-- Node3&#45;&gt;Node6 -->
<g id="edge5" class="edge">
<title>Node3&#45;&gt;Node6</title>
<path fill="none" stroke="midnightblue" d="M328.74,-238.91C357.02,-233 387.68,-226.59 411.99,-221.51"/>
<polygon fill="midnightblue" stroke="midnightblue" points="327.93,-235.51 318.85,-240.98 329.36,-242.36 327.93,-235.51"/>
</g>
<!-- Node10 -->
<g id="node10" class="node">
<title>Node10</title>
<g id="a_node10"><a xlink:href="class_ogre_1_1_volume_1_1_c_s_g_negate_source.html" target="_top" xlink:title="Negates the given volume.">
<polygon fill="none" stroke="black" points="370,-164.5 370,-183.5 547,-183.5 547,-164.5 370,-164.5"/>
<text text-anchor="middle" x="458.5" y="-171.5" font-family="Helvetica,sans-Serif" font-size="10.00">Ogre::Volume::CSGNegateSource</text>
</a>
</g>
</g>
<!-- Node9&#45;&gt;Node10 -->
<g id="edge9" class="edge">
<title>Node9&#45;&gt;Node10</title>
<path fill="none" stroke="midnightblue" d="M309.86,-147.35C340.06,-152.8 375.85,-159.26 404.63,-164.46"/>
<polygon fill="midnightblue" stroke="midnightblue" points="310.31,-143.87 299.85,-145.54 309.07,-150.76 310.31,-143.87"/>
</g>
<!-- Node11 -->
<g id="node11" class="node">
<title>Node11</title>
<g id="a_node11"><a xlink:href="class_ogre_1_1_volume_1_1_c_s_g_noise_source.html" target="_top" xlink:title=" ">
<polygon fill="none" stroke="black" points="373.5,-126.5 373.5,-145.5 543.5,-145.5 543.5,-126.5 373.5,-126.5"/>
<text text-anchor="middle" x="458.5" y="-133.5" font-family="Helvetica,sans-Serif" font-size="10.00">Ogre::Volume::CSGNoiseSource</text>
</a>
</g>
</g>
<!-- Node9&#45;&gt;Node11 -->
<g id="edge10" class="edge">
<title>Node9&#45;&gt;Node11</title>
<path fill="none" stroke="midnightblue" d="M341.74,-136C352.26,-136 362.93,-136 373.31,-136"/>
<polygon fill="midnightblue" stroke="midnightblue" points="341.71,-132.5 331.71,-136 341.71,-139.5 341.71,-132.5"/>
</g>
<!-- Node12 -->
<g id="node12" class="node">
<title>Node12</title>
<g id="a_node12"><a xlink:href="class_ogre_1_1_volume_1_1_c_s_g_scale_source.html" target="_top" xlink:title="Scales the given volume source.">
<polygon fill="none" stroke="black" points="374.5,-88.5 374.5,-107.5 542.5,-107.5 542.5,-88.5 374.5,-88.5"/>
<text text-anchor="middle" x="458.5" y="-95.5" font-family="Helvetica,sans-Serif" font-size="10.00">Ogre::Volume::CSGScaleSource</text>
</a>
</g>
</g>
<!-- Node9&#45;&gt;Node12 -->
<g id="edge11" class="edge">
<title>Node9&#45;&gt;Node12</title>
<path fill="none" stroke="midnightblue" d="M309.86,-124.65C340.06,-119.2 375.85,-112.74 404.63,-107.54"/>
<polygon fill="midnightblue" stroke="midnightblue" points="309.07,-121.24 299.85,-126.46 310.31,-128.13 309.07,-121.24"/>
</g>
<!-- Node15 -->
<g id="node15" class="node">
<title>Node15</title>
<g id="a_node15"><a xlink:href="class_ogre_1_1_volume_1_1_half_float_grid_source.html" target="_top" xlink:title="A volume source from a 16 Bit float 3D grid capable of loading volume serializations.">
<polygon fill="none" stroke="black" points="381.5,-39 381.5,-69 535.5,-69 535.5,-39 381.5,-39"/>
<text text-anchor="start" x="389.5" y="-57" font-family="Helvetica,sans-Serif" font-size="10.00">Ogre::Volume::HalfFloatGrid</text>
<text text-anchor="middle" x="458.5" y="-46" font-family="Helvetica,sans-Serif" font-size="10.00">Source</text>
</a>
</g>
</g>
<!-- Node14&#45;&gt;Node15 -->
<g id="edge14" class="edge">
<title>Node14&#45;&gt;Node15</title>
<path fill="none" stroke="midnightblue" d="M327.37,-54C345.03,-54 363.69,-54 381.2,-54"/>
<polygon fill="midnightblue" stroke="midnightblue" points="327.09,-50.5 317.09,-54 327.09,-57.5 327.09,-50.5"/>
</g>
<!-- Node16 -->
<g id="node16" class="node">
<title>Node16</title>
<g id="a_node16"><a xlink:href="class_ogre_1_1_volume_1_1_texture_source.html" target="_top" xlink:title="A volume source from a 3D texture.">
<polygon fill="none" stroke="black" points="379.5,-0.5 379.5,-19.5 537.5,-19.5 537.5,-0.5 379.5,-0.5"/>
<text text-anchor="middle" x="458.5" y="-7.5" font-family="Helvetica,sans-Serif" font-size="10.00">Ogre::Volume::TextureSource</text>
</a>
</g>
</g>
<!-- Node14&#45;&gt;Node16 -->
<g id="edge15" class="edge">
<title>Node14&#45;&gt;Node16</title>
<path fill="none" stroke="midnightblue" d="M302.5,-42.4C336.62,-35.27 379.8,-26.24 411.91,-19.53"/>
<polygon fill="midnightblue" stroke="midnightblue" points="301.75,-38.98 292.68,-44.45 303.18,-45.83 301.75,-38.98"/>
</g>
</g>
</svg>
