<?xml version="1.0" encoding="UTF-8" standalone="no"?>
<!DOCTYPE svg PUBLIC "-//W3C//DTD SVG 1.1//EN"
 "http://www.w3.org/Graphics/SVG/1.1/DTD/svg11.dtd">
<!-- Generated by graphviz version 2.43.0 (0)
 -->
<!-- Title: Ogre::v1::MeshSerializerImpl_v1_41 Pages: 1 -->
<svg width="166pt" height="553pt"
 viewBox="0.00 0.00 166.00 553.00" xmlns="http://www.w3.org/2000/svg" xmlns:xlink="http://www.w3.org/1999/xlink">
<g id="graph0" class="graph" transform="scale(1 1) rotate(0) translate(4 549)">
<title>Ogre::v1::MeshSerializerImpl_v1_41</title>
<!-- Node1 -->
<g id="node1" class="node">
<title>Node1</title>
<g id="a_node1"><a xlink:title="Class for providing backwards&#45;compatibility for loading version 1.41 of the .mesh format.">
<polygon fill="#bfbfbf" stroke="black" points="11,-268.5 11,-298.5 147,-298.5 147,-268.5 11,-268.5"/>
<text text-anchor="start" x="19" y="-286.5" font-family="Helvetica,sans-Serif" font-size="10.00">Ogre::v1::MeshSerializer</text>
<text text-anchor="middle" x="79" y="-275.5" font-family="Helvetica,sans-Serif" font-size="10.00">Impl_v1_41</text>
</a>
</g>
</g>
<!-- Node7 -->
<g id="node6" class="node">
<title>Node7</title>
<g id="a_node6"><a xlink:href="class_ogre_1_1v1_1_1_mesh_serializer_impl__v1__4.html" target="_top" xlink:title="Class for providing backwards&#45;compatibility for loading version 1.4 of the .mesh format.">
<polygon fill="none" stroke="black" points="11,-201.5 11,-231.5 147,-231.5 147,-201.5 11,-201.5"/>
<text text-anchor="start" x="19" y="-219.5" font-family="Helvetica,sans-Serif" font-size="10.00">Ogre::v1::MeshSerializer</text>
<text text-anchor="middle" x="79" y="-208.5" font-family="Helvetica,sans-Serif" font-size="10.00">Impl_v1_4</text>
</a>
</g>
</g>
<!-- Node1&#45;&gt;Node7 -->
<g id="edge5" class="edge">
<title>Node1&#45;&gt;Node7</title>
<path fill="none" stroke="midnightblue" d="M79,-258.11C79,-249.15 79,-239.32 79,-231.58"/>
<polygon fill="midnightblue" stroke="midnightblue" points="75.5,-258.4 79,-268.4 82.5,-258.4 75.5,-258.4"/>
</g>
<!-- Node2 -->
<g id="node2" class="node">
<title>Node2</title>
<g id="a_node2"><a xlink:href="class_ogre_1_1v1_1_1_mesh_serializer_impl__v1__8.html" target="_top" xlink:title="Class for providing backwards&#45;compatibility for loading version 1.8 of the .mesh format.">
<polygon fill="none" stroke="black" points="11,-335.5 11,-365.5 147,-365.5 147,-335.5 11,-335.5"/>
<text text-anchor="start" x="19" y="-353.5" font-family="Helvetica,sans-Serif" font-size="10.00">Ogre::v1::MeshSerializer</text>
<text text-anchor="middle" x="79" y="-342.5" font-family="Helvetica,sans-Serif" font-size="10.00">Impl_v1_8</text>
</a>
</g>
</g>
<!-- Node2&#45;&gt;Node1 -->
<g id="edge1" class="edge">
<title>Node2&#45;&gt;Node1</title>
<path fill="none" stroke="midnightblue" d="M79,-325.11C79,-316.15 79,-306.32 79,-298.58"/>
<polygon fill="midnightblue" stroke="midnightblue" points="75.5,-325.4 79,-335.4 82.5,-325.4 75.5,-325.4"/>
</g>
<!-- Node3 -->
<g id="node3" class="node">
<title>Node3</title>
<g id="a_node3"><a xlink:href="class_ogre_1_1v1_1_1_mesh_serializer_impl__v1__10.html" target="_top" xlink:title="Class for providing backwards&#45;compatibility for loading version 1.10 of the .mesh format.">
<polygon fill="none" stroke="black" points="11,-402.5 11,-432.5 147,-432.5 147,-402.5 11,-402.5"/>
<text text-anchor="start" x="19" y="-420.5" font-family="Helvetica,sans-Serif" font-size="10.00">Ogre::v1::MeshSerializer</text>
<text text-anchor="middle" x="79" y="-409.5" font-family="Helvetica,sans-Serif" font-size="10.00">Impl_v1_10</text>
</a>
</g>
</g>
<!-- Node3&#45;&gt;Node2 -->
<g id="edge2" class="edge">
<title>Node3&#45;&gt;Node2</title>
<path fill="none" stroke="midnightblue" d="M79,-392.11C79,-383.15 79,-373.32 79,-365.58"/>
<polygon fill="midnightblue" stroke="midnightblue" points="75.5,-392.4 79,-402.4 82.5,-392.4 75.5,-392.4"/>
</g>
<!-- Node4 -->
<g id="node4" class="node">
<title>Node4</title>
<g id="a_node4"><a xlink:href="class_ogre_1_1v1_1_1_mesh_serializer_impl.html" target="_top" xlink:title="Internal implementation of Mesh reading / writing for the latest version of the .mesh format.">
<polygon fill="none" stroke="black" points="0,-469.5 0,-488.5 158,-488.5 158,-469.5 0,-469.5"/>
<text text-anchor="middle" x="79" y="-476.5" font-family="Helvetica,sans-Serif" font-size="10.00">Ogre::v1::MeshSerializerImpl</text>
</a>
</g>
</g>
<!-- Node4&#45;&gt;Node3 -->
<g id="edge3" class="edge">
<title>Node4&#45;&gt;Node3</title>
<path fill="none" stroke="midnightblue" d="M79,-459.23C79,-450.59 79,-440.5 79,-432.52"/>
<polygon fill="midnightblue" stroke="midnightblue" points="75.5,-459.48 79,-469.48 82.5,-459.48 75.5,-459.48"/>
</g>
<!-- Node5 -->
<g id="node5" class="node">
<title>Node5</title>
<g id="a_node5"><a xlink:href="class_ogre_1_1_serializer.html" target="_top" xlink:title="Generic class for serialising data to / from binary stream&#45;based files.">
<polygon fill="none" stroke="red" points="33,-525.5 33,-544.5 125,-544.5 125,-525.5 33,-525.5"/>
<text text-anchor="middle" x="79" y="-532.5" font-family="Helvetica,sans-Serif" font-size="10.00">Ogre::Serializer</text>
</a>
</g>
</g>
<!-- Node5&#45;&gt;Node4 -->
<g id="edge4" class="edge">
<title>Node5&#45;&gt;Node4</title>
<path fill="none" stroke="midnightblue" d="M79,-514.8C79,-505.91 79,-495.78 79,-488.75"/>
<polygon fill="midnightblue" stroke="midnightblue" points="75.5,-515.08 79,-525.08 82.5,-515.08 75.5,-515.08"/>
</g>
<!-- Node8 -->
<g id="node7" class="node">
<title>Node8</title>
<g id="a_node7"><a xlink:href="class_ogre_1_1v1_1_1_mesh_serializer_impl__v1__3.html" target="_top" xlink:title="Class for providing backwards&#45;compatibility for loading version 1.3 of the .mesh format.">
<polygon fill="none" stroke="black" points="11,-134.5 11,-164.5 147,-164.5 147,-134.5 11,-134.5"/>
<text text-anchor="start" x="19" y="-152.5" font-family="Helvetica,sans-Serif" font-size="10.00">Ogre::v1::MeshSerializer</text>
<text text-anchor="middle" x="79" y="-141.5" font-family="Helvetica,sans-Serif" font-size="10.00">Impl_v1_3</text>
</a>
</g>
</g>
<!-- Node7&#45;&gt;Node8 -->
<g id="edge6" class="edge">
<title>Node7&#45;&gt;Node8</title>
<path fill="none" stroke="midnightblue" d="M79,-191.11C79,-182.15 79,-172.32 79,-164.58"/>
<polygon fill="midnightblue" stroke="midnightblue" points="75.5,-191.4 79,-201.4 82.5,-191.4 75.5,-191.4"/>
</g>
<!-- Node9 -->
<g id="node8" class="node">
<title>Node9</title>
<g id="a_node8"><a xlink:href="class_ogre_1_1v1_1_1_mesh_serializer_impl__v1__2.html" target="_top" xlink:title="Class for providing backwards&#45;compatibility for loading version 1.2 of the .mesh format.">
<polygon fill="none" stroke="black" points="11,-67.5 11,-97.5 147,-97.5 147,-67.5 11,-67.5"/>
<text text-anchor="start" x="19" y="-85.5" font-family="Helvetica,sans-Serif" font-size="10.00">Ogre::v1::MeshSerializer</text>
<text text-anchor="middle" x="79" y="-74.5" font-family="Helvetica,sans-Serif" font-size="10.00">Impl_v1_2</text>
</a>
</g>
</g>
<!-- Node8&#45;&gt;Node9 -->
<g id="edge7" class="edge">
<title>Node8&#45;&gt;Node9</title>
<path fill="none" stroke="midnightblue" d="M79,-124.11C79,-115.15 79,-105.32 79,-97.58"/>
<polygon fill="midnightblue" stroke="midnightblue" points="75.5,-124.4 79,-134.4 82.5,-124.4 75.5,-124.4"/>
</g>
<!-- Node10 -->
<g id="node9" class="node">
<title>Node10</title>
<g id="a_node9"><a xlink:href="class_ogre_1_1v1_1_1_mesh_serializer_impl__v1__1.html" target="_top" xlink:title="Class for providing backwards&#45;compatibility for loading version 1.1 of the .mesh format.">
<polygon fill="none" stroke="black" points="11,-0.5 11,-30.5 147,-30.5 147,-0.5 11,-0.5"/>
<text text-anchor="start" x="19" y="-18.5" font-family="Helvetica,sans-Serif" font-size="10.00">Ogre::v1::MeshSerializer</text>
<text text-anchor="middle" x="79" y="-7.5" font-family="Helvetica,sans-Serif" font-size="10.00">Impl_v1_1</text>
</a>
</g>
</g>
<!-- Node9&#45;&gt;Node10 -->
<g id="edge8" class="edge">
<title>Node9&#45;&gt;Node10</title>
<path fill="none" stroke="midnightblue" d="M79,-57.11C79,-48.15 79,-38.32 79,-30.58"/>
<polygon fill="midnightblue" stroke="midnightblue" points="75.5,-57.4 79,-67.4 82.5,-57.4 75.5,-57.4"/>
</g>
</g>
</svg>
