<?xml version="1.0" encoding="UTF-8" standalone="no"?>
<!DOCTYPE svg PUBLIC "-//W3C//DTD SVG 1.1//EN"
 "http://www.w3.org/Graphics/SVG/1.1/DTD/svg11.dtd">
<!-- Generated by graphviz version 2.43.0 (0)
 -->
<!-- Title: Graphical Class Hierarchy Pages: 1 -->
<svg width="281pt" height="101pt"
 viewBox="0.00 0.00 281.00 101.00" xmlns="http://www.w3.org/2000/svg" xmlns:xlink="http://www.w3.org/1999/xlink">
<g id="graph0" class="graph" transform="scale(1 1) rotate(0) translate(4 97)">
<title>Graphical Class Hierarchy</title>
<!-- Node0 -->
<g id="Node000000" class="node">
<title>Node0</title>
<g id="a_Node000000"><a xlink:href="struct_ogre_1_1_basic_block.html" target="_top" xlink:title=" ">
<polygon fill="white" stroke="#666666" points="99,-56 0,-56 0,-37 99,-37 99,-56"/>
<text text-anchor="middle" x="49.5" y="-44" font-family="Helvetica,sans-Serif" font-size="10.00">Ogre::BasicBlock</text>
</a>
</g>
</g>
<!-- Node1 -->
<g id="Node000001" class="node">
<title>Node1</title>
<g id="a_Node000001"><a xlink:href="struct_ogre_1_1_hlms_blendblock.html" target="_top" xlink:title="A blend block contains settings that rarely change, and thus are common to many materials.">
<polygon fill="white" stroke="#666666" points="266.5,-93 141.5,-93 141.5,-74 266.5,-74 266.5,-93"/>
<text text-anchor="middle" x="204" y="-81" font-family="Helvetica,sans-Serif" font-size="10.00">Ogre::HlmsBlendblock</text>
</a>
</g>
</g>
<!-- Node0&#45;&gt;Node1 -->
<g id="edge768_Node000000_Node000001" class="edge">
<title>Node0&#45;&gt;Node1</title>
<g id="a_edge768_Node000000_Node000001"><a xlink:title=" ">
<path fill="none" stroke="#63b8ff" d="M99.65,-58.43C120.34,-63.44 144.09,-69.21 163.6,-73.94"/>
<polygon fill="#63b8ff" stroke="#63b8ff" points="100.32,-54.98 89.77,-56.03 98.67,-61.79 100.32,-54.98"/>
</a>
</g>
</g>
<!-- Node2 -->
<g id="Node000002" class="node">
<title>Node2</title>
<g id="a_Node000002"><a xlink:href="struct_ogre_1_1_hlms_macroblock.html" target="_top" xlink:title="A macro block contains settings that will rarely change, and thus are common to many materials.">
<polygon fill="white" stroke="#666666" points="268,-56 140,-56 140,-37 268,-37 268,-56"/>
<text text-anchor="middle" x="204" y="-44" font-family="Helvetica,sans-Serif" font-size="10.00">Ogre::HlmsMacroblock</text>
</a>
</g>
</g>
<!-- Node0&#45;&gt;Node2 -->
<g id="edge769_Node000000_Node000002" class="edge">
<title>Node0&#45;&gt;Node2</title>
<g id="a_edge769_Node000000_Node000002"><a xlink:title=" ">
<path fill="none" stroke="#63b8ff" d="M109.36,-46.5C119.31,-46.5 129.68,-46.5 139.74,-46.5"/>
<polygon fill="#63b8ff" stroke="#63b8ff" points="109.17,-43 99.17,-46.5 109.17,-50 109.17,-43"/>
</a>
</g>
</g>
<!-- Node3 -->
<g id="Node000003" class="node">
<title>Node3</title>
<g id="a_Node000003"><a xlink:href="struct_ogre_1_1_hlms_samplerblock.html" target="_top" xlink:title="A sampler block contains settings that go hand in hand with a texture, and thus are common to many te...">
<polygon fill="white" stroke="#666666" points="273,-19 135,-19 135,0 273,0 273,-19"/>
<text text-anchor="middle" x="204" y="-7" font-family="Helvetica,sans-Serif" font-size="10.00">Ogre::HlmsSamplerblock</text>
</a>
</g>
</g>
<!-- Node0&#45;&gt;Node3 -->
<g id="edge770_Node000000_Node000003" class="edge">
<title>Node0&#45;&gt;Node3</title>
<g id="a_edge770_Node000000_Node000003"><a xlink:title=" ">
<path fill="none" stroke="#63b8ff" d="M99.65,-34.57C120.34,-29.56 144.09,-23.79 163.6,-19.06"/>
<polygon fill="#63b8ff" stroke="#63b8ff" points="98.67,-31.21 89.77,-36.97 100.32,-38.02 98.67,-31.21"/>
</a>
</g>
</g>
</g>
</svg>
