<?xml version="1.0" encoding="UTF-8" standalone="no"?>
<!DOCTYPE svg PUBLIC "-//W3C//DTD SVG 1.1//EN"
 "http://www.w3.org/Graphics/SVG/1.1/DTD/svg11.dtd">
<!-- Generated by graphviz version 9.0.0 (20230911.1827)
 -->
<!-- Title: Ogre::SceneFormatListener Pages: 1 -->
<svg width="306pt" height="149pt"
 viewBox="0.00 0.00 306.12 149.00" xmlns="http://www.w3.org/2000/svg" xmlns:xlink="http://www.w3.org/1999/xlink">
<g id="graph0" class="graph" transform="scale(1 1) rotate(0) translate(4 145)">
<title>Ogre::SceneFormatListener</title>
<!-- Node1 -->
<g id="Node000001" class="node">
<title>Node1</title>
<g id="a_Node000001"><a xlink:title="Override this listener if you want to filter which objects get exported.">
<polygon fill="#999999" stroke="#666666" points="207.12,-85.75 71.88,-85.75 71.88,-66.5 207.12,-66.5 207.12,-85.75"/>
<text text-anchor="middle" x="139.5" y="-72.25" font-family="Helvetica,sans-Serif" font-size="10.00">Ogre::SceneFormatListener</text>
</a>
</g>
</g>
<!-- Node4 -->
<g id="Node000004" class="node">
<title>Node4</title>
<g id="a_Node000004"><a xlink:href="class_ogre_1_1_default_scene_format_listener.html" target="_top" xlink:title="Default implementation that prevents a SceneNode from being exported if the only attached objects.">
<polygon fill="white" stroke="#666666" points="204.88,-30.5 74.12,-30.5 74.12,0 204.88,0 204.88,-30.5"/>
<text text-anchor="start" x="82.12" y="-17" font-family="Helvetica,sans-Serif" font-size="10.00">Ogre::DefaultSceneFormat</text>
<text text-anchor="middle" x="139.5" y="-5.75" font-family="Helvetica,sans-Serif" font-size="10.00">Listener</text>
</a>
</g>
</g>
<!-- Node1&#45;&gt;Node4 -->
<g id="edge3_Node000001_Node000004" class="edge">
<title>Node1&#45;&gt;Node4</title>
<g id="a_edge3_Node000001_Node000004"><a xlink:title=" ">
<path fill="none" stroke="#63b8ff" d="M139.5,-54.92C139.5,-46.99 139.5,-38.06 139.5,-30.78"/>
<polygon fill="#63b8ff" stroke="#63b8ff" points="136,-54.67 139.5,-64.67 143,-54.67 136,-54.67"/>
</a>
</g>
</g>
<!-- Node2 -->
<g id="Node000002" class="node">
<title>Node2</title>
<g id="a_Node000002"><a xlink:href="class_ogre_1_1_hlms_json_listener.html" target="_top" xlink:title=" ">
<polygon fill="white" stroke="#666666" points="121,-141 0,-141 0,-121.75 121,-121.75 121,-141"/>
<text text-anchor="middle" x="60.5" y="-127.5" font-family="Helvetica,sans-Serif" font-size="10.00">Ogre::HlmsJsonListener</text>
</a>
</g>
</g>
<!-- Node2&#45;&gt;Node1 -->
<g id="edge1_Node000001_Node000002" class="edge">
<title>Node2&#45;&gt;Node1</title>
<g id="a_edge1_Node000001_Node000002"><a xlink:title=" ">
<path fill="none" stroke="#63b8ff" d="M83.26,-115.03C97.11,-105.7 114.32,-94.1 126.03,-86.2"/>
<polygon fill="#63b8ff" stroke="#63b8ff" points="81.49,-112 75.16,-120.5 85.4,-117.81 81.49,-112"/>
</a>
</g>
</g>
<!-- Node3 -->
<g id="Node000003" class="node">
<title>Node3</title>
<g id="a_Node000003"><a xlink:href="class_ogre_1_1_hlms_texture_export_listener.html" target="_top" xlink:title=" ">
<polygon fill="white" stroke="#666666" points="298.12,-141 138.88,-141 138.88,-121.75 298.12,-121.75 298.12,-141"/>
<text text-anchor="middle" x="218.5" y="-127.5" font-family="Helvetica,sans-Serif" font-size="10.00">Ogre::HlmsTextureExportListener</text>
</a>
</g>
</g>
<!-- Node3&#45;&gt;Node1 -->
<g id="edge2_Node000001_Node000003" class="edge">
<title>Node3&#45;&gt;Node1</title>
<g id="a_edge2_Node000001_Node000003"><a xlink:title=" ">
<path fill="none" stroke="#63b8ff" d="M195.74,-115.03C181.89,-105.7 164.68,-94.1 152.97,-86.2"/>
<polygon fill="#63b8ff" stroke="#63b8ff" points="193.6,-117.81 203.84,-120.5 197.51,-112 193.6,-117.81"/>
</a>
</g>
</g>
</g>
</svg>
