<?xml version="1.0" encoding="UTF-8" standalone="no"?>
<!DOCTYPE svg PUBLIC "-//W3C//DTD SVG 1.1//EN"
 "http://www.w3.org/Graphics/SVG/1.1/DTD/svg11.dtd">
<!-- Generated by graphviz version 7.0.5 (20221223.1930)
 -->
<!-- Title: Ogre::v1::HardwareUniformBuffer Pages: 1 -->
<svg width="604pt" height="326pt"
 viewBox="0.00 0.00 604.00 326.00" xmlns="http://www.w3.org/2000/svg" xmlns:xlink="http://www.w3.org/1999/xlink">
<g id="graph0" class="graph" transform="scale(1 1) rotate(0) translate(4 322)">
<title>Ogre::v1::HardwareUniformBuffer</title>
<!-- Node1 -->
<g id="node1" class="node">
<title>Node1</title>
<g id="a_node1"><a xlink:title="Specialisation of HardwareBuffer for a uniform buffer.">
<polygon fill="#999999" stroke="#666666" points="395,-174 261,-174 261,-144 395,-144 395,-174"/>
<text text-anchor="start" x="269" y="-162" font-family="Helvetica,sans-Serif" font-size="10.00">Ogre::v1::HardwareUniform</text>
<text text-anchor="middle" x="328" y="-151" font-family="Helvetica,sans-Serif" font-size="10.00">Buffer</text>
</a>
</g>
</g>
<!-- Node4 -->
<g id="node4" class="node">
<title>Node4</title>
<g id="a_node4"><a xlink:href="class_ogre_1_1v1_1_1_d3_d11_hardware_uniform_buffer.html" target="_top" xlink:title="Specialisation of HardwareBuffer for D3D11.">
<polygon fill="white" stroke="#666666" points="595,-318 432,-318 432,-288 595,-288 595,-318"/>
<text text-anchor="start" x="440" y="-306" font-family="Helvetica,sans-Serif" font-size="10.00">Ogre::v1::D3D11HardwareUniform</text>
<text text-anchor="middle" x="513.5" y="-295" font-family="Helvetica,sans-Serif" font-size="10.00">Buffer</text>
</a>
</g>
</g>
<!-- Node1&#45;&gt;Node4 -->
<g id="edge3" class="edge">
<title>Node1&#45;&gt;Node4</title>
<path fill="none" stroke="#63b8ff" d="M343.9,-183.99C361.42,-211.25 392.99,-254.29 431,-279 436.07,-282.3 441.61,-285.15 447.33,-287.62"/>
<polygon fill="#63b8ff" stroke="#63b8ff" points="346.97,-182.28 338.7,-175.66 341.03,-186 346.97,-182.28"/>
</g>
<!-- Node5 -->
<g id="node5" class="node">
<title>Node5</title>
<g id="a_node5"><a xlink:href="class_ogre_1_1v1_1_1_default_hardware_uniform_buffer.html" target="_top" xlink:title="Specialisation of HardwareUniformBuffer for emulation.">
<polygon fill="white" stroke="#666666" points="578.5,-270 448.5,-270 448.5,-240 578.5,-240 578.5,-270"/>
<text text-anchor="start" x="456.5" y="-258" font-family="Helvetica,sans-Serif" font-size="10.00">Ogre::v1::DefaultHardware</text>
<text text-anchor="middle" x="513.5" y="-247" font-family="Helvetica,sans-Serif" font-size="10.00">UniformBuffer</text>
</a>
</g>
</g>
<!-- Node1&#45;&gt;Node5 -->
<g id="edge4" class="edge">
<title>Node1&#45;&gt;Node5</title>
<path fill="none" stroke="#63b8ff" d="M355.36,-181.28C375.11,-197.03 403.37,-217.64 431,-231 437.64,-234.21 444.79,-237.08 452.01,-239.63"/>
<polygon fill="#63b8ff" stroke="#63b8ff" points="357.8,-178.76 347.83,-175.17 353.38,-184.19 357.8,-178.76"/>
</g>
<!-- Node6 -->
<g id="node6" class="node">
<title>Node6</title>
<g id="a_node6"><a xlink:href="class_ogre_1_1v1_1_1_g_l3_plus_default_hardware_uniform_buffer.html" target="_top" xlink:title="Specialisation of HardwareUniformBuffer for emulation.">
<polygon fill="white" stroke="#666666" points="576.5,-222 450.5,-222 450.5,-192 576.5,-192 576.5,-222"/>
<text text-anchor="start" x="458.5" y="-210" font-family="Helvetica,sans-Serif" font-size="10.00">Ogre::v1::GL3PlusDefault</text>
<text text-anchor="middle" x="513.5" y="-199" font-family="Helvetica,sans-Serif" font-size="10.00">HardwareUniformBuffer</text>
</a>
</g>
</g>
<!-- Node1&#45;&gt;Node6 -->
<g id="edge5" class="edge">
<title>Node1&#45;&gt;Node6</title>
<path fill="none" stroke="#63b8ff" d="M399.08,-177.33C417.05,-182.03 436.19,-187.04 453.54,-191.58"/>
<polygon fill="#63b8ff" stroke="#63b8ff" points="400.1,-173.98 389.53,-174.83 398.32,-180.75 400.1,-173.98"/>
</g>
<!-- Node7 -->
<g id="node7" class="node">
<title>Node7</title>
<g id="a_node7"><a xlink:href="class_ogre_1_1v1_1_1_g_l3_plus_hardware_shader_storage_buffer.html" target="_top" xlink:title="Specialisation of HardwareUniformBuffer for the OpenGL Shader Storage Buffer.">
<polygon fill="white" stroke="#666666" points="582,-174 445,-174 445,-144 582,-144 582,-174"/>
<text text-anchor="start" x="453" y="-162" font-family="Helvetica,sans-Serif" font-size="10.00">Ogre::v1::GL3PlusHardware</text>
<text text-anchor="middle" x="513.5" y="-151" font-family="Helvetica,sans-Serif" font-size="10.00">ShaderStorageBuffer</text>
</a>
</g>
</g>
<!-- Node1&#45;&gt;Node7 -->
<g id="edge6" class="edge">
<title>Node1&#45;&gt;Node7</title>
<path fill="none" stroke="#63b8ff" d="M406.74,-159C419.4,-159 432.42,-159 444.81,-159"/>
<polygon fill="#63b8ff" stroke="#63b8ff" points="406.76,-155.5 396.76,-159 406.76,-162.5 406.76,-155.5"/>
</g>
<!-- Node8 -->
<g id="node8" class="node">
<title>Node8</title>
<g id="a_node8"><a xlink:href="class_ogre_1_1v1_1_1_g_l3_plus_hardware_uniform_buffer.html" target="_top" xlink:title="Specialisation of HardwareUniformBuffer for OpenGL.">
<polygon fill="white" stroke="#666666" points="582,-126 445,-126 445,-96 582,-96 582,-126"/>
<text text-anchor="start" x="453" y="-114" font-family="Helvetica,sans-Serif" font-size="10.00">Ogre::v1::GL3PlusHardware</text>
<text text-anchor="middle" x="513.5" y="-103" font-family="Helvetica,sans-Serif" font-size="10.00">UniformBuffer</text>
</a>
</g>
</g>
<!-- Node1&#45;&gt;Node8 -->
<g id="edge7" class="edge">
<title>Node1&#45;&gt;Node8</title>
<path fill="none" stroke="#63b8ff" d="M399.08,-140.67C417.05,-135.97 436.19,-130.96 453.54,-126.42"/>
<polygon fill="#63b8ff" stroke="#63b8ff" points="398.32,-137.25 389.53,-143.17 400.1,-144.02 398.32,-137.25"/>
</g>
<!-- Node9 -->
<g id="node9" class="node">
<title>Node9</title>
<g id="a_node9"><a xlink:href="class_ogre_1_1v1_1_1_g_l_e_s2_default_hardware_uniform_buffer.html" target="_top" xlink:title="Specialisation of HardwareUniformBuffer for emulation.">
<polygon fill="white" stroke="#666666" points="594,-78 433,-78 433,-48 594,-48 594,-78"/>
<text text-anchor="start" x="441" y="-66" font-family="Helvetica,sans-Serif" font-size="10.00">Ogre::v1::GLES2DefaultHardware</text>
<text text-anchor="middle" x="513.5" y="-55" font-family="Helvetica,sans-Serif" font-size="10.00">UniformBuffer</text>
</a>
</g>
</g>
<!-- Node1&#45;&gt;Node9 -->
<g id="edge8" class="edge">
<title>Node1&#45;&gt;Node9</title>
<path fill="none" stroke="#63b8ff" d="M355.36,-136.72C375.11,-120.97 403.37,-100.36 431,-87 437.64,-83.79 444.79,-80.92 452.01,-78.37"/>
<polygon fill="#63b8ff" stroke="#63b8ff" points="353.38,-133.81 347.83,-142.83 357.8,-139.24 353.38,-133.81"/>
</g>
<!-- Node10 -->
<g id="node10" class="node">
<title>Node10</title>
<g id="a_node10"><a xlink:href="class_ogre_1_1v1_1_1_g_l_e_s2_hardware_uniform_buffer.html" target="_top" xlink:title="Specialisation of HardwareUniformBuffer for OpenGL.">
<polygon fill="white" stroke="#666666" points="596,-30 431,-30 431,0 596,0 596,-30"/>
<text text-anchor="start" x="439" y="-18" font-family="Helvetica,sans-Serif" font-size="10.00">Ogre::v1::GLES2HardwareUniform</text>
<text text-anchor="middle" x="513.5" y="-7" font-family="Helvetica,sans-Serif" font-size="10.00">Buffer</text>
</a>
</g>
</g>
<!-- Node1&#45;&gt;Node10 -->
<g id="edge9" class="edge">
<title>Node1&#45;&gt;Node10</title>
<path fill="none" stroke="#63b8ff" d="M343.9,-134.01C361.42,-106.75 392.99,-63.71 431,-39 436.07,-35.7 441.61,-32.85 447.33,-30.38"/>
<polygon fill="#63b8ff" stroke="#63b8ff" points="341.03,-132 338.7,-142.34 346.97,-135.72 341.03,-132"/>
</g>
<!-- Node2 -->
<g id="node2" class="node">
<title>Node2</title>
<g id="a_node2"><a xlink:href="class_ogre_1_1v1_1_1_hardware_buffer.html" target="_top" xlink:title="Abstract class defining common features of hardware buffers.">
<polygon fill="white" stroke="#666666" points="225,-168.5 100,-168.5 100,-149.5 225,-149.5 225,-168.5"/>
<text text-anchor="middle" x="162.5" y="-156.5" font-family="Helvetica,sans-Serif" font-size="10.00">Ogre::v1::HardwareBuffer</text>
</a>
</g>
</g>
<!-- Node2&#45;&gt;Node1 -->
<g id="edge1" class="edge">
<title>Node2&#45;&gt;Node1</title>
<path fill="none" stroke="#63b8ff" d="M236.58,-159C244.62,-159 252.78,-159 260.73,-159"/>
<polygon fill="#63b8ff" stroke="#63b8ff" points="236.83,-155.5 226.83,-159 236.83,-162.5 236.83,-155.5"/>
</g>
<!-- Node3 -->
<g id="node3" class="node">
<title>Node3</title>
<g id="a_node3"><a xlink:href="class_ogre_1_1_allocated_object.html" target="_top" xlink:title="Superclass for all objects that wish to use custom memory allocators when their new / delete operator...">
<polygon fill="white" stroke="#666666" points="64,-168.5 0,-168.5 0,-149.5 64,-149.5 64,-168.5"/>
<text text-anchor="middle" x="32" y="-156.5" font-family="Helvetica,sans-Serif" font-size="10.00">BufferAlloc</text>
</a>
</g>
</g>
<!-- Node3&#45;&gt;Node2 -->
<g id="edge2" class="edge">
<title>Node3&#45;&gt;Node2</title>
<path fill="none" stroke="#63b8ff" d="M75.71,-159C83.42,-159 91.6,-159 99.73,-159"/>
<polygon fill="#63b8ff" stroke="#63b8ff" points="75.95,-155.5 65.95,-159 75.95,-162.5 75.95,-155.5"/>
</g>
</g>
</svg>
