<?xml version="1.0" encoding="UTF-8" standalone="no"?>
<!DOCTYPE svg PUBLIC "-//W3C//DTD SVG 1.1//EN"
 "http://www.w3.org/Graphics/SVG/1.1/DTD/svg11.dtd">
<!-- Generated by graphviz version 7.0.5 (20221223.1930)
 -->
<!-- Title: Ogre::Renderable Pages: 1 -->
<svg width="806pt" height="636pt"
 viewBox="0.00 0.00 806.00 636.00" xmlns="http://www.w3.org/2000/svg" xmlns:xlink="http://www.w3.org/1999/xlink">
<g id="graph0" class="graph" transform="scale(1 1) rotate(0) translate(4 632)">
<title>Ogre::Renderable</title>
<!-- Node1 -->
<g id="node1" class="node">
<title>Node1</title>
<g id="a_node1"><a xlink:title="Abstract class defining the interface all renderable objects must implement.">
<polygon fill="#999999" stroke="#666666" points="91,-320 0,-320 0,-301 91,-301 91,-320"/>
<text text-anchor="middle" x="45.5" y="-308" font-family="Helvetica,sans-Serif" font-size="10.00">Ogre::Renderable</text>
</a>
</g>
</g>
<!-- Node2 -->
<g id="node2" class="node">
<title>Node2</title>
<g id="a_node2"><a xlink:href="class_ogre_1_1_frustum.html" target="_top" xlink:title="A frustum represents a pyramid, capped at the near and far end which is used to represent either a vi...">
<polygon fill="white" stroke="#666666" points="234,-610 156,-610 156,-591 234,-591 234,-610"/>
<text text-anchor="middle" x="195" y="-598" font-family="Helvetica,sans-Serif" font-size="10.00">Ogre::Frustum</text>
</a>
</g>
</g>
<!-- Node1&#45;&gt;Node2 -->
<g id="edge1" class="edge">
<title>Node1&#45;&gt;Node2</title>
<path fill="none" stroke="#63b8ff" d="M46.22,-331.79C46.76,-382.77 55.48,-512.76 127,-582.5 134.76,-590.07 145.35,-594.54 155.81,-597.16"/>
<polygon fill="#63b8ff" stroke="#63b8ff" points="49.72,-331.88 46.23,-321.88 42.72,-331.88 49.72,-331.88"/>
</g>
<!-- Node6 -->
<g id="node6" class="node">
<title>Node6</title>
<g id="a_node6"><a xlink:href="class_ogre_1_1_ifd_probe_visualizer.html" target="_top" xlink:title=" ">
<polygon fill="white" stroke="#666666" points="255.5,-573 134.5,-573 134.5,-554 255.5,-554 255.5,-573"/>
<text text-anchor="middle" x="195" y="-561" font-family="Helvetica,sans-Serif" font-size="10.00">Ogre::IfdProbeVisualizer</text>
</a>
</g>
</g>
<!-- Node1&#45;&gt;Node6 -->
<g id="edge5" class="edge">
<title>Node1&#45;&gt;Node6</title>
<path fill="none" stroke="#63b8ff" d="M47.47,-331.51C50.73,-377.11 64.96,-485.78 127,-544.5 130.86,-548.16 135.38,-551.12 140.21,-553.51"/>
<polygon fill="#63b8ff" stroke="#63b8ff" points="50.97,-331.47 46.89,-321.69 43.98,-331.88 50.97,-331.47"/>
</g>
<!-- Node7 -->
<g id="node7" class="node">
<title>Node7</title>
<g id="a_node7"><a xlink:href="class_ogre_1_1_manual_object_1_1_manual_object_section.html" target="_top" xlink:title="Built, renderable section of geometry.">
<polygon fill="white" stroke="#666666" points="252,-535.5 138,-535.5 138,-505.5 252,-505.5 252,-535.5"/>
<text text-anchor="start" x="146" y="-523.5" font-family="Helvetica,sans-Serif" font-size="10.00">Ogre::ManualObject</text>
<text text-anchor="middle" x="195" y="-512.5" font-family="Helvetica,sans-Serif" font-size="10.00">::ManualObjectSection</text>
</a>
</g>
</g>
<!-- Node1&#45;&gt;Node7 -->
<g id="edge6" class="edge">
<title>Node1&#45;&gt;Node7</title>
<path fill="none" stroke="#63b8ff" d="M49.91,-331.27C57.21,-369.31 77.88,-450.45 127,-496.5 130.52,-499.8 134.51,-502.64 138.77,-505.11"/>
<polygon fill="#63b8ff" stroke="#63b8ff" points="53.39,-330.86 48.19,-321.63 46.5,-332.09 53.39,-330.86"/>
</g>
<!-- Node8 -->
<g id="node8" class="node">
<title>Node8</title>
<g id="a_node8"><a xlink:href="class_ogre_1_1_rectangle2_d.html" target="_top" xlink:title=" ">
<polygon fill="white" stroke="#666666" points="244,-487 146,-487 146,-468 244,-468 244,-487"/>
<text text-anchor="middle" x="195" y="-475" font-family="Helvetica,sans-Serif" font-size="10.00">Ogre::Rectangle2D</text>
</a>
</g>
</g>
<!-- Node1&#45;&gt;Node8 -->
<g id="edge7" class="edge">
<title>Node1&#45;&gt;Node8</title>
<path fill="none" stroke="#63b8ff" d="M51.88,-331.04C61.43,-363.36 84.46,-425.87 127,-459.5 132.48,-463.83 138.92,-467.13 145.59,-469.63"/>
<polygon fill="#63b8ff" stroke="#63b8ff" points="55.34,-330.4 49.28,-321.71 48.6,-332.28 55.34,-330.4"/>
</g>
<!-- Node9 -->
<g id="node9" class="node">
<title>Node9</title>
<g id="a_node9"><a xlink:href="class_ogre_1_1_renderable_animated.html" target="_top" xlink:title=" ">
<polygon fill="white" stroke="#666666" points="261,-450 129,-450 129,-431 261,-431 261,-450"/>
<text text-anchor="middle" x="195" y="-438" font-family="Helvetica,sans-Serif" font-size="10.00">Ogre::RenderableAnimated</text>
</a>
</g>
</g>
<!-- Node1&#45;&gt;Node9 -->
<g id="edge8" class="edge">
<title>Node1&#45;&gt;Node9</title>
<path fill="none" stroke="#63b8ff" d="M55.56,-330.56C68.02,-355.86 92.84,-398.88 127,-422.5 131.66,-425.72 136.86,-428.36 142.26,-430.54"/>
<polygon fill="#63b8ff" stroke="#63b8ff" points="58.8,-329.23 51.36,-321.69 52.47,-332.23 58.8,-329.23"/>
</g>
<!-- Node11 -->
<g id="node11" class="node">
<title>Node11</title>
<g id="a_node11"><a xlink:href="class_ogre_1_1_voxel_visualizer.html" target="_top" xlink:title=" ">
<polygon fill="white" stroke="#666666" points="249,-413 141,-413 141,-394 249,-394 249,-413"/>
<text text-anchor="middle" x="195" y="-401" font-family="Helvetica,sans-Serif" font-size="10.00">Ogre::VoxelVisualizer</text>
</a>
</g>
</g>
<!-- Node1&#45;&gt;Node11 -->
<g id="edge10" class="edge">
<title>Node1&#45;&gt;Node11</title>
<path fill="none" stroke="#63b8ff" d="M61.56,-328.97C76.46,-346.06 100.78,-370.96 127,-385.5 132.79,-388.71 139.19,-391.37 145.66,-393.58"/>
<polygon fill="#63b8ff" stroke="#63b8ff" points="64.41,-326.92 55.27,-321.55 59.06,-331.44 64.41,-326.92"/>
</g>
<!-- Node12 -->
<g id="node12" class="node">
<title>Node12</title>
<g id="a_node12"><a xlink:href="class_ogre_1_1_wire_aabb.html" target="_top" xlink:title="Helper class to display the Aabb of a MovableObject as lines.">
<polygon fill="white" stroke="#666666" points="237,-376 153,-376 153,-357 237,-357 237,-376"/>
<text text-anchor="middle" x="195" y="-364" font-family="Helvetica,sans-Serif" font-size="10.00">Ogre::WireAabb</text>
</a>
</g>
</g>
<!-- Node1&#45;&gt;Node12 -->
<g id="edge11" class="edge">
<title>Node1&#45;&gt;Node12</title>
<path fill="none" stroke="#63b8ff" d="M75.21,-325.59C90.34,-333.14 109.37,-342.03 127,-348.5 135.14,-351.49 144,-354.22 152.54,-356.6"/>
<polygon fill="#63b8ff" stroke="#63b8ff" points="76.81,-322.47 66.31,-321.06 73.64,-328.71 76.81,-322.47"/>
</g>
<!-- Node13 -->
<g id="node13" class="node">
<title>Node13</title>
<g id="a_node13"><a xlink:href="class_ogre_1_1v1_1_1_billboard_chain.html" target="_top" xlink:title="Allows the rendering of a chain of connected billboards.">
<polygon fill="white" stroke="#666666" points="254.5,-339 135.5,-339 135.5,-320 254.5,-320 254.5,-339"/>
<text text-anchor="middle" x="195" y="-327" font-family="Helvetica,sans-Serif" font-size="10.00">Ogre::v1::BillboardChain</text>
</a>
</g>
</g>
<!-- Node1&#45;&gt;Node13 -->
<g id="edge12" class="edge">
<title>Node1&#45;&gt;Node13</title>
<path fill="none" stroke="#63b8ff" d="M102.47,-317.71C113.12,-319.08 124.31,-320.52 135.05,-321.91"/>
<polygon fill="#63b8ff" stroke="#63b8ff" points="103.02,-314.25 92.66,-316.45 102.13,-321.19 103.02,-314.25"/>
</g>
<!-- Node15 -->
<g id="node15" class="node">
<title>Node15</title>
<g id="a_node15"><a xlink:href="class_ogre_1_1v1_1_1_billboard_set.html" target="_top" xlink:title="A collection of billboards (faces which are always facing the given direction) with the same (default...">
<polygon fill="white" stroke="#666666" points="250,-302 140,-302 140,-283 250,-283 250,-302"/>
<text text-anchor="middle" x="195" y="-290" font-family="Helvetica,sans-Serif" font-size="10.00">Ogre::v1::BillboardSet</text>
</a>
</g>
</g>
<!-- Node1&#45;&gt;Node15 -->
<g id="edge14" class="edge">
<title>Node1&#45;&gt;Node15</title>
<path fill="none" stroke="#63b8ff" d="M102.55,-303.66C114.69,-302.18 127.52,-300.61 139.6,-299.14"/>
<polygon fill="#63b8ff" stroke="#63b8ff" points="102.16,-300.18 92.66,-304.87 103.01,-307.13 102.16,-300.18"/>
</g>
<!-- Node16 -->
<g id="node16" class="node">
<title>Node16</title>
<g id="a_node16"><a xlink:href="class_ogre_1_1v1_1_1_border_renderable.html" target="_top" xlink:title="Class for rendering the border of a BorderPanelOverlayElement.">
<polygon fill="white" stroke="#666666" points="262,-265 128,-265 128,-246 262,-246 262,-265"/>
<text text-anchor="middle" x="195" y="-253" font-family="Helvetica,sans-Serif" font-size="10.00">Ogre::v1::BorderRenderable</text>
</a>
</g>
</g>
<!-- Node1&#45;&gt;Node16 -->
<g id="edge15" class="edge">
<title>Node1&#45;&gt;Node16</title>
<path fill="none" stroke="#63b8ff" d="M76.55,-295.82C91.5,-288.84 109.98,-280.68 127,-274.5 136.09,-271.2 146.04,-268.1 155.43,-265.41"/>
<polygon fill="#63b8ff" stroke="#63b8ff" points="75.25,-292.56 67.72,-300.01 78.25,-298.89 75.25,-292.56"/>
</g>
<!-- Node17 -->
<g id="node17" class="node">
<title>Node17</title>
<g id="a_node17"><a xlink:href="class_ogre_1_1v1_1_1_manual_object_1_1_manual_object_section.html" target="_top" xlink:title="Built, renderable section of geometry.">
<polygon fill="white" stroke="#666666" points="253.5,-227.5 136.5,-227.5 136.5,-197.5 253.5,-197.5 253.5,-227.5"/>
<text text-anchor="start" x="144.5" y="-215.5" font-family="Helvetica,sans-Serif" font-size="10.00">Ogre::v1::ManualObject</text>
<text text-anchor="middle" x="195" y="-204.5" font-family="Helvetica,sans-Serif" font-size="10.00">::ManualObjectSection</text>
</a>
</g>
</g>
<!-- Node1&#45;&gt;Node17 -->
<g id="edge16" class="edge">
<title>Node1&#45;&gt;Node17</title>
<path fill="none" stroke="#63b8ff" d="M62.47,-292.56C77.7,-276.34 101.98,-252.73 127,-237.5 132.83,-233.95 139.25,-230.77 145.74,-227.97"/>
<polygon fill="#63b8ff" stroke="#63b8ff" points="60.19,-289.86 56.01,-299.59 65.35,-294.59 60.19,-289.86"/>
</g>
<!-- Node18 -->
<g id="node18" class="node">
<title>Node18</title>
<g id="a_node18"><a xlink:href="class_ogre_1_1v1_1_1_overlay_element.html" target="_top" xlink:title="Abstract definition of a 2D element to be displayed in an Overlay.">
<polygon fill="white" stroke="#666666" points="257.5,-179 132.5,-179 132.5,-160 257.5,-160 257.5,-179"/>
<text text-anchor="middle" x="195" y="-167" font-family="Helvetica,sans-Serif" font-size="10.00">Ogre::v1::OverlayElement</text>
</a>
</g>
</g>
<!-- Node1&#45;&gt;Node18 -->
<g id="edge17" class="edge">
<title>Node1&#45;&gt;Node18</title>
<path fill="none" stroke="#63b8ff" d="M54.62,-289.91C66.44,-262.63 90.97,-214.88 127,-188.5 132.07,-184.79 137.85,-181.8 143.83,-179.39"/>
<polygon fill="#63b8ff" stroke="#63b8ff" points="51.39,-288.57 50.79,-299.15 57.86,-291.25 51.39,-288.57"/>
</g>
<!-- Node23 -->
<g id="node23" class="node">
<title>Node23</title>
<g id="a_node23"><a xlink:href="class_ogre_1_1v1_1_1_rectangle2_d.html" target="_top" xlink:title="Allows the rendering of a simple 2D rectangle This class renders a simple 2D rectangle; this rectangl...">
<polygon fill="white" stroke="#666666" points="251.5,-142 138.5,-142 138.5,-123 251.5,-123 251.5,-142"/>
<text text-anchor="middle" x="195" y="-130" font-family="Helvetica,sans-Serif" font-size="10.00">Ogre::v1::Rectangle2D</text>
</a>
</g>
</g>
<!-- Node1&#45;&gt;Node23 -->
<g id="edge22" class="edge">
<title>Node1&#45;&gt;Node23</title>
<path fill="none" stroke="#63b8ff" d="M51.06,-289.92C59.74,-255.69 81.91,-187.23 127,-150.5 131.02,-147.23 135.57,-144.55 140.38,-142.35"/>
<polygon fill="#63b8ff" stroke="#63b8ff" points="47.72,-288.84 48.81,-299.38 54.53,-290.46 47.72,-288.84"/>
</g>
<!-- Node24 -->
<g id="node24" class="node">
<title>Node24</title>
<g id="a_node24"><a xlink:href="class_ogre_1_1v1_1_1_simple_renderable.html" target="_top" xlink:title="Simple implementation of MovableObject and Renderable for single&#45;part custom objects.">
<polygon fill="white" stroke="#666666" points="263,-105 127,-105 127,-86 263,-86 263,-105"/>
<text text-anchor="middle" x="195" y="-93" font-family="Helvetica,sans-Serif" font-size="10.00">Ogre::v1::SimpleRenderable</text>
</a>
</g>
</g>
<!-- Node1&#45;&gt;Node24 -->
<g id="edge23" class="edge">
<title>Node1&#45;&gt;Node24</title>
<path fill="none" stroke="#63b8ff" d="M49,-289.21C54.9,-248.77 73.49,-160.69 127,-113.5 130.7,-110.23 134.94,-107.55 139.44,-105.35"/>
<polygon fill="#63b8ff" stroke="#63b8ff" points="45.54,-288.68 47.7,-299.05 52.48,-289.6 45.54,-288.68"/>
</g>
<!-- Node26 -->
<g id="node26" class="node">
<title>Node26</title>
<g id="a_node26"><a xlink:href="class_ogre_1_1v1_1_1_static_geometry_1_1_geometry_bucket.html" target="_top" xlink:title="A GeometryBucket is a the lowest level bucket where geometry with the same vertex &amp; index format is s...">
<polygon fill="white" stroke="#666666" points="257.5,-67.5 132.5,-67.5 132.5,-37.5 257.5,-37.5 257.5,-67.5"/>
<text text-anchor="start" x="140.5" y="-55.5" font-family="Helvetica,sans-Serif" font-size="10.00">Ogre::v1::StaticGeometry</text>
<text text-anchor="middle" x="195" y="-44.5" font-family="Helvetica,sans-Serif" font-size="10.00">::GeometryBucket</text>
</a>
</g>
</g>
<!-- Node1&#45;&gt;Node26 -->
<g id="edge25" class="edge">
<title>Node1&#45;&gt;Node26</title>
<path fill="none" stroke="#63b8ff" d="M47.8,-289.51C51.7,-244.35 67.11,-137.15 127,-76.5 130.21,-73.25 133.9,-70.43 137.85,-68"/>
<polygon fill="#63b8ff" stroke="#63b8ff" points="44.31,-289.23 47.06,-299.46 51.29,-289.75 44.31,-289.23"/>
</g>
<!-- Node27 -->
<g id="node27" class="node">
<title>Node27</title>
<g id="a_node27"><a xlink:href="class_ogre_1_1v1_1_1_sub_entity.html" target="_top" xlink:title="Utility class which defines the sub&#45;parts of an Entity.">
<polygon fill="white" stroke="#666666" points="244,-19 146,-19 146,0 244,0 244,-19"/>
<text text-anchor="middle" x="195" y="-7" font-family="Helvetica,sans-Serif" font-size="10.00">Ogre::v1::SubEntity</text>
</a>
</g>
</g>
<!-- Node1&#45;&gt;Node27 -->
<g id="edge26" class="edge">
<title>Node1&#45;&gt;Node27</title>
<path fill="none" stroke="#63b8ff" d="M46.02,-289.2C46.04,-237.03 53.59,-101.78 127,-28.5 132.22,-23.29 138.76,-19.48 145.69,-16.71"/>
<polygon fill="#63b8ff" stroke="#63b8ff" points="42.52,-289.11 46.12,-299.07 49.51,-289.04 42.52,-289.11"/>
</g>
<!-- Node3 -->
<g id="node3" class="node">
<title>Node3</title>
<g id="a_node3"><a xlink:href="class_ogre_1_1_camera.html" target="_top" xlink:title="A viewpoint from which the scene will be rendered.">
<polygon fill="white" stroke="#666666" points="404,-610 328,-610 328,-591 404,-591 404,-610"/>
<text text-anchor="middle" x="366" y="-598" font-family="Helvetica,sans-Serif" font-size="10.00">Ogre::Camera</text>
</a>
</g>
</g>
<!-- Node2&#45;&gt;Node3 -->
<g id="edge2" class="edge">
<title>Node2&#45;&gt;Node3</title>
<path fill="none" stroke="#63b8ff" d="M245.6,-600.5C271.84,-600.5 303.54,-600.5 327.68,-600.5"/>
<polygon fill="#63b8ff" stroke="#63b8ff" points="245.86,-597 235.86,-600.5 245.86,-604 245.86,-597"/>
</g>
<!-- Node4 -->
<g id="node4" class="node">
<title>Node4</title>
<g id="a_node4"><a xlink:href="class_ogre_1_1_octree_camera.html" target="_top" xlink:title="Specialized viewpoint from which an Octree can be rendered.">
<polygon fill="white" stroke="#666666" points="596.5,-628 491.5,-628 491.5,-609 596.5,-609 596.5,-628"/>
<text text-anchor="middle" x="544" y="-616" font-family="Helvetica,sans-Serif" font-size="10.00">Ogre::OctreeCamera</text>
</a>
</g>
</g>
<!-- Node3&#45;&gt;Node4 -->
<g id="edge3" class="edge">
<title>Node3&#45;&gt;Node4</title>
<path fill="none" stroke="#63b8ff" d="M415.75,-605.49C439.16,-607.88 467.23,-610.75 491.04,-613.19"/>
<polygon fill="#63b8ff" stroke="#63b8ff" points="416.13,-602.01 405.83,-604.47 415.42,-608.97 416.13,-602.01"/>
</g>
<!-- Node5 -->
<g id="node5" class="node">
<title>Node5</title>
<g id="a_node5"><a xlink:href="class_ogre_1_1_p_c_z_camera.html" target="_top" xlink:title="Specialized viewpoint from which an PCZone Scene can be rendered.">
<polygon fill="white" stroke="#666666" points="591.5,-591 496.5,-591 496.5,-572 591.5,-572 591.5,-591"/>
<text text-anchor="middle" x="544" y="-579" font-family="Helvetica,sans-Serif" font-size="10.00">Ogre::PCZCamera</text>
</a>
</g>
</g>
<!-- Node3&#45;&gt;Node5 -->
<g id="edge4" class="edge">
<title>Node3&#45;&gt;Node5</title>
<path fill="none" stroke="#63b8ff" d="M415.48,-595.27C440.7,-592.54 471.37,-589.23 496.31,-586.54"/>
<polygon fill="#63b8ff" stroke="#63b8ff" points="415.4,-591.75 405.83,-596.31 416.15,-598.71 415.4,-591.75"/>
</g>
<!-- Node10 -->
<g id="node10" class="node">
<title>Node10</title>
<g id="a_node10"><a xlink:href="class_ogre_1_1_sub_item.html" target="_top" xlink:title="Utility class which defines the sub&#45;parts of an Item.">
<polygon fill="white" stroke="#666666" points="405.5,-450 326.5,-450 326.5,-431 405.5,-431 405.5,-450"/>
<text text-anchor="middle" x="366" y="-438" font-family="Helvetica,sans-Serif" font-size="10.00">Ogre::SubItem</text>
</a>
</g>
</g>
<!-- Node9&#45;&gt;Node10 -->
<g id="edge9" class="edge">
<title>Node9&#45;&gt;Node10</title>
<path fill="none" stroke="#63b8ff" d="M272.77,-440.5C291.29,-440.5 310.3,-440.5 326.22,-440.5"/>
<polygon fill="#63b8ff" stroke="#63b8ff" points="272.85,-437 262.85,-440.5 272.85,-444 272.85,-437"/>
</g>
<!-- Node14 -->
<g id="node14" class="node">
<title>Node14</title>
<g id="a_node14"><a xlink:href="class_ogre_1_1v1_1_1_ribbon_trail.html" target="_top" xlink:title="Subclass of BillboardChain which automatically leaves a trail behind one or more Node instances.">
<polygon fill="white" stroke="#666666" points="419,-339 313,-339 313,-320 419,-320 419,-339"/>
<text text-anchor="middle" x="366" y="-327" font-family="Helvetica,sans-Serif" font-size="10.00">Ogre::v1::RibbonTrail</text>
</a>
</g>
</g>
<!-- Node13&#45;&gt;Node14 -->
<g id="edge13" class="edge">
<title>Node13&#45;&gt;Node14</title>
<path fill="none" stroke="#63b8ff" d="M265.88,-329.5C281.54,-329.5 297.88,-329.5 312.68,-329.5"/>
<polygon fill="#63b8ff" stroke="#63b8ff" points="266.15,-326 256.15,-329.5 266.15,-333 266.15,-326"/>
</g>
<!-- Node19 -->
<g id="node19" class="node">
<title>Node19</title>
<g id="a_node19"><a xlink:href="class_ogre_1_1v1_1_1_overlay_container.html" target="_top" xlink:title="A 2D element which contains other OverlayElement instances.">
<polygon fill="white" stroke="#666666" points="431.5,-207 300.5,-207 300.5,-188 431.5,-188 431.5,-207"/>
<text text-anchor="middle" x="366" y="-195" font-family="Helvetica,sans-Serif" font-size="10.00">Ogre::v1::OverlayContainer</text>
</a>
</g>
</g>
<!-- Node18&#45;&gt;Node19 -->
<g id="edge18" class="edge">
<title>Node18&#45;&gt;Node19</title>
<path fill="none" stroke="#63b8ff" d="M267.37,-181.33C279.85,-183.39 292.72,-185.52 304.85,-187.53"/>
<polygon fill="#63b8ff" stroke="#63b8ff" points="267.99,-177.88 257.55,-179.7 266.85,-184.79 267.99,-177.88"/>
</g>
<!-- Node22 -->
<g id="node22" class="node">
<title>Node22</title>
<g id="a_node22"><a xlink:href="class_ogre_1_1v1_1_1_text_area_overlay_element.html" target="_top" xlink:title="This class implements an overlay element which contains simple unformatted text.">
<polygon fill="white" stroke="#666666" points="430.5,-169.5 301.5,-169.5 301.5,-139.5 430.5,-139.5 430.5,-169.5"/>
<text text-anchor="start" x="309.5" y="-157.5" font-family="Helvetica,sans-Serif" font-size="10.00">Ogre::v1::TextAreaOverlay</text>
<text text-anchor="middle" x="366" y="-146.5" font-family="Helvetica,sans-Serif" font-size="10.00">Element</text>
</a>
</g>
</g>
<!-- Node18&#45;&gt;Node22 -->
<g id="edge21" class="edge">
<title>Node18&#45;&gt;Node22</title>
<path fill="none" stroke="#63b8ff" d="M269.31,-162.99C279.88,-162.05 290.69,-161.1 301.05,-160.18"/>
<polygon fill="#63b8ff" stroke="#63b8ff" points="269.13,-159.5 259.48,-163.87 269.75,-166.47 269.13,-159.5"/>
</g>
<!-- Node20 -->
<g id="node20" class="node">
<title>Node20</title>
<g id="a_node20"><a xlink:href="class_ogre_1_1v1_1_1_panel_overlay_element.html" target="_top" xlink:title="OverlayElement representing a flat, single&#45;material (or transparent) panel which can contain other el...">
<polygon fill="white" stroke="#666666" points="619,-207 469,-207 469,-188 619,-188 619,-207"/>
<text text-anchor="middle" x="544" y="-195" font-family="Helvetica,sans-Serif" font-size="10.00">Ogre::v1::PanelOverlayElement</text>
</a>
</g>
</g>
<!-- Node19&#45;&gt;Node20 -->
<g id="edge19" class="edge">
<title>Node19&#45;&gt;Node20</title>
<path fill="none" stroke="#63b8ff" d="M443,-197.5C451.51,-197.5 460.16,-197.5 468.64,-197.5"/>
<polygon fill="#63b8ff" stroke="#63b8ff" points="443.05,-194 433.05,-197.5 443.05,-201 443.05,-194"/>
</g>
<!-- Node21 -->
<g id="node21" class="node">
<title>Node21</title>
<g id="a_node21"><a xlink:href="class_ogre_1_1v1_1_1_border_panel_overlay_element.html" target="_top" xlink:title="A specialisation of the PanelOverlayElement to provide a panel with a border.">
<polygon fill="white" stroke="#666666" points="798,-212.5 655,-212.5 655,-182.5 798,-182.5 798,-212.5"/>
<text text-anchor="start" x="663" y="-200.5" font-family="Helvetica,sans-Serif" font-size="10.00">Ogre::v1::BorderPanelOverlay</text>
<text text-anchor="middle" x="726.5" y="-189.5" font-family="Helvetica,sans-Serif" font-size="10.00">Element</text>
</a>
</g>
</g>
<!-- Node20&#45;&gt;Node21 -->
<g id="edge20" class="edge">
<title>Node20&#45;&gt;Node21</title>
<path fill="none" stroke="#63b8ff" d="M630.74,-197.5C638.76,-197.5 646.83,-197.5 654.7,-197.5"/>
<polygon fill="#63b8ff" stroke="#63b8ff" points="630.97,-194 620.97,-197.5 630.97,-201 630.97,-194"/>
</g>
<!-- Node25 -->
<g id="node25" class="node">
<title>Node25</title>
<g id="a_node25"><a xlink:href="class_ogre_1_1v1_1_1_wire_bounding_box.html" target="_top" xlink:title="Allows the rendering of a wireframe bounding box.">
<polygon fill="white" stroke="#666666" points="433,-105 299,-105 299,-86 433,-86 433,-105"/>
<text text-anchor="middle" x="366" y="-93" font-family="Helvetica,sans-Serif" font-size="10.00">Ogre::v1::WireBoundingBox</text>
</a>
</g>
</g>
<!-- Node24&#45;&gt;Node25 -->
<g id="edge24" class="edge">
<title>Node24&#45;&gt;Node25</title>
<path fill="none" stroke="#63b8ff" d="M274.53,-95.5C282.55,-95.5 290.64,-95.5 298.5,-95.5"/>
<polygon fill="#63b8ff" stroke="#63b8ff" points="274.79,-92 264.79,-95.5 274.79,-99 274.79,-92"/>
</g>
</g>
</svg>
