<?xml version="1.0" encoding="UTF-8" standalone="no"?>
<!DOCTYPE svg PUBLIC "-//W3C//DTD SVG 1.1//EN"
 "http://www.w3.org/Graphics/SVG/1.1/DTD/svg11.dtd">
<!-- Generated by graphviz version 9.0.0 (20230911.1827)
 -->
<!-- Title: Ogre::EglPBufferWindow Pages: 1 -->
<svg width="130pt" height="138pt"
 viewBox="0.00 0.00 129.75 137.75" xmlns="http://www.w3.org/2000/svg" xmlns:xlink="http://www.w3.org/1999/xlink">
<g id="graph0" class="graph" transform="scale(1 1) rotate(0) translate(4 133.75)">
<title>Ogre::EglPBufferWindow</title>
<!-- Node1 -->
<g id="Node000001" class="node">
<title>Node1</title>
<g id="a_Node000001"><a xlink:title="PBuffer implementation of EGL When supported, PBuffer is a surface&#45;less implementation of OpenGL.">
<polygon fill="#999999" stroke="#666666" points="121.75,-19.25 0,-19.25 0,0 121.75,0 121.75,-19.25"/>
<text text-anchor="middle" x="60.88" y="-5.75" font-family="Helvetica,sans-Serif" font-size="10.00">Ogre::EglPBufferWindow</text>
</a>
</g>
</g>
<!-- Node2 -->
<g id="Node000002" class="node">
<title>Node2</title>
<g id="a_Node000002"><a xlink:href="class_ogre_1_1_window.html" target="_top" xlink:title=" ">
<polygon fill="white" stroke="#666666" points="98.88,-74.5 22.88,-74.5 22.88,-55.25 98.88,-55.25 98.88,-74.5"/>
<text text-anchor="middle" x="60.88" y="-61" font-family="Helvetica,sans-Serif" font-size="10.00">Ogre::Window</text>
</a>
</g>
</g>
<!-- Node2&#45;&gt;Node1 -->
<g id="edge1_Node000001_Node000002" class="edge">
<title>Node2&#45;&gt;Node1</title>
<g id="a_edge1_Node000001_Node000002"><a xlink:title=" ">
<path fill="none" stroke="#63b8ff" d="M60.88,-43.63C60.88,-35.34 60.88,-26.17 60.88,-19.61"/>
<polygon fill="#63b8ff" stroke="#63b8ff" points="57.38,-43.57 60.88,-53.57 64.38,-43.57 57.38,-43.57"/>
</a>
</g>
</g>
<!-- Node3 -->
<g id="Node000003" class="node">
<title>Node3</title>
<g id="a_Node000003"><a xlink:href="class_ogre_1_1_allocated_object.html" target="_top" xlink:title="Superclass for all objects that wish to use custom memory allocators when their new / delete operator...">
<polygon fill="white" stroke="#666666" points="103.38,-129.75 18.38,-129.75 18.38,-110.5 103.38,-110.5 103.38,-129.75"/>
<text text-anchor="middle" x="60.88" y="-116.25" font-family="Helvetica,sans-Serif" font-size="10.00">RenderSysAlloc</text>
</a>
</g>
</g>
<!-- Node3&#45;&gt;Node2 -->
<g id="edge2_Node000002_Node000003" class="edge">
<title>Node3&#45;&gt;Node2</title>
<g id="a_edge2_Node000002_Node000003"><a xlink:title=" ">
<path fill="none" stroke="#63b8ff" d="M60.88,-98.88C60.88,-90.59 60.88,-81.42 60.88,-74.86"/>
<polygon fill="#63b8ff" stroke="#63b8ff" points="57.38,-98.82 60.88,-108.82 64.38,-98.82 57.38,-98.82"/>
</a>
</g>
</g>
</g>
</svg>
