<?xml version="1.0" encoding="UTF-8" standalone="no"?>
<!DOCTYPE svg PUBLIC "-//W3C//DTD SVG 1.1//EN"
 "http://www.w3.org/Graphics/SVG/1.1/DTD/svg11.dtd">
<!-- Generated by graphviz version 7.0.5 (20221223.1930)
 -->
<!-- Title: Ogre::FrameListener Pages: 1 -->
<svg width="329pt" height="187pt"
 viewBox="0.00 0.00 329.00 186.50" xmlns="http://www.w3.org/2000/svg" xmlns:xlink="http://www.w3.org/1999/xlink">
<g id="graph0" class="graph" transform="scale(1 1) rotate(0) translate(4 182.5)">
<title>Ogre::FrameListener</title>
<!-- Node1 -->
<g id="node1" class="node">
<title>Node1</title>
<g id="a_node1"><a xlink:title="A interface class defining a listener which can be used to receive notifications of frame events.">
<polygon fill="#999999" stroke="#666666" points="105,-93 0,-93 0,-74 105,-74 105,-93"/>
<text text-anchor="middle" x="52.5" y="-81" font-family="Helvetica,sans-Serif" font-size="10.00">Ogre::FrameListener</text>
</a>
</g>
</g>
<!-- Node2 -->
<g id="node2" class="node">
<title>Node2</title>
<g id="a_node2"><a xlink:href="class_ogre_1_1_frame_time_controller_value.html" target="_top" xlink:title="Predefined controller value for getting the latest frame time.">
<polygon fill="white" stroke="#666666" points="297.5,-178.5 164.5,-178.5 164.5,-148.5 297.5,-148.5 297.5,-178.5"/>
<text text-anchor="start" x="172.5" y="-166.5" font-family="Helvetica,sans-Serif" font-size="10.00">Ogre::FrameTimeController</text>
<text text-anchor="middle" x="231" y="-155.5" font-family="Helvetica,sans-Serif" font-size="10.00">Value</text>
</a>
</g>
</g>
<!-- Node1&#45;&gt;Node2 -->
<g id="edge1" class="edge">
<title>Node1&#45;&gt;Node2</title>
<path fill="none" stroke="#63b8ff" d="M75.23,-100.09C92.32,-112.45 117.15,-128.95 141,-139.5 148.32,-142.74 156.17,-145.62 164.07,-148.18"/>
<polygon fill="#63b8ff" stroke="#63b8ff" points="77.47,-97.39 67.35,-94.26 73.31,-103.02 77.47,-97.39"/>
</g>
<!-- Node3 -->
<g id="node3" class="node">
<title>Node3</title>
<g id="a_node3"><a xlink:href="class_ogre_1_1_parallax_corrected_cubemap.html" target="_top" xlink:title=" ">
<polygon fill="white" stroke="#666666" points="311,-130 151,-130 151,-111 311,-111 311,-130"/>
<text text-anchor="middle" x="231" y="-118" font-family="Helvetica,sans-Serif" font-size="10.00">Ogre::ParallaxCorrectedCubemap</text>
</a>
</g>
</g>
<!-- Node1&#45;&gt;Node3 -->
<g id="edge2" class="edge">
<title>Node1&#45;&gt;Node3</title>
<path fill="none" stroke="#63b8ff" d="M109.91,-95.87C120.25,-98.11 130.94,-100.39 141,-102.5 153.65,-105.15 167.33,-107.95 180.08,-110.53"/>
<polygon fill="#63b8ff" stroke="#63b8ff" points="110.88,-92.5 100.37,-93.81 109.4,-99.34 110.88,-92.5"/>
</g>
<!-- Node4 -->
<g id="node4" class="node">
<title>Node4</title>
<g id="a_node4"><a xlink:href="class_ogre_1_1_parallax_corrected_cubemap_auto.html" target="_top" xlink:title="Per&#45;Pixel reflection probes.">
<polygon fill="white" stroke="#666666" points="321,-93 141,-93 141,-74 321,-74 321,-93"/>
<text text-anchor="middle" x="231" y="-81" font-family="Helvetica,sans-Serif" font-size="10.00">Ogre::ParallaxCorrectedCubemapAuto</text>
</a>
</g>
</g>
<!-- Node1&#45;&gt;Node4 -->
<g id="edge3" class="edge">
<title>Node1&#45;&gt;Node4</title>
<path fill="none" stroke="#63b8ff" d="M116.32,-83.5C124.2,-83.5 132.37,-83.5 140.55,-83.5"/>
<polygon fill="#63b8ff" stroke="#63b8ff" points="116.54,-80 106.54,-83.5 116.54,-87 116.54,-80"/>
</g>
<!-- Node5 -->
<g id="node5" class="node">
<title>Node5</title>
<g id="a_node5"><a xlink:href="class_ogre_1_1_terrain.html" target="_top" xlink:title="The main containing class for a chunk of terrain.">
<polygon fill="white" stroke="#666666" points="267,-56 195,-56 195,-37 267,-37 267,-56"/>
<text text-anchor="middle" x="231" y="-44" font-family="Helvetica,sans-Serif" font-size="10.00">Ogre::Terrain</text>
</a>
</g>
</g>
<!-- Node1&#45;&gt;Node5 -->
<g id="edge4" class="edge">
<title>Node1&#45;&gt;Node5</title>
<path fill="none" stroke="#63b8ff" d="M111.83,-71.27C139.2,-65.53 170.93,-58.88 194.62,-53.92"/>
<polygon fill="#63b8ff" stroke="#63b8ff" points="111.35,-67.8 102.28,-73.27 112.79,-74.65 111.35,-67.8"/>
</g>
<!-- Node6 -->
<g id="node6" class="node">
<title>Node6</title>
<g id="a_node6"><a xlink:href="class_ogre_1_1_volume_1_1_chunk.html" target="_top" xlink:title="A single volume chunk mesh.">
<polygon fill="white" stroke="#666666" points="284.5,-19 177.5,-19 177.5,0 284.5,0 284.5,-19"/>
<text text-anchor="middle" x="231" y="-7" font-family="Helvetica,sans-Serif" font-size="10.00">Ogre::Volume::Chunk</text>
</a>
</g>
</g>
<!-- Node1&#45;&gt;Node6 -->
<g id="edge5" class="edge">
<title>Node1&#45;&gt;Node6</title>
<path fill="none" stroke="#63b8ff" d="M75.12,-66.87C92.16,-54.55 116.96,-38.26 141,-28.5 152.42,-23.86 165.14,-20.29 177.31,-17.56"/>
<polygon fill="#63b8ff" stroke="#63b8ff" points="73.23,-63.92 67.28,-72.69 77.39,-69.54 73.23,-63.92"/>
</g>
</g>
</svg>
