<?xml version="1.0" encoding="UTF-8" standalone="no"?>
<!DOCTYPE svg PUBLIC "-//W3C//DTD SVG 1.1//EN"
 "http://www.w3.org/Graphics/SVG/1.1/DTD/svg11.dtd">
<!-- Generated by graphviz version 9.0.0 (20230911.1827)
 -->
<!-- Title: Ogre::SkeletonManager Pages: 1 -->
<svg width="234pt" height="94pt"
 viewBox="0.00 0.00 233.75 93.75" xmlns="http://www.w3.org/2000/svg" xmlns:xlink="http://www.w3.org/1999/xlink">
<g id="graph0" class="graph" transform="scale(1 1) rotate(0) translate(4 89.75)">
<title>Ogre::SkeletonManager</title>
<!-- Node1 -->
<g id="Node000001" class="node">
<title>Node1</title>
<g id="a_Node000001"><a xlink:title="Handles the management of skeleton resources.">
<polygon fill="#999999" stroke="#666666" points="183.88,-19.25 66.62,-19.25 66.62,0 183.88,0 183.88,-19.25"/>
<text text-anchor="middle" x="125.25" y="-5.75" font-family="Helvetica,sans-Serif" font-size="10.00">Ogre::SkeletonManager</text>
</a>
</g>
</g>
<!-- Node2 -->
<g id="Node000002" class="node">
<title>Node2</title>
<g id="a_Node000002"><a xlink:href="class_ogre_1_1_singleton.html" target="_top" xlink:title=" ">
<polygon fill="white" stroke="#666666" points="128.5,-85.75 0,-85.75 0,-55.25 128.5,-55.25 128.5,-85.75"/>
<text text-anchor="start" x="8" y="-72.25" font-family="Helvetica,sans-Serif" font-size="10.00">Ogre::Singleton&lt; Skeleton</text>
<text text-anchor="middle" x="64.25" y="-61" font-family="Helvetica,sans-Serif" font-size="10.00">Manager &gt;</text>
</a>
</g>
</g>
<!-- Node2&#45;&gt;Node1 -->
<g id="edge1_Node000001_Node000002" class="edge">
<title>Node2&#45;&gt;Node1</title>
<g id="a_edge1_Node000001_Node000002"><a xlink:title=" ">
<path fill="none" stroke="#63b8ff" d="M87.59,-46.97C97.43,-37.48 108.32,-26.97 115.85,-19.7"/>
<polygon fill="#63b8ff" stroke="#63b8ff" points="85.18,-44.43 80.42,-53.9 90.04,-49.47 85.18,-44.43"/>
</a>
</g>
</g>
<!-- Node3 -->
<g id="Node000003" class="node">
<title>Node3</title>
<g id="a_Node000003"><a xlink:href="class_ogre_1_1_allocated_object.html" target="_top" xlink:title="Superclass for all objects that wish to use custom memory allocators when their new / delete operator...">
<polygon fill="white" stroke="#666666" points="225.75,-80.12 146.75,-80.12 146.75,-60.88 225.75,-60.88 225.75,-80.12"/>
<text text-anchor="middle" x="186.25" y="-66.62" font-family="Helvetica,sans-Serif" font-size="10.00">ResourceAlloc</text>
</a>
</g>
</g>
<!-- Node3&#45;&gt;Node1 -->
<g id="edge2_Node000001_Node000003" class="edge">
<title>Node3&#45;&gt;Node1</title>
<g id="a_edge2_Node000001_Node000003"><a xlink:title=" ">
<path fill="none" stroke="#63b8ff" d="M168.82,-52.68C157.68,-41.93 143.68,-28.41 134.6,-19.65"/>
<polygon fill="#63b8ff" stroke="#63b8ff" points="166.27,-55.08 175.9,-59.51 171.13,-50.04 166.27,-55.08"/>
</a>
</g>
</g>
</g>
</svg>
