<?xml version="1.0" encoding="UTF-8" standalone="no"?>
<!DOCTYPE svg PUBLIC "-//W3C//DTD SVG 1.1//EN"
 "http://www.w3.org/Graphics/SVG/1.1/DTD/svg11.dtd">
<!-- Generated by graphviz version 7.0.5 (20221223.1930)
 -->
<!-- Title: Ogre::MultiSourceVertexBufferPool Pages: 1 -->
<svg width="497pt" height="182pt"
 viewBox="0.00 0.00 497.00 182.00" xmlns="http://www.w3.org/2000/svg" xmlns:xlink="http://www.w3.org/1999/xlink">
<g id="graph0" class="graph" transform="scale(1 1) rotate(0) translate(4 178)">
<title>Ogre::MultiSourceVertexBufferPool</title>
<!-- Node1 -->
<g id="node1" class="node">
<title>Node1</title>
<g id="a_node1"><a xlink:title="Vertex Array Objects do not need to change when: The same (internal) vertex buffer is still bound.">
<polygon fill="#999999" stroke="#666666" points="300,-96.5 133,-96.5 133,-77.5 300,-77.5 300,-96.5"/>
<text text-anchor="middle" x="216.5" y="-84.5" font-family="Helvetica,sans-Serif" font-size="10.00">Ogre::MultiSourceVertexBufferPool</text>
</a>
</g>
</g>
<!-- Node3 -->
<g id="node3" class="node">
<title>Node3</title>
<g id="a_node3"><a xlink:href="class_ogre_1_1_g_l3_plus_multi_source_vertex_buffer_pool.html" target="_top" xlink:title=" ">
<polygon fill="white" stroke="#666666" points="478.5,-174 346.5,-174 346.5,-144 478.5,-144 478.5,-174"/>
<text text-anchor="start" x="354.5" y="-162" font-family="Helvetica,sans-Serif" font-size="10.00">Ogre::GL3PlusMultiSource</text>
<text text-anchor="middle" x="412.5" y="-151" font-family="Helvetica,sans-Serif" font-size="10.00">VertexBufferPool</text>
</a>
</g>
</g>
<!-- Node1&#45;&gt;Node3 -->
<g id="edge2" class="edge">
<title>Node1&#45;&gt;Node3</title>
<path fill="none" stroke="#63b8ff" d="M250.95,-101.35C274.54,-111.28 306.98,-124.53 336,-135 344.02,-137.89 352.59,-140.79 360.96,-143.53"/>
<polygon fill="#63b8ff" stroke="#63b8ff" points="252.42,-98.18 241.85,-97.5 249.7,-104.62 252.42,-98.18"/>
</g>
<!-- Node4 -->
<g id="node4" class="node">
<title>Node4</title>
<g id="a_node4"><a xlink:href="class_ogre_1_1_g_l_e_s2_multi_source_vertex_buffer_pool.html" target="_top" xlink:title=" ">
<polygon fill="white" stroke="#666666" points="489,-126 336,-126 336,-96 489,-96 489,-126"/>
<text text-anchor="start" x="344" y="-114" font-family="Helvetica,sans-Serif" font-size="10.00">Ogre::GLES2MultiSourceVertex</text>
<text text-anchor="middle" x="412.5" y="-103" font-family="Helvetica,sans-Serif" font-size="10.00">BufferPool</text>
</a>
</g>
</g>
<!-- Node1&#45;&gt;Node4 -->
<g id="edge3" class="edge">
<title>Node1&#45;&gt;Node4</title>
<path fill="none" stroke="#63b8ff" d="M309.49,-98.38C318.21,-99.46 326.98,-100.54 335.52,-101.6"/>
<polygon fill="#63b8ff" stroke="#63b8ff" points="309.94,-94.91 299.59,-97.16 309.08,-101.86 309.94,-94.91"/>
</g>
<!-- Node5 -->
<g id="node5" class="node">
<title>Node5</title>
<g id="a_node5"><a xlink:href="class_ogre_1_1_metal_multi_source_vertex_buffer_pool.html" target="_top" xlink:title=" ">
<polygon fill="white" stroke="#666666" points="485.5,-78 339.5,-78 339.5,-48 485.5,-48 485.5,-78"/>
<text text-anchor="start" x="347.5" y="-66" font-family="Helvetica,sans-Serif" font-size="10.00">Ogre::MetalMultiSourceVertex</text>
<text text-anchor="middle" x="412.5" y="-55" font-family="Helvetica,sans-Serif" font-size="10.00">BufferPool</text>
</a>
</g>
</g>
<!-- Node1&#45;&gt;Node5 -->
<g id="edge4" class="edge">
<title>Node1&#45;&gt;Node5</title>
<path fill="none" stroke="#63b8ff" d="M309.35,-75.64C319.38,-74.4 329.48,-73.15 339.22,-71.94"/>
<polygon fill="#63b8ff" stroke="#63b8ff" points="309.08,-72.14 299.59,-76.84 309.94,-79.09 309.08,-72.14"/>
</g>
<!-- Node6 -->
<g id="node6" class="node">
<title>Node6</title>
<g id="a_node6"><a xlink:href="class_ogre_1_1_n_u_l_l_multi_source_vertex_buffer_pool.html" target="_top" xlink:title=" ">
<polygon fill="white" stroke="#666666" points="487,-30 338,-30 338,0 487,0 487,-30"/>
<text text-anchor="start" x="346" y="-18" font-family="Helvetica,sans-Serif" font-size="10.00">Ogre::NULLMultiSourceVertex</text>
<text text-anchor="middle" x="412.5" y="-7" font-family="Helvetica,sans-Serif" font-size="10.00">BufferPool</text>
</a>
</g>
</g>
<!-- Node1&#45;&gt;Node6 -->
<g id="edge5" class="edge">
<title>Node1&#45;&gt;Node6</title>
<path fill="none" stroke="#63b8ff" d="M250.95,-72.65C274.54,-62.72 306.98,-49.47 336,-39 344.02,-36.11 352.59,-33.21 360.96,-30.47"/>
<polygon fill="#63b8ff" stroke="#63b8ff" points="249.7,-69.38 241.85,-76.5 252.42,-75.82 249.7,-69.38"/>
</g>
<!-- Node2 -->
<g id="node2" class="node">
<title>Node2</title>
<g id="a_node2"><a xlink:href="class_ogre_1_1_allocated_object.html" target="_top" xlink:title="Superclass for all objects that wish to use custom memory allocators when their new / delete operator...">
<polygon fill="white" stroke="#666666" points="97,-96.5 0,-96.5 0,-77.5 97,-77.5 97,-96.5"/>
<text text-anchor="middle" x="48.5" y="-84.5" font-family="Helvetica,sans-Serif" font-size="10.00">BufferPackedAlloc</text>
</a>
</g>
</g>
<!-- Node2&#45;&gt;Node1 -->
<g id="edge1" class="edge">
<title>Node2&#45;&gt;Node1</title>
<path fill="none" stroke="#63b8ff" d="M108.41,-87C116.33,-87 124.57,-87 132.81,-87"/>
<polygon fill="#63b8ff" stroke="#63b8ff" points="108.58,-83.5 98.58,-87 108.58,-90.5 108.58,-83.5"/>
</g>
</g>
</svg>
