<?xml version="1.0" encoding="UTF-8" standalone="no"?>
<!DOCTYPE svg PUBLIC "-//W3C//DTD SVG 1.1//EN"
 "http://www.w3.org/Graphics/SVG/1.1/DTD/svg11.dtd">
<!-- Generated by graphviz version 7.0.5 (20221223.1930)
 -->
<!-- Title: Ogre::LodStrategy Pages: 1 -->
<svg width="594pt" height="161pt"
 viewBox="0.00 0.00 594.00 160.50" xmlns="http://www.w3.org/2000/svg" xmlns:xlink="http://www.w3.org/1999/xlink">
<g id="graph0" class="graph" transform="scale(1 1) rotate(0) translate(4 156.5)">
<title>Ogre::LodStrategy</title>
<!-- Node1 -->
<g id="node1" class="node">
<title>Node1</title>
<g id="a_node1"><a xlink:title="Strategy for determining level of detail.">
<polygon fill="#999999" stroke="#666666" points="186,-93.5 91,-93.5 91,-74.5 186,-74.5 186,-93.5"/>
<text text-anchor="middle" x="138.5" y="-81.5" font-family="Helvetica,sans-Serif" font-size="10.00">Ogre::LodStrategy</text>
</a>
</g>
</g>
<!-- Node3 -->
<g id="node3" class="node">
<title>Node3</title>
<g id="a_node3"><a xlink:href="class_ogre_1_1_distance_lod_strategy_base.html" target="_top" xlink:title="Level of detail strategy based on distance from camera.">
<polygon fill="white" stroke="#666666" points="381.5,-115.5 226.5,-115.5 226.5,-96.5 381.5,-96.5 381.5,-115.5"/>
<text text-anchor="middle" x="304" y="-103.5" font-family="Helvetica,sans-Serif" font-size="10.00">Ogre::DistanceLodStrategyBase</text>
</a>
</g>
</g>
<!-- Node1&#45;&gt;Node3 -->
<g id="edge2" class="edge">
<title>Node1&#45;&gt;Node3</title>
<path fill="none" stroke="#63b8ff" d="M197.57,-91.81C207.74,-93.18 218.45,-94.62 228.98,-96.04"/>
<polygon fill="#63b8ff" stroke="#63b8ff" points="198.23,-88.37 187.85,-90.51 197.3,-95.31 198.23,-88.37"/>
</g>
<!-- Node6 -->
<g id="node6" class="node">
<title>Node6</title>
<g id="a_node6"><a xlink:href="class_ogre_1_1_pixel_count_lod_strategy_base.html" target="_top" xlink:title="Abstract base class for level of detail strategy based on pixel count approximations from bounding sp...">
<polygon fill="white" stroke="#666666" points="386,-72.5 222,-72.5 222,-53.5 386,-53.5 386,-72.5"/>
<text text-anchor="middle" x="304" y="-60.5" font-family="Helvetica,sans-Serif" font-size="10.00">Ogre::PixelCountLodStrategyBase</text>
</a>
</g>
</g>
<!-- Node1&#45;&gt;Node6 -->
<g id="edge5" class="edge">
<title>Node1&#45;&gt;Node6</title>
<path fill="none" stroke="#63b8ff" d="M197.49,-76.55C206.5,-75.4 215.92,-74.18 225.27,-72.98"/>
<polygon fill="#63b8ff" stroke="#63b8ff" points="197.33,-73.04 187.85,-77.79 198.22,-79.99 197.33,-73.04"/>
</g>
<!-- Node2 -->
<g id="node2" class="node">
<title>Node2</title>
<g id="a_node2"><a xlink:href="class_ogre_1_1_allocated_object.html" target="_top" xlink:title="Superclass for all objects that wish to use custom memory allocators when their new / delete operator...">
<polygon fill="white" stroke="#666666" points="55,-93.5 0,-93.5 0,-74.5 55,-74.5 55,-93.5"/>
<text text-anchor="middle" x="27.5" y="-81.5" font-family="Helvetica,sans-Serif" font-size="10.00">LodAlloc</text>
</a>
</g>
</g>
<!-- Node2&#45;&gt;Node1 -->
<g id="edge1" class="edge">
<title>Node2&#45;&gt;Node1</title>
<path fill="none" stroke="#63b8ff" d="M66.8,-84C74.6,-84 82.88,-84 90.92,-84"/>
<polygon fill="#63b8ff" stroke="#63b8ff" points="66.96,-80.5 56.96,-84 66.96,-87.5 66.96,-80.5"/>
</g>
<!-- Node4 -->
<g id="node4" class="node">
<title>Node4</title>
<g id="a_node4"><a xlink:href="class_ogre_1_1_distance_lod_box_strategy.html" target="_top" xlink:title="Level of detail strategy based on distance from camera to an object&#39;s bounding box.">
<polygon fill="white" stroke="#666666" points="578.5,-152.5 429.5,-152.5 429.5,-133.5 578.5,-133.5 578.5,-152.5"/>
<text text-anchor="middle" x="504" y="-140.5" font-family="Helvetica,sans-Serif" font-size="10.00">Ogre::DistanceLodBoxStrategy</text>
</a>
</g>
</g>
<!-- Node3&#45;&gt;Node4 -->
<g id="edge3" class="edge">
<title>Node3&#45;&gt;Node4</title>
<path fill="none" stroke="#63b8ff" d="M369.55,-118.06C395.44,-122.9 424.93,-128.41 449.58,-133.02"/>
<polygon fill="#63b8ff" stroke="#63b8ff" points="370.28,-114.64 359.81,-116.24 369,-121.52 370.28,-114.64"/>
</g>
<!-- Node5 -->
<g id="node5" class="node">
<title>Node5</title>
<g id="a_node5"><a xlink:href="class_ogre_1_1_distance_lod_sphere_strategy.html" target="_top" xlink:title="Level of detail strategy based on distance from camera to an object&#39;s bounding sphere.">
<polygon fill="white" stroke="#666666" points="586,-115.5 422,-115.5 422,-96.5 586,-96.5 586,-115.5"/>
<text text-anchor="middle" x="504" y="-103.5" font-family="Helvetica,sans-Serif" font-size="10.00">Ogre::DistanceLodSphereStrategy</text>
</a>
</g>
</g>
<!-- Node3&#45;&gt;Node5 -->
<g id="edge4" class="edge">
<title>Node3&#45;&gt;Node5</title>
<path fill="none" stroke="#63b8ff" d="M393.26,-106C402.7,-106 412.27,-106 421.62,-106"/>
<polygon fill="#63b8ff" stroke="#63b8ff" points="393.35,-102.5 383.35,-106 393.35,-109.5 393.35,-102.5"/>
</g>
<!-- Node7 -->
<g id="node7" class="node">
<title>Node7</title>
<g id="a_node7"><a xlink:href="class_ogre_1_1_absolute_pixel_count_lod_strategy.html" target="_top" xlink:title="The AbsolutePixelCountLodStrategy class LOD strategy that works like ScreenRatioPixelCountLodStrategy...">
<polygon fill="white" stroke="#666666" points="567.5,-78 440.5,-78 440.5,-48 567.5,-48 567.5,-78"/>
<text text-anchor="start" x="448.5" y="-66" font-family="Helvetica,sans-Serif" font-size="10.00">Ogre::AbsolutePixelCount</text>
<text text-anchor="middle" x="504" y="-55" font-family="Helvetica,sans-Serif" font-size="10.00">LodStrategy</text>
</a>
</g>
</g>
<!-- Node6&#45;&gt;Node7 -->
<g id="edge6" class="edge">
<title>Node6&#45;&gt;Node7</title>
<path fill="none" stroke="#63b8ff" d="M397.81,-63C412.13,-63 426.62,-63 440.08,-63"/>
<polygon fill="#63b8ff" stroke="#63b8ff" points="397.9,-59.5 387.9,-63 397.9,-66.5 397.9,-59.5"/>
</g>
<!-- Node8 -->
<g id="node8" class="node">
<title>Node8</title>
<g id="a_node8"><a xlink:href="class_ogre_1_1_screen_ratio_pixel_count_lod_strategy.html" target="_top" xlink:title="The ScreenRatioPixelCountLodStrategy class Implement a strategy which calculates LOD ratios based on ...">
<polygon fill="white" stroke="#666666" points="575,-30 433,-30 433,0 575,0 575,-30"/>
<text text-anchor="start" x="441" y="-18" font-family="Helvetica,sans-Serif" font-size="10.00">Ogre::ScreenRatioPixelCount</text>
<text text-anchor="middle" x="504" y="-7" font-family="Helvetica,sans-Serif" font-size="10.00">LodStrategy</text>
</a>
</g>
</g>
<!-- Node6&#45;&gt;Node8 -->
<g id="edge7" class="edge">
<title>Node6&#45;&gt;Node8</title>
<path fill="none" stroke="#63b8ff" d="M357.2,-50.34C382.41,-44.23 412.86,-36.85 439.41,-30.42"/>
<polygon fill="#63b8ff" stroke="#63b8ff" points="356.39,-46.94 347.5,-52.7 358.04,-53.74 356.39,-46.94"/>
</g>
</g>
</svg>
