<?xml version="1.0" encoding="UTF-8" standalone="no"?>
<!DOCTYPE svg PUBLIC "-//W3C//DTD SVG 1.1//EN"
 "http://www.w3.org/Graphics/SVG/1.1/DTD/svg11.dtd">
<!-- Generated by graphviz version 2.44.0 ()
 -->
<!-- Title: Ogre::GpuResource Pages: 1 -->
<svg width="918pt" height="186pt"
 viewBox="0.00 0.00 918.00 186.00" xmlns="http://www.w3.org/2000/svg" xmlns:xlink="http://www.w3.org/1999/xlink">
<g id="graph0" class="graph" transform="scale(1 1) rotate(0) translate(4 182)">
<title>Ogre::GpuResource</title>
<!-- Node1 -->
<g id="node1" class="node">
<title>Node1</title>
<g id="a_node1"><a xlink:title=" ">
<polygon fill="#bfbfbf" stroke="black" points="116,-79 116,-98 217,-98 217,-79 116,-79"/>
<text text-anchor="middle" x="166.5" y="-86" font-family="Helvetica,sans-Serif" font-size="10.00">Ogre::GpuResource</text>
</a>
</g>
</g>
<!-- Node3 -->
<g id="node3" class="node">
<title>Node3</title>
<g id="a_node3"><a xlink:href="class_ogre_1_1_texture_gpu.html" target="_top" xlink:title=" ">
<polygon fill="none" stroke="black" points="253,-79 253,-98 345,-98 345,-79 253,-79"/>
<text text-anchor="middle" x="299" y="-86" font-family="Helvetica,sans-Serif" font-size="10.00">Ogre::TextureGpu</text>
</a>
</g>
</g>
<!-- Node1&#45;&gt;Node3 -->
<g id="edge2" class="edge">
<title>Node1&#45;&gt;Node3</title>
<path fill="none" stroke="midnightblue" d="M227.47,-88.5C235.95,-88.5 244.56,-88.5 252.71,-88.5"/>
<polygon fill="midnightblue" stroke="midnightblue" points="227.21,-85 217.21,-88.5 227.21,-92 227.21,-85"/>
</g>
<!-- Node2 -->
<g id="node2" class="node">
<title>Node2</title>
<g id="a_node2"><a xlink:href="class_ogre_1_1_allocated_object.html" target="_top" xlink:title="Superclass for all objects that wish to use custom memory allocators when their new / delete operator...">
<polygon fill="none" stroke="black" points="0,-79 0,-98 80,-98 80,-79 0,-79"/>
<text text-anchor="middle" x="40" y="-86" font-family="Helvetica,sans-Serif" font-size="10.00">ResourceAlloc</text>
</a>
</g>
</g>
<!-- Node2&#45;&gt;Node1 -->
<g id="edge1" class="edge">
<title>Node2&#45;&gt;Node1</title>
<path fill="none" stroke="midnightblue" d="M90.07,-88.5C98.46,-88.5 107.19,-88.5 115.6,-88.5"/>
<polygon fill="midnightblue" stroke="midnightblue" points="90.05,-85 80.05,-88.5 90.05,-92 90.05,-85"/>
</g>
<!-- Node4 -->
<g id="node4" class="node">
<title>Node4</title>
<g id="a_node4"><a xlink:href="class_ogre_1_1_d3_d11_texture_gpu.html" target="_top" xlink:title=" ">
<polygon fill="none" stroke="black" points="385.5,-146 385.5,-165 507.5,-165 507.5,-146 385.5,-146"/>
<text text-anchor="middle" x="446.5" y="-153" font-family="Helvetica,sans-Serif" font-size="10.00">Ogre::D3D11TextureGpu</text>
</a>
</g>
</g>
<!-- Node3&#45;&gt;Node4 -->
<g id="edge3" class="edge">
<title>Node3&#45;&gt;Node4</title>
<path fill="none" stroke="midnightblue" d="M326.89,-102.84C342.53,-110.99 362.69,-121.2 381,-129.5 393.86,-135.34 408.44,-141.27 420.48,-145.99"/>
<polygon fill="midnightblue" stroke="midnightblue" points="328.28,-99.62 317.8,-98.06 325.03,-105.81 328.28,-99.62"/>
</g>
<!-- Node7 -->
<g id="node7" class="node">
<title>Node7</title>
<g id="a_node7"><a xlink:href="class_ogre_1_1_g_l3_plus_texture_gpu.html" target="_top" xlink:title=" ">
<polygon fill="none" stroke="black" points="381,-101 381,-120 512,-120 512,-101 381,-101"/>
<text text-anchor="middle" x="446.5" y="-108" font-family="Helvetica,sans-Serif" font-size="10.00">Ogre::GL3PlusTextureGpu</text>
</a>
</g>
</g>
<!-- Node3&#45;&gt;Node7 -->
<g id="edge6" class="edge">
<title>Node3&#45;&gt;Node7</title>
<path fill="none" stroke="midnightblue" d="M355.18,-96.84C364.16,-98.2 373.51,-99.62 382.66,-101"/>
<polygon fill="midnightblue" stroke="midnightblue" points="355.65,-93.37 345.24,-95.34 354.6,-100.3 355.65,-93.37"/>
</g>
<!-- Node10 -->
<g id="node10" class="node">
<title>Node10</title>
<g id="a_node10"><a xlink:href="class_ogre_1_1_metal_texture_gpu.html" target="_top" xlink:title=" ">
<polygon fill="none" stroke="black" points="388.5,-60 388.5,-79 504.5,-79 504.5,-60 388.5,-60"/>
<text text-anchor="middle" x="446.5" y="-67" font-family="Helvetica,sans-Serif" font-size="10.00">Ogre::MetalTextureGpu</text>
</a>
</g>
</g>
<!-- Node3&#45;&gt;Node10 -->
<g id="edge9" class="edge">
<title>Node3&#45;&gt;Node10</title>
<path fill="none" stroke="midnightblue" d="M355.41,-81.26C366.23,-79.85 377.6,-78.37 388.47,-76.95"/>
<polygon fill="midnightblue" stroke="midnightblue" points="354.7,-77.83 345.24,-82.59 355.61,-84.77 354.7,-77.83"/>
</g>
<!-- Node13 -->
<g id="node13" class="node">
<title>Node13</title>
<g id="a_node13"><a xlink:href="class_ogre_1_1_n_u_l_l_texture_gpu.html" target="_top" xlink:title=" ">
<polygon fill="none" stroke="black" points="387,-17 387,-36 506,-36 506,-17 387,-17"/>
<text text-anchor="middle" x="446.5" y="-24" font-family="Helvetica,sans-Serif" font-size="10.00">Ogre::NULLTextureGpu</text>
</a>
</g>
</g>
<!-- Node3&#45;&gt;Node13 -->
<g id="edge12" class="edge">
<title>Node3&#45;&gt;Node13</title>
<path fill="none" stroke="midnightblue" d="M328.15,-74.6C343.61,-67.14 363.21,-57.97 381,-50.5 393.12,-45.41 406.73,-40.27 418.32,-36.05"/>
<polygon fill="midnightblue" stroke="midnightblue" points="326.58,-71.47 319.11,-78.99 329.64,-77.77 326.58,-71.47"/>
</g>
<!-- Node5 -->
<g id="node5" class="node">
<title>Node5</title>
<g id="a_node5"><a xlink:href="class_ogre_1_1_d3_d11_texture_gpu_render_target.html" target="_top" xlink:title=" ">
<polygon fill="none" stroke="black" points="552.5,-147.5 552.5,-177.5 704.5,-177.5 704.5,-147.5 552.5,-147.5"/>
<text text-anchor="start" x="560.5" y="-165.5" font-family="Helvetica,sans-Serif" font-size="10.00">Ogre::D3D11TextureGpuRender</text>
<text text-anchor="middle" x="628.5" y="-154.5" font-family="Helvetica,sans-Serif" font-size="10.00">Target</text>
</a>
</g>
</g>
<!-- Node4&#45;&gt;Node5 -->
<g id="edge4" class="edge">
<title>Node4&#45;&gt;Node5</title>
<path fill="none" stroke="midnightblue" d="M517.91,-158.24C529.2,-158.68 540.93,-159.13 552.32,-159.58"/>
<polygon fill="midnightblue" stroke="midnightblue" points="517.82,-154.73 507.69,-157.84 517.54,-161.73 517.82,-154.73"/>
</g>
<!-- Node6 -->
<g id="node6" class="node">
<title>Node6</title>
<g id="a_node6"><a xlink:href="class_ogre_1_1_d3_d11_texture_gpu_window.html" target="_top" xlink:title=" ">
<polygon fill="none" stroke="black" points="749.5,-153 749.5,-172 905.5,-172 905.5,-153 749.5,-153"/>
<text text-anchor="middle" x="827.5" y="-160" font-family="Helvetica,sans-Serif" font-size="10.00">Ogre::D3D11TextureGpuWindow</text>
</a>
</g>
</g>
<!-- Node5&#45;&gt;Node6 -->
<g id="edge5" class="edge">
<title>Node5&#45;&gt;Node6</title>
<path fill="none" stroke="midnightblue" d="M714.61,-162.5C726.17,-162.5 737.98,-162.5 749.38,-162.5"/>
<polygon fill="midnightblue" stroke="midnightblue" points="714.54,-159 704.54,-162.5 714.54,-166 714.54,-159"/>
</g>
<!-- Node8 -->
<g id="node8" class="node">
<title>Node8</title>
<g id="a_node8"><a xlink:href="class_ogre_1_1_g_l3_plus_texture_gpu_render_target.html" target="_top" xlink:title=" ">
<polygon fill="none" stroke="black" points="548,-98.5 548,-128.5 709,-128.5 709,-98.5 548,-98.5"/>
<text text-anchor="start" x="556" y="-116.5" font-family="Helvetica,sans-Serif" font-size="10.00">Ogre::GL3PlusTextureGpuRender</text>
<text text-anchor="middle" x="628.5" y="-105.5" font-family="Helvetica,sans-Serif" font-size="10.00">Target</text>
</a>
</g>
</g>
<!-- Node7&#45;&gt;Node8 -->
<g id="edge7" class="edge">
<title>Node7&#45;&gt;Node8</title>
<path fill="none" stroke="midnightblue" d="M522.41,-111.75C530.85,-111.89 539.47,-112.03 547.97,-112.17"/>
<polygon fill="midnightblue" stroke="midnightblue" points="522.29,-108.25 512.23,-111.58 522.17,-115.25 522.29,-108.25"/>
</g>
<!-- Node9 -->
<g id="node9" class="node">
<title>Node9</title>
<g id="a_node9"><a xlink:href="class_ogre_1_1_g_l3_plus_texture_gpu_window.html" target="_top" xlink:title=" ">
<polygon fill="none" stroke="black" points="745,-104 745,-123 910,-123 910,-104 745,-104"/>
<text text-anchor="middle" x="827.5" y="-111" font-family="Helvetica,sans-Serif" font-size="10.00">Ogre::GL3PlusTextureGpuWindow</text>
</a>
</g>
</g>
<!-- Node8&#45;&gt;Node9 -->
<g id="edge8" class="edge">
<title>Node8&#45;&gt;Node9</title>
<path fill="none" stroke="midnightblue" d="M719.32,-113.5C727.79,-113.5 736.33,-113.5 744.72,-113.5"/>
<polygon fill="midnightblue" stroke="midnightblue" points="719.06,-110 709.06,-113.5 719.06,-117 719.06,-110"/>
</g>
<!-- Node11 -->
<g id="node11" class="node">
<title>Node11</title>
<g id="a_node11"><a xlink:href="class_ogre_1_1_metal_texture_gpu_render_target.html" target="_top" xlink:title=" ">
<polygon fill="none" stroke="black" points="555,-49.5 555,-79.5 702,-79.5 702,-49.5 555,-49.5"/>
<text text-anchor="start" x="563" y="-67.5" font-family="Helvetica,sans-Serif" font-size="10.00">Ogre::MetalTextureGpuRender</text>
<text text-anchor="middle" x="628.5" y="-56.5" font-family="Helvetica,sans-Serif" font-size="10.00">Target</text>
</a>
</g>
</g>
<!-- Node10&#45;&gt;Node11 -->
<g id="edge10" class="edge">
<title>Node10&#45;&gt;Node11</title>
<path fill="none" stroke="midnightblue" d="M515.16,-67.62C528.1,-67.26 541.69,-66.88 554.78,-66.52"/>
<polygon fill="midnightblue" stroke="midnightblue" points="514.85,-64.13 504.95,-67.9 515.04,-71.13 514.85,-64.13"/>
</g>
<!-- Node12 -->
<g id="node12" class="node">
<title>Node12</title>
<g id="a_node12"><a xlink:href="class_ogre_1_1_metal_texture_gpu_window.html" target="_top" xlink:title=" ">
<polygon fill="none" stroke="black" points="752,-55 752,-74 903,-74 903,-55 752,-55"/>
<text text-anchor="middle" x="827.5" y="-62" font-family="Helvetica,sans-Serif" font-size="10.00">Ogre::MetalTextureGpuWindow</text>
</a>
</g>
</g>
<!-- Node11&#45;&gt;Node12 -->
<g id="edge11" class="edge">
<title>Node11&#45;&gt;Node12</title>
<path fill="none" stroke="midnightblue" d="M712.02,-64.5C725.22,-64.5 738.82,-64.5 751.83,-64.5"/>
<polygon fill="midnightblue" stroke="midnightblue" points="712.02,-61 702.02,-64.5 712.02,-68 712.02,-61"/>
</g>
<!-- Node14 -->
<g id="node14" class="node">
<title>Node14</title>
<g id="a_node14"><a xlink:href="class_ogre_1_1_n_u_l_l_texture_gpu_render_target.html" target="_top" xlink:title=" ">
<polygon fill="none" stroke="black" points="553.5,-0.5 553.5,-30.5 703.5,-30.5 703.5,-0.5 553.5,-0.5"/>
<text text-anchor="start" x="561.5" y="-18.5" font-family="Helvetica,sans-Serif" font-size="10.00">Ogre::NULLTextureGpuRender</text>
<text text-anchor="middle" x="628.5" y="-7.5" font-family="Helvetica,sans-Serif" font-size="10.00">Target</text>
</a>
</g>
</g>
<!-- Node13&#45;&gt;Node14 -->
<g id="edge13" class="edge">
<title>Node13&#45;&gt;Node14</title>
<path fill="none" stroke="midnightblue" d="M516.43,-22.29C528.5,-21.55 541.1,-20.78 553.3,-20.03"/>
<polygon fill="midnightblue" stroke="midnightblue" points="516.21,-18.79 506.44,-22.9 516.63,-25.78 516.21,-18.79"/>
</g>
</g>
</svg>
