<?xml version="1.0" encoding="UTF-8" standalone="no"?>
<!DOCTYPE svg PUBLIC "-//W3C//DTD SVG 1.1//EN"
 "http://www.w3.org/Graphics/SVG/1.1/DTD/svg11.dtd">
<!-- Generated by graphviz version 9.0.0 (20230911.1827)
 -->
<!-- Title: Ogre::Terrain::GpuBufferAllocator Pages: 1 -->
<svg width="133pt" height="160pt"
 viewBox="0.00 0.00 132.75 160.25" xmlns="http://www.w3.org/2000/svg" xmlns:xlink="http://www.w3.org/1999/xlink">
<g id="graph0" class="graph" transform="scale(1 1) rotate(0) translate(4 156.25)">
<title>Ogre::Terrain::GpuBufferAllocator</title>
<!-- Node1 -->
<g id="Node000001" class="node">
<title>Node1</title>
<g id="a_Node000001"><a xlink:title="Interface used to by the Terrain instance to allocate GPU buffers.">
<polygon fill="#999999" stroke="#666666" points="122.12,-97 2.63,-97 2.63,-66.5 122.12,-66.5 122.12,-97"/>
<text text-anchor="start" x="10.62" y="-83.5" font-family="Helvetica,sans-Serif" font-size="10.00">Ogre::Terrain::GpuBuffer</text>
<text text-anchor="middle" x="62.38" y="-72.25" font-family="Helvetica,sans-Serif" font-size="10.00">Allocator</text>
</a>
</g>
</g>
<!-- Node3 -->
<g id="Node000003" class="node">
<title>Node3</title>
<g id="a_Node000003"><a xlink:href="class_ogre_1_1_terrain_1_1_default_gpu_buffer_allocator.html" target="_top" xlink:title="Standard implementation of a buffer allocator which re&#45;uses buffers.">
<polygon fill="white" stroke="#666666" points="124.75,-30.5 0,-30.5 0,0 124.75,0 124.75,-30.5"/>
<text text-anchor="start" x="8" y="-17" font-family="Helvetica,sans-Serif" font-size="10.00">Ogre::Terrain::DefaultGpu</text>
<text text-anchor="middle" x="62.38" y="-5.75" font-family="Helvetica,sans-Serif" font-size="10.00">BufferAllocator</text>
</a>
</g>
</g>
<!-- Node1&#45;&gt;Node3 -->
<g id="edge2_Node000001_Node000003" class="edge">
<title>Node1&#45;&gt;Node3</title>
<g id="a_edge2_Node000001_Node000003"><a xlink:title=" ">
<path fill="none" stroke="#63b8ff" d="M62.38,-54.81C62.38,-46.64 62.38,-37.91 62.38,-30.83"/>
<polygon fill="#63b8ff" stroke="#63b8ff" points="58.88,-54.6 62.38,-64.6 65.88,-54.6 58.88,-54.6"/>
</a>
</g>
</g>
<!-- Node2 -->
<g id="Node000002" class="node">
<title>Node2</title>
<g id="a_Node000002"><a xlink:href="class_ogre_1_1_allocated_object.html" target="_top" xlink:title="Superclass for all objects that wish to use custom memory allocators when their new / delete operator...">
<polygon fill="white" stroke="#666666" points="96.25,-152.25 28.5,-152.25 28.5,-133 96.25,-133 96.25,-152.25"/>
<text text-anchor="middle" x="62.38" y="-138.75" font-family="Helvetica,sans-Serif" font-size="10.00">TerrainAlloc</text>
</a>
</g>
</g>
<!-- Node2&#45;&gt;Node1 -->
<g id="edge1_Node000001_Node000002" class="edge">
<title>Node2&#45;&gt;Node1</title>
<g id="a_edge1_Node000001_Node000002"><a xlink:title=" ">
<path fill="none" stroke="#63b8ff" d="M62.38,-121.42C62.38,-113.49 62.38,-104.56 62.38,-97.28"/>
<polygon fill="#63b8ff" stroke="#63b8ff" points="58.88,-121.17 62.38,-131.17 65.88,-121.17 58.88,-121.17"/>
</a>
</g>
</g>
</g>
</svg>
