<?xml version="1.0" encoding="UTF-8" standalone="no"?>
<!DOCTYPE svg PUBLIC "-//W3C//DTD SVG 1.1//EN"
 "http://www.w3.org/Graphics/SVG/1.1/DTD/svg11.dtd">
<!-- Generated by graphviz version 2.44.0 ()
 -->
<!-- Title: Ogre::DataStream Pages: 1 -->
<svg width="385pt" height="180pt"
 viewBox="0.00 0.00 385.00 180.00" xmlns="http://www.w3.org/2000/svg" xmlns:xlink="http://www.w3.org/1999/xlink">
<g id="graph0" class="graph" transform="scale(1 1) rotate(0) translate(4 176)">
<title>Ogre::DataStream</title>
<!-- Node1 -->
<g id="node1" class="node">
<title>Node1</title>
<g id="a_node1"><a xlink:title="General purpose class used for encapsulating the reading and writing of data.">
<polygon fill="#bfbfbf" stroke="black" points="106,-76.5 106,-95.5 200,-95.5 200,-76.5 106,-76.5"/>
<text text-anchor="middle" x="153" y="-83.5" font-family="Helvetica,sans-Serif" font-size="10.00">Ogre::DataStream</text>
</a>
</g>
</g>
<!-- Node3 -->
<g id="node3" class="node">
<title>Node3</title>
<g id="a_node3"><a xlink:href="class_ogre_1_1_deflate_stream.html" target="_top" xlink:title="Stream which compresses / uncompresses data using the &#39;deflate&#39; compression algorithm.">
<polygon fill="none" stroke="black" points="254.5,-152.5 254.5,-171.5 358.5,-171.5 358.5,-152.5 254.5,-152.5"/>
<text text-anchor="middle" x="306.5" y="-159.5" font-family="Helvetica,sans-Serif" font-size="10.00">Ogre::DeflateStream</text>
</a>
</g>
</g>
<!-- Node1&#45;&gt;Node3 -->
<g id="edge2" class="edge">
<title>Node1&#45;&gt;Node3</title>
<path fill="none" stroke="midnightblue" d="M173.17,-102.16C189.09,-114.86 212.81,-132.16 236,-143 244.05,-146.76 252.97,-149.9 261.68,-152.46"/>
<polygon fill="midnightblue" stroke="midnightblue" points="175.14,-99.26 165.18,-95.65 170.72,-104.68 175.14,-99.26"/>
</g>
<!-- Node4 -->
<g id="node4" class="node">
<title>Node4</title>
<g id="a_node4"><a xlink:href="class_ogre_1_1_file_handle_data_stream.html" target="_top" xlink:title="Common subclass of DataStream for handling data from C&#45;style file handles.">
<polygon fill="none" stroke="black" points="236.5,-114.5 236.5,-133.5 376.5,-133.5 376.5,-114.5 236.5,-114.5"/>
<text text-anchor="middle" x="306.5" y="-121.5" font-family="Helvetica,sans-Serif" font-size="10.00">Ogre::FileHandleDataStream</text>
</a>
</g>
</g>
<!-- Node1&#45;&gt;Node4 -->
<g id="edge3" class="edge">
<title>Node1&#45;&gt;Node4</title>
<path fill="none" stroke="midnightblue" d="M202,-98.04C223.17,-103.35 247.69,-109.5 267.55,-114.48"/>
<polygon fill="midnightblue" stroke="midnightblue" points="202.78,-94.63 192.23,-95.59 201.08,-101.42 202.78,-94.63"/>
</g>
<!-- Node5 -->
<g id="node5" class="node">
<title>Node5</title>
<g id="a_node5"><a xlink:href="class_ogre_1_1_file_stream_data_stream.html" target="_top" xlink:title="Common subclass of DataStream for handling data from std::basic_istream.">
<polygon fill="none" stroke="black" points="236,-76.5 236,-95.5 377,-95.5 377,-76.5 236,-76.5"/>
<text text-anchor="middle" x="306.5" y="-83.5" font-family="Helvetica,sans-Serif" font-size="10.00">Ogre::FileStreamDataStream</text>
</a>
</g>
</g>
<!-- Node1&#45;&gt;Node5 -->
<g id="edge4" class="edge">
<title>Node1&#45;&gt;Node5</title>
<path fill="none" stroke="midnightblue" d="M210.51,-86C218.76,-86 227.33,-86 235.8,-86"/>
<polygon fill="midnightblue" stroke="midnightblue" points="210.28,-82.5 200.28,-86 210.28,-89.5 210.28,-82.5"/>
</g>
<!-- Node6 -->
<g id="node6" class="node">
<title>Node6</title>
<g id="a_node6"><a xlink:href="class_ogre_1_1_memory_data_stream.html" target="_top" xlink:title="Common subclass of DataStream for handling data from chunks of memory.">
<polygon fill="none" stroke="black" points="242.5,-38.5 242.5,-57.5 370.5,-57.5 370.5,-38.5 242.5,-38.5"/>
<text text-anchor="middle" x="306.5" y="-45.5" font-family="Helvetica,sans-Serif" font-size="10.00">Ogre::MemoryDataStream</text>
</a>
</g>
</g>
<!-- Node1&#45;&gt;Node6 -->
<g id="edge5" class="edge">
<title>Node1&#45;&gt;Node6</title>
<path fill="none" stroke="midnightblue" d="M202,-73.96C223.17,-68.65 247.69,-62.5 267.55,-57.52"/>
<polygon fill="midnightblue" stroke="midnightblue" points="201.08,-70.58 192.23,-76.41 202.78,-77.37 201.08,-70.58"/>
</g>
<!-- Node7 -->
<g id="node7" class="node">
<title>Node7</title>
<g id="a_node7"><a xlink:href="class_ogre_1_1_zip_data_stream.html" target="_top" xlink:title="Specialisation of DataStream to handle streaming data from zip archives.">
<polygon fill="none" stroke="black" points="253,-0.5 253,-19.5 360,-19.5 360,-0.5 253,-0.5"/>
<text text-anchor="middle" x="306.5" y="-7.5" font-family="Helvetica,sans-Serif" font-size="10.00">Ogre::ZipDataStream</text>
</a>
</g>
</g>
<!-- Node1&#45;&gt;Node7 -->
<g id="edge6" class="edge">
<title>Node1&#45;&gt;Node7</title>
<path fill="none" stroke="midnightblue" d="M173.17,-69.84C189.09,-57.14 212.81,-39.84 236,-29 244.05,-25.24 252.97,-22.1 261.68,-19.54"/>
<polygon fill="midnightblue" stroke="midnightblue" points="170.72,-67.32 165.18,-76.35 175.14,-72.74 170.72,-67.32"/>
</g>
<!-- Node2 -->
<g id="node2" class="node">
<title>Node2</title>
<g id="a_node2"><a xlink:href="class_ogre_1_1_allocated_object.html" target="_top" xlink:title="Superclass for all objects that wish to use custom memory allocators when their new / delete operator...">
<polygon fill="none" stroke="black" points="0,-76.5 0,-95.5 70,-95.5 70,-76.5 0,-76.5"/>
<text text-anchor="middle" x="35" y="-83.5" font-family="Helvetica,sans-Serif" font-size="10.00">StreamAlloc</text>
</a>
</g>
</g>
<!-- Node2&#45;&gt;Node1 -->
<g id="edge1" class="edge">
<title>Node2&#45;&gt;Node1</title>
<path fill="none" stroke="midnightblue" d="M80.37,-86C88.63,-86 97.28,-86 105.6,-86"/>
<polygon fill="midnightblue" stroke="midnightblue" points="80.18,-82.5 70.18,-86 80.18,-89.5 80.18,-82.5"/>
</g>
</g>
</svg>
