<?xml version="1.0" encoding="UTF-8" standalone="no"?>
<!DOCTYPE svg PUBLIC "-//W3C//DTD SVG 1.1//EN"
 "http://www.w3.org/Graphics/SVG/1.1/DTD/svg11.dtd">
<!-- Generated by graphviz version 9.0.0 (20230911.1827)
 -->
<!-- Title: Ogre::FileSystemArchiveFactory Pages: 1 -->
<svg width="236pt" height="138pt"
 viewBox="0.00 0.00 235.50 137.75" xmlns="http://www.w3.org/2000/svg" xmlns:xlink="http://www.w3.org/1999/xlink">
<g id="graph0" class="graph" transform="scale(1 1) rotate(0) translate(4 133.75)">
<title>Ogre::FileSystemArchiveFactory</title>
<!-- Node1 -->
<g id="Node000001" class="node">
<title>Node1</title>
<g id="a_Node000001"><a xlink:title="Specialisation of ArchiveFactory for FileSystem files.">
<polygon fill="#999999" stroke="#666666" points="207.88,-19.25 52.38,-19.25 52.38,0 207.88,0 207.88,-19.25"/>
<text text-anchor="middle" x="130.12" y="-5.75" font-family="Helvetica,sans-Serif" font-size="10.00">Ogre::FileSystemArchiveFactory</text>
</a>
</g>
</g>
<!-- Node2 -->
<g id="Node000002" class="node">
<title>Node2</title>
<g id="a_Node000002"><a xlink:href="class_ogre_1_1_archive_factory.html" target="_top" xlink:title="Abstract factory class, archive codec plugins can register concrete subclasses of this.">
<polygon fill="white" stroke="#666666" points="183.5,-74.5 76.75,-74.5 76.75,-55.25 183.5,-55.25 183.5,-74.5"/>
<text text-anchor="middle" x="130.12" y="-61" font-family="Helvetica,sans-Serif" font-size="10.00">Ogre::ArchiveFactory</text>
</a>
</g>
</g>
<!-- Node2&#45;&gt;Node1 -->
<g id="edge1_Node000001_Node000002" class="edge">
<title>Node2&#45;&gt;Node1</title>
<g id="a_edge1_Node000001_Node000002"><a xlink:title=" ">
<path fill="none" stroke="#63b8ff" d="M130.12,-43.63C130.12,-35.34 130.12,-26.17 130.12,-19.61"/>
<polygon fill="#63b8ff" stroke="#63b8ff" points="126.63,-43.57 130.13,-53.57 133.63,-43.57 126.63,-43.57"/>
</a>
</g>
</g>
<!-- Node3 -->
<g id="Node000003" class="node">
<title>Node3</title>
<g id="a_Node000003"><a xlink:href="class_ogre_1_1_factory_obj.html" target="_top" xlink:title=" ">
<polygon fill="white" stroke="#666666" points="138.25,-129.75 0,-129.75 0,-110.5 138.25,-110.5 138.25,-129.75"/>
<text text-anchor="middle" x="69.12" y="-116.25" font-family="Helvetica,sans-Serif" font-size="10.00">Ogre::FactoryObj&lt; Archive &gt;</text>
</a>
</g>
</g>
<!-- Node3&#45;&gt;Node2 -->
<g id="edge2_Node000002_Node000003" class="edge">
<title>Node3&#45;&gt;Node2</title>
<g id="a_edge2_Node000002_Node000003"><a xlink:title=" ">
<path fill="none" stroke="#63b8ff" d="M88.01,-102.64C98.55,-93.44 111.25,-82.35 119.93,-74.77"/>
<polygon fill="#63b8ff" stroke="#63b8ff" points="85.84,-99.88 80.61,-109.1 90.45,-105.16 85.84,-99.88"/>
</a>
</g>
</g>
<!-- Node4 -->
<g id="Node000004" class="node">
<title>Node4</title>
<g id="a_Node000004"><a xlink:href="class_ogre_1_1_allocated_object.html" target="_top" xlink:title="Superclass for all objects that wish to use custom memory allocators when their new / delete operator...">
<polygon fill="white" stroke="#666666" points="227.5,-129.75 156.75,-129.75 156.75,-110.5 227.5,-110.5 227.5,-129.75"/>
<text text-anchor="middle" x="192.12" y="-116.25" font-family="Helvetica,sans-Serif" font-size="10.00">ArchiveAlloc</text>
</a>
</g>
</g>
<!-- Node4&#45;&gt;Node2 -->
<g id="edge3_Node000002_Node000004" class="edge">
<title>Node4&#45;&gt;Node2</title>
<g id="a_edge3_Node000002_Node000004"><a xlink:title=" ">
<path fill="none" stroke="#63b8ff" d="M172.93,-102.64C162.22,-93.44 149.31,-82.35 140.49,-74.77"/>
<polygon fill="#63b8ff" stroke="#63b8ff" points="170.59,-105.25 180.46,-109.11 175.15,-99.94 170.59,-105.25"/>
</a>
</g>
</g>
</g>
</svg>
