<?xml version="1.0" encoding="UTF-8" standalone="no"?>
<!DOCTYPE svg PUBLIC "-//W3C//DTD SVG 1.1//EN"
 "http://www.w3.org/Graphics/SVG/1.1/DTD/svg11.dtd">
<!-- Generated by graphviz version 7.0.5 (20221223.1930)
 -->
<!-- Title: Ogre::RegionSceneQuery Pages: 1 -->
<svg width="959pt" height="257pt"
 viewBox="0.00 0.00 959.00 256.50" xmlns="http://www.w3.org/2000/svg" xmlns:xlink="http://www.w3.org/1999/xlink">
<g id="graph0" class="graph" transform="scale(1 1) rotate(0) translate(4 252.5)">
<title>Ogre::RegionSceneQuery</title>
<!-- Node1 -->
<g id="node1" class="node">
<title>Node1</title>
<g id="a_node1"><a xlink:title="Abstract class defining a query which returns single results from a region.">
<polygon fill="#999999" stroke="#666666" points="411,-126 286,-126 286,-107 411,-107 411,-126"/>
<text text-anchor="middle" x="348.5" y="-114" font-family="Helvetica,sans-Serif" font-size="10.00">Ogre::RegionSceneQuery</text>
</a>
</g>
</g>
<!-- Node5 -->
<g id="node5" class="node">
<title>Node5</title>
<g id="a_node5"><a xlink:href="class_ogre_1_1_axis_aligned_box_scene_query.html" target="_top" xlink:title="Specialises the SceneQuery class for querying within an axis aligned box.">
<polygon fill="white" stroke="#666666" points="584.5,-189.5 447.5,-189.5 447.5,-159.5 584.5,-159.5 584.5,-189.5"/>
<text text-anchor="start" x="455.5" y="-177.5" font-family="Helvetica,sans-Serif" font-size="10.00">Ogre::AxisAlignedBoxScene</text>
<text text-anchor="middle" x="516" y="-166.5" font-family="Helvetica,sans-Serif" font-size="10.00">Query</text>
</a>
</g>
</g>
<!-- Node1&#45;&gt;Node5 -->
<g id="edge4" class="edge">
<title>Node1&#45;&gt;Node5</title>
<path fill="none" stroke="#63b8ff" d="M388.76,-130.26C413.5,-138.93 445.48,-150.14 471.07,-159.1"/>
<polygon fill="#63b8ff" stroke="#63b8ff" points="389.97,-126.98 379.38,-126.97 387.66,-133.58 389.97,-126.98"/>
</g>
<!-- Node9 -->
<g id="node9" class="node">
<title>Node9</title>
<g id="a_node9"><a xlink:href="class_ogre_1_1_plane_bounded_volume_list_scene_query.html" target="_top" xlink:title="Specialises the SceneQuery class for querying within a plane&#45;bounded volume.">
<polygon fill="white" stroke="#666666" points="585,-131.5 447,-131.5 447,-101.5 585,-101.5 585,-131.5"/>
<text text-anchor="start" x="455" y="-119.5" font-family="Helvetica,sans-Serif" font-size="10.00">Ogre::PlaneBoundedVolume</text>
<text text-anchor="middle" x="516" y="-108.5" font-family="Helvetica,sans-Serif" font-size="10.00">ListSceneQuery</text>
</a>
</g>
</g>
<!-- Node1&#45;&gt;Node9 -->
<g id="edge8" class="edge">
<title>Node1&#45;&gt;Node9</title>
<path fill="none" stroke="#63b8ff" d="M422.4,-116.5C430.46,-116.5 438.65,-116.5 446.65,-116.5"/>
<polygon fill="#63b8ff" stroke="#63b8ff" points="422.64,-113 412.64,-116.5 422.64,-120 422.64,-113"/>
</g>
<!-- Node13 -->
<g id="node13" class="node">
<title>Node13</title>
<g id="a_node13"><a xlink:href="class_ogre_1_1_sphere_scene_query.html" target="_top" xlink:title="Specialises the SceneQuery class for querying within a sphere.">
<polygon fill="white" stroke="#666666" points="579,-70 453,-70 453,-51 579,-51 579,-70"/>
<text text-anchor="middle" x="516" y="-58" font-family="Helvetica,sans-Serif" font-size="10.00">Ogre::SphereSceneQuery</text>
</a>
</g>
</g>
<!-- Node1&#45;&gt;Node13 -->
<g id="edge12" class="edge">
<title>Node1&#45;&gt;Node13</title>
<path fill="none" stroke="#63b8ff" d="M389.51,-102.96C419.12,-92.94 458.78,-79.52 485.53,-70.47"/>
<polygon fill="#63b8ff" stroke="#63b8ff" points="388.49,-99.61 380.14,-106.13 390.74,-106.24 388.49,-99.61"/>
</g>
<!-- Node2 -->
<g id="node2" class="node">
<title>Node2</title>
<g id="a_node2"><a xlink:href="class_ogre_1_1_scene_query.html" target="_top" xlink:title="A class for performing queries on a scene.">
<polygon fill="white" stroke="#666666" points="232,-145 137,-145 137,-126 232,-126 232,-145"/>
<text text-anchor="middle" x="184.5" y="-133" font-family="Helvetica,sans-Serif" font-size="10.00">Ogre::SceneQuery</text>
</a>
</g>
</g>
<!-- Node2&#45;&gt;Node1 -->
<g id="edge1" class="edge">
<title>Node2&#45;&gt;Node1</title>
<path fill="none" stroke="#63b8ff" d="M243.57,-128.69C257.23,-127.09 271.85,-125.37 285.67,-123.75"/>
<polygon fill="#63b8ff" stroke="#63b8ff" points="243.38,-125.19 233.86,-129.83 244.2,-132.14 243.38,-125.19"/>
</g>
<!-- Node3 -->
<g id="node3" class="node">
<title>Node3</title>
<g id="a_node3"><a xlink:href="class_ogre_1_1_allocated_object.html" target="_top" xlink:title="Superclass for all objects that wish to use custom memory allocators when their new / delete operator...">
<polygon fill="white" stroke="#666666" points="83,-145 0,-145 0,-126 83,-126 83,-145"/>
<text text-anchor="middle" x="41.5" y="-133" font-family="Helvetica,sans-Serif" font-size="10.00">SceneMgtAlloc</text>
</a>
</g>
</g>
<!-- Node3&#45;&gt;Node2 -->
<g id="edge2" class="edge">
<title>Node3&#45;&gt;Node2</title>
<path fill="none" stroke="#63b8ff" d="M94.56,-135.5C108.34,-135.5 123.12,-135.5 136.6,-135.5"/>
<polygon fill="#63b8ff" stroke="#63b8ff" points="94.8,-132 84.8,-135.5 94.8,-139 94.8,-132"/>
</g>
<!-- Node4 -->
<g id="node4" class="node">
<title>Node4</title>
<g id="a_node4"><a xlink:href="class_ogre_1_1_scene_query_listener.html" target="_top" xlink:title="This optional class allows you to receive per&#45;result callbacks from SceneQuery executions instead of ...">
<polygon fill="white" stroke="#666666" points="250,-108 119,-108 119,-89 250,-89 250,-108"/>
<text text-anchor="middle" x="184.5" y="-96" font-family="Helvetica,sans-Serif" font-size="10.00">Ogre::SceneQueryListener</text>
</a>
</g>
</g>
<!-- Node4&#45;&gt;Node1 -->
<g id="edge3" class="edge">
<title>Node4&#45;&gt;Node1</title>
<path fill="none" stroke="#63b8ff" d="M261.73,-106.97C269.76,-107.86 277.85,-108.76 285.68,-109.63"/>
<polygon fill="#63b8ff" stroke="#63b8ff" points="262.29,-103.51 251.96,-105.88 261.51,-110.47 262.29,-103.51"/>
</g>
<!-- Node6 -->
<g id="node6" class="node">
<title>Node6</title>
<g id="a_node6"><a xlink:href="class_ogre_1_1_default_axis_aligned_box_scene_query.html" target="_top" xlink:title="Default implementation of AxisAlignedBoxSceneQuery.">
<polygon fill="white" stroke="#666666" points="751,-200.5 627,-200.5 627,-170.5 751,-170.5 751,-200.5"/>
<text text-anchor="start" x="635" y="-188.5" font-family="Helvetica,sans-Serif" font-size="10.00">Ogre::DefaultAxisAligned</text>
<text text-anchor="middle" x="689" y="-177.5" font-family="Helvetica,sans-Serif" font-size="10.00">BoxSceneQuery</text>
</a>
</g>
</g>
<!-- Node5&#45;&gt;Node6 -->
<g id="edge5" class="edge">
<title>Node5&#45;&gt;Node6</title>
<path fill="none" stroke="#63b8ff" d="M595.78,-179.57C606.17,-180.24 616.7,-180.91 626.74,-181.56"/>
<polygon fill="#63b8ff" stroke="#63b8ff" points="596.3,-176.09 586.09,-178.94 595.85,-183.08 596.3,-176.09"/>
</g>
<!-- Node7 -->
<g id="node7" class="node">
<title>Node7</title>
<g id="a_node7"><a xlink:href="class_ogre_1_1_octree_axis_aligned_box_scene_query.html" target="_top" xlink:title="Octree implementation of AxisAlignedBoxSceneQuery.">
<polygon fill="white" stroke="#666666" points="941.5,-248.5 802.5,-248.5 802.5,-218.5 941.5,-218.5 941.5,-248.5"/>
<text text-anchor="start" x="810.5" y="-236.5" font-family="Helvetica,sans-Serif" font-size="10.00">Ogre::OctreeAxisAlignedBox</text>
<text text-anchor="middle" x="872" y="-225.5" font-family="Helvetica,sans-Serif" font-size="10.00">SceneQuery</text>
</a>
</g>
</g>
<!-- Node6&#45;&gt;Node7 -->
<g id="edge6" class="edge">
<title>Node6&#45;&gt;Node7</title>
<path fill="none" stroke="#63b8ff" d="M759.38,-203.9C777.03,-208.58 795.82,-213.56 812.84,-218.08"/>
<polygon fill="#63b8ff" stroke="#63b8ff" points="760.29,-200.52 749.73,-201.34 758.5,-207.29 760.29,-200.52"/>
</g>
<!-- Node8 -->
<g id="node8" class="node">
<title>Node8</title>
<g id="a_node8"><a xlink:href="class_ogre_1_1_p_c_z_axis_aligned_box_scene_query.html" target="_top" xlink:title="PCZ implementation of AxisAlignedBoxSceneQuery.">
<polygon fill="white" stroke="#666666" points="950.5,-200.5 793.5,-200.5 793.5,-170.5 950.5,-170.5 950.5,-200.5"/>
<text text-anchor="start" x="801.5" y="-188.5" font-family="Helvetica,sans-Serif" font-size="10.00">Ogre::PCZAxisAlignedBoxScene</text>
<text text-anchor="middle" x="872" y="-177.5" font-family="Helvetica,sans-Serif" font-size="10.00">Query</text>
</a>
</g>
</g>
<!-- Node6&#45;&gt;Node8 -->
<g id="edge7" class="edge">
<title>Node6&#45;&gt;Node8</title>
<path fill="none" stroke="#63b8ff" d="M762.49,-185.5C772.56,-185.5 782.94,-185.5 793.1,-185.5"/>
<polygon fill="#63b8ff" stroke="#63b8ff" points="762.79,-182 752.79,-185.5 762.79,-189 762.79,-182"/>
</g>
<!-- Node10 -->
<g id="node10" class="node">
<title>Node10</title>
<g id="a_node10"><a xlink:href="class_ogre_1_1_default_plane_bounded_volume_list_scene_query.html" target="_top" xlink:title="Default implementation of PlaneBoundedVolumeListSceneQuery.">
<polygon fill="white" stroke="#666666" points="757,-131.5 621,-131.5 621,-101.5 757,-101.5 757,-131.5"/>
<text text-anchor="start" x="629" y="-119.5" font-family="Helvetica,sans-Serif" font-size="10.00">Ogre::DefaultPlaneBounded</text>
<text text-anchor="middle" x="689" y="-108.5" font-family="Helvetica,sans-Serif" font-size="10.00">VolumeListSceneQuery</text>
</a>
</g>
</g>
<!-- Node9&#45;&gt;Node10 -->
<g id="edge9" class="edge">
<title>Node9&#45;&gt;Node10</title>
<path fill="none" stroke="#63b8ff" d="M596.46,-116.5C604.57,-116.5 612.76,-116.5 620.72,-116.5"/>
<polygon fill="#63b8ff" stroke="#63b8ff" points="596.59,-113 586.59,-116.5 596.59,-120 596.59,-113"/>
</g>
<!-- Node11 -->
<g id="node11" class="node">
<title>Node11</title>
<g id="a_node11"><a xlink:href="class_ogre_1_1_octree_plane_bounded_volume_list_scene_query.html" target="_top" xlink:title="Octree implementation of PlaneBoundedVolumeListSceneQuery.">
<polygon fill="white" stroke="#666666" points="939,-152.5 805,-152.5 805,-122.5 939,-122.5 939,-152.5"/>
<text text-anchor="start" x="813" y="-140.5" font-family="Helvetica,sans-Serif" font-size="10.00">Ogre::OctreePlaneBounded</text>
<text text-anchor="middle" x="872" y="-129.5" font-family="Helvetica,sans-Serif" font-size="10.00">VolumeListSceneQuery</text>
</a>
</g>
</g>
<!-- Node10&#45;&gt;Node11 -->
<g id="edge10" class="edge">
<title>Node10&#45;&gt;Node11</title>
<path fill="none" stroke="#63b8ff" d="M768.79,-125.64C780.78,-127.03 793.06,-128.46 804.75,-129.81"/>
<polygon fill="#63b8ff" stroke="#63b8ff" points="769.24,-122.17 758.9,-124.49 768.43,-129.12 769.24,-122.17"/>
</g>
<!-- Node12 -->
<g id="node12" class="node">
<title>Node12</title>
<g id="a_node12"><a xlink:href="class_ogre_1_1_p_c_z_plane_bounded_volume_list_scene_query.html" target="_top" xlink:title="PCZ implementation of PlaneBoundedVolumeListSceneQuery.">
<polygon fill="white" stroke="#666666" points="951,-104.5 793,-104.5 793,-74.5 951,-74.5 951,-104.5"/>
<text text-anchor="start" x="801" y="-92.5" font-family="Helvetica,sans-Serif" font-size="10.00">Ogre::PCZPlaneBoundedVolume</text>
<text text-anchor="middle" x="872" y="-81.5" font-family="Helvetica,sans-Serif" font-size="10.00">ListSceneQuery</text>
</a>
</g>
</g>
<!-- Node10&#45;&gt;Node12 -->
<g id="edge11" class="edge">
<title>Node10&#45;&gt;Node12</title>
<path fill="none" stroke="#63b8ff" d="M768.54,-104.78C776.51,-103.6 784.6,-102.39 792.56,-101.2"/>
<polygon fill="#63b8ff" stroke="#63b8ff" points="768.27,-101.29 758.89,-106.22 769.3,-108.21 768.27,-101.29"/>
</g>
<!-- Node14 -->
<g id="node14" class="node">
<title>Node14</title>
<g id="a_node14"><a xlink:href="class_ogre_1_1_default_sphere_scene_query.html" target="_top" xlink:title="Default implementation of SphereSceneQuery.">
<polygon fill="white" stroke="#666666" points="754.5,-61.5 623.5,-61.5 623.5,-31.5 754.5,-31.5 754.5,-61.5"/>
<text text-anchor="start" x="631.5" y="-49.5" font-family="Helvetica,sans-Serif" font-size="10.00">Ogre::DefaultSphereScene</text>
<text text-anchor="middle" x="689" y="-38.5" font-family="Helvetica,sans-Serif" font-size="10.00">Query</text>
</a>
</g>
</g>
<!-- Node13&#45;&gt;Node14 -->
<g id="edge13" class="edge">
<title>Node13&#45;&gt;Node14</title>
<path fill="none" stroke="#63b8ff" d="M590.46,-54.49C601.36,-53.59 612.53,-52.68 623.24,-51.8"/>
<polygon fill="#63b8ff" stroke="#63b8ff" points="590.41,-50.98 580.73,-55.28 590.98,-57.95 590.41,-50.98"/>
</g>
<!-- Node15 -->
<g id="node15" class="node">
<title>Node15</title>
<g id="a_node15"><a xlink:href="class_ogre_1_1_octree_sphere_scene_query.html" target="_top" xlink:title="Octree implementation of SphereSceneQuery.">
<polygon fill="white" stroke="#666666" points="949.5,-56 794.5,-56 794.5,-37 949.5,-37 949.5,-56"/>
<text text-anchor="middle" x="872" y="-44" font-family="Helvetica,sans-Serif" font-size="10.00">Ogre::OctreeSphereSceneQuery</text>
</a>
</g>
</g>
<!-- Node14&#45;&gt;Node15 -->
<g id="edge14" class="edge">
<title>Node14&#45;&gt;Node15</title>
<path fill="none" stroke="#63b8ff" d="M766.08,-46.5C775.4,-46.5 784.94,-46.5 794.27,-46.5"/>
<polygon fill="#63b8ff" stroke="#63b8ff" points="766.35,-43 756.35,-46.5 766.35,-50 766.35,-43"/>
</g>
<!-- Node16 -->
<g id="node16" class="node">
<title>Node16</title>
<g id="a_node16"><a xlink:href="class_ogre_1_1_p_c_z_sphere_scene_query.html" target="_top" xlink:title="PCZ implementation of SphereSceneQuery.">
<polygon fill="white" stroke="#666666" points="945,-19 799,-19 799,0 945,0 945,-19"/>
<text text-anchor="middle" x="872" y="-7" font-family="Helvetica,sans-Serif" font-size="10.00">Ogre::PCZSphereSceneQuery</text>
</a>
</g>
</g>
<!-- Node14&#45;&gt;Node16 -->
<g id="edge15" class="edge">
<title>Node14&#45;&gt;Node16</title>
<path fill="none" stroke="#63b8ff" d="M765.92,-30.98C784.98,-27.09 804.91,-23.01 822.24,-19.47"/>
<polygon fill="#63b8ff" stroke="#63b8ff" points="765.41,-27.51 756.32,-32.94 766.82,-34.37 765.41,-27.51"/>
</g>
</g>
</svg>
