<?xml version="1.0" encoding="UTF-8" standalone="no"?>
<!DOCTYPE svg PUBLIC "-//W3C//DTD SVG 1.1//EN"
 "http://www.w3.org/Graphics/SVG/1.1/DTD/svg11.dtd">
<!-- Generated by graphviz version 2.44.0 ()
 -->
<!-- Title: Ogre::RenderTarget Pages: 1 -->
<svg width="835pt" height="1024pt"
 viewBox="0.00 0.00 835.00 1024.00" xmlns="http://www.w3.org/2000/svg" xmlns:xlink="http://www.w3.org/1999/xlink">
<g id="graph0" class="graph" transform="scale(1 1) rotate(0) translate(4 1020)">
<title>Ogre::RenderTarget</title>
<!-- Node1 -->
<g id="node1" class="node">
<title>Node1</title>
<g id="a_node1"><a xlink:title="A &#39;canvas&#39; which can receive the results of a rendering operation.">
<polygon fill="#bfbfbf" stroke="black" points="173,-513.5 173,-532.5 274,-532.5 274,-513.5 173,-513.5"/>
<text text-anchor="middle" x="223.5" y="-520.5" font-family="Helvetica,sans-Serif" font-size="10.00">Ogre::RenderTarget</text>
</a>
</g>
</g>
<!-- Node4 -->
<g id="node4" class="node">
<title>Node4</title>
<g id="a_node4"><a xlink:href="class_ogre_1_1_multi_render_target.html" target="_top" xlink:title="This class represents a render target that renders to multiple RenderTextures at once.">
<polygon fill="none" stroke="black" points="310,-889.5 310,-908.5 432,-908.5 432,-889.5 310,-889.5"/>
<text text-anchor="middle" x="371" y="-896.5" font-family="Helvetica,sans-Serif" font-size="10.00">Ogre::MultiRenderTarget</text>
</a>
</g>
</g>
<!-- Node1&#45;&gt;Node4 -->
<g id="edge3" class="edge">
<title>Node1&#45;&gt;Node4</title>
<path fill="none" stroke="midnightblue" d="M231.92,-542.18C258.3,-610.36 347,-839.57 366.28,-889.39"/>
<polygon fill="midnightblue" stroke="midnightblue" points="235.12,-540.74 228.24,-532.67 228.59,-543.26 235.12,-540.74"/>
</g>
<!-- Node10 -->
<g id="node10" class="node">
<title>Node10</title>
<g id="a_node10"><a xlink:href="class_ogre_1_1_render_texture.html" target="_top" xlink:title="This class represents a RenderTarget that renders to a Texture.">
<polygon fill="none" stroke="black" points="318.5,-513.5 318.5,-532.5 423.5,-532.5 423.5,-513.5 318.5,-513.5"/>
<text text-anchor="middle" x="371" y="-520.5" font-family="Helvetica,sans-Serif" font-size="10.00">Ogre::RenderTexture</text>
</a>
</g>
</g>
<!-- Node1&#45;&gt;Node10 -->
<g id="edge9" class="edge">
<title>Node1&#45;&gt;Node10</title>
<path fill="none" stroke="midnightblue" d="M284.3,-523C295.51,-523 307.14,-523 318.08,-523"/>
<polygon fill="midnightblue" stroke="midnightblue" points="284.17,-519.5 274.17,-523 284.17,-526.5 284.17,-519.5"/>
</g>
<!-- Node26 -->
<g id="node26" class="node">
<title>Node26</title>
<g id="a_node26"><a xlink:href="class_ogre_1_1_render_window.html" target="_top" xlink:title="Manages the target rendering window.">
<polygon fill="none" stroke="black" points="317.5,-133.5 317.5,-152.5 424.5,-152.5 424.5,-133.5 317.5,-133.5"/>
<text text-anchor="middle" x="371" y="-140.5" font-family="Helvetica,sans-Serif" font-size="10.00">Ogre::RenderWindow</text>
</a>
</g>
</g>
<!-- Node1&#45;&gt;Node26 -->
<g id="edge25" class="edge">
<title>Node1&#45;&gt;Node26</title>
<path fill="none" stroke="midnightblue" d="M231.92,-503.62C258.3,-434.71 347,-203.06 366.28,-152.71"/>
<polygon fill="midnightblue" stroke="midnightblue" points="228.55,-502.63 228.24,-513.22 235.09,-505.14 228.55,-502.63"/>
</g>
<!-- Node2 -->
<g id="node2" class="node">
<title>Node2</title>
<g id="a_node2"><a xlink:href="struct_ogre_1_1_gpu_tracked_resource.html" target="_top" xlink:title=" ">
<polygon fill="none" stroke="black" points="0,-532.5 0,-551.5 137,-551.5 137,-532.5 0,-532.5"/>
<text text-anchor="middle" x="68.5" y="-539.5" font-family="Helvetica,sans-Serif" font-size="10.00">Ogre::GpuTrackedResource</text>
</a>
</g>
</g>
<!-- Node2&#45;&gt;Node1 -->
<g id="edge1" class="edge">
<title>Node2&#45;&gt;Node1</title>
<path fill="none" stroke="midnightblue" d="M147.23,-532.35C155.91,-531.27 164.57,-530.19 172.77,-529.18"/>
<polygon fill="midnightblue" stroke="midnightblue" points="146.55,-528.91 137.05,-533.61 147.41,-535.85 146.55,-528.91"/>
</g>
<!-- Node3 -->
<g id="node3" class="node">
<title>Node3</title>
<g id="a_node3"><a xlink:href="class_ogre_1_1_allocated_object.html" target="_top" xlink:title="Superclass for all objects that wish to use custom memory allocators when their new / delete operator...">
<polygon fill="none" stroke="black" points="25.5,-494.5 25.5,-513.5 111.5,-513.5 111.5,-494.5 25.5,-494.5"/>
<text text-anchor="middle" x="68.5" y="-501.5" font-family="Helvetica,sans-Serif" font-size="10.00">RenderSysAlloc</text>
</a>
</g>
</g>
<!-- Node3&#45;&gt;Node1 -->
<g id="edge2" class="edge">
<title>Node3&#45;&gt;Node1</title>
<path fill="none" stroke="midnightblue" d="M121.75,-510.49C138.28,-512.54 156.49,-514.8 172.83,-516.83"/>
<polygon fill="midnightblue" stroke="midnightblue" points="122.07,-507 111.71,-509.24 121.21,-513.95 122.07,-507"/>
</g>
<!-- Node5 -->
<g id="node5" class="node">
<title>Node5</title>
<g id="a_node5"><a xlink:href="class_ogre_1_1_d3_d11_multi_render_target.html" target="_top" xlink:title=" ">
<polygon fill="none" stroke="black" points="472,-996.5 472,-1015.5 623,-1015.5 623,-996.5 472,-996.5"/>
<text text-anchor="middle" x="547.5" y="-1003.5" font-family="Helvetica,sans-Serif" font-size="10.00">Ogre::D3D11MultiRenderTarget</text>
</a>
</g>
</g>
<!-- Node4&#45;&gt;Node5 -->
<g id="edge4" class="edge">
<title>Node4&#45;&gt;Node5</title>
<path fill="none" stroke="midnightblue" d="M386.08,-916.4C403.29,-936.48 434.31,-969.04 468,-987 475.3,-990.89 483.41,-994 491.56,-996.48"/>
<polygon fill="midnightblue" stroke="midnightblue" points="388.69,-914.06 379.58,-908.64 383.32,-918.55 388.69,-914.06"/>
</g>
<!-- Node6 -->
<g id="node6" class="node">
<title>Node6</title>
<g id="a_node6"><a xlink:href="class_ogre_1_1_d3_d9_multi_render_target.html" target="_top" xlink:title=" ">
<polygon fill="none" stroke="black" points="474.5,-958.5 474.5,-977.5 620.5,-977.5 620.5,-958.5 474.5,-958.5"/>
<text text-anchor="middle" x="547.5" y="-965.5" font-family="Helvetica,sans-Serif" font-size="10.00">Ogre::D3D9MultiRenderTarget</text>
</a>
</g>
</g>
<!-- Node4&#45;&gt;Node6 -->
<g id="edge5" class="edge">
<title>Node4&#45;&gt;Node6</title>
<path fill="none" stroke="midnightblue" d="M396.27,-913.75C415.24,-924.75 442.56,-939.46 468,-949 477.85,-952.69 488.66,-955.85 499.03,-958.48"/>
<polygon fill="midnightblue" stroke="midnightblue" points="397.82,-910.6 387.42,-908.53 394.26,-916.63 397.82,-910.6"/>
</g>
<!-- Node7 -->
<g id="node7" class="node">
<title>Node7</title>
<g id="a_node7"><a xlink:href="class_ogre_1_1_g_l3_plus_f_b_o_multi_render_target.html" target="_top" xlink:title="MultiRenderTarget for OpenGL.">
<polygon fill="none" stroke="black" points="471.5,-909 471.5,-939 623.5,-939 623.5,-909 471.5,-909"/>
<text text-anchor="start" x="479.5" y="-927" font-family="Helvetica,sans-Serif" font-size="10.00">Ogre::GL3PlusFBOMultiRender</text>
<text text-anchor="middle" x="547.5" y="-916" font-family="Helvetica,sans-Serif" font-size="10.00">Target</text>
</a>
</g>
</g>
<!-- Node4&#45;&gt;Node7 -->
<g id="edge6" class="edge">
<title>Node4&#45;&gt;Node7</title>
<path fill="none" stroke="midnightblue" d="M441.96,-909.02C451.59,-910.4 461.51,-911.82 471.23,-913.22"/>
<polygon fill="midnightblue" stroke="midnightblue" points="442.45,-905.56 432.05,-907.6 441.46,-912.49 442.45,-905.56"/>
</g>
<!-- Node8 -->
<g id="node8" class="node">
<title>Node8</title>
<g id="a_node8"><a xlink:href="class_ogre_1_1_g_l_e_s2_f_b_o_multi_render_target.html" target="_top" xlink:title="MultiRenderTarget for GL ES 2.x.">
<polygon fill="none" stroke="black" points="474.5,-860 474.5,-890 620.5,-890 620.5,-860 474.5,-860"/>
<text text-anchor="start" x="482.5" y="-878" font-family="Helvetica,sans-Serif" font-size="10.00">Ogre::GLES2FBOMultiRender</text>
<text text-anchor="middle" x="547.5" y="-867" font-family="Helvetica,sans-Serif" font-size="10.00">Target</text>
</a>
</g>
</g>
<!-- Node4&#45;&gt;Node8 -->
<g id="edge7" class="edge">
<title>Node4&#45;&gt;Node8</title>
<path fill="none" stroke="midnightblue" d="M442.09,-889.36C452.69,-887.9 463.65,-886.4 474.29,-884.93"/>
<polygon fill="midnightblue" stroke="midnightblue" points="441.48,-885.91 432.05,-890.74 442.44,-892.85 441.48,-885.91"/>
</g>
<!-- Node9 -->
<g id="node9" class="node">
<title>Node9</title>
<g id="a_node9"><a xlink:href="class_ogre_1_1_metal_multi_render_target.html" target="_top" xlink:title=" ">
<polygon fill="none" stroke="black" points="474.5,-821.5 474.5,-840.5 620.5,-840.5 620.5,-821.5 474.5,-821.5"/>
<text text-anchor="middle" x="547.5" y="-828.5" font-family="Helvetica,sans-Serif" font-size="10.00">Ogre::MetalMultiRenderTarget</text>
</a>
</g>
</g>
<!-- Node4&#45;&gt;Node9 -->
<g id="edge8" class="edge">
<title>Node4&#45;&gt;Node9</title>
<path fill="none" stroke="midnightblue" d="M397.4,-884.42C416.38,-874 443.2,-860.24 468,-851 478.81,-846.97 490.74,-843.48 501.98,-840.58"/>
<polygon fill="midnightblue" stroke="midnightblue" points="395.54,-881.45 388.51,-889.38 398.94,-887.57 395.54,-881.45"/>
</g>
<!-- Node11 -->
<g id="node11" class="node">
<title>Node11</title>
<g id="a_node11"><a xlink:href="class_ogre_1_1_d3_d11_depth_texture_target.html" target="_top" xlink:title=" ">
<polygon fill="none" stroke="black" points="469,-783.5 469,-802.5 626,-802.5 626,-783.5 469,-783.5"/>
<text text-anchor="middle" x="547.5" y="-790.5" font-family="Helvetica,sans-Serif" font-size="10.00">Ogre::D3D11DepthTextureTarget</text>
</a>
</g>
</g>
<!-- Node10&#45;&gt;Node11 -->
<g id="edge10" class="edge">
<title>Node10&#45;&gt;Node11</title>
<path fill="none" stroke="midnightblue" d="M373.51,-542.93C378.23,-590.53 396.97,-711.51 468,-774 472.32,-777.8 477.26,-780.87 482.53,-783.34"/>
<polygon fill="midnightblue" stroke="midnightblue" points="376.98,-542.38 372.61,-532.73 370,-543 376.98,-542.38"/>
</g>
<!-- Node12 -->
<g id="node12" class="node">
<title>Node12</title>
<g id="a_node12"><a xlink:href="class_ogre_1_1_d3_d11_null_texture_target.html" target="_top" xlink:title=" ">
<polygon fill="none" stroke="black" points="473,-745.5 473,-764.5 622,-764.5 622,-745.5 473,-745.5"/>
<text text-anchor="middle" x="547.5" y="-752.5" font-family="Helvetica,sans-Serif" font-size="10.00">Ogre::D3D11NullTextureTarget</text>
</a>
</g>
</g>
<!-- Node10&#45;&gt;Node12 -->
<g id="edge11" class="edge">
<title>Node10&#45;&gt;Node12</title>
<path fill="none" stroke="midnightblue" d="M375,-542.77C382.49,-585.07 406.1,-684.66 468,-736 472.64,-739.85 477.94,-742.94 483.54,-745.42"/>
<polygon fill="midnightblue" stroke="midnightblue" points="378.45,-542.17 373.36,-532.88 371.54,-543.32 378.45,-542.17"/>
</g>
<!-- Node13 -->
<g id="node13" class="node">
<title>Node13</title>
<g id="a_node13"><a xlink:href="class_ogre_1_1_d3_d11_render_texture.html" target="_top" xlink:title="RenderTexture implementation for D3D11.">
<polygon fill="none" stroke="black" points="480.5,-707.5 480.5,-726.5 614.5,-726.5 614.5,-707.5 480.5,-707.5"/>
<text text-anchor="middle" x="547.5" y="-714.5" font-family="Helvetica,sans-Serif" font-size="10.00">Ogre::D3D11RenderTexture</text>
</a>
</g>
</g>
<!-- Node10&#45;&gt;Node13 -->
<g id="edge12" class="edge">
<title>Node10&#45;&gt;Node13</title>
<path fill="none" stroke="midnightblue" d="M377.07,-542.69C387.55,-579.24 415.13,-657.54 468,-698 473.01,-701.84 478.69,-704.91 484.64,-707.37"/>
<polygon fill="midnightblue" stroke="midnightblue" points="380.38,-541.5 374.36,-532.77 373.62,-543.34 380.38,-541.5"/>
</g>
<!-- Node14 -->
<g id="node14" class="node">
<title>Node14</title>
<g id="a_node14"><a xlink:href="class_ogre_1_1_d3_d9_render_texture.html" target="_top" xlink:title="RenderTexture implementation for D3D9.">
<polygon fill="none" stroke="black" points="483,-669.5 483,-688.5 612,-688.5 612,-669.5 483,-669.5"/>
<text text-anchor="middle" x="547.5" y="-676.5" font-family="Helvetica,sans-Serif" font-size="10.00">Ogre::D3D9RenderTexture</text>
</a>
</g>
</g>
<!-- Node10&#45;&gt;Node14 -->
<g id="edge13" class="edge">
<title>Node10&#45;&gt;Node14</title>
<path fill="none" stroke="midnightblue" d="M379.97,-542.14C393.48,-572.12 423.78,-629.85 468,-660 473.68,-663.87 480.06,-666.96 486.66,-669.41"/>
<polygon fill="midnightblue" stroke="midnightblue" points="383.1,-540.55 375.9,-532.78 376.68,-543.35 383.1,-540.55"/>
</g>
<!-- Node15 -->
<g id="node15" class="node">
<title>Node15</title>
<g id="a_node15"><a xlink:href="class_ogre_1_1_g_l3_plus_depth_texture_target.html" target="_top" xlink:title=" ">
<polygon fill="none" stroke="black" points="478.5,-620 478.5,-650 616.5,-650 616.5,-620 478.5,-620"/>
<text text-anchor="start" x="486.5" y="-638" font-family="Helvetica,sans-Serif" font-size="10.00">Ogre::GL3PlusDepthTexture</text>
<text text-anchor="middle" x="547.5" y="-627" font-family="Helvetica,sans-Serif" font-size="10.00">Target</text>
</a>
</g>
</g>
<!-- Node10&#45;&gt;Node15 -->
<g id="edge14" class="edge">
<title>Node10&#45;&gt;Node15</title>
<path fill="none" stroke="midnightblue" d="M386.54,-540.36C403.99,-560.14 435.02,-592.15 468,-611 473.94,-614.39 480.41,-617.36 487.01,-619.94"/>
<polygon fill="midnightblue" stroke="midnightblue" points="389.12,-537.99 379.93,-532.71 383.82,-542.57 389.12,-537.99"/>
</g>
<!-- Node16 -->
<g id="node16" class="node">
<title>Node16</title>
<g id="a_node16"><a xlink:href="class_ogre_1_1_g_l3_plus_null_texture_target.html" target="_top" xlink:title=" ">
<polygon fill="none" stroke="black" points="482.5,-571 482.5,-601 612.5,-601 612.5,-571 482.5,-571"/>
<text text-anchor="start" x="490.5" y="-589" font-family="Helvetica,sans-Serif" font-size="10.00">Ogre::GL3PlusNullTexture</text>
<text text-anchor="middle" x="547.5" y="-578" font-family="Helvetica,sans-Serif" font-size="10.00">Target</text>
</a>
</g>
</g>
<!-- Node10&#45;&gt;Node16 -->
<g id="edge15" class="edge">
<title>Node10&#45;&gt;Node16</title>
<path fill="none" stroke="midnightblue" d="M404.16,-536.37C422.71,-543.92 446.53,-553.34 468,-561 477.43,-564.36 487.57,-567.76 497.33,-570.91"/>
<polygon fill="midnightblue" stroke="midnightblue" points="405.3,-533.05 394.72,-532.5 402.65,-539.53 405.3,-533.05"/>
</g>
<!-- Node17 -->
<g id="node17" class="node">
<title>Node17</title>
<g id="a_node17"><a xlink:href="class_ogre_1_1_g_l3_plus_render_texture.html" target="_top" xlink:title="Base class for GL Render Textures.">
<polygon fill="none" stroke="black" points="476,-532.5 476,-551.5 619,-551.5 619,-532.5 476,-532.5"/>
<text text-anchor="middle" x="547.5" y="-539.5" font-family="Helvetica,sans-Serif" font-size="10.00">Ogre::GL3PlusRenderTexture</text>
</a>
</g>
</g>
<!-- Node10&#45;&gt;Node17 -->
<g id="edge16" class="edge">
<title>Node10&#45;&gt;Node17</title>
<path fill="none" stroke="midnightblue" d="M434.02,-529.75C447.54,-531.22 461.93,-532.79 475.76,-534.3"/>
<polygon fill="midnightblue" stroke="midnightblue" points="434.2,-526.25 423.88,-528.65 433.45,-533.21 434.2,-526.25"/>
</g>
<!-- Node19 -->
<g id="node19" class="node">
<title>Node19</title>
<g id="a_node19"><a xlink:href="class_ogre_1_1_g_l_e_s2_depth_texture_target.html" target="_top" xlink:title=" ">
<polygon fill="none" stroke="black" points="468,-494.5 468,-513.5 627,-513.5 627,-494.5 468,-494.5"/>
<text text-anchor="middle" x="547.5" y="-501.5" font-family="Helvetica,sans-Serif" font-size="10.00">Ogre::GLES2DepthTextureTarget</text>
</a>
</g>
</g>
<!-- Node10&#45;&gt;Node19 -->
<g id="edge18" class="edge">
<title>Node10&#45;&gt;Node19</title>
<path fill="none" stroke="midnightblue" d="M433.84,-516.27C444.9,-515.06 456.55,-513.79 468,-512.55"/>
<polygon fill="midnightblue" stroke="midnightblue" points="433.45,-512.79 423.88,-517.35 434.2,-519.75 433.45,-512.79"/>
</g>
<!-- Node20 -->
<g id="node20" class="node">
<title>Node20</title>
<g id="a_node20"><a xlink:href="class_ogre_1_1_g_l_e_s2_null_texture_target.html" target="_top" xlink:title=" ">
<polygon fill="none" stroke="black" points="472,-456.5 472,-475.5 623,-475.5 623,-456.5 472,-456.5"/>
<text text-anchor="middle" x="547.5" y="-463.5" font-family="Helvetica,sans-Serif" font-size="10.00">Ogre::GLES2NullTextureTarget</text>
</a>
</g>
</g>
<!-- Node10&#45;&gt;Node20 -->
<g id="edge19" class="edge">
<title>Node10&#45;&gt;Node20</title>
<path fill="none" stroke="midnightblue" d="M403.23,-509.36C421.81,-501.56 445.99,-491.98 468,-485 478.96,-481.52 490.95,-478.32 502.19,-475.58"/>
<polygon fill="midnightblue" stroke="midnightblue" points="401.64,-506.23 393.8,-513.36 404.37,-512.67 401.64,-506.23"/>
</g>
<!-- Node21 -->
<g id="node21" class="node">
<title>Node21</title>
<g id="a_node21"><a xlink:href="class_ogre_1_1_g_l_e_s2_render_texture.html" target="_top" xlink:title="Base class for GL Render Textures.">
<polygon fill="none" stroke="black" points="479,-418.5 479,-437.5 616,-437.5 616,-418.5 479,-418.5"/>
<text text-anchor="middle" x="547.5" y="-425.5" font-family="Helvetica,sans-Serif" font-size="10.00">Ogre::GLES2RenderTexture</text>
</a>
</g>
</g>
<!-- Node10&#45;&gt;Node21 -->
<g id="edge20" class="edge">
<title>Node10&#45;&gt;Node21</title>
<path fill="none" stroke="midnightblue" d="M388.46,-506.22C406.44,-488.85 436.85,-462.19 468,-447 475.94,-443.13 484.73,-440.01 493.46,-437.51"/>
<polygon fill="midnightblue" stroke="midnightblue" points="385.78,-503.95 381.12,-513.47 390.69,-508.93 385.78,-503.95"/>
</g>
<!-- Node22 -->
<g id="node22" class="node">
<title>Node22</title>
<g id="a_node22"><a xlink:href="class_ogre_1_1_metal_depth_texture_target.html" target="_top" xlink:title=" ">
<polygon fill="none" stroke="black" points="471.5,-380.5 471.5,-399.5 623.5,-399.5 623.5,-380.5 471.5,-380.5"/>
<text text-anchor="middle" x="547.5" y="-387.5" font-family="Helvetica,sans-Serif" font-size="10.00">Ogre::MetalDepthTextureTarget</text>
</a>
</g>
</g>
<!-- Node10&#45;&gt;Node22 -->
<g id="edge21" class="edge">
<title>Node10&#45;&gt;Node22</title>
<path fill="none" stroke="midnightblue" d="M382.34,-504.55C397.64,-479 428.79,-433.27 468,-409 474.32,-405.09 481.39,-401.98 488.62,-399.52"/>
<polygon fill="midnightblue" stroke="midnightblue" points="379.27,-502.86 377.27,-513.26 385.32,-506.38 379.27,-502.86"/>
</g>
<!-- Node23 -->
<g id="node23" class="node">
<title>Node23</title>
<g id="a_node23"><a xlink:href="class_ogre_1_1_metal_null_texture_target.html" target="_top" xlink:title=" ">
<polygon fill="none" stroke="black" points="476,-342.5 476,-361.5 619,-361.5 619,-342.5 476,-342.5"/>
<text text-anchor="middle" x="547.5" y="-349.5" font-family="Helvetica,sans-Serif" font-size="10.00">Ogre::MetalNullTextureTarget</text>
</a>
</g>
</g>
<!-- Node10&#45;&gt;Node23 -->
<g id="edge22" class="edge">
<title>Node10&#45;&gt;Node23</title>
<path fill="none" stroke="midnightblue" d="M378.68,-503.65C390.97,-470.99 420.39,-405.17 468,-371 473.35,-367.16 479.39,-364.09 485.67,-361.63"/>
<polygon fill="midnightblue" stroke="midnightblue" points="375.27,-502.76 375.16,-513.36 381.86,-505.15 375.27,-502.76"/>
</g>
<!-- Node24 -->
<g id="node24" class="node">
<title>Node24</title>
<g id="a_node24"><a xlink:href="class_ogre_1_1_metal_render_texture.html" target="_top" xlink:title=" ">
<polygon fill="none" stroke="black" points="483,-304.5 483,-323.5 612,-323.5 612,-304.5 483,-304.5"/>
<text text-anchor="middle" x="547.5" y="-311.5" font-family="Helvetica,sans-Serif" font-size="10.00">Ogre::MetalRenderTexture</text>
</a>
</g>
</g>
<!-- Node10&#45;&gt;Node24 -->
<g id="edge23" class="edge">
<title>Node10&#45;&gt;Node24</title>
<path fill="none" stroke="midnightblue" d="M376.17,-503.27C385.44,-464.37 411.59,-377.71 468,-333 472.84,-329.17 478.33,-326.09 484.11,-323.62"/>
<polygon fill="midnightblue" stroke="midnightblue" points="372.69,-502.78 373.9,-513.3 379.52,-504.32 372.69,-502.78"/>
</g>
<!-- Node25 -->
<g id="node25" class="node">
<title>Node25</title>
<g id="a_node25"><a xlink:href="class_ogre_1_1_n_u_l_l_render_texture.html" target="_top" xlink:title=" ">
<polygon fill="none" stroke="black" points="481.5,-266.5 481.5,-285.5 613.5,-285.5 613.5,-266.5 481.5,-266.5"/>
<text text-anchor="middle" x="547.5" y="-273.5" font-family="Helvetica,sans-Serif" font-size="10.00">Ogre::NULLRenderTexture</text>
</a>
</g>
</g>
<!-- Node10&#45;&gt;Node25 -->
<g id="edge24" class="edge">
<title>Node10&#45;&gt;Node25</title>
<path fill="none" stroke="midnightblue" d="M374.33,-503.39C380.66,-459.1 402.39,-350.81 468,-295 472.49,-291.18 477.61,-288.11 483.05,-285.63"/>
<polygon fill="midnightblue" stroke="midnightblue" points="370.84,-503.06 373,-513.43 377.78,-503.97 370.84,-503.06"/>
</g>
<!-- Node18 -->
<g id="node18" class="node">
<title>Node18</title>
<g id="a_node18"><a xlink:href="class_ogre_1_1_g_l3_plus_f_b_o_render_texture.html" target="_top" xlink:title="RenderTexture for GL FBO.">
<polygon fill="none" stroke="black" points="663,-532.5 663,-551.5 827,-551.5 827,-532.5 663,-532.5"/>
<text text-anchor="middle" x="745" y="-539.5" font-family="Helvetica,sans-Serif" font-size="10.00">Ogre::GL3PlusFBORenderTexture</text>
</a>
</g>
</g>
<!-- Node17&#45;&gt;Node18 -->
<g id="edge17" class="edge">
<title>Node17&#45;&gt;Node18</title>
<path fill="none" stroke="midnightblue" d="M629.2,-542C640.33,-542 651.76,-542 662.89,-542"/>
<polygon fill="midnightblue" stroke="midnightblue" points="629.08,-538.5 619.08,-542 629.08,-545.5 629.08,-538.5"/>
</g>
<!-- Node27 -->
<g id="node27" class="node">
<title>Node27</title>
<g id="a_node27"><a xlink:href="class_ogre_1_1_d3_d11_render_window_base.html" target="_top" xlink:title=" ">
<polygon fill="none" stroke="black" points="468,-228.5 468,-247.5 627,-247.5 627,-228.5 468,-228.5"/>
<text text-anchor="middle" x="547.5" y="-235.5" font-family="Helvetica,sans-Serif" font-size="10.00">Ogre::D3D11RenderWindowBase</text>
</a>
</g>
</g>
<!-- Node26&#45;&gt;Node27 -->
<g id="edge26" class="edge">
<title>Node26&#45;&gt;Node27</title>
<path fill="none" stroke="midnightblue" d="M388.46,-159.78C406.44,-177.15 436.85,-203.81 468,-219 475.94,-222.87 484.73,-225.99 493.46,-228.49"/>
<polygon fill="midnightblue" stroke="midnightblue" points="390.69,-157.07 381.12,-152.53 385.78,-162.05 390.69,-157.07"/>
</g>
<!-- Node29 -->
<g id="node29" class="node">
<title>Node29</title>
<g id="a_node29"><a xlink:href="class_ogre_1_1_d3_d9_render_window.html" target="_top" xlink:title=" ">
<polygon fill="none" stroke="black" points="482,-190.5 482,-209.5 613,-209.5 613,-190.5 482,-190.5"/>
<text text-anchor="middle" x="547.5" y="-197.5" font-family="Helvetica,sans-Serif" font-size="10.00">Ogre::D3D9RenderWindow</text>
</a>
</g>
</g>
<!-- Node26&#45;&gt;Node29 -->
<g id="edge28" class="edge">
<title>Node26&#45;&gt;Node29</title>
<path fill="none" stroke="midnightblue" d="M403.23,-156.64C421.81,-164.44 445.99,-174.02 468,-181 478.96,-184.48 490.95,-187.68 502.19,-190.42"/>
<polygon fill="midnightblue" stroke="midnightblue" points="404.37,-153.33 393.8,-152.64 401.64,-159.77 404.37,-153.33"/>
</g>
<!-- Node30 -->
<g id="node30" class="node">
<title>Node30</title>
<g id="a_node30"><a xlink:href="class_ogre_1_1_e_g_l_window.html" target="_top" xlink:title=" ">
<polygon fill="none" stroke="black" points="499.5,-152.5 499.5,-171.5 595.5,-171.5 595.5,-152.5 499.5,-152.5"/>
<text text-anchor="middle" x="547.5" y="-159.5" font-family="Helvetica,sans-Serif" font-size="10.00">Ogre::EGLWindow</text>
</a>
</g>
</g>
<!-- Node26&#45;&gt;Node30 -->
<g id="edge29" class="edge">
<title>Node26&#45;&gt;Node30</title>
<path fill="none" stroke="midnightblue" d="M434.79,-149.84C456.12,-152.16 479.59,-154.71 499.48,-156.88"/>
<polygon fill="midnightblue" stroke="midnightblue" points="435.15,-146.36 424.83,-148.75 434.39,-153.31 435.15,-146.36"/>
</g>
<!-- Node35 -->
<g id="node35" class="node">
<title>Node35</title>
<g id="a_node35"><a xlink:href="class_ogre_1_1_g_t_k_window.html" target="_top" xlink:title=" ">
<polygon fill="none" stroke="black" points="499,-114.5 499,-133.5 596,-133.5 596,-114.5 499,-114.5"/>
<text text-anchor="middle" x="547.5" y="-121.5" font-family="Helvetica,sans-Serif" font-size="10.00">Ogre::GTKWindow</text>
</a>
</g>
</g>
<!-- Node26&#45;&gt;Node35 -->
<g id="edge34" class="edge">
<title>Node26&#45;&gt;Node35</title>
<path fill="none" stroke="midnightblue" d="M434.99,-136.14C456.06,-133.85 479.19,-131.33 498.9,-129.18"/>
<polygon fill="midnightblue" stroke="midnightblue" points="434.39,-132.69 424.83,-137.25 435.15,-139.64 434.39,-132.69"/>
</g>
<!-- Node36 -->
<g id="node36" class="node">
<title>Node36</title>
<g id="a_node36"><a xlink:href="class_ogre_1_1_n_u_l_l_render_window.html" target="_top" xlink:title=" ">
<polygon fill="none" stroke="black" points="480.5,-76.5 480.5,-95.5 614.5,-95.5 614.5,-76.5 480.5,-76.5"/>
<text text-anchor="middle" x="547.5" y="-83.5" font-family="Helvetica,sans-Serif" font-size="10.00">Ogre::NULLRenderWindow</text>
</a>
</g>
</g>
<!-- Node26&#45;&gt;Node36 -->
<g id="edge35" class="edge">
<title>Node26&#45;&gt;Node36</title>
<path fill="none" stroke="midnightblue" d="M403.23,-129.36C421.81,-121.56 445.99,-111.98 468,-105 478.96,-101.52 490.95,-98.32 502.19,-95.58"/>
<polygon fill="midnightblue" stroke="midnightblue" points="401.64,-126.23 393.8,-133.36 404.37,-132.67 401.64,-126.23"/>
</g>
<!-- Node37 -->
<g id="node37" class="node">
<title>Node37</title>
<g id="a_node37"><a xlink:href="class_ogre_1_1_na_cl_window.html" target="_top" xlink:title=" ">
<polygon fill="none" stroke="black" points="498.5,-38.5 498.5,-57.5 596.5,-57.5 596.5,-38.5 498.5,-38.5"/>
<text text-anchor="middle" x="547.5" y="-45.5" font-family="Helvetica,sans-Serif" font-size="10.00">Ogre::NaClWindow</text>
</a>
</g>
</g>
<!-- Node26&#45;&gt;Node37 -->
<g id="edge36" class="edge">
<title>Node26&#45;&gt;Node37</title>
<path fill="none" stroke="midnightblue" d="M388.46,-126.22C406.44,-108.85 436.85,-82.19 468,-67 477.45,-62.39 488.11,-58.85 498.44,-56.15"/>
<polygon fill="midnightblue" stroke="midnightblue" points="385.78,-123.95 381.12,-133.47 390.69,-128.93 385.78,-123.95"/>
</g>
<!-- Node38 -->
<g id="node38" class="node">
<title>Node38</title>
<g id="a_node38"><a xlink:href="class_ogre_1_1_s_d_l_window.html" target="_top" xlink:title=" ">
<polygon fill="none" stroke="black" points="499.5,-0.5 499.5,-19.5 595.5,-19.5 595.5,-0.5 499.5,-0.5"/>
<text text-anchor="middle" x="547.5" y="-7.5" font-family="Helvetica,sans-Serif" font-size="10.00">Ogre::SDLWindow</text>
</a>
</g>
</g>
<!-- Node26&#45;&gt;Node38 -->
<g id="edge37" class="edge">
<title>Node26&#45;&gt;Node38</title>
<path fill="none" stroke="midnightblue" d="M382.34,-124.55C397.64,-99 428.79,-53.27 468,-29 477.42,-23.17 488.5,-19.13 499.32,-16.33"/>
<polygon fill="midnightblue" stroke="midnightblue" points="379.27,-122.86 377.27,-133.26 385.32,-126.38 379.27,-122.86"/>
</g>
<!-- Node28 -->
<g id="node28" class="node">
<title>Node28</title>
<g id="a_node28"><a xlink:href="class_ogre_1_1_d3_d11_render_window_swap_chain_based.html" target="_top" xlink:title=" ">
<polygon fill="none" stroke="black" points="664.5,-229 664.5,-259 825.5,-259 825.5,-229 664.5,-229"/>
<text text-anchor="start" x="672.5" y="-247" font-family="Helvetica,sans-Serif" font-size="10.00">Ogre::D3D11RenderWindowSwap</text>
<text text-anchor="middle" x="745" y="-236" font-family="Helvetica,sans-Serif" font-size="10.00">ChainBased</text>
</a>
</g>
</g>
<!-- Node27&#45;&gt;Node28 -->
<g id="edge27" class="edge">
<title>Node27&#45;&gt;Node28</title>
<path fill="none" stroke="midnightblue" d="M637.26,-240.72C646.24,-241 655.33,-241.28 664.21,-241.55"/>
<polygon fill="midnightblue" stroke="midnightblue" points="637.27,-237.22 627.17,-240.41 637.06,-244.22 637.27,-237.22"/>
</g>
<!-- Node31 -->
<g id="node31" class="node">
<title>Node31</title>
<g id="a_node31"><a xlink:href="class_ogre_1_1_android_e_g_l_window.html" target="_top" xlink:title=" ">
<polygon fill="none" stroke="black" points="680.5,-190.5 680.5,-209.5 809.5,-209.5 809.5,-190.5 680.5,-190.5"/>
<text text-anchor="middle" x="745" y="-197.5" font-family="Helvetica,sans-Serif" font-size="10.00">Ogre::AndroidEGLWindow</text>
</a>
</g>
</g>
<!-- Node30&#45;&gt;Node31 -->
<g id="edge30" class="edge">
<title>Node30&#45;&gt;Node31</title>
<path fill="none" stroke="midnightblue" d="M605.98,-173.17C634.28,-178.67 668.03,-185.23 695.07,-190.49"/>
<polygon fill="midnightblue" stroke="midnightblue" points="606.31,-169.67 595.83,-171.2 604.97,-176.54 606.31,-169.67"/>
</g>
<!-- Node32 -->
<g id="node32" class="node">
<title>Node32</title>
<g id="a_node32"><a xlink:href="class_ogre_1_1_emscripten_e_g_l_window.html" target="_top" xlink:title=" ">
<polygon fill="none" stroke="black" points="672.5,-152.5 672.5,-171.5 817.5,-171.5 817.5,-152.5 672.5,-152.5"/>
<text text-anchor="middle" x="745" y="-159.5" font-family="Helvetica,sans-Serif" font-size="10.00">Ogre::EmscriptenEGLWindow</text>
</a>
</g>
</g>
<!-- Node30&#45;&gt;Node32 -->
<g id="edge31" class="edge">
<title>Node30&#45;&gt;Node32</title>
<path fill="none" stroke="midnightblue" d="M606.07,-162C626.82,-162 650.49,-162 672.3,-162"/>
<polygon fill="midnightblue" stroke="midnightblue" points="605.83,-158.5 595.83,-162 605.83,-165.5 605.83,-158.5"/>
</g>
<!-- Node33 -->
<g id="node33" class="node">
<title>Node33</title>
<g id="a_node33"><a xlink:href="class_ogre_1_1_win32_e_g_l_window.html" target="_top" xlink:title=" ">
<polygon fill="none" stroke="black" points="683.5,-114.5 683.5,-133.5 806.5,-133.5 806.5,-114.5 683.5,-114.5"/>
<text text-anchor="middle" x="745" y="-121.5" font-family="Helvetica,sans-Serif" font-size="10.00">Ogre::Win32EGLWindow</text>
</a>
</g>
</g>
<!-- Node30&#45;&gt;Node33 -->
<g id="edge32" class="edge">
<title>Node30&#45;&gt;Node33</title>
<path fill="none" stroke="midnightblue" d="M605.98,-150.83C634.28,-145.33 668.03,-138.77 695.07,-133.51"/>
<polygon fill="midnightblue" stroke="midnightblue" points="604.97,-147.46 595.83,-152.8 606.31,-154.33 604.97,-147.46"/>
</g>
<!-- Node34 -->
<g id="node34" class="node">
<title>Node34</title>
<g id="a_node34"><a xlink:href="class_ogre_1_1_x11_e_g_l_window.html" target="_top" xlink:title=" ">
<polygon fill="none" stroke="black" points="688.5,-76.5 688.5,-95.5 801.5,-95.5 801.5,-76.5 688.5,-76.5"/>
<text text-anchor="middle" x="745" y="-83.5" font-family="Helvetica,sans-Serif" font-size="10.00">Ogre::X11EGLWindow</text>
</a>
</g>
</g>
<!-- Node30&#45;&gt;Node34 -->
<g id="edge33" class="edge">
<title>Node30&#45;&gt;Node34</title>
<path fill="none" stroke="midnightblue" d="M605.66,-152.3C613.1,-149.86 620.42,-146.81 627,-143 647.13,-131.34 642.83,-116.59 663,-105 670.77,-100.54 679.52,-97.12 688.33,-94.51"/>
<polygon fill="midnightblue" stroke="midnightblue" points="604.47,-149 595.85,-155.17 606.43,-155.72 604.47,-149"/>
</g>
</g>
</svg>
