<?xml version="1.0" encoding="UTF-8" standalone="no"?>
<!DOCTYPE svg PUBLIC "-//W3C//DTD SVG 1.1//EN"
 "http://www.w3.org/Graphics/SVG/1.1/DTD/svg11.dtd">
<!-- Generated by graphviz version 9.0.0 (20230911.1827)
 -->
<!-- Title: Ogre::PCZone Pages: 1 -->
<svg width="212pt" height="138pt"
 viewBox="0.00 0.00 212.25 137.75" xmlns="http://www.w3.org/2000/svg" xmlns:xlink="http://www.w3.org/1999/xlink">
<g id="graph0" class="graph" transform="scale(1 1) rotate(0) translate(4 133.75)">
<title>Ogre::PCZone</title>
<!-- Node1 -->
<g id="Node000001" class="node">
<title>Node1</title>
<g id="a_Node000001"><a xlink:title="Portal&#45;Connected Zone datastructure for managing scene nodes.">
<polygon fill="#999999" stroke="#666666" points="140.38,-74.5 63.62,-74.5 63.62,-55.25 140.38,-55.25 140.38,-74.5"/>
<text text-anchor="middle" x="102" y="-61" font-family="Helvetica,sans-Serif" font-size="10.00">Ogre::PCZone</text>
</a>
</g>
</g>
<!-- Node3 -->
<g id="Node000003" class="node">
<title>Node3</title>
<g id="a_Node000003"><a xlink:href="class_ogre_1_1_default_zone.html" target="_top" xlink:title=" ">
<polygon fill="white" stroke="#666666" points="94,-19.25 0,-19.25 0,0 94,0 94,-19.25"/>
<text text-anchor="middle" x="47" y="-5.75" font-family="Helvetica,sans-Serif" font-size="10.00">Ogre::DefaultZone</text>
</a>
</g>
</g>
<!-- Node1&#45;&gt;Node3 -->
<g id="edge2_Node000001_Node000003" class="edge">
<title>Node1&#45;&gt;Node3</title>
<g id="a_edge2_Node000001_Node000003"><a xlink:title=" ">
<path fill="none" stroke="#63b8ff" d="M84.65,-47.07C75.25,-37.98 64.02,-27.1 56.28,-19.61"/>
<polygon fill="#63b8ff" stroke="#63b8ff" points="82.21,-49.59 91.83,-54.03 87.08,-44.56 82.21,-49.59"/>
</a>
</g>
</g>
<!-- Node4 -->
<g id="Node000004" class="node">
<title>Node4</title>
<g id="a_Node000004"><a xlink:href="class_ogre_1_1_octree_zone.html" target="_top" xlink:title=" ">
<polygon fill="white" stroke="#666666" points="204.25,-19.25 111.75,-19.25 111.75,0 204.25,0 204.25,-19.25"/>
<text text-anchor="middle" x="158" y="-5.75" font-family="Helvetica,sans-Serif" font-size="10.00">Ogre::OctreeZone</text>
</a>
</g>
</g>
<!-- Node1&#45;&gt;Node4 -->
<g id="edge3_Node000001_Node000004" class="edge">
<title>Node1&#45;&gt;Node4</title>
<g id="a_edge3_Node000001_Node000004"><a xlink:title=" ">
<path fill="none" stroke="#63b8ff" d="M119.63,-47.11C129.24,-37.97 140.75,-27.03 148.64,-19.52"/>
<polygon fill="#63b8ff" stroke="#63b8ff" points="117.43,-44.37 112.6,-53.8 122.26,-49.44 117.43,-44.37"/>
</a>
</g>
</g>
<!-- Node2 -->
<g id="Node000002" class="node">
<title>Node2</title>
<g id="a_Node000002"><a xlink:href="class_ogre_1_1_allocated_object.html" target="_top" xlink:title="Superclass for all objects that wish to use custom memory allocators when their new / delete operator...">
<polygon fill="white" stroke="#666666" points="164.38,-129.75 39.63,-129.75 39.63,-110.5 164.38,-110.5 164.38,-129.75"/>
<text text-anchor="middle" x="102" y="-116.25" font-family="Helvetica,sans-Serif" font-size="10.00">SceneCtlAllocatedObject</text>
</a>
</g>
</g>
<!-- Node2&#45;&gt;Node1 -->
<g id="edge1_Node000001_Node000002" class="edge">
<title>Node2&#45;&gt;Node1</title>
<g id="a_edge1_Node000001_Node000002"><a xlink:title=" ">
<path fill="none" stroke="#63b8ff" d="M102,-98.88C102,-90.59 102,-81.42 102,-74.86"/>
<polygon fill="#63b8ff" stroke="#63b8ff" points="98.5,-98.82 102,-108.82 105.5,-98.82 98.5,-98.82"/>
</a>
</g>
</g>
</g>
</svg>
