<?xml version="1.0" encoding="UTF-8" standalone="no"?>
<!DOCTYPE svg PUBLIC "-//W3C//DTD SVG 1.1//EN"
 "http://www.w3.org/Graphics/SVG/1.1/DTD/svg11.dtd">
<!-- Generated by graphviz version 7.0.5 (20221223.1930)
 -->
<!-- Title: Ogre::v1::HardwareBufferManager Pages: 1 -->
<svg width="599pt" height="326pt"
 viewBox="0.00 0.00 599.00 326.00" xmlns="http://www.w3.org/2000/svg" xmlns:xlink="http://www.w3.org/1999/xlink">
<g id="graph0" class="graph" transform="scale(1 1) rotate(0) translate(4 322)">
<title>Ogre::v1::HardwareBufferManager</title>
<!-- Node1 -->
<g id="node1" class="node">
<title>Node1</title>
<g id="a_node1"><a xlink:title="Singleton wrapper for hardware buffer manager.">
<polygon fill="#999999" stroke="#666666" points="394,-174 269,-174 269,-144 394,-144 394,-174"/>
<text text-anchor="start" x="277" y="-162" font-family="Helvetica,sans-Serif" font-size="10.00">Ogre::v1::HardwareBuffer</text>
<text text-anchor="middle" x="331.5" y="-151" font-family="Helvetica,sans-Serif" font-size="10.00">Manager</text>
</a>
</g>
</g>
<!-- Node5 -->
<g id="node5" class="node">
<title>Node5</title>
<g id="a_node5"><a xlink:href="class_ogre_1_1v1_1_1_d3_d11_hardware_buffer_manager.html" target="_top" xlink:title="D3D11HardwareBufferManagerBase as a Singleton.">
<polygon fill="white" stroke="#666666" points="587.5,-318 433.5,-318 433.5,-288 587.5,-288 587.5,-318"/>
<text text-anchor="start" x="441.5" y="-306" font-family="Helvetica,sans-Serif" font-size="10.00">Ogre::v1::D3D11HardwareBuffer</text>
<text text-anchor="middle" x="510.5" y="-295" font-family="Helvetica,sans-Serif" font-size="10.00">Manager</text>
</a>
</g>
</g>
<!-- Node1&#45;&gt;Node5 -->
<g id="edge4" class="edge">
<title>Node1&#45;&gt;Node5</title>
<path fill="none" stroke="#63b8ff" d="M346.51,-183.95C363.05,-211.19 393.04,-254.21 430,-279 434.91,-282.29 440.28,-285.15 445.85,-287.62"/>
<polygon fill="#63b8ff" stroke="#63b8ff" points="349.71,-182.49 341.62,-175.66 343.69,-186.05 349.71,-182.49"/>
</g>
<!-- Node6 -->
<g id="node6" class="node">
<title>Node6</title>
<g id="a_node6"><a xlink:href="class_ogre_1_1v1_1_1_default_hardware_buffer_manager.html" target="_top" xlink:title="DefaultHardwareBufferManager as a Singleton.">
<polygon fill="white" stroke="#666666" points="575.5,-270 445.5,-270 445.5,-240 575.5,-240 575.5,-270"/>
<text text-anchor="start" x="453.5" y="-258" font-family="Helvetica,sans-Serif" font-size="10.00">Ogre::v1::DefaultHardware</text>
<text text-anchor="middle" x="510.5" y="-247" font-family="Helvetica,sans-Serif" font-size="10.00">BufferManager</text>
</a>
</g>
</g>
<!-- Node1&#45;&gt;Node6 -->
<g id="edge5" class="edge">
<title>Node1&#45;&gt;Node6</title>
<path fill="none" stroke="#63b8ff" d="M357.82,-181.51C376.62,-197.23 403.49,-217.71 430,-231 436.32,-234.17 443.13,-237 450.01,-239.51"/>
<polygon fill="#63b8ff" stroke="#63b8ff" points="360.3,-179.03 350.42,-175.2 355.76,-184.36 360.3,-179.03"/>
</g>
<!-- Node7 -->
<g id="node7" class="node">
<title>Node7</title>
<g id="a_node7"><a xlink:href="class_ogre_1_1v1_1_1_g_l3_plus_default_hardware_buffer_manager.html" target="_top" xlink:title="GL3PlusDefaultHardwareBufferManagerBase as a Singleton.">
<polygon fill="white" stroke="#666666" points="573.5,-222 447.5,-222 447.5,-192 573.5,-192 573.5,-222"/>
<text text-anchor="start" x="455.5" y="-210" font-family="Helvetica,sans-Serif" font-size="10.00">Ogre::v1::GL3PlusDefault</text>
<text text-anchor="middle" x="510.5" y="-199" font-family="Helvetica,sans-Serif" font-size="10.00">HardwareBufferManager</text>
</a>
</g>
</g>
<!-- Node1&#45;&gt;Node7 -->
<g id="edge6" class="edge">
<title>Node1&#45;&gt;Node7</title>
<path fill="none" stroke="#63b8ff" d="M400.59,-177.46C417.78,-182.13 436.06,-187.08 452.63,-191.58"/>
<polygon fill="#63b8ff" stroke="#63b8ff" points="401.51,-174.09 390.94,-174.85 399.67,-180.84 401.51,-174.09"/>
</g>
<!-- Node8 -->
<g id="node8" class="node">
<title>Node8</title>
<g id="a_node8"><a xlink:href="class_ogre_1_1v1_1_1_g_l3_plus_hardware_buffer_manager.html" target="_top" xlink:title="GL3PlusHardwareBufferManagerBase as a Singleton.">
<polygon fill="white" stroke="#666666" points="579,-174 442,-174 442,-144 579,-144 579,-174"/>
<text text-anchor="start" x="450" y="-162" font-family="Helvetica,sans-Serif" font-size="10.00">Ogre::v1::GL3PlusHardware</text>
<text text-anchor="middle" x="510.5" y="-151" font-family="Helvetica,sans-Serif" font-size="10.00">BufferManager</text>
</a>
</g>
</g>
<!-- Node1&#45;&gt;Node8 -->
<g id="edge7" class="edge">
<title>Node1&#45;&gt;Node8</title>
<path fill="none" stroke="#63b8ff" d="M405.66,-159C417.56,-159 429.83,-159 441.59,-159"/>
<polygon fill="#63b8ff" stroke="#63b8ff" points="405.92,-155.5 395.92,-159 405.92,-162.5 405.92,-155.5"/>
</g>
<!-- Node9 -->
<g id="node9" class="node">
<title>Node9</title>
<g id="a_node9"><a xlink:href="class_ogre_1_1v1_1_1_g_l_e_s2_default_hardware_buffer_manager.html" target="_top" xlink:title="GLES2DefaultHardwareBufferManagerBase as a Singleton.">
<polygon fill="white" stroke="#666666" points="591,-126 430,-126 430,-96 591,-96 591,-126"/>
<text text-anchor="start" x="438" y="-114" font-family="Helvetica,sans-Serif" font-size="10.00">Ogre::v1::GLES2DefaultHardware</text>
<text text-anchor="middle" x="510.5" y="-103" font-family="Helvetica,sans-Serif" font-size="10.00">BufferManager</text>
</a>
</g>
</g>
<!-- Node1&#45;&gt;Node9 -->
<g id="edge8" class="edge">
<title>Node1&#45;&gt;Node9</title>
<path fill="none" stroke="#63b8ff" d="M400.59,-140.54C417.78,-135.87 436.06,-130.92 452.63,-126.42"/>
<polygon fill="#63b8ff" stroke="#63b8ff" points="399.67,-137.16 390.94,-143.15 401.51,-143.91 399.67,-137.16"/>
</g>
<!-- Node10 -->
<g id="node10" class="node">
<title>Node10</title>
<g id="a_node10"><a xlink:href="class_ogre_1_1v1_1_1_g_l_e_s2_hardware_buffer_manager.html" target="_top" xlink:title="GLES2HardwareBufferManagerBase as a Singleton.">
<polygon fill="white" stroke="#666666" points="588.5,-78 432.5,-78 432.5,-48 588.5,-48 588.5,-78"/>
<text text-anchor="start" x="440.5" y="-66" font-family="Helvetica,sans-Serif" font-size="10.00">Ogre::v1::GLES2HardwareBuffer</text>
<text text-anchor="middle" x="510.5" y="-55" font-family="Helvetica,sans-Serif" font-size="10.00">Manager</text>
</a>
</g>
</g>
<!-- Node1&#45;&gt;Node10 -->
<g id="edge9" class="edge">
<title>Node1&#45;&gt;Node10</title>
<path fill="none" stroke="#63b8ff" d="M357.82,-136.49C376.62,-120.77 403.49,-100.29 430,-87 436.32,-83.83 443.13,-81 450.01,-78.49"/>
<polygon fill="#63b8ff" stroke="#63b8ff" points="355.76,-133.64 350.42,-142.8 360.3,-138.97 355.76,-133.64"/>
</g>
<!-- Node11 -->
<g id="node11" class="node">
<title>Node11</title>
<g id="a_node11"><a xlink:href="class_ogre_1_1v1_1_1_metal_hardware_buffer_manager.html" target="_top" xlink:title="MetalHardwareBufferManagerBase as a Singleton.">
<polygon fill="white" stroke="#666666" points="585,-30 436,-30 436,0 585,0 585,-30"/>
<text text-anchor="start" x="444" y="-18" font-family="Helvetica,sans-Serif" font-size="10.00">Ogre::v1::MetalHardwareBuffer</text>
<text text-anchor="middle" x="510.5" y="-7" font-family="Helvetica,sans-Serif" font-size="10.00">Manager</text>
</a>
</g>
</g>
<!-- Node1&#45;&gt;Node11 -->
<g id="edge10" class="edge">
<title>Node1&#45;&gt;Node11</title>
<path fill="none" stroke="#63b8ff" d="M346.51,-134.05C363.05,-106.81 393.04,-63.79 430,-39 434.91,-35.71 440.28,-32.85 445.85,-30.38"/>
<polygon fill="#63b8ff" stroke="#63b8ff" points="343.69,-131.95 341.62,-142.34 349.71,-135.51 343.69,-131.95"/>
</g>
<!-- Node2 -->
<g id="node2" class="node">
<title>Node2</title>
<g id="a_node2"><a xlink:href="class_ogre_1_1v1_1_1_hardware_buffer_manager_base.html" target="_top" xlink:title="Base definition of a hardware buffer manager.">
<polygon fill="white" stroke="#666666" points="229,-198 104,-198 104,-168 229,-168 229,-198"/>
<text text-anchor="start" x="112" y="-186" font-family="Helvetica,sans-Serif" font-size="10.00">Ogre::v1::HardwareBuffer</text>
<text text-anchor="middle" x="166.5" y="-175" font-family="Helvetica,sans-Serif" font-size="10.00">ManagerBase</text>
</a>
</g>
</g>
<!-- Node2&#45;&gt;Node1 -->
<g id="edge1" class="edge">
<title>Node2&#45;&gt;Node1</title>
<path fill="none" stroke="#63b8ff" d="M240.45,-172.26C249.82,-170.88 259.34,-169.48 268.52,-168.13"/>
<polygon fill="#63b8ff" stroke="#63b8ff" points="240,-168.79 230.62,-173.71 241.02,-175.71 240,-168.79"/>
</g>
<!-- Node3 -->
<g id="node3" class="node">
<title>Node3</title>
<g id="a_node3"><a xlink:href="class_ogre_1_1_allocated_object.html" target="_top" xlink:title="Superclass for all objects that wish to use custom memory allocators when their new / delete operator...">
<polygon fill="white" stroke="#666666" points="64,-192.5 0,-192.5 0,-173.5 64,-173.5 64,-192.5"/>
<text text-anchor="middle" x="32" y="-180.5" font-family="Helvetica,sans-Serif" font-size="10.00">BufferAlloc</text>
</a>
</g>
</g>
<!-- Node3&#45;&gt;Node2 -->
<g id="edge2" class="edge">
<title>Node3&#45;&gt;Node2</title>
<path fill="none" stroke="#63b8ff" d="M75.68,-183C84.6,-183 94.17,-183 103.62,-183"/>
<polygon fill="#63b8ff" stroke="#63b8ff" points="75.91,-179.5 65.91,-183 75.91,-186.5 75.91,-179.5"/>
</g>
<!-- Node4 -->
<g id="node4" class="node">
<title>Node4</title>
<g id="a_node4"><a xlink:href="class_ogre_1_1_singleton.html" target="_top" xlink:title=" ">
<polygon fill="white" stroke="#666666" points="233,-150 100,-150 100,-120 233,-120 233,-150"/>
<text text-anchor="start" x="108" y="-138" font-family="Helvetica,sans-Serif" font-size="10.00">Ogre::Singleton&lt; Hardware</text>
<text text-anchor="middle" x="166.5" y="-127" font-family="Helvetica,sans-Serif" font-size="10.00">BufferManager &gt;</text>
</a>
</g>
</g>
<!-- Node4&#45;&gt;Node1 -->
<g id="edge3" class="edge">
<title>Node4&#45;&gt;Node1</title>
<path fill="none" stroke="#63b8ff" d="M244.64,-146.36C252.69,-147.54 260.8,-148.74 268.65,-149.89"/>
<polygon fill="#63b8ff" stroke="#63b8ff" points="245.23,-142.91 234.83,-144.91 244.21,-149.83 245.23,-142.91"/>
</g>
</g>
</svg>
