<?xml version="1.0" encoding="UTF-8" standalone="no"?>
<!DOCTYPE svg PUBLIC "-//W3C//DTD SVG 1.1//EN"
 "http://www.w3.org/Graphics/SVG/1.1/DTD/svg11.dtd">
<!-- Generated by graphviz version 9.0.0 (20230911.1827)
 -->
<!-- Title: Ogre::NULLTextureGpuRenderTarget Pages: 1 -->
<svg width="262pt" height="260pt"
 viewBox="0.00 0.00 262.38 259.50" xmlns="http://www.w3.org/2000/svg" xmlns:xlink="http://www.w3.org/1999/xlink">
<g id="graph0" class="graph" transform="scale(1 1) rotate(0) translate(4 255.5)">
<title>Ogre::NULLTextureGpuRenderTarget</title>
<!-- Node1 -->
<g id="Node000001" class="node">
<title>Node1</title>
<g id="a_Node000001"><a xlink:title=" ">
<polygon fill="#999999" stroke="#666666" points="210.75,-30.5 61.25,-30.5 61.25,0 210.75,0 210.75,-30.5"/>
<text text-anchor="start" x="69.25" y="-17" font-family="Helvetica,sans-Serif" font-size="10.00">Ogre::NULLTextureGpuRender</text>
<text text-anchor="middle" x="136" y="-5.75" font-family="Helvetica,sans-Serif" font-size="10.00">Target</text>
</a>
</g>
</g>
<!-- Node2 -->
<g id="Node000002" class="node">
<title>Node2</title>
<g id="a_Node000002"><a xlink:href="class_ogre_1_1_n_u_l_l_texture_gpu.html" target="_top" xlink:title=" ">
<polygon fill="white" stroke="#666666" points="195.38,-85.75 76.62,-85.75 76.62,-66.5 195.38,-66.5 195.38,-85.75"/>
<text text-anchor="middle" x="136" y="-72.25" font-family="Helvetica,sans-Serif" font-size="10.00">Ogre::NULLTextureGpu</text>
</a>
</g>
</g>
<!-- Node2&#45;&gt;Node1 -->
<g id="edge1_Node000001_Node000002" class="edge">
<title>Node2&#45;&gt;Node1</title>
<g id="a_edge1_Node000001_Node000002"><a xlink:title=" ">
<path fill="none" stroke="#63b8ff" d="M136,-54.92C136,-46.99 136,-38.06 136,-30.78"/>
<polygon fill="#63b8ff" stroke="#63b8ff" points="132.5,-54.67 136,-64.67 139.5,-54.67 132.5,-54.67"/>
</a>
</g>
</g>
<!-- Node3 -->
<g id="Node000003" class="node">
<title>Node3</title>
<g id="a_Node000003"><a xlink:href="class_ogre_1_1_texture_gpu.html" target="_top" xlink:title=" ">
<polygon fill="white" stroke="#666666" points="181.88,-141 90.12,-141 90.12,-121.75 181.88,-121.75 181.88,-141"/>
<text text-anchor="middle" x="136" y="-127.5" font-family="Helvetica,sans-Serif" font-size="10.00">Ogre::TextureGpu</text>
</a>
</g>
</g>
<!-- Node3&#45;&gt;Node2 -->
<g id="edge2_Node000002_Node000003" class="edge">
<title>Node3&#45;&gt;Node2</title>
<g id="a_edge2_Node000002_Node000003"><a xlink:title=" ">
<path fill="none" stroke="#63b8ff" d="M136,-110.13C136,-101.84 136,-92.67 136,-86.11"/>
<polygon fill="#63b8ff" stroke="#63b8ff" points="132.5,-110.07 136,-120.07 139.5,-110.07 132.5,-110.07"/>
</a>
</g>
</g>
<!-- Node4 -->
<g id="Node000004" class="node">
<title>Node4</title>
<g id="a_Node000004"><a xlink:href="struct_ogre_1_1_gpu_tracked_resource.html" target="_top" xlink:title=" ">
<polygon fill="white" stroke="#666666" points="136,-196.25 0,-196.25 0,-177 136,-177 136,-196.25"/>
<text text-anchor="middle" x="68" y="-182.75" font-family="Helvetica,sans-Serif" font-size="10.00">Ogre::GpuTrackedResource</text>
</a>
</g>
</g>
<!-- Node4&#45;&gt;Node3 -->
<g id="edge3_Node000003_Node000004" class="edge">
<title>Node4&#45;&gt;Node3</title>
<g id="a_edge3_Node000003_Node000004"><a xlink:title=" ">
<path fill="none" stroke="#63b8ff" d="M88.35,-169.69C100.22,-160.39 114.76,-149.01 124.64,-141.27"/>
<polygon fill="#63b8ff" stroke="#63b8ff" points="86.44,-166.74 80.73,-175.66 90.76,-172.25 86.44,-166.74"/>
</a>
</g>
</g>
<!-- Node5 -->
<g id="Node000005" class="node">
<title>Node5</title>
<g id="a_Node000005"><a xlink:href="class_ogre_1_1_gpu_resource.html" target="_top" xlink:title=" ">
<polygon fill="white" stroke="#666666" points="254.38,-196.25 153.62,-196.25 153.62,-177 254.38,-177 254.38,-196.25"/>
<text text-anchor="middle" x="204" y="-182.75" font-family="Helvetica,sans-Serif" font-size="10.00">Ogre::GpuResource</text>
</a>
</g>
</g>
<!-- Node5&#45;&gt;Node3 -->
<g id="edge4_Node000003_Node000005" class="edge">
<title>Node5&#45;&gt;Node3</title>
<g id="a_edge4_Node000003_Node000005"><a xlink:title=" ">
<path fill="none" stroke="#63b8ff" d="M183.65,-169.69C171.78,-160.39 157.24,-149.01 147.36,-141.27"/>
<polygon fill="#63b8ff" stroke="#63b8ff" points="181.24,-172.25 191.27,-175.66 185.56,-166.74 181.24,-172.25"/>
</a>
</g>
</g>
<!-- Node6 -->
<g id="Node000006" class="node">
<title>Node6</title>
<g id="a_Node000006"><a xlink:href="class_ogre_1_1_allocated_object.html" target="_top" xlink:title="Superclass for all objects that wish to use custom memory allocators when their new / delete operator...">
<polygon fill="white" stroke="#666666" points="243.5,-251.5 164.5,-251.5 164.5,-232.25 243.5,-232.25 243.5,-251.5"/>
<text text-anchor="middle" x="204" y="-238" font-family="Helvetica,sans-Serif" font-size="10.00">ResourceAlloc</text>
</a>
</g>
</g>
<!-- Node6&#45;&gt;Node5 -->
<g id="edge5_Node000005_Node000006" class="edge">
<title>Node6&#45;&gt;Node5</title>
<g id="a_edge5_Node000005_Node000006"><a xlink:title=" ">
<path fill="none" stroke="#63b8ff" d="M204,-220.63C204,-212.34 204,-203.17 204,-196.61"/>
<polygon fill="#63b8ff" stroke="#63b8ff" points="200.5,-220.57 204,-230.57 207.5,-220.57 200.5,-220.57"/>
</a>
</g>
</g>
</g>
</svg>
