<?xml version="1.0" encoding="UTF-8" standalone="no"?>
<!DOCTYPE svg PUBLIC "-//W3C//DTD SVG 1.1//EN"
 "http://www.w3.org/Graphics/SVG/1.1/DTD/svg11.dtd">
<!-- Generated by graphviz version 9.0.0 (20230911.1827)
 -->
<!-- Title: Ogre::NULLAsyncTextureTicket Pages: 1 -->
<svg width="214pt" height="138pt"
 viewBox="0.00 0.00 213.62 137.75" xmlns="http://www.w3.org/2000/svg" xmlns:xlink="http://www.w3.org/1999/xlink">
<g id="graph0" class="graph" transform="scale(1 1) rotate(0) translate(4 133.75)">
<title>Ogre::NULLAsyncTextureTicket</title>
<!-- Node1 -->
<g id="Node000001" class="node">
<title>Node1</title>
<g id="a_Node000001"><a xlink:title="See AsyncTextureTicket.">
<polygon fill="#999999" stroke="#666666" points="163.5,-19.25 8.75,-19.25 8.75,0 163.5,0 163.5,-19.25"/>
<text text-anchor="middle" x="86.12" y="-5.75" font-family="Helvetica,sans-Serif" font-size="10.00">Ogre::NULLAsyncTextureTicket</text>
</a>
</g>
</g>
<!-- Node2 -->
<g id="Node000002" class="node">
<title>Node2</title>
<g id="a_Node000002"><a xlink:href="class_ogre_1_1_async_texture_ticket.html" target="_top" xlink:title="In Ogre 2.2 reading data from GPU back to CPU is asynchronous.">
<polygon fill="white" stroke="#666666" points="150,-74.5 22.25,-74.5 22.25,-55.25 150,-55.25 150,-74.5"/>
<text text-anchor="middle" x="86.12" y="-61" font-family="Helvetica,sans-Serif" font-size="10.00">Ogre::AsyncTextureTicket</text>
</a>
</g>
</g>
<!-- Node2&#45;&gt;Node1 -->
<g id="edge1_Node000001_Node000002" class="edge">
<title>Node2&#45;&gt;Node1</title>
<g id="a_edge1_Node000001_Node000002"><a xlink:title=" ">
<path fill="none" stroke="#63b8ff" d="M86.12,-43.63C86.12,-35.34 86.12,-26.17 86.12,-19.61"/>
<polygon fill="#63b8ff" stroke="#63b8ff" points="82.63,-43.57 86.13,-53.57 89.63,-43.57 82.63,-43.57"/>
</a>
</g>
</g>
<!-- Node3 -->
<g id="Node000003" class="node">
<title>Node3</title>
<g id="a_Node000003"><a xlink:href="class_ogre_1_1_allocated_object.html" target="_top" xlink:title="Superclass for all objects that wish to use custom memory allocators when their new / delete operator...">
<polygon fill="white" stroke="#666666" points="60.25,-129.75 0,-129.75 0,-110.5 60.25,-110.5 60.25,-129.75"/>
<text text-anchor="middle" x="30.12" y="-116.25" font-family="Helvetica,sans-Serif" font-size="10.00">PassAlloc</text>
</a>
</g>
</g>
<!-- Node3&#45;&gt;Node2 -->
<g id="edge2_Node000002_Node000003" class="edge">
<title>Node3&#45;&gt;Node2</title>
<g id="a_edge2_Node000002_Node000003"><a xlink:title=" ">
<path fill="none" stroke="#63b8ff" d="M47.76,-102.36C57.37,-93.22 68.88,-82.28 76.77,-74.77"/>
<polygon fill="#63b8ff" stroke="#63b8ff" points="45.56,-99.62 40.72,-109.05 50.38,-104.69 45.56,-99.62"/>
</a>
</g>
</g>
<!-- Node4 -->
<g id="Node000004" class="node">
<title>Node4</title>
<g id="a_Node000004"><a xlink:href="class_ogre_1_1_texture_gpu_listener.html" target="_top" xlink:title=" ">
<polygon fill="white" stroke="#666666" points="205.62,-129.75 78.62,-129.75 78.62,-110.5 205.62,-110.5 205.62,-129.75"/>
<text text-anchor="middle" x="142.12" y="-116.25" font-family="Helvetica,sans-Serif" font-size="10.00">Ogre::TextureGpuListener</text>
</a>
</g>
</g>
<!-- Node4&#45;&gt;Node2 -->
<g id="edge3_Node000002_Node000004" class="edge">
<title>Node4&#45;&gt;Node2</title>
<g id="a_edge3_Node000002_Node000004"><a xlink:title=" ">
<path fill="none" stroke="#63b8ff" d="M124.49,-102.36C114.88,-93.22 103.37,-82.28 95.48,-74.77"/>
<polygon fill="#63b8ff" stroke="#63b8ff" points="121.87,-104.69 131.53,-109.05 126.69,-99.62 121.87,-104.69"/>
</a>
</g>
</g>
</g>
</svg>
