<?xml version="1.0" encoding="UTF-8" standalone="no"?>
<!DOCTYPE svg PUBLIC "-//W3C//DTD SVG 1.1//EN"
 "http://www.w3.org/Graphics/SVG/1.1/DTD/svg11.dtd">
<!-- Generated by graphviz version 9.0.0 (20230911.1827)
 -->
<!-- Title: Ogre::D3D11DeviceResource Pages: 1 -->
<svg width="541pt" height="178pt"
 viewBox="0.00 0.00 541.25 178.25" xmlns="http://www.w3.org/2000/svg" xmlns:xlink="http://www.w3.org/1999/xlink">
<g id="graph0" class="graph" transform="scale(1 1) rotate(0) translate(4 174.25)">
<title>Ogre::D3D11DeviceResource</title>
<!-- Node1 -->
<g id="Node000001" class="node">
<title>Node1</title>
<g id="a_Node000001"><a xlink:title="Represents a Direct3D rendering resource.">
<polygon fill="#999999" stroke="#666666" points="142,-114.25 0,-114.25 0,-95 142,-95 142,-114.25"/>
<text text-anchor="middle" x="71" y="-100.75" font-family="Helvetica,sans-Serif" font-size="10.00">Ogre::D3D11DeviceResource</text>
</a>
</g>
</g>
<!-- Node2 -->
<g id="Node000002" class="node">
<title>Node2</title>
<g id="a_Node000002"><a xlink:href="class_ogre_1_1_d3_d11_h_l_s_l_program.html" target="_top" xlink:title="Specialization of HighLevelGpuProgram to provide support for D3D11 High&#45;Level Shader Language (HLSL).">
<polygon fill="white" stroke="#666666" points="324.12,-170.25 190.38,-170.25 190.38,-151 324.12,-151 324.12,-170.25"/>
<text text-anchor="middle" x="257.25" y="-156.75" font-family="Helvetica,sans-Serif" font-size="10.00">Ogre::D3D11HLSLProgram</text>
</a>
</g>
</g>
<!-- Node1&#45;&gt;Node2 -->
<g id="edge1_Node000001_Node000002" class="edge">
<title>Node1&#45;&gt;Node2</title>
<g id="a_edge1_Node000001_Node000002"><a xlink:title=" ">
<path fill="none" stroke="#8b1a1a" d="M108.09,-118.76C128.43,-126.42 154.42,-135.71 178,-142.62 187.77,-145.49 198.32,-148.18 208.43,-150.57"/>
<polygon fill="#8b1a1a" stroke="#8b1a1a" points="109.43,-115.53 98.84,-115.24 106.94,-122.07 109.43,-115.53"/>
</a>
</g>
</g>
<!-- Node3 -->
<g id="Node000003" class="node">
<title>Node3</title>
<g id="a_Node000003"><a xlink:href="class_ogre_1_1_d3_d11_render_texture.html" target="_top" xlink:title="RenderTexture implementation for D3D11.">
<polygon fill="white" stroke="#666666" points="324.12,-133.25 190.38,-133.25 190.38,-114 324.12,-114 324.12,-133.25"/>
<text text-anchor="middle" x="257.25" y="-119.75" font-family="Helvetica,sans-Serif" font-size="10.00">Ogre::D3D11RenderTexture</text>
</a>
</g>
</g>
<!-- Node1&#45;&gt;Node3 -->
<g id="edge2_Node000001_Node000003" class="edge">
<title>Node1&#45;&gt;Node3</title>
<g id="a_edge2_Node000001_Node000003"><a xlink:title=" ">
<path fill="none" stroke="#8b1a1a" d="M153.57,-113.04C165.78,-114.3 178.24,-115.58 190.09,-116.8"/>
<polygon fill="#8b1a1a" stroke="#8b1a1a" points="154.26,-109.59 143.95,-112.04 153.54,-116.55 154.26,-109.59"/>
</a>
</g>
</g>
<!-- Node4 -->
<g id="Node000004" class="node">
<title>Node4</title>
<g id="a_Node000004"><a xlink:href="class_ogre_1_1_d3_d11_render_window_base.html" target="_top" xlink:title=" ">
<polygon fill="white" stroke="#666666" points="336.5,-96.25 178,-96.25 178,-77 336.5,-77 336.5,-96.25"/>
<text text-anchor="middle" x="257.25" y="-82.75" font-family="Helvetica,sans-Serif" font-size="10.00">Ogre::D3D11RenderWindowBase</text>
</a>
</g>
</g>
<!-- Node1&#45;&gt;Node4 -->
<g id="edge3_Node000001_Node000004" class="edge">
<title>Node1&#45;&gt;Node4</title>
<g id="a_edge3_Node000001_Node000004"><a xlink:title=" ">
<path fill="none" stroke="#8b1a1a" d="M153.87,-96.63C161.74,-95.86 169.71,-95.08 177.54,-94.31"/>
<polygon fill="#8b1a1a" stroke="#8b1a1a" points="153.56,-93.14 143.95,-97.6 154.25,-100.11 153.56,-93.14"/>
</a>
</g>
</g>
<!-- Node6 -->
<g id="Node000006" class="node">
<title>Node6</title>
<g id="a_Node000006"><a xlink:href="class_ogre_1_1_d3_d11_texture.html" target="_top" xlink:title=" ">
<polygon fill="white" stroke="#666666" points="308.75,-56.25 205.75,-56.25 205.75,-37 308.75,-37 308.75,-56.25"/>
<text text-anchor="middle" x="257.25" y="-42.75" font-family="Helvetica,sans-Serif" font-size="10.00">Ogre::D3D11Texture</text>
</a>
</g>
</g>
<!-- Node1&#45;&gt;Node6 -->
<g id="edge5_Node000001_Node000006" class="edge">
<title>Node1&#45;&gt;Node6</title>
<g id="a_edge5_Node000001_Node000006"><a xlink:title=" ">
<path fill="none" stroke="#8b1a1a" d="M109.46,-90.79C129.65,-83.53 155.05,-74.7 178,-67.62 190.37,-63.81 203.95,-60.03 216.28,-56.74"/>
<polygon fill="#8b1a1a" stroke="#8b1a1a" points="108.46,-87.43 100.25,-94.13 110.85,-94.01 108.46,-87.43"/>
</a>
</g>
</g>
<!-- Node5 -->
<g id="Node000005" class="node">
<title>Node5</title>
<g id="a_Node000005"><a xlink:href="class_ogre_1_1_d3_d11_render_window_swap_chain_based.html" target="_top" xlink:title=" ">
<polygon fill="white" stroke="#666666" points="533.25,-104.88 372.5,-104.88 372.5,-74.38 533.25,-74.38 533.25,-104.88"/>
<text text-anchor="start" x="380.5" y="-91.38" font-family="Helvetica,sans-Serif" font-size="10.00">Ogre::D3D11RenderWindowSwap</text>
<text text-anchor="middle" x="452.88" y="-80.12" font-family="Helvetica,sans-Serif" font-size="10.00">ChainBased</text>
</a>
</g>
</g>
<!-- Node4&#45;&gt;Node5 -->
<g id="edge4_Node000004_Node000005" class="edge">
<title>Node4&#45;&gt;Node5</title>
<g id="a_edge4_Node000004_Node000005"><a xlink:title=" ">
<path fill="none" stroke="#63b8ff" d="M348,-88.02C356.02,-88.14 364.1,-88.27 372.03,-88.39"/>
<polygon fill="#63b8ff" stroke="#63b8ff" points="348.29,-84.52 338.24,-87.86 348.18,-91.52 348.29,-84.52"/>
</a>
</g>
</g>
<!-- Node7 -->
<g id="Node000007" class="node">
<title>Node7</title>
<g id="a_Node000007"><a xlink:href="class_ogre_1_1_d3_d11_depth_texture.html" target="_top" xlink:title=" ">
<polygon fill="white" stroke="#666666" points="517.12,-56.25 388.62,-56.25 388.62,-37 517.12,-37 517.12,-56.25"/>
<text text-anchor="middle" x="452.88" y="-42.75" font-family="Helvetica,sans-Serif" font-size="10.00">Ogre::D3D11DepthTexture</text>
</a>
</g>
</g>
<!-- Node6&#45;&gt;Node7 -->
<g id="edge6_Node000006_Node000007" class="edge">
<title>Node6&#45;&gt;Node7</title>
<g id="a_edge6_Node000006_Node000007"><a xlink:title=" ">
<path fill="none" stroke="#63b8ff" d="M320.5,-46.62C342.14,-46.62 366.42,-46.62 388.17,-46.62"/>
<polygon fill="#63b8ff" stroke="#63b8ff" points="320.64,-43.13 310.64,-46.63 320.64,-50.13 320.64,-43.13"/>
</a>
</g>
</g>
<!-- Node8 -->
<g id="Node000008" class="node">
<title>Node8</title>
<g id="a_Node000008"><a xlink:href="class_ogre_1_1_d3_d11_null_texture.html" target="_top" xlink:title=" ">
<polygon fill="white" stroke="#666666" points="513,-19.25 392.75,-19.25 392.75,0 513,0 513,-19.25"/>
<text text-anchor="middle" x="452.88" y="-5.75" font-family="Helvetica,sans-Serif" font-size="10.00">Ogre::D3D11NullTexture</text>
</a>
</g>
</g>
<!-- Node6&#45;&gt;Node8 -->
<g id="edge7_Node000006_Node000008" class="edge">
<title>Node6&#45;&gt;Node8</title>
<g id="a_edge7_Node000006_Node000008"><a xlink:title=" ">
<path fill="none" stroke="#63b8ff" d="M320.12,-34.8C345.51,-29.95 374.6,-24.39 398.98,-19.73"/>
<polygon fill="#63b8ff" stroke="#63b8ff" points="319.77,-31.3 310.61,-36.62 321.09,-38.18 319.77,-31.3"/>
</a>
</g>
</g>
</g>
</svg>
