<?xml version="1.0" encoding="UTF-8" standalone="no"?>
<!DOCTYPE svg PUBLIC "-//W3C//DTD SVG 1.1//EN"
 "http://www.w3.org/Graphics/SVG/1.1/DTD/svg11.dtd">
<!-- Generated by graphviz version 2.44.0 ()
 -->
<!-- Title: Ogre::D3D11RenderPassDescriptor Pages: 1 -->
<svg width="272pt" height="151pt"
 viewBox="0.00 0.00 272.00 151.00" xmlns="http://www.w3.org/2000/svg" xmlns:xlink="http://www.w3.org/1999/xlink">
<g id="graph0" class="graph" transform="scale(1 1) rotate(0) translate(4 147)">
<title>Ogre::D3D11RenderPassDescriptor</title>
<!-- Node1 -->
<g id="node1" class="node">
<title>Node1</title>
<g id="a_node1"><a xlink:title="D3D11 will share groups of ID3D11RenderTargetView all D3D11RenderPassDescriptor that share the same R...">
<polygon fill="#bfbfbf" stroke="black" points="55.5,-0.5 55.5,-19.5 224.5,-19.5 224.5,-0.5 55.5,-0.5"/>
<text text-anchor="middle" x="140" y="-7.5" font-family="Helvetica,sans-Serif" font-size="10.00">Ogre::D3D11RenderPassDescriptor</text>
</a>
</g>
</g>
<!-- Node2 -->
<g id="node2" class="node">
<title>Node2</title>
<g id="a_node2"><a xlink:href="class_ogre_1_1_render_pass_descriptor.html" target="_top" xlink:title=" ">
<polygon fill="none" stroke="black" points="0,-62 0,-81 140,-81 140,-62 0,-62"/>
<text text-anchor="middle" x="70" y="-69" font-family="Helvetica,sans-Serif" font-size="10.00">Ogre::RenderPassDescriptor</text>
</a>
</g>
</g>
<!-- Node2&#45;&gt;Node1 -->
<g id="edge1" class="edge">
<title>Node2&#45;&gt;Node1</title>
<path fill="none" stroke="midnightblue" d="M87.68,-55.47C101.07,-44.09 118.98,-28.87 129.99,-19.51"/>
<polygon fill="midnightblue" stroke="midnightblue" points="85.38,-52.83 80.03,-61.98 89.92,-58.17 85.38,-52.83"/>
</g>
<!-- Node3 -->
<g id="node3" class="node">
<title>Node3</title>
<g id="a_node3"><a xlink:href="class_ogre_1_1_allocated_object.html" target="_top" xlink:title="Superclass for all objects that wish to use custom memory allocators when their new / delete operator...">
<polygon fill="none" stroke="black" points="27,-123.5 27,-142.5 113,-142.5 113,-123.5 27,-123.5"/>
<text text-anchor="middle" x="70" y="-130.5" font-family="Helvetica,sans-Serif" font-size="10.00">RenderSysAlloc</text>
</a>
</g>
</g>
<!-- Node3&#45;&gt;Node2 -->
<g id="edge2" class="edge">
<title>Node3&#45;&gt;Node2</title>
<path fill="none" stroke="midnightblue" d="M70,-113.32C70,-102.5 70,-89.4 70,-81.01"/>
<polygon fill="midnightblue" stroke="midnightblue" points="66.5,-113.48 70,-123.48 73.5,-113.48 66.5,-113.48"/>
</g>
<!-- Node4 -->
<g id="node4" class="node">
<title>Node4</title>
<g id="a_node4"><a xlink:href="class_ogre_1_1_render_system_1_1_listener.html" target="_top" xlink:title="Defines a listener on the custom events that this render system can raise.">
<polygon fill="none" stroke="black" points="158,-56.5 158,-86.5 264,-86.5 264,-56.5 158,-56.5"/>
<text text-anchor="start" x="166" y="-74.5" font-family="Helvetica,sans-Serif" font-size="10.00">Ogre::RenderSystem</text>
<text text-anchor="middle" x="211" y="-63.5" font-family="Helvetica,sans-Serif" font-size="10.00">::Listener</text>
</a>
</g>
</g>
<!-- Node4&#45;&gt;Node1 -->
<g id="edge3" class="edge">
<title>Node4&#45;&gt;Node1</title>
<path fill="none" stroke="midnightblue" d="M186.41,-49.89C174.06,-39.54 159.76,-27.56 150.33,-19.66"/>
<polygon fill="midnightblue" stroke="midnightblue" points="184.26,-52.66 194.17,-56.4 188.76,-47.29 184.26,-52.66"/>
</g>
</g>
</svg>
