<?xml version="1.0" encoding="UTF-8" standalone="no"?>
<!DOCTYPE svg PUBLIC "-//W3C//DTD SVG 1.1//EN"
 "http://www.w3.org/Graphics/SVG/1.1/DTD/svg11.dtd">
<!-- Generated by graphviz version 9.0.0 (20230911.1827)
 -->
<!-- Title: Ogre::D3D11TextureGpu Pages: 1 -->
<svg width="262pt" height="315pt"
 viewBox="0.00 0.00 262.38 314.75" xmlns="http://www.w3.org/2000/svg" xmlns:xlink="http://www.w3.org/1999/xlink">
<g id="graph0" class="graph" transform="scale(1 1) rotate(0) translate(4 310.75)">
<title>Ogre::D3D11TextureGpu</title>
<!-- Node1 -->
<g id="Node000001" class="node">
<title>Node1</title>
<g id="a_Node000001"><a xlink:title=" ">
<polygon fill="#999999" stroke="#666666" points="196.5,-141 75.5,-141 75.5,-121.75 196.5,-121.75 196.5,-141"/>
<text text-anchor="middle" x="136" y="-127.5" font-family="Helvetica,sans-Serif" font-size="10.00">Ogre::D3D11TextureGpu</text>
</a>
</g>
</g>
<!-- Node6 -->
<g id="Node000006" class="node">
<title>Node6</title>
<g id="a_Node000006"><a xlink:href="class_ogre_1_1_d3_d11_texture_gpu_render_target.html" target="_top" xlink:title=" ">
<polygon fill="white" stroke="#666666" points="211.88,-85.75 60.12,-85.75 60.12,-55.25 211.88,-55.25 211.88,-85.75"/>
<text text-anchor="start" x="68.12" y="-72.25" font-family="Helvetica,sans-Serif" font-size="10.00">Ogre::D3D11TextureGpuRender</text>
<text text-anchor="middle" x="136" y="-61" font-family="Helvetica,sans-Serif" font-size="10.00">Target</text>
</a>
</g>
</g>
<!-- Node1&#45;&gt;Node6 -->
<g id="edge5_Node000001_Node000006" class="edge">
<title>Node1&#45;&gt;Node6</title>
<g id="a_edge5_Node000001_Node000006"><a xlink:title=" ">
<path fill="none" stroke="#63b8ff" d="M136,-110.17C136,-102.24 136,-93.31 136,-86.03"/>
<polygon fill="#63b8ff" stroke="#63b8ff" points="132.5,-109.92 136,-119.92 139.5,-109.92 132.5,-109.92"/>
</a>
</g>
</g>
<!-- Node2 -->
<g id="Node000002" class="node">
<title>Node2</title>
<g id="a_Node000002"><a xlink:href="class_ogre_1_1_texture_gpu.html" target="_top" xlink:title=" ">
<polygon fill="white" stroke="#666666" points="181.88,-196.25 90.12,-196.25 90.12,-177 181.88,-177 181.88,-196.25"/>
<text text-anchor="middle" x="136" y="-182.75" font-family="Helvetica,sans-Serif" font-size="10.00">Ogre::TextureGpu</text>
</a>
</g>
</g>
<!-- Node2&#45;&gt;Node1 -->
<g id="edge1_Node000001_Node000002" class="edge">
<title>Node2&#45;&gt;Node1</title>
<g id="a_edge1_Node000001_Node000002"><a xlink:title=" ">
<path fill="none" stroke="#63b8ff" d="M136,-165.38C136,-157.09 136,-147.92 136,-141.36"/>
<polygon fill="#63b8ff" stroke="#63b8ff" points="132.5,-165.32 136,-175.32 139.5,-165.32 132.5,-165.32"/>
</a>
</g>
</g>
<!-- Node3 -->
<g id="Node000003" class="node">
<title>Node3</title>
<g id="a_Node000003"><a xlink:href="struct_ogre_1_1_gpu_tracked_resource.html" target="_top" xlink:title=" ">
<polygon fill="white" stroke="#666666" points="136,-251.5 0,-251.5 0,-232.25 136,-232.25 136,-251.5"/>
<text text-anchor="middle" x="68" y="-238" font-family="Helvetica,sans-Serif" font-size="10.00">Ogre::GpuTrackedResource</text>
</a>
</g>
</g>
<!-- Node3&#45;&gt;Node2 -->
<g id="edge2_Node000002_Node000003" class="edge">
<title>Node3&#45;&gt;Node2</title>
<g id="a_edge2_Node000002_Node000003"><a xlink:title=" ">
<path fill="none" stroke="#63b8ff" d="M88.35,-224.94C100.22,-215.64 114.76,-204.26 124.64,-196.52"/>
<polygon fill="#63b8ff" stroke="#63b8ff" points="86.44,-221.99 80.73,-230.91 90.76,-227.5 86.44,-221.99"/>
</a>
</g>
</g>
<!-- Node4 -->
<g id="Node000004" class="node">
<title>Node4</title>
<g id="a_Node000004"><a xlink:href="class_ogre_1_1_gpu_resource.html" target="_top" xlink:title=" ">
<polygon fill="white" stroke="#666666" points="254.38,-251.5 153.62,-251.5 153.62,-232.25 254.38,-232.25 254.38,-251.5"/>
<text text-anchor="middle" x="204" y="-238" font-family="Helvetica,sans-Serif" font-size="10.00">Ogre::GpuResource</text>
</a>
</g>
</g>
<!-- Node4&#45;&gt;Node2 -->
<g id="edge3_Node000002_Node000004" class="edge">
<title>Node4&#45;&gt;Node2</title>
<g id="a_edge3_Node000002_Node000004"><a xlink:title=" ">
<path fill="none" stroke="#63b8ff" d="M183.65,-224.94C171.78,-215.64 157.24,-204.26 147.36,-196.52"/>
<polygon fill="#63b8ff" stroke="#63b8ff" points="181.24,-227.5 191.27,-230.91 185.56,-221.99 181.24,-227.5"/>
</a>
</g>
</g>
<!-- Node5 -->
<g id="Node000005" class="node">
<title>Node5</title>
<g id="a_Node000005"><a xlink:href="class_ogre_1_1_allocated_object.html" target="_top" xlink:title="Superclass for all objects that wish to use custom memory allocators when their new / delete operator...">
<polygon fill="white" stroke="#666666" points="243.5,-306.75 164.5,-306.75 164.5,-287.5 243.5,-287.5 243.5,-306.75"/>
<text text-anchor="middle" x="204" y="-293.25" font-family="Helvetica,sans-Serif" font-size="10.00">ResourceAlloc</text>
</a>
</g>
</g>
<!-- Node5&#45;&gt;Node4 -->
<g id="edge4_Node000004_Node000005" class="edge">
<title>Node5&#45;&gt;Node4</title>
<g id="a_edge4_Node000004_Node000005"><a xlink:title=" ">
<path fill="none" stroke="#63b8ff" d="M204,-275.88C204,-267.59 204,-258.42 204,-251.86"/>
<polygon fill="#63b8ff" stroke="#63b8ff" points="200.5,-275.82 204,-285.82 207.5,-275.82 200.5,-275.82"/>
</a>
</g>
</g>
<!-- Node7 -->
<g id="Node000007" class="node">
<title>Node7</title>
<g id="a_Node000007"><a xlink:href="class_ogre_1_1_d3_d11_texture_gpu_window.html" target="_top" xlink:title=" ">
<polygon fill="white" stroke="#666666" points="213.75,-19.25 58.25,-19.25 58.25,0 213.75,0 213.75,-19.25"/>
<text text-anchor="middle" x="136" y="-5.75" font-family="Helvetica,sans-Serif" font-size="10.00">Ogre::D3D11TextureGpuWindow</text>
</a>
</g>
</g>
<!-- Node6&#45;&gt;Node7 -->
<g id="edge6_Node000006_Node000007" class="edge">
<title>Node6&#45;&gt;Node7</title>
<g id="a_edge6_Node000006_Node000007"><a xlink:title=" ">
<path fill="none" stroke="#63b8ff" d="M136,-43.48C136,-34.98 136,-26.09 136,-19.7"/>
<polygon fill="#63b8ff" stroke="#63b8ff" points="132.5,-43.43 136,-53.43 139.5,-43.43 132.5,-43.43"/>
</a>
</g>
</g>
</g>
</svg>
