<?xml version="1.0" encoding="UTF-8" standalone="no"?>
<!DOCTYPE svg PUBLIC "-//W3C//DTD SVG 1.1//EN"
 "http://www.w3.org/Graphics/SVG/1.1/DTD/svg11.dtd">
<!-- Generated by graphviz version 2.44.0 ()
 -->
<!-- Title: Ogre::GL3PlusTextureGpuRenderTarget Pages: 1 -->
<svg width="364pt" height="330pt"
 viewBox="0.00 0.00 363.50 330.00" xmlns="http://www.w3.org/2000/svg" xmlns:xlink="http://www.w3.org/1999/xlink">
<g id="graph0" class="graph" transform="scale(1 1) rotate(0) translate(4 326)">
<title>Ogre::GL3PlusTextureGpuRenderTarget</title>
<!-- Node1 -->
<g id="node1" class="node">
<title>Node1</title>
<g id="a_node1"><a xlink:title=" ">
<polygon fill="#bfbfbf" stroke="black" points="98.5,-67.5 98.5,-97.5 259.5,-97.5 259.5,-67.5 98.5,-67.5"/>
<text text-anchor="start" x="106.5" y="-85.5" font-family="Helvetica,sans-Serif" font-size="10.00">Ogre::GL3PlusTextureGpuRender</text>
<text text-anchor="middle" x="179" y="-74.5" font-family="Helvetica,sans-Serif" font-size="10.00">Target</text>
</a>
</g>
</g>
<!-- Node7 -->
<g id="node7" class="node">
<title>Node7</title>
<g id="a_node7"><a xlink:href="class_ogre_1_1_g_l3_plus_texture_gpu_headless_window.html" target="_top" xlink:title=" ">
<polygon fill="none" stroke="black" points="0,-0.5 0,-30.5 172,-30.5 172,-0.5 0,-0.5"/>
<text text-anchor="start" x="8" y="-18.5" font-family="Helvetica,sans-Serif" font-size="10.00">Ogre::GL3PlusTextureGpuHeadless</text>
<text text-anchor="middle" x="86" y="-7.5" font-family="Helvetica,sans-Serif" font-size="10.00">Window</text>
</a>
</g>
</g>
<!-- Node1&#45;&gt;Node7 -->
<g id="edge6" class="edge">
<title>Node1&#45;&gt;Node7</title>
<path fill="none" stroke="midnightblue" d="M150.31,-61.45C136.01,-51.45 119.05,-39.6 106.14,-30.58"/>
<polygon fill="midnightblue" stroke="midnightblue" points="148.62,-64.54 158.82,-67.4 152.63,-58.8 148.62,-64.54"/>
</g>
<!-- Node8 -->
<g id="node8" class="node">
<title>Node8</title>
<g id="a_node8"><a xlink:href="class_ogre_1_1_g_l3_plus_texture_gpu_window.html" target="_top" xlink:title=" ">
<polygon fill="none" stroke="black" points="190.5,-6 190.5,-25 355.5,-25 355.5,-6 190.5,-6"/>
<text text-anchor="middle" x="273" y="-13" font-family="Helvetica,sans-Serif" font-size="10.00">Ogre::GL3PlusTextureGpuWindow</text>
</a>
</g>
</g>
<!-- Node1&#45;&gt;Node8 -->
<g id="edge7" class="edge">
<title>Node1&#45;&gt;Node8</title>
<path fill="none" stroke="midnightblue" d="M207.72,-61.64C225.46,-49.37 247.31,-34.26 260.7,-25.01"/>
<polygon fill="midnightblue" stroke="midnightblue" points="205.63,-58.83 199.4,-67.4 209.61,-64.59 205.63,-58.83"/>
</g>
<!-- Node2 -->
<g id="node2" class="node">
<title>Node2</title>
<g id="a_node2"><a xlink:href="class_ogre_1_1_g_l3_plus_texture_gpu.html" target="_top" xlink:title=" ">
<polygon fill="none" stroke="black" points="113.5,-134.5 113.5,-153.5 244.5,-153.5 244.5,-134.5 113.5,-134.5"/>
<text text-anchor="middle" x="179" y="-141.5" font-family="Helvetica,sans-Serif" font-size="10.00">Ogre::GL3PlusTextureGpu</text>
</a>
</g>
</g>
<!-- Node2&#45;&gt;Node1 -->
<g id="edge1" class="edge">
<title>Node2&#45;&gt;Node1</title>
<path fill="none" stroke="midnightblue" d="M179,-124.23C179,-115.59 179,-105.5 179,-97.52"/>
<polygon fill="midnightblue" stroke="midnightblue" points="175.5,-124.48 179,-134.48 182.5,-124.48 175.5,-124.48"/>
</g>
<!-- Node3 -->
<g id="node3" class="node">
<title>Node3</title>
<g id="a_node3"><a xlink:href="class_ogre_1_1_texture_gpu.html" target="_top" xlink:title=" ">
<polygon fill="none" stroke="black" points="133,-190.5 133,-209.5 225,-209.5 225,-190.5 133,-190.5"/>
<text text-anchor="middle" x="179" y="-197.5" font-family="Helvetica,sans-Serif" font-size="10.00">Ogre::TextureGpu</text>
</a>
</g>
</g>
<!-- Node3&#45;&gt;Node2 -->
<g id="edge2" class="edge">
<title>Node3&#45;&gt;Node2</title>
<path fill="none" stroke="midnightblue" d="M179,-179.8C179,-170.91 179,-160.78 179,-153.75"/>
<polygon fill="midnightblue" stroke="midnightblue" points="175.5,-180.08 179,-190.08 182.5,-180.08 175.5,-180.08"/>
</g>
<!-- Node4 -->
<g id="node4" class="node">
<title>Node4</title>
<g id="a_node4"><a xlink:href="struct_ogre_1_1_gpu_tracked_resource.html" target="_top" xlink:title=" ">
<polygon fill="none" stroke="black" points="42.5,-246.5 42.5,-265.5 179.5,-265.5 179.5,-246.5 42.5,-246.5"/>
<text text-anchor="middle" x="111" y="-253.5" font-family="Helvetica,sans-Serif" font-size="10.00">Ogre::GpuTrackedResource</text>
</a>
</g>
</g>
<!-- Node4&#45;&gt;Node3 -->
<g id="edge3" class="edge">
<title>Node4&#45;&gt;Node3</title>
<path fill="none" stroke="midnightblue" d="M129.76,-240.1C142,-230.38 157.56,-218.03 167.88,-209.83"/>
<polygon fill="midnightblue" stroke="midnightblue" points="127.58,-237.36 121.93,-246.32 131.93,-242.85 127.58,-237.36"/>
</g>
<!-- Node5 -->
<g id="node5" class="node">
<title>Node5</title>
<g id="a_node5"><a xlink:href="class_ogre_1_1_gpu_resource.html" target="_top" xlink:title=" ">
<polygon fill="none" stroke="black" points="197.5,-246.5 197.5,-265.5 298.5,-265.5 298.5,-246.5 197.5,-246.5"/>
<text text-anchor="middle" x="248" y="-253.5" font-family="Helvetica,sans-Serif" font-size="10.00">Ogre::GpuResource</text>
</a>
</g>
</g>
<!-- Node5&#45;&gt;Node3 -->
<g id="edge4" class="edge">
<title>Node5&#45;&gt;Node3</title>
<path fill="none" stroke="midnightblue" d="M228.96,-240.1C216.54,-230.38 200.76,-218.03 190.29,-209.83"/>
<polygon fill="midnightblue" stroke="midnightblue" points="226.88,-242.92 236.91,-246.32 231.2,-237.4 226.88,-242.92"/>
</g>
<!-- Node6 -->
<g id="node6" class="node">
<title>Node6</title>
<g id="a_node6"><a xlink:href="class_ogre_1_1_allocated_object.html" target="_top" xlink:title="Superclass for all objects that wish to use custom memory allocators when their new / delete operator...">
<polygon fill="none" stroke="black" points="208,-302.5 208,-321.5 288,-321.5 288,-302.5 208,-302.5"/>
<text text-anchor="middle" x="248" y="-309.5" font-family="Helvetica,sans-Serif" font-size="10.00">ResourceAlloc</text>
</a>
</g>
</g>
<!-- Node6&#45;&gt;Node5 -->
<g id="edge5" class="edge">
<title>Node6&#45;&gt;Node5</title>
<path fill="none" stroke="midnightblue" d="M248,-291.8C248,-282.91 248,-272.78 248,-265.75"/>
<polygon fill="midnightblue" stroke="midnightblue" points="244.5,-292.08 248,-302.08 251.5,-292.08 244.5,-292.08"/>
</g>
</g>
</svg>
