<?xml version="1.0" encoding="UTF-8" standalone="no"?>
<!DOCTYPE svg PUBLIC "-//W3C//DTD SVG 1.1//EN"
 "http://www.w3.org/Graphics/SVG/1.1/DTD/svg11.dtd">
<!-- Generated by graphviz version 9.0.0 (20230911.1827)
 -->
<!-- Title: Ogre::LodWorkQueueInjector Pages: 1 -->
<svg width="296pt" height="94pt"
 viewBox="0.00 0.00 295.88 93.75" xmlns="http://www.w3.org/2000/svg" xmlns:xlink="http://www.w3.org/1999/xlink">
<g id="graph0" class="graph" transform="scale(1 1) rotate(0) translate(4 89.75)">
<title>Ogre::LodWorkQueueInjector</title>
<!-- Node1 -->
<g id="Node000001" class="node">
<title>Node1</title>
<g id="a_Node000001"><a xlink:title="Injects the output of a request to the mesh in a thread safe way.">
<polygon fill="#999999" stroke="#666666" points="216.88,-19.25 75.62,-19.25 75.62,0 216.88,0 216.88,-19.25"/>
<text text-anchor="middle" x="146.25" y="-5.75" font-family="Helvetica,sans-Serif" font-size="10.00">Ogre::LodWorkQueueInjector</text>
</a>
</g>
</g>
<!-- Node2 -->
<g id="Node000002" class="node">
<title>Node2</title>
<g id="a_Node000002"><a xlink:href="class_ogre_1_1_work_queue_1_1_response_handler.html" target="_top" xlink:title="Interface definition for a handler of responses.">
<polygon fill="white" stroke="#666666" points="140.5,-85.75 0,-85.75 0,-55.25 140.5,-55.25 140.5,-85.75"/>
<text text-anchor="start" x="8" y="-72.25" font-family="Helvetica,sans-Serif" font-size="10.00">Ogre::WorkQueue::Response</text>
<text text-anchor="middle" x="70.25" y="-61" font-family="Helvetica,sans-Serif" font-size="10.00">Handler</text>
</a>
</g>
</g>
<!-- Node2&#45;&gt;Node1 -->
<g id="edge1_Node000001_Node000002" class="edge">
<title>Node2&#45;&gt;Node1</title>
<g id="a_edge1_Node000001_Node000002"><a xlink:title=" ">
<path fill="none" stroke="#63b8ff" d="M97.85,-48.12C110.48,-38.33 124.78,-27.26 134.53,-19.7"/>
<polygon fill="#63b8ff" stroke="#63b8ff" points="96,-45.13 90.23,-54.02 100.28,-50.66 96,-45.13"/>
</a>
</g>
</g>
<!-- Node3 -->
<g id="Node000003" class="node">
<title>Node3</title>
<g id="a_Node000003"><a xlink:href="class_ogre_1_1_singleton.html" target="_top" xlink:title=" ">
<polygon fill="white" stroke="#666666" points="287.88,-85.75 158.62,-85.75 158.62,-55.25 287.88,-55.25 287.88,-85.75"/>
<text text-anchor="start" x="166.62" y="-72.25" font-family="Helvetica,sans-Serif" font-size="10.00">Ogre::Singleton&lt; LodWork</text>
<text text-anchor="middle" x="223.25" y="-61" font-family="Helvetica,sans-Serif" font-size="10.00">QueueInjector &gt;</text>
</a>
</g>
</g>
<!-- Node3&#45;&gt;Node1 -->
<g id="edge2_Node000001_Node000003" class="edge">
<title>Node3&#45;&gt;Node1</title>
<g id="a_edge2_Node000001_Node000003"><a xlink:title=" ">
<path fill="none" stroke="#63b8ff" d="M195.28,-48.12C182.49,-38.33 168.01,-27.26 158.12,-19.7"/>
<polygon fill="#63b8ff" stroke="#63b8ff" points="192.94,-50.73 203.01,-54.03 197.2,-45.17 192.94,-50.73"/>
</a>
</g>
</g>
</g>
</svg>
