<?xml version="1.0" encoding="UTF-8" standalone="no"?>
<!DOCTYPE svg PUBLIC "-//W3C//DTD SVG 1.1//EN"
 "http://www.w3.org/Graphics/SVG/1.1/DTD/svg11.dtd">
<!-- Generated by graphviz version 9.0.0 (20230911.1827)
 -->
<!-- Title: Ogre::SmallVectorTemplateCommon&lt; T &gt; Pages: 1 -->
<svg width="947pt" height="360pt"
 viewBox="0.00 0.00 947.00 359.50" xmlns="http://www.w3.org/2000/svg" xmlns:xlink="http://www.w3.org/1999/xlink">
<g id="graph0" class="graph" transform="scale(1 1) rotate(0) translate(4 355.5)">
<title>Ogre::SmallVectorTemplateCommon&lt; T &gt;</title>
<!-- Node1 -->
<g id="Node000001" class="node">
<title>Node1</title>
<g id="a_Node000001"><a xlink:title=" ">
<polygon fill="#999999" stroke="#666666" points="288.5,-133.5 153.25,-133.5 153.25,-103 288.5,-103 288.5,-133.5"/>
<text text-anchor="start" x="161.25" y="-120" font-family="Helvetica,sans-Serif" font-size="10.00">Ogre::SmallVectorTemplate</text>
<text text-anchor="middle" x="220.88" y="-108.75" font-family="Helvetica,sans-Serif" font-size="10.00">Common&lt; T &gt;</text>
</a>
</g>
</g>
<!-- Node3 -->
<g id="Node000003" class="node">
<title>Node3</title>
<g id="a_Node000003"><a xlink:href="class_ogre_1_1_small_vector_template_base.html" target="_top" xlink:title=" ">
<polygon fill="white" stroke="#666666" points="460.12,-259.12 324.88,-259.12 324.88,-217.38 460.12,-217.38 460.12,-259.12"/>
<text text-anchor="start" x="332.88" y="-245.62" font-family="Helvetica,sans-Serif" font-size="10.00">Ogre::SmallVectorTemplate</text>
<text text-anchor="start" x="332.88" y="-234.38" font-family="Helvetica,sans-Serif" font-size="10.00">Base&lt; T, isPodLike&lt; T &gt;</text>
<text text-anchor="middle" x="392.5" y="-223.12" font-family="Helvetica,sans-Serif" font-size="10.00">::value &gt;</text>
</a>
</g>
</g>
<!-- Node1&#45;&gt;Node3 -->
<g id="edge3_Node000001_Node000003" class="edge">
<title>Node1&#45;&gt;Node3</title>
<g id="a_edge3_Node000001_Node000003"><a xlink:title=" ">
<path fill="none" stroke="#63b8ff" d="M252.34,-141.56C271.79,-159.02 298.21,-182.38 324.5,-199.25 334.8,-205.86 346.79,-211.73 357.77,-216.96"/>
<polygon fill="#63b8ff" stroke="#63b8ff" points="254.82,-139.09 245.04,-135.01 250.14,-144.29 254.82,-139.09"/>
</a>
</g>
</g>
<!-- Node1&#45;&gt;Node3 -->
<g id="edge21_Node000001_Node000003" class="edge">
<title>Node1&#45;&gt;Node3</title>
<g id="a_edge21_Node000001_Node000003"><a xlink:title=" ">
<path fill="none" stroke="#63b8ff" d="M238.92,-142.68C258.2,-164.57 291.2,-195.79 324.06,-216.97"/>
<polygon fill="#63b8ff" stroke="#63b8ff" points="241.63,-140.47 232.51,-135.08 236.28,-144.98 241.63,-140.47"/>
</a>
</g>
</g>
<!-- Node13 -->
<g id="Node000013" class="node">
<title>Node13</title>
<g id="a_Node000013"><a xlink:href="class_ogre_1_1_small_vector_template_base.html" target="_top" xlink:title=" ">
<polygon fill="white" stroke="#666666" points="460.12,-199.12 324.88,-199.12 324.88,-157.38 460.12,-157.38 460.12,-199.12"/>
<text text-anchor="start" x="332.88" y="-185.62" font-family="Helvetica,sans-Serif" font-size="10.00">Ogre::SmallVectorTemplate</text>
<text text-anchor="start" x="332.88" y="-174.38" font-family="Helvetica,sans-Serif" font-size="10.00">Base&lt; Edge, isPodLike&lt;</text>
<text text-anchor="middle" x="392.5" y="-163.12" font-family="Helvetica,sans-Serif" font-size="10.00"> Edge &gt;::value &gt;</text>
</a>
</g>
</g>
<!-- Node1&#45;&gt;Node13 -->
<g id="edge19_Node000001_Node000013" class="edge">
<title>Node1&#45;&gt;Node13</title>
<g id="a_edge19_Node000001_Node000013"><a xlink:title=" ">
<path fill="none" stroke="#63b8ff" d="M295.35,-137.54C313.35,-143.74 332.05,-150.59 348.12,-156.93"/>
<polygon fill="#63b8ff" stroke="#63b8ff" points="296.58,-134.27 285.99,-134.37 294.33,-140.89 296.58,-134.27"/>
</a>
</g>
</g>
<!-- Node1&#45;&gt;Node13 -->
<g id="edge22_Node000001_Node000013" class="edge">
<title>Node1&#45;&gt;Node13</title>
<g id="a_edge22_Node000001_Node000013"><a xlink:title=" ">
<path fill="none" stroke="#63b8ff" d="M261.93,-138.25C280.65,-145.72 303.44,-154.04 324.67,-161.22"/>
<polygon fill="#63b8ff" stroke="#63b8ff" points="263.4,-135.07 252.82,-134.54 260.76,-141.56 263.4,-135.07"/>
</a>
</g>
</g>
<!-- Node14 -->
<g id="Node000014" class="node">
<title>Node14</title>
<g id="a_Node000014"><a xlink:href="class_ogre_1_1_small_vector_template_base.html" target="_top" xlink:title=" ">
<polygon fill="white" stroke="#666666" points="460.5,-139.12 324.5,-139.12 324.5,-97.38 460.5,-97.38 460.5,-139.12"/>
<text text-anchor="start" x="332.5" y="-125.62" font-family="Helvetica,sans-Serif" font-size="10.00">Ogre::SmallVectorTemplate</text>
<text text-anchor="start" x="332.5" y="-114.38" font-family="Helvetica,sans-Serif" font-size="10.00">Base&lt; Triangle *, isPodLike</text>
<text text-anchor="middle" x="392.5" y="-103.12" font-family="Helvetica,sans-Serif" font-size="10.00">&lt; Triangle * &gt;::value &gt;</text>
</a>
</g>
</g>
<!-- Node1&#45;&gt;Node14 -->
<g id="edge20_Node000001_Node000014" class="edge">
<title>Node1&#45;&gt;Node14</title>
<g id="a_edge20_Node000001_Node000014"><a xlink:title=" ">
<path fill="none" stroke="#63b8ff" d="M300.43,-111.52C308.34,-111.47 316.33,-111.51 324.11,-111.63"/>
<polygon fill="#63b8ff" stroke="#63b8ff" points="300.39,-108.02 290.43,-111.62 300.46,-115.02 300.39,-108.02"/>
</a>
</g>
</g>
<!-- Node1&#45;&gt;Node14 -->
<g id="edge23_Node000001_Node000014" class="edge">
<title>Node1&#45;&gt;Node14</title>
<g id="a_edge23_Node000001_Node000014"><a xlink:title=" ">
<path fill="none" stroke="#63b8ff" d="M300.43,-124.98C308.34,-125.03 316.33,-124.99 324.11,-124.87"/>
<polygon fill="#63b8ff" stroke="#63b8ff" points="300.46,-121.48 290.43,-124.88 300.39,-128.48 300.46,-121.48"/>
</a>
</g>
</g>
<!-- Node15 -->
<g id="Node000015" class="node">
<title>Node15</title>
<g id="a_Node000015"><a xlink:href="class_ogre_1_1_small_vector_template_base.html" target="_top" xlink:title="SmallVectorTemplateBase&lt;isPodLike = false&gt; &#45; This is where we put method implementations that are des...">
<polygon fill="white" stroke="#666666" points="460.12,-79.5 324.88,-79.5 324.88,-49 460.12,-49 460.12,-79.5"/>
<text text-anchor="start" x="332.88" y="-66" font-family="Helvetica,sans-Serif" font-size="10.00">Ogre::SmallVectorTemplate</text>
<text text-anchor="middle" x="392.5" y="-54.75" font-family="Helvetica,sans-Serif" font-size="10.00">Base&lt; T, isPodLike &gt;</text>
</a>
</g>
</g>
<!-- Node1&#45;&gt;Node15 -->
<g id="edge24_Node000001_Node000015" class="edge">
<title>Node1&#45;&gt;Node15</title>
<g id="a_edge24_Node000001_Node000015"><a xlink:title=" ">
<path fill="none" stroke="#63b8ff" d="M264.96,-98.57C283.04,-92.07 304.49,-85.03 324.55,-78.95"/>
<polygon fill="#63b8ff" stroke="#63b8ff" points="263.78,-95.27 255.6,-102.01 266.19,-101.85 263.78,-95.27"/>
</a>
</g>
</g>
<!-- Node1&#45;&gt;Node15 -->
<g id="edge29_Node000001_Node000015" class="edge">
<title>Node1&#45;&gt;Node15</title>
<g id="a_edge29_Node000001_Node000015"><a xlink:title=" ">
<path fill="none" stroke="#63b8ff" d="M299.83,-100.16C320.84,-93.59 342.42,-86.29 359.36,-79.91"/>
<polygon fill="#63b8ff" stroke="#63b8ff" points="298.89,-96.79 290.36,-103.08 300.95,-103.48 298.89,-96.79"/>
</a>
</g>
</g>
<!-- Node18 -->
<g id="Node000018" class="node">
<title>Node18</title>
<g id="a_Node000018"><a xlink:href="class_ogre_1_1_small_vector_template_base_3_01_t_00_01true_01_4.html" target="_top" xlink:title="SmallVectorTemplateBase&lt;isPodLike = true&gt; &#45; This is where we put method implementations that are desi...">
<polygon fill="white" stroke="#666666" points="460.12,-30.5 324.88,-30.5 324.88,0 460.12,0 460.12,-30.5"/>
<text text-anchor="start" x="332.88" y="-17" font-family="Helvetica,sans-Serif" font-size="10.00">Ogre::SmallVectorTemplate</text>
<text text-anchor="middle" x="392.5" y="-5.75" font-family="Helvetica,sans-Serif" font-size="10.00">Base&lt; T, true &gt;</text>
</a>
</g>
</g>
<!-- Node1&#45;&gt;Node18 -->
<g id="edge30_Node000001_Node000018" class="edge">
<title>Node1&#45;&gt;Node18</title>
<g id="a_edge30_Node000001_Node000018"><a xlink:title=" ">
<path fill="none" stroke="#63b8ff" d="M240.69,-94.47C260.43,-75.05 292.91,-48.65 324.5,-31.25 324.72,-31.13 324.94,-31.01 325.15,-30.89"/>
<polygon fill="#63b8ff" stroke="#63b8ff" points="238.32,-91.89 233.86,-101.5 243.34,-96.77 238.32,-91.89"/>
</a>
</g>
</g>
<!-- Node1&#45;&gt;Node18 -->
<g id="edge31_Node000001_Node000018" class="edge">
<title>Node1&#45;&gt;Node18</title>
<g id="a_edge31_Node000001_Node000018"><a xlink:title=" ">
<path fill="none" stroke="#63b8ff" d="M256.72,-95.68C275.8,-81.02 300.41,-62.52 324.5,-49.25 337.55,-42.06 353.09,-36.12 365.91,-30.91"/>
<polygon fill="#63b8ff" stroke="#63b8ff" points="254.81,-92.73 249.02,-101.61 259.08,-98.28 254.81,-92.73"/>
</a>
</g>
</g>
<!-- Node2 -->
<g id="Node000002" class="node">
<title>Node2</title>
<g id="a_Node000002"><a xlink:href="class_ogre_1_1_small_vector_base.html" target="_top" xlink:title="SmallVectorBase &#45; This is all the non&#45;templated stuff common to all SmallVectors.">
<polygon fill="white" stroke="#666666" points="117.25,-127.88 0,-127.88 0,-108.62 117.25,-108.62 117.25,-127.88"/>
<text text-anchor="middle" x="58.62" y="-114.38" font-family="Helvetica,sans-Serif" font-size="10.00">Ogre::SmallVectorBase</text>
</a>
</g>
</g>
<!-- Node2&#45;&gt;Node1 -->
<g id="edge1_Node000001_Node000002" class="edge">
<title>Node2&#45;&gt;Node1</title>
<g id="a_edge1_Node000001_Node000002"><a xlink:title=" ">
<path fill="none" stroke="#63b8ff" d="M128.95,-111.55C136.88,-111.47 144.95,-111.48 152.84,-111.58"/>
<polygon fill="#63b8ff" stroke="#63b8ff" points="128.94,-108.05 118.99,-111.71 129.05,-115.05 128.94,-108.05"/>
</a>
</g>
</g>
<!-- Node2&#45;&gt;Node1 -->
<g id="edge2_Node000001_Node000002" class="edge">
<title>Node2&#45;&gt;Node1</title>
<g id="a_edge2_Node000001_Node000002"><a xlink:title=" ">
<path fill="none" stroke="#63b8ff" d="M128.95,-124.95C136.88,-125.03 144.95,-125.02 152.84,-124.92"/>
<polygon fill="#63b8ff" stroke="#63b8ff" points="129.05,-121.45 118.99,-124.79 128.94,-128.45 129.05,-121.45"/>
</a>
</g>
</g>
<!-- Node4 -->
<g id="Node000004" class="node">
<title>Node4</title>
<g id="a_Node000004"><a xlink:href="class_ogre_1_1_small_vector_impl.html" target="_top" xlink:title="SmallVectorImpl &#45; This class consists of common code factored out of the SmallVector class to reduce ...">
<polygon fill="white" stroke="#666666" points="632.5,-247.88 496.5,-247.88 496.5,-228.62 632.5,-228.62 632.5,-247.88"/>
<text text-anchor="middle" x="564.5" y="-234.38" font-family="Helvetica,sans-Serif" font-size="10.00">Ogre::SmallVectorImpl&lt; T &gt;</text>
</a>
</g>
</g>
<!-- Node3&#45;&gt;Node4 -->
<g id="edge4_Node000003_Node000004" class="edge">
<title>Node3&#45;&gt;Node4</title>
<g id="a_edge4_Node000003_Node000004"><a xlink:title=" ">
<path fill="none" stroke="#63b8ff" d="M471.67,-231.52C479.85,-231.47 488.11,-231.51 496.15,-231.63"/>
<polygon fill="#63b8ff" stroke="#63b8ff" points="471.68,-228.02 461.71,-231.62 471.75,-235.02 471.68,-228.02"/>
</a>
</g>
</g>
<!-- Node3&#45;&gt;Node4 -->
<g id="edge18_Node000003_Node000004" class="edge">
<title>Node3&#45;&gt;Node4</title>
<g id="a_edge18_Node000003_Node000004"><a xlink:title=" ">
<path fill="none" stroke="#63b8ff" d="M471.67,-244.98C479.85,-245.03 488.11,-244.99 496.15,-244.87"/>
<polygon fill="#63b8ff" stroke="#63b8ff" points="471.75,-241.48 461.71,-244.88 471.68,-248.48 471.75,-241.48"/>
</a>
</g>
</g>
<!-- Node5 -->
<g id="Node000005" class="node">
<title>Node5</title>
<g id="a_Node000005"><a xlink:href="class_ogre_1_1_small_vector.html" target="_top" xlink:title=" ">
<polygon fill="white" stroke="#666666" points="769.25,-351.5 668.5,-351.5 668.5,-321 769.25,-321 769.25,-351.5"/>
<text text-anchor="start" x="676.5" y="-338" font-family="Helvetica,sans-Serif" font-size="10.00">Ogre::SmallVector&lt;</text>
<text text-anchor="middle" x="718.88" y="-326.75" font-family="Helvetica,sans-Serif" font-size="10.00"> T, S &gt;</text>
</a>
</g>
</g>
<!-- Node4&#45;&gt;Node5 -->
<g id="edge5_Node000004_Node000005" class="edge">
<title>Node4&#45;&gt;Node5</title>
<g id="a_edge5_Node000004_Node000005"><a xlink:title=" ">
<path fill="none" stroke="#63b8ff" d="M596.88,-254.57C616.87,-268.2 643.61,-287.24 668.5,-302.25 679.03,-308.6 691.38,-314.85 701.09,-320.64"/>
<polygon fill="#63b8ff" stroke="#63b8ff" points="598.87,-251.7 588.62,-249.02 594.97,-257.51 598.87,-251.7"/>
</a>
</g>
</g>
<!-- Node4&#45;&gt;Node5 -->
<g id="edge9_Node000004_Node000005" class="edge">
<title>Node4&#45;&gt;Node5</title>
<g id="a_edge9_Node000004_Node000005"><a xlink:title=" ">
<path fill="none" stroke="#63b8ff" d="M580.52,-256.16C600.16,-274.03 635.92,-300.6 668.5,-320.25 668.66,-320.35 668.83,-320.45 668.99,-320.55"/>
<polygon fill="#63b8ff" stroke="#63b8ff" points="582.96,-253.65 573.34,-249.2 578.09,-258.68 582.96,-253.65"/>
</a>
</g>
</g>
<!-- Node7 -->
<g id="Node000007" class="node">
<title>Node7</title>
<g id="a_Node000007"><a xlink:href="class_ogre_1_1_small_vector.html" target="_top" xlink:title=" ">
<polygon fill="white" stroke="#666666" points="769.25,-302.5 668.5,-302.5 668.5,-272 769.25,-272 769.25,-302.5"/>
<text text-anchor="start" x="676.5" y="-289" font-family="Helvetica,sans-Serif" font-size="10.00">Ogre::SmallVector&lt;</text>
<text text-anchor="middle" x="718.88" y="-277.75" font-family="Helvetica,sans-Serif" font-size="10.00"> Edge, S &gt;</text>
</a>
</g>
</g>
<!-- Node4&#45;&gt;Node7 -->
<g id="edge7_Node000004_Node000007" class="edge">
<title>Node4&#45;&gt;Node7</title>
<g id="a_edge7_Node000004_Node000007"><a xlink:title=" ">
<path fill="none" stroke="#63b8ff" d="M627.46,-251.53C647.8,-257.77 669.55,-265.12 686.61,-271.62"/>
<polygon fill="#63b8ff" stroke="#63b8ff" points="628.7,-248.25 618.11,-248.72 626.68,-254.95 628.7,-248.25"/>
</a>
</g>
</g>
<!-- Node4&#45;&gt;Node7 -->
<g id="edge10_Node000004_Node000007" class="edge">
<title>Node4&#45;&gt;Node7</title>
<g id="a_edge10_Node000004_Node000007"><a xlink:title=" ">
<path fill="none" stroke="#63b8ff" d="M593.64,-252.68C614.48,-260.77 643.41,-270.41 668.11,-277.62"/>
<polygon fill="#63b8ff" stroke="#63b8ff" points="594.97,-249.44 584.38,-248.93 592.34,-255.93 594.97,-249.44"/>
</a>
</g>
</g>
<!-- Node8 -->
<g id="Node000008" class="node">
<title>Node8</title>
<g id="a_Node000008"><a xlink:href="class_ogre_1_1_small_vector.html" target="_top" xlink:title=" ">
<polygon fill="white" stroke="#666666" points="769.25,-253.5 668.5,-253.5 668.5,-223 769.25,-223 769.25,-253.5"/>
<text text-anchor="start" x="676.5" y="-240" font-family="Helvetica,sans-Serif" font-size="10.00">Ogre::SmallVector&lt;</text>
<text text-anchor="middle" x="718.88" y="-228.75" font-family="Helvetica,sans-Serif" font-size="10.00"> Triangle *, S &gt;</text>
</a>
</g>
</g>
<!-- Node4&#45;&gt;Node8 -->
<g id="edge8_Node000004_Node000008" class="edge">
<title>Node4&#45;&gt;Node8</title>
<g id="a_edge8_Node000004_Node000008"><a xlink:title=" ">
<path fill="none" stroke="#63b8ff" d="M644.04,-231.5C652.31,-231.52 660.54,-231.65 668.34,-231.88"/>
<polygon fill="#63b8ff" stroke="#63b8ff" points="644.28,-228 634.29,-231.54 644.3,-235 644.28,-228"/>
</a>
</g>
</g>
<!-- Node4&#45;&gt;Node8 -->
<g id="edge11_Node000004_Node000008" class="edge">
<title>Node4&#45;&gt;Node8</title>
<g id="a_edge11_Node000004_Node000008"><a xlink:title=" ">
<path fill="none" stroke="#63b8ff" d="M644.04,-245C652.31,-244.98 660.54,-244.85 668.34,-244.62"/>
<polygon fill="#63b8ff" stroke="#63b8ff" points="644.3,-241.5 634.29,-244.96 644.28,-248.5 644.3,-241.5"/>
</a>
</g>
</g>
<!-- Node9 -->
<g id="Node000009" class="node">
<title>Node9</title>
<g id="a_Node000009"><a xlink:href="class_ogre_1_1_small_vector.html" target="_top" xlink:title="SmallVector &#45; This is a &#39;vector&#39; (really, a variable&#45;sized array), optimized for the case when the ar...">
<polygon fill="white" stroke="#666666" points="769.25,-204.5 668.5,-204.5 668.5,-174 769.25,-174 769.25,-204.5"/>
<text text-anchor="start" x="676.5" y="-191" font-family="Helvetica,sans-Serif" font-size="10.00">Ogre::SmallVector&lt;</text>
<text text-anchor="middle" x="718.88" y="-179.75" font-family="Helvetica,sans-Serif" font-size="10.00"> T, N &gt;</text>
</a>
</g>
</g>
<!-- Node4&#45;&gt;Node9 -->
<g id="edge12_Node000004_Node000009" class="edge">
<title>Node4&#45;&gt;Node9</title>
<g id="a_edge12_Node000004_Node000009"><a xlink:title=" ">
<path fill="none" stroke="#63b8ff" d="M593.64,-223.82C614.48,-215.73 643.41,-206.09 668.11,-198.88"/>
<polygon fill="#63b8ff" stroke="#63b8ff" points="592.34,-220.57 584.38,-227.57 594.97,-227.06 592.34,-220.57"/>
</a>
</g>
</g>
<!-- Node4&#45;&gt;Node9 -->
<g id="edge15_Node000004_Node000009" class="edge">
<title>Node4&#45;&gt;Node9</title>
<g id="a_edge15_Node000004_Node000009"><a xlink:title=" ">
<path fill="none" stroke="#63b8ff" d="M627.46,-224.97C647.8,-218.73 669.55,-211.38 686.61,-204.88"/>
<polygon fill="#63b8ff" stroke="#63b8ff" points="626.68,-221.55 618.11,-227.78 628.7,-228.25 626.68,-221.55"/>
</a>
</g>
</g>
<!-- Node12 -->
<g id="Node000012" class="node">
<title>Node12</title>
<g id="a_Node000012"><a xlink:href="class_ogre_1_1_small_vector_3_01_t_00_010_01_4.html" target="_top" xlink:title="Specialize SmallVector at N=0.">
<polygon fill="white" stroke="#666666" points="769.25,-155.5 668.5,-155.5 668.5,-125 769.25,-125 769.25,-155.5"/>
<text text-anchor="start" x="676.5" y="-142" font-family="Helvetica,sans-Serif" font-size="10.00">Ogre::SmallVector&lt;</text>
<text text-anchor="middle" x="718.88" y="-130.75" font-family="Helvetica,sans-Serif" font-size="10.00"> T, 0 &gt;</text>
</a>
</g>
</g>
<!-- Node4&#45;&gt;Node12 -->
<g id="edge16_Node000004_Node000012" class="edge">
<title>Node4&#45;&gt;Node12</title>
<g id="a_edge16_Node000004_Node000012"><a xlink:title=" ">
<path fill="none" stroke="#63b8ff" d="M580.52,-220.34C600.16,-202.47 635.92,-175.9 668.5,-156.25 668.66,-156.15 668.83,-156.05 668.99,-155.95"/>
<polygon fill="#63b8ff" stroke="#63b8ff" points="578.09,-217.82 573.34,-227.3 582.96,-222.85 578.09,-217.82"/>
</a>
</g>
</g>
<!-- Node4&#45;&gt;Node12 -->
<g id="edge17_Node000004_Node000012" class="edge">
<title>Node4&#45;&gt;Node12</title>
<g id="a_edge17_Node000004_Node000012"><a xlink:title=" ">
<path fill="none" stroke="#63b8ff" d="M596.88,-221.93C616.87,-208.3 643.61,-189.26 668.5,-174.25 679.03,-167.9 691.38,-161.65 701.09,-155.86"/>
<polygon fill="#63b8ff" stroke="#63b8ff" points="594.97,-218.99 588.62,-227.48 598.87,-224.8 594.97,-218.99"/>
</a>
</g>
</g>
<!-- Node6 -->
<g id="Node000006" class="node">
<title>Node6</title>
<g id="a_Node000006"><a xlink:href="struct_ogre_1_1_vector_set.html" target="_top" xlink:title="VectorSet is basically a helper to use a vector as a small set container.">
<polygon fill="white" stroke="#666666" points="931.88,-345.88 812.38,-345.88 812.38,-326.62 931.88,-326.62 931.88,-345.88"/>
<text text-anchor="middle" x="872.12" y="-332.38" font-family="Helvetica,sans-Serif" font-size="10.00">Ogre::VectorSet&lt; T, S &gt;</text>
</a>
</g>
</g>
<!-- Node5&#45;&gt;Node6 -->
<g id="edge6_Node000005_Node000006" class="edge">
<title>Node5&#45;&gt;Node6</title>
<g id="a_edge6_Node000005_Node000006"><a xlink:title=" ">
<path fill="none" stroke="#63b8ff" d="M780.81,-336.25C791.1,-336.25 801.76,-336.25 812,-336.25"/>
<polygon fill="#63b8ff" stroke="#63b8ff" points="780.91,-332.75 770.91,-336.25 780.91,-339.75 780.91,-332.75"/>
</a>
</g>
</g>
<!-- Node10 -->
<g id="Node000010" class="node">
<title>Node10</title>
<g id="a_Node000010"><a xlink:href="struct_ogre_1_1_vector_set.html" target="_top" xlink:title=" ">
<polygon fill="white" stroke="#666666" points="939,-220.88 805.25,-220.88 805.25,-201.62 939,-201.62 939,-220.88"/>
<text text-anchor="middle" x="872.12" y="-207.38" font-family="Helvetica,sans-Serif" font-size="10.00">Ogre::VectorSet&lt; Edge, 8 &gt;</text>
</a>
</g>
</g>
<!-- Node9&#45;&gt;Node10 -->
<g id="edge13_Node000009_Node000010" class="edge">
<title>Node9&#45;&gt;Node10</title>
<g id="a_edge13_Node000009_Node000010"><a xlink:title=" ">
<path fill="none" stroke="#63b8ff" d="M780.56,-198.08C788.6,-199.25 796.87,-200.45 804.99,-201.63"/>
<polygon fill="#63b8ff" stroke="#63b8ff" points="781.3,-194.65 770.9,-196.67 780.29,-201.57 781.3,-194.65"/>
</a>
</g>
</g>
<!-- Node11 -->
<g id="Node000011" class="node">
<title>Node11</title>
<g id="a_Node000011"><a xlink:href="struct_ogre_1_1_vector_set.html" target="_top" xlink:title=" ">
<polygon fill="white" stroke="#666666" points="936,-183.5 808.25,-183.5 808.25,-153 936,-153 936,-183.5"/>
<text text-anchor="start" x="816.25" y="-170" font-family="Helvetica,sans-Serif" font-size="10.00">Ogre::VectorSet&lt; Triangle</text>
<text text-anchor="middle" x="872.12" y="-158.75" font-family="Helvetica,sans-Serif" font-size="10.00"> *, 7 &gt;</text>
</a>
</g>
</g>
<!-- Node9&#45;&gt;Node11 -->
<g id="edge14_Node000009_Node000011" class="edge">
<title>Node9&#45;&gt;Node11</title>
<g id="a_edge14_Node000009_Node000011"><a xlink:title=" ">
<path fill="none" stroke="#63b8ff" d="M780.61,-180.82C789.62,-179.57 798.92,-178.28 807.97,-177.02"/>
<polygon fill="#63b8ff" stroke="#63b8ff" points="780.32,-177.32 770.9,-182.17 781.29,-184.26 780.32,-177.32"/>
</a>
</g>
</g>
<!-- Node16 -->
<g id="Node000016" class="node">
<title>Node16</title>
<g id="a_Node000016"><a xlink:href="class_ogre_1_1_small_vector_impl.html" target="_top" xlink:title=" ">
<polygon fill="white" stroke="#666666" points="621.25,-104.5 507.75,-104.5 507.75,-74 621.25,-74 621.25,-104.5"/>
<text text-anchor="start" x="515.75" y="-91" font-family="Helvetica,sans-Serif" font-size="10.00">Ogre::SmallVectorImpl</text>
<text text-anchor="middle" x="564.5" y="-79.75" font-family="Helvetica,sans-Serif" font-size="10.00">&lt; Edge &gt;</text>
</a>
</g>
</g>
<!-- Node15&#45;&gt;Node16 -->
<g id="edge25_Node000015_Node000016" class="edge">
<title>Node15&#45;&gt;Node16</title>
<g id="a_edge25_Node000015_Node000016"><a xlink:title=" ">
<path fill="none" stroke="#63b8ff" d="M471.3,-68.96C483.48,-70.68 495.86,-72.61 507.43,-74.61"/>
<polygon fill="#63b8ff" stroke="#63b8ff" points="472.08,-65.54 461.7,-67.65 471.14,-72.47 472.08,-65.54"/>
</a>
</g>
</g>
<!-- Node15&#45;&gt;Node16 -->
<g id="edge27_Node000015_Node000016" class="edge">
<title>Node15&#45;&gt;Node16</title>
<g id="a_edge27_Node000015_Node000016"><a xlink:title=" ">
<path fill="none" stroke="#63b8ff" d="M467.06,-81.76C480.57,-83.88 494.47,-85.82 507.36,-87.39"/>
<polygon fill="#63b8ff" stroke="#63b8ff" points="467.76,-78.33 457.33,-80.19 466.64,-85.24 467.76,-78.33"/>
</a>
</g>
</g>
<!-- Node17 -->
<g id="Node000017" class="node">
<title>Node17</title>
<g id="a_Node000017"><a xlink:href="class_ogre_1_1_small_vector_impl.html" target="_top" xlink:title=" ">
<polygon fill="white" stroke="#666666" points="621.25,-55.5 507.75,-55.5 507.75,-25 621.25,-25 621.25,-55.5"/>
<text text-anchor="start" x="515.75" y="-42" font-family="Helvetica,sans-Serif" font-size="10.00">Ogre::SmallVectorImpl</text>
<text text-anchor="middle" x="564.5" y="-30.75" font-family="Helvetica,sans-Serif" font-size="10.00">&lt; Triangle * &gt;</text>
</a>
</g>
</g>
<!-- Node15&#45;&gt;Node17 -->
<g id="edge26_Node000015_Node000017" class="edge">
<title>Node15&#45;&gt;Node17</title>
<g id="a_edge26_Node000015_Node000017"><a xlink:title=" ">
<path fill="none" stroke="#63b8ff" d="M469.35,-46.83C482.1,-44.93 495.12,-43.2 507.26,-41.8"/>
<polygon fill="#63b8ff" stroke="#63b8ff" points="469.1,-43.32 459.75,-48.3 470.17,-50.24 469.1,-43.32"/>
</a>
</g>
</g>
<!-- Node15&#45;&gt;Node17 -->
<g id="edge28_Node000015_Node000017" class="edge">
<title>Node15&#45;&gt;Node17</title>
<g id="a_edge28_Node000015_Node000017"><a xlink:title=" ">
<path fill="none" stroke="#63b8ff" d="M471.3,-59.99C483.48,-58.35 495.86,-56.49 507.43,-54.56"/>
<polygon fill="#63b8ff" stroke="#63b8ff" points="471.16,-56.48 461.7,-61.25 472.07,-63.42 471.16,-56.48"/>
</a>
</g>
</g>
</g>
</svg>
