<?xml version="1.0" encoding="UTF-8" standalone="no"?>
<!DOCTYPE svg PUBLIC "-//W3C//DTD SVG 1.1//EN"
 "http://www.w3.org/Graphics/SVG/1.1/DTD/svg11.dtd">
<!-- Generated by graphviz version 7.0.5 (20221223.1930)
 -->
<!-- Title: Ogre::RTShader::ProgramProcessor Pages: 1 -->
<svg width="532pt" height="182pt"
 viewBox="0.00 0.00 532.00 182.00" xmlns="http://www.w3.org/2000/svg" xmlns:xlink="http://www.w3.org/1999/xlink">
<g id="graph0" class="graph" transform="scale(1 1) rotate(0) translate(4 178)">
<title>Ogre::RTShader::ProgramProcessor</title>
<!-- Node1 -->
<g id="node1" class="node">
<title>Node1</title>
<g id="a_node1"><a xlink:title="A class that provides extra processing services on CPU based programs.">
<polygon fill="#999999" stroke="#666666" points="322,-96.5 151,-96.5 151,-77.5 322,-77.5 322,-96.5"/>
<text text-anchor="middle" x="236.5" y="-84.5" font-family="Helvetica,sans-Serif" font-size="10.00">Ogre::RTShader::ProgramProcessor</text>
</a>
</g>
</g>
<!-- Node3 -->
<g id="node3" class="node">
<title>Node3</title>
<g id="a_node3"><a xlink:href="class_ogre_1_1_r_t_shader_1_1_c_g_program_processor.html" target="_top" xlink:title="CG Language program processor class.">
<polygon fill="white" stroke="#666666" points="511.5,-174 370.5,-174 370.5,-144 511.5,-144 511.5,-174"/>
<text text-anchor="start" x="378.5" y="-162" font-family="Helvetica,sans-Serif" font-size="10.00">Ogre::RTShader::CGProgram</text>
<text text-anchor="middle" x="441" y="-151" font-family="Helvetica,sans-Serif" font-size="10.00">Processor</text>
</a>
</g>
</g>
<!-- Node1&#45;&gt;Node3 -->
<g id="edge2" class="edge">
<title>Node1&#45;&gt;Node3</title>
<path fill="none" stroke="#63b8ff" d="M270.69,-101.2C294.72,-111.24 328.09,-124.69 358,-135 366.55,-137.95 375.69,-140.85 384.64,-143.57"/>
<polygon fill="#63b8ff" stroke="#63b8ff" points="272.33,-98.09 261.75,-97.44 269.61,-104.55 272.33,-98.09"/>
</g>
<!-- Node4 -->
<g id="node4" class="node">
<title>Node4</title>
<g id="a_node4"><a xlink:href="class_ogre_1_1_r_t_shader_1_1_g_l_s_l_e_s_program_processor.html" target="_top" xlink:title="GLSL ES Language program processor class.">
<polygon fill="white" stroke="#666666" points="524,-126 358,-126 358,-96 524,-96 524,-126"/>
<text text-anchor="start" x="366" y="-114" font-family="Helvetica,sans-Serif" font-size="10.00">Ogre::RTShader::GLSLESProgram</text>
<text text-anchor="middle" x="441" y="-103" font-family="Helvetica,sans-Serif" font-size="10.00">Processor</text>
</a>
</g>
</g>
<!-- Node1&#45;&gt;Node4 -->
<g id="edge3" class="edge">
<title>Node1&#45;&gt;Node4</title>
<path fill="none" stroke="#63b8ff" d="M332.9,-98.31C341.21,-99.29 349.58,-100.28 357.77,-101.25"/>
<polygon fill="#63b8ff" stroke="#63b8ff" points="333.46,-94.85 323.12,-97.15 332.64,-101.8 333.46,-94.85"/>
</g>
<!-- Node5 -->
<g id="node5" class="node">
<title>Node5</title>
<g id="a_node5"><a xlink:href="class_ogre_1_1_r_t_shader_1_1_g_l_s_l_program_processor.html" target="_top" xlink:title="GLSL Language program processor class.">
<polygon fill="white" stroke="#666666" points="517.5,-78 364.5,-78 364.5,-48 517.5,-48 517.5,-78"/>
<text text-anchor="start" x="372.5" y="-66" font-family="Helvetica,sans-Serif" font-size="10.00">Ogre::RTShader::GLSLProgram</text>
<text text-anchor="middle" x="441" y="-55" font-family="Helvetica,sans-Serif" font-size="10.00">Processor</text>
</a>
</g>
</g>
<!-- Node1&#45;&gt;Node5 -->
<g id="edge4" class="edge">
<title>Node1&#45;&gt;Node5</title>
<path fill="none" stroke="#63b8ff" d="M332.95,-75.69C343.45,-74.44 354.02,-73.19 364.23,-71.98"/>
<polygon fill="#63b8ff" stroke="#63b8ff" points="332.64,-72.2 323.12,-76.85 333.46,-79.15 332.64,-72.2"/>
</g>
<!-- Node6 -->
<g id="node6" class="node">
<title>Node6</title>
<g id="a_node6"><a xlink:href="class_ogre_1_1_r_t_shader_1_1_h_l_s_l_program_processor.html" target="_top" xlink:title="CG Language program processor class.">
<polygon fill="white" stroke="#666666" points="517.5,-30 364.5,-30 364.5,0 517.5,0 517.5,-30"/>
<text text-anchor="start" x="372.5" y="-18" font-family="Helvetica,sans-Serif" font-size="10.00">Ogre::RTShader::HLSLProgram</text>
<text text-anchor="middle" x="441" y="-7" font-family="Helvetica,sans-Serif" font-size="10.00">Processor</text>
</a>
</g>
</g>
<!-- Node1&#45;&gt;Node6 -->
<g id="edge5" class="edge">
<title>Node1&#45;&gt;Node6</title>
<path fill="none" stroke="#63b8ff" d="M270.69,-72.8C294.72,-62.76 328.09,-49.31 358,-39 366.55,-36.05 375.69,-33.15 384.64,-30.43"/>
<polygon fill="#63b8ff" stroke="#63b8ff" points="269.61,-69.45 261.75,-76.56 272.33,-75.91 269.61,-69.45"/>
</g>
<!-- Node2 -->
<g id="node2" class="node">
<title>Node2</title>
<g id="a_node2"><a xlink:href="class_ogre_1_1_allocated_object.html" target="_top" xlink:title="Superclass for all objects that wish to use custom memory allocators when their new / delete operator...">
<polygon fill="white" stroke="#666666" points="115,-96.5 0,-96.5 0,-77.5 115,-77.5 115,-96.5"/>
<text text-anchor="middle" x="57.5" y="-84.5" font-family="Helvetica,sans-Serif" font-size="10.00">RTShaderSystemAlloc</text>
</a>
</g>
</g>
<!-- Node2&#45;&gt;Node1 -->
<g id="edge1" class="edge">
<title>Node2&#45;&gt;Node1</title>
<path fill="none" stroke="#63b8ff" d="M126.74,-87C134.56,-87 142.6,-87 150.6,-87"/>
<polygon fill="#63b8ff" stroke="#63b8ff" points="126.99,-83.5 116.99,-87 126.99,-90.5 126.99,-83.5"/>
</g>
</g>
</svg>
