<?xml version="1.0" encoding="UTF-8" standalone="no"?>
<!DOCTYPE svg PUBLIC "-//W3C//DTD SVG 1.1//EN"
 "http://www.w3.org/Graphics/SVG/1.1/DTD/svg11.dtd">
<!-- Generated by graphviz version 9.0.0 (20230911.1827)
 -->
<!-- Title: Ogre::BspSceneManagerFactory Pages: 1 -->
<svg width="164pt" height="138pt"
 viewBox="0.00 0.00 164.25 137.75" xmlns="http://www.w3.org/2000/svg" xmlns:xlink="http://www.w3.org/1999/xlink">
<g id="graph0" class="graph" transform="scale(1 1) rotate(0) translate(4 133.75)">
<title>Ogre::BspSceneManagerFactory</title>
<!-- Node1 -->
<g id="Node000001" class="node">
<title>Node1</title>
<g id="a_Node000001"><a xlink:title="Factory for BspSceneManager.">
<polygon fill="#999999" stroke="#666666" points="156.25,-19.25 0,-19.25 0,0 156.25,0 156.25,-19.25"/>
<text text-anchor="middle" x="78.12" y="-5.75" font-family="Helvetica,sans-Serif" font-size="10.00">Ogre::BspSceneManagerFactory</text>
</a>
</g>
</g>
<!-- Node2 -->
<g id="Node000002" class="node">
<title>Node2</title>
<g id="a_Node000002"><a xlink:href="class_ogre_1_1_scene_manager_factory.html" target="_top" xlink:title="Class which will create instances of a given SceneManager.">
<polygon fill="white" stroke="#666666" points="147.62,-74.5 8.62,-74.5 8.62,-55.25 147.62,-55.25 147.62,-74.5"/>
<text text-anchor="middle" x="78.12" y="-61" font-family="Helvetica,sans-Serif" font-size="10.00">Ogre::SceneManagerFactory</text>
</a>
</g>
</g>
<!-- Node2&#45;&gt;Node1 -->
<g id="edge1_Node000001_Node000002" class="edge">
<title>Node2&#45;&gt;Node1</title>
<g id="a_edge1_Node000001_Node000002"><a xlink:title=" ">
<path fill="none" stroke="#63b8ff" d="M78.12,-43.63C78.12,-35.34 78.12,-26.17 78.12,-19.61"/>
<polygon fill="#63b8ff" stroke="#63b8ff" points="74.63,-43.57 78.13,-53.57 81.63,-43.57 74.63,-43.57"/>
</a>
</g>
</g>
<!-- Node3 -->
<g id="Node000003" class="node">
<title>Node3</title>
<g id="a_Node000003"><a xlink:href="class_ogre_1_1_allocated_object.html" target="_top" xlink:title="Superclass for all objects that wish to use custom memory allocators when their new / delete operator...">
<polygon fill="white" stroke="#666666" points="119.12,-129.75 37.12,-129.75 37.12,-110.5 119.12,-110.5 119.12,-129.75"/>
<text text-anchor="middle" x="78.12" y="-116.25" font-family="Helvetica,sans-Serif" font-size="10.00">SceneMgtAlloc</text>
</a>
</g>
</g>
<!-- Node3&#45;&gt;Node2 -->
<g id="edge2_Node000002_Node000003" class="edge">
<title>Node3&#45;&gt;Node2</title>
<g id="a_edge2_Node000002_Node000003"><a xlink:title=" ">
<path fill="none" stroke="#63b8ff" d="M78.12,-98.88C78.12,-90.59 78.12,-81.42 78.12,-74.86"/>
<polygon fill="#63b8ff" stroke="#63b8ff" points="74.63,-98.82 78.13,-108.82 81.63,-98.82 74.63,-98.82"/>
</a>
</g>
</g>
</g>
</svg>
