<?xml version="1.0" encoding="UTF-8" standalone="no"?>
<!DOCTYPE svg PUBLIC "-//W3C//DTD SVG 1.1//EN"
 "http://www.w3.org/Graphics/SVG/1.1/DTD/svg11.dtd">
<!-- Generated by graphviz version 7.0.5 (20221223.1930)
 -->
<!-- Title: Ogre::v1::MeshManager Pages: 1 -->
<svg width="513pt" height="137pt"
 viewBox="0.00 0.00 512.50 137.00" xmlns="http://www.w3.org/2000/svg" xmlns:xlink="http://www.w3.org/1999/xlink">
<g id="graph0" class="graph" transform="scale(1 1) rotate(0) translate(4 133)">
<title>Ogre::v1::MeshManager</title>
<!-- Node1 -->
<g id="node1" class="node">
<title>Node1</title>
<g id="a_node1"><a xlink:title="Handles the management of mesh resources.">
<polygon fill="#999999" stroke="#666666" points="320.5,-19 201.5,-19 201.5,0 320.5,0 320.5,-19"/>
<text text-anchor="middle" x="261" y="-7" font-family="Helvetica,sans-Serif" font-size="10.00">Ogre::v1::MeshManager</text>
</a>
</g>
</g>
<!-- Node2 -->
<g id="node2" class="node">
<title>Node2</title>
<g id="a_node2"><a xlink:href="class_ogre_1_1_resource_manager.html" target="_top" xlink:title="Defines a generic resource handler.">
<polygon fill="white" stroke="#666666" points="162.5,-74 41.5,-74 41.5,-55 162.5,-55 162.5,-74"/>
<text text-anchor="middle" x="102" y="-62" font-family="Helvetica,sans-Serif" font-size="10.00">Ogre::ResourceManager</text>
</a>
</g>
</g>
<!-- Node2&#45;&gt;Node1 -->
<g id="edge1" class="edge">
<title>Node2&#45;&gt;Node1</title>
<path fill="none" stroke="#63b8ff" d="M139.55,-50.98C168.63,-41.29 208.2,-28.1 234.16,-19.45"/>
<polygon fill="#63b8ff" stroke="#63b8ff" points="138.79,-47.55 130.41,-54.03 141,-54.19 138.79,-47.55"/>
</g>
<!-- Node3 -->
<g id="node3" class="node">
<title>Node3</title>
<g id="a_node3"><a xlink:href="class_ogre_1_1_script_loader.html" target="_top" xlink:title="Abstract class defining the interface used by classes which wish to perform script loading to define ...">
<polygon fill="white" stroke="#666666" points="98,-129 0,-129 0,-110 98,-110 98,-129"/>
<text text-anchor="middle" x="49" y="-117" font-family="Helvetica,sans-Serif" font-size="10.00">Ogre::ScriptLoader</text>
</a>
</g>
</g>
<!-- Node3&#45;&gt;Node2 -->
<g id="edge2" class="edge">
<title>Node3&#45;&gt;Node2</title>
<path fill="none" stroke="#63b8ff" d="M65.72,-101.78C74.78,-92.72 85.6,-81.9 93.06,-74.44"/>
<polygon fill="#63b8ff" stroke="#63b8ff" points="63.42,-99.13 58.82,-108.68 68.37,-104.08 63.42,-99.13"/>
</g>
<!-- Node4 -->
<g id="node4" class="node">
<title>Node4</title>
<g id="a_node4"><a xlink:href="class_ogre_1_1_allocated_object.html" target="_top" xlink:title="Superclass for all objects that wish to use custom memory allocators when their new / delete operator...">
<polygon fill="white" stroke="#666666" points="196,-129 116,-129 116,-110 196,-110 196,-129"/>
<text text-anchor="middle" x="156" y="-117" font-family="Helvetica,sans-Serif" font-size="10.00">ResourceAlloc</text>
</a>
</g>
</g>
<!-- Node4&#45;&gt;Node2 -->
<g id="edge3" class="edge">
<title>Node4&#45;&gt;Node2</title>
<path fill="none" stroke="#63b8ff" d="M138.96,-101.78C129.74,-92.72 118.71,-81.9 111.11,-74.44"/>
<polygon fill="#63b8ff" stroke="#63b8ff" points="136.41,-104.18 146,-108.69 141.32,-99.19 136.41,-104.18"/>
</g>
<!-- Node5 -->
<g id="node5" class="node">
<title>Node5</title>
<g id="a_node5"><a xlink:href="class_ogre_1_1_singleton.html" target="_top" xlink:title=" ">
<polygon fill="white" stroke="#666666" points="341.5,-74 180.5,-74 180.5,-55 341.5,-55 341.5,-74"/>
<text text-anchor="middle" x="261" y="-62" font-family="Helvetica,sans-Serif" font-size="10.00">Ogre::Singleton&lt; MeshManager &gt;</text>
</a>
</g>
</g>
<!-- Node5&#45;&gt;Node1 -->
<g id="edge4" class="edge">
<title>Node5&#45;&gt;Node1</title>
<path fill="none" stroke="#63b8ff" d="M261,-43.35C261,-35.1 261,-25.97 261,-19.44"/>
<polygon fill="#63b8ff" stroke="#63b8ff" points="257.5,-43.23 261,-53.23 264.5,-43.23 257.5,-43.23"/>
</g>
<!-- Node6 -->
<g id="node6" class="node">
<title>Node6</title>
<g id="a_node6"><a xlink:href="class_ogre_1_1_manual_resource_loader.html" target="_top" xlink:title="Interface describing a manual resource loader.">
<polygon fill="white" stroke="#666666" points="504.5,-74 359.5,-74 359.5,-55 504.5,-55 504.5,-74"/>
<text text-anchor="middle" x="432" y="-62" font-family="Helvetica,sans-Serif" font-size="10.00">Ogre::ManualResourceLoader</text>
</a>
</g>
</g>
<!-- Node6&#45;&gt;Node1 -->
<g id="edge5" class="edge">
<title>Node6&#45;&gt;Node1</title>
<path fill="none" stroke="#63b8ff" d="M392.03,-51.11C360.71,-41.41 317.9,-28.14 289.86,-19.45"/>
<polygon fill="#63b8ff" stroke="#63b8ff" points="390.96,-54.44 401.55,-54.06 393.03,-47.76 390.96,-54.44"/>
</g>
</g>
</svg>
