<?xml version="1.0" encoding="UTF-8" standalone="no"?>
<!DOCTYPE svg PUBLIC "-//W3C//DTD SVG 1.1//EN"
 "http://www.w3.org/Graphics/SVG/1.1/DTD/svg11.dtd">
<!-- Generated by graphviz version 7.0.5 (20221223.1930)
 -->
<!-- Title: Ogre::ArchiveManager Pages: 1 -->
<svg width="222pt" height="93pt"
 viewBox="0.00 0.00 221.50 93.00" xmlns="http://www.w3.org/2000/svg" xmlns:xlink="http://www.w3.org/1999/xlink">
<g id="graph0" class="graph" transform="scale(1 1) rotate(0) translate(4 89)">
<title>Ogre::ArchiveManager</title>
<!-- Node1 -->
<g id="node1" class="node">
<title>Node1</title>
<g id="a_node1"><a xlink:title="This class manages the available ArchiveFactory plugins.">
<polygon fill="#999999" stroke="#666666" points="176.5,-19 63.5,-19 63.5,0 176.5,0 176.5,-19"/>
<text text-anchor="middle" x="120" y="-7" font-family="Helvetica,sans-Serif" font-size="10.00">Ogre::ArchiveManager</text>
</a>
</g>
</g>
<!-- Node2 -->
<g id="node2" class="node">
<title>Node2</title>
<g id="a_node2"><a xlink:href="class_ogre_1_1_singleton.html" target="_top" xlink:title=" ">
<polygon fill="white" stroke="#666666" points="124,-85 0,-85 0,-55 124,-55 124,-85"/>
<text text-anchor="start" x="8" y="-73" font-family="Helvetica,sans-Serif" font-size="10.00">Ogre::Singleton&lt; Archive</text>
<text text-anchor="middle" x="62" y="-62" font-family="Helvetica,sans-Serif" font-size="10.00">Manager &gt;</text>
</a>
</g>
</g>
<!-- Node2&#45;&gt;Node1 -->
<g id="edge1" class="edge">
<title>Node2&#45;&gt;Node1</title>
<path fill="none" stroke="#63b8ff" d="M84.29,-46.51C93.77,-36.96 104.26,-26.38 111.4,-19.18"/>
<polygon fill="#63b8ff" stroke="#63b8ff" points="81.96,-43.9 77.4,-53.46 86.93,-48.83 81.96,-43.9"/>
</g>
<!-- Node3 -->
<g id="node3" class="node">
<title>Node3</title>
<g id="a_node3"><a xlink:href="class_ogre_1_1_allocated_object.html" target="_top" xlink:title="Superclass for all objects that wish to use custom memory allocators when their new / delete operator...">
<polygon fill="white" stroke="#666666" points="213.5,-79.5 142.5,-79.5 142.5,-60.5 213.5,-60.5 213.5,-79.5"/>
<text text-anchor="middle" x="178" y="-67.5" font-family="Helvetica,sans-Serif" font-size="10.00">ArchiveAlloc</text>
</a>
</g>
</g>
<!-- Node3&#45;&gt;Node1 -->
<g id="edge2" class="edge">
<title>Node3&#45;&gt;Node1</title>
<path fill="none" stroke="#63b8ff" d="M161.59,-52.45C150.85,-41.62 137.26,-27.91 128.59,-19.17"/>
<polygon fill="#63b8ff" stroke="#63b8ff" points="158.85,-54.66 168.38,-59.29 163.82,-49.73 158.85,-54.66"/>
</g>
</g>
</svg>
