<?xml version="1.0" encoding="UTF-8" standalone="no"?>
<!DOCTYPE svg PUBLIC "-//W3C//DTD SVG 1.1//EN"
 "http://www.w3.org/Graphics/SVG/1.1/DTD/svg11.dtd">
<!-- Generated by graphviz version 9.0.0 (20230911.1827)
 -->
<!-- Title: Ogre::ConstBufferPacked Pages: 1 -->
<svg width="635pt" height="187pt"
 viewBox="0.00 0.00 634.50 187.25" xmlns="http://www.w3.org/2000/svg" xmlns:xlink="http://www.w3.org/1999/xlink">
<g id="graph0" class="graph" transform="scale(1 1) rotate(0) translate(4 183.25)">
<title>Ogre::ConstBufferPacked</title>
<!-- Node1 -->
<g id="Node000001" class="node">
<title>Node1</title>
<g id="a_Node000001"><a xlink:title="Represents constant buffers (also known as Uniform Buffers in GL)">
<polygon fill="#999999" stroke="#666666" points="433.5,-93.25 308,-93.25 308,-74 433.5,-74 433.5,-93.25"/>
<text text-anchor="middle" x="370.75" y="-79.75" font-family="Helvetica,sans-Serif" font-size="10.00">Ogre::ConstBufferPacked</text>
</a>
</g>
</g>
<!-- Node5 -->
<g id="Node000005" class="node">
<title>Node5</title>
<g id="a_Node000005"><a xlink:href="class_ogre_1_1_d3_d11_const_buffer_packed.html" target="_top" xlink:title=" ">
<polygon fill="white" stroke="#666666" points="625.38,-179.25 470.62,-179.25 470.62,-160 625.38,-160 625.38,-179.25"/>
<text text-anchor="middle" x="548" y="-165.75" font-family="Helvetica,sans-Serif" font-size="10.00">Ogre::D3D11ConstBufferPacked</text>
</a>
</g>
</g>
<!-- Node1&#45;&gt;Node5 -->
<g id="edge4_Node000001_Node000005" class="edge">
<title>Node1&#45;&gt;Node5</title>
<g id="a_edge4_Node000001_Node000005"><a xlink:title=" ">
<path fill="none" stroke="#63b8ff" d="M392.11,-100.86C411.03,-116.03 440.55,-137.68 469.5,-150.62 477.47,-154.19 486.21,-157.15 494.85,-159.59"/>
<polygon fill="#63b8ff" stroke="#63b8ff" points="394.37,-98.18 384.42,-94.55 389.94,-103.6 394.37,-98.18"/>
</a>
</g>
</g>
<!-- Node6 -->
<g id="Node000006" class="node">
<title>Node6</title>
<g id="a_Node000006"><a xlink:href="class_ogre_1_1_g_l3_plus_const_buffer_packed.html" target="_top" xlink:title=" ">
<polygon fill="white" stroke="#666666" points="613.38,-141.88 482.62,-141.88 482.62,-111.38 613.38,-111.38 613.38,-141.88"/>
<text text-anchor="start" x="490.62" y="-128.38" font-family="Helvetica,sans-Serif" font-size="10.00">Ogre::GL3PlusConstBuffer</text>
<text text-anchor="middle" x="548" y="-117.12" font-family="Helvetica,sans-Serif" font-size="10.00">Packed</text>
</a>
</g>
</g>
<!-- Node1&#45;&gt;Node6 -->
<g id="edge5_Node000001_Node000006" class="edge">
<title>Node1&#45;&gt;Node6</title>
<g id="a_edge5_Node000001_Node000006"><a xlink:title=" ">
<path fill="none" stroke="#63b8ff" d="M423.99,-96.44C442.47,-100.98 463.49,-106.13 482.85,-110.88"/>
<polygon fill="#63b8ff" stroke="#63b8ff" points="424.85,-93.05 414.31,-94.07 423.19,-99.85 424.85,-93.05"/>
</a>
</g>
</g>
<!-- Node7 -->
<g id="Node000007" class="node">
<title>Node7</title>
<g id="a_Node000007"><a xlink:href="class_ogre_1_1_g_l_e_s2_const_buffer_packed.html" target="_top" xlink:title=" ">
<polygon fill="white" stroke="#666666" points="626.5,-93.25 469.5,-93.25 469.5,-74 626.5,-74 626.5,-93.25"/>
<text text-anchor="middle" x="548" y="-79.75" font-family="Helvetica,sans-Serif" font-size="10.00">Ogre::GLES2ConstBufferPacked</text>
</a>
</g>
</g>
<!-- Node1&#45;&gt;Node7 -->
<g id="edge6_Node000001_Node000007" class="edge">
<title>Node1&#45;&gt;Node7</title>
<g id="a_edge6_Node000001_Node000007"><a xlink:title=" ">
<path fill="none" stroke="#63b8ff" d="M444.79,-83.62C452.85,-83.62 461.08,-83.62 469.19,-83.62"/>
<polygon fill="#63b8ff" stroke="#63b8ff" points="445.05,-80.13 435.05,-83.63 445.05,-87.13 445.05,-80.13"/>
</a>
</g>
</g>
<!-- Node8 -->
<g id="Node000008" class="node">
<title>Node8</title>
<g id="a_Node000008"><a xlink:href="class_ogre_1_1_metal_const_buffer_packed.html" target="_top" xlink:title=" ">
<polygon fill="white" stroke="#666666" points="622.75,-56.25 473.25,-56.25 473.25,-37 622.75,-37 622.75,-56.25"/>
<text text-anchor="middle" x="548" y="-42.75" font-family="Helvetica,sans-Serif" font-size="10.00">Ogre::MetalConstBufferPacked</text>
</a>
</g>
</g>
<!-- Node1&#45;&gt;Node8 -->
<g id="edge7_Node000001_Node000008" class="edge">
<title>Node1&#45;&gt;Node8</title>
<g id="a_edge7_Node000001_Node000008"><a xlink:title=" ">
<path fill="none" stroke="#63b8ff" d="M430.66,-71.19C452.95,-66.48 478.02,-61.19 499.17,-56.72"/>
<polygon fill="#63b8ff" stroke="#63b8ff" points="430.18,-67.71 421.12,-73.2 431.63,-74.56 430.18,-67.71"/>
</a>
</g>
</g>
<!-- Node9 -->
<g id="Node000009" class="node">
<title>Node9</title>
<g id="a_Node000009"><a xlink:href="class_ogre_1_1_n_u_l_l_const_buffer_packed.html" target="_top" xlink:title=" ">
<polygon fill="white" stroke="#666666" points="624.25,-19.25 471.75,-19.25 471.75,0 624.25,0 624.25,-19.25"/>
<text text-anchor="middle" x="548" y="-5.75" font-family="Helvetica,sans-Serif" font-size="10.00">Ogre::NULLConstBufferPacked</text>
</a>
</g>
</g>
<!-- Node1&#45;&gt;Node9 -->
<g id="edge8_Node000001_Node000009" class="edge">
<title>Node1&#45;&gt;Node9</title>
<g id="a_edge8_Node000001_Node000009"><a xlink:title=" ">
<path fill="none" stroke="#63b8ff" d="M395.41,-67.44C414.62,-54.96 442.8,-38.11 469.5,-27.62 477.34,-24.54 485.85,-21.91 494.26,-19.68"/>
<polygon fill="#63b8ff" stroke="#63b8ff" points="393.65,-64.41 387.24,-72.85 397.51,-70.24 393.65,-64.41"/>
</a>
</g>
</g>
<!-- Node2 -->
<g id="Node000002" class="node">
<title>Node2</title>
<g id="a_Node000002"><a xlink:href="class_ogre_1_1_buffer_packed.html" target="_top" xlink:title=" ">
<polygon fill="white" stroke="#666666" points="272,-93.25 172,-93.25 172,-74 272,-74 272,-93.25"/>
<text text-anchor="middle" x="222" y="-79.75" font-family="Helvetica,sans-Serif" font-size="10.00">Ogre::BufferPacked</text>
</a>
</g>
</g>
<!-- Node2&#45;&gt;Node1 -->
<g id="edge1_Node000001_Node000002" class="edge">
<title>Node2&#45;&gt;Node1</title>
<g id="a_edge1_Node000001_Node000002"><a xlink:title=" ">
<path fill="none" stroke="#63b8ff" d="M283.66,-83.62C291.55,-83.62 299.65,-83.62 307.57,-83.62"/>
<polygon fill="#63b8ff" stroke="#63b8ff" points="283.79,-80.13 273.79,-83.63 283.79,-87.13 283.79,-80.13"/>
</a>
</g>
</g>
<!-- Node3 -->
<g id="Node000003" class="node">
<title>Node3</title>
<g id="a_Node000003"><a xlink:href="struct_ogre_1_1_gpu_tracked_resource.html" target="_top" xlink:title=" ">
<polygon fill="white" stroke="#666666" points="136,-112.25 0,-112.25 0,-93 136,-93 136,-112.25"/>
<text text-anchor="middle" x="68" y="-98.75" font-family="Helvetica,sans-Serif" font-size="10.00">Ogre::GpuTrackedResource</text>
</a>
</g>
</g>
<!-- Node3&#45;&gt;Node2 -->
<g id="edge2_Node000002_Node000003" class="edge">
<title>Node3&#45;&gt;Node2</title>
<g id="a_edge2_Node000002_Node000003"><a xlink:title=" ">
<path fill="none" stroke="#63b8ff" d="M147.35,-92.83C155.59,-91.8 163.81,-90.77 171.59,-89.8"/>
<polygon fill="#63b8ff" stroke="#63b8ff" points="147.1,-89.33 137.61,-94.05 147.97,-96.28 147.1,-89.33"/>
</a>
</g>
</g>
<!-- Node4 -->
<g id="Node000004" class="node">
<title>Node4</title>
<g id="a_Node000004"><a xlink:href="class_ogre_1_1_allocated_object.html" target="_top" xlink:title="Superclass for all objects that wish to use custom memory allocators when their new / delete operator...">
<polygon fill="white" stroke="#666666" points="116.12,-75.25 19.88,-75.25 19.88,-56 116.12,-56 116.12,-75.25"/>
<text text-anchor="middle" x="68" y="-61.75" font-family="Helvetica,sans-Serif" font-size="10.00">BufferPackedAlloc</text>
</a>
</g>
</g>
<!-- Node4&#45;&gt;Node2 -->
<g id="edge3_Node000002_Node000004" class="edge">
<title>Node4&#45;&gt;Node2</title>
<g id="a_edge3_Node000002_Node000004"><a xlink:title=" ">
<path fill="none" stroke="#63b8ff" d="M127.68,-72.57C142.21,-74.29 157.63,-76.12 171.67,-77.78"/>
<polygon fill="#63b8ff" stroke="#63b8ff" points="128.11,-69.1 117.76,-71.4 127.28,-76.05 128.11,-69.1"/>
</a>
</g>
</g>
</g>
</svg>
