<?xml version="1.0" encoding="UTF-8" standalone="no"?>
<!DOCTYPE svg PUBLIC "-//W3C//DTD SVG 1.1//EN"
 "http://www.w3.org/Graphics/SVG/1.1/DTD/svg11.dtd">
<!-- Generated by graphviz version 9.0.0 (20230911.1827)
 -->
<!-- Title: Ogre::D3D11WindowSwapChainBased Pages: 1 -->
<svg width="163pt" height="204pt"
 viewBox="0.00 0.00 162.75 204.25" xmlns="http://www.w3.org/2000/svg" xmlns:xlink="http://www.w3.org/1999/xlink">
<g id="graph0" class="graph" transform="scale(1 1) rotate(0) translate(4 200.25)">
<title>Ogre::D3D11WindowSwapChainBased</title>
<!-- Node1 -->
<g id="Node000001" class="node">
<title>Node1</title>
<g id="a_Node000001"><a xlink:title=" ">
<polygon fill="#999999" stroke="#666666" points="154.75,-30.5 0,-30.5 0,0 154.75,0 154.75,-30.5"/>
<text text-anchor="start" x="8" y="-17" font-family="Helvetica,sans-Serif" font-size="10.00">Ogre::D3D11WindowSwapChain</text>
<text text-anchor="middle" x="77.38" y="-5.75" font-family="Helvetica,sans-Serif" font-size="10.00">Based</text>
</a>
</g>
</g>
<!-- Node2 -->
<g id="Node000002" class="node">
<title>Node2</title>
<g id="a_Node000002"><a xlink:href="class_ogre_1_1_d3_d11_window.html" target="_top" xlink:title=" ">
<polygon fill="white" stroke="#666666" points="130,-85.75 24.75,-85.75 24.75,-66.5 130,-66.5 130,-85.75"/>
<text text-anchor="middle" x="77.38" y="-72.25" font-family="Helvetica,sans-Serif" font-size="10.00">Ogre::D3D11Window</text>
</a>
</g>
</g>
<!-- Node2&#45;&gt;Node1 -->
<g id="edge1_Node000001_Node000002" class="edge">
<title>Node2&#45;&gt;Node1</title>
<g id="a_edge1_Node000001_Node000002"><a xlink:title=" ">
<path fill="none" stroke="#63b8ff" d="M77.38,-54.92C77.38,-46.99 77.38,-38.06 77.38,-30.78"/>
<polygon fill="#63b8ff" stroke="#63b8ff" points="73.88,-54.67 77.38,-64.67 80.88,-54.67 73.88,-54.67"/>
</a>
</g>
</g>
<!-- Node3 -->
<g id="Node000003" class="node">
<title>Node3</title>
<g id="a_Node000003"><a xlink:href="class_ogre_1_1_window.html" target="_top" xlink:title=" ">
<polygon fill="white" stroke="#666666" points="115.38,-141 39.38,-141 39.38,-121.75 115.38,-121.75 115.38,-141"/>
<text text-anchor="middle" x="77.38" y="-127.5" font-family="Helvetica,sans-Serif" font-size="10.00">Ogre::Window</text>
</a>
</g>
</g>
<!-- Node3&#45;&gt;Node2 -->
<g id="edge2_Node000002_Node000003" class="edge">
<title>Node3&#45;&gt;Node2</title>
<g id="a_edge2_Node000002_Node000003"><a xlink:title=" ">
<path fill="none" stroke="#63b8ff" d="M77.38,-110.13C77.38,-101.84 77.38,-92.67 77.38,-86.11"/>
<polygon fill="#63b8ff" stroke="#63b8ff" points="73.88,-110.07 77.38,-120.07 80.88,-110.07 73.88,-110.07"/>
</a>
</g>
</g>
<!-- Node4 -->
<g id="Node000004" class="node">
<title>Node4</title>
<g id="a_Node000004"><a xlink:href="class_ogre_1_1_allocated_object.html" target="_top" xlink:title="Superclass for all objects that wish to use custom memory allocators when their new / delete operator...">
<polygon fill="white" stroke="#666666" points="119.88,-196.25 34.88,-196.25 34.88,-177 119.88,-177 119.88,-196.25"/>
<text text-anchor="middle" x="77.38" y="-182.75" font-family="Helvetica,sans-Serif" font-size="10.00">RenderSysAlloc</text>
</a>
</g>
</g>
<!-- Node4&#45;&gt;Node3 -->
<g id="edge3_Node000003_Node000004" class="edge">
<title>Node4&#45;&gt;Node3</title>
<g id="a_edge3_Node000003_Node000004"><a xlink:title=" ">
<path fill="none" stroke="#63b8ff" d="M77.38,-165.38C77.38,-157.09 77.38,-147.92 77.38,-141.36"/>
<polygon fill="#63b8ff" stroke="#63b8ff" points="73.88,-165.32 77.38,-175.32 80.88,-165.32 73.88,-165.32"/>
</a>
</g>
</g>
</g>
</svg>
