<?xml version="1.0" encoding="UTF-8" standalone="no"?>
<!DOCTYPE svg PUBLIC "-//W3C//DTD SVG 1.1//EN"
 "http://www.w3.org/Graphics/SVG/1.1/DTD/svg11.dtd">
<!-- Generated by graphviz version 9.0.0 (20230911.1827)
 -->
<!-- Title: Ogre::ScaleControllerFunction Pages: 1 -->
<svg width="153pt" height="149pt"
 viewBox="0.00 0.00 153.00 149.00" xmlns="http://www.w3.org/2000/svg" xmlns:xlink="http://www.w3.org/1999/xlink">
<g id="graph0" class="graph" transform="scale(1 1) rotate(0) translate(4 145)">
<title>Ogre::ScaleControllerFunction</title>
<!-- Node1 -->
<g id="Node000001" class="node">
<title>Node1</title>
<g id="a_Node000001"><a xlink:title="Predefined controller function which simply scales an input to an output value.">
<polygon fill="#999999" stroke="#666666" points="145,-19.25 0,-19.25 0,0 145,0 145,-19.25"/>
<text text-anchor="middle" x="72.5" y="-5.75" font-family="Helvetica,sans-Serif" font-size="10.00">Ogre::ScaleControllerFunction</text>
</a>
</g>
</g>
<!-- Node2 -->
<g id="Node000002" class="node">
<title>Node2</title>
<g id="a_Node000002"><a xlink:href="class_ogre_1_1_controller_function.html" target="_top" xlink:title=" ">
<polygon fill="white" stroke="#666666" points="132.62,-85.75 12.38,-85.75 12.38,-55.25 132.62,-55.25 132.62,-85.75"/>
<text text-anchor="start" x="20.38" y="-72.25" font-family="Helvetica,sans-Serif" font-size="10.00">Ogre::ControllerFunction</text>
<text text-anchor="middle" x="72.5" y="-61" font-family="Helvetica,sans-Serif" font-size="10.00">&lt; Real &gt;</text>
</a>
</g>
</g>
<!-- Node2&#45;&gt;Node1 -->
<g id="edge1_Node000001_Node000002" class="edge">
<title>Node2&#45;&gt;Node1</title>
<g id="a_edge1_Node000001_Node000002"><a xlink:title=" ">
<path fill="none" stroke="#63b8ff" d="M72.5,-43.48C72.5,-34.98 72.5,-26.09 72.5,-19.7"/>
<polygon fill="#63b8ff" stroke="#63b8ff" points="69,-43.43 72.5,-53.43 76,-43.43 69,-43.43"/>
</a>
</g>
</g>
<!-- Node3 -->
<g id="Node000003" class="node">
<title>Node3</title>
<g id="a_Node000003"><a xlink:href="class_ogre_1_1_allocated_object.html" target="_top" xlink:title="Superclass for all objects that wish to use custom memory allocators when their new / delete operator...">
<polygon fill="white" stroke="#666666" points="112,-141 33,-141 33,-121.75 112,-121.75 112,-141"/>
<text text-anchor="middle" x="72.5" y="-127.5" font-family="Helvetica,sans-Serif" font-size="10.00">ControllerAlloc</text>
</a>
</g>
</g>
<!-- Node3&#45;&gt;Node2 -->
<g id="edge2_Node000002_Node000003" class="edge">
<title>Node3&#45;&gt;Node2</title>
<g id="a_edge2_Node000002_Node000003"><a xlink:title=" ">
<path fill="none" stroke="#63b8ff" d="M72.5,-110.17C72.5,-102.24 72.5,-93.31 72.5,-86.03"/>
<polygon fill="#63b8ff" stroke="#63b8ff" points="69,-109.92 72.5,-119.92 76,-109.92 69,-109.92"/>
</a>
</g>
</g>
</g>
</svg>
