<?xml version="1.0" encoding="UTF-8" standalone="no"?>
<!DOCTYPE svg PUBLIC "-//W3C//DTD SVG 1.1//EN"
 "http://www.w3.org/Graphics/SVG/1.1/DTD/svg11.dtd">
<!-- Generated by graphviz version 9.0.0 (20230911.1827)
 -->
<!-- Title: Ogre::ShadowCameraSetup Pages: 1 -->
<svg width="395pt" height="271pt"
 viewBox="0.00 0.00 395.12 270.75" xmlns="http://www.w3.org/2000/svg" xmlns:xlink="http://www.w3.org/1999/xlink">
<g id="graph0" class="graph" transform="scale(1 1) rotate(0) translate(4 266.75)">
<title>Ogre::ShadowCameraSetup</title>
<!-- Node1 -->
<g id="Node000001" class="node">
<title>Node1</title>
<g id="a_Node000001"><a xlink:title="This class allows you to plug in new ways to define the camera setup when rendering and projecting sh...">
<polygon fill="#999999" stroke="#666666" points="309.5,-207.5 173.5,-207.5 173.5,-188.25 309.5,-188.25 309.5,-207.5"/>
<text text-anchor="middle" x="241.5" y="-194" font-family="Helvetica,sans-Serif" font-size="10.00">Ogre::ShadowCameraSetup</text>
</a>
</g>
</g>
<!-- Node3 -->
<g id="Node000003" class="node">
<title>Node3</title>
<g id="a_Node000003"><a xlink:href="class_ogre_1_1_default_shadow_camera_setup.html" target="_top" xlink:title="Implements default shadow camera setup.">
<polygon fill="white" stroke="#666666" points="234.12,-152.25 92.88,-152.25 92.88,-121.75 234.12,-121.75 234.12,-152.25"/>
<text text-anchor="start" x="100.88" y="-138.75" font-family="Helvetica,sans-Serif" font-size="10.00">Ogre::DefaultShadowCamera</text>
<text text-anchor="middle" x="163.5" y="-127.5" font-family="Helvetica,sans-Serif" font-size="10.00">Setup</text>
</a>
</g>
</g>
<!-- Node1&#45;&gt;Node3 -->
<g id="edge2_Node000001_Node000003" class="edge">
<title>Node1&#45;&gt;Node3</title>
<g id="a_edge2_Node000001_Node000003"><a xlink:title=" ">
<path fill="none" stroke="#63b8ff" d="M220.57,-181.07C208.8,-172.2 194.23,-161.19 182.75,-152.53"/>
<polygon fill="#63b8ff" stroke="#63b8ff" points="218.36,-183.79 228.45,-187.02 222.57,-178.2 218.36,-183.79"/>
</a>
</g>
</g>
<!-- Node7 -->
<g id="Node000007" class="node">
<title>Node7</title>
<g id="a_Node000007"><a xlink:href="class_ogre_1_1_plane_optimal_shadow_camera_setup.html" target="_top" xlink:title="Implements the plane optimal shadow camera algorithm.">
<polygon fill="white" stroke="#666666" points="387.12,-152.25 251.88,-152.25 251.88,-121.75 387.12,-121.75 387.12,-152.25"/>
<text text-anchor="start" x="259.88" y="-138.75" font-family="Helvetica,sans-Serif" font-size="10.00">Ogre::PlaneOptimalShadow</text>
<text text-anchor="middle" x="319.5" y="-127.5" font-family="Helvetica,sans-Serif" font-size="10.00">CameraSetup</text>
</a>
</g>
</g>
<!-- Node1&#45;&gt;Node7 -->
<g id="edge6_Node000001_Node000007" class="edge">
<title>Node1&#45;&gt;Node7</title>
<g id="a_edge6_Node000001_Node000007"><a xlink:title=" ">
<path fill="none" stroke="#63b8ff" d="M262.43,-181.07C274.2,-172.2 288.77,-161.19 300.25,-152.53"/>
<polygon fill="#63b8ff" stroke="#63b8ff" points="260.43,-178.2 254.55,-187.02 264.64,-183.79 260.43,-178.2"/>
</a>
</g>
</g>
<!-- Node2 -->
<g id="Node000002" class="node">
<title>Node2</title>
<g id="a_Node000002"><a xlink:href="class_ogre_1_1_allocated_object.html" target="_top" xlink:title="Superclass for all objects that wish to use custom memory allocators when their new / delete operator...">
<polygon fill="white" stroke="#666666" points="288.12,-262.75 194.88,-262.75 194.88,-243.5 288.12,-243.5 288.12,-262.75"/>
<text text-anchor="middle" x="241.5" y="-249.25" font-family="Helvetica,sans-Serif" font-size="10.00">ShadowDataAlloc</text>
</a>
</g>
</g>
<!-- Node2&#45;&gt;Node1 -->
<g id="edge1_Node000001_Node000002" class="edge">
<title>Node2&#45;&gt;Node1</title>
<g id="a_edge1_Node000001_Node000002"><a xlink:title=" ">
<path fill="none" stroke="#63b8ff" d="M241.5,-231.88C241.5,-223.59 241.5,-214.42 241.5,-207.86"/>
<polygon fill="#63b8ff" stroke="#63b8ff" points="238,-231.82 241.5,-241.82 245,-231.82 238,-231.82"/>
</a>
</g>
</g>
<!-- Node4 -->
<g id="Node000004" class="node">
<title>Node4</title>
<g id="a_Node000004"><a xlink:href="class_ogre_1_1_concentric_shadow_camera.html" target="_top" xlink:title="Implements the concentric shadow mapping algorithm.">
<polygon fill="white" stroke="#666666" points="157,-80.12 0,-80.12 0,-60.88 157,-60.88 157,-80.12"/>
<text text-anchor="middle" x="78.5" y="-66.62" font-family="Helvetica,sans-Serif" font-size="10.00">Ogre::ConcentricShadowCamera</text>
</a>
</g>
</g>
<!-- Node3&#45;&gt;Node4 -->
<g id="edge3_Node000003_Node000004" class="edge">
<title>Node3&#45;&gt;Node4</title>
<g id="a_edge3_Node000003_Node000004"><a xlink:title=" ">
<path fill="none" stroke="#63b8ff" d="M135.1,-114.45C119.76,-102.81 101.65,-89.07 90.13,-80.32"/>
<polygon fill="#63b8ff" stroke="#63b8ff" points="132.92,-117.19 143.01,-120.45 137.16,-111.62 132.92,-117.19"/>
</a>
</g>
</g>
<!-- Node5 -->
<g id="Node000005" class="node">
<title>Node5</title>
<g id="a_Node000005"><a xlink:href="class_ogre_1_1_focused_shadow_camera_setup.html" target="_top" xlink:title="Implements the uniform shadow mapping algorithm in focused mode.">
<polygon fill="white" stroke="#666666" points="323.5,-85.75 175.5,-85.75 175.5,-55.25 323.5,-55.25 323.5,-85.75"/>
<text text-anchor="start" x="183.5" y="-72.25" font-family="Helvetica,sans-Serif" font-size="10.00">Ogre::FocusedShadowCamera</text>
<text text-anchor="middle" x="249.5" y="-61" font-family="Helvetica,sans-Serif" font-size="10.00">Setup</text>
</a>
</g>
</g>
<!-- Node3&#45;&gt;Node5 -->
<g id="edge4_Node000003_Node000005" class="edge">
<title>Node3&#45;&gt;Node5</title>
<g id="a_edge4_Node000003_Node000005"><a xlink:title=" ">
<path fill="none" stroke="#63b8ff" d="M192.11,-114.54C204.57,-105.19 218.86,-94.48 230.06,-86.08"/>
<polygon fill="#63b8ff" stroke="#63b8ff" points="190.13,-111.66 184.23,-120.46 194.33,-117.26 190.13,-111.66"/>
</a>
</g>
</g>
<!-- Node6 -->
<g id="Node000006" class="node">
<title>Node6</title>
<g id="a_Node000006"><a xlink:href="class_ogre_1_1_p_s_s_m_shadow_camera_setup.html" target="_top" xlink:title="Parallel Split Shadow Map (PSSM) shadow camera setup.">
<polygon fill="white" stroke="#666666" points="331.75,-19.25 167.25,-19.25 167.25,0 331.75,0 331.75,-19.25"/>
<text text-anchor="middle" x="249.5" y="-5.75" font-family="Helvetica,sans-Serif" font-size="10.00">Ogre::PSSMShadowCameraSetup</text>
</a>
</g>
</g>
<!-- Node5&#45;&gt;Node6 -->
<g id="edge5_Node000005_Node000006" class="edge">
<title>Node5&#45;&gt;Node6</title>
<g id="a_edge5_Node000005_Node000006"><a xlink:title=" ">
<path fill="none" stroke="#63b8ff" d="M249.5,-43.48C249.5,-34.98 249.5,-26.09 249.5,-19.7"/>
<polygon fill="#63b8ff" stroke="#63b8ff" points="246,-43.43 249.5,-53.43 253,-43.43 246,-43.43"/>
</a>
</g>
</g>
</g>
</svg>
