<?xml version="1.0" encoding="UTF-8" standalone="no"?>
<!DOCTYPE svg PUBLIC "-//W3C//DTD SVG 1.1//EN"
 "http://www.w3.org/Graphics/SVG/1.1/DTD/svg11.dtd">
<!-- Generated by graphviz version 9.0.0 (20230911.1827)
 -->
<!-- Title: Ogre::GL3PlusContext Pages: 1 -->
<svg width="456pt" height="193pt"
 viewBox="0.00 0.00 455.75 193.25" xmlns="http://www.w3.org/2000/svg" xmlns:xlink="http://www.w3.org/1999/xlink">
<g id="graph0" class="graph" transform="scale(1 1) rotate(0) translate(4 189.25)">
<title>Ogre::GL3PlusContext</title>
<!-- Node1 -->
<g id="Node000001" class="node">
<title>Node1</title>
<g id="a_Node000001"><a xlink:title="Class that encapsulates an GL context.">
<polygon fill="#999999" stroke="#666666" points="112.75,-93.25 0,-93.25 0,-74 112.75,-74 112.75,-93.25"/>
<text text-anchor="middle" x="56.38" y="-79.75" font-family="Helvetica,sans-Serif" font-size="10.00">Ogre::GL3PlusContext</text>
</a>
</g>
</g>
<!-- Node2 -->
<g id="Node000002" class="node">
<title>Node2</title>
<g id="a_Node000002"><a xlink:href="class_ogre_1_1_cocoa_context.html" target="_top" xlink:title=" ">
<polygon fill="white" stroke="#666666" points="260,-167.25 157.75,-167.25 157.75,-148 260,-148 260,-167.25"/>
<text text-anchor="middle" x="208.88" y="-153.75" font-family="Helvetica,sans-Serif" font-size="10.00">Ogre::CocoaContext</text>
</a>
</g>
</g>
<!-- Node1&#45;&gt;Node2 -->
<g id="edge1_Node000001_Node000002" class="edge">
<title>Node1&#45;&gt;Node2</title>
<g id="a_edge1_Node000001_Node000002"><a xlink:title=" ">
<path fill="none" stroke="#63b8ff" d="M80.65,-100.19C98.6,-112.38 124.38,-128.66 148.75,-139.62 155.31,-142.57 162.48,-145.21 169.5,-147.5"/>
<polygon fill="#63b8ff" stroke="#63b8ff" points="82.77,-97.4 72.55,-94.59 78.79,-103.16 82.77,-97.4"/>
</a>
</g>
</g>
<!-- Node3 -->
<g id="Node000003" class="node">
<title>Node3</title>
<g id="a_Node000003"><a xlink:href="class_ogre_1_1_e_g_l_context.html" target="_top" xlink:title=" ">
<polygon fill="white" stroke="#666666" points="255.88,-130.25 161.88,-130.25 161.88,-111 255.88,-111 255.88,-130.25"/>
<text text-anchor="middle" x="208.88" y="-116.75" font-family="Helvetica,sans-Serif" font-size="10.00">Ogre::EGLContext</text>
</a>
</g>
</g>
<!-- Node1&#45;&gt;Node3 -->
<g id="edge2_Node000001_Node000003" class="edge">
<title>Node1&#45;&gt;Node3</title>
<g id="a_edge2_Node000001_Node000003"><a xlink:title=" ">
<path fill="none" stroke="#63b8ff" d="M109.55,-96.45C128.28,-101.06 149.14,-106.18 166.8,-110.53"/>
<polygon fill="#63b8ff" stroke="#63b8ff" points="110.52,-93.09 99.97,-94.1 108.84,-99.88 110.52,-93.09"/>
</a>
</g>
</g>
<!-- Node8 -->
<g id="Node000008" class="node">
<title>Node8</title>
<g id="a_Node000008"><a xlink:href="class_ogre_1_1_egl_p_buffer_context.html" target="_top" xlink:title=" ">
<polygon fill="white" stroke="#666666" points="269,-93.25 148.75,-93.25 148.75,-74 269,-74 269,-93.25"/>
<text text-anchor="middle" x="208.88" y="-79.75" font-family="Helvetica,sans-Serif" font-size="10.00">Ogre::EglPBufferContext</text>
</a>
</g>
</g>
<!-- Node1&#45;&gt;Node8 -->
<g id="edge7_Node000001_Node000008" class="edge">
<title>Node1&#45;&gt;Node8</title>
<g id="a_edge7_Node000001_Node000008"><a xlink:title=" ">
<path fill="none" stroke="#63b8ff" d="M124.26,-83.62C132.32,-83.62 140.51,-83.62 148.45,-83.62"/>
<polygon fill="#63b8ff" stroke="#63b8ff" points="124.5,-80.13 114.5,-83.63 124.5,-87.13 124.5,-80.13"/>
</a>
</g>
</g>
<!-- Node9 -->
<g id="Node000009" class="node">
<title>Node9</title>
<g id="a_Node000009"><a xlink:href="class_ogre_1_1_g_l_x_context.html" target="_top" xlink:title=" ">
<polygon fill="white" stroke="#666666" points="256.25,-56.25 161.5,-56.25 161.5,-37 256.25,-37 256.25,-56.25"/>
<text text-anchor="middle" x="208.88" y="-42.75" font-family="Helvetica,sans-Serif" font-size="10.00">Ogre::GLXContext</text>
</a>
</g>
</g>
<!-- Node1&#45;&gt;Node9 -->
<g id="edge8_Node000001_Node000009" class="edge">
<title>Node1&#45;&gt;Node9</title>
<g id="a_edge8_Node000001_Node000009"><a xlink:title=" ">
<path fill="none" stroke="#63b8ff" d="M109.55,-70.8C128.28,-66.19 149.14,-61.07 166.8,-56.72"/>
<polygon fill="#63b8ff" stroke="#63b8ff" points="108.84,-67.37 99.97,-73.15 110.52,-74.16 108.84,-67.37"/>
</a>
</g>
</g>
<!-- Node10 -->
<g id="Node000010" class="node">
<title>Node10</title>
<g id="a_Node000010"><a xlink:href="class_ogre_1_1_win32_context.html" target="_top" xlink:title=" ">
<polygon fill="white" stroke="#666666" points="259.62,-19.25 158.12,-19.25 158.12,0 259.62,0 259.62,-19.25"/>
<text text-anchor="middle" x="208.88" y="-5.75" font-family="Helvetica,sans-Serif" font-size="10.00">Ogre::Win32Context</text>
</a>
</g>
</g>
<!-- Node1&#45;&gt;Node10 -->
<g id="edge9_Node000001_Node000010" class="edge">
<title>Node1&#45;&gt;Node10</title>
<g id="a_edge9_Node000001_Node000010"><a xlink:title=" ">
<path fill="none" stroke="#63b8ff" d="M80.65,-67.06C98.6,-54.87 124.38,-38.59 148.75,-27.62 155.31,-24.68 162.48,-22.04 169.5,-19.75"/>
<polygon fill="#63b8ff" stroke="#63b8ff" points="78.79,-64.09 72.55,-72.66 82.77,-69.85 78.79,-64.09"/>
</a>
</g>
</g>
<!-- Node4 -->
<g id="Node000004" class="node">
<title>Node4</title>
<g id="a_Node000004"><a xlink:href="class_ogre_1_1_android_e_g_l_context.html" target="_top" xlink:title=" ">
<polygon fill="white" stroke="#666666" points="439.88,-185.25 312.88,-185.25 312.88,-166 439.88,-166 439.88,-185.25"/>
<text text-anchor="middle" x="376.38" y="-171.75" font-family="Helvetica,sans-Serif" font-size="10.00">Ogre::AndroidEGLContext</text>
</a>
</g>
</g>
<!-- Node3&#45;&gt;Node4 -->
<g id="edge3_Node000003_Node000004" class="edge">
<title>Node3&#45;&gt;Node4</title>
<g id="a_edge3_Node000003_Node000004"><a xlink:title=" ">
<path fill="none" stroke="#63b8ff" d="M257.72,-134.33C261.57,-135.69 265.37,-137.13 269,-138.62 285.73,-145.51 288.12,-151.12 305,-157.62 312.77,-160.62 321.21,-163.27 329.45,-165.55"/>
<polygon fill="#63b8ff" stroke="#63b8ff" points="258.87,-131.03 248.28,-131.18 256.65,-137.67 258.87,-131.03"/>
</a>
</g>
</g>
<!-- Node5 -->
<g id="Node000005" class="node">
<title>Node5</title>
<g id="a_Node000005"><a xlink:href="class_ogre_1_1_emscripten_e_g_l_context.html" target="_top" xlink:title=" ">
<polygon fill="white" stroke="#666666" points="447.75,-148.25 305,-148.25 305,-129 447.75,-129 447.75,-148.25"/>
<text text-anchor="middle" x="376.38" y="-134.75" font-family="Helvetica,sans-Serif" font-size="10.00">Ogre::EmscriptenEGLContext</text>
</a>
</g>
</g>
<!-- Node3&#45;&gt;Node5 -->
<g id="edge4_Node000003_Node000005" class="edge">
<title>Node3&#45;&gt;Node5</title>
<g id="a_edge4_Node000003_Node000005"><a xlink:title=" ">
<path fill="none" stroke="#63b8ff" d="M267.28,-126.87C279.36,-128.18 292.24,-129.58 304.74,-130.94"/>
<polygon fill="#63b8ff" stroke="#63b8ff" points="267.8,-123.4 257.48,-125.8 267.04,-130.36 267.8,-123.4"/>
</a>
</g>
</g>
<!-- Node6 -->
<g id="Node000006" class="node">
<title>Node6</title>
<g id="a_Node000006"><a xlink:href="class_ogre_1_1_win32_e_g_l_context.html" target="_top" xlink:title=" ">
<polygon fill="white" stroke="#666666" points="436.88,-111.25 315.88,-111.25 315.88,-92 436.88,-92 436.88,-111.25"/>
<text text-anchor="middle" x="376.38" y="-97.75" font-family="Helvetica,sans-Serif" font-size="10.00">Ogre::Win32EGLContext</text>
</a>
</g>
</g>
<!-- Node3&#45;&gt;Node6 -->
<g id="edge5_Node000003_Node000006" class="edge">
<title>Node3&#45;&gt;Node6</title>
<g id="a_edge5_Node000003_Node000006"><a xlink:title=" ">
<path fill="none" stroke="#63b8ff" d="M267.1,-114.05C282.77,-112.26 299.78,-110.3 315.58,-108.49"/>
<polygon fill="#63b8ff" stroke="#63b8ff" points="267.02,-110.54 257.48,-115.16 267.81,-117.5 267.02,-110.54"/>
</a>
</g>
</g>
<!-- Node7 -->
<g id="Node000007" class="node">
<title>Node7</title>
<g id="a_Node000007"><a xlink:href="class_ogre_1_1_x11_e_g_l_context.html" target="_top" xlink:title=" ">
<polygon fill="white" stroke="#666666" points="432,-74.25 320.75,-74.25 320.75,-55 432,-55 432,-74.25"/>
<text text-anchor="middle" x="376.38" y="-60.75" font-family="Helvetica,sans-Serif" font-size="10.00">Ogre::X11EGLContext</text>
</a>
</g>
</g>
<!-- Node3&#45;&gt;Node7 -->
<g id="edge6_Node000003_Node000007" class="edge">
<title>Node3&#45;&gt;Node7</title>
<g id="a_edge6_Node000003_Node000007"><a xlink:title=" ">
<path fill="none" stroke="#63b8ff" d="M257.91,-106.95C261.7,-105.58 265.43,-104.14 269,-102.62 285.85,-95.48 287.99,-89.39 305,-82.62 312.62,-79.59 320.9,-76.94 329.03,-74.67"/>
<polygon fill="#63b8ff" stroke="#63b8ff" points="256.99,-103.56 248.64,-110.09 259.23,-110.19 256.99,-103.56"/>
</a>
</g>
</g>
</g>
</svg>
