<?xml version="1.0" encoding="UTF-8" standalone="no"?>
<!DOCTYPE svg PUBLIC "-//W3C//DTD SVG 1.1//EN"
 "http://www.w3.org/Graphics/SVG/1.1/DTD/svg11.dtd">
<!-- Generated by graphviz version 7.0.5 (20221223.1930)
 -->
<!-- Title: Ogre::StringInterface Pages: 1 -->
<svg width="856pt" height="884pt"
 viewBox="0.00 0.00 856.00 883.50" xmlns="http://www.w3.org/2000/svg" xmlns:xlink="http://www.w3.org/1999/xlink">
<g id="graph0" class="graph" transform="scale(1 1) rotate(0) translate(4 879.5)">
<title>Ogre::StringInterface</title>
<!-- Node1 -->
<g id="node1" class="node">
<title>Node1</title>
<g id="a_node1"><a xlink:title="Class defining the common interface which classes can use to present a reflection&#45;style,...">
<polygon fill="#999999" stroke="#666666" points="106,-475.5 0,-475.5 0,-456.5 106,-456.5 106,-475.5"/>
<text text-anchor="middle" x="53" y="-463.5" font-family="Helvetica,sans-Serif" font-size="10.00">Ogre::StringInterface</text>
</a>
</g>
</g>
<!-- Node2 -->
<g id="node2" class="node">
<title>Node2</title>
<g id="a_node2"><a xlink:href="class_ogre_1_1_external_texture_source.html" target="_top" xlink:title="IMPORTANT: Plugins must override default dictionary name! Base class that texture plugins derive from...">
<polygon fill="white" stroke="#666666" points="285.5,-709.5 145.5,-709.5 145.5,-690.5 285.5,-690.5 285.5,-709.5"/>
<text text-anchor="middle" x="215.5" y="-697.5" font-family="Helvetica,sans-Serif" font-size="10.00">Ogre::ExternalTextureSource</text>
</a>
</g>
</g>
<!-- Node1&#45;&gt;Node2 -->
<g id="edge1" class="edge">
<title>Node1&#45;&gt;Node2</title>
<path fill="none" stroke="#63b8ff" d="M56.33,-487.36C62.26,-530.86 81.95,-630 142,-682 145.73,-685.23 149.94,-687.89 154.42,-690.09"/>
<polygon fill="#63b8ff" stroke="#63b8ff" points="59.81,-486.98 55.12,-477.48 52.87,-487.83 59.81,-486.98"/>
</g>
<!-- Node3 -->
<g id="node3" class="node">
<title>Node3</title>
<g id="a_node3"><a xlink:href="class_ogre_1_1_particle_affector.html" target="_top" xlink:title="Abstract class defining the interface to be implemented by particle affectors.">
<polygon fill="white" stroke="#666666" points="270,-672.5 161,-672.5 161,-653.5 270,-653.5 270,-672.5"/>
<text text-anchor="middle" x="215.5" y="-660.5" font-family="Helvetica,sans-Serif" font-size="10.00">Ogre::ParticleAffector</text>
</a>
</g>
</g>
<!-- Node1&#45;&gt;Node3 -->
<g id="edge2" class="edge">
<title>Node1&#45;&gt;Node3</title>
<path fill="none" stroke="#63b8ff" d="M69.02,-484.44C102.27,-525.25 181.13,-622.04 206.49,-653.17"/>
<polygon fill="#63b8ff" stroke="#63b8ff" points="71.94,-482.48 62.92,-476.94 66.52,-486.91 71.94,-482.48"/>
</g>
<!-- Node13 -->
<g id="node13" class="node">
<title>Node13</title>
<g id="a_node13"><a xlink:href="class_ogre_1_1_particle_emitter.html" target="_top" xlink:title="Abstract class defining the interface to be implemented by particle emitters.">
<polygon fill="white" stroke="#666666" points="268.5,-512.5 162.5,-512.5 162.5,-493.5 268.5,-493.5 268.5,-512.5"/>
<text text-anchor="middle" x="215.5" y="-500.5" font-family="Helvetica,sans-Serif" font-size="10.00">Ogre::ParticleEmitter</text>
</a>
</g>
</g>
<!-- Node1&#45;&gt;Node13 -->
<g id="edge12" class="edge">
<title>Node1&#45;&gt;Node13</title>
<path fill="none" stroke="#63b8ff" d="M108.15,-478.48C128.75,-483.23 151.92,-488.57 171.37,-493.06"/>
<polygon fill="#63b8ff" stroke="#63b8ff" points="109.02,-475.09 98.49,-476.26 107.44,-481.91 109.02,-475.09"/>
</g>
<!-- Node21 -->
<g id="node21" class="node">
<title>Node21</title>
<g id="a_node21"><a xlink:href="class_ogre_1_1_particle_system.html" target="_top" xlink:title="Class defining particle system based special effects.">
<polygon fill="white" stroke="#666666" points="269.5,-475.5 161.5,-475.5 161.5,-456.5 269.5,-456.5 269.5,-475.5"/>
<text text-anchor="middle" x="215.5" y="-463.5" font-family="Helvetica,sans-Serif" font-size="10.00">Ogre::ParticleSystem</text>
</a>
</g>
</g>
<!-- Node1&#45;&gt;Node21 -->
<g id="edge20" class="edge">
<title>Node1&#45;&gt;Node21</title>
<path fill="none" stroke="#63b8ff" d="M117.47,-466C131.88,-466 147.05,-466 161,-466"/>
<polygon fill="#63b8ff" stroke="#63b8ff" points="117.62,-462.5 107.62,-466 117.62,-469.5 117.62,-462.5"/>
</g>
<!-- Node22 -->
<g id="node22" class="node">
<title>Node22</title>
<g id="a_node22"><a xlink:href="class_ogre_1_1_particle_system_renderer.html" target="_top" xlink:title="Abstract class defining the interface required to be implemented by classes which provide rendering c...">
<polygon fill="white" stroke="#666666" points="289,-438.5 142,-438.5 142,-419.5 289,-419.5 289,-438.5"/>
<text text-anchor="middle" x="215.5" y="-426.5" font-family="Helvetica,sans-Serif" font-size="10.00">Ogre::ParticleSystemRenderer</text>
</a>
</g>
</g>
<!-- Node1&#45;&gt;Node22 -->
<g id="edge21" class="edge">
<title>Node1&#45;&gt;Node22</title>
<path fill="none" stroke="#63b8ff" d="M108.15,-453.52C128.75,-448.77 151.92,-443.43 171.37,-438.94"/>
<polygon fill="#63b8ff" stroke="#63b8ff" points="107.44,-450.09 98.49,-455.74 109.02,-456.91 107.44,-450.09"/>
</g>
<!-- Node24 -->
<g id="node24" class="node">
<title>Node24</title>
<g id="a_node24"><a xlink:href="class_ogre_1_1_resource.html" target="_top" xlink:title="Abstract class representing a loadable resource (e.g.">
<polygon fill="white" stroke="#666666" points="257,-284.5 174,-284.5 174,-265.5 257,-265.5 257,-284.5"/>
<text text-anchor="middle" x="215.5" y="-272.5" font-family="Helvetica,sans-Serif" font-size="10.00">Ogre::Resource</text>
</a>
</g>
</g>
<!-- Node1&#45;&gt;Node24 -->
<g id="edge23" class="edge">
<title>Node1&#45;&gt;Node24</title>
<path fill="none" stroke="#63b8ff" d="M69.26,-447.84C102.49,-408.3 180.47,-315.49 206.14,-284.94"/>
<polygon fill="#63b8ff" stroke="#63b8ff" points="66.91,-445.2 63.15,-455.11 72.27,-449.7 66.91,-445.2"/>
</g>
<!-- Node55 -->
<g id="node46" class="node">
<title>Node55</title>
<g id="a_node46"><a xlink:href="class_ogre_1_1v1_1_1_overlay_element.html" target="_top" xlink:title="Abstract definition of a 2D element to be displayed in an Overlay.">
<polygon fill="white" stroke="#666666" points="278,-67.5 153,-67.5 153,-48.5 278,-48.5 278,-67.5"/>
<text text-anchor="middle" x="215.5" y="-55.5" font-family="Helvetica,sans-Serif" font-size="10.00">Ogre::v1::OverlayElement</text>
</a>
</g>
</g>
<!-- Node1&#45;&gt;Node55 -->
<g id="edge45" class="edge">
<title>Node1&#45;&gt;Node55</title>
<path fill="none" stroke="#63b8ff" d="M61.97,-445.75C90.91,-372.18 189.88,-120.58 210.66,-67.77"/>
<polygon fill="#63b8ff" stroke="#63b8ff" points="58.77,-444.32 58.36,-454.91 65.28,-446.88 58.77,-444.32"/>
</g>
<!-- Node4 -->
<g id="node4" class="node">
<title>Node4</title>
<g id="a_node4"><a xlink:href="class_ogre_1_1_colour_fader_affector.html" target="_top" xlink:title="This plugin subclass of ParticleAffector allows you to alter the colour of particles.">
<polygon fill="white" stroke="#666666" points="458.5,-875.5 330.5,-875.5 330.5,-856.5 458.5,-856.5 458.5,-875.5"/>
<text text-anchor="middle" x="394.5" y="-863.5" font-family="Helvetica,sans-Serif" font-size="10.00">Ogre::ColourFaderAffector</text>
</a>
</g>
</g>
<!-- Node3&#45;&gt;Node4 -->
<g id="edge3" class="edge">
<title>Node3&#45;&gt;Node4</title>
<path fill="none" stroke="#63b8ff" d="M280.26,-674.9C283.44,-676.92 286.39,-679.28 289,-682 341.23,-736.51 272.79,-793.47 325,-848 328.06,-851.2 331.62,-853.85 335.47,-856.05"/>
<polygon fill="#63b8ff" stroke="#63b8ff" points="282,-671.85 271.5,-670.42 278.82,-678.09 282,-671.85"/>
</g>
<!-- Node5 -->
<g id="node5" class="node">
<title>Node5</title>
<g id="a_node5"><a xlink:href="class_ogre_1_1_colour_fader_affector2.html" target="_top" xlink:title="This plugin subclass of ParticleAffector allows you to alter the colour of particles.">
<polygon fill="white" stroke="#666666" points="461.5,-838.5 327.5,-838.5 327.5,-819.5 461.5,-819.5 461.5,-838.5"/>
<text text-anchor="middle" x="394.5" y="-826.5" font-family="Helvetica,sans-Serif" font-size="10.00">Ogre::ColourFaderAffector2</text>
</a>
</g>
</g>
<!-- Node3&#45;&gt;Node5 -->
<g id="edge4" class="edge">
<title>Node3&#45;&gt;Node5</title>
<path fill="none" stroke="#63b8ff" d="M280.24,-675.18C283.4,-677.14 286.36,-679.4 289,-682 331.42,-723.76 282.59,-769.23 325,-811 328.24,-814.19 331.98,-816.84 336,-819.03"/>
<polygon fill="#63b8ff" stroke="#63b8ff" points="282.1,-672.2 271.59,-670.84 278.96,-678.45 282.1,-672.2"/>
</g>
<!-- Node6 -->
<g id="node6" class="node">
<title>Node6</title>
<g id="a_node6"><a xlink:href="class_ogre_1_1_colour_image_affector.html" target="_top" xlink:title=" ">
<polygon fill="white" stroke="#666666" points="460,-801.5 329,-801.5 329,-782.5 460,-782.5 460,-801.5"/>
<text text-anchor="middle" x="394.5" y="-789.5" font-family="Helvetica,sans-Serif" font-size="10.00">Ogre::ColourImageAffector</text>
</a>
</g>
</g>
<!-- Node3&#45;&gt;Node6 -->
<g id="edge5" class="edge">
<title>Node3&#45;&gt;Node6</title>
<path fill="none" stroke="#63b8ff" d="M280.56,-675.89C283.57,-677.67 286.41,-679.7 289,-682 321.55,-710.85 292.66,-743.92 325,-773 329.13,-776.71 333.92,-779.71 339.02,-782.12"/>
<polygon fill="#63b8ff" stroke="#63b8ff" points="282.37,-672.88 271.85,-671.63 279.3,-679.17 282.37,-672.88"/>
</g>
<!-- Node7 -->
<g id="node7" class="node">
<title>Node7</title>
<g id="a_node7"><a xlink:href="class_ogre_1_1_colour_interpolator_affector.html" target="_top" xlink:title=" ">
<polygon fill="white" stroke="#666666" points="454,-764 335,-764 335,-734 454,-734 454,-764"/>
<text text-anchor="start" x="343" y="-752" font-family="Helvetica,sans-Serif" font-size="10.00">Ogre::ColourInterpolator</text>
<text text-anchor="middle" x="394.5" y="-741" font-family="Helvetica,sans-Serif" font-size="10.00">Affector</text>
</a>
</g>
</g>
<!-- Node3&#45;&gt;Node7 -->
<g id="edge6" class="edge">
<title>Node3&#45;&gt;Node7</title>
<path fill="none" stroke="#63b8ff" d="M280.41,-677.26C283.39,-678.7 286.27,-680.27 289,-682 310.05,-695.35 304.5,-710.82 325,-725 329.66,-728.23 334.8,-731.06 340.11,-733.54"/>
<polygon fill="#63b8ff" stroke="#63b8ff" points="281.95,-674.12 271.37,-673.51 279.26,-680.58 281.95,-674.12"/>
</g>
<!-- Node8 -->
<g id="node8" class="node">
<title>Node8</title>
<g id="a_node8"><a xlink:href="class_ogre_1_1_deflector_plane_affector.html" target="_top" xlink:title="This class defines a ParticleAffector which deflects particles.">
<polygon fill="white" stroke="#666666" points="464,-715.5 325,-715.5 325,-696.5 464,-696.5 464,-715.5"/>
<text text-anchor="middle" x="394.5" y="-703.5" font-family="Helvetica,sans-Serif" font-size="10.00">Ogre::DeflectorPlaneAffector</text>
</a>
</g>
</g>
<!-- Node3&#45;&gt;Node8 -->
<g id="edge7" class="edge">
<title>Node3&#45;&gt;Node8</title>
<path fill="none" stroke="#63b8ff" d="M268.64,-675.67C295.35,-682.16 327.42,-689.95 352.36,-696.01"/>
<polygon fill="#63b8ff" stroke="#63b8ff" points="269.57,-672.29 259.02,-673.33 267.91,-679.09 269.57,-672.29"/>
</g>
<!-- Node9 -->
<g id="node9" class="node">
<title>Node9</title>
<g id="a_node9"><a xlink:href="class_ogre_1_1_direction_randomiser_affector.html" target="_top" xlink:title="This class defines a ParticleAffector which applies randomness to the movement of the particles.">
<polygon fill="white" stroke="#666666" points="460.5,-678 328.5,-678 328.5,-648 460.5,-648 460.5,-678"/>
<text text-anchor="start" x="336.5" y="-666" font-family="Helvetica,sans-Serif" font-size="10.00">Ogre::DirectionRandomiser</text>
<text text-anchor="middle" x="394.5" y="-655" font-family="Helvetica,sans-Serif" font-size="10.00">Affector</text>
</a>
</g>
</g>
<!-- Node3&#45;&gt;Node9 -->
<g id="edge8" class="edge">
<title>Node3&#45;&gt;Node9</title>
<path fill="none" stroke="#63b8ff" d="M281.51,-663C296.74,-663 312.98,-663 328.22,-663"/>
<polygon fill="#63b8ff" stroke="#63b8ff" points="281.6,-659.5 271.6,-663 281.6,-666.5 281.6,-659.5"/>
</g>
<!-- Node10 -->
<g id="node10" class="node">
<title>Node10</title>
<g id="a_node10"><a xlink:href="class_ogre_1_1_linear_force_affector.html" target="_top" xlink:title="This class defines a ParticleAffector which applies a linear force to particles in a system.">
<polygon fill="white" stroke="#666666" points="458.5,-629.5 330.5,-629.5 330.5,-610.5 458.5,-610.5 458.5,-629.5"/>
<text text-anchor="middle" x="394.5" y="-617.5" font-family="Helvetica,sans-Serif" font-size="10.00">Ogre::LinearForceAffector</text>
</a>
</g>
</g>
<!-- Node3&#45;&gt;Node10 -->
<g id="edge9" class="edge">
<title>Node3&#45;&gt;Node10</title>
<path fill="none" stroke="#63b8ff" d="M268.64,-650.33C295.35,-643.84 327.42,-636.05 352.36,-629.99"/>
<polygon fill="#63b8ff" stroke="#63b8ff" points="267.91,-646.91 259.02,-652.67 269.57,-653.71 267.91,-646.91"/>
</g>
<!-- Node11 -->
<g id="node11" class="node">
<title>Node11</title>
<g id="a_node11"><a xlink:href="class_ogre_1_1_rotation_affector.html" target="_top" xlink:title="This plugin subclass of ParticleAffector allows you to alter the rotation of particles.">
<polygon fill="white" stroke="#666666" points="450.5,-592.5 338.5,-592.5 338.5,-573.5 450.5,-573.5 450.5,-592.5"/>
<text text-anchor="middle" x="394.5" y="-580.5" font-family="Helvetica,sans-Serif" font-size="10.00">Ogre::RotationAffector</text>
</a>
</g>
</g>
<!-- Node3&#45;&gt;Node11 -->
<g id="edge10" class="edge">
<title>Node3&#45;&gt;Node11</title>
<path fill="none" stroke="#63b8ff" d="M240.96,-646.98C262.4,-633.5 294.79,-614.47 325,-602 333.33,-598.56 342.48,-595.54 351.3,-592.98"/>
<polygon fill="#63b8ff" stroke="#63b8ff" points="239.19,-643.96 232.64,-652.29 242.95,-649.86 239.19,-643.96"/>
</g>
<!-- Node12 -->
<g id="node12" class="node">
<title>Node12</title>
<g id="a_node12"><a xlink:href="class_ogre_1_1_scale_affector.html" target="_top" xlink:title="This plugin subclass of ParticleAffector allows you to alter the scale of particles.">
<polygon fill="white" stroke="#666666" points="445,-555.5 344,-555.5 344,-536.5 445,-536.5 445,-555.5"/>
<text text-anchor="middle" x="394.5" y="-543.5" font-family="Helvetica,sans-Serif" font-size="10.00">Ogre::ScaleAffector</text>
</a>
</g>
</g>
<!-- Node3&#45;&gt;Node12 -->
<g id="edge11" class="edge">
<title>Node3&#45;&gt;Node12</title>
<path fill="none" stroke="#63b8ff" d="M231.99,-644.53C251.49,-622.45 287.05,-585.86 325,-565 331.6,-561.37 338.94,-558.4 346.3,-555.97"/>
<polygon fill="#63b8ff" stroke="#63b8ff" points="229.53,-642.02 225.65,-651.87 234.83,-646.6 229.53,-642.02"/>
</g>
<!-- Node14 -->
<g id="node14" class="node">
<title>Node14</title>
<g id="a_node14"><a xlink:href="class_ogre_1_1_area_emitter.html" target="_top" xlink:title="Particle emitter which emits particles randomly from points inside an area (box, sphere,...">
<polygon fill="white" stroke="#666666" points="441,-518.5 348,-518.5 348,-499.5 441,-499.5 441,-518.5"/>
<text text-anchor="middle" x="394.5" y="-506.5" font-family="Helvetica,sans-Serif" font-size="10.00">Ogre::AreaEmitter</text>
</a>
</g>
</g>
<!-- Node13&#45;&gt;Node14 -->
<g id="edge13" class="edge">
<title>Node13&#45;&gt;Node14</title>
<path fill="none" stroke="#63b8ff" d="M280.1,-505.16C302.46,-505.91 327.13,-506.75 347.73,-507.45"/>
<polygon fill="#63b8ff" stroke="#63b8ff" points="280.27,-501.66 270.16,-504.82 280.04,-508.66 280.27,-501.66"/>
</g>
<!-- Node20 -->
<g id="node20" class="node">
<title>Node20</title>
<g id="a_node20"><a xlink:href="class_ogre_1_1_point_emitter.html" target="_top" xlink:title="Particle emitter which emits particles from a single point.">
<polygon fill="white" stroke="#666666" points="442,-481.5 347,-481.5 347,-462.5 442,-462.5 442,-481.5"/>
<text text-anchor="middle" x="394.5" y="-469.5" font-family="Helvetica,sans-Serif" font-size="10.00">Ogre::PointEmitter</text>
</a>
</g>
</g>
<!-- Node13&#45;&gt;Node20 -->
<g id="edge19" class="edge">
<title>Node13&#45;&gt;Node20</title>
<path fill="none" stroke="#63b8ff" d="M279.91,-491.89C301.89,-488.04 326.13,-483.8 346.55,-480.22"/>
<polygon fill="#63b8ff" stroke="#63b8ff" points="279.39,-488.43 270.14,-493.61 280.59,-495.33 279.39,-488.43"/>
</g>
<!-- Node15 -->
<g id="node15" class="node">
<title>Node15</title>
<g id="a_node15"><a xlink:href="class_ogre_1_1_box_emitter.html" target="_top" xlink:title="Particle emitter which emits particles randomly from points inside a box.">
<polygon fill="white" stroke="#666666" points="619.5,-573.5 530.5,-573.5 530.5,-554.5 619.5,-554.5 619.5,-573.5"/>
<text text-anchor="middle" x="575" y="-561.5" font-family="Helvetica,sans-Serif" font-size="10.00">Ogre::BoxEmitter</text>
</a>
</g>
</g>
<!-- Node14&#45;&gt;Node15 -->
<g id="edge14" class="edge">
<title>Node14&#45;&gt;Node15</title>
<path fill="none" stroke="#63b8ff" d="M447.35,-522.23C453.02,-524.02 458.67,-525.95 464,-528 480.7,-534.42 483.2,-539.85 500,-546 509.56,-549.5 520.06,-552.53 530.08,-555.04"/>
<polygon fill="#63b8ff" stroke="#63b8ff" points="448.52,-518.93 437.94,-519.41 446.51,-525.63 448.52,-518.93"/>
</g>
<!-- Node16 -->
<g id="node16" class="node">
<title>Node16</title>
<g id="a_node16"><a xlink:href="class_ogre_1_1_cylinder_emitter.html" target="_top" xlink:title="Particle emitter which emits particles randomly from points inside a cylinder.">
<polygon fill="white" stroke="#666666" points="628.5,-536.5 521.5,-536.5 521.5,-517.5 628.5,-517.5 628.5,-536.5"/>
<text text-anchor="middle" x="575" y="-524.5" font-family="Helvetica,sans-Serif" font-size="10.00">Ogre::CylinderEmitter</text>
</a>
</g>
</g>
<!-- Node14&#45;&gt;Node16 -->
<g id="edge15" class="edge">
<title>Node14&#45;&gt;Node16</title>
<path fill="none" stroke="#63b8ff" d="M452.67,-514.76C474.67,-516.98 499.67,-519.5 521.24,-521.68"/>
<polygon fill="#63b8ff" stroke="#63b8ff" points="453.27,-511.31 442.97,-513.79 452.57,-518.27 453.27,-511.31"/>
</g>
<!-- Node17 -->
<g id="node17" class="node">
<title>Node17</title>
<g id="a_node17"><a xlink:href="class_ogre_1_1_ellipsoid_emitter.html" target="_top" xlink:title="Particle emitter which emits particles randomly from points inside an ellipsoid.">
<polygon fill="white" stroke="#666666" points="629.5,-499.5 520.5,-499.5 520.5,-480.5 629.5,-480.5 629.5,-499.5"/>
<text text-anchor="middle" x="575" y="-487.5" font-family="Helvetica,sans-Serif" font-size="10.00">Ogre::EllipsoidEmitter</text>
</a>
</g>
</g>
<!-- Node14&#45;&gt;Node17 -->
<g id="edge16" class="edge">
<title>Node14&#45;&gt;Node17</title>
<path fill="none" stroke="#63b8ff" d="M452.82,-502.9C474.45,-500.6 498.97,-497.99 520.27,-495.72"/>
<polygon fill="#63b8ff" stroke="#63b8ff" points="452.55,-499.41 442.97,-503.95 453.29,-506.37 452.55,-499.41"/>
</g>
<!-- Node19 -->
<g id="node19" class="node">
<title>Node19</title>
<g id="a_node19"><a xlink:href="class_ogre_1_1_ring_emitter.html" target="_top" xlink:title="Particle emitter which emits particles randomly from points inside a ring (e.g.">
<polygon fill="white" stroke="#666666" points="621,-462.5 529,-462.5 529,-443.5 621,-443.5 621,-462.5"/>
<text text-anchor="middle" x="575" y="-450.5" font-family="Helvetica,sans-Serif" font-size="10.00">Ogre::RingEmitter</text>
</a>
</g>
</g>
<!-- Node14&#45;&gt;Node19 -->
<g id="edge18" class="edge">
<title>Node14&#45;&gt;Node19</title>
<path fill="none" stroke="#63b8ff" d="M450.36,-495.79C455.01,-494.3 459.62,-492.71 464,-491 480.86,-484.44 483.12,-478.52 500,-472 509.16,-468.46 519.2,-465.39 528.86,-462.79"/>
<polygon fill="#63b8ff" stroke="#63b8ff" points="449.49,-492.39 440.91,-498.61 451.5,-499.1 449.49,-492.39"/>
</g>
<!-- Node18 -->
<g id="node18" class="node">
<title>Node18</title>
<g id="a_node18"><a xlink:href="class_ogre_1_1_hollow_ellipsoid_emitter.html" target="_top" xlink:title="Particle emitter which emits particles randomly from points inside a hollow ellipsoid.">
<polygon fill="white" stroke="#666666" points="836.5,-499.5 697.5,-499.5 697.5,-480.5 836.5,-480.5 836.5,-499.5"/>
<text text-anchor="middle" x="767" y="-487.5" font-family="Helvetica,sans-Serif" font-size="10.00">Ogre::HollowEllipsoidEmitter</text>
</a>
</g>
</g>
<!-- Node17&#45;&gt;Node18 -->
<g id="edge17" class="edge">
<title>Node17&#45;&gt;Node18</title>
<path fill="none" stroke="#63b8ff" d="M641.27,-490C659.36,-490 679.05,-490 697.33,-490"/>
<polygon fill="#63b8ff" stroke="#63b8ff" points="641.45,-486.5 631.45,-490 641.45,-493.5 641.45,-486.5"/>
</g>
<!-- Node23 -->
<g id="node23" class="node">
<title>Node23</title>
<g id="a_node23"><a xlink:href="class_ogre_1_1v1_1_1_billboard_particle_renderer.html" target="_top" xlink:title="Specialisation of ParticleSystemRenderer to render particles using a BillboardSet.">
<polygon fill="white" stroke="#666666" points="458.5,-444 330.5,-444 330.5,-414 458.5,-414 458.5,-444"/>
<text text-anchor="start" x="338.5" y="-432" font-family="Helvetica,sans-Serif" font-size="10.00">Ogre::v1::BillboardParticle</text>
<text text-anchor="middle" x="394.5" y="-421" font-family="Helvetica,sans-Serif" font-size="10.00">Renderer</text>
</a>
</g>
</g>
<!-- Node22&#45;&gt;Node23 -->
<g id="edge22" class="edge">
<title>Node22&#45;&gt;Node23</title>
<path fill="none" stroke="#63b8ff" d="M300.45,-429C310.42,-429 320.46,-429 330.08,-429"/>
<polygon fill="#63b8ff" stroke="#63b8ff" points="300.77,-425.5 290.77,-429 300.77,-432.5 300.77,-425.5"/>
</g>
<!-- Node25 -->
<g id="node25" class="node">
<title>Node25</title>
<g id="a_node25"><a xlink:href="class_ogre_1_1_bsp_level.html" target="_top" xlink:title="Holds all the data associated with a Binary Space Parition (BSP) based indoor level.">
<polygon fill="white" stroke="#666666" points="436,-395.5 353,-395.5 353,-376.5 436,-376.5 436,-395.5"/>
<text text-anchor="middle" x="394.5" y="-383.5" font-family="Helvetica,sans-Serif" font-size="10.00">Ogre::BspLevel</text>
</a>
</g>
</g>
<!-- Node24&#45;&gt;Node25 -->
<g id="edge24" class="edge">
<title>Node24&#45;&gt;Node25</title>
<path fill="none" stroke="#63b8ff" d="M232.71,-293.18C252.48,-314.24 287.87,-348.54 325,-368 333.49,-372.45 343.17,-375.86 352.52,-378.45"/>
<polygon fill="#63b8ff" stroke="#63b8ff" points="235.37,-290.9 226.03,-285.91 230.22,-295.64 235.37,-290.9"/>
</g>
<!-- Node26 -->
<g id="node26" class="node">
<title>Node26</title>
<g id="a_node26"><a xlink:href="class_ogre_1_1_font.html" target="_top" xlink:title="Class representing a font in the system.">
<polygon fill="white" stroke="#666666" points="425.5,-358.5 363.5,-358.5 363.5,-339.5 425.5,-339.5 425.5,-358.5"/>
<text text-anchor="middle" x="394.5" y="-346.5" font-family="Helvetica,sans-Serif" font-size="10.00">Ogre::Font</text>
</a>
</g>
</g>
<!-- Node24&#45;&gt;Node26 -->
<g id="edge25" class="edge">
<title>Node24&#45;&gt;Node26</title>
<path fill="none" stroke="#63b8ff" d="M242.58,-290.53C264.11,-302.84 295.75,-319.77 325,-331 337.17,-335.67 351,-339.56 363.04,-342.52"/>
<polygon fill="#63b8ff" stroke="#63b8ff" points="244.6,-287.66 234.19,-285.67 241.09,-293.71 244.6,-287.66"/>
</g>
<!-- Node27 -->
<g id="node27" class="node">
<title>Node27</title>
<g id="a_node27"><a xlink:href="class_ogre_1_1_gpu_program.html" target="_top" xlink:title="Defines a program which runs on the GPU such as a vertex or fragment program.">
<polygon fill="white" stroke="#666666" points="443,-321.5 346,-321.5 346,-302.5 443,-302.5 443,-321.5"/>
<text text-anchor="middle" x="394.5" y="-309.5" font-family="Helvetica,sans-Serif" font-size="10.00">Ogre::GpuProgram</text>
</a>
</g>
</g>
<!-- Node24&#45;&gt;Node27 -->
<g id="edge26" class="edge">
<title>Node24&#45;&gt;Node27</title>
<path fill="none" stroke="#63b8ff" d="M268.37,-285.84C292.87,-290.96 321.93,-297.04 345.87,-302.04"/>
<polygon fill="#63b8ff" stroke="#63b8ff" points="269.09,-282.42 258.59,-283.8 267.66,-289.27 269.09,-282.42"/>
</g>
<!-- Node37 -->
<g id="node34" class="node">
<title>Node37</title>
<g id="a_node34"><a xlink:href="class_ogre_1_1_material.html" target="_top" xlink:title="Class encapsulates rendering properties of an object.">
<polygon fill="white" stroke="#666666" points="433,-284.5 356,-284.5 356,-265.5 433,-265.5 433,-284.5"/>
<text text-anchor="middle" x="394.5" y="-272.5" font-family="Helvetica,sans-Serif" font-size="10.00">Ogre::Material</text>
</a>
</g>
</g>
<!-- Node24&#45;&gt;Node37 -->
<g id="edge33" class="edge">
<title>Node24&#45;&gt;Node37</title>
<path fill="none" stroke="#63b8ff" d="M268.27,-275C296.19,-275 330.04,-275 355.5,-275"/>
<polygon fill="#63b8ff" stroke="#63b8ff" points="268.62,-271.5 258.62,-275 268.62,-278.5 268.62,-271.5"/>
</g>
<!-- Node38 -->
<g id="node35" class="node">
<title>Node38</title>
<g id="a_node35"><a xlink:href="class_ogre_1_1_mesh.html" target="_top" xlink:title="Resource holding data about 3D mesh.">
<polygon fill="white" stroke="#666666" points="427.5,-247.5 361.5,-247.5 361.5,-228.5 427.5,-228.5 427.5,-247.5"/>
<text text-anchor="middle" x="394.5" y="-235.5" font-family="Helvetica,sans-Serif" font-size="10.00">Ogre::Mesh</text>
</a>
</g>
</g>
<!-- Node24&#45;&gt;Node38 -->
<g id="edge34" class="edge">
<title>Node24&#45;&gt;Node38</title>
<path fill="none" stroke="#63b8ff" d="M268.24,-264.19C298.24,-257.91 335.11,-250.21 361.05,-244.78"/>
<polygon fill="#63b8ff" stroke="#63b8ff" points="267.66,-260.73 258.59,-266.2 269.09,-267.58 267.66,-260.73"/>
</g>
<!-- Node39 -->
<g id="node36" class="node">
<title>Node39</title>
<g id="a_node36"><a xlink:href="class_ogre_1_1_texture.html" target="_top" xlink:title="Abstract class representing a Texture resource.">
<polygon fill="white" stroke="#666666" points="431.5,-210.5 357.5,-210.5 357.5,-191.5 431.5,-191.5 431.5,-210.5"/>
<text text-anchor="middle" x="394.5" y="-198.5" font-family="Helvetica,sans-Serif" font-size="10.00">Ogre::Texture</text>
</a>
</g>
</g>
<!-- Node24&#45;&gt;Node39 -->
<g id="edge35" class="edge">
<title>Node24&#45;&gt;Node39</title>
<path fill="none" stroke="#63b8ff" d="M243.33,-259.51C264.88,-247.53 296.2,-231.17 325,-220 335.24,-216.03 346.64,-212.52 357.16,-209.64"/>
<polygon fill="#63b8ff" stroke="#63b8ff" points="241.62,-256.45 234.62,-264.41 245.05,-262.55 241.62,-256.45"/>
</g>
<!-- Node51 -->
<g id="node42" class="node">
<title>Node51</title>
<g id="a_node42"><a xlink:href="class_ogre_1_1v1_1_1_mesh.html" target="_top" xlink:title="Resource holding data about 3D mesh.">
<polygon fill="white" stroke="#666666" points="435,-168.5 354,-168.5 354,-149.5 435,-149.5 435,-168.5"/>
<text text-anchor="middle" x="394.5" y="-156.5" font-family="Helvetica,sans-Serif" font-size="10.00">Ogre::v1::Mesh</text>
</a>
</g>
</g>
<!-- Node24&#45;&gt;Node51 -->
<g id="edge41" class="edge">
<title>Node24&#45;&gt;Node51</title>
<path fill="none" stroke="#63b8ff" d="M233.66,-256.9C253.84,-236.5 289.16,-203.53 325,-183 334.95,-177.3 346.48,-172.62 357.21,-168.96"/>
<polygon fill="#63b8ff" stroke="#63b8ff" points="231.25,-254.35 226.79,-263.96 236.27,-259.23 231.25,-254.35"/>
</g>
<!-- Node53 -->
<g id="node44" class="node">
<title>Node53</title>
<g id="a_node44"><a xlink:href="class_ogre_1_1v1_1_1_skeleton.html" target="_top" xlink:title="A collection of OldBone objects used to animate a skinned mesh.">
<polygon fill="white" stroke="#666666" points="442,-122.5 347,-122.5 347,-103.5 442,-103.5 442,-122.5"/>
<text text-anchor="middle" x="394.5" y="-110.5" font-family="Helvetica,sans-Serif" font-size="10.00">Ogre::v1::Skeleton</text>
</a>
</g>
</g>
<!-- Node24&#45;&gt;Node53 -->
<g id="edge43" class="edge">
<title>Node24&#45;&gt;Node53</title>
<path fill="none" stroke="#63b8ff" d="M227.82,-255.5C245.32,-226.86 281.54,-173.3 325,-141 335.31,-133.34 348.02,-127.39 359.68,-122.98"/>
<polygon fill="#63b8ff" stroke="#63b8ff" points="224.94,-253.49 222.82,-263.87 230.95,-257.08 224.94,-253.49"/>
</g>
<!-- Node28 -->
<g id="node28" class="node">
<title>Node28</title>
<g id="a_node28"><a xlink:href="class_ogre_1_1_d3_d9_gpu_program.html" target="_top" xlink:title="Direct3D implementation of a few things common to low&#45;level vertex &amp; fragment programs.">
<polygon fill="white" stroke="#666666" points="635.5,-377.5 514.5,-377.5 514.5,-358.5 635.5,-358.5 635.5,-377.5"/>
<text text-anchor="middle" x="575" y="-365.5" font-family="Helvetica,sans-Serif" font-size="10.00">Ogre::D3D9GpuProgram</text>
</a>
</g>
</g>
<!-- Node27&#45;&gt;Node28 -->
<g id="edge27" class="edge">
<title>Node27&#45;&gt;Node28</title>
<path fill="none" stroke="#63b8ff" d="M447.62,-325.18C453.2,-326.97 458.76,-328.92 464,-331 480.81,-337.68 483.08,-343.59 500,-350 508.16,-353.09 517.03,-355.79 525.71,-358.08"/>
<polygon fill="#63b8ff" stroke="#63b8ff" points="448.94,-321.93 438.35,-322.38 446.91,-328.63 448.94,-321.93"/>
</g>
<!-- Node31 -->
<g id="node31" class="node">
<title>Node31</title>
<g id="a_node31"><a xlink:href="class_ogre_1_1_high_level_gpu_program.html" target="_top" xlink:title="Abstract base class representing a high&#45;level program (a vertex or fragment program).">
<polygon fill="#fff0f0" stroke="red" points="645.5,-340.5 504.5,-340.5 504.5,-321.5 645.5,-321.5 645.5,-340.5"/>
<text text-anchor="middle" x="575" y="-328.5" font-family="Helvetica,sans-Serif" font-size="10.00">Ogre::HighLevelGpuProgram</text>
</a>
</g>
</g>
<!-- Node27&#45;&gt;Node31 -->
<g id="edge30" class="edge">
<title>Node27&#45;&gt;Node31</title>
<path fill="none" stroke="#63b8ff" d="M454.61,-318.29C470.49,-319.98 487.81,-321.83 504.21,-323.57"/>
<polygon fill="#63b8ff" stroke="#63b8ff" points="455.15,-314.83 444.84,-317.25 454.41,-321.79 455.15,-314.83"/>
</g>
<!-- Node29 -->
<g id="node29" class="node">
<title>Node29</title>
<g id="a_node29"><a xlink:href="class_ogre_1_1_d3_d9_gpu_fragment_program.html" target="_top" xlink:title="Direct3D implementation of low&#45;level fragment programs.">
<polygon fill="white" stroke="#666666" points="848,-414.5 686,-414.5 686,-395.5 848,-395.5 848,-414.5"/>
<text text-anchor="middle" x="767" y="-402.5" font-family="Helvetica,sans-Serif" font-size="10.00">Ogre::D3D9GpuFragmentProgram</text>
</a>
</g>
</g>
<!-- Node28&#45;&gt;Node29 -->
<g id="edge28" class="edge">
<title>Node28&#45;&gt;Node29</title>
<path fill="none" stroke="#63b8ff" d="M638.28,-380.13C663.04,-384.95 691.19,-390.43 714.74,-395.02"/>
<polygon fill="#63b8ff" stroke="#63b8ff" points="639.14,-376.73 628.65,-378.25 637.8,-383.6 639.14,-376.73"/>
</g>
<!-- Node30 -->
<g id="node30" class="node">
<title>Node30</title>
<g id="a_node30"><a xlink:href="class_ogre_1_1_d3_d9_gpu_vertex_program.html" target="_top" xlink:title="Direct3D implementation of low&#45;level vertex programs.">
<polygon fill="white" stroke="#666666" points="841.5,-377.5 692.5,-377.5 692.5,-358.5 841.5,-358.5 841.5,-377.5"/>
<text text-anchor="middle" x="767" y="-365.5" font-family="Helvetica,sans-Serif" font-size="10.00">Ogre::D3D9GpuVertexProgram</text>
</a>
</g>
</g>
<!-- Node28&#45;&gt;Node30 -->
<g id="edge29" class="edge">
<title>Node28&#45;&gt;Node30</title>
<path fill="none" stroke="#63b8ff" d="M646.94,-368C661.68,-368 677.24,-368 692.08,-368"/>
<polygon fill="#63b8ff" stroke="#63b8ff" points="647.37,-364.5 637.37,-368 647.37,-371.5 647.37,-364.5"/>
</g>
<!-- Node32 -->
<g id="node32" class="node">
<title>Node32</title>
<g id="a_node32"><a xlink:href="class_ogre_1_1_d3_d11_h_l_s_l_program.html" target="_top" xlink:title="Specialization of HighLevelGpuProgram to provide support for D3D11 High&#45;Level Shader Language (HLSL).">
<polygon fill="white" stroke="#666666" points="834,-340.5 700,-340.5 700,-321.5 834,-321.5 834,-340.5"/>
<text text-anchor="middle" x="767" y="-328.5" font-family="Helvetica,sans-Serif" font-size="10.00">Ogre::D3D11HLSLProgram</text>
</a>
</g>
</g>
<!-- Node31&#45;&gt;Node32 -->
<g id="edge31" class="edge">
<title>Node31&#45;&gt;Node32</title>
<path fill="none" stroke="#63b8ff" d="M657.19,-331C671.37,-331 685.97,-331 699.68,-331"/>
<polygon fill="#63b8ff" stroke="#63b8ff" points="657.45,-327.5 647.45,-331 657.45,-334.5 657.45,-327.5"/>
</g>
<!-- Node33 -->
<g id="node33" class="node">
<title>Node33</title>
<g id="a_node33"><a xlink:href="class_ogre_1_1_d3_d9_h_l_s_l_program.html" target="_top" xlink:title="Specialisation of HighLevelGpuProgram to provide support for D3D9 High&#45;Level Shader Language (HLSL).">
<polygon fill="white" stroke="#666666" points="831.5,-303.5 702.5,-303.5 702.5,-284.5 831.5,-284.5 831.5,-303.5"/>
<text text-anchor="middle" x="767" y="-291.5" font-family="Helvetica,sans-Serif" font-size="10.00">Ogre::D3D9HLSLProgram</text>
</a>
</g>
</g>
<!-- Node31&#45;&gt;Node33 -->
<g id="edge32" class="edge">
<title>Node31&#45;&gt;Node33</title>
<path fill="none" stroke="#63b8ff" d="M638.28,-318.87C663.04,-314.05 691.19,-308.57 714.74,-303.98"/>
<polygon fill="#63b8ff" stroke="#63b8ff" points="637.8,-315.4 628.65,-320.75 639.14,-322.27 637.8,-315.4"/>
</g>
<!-- Node40 -->
<g id="node37" class="node">
<title>Node40</title>
<g id="a_node37"><a xlink:href="class_ogre_1_1_d3_d11_texture.html" target="_top" xlink:title=" ">
<polygon fill="#fff0f0" stroke="red" points="627,-303.5 523,-303.5 523,-284.5 627,-284.5 627,-303.5"/>
<text text-anchor="middle" x="575" y="-291.5" font-family="Helvetica,sans-Serif" font-size="10.00">Ogre::D3D11Texture</text>
</a>
</g>
</g>
<!-- Node39&#45;&gt;Node40 -->
<g id="edge36" class="edge">
<title>Node39&#45;&gt;Node40</title>
<path fill="none" stroke="#63b8ff" d="M442.87,-209.23C450.38,-211.88 457.73,-215.38 464,-220 487.82,-237.55 475.9,-258.83 500,-276 506.78,-280.83 514.71,-284.38 522.81,-286.98"/>
<polygon fill="#63b8ff" stroke="#63b8ff" points="443.89,-205.88 433.31,-206.36 441.88,-212.59 443.89,-205.88"/>
</g>
<!-- Node43 -->
<g id="node38" class="node">
<title>Node43</title>
<g id="a_node38"><a xlink:href="class_ogre_1_1_d3_d9_texture.html" target="_top" xlink:title=" ">
<polygon fill="white" stroke="#666666" points="624,-266.5 526,-266.5 526,-247.5 624,-247.5 624,-266.5"/>
<text text-anchor="middle" x="575" y="-254.5" font-family="Helvetica,sans-Serif" font-size="10.00">Ogre::D3D9Texture</text>
</a>
</g>
</g>
<!-- Node39&#45;&gt;Node43 -->
<g id="edge37" class="edge">
<title>Node39&#45;&gt;Node43</title>
<path fill="none" stroke="#63b8ff" d="M442.7,-212.65C449.92,-214.85 457.22,-217.31 464,-220 480.81,-226.68 483.08,-232.59 500,-239 508.16,-242.09 517.03,-244.79 525.71,-247.08"/>
<polygon fill="#63b8ff" stroke="#63b8ff" points="443.92,-209.36 433.34,-209.95 441.98,-216.09 443.92,-209.36"/>
</g>
<!-- Node44 -->
<g id="node39" class="node">
<title>Node44</title>
<g id="a_node39"><a xlink:href="class_ogre_1_1_g_l3_plus_texture.html" target="_top" xlink:title=" ">
<polygon fill="#fff0f0" stroke="red" points="631.5,-229.5 518.5,-229.5 518.5,-210.5 631.5,-210.5 631.5,-229.5"/>
<text text-anchor="middle" x="575" y="-217.5" font-family="Helvetica,sans-Serif" font-size="10.00">Ogre::GL3PlusTexture</text>
</a>
</g>
</g>
<!-- Node39&#45;&gt;Node44 -->
<g id="edge38" class="edge">
<title>Node39&#45;&gt;Node44</title>
<path fill="none" stroke="#63b8ff" d="M442.9,-206.05C466.05,-208.51 494.06,-211.49 518.24,-214.06"/>
<polygon fill="#63b8ff" stroke="#63b8ff" points="443.44,-202.58 433.13,-205.01 442.7,-209.54 443.44,-202.58"/>
</g>
<!-- Node47 -->
<g id="node40" class="node">
<title>Node47</title>
<g id="a_node40"><a xlink:href="class_ogre_1_1_metal_texture.html" target="_top" xlink:title=" ">
<polygon fill="#fff0f0" stroke="red" points="624,-192.5 526,-192.5 526,-173.5 624,-173.5 624,-192.5"/>
<text text-anchor="middle" x="575" y="-180.5" font-family="Helvetica,sans-Serif" font-size="10.00">Ogre::MetalTexture</text>
</a>
</g>
</g>
<!-- Node39&#45;&gt;Node47 -->
<g id="edge39" class="edge">
<title>Node39&#45;&gt;Node47</title>
<path fill="none" stroke="#63b8ff" d="M442.92,-196.22C468.51,-193.64 500.03,-190.46 525.75,-187.87"/>
<polygon fill="#63b8ff" stroke="#63b8ff" points="442.73,-192.72 433.13,-197.21 443.43,-199.68 442.73,-192.72"/>
</g>
<!-- Node50 -->
<g id="node41" class="node">
<title>Node50</title>
<g id="a_node41"><a xlink:href="class_ogre_1_1_n_u_l_l_texture.html" target="_top" xlink:title=" ">
<polygon fill="white" stroke="#666666" points="625.5,-155.5 524.5,-155.5 524.5,-136.5 625.5,-136.5 625.5,-155.5"/>
<text text-anchor="middle" x="575" y="-143.5" font-family="Helvetica,sans-Serif" font-size="10.00">Ogre::NULLTexture</text>
</a>
</g>
</g>
<!-- Node39&#45;&gt;Node50 -->
<g id="edge40" class="edge">
<title>Node39&#45;&gt;Node50</title>
<path fill="none" stroke="#63b8ff" d="M436.35,-187.45C445.47,-184.38 455.07,-181.11 464,-178 480.06,-172.4 483.74,-170.01 500,-165 510.39,-161.8 521.72,-158.7 532.32,-155.96"/>
<polygon fill="#63b8ff" stroke="#63b8ff" points="435.36,-184.09 426.99,-190.59 437.59,-190.73 435.36,-184.09"/>
</g>
<!-- Node52 -->
<g id="node43" class="node">
<title>Node52</title>
<g id="a_node43"><a xlink:href="class_ogre_1_1v1_1_1_patch_mesh.html" target="_top" xlink:title="Patch specialisation of Mesh.">
<polygon fill="white" stroke="#666666" points="628.5,-118.5 521.5,-118.5 521.5,-99.5 628.5,-99.5 628.5,-118.5"/>
<text text-anchor="middle" x="575" y="-106.5" font-family="Helvetica,sans-Serif" font-size="10.00">Ogre::v1::PatchMesh</text>
</a>
</g>
</g>
<!-- Node51&#45;&gt;Node52 -->
<g id="edge42" class="edge">
<title>Node51&#45;&gt;Node52</title>
<path fill="none" stroke="#63b8ff" d="M438.79,-145.77C457.56,-140.13 479.82,-133.58 500,-128 510.99,-124.96 522.95,-121.82 533.99,-118.98"/>
<polygon fill="#63b8ff" stroke="#63b8ff" points="437.9,-142.38 429.34,-148.62 439.92,-149.08 437.9,-142.38"/>
</g>
<!-- Node54 -->
<g id="node45" class="node">
<title>Node54</title>
<g id="a_node45"><a xlink:href="class_ogre_1_1v1_1_1_old_skeleton_instance.html" target="_top" xlink:title="A OldSkeletonInstance is a single instance of a Skeleton used by a world object.">
<polygon fill="white" stroke="#666666" points="649,-81.5 501,-81.5 501,-62.5 649,-62.5 649,-81.5"/>
<text text-anchor="middle" x="575" y="-69.5" font-family="Helvetica,sans-Serif" font-size="10.00">Ogre::v1::OldSkeletonInstance</text>
</a>
</g>
</g>
<!-- Node53&#45;&gt;Node54 -->
<g id="edge44" class="edge">
<title>Node53&#45;&gt;Node54</title>
<path fill="none" stroke="#63b8ff" d="M449.86,-100.51C475.74,-94.57 506.26,-87.56 530.57,-81.98"/>
<polygon fill="#63b8ff" stroke="#63b8ff" points="449.15,-97.09 440.19,-102.74 450.71,-103.91 449.15,-97.09"/>
</g>
<!-- Node56 -->
<g id="node47" class="node">
<title>Node56</title>
<g id="a_node47"><a xlink:href="class_ogre_1_1v1_1_1_overlay_container.html" target="_top" xlink:title="A 2D element which contains other OverlayElement instances.">
<polygon fill="white" stroke="#666666" points="460,-67.5 329,-67.5 329,-48.5 460,-48.5 460,-67.5"/>
<text text-anchor="middle" x="394.5" y="-55.5" font-family="Helvetica,sans-Serif" font-size="10.00">Ogre::v1::OverlayContainer</text>
</a>
</g>
</g>
<!-- Node55&#45;&gt;Node56 -->
<g id="edge46" class="edge">
<title>Node55&#45;&gt;Node56</title>
<path fill="none" stroke="#63b8ff" d="M289.62,-58C302.56,-58 315.94,-58 328.62,-58"/>
<polygon fill="#63b8ff" stroke="#63b8ff" points="289.92,-54.5 279.92,-58 289.92,-61.5 289.92,-54.5"/>
</g>
<!-- Node59 -->
<g id="node49" class="node">
<title>Node59</title>
<g id="a_node49"><a xlink:href="class_ogre_1_1v1_1_1_text_area_overlay_element.html" target="_top" xlink:title="This class implements an overlay element which contains simple unformatted text.">
<polygon fill="white" stroke="#666666" points="459,-30 330,-30 330,0 459,0 459,-30"/>
<text text-anchor="start" x="338" y="-18" font-family="Helvetica,sans-Serif" font-size="10.00">Ogre::v1::TextAreaOverlay</text>
<text text-anchor="middle" x="394.5" y="-7" font-family="Helvetica,sans-Serif" font-size="10.00">Element</text>
</a>
</g>
</g>
<!-- Node55&#45;&gt;Node59 -->
<g id="edge48" class="edge">
<title>Node55&#45;&gt;Node59</title>
<path fill="none" stroke="#63b8ff" d="M268.5,-45.37C287.7,-40.7 309.67,-35.37 329.79,-30.48"/>
<polygon fill="#63b8ff" stroke="#63b8ff" points="267.91,-41.91 259.02,-47.67 269.57,-48.71 267.91,-41.91"/>
</g>
<!-- Node57 -->
<g id="node48" class="node">
<title>Node57</title>
<g id="a_node48"><a xlink:href="class_ogre_1_1v1_1_1_panel_overlay_element.html" target="_top" xlink:title="OverlayElement representing a flat, single&#45;material (or transparent) panel which can contain other el...">
<polygon fill="#fff0f0" stroke="red" points="650,-44.5 500,-44.5 500,-25.5 650,-25.5 650,-44.5"/>
<text text-anchor="middle" x="575" y="-32.5" font-family="Helvetica,sans-Serif" font-size="10.00">Ogre::v1::PanelOverlayElement</text>
</a>
</g>
</g>
<!-- Node56&#45;&gt;Node57 -->
<g id="edge47" class="edge">
<title>Node56&#45;&gt;Node57</title>
<path fill="none" stroke="#63b8ff" d="M471.66,-48.19C480.96,-46.99 490.45,-45.77 499.72,-44.57"/>
<polygon fill="#63b8ff" stroke="#63b8ff" points="471.42,-44.69 461.95,-49.44 472.31,-51.63 471.42,-44.69"/>
</g>
</g>
</svg>
