<?xml version="1.0" encoding="UTF-8" standalone="no"?>
<!DOCTYPE svg PUBLIC "-//W3C//DTD SVG 1.1//EN"
 "http://www.w3.org/Graphics/SVG/1.1/DTD/svg11.dtd">
<!-- Generated by graphviz version 9.0.0 (20230911.1827)
 -->
<!-- Title: Ogre::GpuProgramManager Pages: 1 -->
<svg width="657pt" height="175pt"
 viewBox="0.00 0.00 657.00 175.25" xmlns="http://www.w3.org/2000/svg" xmlns:xlink="http://www.w3.org/1999/xlink">
<g id="graph0" class="graph" transform="scale(1 1) rotate(0) translate(4 171.25)">
<title>Ogre::GpuProgramManager</title>
<!-- Node1 -->
<g id="Node000001" class="node">
<title>Node1</title>
<g id="a_Node000001"><a xlink:title=" ">
<polygon fill="#999999" stroke="#666666" points="447.75,-93.25 314,-93.25 314,-74 447.75,-74 447.75,-93.25"/>
<text text-anchor="middle" x="380.88" y="-79.75" font-family="Helvetica,sans-Serif" font-size="10.00">Ogre::GpuProgramManager</text>
</a>
</g>
</g>
<!-- Node6 -->
<g id="Node000006" class="node">
<title>Node6</title>
<g id="a_Node000006"><a xlink:href="class_ogre_1_1_d3_d11_gpu_program_manager.html" target="_top" xlink:title=" ">
<polygon fill="white" stroke="#666666" points="647.88,-167.25 484.88,-167.25 484.88,-148 647.88,-148 647.88,-167.25"/>
<text text-anchor="middle" x="566.38" y="-153.75" font-family="Helvetica,sans-Serif" font-size="10.00">Ogre::D3D11GpuProgramManager</text>
</a>
</g>
</g>
<!-- Node1&#45;&gt;Node6 -->
<g id="edge5_Node000001_Node000006" class="edge">
<title>Node1&#45;&gt;Node6</title>
<g id="a_edge5_Node000001_Node000006"><a xlink:title=" ">
<path fill="none" stroke="#63b8ff" d="M406.32,-99.67C426.38,-112.19 455.92,-129.16 483.75,-139.62 491.9,-142.69 500.71,-145.31 509.43,-147.52"/>
<polygon fill="#63b8ff" stroke="#63b8ff" points="408.35,-96.81 398.03,-94.4 404.59,-102.72 408.35,-96.81"/>
</a>
</g>
</g>
<!-- Node7 -->
<g id="Node000007" class="node">
<title>Node7</title>
<g id="a_Node000007"><a xlink:href="class_ogre_1_1_d3_d9_gpu_program_manager.html" target="_top" xlink:title=" ">
<polygon fill="white" stroke="#666666" points="645.25,-130.25 487.5,-130.25 487.5,-111 645.25,-111 645.25,-130.25"/>
<text text-anchor="middle" x="566.38" y="-116.75" font-family="Helvetica,sans-Serif" font-size="10.00">Ogre::D3D9GpuProgramManager</text>
</a>
</g>
</g>
<!-- Node1&#45;&gt;Node7 -->
<g id="edge6_Node000001_Node000007" class="edge">
<title>Node1&#45;&gt;Node7</title>
<g id="a_edge6_Node000001_Node000007"><a xlink:title=" ">
<path fill="none" stroke="#63b8ff" d="M443.24,-96C466.66,-100.72 493.05,-106.04 515.29,-110.53"/>
<polygon fill="#63b8ff" stroke="#63b8ff" points="444,-92.58 433.5,-94.03 442.61,-99.44 444,-92.58"/>
</a>
</g>
</g>
<!-- Node8 -->
<g id="Node000008" class="node">
<title>Node8</title>
<g id="a_Node000008"><a xlink:href="class_ogre_1_1_g_l_e_s2_gpu_program_manager.html" target="_top" xlink:title=" ">
<polygon fill="white" stroke="#666666" points="649,-93.25 483.75,-93.25 483.75,-74 649,-74 649,-93.25"/>
<text text-anchor="middle" x="566.38" y="-79.75" font-family="Helvetica,sans-Serif" font-size="10.00">Ogre::GLES2GpuProgramManager</text>
</a>
</g>
</g>
<!-- Node1&#45;&gt;Node8 -->
<g id="edge7_Node000001_Node000008" class="edge">
<title>Node1&#45;&gt;Node8</title>
<g id="a_edge7_Node000001_Node000008"><a xlink:title=" ">
<path fill="none" stroke="#63b8ff" d="M459.6,-83.62C467.52,-83.62 475.59,-83.62 483.55,-83.62"/>
<polygon fill="#63b8ff" stroke="#63b8ff" points="459.64,-80.13 449.64,-83.63 459.64,-87.13 459.64,-80.13"/>
</a>
</g>
</g>
<!-- Node9 -->
<g id="Node000009" class="node">
<title>Node9</title>
<g id="a_Node000009"><a xlink:href="class_ogre_1_1_g_l_s_l_shader_manager.html" target="_top" xlink:title=" ">
<polygon fill="white" stroke="#666666" points="634.38,-56.25 498.38,-56.25 498.38,-37 634.38,-37 634.38,-56.25"/>
<text text-anchor="middle" x="566.38" y="-42.75" font-family="Helvetica,sans-Serif" font-size="10.00">Ogre::GLSLShaderManager</text>
</a>
</g>
</g>
<!-- Node1&#45;&gt;Node9 -->
<g id="edge8_Node000001_Node000009" class="edge">
<title>Node1&#45;&gt;Node9</title>
<g id="a_edge8_Node000001_Node000009"><a xlink:title=" ">
<path fill="none" stroke="#63b8ff" d="M443.24,-71.25C466.66,-66.53 493.05,-61.21 515.29,-56.72"/>
<polygon fill="#63b8ff" stroke="#63b8ff" points="442.61,-67.81 433.5,-73.22 444,-74.67 442.61,-67.81"/>
</a>
</g>
</g>
<!-- Node10 -->
<g id="Node000010" class="node">
<title>Node10</title>
<g id="a_Node000010"><a xlink:href="class_ogre_1_1_metal_gpu_program_manager.html" target="_top" xlink:title=" ">
<polygon fill="white" stroke="#666666" points="645.25,-19.25 487.5,-19.25 487.5,0 645.25,0 645.25,-19.25"/>
<text text-anchor="middle" x="566.38" y="-5.75" font-family="Helvetica,sans-Serif" font-size="10.00">Ogre::MetalGpuProgramManager</text>
</a>
</g>
</g>
<!-- Node1&#45;&gt;Node10 -->
<g id="edge9_Node000001_Node000010" class="edge">
<title>Node1&#45;&gt;Node10</title>
<g id="a_edge9_Node000001_Node000010"><a xlink:title=" ">
<path fill="none" stroke="#63b8ff" d="M406.32,-67.58C426.38,-55.06 455.92,-38.09 483.75,-27.62 491.9,-24.56 500.71,-21.94 509.43,-19.73"/>
<polygon fill="#63b8ff" stroke="#63b8ff" points="404.59,-64.53 398.03,-72.85 408.35,-70.44 404.59,-64.53"/>
</a>
</g>
</g>
<!-- Node2 -->
<g id="Node000002" class="node">
<title>Node2</title>
<g id="a_Node000002"><a xlink:href="class_ogre_1_1_resource_manager.html" target="_top" xlink:title="Defines a generic resource handler.">
<polygon fill="white" stroke="#666666" points="265.62,-115.25 145.38,-115.25 145.38,-96 265.62,-96 265.62,-115.25"/>
<text text-anchor="middle" x="205.5" y="-101.75" font-family="Helvetica,sans-Serif" font-size="10.00">Ogre::ResourceManager</text>
</a>
</g>
</g>
<!-- Node2&#45;&gt;Node1 -->
<g id="edge1_Node000001_Node000002" class="edge">
<title>Node2&#45;&gt;Node1</title>
<g id="a_edge1_Node000001_Node000002"><a xlink:title=" ">
<path fill="none" stroke="#63b8ff" d="M277.07,-96.67C289.11,-95.14 301.59,-93.56 313.52,-92.04"/>
<polygon fill="#63b8ff" stroke="#63b8ff" points="276.66,-93.19 267.18,-97.92 277.54,-100.14 276.66,-93.19"/>
</a>
</g>
</g>
<!-- Node3 -->
<g id="Node000003" class="node">
<title>Node3</title>
<g id="a_Node000003"><a xlink:href="class_ogre_1_1_script_loader.html" target="_top" xlink:title="Abstract class defining the interface used by classes which wish to perform script loading to define ...">
<polygon fill="white" stroke="#666666" points="97,-133.25 0,-133.25 0,-114 97,-114 97,-133.25"/>
<text text-anchor="middle" x="48.5" y="-119.75" font-family="Helvetica,sans-Serif" font-size="10.00">Ogre::ScriptLoader</text>
</a>
</g>
</g>
<!-- Node3&#45;&gt;Node2 -->
<g id="edge2_Node000002_Node000003" class="edge">
<title>Node3&#45;&gt;Node2</title>
<g id="a_edge2_Node000002_Node000003"><a xlink:title=" ">
<path fill="none" stroke="#63b8ff" d="M108.53,-116.77C120.52,-115.38 133.13,-113.91 145.13,-112.52"/>
<polygon fill="#63b8ff" stroke="#63b8ff" points="108.3,-113.27 98.77,-117.9 109.11,-120.23 108.3,-113.27"/>
</a>
</g>
</g>
<!-- Node4 -->
<g id="Node000004" class="node">
<title>Node4</title>
<g id="a_Node000004"><a xlink:href="class_ogre_1_1_allocated_object.html" target="_top" xlink:title="Superclass for all objects that wish to use custom memory allocators when their new / delete operator...">
<polygon fill="white" stroke="#666666" points="88,-96.25 9,-96.25 9,-77 88,-77 88,-96.25"/>
<text text-anchor="middle" x="48.5" y="-82.75" font-family="Helvetica,sans-Serif" font-size="10.00">ResourceAlloc</text>
</a>
</g>
</g>
<!-- Node4&#45;&gt;Node2 -->
<g id="edge3_Node000002_Node000004" class="edge">
<title>Node4&#45;&gt;Node2</title>
<g id="a_edge3_Node000002_Node000004"><a xlink:title=" ">
<path fill="none" stroke="#63b8ff" d="M99.46,-92.75C113.93,-94.52 129.88,-96.48 144.88,-98.32"/>
<polygon fill="#63b8ff" stroke="#63b8ff" points="100.07,-89.3 89.72,-91.55 99.22,-96.25 100.07,-89.3"/>
</a>
</g>
</g>
<!-- Node5 -->
<g id="Node000005" class="node">
<title>Node5</title>
<g id="a_Node000005"><a xlink:href="class_ogre_1_1_singleton.html" target="_top" xlink:title=" ">
<polygon fill="white" stroke="#666666" points="278,-77.88 133,-77.88 133,-47.38 278,-47.38 278,-77.88"/>
<text text-anchor="start" x="141" y="-64.38" font-family="Helvetica,sans-Serif" font-size="10.00">Ogre::Singleton&lt; GpuProgram</text>
<text text-anchor="middle" x="205.5" y="-53.12" font-family="Helvetica,sans-Serif" font-size="10.00">Manager &gt;</text>
</a>
</g>
</g>
<!-- Node5&#45;&gt;Node1 -->
<g id="edge4_Node000001_Node000005" class="edge">
<title>Node5&#45;&gt;Node1</title>
<g id="a_edge4_Node000001_Node000005"><a xlink:title=" ">
<path fill="none" stroke="#63b8ff" d="M289.64,-72.69C297.71,-73.67 305.84,-74.66 313.72,-75.61"/>
<polygon fill="#63b8ff" stroke="#63b8ff" points="290.12,-69.23 279.77,-71.5 289.28,-76.18 290.12,-69.23"/>
</a>
</g>
</g>
</g>
</svg>
