<?xml version="1.0" encoding="UTF-8" standalone="no"?>
<!DOCTYPE svg PUBLIC "-//W3C//DTD SVG 1.1//EN"
 "http://www.w3.org/Graphics/SVG/1.1/DTD/svg11.dtd">
<!-- Generated by graphviz version 9.0.0 (20230911.1827)
 -->
<!-- Title: Ogre::D3D9StereoDriverAMD Pages: 1 -->
<svg width="423pt" height="149pt"
 viewBox="0.00 0.00 422.75 149.00" xmlns="http://www.w3.org/2000/svg" xmlns:xlink="http://www.w3.org/1999/xlink">
<g id="graph0" class="graph" transform="scale(1 1) rotate(0) translate(4 145)">
<title>Ogre::D3D9StereoDriverAMD</title>
<!-- Node1 -->
<g id="Node000001" class="node">
<title>Node1</title>
<g id="a_Node000001"><a xlink:title="Virtual interface of the stereo driver.">
<polygon fill="#999999" stroke="#666666" points="279.75,-19.25 138.5,-19.25 138.5,0 279.75,0 279.75,-19.25"/>
<text text-anchor="middle" x="209.12" y="-5.75" font-family="Helvetica,sans-Serif" font-size="10.00">Ogre::D3D9StereoDriverAMD</text>
</a>
</g>
</g>
<!-- Node2 -->
<g id="Node000002" class="node">
<title>Node2</title>
<g id="a_Node000002"><a xlink:href="class_ogre_1_1_d3_d9_stereo_driver_impl.html" target="_top" xlink:title="Virtual interface of the stereo driver.">
<polygon fill="white" stroke="#666666" points="138.25,-80.12 0,-80.12 0,-60.88 138.25,-60.88 138.25,-80.12"/>
<text text-anchor="middle" x="69.12" y="-66.62" font-family="Helvetica,sans-Serif" font-size="10.00">Ogre::D3D9StereoDriverImpl</text>
</a>
</g>
</g>
<!-- Node2&#45;&gt;Node1 -->
<g id="edge1_Node000001_Node000002" class="edge">
<title>Node2&#45;&gt;Node1</title>
<g id="a_edge1_Node000001_Node000002"><a xlink:title=" ">
<path fill="none" stroke="#63b8ff" d="M101.01,-56.09C127.56,-44.92 164.65,-29.33 187.76,-19.61"/>
<polygon fill="#63b8ff" stroke="#63b8ff" points="99.95,-52.74 92.09,-59.84 102.66,-59.19 99.95,-52.74"/>
</a>
</g>
</g>
<!-- Node3 -->
<g id="Node000003" class="node">
<title>Node3</title>
<g id="a_Node000003"><a xlink:href="class_ogre_1_1_allocated_object.html" target="_top" xlink:title="Superclass for all objects that wish to use custom memory allocators when their new / delete operator...">
<polygon fill="white" stroke="#666666" points="108.62,-141 29.62,-141 29.62,-121.75 108.62,-121.75 108.62,-141"/>
<text text-anchor="middle" x="69.12" y="-127.5" font-family="Helvetica,sans-Serif" font-size="10.00">ResourceAlloc</text>
</a>
</g>
</g>
<!-- Node3&#45;&gt;Node2 -->
<g id="edge2_Node000002_Node000003" class="edge">
<title>Node3&#45;&gt;Node2</title>
<g id="a_edge2_Node000002_Node000003"><a xlink:title=" ">
<path fill="none" stroke="#63b8ff" d="M69.12,-109.95C69.12,-99.92 69.12,-88.33 69.12,-80.53"/>
<polygon fill="#63b8ff" stroke="#63b8ff" points="65.63,-109.92 69.13,-119.92 72.63,-109.92 65.63,-109.92"/>
</a>
</g>
</g>
<!-- Node4 -->
<g id="Node000004" class="node">
<title>Node4</title>
<g id="a_Node000004"><a xlink:href="class_ogre_1_1_render_system_1_1_listener.html" target="_top" xlink:title="Defines a listener on the custom events that this render system can raise.">
<polygon fill="white" stroke="#666666" points="261.75,-85.75 156.5,-85.75 156.5,-55.25 261.75,-55.25 261.75,-85.75"/>
<text text-anchor="start" x="164.5" y="-72.25" font-family="Helvetica,sans-Serif" font-size="10.00">Ogre::RenderSystem</text>
<text text-anchor="middle" x="209.12" y="-61" font-family="Helvetica,sans-Serif" font-size="10.00">::Listener</text>
</a>
</g>
</g>
<!-- Node4&#45;&gt;Node1 -->
<g id="edge3_Node000001_Node000004" class="edge">
<title>Node4&#45;&gt;Node1</title>
<g id="a_edge3_Node000001_Node000004"><a xlink:title=" ">
<path fill="none" stroke="#63b8ff" d="M209.12,-43.48C209.12,-34.98 209.12,-26.09 209.12,-19.7"/>
<polygon fill="#63b8ff" stroke="#63b8ff" points="205.63,-43.43 209.13,-53.43 212.63,-43.43 205.63,-43.43"/>
</a>
</g>
</g>
<!-- Node5 -->
<g id="Node000005" class="node">
<title>Node5</title>
<g id="a_Node000005"><a xlink:href="class_ogre_1_1_render_target_listener.html" target="_top" xlink:title="A interface class defining a listener which can be used to receive notifications of RenderTarget even...">
<polygon fill="white" stroke="#666666" points="414.75,-80.12 279.5,-80.12 279.5,-60.88 414.75,-60.88 414.75,-80.12"/>
<text text-anchor="middle" x="347.12" y="-66.62" font-family="Helvetica,sans-Serif" font-size="10.00">Ogre::RenderTargetListener</text>
</a>
</g>
</g>
<!-- Node5&#45;&gt;Node1 -->
<g id="edge4_Node000001_Node000005" class="edge">
<title>Node5&#45;&gt;Node1</title>
<g id="a_edge4_Node000001_Node000005"><a xlink:title=" ">
<path fill="none" stroke="#63b8ff" d="M315.35,-55.94C289.2,-44.79 252.86,-29.28 230.18,-19.61"/>
<polygon fill="#63b8ff" stroke="#63b8ff" points="313.9,-59.13 324.47,-59.84 316.65,-52.69 313.9,-59.13"/>
</a>
</g>
</g>
</g>
</svg>
