<?xml version="1.0" encoding="UTF-8" standalone="no"?>
<!DOCTYPE svg PUBLIC "-//W3C//DTD SVG 1.1//EN"
 "http://www.w3.org/Graphics/SVG/1.1/DTD/svg11.dtd">
<!-- Generated by graphviz version 9.0.0 (20230911.1827)
 -->
<!-- Title: Ogre::PlaneBoundedVolumeListSceneQuery Pages: 1 -->
<svg width="955pt" height="88pt"
 viewBox="0.00 0.00 954.50 87.50" xmlns="http://www.w3.org/2000/svg" xmlns:xlink="http://www.w3.org/1999/xlink">
<g id="graph0" class="graph" transform="scale(1 1) rotate(0) translate(4 83.5)">
<title>Ogre::PlaneBoundedVolumeListSceneQuery</title>
<!-- Node1 -->
<g id="Node000001" class="node">
<title>Node1</title>
<g id="a_Node000001"><a xlink:title="Specialises the SceneQuery class for querying within a plane&#45;bounded volume.">
<polygon fill="#999999" stroke="#666666" points="582.25,-54.5 444.75,-54.5 444.75,-24 582.25,-24 582.25,-54.5"/>
<text text-anchor="start" x="452.75" y="-41" font-family="Helvetica,sans-Serif" font-size="10.00">Ogre::PlaneBoundedVolume</text>
<text text-anchor="middle" x="513.5" y="-29.75" font-family="Helvetica,sans-Serif" font-size="10.00">ListSceneQuery</text>
</a>
</g>
</g>
<!-- Node6 -->
<g id="Node000006" class="node">
<title>Node6</title>
<g id="a_Node000006"><a xlink:href="class_ogre_1_1_default_plane_bounded_volume_list_scene_query.html" target="_top" xlink:title="Default implementation of PlaneBoundedVolumeListSceneQuery.">
<polygon fill="white" stroke="#666666" points="753.5,-54.5 618.25,-54.5 618.25,-24 753.5,-24 753.5,-54.5"/>
<text text-anchor="start" x="626.25" y="-41" font-family="Helvetica,sans-Serif" font-size="10.00">Ogre::DefaultPlaneBounded</text>
<text text-anchor="middle" x="685.88" y="-29.75" font-family="Helvetica,sans-Serif" font-size="10.00">VolumeListSceneQuery</text>
</a>
</g>
</g>
<!-- Node1&#45;&gt;Node6 -->
<g id="edge5_Node000001_Node000006" class="edge">
<title>Node1&#45;&gt;Node6</title>
<g id="a_edge5_Node000001_Node000006"><a xlink:title=" ">
<path fill="none" stroke="#63b8ff" d="M593.67,-39.25C601.75,-39.25 609.91,-39.25 617.84,-39.25"/>
<polygon fill="#63b8ff" stroke="#63b8ff" points="593.84,-35.75 583.84,-39.25 593.84,-42.75 593.84,-35.75"/>
</a>
</g>
</g>
<!-- Node2 -->
<g id="Node000002" class="node">
<title>Node2</title>
<g id="a_Node000002"><a xlink:href="class_ogre_1_1_region_scene_query.html" target="_top" xlink:title="Abstract class defining a query which returns single results from a region.">
<polygon fill="white" stroke="#666666" points="408.75,-48.88 284,-48.88 284,-29.62 408.75,-29.62 408.75,-48.88"/>
<text text-anchor="middle" x="346.38" y="-35.38" font-family="Helvetica,sans-Serif" font-size="10.00">Ogre::RegionSceneQuery</text>
</a>
</g>
</g>
<!-- Node2&#45;&gt;Node1 -->
<g id="edge1_Node000001_Node000002" class="edge">
<title>Node2&#45;&gt;Node1</title>
<g id="a_edge1_Node000001_Node000002"><a xlink:title=" ">
<path fill="none" stroke="#63b8ff" d="M420.11,-39.25C428.15,-39.25 436.32,-39.25 444.3,-39.25"/>
<polygon fill="#63b8ff" stroke="#63b8ff" points="420.38,-35.75 410.37,-39.25 420.37,-42.75 420.38,-35.75"/>
</a>
</g>
</g>
<!-- Node3 -->
<g id="Node000003" class="node">
<title>Node3</title>
<g id="a_Node000003"><a xlink:href="class_ogre_1_1_scene_query.html" target="_top" xlink:title="A class for performing queries on a scene.">
<polygon fill="white" stroke="#666666" points="230.38,-67.88 135.62,-67.88 135.62,-48.62 230.38,-48.62 230.38,-67.88"/>
<text text-anchor="middle" x="183" y="-54.38" font-family="Helvetica,sans-Serif" font-size="10.00">Ogre::SceneQuery</text>
</a>
</g>
</g>
<!-- Node3&#45;&gt;Node2 -->
<g id="edge2_Node000002_Node000003" class="edge">
<title>Node3&#45;&gt;Node2</title>
<g id="a_edge2_Node000002_Node000003"><a xlink:title=" ">
<path fill="none" stroke="#63b8ff" d="M241.85,-51.44C255.46,-49.84 270.01,-48.12 283.78,-46.5"/>
<polygon fill="#63b8ff" stroke="#63b8ff" points="241.7,-47.93 232.18,-52.58 242.52,-54.88 241.7,-47.93"/>
</a>
</g>
</g>
<!-- Node4 -->
<g id="Node000004" class="node">
<title>Node4</title>
<g id="a_Node000004"><a xlink:href="class_ogre_1_1_allocated_object.html" target="_top" xlink:title="Superclass for all objects that wish to use custom memory allocators when their new / delete operator...">
<polygon fill="white" stroke="#666666" points="82,-67.88 0,-67.88 0,-48.62 82,-48.62 82,-67.88"/>
<text text-anchor="middle" x="41" y="-54.38" font-family="Helvetica,sans-Serif" font-size="10.00">SceneMgtAlloc</text>
</a>
</g>
</g>
<!-- Node4&#45;&gt;Node3 -->
<g id="edge3_Node000003_Node000004" class="edge">
<title>Node4&#45;&gt;Node3</title>
<g id="a_edge3_Node000003_Node000004"><a xlink:title=" ">
<path fill="none" stroke="#63b8ff" d="M93.64,-58.25C107.24,-58.25 121.85,-58.25 135.18,-58.25"/>
<polygon fill="#63b8ff" stroke="#63b8ff" points="94.01,-54.75 84.01,-58.25 94.01,-61.75 94.01,-54.75"/>
</a>
</g>
</g>
<!-- Node5 -->
<g id="Node000005" class="node">
<title>Node5</title>
<g id="a_Node000005"><a xlink:href="class_ogre_1_1_scene_query_listener.html" target="_top" xlink:title="This optional class allows you to receive per&#45;result callbacks from SceneQuery executions instead of ...">
<polygon fill="white" stroke="#666666" points="248,-30.88 118,-30.88 118,-11.62 248,-11.62 248,-30.88"/>
<text text-anchor="middle" x="183" y="-17.38" font-family="Helvetica,sans-Serif" font-size="10.00">Ogre::SceneQueryListener</text>
</a>
</g>
</g>
<!-- Node5&#45;&gt;Node2 -->
<g id="edge4_Node000002_Node000005" class="edge">
<title>Node5&#45;&gt;Node2</title>
<g id="a_edge4_Node000002_Node000005"><a xlink:title=" ">
<path fill="none" stroke="#63b8ff" d="M259.59,-29.68C267.67,-30.58 275.82,-31.49 283.72,-32.37"/>
<polygon fill="#63b8ff" stroke="#63b8ff" points="260.07,-26.21 249.75,-28.58 259.3,-33.17 260.07,-26.21"/>
</a>
</g>
</g>
<!-- Node7 -->
<g id="Node000007" class="node">
<title>Node7</title>
<g id="a_Node000007"><a xlink:href="class_ogre_1_1_octree_plane_bounded_volume_list_scene_query.html" target="_top" xlink:title="Octree implementation of PlaneBoundedVolumeListSceneQuery.">
<polygon fill="white" stroke="#666666" points="934.88,-79.5 801.12,-79.5 801.12,-49 934.88,-49 934.88,-79.5"/>
<text text-anchor="start" x="809.12" y="-66" font-family="Helvetica,sans-Serif" font-size="10.00">Ogre::OctreePlaneBounded</text>
<text text-anchor="middle" x="868" y="-54.75" font-family="Helvetica,sans-Serif" font-size="10.00">VolumeListSceneQuery</text>
</a>
</g>
</g>
<!-- Node6&#45;&gt;Node7 -->
<g id="edge6_Node000006_Node000007" class="edge">
<title>Node6&#45;&gt;Node7</title>
<g id="a_edge6_Node000006_Node000007"><a xlink:title=" ">
<path fill="none" stroke="#63b8ff" d="M765.21,-50.12C777.07,-51.77 789.2,-53.45 800.77,-55.06"/>
<polygon fill="#63b8ff" stroke="#63b8ff" points="765.83,-46.68 755.45,-48.77 764.87,-53.61 765.83,-46.68"/>
</a>
</g>
</g>
<!-- Node8 -->
<g id="Node000008" class="node">
<title>Node8</title>
<g id="a_Node000008"><a xlink:href="class_ogre_1_1_p_c_z_plane_bounded_volume_list_scene_query.html" target="_top" xlink:title="PCZ implementation of PlaneBoundedVolumeListSceneQuery.">
<polygon fill="white" stroke="#666666" points="946.5,-30.5 789.5,-30.5 789.5,0 946.5,0 946.5,-30.5"/>
<text text-anchor="start" x="797.5" y="-17" font-family="Helvetica,sans-Serif" font-size="10.00">Ogre::PCZPlaneBoundedVolume</text>
<text text-anchor="middle" x="868" y="-5.75" font-family="Helvetica,sans-Serif" font-size="10.00">ListSceneQuery</text>
</a>
</g>
</g>
<!-- Node6&#45;&gt;Node8 -->
<g id="edge7_Node000006_Node000008" class="edge">
<title>Node6&#45;&gt;Node8</title>
<g id="a_edge7_Node000006_Node000008"><a xlink:title=" ">
<path fill="none" stroke="#63b8ff" d="M765.14,-28.82C773.13,-27.76 781.25,-26.67 789.24,-25.61"/>
<polygon fill="#63b8ff" stroke="#63b8ff" points="764.9,-25.32 755.45,-30.11 765.82,-32.26 764.9,-25.32"/>
</a>
</g>
</g>
</g>
</svg>
