<?xml version="1.0" encoding="UTF-8" standalone="no"?>
<!DOCTYPE svg PUBLIC "-//W3C//DTD SVG 1.1//EN"
 "http://www.w3.org/Graphics/SVG/1.1/DTD/svg11.dtd">
<!-- Generated by graphviz version 7.0.5 (20221223.1930)
 -->
<!-- Title: Ogre::v1::GLES2HardwareUniformBuffer Pages: 1 -->
<svg width="173pt" height="214pt"
 viewBox="0.00 0.00 173.00 214.00" xmlns="http://www.w3.org/2000/svg" xmlns:xlink="http://www.w3.org/1999/xlink">
<g id="graph0" class="graph" transform="scale(1 1) rotate(0) translate(4 210)">
<title>Ogre::v1::GLES2HardwareUniformBuffer</title>
<!-- Node1 -->
<g id="node1" class="node">
<title>Node1</title>
<g id="a_node1"><a xlink:title="Specialisation of HardwareUniformBuffer for OpenGL.">
<polygon fill="#999999" stroke="#666666" points="165,-30 0,-30 0,0 165,0 165,-30"/>
<text text-anchor="start" x="8" y="-18" font-family="Helvetica,sans-Serif" font-size="10.00">Ogre::v1::GLES2HardwareUniform</text>
<text text-anchor="middle" x="82.5" y="-7" font-family="Helvetica,sans-Serif" font-size="10.00">Buffer</text>
</a>
</g>
</g>
<!-- Node2 -->
<g id="node2" class="node">
<title>Node2</title>
<g id="a_node2"><a xlink:href="class_ogre_1_1v1_1_1_hardware_uniform_buffer.html" target="_top" xlink:title="Specialisation of HardwareBuffer for a uniform buffer.">
<polygon fill="white" stroke="#666666" points="149.5,-96 15.5,-96 15.5,-66 149.5,-66 149.5,-96"/>
<text text-anchor="start" x="23.5" y="-84" font-family="Helvetica,sans-Serif" font-size="10.00">Ogre::v1::HardwareUniform</text>
<text text-anchor="middle" x="82.5" y="-73" font-family="Helvetica,sans-Serif" font-size="10.00">Buffer</text>
</a>
</g>
</g>
<!-- Node2&#45;&gt;Node1 -->
<g id="edge1" class="edge">
<title>Node2&#45;&gt;Node1</title>
<path fill="none" stroke="#63b8ff" d="M82.5,-54.39C82.5,-46.13 82.5,-37.28 82.5,-30.16"/>
<polygon fill="#63b8ff" stroke="#63b8ff" points="79,-54.28 82.5,-64.28 86,-54.28 79,-54.28"/>
</g>
<!-- Node3 -->
<g id="node3" class="node">
<title>Node3</title>
<g id="a_node3"><a xlink:href="class_ogre_1_1v1_1_1_hardware_buffer.html" target="_top" xlink:title="Abstract class defining common features of hardware buffers.">
<polygon fill="white" stroke="#666666" points="145,-151 20,-151 20,-132 145,-132 145,-151"/>
<text text-anchor="middle" x="82.5" y="-139" font-family="Helvetica,sans-Serif" font-size="10.00">Ogre::v1::HardwareBuffer</text>
</a>
</g>
</g>
<!-- Node3&#45;&gt;Node2 -->
<g id="edge2" class="edge">
<title>Node3&#45;&gt;Node2</title>
<path fill="none" stroke="#63b8ff" d="M82.5,-120.51C82.5,-112.49 82.5,-103.43 82.5,-96.11"/>
<polygon fill="#63b8ff" stroke="#63b8ff" points="79,-120.35 82.5,-130.35 86,-120.35 79,-120.35"/>
</g>
<!-- Node4 -->
<g id="node4" class="node">
<title>Node4</title>
<g id="a_node4"><a xlink:href="class_ogre_1_1_allocated_object.html" target="_top" xlink:title="Superclass for all objects that wish to use custom memory allocators when their new / delete operator...">
<polygon fill="white" stroke="#666666" points="114.5,-206 50.5,-206 50.5,-187 114.5,-187 114.5,-206"/>
<text text-anchor="middle" x="82.5" y="-194" font-family="Helvetica,sans-Serif" font-size="10.00">BufferAlloc</text>
</a>
</g>
</g>
<!-- Node4&#45;&gt;Node3 -->
<g id="edge3" class="edge">
<title>Node4&#45;&gt;Node3</title>
<path fill="none" stroke="#63b8ff" d="M82.5,-175.35C82.5,-167.1 82.5,-157.97 82.5,-151.44"/>
<polygon fill="#63b8ff" stroke="#63b8ff" points="79,-175.23 82.5,-185.23 86,-175.23 79,-175.23"/>
</g>
</g>
</svg>
