<?xml version="1.0" encoding="UTF-8" standalone="no"?>
<!DOCTYPE svg PUBLIC "-//W3C//DTD SVG 1.1//EN"
 "http://www.w3.org/Graphics/SVG/1.1/DTD/svg11.dtd">
<!-- Generated by graphviz version 7.0.5 (20221223.1930)
 -->
<!-- Title: Ogre::GLES2FBOMultiRenderTarget Pages: 1 -->
<svg width="250pt" height="203pt"
 viewBox="0.00 0.00 249.50 203.00" xmlns="http://www.w3.org/2000/svg" xmlns:xlink="http://www.w3.org/1999/xlink">
<g id="graph0" class="graph" transform="scale(1 1) rotate(0) translate(4 199)">
<title>Ogre::GLES2FBOMultiRenderTarget</title>
<!-- Node1 -->
<g id="node1" class="node">
<title>Node1</title>
<g id="a_node1"><a xlink:title="MultiRenderTarget for GL ES 2.x.">
<polygon fill="#999999" stroke="#666666" points="206.5,-30 60.5,-30 60.5,0 206.5,0 206.5,-30"/>
<text text-anchor="start" x="68.5" y="-18" font-family="Helvetica,sans-Serif" font-size="10.00">Ogre::GLES2FBOMultiRender</text>
<text text-anchor="middle" x="133.5" y="-7" font-family="Helvetica,sans-Serif" font-size="10.00">Target</text>
</a>
</g>
</g>
<!-- Node2 -->
<g id="node2" class="node">
<title>Node2</title>
<g id="a_node2"><a xlink:href="class_ogre_1_1_multi_render_target.html" target="_top" xlink:title="This class represents a render target that renders to multiple RenderTextures at once.">
<polygon fill="white" stroke="#666666" points="194.5,-85 72.5,-85 72.5,-66 194.5,-66 194.5,-85"/>
<text text-anchor="middle" x="133.5" y="-73" font-family="Helvetica,sans-Serif" font-size="10.00">Ogre::MultiRenderTarget</text>
</a>
</g>
</g>
<!-- Node2&#45;&gt;Node1 -->
<g id="edge1" class="edge">
<title>Node2&#45;&gt;Node1</title>
<path fill="none" stroke="#63b8ff" d="M133.5,-54.51C133.5,-46.49 133.5,-37.43 133.5,-30.11"/>
<polygon fill="#63b8ff" stroke="#63b8ff" points="130,-54.35 133.5,-64.35 137,-54.35 130,-54.35"/>
</g>
<!-- Node3 -->
<g id="node3" class="node">
<title>Node3</title>
<g id="a_node3"><a xlink:href="class_ogre_1_1_render_target.html" target="_top" xlink:title="A &#39;canvas&#39; which can receive the results of a rendering operation.">
<polygon fill="white" stroke="#666666" points="184,-140 83,-140 83,-121 184,-121 184,-140"/>
<text text-anchor="middle" x="133.5" y="-128" font-family="Helvetica,sans-Serif" font-size="10.00">Ogre::RenderTarget</text>
</a>
</g>
</g>
<!-- Node3&#45;&gt;Node2 -->
<g id="edge2" class="edge">
<title>Node3&#45;&gt;Node2</title>
<path fill="none" stroke="#63b8ff" d="M133.5,-109.35C133.5,-101.1 133.5,-91.97 133.5,-85.44"/>
<polygon fill="#63b8ff" stroke="#63b8ff" points="130,-109.23 133.5,-119.23 137,-109.23 130,-109.23"/>
</g>
<!-- Node4 -->
<g id="node4" class="node">
<title>Node4</title>
<g id="a_node4"><a xlink:href="struct_ogre_1_1_gpu_tracked_resource.html" target="_top" xlink:title=" ">
<polygon fill="white" stroke="#666666" points="137,-195 0,-195 0,-176 137,-176 137,-195"/>
<text text-anchor="middle" x="68.5" y="-183" font-family="Helvetica,sans-Serif" font-size="10.00">Ogre::GpuTrackedResource</text>
</a>
</g>
</g>
<!-- Node4&#45;&gt;Node3 -->
<g id="edge3" class="edge">
<title>Node4&#45;&gt;Node3</title>
<path fill="none" stroke="#63b8ff" d="M88.29,-168.37C99.58,-159.16 113.29,-147.98 122.64,-140.36"/>
<polygon fill="#63b8ff" stroke="#63b8ff" points="86.24,-165.52 80.7,-174.55 90.66,-170.95 86.24,-165.52"/>
</g>
<!-- Node5 -->
<g id="node5" class="node">
<title>Node5</title>
<g id="a_node5"><a xlink:href="class_ogre_1_1_allocated_object.html" target="_top" xlink:title="Superclass for all objects that wish to use custom memory allocators when their new / delete operator...">
<polygon fill="white" stroke="#666666" points="241.5,-195 155.5,-195 155.5,-176 241.5,-176 241.5,-195"/>
<text text-anchor="middle" x="198.5" y="-183" font-family="Helvetica,sans-Serif" font-size="10.00">RenderSysAlloc</text>
</a>
</g>
</g>
<!-- Node5&#45;&gt;Node3 -->
<g id="edge4" class="edge">
<title>Node5&#45;&gt;Node3</title>
<path fill="none" stroke="#63b8ff" d="M178.71,-168.37C167.42,-159.16 153.71,-147.98 144.36,-140.36"/>
<polygon fill="#63b8ff" stroke="#63b8ff" points="176.34,-170.95 186.3,-174.55 180.76,-165.52 176.34,-170.95"/>
</g>
</g>
</svg>
