<?xml version="1.0" encoding="UTF-8" standalone="no"?>
<!DOCTYPE svg PUBLIC "-//W3C//DTD SVG 1.1//EN"
 "http://www.w3.org/Graphics/SVG/1.1/DTD/svg11.dtd">
<!-- Generated by graphviz version 9.0.0 (20230911.1827)
 -->
<!-- Title: Ogre::GLES2DepthTexture Pages: 1 -->
<svg width="167pt" height="138pt"
 viewBox="0.00 0.00 167.25 137.75" xmlns="http://www.w3.org/2000/svg" xmlns:xlink="http://www.w3.org/1999/xlink">
<g id="graph0" class="graph" transform="scale(1 1) rotate(0) translate(4 133.75)">
<title>Ogre::GLES2DepthTexture</title>
<!-- Node1 -->
<g id="Node000001" class="node">
<title>Node1</title>
<g id="a_Node000001"><a xlink:title=" ">
<polygon fill="#999999" stroke="#666666" points="145,-19.25 14.25,-19.25 14.25,0 145,0 145,-19.25"/>
<text text-anchor="middle" x="79.62" y="-5.75" font-family="Helvetica,sans-Serif" font-size="10.00">Ogre::GLES2DepthTexture</text>
</a>
</g>
</g>
<!-- Node2 -->
<g id="Node000002" class="node">
<title>Node2</title>
<g id="a_Node000002"><a xlink:href="class_ogre_1_1_g_l_e_s2_texture.html" target="_top" xlink:title=" ">
<polygon fill="white" stroke="#666666" points="132.25,-74.5 27,-74.5 27,-55.25 132.25,-55.25 132.25,-74.5"/>
<text text-anchor="middle" x="79.62" y="-61" font-family="Helvetica,sans-Serif" font-size="10.00">Ogre::GLES2Texture</text>
</a>
</g>
</g>
<!-- Node2&#45;&gt;Node1 -->
<g id="edge1_Node000001_Node000002" class="edge">
<title>Node2&#45;&gt;Node1</title>
<g id="a_edge1_Node000001_Node000002"><a xlink:title=" ">
<path fill="none" stroke="#63b8ff" d="M79.62,-43.63C79.62,-35.34 79.62,-26.17 79.62,-19.61"/>
<polygon fill="#63b8ff" stroke="#63b8ff" points="76.13,-43.57 79.63,-53.57 83.13,-43.57 76.13,-43.57"/>
</a>
</g>
</g>
<!-- Node3 -->
<g id="Node000003" class="node">
<title>Node3</title>
<g id="a_Node000003"><a xlink:title=" ">
<polygon fill="white" stroke="#666666" points="159.25,-129.75 0,-129.75 0,-110.5 159.25,-110.5 159.25,-129.75"/>
<text text-anchor="middle" x="79.62" y="-116.25" font-family="Helvetica,sans-Serif" font-size="10.00">Texture MANAGED_RESOURCE</text>
</a>
</g>
</g>
<!-- Node3&#45;&gt;Node2 -->
<g id="edge2_Node000002_Node000003" class="edge">
<title>Node3&#45;&gt;Node2</title>
<g id="a_edge2_Node000002_Node000003"><a xlink:title=" ">
<path fill="none" stroke="#63b8ff" d="M79.62,-98.88C79.62,-90.59 79.62,-81.42 79.62,-74.86"/>
<polygon fill="#63b8ff" stroke="#63b8ff" points="76.13,-98.82 79.63,-108.82 83.13,-98.82 76.13,-98.82"/>
</a>
</g>
</g>
</g>
</svg>
