<?xml version="1.0" encoding="UTF-8" standalone="no"?>
<!DOCTYPE svg PUBLIC "-//W3C//DTD SVG 1.1//EN"
 "http://www.w3.org/Graphics/SVG/1.1/DTD/svg11.dtd">
<!-- Generated by graphviz version 7.0.5 (20221223.1930)
 -->
<!-- Title: Ogre::WorkQueue::RequestHandler Pages: 1 -->
<svg width="336pt" height="298pt"
 viewBox="0.00 0.00 336.00 298.00" xmlns="http://www.w3.org/2000/svg" xmlns:xlink="http://www.w3.org/1999/xlink">
<g id="graph0" class="graph" transform="scale(1 1) rotate(0) translate(4 294)">
<title>Ogre::WorkQueue::RequestHandler</title>
<!-- Node1 -->
<g id="node1" class="node">
<title>Node1</title>
<g id="a_node1"><a xlink:title="Interface definition for a handler of requests.">
<polygon fill="#999999" stroke="#666666" points="134,-153.5 0,-153.5 0,-123.5 134,-123.5 134,-153.5"/>
<text text-anchor="start" x="8" y="-141.5" font-family="Helvetica,sans-Serif" font-size="10.00">Ogre::WorkQueue::Request</text>
<text text-anchor="middle" x="67" y="-130.5" font-family="Helvetica,sans-Serif" font-size="10.00">Handler</text>
</a>
</g>
</g>
<!-- Node2 -->
<g id="node2" class="node">
<title>Node2</title>
<g id="a_node2"><a xlink:href="class_ogre_1_1_lod_work_queue_worker.html" target="_top" xlink:title="Processes requests.">
<polygon fill="white" stroke="#666666" points="319,-290 179,-290 179,-271 319,-271 319,-290"/>
<text text-anchor="middle" x="249" y="-278" font-family="Helvetica,sans-Serif" font-size="10.00">Ogre::LodWorkQueueWorker</text>
</a>
</g>
</g>
<!-- Node1&#45;&gt;Node2 -->
<g id="edge1" class="edge">
<title>Node1&#45;&gt;Node2</title>
<path fill="none" stroke="#8b1a1a" d="M81.66,-163.47C98.58,-191.96 130.11,-237.79 170,-262.5 175.2,-265.72 180.91,-268.37 186.82,-270.54"/>
<polygon fill="#8b1a1a" stroke="#8b1a1a" points="84.88,-162.06 76.86,-155.14 78.82,-165.56 84.88,-162.06"/>
</g>
<!-- Node3 -->
<g id="node3" class="node">
<title>Node3</title>
<g id="a_node3"><a xlink:href="class_ogre_1_1_page.html" target="_top" xlink:title="Page class.">
<polygon fill="white" stroke="#666666" points="281.5,-253 216.5,-253 216.5,-234 281.5,-234 281.5,-253"/>
<text text-anchor="middle" x="249" y="-241" font-family="Helvetica,sans-Serif" font-size="10.00">Ogre::Page</text>
</a>
</g>
</g>
<!-- Node1&#45;&gt;Node3 -->
<g id="edge2" class="edge">
<title>Node1&#45;&gt;Node3</title>
<path fill="none" stroke="#63b8ff" d="M89.44,-161.82C108.7,-181.39 138.69,-208.61 170,-224.5 184.29,-231.75 201.48,-236.33 216.09,-239.16"/>
<polygon fill="#63b8ff" stroke="#63b8ff" points="92.13,-159.57 82.68,-154.79 87.09,-164.43 92.13,-159.57"/>
</g>
<!-- Node4 -->
<g id="node4" class="node">
<title>Node4</title>
<g id="a_node4"><a xlink:href="class_ogre_1_1_resource_background_queue.html" target="_top" xlink:title="This class is used to perform Resource operations in a background thread.">
<polygon fill="white" stroke="#666666" points="316.5,-215.5 181.5,-215.5 181.5,-185.5 316.5,-185.5 316.5,-215.5"/>
<text text-anchor="start" x="189.5" y="-203.5" font-family="Helvetica,sans-Serif" font-size="10.00">Ogre::ResourceBackground</text>
<text text-anchor="middle" x="249" y="-192.5" font-family="Helvetica,sans-Serif" font-size="10.00">Queue</text>
</a>
</g>
</g>
<!-- Node1&#45;&gt;Node4 -->
<g id="edge3" class="edge">
<title>Node1&#45;&gt;Node4</title>
<path fill="none" stroke="#63b8ff" d="M118.04,-157.8C134.51,-163.98 152.97,-170.71 170,-176.5 178.45,-179.37 187.47,-182.28 196.26,-185.04"/>
<polygon fill="#63b8ff" stroke="#63b8ff" points="119.54,-154.63 108.94,-154.37 117.07,-161.18 119.54,-154.63"/>
</g>
<!-- Node5 -->
<g id="node5" class="node">
<title>Node5</title>
<g id="a_node5"><a xlink:href="class_ogre_1_1_terrain.html" target="_top" xlink:title="The main containing class for a chunk of terrain.">
<polygon fill="white" stroke="#666666" points="285,-167 213,-167 213,-148 285,-148 285,-167"/>
<text text-anchor="middle" x="249" y="-155" font-family="Helvetica,sans-Serif" font-size="10.00">Ogre::Terrain</text>
</a>
</g>
</g>
<!-- Node1&#45;&gt;Node5 -->
<g id="edge4" class="edge">
<title>Node1&#45;&gt;Node5</title>
<path fill="none" stroke="#63b8ff" d="M145.61,-146.69C168.99,-149.16 193.5,-151.75 212.67,-153.77"/>
<polygon fill="#63b8ff" stroke="#63b8ff" points="146.08,-143.22 135.76,-145.65 145.34,-150.18 146.08,-143.22"/>
</g>
<!-- Node6 -->
<g id="node6" class="node">
<title>Node6</title>
<g id="a_node6"><a xlink:href="class_ogre_1_1_terrain_group.html" target="_top" xlink:title="Helper class to assist you in managing multiple terrain instances that are connected to each other.">
<polygon fill="white" stroke="#666666" points="298,-130 200,-130 200,-111 298,-111 298,-130"/>
<text text-anchor="middle" x="249" y="-118" font-family="Helvetica,sans-Serif" font-size="10.00">Ogre::TerrainGroup</text>
</a>
</g>
</g>
<!-- Node1&#45;&gt;Node6 -->
<g id="edge5" class="edge">
<title>Node1&#45;&gt;Node6</title>
<path fill="none" stroke="#63b8ff" d="M145.57,-130.74C163.93,-128.91 182.99,-127 199.62,-125.34"/>
<polygon fill="#63b8ff" stroke="#63b8ff" points="145.37,-127.25 135.76,-131.72 146.06,-134.21 145.37,-127.25"/>
</g>
<!-- Node7 -->
<g id="node7" class="node">
<title>Node7</title>
<g id="a_node7"><a xlink:href="class_ogre_1_1_terrain_lod_manager.html" target="_top" xlink:title="Terrain LOD data manager.">
<polygon fill="white" stroke="#666666" points="312,-93 186,-93 186,-74 312,-74 312,-93"/>
<text text-anchor="middle" x="249" y="-81" font-family="Helvetica,sans-Serif" font-size="10.00">Ogre::TerrainLodManager</text>
</a>
</g>
</g>
<!-- Node1&#45;&gt;Node7 -->
<g id="edge6" class="edge">
<title>Node1&#45;&gt;Node7</title>
<path fill="none" stroke="#63b8ff" d="M119.66,-119.14C135.68,-113.44 153.47,-107.42 170,-102.5 180.82,-99.28 192.6,-96.2 203.65,-93.49"/>
<polygon fill="#63b8ff" stroke="#63b8ff" points="118.53,-115.82 110.31,-122.5 120.9,-122.41 118.53,-115.82"/>
</g>
<!-- Node8 -->
<g id="node8" class="node">
<title>Node8</title>
<g id="a_node8"><a xlink:href="class_ogre_1_1_terrain_paged_world_section.html" target="_top" xlink:title="A world section which includes paged terrain.">
<polygon fill="white" stroke="#666666" points="328,-56 170,-56 170,-37 328,-37 328,-56"/>
<text text-anchor="middle" x="249" y="-44" font-family="Helvetica,sans-Serif" font-size="10.00">Ogre::TerrainPagedWorldSection</text>
</a>
</g>
</g>
<!-- Node1&#45;&gt;Node8 -->
<g id="edge7" class="edge">
<title>Node1&#45;&gt;Node8</title>
<path fill="none" stroke="#63b8ff" d="M93.76,-115.78C113.41,-99.57 141.81,-78.43 170,-65.5 177.85,-61.9 186.48,-58.93 195.04,-56.49"/>
<polygon fill="#63b8ff" stroke="#63b8ff" points="91.67,-112.97 86.28,-122.09 96.18,-118.32 91.67,-112.97"/>
</g>
<!-- Node9 -->
<g id="node9" class="node">
<title>Node9</title>
<g id="a_node9"><a xlink:href="class_ogre_1_1_volume_1_1_chunk_handler.html" target="_top" xlink:title="Handles the WorkQueue management of the chunks.">
<polygon fill="white" stroke="#666666" points="319.5,-19 178.5,-19 178.5,0 319.5,0 319.5,-19"/>
<text text-anchor="middle" x="249" y="-7" font-family="Helvetica,sans-Serif" font-size="10.00">Ogre::Volume::ChunkHandler</text>
</a>
</g>
</g>
<!-- Node1&#45;&gt;Node9 -->
<g id="edge8" class="edge">
<title>Node1&#45;&gt;Node9</title>
<path fill="none" stroke="#63b8ff" d="M84.3,-113.75C102.27,-88.45 133.52,-49.92 170,-28.5 176.25,-24.83 183.18,-21.87 190.25,-19.47"/>
<polygon fill="#63b8ff" stroke="#63b8ff" points="81.53,-111.59 78.72,-121.81 87.29,-115.57 81.53,-111.59"/>
</g>
</g>
</svg>
