<?xml version="1.0" encoding="UTF-8" standalone="no"?>
<!DOCTYPE svg PUBLIC "-//W3C//DTD SVG 1.1//EN"
 "http://www.w3.org/Graphics/SVG/1.1/DTD/svg11.dtd">
<!-- Generated by graphviz version 7.0.5 (20221223.1930)
 -->
<!-- Title: Ogre::RTShader::Parameter Pages: 1 -->
<svg width="358pt" height="148pt"
 viewBox="0.00 0.00 357.50 148.00" xmlns="http://www.w3.org/2000/svg" xmlns:xlink="http://www.w3.org/1999/xlink">
<g id="graph0" class="graph" transform="scale(1 1) rotate(0) translate(4 144)">
<title>Ogre::RTShader::Parameter</title>
<!-- Node1 -->
<g id="node1" class="node">
<title>Node1</title>
<g id="a_node1"><a xlink:title="A class that represents a shader based program parameter.">
<polygon fill="#999999" stroke="#666666" points="240,-85 105,-85 105,-66 240,-66 240,-85"/>
<text text-anchor="middle" x="172.5" y="-73" font-family="Helvetica,sans-Serif" font-size="10.00">Ogre::RTShader::Parameter</text>
</a>
</g>
</g>
<!-- Node3 -->
<g id="node3" class="node">
<title>Node3</title>
<g id="a_node3"><a xlink:href="class_ogre_1_1_r_t_shader_1_1_const_parameter.html" target="_top" xlink:title="Helper template which is the base for our ConstParameters.">
<polygon fill="white" stroke="#666666" points="161,-30 0,-30 0,0 161,0 161,-30"/>
<text text-anchor="start" x="8" y="-18" font-family="Helvetica,sans-Serif" font-size="10.00">Ogre::RTShader::ConstParameter</text>
<text text-anchor="middle" x="80.5" y="-7" font-family="Helvetica,sans-Serif" font-size="10.00">&lt; valueType &gt;</text>
</a>
</g>
</g>
<!-- Node1&#45;&gt;Node3 -->
<g id="edge2" class="edge">
<title>Node1&#45;&gt;Node3</title>
<path fill="none" stroke="#63b8ff" d="M149.05,-59.59C134.97,-50.64 117.15,-39.3 103.21,-30.44"/>
<polygon fill="#63b8ff" stroke="#63b8ff" points="146.93,-62.39 157.25,-64.8 150.69,-56.48 146.93,-62.39"/>
</g>
<!-- Node4 -->
<g id="node4" class="node">
<title>Node4</title>
<g id="a_node4"><a xlink:href="class_ogre_1_1_r_t_shader_1_1_uniform_parameter.html" target="_top" xlink:title="Uniform parameter class.">
<polygon fill="white" stroke="#666666" points="349.5,-24.5 179.5,-24.5 179.5,-5.5 349.5,-5.5 349.5,-24.5"/>
<text text-anchor="middle" x="264.5" y="-12.5" font-family="Helvetica,sans-Serif" font-size="10.00">Ogre::RTShader::UniformParameter</text>
</a>
</g>
</g>
<!-- Node1&#45;&gt;Node4 -->
<g id="edge3" class="edge">
<title>Node1&#45;&gt;Node4</title>
<path fill="none" stroke="#63b8ff" d="M195.85,-59.66C213.05,-48.72 235.89,-34.19 250.4,-24.97"/>
<polygon fill="#63b8ff" stroke="#63b8ff" points="194.31,-56.48 187.75,-64.8 198.07,-62.39 194.31,-56.48"/>
</g>
<!-- Node2 -->
<g id="node2" class="node">
<title>Node2</title>
<g id="a_node2"><a xlink:href="class_ogre_1_1_allocated_object.html" target="_top" xlink:title="Superclass for all objects that wish to use custom memory allocators when their new / delete operator...">
<polygon fill="white" stroke="#666666" points="230,-140 115,-140 115,-121 230,-121 230,-140"/>
<text text-anchor="middle" x="172.5" y="-128" font-family="Helvetica,sans-Serif" font-size="10.00">RTShaderSystemAlloc</text>
</a>
</g>
</g>
<!-- Node2&#45;&gt;Node1 -->
<g id="edge1" class="edge">
<title>Node2&#45;&gt;Node1</title>
<path fill="none" stroke="#63b8ff" d="M172.5,-109.35C172.5,-101.1 172.5,-91.97 172.5,-85.44"/>
<polygon fill="#63b8ff" stroke="#63b8ff" points="169,-109.23 172.5,-119.23 176,-109.23 169,-109.23"/>
</g>
</g>
</svg>
