<?xml version="1.0" encoding="UTF-8" standalone="no"?>
<!DOCTYPE svg PUBLIC "-//W3C//DTD SVG 1.1//EN"
 "http://www.w3.org/Graphics/SVG/1.1/DTD/svg11.dtd">
<!-- Generated by graphviz version 7.0.5 (20221223.1930)
 -->
<!-- Title: Ogre::TerrainMaterialGeneratorA::SM2Profile Pages: 1 -->
<svg width="157pt" height="159pt"
 viewBox="0.00 0.00 157.00 159.00" xmlns="http://www.w3.org/2000/svg" xmlns:xlink="http://www.w3.org/1999/xlink">
<g id="graph0" class="graph" transform="scale(1 1) rotate(0) translate(4 155)">
<title>Ogre::TerrainMaterialGeneratorA::SM2Profile</title>
<!-- Node1 -->
<g id="node1" class="node">
<title>Node1</title>
<g id="a_node1"><a xlink:title="Shader model 2 profile target.">
<polygon fill="#999999" stroke="#666666" points="149,-30 0,-30 0,0 149,0 149,-30"/>
<text text-anchor="start" x="8" y="-18" font-family="Helvetica,sans-Serif" font-size="10.00">Ogre::TerrainMaterialGenerator</text>
<text text-anchor="middle" x="74.5" y="-7" font-family="Helvetica,sans-Serif" font-size="10.00">A::SM2Profile</text>
</a>
</g>
</g>
<!-- Node2 -->
<g id="node2" class="node">
<title>Node2</title>
<g id="a_node2"><a xlink:href="class_ogre_1_1_terrain_material_generator_1_1_profile.html" target="_top" xlink:title="Inner class which should also be subclassed to provide profile&#45;specific material generation.">
<polygon fill="white" stroke="#666666" points="149,-96 0,-96 0,-66 149,-66 149,-96"/>
<text text-anchor="start" x="8" y="-84" font-family="Helvetica,sans-Serif" font-size="10.00">Ogre::TerrainMaterialGenerator</text>
<text text-anchor="middle" x="74.5" y="-73" font-family="Helvetica,sans-Serif" font-size="10.00">::Profile</text>
</a>
</g>
</g>
<!-- Node2&#45;&gt;Node1 -->
<g id="edge1" class="edge">
<title>Node2&#45;&gt;Node1</title>
<path fill="none" stroke="#63b8ff" d="M74.5,-54.39C74.5,-46.13 74.5,-37.28 74.5,-30.16"/>
<polygon fill="#63b8ff" stroke="#63b8ff" points="71,-54.28 74.5,-64.28 78,-54.28 71,-54.28"/>
</g>
<!-- Node3 -->
<g id="node3" class="node">
<title>Node3</title>
<g id="a_node3"><a xlink:href="class_ogre_1_1_allocated_object.html" target="_top" xlink:title="Superclass for all objects that wish to use custom memory allocators when their new / delete operator...">
<polygon fill="white" stroke="#666666" points="108.5,-151 40.5,-151 40.5,-132 108.5,-132 108.5,-151"/>
<text text-anchor="middle" x="74.5" y="-139" font-family="Helvetica,sans-Serif" font-size="10.00">TerrainAlloc</text>
</a>
</g>
</g>
<!-- Node3&#45;&gt;Node2 -->
<g id="edge2" class="edge">
<title>Node3&#45;&gt;Node2</title>
<path fill="none" stroke="#63b8ff" d="M74.5,-120.51C74.5,-112.49 74.5,-103.43 74.5,-96.11"/>
<polygon fill="#63b8ff" stroke="#63b8ff" points="71,-120.35 74.5,-130.35 78,-120.35 71,-120.35"/>
</g>
</g>
</svg>
