<?xml version="1.0" encoding="UTF-8" standalone="no"?>
<!DOCTYPE svg PUBLIC "-//W3C//DTD SVG 1.1//EN"
 "http://www.w3.org/Graphics/SVG/1.1/DTD/svg11.dtd">
<!-- Generated by graphviz version 7.0.5 (20221223.1930)
 -->
<!-- Title: Ogre::D3D9Resource Pages: 1 -->
<svg width="506pt" height="253pt"
 viewBox="0.00 0.00 506.00 253.00" xmlns="http://www.w3.org/2000/svg" xmlns:xlink="http://www.w3.org/1999/xlink">
<g id="graph0" class="graph" transform="scale(1 1) rotate(0) translate(4 249)">
<title>Ogre::D3D9Resource</title>
<!-- Node1 -->
<g id="node1" class="node">
<title>Node1</title>
<g id="a_node1"><a xlink:title="Represents a Direct3D rendering resource.">
<polygon fill="#999999" stroke="#666666" points="107,-123 0,-123 0,-104 107,-104 107,-123"/>
<text text-anchor="middle" x="53.5" y="-111" font-family="Helvetica,sans-Serif" font-size="10.00">Ogre::D3D9Resource</text>
</a>
</g>
</g>
<!-- Node2 -->
<g id="node2" class="node">
<title>Node2</title>
<g id="a_node2"><a xlink:href="class_ogre_1_1_d3_d9_gpu_program.html" target="_top" xlink:title="Direct3D implementation of a few things common to low&#45;level vertex &amp; fragment programs.">
<polygon fill="white" stroke="#666666" points="282,-227 161,-227 161,-208 282,-208 282,-227"/>
<text text-anchor="middle" x="221.5" y="-215" font-family="Helvetica,sans-Serif" font-size="10.00">Ogre::D3D9GpuProgram</text>
</a>
</g>
</g>
<!-- Node1&#45;&gt;Node2 -->
<g id="edge1" class="edge">
<title>Node1&#45;&gt;Node2</title>
<path fill="none" stroke="#63b8ff" d="M68.89,-132.24C84.88,-151.74 112.5,-181.73 143,-198.5 149.68,-202.17 157.06,-205.14 164.54,-207.54"/>
<polygon fill="#63b8ff" stroke="#63b8ff" points="71.73,-130.19 62.77,-124.55 66.26,-134.55 71.73,-130.19"/>
</g>
<!-- Node5 -->
<g id="node5" class="node">
<title>Node5</title>
<g id="a_node5"><a xlink:href="class_ogre_1_1_d3_d9_hardware_index_buffer.html" target="_top" xlink:title=" ">
<polygon fill="white" stroke="#666666" points="300,-190 143,-190 143,-171 300,-171 300,-190"/>
<text text-anchor="middle" x="221.5" y="-178" font-family="Helvetica,sans-Serif" font-size="10.00">Ogre::D3D9HardwareIndexBuffer</text>
</a>
</g>
</g>
<!-- Node1&#45;&gt;Node5 -->
<g id="edge4" class="edge">
<title>Node1&#45;&gt;Node5</title>
<path fill="none" stroke="#63b8ff" d="M79.26,-129.17C96.57,-139.55 120.51,-152.81 143,-161.5 152.05,-164.99 161.94,-168 171.54,-170.52"/>
<polygon fill="#63b8ff" stroke="#63b8ff" points="81.55,-126.46 71.19,-124.23 77.9,-132.44 81.55,-126.46"/>
</g>
<!-- Node6 -->
<g id="node6" class="node">
<title>Node6</title>
<g id="a_node6"><a xlink:href="class_ogre_1_1_d3_d9_hardware_occlusion_query.html" target="_top" xlink:title="This is a class that is the DirectX9 implementation of hardware occlusion testing.">
<polygon fill="white" stroke="#666666" points="297.5,-152.5 145.5,-152.5 145.5,-122.5 297.5,-122.5 297.5,-152.5"/>
<text text-anchor="start" x="153.5" y="-140.5" font-family="Helvetica,sans-Serif" font-size="10.00">Ogre::D3D9HardwareOcclusion</text>
<text text-anchor="middle" x="221.5" y="-129.5" font-family="Helvetica,sans-Serif" font-size="10.00">Query</text>
</a>
</g>
</g>
<!-- Node1&#45;&gt;Node6 -->
<g id="edge5" class="edge">
<title>Node1&#45;&gt;Node6</title>
<path fill="none" stroke="#63b8ff" d="M118.64,-122.77C127.28,-124.02 136.21,-125.31 145.03,-126.59"/>
<polygon fill="#63b8ff" stroke="#63b8ff" points="119.38,-119.34 108.98,-121.38 118.37,-126.27 119.38,-119.34"/>
</g>
<!-- Node7 -->
<g id="node7" class="node">
<title>Node7</title>
<g id="a_node7"><a xlink:href="class_ogre_1_1_d3_d9_hardware_vertex_buffer.html" target="_top" xlink:title="Specialisation of HardwareVertexBuffer for D3D9.">
<polygon fill="white" stroke="#666666" points="289.5,-104.5 153.5,-104.5 153.5,-74.5 289.5,-74.5 289.5,-104.5"/>
<text text-anchor="start" x="161.5" y="-92.5" font-family="Helvetica,sans-Serif" font-size="10.00">Ogre::D3D9HardwareVertex</text>
<text text-anchor="middle" x="221.5" y="-81.5" font-family="Helvetica,sans-Serif" font-size="10.00">Buffer</text>
</a>
</g>
</g>
<!-- Node1&#45;&gt;Node7 -->
<g id="edge6" class="edge">
<title>Node1&#45;&gt;Node7</title>
<path fill="none" stroke="#63b8ff" d="M118.6,-104.23C129.92,-102.6 141.73,-100.89 153.14,-99.24"/>
<polygon fill="#63b8ff" stroke="#63b8ff" points="118.37,-100.73 108.98,-105.62 119.38,-107.66 118.37,-100.73"/>
</g>
<!-- Node8 -->
<g id="node8" class="node">
<title>Node8</title>
<g id="a_node8"><a xlink:href="class_ogre_1_1_d3_d9_texture.html" target="_top" xlink:title=" ">
<polygon fill="white" stroke="#666666" points="270.5,-56 172.5,-56 172.5,-37 270.5,-37 270.5,-56"/>
<text text-anchor="middle" x="221.5" y="-44" font-family="Helvetica,sans-Serif" font-size="10.00">Ogre::D3D9Texture</text>
</a>
</g>
</g>
<!-- Node1&#45;&gt;Node8 -->
<g id="edge7" class="edge">
<title>Node1&#45;&gt;Node8</title>
<path fill="none" stroke="#63b8ff" d="M79.26,-97.83C96.57,-87.45 120.51,-74.19 143,-65.5 152.3,-61.91 162.51,-58.83 172.36,-56.27"/>
<polygon fill="#63b8ff" stroke="#63b8ff" points="77.9,-94.56 71.19,-102.77 81.55,-100.54 77.9,-94.56"/>
</g>
<!-- Node9 -->
<g id="node9" class="node">
<title>Node9</title>
<g id="a_node9"><a xlink:href="class_ogre_1_1_d3_d9_vertex_declaration.html" target="_top" xlink:title="Specialisation of VertexDeclaration for D3D9.">
<polygon fill="white" stroke="#666666" points="293,-19 150,-19 150,0 293,0 293,-19"/>
<text text-anchor="middle" x="221.5" y="-7" font-family="Helvetica,sans-Serif" font-size="10.00">Ogre::D3D9VertexDeclaration</text>
</a>
</g>
</g>
<!-- Node1&#45;&gt;Node9 -->
<g id="edge8" class="edge">
<title>Node1&#45;&gt;Node9</title>
<path fill="none" stroke="#63b8ff" d="M68.55,-94.78C84.43,-74.99 112.11,-44.36 143,-27.5 148.94,-24.26 155.45,-21.6 162.08,-19.41"/>
<polygon fill="#63b8ff" stroke="#63b8ff" points="65.87,-92.52 62.49,-102.56 71.39,-96.82 65.87,-92.52"/>
</g>
<!-- Node3 -->
<g id="node3" class="node">
<title>Node3</title>
<g id="a_node3"><a xlink:href="class_ogre_1_1_d3_d9_gpu_fragment_program.html" target="_top" xlink:title="Direct3D implementation of low&#45;level fragment programs.">
<polygon fill="white" stroke="#666666" points="498,-245 336,-245 336,-226 498,-226 498,-245"/>
<text text-anchor="middle" x="417" y="-233" font-family="Helvetica,sans-Serif" font-size="10.00">Ogre::D3D9GpuFragmentProgram</text>
</a>
</g>
</g>
<!-- Node2&#45;&gt;Node3 -->
<g id="edge2" class="edge">
<title>Node2&#45;&gt;Node3</title>
<path fill="none" stroke="#63b8ff" d="M293.7,-224.12C307.38,-225.4 321.81,-226.74 335.76,-228.04"/>
<polygon fill="#63b8ff" stroke="#63b8ff" points="294.19,-220.65 283.91,-223.21 293.54,-227.62 294.19,-220.65"/>
</g>
<!-- Node4 -->
<g id="node4" class="node">
<title>Node4</title>
<g id="a_node4"><a xlink:href="class_ogre_1_1_d3_d9_gpu_vertex_program.html" target="_top" xlink:title="Direct3D implementation of low&#45;level vertex programs.">
<polygon fill="white" stroke="#666666" points="491.5,-208 342.5,-208 342.5,-189 491.5,-189 491.5,-208"/>
<text text-anchor="middle" x="417" y="-196" font-family="Helvetica,sans-Serif" font-size="10.00">Ogre::D3D9GpuVertexProgram</text>
</a>
</g>
</g>
<!-- Node2&#45;&gt;Node4 -->
<g id="edge3" class="edge">
<title>Node2&#45;&gt;Node4</title>
<path fill="none" stroke="#63b8ff" d="M293.68,-210.51C309.45,-208.96 326.19,-207.32 342.06,-205.76"/>
<polygon fill="#63b8ff" stroke="#63b8ff" points="293.52,-207.01 283.91,-211.47 294.2,-213.98 293.52,-207.01"/>
</g>
</g>
</svg>
