<?xml version="1.0" encoding="UTF-8" standalone="no"?>
<!DOCTYPE svg PUBLIC "-//W3C//DTD SVG 1.1//EN"
 "http://www.w3.org/Graphics/SVG/1.1/DTD/svg11.dtd">
<!-- Generated by graphviz version 7.0.5 (20221223.1930)
 -->
<!-- Title: Ogre::HlmsDatablock Pages: 1 -->
<svg width="408pt" height="150pt"
 viewBox="0.00 0.00 408.00 149.50" xmlns="http://www.w3.org/2000/svg" xmlns:xlink="http://www.w3.org/1999/xlink">
<g id="graph0" class="graph" transform="scale(1 1) rotate(0) translate(4 145.5)">
<title>Ogre::HlmsDatablock</title>
<!-- Node1 -->
<g id="node1" class="node">
<title>Node1</title>
<g id="a_node1"><a xlink:title="An hlms datablock contains individual information about a specific material.">
<polygon fill="#999999" stroke="#666666" points="206,-85.5 97,-85.5 97,-66.5 206,-66.5 206,-85.5"/>
<text text-anchor="middle" x="151.5" y="-73.5" font-family="Helvetica,sans-Serif" font-size="10.00">Ogre::HlmsDatablock</text>
</a>
</g>
</g>
<!-- Node3 -->
<g id="node3" class="node">
<title>Node3</title>
<g id="a_node3"><a xlink:href="class_ogre_1_1_hlms_low_level_datablock.html" target="_top" xlink:title="Contains information needed by the UI (2D) for OpenGL ES 2.0.">
<polygon fill="white" stroke="#666666" points="397,-141.5 245,-141.5 245,-122.5 397,-122.5 397,-141.5"/>
<text text-anchor="middle" x="321" y="-129.5" font-family="Helvetica,sans-Serif" font-size="10.00">Ogre::HlmsLowLevelDatablock</text>
</a>
</g>
</g>
<!-- Node1&#45;&gt;Node3 -->
<g id="edge2" class="edge">
<title>Node1&#45;&gt;Node3</title>
<path fill="none" stroke="#63b8ff" d="M183.52,-90.76C200.52,-98.43 222.11,-107.54 242,-114 251.25,-117.01 261.28,-119.71 270.96,-122.06"/>
<polygon fill="#63b8ff" stroke="#63b8ff" points="185.01,-87.59 174.46,-86.59 182.08,-93.95 185.01,-87.59"/>
</g>
<!-- Node4 -->
<g id="node4" class="node">
<title>Node4</title>
<g id="a_node4"><a xlink:href="class_ogre_1_1_hlms_pbs_mobile_datablock.html" target="_top" xlink:title="Contains information needed by PBS (Physically Based Shading) for OpenGL ES 2.0.">
<polygon fill="white" stroke="#666666" points="398.5,-104.5 243.5,-104.5 243.5,-85.5 398.5,-85.5 398.5,-104.5"/>
<text text-anchor="middle" x="321" y="-92.5" font-family="Helvetica,sans-Serif" font-size="10.00">Ogre::HlmsPbsMobileDatablock</text>
</a>
</g>
</g>
<!-- Node1&#45;&gt;Node4 -->
<g id="edge3" class="edge">
<title>Node1&#45;&gt;Node4</title>
<path fill="none" stroke="#63b8ff" d="M217.59,-83.38C225.92,-84.33 234.51,-85.3 243,-86.27"/>
<polygon fill="#63b8ff" stroke="#63b8ff" points="218.25,-79.94 207.92,-82.29 217.47,-86.89 218.25,-79.94"/>
</g>
<!-- Node5 -->
<g id="node5" class="node">
<title>Node5</title>
<g id="a_node5"><a xlink:href="class_ogre_1_1_hlms_unlit_mobile_datablock.html" target="_top" xlink:title="Contains information needed by the UI (2D) for OpenGL ES 2.0.">
<polygon fill="white" stroke="#666666" points="400,-67.5 242,-67.5 242,-48.5 400,-48.5 400,-67.5"/>
<text text-anchor="middle" x="321" y="-55.5" font-family="Helvetica,sans-Serif" font-size="10.00">Ogre::HlmsUnlitMobileDatablock</text>
</a>
</g>
</g>
<!-- Node1&#45;&gt;Node5 -->
<g id="edge4" class="edge">
<title>Node1&#45;&gt;Node5</title>
<path fill="none" stroke="#63b8ff" d="M217.76,-68.99C225.64,-68.14 233.75,-67.27 241.79,-66.41"/>
<polygon fill="#63b8ff" stroke="#63b8ff" points="217.49,-65.5 207.92,-70.04 218.24,-72.46 217.49,-65.5"/>
</g>
<!-- Node6 -->
<g id="node6" class="node">
<title>Node6</title>
<g id="a_node6"><a xlink:href="class_ogre_1_1_o_g_r_e___h_l_m_s___t_e_x_t_u_r_e___b_a_s_e___c_l_a_s_s.html" target="_top" xlink:title="This is not a regular header, therefore it has no include guards.">
<polygon fill="white" stroke="#666666" points="398,-30 244,-30 244,0 398,0 398,-30"/>
<text text-anchor="start" x="252" y="-18" font-family="Helvetica,sans-Serif" font-size="10.00">Ogre::OGRE_HLMS_TEXTURE</text>
<text text-anchor="middle" x="321" y="-7" font-family="Helvetica,sans-Serif" font-size="10.00">_BASE_CLASS</text>
</a>
</g>
</g>
<!-- Node1&#45;&gt;Node6 -->
<g id="edge5" class="edge">
<title>Node1&#45;&gt;Node6</title>
<path fill="none" stroke="#63b8ff" d="M185.12,-61.65C201.96,-54.47 222.92,-45.86 242,-39 250.13,-36.08 258.82,-33.18 267.33,-30.47"/>
<polygon fill="#63b8ff" stroke="#63b8ff" points="183.9,-58.37 176.1,-65.54 186.67,-64.8 183.9,-58.37"/>
</g>
<!-- Node2 -->
<g id="node2" class="node">
<title>Node2</title>
<g id="a_node2"><a xlink:href="class_ogre_1_1_allocated_object.html" target="_top" xlink:title="Superclass for all objects that wish to use custom memory allocators when their new / delete operator...">
<polygon fill="white" stroke="#666666" points="61,-85.5 0,-85.5 0,-66.5 61,-66.5 61,-85.5"/>
<text text-anchor="middle" x="30.5" y="-73.5" font-family="Helvetica,sans-Serif" font-size="10.00">PassAlloc</text>
</a>
</g>
</g>
<!-- Node2&#45;&gt;Node1 -->
<g id="edge1" class="edge">
<title>Node2&#45;&gt;Node1</title>
<path fill="none" stroke="#63b8ff" d="M72.56,-76C80.31,-76 88.53,-76 96.61,-76"/>
<polygon fill="#63b8ff" stroke="#63b8ff" points="72.74,-72.5 62.74,-76 72.74,-79.5 72.74,-72.5"/>
</g>
</g>
</svg>
