<?xml version="1.0" encoding="UTF-8" standalone="no"?>
<!DOCTYPE svg PUBLIC "-//W3C//DTD SVG 1.1//EN"
 "http://www.w3.org/Graphics/SVG/1.1/DTD/svg11.dtd">
<!-- Generated by graphviz version 9.0.0 (20230911.1827)
 -->
<!-- Title: Ogre::OGRE_HLMS_TEXTURE_BASE_CLASS Pages: 1 -->
<svg width="413pt" height="149pt"
 viewBox="0.00 0.00 412.62 149.00" xmlns="http://www.w3.org/2000/svg" xmlns:xlink="http://www.w3.org/1999/xlink">
<g id="graph0" class="graph" transform="scale(1 1) rotate(0) translate(4 145)">
<title>Ogre::OGRE_HLMS_TEXTURE_BASE_CLASS</title>
<!-- Node1 -->
<g id="Node000001" class="node">
<title>Node1</title>
<g id="a_Node000001"><a xlink:title="This is not a regular header, therefore it has no include guards.">
<polygon fill="#999999" stroke="#666666" points="269.75,-30.5 116.5,-30.5 116.5,0 269.75,0 269.75,-30.5"/>
<text text-anchor="start" x="124.5" y="-17" font-family="Helvetica,sans-Serif" font-size="10.00">Ogre::OGRE_HLMS_TEXTURE</text>
<text text-anchor="middle" x="193.12" y="-5.75" font-family="Helvetica,sans-Serif" font-size="10.00">_BASE_CLASS</text>
</a>
</g>
</g>
<!-- Node2 -->
<g id="Node000002" class="node">
<title>Node2</title>
<g id="a_Node000002"><a xlink:href="class_ogre_1_1_hlms_datablock.html" target="_top" xlink:title="An hlms datablock contains individual information about a specific material.">
<polygon fill="white" stroke="#666666" points="108.25,-85.75 0,-85.75 0,-66.5 108.25,-66.5 108.25,-85.75"/>
<text text-anchor="middle" x="54.12" y="-72.25" font-family="Helvetica,sans-Serif" font-size="10.00">Ogre::HlmsDatablock</text>
</a>
</g>
</g>
<!-- Node2&#45;&gt;Node1 -->
<g id="edge1_Node000001_Node000002" class="edge">
<title>Node2&#45;&gt;Node1</title>
<g id="a_edge1_Node000001_Node000002"><a xlink:title=" ">
<path fill="none" stroke="#63b8ff" d="M85.85,-61.69C107.5,-52.52 136.17,-40.37 158.43,-30.94"/>
<polygon fill="#63b8ff" stroke="#63b8ff" points="84.78,-58.34 76.93,-65.46 87.51,-64.79 84.78,-58.34"/>
</a>
</g>
</g>
<!-- Node3 -->
<g id="Node000003" class="node">
<title>Node3</title>
<g id="a_Node000003"><a xlink:href="class_ogre_1_1_allocated_object.html" target="_top" xlink:title="Superclass for all objects that wish to use custom memory allocators when their new / delete operator...">
<polygon fill="white" stroke="#666666" points="84.25,-141 24,-141 24,-121.75 84.25,-121.75 84.25,-141"/>
<text text-anchor="middle" x="54.12" y="-127.5" font-family="Helvetica,sans-Serif" font-size="10.00">PassAlloc</text>
</a>
</g>
</g>
<!-- Node3&#45;&gt;Node2 -->
<g id="edge2_Node000002_Node000003" class="edge">
<title>Node3&#45;&gt;Node2</title>
<g id="a_edge2_Node000002_Node000003"><a xlink:title=" ">
<path fill="none" stroke="#63b8ff" d="M54.12,-110.13C54.12,-101.84 54.12,-92.67 54.12,-86.11"/>
<polygon fill="#63b8ff" stroke="#63b8ff" points="50.63,-110.07 54.13,-120.07 57.63,-110.07 50.63,-110.07"/>
</a>
</g>
</g>
<!-- Node4 -->
<g id="Node000004" class="node">
<title>Node4</title>
<g id="a_Node000004"><a xlink:href="class_ogre_1_1_const_buffer_pool_user.html" target="_top" xlink:title=" ">
<polygon fill="white" stroke="#666666" points="259.62,-85.75 126.62,-85.75 126.62,-66.5 259.62,-66.5 259.62,-85.75"/>
<text text-anchor="middle" x="193.12" y="-72.25" font-family="Helvetica,sans-Serif" font-size="10.00">Ogre::ConstBufferPoolUser</text>
</a>
</g>
</g>
<!-- Node4&#45;&gt;Node1 -->
<g id="edge3_Node000001_Node000004" class="edge">
<title>Node4&#45;&gt;Node1</title>
<g id="a_edge3_Node000001_Node000004"><a xlink:title=" ">
<path fill="none" stroke="#63b8ff" d="M193.12,-54.92C193.12,-46.99 193.12,-38.06 193.12,-30.78"/>
<polygon fill="#63b8ff" stroke="#63b8ff" points="189.63,-54.67 193.13,-64.67 196.63,-54.67 189.63,-54.67"/>
</a>
</g>
</g>
<!-- Node5 -->
<g id="Node000005" class="node">
<title>Node5</title>
<g id="a_Node000005"><a xlink:href="class_ogre_1_1_texture_gpu_listener.html" target="_top" xlink:title=" ">
<polygon fill="white" stroke="#666666" points="404.62,-85.75 277.62,-85.75 277.62,-66.5 404.62,-66.5 404.62,-85.75"/>
<text text-anchor="middle" x="341.12" y="-72.25" font-family="Helvetica,sans-Serif" font-size="10.00">Ogre::TextureGpuListener</text>
</a>
</g>
</g>
<!-- Node5&#45;&gt;Node1 -->
<g id="edge4_Node000001_Node000005" class="edge">
<title>Node5&#45;&gt;Node1</title>
<g id="a_edge4_Node000001_Node000005"><a xlink:title=" ">
<path fill="none" stroke="#63b8ff" d="M307.67,-61.81C284.58,-52.63 253.87,-40.42 230.06,-30.94"/>
<polygon fill="#63b8ff" stroke="#63b8ff" points="306.33,-65.05 316.92,-65.5 308.92,-58.55 306.33,-65.05"/>
</a>
</g>
</g>
</g>
</svg>
