<?xml version="1.0" encoding="UTF-8" standalone="no"?>
<!DOCTYPE svg PUBLIC "-//W3C//DTD SVG 1.1//EN"
 "http://www.w3.org/Graphics/SVG/1.1/DTD/svg11.dtd">
<!-- Generated by graphviz version 2.44.0 ()
 -->
<!-- Title: Ogre::Win32EGLContext Pages: 1 -->
<svg width="246pt" height="140pt"
 viewBox="0.00 0.00 246.00 140.00" xmlns="http://www.w3.org/2000/svg" xmlns:xlink="http://www.w3.org/1999/xlink">
<g id="graph0" class="graph" transform="scale(1 1) rotate(0) translate(4 136)">
<title>Ogre::Win32EGLContext</title>
<!-- Node1 -->
<g id="node1" class="node">
<title>Node1</title>
<g id="a_node1"><a xlink:title=" ">
<polygon fill="#bfbfbf" stroke="black" points="59.5,-0.5 59.5,-19.5 181.5,-19.5 181.5,-0.5 59.5,-0.5"/>
<text text-anchor="middle" x="120.5" y="-7.5" font-family="Helvetica,sans-Serif" font-size="10.00">Ogre::Win32EGLContext</text>
</a>
</g>
</g>
<!-- Node2 -->
<g id="node2" class="node">
<title>Node2</title>
<g id="a_node2"><a xlink:href="class_ogre_1_1_e_g_l_context.html" target="_top" xlink:title=" ">
<polygon fill="none" stroke="black" points="73,-56.5 73,-75.5 168,-75.5 168,-56.5 73,-56.5"/>
<text text-anchor="middle" x="120.5" y="-63.5" font-family="Helvetica,sans-Serif" font-size="10.00">Ogre::EGLContext</text>
</a>
</g>
</g>
<!-- Node2&#45;&gt;Node1 -->
<g id="edge1" class="edge">
<title>Node2&#45;&gt;Node1</title>
<path fill="none" stroke="midnightblue" d="M120.5,-45.8C120.5,-36.91 120.5,-26.78 120.5,-19.75"/>
<polygon fill="midnightblue" stroke="midnightblue" points="117,-46.08 120.5,-56.08 124,-46.08 117,-46.08"/>
</g>
<!-- Node3 -->
<g id="node3" class="node">
<title>Node3</title>
<g id="a_node3"><a xlink:href="class_ogre_1_1_g_l3_plus_context.html" target="_top" xlink:title="Class that encapsulates an GL context.">
<polygon fill="none" stroke="black" points="0,-112.5 0,-131.5 113,-131.5 113,-112.5 0,-112.5"/>
<text text-anchor="middle" x="56.5" y="-119.5" font-family="Helvetica,sans-Serif" font-size="10.00">Ogre::GL3PlusContext</text>
</a>
</g>
</g>
<!-- Node3&#45;&gt;Node2 -->
<g id="edge2" class="edge">
<title>Node3&#45;&gt;Node2</title>
<path fill="none" stroke="midnightblue" d="M74.49,-105.82C85.96,-96.15 100.41,-83.95 110.03,-75.83"/>
<polygon fill="midnightblue" stroke="midnightblue" points="72.17,-103.2 66.78,-112.32 76.68,-108.55 72.17,-103.2"/>
</g>
<!-- Node4 -->
<g id="node4" class="node">
<title>Node4</title>
<g id="a_node4"><a xlink:href="class_ogre_1_1_g_l_e_s2_context.html" target="_top" xlink:title="Class that encapsulates an GL context.">
<polygon fill="none" stroke="black" points="131,-112.5 131,-131.5 238,-131.5 238,-112.5 131,-112.5"/>
<text text-anchor="middle" x="184.5" y="-119.5" font-family="Helvetica,sans-Serif" font-size="10.00">Ogre::GLES2Context</text>
</a>
</g>
</g>
<!-- Node4&#45;&gt;Node2 -->
<g id="edge3" class="edge">
<title>Node4&#45;&gt;Node2</title>
<path fill="none" stroke="midnightblue" d="M166.51,-105.82C155.04,-96.15 140.59,-83.95 130.97,-75.83"/>
<polygon fill="midnightblue" stroke="midnightblue" points="164.32,-108.55 174.22,-112.32 168.83,-103.2 164.32,-108.55"/>
</g>
</g>
</svg>
