<?xml version="1.0" encoding="UTF-8" standalone="no"?>
<!DOCTYPE svg PUBLIC "-//W3C//DTD SVG 1.1//EN"
 "http://www.w3.org/Graphics/SVG/1.1/DTD/svg11.dtd">
<!-- Generated by graphviz version 9.0.0 (20230911.1827)
 -->
<!-- Title: Ogre::D3D9StereoDriverNVIDIA Pages: 1 -->
<svg width="161pt" height="138pt"
 viewBox="0.00 0.00 161.25 137.75" xmlns="http://www.w3.org/2000/svg" xmlns:xlink="http://www.w3.org/1999/xlink">
<g id="graph0" class="graph" transform="scale(1 1) rotate(0) translate(4 133.75)">
<title>Ogre::D3D9StereoDriverNVIDIA</title>
<!-- Node1 -->
<g id="Node000001" class="node">
<title>Node1</title>
<g id="a_Node000001"><a xlink:title="Interface of the NVIDIA stereo driver.">
<polygon fill="#999999" stroke="#666666" points="153.25,-19.25 0,-19.25 0,0 153.25,0 153.25,-19.25"/>
<text text-anchor="middle" x="76.62" y="-5.75" font-family="Helvetica,sans-Serif" font-size="10.00">Ogre::D3D9StereoDriverNVIDIA</text>
</a>
</g>
</g>
<!-- Node2 -->
<g id="Node000002" class="node">
<title>Node2</title>
<g id="a_Node000002"><a xlink:href="class_ogre_1_1_d3_d9_stereo_driver_impl.html" target="_top" xlink:title="Virtual interface of the stereo driver.">
<polygon fill="white" stroke="#666666" points="145.75,-74.5 7.5,-74.5 7.5,-55.25 145.75,-55.25 145.75,-74.5"/>
<text text-anchor="middle" x="76.62" y="-61" font-family="Helvetica,sans-Serif" font-size="10.00">Ogre::D3D9StereoDriverImpl</text>
</a>
</g>
</g>
<!-- Node2&#45;&gt;Node1 -->
<g id="edge1_Node000001_Node000002" class="edge">
<title>Node2&#45;&gt;Node1</title>
<g id="a_edge1_Node000001_Node000002"><a xlink:title=" ">
<path fill="none" stroke="#63b8ff" d="M76.62,-43.63C76.62,-35.34 76.62,-26.17 76.62,-19.61"/>
<polygon fill="#63b8ff" stroke="#63b8ff" points="73.13,-43.57 76.63,-53.57 80.13,-43.57 73.13,-43.57"/>
</a>
</g>
</g>
<!-- Node3 -->
<g id="Node000003" class="node">
<title>Node3</title>
<g id="a_Node000003"><a xlink:href="class_ogre_1_1_allocated_object.html" target="_top" xlink:title="Superclass for all objects that wish to use custom memory allocators when their new / delete operator...">
<polygon fill="white" stroke="#666666" points="116.12,-129.75 37.12,-129.75 37.12,-110.5 116.12,-110.5 116.12,-129.75"/>
<text text-anchor="middle" x="76.62" y="-116.25" font-family="Helvetica,sans-Serif" font-size="10.00">ResourceAlloc</text>
</a>
</g>
</g>
<!-- Node3&#45;&gt;Node2 -->
<g id="edge2_Node000002_Node000003" class="edge">
<title>Node3&#45;&gt;Node2</title>
<g id="a_edge2_Node000002_Node000003"><a xlink:title=" ">
<path fill="none" stroke="#63b8ff" d="M76.62,-98.88C76.62,-90.59 76.62,-81.42 76.62,-74.86"/>
<polygon fill="#63b8ff" stroke="#63b8ff" points="73.13,-98.82 76.63,-108.82 80.13,-98.82 73.13,-98.82"/>
</a>
</g>
</g>
</g>
</svg>
