<?xml version="1.0" encoding="UTF-8" standalone="no"?>
<!DOCTYPE svg PUBLIC "-//W3C//DTD SVG 1.1//EN"
 "http://www.w3.org/Graphics/SVG/1.1/DTD/svg11.dtd">
<!-- Generated by graphviz version 7.0.5 (20221223.1930)
 -->
<!-- Title: Ogre::v1::D3D11HardwareUniformBuffer Pages: 1 -->
<svg width="171pt" height="214pt"
 viewBox="0.00 0.00 171.00 214.00" xmlns="http://www.w3.org/2000/svg" xmlns:xlink="http://www.w3.org/1999/xlink">
<g id="graph0" class="graph" transform="scale(1 1) rotate(0) translate(4 210)">
<title>Ogre::v1::D3D11HardwareUniformBuffer</title>
<!-- Node1 -->
<g id="node1" class="node">
<title>Node1</title>
<g id="a_node1"><a xlink:title="Specialisation of HardwareBuffer for D3D11.">
<polygon fill="#999999" stroke="#666666" points="163,-30 0,-30 0,0 163,0 163,-30"/>
<text text-anchor="start" x="8" y="-18" font-family="Helvetica,sans-Serif" font-size="10.00">Ogre::v1::D3D11HardwareUniform</text>
<text text-anchor="middle" x="81.5" y="-7" font-family="Helvetica,sans-Serif" font-size="10.00">Buffer</text>
</a>
</g>
</g>
<!-- Node2 -->
<g id="node2" class="node">
<title>Node2</title>
<g id="a_node2"><a xlink:href="class_ogre_1_1v1_1_1_hardware_uniform_buffer.html" target="_top" xlink:title="Specialisation of HardwareBuffer for a uniform buffer.">
<polygon fill="white" stroke="#666666" points="148.5,-96 14.5,-96 14.5,-66 148.5,-66 148.5,-96"/>
<text text-anchor="start" x="22.5" y="-84" font-family="Helvetica,sans-Serif" font-size="10.00">Ogre::v1::HardwareUniform</text>
<text text-anchor="middle" x="81.5" y="-73" font-family="Helvetica,sans-Serif" font-size="10.00">Buffer</text>
</a>
</g>
</g>
<!-- Node2&#45;&gt;Node1 -->
<g id="edge1" class="edge">
<title>Node2&#45;&gt;Node1</title>
<path fill="none" stroke="#63b8ff" d="M81.5,-54.39C81.5,-46.13 81.5,-37.28 81.5,-30.16"/>
<polygon fill="#63b8ff" stroke="#63b8ff" points="78,-54.28 81.5,-64.28 85,-54.28 78,-54.28"/>
</g>
<!-- Node3 -->
<g id="node3" class="node">
<title>Node3</title>
<g id="a_node3"><a xlink:href="class_ogre_1_1v1_1_1_hardware_buffer.html" target="_top" xlink:title="Abstract class defining common features of hardware buffers.">
<polygon fill="white" stroke="#666666" points="144,-151 19,-151 19,-132 144,-132 144,-151"/>
<text text-anchor="middle" x="81.5" y="-139" font-family="Helvetica,sans-Serif" font-size="10.00">Ogre::v1::HardwareBuffer</text>
</a>
</g>
</g>
<!-- Node3&#45;&gt;Node2 -->
<g id="edge2" class="edge">
<title>Node3&#45;&gt;Node2</title>
<path fill="none" stroke="#63b8ff" d="M81.5,-120.51C81.5,-112.49 81.5,-103.43 81.5,-96.11"/>
<polygon fill="#63b8ff" stroke="#63b8ff" points="78,-120.35 81.5,-130.35 85,-120.35 78,-120.35"/>
</g>
<!-- Node4 -->
<g id="node4" class="node">
<title>Node4</title>
<g id="a_node4"><a xlink:href="class_ogre_1_1_allocated_object.html" target="_top" xlink:title="Superclass for all objects that wish to use custom memory allocators when their new / delete operator...">
<polygon fill="white" stroke="#666666" points="113.5,-206 49.5,-206 49.5,-187 113.5,-187 113.5,-206"/>
<text text-anchor="middle" x="81.5" y="-194" font-family="Helvetica,sans-Serif" font-size="10.00">BufferAlloc</text>
</a>
</g>
</g>
<!-- Node4&#45;&gt;Node3 -->
<g id="edge3" class="edge">
<title>Node4&#45;&gt;Node3</title>
<path fill="none" stroke="#63b8ff" d="M81.5,-175.35C81.5,-167.1 81.5,-157.97 81.5,-151.44"/>
<polygon fill="#63b8ff" stroke="#63b8ff" points="78,-175.23 81.5,-185.23 85,-175.23 78,-175.23"/>
</g>
</g>
</svg>
