<?xml version="1.0" encoding="UTF-8" standalone="no"?>
<!DOCTYPE svg PUBLIC "-//W3C//DTD SVG 1.1//EN"
 "http://www.w3.org/Graphics/SVG/1.1/DTD/svg11.dtd">
<!-- Generated by graphviz version 9.0.0 (20230911.1827)
 -->
<!-- Title: Ogre::HighLevelGpuProgramFactory Pages: 1 -->
<svg width="457pt" height="224pt"
 viewBox="0.00 0.00 456.50 223.88" xmlns="http://www.w3.org/2000/svg" xmlns:xlink="http://www.w3.org/1999/xlink">
<g id="graph0" class="graph" transform="scale(1 1) rotate(0) translate(4 219.88)">
<title>Ogre::HighLevelGpuProgramFactory</title>
<!-- Node1 -->
<g id="Node000001" class="node">
<title>Node1</title>
<g id="a_Node000001"><a xlink:title="Interface definition for factories of HighLevelGpuProgram.">
<polygon fill="#999999" stroke="#666666" points="246.5,-128.5 106,-128.5 106,-98 246.5,-98 246.5,-128.5"/>
<text text-anchor="start" x="114" y="-115" font-family="Helvetica,sans-Serif" font-size="10.00">Ogre::HighLevelGpuProgram</text>
<text text-anchor="middle" x="176.25" y="-103.75" font-family="Helvetica,sans-Serif" font-size="10.00">Factory</text>
</a>
</g>
</g>
<!-- Node3 -->
<g id="Node000003" class="node">
<title>Node3</title>
<g id="a_Node000003"><a xlink:href="class_ogre_1_1_d3_d11_h_l_s_l_program_factory.html" target="_top" xlink:title="Factory class for D3D11 HLSL programs.">
<polygon fill="white" stroke="#666666" points="448.5,-215.88 282.5,-215.88 282.5,-196.62 448.5,-196.62 448.5,-215.88"/>
<text text-anchor="middle" x="365.5" y="-202.38" font-family="Helvetica,sans-Serif" font-size="10.00">Ogre::D3D11HLSLProgramFactory</text>
</a>
</g>
</g>
<!-- Node1&#45;&gt;Node3 -->
<g id="edge2_Node000001_Node000003" class="edge">
<title>Node1&#45;&gt;Node3</title>
<g id="a_edge2_Node000001_Node000003"><a xlink:title=" ">
<path fill="none" stroke="#63b8ff" d="M203.12,-136.25C223.38,-153.07 252.98,-175.15 282.5,-188.25 289.56,-191.38 297.21,-193.99 304.91,-196.16"/>
<polygon fill="#63b8ff" stroke="#63b8ff" points="205.55,-133.72 195.66,-129.92 201.02,-139.06 205.55,-133.72"/>
</a>
</g>
</g>
<!-- Node4 -->
<g id="Node000004" class="node">
<title>Node4</title>
<g id="a_Node000004"><a xlink:href="class_ogre_1_1_d3_d9_h_l_s_l_program_factory.html" target="_top" xlink:title="Factory class for D3D9 HLSL programs.">
<polygon fill="white" stroke="#666666" points="445.88,-178.88 285.12,-178.88 285.12,-159.62 445.88,-159.62 445.88,-178.88"/>
<text text-anchor="middle" x="365.5" y="-165.38" font-family="Helvetica,sans-Serif" font-size="10.00">Ogre::D3D9HLSLProgramFactory</text>
</a>
</g>
</g>
<!-- Node1&#45;&gt;Node4 -->
<g id="edge3_Node000001_Node000004" class="edge">
<title>Node1&#45;&gt;Node4</title>
<g id="a_edge3_Node000001_Node000004"><a xlink:title=" ">
<path fill="none" stroke="#63b8ff" d="M227.29,-132.82C244.61,-139.2 264.26,-145.98 282.5,-151.25 292.44,-154.12 303.18,-156.79 313.5,-159.14"/>
<polygon fill="#63b8ff" stroke="#63b8ff" points="228.84,-129.67 218.25,-129.45 226.4,-136.23 228.84,-129.67"/>
</a>
</g>
</g>
<!-- Node5 -->
<g id="Node000005" class="node">
<title>Node5</title>
<g id="a_Node000005"><a xlink:href="class_ogre_1_1_g_l_s_l_e_s_shader_factory.html" target="_top" xlink:title="Factory class for GLSL ES programs.">
<polygon fill="white" stroke="#666666" points="437.25,-141.88 293.75,-141.88 293.75,-122.62 437.25,-122.62 437.25,-141.88"/>
<text text-anchor="middle" x="365.5" y="-128.38" font-family="Helvetica,sans-Serif" font-size="10.00">Ogre::GLSLESShaderFactory</text>
</a>
</g>
</g>
<!-- Node1&#45;&gt;Node5 -->
<g id="edge4_Node000001_Node000005" class="edge">
<title>Node1&#45;&gt;Node5</title>
<g id="a_edge4_Node000001_Node000005"><a xlink:title=" ">
<path fill="none" stroke="#63b8ff" d="M258.14,-121.46C269.89,-122.65 281.92,-123.87 293.47,-125.04"/>
<polygon fill="#63b8ff" stroke="#63b8ff" points="258.78,-118.01 248.48,-120.48 258.08,-124.97 258.78,-118.01"/>
</a>
</g>
</g>
<!-- Node6 -->
<g id="Node000006" class="node">
<title>Node6</title>
<g id="a_Node000006"><a xlink:href="class_ogre_1_1_g_l_s_l_shader_factory.html" target="_top" xlink:title="Factory class for GLSL shaders.">
<polygon fill="white" stroke="#666666" points="430.88,-104.88 300.12,-104.88 300.12,-85.62 430.88,-85.62 430.88,-104.88"/>
<text text-anchor="middle" x="365.5" y="-91.38" font-family="Helvetica,sans-Serif" font-size="10.00">Ogre::GLSLShaderFactory</text>
</a>
</g>
</g>
<!-- Node1&#45;&gt;Node6 -->
<g id="edge5_Node000001_Node000006" class="edge">
<title>Node1&#45;&gt;Node6</title>
<g id="a_edge5_Node000001_Node000006"><a xlink:title=" ">
<path fill="none" stroke="#63b8ff" d="M258.03,-105.48C271.94,-104.15 286.25,-102.77 299.67,-101.48"/>
<polygon fill="#63b8ff" stroke="#63b8ff" points="258.1,-101.96 248.48,-106.4 258.77,-108.93 258.1,-101.96"/>
</a>
</g>
</g>
<!-- Node7 -->
<g id="Node000007" class="node">
<title>Node7</title>
<g id="a_Node000007"><a xlink:href="class_ogre_1_1_metal_program_factory.html" target="_top" xlink:title="Factory class for Metal programs.">
<polygon fill="white" stroke="#666666" points="432.75,-67.88 298.25,-67.88 298.25,-48.62 432.75,-48.62 432.75,-67.88"/>
<text text-anchor="middle" x="365.5" y="-54.38" font-family="Helvetica,sans-Serif" font-size="10.00">Ogre::MetalProgramFactory</text>
</a>
</g>
</g>
<!-- Node1&#45;&gt;Node7 -->
<g id="edge6_Node000001_Node000007" class="edge">
<title>Node1&#45;&gt;Node7</title>
<g id="a_edge6_Node000001_Node000007"><a xlink:title=" ">
<path fill="none" stroke="#63b8ff" d="M228.91,-93.68C245.85,-87.64 264.85,-81.27 282.5,-76.25 292.59,-73.38 303.5,-70.7 313.95,-68.33"/>
<polygon fill="#63b8ff" stroke="#63b8ff" points="227.75,-90.37 219.54,-97.06 230.13,-96.96 227.75,-90.37"/>
</a>
</g>
</g>
<!-- Node8 -->
<g id="Node000008" class="node">
<title>Node8</title>
<g id="a_Node000008"><a xlink:href="class_ogre_1_1_unified_high_level_gpu_program_factory.html" target="_top" xlink:title="Factory class for Unified programs.">
<polygon fill="white" stroke="#666666" points="432.38,-30.5 298.62,-30.5 298.62,0 432.38,0 432.38,-30.5"/>
<text text-anchor="start" x="306.62" y="-17" font-family="Helvetica,sans-Serif" font-size="10.00">Ogre::UnifiedHighLevelGpu</text>
<text text-anchor="middle" x="365.5" y="-5.75" font-family="Helvetica,sans-Serif" font-size="10.00">ProgramFactory</text>
</a>
</g>
</g>
<!-- Node1&#45;&gt;Node8 -->
<g id="edge7_Node000001_Node000008" class="edge">
<title>Node1&#45;&gt;Node8</title>
<g id="a_edge7_Node000001_Node000008"><a xlink:title=" ">
<path fill="none" stroke="#63b8ff" d="M204.18,-90.56C224.57,-74.34 253.88,-53.03 282.5,-39.25 288.92,-36.16 295.81,-33.39 302.77,-30.92"/>
<polygon fill="#63b8ff" stroke="#63b8ff" points="202.22,-87.64 196.65,-96.65 206.62,-93.08 202.22,-87.64"/>
</a>
</g>
</g>
<!-- Node2 -->
<g id="Node000002" class="node">
<title>Node2</title>
<g id="a_Node000002"><a xlink:href="class_ogre_1_1_allocated_object.html" target="_top" xlink:title="Superclass for all objects that wish to use custom memory allocators when their new / delete operator...">
<polygon fill="white" stroke="#666666" points="70,-122.88 0,-122.88 0,-103.62 70,-103.62 70,-122.88"/>
<text text-anchor="middle" x="35" y="-109.38" font-family="Helvetica,sans-Serif" font-size="10.00">FactoryAlloc</text>
</a>
</g>
</g>
<!-- Node2&#45;&gt;Node1 -->
<g id="edge1_Node000001_Node000002" class="edge">
<title>Node2&#45;&gt;Node1</title>
<g id="a_edge1_Node000001_Node000002"><a xlink:title=" ">
<path fill="none" stroke="#63b8ff" d="M81.67,-113.25C89.34,-113.25 97.46,-113.25 105.58,-113.25"/>
<polygon fill="#63b8ff" stroke="#63b8ff" points="81.93,-109.75 71.93,-113.25 81.93,-116.75 81.93,-109.75"/>
</a>
</g>
</g>
</g>
</svg>
