<?xml version="1.0" encoding="UTF-8" standalone="no"?>
<!DOCTYPE svg PUBLIC "-//W3C//DTD SVG 1.1//EN"
 "http://www.w3.org/Graphics/SVG/1.1/DTD/svg11.dtd">
<!-- Generated by graphviz version 7.0.5 (20221223.1930)
 -->
<!-- Title: Ogre::GL3PlusFBOManager Pages: 1 -->
<svg width="146pt" height="148pt"
 viewBox="0.00 0.00 146.00 148.00" xmlns="http://www.w3.org/2000/svg" xmlns:xlink="http://www.w3.org/1999/xlink">
<g id="graph0" class="graph" transform="scale(1 1) rotate(0) translate(4 144)">
<title>Ogre::GL3PlusFBOManager</title>
<!-- Node1 -->
<g id="node1" class="node">
<title>Node1</title>
<g id="a_node1"><a xlink:title="Factory for GL Frame Buffer Objects, and related things.">
<polygon fill="#999999" stroke="#666666" points="138,-19 0,-19 0,0 138,0 138,-19"/>
<text text-anchor="middle" x="69" y="-7" font-family="Helvetica,sans-Serif" font-size="10.00">Ogre::GL3PlusFBOManager</text>
</a>
</g>
</g>
<!-- Node2 -->
<g id="node2" class="node">
<title>Node2</title>
<g id="a_node2"><a xlink:href="class_ogre_1_1_g_l3_plus_r_t_t_manager.html" target="_top" xlink:title="Manager/factory for RenderTextures.">
<polygon fill="white" stroke="#666666" points="137.5,-74 0.5,-74 0.5,-55 137.5,-55 137.5,-74"/>
<text text-anchor="middle" x="69" y="-62" font-family="Helvetica,sans-Serif" font-size="10.00">Ogre::GL3PlusRTTManager</text>
</a>
</g>
</g>
<!-- Node2&#45;&gt;Node1 -->
<g id="edge1" class="edge">
<title>Node2&#45;&gt;Node1</title>
<path fill="none" stroke="#63b8ff" d="M69,-43.35C69,-35.1 69,-25.97 69,-19.44"/>
<polygon fill="#63b8ff" stroke="#63b8ff" points="65.5,-43.23 69,-53.23 72.5,-43.23 65.5,-43.23"/>
</g>
<!-- Node3 -->
<g id="node3" class="node">
<title>Node3</title>
<g id="a_node3"><a xlink:href="class_ogre_1_1_singleton.html" target="_top" xlink:title=" ">
<polygon fill="white" stroke="#666666" points="133.5,-140 4.5,-140 4.5,-110 133.5,-110 133.5,-140"/>
<text text-anchor="start" x="12.5" y="-128" font-family="Helvetica,sans-Serif" font-size="10.00">Ogre::Singleton&lt; GL3Plus</text>
<text text-anchor="middle" x="69" y="-117" font-family="Helvetica,sans-Serif" font-size="10.00">RTTManager &gt;</text>
</a>
</g>
</g>
<!-- Node3&#45;&gt;Node2 -->
<g id="edge2" class="edge">
<title>Node3&#45;&gt;Node2</title>
<path fill="none" stroke="#63b8ff" d="M69,-98.3C69,-89.65 69,-80.58 69,-74.18"/>
<polygon fill="#63b8ff" stroke="#63b8ff" points="65.5,-98.03 69,-108.03 72.5,-98.03 65.5,-98.03"/>
</g>
</g>
</svg>
