<?xml version="1.0" encoding="UTF-8" standalone="no"?>
<!DOCTYPE svg PUBLIC "-//W3C//DTD SVG 1.1//EN"
 "http://www.w3.org/Graphics/SVG/1.1/DTD/svg11.dtd">
<!-- Generated by graphviz version 9.0.0 (20230911.1827)
 -->
<!-- Title: Ogre::AsyncTextureTicket Pages: 1 -->
<svg width="492pt" height="150pt"
 viewBox="0.00 0.00 491.75 150.25" xmlns="http://www.w3.org/2000/svg" xmlns:xlink="http://www.w3.org/1999/xlink">
<g id="graph0" class="graph" transform="scale(1 1) rotate(0) translate(4 146.25)">
<title>Ogre::AsyncTextureTicket</title>
<!-- Node1 -->
<g id="Node000001" class="node">
<title>Node1</title>
<g id="a_Node000001"><a xlink:title="In Ogre 2.2 reading data from GPU back to CPU is asynchronous.">
<polygon fill="#999999" stroke="#666666" points="290.75,-77.25 163,-77.25 163,-58 290.75,-58 290.75,-77.25"/>
<text text-anchor="middle" x="226.88" y="-63.75" font-family="Helvetica,sans-Serif" font-size="10.00">Ogre::AsyncTextureTicket</text>
</a>
</g>
</g>
<!-- Node4 -->
<g id="Node000004" class="node">
<title>Node4</title>
<g id="a_Node000004"><a xlink:href="class_ogre_1_1_d3_d11_async_texture_ticket.html" target="_top" xlink:title="See AsyncTextureTicket.">
<polygon fill="white" stroke="#666666" points="483.75,-142.25 326.75,-142.25 326.75,-123 483.75,-123 483.75,-142.25"/>
<text text-anchor="middle" x="405.25" y="-128.75" font-family="Helvetica,sans-Serif" font-size="10.00">Ogre::D3D11AsyncTextureTicket</text>
</a>
</g>
</g>
<!-- Node1&#45;&gt;Node4 -->
<g id="edge3_Node000001_Node000004" class="edge">
<title>Node1&#45;&gt;Node4</title>
<g id="a_edge3_Node000001_Node000004"><a xlink:title=" ">
<path fill="none" stroke="#63b8ff" d="M256.38,-82.7C275.8,-92.51 302.34,-105.05 326.75,-113.62 336.29,-116.98 346.69,-119.96 356.69,-122.52"/>
<polygon fill="#63b8ff" stroke="#63b8ff" points="258.22,-79.71 247.72,-78.25 255.02,-85.93 258.22,-79.71"/>
</a>
</g>
</g>
<!-- Node5 -->
<g id="Node000005" class="node">
<title>Node5</title>
<g id="a_Node000005"><a xlink:href="class_ogre_1_1_g_l3_plus_async_texture_ticket.html" target="_top" xlink:title="See AsyncTextureTicket.">
<polygon fill="white" stroke="#666666" points="474.75,-104.88 335.75,-104.88 335.75,-74.38 474.75,-74.38 474.75,-104.88"/>
<text text-anchor="start" x="343.75" y="-91.38" font-family="Helvetica,sans-Serif" font-size="10.00">Ogre::GL3PlusAsyncTexture</text>
<text text-anchor="middle" x="405.25" y="-80.12" font-family="Helvetica,sans-Serif" font-size="10.00">Ticket</text>
</a>
</g>
</g>
<!-- Node1&#45;&gt;Node5 -->
<g id="edge4_Node000001_Node000005" class="edge">
<title>Node1&#45;&gt;Node5</title>
<g id="a_edge4_Node000001_Node000005"><a xlink:title=" ">
<path fill="none" stroke="#63b8ff" d="M302.38,-76.92C313.38,-78.29 324.67,-79.7 335.54,-81.05"/>
<polygon fill="#63b8ff" stroke="#63b8ff" points="302.91,-73.46 292.55,-75.69 302.04,-80.4 302.91,-73.46"/>
</a>
</g>
</g>
<!-- Node6 -->
<g id="Node000006" class="node">
<title>Node6</title>
<g id="a_Node000006"><a xlink:href="class_ogre_1_1_metal_async_texture_ticket.html" target="_top" xlink:title="See AsyncTextureTicket.">
<polygon fill="white" stroke="#666666" points="481.12,-56.25 329.38,-56.25 329.38,-37 481.12,-37 481.12,-56.25"/>
<text text-anchor="middle" x="405.25" y="-42.75" font-family="Helvetica,sans-Serif" font-size="10.00">Ogre::MetalAsyncTextureTicket</text>
</a>
</g>
</g>
<!-- Node1&#45;&gt;Node6 -->
<g id="edge5_Node000001_Node000006" class="edge">
<title>Node1&#45;&gt;Node6</title>
<g id="a_edge5_Node000001_Node000006"><a xlink:title=" ">
<path fill="none" stroke="#63b8ff" d="M302.22,-58.77C311.14,-57.71 320.25,-56.63 329.18,-55.56"/>
<polygon fill="#63b8ff" stroke="#63b8ff" points="302.07,-55.27 292.56,-59.92 302.9,-62.22 302.07,-55.27"/>
</a>
</g>
</g>
<!-- Node7 -->
<g id="Node000007" class="node">
<title>Node7</title>
<g id="a_Node000007"><a xlink:href="class_ogre_1_1_n_u_l_l_async_texture_ticket.html" target="_top" xlink:title="See AsyncTextureTicket.">
<polygon fill="white" stroke="#666666" points="482.62,-19.25 327.88,-19.25 327.88,0 482.62,0 482.62,-19.25"/>
<text text-anchor="middle" x="405.25" y="-5.75" font-family="Helvetica,sans-Serif" font-size="10.00">Ogre::NULLAsyncTextureTicket</text>
</a>
</g>
</g>
<!-- Node1&#45;&gt;Node7 -->
<g id="edge6_Node000001_Node000007" class="edge">
<title>Node1&#45;&gt;Node7</title>
<g id="a_edge6_Node000001_Node000007"><a xlink:title=" ">
<path fill="none" stroke="#63b8ff" d="M260.41,-52.97C279.47,-44.76 304.17,-34.77 326.75,-27.62 335.97,-24.71 345.94,-22.04 355.56,-19.71"/>
<polygon fill="#63b8ff" stroke="#63b8ff" points="259.04,-49.74 251.28,-56.95 261.85,-56.16 259.04,-49.74"/>
</a>
</g>
</g>
<!-- Node2 -->
<g id="Node000002" class="node">
<title>Node2</title>
<g id="a_Node000002"><a xlink:href="class_ogre_1_1_allocated_object.html" target="_top" xlink:title="Superclass for all objects that wish to use custom memory allocators when their new / delete operator...">
<polygon fill="white" stroke="#666666" points="93.62,-96.25 33.38,-96.25 33.38,-77 93.62,-77 93.62,-96.25"/>
<text text-anchor="middle" x="63.5" y="-82.75" font-family="Helvetica,sans-Serif" font-size="10.00">PassAlloc</text>
</a>
</g>
</g>
<!-- Node2&#45;&gt;Node1 -->
<g id="edge1_Node000001_Node000002" class="edge">
<title>Node2&#45;&gt;Node1</title>
<g id="a_edge1_Node000001_Node000002"><a xlink:title=" ">
<path fill="none" stroke="#63b8ff" d="M105.53,-81.79C122.88,-79.75 143.49,-77.33 162.7,-75.06"/>
<polygon fill="#63b8ff" stroke="#63b8ff" points="105.12,-78.32 95.6,-82.96 105.94,-85.27 105.12,-78.32"/>
</a>
</g>
</g>
<!-- Node3 -->
<g id="Node000003" class="node">
<title>Node3</title>
<g id="a_Node000003"><a xlink:href="class_ogre_1_1_texture_gpu_listener.html" target="_top" xlink:title=" ">
<polygon fill="white" stroke="#666666" points="127,-59.25 0,-59.25 0,-40 127,-40 127,-59.25"/>
<text text-anchor="middle" x="63.5" y="-45.75" font-family="Helvetica,sans-Serif" font-size="10.00">Ogre::TextureGpuListener</text>
</a>
</g>
</g>
<!-- Node3&#45;&gt;Node1 -->
<g id="edge2_Node000001_Node000003" class="edge">
<title>Node3&#45;&gt;Node1</title>
<g id="a_edge2_Node000001_Node000003"><a xlink:title=" ">
<path fill="none" stroke="#63b8ff" d="M138.62,-57.89C146.65,-58.79 154.77,-59.69 162.66,-60.57"/>
<polygon fill="#63b8ff" stroke="#63b8ff" points="139.18,-54.43 128.86,-56.8 138.41,-61.39 139.18,-54.43"/>
</a>
</g>
</g>
</g>
</svg>
