<?xml version="1.0" encoding="UTF-8" standalone="no"?>
<!DOCTYPE svg PUBLIC "-//W3C//DTD SVG 1.1//EN"
 "http://www.w3.org/Graphics/SVG/1.1/DTD/svg11.dtd">
<!-- Generated by graphviz version 3.0.0 (20220413.0106)
 -->
<!-- Title: Ogre::SmallVectorImpl&lt; T &gt; Pages: 1 -->
<svg width="357pt" height="352pt"
 viewBox="0.00 0.00 356.50 352.00" xmlns="http://www.w3.org/2000/svg" xmlns:xlink="http://www.w3.org/1999/xlink">
<g id="graph0" class="graph" transform="scale(1 1) rotate(0) translate(4 348)">
<title>Ogre::SmallVectorImpl&lt; T &gt;</title>
<!-- Node1 -->
<g id="node1" class="node">
<title>Node1</title>
<g id="a_node1"><a xlink:title="SmallVectorImpl &#45; This class consists of common code factored out of the SmallVector class to reduce ...">
<polygon fill="#bfbfbf" stroke="black" points="110.5,-123.5 110.5,-142.5 247.5,-142.5 247.5,-123.5 110.5,-123.5"/>
<text text-anchor="middle" x="179" y="-130.5" font-family="Helvetica,sans-Serif" font-size="10.00">Ogre::SmallVectorImpl&lt; T &gt;</text>
</a>
</g>
</g>
<!-- Node5 -->
<g id="node5" class="node">
<title>Node5</title>
<g id="a_node5"><a xlink:href="class_ogre_1_1_small_vector.html" target="_top" xlink:title=" ">
<polygon fill="none" stroke="black" points="9.5,-56.5 9.5,-86.5 110.5,-86.5 110.5,-56.5 9.5,-56.5"/>
<text text-anchor="start" x="17.5" y="-74.5" font-family="Helvetica,sans-Serif" font-size="10.00">Ogre::SmallVector&lt;</text>
<text text-anchor="middle" x="60" y="-63.5" font-family="Helvetica,sans-Serif" font-size="10.00"> T, S &gt;</text>
</a>
</g>
</g>
<!-- Node1&#45;&gt;Node5 -->
<g id="edge7" class="edge">
<title>Node1&#45;&gt;Node5</title>
<path fill="none" stroke="midnightblue" d="M147.74,-119.2C127.11,-109.58 100.74,-96.42 82.22,-86.52"/>
<polygon fill="midnightblue" stroke="midnightblue" points="146.5,-122.48 157.05,-123.48 149.42,-116.12 146.5,-122.48"/>
</g>
<!-- Node1&#45;&gt;Node5 -->
<g id="edge9" class="edge">
<title>Node1&#45;&gt;Node5</title>
<path fill="none" stroke="midnightblue" d="M157.84,-118.54C140.04,-108.99 114.48,-96.2 93.88,-86.52"/>
<polygon fill="midnightblue" stroke="midnightblue" points="156.4,-121.74 166.85,-123.48 159.76,-115.6 156.4,-121.74"/>
</g>
<!-- Node7 -->
<g id="node7" class="node">
<title>Node7</title>
<g id="a_node7"><a xlink:href="class_ogre_1_1_small_vector.html" target="_top" xlink:title="SmallVector &#45; This is a &#39;vector&#39; (really, a variable&#45;sized array), optimized for the case when the ar...">
<polygon fill="none" stroke="black" points="128.5,-56.5 128.5,-86.5 229.5,-86.5 229.5,-56.5 128.5,-56.5"/>
<text text-anchor="start" x="136.5" y="-74.5" font-family="Helvetica,sans-Serif" font-size="10.00">Ogre::SmallVector&lt;</text>
<text text-anchor="middle" x="179" y="-63.5" font-family="Helvetica,sans-Serif" font-size="10.00"> T, N &gt;</text>
</a>
</g>
</g>
<!-- Node1&#45;&gt;Node7 -->
<g id="edge10" class="edge">
<title>Node1&#45;&gt;Node7</title>
<path fill="none" stroke="midnightblue" d="M172.7,-113.53C171.97,-104.81 172.13,-94.59 173.17,-86.52"/>
<polygon fill="midnightblue" stroke="midnightblue" points="169.24,-114.06 174.1,-123.48 176.17,-113.09 169.24,-114.06"/>
</g>
<!-- Node1&#45;&gt;Node7 -->
<g id="edge11" class="edge">
<title>Node1&#45;&gt;Node7</title>
<path fill="none" stroke="midnightblue" d="M185.3,-113.53C186.03,-104.81 185.87,-94.59 184.83,-86.52"/>
<polygon fill="midnightblue" stroke="midnightblue" points="181.83,-113.09 183.9,-123.48 188.76,-114.06 181.83,-113.09"/>
</g>
<!-- Node8 -->
<g id="node8" class="node">
<title>Node8</title>
<g id="a_node8"><a xlink:href="class_ogre_1_1_small_vector_3_01_t_00_010_01_4.html" target="_top" xlink:title="Specialize SmallVector at N=0.">
<polygon fill="none" stroke="black" points="247.5,-56.5 247.5,-86.5 348.5,-86.5 348.5,-56.5 247.5,-56.5"/>
<text text-anchor="start" x="255.5" y="-74.5" font-family="Helvetica,sans-Serif" font-size="10.00">Ogre::SmallVector&lt;</text>
<text text-anchor="middle" x="298" y="-63.5" font-family="Helvetica,sans-Serif" font-size="10.00"> T, 0 &gt;</text>
</a>
</g>
</g>
<!-- Node1&#45;&gt;Node8 -->
<g id="edge12" class="edge">
<title>Node1&#45;&gt;Node8</title>
<path fill="none" stroke="midnightblue" d="M200.16,-118.54C217.96,-108.99 243.52,-96.2 264.12,-86.52"/>
<polygon fill="midnightblue" stroke="midnightblue" points="198.24,-115.6 191.15,-123.48 201.6,-121.74 198.24,-115.6"/>
</g>
<!-- Node1&#45;&gt;Node8 -->
<g id="edge13" class="edge">
<title>Node1&#45;&gt;Node8</title>
<path fill="none" stroke="midnightblue" d="M210.26,-119.2C230.89,-109.58 257.26,-96.42 275.78,-86.52"/>
<polygon fill="midnightblue" stroke="midnightblue" points="208.58,-116.12 200.95,-123.48 211.5,-122.48 208.58,-116.12"/>
</g>
<!-- Node2 -->
<g id="node2" class="node">
<title>Node2</title>
<g id="a_node2"><a xlink:href="class_ogre_1_1_small_vector_template_base.html" target="_top" xlink:title=" ">
<polygon fill="none" stroke="black" points="111,-179.5 111,-220.5 247,-220.5 247,-179.5 111,-179.5"/>
<text text-anchor="start" x="119" y="-208.5" font-family="Helvetica,sans-Serif" font-size="10.00">Ogre::SmallVectorTemplate</text>
<text text-anchor="start" x="119" y="-197.5" font-family="Helvetica,sans-Serif" font-size="10.00">Base&lt; T, isPodLike&lt; T &gt;</text>
<text text-anchor="middle" x="179" y="-186.5" font-family="Helvetica,sans-Serif" font-size="10.00">::value &gt;</text>
</a>
</g>
</g>
<!-- Node2&#45;&gt;Node1 -->
<g id="edge1" class="edge">
<title>Node2&#45;&gt;Node1</title>
<path fill="none" stroke="midnightblue" d="M172.27,-169.26C172.12,-159.56 172.77,-149.52 174.24,-142.65"/>
<polygon fill="midnightblue" stroke="midnightblue" points="168.79,-169.67 172.75,-179.5 175.78,-169.34 168.79,-169.67"/>
</g>
<!-- Node2&#45;&gt;Node1 -->
<g id="edge6" class="edge">
<title>Node2&#45;&gt;Node1</title>
<path fill="none" stroke="midnightblue" d="M185.73,-169.26C185.88,-159.56 185.23,-149.52 183.76,-142.65"/>
<polygon fill="midnightblue" stroke="midnightblue" points="182.22,-169.34 185.25,-179.5 189.21,-169.67 182.22,-169.34"/>
</g>
<!-- Node3 -->
<g id="node3" class="node">
<title>Node3</title>
<g id="a_node3"><a xlink:href="class_ogre_1_1_small_vector_template_common.html" target="_top" xlink:title=" ">
<polygon fill="none" stroke="black" points="111,-257.5 111,-287.5 247,-287.5 247,-257.5 111,-257.5"/>
<text text-anchor="start" x="119" y="-275.5" font-family="Helvetica,sans-Serif" font-size="10.00">Ogre::SmallVectorTemplate</text>
<text text-anchor="middle" x="179" y="-264.5" font-family="Helvetica,sans-Serif" font-size="10.00">Common&lt; T &gt;</text>
</a>
</g>
</g>
<!-- Node3&#45;&gt;Node2 -->
<g id="edge2" class="edge">
<title>Node3&#45;&gt;Node2</title>
<path fill="none" stroke="midnightblue" d="M172.55,-247.27C172.06,-238.56 172.17,-228.85 172.88,-220.59"/>
<polygon fill="midnightblue" stroke="midnightblue" points="169.07,-247.59 173.45,-257.23 176.04,-246.96 169.07,-247.59"/>
</g>
<!-- Node3&#45;&gt;Node2 -->
<g id="edge5" class="edge">
<title>Node3&#45;&gt;Node2</title>
<path fill="none" stroke="midnightblue" d="M185.45,-247.27C185.94,-238.56 185.83,-228.85 185.12,-220.59"/>
<polygon fill="midnightblue" stroke="midnightblue" points="181.96,-246.96 184.55,-257.23 188.93,-247.59 181.96,-246.96"/>
</g>
<!-- Node4 -->
<g id="node4" class="node">
<title>Node4</title>
<g id="a_node4"><a xlink:href="class_ogre_1_1_small_vector_base.html" target="_top" xlink:title="SmallVectorBase &#45; This is all the non&#45;templated stuff common to all SmallVectors.">
<polygon fill="none" stroke="black" points="120,-324.5 120,-343.5 238,-343.5 238,-324.5 120,-324.5"/>
<text text-anchor="middle" x="179" y="-331.5" font-family="Helvetica,sans-Serif" font-size="10.00">Ogre::SmallVectorBase</text>
</a>
</g>
</g>
<!-- Node4&#45;&gt;Node3 -->
<g id="edge3" class="edge">
<title>Node4&#45;&gt;Node3</title>
<path fill="none" stroke="midnightblue" d="M172.7,-314.53C171.97,-305.81 172.13,-295.59 173.17,-287.52"/>
<polygon fill="midnightblue" stroke="midnightblue" points="169.24,-315.06 174.1,-324.48 176.17,-314.09 169.24,-315.06"/>
</g>
<!-- Node4&#45;&gt;Node3 -->
<g id="edge4" class="edge">
<title>Node4&#45;&gt;Node3</title>
<path fill="none" stroke="midnightblue" d="M185.3,-314.53C186.03,-305.81 185.87,-295.59 184.83,-287.52"/>
<polygon fill="midnightblue" stroke="midnightblue" points="181.83,-314.09 183.9,-324.48 188.76,-315.06 181.83,-314.09"/>
</g>
<!-- Node6 -->
<g id="node6" class="node">
<title>Node6</title>
<g id="a_node6"><a xlink:href="struct_ogre_1_1_vector_set.html" target="_top" xlink:title="VectorSet is basically a helper to use a vector as a small set container.">
<polygon fill="none" stroke="black" points="0,-0.5 0,-19.5 120,-19.5 120,-0.5 0,-0.5"/>
<text text-anchor="middle" x="60" y="-7.5" font-family="Helvetica,sans-Serif" font-size="10.00">Ogre::VectorSet&lt; T, S &gt;</text>
</a>
</g>
</g>
<!-- Node5&#45;&gt;Node6 -->
<g id="edge8" class="edge">
<title>Node5&#45;&gt;Node6</title>
<path fill="none" stroke="midnightblue" d="M60,-46.29C60,-36.86 60,-26.65 60,-19.66"/>
<polygon fill="midnightblue" stroke="midnightblue" points="56.5,-46.4 60,-56.4 63.5,-46.4 56.5,-46.4"/>
</g>
</g>
</svg>
