<?xml version="1.0" encoding="UTF-8" standalone="no"?>
<!DOCTYPE svg PUBLIC "-//W3C//DTD SVG 1.1//EN"
 "http://www.w3.org/Graphics/SVG/1.1/DTD/svg11.dtd">
<!-- Generated by graphviz version 7.0.5 (20221223.1930)
 -->
<!-- Title: Ogre::HighLevelGpuProgramFactory Pages: 1 -->
<svg width="459pt" height="224pt"
 viewBox="0.00 0.00 459.00 223.50" xmlns="http://www.w3.org/2000/svg" xmlns:xlink="http://www.w3.org/1999/xlink">
<g id="graph0" class="graph" transform="scale(1 1) rotate(0) translate(4 219.5)">
<title>Ogre::HighLevelGpuProgramFactory</title>
<!-- Node1 -->
<g id="node1" class="node">
<title>Node1</title>
<g id="a_node1"><a xlink:title="Interface definition for factories of HighLevelGpuProgram.">
<polygon fill="#999999" stroke="#666666" points="248,-128 107,-128 107,-98 248,-98 248,-128"/>
<text text-anchor="start" x="115" y="-116" font-family="Helvetica,sans-Serif" font-size="10.00">Ogre::HighLevelGpuProgram</text>
<text text-anchor="middle" x="177.5" y="-105" font-family="Helvetica,sans-Serif" font-size="10.00">Factory</text>
</a>
</g>
</g>
<!-- Node3 -->
<g id="node3" class="node">
<title>Node3</title>
<g id="a_node3"><a xlink:href="class_ogre_1_1_d3_d11_h_l_s_l_program_factory.html" target="_top" xlink:title="Factory class for D3D11 HLSL programs.">
<polygon fill="white" stroke="#666666" points="451,-215.5 284,-215.5 284,-196.5 451,-196.5 451,-215.5"/>
<text text-anchor="middle" x="367.5" y="-203.5" font-family="Helvetica,sans-Serif" font-size="10.00">Ogre::D3D11HLSLProgramFactory</text>
</a>
</g>
</g>
<!-- Node1&#45;&gt;Node3 -->
<g id="edge2" class="edge">
<title>Node1&#45;&gt;Node3</title>
<path fill="none" stroke="#63b8ff" d="M204.07,-135.7C224.39,-152.56 254.24,-174.84 284,-188 291.24,-191.2 299.1,-193.85 306.99,-196.05"/>
<polygon fill="#63b8ff" stroke="#63b8ff" points="206.49,-133.16 196.6,-129.37 201.96,-138.5 206.49,-133.16"/>
</g>
<!-- Node4 -->
<g id="node4" class="node">
<title>Node4</title>
<g id="a_node4"><a xlink:href="class_ogre_1_1_d3_d9_h_l_s_l_program_factory.html" target="_top" xlink:title="Factory class for D3D9 HLSL programs.">
<polygon fill="white" stroke="#666666" points="448,-178.5 287,-178.5 287,-159.5 448,-159.5 448,-178.5"/>
<text text-anchor="middle" x="367.5" y="-166.5" font-family="Helvetica,sans-Serif" font-size="10.00">Ogre::D3D9HLSLProgramFactory</text>
</a>
</g>
</g>
<!-- Node1&#45;&gt;Node4 -->
<g id="edge3" class="edge">
<title>Node1&#45;&gt;Node4</title>
<path fill="none" stroke="#63b8ff" d="M228.21,-132.42C245.69,-138.84 265.56,-145.69 284,-151 294.28,-153.96 305.41,-156.7 316.06,-159.09"/>
<polygon fill="#63b8ff" stroke="#63b8ff" points="229.69,-129.23 219.09,-129.02 227.24,-135.79 229.69,-129.23"/>
</g>
<!-- Node5 -->
<g id="node5" class="node">
<title>Node5</title>
<g id="a_node5"><a xlink:href="class_ogre_1_1_g_l_s_l_e_s_shader_factory.html" target="_top" xlink:title="Factory class for GLSL ES programs.">
<polygon fill="white" stroke="#666666" points="439.5,-141.5 295.5,-141.5 295.5,-122.5 439.5,-122.5 439.5,-141.5"/>
<text text-anchor="middle" x="367.5" y="-129.5" font-family="Helvetica,sans-Serif" font-size="10.00">Ogre::GLSLESShaderFactory</text>
</a>
</g>
</g>
<!-- Node1&#45;&gt;Node5 -->
<g id="edge4" class="edge">
<title>Node1&#45;&gt;Node5</title>
<path fill="none" stroke="#63b8ff" d="M259.54,-121.19C271.44,-122.39 283.62,-123.62 295.31,-124.8"/>
<polygon fill="#63b8ff" stroke="#63b8ff" points="260.04,-117.72 249.74,-120.2 259.34,-124.69 260.04,-117.72"/>
</g>
<!-- Node6 -->
<g id="node6" class="node">
<title>Node6</title>
<g id="a_node6"><a xlink:href="class_ogre_1_1_g_l_s_l_shader_factory.html" target="_top" xlink:title="Factory class for GLSL shaders.">
<polygon fill="white" stroke="#666666" points="433,-104.5 302,-104.5 302,-85.5 433,-85.5 433,-104.5"/>
<text text-anchor="middle" x="367.5" y="-92.5" font-family="Helvetica,sans-Serif" font-size="10.00">Ogre::GLSLShaderFactory</text>
</a>
</g>
</g>
<!-- Node1&#45;&gt;Node6 -->
<g id="edge5" class="edge">
<title>Node1&#45;&gt;Node6</title>
<path fill="none" stroke="#63b8ff" d="M259.42,-105.25C273.49,-103.91 287.97,-102.52 301.55,-101.22"/>
<polygon fill="#63b8ff" stroke="#63b8ff" points="259.36,-101.74 249.74,-106.18 260.03,-108.71 259.36,-101.74"/>
</g>
<!-- Node7 -->
<g id="node7" class="node">
<title>Node7</title>
<g id="a_node7"><a xlink:href="class_ogre_1_1_metal_program_factory.html" target="_top" xlink:title="Factory class for Metal programs.">
<polygon fill="white" stroke="#666666" points="435,-67.5 300,-67.5 300,-48.5 435,-48.5 435,-67.5"/>
<text text-anchor="middle" x="367.5" y="-55.5" font-family="Helvetica,sans-Serif" font-size="10.00">Ogre::MetalProgramFactory</text>
</a>
</g>
</g>
<!-- Node1&#45;&gt;Node7 -->
<g id="edge6" class="edge">
<title>Node1&#45;&gt;Node7</title>
<path fill="none" stroke="#63b8ff" d="M229.13,-93.83C246.4,-87.67 265.91,-81.13 284,-76 294.3,-73.08 305.43,-70.37 316.08,-67.97"/>
<polygon fill="#63b8ff" stroke="#63b8ff" points="228.35,-90.39 220.13,-97.08 230.73,-96.97 228.35,-90.39"/>
</g>
<!-- Node8 -->
<g id="node8" class="node">
<title>Node8</title>
<g id="a_node8"><a xlink:href="class_ogre_1_1_unified_high_level_gpu_program_factory.html" target="_top" xlink:title="Factory class for Unified programs.">
<polygon fill="white" stroke="#666666" points="434.5,-30 300.5,-30 300.5,0 434.5,0 434.5,-30"/>
<text text-anchor="start" x="308.5" y="-18" font-family="Helvetica,sans-Serif" font-size="10.00">Ogre::UnifiedHighLevelGpu</text>
<text text-anchor="middle" x="367.5" y="-7" font-family="Helvetica,sans-Serif" font-size="10.00">ProgramFactory</text>
</a>
</g>
</g>
<!-- Node1&#45;&gt;Node8 -->
<g id="edge7" class="edge">
<title>Node1&#45;&gt;Node8</title>
<path fill="none" stroke="#63b8ff" d="M205.12,-90.59C225.58,-74.33 255.14,-52.85 284,-39 290.59,-35.84 297.68,-33.01 304.84,-30.5"/>
<polygon fill="#63b8ff" stroke="#63b8ff" points="203.15,-87.69 197.58,-96.7 207.55,-93.13 203.15,-87.69"/>
</g>
<!-- Node2 -->
<g id="node2" class="node">
<title>Node2</title>
<g id="a_node2"><a xlink:href="class_ogre_1_1_allocated_object.html" target="_top" xlink:title="Superclass for all objects that wish to use custom memory allocators when their new / delete operator...">
<polygon fill="white" stroke="#666666" points="71,-122.5 0,-122.5 0,-103.5 71,-103.5 71,-122.5"/>
<text text-anchor="middle" x="35.5" y="-110.5" font-family="Helvetica,sans-Serif" font-size="10.00">FactoryAlloc</text>
</a>
</g>
</g>
<!-- Node2&#45;&gt;Node1 -->
<g id="edge1" class="edge">
<title>Node2&#45;&gt;Node1</title>
<path fill="none" stroke="#63b8ff" d="M82.77,-113C90.48,-113 98.62,-113 106.75,-113"/>
<polygon fill="#63b8ff" stroke="#63b8ff" points="82.98,-109.5 72.98,-113 82.98,-116.5 82.98,-109.5"/>
</g>
</g>
</svg>
