<?xml version="1.0" encoding="UTF-8" standalone="no"?>
<!DOCTYPE svg PUBLIC "-//W3C//DTD SVG 1.1//EN"
 "http://www.w3.org/Graphics/SVG/1.1/DTD/svg11.dtd">
<!-- Generated by graphviz version 9.0.0 (20230911.1827)
 -->
<!-- Title: Ogre::NULLTexture Pages: 1 -->
<svg width="210pt" height="193pt"
 viewBox="0.00 0.00 210.12 193.00" xmlns="http://www.w3.org/2000/svg" xmlns:xlink="http://www.w3.org/1999/xlink">
<g id="graph0" class="graph" transform="scale(1 1) rotate(0) translate(4 189)">
<title>Ogre::NULLTexture</title>
<!-- Node1 -->
<g id="Node000001" class="node">
<title>Node1</title>
<g id="a_Node000001"><a xlink:title=" ">
<polygon fill="#999999" stroke="#666666" points="158,-19.25 57.25,-19.25 57.25,0 158,0 158,-19.25"/>
<text text-anchor="middle" x="107.62" y="-5.75" font-family="Helvetica,sans-Serif" font-size="10.00">Ogre::NULLTexture</text>
</a>
</g>
</g>
<!-- Node2 -->
<g id="Node000002" class="node">
<title>Node2</title>
<g id="a_Node000002"><a xlink:href="class_ogre_1_1_texture.html" target="_top" xlink:title="Abstract class representing a Texture resource.">
<polygon fill="white" stroke="#666666" points="144.5,-74.5 70.75,-74.5 70.75,-55.25 144.5,-55.25 144.5,-74.5"/>
<text text-anchor="middle" x="107.62" y="-61" font-family="Helvetica,sans-Serif" font-size="10.00">Ogre::Texture</text>
</a>
</g>
</g>
<!-- Node2&#45;&gt;Node1 -->
<g id="edge1_Node000001_Node000002" class="edge">
<title>Node2&#45;&gt;Node1</title>
<g id="a_edge1_Node000001_Node000002"><a xlink:title=" ">
<path fill="none" stroke="#63b8ff" d="M107.62,-43.63C107.62,-35.34 107.62,-26.17 107.62,-19.61"/>
<polygon fill="#63b8ff" stroke="#63b8ff" points="104.13,-43.57 107.63,-53.57 111.13,-43.57 104.13,-43.57"/>
</a>
</g>
</g>
<!-- Node3 -->
<g id="Node000003" class="node">
<title>Node3</title>
<g id="a_Node000003"><a xlink:href="class_ogre_1_1_resource.html" target="_top" xlink:title="Abstract class representing a loadable resource (e.g.">
<polygon fill="white" stroke="#666666" points="149,-129.75 66.25,-129.75 66.25,-110.5 149,-110.5 149,-129.75"/>
<text text-anchor="middle" x="107.62" y="-116.25" font-family="Helvetica,sans-Serif" font-size="10.00">Ogre::Resource</text>
</a>
</g>
</g>
<!-- Node3&#45;&gt;Node2 -->
<g id="edge2_Node000002_Node000003" class="edge">
<title>Node3&#45;&gt;Node2</title>
<g id="a_edge2_Node000002_Node000003"><a xlink:title=" ">
<path fill="none" stroke="#63b8ff" d="M107.62,-98.88C107.62,-90.59 107.62,-81.42 107.62,-74.86"/>
<polygon fill="#63b8ff" stroke="#63b8ff" points="104.13,-98.82 107.63,-108.82 111.13,-98.82 104.13,-98.82"/>
</a>
</g>
</g>
<!-- Node4 -->
<g id="Node000004" class="node">
<title>Node4</title>
<g id="a_Node000004"><a xlink:href="class_ogre_1_1_string_interface.html" target="_top" xlink:title="Class defining the common interface which classes can use to present a reflection&#45;style,...">
<polygon fill="white" stroke="#666666" points="105.25,-185 0,-185 0,-165.75 105.25,-165.75 105.25,-185"/>
<text text-anchor="middle" x="52.62" y="-171.5" font-family="Helvetica,sans-Serif" font-size="10.00">Ogre::StringInterface</text>
</a>
</g>
</g>
<!-- Node4&#45;&gt;Node3 -->
<g id="edge3_Node000003_Node000004" class="edge">
<title>Node4&#45;&gt;Node3</title>
<g id="a_edge3_Node000003_Node000004"><a xlink:title=" ">
<path fill="none" stroke="#63b8ff" d="M69.98,-157.57C79.37,-148.48 90.61,-137.6 98.35,-130.11"/>
<polygon fill="#63b8ff" stroke="#63b8ff" points="67.54,-155.06 62.79,-164.53 72.41,-160.09 67.54,-155.06"/>
</a>
</g>
</g>
<!-- Node5 -->
<g id="Node000005" class="node">
<title>Node5</title>
<g id="a_Node000005"><a xlink:href="class_ogre_1_1_allocated_object.html" target="_top" xlink:title="Superclass for all objects that wish to use custom memory allocators when their new / delete operator...">
<polygon fill="white" stroke="#666666" points="202.12,-185 123.12,-185 123.12,-165.75 202.12,-165.75 202.12,-185"/>
<text text-anchor="middle" x="162.62" y="-171.5" font-family="Helvetica,sans-Serif" font-size="10.00">ResourceAlloc</text>
</a>
</g>
</g>
<!-- Node5&#45;&gt;Node3 -->
<g id="edge4_Node000003_Node000005" class="edge">
<title>Node5&#45;&gt;Node3</title>
<g id="a_edge4_Node000003_Node000005"><a xlink:title=" ">
<path fill="none" stroke="#63b8ff" d="M145.27,-157.57C135.88,-148.48 124.64,-137.6 116.9,-130.11"/>
<polygon fill="#63b8ff" stroke="#63b8ff" points="142.84,-160.09 152.46,-164.53 147.71,-155.06 142.84,-160.09"/>
</a>
</g>
</g>
</g>
</svg>
