<?xml version="1.0" encoding="UTF-8" standalone="no"?>
<!DOCTYPE svg PUBLIC "-//W3C//DTD SVG 1.1//EN"
 "http://www.w3.org/Graphics/SVG/1.1/DTD/svg11.dtd">
<!-- Generated by graphviz version 9.0.0 (20230911.1827)
 -->
<!-- Title: Ogre::GL3PlusRenderTexture Pages: 1 -->
<svg width="248pt" height="248pt"
 viewBox="0.00 0.00 247.50 248.25" xmlns="http://www.w3.org/2000/svg" xmlns:xlink="http://www.w3.org/1999/xlink">
<g id="graph0" class="graph" transform="scale(1 1) rotate(0) translate(4 244.25)">
<title>Ogre::GL3PlusRenderTexture</title>
<!-- Node1 -->
<g id="Node000001" class="node">
<title>Node1</title>
<g id="a_Node000001"><a xlink:title="Base class for GL Render Textures.">
<polygon fill="#999999" stroke="#666666" points="203.38,-74.5 60.62,-74.5 60.62,-55.25 203.38,-55.25 203.38,-74.5"/>
<text text-anchor="middle" x="132" y="-61" font-family="Helvetica,sans-Serif" font-size="10.00">Ogre::GL3PlusRenderTexture</text>
</a>
</g>
</g>
<!-- Node6 -->
<g id="Node000006" class="node">
<title>Node6</title>
<g id="a_Node000006"><a xlink:href="class_ogre_1_1_g_l3_plus_f_b_o_render_texture.html" target="_top" xlink:title="RenderTexture for GL FBO.">
<polygon fill="white" stroke="#666666" points="213.5,-19.25 50.5,-19.25 50.5,0 213.5,0 213.5,-19.25"/>
<text text-anchor="middle" x="132" y="-5.75" font-family="Helvetica,sans-Serif" font-size="10.00">Ogre::GL3PlusFBORenderTexture</text>
</a>
</g>
</g>
<!-- Node1&#45;&gt;Node6 -->
<g id="edge5_Node000001_Node000006" class="edge">
<title>Node1&#45;&gt;Node6</title>
<g id="a_edge5_Node000001_Node000006"><a xlink:title=" ">
<path fill="none" stroke="#63b8ff" d="M132,-43.63C132,-35.34 132,-26.17 132,-19.61"/>
<polygon fill="#63b8ff" stroke="#63b8ff" points="128.5,-43.57 132,-53.57 135.5,-43.57 128.5,-43.57"/>
</a>
</g>
</g>
<!-- Node2 -->
<g id="Node000002" class="node">
<title>Node2</title>
<g id="a_Node000002"><a xlink:href="class_ogre_1_1_render_texture.html" target="_top" xlink:title="This class represents a RenderTarget that renders to a Texture.">
<polygon fill="white" stroke="#666666" points="184.25,-129.75 79.75,-129.75 79.75,-110.5 184.25,-110.5 184.25,-129.75"/>
<text text-anchor="middle" x="132" y="-116.25" font-family="Helvetica,sans-Serif" font-size="10.00">Ogre::RenderTexture</text>
</a>
</g>
</g>
<!-- Node2&#45;&gt;Node1 -->
<g id="edge1_Node000001_Node000002" class="edge">
<title>Node2&#45;&gt;Node1</title>
<g id="a_edge1_Node000001_Node000002"><a xlink:title=" ">
<path fill="none" stroke="#63b8ff" d="M132,-98.88C132,-90.59 132,-81.42 132,-74.86"/>
<polygon fill="#63b8ff" stroke="#63b8ff" points="128.5,-98.82 132,-108.82 135.5,-98.82 128.5,-98.82"/>
</a>
</g>
</g>
<!-- Node3 -->
<g id="Node000003" class="node">
<title>Node3</title>
<g id="a_Node000003"><a xlink:href="class_ogre_1_1_render_target.html" target="_top" xlink:title="A &#39;canvas&#39; which can receive the results of a rendering operation.">
<polygon fill="white" stroke="#666666" points="182,-185 82,-185 82,-165.75 182,-165.75 182,-185"/>
<text text-anchor="middle" x="132" y="-171.5" font-family="Helvetica,sans-Serif" font-size="10.00">Ogre::RenderTarget</text>
</a>
</g>
</g>
<!-- Node3&#45;&gt;Node2 -->
<g id="edge2_Node000002_Node000003" class="edge">
<title>Node3&#45;&gt;Node2</title>
<g id="a_edge2_Node000002_Node000003"><a xlink:title=" ">
<path fill="none" stroke="#63b8ff" d="M132,-154.13C132,-145.84 132,-136.67 132,-130.11"/>
<polygon fill="#63b8ff" stroke="#63b8ff" points="128.5,-154.07 132,-164.07 135.5,-154.07 128.5,-154.07"/>
</a>
</g>
</g>
<!-- Node4 -->
<g id="Node000004" class="node">
<title>Node4</title>
<g id="a_Node000004"><a xlink:href="struct_ogre_1_1_gpu_tracked_resource.html" target="_top" xlink:title=" ">
<polygon fill="white" stroke="#666666" points="136,-240.25 0,-240.25 0,-221 136,-221 136,-240.25"/>
<text text-anchor="middle" x="68" y="-226.75" font-family="Helvetica,sans-Serif" font-size="10.00">Ogre::GpuTrackedResource</text>
</a>
</g>
</g>
<!-- Node4&#45;&gt;Node3 -->
<g id="edge3_Node000003_Node000004" class="edge">
<title>Node4&#45;&gt;Node3</title>
<g id="a_edge3_Node000003_Node000004"><a xlink:title=" ">
<path fill="none" stroke="#63b8ff" d="M87.48,-213.41C98.6,-204.17 112.1,-192.93 121.3,-185.27"/>
<polygon fill="#63b8ff" stroke="#63b8ff" points="85.47,-210.54 80.02,-219.62 89.95,-215.92 85.47,-210.54"/>
</a>
</g>
</g>
<!-- Node5 -->
<g id="Node000005" class="node">
<title>Node5</title>
<g id="a_Node000005"><a xlink:href="class_ogre_1_1_allocated_object.html" target="_top" xlink:title="Superclass for all objects that wish to use custom memory allocators when their new / delete operator...">
<polygon fill="white" stroke="#666666" points="239.5,-240.25 154.5,-240.25 154.5,-221 239.5,-221 239.5,-240.25"/>
<text text-anchor="middle" x="197" y="-226.75" font-family="Helvetica,sans-Serif" font-size="10.00">RenderSysAlloc</text>
</a>
</g>
</g>
<!-- Node5&#45;&gt;Node3 -->
<g id="edge4_Node000003_Node000005" class="edge">
<title>Node5&#45;&gt;Node3</title>
<g id="a_edge4_Node000003_Node000005"><a xlink:title=" ">
<path fill="none" stroke="#63b8ff" d="M177.21,-213.41C165.92,-204.17 152.21,-192.93 142.86,-185.27"/>
<polygon fill="#63b8ff" stroke="#63b8ff" points="174.85,-216 184.8,-219.63 179.29,-210.59 174.85,-216"/>
</a>
</g>
</g>
</g>
</svg>
