<?xml version="1.0" encoding="UTF-8" standalone="no"?>
<!DOCTYPE svg PUBLIC "-//W3C//DTD SVG 1.1//EN"
 "http://www.w3.org/Graphics/SVG/1.1/DTD/svg11.dtd">
<!-- Generated by graphviz version 7.0.5 (20221223.1930)
 -->
<!-- Title: Ogre::RenderWindow Pages: 1 -->
<svg width="817pt" height="261pt"
 viewBox="0.00 0.00 817.00 260.50" xmlns="http://www.w3.org/2000/svg" xmlns:xlink="http://www.w3.org/1999/xlink">
<g id="graph0" class="graph" transform="scale(1 1) rotate(0) translate(4 256.5)">
<title>Ogre::RenderWindow</title>
<!-- Node1 -->
<g id="node1" class="node">
<title>Node1</title>
<g id="a_node1"><a xlink:title="Manages the target rendering window.">
<polygon fill="#999999" stroke="#666666" points="417,-130 310,-130 310,-111 417,-111 417,-130"/>
<text text-anchor="middle" x="363.5" y="-118" font-family="Helvetica,sans-Serif" font-size="10.00">Ogre::RenderWindow</text>
</a>
</g>
</g>
<!-- Node5 -->
<g id="node5" class="node">
<title>Node5</title>
<g id="a_node5"><a xlink:href="class_ogre_1_1_d3_d11_render_window_base.html" target="_top" xlink:title=" ">
<polygon fill="white" stroke="#666666" points="612,-244 453,-244 453,-225 612,-225 612,-244"/>
<text text-anchor="middle" x="532.5" y="-232" font-family="Helvetica,sans-Serif" font-size="10.00">Ogre::D3D11RenderWindowBase</text>
</a>
</g>
</g>
<!-- Node1&#45;&gt;Node5 -->
<g id="edge4" class="edge">
<title>Node1&#45;&gt;Node5</title>
<path fill="none" stroke="#63b8ff" d="M377.63,-139.62C393.18,-160.82 421.05,-194.53 453,-213.5 460.76,-218.11 469.55,-221.73 478.37,-224.56"/>
<polygon fill="#63b8ff" stroke="#63b8ff" points="380.54,-137.69 371.89,-131.57 374.84,-141.75 380.54,-137.69"/>
</g>
<!-- Node7 -->
<g id="node7" class="node">
<title>Node7</title>
<g id="a_node7"><a xlink:href="class_ogre_1_1_d3_d9_render_window.html" target="_top" xlink:title=" ">
<polygon fill="white" stroke="#666666" points="598,-204 467,-204 467,-185 598,-185 598,-204"/>
<text text-anchor="middle" x="532.5" y="-192" font-family="Helvetica,sans-Serif" font-size="10.00">Ogre::D3D9RenderWindow</text>
</a>
</g>
</g>
<!-- Node1&#45;&gt;Node7 -->
<g id="edge6" class="edge">
<title>Node1&#45;&gt;Node7</title>
<path fill="none" stroke="#63b8ff" d="M386.1,-137.12C403.35,-149.64 428.59,-166.33 453,-176.5 460.61,-179.67 468.89,-182.34 477.12,-184.56"/>
<polygon fill="#63b8ff" stroke="#63b8ff" points="388.26,-134.37 378.15,-131.21 384.09,-139.99 388.26,-134.37"/>
</g>
<!-- Node8 -->
<g id="node8" class="node">
<title>Node8</title>
<g id="a_node8"><a xlink:href="class_ogre_1_1_e_g_l_window.html" target="_top" xlink:title=" ">
<polygon fill="white" stroke="#666666" points="580.5,-167 484.5,-167 484.5,-148 580.5,-148 580.5,-167"/>
<text text-anchor="middle" x="532.5" y="-155" font-family="Helvetica,sans-Serif" font-size="10.00">Ogre::EGLWindow</text>
</a>
</g>
</g>
<!-- Node1&#45;&gt;Node8 -->
<g id="edge7" class="edge">
<title>Node1&#45;&gt;Node8</title>
<path fill="none" stroke="#63b8ff" d="M420.25,-132.85C441.83,-137.63 466.2,-143.03 486.62,-147.56"/>
<polygon fill="#63b8ff" stroke="#63b8ff" points="421.25,-129.49 410.73,-130.74 419.74,-136.32 421.25,-129.49"/>
</g>
<!-- Node13 -->
<g id="node13" class="node">
<title>Node13</title>
<g id="a_node13"><a xlink:href="class_ogre_1_1_g_t_k_window.html" target="_top" xlink:title=" ">
<polygon fill="white" stroke="#666666" points="581,-130 484,-130 484,-111 581,-111 581,-130"/>
<text text-anchor="middle" x="532.5" y="-118" font-family="Helvetica,sans-Serif" font-size="10.00">Ogre::GTKWindow</text>
</a>
</g>
</g>
<!-- Node1&#45;&gt;Node13 -->
<g id="edge12" class="edge">
<title>Node1&#45;&gt;Node13</title>
<path fill="none" stroke="#63b8ff" d="M428.77,-120.5C446.98,-120.5 466.47,-120.5 483.53,-120.5"/>
<polygon fill="#63b8ff" stroke="#63b8ff" points="428.85,-117 418.85,-120.5 428.85,-124 428.85,-117"/>
</g>
<!-- Node14 -->
<g id="node14" class="node">
<title>Node14</title>
<g id="a_node14"><a xlink:href="class_ogre_1_1_n_u_l_l_render_window.html" target="_top" xlink:title=" ">
<polygon fill="white" stroke="#666666" points="599.5,-93 465.5,-93 465.5,-74 599.5,-74 599.5,-93"/>
<text text-anchor="middle" x="532.5" y="-81" font-family="Helvetica,sans-Serif" font-size="10.00">Ogre::NULLRenderWindow</text>
</a>
</g>
</g>
<!-- Node1&#45;&gt;Node14 -->
<g id="edge13" class="edge">
<title>Node1&#45;&gt;Node14</title>
<path fill="none" stroke="#63b8ff" d="M420.25,-108.15C441.83,-103.37 466.2,-97.97 486.62,-93.44"/>
<polygon fill="#63b8ff" stroke="#63b8ff" points="419.74,-104.68 410.73,-110.26 421.25,-111.51 419.74,-104.68"/>
</g>
<!-- Node15 -->
<g id="node15" class="node">
<title>Node15</title>
<g id="a_node15"><a xlink:href="class_ogre_1_1_na_cl_window.html" target="_top" xlink:title=" ">
<polygon fill="white" stroke="#666666" points="581.5,-56 483.5,-56 483.5,-37 581.5,-37 581.5,-56"/>
<text text-anchor="middle" x="532.5" y="-44" font-family="Helvetica,sans-Serif" font-size="10.00">Ogre::NaClWindow</text>
</a>
</g>
</g>
<!-- Node1&#45;&gt;Node15 -->
<g id="edge14" class="edge">
<title>Node1&#45;&gt;Node15</title>
<path fill="none" stroke="#63b8ff" d="M386.1,-103.88C403.35,-91.36 428.59,-74.67 453,-64.5 462.55,-60.52 473.14,-57.34 483.37,-54.82"/>
<polygon fill="#63b8ff" stroke="#63b8ff" points="384.09,-101.01 378.15,-109.79 388.26,-106.63 384.09,-101.01"/>
</g>
<!-- Node16 -->
<g id="node16" class="node">
<title>Node16</title>
<g id="a_node16"><a xlink:href="class_ogre_1_1_s_d_l_window.html" target="_top" xlink:title=" ">
<polygon fill="white" stroke="#666666" points="580.5,-19 484.5,-19 484.5,0 580.5,0 580.5,-19"/>
<text text-anchor="middle" x="532.5" y="-7" font-family="Helvetica,sans-Serif" font-size="10.00">Ogre::SDLWindow</text>
</a>
</g>
</g>
<!-- Node1&#45;&gt;Node16 -->
<g id="edge15" class="edge">
<title>Node1&#45;&gt;Node16</title>
<path fill="none" stroke="#63b8ff" d="M377.5,-101.17C392.94,-79.77 420.71,-45.89 453,-27.5 462.48,-22.1 473.47,-18.32 484.17,-15.68"/>
<polygon fill="#63b8ff" stroke="#63b8ff" points="374.68,-99.1 371.81,-109.3 380.41,-103.11 374.68,-99.1"/>
</g>
<!-- Node2 -->
<g id="node2" class="node">
<title>Node2</title>
<g id="a_node2"><a xlink:href="class_ogre_1_1_render_target.html" target="_top" xlink:title="A &#39;canvas&#39; which can receive the results of a rendering operation.">
<polygon fill="white" stroke="#666666" points="274,-130 173,-130 173,-111 274,-111 274,-130"/>
<text text-anchor="middle" x="223.5" y="-118" font-family="Helvetica,sans-Serif" font-size="10.00">Ogre::RenderTarget</text>
</a>
</g>
</g>
<!-- Node2&#45;&gt;Node1 -->
<g id="edge1" class="edge">
<title>Node2&#45;&gt;Node1</title>
<path fill="none" stroke="#63b8ff" d="M285.64,-120.5C293.75,-120.5 302.01,-120.5 309.96,-120.5"/>
<polygon fill="#63b8ff" stroke="#63b8ff" points="285.83,-117 275.83,-120.5 285.83,-124 285.83,-117"/>
</g>
<!-- Node3 -->
<g id="node3" class="node">
<title>Node3</title>
<g id="a_node3"><a xlink:href="struct_ogre_1_1_gpu_tracked_resource.html" target="_top" xlink:title=" ">
<polygon fill="white" stroke="#666666" points="137,-149 0,-149 0,-130 137,-130 137,-149"/>
<text text-anchor="middle" x="68.5" y="-137" font-family="Helvetica,sans-Serif" font-size="10.00">Ogre::GpuTrackedResource</text>
</a>
</g>
</g>
<!-- Node3&#45;&gt;Node2 -->
<g id="edge2" class="edge">
<title>Node3&#45;&gt;Node2</title>
<path fill="none" stroke="#63b8ff" d="M148.9,-129.64C156.96,-128.64 164.99,-127.64 172.61,-126.7"/>
<polygon fill="#63b8ff" stroke="#63b8ff" points="148.49,-126.16 139,-130.87 149.36,-133.11 148.49,-126.16"/>
</g>
<!-- Node4 -->
<g id="node4" class="node">
<title>Node4</title>
<g id="a_node4"><a xlink:href="class_ogre_1_1_allocated_object.html" target="_top" xlink:title="Superclass for all objects that wish to use custom memory allocators when their new / delete operator...">
<polygon fill="white" stroke="#666666" points="111.5,-112 25.5,-112 25.5,-93 111.5,-93 111.5,-112"/>
<text text-anchor="middle" x="68.5" y="-100" font-family="Helvetica,sans-Serif" font-size="10.00">RenderSysAlloc</text>
</a>
</g>
</g>
<!-- Node4&#45;&gt;Node2 -->
<g id="edge3" class="edge">
<title>Node4&#45;&gt;Node2</title>
<path fill="none" stroke="#63b8ff" d="M123.11,-108.81C139.18,-110.7 156.73,-112.76 172.56,-114.62"/>
<polygon fill="#63b8ff" stroke="#63b8ff" points="123.56,-105.34 113.22,-107.64 122.74,-112.29 123.56,-105.34"/>
</g>
<!-- Node6 -->
<g id="node6" class="node">
<title>Node6</title>
<g id="a_node6"><a xlink:href="class_ogre_1_1_d3_d11_render_window_swap_chain_based.html" target="_top" xlink:title=" ">
<polygon fill="white" stroke="#666666" points="809,-252.5 648,-252.5 648,-222.5 809,-222.5 809,-252.5"/>
<text text-anchor="start" x="656" y="-240.5" font-family="Helvetica,sans-Serif" font-size="10.00">Ogre::D3D11RenderWindowSwap</text>
<text text-anchor="middle" x="728.5" y="-229.5" font-family="Helvetica,sans-Serif" font-size="10.00">ChainBased</text>
</a>
</g>
</g>
<!-- Node5&#45;&gt;Node6 -->
<g id="edge5" class="edge">
<title>Node5&#45;&gt;Node6</title>
<path fill="none" stroke="#63b8ff" d="M623.68,-235.89C631.71,-236.02 639.79,-236.14 647.72,-236.27"/>
<polygon fill="#63b8ff" stroke="#63b8ff" points="623.97,-232.4 613.92,-235.74 623.87,-239.4 623.97,-232.4"/>
</g>
<!-- Node9 -->
<g id="node9" class="node">
<title>Node9</title>
<g id="a_node9"><a xlink:href="class_ogre_1_1_android_e_g_l_window.html" target="_top" xlink:title=" ">
<polygon fill="white" stroke="#666666" points="793,-204 664,-204 664,-185 793,-185 793,-204"/>
<text text-anchor="middle" x="728.5" y="-192" font-family="Helvetica,sans-Serif" font-size="10.00">Ogre::AndroidEGLWindow</text>
</a>
</g>
</g>
<!-- Node8&#45;&gt;Node9 -->
<g id="edge8" class="edge">
<title>Node8&#45;&gt;Node9</title>
<path fill="none" stroke="#63b8ff" d="M591.98,-168.65C618.41,-173.69 649.41,-179.61 675.07,-184.5"/>
<polygon fill="#63b8ff" stroke="#63b8ff" points="592.92,-165.27 582.44,-166.83 591.61,-172.15 592.92,-165.27"/>
</g>
<!-- Node10 -->
<g id="node10" class="node">
<title>Node10</title>
<g id="a_node10"><a xlink:href="class_ogre_1_1_emscripten_e_g_l_window.html" target="_top" xlink:title=" ">
<polygon fill="white" stroke="#666666" points="801,-167 656,-167 656,-148 801,-148 801,-167"/>
<text text-anchor="middle" x="728.5" y="-155" font-family="Helvetica,sans-Serif" font-size="10.00">Ogre::EmscriptenEGLWindow</text>
</a>
</g>
</g>
<!-- Node8&#45;&gt;Node10 -->
<g id="edge9" class="edge">
<title>Node8&#45;&gt;Node10</title>
<path fill="none" stroke="#63b8ff" d="M592.36,-157.5C612.28,-157.5 634.75,-157.5 655.56,-157.5"/>
<polygon fill="#63b8ff" stroke="#63b8ff" points="592.47,-154 582.47,-157.5 592.47,-161 592.47,-154"/>
</g>
<!-- Node11 -->
<g id="node11" class="node">
<title>Node11</title>
<g id="a_node11"><a xlink:href="class_ogre_1_1_win32_e_g_l_window.html" target="_top" xlink:title=" ">
<polygon fill="white" stroke="#666666" points="790,-130 667,-130 667,-111 790,-111 790,-130"/>
<text text-anchor="middle" x="728.5" y="-118" font-family="Helvetica,sans-Serif" font-size="10.00">Ogre::Win32EGLWindow</text>
</a>
</g>
</g>
<!-- Node8&#45;&gt;Node11 -->
<g id="edge10" class="edge">
<title>Node8&#45;&gt;Node11</title>
<path fill="none" stroke="#63b8ff" d="M591.98,-146.35C618.41,-141.31 649.41,-135.39 675.07,-130.5"/>
<polygon fill="#63b8ff" stroke="#63b8ff" points="591.61,-142.85 582.44,-148.17 592.92,-149.73 591.61,-142.85"/>
</g>
<!-- Node12 -->
<g id="node12" class="node">
<title>Node12</title>
<g id="a_node12"><a xlink:href="class_ogre_1_1_x11_e_g_l_window.html" target="_top" xlink:title=" ">
<polygon fill="white" stroke="#666666" points="785,-93 672,-93 672,-74 785,-74 785,-93"/>
<text text-anchor="middle" x="728.5" y="-81" font-family="Helvetica,sans-Serif" font-size="10.00">Ogre::X11EGLWindow</text>
</a>
</g>
</g>
<!-- Node8&#45;&gt;Node12 -->
<g id="edge11" class="edge">
<title>Node8&#45;&gt;Node12</title>
<path fill="none" stroke="#63b8ff" d="M591.91,-148.19C598.92,-145.9 605.79,-143.05 612,-139.5 632.2,-127.96 627.78,-113.01 648,-101.5 655.26,-97.37 663.39,-94.19 671.61,-91.73"/>
<polygon fill="#63b8ff" stroke="#63b8ff" points="590.96,-144.82 582.3,-150.92 592.87,-151.55 590.96,-144.82"/>
</g>
</g>
</svg>
