<?xml version="1.0" encoding="UTF-8" standalone="no"?>
<!DOCTYPE svg PUBLIC "-//W3C//DTD SVG 1.1//EN"
 "http://www.w3.org/Graphics/SVG/1.1/DTD/svg11.dtd">
<!-- Generated by graphviz version 7.0.5 (20221223.1930)
 -->
<!-- Title: Ogre::DepthBuffer Pages: 1 -->
<svg width="390pt" height="175pt"
 viewBox="0.00 0.00 390.00 175.00" xmlns="http://www.w3.org/2000/svg" xmlns:xlink="http://www.w3.org/1999/xlink">
<g id="graph0" class="graph" transform="scale(1 1) rotate(0) translate(4 171)">
<title>Ogre::DepthBuffer</title>
<!-- Node1 -->
<g id="node1" class="node">
<title>Node1</title>
<g id="a_node1"><a xlink:title="An abstract class that contains a depth/stencil buffer.">
<polygon fill="#999999" stroke="#666666" points="215,-93 122,-93 122,-74 215,-74 215,-93"/>
<text text-anchor="middle" x="168.5" y="-81" font-family="Helvetica,sans-Serif" font-size="10.00">Ogre::DepthBuffer</text>
</a>
</g>
</g>
<!-- Node3 -->
<g id="node3" class="node">
<title>Node3</title>
<g id="a_node3"><a xlink:href="class_ogre_1_1_d3_d11_depth_buffer.html" target="_top" xlink:title=" ">
<polygon fill="white" stroke="#666666" points="377.5,-167 255.5,-167 255.5,-148 377.5,-148 377.5,-167"/>
<text text-anchor="middle" x="316.5" y="-155" font-family="Helvetica,sans-Serif" font-size="10.00">Ogre::D3D11DepthBuffer</text>
</a>
</g>
</g>
<!-- Node1&#45;&gt;Node3 -->
<g id="edge2" class="edge">
<title>Node1&#45;&gt;Node3</title>
<path fill="none" stroke="#63b8ff" d="M190.03,-100.46C205.85,-112.79 228.72,-129.09 251,-139.5 257.64,-142.6 264.91,-145.26 272.11,-147.52"/>
<polygon fill="#63b8ff" stroke="#63b8ff" points="192.34,-97.82 182.34,-94.32 187.98,-103.3 192.34,-97.82"/>
</g>
<!-- Node4 -->
<g id="node4" class="node">
<title>Node4</title>
<g id="a_node4"><a xlink:href="class_ogre_1_1_d3_d9_depth_buffer.html" target="_top" xlink:title=" ">
<polygon fill="white" stroke="#666666" points="375,-130 258,-130 258,-111 375,-111 375,-130"/>
<text text-anchor="middle" x="316.5" y="-118" font-family="Helvetica,sans-Serif" font-size="10.00">Ogre::D3D9DepthBuffer</text>
</a>
</g>
</g>
<!-- Node1&#45;&gt;Node4 -->
<g id="edge3" class="edge">
<title>Node1&#45;&gt;Node4</title>
<path fill="none" stroke="#63b8ff" d="M219.54,-96.18C238.08,-100.88 258.82,-106.14 276.27,-110.56"/>
<polygon fill="#63b8ff" stroke="#63b8ff" points="220.65,-92.85 210.09,-93.79 218.93,-99.64 220.65,-92.85"/>
</g>
<!-- Node5 -->
<g id="node5" class="node">
<title>Node5</title>
<g id="a_node5"><a xlink:href="class_ogre_1_1_g_l3_plus_depth_buffer.html" target="_top" xlink:title=" ">
<polygon fill="white" stroke="#666666" points="382,-93 251,-93 251,-74 382,-74 382,-93"/>
<text text-anchor="middle" x="316.5" y="-81" font-family="Helvetica,sans-Serif" font-size="10.00">Ogre::GL3PlusDepthBuffer</text>
</a>
</g>
</g>
<!-- Node1&#45;&gt;Node5 -->
<g id="edge4" class="edge">
<title>Node1&#45;&gt;Node5</title>
<path fill="none" stroke="#63b8ff" d="M226.6,-83.5C234.48,-83.5 242.61,-83.5 250.62,-83.5"/>
<polygon fill="#63b8ff" stroke="#63b8ff" points="226.81,-80 216.81,-83.5 226.81,-87 226.81,-80"/>
</g>
<!-- Node6 -->
<g id="node6" class="node">
<title>Node6</title>
<g id="a_node6"><a xlink:href="class_ogre_1_1_g_l_e_s2_depth_buffer.html" target="_top" xlink:title=" ">
<polygon fill="white" stroke="#666666" points="379,-56 254,-56 254,-37 379,-37 379,-56"/>
<text text-anchor="middle" x="316.5" y="-44" font-family="Helvetica,sans-Serif" font-size="10.00">Ogre::GLES2DepthBuffer</text>
</a>
</g>
</g>
<!-- Node1&#45;&gt;Node6 -->
<g id="edge5" class="edge">
<title>Node1&#45;&gt;Node6</title>
<path fill="none" stroke="#63b8ff" d="M219.54,-70.82C238.08,-66.12 258.82,-60.86 276.27,-56.44"/>
<polygon fill="#63b8ff" stroke="#63b8ff" points="218.93,-67.36 210.09,-73.21 220.65,-74.15 218.93,-67.36"/>
</g>
<!-- Node7 -->
<g id="node7" class="node">
<title>Node7</title>
<g id="a_node7"><a xlink:href="class_ogre_1_1_metal_depth_buffer.html" target="_top" xlink:title=" ">
<polygon fill="white" stroke="#666666" points="375,-19 258,-19 258,0 375,0 375,-19"/>
<text text-anchor="middle" x="316.5" y="-7" font-family="Helvetica,sans-Serif" font-size="10.00">Ogre::MetalDepthBuffer</text>
</a>
</g>
</g>
<!-- Node1&#45;&gt;Node7 -->
<g id="edge6" class="edge">
<title>Node1&#45;&gt;Node7</title>
<path fill="none" stroke="#63b8ff" d="M190.03,-66.54C205.85,-54.21 228.72,-37.91 251,-27.5 257.64,-24.4 264.91,-21.74 272.11,-19.48"/>
<polygon fill="#63b8ff" stroke="#63b8ff" points="187.98,-63.7 182.34,-72.68 192.34,-69.18 187.98,-63.7"/>
</g>
<!-- Node2 -->
<g id="node2" class="node">
<title>Node2</title>
<g id="a_node2"><a xlink:href="class_ogre_1_1_allocated_object.html" target="_top" xlink:title="Superclass for all objects that wish to use custom memory allocators when their new / delete operator...">
<polygon fill="white" stroke="#666666" points="86,-93 0,-93 0,-74 86,-74 86,-93"/>
<text text-anchor="middle" x="43" y="-81" font-family="Helvetica,sans-Serif" font-size="10.00">RenderSysAlloc</text>
</a>
</g>
</g>
<!-- Node2&#45;&gt;Node1 -->
<g id="edge1" class="edge">
<title>Node2&#45;&gt;Node1</title>
<path fill="none" stroke="#63b8ff" d="M97.42,-83.5C105.52,-83.5 113.81,-83.5 121.73,-83.5"/>
<polygon fill="#63b8ff" stroke="#63b8ff" points="97.67,-80 87.67,-83.5 97.67,-87 97.67,-80"/>
</g>
</g>
</svg>
