<?xml version="1.0" encoding="UTF-8" standalone="no"?>
<!DOCTYPE svg PUBLIC "-//W3C//DTD SVG 1.1//EN"
 "http://www.w3.org/Graphics/SVG/1.1/DTD/svg11.dtd">
<!-- Generated by graphviz version 7.0.5 (20221223.1930)
 -->
<!-- Title: Ogre::D3D11RenderSystem Pages: 1 -->
<svg width="276pt" height="148pt"
 viewBox="0.00 0.00 275.50 148.00" xmlns="http://www.w3.org/2000/svg" xmlns:xlink="http://www.w3.org/1999/xlink">
<g id="graph0" class="graph" transform="scale(1 1) rotate(0) translate(4 144)">
<title>Ogre::D3D11RenderSystem</title>
<!-- Node1 -->
<g id="node1" class="node">
<title>Node1</title>
<g id="a_node1"><a xlink:title="Implementation of DirectX11 as a rendering system.">
<polygon fill="#999999" stroke="#666666" points="191.5,-19 56.5,-19 56.5,0 191.5,0 191.5,-19"/>
<text text-anchor="middle" x="124" y="-7" font-family="Helvetica,sans-Serif" font-size="10.00">Ogre::D3D11RenderSystem</text>
</a>
</g>
</g>
<!-- Node2 -->
<g id="node2" class="node">
<title>Node2</title>
<g id="a_node2"><a xlink:href="class_ogre_1_1_render_system.html" target="_top" xlink:title="Defines the functionality of a 3D API.">
<polygon fill="white" stroke="#666666" points="106,-79.5 0,-79.5 0,-60.5 106,-60.5 106,-79.5"/>
<text text-anchor="middle" x="53" y="-67.5" font-family="Helvetica,sans-Serif" font-size="10.00">Ogre::RenderSystem</text>
</a>
</g>
</g>
<!-- Node2&#45;&gt;Node1 -->
<g id="edge1" class="edge">
<title>Node2&#45;&gt;Node1</title>
<path fill="none" stroke="#63b8ff" d="M72.52,-52.91C85.6,-42.14 102.34,-28.35 113.12,-19.47"/>
<polygon fill="#63b8ff" stroke="#63b8ff" points="70.44,-50.09 64.95,-59.15 74.89,-55.49 70.44,-50.09"/>
</g>
<!-- Node3 -->
<g id="node3" class="node">
<title>Node3</title>
<g id="a_node3"><a xlink:href="class_ogre_1_1_allocated_object.html" target="_top" xlink:title="Superclass for all objects that wish to use custom memory allocators when their new / delete operator...">
<polygon fill="white" stroke="#666666" points="96,-140 10,-140 10,-121 96,-121 96,-140"/>
<text text-anchor="middle" x="53" y="-128" font-family="Helvetica,sans-Serif" font-size="10.00">RenderSysAlloc</text>
</a>
</g>
</g>
<!-- Node3&#45;&gt;Node2 -->
<g id="edge2" class="edge">
<title>Node3&#45;&gt;Node2</title>
<path fill="none" stroke="#63b8ff" d="M53,-109.66C53,-99.45 53,-87.54 53,-79.67"/>
<polygon fill="#63b8ff" stroke="#63b8ff" points="49.5,-109.35 53,-119.35 56.5,-109.35 49.5,-109.35"/>
</g>
<!-- Node4 -->
<g id="node4" class="node">
<title>Node4</title>
<g id="a_node4"><a xlink:href="class_ogre_1_1_d3_d11_device_resource_manager.html" target="_top" xlink:title="Singleton that is used to propagate device state changed notifications.">
<polygon fill="white" stroke="#666666" points="267.5,-85 124.5,-85 124.5,-55 267.5,-55 267.5,-85"/>
<text text-anchor="start" x="132.5" y="-73" font-family="Helvetica,sans-Serif" font-size="10.00">Ogre::D3D11DeviceResource</text>
<text text-anchor="middle" x="196" y="-62" font-family="Helvetica,sans-Serif" font-size="10.00">Manager</text>
</a>
</g>
</g>
<!-- Node4&#45;&gt;Node1 -->
<g id="edge3" class="edge">
<title>Node4&#45;&gt;Node1</title>
<path fill="none" stroke="#8b1a1a" d="M169.39,-47.38C157.35,-37.6 143.81,-26.6 134.68,-19.18"/>
<polygon fill="#8b1a1a" stroke="#8b1a1a" points="167.06,-50 177.03,-53.58 171.47,-44.56 167.06,-50"/>
</g>
</g>
</svg>
