<?xml version="1.0" encoding="UTF-8" standalone="no"?>
<!DOCTYPE svg PUBLIC "-//W3C//DTD SVG 1.1//EN"
 "http://www.w3.org/Graphics/SVG/1.1/DTD/svg11.dtd">
<!-- Generated by graphviz version 9.0.0 (20230911.1827)
 -->
<!-- Title: Ogre::MaterialManager Pages: 1 -->
<svg width="313pt" height="149pt"
 viewBox="0.00 0.00 312.88 149.00" xmlns="http://www.w3.org/2000/svg" xmlns:xlink="http://www.w3.org/1999/xlink">
<g id="graph0" class="graph" transform="scale(1 1) rotate(0) translate(4 145)">
<title>Ogre::MaterialManager</title>
<!-- Node1 -->
<g id="Node000001" class="node">
<title>Node1</title>
<g id="a_Node000001"><a xlink:title="Class for managing Material settings for Ogre.">
<polygon fill="#999999" stroke="#666666" points="228.25,-19.25 114.75,-19.25 114.75,0 228.25,0 228.25,-19.25"/>
<text text-anchor="middle" x="171.5" y="-5.75" font-family="Helvetica,sans-Serif" font-size="10.00">Ogre::MaterialManager</text>
</a>
</g>
</g>
<!-- Node2 -->
<g id="Node000002" class="node">
<title>Node2</title>
<g id="a_Node000002"><a xlink:href="class_ogre_1_1_resource_manager.html" target="_top" xlink:title="Defines a generic resource handler.">
<polygon fill="white" stroke="#666666" points="161.62,-80.12 41.38,-80.12 41.38,-60.88 161.62,-60.88 161.62,-80.12"/>
<text text-anchor="middle" x="101.5" y="-66.62" font-family="Helvetica,sans-Serif" font-size="10.00">Ogre::ResourceManager</text>
</a>
</g>
</g>
<!-- Node2&#45;&gt;Node1 -->
<g id="edge1_Node000001_Node000002" class="edge">
<title>Node2&#45;&gt;Node1</title>
<g id="a_edge1_Node000001_Node000002"><a xlink:title=" ">
<path fill="none" stroke="#63b8ff" d="M120.75,-53.31C133.64,-42.46 150.14,-28.59 160.77,-19.65"/>
<polygon fill="#63b8ff" stroke="#63b8ff" points="118.69,-50.47 113.29,-59.58 123.2,-55.83 118.69,-50.47"/>
</a>
</g>
</g>
<!-- Node3 -->
<g id="Node000003" class="node">
<title>Node3</title>
<g id="a_Node000003"><a xlink:href="class_ogre_1_1_script_loader.html" target="_top" xlink:title="Abstract class defining the interface used by classes which wish to perform script loading to define ...">
<polygon fill="white" stroke="#666666" points="97,-141 0,-141 0,-121.75 97,-121.75 97,-141"/>
<text text-anchor="middle" x="48.5" y="-127.5" font-family="Helvetica,sans-Serif" font-size="10.00">Ogre::ScriptLoader</text>
</a>
</g>
</g>
<!-- Node3&#45;&gt;Node2 -->
<g id="edge2_Node000002_Node000003" class="edge">
<title>Node3&#45;&gt;Node2</title>
<g id="a_edge2_Node000002_Node000003"><a xlink:title=" ">
<path fill="none" stroke="#63b8ff" d="M64.22,-112.91C73.8,-102.27 85.64,-89.11 93.37,-80.53"/>
<polygon fill="#63b8ff" stroke="#63b8ff" points="61.65,-110.53 57.56,-120.31 66.85,-115.22 61.65,-110.53"/>
</a>
</g>
</g>
<!-- Node4 -->
<g id="Node000004" class="node">
<title>Node4</title>
<g id="a_Node000004"><a xlink:href="class_ogre_1_1_allocated_object.html" target="_top" xlink:title="Superclass for all objects that wish to use custom memory allocators when their new / delete operator...">
<polygon fill="white" stroke="#666666" points="194,-141 115,-141 115,-121.75 194,-121.75 194,-141"/>
<text text-anchor="middle" x="154.5" y="-127.5" font-family="Helvetica,sans-Serif" font-size="10.00">ResourceAlloc</text>
</a>
</g>
</g>
<!-- Node4&#45;&gt;Node2 -->
<g id="edge3_Node000002_Node000004" class="edge">
<title>Node4&#45;&gt;Node2</title>
<g id="a_edge3_Node000002_Node000004"><a xlink:title=" ">
<path fill="none" stroke="#63b8ff" d="M138.78,-112.91C129.2,-102.27 117.36,-89.11 109.63,-80.53"/>
<polygon fill="#63b8ff" stroke="#63b8ff" points="136.15,-115.22 145.44,-120.31 141.35,-110.53 136.15,-115.22"/>
</a>
</g>
</g>
<!-- Node5 -->
<g id="Node000005" class="node">
<title>Node5</title>
<g id="a_Node000005"><a xlink:href="class_ogre_1_1_singleton.html" target="_top" xlink:title=" ">
<polygon fill="white" stroke="#666666" points="304.88,-85.75 180.12,-85.75 180.12,-55.25 304.88,-55.25 304.88,-85.75"/>
<text text-anchor="start" x="188.12" y="-72.25" font-family="Helvetica,sans-Serif" font-size="10.00">Ogre::Singleton&lt; Material</text>
<text text-anchor="middle" x="242.5" y="-61" font-family="Helvetica,sans-Serif" font-size="10.00">Manager &gt;</text>
</a>
</g>
</g>
<!-- Node5&#45;&gt;Node1 -->
<g id="edge4_Node000001_Node000005" class="edge">
<title>Node5&#45;&gt;Node1</title>
<g id="a_edge4_Node000001_Node000005"><a xlink:title=" ">
<path fill="none" stroke="#63b8ff" d="M216.37,-47.83C204.65,-38.12 191.47,-27.19 182.45,-19.7"/>
<polygon fill="#63b8ff" stroke="#63b8ff" points="213.85,-50.29 223.78,-53.98 218.32,-44.9 213.85,-50.29"/>
</a>
</g>
</g>
</g>
</svg>
