<?xml version="1.0" encoding="UTF-8" standalone="no"?>
<!DOCTYPE svg PUBLIC "-//W3C//DTD SVG 1.1//EN"
 "http://www.w3.org/Graphics/SVG/1.1/DTD/svg11.dtd">
<!-- Generated by graphviz version 9.0.0 (20230911.1827)
 -->
<!-- Title: Ogre::v1::MeshSerializerImpl_v1_10 Pages: 1 -->
<svg width="147pt" height="470pt"
 viewBox="0.00 0.00 147.00 470.25" xmlns="http://www.w3.org/2000/svg" xmlns:xlink="http://www.w3.org/1999/xlink">
<g id="graph0" class="graph" transform="scale(1 1) rotate(0) translate(4 466.25)">
<title>Ogre::v1::MeshSerializerImpl_v1_10</title>
<!-- Node1 -->
<g id="Node000001" class="node">
<title>Node1</title>
<g id="a_Node000001"><a xlink:title="Class for providing backwards&#45;compatibility for loading version 1.10 of the .mesh format.">
<polygon fill="#999999" stroke="#666666" points="129.62,-296.5 9.38,-296.5 9.38,-266 129.62,-266 129.62,-296.5"/>
<text text-anchor="start" x="17.38" y="-283" font-family="Helvetica,sans-Serif" font-size="10.00">Ogre::v1::MeshSerializer</text>
<text text-anchor="middle" x="69.5" y="-271.75" font-family="Helvetica,sans-Serif" font-size="10.00">Impl_v1_10</text>
</a>
</g>
</g>
<!-- Node5 -->
<g id="Node000005" class="node">
<title>Node5</title>
<g id="a_Node000005"><a xlink:href="class_ogre_1_1v1_1_1_mesh_serializer_impl__v1__8.html" target="_top" xlink:title="Class for providing backwards&#45;compatibility for loading version 1.8 of the .mesh format.">
<polygon fill="white" stroke="#666666" points="129.62,-230 9.38,-230 9.38,-199.5 129.62,-199.5 129.62,-230"/>
<text text-anchor="start" x="17.38" y="-216.5" font-family="Helvetica,sans-Serif" font-size="10.00">Ogre::v1::MeshSerializer</text>
<text text-anchor="middle" x="69.5" y="-205.25" font-family="Helvetica,sans-Serif" font-size="10.00">Impl_v1_8</text>
</a>
</g>
</g>
<!-- Node1&#45;&gt;Node5 -->
<g id="edge4_Node000001_Node000005" class="edge">
<title>Node1&#45;&gt;Node5</title>
<g id="a_edge4_Node000001_Node000005"><a xlink:title=" ">
<path fill="none" stroke="#63b8ff" d="M69.5,-254.31C69.5,-246.14 69.5,-237.41 69.5,-230.33"/>
<polygon fill="#63b8ff" stroke="#63b8ff" points="66,-254.1 69.5,-264.1 73,-254.1 66,-254.1"/>
</a>
</g>
</g>
<!-- Node2 -->
<g id="Node000002" class="node">
<title>Node2</title>
<g id="a_Node000002"><a xlink:href="class_ogre_1_1v1_1_1_mesh_serializer_impl.html" target="_top" xlink:title="Internal implementation of Mesh reading / writing for the latest version of the .mesh format.">
<polygon fill="white" stroke="#666666" points="139,-351.75 0,-351.75 0,-332.5 139,-332.5 139,-351.75"/>
<text text-anchor="middle" x="69.5" y="-338.25" font-family="Helvetica,sans-Serif" font-size="10.00">Ogre::v1::MeshSerializerImpl</text>
</a>
</g>
</g>
<!-- Node2&#45;&gt;Node1 -->
<g id="edge1_Node000001_Node000002" class="edge">
<title>Node2&#45;&gt;Node1</title>
<g id="a_edge1_Node000001_Node000002"><a xlink:title=" ">
<path fill="none" stroke="#63b8ff" d="M69.5,-320.92C69.5,-312.99 69.5,-304.06 69.5,-296.78"/>
<polygon fill="#63b8ff" stroke="#63b8ff" points="66,-320.67 69.5,-330.67 73,-320.67 66,-320.67"/>
</a>
</g>
</g>
<!-- Node3 -->
<g id="Node000003" class="node">
<title>Node3</title>
<g id="a_Node000003"><a xlink:href="class_ogre_1_1_serializer.html" target="_top" xlink:title="Generic class for serialising data to / from binary stream&#45;based files.">
<polygon fill="white" stroke="#666666" points="110.12,-407 28.88,-407 28.88,-387.75 110.12,-387.75 110.12,-407"/>
<text text-anchor="middle" x="69.5" y="-393.5" font-family="Helvetica,sans-Serif" font-size="10.00">Ogre::Serializer</text>
</a>
</g>
</g>
<!-- Node3&#45;&gt;Node2 -->
<g id="edge2_Node000002_Node000003" class="edge">
<title>Node3&#45;&gt;Node2</title>
<g id="a_edge2_Node000002_Node000003"><a xlink:title=" ">
<path fill="none" stroke="#63b8ff" d="M69.5,-376.13C69.5,-367.84 69.5,-358.67 69.5,-352.11"/>
<polygon fill="#63b8ff" stroke="#63b8ff" points="66,-376.07 69.5,-386.07 73,-376.07 66,-376.07"/>
</a>
</g>
</g>
<!-- Node4 -->
<g id="Node000004" class="node">
<title>Node4</title>
<g id="a_Node000004"><a xlink:href="class_ogre_1_1_allocated_object.html" target="_top" xlink:title="Superclass for all objects that wish to use custom memory allocators when their new / delete operator...">
<polygon fill="white" stroke="#666666" points="108.25,-462.25 30.75,-462.25 30.75,-443 108.25,-443 108.25,-462.25"/>
<text text-anchor="middle" x="69.5" y="-448.75" font-family="Helvetica,sans-Serif" font-size="10.00">SerializerAlloc</text>
</a>
</g>
</g>
<!-- Node4&#45;&gt;Node3 -->
<g id="edge3_Node000003_Node000004" class="edge">
<title>Node4&#45;&gt;Node3</title>
<g id="a_edge3_Node000003_Node000004"><a xlink:title=" ">
<path fill="none" stroke="#63b8ff" d="M69.5,-431.38C69.5,-423.09 69.5,-413.92 69.5,-407.36"/>
<polygon fill="#63b8ff" stroke="#63b8ff" points="66,-431.32 69.5,-441.32 73,-431.32 66,-431.32"/>
</a>
</g>
</g>
<!-- Node6 -->
<g id="Node000006" class="node">
<title>Node6</title>
<g id="a_Node000006"><a xlink:href="class_ogre_1_1v1_1_1_mesh_serializer_impl__v1__41.html" target="_top" xlink:title="Class for providing backwards&#45;compatibility for loading version 1.41 of the .mesh format.">
<polygon fill="white" stroke="#666666" points="129.62,-163.5 9.38,-163.5 9.38,-133 129.62,-133 129.62,-163.5"/>
<text text-anchor="start" x="17.38" y="-150" font-family="Helvetica,sans-Serif" font-size="10.00">Ogre::v1::MeshSerializer</text>
<text text-anchor="middle" x="69.5" y="-138.75" font-family="Helvetica,sans-Serif" font-size="10.00">Impl_v1_41</text>
</a>
</g>
</g>
<!-- Node5&#45;&gt;Node6 -->
<g id="edge5_Node000005_Node000006" class="edge">
<title>Node5&#45;&gt;Node6</title>
<g id="a_edge5_Node000005_Node000006"><a xlink:title=" ">
<path fill="none" stroke="#63b8ff" d="M69.5,-187.81C69.5,-179.64 69.5,-170.91 69.5,-163.83"/>
<polygon fill="#63b8ff" stroke="#63b8ff" points="66,-187.6 69.5,-197.6 73,-187.6 66,-187.6"/>
</a>
</g>
</g>
<!-- Node7 -->
<g id="Node000007" class="node">
<title>Node7</title>
<g id="a_Node000007"><a xlink:href="class_ogre_1_1v1_1_1_mesh_serializer_impl__v1__4.html" target="_top" xlink:title="Class for providing backwards&#45;compatibility for loading version 1.4 of the .mesh format.">
<polygon fill="white" stroke="#666666" points="129.62,-97 9.38,-97 9.38,-66.5 129.62,-66.5 129.62,-97"/>
<text text-anchor="start" x="17.38" y="-83.5" font-family="Helvetica,sans-Serif" font-size="10.00">Ogre::v1::MeshSerializer</text>
<text text-anchor="middle" x="69.5" y="-72.25" font-family="Helvetica,sans-Serif" font-size="10.00">Impl_v1_4</text>
</a>
</g>
</g>
<!-- Node6&#45;&gt;Node7 -->
<g id="edge6_Node000006_Node000007" class="edge">
<title>Node6&#45;&gt;Node7</title>
<g id="a_edge6_Node000006_Node000007"><a xlink:title=" ">
<path fill="none" stroke="#63b8ff" d="M69.5,-121.31C69.5,-113.14 69.5,-104.41 69.5,-97.33"/>
<polygon fill="#63b8ff" stroke="#63b8ff" points="66,-121.1 69.5,-131.1 73,-121.1 66,-121.1"/>
</a>
</g>
</g>
<!-- Node8 -->
<g id="Node000008" class="node">
<title>Node8</title>
<g id="a_Node000008"><a xlink:href="class_ogre_1_1v1_1_1_mesh_serializer_impl__v1__3.html" target="_top" xlink:title="Class for providing backwards&#45;compatibility for loading version 1.3 of the .mesh format.">
<polygon fill="#fff0f0" stroke="red" points="129.62,-30.5 9.38,-30.5 9.38,0 129.62,0 129.62,-30.5"/>
<text text-anchor="start" x="17.38" y="-17" font-family="Helvetica,sans-Serif" font-size="10.00">Ogre::v1::MeshSerializer</text>
<text text-anchor="middle" x="69.5" y="-5.75" font-family="Helvetica,sans-Serif" font-size="10.00">Impl_v1_3</text>
</a>
</g>
</g>
<!-- Node7&#45;&gt;Node8 -->
<g id="edge7_Node000007_Node000008" class="edge">
<title>Node7&#45;&gt;Node8</title>
<g id="a_edge7_Node000007_Node000008"><a xlink:title=" ">
<path fill="none" stroke="#63b8ff" d="M69.5,-54.81C69.5,-46.64 69.5,-37.91 69.5,-30.83"/>
<polygon fill="#63b8ff" stroke="#63b8ff" points="66,-54.6 69.5,-64.6 73,-54.6 66,-54.6"/>
</a>
</g>
</g>
</g>
</svg>
