<?xml version="1.0" encoding="UTF-8" standalone="no"?>
<!DOCTYPE svg PUBLIC "-//W3C//DTD SVG 1.1//EN"
 "http://www.w3.org/Graphics/SVG/1.1/DTD/svg11.dtd">
<!-- Generated by graphviz version 7.0.5 (20221223.1930)
 -->
<!-- Title: Ogre::GL3PlusTexBufferEmulatedPacked Pages: 1 -->
<svg width="260pt" height="203pt"
 viewBox="0.00 0.00 260.00 203.00" xmlns="http://www.w3.org/2000/svg" xmlns:xlink="http://www.w3.org/1999/xlink">
<g id="graph0" class="graph" transform="scale(1 1) rotate(0) translate(4 199)">
<title>Ogre::GL3PlusTexBufferEmulatedPacked</title>
<!-- Node1 -->
<g id="node1" class="node">
<title>Node1</title>
<g id="a_node1"><a xlink:title=" ">
<polygon fill="#999999" stroke="#666666" points="216.5,-30 54.5,-30 54.5,0 216.5,0 216.5,-30"/>
<text text-anchor="start" x="62.5" y="-18" font-family="Helvetica,sans-Serif" font-size="10.00">Ogre::GL3PlusTexBufferEmulated</text>
<text text-anchor="middle" x="135.5" y="-7" font-family="Helvetica,sans-Serif" font-size="10.00">Packed</text>
</a>
</g>
</g>
<!-- Node2 -->
<g id="node2" class="node">
<title>Node2</title>
<g id="a_node2"><a xlink:href="class_ogre_1_1_tex_buffer_packed.html" target="_top" xlink:title="Represents Texture buffers (also known as tbuffers in D3D11)">
<polygon fill="white" stroke="#666666" points="193.5,-85 77.5,-85 77.5,-66 193.5,-66 193.5,-85"/>
<text text-anchor="middle" x="135.5" y="-73" font-family="Helvetica,sans-Serif" font-size="10.00">Ogre::TexBufferPacked</text>
</a>
</g>
</g>
<!-- Node2&#45;&gt;Node1 -->
<g id="edge1" class="edge">
<title>Node2&#45;&gt;Node1</title>
<path fill="none" stroke="#63b8ff" d="M135.5,-54.51C135.5,-46.49 135.5,-37.43 135.5,-30.11"/>
<polygon fill="#63b8ff" stroke="#63b8ff" points="132,-54.35 135.5,-64.35 139,-54.35 132,-54.35"/>
</g>
<!-- Node3 -->
<g id="node3" class="node">
<title>Node3</title>
<g id="a_node3"><a xlink:href="class_ogre_1_1_buffer_packed.html" target="_top" xlink:title=" ">
<polygon fill="white" stroke="#666666" points="186,-140 85,-140 85,-121 186,-121 186,-140"/>
<text text-anchor="middle" x="135.5" y="-128" font-family="Helvetica,sans-Serif" font-size="10.00">Ogre::BufferPacked</text>
</a>
</g>
</g>
<!-- Node3&#45;&gt;Node2 -->
<g id="edge2" class="edge">
<title>Node3&#45;&gt;Node2</title>
<path fill="none" stroke="#63b8ff" d="M135.5,-109.35C135.5,-101.1 135.5,-91.97 135.5,-85.44"/>
<polygon fill="#63b8ff" stroke="#63b8ff" points="132,-109.23 135.5,-119.23 139,-109.23 132,-109.23"/>
</g>
<!-- Node4 -->
<g id="node4" class="node">
<title>Node4</title>
<g id="a_node4"><a xlink:href="struct_ogre_1_1_gpu_tracked_resource.html" target="_top" xlink:title=" ">
<polygon fill="white" stroke="#666666" points="137,-195 0,-195 0,-176 137,-176 137,-195"/>
<text text-anchor="middle" x="68.5" y="-183" font-family="Helvetica,sans-Serif" font-size="10.00">Ogre::GpuTrackedResource</text>
</a>
</g>
</g>
<!-- Node4&#45;&gt;Node3 -->
<g id="edge3" class="edge">
<title>Node4&#45;&gt;Node3</title>
<path fill="none" stroke="#63b8ff" d="M88.55,-168.64C100.25,-159.39 114.57,-148.05 124.3,-140.36"/>
<polygon fill="#63b8ff" stroke="#63b8ff" points="86.72,-165.62 81.05,-174.57 91.07,-171.11 86.72,-165.62"/>
</g>
<!-- Node5 -->
<g id="node5" class="node">
<title>Node5</title>
<g id="a_node5"><a xlink:href="class_ogre_1_1_allocated_object.html" target="_top" xlink:title="Superclass for all objects that wish to use custom memory allocators when their new / delete operator...">
<polygon fill="white" stroke="#666666" points="252,-195 155,-195 155,-176 252,-176 252,-195"/>
<text text-anchor="middle" x="203.5" y="-183" font-family="Helvetica,sans-Serif" font-size="10.00">BufferPackedAlloc</text>
</a>
</g>
</g>
<!-- Node5&#45;&gt;Node3 -->
<g id="edge4" class="edge">
<title>Node5&#45;&gt;Node3</title>
<path fill="none" stroke="#63b8ff" d="M183.15,-168.64C171.28,-159.39 156.74,-148.05 146.86,-140.36"/>
<polygon fill="#63b8ff" stroke="#63b8ff" points="180.73,-171.19 190.77,-174.58 185.04,-165.67 180.73,-171.19"/>
</g>
</g>
</svg>
