<?xml version="1.0" encoding="UTF-8" standalone="no"?>
<!DOCTYPE svg PUBLIC "-//W3C//DTD SVG 1.1//EN"
 "http://www.w3.org/Graphics/SVG/1.1/DTD/svg11.dtd">
<!-- Generated by graphviz version 7.0.5 (20221223.1930)
 -->
<!-- Title: Ogre::EGLWindow Pages: 1 -->
<svg width="738pt" height="138pt"
 viewBox="0.00 0.00 738.00 138.00" xmlns="http://www.w3.org/2000/svg" xmlns:xlink="http://www.w3.org/1999/xlink">
<g id="graph0" class="graph" transform="scale(1 1) rotate(0) translate(4 134)">
<title>Ogre::EGLWindow</title>
<!-- Node1 -->
<g id="node1" class="node">
<title>Node1</title>
<g id="a_node1"><a xlink:title=" ">
<polygon fill="#999999" stroke="#666666" points="549,-74 453,-74 453,-55 549,-55 549,-74"/>
<text text-anchor="middle" x="501" y="-62" font-family="Helvetica,sans-Serif" font-size="10.00">Ogre::EGLWindow</text>
</a>
</g>
</g>
<!-- Node7 -->
<g id="node7" class="node">
<title>Node7</title>
<g id="a_node7"><a xlink:href="class_ogre_1_1_android_e_g_l_window.html" target="_top" xlink:title=" ">
<polygon fill="white" stroke="#666666" points="722,-130 593,-130 593,-111 722,-111 722,-130"/>
<text text-anchor="middle" x="657.5" y="-118" font-family="Helvetica,sans-Serif" font-size="10.00">Ogre::AndroidEGLWindow</text>
</a>
</g>
</g>
<!-- Node1&#45;&gt;Node7 -->
<g id="edge7" class="edge">
<title>Node1&#45;&gt;Node7</title>
<path fill="none" stroke="#63b8ff" d="M531.16,-79.44C546.83,-87.06 566.66,-96.05 585,-102.5 593.45,-105.47 602.63,-108.16 611.5,-110.51"/>
<polygon fill="#63b8ff" stroke="#63b8ff" points="532.91,-76.4 522.4,-75.1 529.81,-82.67 532.91,-76.4"/>
</g>
<!-- Node8 -->
<g id="node8" class="node">
<title>Node8</title>
<g id="a_node8"><a xlink:href="class_ogre_1_1_emscripten_e_g_l_window.html" target="_top" xlink:title=" ">
<polygon fill="white" stroke="#666666" points="730,-93 585,-93 585,-74 730,-74 730,-93"/>
<text text-anchor="middle" x="657.5" y="-81" font-family="Helvetica,sans-Serif" font-size="10.00">Ogre::EmscriptenEGLWindow</text>
</a>
</g>
</g>
<!-- Node1&#45;&gt;Node8 -->
<g id="edge8" class="edge">
<title>Node1&#45;&gt;Node8</title>
<path fill="none" stroke="#63b8ff" d="M560.48,-71.69C568.35,-72.66 576.49,-73.66 584.56,-74.65"/>
<polygon fill="#63b8ff" stroke="#63b8ff" points="561.05,-68.24 550.7,-70.49 560.19,-75.18 561.05,-68.24"/>
</g>
<!-- Node9 -->
<g id="node9" class="node">
<title>Node9</title>
<g id="a_node9"><a xlink:href="class_ogre_1_1_win32_e_g_l_window.html" target="_top" xlink:title=" ">
<polygon fill="white" stroke="#666666" points="719,-56 596,-56 596,-37 719,-37 719,-56"/>
<text text-anchor="middle" x="657.5" y="-44" font-family="Helvetica,sans-Serif" font-size="10.00">Ogre::Win32EGLWindow</text>
</a>
</g>
</g>
<!-- Node1&#45;&gt;Node9 -->
<g id="edge9" class="edge">
<title>Node1&#45;&gt;Node9</title>
<path fill="none" stroke="#63b8ff" d="M560.46,-57.69C571.95,-56.35 584.04,-54.94 595.62,-53.59"/>
<polygon fill="#63b8ff" stroke="#63b8ff" points="560.23,-54.19 550.7,-58.83 561.04,-61.15 560.23,-54.19"/>
</g>
<!-- Node10 -->
<g id="node10" class="node">
<title>Node10</title>
<g id="a_node10"><a xlink:href="class_ogre_1_1_x11_e_g_l_window.html" target="_top" xlink:title=" ">
<polygon fill="white" stroke="#666666" points="714,-19 601,-19 601,0 714,0 714,-19"/>
<text text-anchor="middle" x="657.5" y="-7" font-family="Helvetica,sans-Serif" font-size="10.00">Ogre::X11EGLWindow</text>
</a>
</g>
</g>
<!-- Node1&#45;&gt;Node10 -->
<g id="edge10" class="edge">
<title>Node1&#45;&gt;Node10</title>
<path fill="none" stroke="#63b8ff" d="M531.83,-49.7C547.41,-42.36 566.95,-33.74 585,-27.5 593.59,-24.53 602.91,-21.82 611.91,-19.46"/>
<polygon fill="#63b8ff" stroke="#63b8ff" points="530.6,-46.4 523.1,-53.88 533.63,-52.72 530.6,-46.4"/>
</g>
<!-- Node2 -->
<g id="node2" class="node">
<title>Node2</title>
<g id="a_node2"><a xlink:href="class_ogre_1_1_window.html" target="_top" xlink:title=" ">
<polygon fill="white" stroke="#666666" points="402,-93 325,-93 325,-74 402,-74 402,-93"/>
<text text-anchor="middle" x="363.5" y="-81" font-family="Helvetica,sans-Serif" font-size="10.00">Ogre::Window</text>
</a>
</g>
</g>
<!-- Node2&#45;&gt;Node1 -->
<g id="edge1" class="edge">
<title>Node2&#45;&gt;Node1</title>
<path fill="none" stroke="#63b8ff" d="M413.64,-76.61C426.4,-74.82 440.12,-72.9 452.79,-71.12"/>
<polygon fill="#63b8ff" stroke="#63b8ff" points="413.16,-73.14 403.74,-78 414.13,-80.07 413.16,-73.14"/>
</g>
<!-- Node3 -->
<g id="node3" class="node">
<title>Node3</title>
<g id="a_node3"><a xlink:href="class_ogre_1_1_allocated_object.html" target="_top" xlink:title="Superclass for all objects that wish to use custom memory allocators when their new / delete operator...">
<polygon fill="white" stroke="#666666" points="111.5,-93 25.5,-93 25.5,-74 111.5,-74 111.5,-93"/>
<text text-anchor="middle" x="68.5" y="-81" font-family="Helvetica,sans-Serif" font-size="10.00">RenderSysAlloc</text>
</a>
</g>
</g>
<!-- Node3&#45;&gt;Node2 -->
<g id="edge2" class="edge">
<title>Node3&#45;&gt;Node2</title>
<path fill="none" stroke="#63b8ff" d="M123.01,-83.5C181.47,-83.5 273.59,-83.5 324.87,-83.5"/>
<polygon fill="#63b8ff" stroke="#63b8ff" points="123.31,-80 113.31,-83.5 123.31,-87 123.31,-80"/>
</g>
<!-- Node5 -->
<g id="node5" class="node">
<title>Node5</title>
<g id="a_node5"><a xlink:href="class_ogre_1_1_render_target.html" target="_top" xlink:title="A &#39;canvas&#39; which can receive the results of a rendering operation.">
<polygon fill="white" stroke="#666666" points="274,-56 173,-56 173,-37 274,-37 274,-56"/>
<text text-anchor="middle" x="223.5" y="-44" font-family="Helvetica,sans-Serif" font-size="10.00">Ogre::RenderTarget</text>
</a>
</g>
</g>
<!-- Node3&#45;&gt;Node5 -->
<g id="edge6" class="edge">
<title>Node3&#45;&gt;Node5</title>
<path fill="none" stroke="#63b8ff" d="M121.67,-70.88C141.17,-66.17 163.02,-60.88 181.39,-56.44"/>
<polygon fill="#63b8ff" stroke="#63b8ff" points="120.87,-67.48 111.97,-73.23 122.51,-74.28 120.87,-67.48"/>
</g>
<!-- Node4 -->
<g id="node4" class="node">
<title>Node4</title>
<g id="a_node4"><a xlink:href="class_ogre_1_1_render_window.html" target="_top" xlink:title="Manages the target rendering window.">
<polygon fill="white" stroke="#666666" points="417,-56 310,-56 310,-37 417,-37 417,-56"/>
<text text-anchor="middle" x="363.5" y="-44" font-family="Helvetica,sans-Serif" font-size="10.00">Ogre::RenderWindow</text>
</a>
</g>
</g>
<!-- Node4&#45;&gt;Node1 -->
<g id="edge3" class="edge">
<title>Node4&#45;&gt;Node1</title>
<path fill="none" stroke="#63b8ff" d="M428.42,-54.99C436.66,-56.09 444.98,-57.19 452.89,-58.24"/>
<polygon fill="#63b8ff" stroke="#63b8ff" points="429.15,-51.56 418.78,-53.71 428.23,-58.5 429.15,-51.56"/>
</g>
<!-- Node5&#45;&gt;Node4 -->
<g id="edge4" class="edge">
<title>Node5&#45;&gt;Node4</title>
<path fill="none" stroke="#63b8ff" d="M285.64,-46.5C293.75,-46.5 302.01,-46.5 309.96,-46.5"/>
<polygon fill="#63b8ff" stroke="#63b8ff" points="285.83,-43 275.83,-46.5 285.83,-50 285.83,-43"/>
</g>
<!-- Node6 -->
<g id="node6" class="node">
<title>Node6</title>
<g id="a_node6"><a xlink:href="struct_ogre_1_1_gpu_tracked_resource.html" target="_top" xlink:title=" ">
<polygon fill="white" stroke="#666666" points="137,-56 0,-56 0,-37 137,-37 137,-56"/>
<text text-anchor="middle" x="68.5" y="-44" font-family="Helvetica,sans-Serif" font-size="10.00">Ogre::GpuTrackedResource</text>
</a>
</g>
</g>
<!-- Node6&#45;&gt;Node5 -->
<g id="edge5" class="edge">
<title>Node6&#45;&gt;Node5</title>
<path fill="none" stroke="#63b8ff" d="M148.9,-46.5C156.96,-46.5 164.99,-46.5 172.61,-46.5"/>
<polygon fill="#63b8ff" stroke="#63b8ff" points="149.01,-43 139.01,-46.5 149.01,-50 149.01,-43"/>
</g>
</g>
</svg>
