<?xml version="1.0" encoding="UTF-8" standalone="no"?>
<!DOCTYPE svg PUBLIC "-//W3C//DTD SVG 1.1//EN"
 "http://www.w3.org/Graphics/SVG/1.1/DTD/svg11.dtd">
<!-- Generated by graphviz version 2.44.0 ()
 -->
<!-- Title: Ogre::RenderSystem::Listener Pages: 1 -->
<svg width="318pt" height="95pt"
 viewBox="0.00 0.00 318.00 95.00" xmlns="http://www.w3.org/2000/svg" xmlns:xlink="http://www.w3.org/1999/xlink">
<g id="graph0" class="graph" transform="scale(1 1) rotate(0) translate(4 91)">
<title>Ogre::RenderSystem::Listener</title>
<!-- Node1 -->
<g id="node1" class="node">
<title>Node1</title>
<g id="a_node1"><a xlink:title="Defines a listener on the custom events that this render system can raise.">
<polygon fill="#bfbfbf" stroke="black" points="113.5,-56.5 113.5,-86.5 219.5,-86.5 219.5,-56.5 113.5,-56.5"/>
<text text-anchor="start" x="121.5" y="-74.5" font-family="Helvetica,sans-Serif" font-size="10.00">Ogre::RenderSystem</text>
<text text-anchor="middle" x="166.5" y="-63.5" font-family="Helvetica,sans-Serif" font-size="10.00">::Listener</text>
</a>
</g>
</g>
<!-- Node2 -->
<g id="node2" class="node">
<title>Node2</title>
<g id="a_node2"><a xlink:href="class_ogre_1_1_d3_d11_render_pass_descriptor.html" target="_top" xlink:title="D3D11 will share groups of ID3D11RenderTargetView all D3D11RenderPassDescriptor that share the same R...">
<polygon fill="none" stroke="black" points="0,-0.5 0,-19.5 169,-19.5 169,-0.5 0,-0.5"/>
<text text-anchor="middle" x="84.5" y="-7.5" font-family="Helvetica,sans-Serif" font-size="10.00">Ogre::D3D11RenderPassDescriptor</text>
</a>
</g>
</g>
<!-- Node1&#45;&gt;Node2 -->
<g id="edge1" class="edge">
<title>Node1&#45;&gt;Node2</title>
<path fill="none" stroke="midnightblue" d="M138.91,-50.48C124.47,-40 107.53,-27.71 96.43,-19.66"/>
<polygon fill="midnightblue" stroke="midnightblue" points="136.92,-53.36 147.07,-56.4 141.03,-47.69 136.92,-53.36"/>
</g>
<!-- Node3 -->
<g id="node3" class="node">
<title>Node3</title>
<g id="a_node3"><a xlink:href="class_ogre_1_1v1_1_1_overlay_system.html" target="_top" xlink:title="This class simplify initialization / finalization of the overlay system.">
<polygon fill="none" stroke="black" points="187,-0.5 187,-19.5 310,-19.5 310,-0.5 187,-0.5"/>
<text text-anchor="middle" x="248.5" y="-7.5" font-family="Helvetica,sans-Serif" font-size="10.00">Ogre::v1::OverlaySystem</text>
</a>
</g>
</g>
<!-- Node1&#45;&gt;Node3 -->
<g id="edge2" class="edge">
<title>Node1&#45;&gt;Node3</title>
<path fill="none" stroke="midnightblue" d="M194.09,-50.48C208.53,-40 225.47,-27.71 236.57,-19.66"/>
<polygon fill="midnightblue" stroke="midnightblue" points="191.97,-47.69 185.93,-56.4 196.08,-53.36 191.97,-47.69"/>
</g>
</g>
</svg>
