<?xml version="1.0" encoding="UTF-8" standalone="no"?>
<!DOCTYPE svg PUBLIC "-//W3C//DTD SVG 1.1//EN"
 "http://www.w3.org/Graphics/SVG/1.1/DTD/svg11.dtd">
<!-- Generated by graphviz version 9.0.0 (20230911.1827)
 -->
<!-- Title: Ogre::PixelBox Pages: 1 -->
<svg width="148pt" height="83pt"
 viewBox="0.00 0.00 148.38 82.50" xmlns="http://www.w3.org/2000/svg" xmlns:xlink="http://www.w3.org/1999/xlink">
<g id="graph0" class="graph" transform="scale(1 1) rotate(0) translate(4 78.5)">
<title>Ogre::PixelBox</title>
<!-- Node1 -->
<g id="Node000001" class="node">
<title>Node1</title>
<g id="a_Node000001"><a xlink:title=" ">
<polygon fill="#999999" stroke="#666666" points="107.5,-19.25 28.5,-19.25 28.5,0 107.5,0 107.5,-19.25"/>
<text text-anchor="middle" x="68" y="-5.75" font-family="Helvetica,sans-Serif" font-size="10.00">Ogre::PixelBox</text>
</a>
</g>
</g>
<!-- Node2 -->
<g id="Node000002" class="node">
<title>Node2</title>
<g id="a_Node000002"><a xlink:href="struct_ogre_1_1_box.html" target="_top" xlink:title="Structure used to define a box in a 3&#45;D integer space.">
<polygon fill="white" stroke="#666666" points="58,-74.5 0,-74.5 0,-55.25 58,-55.25 58,-74.5"/>
<text text-anchor="middle" x="29" y="-61" font-family="Helvetica,sans-Serif" font-size="10.00">Ogre::Box</text>
</a>
</g>
</g>
<!-- Node2&#45;&gt;Node1 -->
<g id="edge1_Node000001_Node000002" class="edge">
<title>Node2&#45;&gt;Node1</title>
<g id="a_edge1_Node000001_Node000002"><a xlink:title=" ">
<path fill="none" stroke="#63b8ff" d="M42.14,-45.94C48.62,-37.09 56.16,-26.79 61.42,-19.61"/>
<polygon fill="#63b8ff" stroke="#63b8ff" points="39.42,-43.73 36.33,-53.86 45.07,-47.86 39.42,-43.73"/>
</a>
</g>
</g>
<!-- Node3 -->
<g id="Node000003" class="node">
<title>Node3</title>
<g id="a_Node000003"><a xlink:href="class_ogre_1_1_allocated_object.html" target="_top" xlink:title="Superclass for all objects that wish to use custom memory allocators when their new / delete operator...">
<polygon fill="white" stroke="#666666" points="140.38,-74.5 75.62,-74.5 75.62,-55.25 140.38,-55.25 140.38,-74.5"/>
<text text-anchor="middle" x="108" y="-61" font-family="Helvetica,sans-Serif" font-size="10.00">ImageAlloc</text>
</a>
</g>
</g>
<!-- Node3&#45;&gt;Node1 -->
<g id="edge2_Node000001_Node000003" class="edge">
<title>Node3&#45;&gt;Node1</title>
<g id="a_edge2_Node000001_Node000003"><a xlink:title=" ">
<path fill="none" stroke="#63b8ff" d="M94.53,-45.94C87.88,-37.09 80.14,-26.79 74.75,-19.61"/>
<polygon fill="#63b8ff" stroke="#63b8ff" points="91.68,-47.98 100.49,-53.87 97.28,-43.77 91.68,-47.98"/>
</a>
</g>
</g>
</g>
</svg>
