<?xml version="1.0" encoding="UTF-8" standalone="no"?>
<!DOCTYPE svg PUBLIC "-//W3C//DTD SVG 1.1//EN"
 "http://www.w3.org/Graphics/SVG/1.1/DTD/svg11.dtd">
<!-- Generated by graphviz version 9.0.0 (20230911.1827)
 -->
<!-- Title: Ogre::OctreeSphereSceneQuery Pages: 1 -->
<svg width="250pt" height="260pt"
 viewBox="0.00 0.00 250.38 259.50" xmlns="http://www.w3.org/2000/svg" xmlns:xlink="http://www.w3.org/1999/xlink">
<g id="graph0" class="graph" transform="scale(1 1) rotate(0) translate(4 255.5)">
<title>Ogre::OctreeSphereSceneQuery</title>
<!-- Node1 -->
<g id="Node000001" class="node">
<title>Node1</title>
<g id="a_Node000001"><a xlink:title="Octree implementation of SphereSceneQuery.">
<polygon fill="#999999" stroke="#666666" points="189.75,-19.25 35,-19.25 35,0 189.75,0 189.75,-19.25"/>
<text text-anchor="middle" x="112.38" y="-5.75" font-family="Helvetica,sans-Serif" font-size="10.00">Ogre::OctreeSphereSceneQuery</text>
</a>
</g>
</g>
<!-- Node2 -->
<g id="Node000002" class="node">
<title>Node2</title>
<g id="a_Node000002"><a xlink:href="class_ogre_1_1_default_sphere_scene_query.html" target="_top" xlink:title="Default implementation of SphereSceneQuery.">
<polygon fill="white" stroke="#666666" points="177.75,-85.75 47,-85.75 47,-55.25 177.75,-55.25 177.75,-85.75"/>
<text text-anchor="start" x="55" y="-72.25" font-family="Helvetica,sans-Serif" font-size="10.00">Ogre::DefaultSphereScene</text>
<text text-anchor="middle" x="112.38" y="-61" font-family="Helvetica,sans-Serif" font-size="10.00">Query</text>
</a>
</g>
</g>
<!-- Node2&#45;&gt;Node1 -->
<g id="edge1_Node000001_Node000002" class="edge">
<title>Node2&#45;&gt;Node1</title>
<g id="a_edge1_Node000001_Node000002"><a xlink:title=" ">
<path fill="none" stroke="#63b8ff" d="M112.38,-43.48C112.38,-34.98 112.38,-26.09 112.38,-19.7"/>
<polygon fill="#63b8ff" stroke="#63b8ff" points="108.88,-43.43 112.38,-53.43 115.88,-43.43 108.88,-43.43"/>
</a>
</g>
</g>
<!-- Node3 -->
<g id="Node000003" class="node">
<title>Node3</title>
<g id="a_Node000003"><a xlink:href="class_ogre_1_1_sphere_scene_query.html" target="_top" xlink:title="Specialises the SceneQuery class for querying within a sphere.">
<polygon fill="white" stroke="#666666" points="175.12,-141 49.62,-141 49.62,-121.75 175.12,-121.75 175.12,-141"/>
<text text-anchor="middle" x="112.38" y="-127.5" font-family="Helvetica,sans-Serif" font-size="10.00">Ogre::SphereSceneQuery</text>
</a>
</g>
</g>
<!-- Node3&#45;&gt;Node2 -->
<g id="edge2_Node000002_Node000003" class="edge">
<title>Node3&#45;&gt;Node2</title>
<g id="a_edge2_Node000002_Node000003"><a xlink:title=" ">
<path fill="none" stroke="#63b8ff" d="M112.38,-110.17C112.38,-102.24 112.38,-93.31 112.38,-86.03"/>
<polygon fill="#63b8ff" stroke="#63b8ff" points="108.88,-109.92 112.38,-119.92 115.88,-109.92 108.88,-109.92"/>
</a>
</g>
</g>
<!-- Node4 -->
<g id="Node000004" class="node">
<title>Node4</title>
<g id="a_Node000004"><a xlink:href="class_ogre_1_1_region_scene_query.html" target="_top" xlink:title="Abstract class defining a query which returns single results from a region.">
<polygon fill="white" stroke="#666666" points="174.75,-196.25 50,-196.25 50,-177 174.75,-177 174.75,-196.25"/>
<text text-anchor="middle" x="112.38" y="-182.75" font-family="Helvetica,sans-Serif" font-size="10.00">Ogre::RegionSceneQuery</text>
</a>
</g>
</g>
<!-- Node4&#45;&gt;Node3 -->
<g id="edge3_Node000003_Node000004" class="edge">
<title>Node4&#45;&gt;Node3</title>
<g id="a_edge3_Node000003_Node000004"><a xlink:title=" ">
<path fill="none" stroke="#63b8ff" d="M112.38,-165.38C112.38,-157.09 112.38,-147.92 112.38,-141.36"/>
<polygon fill="#63b8ff" stroke="#63b8ff" points="108.88,-165.32 112.38,-175.32 115.88,-165.32 108.88,-165.32"/>
</a>
</g>
</g>
<!-- Node5 -->
<g id="Node000005" class="node">
<title>Node5</title>
<g id="a_Node000005"><a xlink:href="class_ogre_1_1_scene_query.html" target="_top" xlink:title="A class for performing queries on a scene.">
<polygon fill="#fff0f0" stroke="red" points="94.75,-251.5 0,-251.5 0,-232.25 94.75,-232.25 94.75,-251.5"/>
<text text-anchor="middle" x="47.38" y="-238" font-family="Helvetica,sans-Serif" font-size="10.00">Ogre::SceneQuery</text>
</a>
</g>
</g>
<!-- Node5&#45;&gt;Node4 -->
<g id="edge4_Node000004_Node000005" class="edge">
<title>Node5&#45;&gt;Node4</title>
<g id="a_edge4_Node000004_Node000005"><a xlink:title=" ">
<path fill="none" stroke="#63b8ff" d="M67.16,-224.66C78.45,-215.42 92.17,-204.18 101.51,-196.52"/>
<polygon fill="#63b8ff" stroke="#63b8ff" points="65.09,-221.84 59.57,-230.88 69.53,-227.25 65.09,-221.84"/>
</a>
</g>
</g>
<!-- Node7 -->
<g id="Node000007" class="node">
<title>Node7</title>
<g id="a_Node000007"><a xlink:href="class_ogre_1_1_scene_query_listener.html" target="_top" xlink:title="This optional class allows you to receive per&#45;result callbacks from SceneQuery executions instead of ...">
<polygon fill="white" stroke="#666666" points="242.38,-251.5 112.38,-251.5 112.38,-232.25 242.38,-232.25 242.38,-251.5"/>
<text text-anchor="middle" x="177.38" y="-238" font-family="Helvetica,sans-Serif" font-size="10.00">Ogre::SceneQueryListener</text>
</a>
</g>
</g>
<!-- Node7&#45;&gt;Node4 -->
<g id="edge5_Node000004_Node000007" class="edge">
<title>Node7&#45;&gt;Node4</title>
<g id="a_edge5_Node000004_Node000007"><a xlink:title=" ">
<path fill="none" stroke="#63b8ff" d="M157.59,-224.66C146.3,-215.42 132.58,-204.18 123.24,-196.52"/>
<polygon fill="#63b8ff" stroke="#63b8ff" points="155.22,-227.25 165.18,-230.88 159.66,-221.84 155.22,-227.25"/>
</a>
</g>
</g>
</g>
</svg>
