<?xml version="1.0" encoding="UTF-8" standalone="no"?>
<!DOCTYPE svg PUBLIC "-//W3C//DTD SVG 1.1//EN"
 "http://www.w3.org/Graphics/SVG/1.1/DTD/svg11.dtd">
<!-- Generated by graphviz version 2.44.0 ()
 -->
<!-- Title: Ogre::Volume::Chunk Pages: 1 -->
<svg width="226pt" height="84pt"
 viewBox="0.00 0.00 226.00 84.00" xmlns="http://www.w3.org/2000/svg" xmlns:xlink="http://www.w3.org/1999/xlink">
<g id="graph0" class="graph" transform="scale(1 1) rotate(0) translate(4 80)">
<title>Ogre::Volume::Chunk</title>
<!-- Node1 -->
<g id="node1" class="node">
<title>Node1</title>
<g id="a_node1"><a xlink:title="A single volume chunk mesh.">
<polygon fill="#bfbfbf" stroke="black" points="53,-0.5 53,-19.5 160,-19.5 160,-0.5 53,-0.5"/>
<text text-anchor="middle" x="106.5" y="-7.5" font-family="Helvetica,sans-Serif" font-size="10.00">Ogre::Volume::Chunk</text>
</a>
</g>
</g>
<!-- Node2 -->
<g id="node2" class="node">
<title>Node2</title>
<g id="a_node2"><a xlink:title=" ">
<polygon fill="none" stroke="#bfbfbf" points="0,-56.5 0,-75.5 95,-75.5 95,-56.5 0,-56.5"/>
<text text-anchor="middle" x="47.5" y="-63.5" font-family="Helvetica,sans-Serif" font-size="10.00">SimpleRenderable</text>
</a>
</g>
</g>
<!-- Node2&#45;&gt;Node1 -->
<g id="edge1" class="edge">
<title>Node2&#45;&gt;Node1</title>
<path fill="none" stroke="midnightblue" d="M64.39,-49.54C74.91,-39.91 88.07,-27.87 96.85,-19.83"/>
<polygon fill="midnightblue" stroke="midnightblue" points="61.99,-46.99 56.98,-56.32 66.72,-52.15 61.99,-46.99"/>
</g>
<!-- Node3 -->
<g id="node3" class="node">
<title>Node3</title>
<g id="a_node3"><a xlink:href="class_ogre_1_1_frame_listener.html" target="_top" xlink:title="A interface class defining a listener which can be used to receive notifications of frame events.">
<polygon fill="none" stroke="black" points="113,-56.5 113,-75.5 218,-75.5 218,-56.5 113,-56.5"/>
<text text-anchor="middle" x="165.5" y="-63.5" font-family="Helvetica,sans-Serif" font-size="10.00">Ogre::FrameListener</text>
</a>
</g>
</g>
<!-- Node3&#45;&gt;Node1 -->
<g id="edge2" class="edge">
<title>Node3&#45;&gt;Node1</title>
<path fill="none" stroke="midnightblue" d="M148.61,-49.54C138.09,-39.91 124.93,-27.87 116.15,-19.83"/>
<polygon fill="midnightblue" stroke="midnightblue" points="146.28,-52.15 156.02,-56.32 151.01,-46.99 146.28,-52.15"/>
</g>
</g>
</svg>
