<?xml version="1.0" encoding="UTF-8" standalone="no"?>
<!DOCTYPE svg PUBLIC "-//W3C//DTD SVG 1.1//EN"
 "http://www.w3.org/Graphics/SVG/1.1/DTD/svg11.dtd">
<!-- Generated by graphviz version 7.0.5 (20221223.1930)
 -->
<!-- Title: Ogre::v1::OverlaySystem Pages: 1 -->
<svg width="359pt" height="93pt"
 viewBox="0.00 0.00 358.50 93.00" xmlns="http://www.w3.org/2000/svg" xmlns:xlink="http://www.w3.org/1999/xlink">
<g id="graph0" class="graph" transform="scale(1 1) rotate(0) translate(4 89)">
<title>Ogre::v1::OverlaySystem</title>
<!-- Node1 -->
<g id="node1" class="node">
<title>Node1</title>
<g id="a_node1"><a xlink:title="This class simplify initialization / finalization of the overlay system.">
<polygon fill="#999999" stroke="#666666" points="219,-19 96,-19 96,0 219,0 219,-19"/>
<text text-anchor="middle" x="157.5" y="-7" font-family="Helvetica,sans-Serif" font-size="10.00">Ogre::v1::OverlaySystem</text>
</a>
</g>
</g>
<!-- Node2 -->
<g id="node2" class="node">
<title>Node2</title>
<g id="a_node2"><a xlink:href="class_ogre_1_1_allocated_object.html" target="_top" xlink:title="Superclass for all objects that wish to use custom memory allocators when their new / delete operator...">
<polygon fill="white" stroke="#666666" points="71,-79.5 0,-79.5 0,-60.5 71,-60.5 71,-79.5"/>
<text text-anchor="middle" x="35.5" y="-67.5" font-family="Helvetica,sans-Serif" font-size="10.00">OverlayAlloc</text>
</a>
</g>
</g>
<!-- Node2&#45;&gt;Node1 -->
<g id="edge1" class="edge">
<title>Node2&#45;&gt;Node1</title>
<path fill="none" stroke="#63b8ff" d="M64.24,-55.22C87.28,-44.17 118.93,-28.99 138.8,-19.47"/>
<polygon fill="#63b8ff" stroke="#63b8ff" points="62.9,-51.98 55.39,-59.46 65.92,-58.29 62.9,-51.98"/>
</g>
<!-- Node3 -->
<g id="node3" class="node">
<title>Node3</title>
<g id="a_node3"><a xlink:href="class_ogre_1_1_render_queue_listener.html" target="_top" xlink:title="Abstract interface which classes must implement if they wish to receive events from the render queue.">
<polygon fill="white" stroke="#666666" points="226,-79.5 89,-79.5 89,-60.5 226,-60.5 226,-79.5"/>
<text text-anchor="middle" x="157.5" y="-67.5" font-family="Helvetica,sans-Serif" font-size="10.00">Ogre::RenderQueueListener</text>
</a>
</g>
</g>
<!-- Node3&#45;&gt;Node1 -->
<g id="edge2" class="edge">
<title>Node3&#45;&gt;Node1</title>
<path fill="none" stroke="#63b8ff" d="M157.5,-49.16C157.5,-38.95 157.5,-27.04 157.5,-19.17"/>
<polygon fill="#63b8ff" stroke="#63b8ff" points="154,-48.85 157.5,-58.85 161,-48.85 154,-48.85"/>
</g>
<!-- Node4 -->
<g id="node4" class="node">
<title>Node4</title>
<g id="a_node4"><a xlink:href="class_ogre_1_1_render_system_1_1_listener.html" target="_top" xlink:title="Defines a listener on the custom events that this render system can raise.">
<polygon fill="white" stroke="#666666" points="350.5,-85 244.5,-85 244.5,-55 350.5,-55 350.5,-85"/>
<text text-anchor="start" x="252.5" y="-73" font-family="Helvetica,sans-Serif" font-size="10.00">Ogre::RenderSystem</text>
<text text-anchor="middle" x="297.5" y="-62" font-family="Helvetica,sans-Serif" font-size="10.00">::Listener</text>
</a>
</g>
</g>
<!-- Node4&#45;&gt;Node1 -->
<g id="edge3" class="edge">
<title>Node4&#45;&gt;Node1</title>
<path fill="none" stroke="#63b8ff" d="M252.28,-50.1C227.56,-39.78 198.11,-27.47 178.67,-19.35"/>
<polygon fill="#63b8ff" stroke="#63b8ff" points="250.92,-53.33 261.5,-53.96 253.62,-46.87 250.92,-53.33"/>
</g>
</g>
</svg>
