<?xml version="1.0" encoding="UTF-8" standalone="no"?>
<!DOCTYPE svg PUBLIC "-//W3C//DTD SVG 1.1//EN"
 "http://www.w3.org/Graphics/SVG/1.1/DTD/svg11.dtd">
<!-- Generated by graphviz version 9.0.0 (20230911.1827)
 -->
<!-- Title: Ogre::CompositorPassIblSpecular Pages: 1 -->
<svg width="170pt" height="138pt"
 viewBox="0.00 0.00 170.25 137.75" xmlns="http://www.w3.org/2000/svg" xmlns:xlink="http://www.w3.org/1999/xlink">
<g id="graph0" class="graph" transform="scale(1 1) rotate(0) translate(4 133.75)">
<title>Ogre::CompositorPassIblSpecular</title>
<!-- Node1 -->
<g id="Node000001" class="node">
<title>Node1</title>
<g id="a_Node000001"><a xlink:title="Implementation of CompositorPass This implementation will generate IblSpeculars for the specified tex...">
<polygon fill="#999999" stroke="#666666" points="162.25,-19.25 0,-19.25 0,0 162.25,0 162.25,-19.25"/>
<text text-anchor="middle" x="81.12" y="-5.75" font-family="Helvetica,sans-Serif" font-size="10.00">Ogre::CompositorPassIblSpecular</text>
</a>
</g>
</g>
<!-- Node2 -->
<g id="Node000002" class="node">
<title>Node2</title>
<g id="a_Node000002"><a xlink:href="class_ogre_1_1_compositor_pass.html" target="_top" xlink:title="Abstract class for compositor passes.">
<polygon fill="white" stroke="#666666" points="137.88,-74.5 24.38,-74.5 24.38,-55.25 137.88,-55.25 137.88,-74.5"/>
<text text-anchor="middle" x="81.12" y="-61" font-family="Helvetica,sans-Serif" font-size="10.00">Ogre::CompositorPass</text>
</a>
</g>
</g>
<!-- Node2&#45;&gt;Node1 -->
<g id="edge1_Node000001_Node000002" class="edge">
<title>Node2&#45;&gt;Node1</title>
<g id="a_edge1_Node000001_Node000002"><a xlink:title=" ">
<path fill="none" stroke="#63b8ff" d="M81.12,-43.63C81.12,-35.34 81.12,-26.17 81.12,-19.61"/>
<polygon fill="#63b8ff" stroke="#63b8ff" points="77.63,-43.57 81.13,-53.57 84.63,-43.57 77.63,-43.57"/>
</a>
</g>
</g>
<!-- Node3 -->
<g id="Node000003" class="node">
<title>Node3</title>
<g id="a_Node000003"><a xlink:href="class_ogre_1_1_allocated_object.html" target="_top" xlink:title="Superclass for all objects that wish to use custom memory allocators when their new / delete operator...">
<polygon fill="white" stroke="#666666" points="133,-129.75 29.25,-129.75 29.25,-110.5 133,-110.5 133,-129.75"/>
<text text-anchor="middle" x="81.12" y="-116.25" font-family="Helvetica,sans-Serif" font-size="10.00">CompositorInstAlloc</text>
</a>
</g>
</g>
<!-- Node3&#45;&gt;Node2 -->
<g id="edge2_Node000002_Node000003" class="edge">
<title>Node3&#45;&gt;Node2</title>
<g id="a_edge2_Node000002_Node000003"><a xlink:title=" ">
<path fill="none" stroke="#63b8ff" d="M81.12,-98.88C81.12,-90.59 81.12,-81.42 81.12,-74.86"/>
<polygon fill="#63b8ff" stroke="#63b8ff" points="77.63,-98.82 81.13,-108.82 84.63,-98.82 77.63,-98.82"/>
</a>
</g>
</g>
</g>
</svg>
