<?xml version="1.0" encoding="UTF-8" standalone="no"?>
<!DOCTYPE svg PUBLIC "-//W3C//DTD SVG 1.1//EN"
 "http://www.w3.org/Graphics/SVG/1.1/DTD/svg11.dtd">
<!-- Generated by graphviz version 7.0.5 (20221223.1930)
 -->
<!-- Title: Ogre::TextureGpuManager Pages: 1 -->
<svg width="506pt" height="138pt"
 viewBox="0.00 0.00 506.00 138.00" xmlns="http://www.w3.org/2000/svg" xmlns:xlink="http://www.w3.org/1999/xlink">
<g id="graph0" class="graph" transform="scale(1 1) rotate(0) translate(4 134)">
<title>Ogre::TextureGpuManager</title>
<!-- Node1 -->
<g id="node1" class="node">
<title>Node1</title>
<g id="a_node1"><a xlink:title="This class manages all textures (i.e.">
<polygon fill="#999999" stroke="#666666" points="294,-74 164,-74 164,-55 294,-55 294,-74"/>
<text text-anchor="middle" x="229" y="-62" font-family="Helvetica,sans-Serif" font-size="10.00">Ogre::TextureGpuManager</text>
</a>
</g>
</g>
<!-- Node4 -->
<g id="node4" class="node">
<title>Node4</title>
<g id="a_node4"><a xlink:href="class_ogre_1_1_d3_d11_texture_gpu_manager.html" target="_top" xlink:title=" ">
<polygon fill="white" stroke="#666666" points="493.5,-130 334.5,-130 334.5,-111 493.5,-111 493.5,-130"/>
<text text-anchor="middle" x="414" y="-118" font-family="Helvetica,sans-Serif" font-size="10.00">Ogre::D3D11TextureGpuManager</text>
</a>
</g>
</g>
<!-- Node1&#45;&gt;Node4 -->
<g id="edge3" class="edge">
<title>Node1&#45;&gt;Node4</title>
<path fill="none" stroke="#63b8ff" d="M263.71,-78.76C282.9,-86.5 307.52,-95.83 330,-102.5 340.04,-105.48 350.89,-108.19 361.34,-110.55"/>
<polygon fill="#63b8ff" stroke="#63b8ff" points="265.08,-75.53 254.5,-74.98 262.43,-82.01 265.08,-75.53"/>
</g>
<!-- Node5 -->
<g id="node5" class="node">
<title>Node5</title>
<g id="a_node5"><a xlink:href="class_ogre_1_1_g_l3_plus_texture_gpu_manager.html" target="_top" xlink:title=" ">
<polygon fill="white" stroke="#666666" points="498,-93 330,-93 330,-74 498,-74 498,-93"/>
<text text-anchor="middle" x="414" y="-81" font-family="Helvetica,sans-Serif" font-size="10.00">Ogre::GL3PlusTextureGpuManager</text>
</a>
</g>
</g>
<!-- Node1&#45;&gt;Node5 -->
<g id="edge4" class="edge">
<title>Node1&#45;&gt;Node5</title>
<path fill="none" stroke="#63b8ff" d="M305.69,-72.36C313.59,-73.18 321.64,-74.02 329.62,-74.84"/>
<polygon fill="#63b8ff" stroke="#63b8ff" points="306.08,-68.88 295.77,-71.33 305.35,-75.84 306.08,-68.88"/>
</g>
<!-- Node6 -->
<g id="node6" class="node">
<title>Node6</title>
<g id="a_node6"><a xlink:href="class_ogre_1_1_metal_texture_gpu_manager.html" target="_top" xlink:title=" ">
<polygon fill="white" stroke="#666666" points="491,-56 337,-56 337,-37 491,-37 491,-56"/>
<text text-anchor="middle" x="414" y="-44" font-family="Helvetica,sans-Serif" font-size="10.00">Ogre::MetalTextureGpuManager</text>
</a>
</g>
</g>
<!-- Node1&#45;&gt;Node6 -->
<g id="edge5" class="edge">
<title>Node1&#45;&gt;Node6</title>
<path fill="none" stroke="#63b8ff" d="M305.67,-57.06C315.9,-56.05 326.41,-55.02 336.65,-54.01"/>
<polygon fill="#63b8ff" stroke="#63b8ff" points="305.38,-53.57 295.77,-58.03 306.06,-60.54 305.38,-53.57"/>
</g>
<!-- Node7 -->
<g id="node7" class="node">
<title>Node7</title>
<g id="a_node7"><a xlink:href="class_ogre_1_1_n_u_l_l_texture_gpu_manager.html" target="_top" xlink:title=" ">
<polygon fill="white" stroke="#666666" points="492.5,-19 335.5,-19 335.5,0 492.5,0 492.5,-19"/>
<text text-anchor="middle" x="414" y="-7" font-family="Helvetica,sans-Serif" font-size="10.00">Ogre::NULLTextureGpuManager</text>
</a>
</g>
</g>
<!-- Node1&#45;&gt;Node7 -->
<g id="edge6" class="edge">
<title>Node1&#45;&gt;Node7</title>
<path fill="none" stroke="#63b8ff" d="M264.51,-50.36C283.6,-42.89 307.87,-33.96 330,-27.5 340.19,-24.53 351.21,-21.8 361.8,-19.42"/>
<polygon fill="#63b8ff" stroke="#63b8ff" points="263.34,-47.06 255.34,-54 265.92,-53.57 263.34,-47.06"/>
</g>
<!-- Node2 -->
<g id="node2" class="node">
<title>Node2</title>
<g id="a_node2"><a xlink:href="class_ogre_1_1_allocated_object.html" target="_top" xlink:title="Superclass for all objects that wish to use custom memory allocators when their new / delete operator...">
<polygon fill="white" stroke="#666666" points="104,-93 24,-93 24,-74 104,-74 104,-93"/>
<text text-anchor="middle" x="64" y="-81" font-family="Helvetica,sans-Serif" font-size="10.00">ResourceAlloc</text>
</a>
</g>
</g>
<!-- Node2&#45;&gt;Node1 -->
<g id="edge1" class="edge">
<title>Node2&#45;&gt;Node1</title>
<path fill="none" stroke="#63b8ff" d="M115.72,-77.59C130.94,-75.81 147.83,-73.85 163.79,-71.98"/>
<polygon fill="#63b8ff" stroke="#63b8ff" points="115.49,-74.09 105.96,-78.73 116.3,-81.04 115.49,-74.09"/>
</g>
<!-- Node3 -->
<g id="node3" class="node">
<title>Node3</title>
<g id="a_node3"><a xlink:href="class_ogre_1_1_texture_gpu_listener.html" target="_top" xlink:title=" ">
<polygon fill="white" stroke="#666666" points="128,-56 0,-56 0,-37 128,-37 128,-56"/>
<text text-anchor="middle" x="64" y="-44" font-family="Helvetica,sans-Serif" font-size="10.00">Ogre::TextureGpuListener</text>
</a>
</g>
</g>
<!-- Node3&#45;&gt;Node1 -->
<g id="edge2" class="edge">
<title>Node3&#45;&gt;Node1</title>
<path fill="none" stroke="#63b8ff" d="M139.69,-54.75C147.68,-55.63 155.76,-56.52 163.61,-57.39"/>
<polygon fill="#63b8ff" stroke="#63b8ff" points="140.31,-51.3 129.99,-53.68 139.55,-58.25 140.31,-51.3"/>
</g>
</g>
</svg>
