<?xml version="1.0" encoding="UTF-8" standalone="no"?>
<!DOCTYPE svg PUBLIC "-//W3C//DTD SVG 1.1//EN"
 "http://www.w3.org/Graphics/SVG/1.1/DTD/svg11.dtd">
<!-- Generated by graphviz version 7.0.5 (20221223.1930)
 -->
<!-- Title: Ogre::iterator_range&lt; T &gt; Pages: 1 -->
<svg width="314pt" height="138pt"
 viewBox="0.00 0.00 314.00 138.00" xmlns="http://www.w3.org/2000/svg" xmlns:xlink="http://www.w3.org/1999/xlink">
<g id="graph0" class="graph" transform="scale(1 1) rotate(0) translate(4 134)">
<title>Ogre::iterator_range&lt; T &gt;</title>
<!-- Node1 -->
<g id="node1" class="node">
<title>Node1</title>
<g id="a_node1"><a xlink:title="Base for an iterator_range.">
<polygon fill="#999999" stroke="#666666" points="124,-74 0,-74 0,-55 124,-55 124,-74"/>
<text text-anchor="middle" x="62" y="-62" font-family="Helvetica,sans-Serif" font-size="10.00">Ogre::iterator_range&lt; T &gt;</text>
</a>
</g>
</g>
<!-- Node2 -->
<g id="node2" class="node">
<title>Node2</title>
<g id="a_node2"><a xlink:href="struct_ogre_1_1_const_map_range.html" target="_top" xlink:title="Predefined type.">
<polygon fill="white" stroke="#666666" points="301.5,-130 164.5,-130 164.5,-111 301.5,-111 301.5,-130"/>
<text text-anchor="middle" x="233" y="-118" font-family="Helvetica,sans-Serif" font-size="10.00">Ogre::ConstMapRange&lt; T &gt;</text>
</a>
</g>
</g>
<!-- Node1&#45;&gt;Node2 -->
<g id="edge1" class="edge">
<title>Node1&#45;&gt;Node2</title>
<path fill="none" stroke="#63b8ff" d="M96.37,-78.8C114.91,-86.43 138.5,-95.63 160,-102.5 169.08,-105.4 178.93,-108.13 188.34,-110.54"/>
<polygon fill="#63b8ff" stroke="#63b8ff" points="97.8,-75.6 87.22,-74.99 95.11,-82.06 97.8,-75.6"/>
</g>
<!-- Node3 -->
<g id="node3" class="node">
<title>Node3</title>
<g id="a_node3"><a xlink:href="struct_ogre_1_1_const_vector_range.html" target="_top" xlink:title="Predefined type.">
<polygon fill="white" stroke="#666666" points="306,-93 160,-93 160,-74 306,-74 306,-93"/>
<text text-anchor="middle" x="233" y="-81" font-family="Helvetica,sans-Serif" font-size="10.00">Ogre::ConstVectorRange&lt; T &gt;</text>
</a>
</g>
</g>
<!-- Node1&#45;&gt;Node3 -->
<g id="edge2" class="edge">
<title>Node1&#45;&gt;Node3</title>
<path fill="none" stroke="#63b8ff" d="M135.9,-72.7C143.77,-73.58 151.78,-74.48 159.65,-75.37"/>
<polygon fill="#63b8ff" stroke="#63b8ff" points="136.32,-69.22 126,-71.58 135.54,-76.18 136.32,-69.22"/>
</g>
<!-- Node4 -->
<g id="node4" class="node">
<title>Node4</title>
<g id="a_node4"><a xlink:href="struct_ogre_1_1_map_range.html" target="_top" xlink:title="Predefined type.">
<polygon fill="white" stroke="#666666" points="288.5,-56 177.5,-56 177.5,-37 288.5,-37 288.5,-56"/>
<text text-anchor="middle" x="233" y="-44" font-family="Helvetica,sans-Serif" font-size="10.00">Ogre::MapRange&lt; T &gt;</text>
</a>
</g>
</g>
<!-- Node1&#45;&gt;Node4 -->
<g id="edge3" class="edge">
<title>Node1&#45;&gt;Node4</title>
<path fill="none" stroke="#63b8ff" d="M135.58,-56.77C149.55,-55.28 163.98,-53.75 177.27,-52.33"/>
<polygon fill="#63b8ff" stroke="#63b8ff" points="135.57,-53.25 126,-57.79 136.31,-60.21 135.57,-53.25"/>
</g>
<!-- Node5 -->
<g id="node5" class="node">
<title>Node5</title>
<g id="a_node5"><a xlink:href="struct_ogre_1_1_vector_range.html" target="_top" xlink:title="Predefined type.">
<polygon fill="white" stroke="#666666" points="293.5,-19 172.5,-19 172.5,0 293.5,0 293.5,-19"/>
<text text-anchor="middle" x="233" y="-7" font-family="Helvetica,sans-Serif" font-size="10.00">Ogre::VectorRange&lt; T &gt;</text>
</a>
</g>
</g>
<!-- Node1&#45;&gt;Node5 -->
<g id="edge4" class="edge">
<title>Node1&#45;&gt;Node5</title>
<path fill="none" stroke="#63b8ff" d="M97.97,-50.58C116.3,-43.53 139.2,-35.09 160,-28.5 170.11,-25.3 181.13,-22.2 191.44,-19.47"/>
<polygon fill="#63b8ff" stroke="#63b8ff" points="96.95,-47.22 88.9,-54.11 99.49,-53.75 96.95,-47.22"/>
</g>
</g>
</svg>
