<?xml version="1.0" encoding="UTF-8" standalone="no"?>
<!DOCTYPE svg PUBLIC "-//W3C//DTD SVG 1.1//EN"
 "http://www.w3.org/Graphics/SVG/1.1/DTD/svg11.dtd">
<!-- Generated by graphviz version 7.0.5 (20221223.1930)
 -->
<!-- Title: Ogre::WorkQueue::ResponseHandler Pages: 1 -->
<svg width="343pt" height="298pt"
 viewBox="0.00 0.00 343.00 298.00" xmlns="http://www.w3.org/2000/svg" xmlns:xlink="http://www.w3.org/1999/xlink">
<g id="graph0" class="graph" transform="scale(1 1) rotate(0) translate(4 294)">
<title>Ogre::WorkQueue::ResponseHandler</title>
<!-- Node1 -->
<g id="node1" class="node">
<title>Node1</title>
<g id="a_node1"><a xlink:title="Interface definition for a handler of responses.">
<polygon fill="#999999" stroke="#666666" points="141,-153.5 0,-153.5 0,-123.5 141,-123.5 141,-153.5"/>
<text text-anchor="start" x="8" y="-141.5" font-family="Helvetica,sans-Serif" font-size="10.00">Ogre::WorkQueue::Response</text>
<text text-anchor="middle" x="70.5" y="-130.5" font-family="Helvetica,sans-Serif" font-size="10.00">Handler</text>
</a>
</g>
</g>
<!-- Node2 -->
<g id="node2" class="node">
<title>Node2</title>
<g id="a_node2"><a xlink:href="class_ogre_1_1_lod_work_queue_injector.html" target="_top" xlink:title="Injects the output of a request to the mesh in a thread safe way.">
<polygon fill="white" stroke="#666666" points="327,-290 185,-290 185,-271 327,-271 327,-290"/>
<text text-anchor="middle" x="256" y="-278" font-family="Helvetica,sans-Serif" font-size="10.00">Ogre::LodWorkQueueInjector</text>
</a>
</g>
</g>
<!-- Node1&#45;&gt;Node2 -->
<g id="edge1" class="edge">
<title>Node1&#45;&gt;Node2</title>
<path fill="none" stroke="#63b8ff" d="M85.84,-163.47C103.54,-191.96 136.35,-237.78 177,-262.5 182.34,-265.75 188.22,-268.41 194.27,-270.59"/>
<polygon fill="#63b8ff" stroke="#63b8ff" points="88.97,-161.88 80.8,-155.13 82.98,-165.5 88.97,-161.88"/>
</g>
<!-- Node3 -->
<g id="node3" class="node">
<title>Node3</title>
<g id="a_node3"><a xlink:href="class_ogre_1_1_page.html" target="_top" xlink:title="Page class.">
<polygon fill="white" stroke="#666666" points="288.5,-253 223.5,-253 223.5,-234 288.5,-234 288.5,-253"/>
<text text-anchor="middle" x="256" y="-241" font-family="Helvetica,sans-Serif" font-size="10.00">Ogre::Page</text>
</a>
</g>
</g>
<!-- Node1&#45;&gt;Node3 -->
<g id="edge2" class="edge">
<title>Node1&#45;&gt;Node3</title>
<path fill="none" stroke="#63b8ff" d="M93.83,-161.8C113.85,-181.34 144.93,-208.55 177,-224.5 191.35,-231.64 208.55,-236.2 223.14,-239.05"/>
<polygon fill="#63b8ff" stroke="#63b8ff" points="96.33,-159.34 86.78,-154.75 91.38,-164.29 96.33,-159.34"/>
</g>
<!-- Node4 -->
<g id="node4" class="node">
<title>Node4</title>
<g id="a_node4"><a xlink:href="class_ogre_1_1_resource_background_queue.html" target="_top" xlink:title="This class is used to perform Resource operations in a background thread.">
<polygon fill="white" stroke="#666666" points="323.5,-215.5 188.5,-215.5 188.5,-185.5 323.5,-185.5 323.5,-215.5"/>
<text text-anchor="start" x="196.5" y="-203.5" font-family="Helvetica,sans-Serif" font-size="10.00">Ogre::ResourceBackground</text>
<text text-anchor="middle" x="256" y="-192.5" font-family="Helvetica,sans-Serif" font-size="10.00">Queue</text>
</a>
</g>
</g>
<!-- Node1&#45;&gt;Node4 -->
<g id="edge3" class="edge">
<title>Node1&#45;&gt;Node4</title>
<path fill="none" stroke="#63b8ff" d="M123.74,-157.87C140.67,-164 159.58,-170.69 177,-176.5 185.6,-179.37 194.78,-182.31 203.7,-185.09"/>
<polygon fill="#63b8ff" stroke="#63b8ff" points="124.95,-154.58 114.35,-154.45 122.55,-161.16 124.95,-154.58"/>
</g>
<!-- Node5 -->
<g id="node5" class="node">
<title>Node5</title>
<g id="a_node5"><a xlink:href="class_ogre_1_1_terrain.html" target="_top" xlink:title="The main containing class for a chunk of terrain.">
<polygon fill="white" stroke="#666666" points="292,-167 220,-167 220,-148 292,-148 292,-167"/>
<text text-anchor="middle" x="256" y="-155" font-family="Helvetica,sans-Serif" font-size="10.00">Ogre::Terrain</text>
</a>
</g>
</g>
<!-- Node1&#45;&gt;Node5 -->
<g id="edge4" class="edge">
<title>Node1&#45;&gt;Node5</title>
<path fill="none" stroke="#63b8ff" d="M152.81,-146.92C176.25,-149.35 200.62,-151.87 219.68,-153.84"/>
<polygon fill="#63b8ff" stroke="#63b8ff" points="153.21,-143.44 142.9,-145.89 152.49,-150.4 153.21,-143.44"/>
</g>
<!-- Node6 -->
<g id="node6" class="node">
<title>Node6</title>
<g id="a_node6"><a xlink:href="class_ogre_1_1_terrain_group.html" target="_top" xlink:title="Helper class to assist you in managing multiple terrain instances that are connected to each other.">
<polygon fill="white" stroke="#666666" points="305,-130 207,-130 207,-111 305,-111 305,-130"/>
<text text-anchor="middle" x="256" y="-118" font-family="Helvetica,sans-Serif" font-size="10.00">Ogre::TerrainGroup</text>
</a>
</g>
</g>
<!-- Node1&#45;&gt;Node6 -->
<g id="edge5" class="edge">
<title>Node1&#45;&gt;Node6</title>
<path fill="none" stroke="#63b8ff" d="M152.75,-130.53C171.15,-128.72 190.12,-126.86 206.65,-125.24"/>
<polygon fill="#63b8ff" stroke="#63b8ff" points="152.51,-127.04 142.9,-131.5 153.2,-134 152.51,-127.04"/>
</g>
<!-- Node7 -->
<g id="node7" class="node">
<title>Node7</title>
<g id="a_node7"><a xlink:href="class_ogre_1_1_terrain_lod_manager.html" target="_top" xlink:title="Terrain LOD data manager.">
<polygon fill="white" stroke="#666666" points="319,-93 193,-93 193,-74 319,-74 319,-93"/>
<text text-anchor="middle" x="256" y="-81" font-family="Helvetica,sans-Serif" font-size="10.00">Ogre::TerrainLodManager</text>
</a>
</g>
</g>
<!-- Node1&#45;&gt;Node7 -->
<g id="edge6" class="edge">
<title>Node1&#45;&gt;Node7</title>
<path fill="none" stroke="#63b8ff" d="M124.5,-119.38C141.2,-113.63 159.78,-107.52 177,-102.5 187.97,-99.3 199.92,-96.2 211.09,-93.46"/>
<polygon fill="#63b8ff" stroke="#63b8ff" points="123.55,-116 115.26,-122.59 125.85,-122.61 123.55,-116"/>
</g>
<!-- Node8 -->
<g id="node8" class="node">
<title>Node8</title>
<g id="a_node8"><a xlink:href="class_ogre_1_1_terrain_paged_world_section.html" target="_top" xlink:title="A world section which includes paged terrain.">
<polygon fill="white" stroke="#666666" points="335,-56 177,-56 177,-37 335,-37 335,-56"/>
<text text-anchor="middle" x="256" y="-44" font-family="Helvetica,sans-Serif" font-size="10.00">Ogre::TerrainPagedWorldSection</text>
</a>
</g>
</g>
<!-- Node1&#45;&gt;Node8 -->
<g id="edge7" class="edge">
<title>Node1&#45;&gt;Node8</title>
<path fill="none" stroke="#63b8ff" d="M98,-116.04C118.4,-99.82 147.93,-78.56 177,-65.5 185.01,-61.9 193.8,-58.93 202.5,-56.48"/>
<polygon fill="#63b8ff" stroke="#63b8ff" points="96.04,-113.12 90.48,-122.14 100.45,-118.56 96.04,-113.12"/>
</g>
<!-- Node9 -->
<g id="node9" class="node">
<title>Node9</title>
<g id="a_node9"><a xlink:href="class_ogre_1_1_volume_1_1_chunk_handler.html" target="_top" xlink:title="Handles the WorkQueue management of the chunks.">
<polygon fill="white" stroke="#666666" points="326.5,-19 185.5,-19 185.5,0 326.5,0 326.5,-19"/>
<text text-anchor="middle" x="256" y="-7" font-family="Helvetica,sans-Serif" font-size="10.00">Ogre::Volume::ChunkHandler</text>
</a>
</g>
</g>
<!-- Node1&#45;&gt;Node9 -->
<g id="edge8" class="edge">
<title>Node1&#45;&gt;Node9</title>
<path fill="none" stroke="#63b8ff" d="M88.55,-113.76C107.3,-88.47 139.75,-49.95 177,-28.5 183.4,-24.81 190.49,-21.84 197.72,-19.44"/>
<polygon fill="#63b8ff" stroke="#63b8ff" points="85.74,-111.68 82.72,-121.83 91.41,-115.78 85.74,-111.68"/>
</g>
</g>
</svg>
