<?xml version="1.0" encoding="UTF-8" standalone="no"?>
<!DOCTYPE svg PUBLIC "-//W3C//DTD SVG 1.1//EN"
 "http://www.w3.org/Graphics/SVG/1.1/DTD/svg11.dtd">
<!-- Generated by graphviz version 2.44.0 ()
 -->
<!-- Title: Ogre::Terrain Pages: 1 -->
<svg width="257pt" height="215pt"
 viewBox="0.00 0.00 257.00 214.50" xmlns="http://www.w3.org/2000/svg" xmlns:xlink="http://www.w3.org/1999/xlink">
<g id="graph0" class="graph" transform="scale(1 1) rotate(0) translate(4 210.5)">
<title>Ogre::Terrain</title>
<!-- Node1 -->
<g id="node1" class="node">
<title>Node1</title>
<g id="a_node1"><a xlink:title="The main containing class for a chunk of terrain.">
<polygon fill="#bfbfbf" stroke="black" points="177,-93.5 177,-112.5 249,-112.5 249,-93.5 177,-93.5"/>
<text text-anchor="middle" x="213" y="-100.5" font-family="Helvetica,sans-Serif" font-size="10.00">Ogre::Terrain</text>
</a>
</g>
</g>
<!-- Node2 -->
<g id="node2" class="node">
<title>Node2</title>
<g id="a_node2"><a xlink:href="class_ogre_1_1_scene_manager_1_1_listener.html" target="_top" xlink:title="Class that allows listening in on the various stages of SceneManager processing, so that custom behav...">
<polygon fill="none" stroke="black" points="17,-176 17,-206 124,-206 124,-176 17,-176"/>
<text text-anchor="start" x="25" y="-194" font-family="Helvetica,sans-Serif" font-size="10.00">Ogre::SceneManager</text>
<text text-anchor="middle" x="70.5" y="-183" font-family="Helvetica,sans-Serif" font-size="10.00">::Listener</text>
</a>
</g>
</g>
<!-- Node2&#45;&gt;Node1 -->
<g id="edge1" class="edge">
<title>Node2&#45;&gt;Node1</title>
<path fill="none" stroke="midnightblue" d="M130.21,-171.74C133.93,-169.95 137.56,-168.04 141,-166 166.23,-151.03 190.7,-126.42 203.27,-112.81"/>
<polygon fill="midnightblue" stroke="midnightblue" points="128.51,-168.66 120.8,-175.93 131.36,-175.06 128.51,-168.66"/>
</g>
<!-- Node3 -->
<g id="node3" class="node">
<title>Node3</title>
<g id="a_node3"><a xlink:href="class_ogre_1_1_frame_listener.html" target="_top" xlink:title="A interface class defining a listener which can be used to receive notifications of frame events.">
<polygon fill="none" stroke="black" points="18,-137.5 18,-156.5 123,-156.5 123,-137.5 18,-137.5"/>
<text text-anchor="middle" x="70.5" y="-144.5" font-family="Helvetica,sans-Serif" font-size="10.00">Ogre::FrameListener</text>
</a>
</g>
</g>
<!-- Node3&#45;&gt;Node1 -->
<g id="edge2" class="edge">
<title>Node3&#45;&gt;Node1</title>
<path fill="none" stroke="midnightblue" d="M118.29,-134.7C125.91,-132.56 133.69,-130.28 141,-128 156.09,-123.29 172.78,-117.44 186.18,-112.59"/>
<polygon fill="midnightblue" stroke="midnightblue" points="117.14,-131.39 108.43,-137.43 119,-138.14 117.14,-131.39"/>
</g>
<!-- Node4 -->
<g id="node4" class="node">
<title>Node4</title>
<g id="a_node4"><a xlink:href="class_ogre_1_1_work_queue_1_1_request_handler.html" target="_top" xlink:title="Interface definition for a handler of requests.">
<polygon fill="none" stroke="black" points="3.5,-88 3.5,-118 137.5,-118 137.5,-88 3.5,-88"/>
<text text-anchor="start" x="11.5" y="-106" font-family="Helvetica,sans-Serif" font-size="10.00">Ogre::WorkQueue::Request</text>
<text text-anchor="middle" x="70.5" y="-95" font-family="Helvetica,sans-Serif" font-size="10.00">Handler</text>
</a>
</g>
</g>
<!-- Node4&#45;&gt;Node1 -->
<g id="edge3" class="edge">
<title>Node4&#45;&gt;Node1</title>
<path fill="none" stroke="midnightblue" d="M147.79,-103C157.91,-103 167.87,-103 176.8,-103"/>
<polygon fill="midnightblue" stroke="midnightblue" points="147.64,-99.5 137.64,-103 147.64,-106.5 147.64,-99.5"/>
</g>
<!-- Node5 -->
<g id="node5" class="node">
<title>Node5</title>
<g id="a_node5"><a xlink:href="class_ogre_1_1_work_queue_1_1_response_handler.html" target="_top" xlink:title="Interface definition for a handler of responses.">
<polygon fill="none" stroke="black" points="0,-39 0,-69 141,-69 141,-39 0,-39"/>
<text text-anchor="start" x="8" y="-57" font-family="Helvetica,sans-Serif" font-size="10.00">Ogre::WorkQueue::Response</text>
<text text-anchor="middle" x="70.5" y="-46" font-family="Helvetica,sans-Serif" font-size="10.00">Handler</text>
</a>
</g>
</g>
<!-- Node5&#45;&gt;Node1 -->
<g id="edge4" class="edge">
<title>Node5&#45;&gt;Node1</title>
<path fill="none" stroke="midnightblue" d="M124.35,-72.43C144.83,-79.58 167.43,-87.45 184.54,-93.42"/>
<polygon fill="midnightblue" stroke="midnightblue" points="125.4,-69.09 114.8,-69.1 123.09,-75.7 125.4,-69.09"/>
</g>
<!-- Node6 -->
<g id="node6" class="node">
<title>Node6</title>
<g id="a_node6"><a xlink:href="class_ogre_1_1_allocated_object.html" target="_top" xlink:title="Superclass for all objects that wish to use custom memory allocators when their new / delete operator...">
<polygon fill="none" stroke="black" points="36.5,-0.5 36.5,-19.5 104.5,-19.5 104.5,-0.5 36.5,-0.5"/>
<text text-anchor="middle" x="70.5" y="-7.5" font-family="Helvetica,sans-Serif" font-size="10.00">TerrainAlloc</text>
</a>
</g>
</g>
<!-- Node6&#45;&gt;Node1 -->
<g id="edge5" class="edge">
<title>Node6&#45;&gt;Node1</title>
<path fill="none" stroke="midnightblue" d="M114.52,-18.61C123.64,-21.45 132.93,-25.17 141,-30 169.21,-46.9 193.91,-77.78 205.3,-93.4"/>
<polygon fill="midnightblue" stroke="midnightblue" points="115.34,-15.2 104.77,-15.86 113.44,-21.94 115.34,-15.2"/>
</g>
</g>
</svg>
