<?xml version="1.0" encoding="UTF-8" standalone="no"?>
<!DOCTYPE svg PUBLIC "-//W3C//DTD SVG 1.1//EN"
 "http://www.w3.org/Graphics/SVG/1.1/DTD/svg11.dtd">
<!-- Generated by graphviz version 9.0.0 (20230911.1827)
 -->
<!-- Title: Ogre::Renderable Pages: 1 -->
<svg width="803pt" height="636pt"
 viewBox="0.00 0.00 802.75 636.25" xmlns="http://www.w3.org/2000/svg" xmlns:xlink="http://www.w3.org/1999/xlink">
<g id="graph0" class="graph" transform="scale(1 1) rotate(0) translate(4 632.25)">
<title>Ogre::Renderable</title>
<!-- Node1 -->
<g id="Node000001" class="node">
<title>Node1</title>
<g id="a_Node000001"><a xlink:title="Abstract class defining the interface all renderable objects must implement.">
<polygon fill="#999999" stroke="#666666" points="90.25,-320.25 0,-320.25 0,-301 90.25,-301 90.25,-320.25"/>
<text text-anchor="middle" x="45.12" y="-306.75" font-family="Helvetica,sans-Serif" font-size="10.00">Ogre::Renderable</text>
</a>
</g>
</g>
<!-- Node2 -->
<g id="Node000002" class="node">
<title>Node2</title>
<g id="a_Node000002"><a xlink:href="class_ogre_1_1_frustum.html" target="_top" xlink:title="A frustum represents a pyramid, capped at the near and far end which is used to represent either a vi...">
<polygon fill="white" stroke="#666666" points="232.62,-610.25 155.12,-610.25 155.12,-591 232.62,-591 232.62,-610.25"/>
<text text-anchor="middle" x="193.88" y="-596.75" font-family="Helvetica,sans-Serif" font-size="10.00">Ogre::Frustum</text>
</a>
</g>
</g>
<!-- Node1&#45;&gt;Node2 -->
<g id="edge1_Node000001_Node000002" class="edge">
<title>Node1&#45;&gt;Node2</title>
<g id="a_edge1_Node000001_Node000002"><a xlink:title=" ">
<path fill="none" stroke="#63b8ff" d="M45.82,-331.91C46.29,-382.87 54.85,-512.82 126.25,-582.62 133.96,-590.16 144.48,-594.63 154.89,-597.24"/>
<polygon fill="#63b8ff" stroke="#63b8ff" points="49.32,-332.01 45.84,-322 42.32,-331.99 49.32,-332.01"/>
</a>
</g>
</g>
<!-- Node6 -->
<g id="Node000006" class="node">
<title>Node6</title>
<g id="a_Node000006"><a xlink:href="class_ogre_1_1_ifd_probe_visualizer.html" target="_top" xlink:title=" ">
<polygon fill="white" stroke="#666666" points="254,-573.25 133.75,-573.25 133.75,-554 254,-554 254,-573.25"/>
<text text-anchor="middle" x="193.88" y="-559.75" font-family="Helvetica,sans-Serif" font-size="10.00">Ogre::IfdProbeVisualizer</text>
</a>
</g>
</g>
<!-- Node1&#45;&gt;Node6 -->
<g id="edge5_Node000001_Node000006" class="edge">
<title>Node1&#45;&gt;Node6</title>
<g id="a_edge5_Node000001_Node000006"><a xlink:title=" ">
<path fill="none" stroke="#63b8ff" d="M47.06,-331.62C50.26,-377.21 64.32,-485.84 126.25,-544.62 130.09,-548.27 134.58,-551.22 139.38,-553.61"/>
<polygon fill="#63b8ff" stroke="#63b8ff" points="50.57,-331.59 46.5,-321.81 43.58,-332 50.57,-331.59"/>
</a>
</g>
</g>
<!-- Node7 -->
<g id="Node000007" class="node">
<title>Node7</title>
<g id="a_Node000007"><a xlink:href="class_ogre_1_1_manual_object_1_1_manual_object_section.html" target="_top" xlink:title="Built, renderable section of geometry.">
<polygon fill="white" stroke="#666666" points="250.62,-535.88 137.12,-535.88 137.12,-505.38 250.62,-505.38 250.62,-535.88"/>
<text text-anchor="start" x="145.12" y="-522.38" font-family="Helvetica,sans-Serif" font-size="10.00">Ogre::ManualObject</text>
<text text-anchor="middle" x="193.88" y="-511.12" font-family="Helvetica,sans-Serif" font-size="10.00">::ManualObjectSection</text>
</a>
</g>
</g>
<!-- Node1&#45;&gt;Node7 -->
<g id="edge6_Node000001_Node000007" class="edge">
<title>Node1&#45;&gt;Node7</title>
<g id="a_edge6_Node000001_Node000007"><a xlink:title=" ">
<path fill="none" stroke="#63b8ff" d="M49.6,-331.93C56.92,-370.17 77.47,-450.74 126.25,-496.62 129.65,-499.83 133.51,-502.61 137.62,-505.02"/>
<polygon fill="#63b8ff" stroke="#63b8ff" points="53.06,-331.42 47.87,-322.18 46.17,-332.64 53.06,-331.42"/>
</a>
</g>
</g>
<!-- Node8 -->
<g id="Node000008" class="node">
<title>Node8</title>
<g id="a_Node000008"><a xlink:href="class_ogre_1_1_rectangle2_d.html" target="_top" xlink:title=" ">
<polygon fill="white" stroke="#666666" points="242.38,-487.25 145.38,-487.25 145.38,-468 242.38,-468 242.38,-487.25"/>
<text text-anchor="middle" x="193.88" y="-473.75" font-family="Helvetica,sans-Serif" font-size="10.00">Ogre::Rectangle2D</text>
</a>
</g>
</g>
<!-- Node1&#45;&gt;Node8 -->
<g id="edge7_Node000001_Node000008" class="edge">
<title>Node1&#45;&gt;Node8</title>
<g id="a_edge7_Node000001_Node000008"><a xlink:title=" ">
<path fill="none" stroke="#63b8ff" d="M51.46,-331.15C60.93,-363.46 83.81,-425.96 126.25,-459.62 131.79,-464.02 138.31,-467.34 145.07,-469.86"/>
<polygon fill="#63b8ff" stroke="#63b8ff" points="54.92,-330.53 48.88,-321.83 48.17,-332.4 54.92,-330.53"/>
</a>
</g>
</g>
<!-- Node9 -->
<g id="Node000009" class="node">
<title>Node9</title>
<g id="a_Node000009"><a xlink:href="class_ogre_1_1_renderable_animated.html" target="_top" xlink:title=" ">
<polygon fill="white" stroke="#666666" points="259.62,-450.25 128.12,-450.25 128.12,-431 259.62,-431 259.62,-450.25"/>
<text text-anchor="middle" x="193.88" y="-436.75" font-family="Helvetica,sans-Serif" font-size="10.00">Ogre::RenderableAnimated</text>
</a>
</g>
</g>
<!-- Node1&#45;&gt;Node9 -->
<g id="edge8_Node000001_Node000009" class="edge">
<title>Node1&#45;&gt;Node9</title>
<g id="a_edge8_Node000001_Node000009"><a xlink:title=" ">
<path fill="none" stroke="#63b8ff" d="M55.12,-330.68C67.5,-355.97 92.19,-398.98 126.25,-422.62 130.78,-425.77 135.83,-428.36 141.07,-430.5"/>
<polygon fill="#63b8ff" stroke="#63b8ff" points="58.38,-329.37 50.96,-321.81 52.04,-332.35 58.38,-329.37"/>
</a>
</g>
</g>
<!-- Node11 -->
<g id="Node000011" class="node">
<title>Node11</title>
<g id="a_Node000011"><a xlink:href="class_ogre_1_1_voxel_visualizer.html" target="_top" xlink:title=" ">
<polygon fill="white" stroke="#666666" points="247.62,-413.25 140.12,-413.25 140.12,-394 247.62,-394 247.62,-413.25"/>
<text text-anchor="middle" x="193.88" y="-399.75" font-family="Helvetica,sans-Serif" font-size="10.00">Ogre::VoxelVisualizer</text>
</a>
</g>
</g>
<!-- Node1&#45;&gt;Node11 -->
<g id="edge10_Node000001_Node000011" class="edge">
<title>Node1&#45;&gt;Node11</title>
<g id="a_edge10_Node000001_Node000011"><a xlink:title=" ">
<path fill="none" stroke="#63b8ff" d="M61.1,-329.09C75.92,-346.18 100.13,-371.08 126.25,-385.62 131.9,-388.77 138.13,-391.39 144.45,-393.57"/>
<polygon fill="#63b8ff" stroke="#63b8ff" points="63.97,-327.07 54.85,-321.67 58.61,-331.57 63.97,-327.07"/>
</a>
</g>
</g>
<!-- Node12 -->
<g id="Node000012" class="node">
<title>Node12</title>
<g id="a_Node000012"><a xlink:href="class_ogre_1_1_wire_aabb.html" target="_top" xlink:title="Helper class to display the Aabb of a MovableObject as lines.">
<polygon fill="white" stroke="#666666" points="235.62,-376.25 152.12,-376.25 152.12,-357 235.62,-357 235.62,-376.25"/>
<text text-anchor="middle" x="193.88" y="-362.75" font-family="Helvetica,sans-Serif" font-size="10.00">Ogre::WireAabb</text>
</a>
</g>
</g>
<!-- Node1&#45;&gt;Node12 -->
<g id="edge11_Node000001_Node000012" class="edge">
<title>Node1&#45;&gt;Node12</title>
<g id="a_edge11_Node000001_Node000012"><a xlink:title=" ">
<path fill="none" stroke="#63b8ff" d="M75,-325.86C90.01,-333.38 108.82,-342.19 126.25,-348.62 134.34,-351.61 143.15,-354.34 151.64,-356.72"/>
<polygon fill="#63b8ff" stroke="#63b8ff" points="76.66,-322.78 66.16,-321.35 73.48,-329.01 76.66,-322.78"/>
</a>
</g>
</g>
<!-- Node13 -->
<g id="Node000013" class="node">
<title>Node13</title>
<g id="a_Node000013"><a xlink:href="class_ogre_1_1v1_1_1_billboard_chain.html" target="_top" xlink:title="Allows the rendering of a chain of connected billboards.">
<polygon fill="white" stroke="#666666" points="253.25,-339.25 134.5,-339.25 134.5,-320 253.25,-320 253.25,-339.25"/>
<text text-anchor="middle" x="193.88" y="-325.75" font-family="Helvetica,sans-Serif" font-size="10.00">Ogre::v1::BillboardChain</text>
</a>
</g>
</g>
<!-- Node1&#45;&gt;Node13 -->
<g id="edge12_Node000001_Node000013" class="edge">
<title>Node1&#45;&gt;Node13</title>
<g id="a_edge12_Node000001_Node000013"><a xlink:title=" ">
<path fill="none" stroke="#63b8ff" d="M101.81,-317.83C112.41,-319.21 123.54,-320.65 134.23,-322.03"/>
<polygon fill="#63b8ff" stroke="#63b8ff" points="102.42,-314.38 92.05,-316.57 101.52,-321.33 102.42,-314.38"/>
</a>
</g>
</g>
<!-- Node15 -->
<g id="Node000015" class="node">
<title>Node15</title>
<g id="a_Node000015"><a xlink:href="class_ogre_1_1v1_1_1_billboard_set.html" target="_top" xlink:title="A collection of billboards (faces which are always facing the given direction) with the same (default...">
<polygon fill="white" stroke="#666666" points="248.38,-302.25 139.38,-302.25 139.38,-283 248.38,-283 248.38,-302.25"/>
<text text-anchor="middle" x="193.88" y="-288.75" font-family="Helvetica,sans-Serif" font-size="10.00">Ogre::v1::BillboardSet</text>
</a>
</g>
</g>
<!-- Node1&#45;&gt;Node15 -->
<g id="edge14_Node000001_Node000015" class="edge">
<title>Node1&#45;&gt;Node15</title>
<g id="a_edge14_Node000001_Node000015"><a xlink:title=" ">
<path fill="none" stroke="#63b8ff" d="M101.95,-303.78C114.11,-302.29 126.94,-300.71 139.02,-299.23"/>
<polygon fill="#63b8ff" stroke="#63b8ff" points="101.55,-300.3 92.06,-304.99 102.41,-307.25 101.55,-300.3"/>
</a>
</g>
</g>
<!-- Node16 -->
<g id="Node000016" class="node">
<title>Node16</title>
<g id="a_Node000016"><a xlink:href="class_ogre_1_1v1_1_1_border_renderable.html" target="_top" xlink:title="Class for rendering the border of a BorderPanelOverlayElement.">
<polygon fill="white" stroke="#666666" points="260.75,-265.25 127,-265.25 127,-246 260.75,-246 260.75,-265.25"/>
<text text-anchor="middle" x="193.88" y="-251.75" font-family="Helvetica,sans-Serif" font-size="10.00">Ogre::v1::BorderRenderable</text>
</a>
</g>
</g>
<!-- Node1&#45;&gt;Node16 -->
<g id="edge15_Node000001_Node000016" class="edge">
<title>Node1&#45;&gt;Node16</title>
<g id="a_edge15_Node000001_Node000016"><a xlink:title=" ">
<path fill="none" stroke="#63b8ff" d="M75.65,-295.54C90.56,-288.29 109.1,-279.85 126.25,-273.62 134.25,-270.72 142.93,-268.04 151.31,-265.69"/>
<polygon fill="#63b8ff" stroke="#63b8ff" points="74.26,-292.32 66.85,-299.89 77.37,-298.59 74.26,-292.32"/>
</a>
</g>
</g>
<!-- Node17 -->
<g id="Node000017" class="node">
<title>Node17</title>
<g id="a_Node000017"><a xlink:href="class_ogre_1_1v1_1_1_manual_object_1_1_manual_object_section.html" target="_top" xlink:title="Built, renderable section of geometry.">
<polygon fill="white" stroke="#666666" points="252.12,-227.88 135.62,-227.88 135.62,-197.38 252.12,-197.38 252.12,-227.88"/>
<text text-anchor="start" x="143.62" y="-214.38" font-family="Helvetica,sans-Serif" font-size="10.00">Ogre::v1::ManualObject</text>
<text text-anchor="middle" x="193.88" y="-203.12" font-family="Helvetica,sans-Serif" font-size="10.00">::ManualObjectSection</text>
</a>
</g>
</g>
<!-- Node1&#45;&gt;Node17 -->
<g id="edge16_Node000001_Node000017" class="edge">
<title>Node1&#45;&gt;Node17</title>
<g id="a_edge16_Node000001_Node000017"><a xlink:title=" ">
<path fill="none" stroke="#63b8ff" d="M61.91,-292.35C77,-275.85 101.12,-251.88 126.25,-236.62 131.29,-233.56 136.79,-230.8 142.39,-228.34"/>
<polygon fill="#63b8ff" stroke="#63b8ff" points="59.56,-289.73 55.51,-299.52 64.78,-294.39 59.56,-289.73"/>
</a>
</g>
</g>
<!-- Node18 -->
<g id="Node000018" class="node">
<title>Node18</title>
<g id="a_Node000018"><a xlink:href="class_ogre_1_1v1_1_1_overlay_element.html" target="_top" xlink:title="Abstract definition of a 2D element to be displayed in an Overlay.">
<polygon fill="white" stroke="#666666" points="256.25,-179.25 131.5,-179.25 131.5,-160 256.25,-160 256.25,-179.25"/>
<text text-anchor="middle" x="193.88" y="-165.75" font-family="Helvetica,sans-Serif" font-size="10.00">Ogre::v1::OverlayElement</text>
</a>
</g>
</g>
<!-- Node1&#45;&gt;Node18 -->
<g id="edge17_Node000001_Node000018" class="edge">
<title>Node1&#45;&gt;Node18</title>
<g id="a_edge17_Node000001_Node000018"><a xlink:title=" ">
<path fill="none" stroke="#63b8ff" d="M54.19,-290.05C65.93,-262.77 90.32,-215.03 126.25,-188.62 131.19,-184.99 136.81,-182.05 142.64,-179.68"/>
<polygon fill="#63b8ff" stroke="#63b8ff" points="50.96,-288.7 50.39,-299.28 57.43,-291.36 50.96,-288.7"/>
</a>
</g>
</g>
<!-- Node23 -->
<g id="Node000023" class="node">
<title>Node23</title>
<g id="a_Node000023"><a xlink:href="class_ogre_1_1v1_1_1_rectangle2_d.html" target="_top" xlink:title="Allows the rendering of a simple 2D rectangle This class renders a simple 2D rectangle; this rectangl...">
<polygon fill="white" stroke="#666666" points="249.88,-142.25 137.88,-142.25 137.88,-123 249.88,-123 249.88,-142.25"/>
<text text-anchor="middle" x="193.88" y="-128.75" font-family="Helvetica,sans-Serif" font-size="10.00">Ogre::v1::Rectangle2D</text>
</a>
</g>
</g>
<!-- Node1&#45;&gt;Node23 -->
<g id="edge22_Node000001_Node000023" class="edge">
<title>Node1&#45;&gt;Node23</title>
<g id="a_edge22_Node000001_Node000023"><a xlink:title=" ">
<path fill="none" stroke="#63b8ff" d="M50.77,-289.56C59.45,-255.19 81.47,-187.22 126.25,-150.62 130.15,-147.44 134.56,-144.82 139.21,-142.65"/>
<polygon fill="#63b8ff" stroke="#63b8ff" points="47.4,-288.57 48.5,-299.11 54.21,-290.19 47.4,-288.57"/>
</a>
</g>
</g>
<!-- Node24 -->
<g id="Node000024" class="node">
<title>Node24</title>
<g id="a_Node000024"><a xlink:href="class_ogre_1_1v1_1_1_simple_renderable.html" target="_top" xlink:title="Simple implementation of MovableObject and Renderable for single&#45;part custom objects.">
<polygon fill="white" stroke="#666666" points="261.5,-105.25 126.25,-105.25 126.25,-86 261.5,-86 261.5,-105.25"/>
<text text-anchor="middle" x="193.88" y="-91.75" font-family="Helvetica,sans-Serif" font-size="10.00">Ogre::v1::SimpleRenderable</text>
</a>
</g>
</g>
<!-- Node1&#45;&gt;Node24 -->
<g id="edge23_Node000001_Node000024" class="edge">
<title>Node1&#45;&gt;Node24</title>
<g id="a_edge23_Node000001_Node000024"><a xlink:title=" ">
<path fill="none" stroke="#63b8ff" d="M48.59,-289.35C54.42,-248.92 72.85,-160.86 126.25,-113.62 129.84,-110.45 133.93,-107.83 138.29,-105.66"/>
<polygon fill="#63b8ff" stroke="#63b8ff" points="45.13,-288.81 47.3,-299.18 52.07,-289.72 45.13,-288.81"/>
</a>
</g>
</g>
<!-- Node26 -->
<g id="Node000026" class="node">
<title>Node26</title>
<g id="a_Node000026"><a xlink:href="class_ogre_1_1v1_1_1_static_geometry_1_1_geometry_bucket.html" target="_top" xlink:title="A GeometryBucket is a the lowest level bucket where geometry with the same vertex &amp; index format is s...">
<polygon fill="white" stroke="#666666" points="255.88,-67.88 131.88,-67.88 131.88,-37.38 255.88,-37.38 255.88,-67.88"/>
<text text-anchor="start" x="139.88" y="-54.38" font-family="Helvetica,sans-Serif" font-size="10.00">Ogre::v1::StaticGeometry</text>
<text text-anchor="middle" x="193.88" y="-43.12" font-family="Helvetica,sans-Serif" font-size="10.00">::GeometryBucket</text>
</a>
</g>
</g>
<!-- Node1&#45;&gt;Node26 -->
<g id="edge25_Node000001_Node000026" class="edge">
<title>Node1&#45;&gt;Node26</title>
<g id="a_edge25_Node000001_Node000026"><a xlink:title=" ">
<path fill="none" stroke="#63b8ff" d="M47.42,-289.32C51.3,-243.98 66.63,-137.2 126.25,-76.62 129.35,-73.47 132.9,-70.73 136.71,-68.35"/>
<polygon fill="#63b8ff" stroke="#63b8ff" points="43.94,-288.87 46.7,-299.1 50.92,-289.39 43.94,-288.87"/>
</a>
</g>
</g>
<!-- Node27 -->
<g id="Node000027" class="node">
<title>Node27</title>
<g id="a_Node000027"><a xlink:href="class_ogre_1_1v1_1_1_sub_entity.html" target="_top" xlink:title="Utility class which defines the sub&#45;parts of an Entity.">
<polygon fill="white" stroke="#666666" points="242.75,-19.25 145,-19.25 145,0 242.75,0 242.75,-19.25"/>
<text text-anchor="middle" x="193.88" y="-5.75" font-family="Helvetica,sans-Serif" font-size="10.00">Ogre::v1::SubEntity</text>
</a>
</g>
</g>
<!-- Node1&#45;&gt;Node27 -->
<g id="edge26_Node000001_Node000027" class="edge">
<title>Node1&#45;&gt;Node27</title>
<g id="a_edge26_Node000001_Node000027"><a xlink:title=" ">
<path fill="none" stroke="#63b8ff" d="M45.62,-289.33C45.58,-237.19 52.96,-101.98 126.25,-28.62 131.44,-23.43 137.93,-19.64 144.82,-16.87"/>
<polygon fill="#63b8ff" stroke="#63b8ff" points="42.11,-289.24 45.73,-299.2 49.11,-289.16 42.11,-289.24"/>
</a>
</g>
</g>
<!-- Node3 -->
<g id="Node000003" class="node">
<title>Node3</title>
<g id="a_Node000003"><a xlink:href="class_ogre_1_1_camera.html" target="_top" xlink:title="A viewpoint from which the scene will be rendered.">
<polygon fill="white" stroke="#666666" points="401.62,-610.25 326.38,-610.25 326.38,-591 401.62,-591 401.62,-610.25"/>
<text text-anchor="middle" x="364" y="-596.75" font-family="Helvetica,sans-Serif" font-size="10.00">Ogre::Camera</text>
</a>
</g>
</g>
<!-- Node2&#45;&gt;Node3 -->
<g id="edge2_Node000002_Node000003" class="edge">
<title>Node2&#45;&gt;Node3</title>
<g id="a_edge2_Node000002_Node000003"><a xlink:title=" ">
<path fill="none" stroke="#63b8ff" d="M244.26,-600.62C270.46,-600.62 302.12,-600.62 326.16,-600.62"/>
<polygon fill="#63b8ff" stroke="#63b8ff" points="244.54,-597.13 234.54,-600.63 244.54,-604.13 244.54,-597.13"/>
</a>
</g>
</g>
<!-- Node4 -->
<g id="Node000004" class="node">
<title>Node4</title>
<g id="a_Node000004"><a xlink:href="class_ogre_1_1_octree_camera.html" target="_top" xlink:title="Specialized viewpoint from which an Octree can be rendered.">
<polygon fill="white" stroke="#666666" points="593.5,-628.25 489,-628.25 489,-609 593.5,-609 593.5,-628.25"/>
<text text-anchor="middle" x="541.25" y="-614.75" font-family="Helvetica,sans-Serif" font-size="10.00">Ogre::OctreeCamera</text>
</a>
</g>
</g>
<!-- Node3&#45;&gt;Node4 -->
<g id="edge3_Node000003_Node000004" class="edge">
<title>Node3&#45;&gt;Node4</title>
<g id="a_edge3_Node000003_Node000004"><a xlink:title=" ">
<path fill="none" stroke="#63b8ff" d="M413.16,-605.57C436.57,-607.98 464.74,-610.87 488.61,-613.32"/>
<polygon fill="#63b8ff" stroke="#63b8ff" points="413.55,-602.09 403.24,-604.55 412.83,-609.06 413.55,-602.09"/>
</a>
</g>
</g>
<!-- Node5 -->
<g id="Node000005" class="node">
<title>Node5</title>
<g id="a_Node000005"><a xlink:href="class_ogre_1_1_p_c_z_camera.html" target="_top" xlink:title="Specialized viewpoint from which an PCZone Scene can be rendered.">
<polygon fill="white" stroke="#666666" points="588.62,-591.25 493.88,-591.25 493.88,-572 588.62,-572 588.62,-591.25"/>
<text text-anchor="middle" x="541.25" y="-577.75" font-family="Helvetica,sans-Serif" font-size="10.00">Ogre::PCZCamera</text>
</a>
</g>
</g>
<!-- Node3&#45;&gt;Node5 -->
<g id="edge4_Node000003_Node000005" class="edge">
<title>Node3&#45;&gt;Node5</title>
<g id="a_edge4_Node000003_Node000005"><a xlink:title=" ">
<path fill="none" stroke="#63b8ff" d="M412.85,-595.44C437.96,-592.72 468.6,-589.39 493.54,-586.69"/>
<polygon fill="#63b8ff" stroke="#63b8ff" points="412.81,-591.92 403.24,-596.48 413.56,-598.88 412.81,-591.92"/>
</a>
</g>
</g>
<!-- Node10 -->
<g id="Node000010" class="node">
<title>Node10</title>
<g id="a_Node000010"><a xlink:href="class_ogre_1_1_sub_item.html" target="_top" xlink:title="Utility class which defines the sub&#45;parts of an Item.">
<polygon fill="white" stroke="#666666" points="403.12,-450.25 324.88,-450.25 324.88,-431 403.12,-431 403.12,-450.25"/>
<text text-anchor="middle" x="364" y="-436.75" font-family="Helvetica,sans-Serif" font-size="10.00">Ogre::SubItem</text>
</a>
</g>
</g>
<!-- Node9&#45;&gt;Node10 -->
<g id="edge9_Node000009_Node000010" class="edge">
<title>Node9&#45;&gt;Node10</title>
<g id="a_edge9_Node000009_Node000010"><a xlink:title=" ">
<path fill="none" stroke="#63b8ff" d="M271.25,-440.62C289.67,-440.62 308.58,-440.62 324.42,-440.62"/>
<polygon fill="#63b8ff" stroke="#63b8ff" points="271.39,-437.13 261.39,-440.63 271.39,-444.13 271.39,-437.13"/>
</a>
</g>
</g>
<!-- Node14 -->
<g id="Node000014" class="node">
<title>Node14</title>
<g id="a_Node000014"><a xlink:href="class_ogre_1_1v1_1_1_ribbon_trail.html" target="_top" xlink:title="Subclass of BillboardChain which automatically leaves a trail behind one or more Node instances.">
<polygon fill="white" stroke="#666666" points="416.62,-339.25 311.38,-339.25 311.38,-320 416.62,-320 416.62,-339.25"/>
<text text-anchor="middle" x="364" y="-325.75" font-family="Helvetica,sans-Serif" font-size="10.00">Ogre::v1::RibbonTrail</text>
</a>
</g>
</g>
<!-- Node13&#45;&gt;Node14 -->
<g id="edge13_Node000013_Node000014" class="edge">
<title>Node13&#45;&gt;Node14</title>
<g id="a_edge13_Node000013_Node000014"><a xlink:title=" ">
<path fill="none" stroke="#63b8ff" d="M264.79,-329.62C280.24,-329.62 296.36,-329.62 310.96,-329.62"/>
<polygon fill="#63b8ff" stroke="#63b8ff" points="265.19,-326.13 255.19,-329.63 265.19,-333.13 265.19,-326.13"/>
</a>
</g>
</g>
<!-- Node19 -->
<g id="Node000019" class="node">
<title>Node19</title>
<g id="a_Node000019"><a xlink:href="class_ogre_1_1v1_1_1_overlay_container.html" target="_top" xlink:title="A 2D element which contains other OverlayElement instances.">
<polygon fill="white" stroke="#666666" points="429.38,-207.25 298.62,-207.25 298.62,-188 429.38,-188 429.38,-207.25"/>
<text text-anchor="middle" x="364" y="-193.75" font-family="Helvetica,sans-Serif" font-size="10.00">Ogre::v1::OverlayContainer</text>
</a>
</g>
</g>
<!-- Node18&#45;&gt;Node19 -->
<g id="edge18_Node000018_Node000019" class="edge">
<title>Node18&#45;&gt;Node19</title>
<g id="a_edge18_Node000018_Node000019"><a xlink:title=" ">
<path fill="none" stroke="#63b8ff" d="M266.81,-181.6C278.66,-183.58 290.85,-185.61 302.39,-187.53"/>
<polygon fill="#63b8ff" stroke="#63b8ff" points="267.5,-178.17 257.06,-179.98 266.35,-185.08 267.5,-178.17"/>
</a>
</g>
</g>
<!-- Node22 -->
<g id="Node000022" class="node">
<title>Node22</title>
<g id="a_Node000022"><a xlink:href="class_ogre_1_1v1_1_1_text_area_overlay_element.html" target="_top" xlink:title="This class implements an overlay element which contains simple unformatted text.">
<polygon fill="white" stroke="#666666" points="428.25,-169.88 299.75,-169.88 299.75,-139.38 428.25,-139.38 428.25,-169.88"/>
<text text-anchor="start" x="307.75" y="-156.38" font-family="Helvetica,sans-Serif" font-size="10.00">Ogre::v1::TextAreaOverlay</text>
<text text-anchor="middle" x="364" y="-145.12" font-family="Helvetica,sans-Serif" font-size="10.00">Element</text>
</a>
</g>
</g>
<!-- Node18&#45;&gt;Node22 -->
<g id="edge21_Node000018_Node000022" class="edge">
<title>Node18&#45;&gt;Node22</title>
<g id="a_edge21_Node000018_Node000022"><a xlink:title=" ">
<path fill="none" stroke="#63b8ff" d="M267.81,-163.12C278.32,-162.18 289.07,-161.22 299.38,-160.3"/>
<polygon fill="#63b8ff" stroke="#63b8ff" points="267.68,-159.62 258.03,-163.99 268.3,-166.59 267.68,-159.62"/>
</a>
</g>
</g>
<!-- Node20 -->
<g id="Node000020" class="node">
<title>Node20</title>
<g id="a_Node000020"><a xlink:href="class_ogre_1_1v1_1_1_panel_overlay_element.html" target="_top" xlink:title="OverlayElement representing a flat, single&#45;material (or transparent) panel which can contain other el...">
<polygon fill="white" stroke="#666666" points="616,-207.25 466.5,-207.25 466.5,-188 616,-188 616,-207.25"/>
<text text-anchor="middle" x="541.25" y="-193.75" font-family="Helvetica,sans-Serif" font-size="10.00">Ogre::v1::PanelOverlayElement</text>
</a>
</g>
</g>
<!-- Node19&#45;&gt;Node20 -->
<g id="edge19_Node000019_Node000020" class="edge">
<title>Node19&#45;&gt;Node20</title>
<g id="a_edge19_Node000019_Node000020"><a xlink:title=" ">
<path fill="none" stroke="#63b8ff" d="M441.06,-197.62C449.43,-197.62 457.95,-197.62 466.3,-197.62"/>
<polygon fill="#63b8ff" stroke="#63b8ff" points="441.27,-194.13 431.27,-197.63 441.27,-201.13 441.27,-194.13"/>
</a>
</g>
</g>
<!-- Node21 -->
<g id="Node000021" class="node">
<title>Node21</title>
<g id="a_Node000021"><a xlink:href="class_ogre_1_1v1_1_1_border_panel_overlay_element.html" target="_top" xlink:title="A specialisation of the PanelOverlayElement to provide a panel with a border.">
<polygon fill="white" stroke="#666666" points="794.75,-212.88 652,-212.88 652,-182.38 794.75,-182.38 794.75,-212.88"/>
<text text-anchor="start" x="660" y="-199.38" font-family="Helvetica,sans-Serif" font-size="10.00">Ogre::v1::BorderPanelOverlay</text>
<text text-anchor="middle" x="723.38" y="-188.12" font-family="Helvetica,sans-Serif" font-size="10.00">Element</text>
</a>
</g>
</g>
<!-- Node20&#45;&gt;Node21 -->
<g id="edge20_Node000020_Node000021" class="edge">
<title>Node20&#45;&gt;Node21</title>
<g id="a_edge20_Node000020_Node000021"><a xlink:title=" ">
<path fill="none" stroke="#63b8ff" d="M627.57,-197.62C635.59,-197.62 643.66,-197.62 651.52,-197.62"/>
<polygon fill="#63b8ff" stroke="#63b8ff" points="627.81,-194.13 617.81,-197.63 627.81,-201.13 627.81,-194.13"/>
</a>
</g>
</g>
<!-- Node25 -->
<g id="Node000025" class="node">
<title>Node25</title>
<g id="a_Node000025"><a xlink:href="class_ogre_1_1v1_1_1_wire_bounding_box.html" target="_top" xlink:title="Allows the rendering of a wireframe bounding box.">
<polygon fill="white" stroke="#666666" points="430.5,-105.25 297.5,-105.25 297.5,-86 430.5,-86 430.5,-105.25"/>
<text text-anchor="middle" x="364" y="-91.75" font-family="Helvetica,sans-Serif" font-size="10.00">Ogre::v1::WireBoundingBox</text>
</a>
</g>
</g>
<!-- Node24&#45;&gt;Node25 -->
<g id="edge24_Node000024_Node000025" class="edge">
<title>Node24&#45;&gt;Node25</title>
<g id="a_edge24_Node000024_Node000025"><a xlink:title=" ">
<path fill="none" stroke="#63b8ff" d="M273.09,-95.62C281.13,-95.62 289.24,-95.62 297.12,-95.62"/>
<polygon fill="#63b8ff" stroke="#63b8ff" points="273.32,-92.13 263.32,-95.63 273.32,-99.13 273.32,-92.13"/>
</a>
</g>
</g>
</g>
</svg>
