<?xml version="1.0" encoding="UTF-8" standalone="no"?>
<!DOCTYPE svg PUBLIC "-//W3C//DTD SVG 1.1//EN"
 "http://www.w3.org/Graphics/SVG/1.1/DTD/svg11.dtd">
<!-- Generated by graphviz version 3.0.0 (20220413.0106)
 -->
<!-- Title: Ogre::GpuResource Pages: 1 -->
<svg width="925pt" height="202pt"
 viewBox="0.00 0.00 925.00 201.50" xmlns="http://www.w3.org/2000/svg" xmlns:xlink="http://www.w3.org/1999/xlink">
<g id="graph0" class="graph" transform="scale(1 1) rotate(0) translate(4 197.5)">
<title>Ogre::GpuResource</title>
<!-- Node1 -->
<g id="node1" class="node">
<title>Node1</title>
<g id="a_node1"><a xlink:title=" ">
<polygon fill="#bfbfbf" stroke="black" points="116,-77 116,-96 217,-96 217,-77 116,-77"/>
<text text-anchor="middle" x="166.5" y="-84" font-family="Helvetica,sans-Serif" font-size="10.00">Ogre::GpuResource</text>
</a>
</g>
</g>
<!-- Node3 -->
<g id="node3" class="node">
<title>Node3</title>
<g id="a_node3"><a xlink:href="class_ogre_1_1_texture_gpu.html" target="_top" xlink:title=" ">
<polygon fill="none" stroke="black" points="253,-77 253,-96 345,-96 345,-77 253,-77"/>
<text text-anchor="middle" x="299" y="-84" font-family="Helvetica,sans-Serif" font-size="10.00">Ogre::TextureGpu</text>
</a>
</g>
</g>
<!-- Node1&#45;&gt;Node3 -->
<g id="edge2" class="edge">
<title>Node1&#45;&gt;Node3</title>
<path fill="none" stroke="midnightblue" d="M227.47,-86.5C235.95,-86.5 244.56,-86.5 252.71,-86.5"/>
<polygon fill="midnightblue" stroke="midnightblue" points="227.21,-83 217.21,-86.5 227.21,-90 227.21,-83"/>
</g>
<!-- Node2 -->
<g id="node2" class="node">
<title>Node2</title>
<g id="a_node2"><a xlink:href="class_ogre_1_1_allocated_object.html" target="_top" xlink:title="Superclass for all objects that wish to use custom memory allocators when their new / delete operator...">
<polygon fill="none" stroke="black" points="0,-77 0,-96 80,-96 80,-77 0,-77"/>
<text text-anchor="middle" x="40" y="-84" font-family="Helvetica,sans-Serif" font-size="10.00">ResourceAlloc</text>
</a>
</g>
</g>
<!-- Node2&#45;&gt;Node1 -->
<g id="edge1" class="edge">
<title>Node2&#45;&gt;Node1</title>
<path fill="none" stroke="midnightblue" d="M90.07,-86.5C98.46,-86.5 107.19,-86.5 115.6,-86.5"/>
<polygon fill="midnightblue" stroke="midnightblue" points="90.05,-83 80.05,-86.5 90.05,-90 90.05,-83"/>
</g>
<!-- Node4 -->
<g id="node4" class="node">
<title>Node4</title>
<g id="a_node4"><a xlink:href="class_ogre_1_1_d3_d11_texture_gpu.html" target="_top" xlink:title=" ">
<polygon fill="none" stroke="black" points="385.5,-154 385.5,-173 507.5,-173 507.5,-154 385.5,-154"/>
<text text-anchor="middle" x="446.5" y="-161" font-family="Helvetica,sans-Serif" font-size="10.00">Ogre::D3D11TextureGpu</text>
</a>
</g>
</g>
<!-- Node3&#45;&gt;Node4 -->
<g id="edge3" class="edge">
<title>Node3&#45;&gt;Node4</title>
<path fill="none" stroke="midnightblue" d="M327.16,-100.95C342.88,-109.3 363.05,-120.01 381,-129.5 396.67,-137.79 414.49,-147.18 427.42,-153.99"/>
<polygon fill="midnightblue" stroke="midnightblue" points="328.48,-97.68 318.01,-96.08 325.2,-103.86 328.48,-97.68"/>
</g>
<!-- Node7 -->
<g id="node7" class="node">
<title>Node7</title>
<g id="a_node7"><a xlink:href="class_ogre_1_1_g_l3_plus_texture_gpu.html" target="_top" xlink:title=" ">
<polygon fill="none" stroke="black" points="381,-101 381,-120 512,-120 512,-101 381,-101"/>
<text text-anchor="middle" x="446.5" y="-108" font-family="Helvetica,sans-Serif" font-size="10.00">Ogre::GL3PlusTextureGpu</text>
</a>
</g>
</g>
<!-- Node3&#45;&gt;Node7 -->
<g id="edge6" class="edge">
<title>Node3&#45;&gt;Node7</title>
<path fill="none" stroke="midnightblue" d="M355.22,-95.61C365.84,-97.36 376.99,-99.2 387.68,-100.96"/>
<polygon fill="midnightblue" stroke="midnightblue" points="355.68,-92.14 345.24,-93.96 354.54,-99.04 355.68,-92.14"/>
</g>
<!-- Node11 -->
<g id="node11" class="node">
<title>Node11</title>
<g id="a_node11"><a xlink:href="class_ogre_1_1_metal_texture_gpu.html" target="_top" xlink:title=" ">
<polygon fill="none" stroke="black" points="388.5,-58 388.5,-77 504.5,-77 504.5,-58 388.5,-58"/>
<text text-anchor="middle" x="446.5" y="-65" font-family="Helvetica,sans-Serif" font-size="10.00">Ogre::MetalTextureGpu</text>
</a>
</g>
</g>
<!-- Node3&#45;&gt;Node11 -->
<g id="edge10" class="edge">
<title>Node3&#45;&gt;Node11</title>
<path fill="none" stroke="midnightblue" d="M355.41,-79.26C366.23,-77.85 377.6,-76.37 388.47,-74.95"/>
<polygon fill="midnightblue" stroke="midnightblue" points="354.7,-75.83 345.24,-80.59 355.61,-82.77 354.7,-75.83"/>
</g>
<!-- Node14 -->
<g id="node14" class="node">
<title>Node14</title>
<g id="a_node14"><a xlink:href="class_ogre_1_1_n_u_l_l_texture_gpu.html" target="_top" xlink:title=" ">
<polygon fill="none" stroke="black" points="387,-15 387,-34 506,-34 506,-15 387,-15"/>
<text text-anchor="middle" x="446.5" y="-22" font-family="Helvetica,sans-Serif" font-size="10.00">Ogre::NULLTextureGpu</text>
</a>
</g>
</g>
<!-- Node3&#45;&gt;Node14 -->
<g id="edge13" class="edge">
<title>Node3&#45;&gt;Node14</title>
<path fill="none" stroke="midnightblue" d="M328.15,-72.6C343.61,-65.14 363.21,-55.97 381,-48.5 393.12,-43.41 406.73,-38.27 418.32,-34.05"/>
<polygon fill="midnightblue" stroke="midnightblue" points="326.58,-69.47 319.11,-76.99 329.64,-75.77 326.58,-69.47"/>
</g>
<!-- Node5 -->
<g id="node5" class="node">
<title>Node5</title>
<g id="a_node5"><a xlink:href="class_ogre_1_1_d3_d11_texture_gpu_render_target.html" target="_top" xlink:title=" ">
<polygon fill="none" stroke="black" points="552.5,-161.5 552.5,-191.5 704.5,-191.5 704.5,-161.5 552.5,-161.5"/>
<text text-anchor="start" x="560.5" y="-179.5" font-family="Helvetica,sans-Serif" font-size="10.00">Ogre::D3D11TextureGpuRender</text>
<text text-anchor="middle" x="628.5" y="-168.5" font-family="Helvetica,sans-Serif" font-size="10.00">Target</text>
</a>
</g>
</g>
<!-- Node4&#45;&gt;Node5 -->
<g id="edge4" class="edge">
<title>Node4&#45;&gt;Node5</title>
<path fill="none" stroke="midnightblue" d="M517.91,-168.59C529.2,-169.4 540.93,-170.25 552.32,-171.07"/>
<polygon fill="midnightblue" stroke="midnightblue" points="517.91,-165.08 507.69,-167.85 517.41,-172.06 517.91,-165.08"/>
</g>
<!-- Node6 -->
<g id="node6" class="node">
<title>Node6</title>
<g id="a_node6"><a xlink:href="class_ogre_1_1_d3_d11_texture_gpu_window.html" target="_top" xlink:title=" ">
<polygon fill="none" stroke="black" points="753,-174 753,-193 909,-193 909,-174 753,-174"/>
<text text-anchor="middle" x="831" y="-181" font-family="Helvetica,sans-Serif" font-size="10.00">Ogre::D3D11TextureGpuWindow</text>
</a>
</g>
</g>
<!-- Node5&#45;&gt;Node6 -->
<g id="edge5" class="edge">
<title>Node5&#45;&gt;Node6</title>
<path fill="none" stroke="midnightblue" d="M714.74,-179.48C727.34,-179.92 740.26,-180.37 752.68,-180.8"/>
<polygon fill="midnightblue" stroke="midnightblue" points="714.85,-175.98 704.73,-179.13 714.6,-182.97 714.85,-175.98"/>
</g>
<!-- Node8 -->
<g id="node8" class="node">
<title>Node8</title>
<g id="a_node8"><a xlink:href="class_ogre_1_1_g_l3_plus_texture_gpu_render_target.html" target="_top" xlink:title=" ">
<polygon fill="none" stroke="black" points="548,-98.5 548,-128.5 709,-128.5 709,-98.5 548,-98.5"/>
<text text-anchor="start" x="556" y="-116.5" font-family="Helvetica,sans-Serif" font-size="10.00">Ogre::GL3PlusTextureGpuRender</text>
<text text-anchor="middle" x="628.5" y="-105.5" font-family="Helvetica,sans-Serif" font-size="10.00">Target</text>
</a>
</g>
</g>
<!-- Node7&#45;&gt;Node8 -->
<g id="edge7" class="edge">
<title>Node7&#45;&gt;Node8</title>
<path fill="none" stroke="midnightblue" d="M522.41,-111.75C530.85,-111.89 539.47,-112.03 547.97,-112.17"/>
<polygon fill="midnightblue" stroke="midnightblue" points="522.29,-108.25 512.23,-111.58 522.17,-115.25 522.29,-108.25"/>
</g>
<!-- Node9 -->
<g id="node9" class="node">
<title>Node9</title>
<g id="a_node9"><a xlink:href="class_ogre_1_1_g_l3_plus_texture_gpu_headless_window.html" target="_top" xlink:title=" ">
<polygon fill="none" stroke="black" points="745,-124.5 745,-154.5 917,-154.5 917,-124.5 745,-124.5"/>
<text text-anchor="start" x="753" y="-142.5" font-family="Helvetica,sans-Serif" font-size="10.00">Ogre::GL3PlusTextureGpuHeadless</text>
<text text-anchor="middle" x="831" y="-131.5" font-family="Helvetica,sans-Serif" font-size="10.00">Window</text>
</a>
</g>
</g>
<!-- Node8&#45;&gt;Node9 -->
<g id="edge8" class="edge">
<title>Node8&#45;&gt;Node9</title>
<path fill="none" stroke="midnightblue" d="M719.07,-125.12C727.68,-126.23 736.4,-127.36 744.96,-128.47"/>
<polygon fill="midnightblue" stroke="midnightblue" points="719.4,-121.63 709.03,-123.81 718.5,-128.57 719.4,-121.63"/>
</g>
<!-- Node10 -->
<g id="node10" class="node">
<title>Node10</title>
<g id="a_node10"><a xlink:href="class_ogre_1_1_g_l3_plus_texture_gpu_window.html" target="_top" xlink:title=" ">
<polygon fill="none" stroke="black" points="748.5,-86 748.5,-105 913.5,-105 913.5,-86 748.5,-86"/>
<text text-anchor="middle" x="831" y="-93" font-family="Helvetica,sans-Serif" font-size="10.00">Ogre::GL3PlusTextureGpuWindow</text>
</a>
</g>
</g>
<!-- Node8&#45;&gt;Node10 -->
<g id="edge9" class="edge">
<title>Node8&#45;&gt;Node10</title>
<path fill="none" stroke="midnightblue" d="M719.09,-105.46C728.8,-104.59 738.65,-103.7 748.26,-102.84"/>
<polygon fill="midnightblue" stroke="midnightblue" points="718.68,-101.98 709.03,-106.36 719.3,-108.95 718.68,-101.98"/>
</g>
<!-- Node12 -->
<g id="node12" class="node">
<title>Node12</title>
<g id="a_node12"><a xlink:href="class_ogre_1_1_metal_texture_gpu_render_target.html" target="_top" xlink:title=" ">
<polygon fill="none" stroke="black" points="555,-49.5 555,-79.5 702,-79.5 702,-49.5 555,-49.5"/>
<text text-anchor="start" x="563" y="-67.5" font-family="Helvetica,sans-Serif" font-size="10.00">Ogre::MetalTextureGpuRender</text>
<text text-anchor="middle" x="628.5" y="-56.5" font-family="Helvetica,sans-Serif" font-size="10.00">Target</text>
</a>
</g>
</g>
<!-- Node11&#45;&gt;Node12 -->
<g id="edge11" class="edge">
<title>Node11&#45;&gt;Node12</title>
<path fill="none" stroke="midnightblue" d="M515.16,-66.37C528.1,-66.16 541.69,-65.93 554.78,-65.71"/>
<polygon fill="midnightblue" stroke="midnightblue" points="514.89,-62.88 504.95,-66.54 515,-69.88 514.89,-62.88"/>
</g>
<!-- Node13 -->
<g id="node13" class="node">
<title>Node13</title>
<g id="a_node13"><a xlink:href="class_ogre_1_1_metal_texture_gpu_window.html" target="_top" xlink:title=" ">
<polygon fill="none" stroke="black" points="755.5,-48 755.5,-67 906.5,-67 906.5,-48 755.5,-48"/>
<text text-anchor="middle" x="831" y="-55" font-family="Helvetica,sans-Serif" font-size="10.00">Ogre::MetalTextureGpuWindow</text>
</a>
</g>
</g>
<!-- Node12&#45;&gt;Node13 -->
<g id="edge12" class="edge">
<title>Node12&#45;&gt;Node13</title>
<path fill="none" stroke="midnightblue" d="M712.4,-61.61C726.59,-61.11 741.26,-60.6 755.22,-60.11"/>
<polygon fill="midnightblue" stroke="midnightblue" points="712.04,-58.12 702.17,-61.96 712.28,-65.11 712.04,-58.12"/>
</g>
<!-- Node15 -->
<g id="node15" class="node">
<title>Node15</title>
<g id="a_node15"><a xlink:href="class_ogre_1_1_n_u_l_l_texture_gpu_render_target.html" target="_top" xlink:title=" ">
<polygon fill="none" stroke="black" points="553.5,-0.5 553.5,-30.5 703.5,-30.5 703.5,-0.5 553.5,-0.5"/>
<text text-anchor="start" x="561.5" y="-18.5" font-family="Helvetica,sans-Serif" font-size="10.00">Ogre::NULLTextureGpuRender</text>
<text text-anchor="middle" x="628.5" y="-7.5" font-family="Helvetica,sans-Serif" font-size="10.00">Target</text>
</a>
</g>
</g>
<!-- Node14&#45;&gt;Node15 -->
<g id="edge14" class="edge">
<title>Node14&#45;&gt;Node15</title>
<path fill="none" stroke="midnightblue" d="M516.43,-21.05C528.5,-20.45 541.1,-19.82 553.3,-19.21"/>
<polygon fill="midnightblue" stroke="midnightblue" points="516.25,-17.56 506.44,-21.55 516.6,-24.55 516.25,-17.56"/>
</g>
</g>
</svg>
