<?xml version="1.0" encoding="UTF-8" standalone="no"?>
<!DOCTYPE svg PUBLIC "-//W3C//DTD SVG 1.1//EN"
 "http://www.w3.org/Graphics/SVG/1.1/DTD/svg11.dtd">
<!-- Generated by graphviz version 9.0.0 (20230911.1827)
 -->
<!-- Title: Ogre::AreaEmitter Pages: 1 -->
<svg width="458pt" height="304pt"
 viewBox="0.00 0.00 458.25 303.50" xmlns="http://www.w3.org/2000/svg" xmlns:xlink="http://www.w3.org/1999/xlink">
<g id="graph0" class="graph" transform="scale(1 1) rotate(0) translate(4 299.5)">
<title>Ogre::AreaEmitter</title>
<!-- Node1 -->
<g id="Node000001" class="node">
<title>Node1</title>
<g id="a_Node000001"><a xlink:title="Particle emitter which emits particles randomly from points inside an area (box, sphere,...">
<polygon fill="#999999" stroke="#666666" points="269.62,-129.75 177.12,-129.75 177.12,-110.5 269.62,-110.5 269.62,-129.75"/>
<text text-anchor="middle" x="223.38" y="-116.25" font-family="Helvetica,sans-Serif" font-size="10.00">Ogre::AreaEmitter</text>
</a>
</g>
</g>
<!-- Node6 -->
<g id="Node000006" class="node">
<title>Node6</title>
<g id="a_Node000006"><a xlink:href="class_ogre_1_1_box_emitter.html" target="_top" xlink:title="Particle emitter which emits particles randomly from points inside a box.">
<polygon fill="white" stroke="#666666" points="88.75,-74.5 0,-74.5 0,-55.25 88.75,-55.25 88.75,-74.5"/>
<text text-anchor="middle" x="44.38" y="-61" font-family="Helvetica,sans-Serif" font-size="10.00">Ogre::BoxEmitter</text>
</a>
</g>
</g>
<!-- Node1&#45;&gt;Node6 -->
<g id="edge5_Node000001_Node000006" class="edge">
<title>Node1&#45;&gt;Node6</title>
<g id="a_edge5_Node000001_Node000006"><a xlink:title=" ">
<path fill="none" stroke="#63b8ff" d="M182,-106.82C149.29,-97.09 104.39,-83.73 74.89,-74.95"/>
<polygon fill="#63b8ff" stroke="#63b8ff" points="180.98,-110.16 191.56,-109.66 182.97,-103.45 180.98,-110.16"/>
</a>
</g>
</g>
<!-- Node7 -->
<g id="Node000007" class="node">
<title>Node7</title>
<g id="a_Node000007"><a xlink:href="class_ogre_1_1_cylinder_emitter.html" target="_top" xlink:title="Particle emitter which emits particles randomly from points inside a cylinder.">
<polygon fill="white" stroke="#666666" points="213.75,-74.5 107,-74.5 107,-55.25 213.75,-55.25 213.75,-74.5"/>
<text text-anchor="middle" x="160.38" y="-61" font-family="Helvetica,sans-Serif" font-size="10.00">Ogre::CylinderEmitter</text>
</a>
</g>
</g>
<!-- Node1&#45;&gt;Node7 -->
<g id="edge6_Node000001_Node000007" class="edge">
<title>Node1&#45;&gt;Node7</title>
<g id="a_edge6_Node000001_Node000007"><a xlink:title=" ">
<path fill="none" stroke="#63b8ff" d="M204.2,-102.91C193.26,-93.67 179.96,-82.43 170.9,-74.77"/>
<polygon fill="#63b8ff" stroke="#63b8ff" points="201.64,-105.33 211.53,-109.11 206.15,-99.99 201.64,-105.33"/>
</a>
</g>
</g>
<!-- Node8 -->
<g id="Node000008" class="node">
<title>Node8</title>
<g id="a_Node000008"><a xlink:href="class_ogre_1_1_ellipsoid_emitter.html" target="_top" xlink:title="Particle emitter which emits particles randomly from points inside an ellipsoid.">
<polygon fill="white" stroke="#666666" points="340.5,-74.5 232.25,-74.5 232.25,-55.25 340.5,-55.25 340.5,-74.5"/>
<text text-anchor="middle" x="286.38" y="-61" font-family="Helvetica,sans-Serif" font-size="10.00">Ogre::EllipsoidEmitter</text>
</a>
</g>
</g>
<!-- Node1&#45;&gt;Node8 -->
<g id="edge7_Node000001_Node000008" class="edge">
<title>Node1&#45;&gt;Node8</title>
<g id="a_edge7_Node000001_Node000008"><a xlink:title=" ">
<path fill="none" stroke="#63b8ff" d="M242.55,-102.91C253.49,-93.67 266.79,-82.43 275.85,-74.77"/>
<polygon fill="#63b8ff" stroke="#63b8ff" points="240.6,-99.99 235.22,-109.11 245.11,-105.33 240.6,-99.99"/>
</a>
</g>
</g>
<!-- Node10 -->
<g id="Node000010" class="node">
<title>Node10</title>
<g id="a_Node000010"><a xlink:href="class_ogre_1_1_ring_emitter.html" target="_top" xlink:title="Particle emitter which emits particles randomly from points inside a ring (e.g.">
<polygon fill="white" stroke="#666666" points="450.25,-74.5 358.5,-74.5 358.5,-55.25 450.25,-55.25 450.25,-74.5"/>
<text text-anchor="middle" x="404.38" y="-61" font-family="Helvetica,sans-Serif" font-size="10.00">Ogre::RingEmitter</text>
</a>
</g>
</g>
<!-- Node1&#45;&gt;Node10 -->
<g id="edge9_Node000001_Node000010" class="edge">
<title>Node1&#45;&gt;Node10</title>
<g id="a_edge9_Node000001_Node000010"><a xlink:title=" ">
<path fill="none" stroke="#63b8ff" d="M264.78,-106.94C297.89,-97.2 343.56,-83.77 373.52,-74.95"/>
<polygon fill="#63b8ff" stroke="#63b8ff" points="264.14,-103.48 255.53,-109.66 266.11,-110.2 264.14,-103.48"/>
</a>
</g>
</g>
<!-- Node2 -->
<g id="Node000002" class="node">
<title>Node2</title>
<g id="a_Node000002"><a xlink:href="class_ogre_1_1_particle_emitter.html" target="_top" xlink:title="Abstract class defining the interface to be implemented by particle emitters.">
<polygon fill="white" stroke="#666666" points="276,-185 170.75,-185 170.75,-165.75 276,-165.75 276,-185"/>
<text text-anchor="middle" x="223.38" y="-171.5" font-family="Helvetica,sans-Serif" font-size="10.00">Ogre::ParticleEmitter</text>
</a>
</g>
</g>
<!-- Node2&#45;&gt;Node1 -->
<g id="edge1_Node000001_Node000002" class="edge">
<title>Node2&#45;&gt;Node1</title>
<g id="a_edge1_Node000001_Node000002"><a xlink:title=" ">
<path fill="none" stroke="#63b8ff" d="M223.38,-154.13C223.38,-145.84 223.38,-136.67 223.38,-130.11"/>
<polygon fill="#63b8ff" stroke="#63b8ff" points="219.88,-154.07 223.38,-164.07 226.88,-154.07 219.88,-154.07"/>
</a>
</g>
</g>
<!-- Node3 -->
<g id="Node000003" class="node">
<title>Node3</title>
<g id="a_Node000003"><a xlink:href="class_ogre_1_1_string_interface.html" target="_top" xlink:title="Class defining the common interface which classes can use to present a reflection&#45;style,...">
<polygon fill="white" stroke="#666666" points="222,-240.25 116.75,-240.25 116.75,-221 222,-221 222,-240.25"/>
<text text-anchor="middle" x="169.38" y="-226.75" font-family="Helvetica,sans-Serif" font-size="10.00">Ogre::StringInterface</text>
</a>
</g>
</g>
<!-- Node3&#45;&gt;Node2 -->
<g id="edge2_Node000002_Node000003" class="edge">
<title>Node3&#45;&gt;Node2</title>
<g id="a_edge2_Node000002_Node000003"><a xlink:title=" ">
<path fill="none" stroke="#63b8ff" d="M186.41,-212.82C195.64,-203.73 206.67,-192.85 214.26,-185.36"/>
<polygon fill="#63b8ff" stroke="#63b8ff" points="184.03,-210.26 179.37,-219.77 188.95,-215.24 184.03,-210.26"/>
</a>
</g>
</g>
<!-- Node4 -->
<g id="Node000004" class="node">
<title>Node4</title>
<g id="a_Node000004"><a xlink:href="class_ogre_1_1_particle.html" target="_top" xlink:title="Class representing a single particle instance.">
<polygon fill="white" stroke="#666666" points="314.62,-240.25 240.12,-240.25 240.12,-221 314.62,-221 314.62,-240.25"/>
<text text-anchor="middle" x="277.38" y="-226.75" font-family="Helvetica,sans-Serif" font-size="10.00">Ogre::Particle</text>
</a>
</g>
</g>
<!-- Node4&#45;&gt;Node2 -->
<g id="edge3_Node000002_Node000004" class="edge">
<title>Node4&#45;&gt;Node2</title>
<g id="a_edge3_Node000002_Node000004"><a xlink:title=" ">
<path fill="none" stroke="#63b8ff" d="M260.34,-212.82C251.11,-203.73 240.08,-192.85 232.49,-185.36"/>
<polygon fill="#63b8ff" stroke="#63b8ff" points="257.8,-215.24 267.38,-219.77 262.72,-210.26 257.8,-215.24"/>
</a>
</g>
</g>
<!-- Node5 -->
<g id="Node000005" class="node">
<title>Node5</title>
<g id="a_Node000005"><a xlink:href="class_ogre_1_1_allocated_object.html" target="_top" xlink:title="Superclass for all objects that wish to use custom memory allocators when their new / delete operator...">
<polygon fill="white" stroke="#666666" points="302.62,-295.5 252.12,-295.5 252.12,-276.25 302.62,-276.25 302.62,-295.5"/>
<text text-anchor="middle" x="277.38" y="-282" font-family="Helvetica,sans-Serif" font-size="10.00">FXAlloc</text>
</a>
</g>
</g>
<!-- Node5&#45;&gt;Node4 -->
<g id="edge4_Node000004_Node000005" class="edge">
<title>Node5&#45;&gt;Node4</title>
<g id="a_edge4_Node000004_Node000005"><a xlink:title=" ">
<path fill="none" stroke="#63b8ff" d="M277.38,-264.63C277.38,-256.34 277.38,-247.17 277.38,-240.61"/>
<polygon fill="#63b8ff" stroke="#63b8ff" points="273.88,-264.57 277.38,-274.57 280.88,-264.57 273.88,-264.57"/>
</a>
</g>
</g>
<!-- Node9 -->
<g id="Node000009" class="node">
<title>Node9</title>
<g id="a_Node000009"><a xlink:href="class_ogre_1_1_hollow_ellipsoid_emitter.html" target="_top" xlink:title="Particle emitter which emits particles randomly from points inside a hollow ellipsoid.">
<polygon fill="white" stroke="#666666" points="355.5,-19.25 217.25,-19.25 217.25,0 355.5,0 355.5,-19.25"/>
<text text-anchor="middle" x="286.38" y="-5.75" font-family="Helvetica,sans-Serif" font-size="10.00">Ogre::HollowEllipsoidEmitter</text>
</a>
</g>
</g>
<!-- Node8&#45;&gt;Node9 -->
<g id="edge8_Node000008_Node000009" class="edge">
<title>Node8&#45;&gt;Node9</title>
<g id="a_edge8_Node000008_Node000009"><a xlink:title=" ">
<path fill="none" stroke="#63b8ff" d="M286.38,-43.63C286.38,-35.34 286.38,-26.17 286.38,-19.61"/>
<polygon fill="#63b8ff" stroke="#63b8ff" points="282.88,-43.57 286.38,-53.57 289.88,-43.57 282.88,-43.57"/>
</a>
</g>
</g>
</g>
</svg>
