<?xml version="1.0" encoding="UTF-8" standalone="no"?>
<!DOCTYPE svg PUBLIC "-//W3C//DTD SVG 1.1//EN"
 "http://www.w3.org/Graphics/SVG/1.1/DTD/svg11.dtd">
<!-- Generated by graphviz version 9.0.0 (20230911.1827)
 -->
<!-- Title: Ogre::PropertyBase Pages: 1 -->
<svg width="108pt" height="138pt"
 viewBox="0.00 0.00 108.00 137.75" xmlns="http://www.w3.org/2000/svg" xmlns:xlink="http://www.w3.org/1999/xlink">
<g id="graph0" class="graph" transform="scale(1 1) rotate(0) translate(4 133.75)">
<title>Ogre::PropertyBase</title>
<!-- Node1 -->
<g id="Node000001" class="node">
<title>Node1</title>
<g id="a_Node000001"><a xlink:title="Base interface for an instance of a property.">
<polygon fill="#999999" stroke="#666666" points="100,-74.5 0,-74.5 0,-55.25 100,-55.25 100,-74.5"/>
<text text-anchor="middle" x="50" y="-61" font-family="Helvetica,sans-Serif" font-size="10.00">Ogre::PropertyBase</text>
</a>
</g>
</g>
<!-- Node3 -->
<g id="Node000003" class="node">
<title>Node3</title>
<g id="a_Node000003"><a xlink:href="class_ogre_1_1_property.html" target="_top" xlink:title="Property instance with passthrough calls to a given object.">
<polygon fill="white" stroke="#666666" points="100,-19.25 0,-19.25 0,0 100,0 100,-19.25"/>
<text text-anchor="middle" x="50" y="-5.75" font-family="Helvetica,sans-Serif" font-size="10.00">Ogre::Property&lt; T &gt;</text>
</a>
</g>
</g>
<!-- Node1&#45;&gt;Node3 -->
<g id="edge2_Node000001_Node000003" class="edge">
<title>Node1&#45;&gt;Node3</title>
<g id="a_edge2_Node000001_Node000003"><a xlink:title=" ">
<path fill="none" stroke="#63b8ff" d="M50,-43.63C50,-35.34 50,-26.17 50,-19.61"/>
<polygon fill="#63b8ff" stroke="#63b8ff" points="46.5,-43.57 50,-53.57 53.5,-43.57 46.5,-43.57"/>
</a>
</g>
</g>
<!-- Node2 -->
<g id="Node000002" class="node">
<title>Node2</title>
<g id="a_Node000002"><a xlink:href="class_ogre_1_1_allocated_object.html" target="_top" xlink:title="Superclass for all objects that wish to use custom memory allocators when their new / delete operator...">
<polygon fill="white" stroke="#666666" points="86.88,-129.75 13.12,-129.75 13.12,-110.5 86.88,-110.5 86.88,-129.75"/>
<text text-anchor="middle" x="50" y="-116.25" font-family="Helvetica,sans-Serif" font-size="10.00">PropertyAlloc</text>
</a>
</g>
</g>
<!-- Node2&#45;&gt;Node1 -->
<g id="edge1_Node000001_Node000002" class="edge">
<title>Node2&#45;&gt;Node1</title>
<g id="a_edge1_Node000001_Node000002"><a xlink:title=" ">
<path fill="none" stroke="#63b8ff" d="M50,-98.88C50,-90.59 50,-81.42 50,-74.86"/>
<polygon fill="#63b8ff" stroke="#63b8ff" points="46.5,-98.82 50,-108.82 53.5,-98.82 46.5,-98.82"/>
</a>
</g>
</g>
</g>
</svg>
