<?xml version="1.0" encoding="UTF-8" standalone="no"?>
<!DOCTYPE svg PUBLIC "-//W3C//DTD SVG 1.1//EN"
 "http://www.w3.org/Graphics/SVG/1.1/DTD/svg11.dtd">
<!-- Generated by graphviz version 7.0.5 (20221223.1930)
 -->
<!-- Title: Ogre::v1::MeshSerializerImpl_v1_41 Pages: 1 -->
<svg width="148pt" height="544pt"
 viewBox="0.00 0.00 148.00 544.00" xmlns="http://www.w3.org/2000/svg" xmlns:xlink="http://www.w3.org/1999/xlink">
<g id="graph0" class="graph" transform="scale(1 1) rotate(0) translate(4 540)">
<title>Ogre::v1::MeshSerializerImpl_v1_41</title>
<!-- Node1 -->
<g id="node1" class="node">
<title>Node1</title>
<g id="a_node1"><a xlink:title="Class for providing backwards&#45;compatibility for loading version 1.41 of the .mesh format.">
<polygon fill="#999999" stroke="#666666" points="130.5,-294 9.5,-294 9.5,-264 130.5,-264 130.5,-294"/>
<text text-anchor="start" x="17.5" y="-282" font-family="Helvetica,sans-Serif" font-size="10.00">Ogre::v1::MeshSerializer</text>
<text text-anchor="middle" x="70" y="-271" font-family="Helvetica,sans-Serif" font-size="10.00">Impl_v1_41</text>
</a>
</g>
</g>
<!-- Node7 -->
<g id="node6" class="node">
<title>Node7</title>
<g id="a_node6"><a xlink:href="class_ogre_1_1v1_1_1_mesh_serializer_impl__v1__4.html" target="_top" xlink:title="Class for providing backwards&#45;compatibility for loading version 1.4 of the .mesh format.">
<polygon fill="white" stroke="#666666" points="130.5,-228 9.5,-228 9.5,-198 130.5,-198 130.5,-228"/>
<text text-anchor="start" x="17.5" y="-216" font-family="Helvetica,sans-Serif" font-size="10.00">Ogre::v1::MeshSerializer</text>
<text text-anchor="middle" x="70" y="-205" font-family="Helvetica,sans-Serif" font-size="10.00">Impl_v1_4</text>
</a>
</g>
</g>
<!-- Node1&#45;&gt;Node7 -->
<g id="edge5" class="edge">
<title>Node1&#45;&gt;Node7</title>
<path fill="none" stroke="#63b8ff" d="M70,-252.39C70,-244.13 70,-235.28 70,-228.16"/>
<polygon fill="#63b8ff" stroke="#63b8ff" points="66.5,-252.28 70,-262.28 73.5,-252.28 66.5,-252.28"/>
</g>
<!-- Node2 -->
<g id="node2" class="node">
<title>Node2</title>
<g id="a_node2"><a xlink:href="class_ogre_1_1v1_1_1_mesh_serializer_impl__v1__8.html" target="_top" xlink:title="Class for providing backwards&#45;compatibility for loading version 1.8 of the .mesh format.">
<polygon fill="white" stroke="#666666" points="130.5,-360 9.5,-360 9.5,-330 130.5,-330 130.5,-360"/>
<text text-anchor="start" x="17.5" y="-348" font-family="Helvetica,sans-Serif" font-size="10.00">Ogre::v1::MeshSerializer</text>
<text text-anchor="middle" x="70" y="-337" font-family="Helvetica,sans-Serif" font-size="10.00">Impl_v1_8</text>
</a>
</g>
</g>
<!-- Node2&#45;&gt;Node1 -->
<g id="edge1" class="edge">
<title>Node2&#45;&gt;Node1</title>
<path fill="none" stroke="#63b8ff" d="M70,-318.39C70,-310.13 70,-301.28 70,-294.16"/>
<polygon fill="#63b8ff" stroke="#63b8ff" points="66.5,-318.28 70,-328.28 73.5,-318.28 66.5,-318.28"/>
</g>
<!-- Node3 -->
<g id="node3" class="node">
<title>Node3</title>
<g id="a_node3"><a xlink:href="class_ogre_1_1v1_1_1_mesh_serializer_impl__v1__10.html" target="_top" xlink:title="Class for providing backwards&#45;compatibility for loading version 1.10 of the .mesh format.">
<polygon fill="white" stroke="#666666" points="130.5,-426 9.5,-426 9.5,-396 130.5,-396 130.5,-426"/>
<text text-anchor="start" x="17.5" y="-414" font-family="Helvetica,sans-Serif" font-size="10.00">Ogre::v1::MeshSerializer</text>
<text text-anchor="middle" x="70" y="-403" font-family="Helvetica,sans-Serif" font-size="10.00">Impl_v1_10</text>
</a>
</g>
</g>
<!-- Node3&#45;&gt;Node2 -->
<g id="edge2" class="edge">
<title>Node3&#45;&gt;Node2</title>
<path fill="none" stroke="#63b8ff" d="M70,-384.39C70,-376.13 70,-367.28 70,-360.16"/>
<polygon fill="#63b8ff" stroke="#63b8ff" points="66.5,-384.28 70,-394.28 73.5,-384.28 66.5,-384.28"/>
</g>
<!-- Node4 -->
<g id="node4" class="node">
<title>Node4</title>
<g id="a_node4"><a xlink:href="class_ogre_1_1v1_1_1_mesh_serializer_impl.html" target="_top" xlink:title="Internal implementation of Mesh reading / writing for the latest version of the .mesh format.">
<polygon fill="white" stroke="#666666" points="140,-481 0,-481 0,-462 140,-462 140,-481"/>
<text text-anchor="middle" x="70" y="-469" font-family="Helvetica,sans-Serif" font-size="10.00">Ogre::v1::MeshSerializerImpl</text>
</a>
</g>
</g>
<!-- Node4&#45;&gt;Node3 -->
<g id="edge3" class="edge">
<title>Node4&#45;&gt;Node3</title>
<path fill="none" stroke="#63b8ff" d="M70,-450.51C70,-442.49 70,-433.43 70,-426.11"/>
<polygon fill="#63b8ff" stroke="#63b8ff" points="66.5,-450.35 70,-460.35 73.5,-450.35 66.5,-450.35"/>
</g>
<!-- Node5 -->
<g id="node5" class="node">
<title>Node5</title>
<g id="a_node5"><a xlink:href="class_ogre_1_1_serializer.html" target="_top" xlink:title="Generic class for serialising data to / from binary stream&#45;based files.">
<polygon fill="#fff0f0" stroke="red" points="111,-536 29,-536 29,-517 111,-517 111,-536"/>
<text text-anchor="middle" x="70" y="-524" font-family="Helvetica,sans-Serif" font-size="10.00">Ogre::Serializer</text>
</a>
</g>
</g>
<!-- Node5&#45;&gt;Node4 -->
<g id="edge4" class="edge">
<title>Node5&#45;&gt;Node4</title>
<path fill="none" stroke="#63b8ff" d="M70,-505.35C70,-497.1 70,-487.97 70,-481.44"/>
<polygon fill="#63b8ff" stroke="#63b8ff" points="66.5,-505.23 70,-515.23 73.5,-505.23 66.5,-505.23"/>
</g>
<!-- Node8 -->
<g id="node7" class="node">
<title>Node8</title>
<g id="a_node7"><a xlink:href="class_ogre_1_1v1_1_1_mesh_serializer_impl__v1__3.html" target="_top" xlink:title="Class for providing backwards&#45;compatibility for loading version 1.3 of the .mesh format.">
<polygon fill="white" stroke="#666666" points="130.5,-162 9.5,-162 9.5,-132 130.5,-132 130.5,-162"/>
<text text-anchor="start" x="17.5" y="-150" font-family="Helvetica,sans-Serif" font-size="10.00">Ogre::v1::MeshSerializer</text>
<text text-anchor="middle" x="70" y="-139" font-family="Helvetica,sans-Serif" font-size="10.00">Impl_v1_3</text>
</a>
</g>
</g>
<!-- Node7&#45;&gt;Node8 -->
<g id="edge6" class="edge">
<title>Node7&#45;&gt;Node8</title>
<path fill="none" stroke="#63b8ff" d="M70,-186.39C70,-178.13 70,-169.28 70,-162.16"/>
<polygon fill="#63b8ff" stroke="#63b8ff" points="66.5,-186.28 70,-196.28 73.5,-186.28 66.5,-186.28"/>
</g>
<!-- Node9 -->
<g id="node8" class="node">
<title>Node9</title>
<g id="a_node8"><a xlink:href="class_ogre_1_1v1_1_1_mesh_serializer_impl__v1__2.html" target="_top" xlink:title="Class for providing backwards&#45;compatibility for loading version 1.2 of the .mesh format.">
<polygon fill="white" stroke="#666666" points="130.5,-96 9.5,-96 9.5,-66 130.5,-66 130.5,-96"/>
<text text-anchor="start" x="17.5" y="-84" font-family="Helvetica,sans-Serif" font-size="10.00">Ogre::v1::MeshSerializer</text>
<text text-anchor="middle" x="70" y="-73" font-family="Helvetica,sans-Serif" font-size="10.00">Impl_v1_2</text>
</a>
</g>
</g>
<!-- Node8&#45;&gt;Node9 -->
<g id="edge7" class="edge">
<title>Node8&#45;&gt;Node9</title>
<path fill="none" stroke="#63b8ff" d="M70,-120.39C70,-112.13 70,-103.28 70,-96.16"/>
<polygon fill="#63b8ff" stroke="#63b8ff" points="66.5,-120.28 70,-130.28 73.5,-120.28 66.5,-120.28"/>
</g>
<!-- Node10 -->
<g id="node9" class="node">
<title>Node10</title>
<g id="a_node9"><a xlink:href="class_ogre_1_1v1_1_1_mesh_serializer_impl__v1__1.html" target="_top" xlink:title="Class for providing backwards&#45;compatibility for loading version 1.1 of the .mesh format.">
<polygon fill="white" stroke="#666666" points="130.5,-30 9.5,-30 9.5,0 130.5,0 130.5,-30"/>
<text text-anchor="start" x="17.5" y="-18" font-family="Helvetica,sans-Serif" font-size="10.00">Ogre::v1::MeshSerializer</text>
<text text-anchor="middle" x="70" y="-7" font-family="Helvetica,sans-Serif" font-size="10.00">Impl_v1_1</text>
</a>
</g>
</g>
<!-- Node9&#45;&gt;Node10 -->
<g id="edge8" class="edge">
<title>Node9&#45;&gt;Node10</title>
<path fill="none" stroke="#63b8ff" d="M70,-54.39C70,-46.13 70,-37.28 70,-30.16"/>
<polygon fill="#63b8ff" stroke="#63b8ff" points="66.5,-54.28 70,-64.28 73.5,-54.28 66.5,-54.28"/>
</g>
</g>
</svg>
