<?xml version="1.0" encoding="UTF-8" standalone="no"?>
<!DOCTYPE svg PUBLIC "-//W3C//DTD SVG 1.1//EN"
 "http://www.w3.org/Graphics/SVG/1.1/DTD/svg11.dtd">
<!-- Generated by graphviz version 2.44.0 ()
 -->
<!-- Title: Ogre::RTShader::LinearSkinning Pages: 1 -->
<svg width="163pt" height="151pt"
 viewBox="0.00 0.00 163.00 151.00" xmlns="http://www.w3.org/2000/svg" xmlns:xlink="http://www.w3.org/1999/xlink">
<g id="graph0" class="graph" transform="scale(1 1) rotate(0) translate(4 147)">
<title>Ogre::RTShader::LinearSkinning</title>
<!-- Node1 -->
<g id="node1" class="node">
<title>Node1</title>
<g id="a_node1"><a xlink:title="Implement a sub render state which performs hardware skinning.">
<polygon fill="#bfbfbf" stroke="black" points="0,-0.5 0,-19.5 155,-19.5 155,-0.5 0,-0.5"/>
<text text-anchor="middle" x="77.5" y="-7.5" font-family="Helvetica,sans-Serif" font-size="10.00">Ogre::RTShader::LinearSkinning</text>
</a>
</g>
</g>
<!-- Node2 -->
<g id="node2" class="node">
<title>Node2</title>
<g id="a_node2"><a xlink:href="class_ogre_1_1_r_t_shader_1_1_hardware_skinning_technique.html" target="_top" xlink:title="Implement a sub render state which performs hardware skinning.">
<polygon fill="none" stroke="black" points="11.5,-56.5 11.5,-86.5 143.5,-86.5 143.5,-56.5 11.5,-56.5"/>
<text text-anchor="start" x="19.5" y="-74.5" font-family="Helvetica,sans-Serif" font-size="10.00">Ogre::RTShader::Hardware</text>
<text text-anchor="middle" x="77.5" y="-63.5" font-family="Helvetica,sans-Serif" font-size="10.00">SkinningTechnique</text>
</a>
</g>
</g>
<!-- Node2&#45;&gt;Node1 -->
<g id="edge1" class="edge">
<title>Node2&#45;&gt;Node1</title>
<path fill="none" stroke="midnightblue" d="M77.5,-46.29C77.5,-36.86 77.5,-26.65 77.5,-19.66"/>
<polygon fill="midnightblue" stroke="midnightblue" points="74,-46.4 77.5,-56.4 81,-46.4 74,-46.4"/>
</g>
<!-- Node3 -->
<g id="node3" class="node">
<title>Node3</title>
<g id="a_node3"><a xlink:href="class_ogre_1_1_allocated_object.html" target="_top" xlink:title="Superclass for all objects that wish to use custom memory allocators when their new / delete operator...">
<polygon fill="none" stroke="black" points="20,-123.5 20,-142.5 135,-142.5 135,-123.5 20,-123.5"/>
<text text-anchor="middle" x="77.5" y="-130.5" font-family="Helvetica,sans-Serif" font-size="10.00">RTShaderSystemAlloc</text>
</a>
</g>
</g>
<!-- Node3&#45;&gt;Node2 -->
<g id="edge2" class="edge">
<title>Node3&#45;&gt;Node2</title>
<path fill="none" stroke="midnightblue" d="M77.5,-113.23C77.5,-104.59 77.5,-94.5 77.5,-86.52"/>
<polygon fill="midnightblue" stroke="midnightblue" points="74,-113.48 77.5,-123.48 81,-113.48 74,-113.48"/>
</g>
</g>
</svg>
