<?xml version="1.0" encoding="UTF-8" standalone="no"?>
<!DOCTYPE svg PUBLIC "-//W3C//DTD SVG 1.1//EN"
 "http://www.w3.org/Graphics/SVG/1.1/DTD/svg11.dtd">
<!-- Generated by graphviz version 7.0.5 (20221223.1930)
 -->
<!-- Title: Ogre::D3D9GpuVertexProgram Pages: 1 -->
<svg width="290pt" height="247pt"
 viewBox="0.00 0.00 289.50 247.00" xmlns="http://www.w3.org/2000/svg" xmlns:xlink="http://www.w3.org/1999/xlink">
<g id="graph0" class="graph" transform="scale(1 1) rotate(0) translate(4 243)">
<title>Ogre::D3D9GpuVertexProgram</title>
<!-- Node1 -->
<g id="node1" class="node">
<title>Node1</title>
<g id="a_node1"><a xlink:title="Direct3D implementation of low&#45;level vertex programs.">
<polygon fill="#999999" stroke="#666666" points="242.5,-19 93.5,-19 93.5,0 242.5,0 242.5,-19"/>
<text text-anchor="middle" x="168" y="-7" font-family="Helvetica,sans-Serif" font-size="10.00">Ogre::D3D9GpuVertexProgram</text>
</a>
</g>
</g>
<!-- Node2 -->
<g id="node2" class="node">
<title>Node2</title>
<g id="a_node2"><a xlink:href="class_ogre_1_1_d3_d9_gpu_program.html" target="_top" xlink:title="Direct3D implementation of a few things common to low&#45;level vertex &amp; fragment programs.">
<polygon fill="white" stroke="#666666" points="228.5,-74 107.5,-74 107.5,-55 228.5,-55 228.5,-74"/>
<text text-anchor="middle" x="168" y="-62" font-family="Helvetica,sans-Serif" font-size="10.00">Ogre::D3D9GpuProgram</text>
</a>
</g>
</g>
<!-- Node2&#45;&gt;Node1 -->
<g id="edge1" class="edge">
<title>Node2&#45;&gt;Node1</title>
<path fill="none" stroke="#63b8ff" d="M168,-43.35C168,-35.1 168,-25.97 168,-19.44"/>
<polygon fill="#63b8ff" stroke="#63b8ff" points="164.5,-43.23 168,-53.23 171.5,-43.23 164.5,-43.23"/>
</g>
<!-- Node3 -->
<g id="node3" class="node">
<title>Node3</title>
<g id="a_node3"><a xlink:href="class_ogre_1_1_gpu_program.html" target="_top" xlink:title="Defines a program which runs on the GPU such as a vertex or fragment program.">
<polygon fill="white" stroke="#666666" points="156.5,-129 59.5,-129 59.5,-110 156.5,-110 156.5,-129"/>
<text text-anchor="middle" x="108" y="-117" font-family="Helvetica,sans-Serif" font-size="10.00">Ogre::GpuProgram</text>
</a>
</g>
</g>
<!-- Node3&#45;&gt;Node2 -->
<g id="edge2" class="edge">
<title>Node3&#45;&gt;Node2</title>
<path fill="none" stroke="#63b8ff" d="M126.58,-102.09C136.94,-92.94 149.43,-81.9 157.97,-74.36"/>
<polygon fill="#63b8ff" stroke="#63b8ff" points="124.49,-99.26 119.31,-108.51 129.12,-104.51 124.49,-99.26"/>
</g>
<!-- Node4 -->
<g id="node4" class="node">
<title>Node4</title>
<g id="a_node4"><a xlink:href="class_ogre_1_1_resource.html" target="_top" xlink:title="Abstract class representing a loadable resource (e.g.">
<polygon fill="white" stroke="#666666" points="149.5,-184 66.5,-184 66.5,-165 149.5,-165 149.5,-184"/>
<text text-anchor="middle" x="108" y="-172" font-family="Helvetica,sans-Serif" font-size="10.00">Ogre::Resource</text>
</a>
</g>
</g>
<!-- Node4&#45;&gt;Node3 -->
<g id="edge3" class="edge">
<title>Node4&#45;&gt;Node3</title>
<path fill="none" stroke="#63b8ff" d="M108,-153.35C108,-145.1 108,-135.97 108,-129.44"/>
<polygon fill="#63b8ff" stroke="#63b8ff" points="104.5,-153.23 108,-163.23 111.5,-153.23 104.5,-153.23"/>
</g>
<!-- Node5 -->
<g id="node5" class="node">
<title>Node5</title>
<g id="a_node5"><a xlink:href="class_ogre_1_1_string_interface.html" target="_top" xlink:title="Class defining the common interface which classes can use to present a reflection&#45;style,...">
<polygon fill="white" stroke="#666666" points="106,-239 0,-239 0,-220 106,-220 106,-239"/>
<text text-anchor="middle" x="53" y="-227" font-family="Helvetica,sans-Serif" font-size="10.00">Ogre::StringInterface</text>
</a>
</g>
</g>
<!-- Node5&#45;&gt;Node4 -->
<g id="edge4" class="edge">
<title>Node5&#45;&gt;Node4</title>
<path fill="none" stroke="#63b8ff" d="M70.35,-211.78C79.75,-202.72 90.98,-191.9 98.72,-184.44"/>
<polygon fill="#63b8ff" stroke="#63b8ff" points="67.94,-209.24 63.17,-218.7 72.8,-214.28 67.94,-209.24"/>
</g>
<!-- Node6 -->
<g id="node6" class="node">
<title>Node6</title>
<g id="a_node6"><a xlink:href="class_ogre_1_1_allocated_object.html" target="_top" xlink:title="Superclass for all objects that wish to use custom memory allocators when their new / delete operator...">
<polygon fill="white" stroke="#666666" points="204,-239 124,-239 124,-220 204,-220 204,-239"/>
<text text-anchor="middle" x="164" y="-227" font-family="Helvetica,sans-Serif" font-size="10.00">ResourceAlloc</text>
</a>
</g>
</g>
<!-- Node6&#45;&gt;Node4 -->
<g id="edge5" class="edge">
<title>Node6&#45;&gt;Node4</title>
<path fill="none" stroke="#63b8ff" d="M146.37,-211.81C136.76,-202.72 125.25,-191.82 117.36,-184.36"/>
<polygon fill="#63b8ff" stroke="#63b8ff" points="143.73,-214.14 153.4,-218.47 148.54,-209.05 143.73,-214.14"/>
</g>
<!-- Node7 -->
<g id="node7" class="node">
<title>Node7</title>
<g id="a_node7"><a xlink:href="class_ogre_1_1_d3_d9_resource.html" target="_top" xlink:title="Represents a Direct3D rendering resource.">
<polygon fill="white" stroke="#666666" points="281.5,-129 174.5,-129 174.5,-110 281.5,-110 281.5,-129"/>
<text text-anchor="middle" x="228" y="-117" font-family="Helvetica,sans-Serif" font-size="10.00">Ogre::D3D9Resource</text>
</a>
</g>
</g>
<!-- Node7&#45;&gt;Node2 -->
<g id="edge6" class="edge">
<title>Node7&#45;&gt;Node2</title>
<path fill="none" stroke="#63b8ff" d="M209.42,-102.09C199.06,-92.94 186.57,-81.9 178.03,-74.36"/>
<polygon fill="#63b8ff" stroke="#63b8ff" points="206.88,-104.51 216.69,-108.51 211.51,-99.26 206.88,-104.51"/>
</g>
</g>
</svg>
