<?xml version="1.0" encoding="UTF-8" standalone="no"?>
<!DOCTYPE svg PUBLIC "-//W3C//DTD SVG 1.1//EN"
 "http://www.w3.org/Graphics/SVG/1.1/DTD/svg11.dtd">
<!-- Generated by graphviz version 9.0.0 (20230911.1827)
 -->
<!-- Title: Ogre::MultiSourceVertexBufferPool Pages: 1 -->
<svg width="495pt" height="186pt"
 viewBox="0.00 0.00 494.75 185.50" xmlns="http://www.w3.org/2000/svg" xmlns:xlink="http://www.w3.org/1999/xlink">
<g id="graph0" class="graph" transform="scale(1 1) rotate(0) translate(4 181.5)">
<title>Ogre::MultiSourceVertexBufferPool</title>
<!-- Node1 -->
<g id="Node000001" class="node">
<title>Node1</title>
<g id="a_Node000001"><a xlink:title="Vertex Array Objects do not need to change when: The same (internal) vertex buffer is still bound.">
<polygon fill="#999999" stroke="#666666" points="298.25,-97.88 132.25,-97.88 132.25,-78.62 298.25,-78.62 298.25,-97.88"/>
<text text-anchor="middle" x="215.25" y="-84.38" font-family="Helvetica,sans-Serif" font-size="10.00">Ogre::MultiSourceVertexBufferPool</text>
</a>
</g>
</g>
<!-- Node3 -->
<g id="Node000003" class="node">
<title>Node3</title>
<g id="a_Node000003"><a xlink:href="class_ogre_1_1_g_l3_plus_multi_source_vertex_buffer_pool.html" target="_top" xlink:title=" ">
<polygon fill="white" stroke="#666666" points="476.25,-177.5 344.75,-177.5 344.75,-147 476.25,-147 476.25,-177.5"/>
<text text-anchor="start" x="352.75" y="-164" font-family="Helvetica,sans-Serif" font-size="10.00">Ogre::GL3PlusMultiSource</text>
<text text-anchor="middle" x="410.5" y="-152.75" font-family="Helvetica,sans-Serif" font-size="10.00">VertexBufferPool</text>
</a>
</g>
</g>
<!-- Node1&#45;&gt;Node3 -->
<g id="edge2_Node000001_Node000003" class="edge">
<title>Node1&#45;&gt;Node3</title>
<g id="a_edge2_Node000001_Node000003"><a xlink:title=" ">
<path fill="none" stroke="#63b8ff" d="M249.57,-102.85C273.06,-112.95 305.37,-126.47 334.25,-137.25 342.76,-140.43 351.89,-143.63 360.74,-146.63"/>
<polygon fill="#63b8ff" stroke="#63b8ff" points="251.07,-99.68 240.51,-98.93 248.29,-106.11 251.07,-99.68"/>
</a>
</g>
</g>
<!-- Node4 -->
<g id="Node000004" class="node">
<title>Node4</title>
<g id="a_Node000004"><a xlink:href="class_ogre_1_1_g_l_e_s2_multi_source_vertex_buffer_pool.html" target="_top" xlink:title=" ">
<polygon fill="white" stroke="#666666" points="486.75,-128.5 334.25,-128.5 334.25,-98 486.75,-98 486.75,-128.5"/>
<text text-anchor="start" x="342.25" y="-115" font-family="Helvetica,sans-Serif" font-size="10.00">Ogre::GLES2MultiSourceVertex</text>
<text text-anchor="middle" x="410.5" y="-103.75" font-family="Helvetica,sans-Serif" font-size="10.00">BufferPool</text>
</a>
</g>
</g>
<!-- Node1&#45;&gt;Node4 -->
<g id="edge3_Node000001_Node000004" class="edge">
<title>Node1&#45;&gt;Node4</title>
<g id="a_edge3_Node000001_Node000004"><a xlink:title=" ">
<path fill="none" stroke="#63b8ff" d="M305.43,-99.79C314.98,-101.02 324.62,-102.27 333.99,-103.48"/>
<polygon fill="#63b8ff" stroke="#63b8ff" points="306.16,-96.35 295.8,-98.54 305.26,-103.29 306.16,-96.35"/>
</a>
</g>
</g>
<!-- Node5 -->
<g id="Node000005" class="node">
<title>Node5</title>
<g id="a_Node000005"><a xlink:href="class_ogre_1_1_metal_multi_source_vertex_buffer_pool.html" target="_top" xlink:title=" ">
<polygon fill="white" stroke="#666666" points="483,-79.5 338,-79.5 338,-49 483,-49 483,-79.5"/>
<text text-anchor="start" x="346" y="-66" font-family="Helvetica,sans-Serif" font-size="10.00">Ogre::MetalMultiSourceVertex</text>
<text text-anchor="middle" x="410.5" y="-54.75" font-family="Helvetica,sans-Serif" font-size="10.00">BufferPool</text>
</a>
</g>
</g>
<!-- Node1&#45;&gt;Node5 -->
<g id="edge4_Node000001_Node000005" class="edge">
<title>Node1&#45;&gt;Node5</title>
<g id="a_edge4_Node000001_Node000005"><a xlink:title=" ">
<path fill="none" stroke="#63b8ff" d="M308.94,-76.74C318.61,-75.54 328.33,-74.33 337.71,-73.17"/>
<polygon fill="#63b8ff" stroke="#63b8ff" points="308.64,-73.25 299.15,-77.95 309.5,-80.2 308.64,-73.25"/>
</a>
</g>
</g>
<!-- Node6 -->
<g id="Node000006" class="node">
<title>Node6</title>
<g id="a_Node000006"><a xlink:href="class_ogre_1_1_n_u_l_l_multi_source_vertex_buffer_pool.html" target="_top" xlink:title=" ">
<polygon fill="white" stroke="#666666" points="484.5,-30.5 336.5,-30.5 336.5,0 484.5,0 484.5,-30.5"/>
<text text-anchor="start" x="344.5" y="-17" font-family="Helvetica,sans-Serif" font-size="10.00">Ogre::NULLMultiSourceVertex</text>
<text text-anchor="middle" x="410.5" y="-5.75" font-family="Helvetica,sans-Serif" font-size="10.00">BufferPool</text>
</a>
</g>
</g>
<!-- Node1&#45;&gt;Node6 -->
<g id="edge5_Node000001_Node000006" class="edge">
<title>Node1&#45;&gt;Node6</title>
<g id="a_edge5_Node000001_Node000006"><a xlink:title=" ">
<path fill="none" stroke="#63b8ff" d="M250.04,-73.82C273.51,-63.96 305.59,-50.83 334.25,-40.25 342.77,-37.1 351.9,-33.92 360.76,-30.92"/>
<polygon fill="#63b8ff" stroke="#63b8ff" points="248.83,-70.53 240.98,-77.64 251.55,-76.98 248.83,-70.53"/>
</a>
</g>
</g>
<!-- Node2 -->
<g id="Node000002" class="node">
<title>Node2</title>
<g id="a_Node000002"><a xlink:href="class_ogre_1_1_allocated_object.html" target="_top" xlink:title="Superclass for all objects that wish to use custom memory allocators when their new / delete operator...">
<polygon fill="white" stroke="#666666" points="96.25,-97.88 0,-97.88 0,-78.62 96.25,-78.62 96.25,-97.88"/>
<text text-anchor="middle" x="48.12" y="-84.38" font-family="Helvetica,sans-Serif" font-size="10.00">BufferPackedAlloc</text>
</a>
</g>
</g>
<!-- Node2&#45;&gt;Node1 -->
<g id="edge1_Node000001_Node000002" class="edge">
<title>Node2&#45;&gt;Node1</title>
<g id="a_edge1_Node000001_Node000002"><a xlink:title=" ">
<path fill="none" stroke="#63b8ff" d="M107.72,-88.25C115.6,-88.25 123.8,-88.25 132,-88.25"/>
<polygon fill="#63b8ff" stroke="#63b8ff" points="107.96,-84.75 97.96,-88.25 107.96,-91.75 107.96,-84.75"/>
</a>
</g>
</g>
</g>
</svg>
