<?xml version="1.0" encoding="UTF-8" standalone="no"?>
<!DOCTYPE svg PUBLIC "-//W3C//DTD SVG 1.1//EN"
 "http://www.w3.org/Graphics/SVG/1.1/DTD/svg11.dtd">
<!-- Generated by graphviz version 9.0.0 (20230911.1827)
 -->
<!-- Title: Ogre::FocusedShadowCameraSetup Pages: 1 -->
<svg width="173pt" height="271pt"
 viewBox="0.00 0.00 172.50 270.75" xmlns="http://www.w3.org/2000/svg" xmlns:xlink="http://www.w3.org/1999/xlink">
<g id="graph0" class="graph" transform="scale(1 1) rotate(0) translate(4 266.75)">
<title>Ogre::FocusedShadowCameraSetup</title>
<!-- Node1 -->
<g id="Node000001" class="node">
<title>Node1</title>
<g id="a_Node000001"><a xlink:title="Implements the uniform shadow mapping algorithm in focused mode.">
<polygon fill="#999999" stroke="#666666" points="156.25,-85.75 8.25,-85.75 8.25,-55.25 156.25,-55.25 156.25,-85.75"/>
<text text-anchor="start" x="16.25" y="-72.25" font-family="Helvetica,sans-Serif" font-size="10.00">Ogre::FocusedShadowCamera</text>
<text text-anchor="middle" x="82.25" y="-61" font-family="Helvetica,sans-Serif" font-size="10.00">Setup</text>
</a>
</g>
</g>
<!-- Node5 -->
<g id="Node000005" class="node">
<title>Node5</title>
<g id="a_Node000005"><a xlink:href="class_ogre_1_1_p_s_s_m_shadow_camera_setup.html" target="_top" xlink:title="Parallel Split Shadow Map (PSSM) shadow camera setup.">
<polygon fill="white" stroke="#666666" points="164.5,-19.25 0,-19.25 0,0 164.5,0 164.5,-19.25"/>
<text text-anchor="middle" x="82.25" y="-5.75" font-family="Helvetica,sans-Serif" font-size="10.00">Ogre::PSSMShadowCameraSetup</text>
</a>
</g>
</g>
<!-- Node1&#45;&gt;Node5 -->
<g id="edge4_Node000001_Node000005" class="edge">
<title>Node1&#45;&gt;Node5</title>
<g id="a_edge4_Node000001_Node000005"><a xlink:title=" ">
<path fill="none" stroke="#63b8ff" d="M82.25,-43.48C82.25,-34.98 82.25,-26.09 82.25,-19.7"/>
<polygon fill="#63b8ff" stroke="#63b8ff" points="78.75,-43.43 82.25,-53.43 85.75,-43.43 78.75,-43.43"/>
</a>
</g>
</g>
<!-- Node2 -->
<g id="Node000002" class="node">
<title>Node2</title>
<g id="a_Node000002"><a xlink:href="class_ogre_1_1_default_shadow_camera_setup.html" target="_top" xlink:title="Implements default shadow camera setup.">
<polygon fill="white" stroke="#666666" points="152.88,-152.25 11.62,-152.25 11.62,-121.75 152.88,-121.75 152.88,-152.25"/>
<text text-anchor="start" x="19.62" y="-138.75" font-family="Helvetica,sans-Serif" font-size="10.00">Ogre::DefaultShadowCamera</text>
<text text-anchor="middle" x="82.25" y="-127.5" font-family="Helvetica,sans-Serif" font-size="10.00">Setup</text>
</a>
</g>
</g>
<!-- Node2&#45;&gt;Node1 -->
<g id="edge1_Node000001_Node000002" class="edge">
<title>Node2&#45;&gt;Node1</title>
<g id="a_edge1_Node000001_Node000002"><a xlink:title=" ">
<path fill="none" stroke="#63b8ff" d="M82.25,-110.06C82.25,-101.89 82.25,-93.16 82.25,-86.08"/>
<polygon fill="#63b8ff" stroke="#63b8ff" points="78.75,-109.85 82.25,-119.85 85.75,-109.85 78.75,-109.85"/>
</a>
</g>
</g>
<!-- Node3 -->
<g id="Node000003" class="node">
<title>Node3</title>
<g id="a_Node000003"><a xlink:href="class_ogre_1_1_shadow_camera_setup.html" target="_top" xlink:title="This class allows you to plug in new ways to define the camera setup when rendering and projecting sh...">
<polygon fill="white" stroke="#666666" points="150.25,-207.5 14.25,-207.5 14.25,-188.25 150.25,-188.25 150.25,-207.5"/>
<text text-anchor="middle" x="82.25" y="-194" font-family="Helvetica,sans-Serif" font-size="10.00">Ogre::ShadowCameraSetup</text>
</a>
</g>
</g>
<!-- Node3&#45;&gt;Node2 -->
<g id="edge2_Node000002_Node000003" class="edge">
<title>Node3&#45;&gt;Node2</title>
<g id="a_edge2_Node000002_Node000003"><a xlink:title=" ">
<path fill="none" stroke="#63b8ff" d="M82.25,-176.67C82.25,-168.74 82.25,-159.81 82.25,-152.53"/>
<polygon fill="#63b8ff" stroke="#63b8ff" points="78.75,-176.42 82.25,-186.42 85.75,-176.42 78.75,-176.42"/>
</a>
</g>
</g>
<!-- Node4 -->
<g id="Node000004" class="node">
<title>Node4</title>
<g id="a_Node000004"><a xlink:href="class_ogre_1_1_allocated_object.html" target="_top" xlink:title="Superclass for all objects that wish to use custom memory allocators when their new / delete operator...">
<polygon fill="white" stroke="#666666" points="128.88,-262.75 35.62,-262.75 35.62,-243.5 128.88,-243.5 128.88,-262.75"/>
<text text-anchor="middle" x="82.25" y="-249.25" font-family="Helvetica,sans-Serif" font-size="10.00">ShadowDataAlloc</text>
</a>
</g>
</g>
<!-- Node4&#45;&gt;Node3 -->
<g id="edge3_Node000003_Node000004" class="edge">
<title>Node4&#45;&gt;Node3</title>
<g id="a_edge3_Node000003_Node000004"><a xlink:title=" ">
<path fill="none" stroke="#63b8ff" d="M82.25,-231.88C82.25,-223.59 82.25,-214.42 82.25,-207.86"/>
<polygon fill="#63b8ff" stroke="#63b8ff" points="78.75,-231.82 82.25,-241.82 85.75,-231.82 78.75,-231.82"/>
</a>
</g>
</g>
</g>
</svg>
