<?xml version="1.0" encoding="UTF-8" standalone="no"?>
<!DOCTYPE svg PUBLIC "-//W3C//DTD SVG 1.1//EN"
 "http://www.w3.org/Graphics/SVG/1.1/DTD/svg11.dtd">
<!-- Generated by graphviz version 9.0.0 (20230911.1827)
 -->
<!-- Title: Ogre::Window Pages: 1 -->
<svg width="554pt" height="298pt"
 viewBox="0.00 0.00 553.50 297.88" xmlns="http://www.w3.org/2000/svg" xmlns:xlink="http://www.w3.org/1999/xlink">
<g id="graph0" class="graph" transform="scale(1 1) rotate(0) translate(4 293.88)">
<title>Ogre::Window</title>
<!-- Node1 -->
<g id="Node000001" class="node">
<title>Node1</title>
<g id="a_Node000001"><a xlink:title=" ">
<polygon fill="#999999" stroke="#666666" points="197,-148.25 121,-148.25 121,-129 197,-129 197,-148.25"/>
<text text-anchor="middle" x="159" y="-134.75" font-family="Helvetica,sans-Serif" font-size="10.00">Ogre::Window</text>
</a>
</g>
</g>
<!-- Node3 -->
<g id="Node000003" class="node">
<title>Node3</title>
<g id="a_Node000003"><a xlink:href="class_ogre_1_1_cocoa_window.html" target="_top" xlink:title=" ">
<polygon fill="white" stroke="#666666" points="345.75,-278.25 242,-278.25 242,-259 345.75,-259 345.75,-278.25"/>
<text text-anchor="middle" x="293.88" y="-264.75" font-family="Helvetica,sans-Serif" font-size="10.00">Ogre::CocoaWindow</text>
</a>
</g>
</g>
<!-- Node1&#45;&gt;Node3 -->
<g id="edge2_Node000001_Node000003" class="edge">
<title>Node1&#45;&gt;Node3</title>
<g id="a_edge2_Node000001_Node000003"><a xlink:title=" ">
<path fill="none" stroke="#63b8ff" d="M168.14,-159.25C179.13,-184.47 201.08,-226.73 233,-250.62 237.26,-253.81 242.08,-256.44 247.09,-258.6"/>
<polygon fill="#63b8ff" stroke="#63b8ff" points="171.4,-157.98 164.33,-150.09 164.94,-160.67 171.4,-157.98"/>
</a>
</g>
</g>
<!-- Node4 -->
<g id="Node000004" class="node">
<title>Node4</title>
<g id="a_Node000004"><a xlink:href="class_ogre_1_1_d3_d11_window.html" target="_top" xlink:title=" ">
<polygon fill="white" stroke="#666666" points="346.5,-241.25 241.25,-241.25 241.25,-222 346.5,-222 346.5,-241.25"/>
<text text-anchor="middle" x="293.88" y="-227.75" font-family="Helvetica,sans-Serif" font-size="10.00">Ogre::D3D11Window</text>
</a>
</g>
</g>
<!-- Node1&#45;&gt;Node4 -->
<g id="edge3_Node000001_Node000004" class="edge">
<title>Node1&#45;&gt;Node4</title>
<g id="a_edge3_Node000001_Node000004"><a xlink:title=" ">
<path fill="none" stroke="#63b8ff" d="M173.97,-157.73C187.34,-174.71 208.98,-199.05 233,-213.62 238.2,-216.78 243.98,-219.41 249.86,-221.61"/>
<polygon fill="#63b8ff" stroke="#63b8ff" points="176.86,-155.75 168.02,-149.91 171.29,-159.99 176.86,-155.75"/>
</a>
</g>
</g>
<!-- Node6 -->
<g id="Node000006" class="node">
<title>Node6</title>
<g id="a_Node000006"><a xlink:href="class_ogre_1_1_e_g_l_window.html" target="_top" xlink:title=" ">
<polygon fill="white" stroke="#666666" points="341.62,-204.25 246.12,-204.25 246.12,-185 341.62,-185 341.62,-204.25"/>
<text text-anchor="middle" x="293.88" y="-190.75" font-family="Helvetica,sans-Serif" font-size="10.00">Ogre::EGLWindow</text>
</a>
</g>
</g>
<!-- Node1&#45;&gt;Node6 -->
<g id="edge5_Node000001_Node000006" class="edge">
<title>Node1&#45;&gt;Node6</title>
<g id="a_edge5_Node000001_Node000006"><a xlink:title=" ">
<path fill="none" stroke="#63b8ff" d="M186.63,-154.03C200.22,-161.49 217.18,-170.2 233,-176.62 240.14,-179.53 247.92,-182.2 255.45,-184.56"/>
<polygon fill="#63b8ff" stroke="#63b8ff" points="188.73,-151.19 178.29,-149.36 185.31,-157.3 188.73,-151.19"/>
</a>
</g>
</g>
<!-- Node11 -->
<g id="Node000011" class="node">
<title>Node11</title>
<g id="a_Node000011"><a xlink:href="class_ogre_1_1_egl_p_buffer_window.html" target="_top" xlink:title="PBuffer implementation of EGL When supported, PBuffer is a surface&#45;less implementation of OpenGL.">
<polygon fill="white" stroke="#666666" points="354.75,-167.25 233,-167.25 233,-148 354.75,-148 354.75,-167.25"/>
<text text-anchor="middle" x="293.88" y="-153.75" font-family="Helvetica,sans-Serif" font-size="10.00">Ogre::EglPBufferWindow</text>
</a>
</g>
</g>
<!-- Node1&#45;&gt;Node11 -->
<g id="edge10_Node000001_Node000011" class="edge">
<title>Node1&#45;&gt;Node11</title>
<g id="a_edge10_Node000001_Node000011"><a xlink:title=" ">
<path fill="none" stroke="#63b8ff" d="M208.54,-145.57C216.38,-146.69 224.58,-147.86 232.66,-149.01"/>
<polygon fill="#63b8ff" stroke="#63b8ff" points="209.26,-142.13 198.87,-144.18 208.27,-149.06 209.26,-142.13"/>
</a>
</g>
</g>
<!-- Node12 -->
<g id="Node000012" class="node">
<title>Node12</title>
<g id="a_Node000012"><a xlink:href="class_ogre_1_1_g_l_x_window.html" target="_top" xlink:title=" ">
<polygon fill="white" stroke="#666666" points="342,-130.25 245.75,-130.25 245.75,-111 342,-111 342,-130.25"/>
<text text-anchor="middle" x="293.88" y="-116.75" font-family="Helvetica,sans-Serif" font-size="10.00">Ogre::GLXWindow</text>
</a>
</g>
</g>
<!-- Node1&#45;&gt;Node12 -->
<g id="edge11_Node000001_Node000012" class="edge">
<title>Node1&#45;&gt;Node12</title>
<g id="a_edge11_Node000001_Node000012"><a xlink:title=" ">
<path fill="none" stroke="#63b8ff" d="M208.56,-132.05C220.56,-130.42 233.4,-128.68 245.35,-127.06"/>
<polygon fill="#63b8ff" stroke="#63b8ff" points="208.31,-128.55 198.87,-133.36 209.25,-135.49 208.31,-128.55"/>
</a>
</g>
</g>
<!-- Node13 -->
<g id="Node000013" class="node">
<title>Node13</title>
<g id="a_Node000013"><a xlink:href="class_ogre_1_1_metal_window.html" target="_top" xlink:title=" ">
<polygon fill="white" stroke="#666666" points="343.88,-93.25 243.88,-93.25 243.88,-74 343.88,-74 343.88,-93.25"/>
<text text-anchor="middle" x="293.88" y="-79.75" font-family="Helvetica,sans-Serif" font-size="10.00">Ogre::MetalWindow</text>
</a>
</g>
</g>
<!-- Node1&#45;&gt;Node13 -->
<g id="edge12_Node000001_Node000013" class="edge">
<title>Node1&#45;&gt;Node13</title>
<g id="a_edge12_Node000001_Node000013"><a xlink:title=" ">
<path fill="none" stroke="#63b8ff" d="M187.62,-123.17C201.05,-116.03 217.59,-107.79 233,-101.62 240.26,-98.72 248.17,-96.03 255.79,-93.66"/>
<polygon fill="#63b8ff" stroke="#63b8ff" points="186.05,-120.04 178.92,-127.88 189.38,-126.19 186.05,-120.04"/>
</a>
</g>
</g>
<!-- Node14 -->
<g id="Node000014" class="node">
<title>Node14</title>
<g id="a_Node000014"><a xlink:href="class_ogre_1_1_n_u_l_l_window.html" target="_top" xlink:title=" ">
<polygon fill="white" stroke="#666666" points="345.38,-56.25 242.38,-56.25 242.38,-37 345.38,-37 345.38,-56.25"/>
<text text-anchor="middle" x="293.88" y="-42.75" font-family="Helvetica,sans-Serif" font-size="10.00">Ogre::NULLWindow</text>
</a>
</g>
</g>
<!-- Node1&#45;&gt;Node14 -->
<g id="edge13_Node000001_Node000014" class="edge">
<title>Node1&#45;&gt;Node14</title>
<g id="a_edge13_Node000001_Node000014"><a xlink:title=" ">
<path fill="none" stroke="#63b8ff" d="M174.02,-119.78C187.43,-103.03 209.09,-79.02 233,-64.62 238.21,-61.49 244,-58.86 249.88,-56.68"/>
<polygon fill="#63b8ff" stroke="#63b8ff" points="171.42,-117.44 168.06,-127.48 176.95,-121.72 171.42,-117.44"/>
</a>
</g>
</g>
<!-- Node15 -->
<g id="Node000015" class="node">
<title>Node15</title>
<g id="a_Node000015"><a xlink:href="class_ogre_1_1_win32_window.html" target="_top" xlink:title=" ">
<polygon fill="white" stroke="#666666" points="345.38,-19.25 242.38,-19.25 242.38,0 345.38,0 345.38,-19.25"/>
<text text-anchor="middle" x="293.88" y="-5.75" font-family="Helvetica,sans-Serif" font-size="10.00">Ogre::Win32Window</text>
</a>
</g>
</g>
<!-- Node1&#45;&gt;Node15 -->
<g id="edge14_Node000001_Node000015" class="edge">
<title>Node1&#45;&gt;Node15</title>
<g id="a_edge14_Node000001_Node000015"><a xlink:title=" ">
<path fill="none" stroke="#63b8ff" d="M168.19,-118.18C179.23,-93.19 201.23,-51.31 233,-27.62 237.26,-24.45 242.09,-21.83 247.11,-19.66"/>
<polygon fill="#63b8ff" stroke="#63b8ff" points="165.02,-116.68 164.36,-127.25 171.47,-119.4 165.02,-116.68"/>
</a>
</g>
</g>
<!-- Node2 -->
<g id="Node000002" class="node">
<title>Node2</title>
<g id="a_Node000002"><a xlink:href="class_ogre_1_1_allocated_object.html" target="_top" xlink:title="Superclass for all objects that wish to use custom memory allocators when their new / delete operator...">
<polygon fill="white" stroke="#666666" points="85,-148.25 0,-148.25 0,-129 85,-129 85,-148.25"/>
<text text-anchor="middle" x="42.5" y="-134.75" font-family="Helvetica,sans-Serif" font-size="10.00">RenderSysAlloc</text>
</a>
</g>
</g>
<!-- Node2&#45;&gt;Node1 -->
<g id="edge1_Node000001_Node000002" class="edge">
<title>Node2&#45;&gt;Node1</title>
<g id="a_edge1_Node000001_Node000002"><a xlink:title=" ">
<path fill="none" stroke="#63b8ff" d="M96.73,-138.62C104.78,-138.62 112.94,-138.62 120.56,-138.62"/>
<polygon fill="#63b8ff" stroke="#63b8ff" points="97,-135.13 87,-138.63 97,-142.13 97,-135.13"/>
</a>
</g>
</g>
<!-- Node5 -->
<g id="Node000005" class="node">
<title>Node5</title>
<g id="a_Node000005"><a xlink:href="class_ogre_1_1_d3_d11_window_swap_chain_based.html" target="_top" xlink:title=" ">
<polygon fill="white" stroke="#666666" points="545.5,-289.88 390.75,-289.88 390.75,-259.38 545.5,-259.38 545.5,-289.88"/>
<text text-anchor="start" x="398.75" y="-276.38" font-family="Helvetica,sans-Serif" font-size="10.00">Ogre::D3D11WindowSwapChain</text>
<text text-anchor="middle" x="468.12" y="-265.12" font-family="Helvetica,sans-Serif" font-size="10.00">Based</text>
</a>
</g>
</g>
<!-- Node4&#45;&gt;Node5 -->
<g id="edge4_Node000004_Node000005" class="edge">
<title>Node4&#45;&gt;Node5</title>
<g id="a_edge4_Node000004_Node000005"><a xlink:title=" ">
<path fill="none" stroke="#63b8ff" d="M346.22,-244.44C364.39,-248.98 385.04,-254.13 404.07,-258.88"/>
<polygon fill="#63b8ff" stroke="#63b8ff" points="347.28,-241.1 336.73,-242.07 345.58,-247.89 347.28,-241.1"/>
</a>
</g>
</g>
<!-- Node7 -->
<g id="Node000007" class="node">
<title>Node7</title>
<g id="a_Node000007"><a xlink:href="class_ogre_1_1_android_e_g_l_window.html" target="_top" xlink:title=" ">
<polygon fill="white" stroke="#666666" points="532.38,-241.25 403.88,-241.25 403.88,-222 532.38,-222 532.38,-241.25"/>
<text text-anchor="middle" x="468.12" y="-227.75" font-family="Helvetica,sans-Serif" font-size="10.00">Ogre::AndroidEGLWindow</text>
</a>
</g>
</g>
<!-- Node6&#45;&gt;Node7 -->
<g id="edge6_Node000006_Node000007" class="edge">
<title>Node6&#45;&gt;Node7</title>
<g id="a_edge6_Node000006_Node000007"><a xlink:title=" ">
<path fill="none" stroke="#63b8ff" d="M353.08,-207.13C374.91,-211.82 399.42,-217.08 420.11,-221.53"/>
<polygon fill="#63b8ff" stroke="#63b8ff" points="353.93,-203.73 343.42,-205.05 352.46,-210.58 353.93,-203.73"/>
</a>
</g>
</g>
<!-- Node8 -->
<g id="Node000008" class="node">
<title>Node8</title>
<g id="a_Node000008"><a xlink:href="class_ogre_1_1_emscripten_e_g_l_window.html" target="_top" xlink:title=" ">
<polygon fill="white" stroke="#666666" points="540.25,-204.25 396,-204.25 396,-185 540.25,-185 540.25,-204.25"/>
<text text-anchor="middle" x="468.12" y="-190.75" font-family="Helvetica,sans-Serif" font-size="10.00">Ogre::EmscriptenEGLWindow</text>
</a>
</g>
</g>
<!-- Node6&#45;&gt;Node8 -->
<g id="edge7_Node000006_Node000008" class="edge">
<title>Node6&#45;&gt;Node8</title>
<g id="a_edge7_Node000006_Node000008"><a xlink:title=" ">
<path fill="none" stroke="#63b8ff" d="M353.11,-194.62C366.74,-194.62 381.41,-194.62 395.54,-194.62"/>
<polygon fill="#63b8ff" stroke="#63b8ff" points="353.46,-191.13 343.46,-194.63 353.46,-198.13 353.46,-191.13"/>
</a>
</g>
</g>
<!-- Node9 -->
<g id="Node000009" class="node">
<title>Node9</title>
<g id="a_Node000009"><a xlink:href="class_ogre_1_1_win32_e_g_l_window.html" target="_top" xlink:title=" ">
<polygon fill="white" stroke="#666666" points="529.38,-167.25 406.88,-167.25 406.88,-148 529.38,-148 529.38,-167.25"/>
<text text-anchor="middle" x="468.12" y="-153.75" font-family="Helvetica,sans-Serif" font-size="10.00">Ogre::Win32EGLWindow</text>
</a>
</g>
</g>
<!-- Node6&#45;&gt;Node9 -->
<g id="edge8_Node000006_Node000009" class="edge">
<title>Node6&#45;&gt;Node9</title>
<g id="a_edge8_Node000006_Node000009"><a xlink:title=" ">
<path fill="none" stroke="#63b8ff" d="M353.08,-182.12C374.91,-177.43 399.42,-172.17 420.11,-167.72"/>
<polygon fill="#63b8ff" stroke="#63b8ff" points="352.46,-178.67 343.42,-184.2 353.93,-185.52 352.46,-178.67"/>
</a>
</g>
</g>
<!-- Node10 -->
<g id="Node000010" class="node">
<title>Node10</title>
<g id="a_Node000010"><a xlink:href="class_ogre_1_1_x11_e_g_l_window.html" target="_top" xlink:title=" ">
<polygon fill="white" stroke="#666666" points="524.5,-130.25 411.75,-130.25 411.75,-111 524.5,-111 524.5,-130.25"/>
<text text-anchor="middle" x="468.12" y="-116.75" font-family="Helvetica,sans-Serif" font-size="10.00">Ogre::X11EGLWindow</text>
</a>
</g>
</g>
<!-- Node6&#45;&gt;Node10 -->
<g id="edge9_Node000006_Node000010" class="edge">
<title>Node6&#45;&gt;Node10</title>
<g id="a_edge9_Node000006_Node000010"><a xlink:title=" ">
<path fill="none" stroke="#63b8ff" d="M348.56,-180.06C350.69,-178.99 352.76,-177.85 354.75,-176.62 374.56,-164.42 370.58,-150.22 390.75,-138.62 397.13,-134.96 404.21,-132.04 411.42,-129.71"/>
<polygon fill="#63b8ff" stroke="#63b8ff" points="347.41,-176.75 339.63,-183.95 350.2,-183.17 347.41,-176.75"/>
</a>
</g>
</g>
</g>
</svg>
