<?xml version="1.0" encoding="UTF-8" standalone="no"?>
<!DOCTYPE svg PUBLIC "-//W3C//DTD SVG 1.1//EN"
 "http://www.w3.org/Graphics/SVG/1.1/DTD/svg11.dtd">
<!-- Generated by graphviz version 7.0.5 (20221223.1930)
 -->
<!-- Title: Ogre::TextureGpuListener Pages: 1 -->
<svg width="541pt" height="436pt"
 viewBox="0.00 0.00 541.00 436.00" xmlns="http://www.w3.org/2000/svg" xmlns:xlink="http://www.w3.org/1999/xlink">
<g id="graph0" class="graph" transform="scale(1 1) rotate(0) translate(4 432)">
<title>Ogre::TextureGpuListener</title>
<!-- Node1 -->
<g id="node1" class="node">
<title>Node1</title>
<g id="a_node1"><a xlink:title=" ">
<polygon fill="#999999" stroke="#666666" points="128,-194 0,-194 0,-175 128,-175 128,-194"/>
<text text-anchor="middle" x="64" y="-182" font-family="Helvetica,sans-Serif" font-size="10.00">Ogre::TextureGpuListener</text>
</a>
</g>
</g>
<!-- Node2 -->
<g id="node2" class="node">
<title>Node2</title>
<g id="a_node2"><a xlink:href="class_ogre_1_1_async_texture_ticket.html" target="_top" xlink:title="In Ogre 2.2 reading data from GPU back to CPU is asynchronous.">
<polygon fill="white" stroke="#666666" points="310.5,-364 182.5,-364 182.5,-345 310.5,-345 310.5,-364"/>
<text text-anchor="middle" x="246.5" y="-352" font-family="Helvetica,sans-Serif" font-size="10.00">Ogre::AsyncTextureTicket</text>
</a>
</g>
</g>
<!-- Node1&#45;&gt;Node2 -->
<g id="edge1" class="edge">
<title>Node1&#45;&gt;Node2</title>
<path fill="none" stroke="#63b8ff" d="M72.33,-204.83C85.35,-237.93 115.8,-303.14 164,-336.5 169.48,-340.29 175.62,-343.3 182.01,-345.69"/>
<polygon fill="#63b8ff" stroke="#63b8ff" points="75.65,-203.74 68.85,-195.62 69.11,-206.21 75.65,-203.74"/>
</g>
<!-- Node7 -->
<g id="node7" class="node">
<title>Node7</title>
<g id="a_node7"><a xlink:href="class_ogre_1_1_compositor_pass_uav.html" target="_top" xlink:title="Implementation of CompositorPass This implementation will set UAVs.">
<polygon fill="white" stroke="#666666" points="312.5,-327 180.5,-327 180.5,-308 312.5,-308 312.5,-327"/>
<text text-anchor="middle" x="246.5" y="-315" font-family="Helvetica,sans-Serif" font-size="10.00">Ogre::CompositorPassUav</text>
</a>
</g>
</g>
<!-- Node1&#45;&gt;Node7 -->
<g id="edge6" class="edge">
<title>Node1&#45;&gt;Node7</title>
<path fill="none" stroke="#63b8ff" d="M76.34,-204.26C92.38,-230.34 124.23,-275.73 164,-299.5 169.47,-302.77 175.47,-305.45 181.65,-307.64"/>
<polygon fill="#63b8ff" stroke="#63b8ff" points="79.35,-202.48 71.23,-195.68 73.34,-206.06 79.35,-202.48"/>
</g>
<!-- Node8 -->
<g id="node8" class="node">
<title>Node8</title>
<g id="a_node8"><a xlink:href="class_ogre_1_1_decal.html" target="_top" xlink:title="Decals can have diffuse, normal map, and emissive on top of regular objects.">
<polygon fill="white" stroke="#666666" points="280,-290 213,-290 213,-271 280,-271 280,-290"/>
<text text-anchor="middle" x="246.5" y="-278" font-family="Helvetica,sans-Serif" font-size="10.00">Ogre::Decal</text>
</a>
</g>
</g>
<!-- Node1&#45;&gt;Node8 -->
<g id="edge7" class="edge">
<title>Node1&#45;&gt;Node8</title>
<path fill="none" stroke="#63b8ff" d="M82.43,-202.33C101,-220.27 132.05,-247.37 164,-262.5 179.19,-269.7 197.35,-274.07 212.67,-276.69"/>
<polygon fill="#63b8ff" stroke="#63b8ff" points="85.02,-199.97 75.45,-195.42 80.1,-204.95 85.02,-199.97"/>
</g>
<!-- Node9 -->
<g id="node9" class="node">
<title>Node9</title>
<g id="a_node9"><a xlink:href="class_ogre_1_1_hlms_compute_job.html" target="_top" xlink:title=" ">
<polygon fill="white" stroke="#666666" points="306.5,-253 186.5,-253 186.5,-234 306.5,-234 306.5,-253"/>
<text text-anchor="middle" x="246.5" y="-241" font-family="Helvetica,sans-Serif" font-size="10.00">Ogre::HlmsComputeJob</text>
</a>
</g>
</g>
<!-- Node1&#45;&gt;Node9 -->
<g id="edge8" class="edge">
<title>Node1&#45;&gt;Node9</title>
<path fill="none" stroke="#63b8ff" d="M96.13,-199.04C115.37,-207.61 140.75,-218.18 164,-225.5 173.54,-228.5 183.85,-231.19 193.84,-233.52"/>
<polygon fill="#63b8ff" stroke="#63b8ff" points="97.78,-195.95 87.22,-195.02 94.89,-202.33 97.78,-195.95"/>
</g>
<!-- Node10 -->
<g id="node10" class="node">
<title>Node10</title>
<g id="a_node10"><a xlink:href="class_ogre_1_1_light.html" target="_top" xlink:title="Representation of a dynamic light source in the scene.">
<polygon fill="white" stroke="#666666" points="278.5,-216 214.5,-216 214.5,-197 278.5,-197 278.5,-216"/>
<text text-anchor="middle" x="246.5" y="-204" font-family="Helvetica,sans-Serif" font-size="10.00">Ogre::Light</text>
</a>
</g>
</g>
<!-- Node1&#45;&gt;Node10 -->
<g id="edge9" class="edge">
<title>Node1&#45;&gt;Node10</title>
<path fill="none" stroke="#63b8ff" d="M139.79,-193.62C165.82,-196.79 193.62,-200.18 214.17,-202.68"/>
<polygon fill="#63b8ff" stroke="#63b8ff" points="140.24,-190.14 129.89,-192.41 139.39,-197.09 140.24,-190.14"/>
</g>
<!-- Node12 -->
<g id="node12" class="node">
<title>Node12</title>
<g id="a_node12"><a xlink:href="class_ogre_1_1_o_g_r_e___h_l_m_s___t_e_x_t_u_r_e___b_a_s_e___c_l_a_s_s.html" target="_top" xlink:title="This is not a regular header, therefore it has no include guards.">
<polygon fill="white" stroke="#666666" points="323.5,-178.5 169.5,-178.5 169.5,-148.5 323.5,-148.5 323.5,-178.5"/>
<text text-anchor="start" x="177.5" y="-166.5" font-family="Helvetica,sans-Serif" font-size="10.00">Ogre::OGRE_HLMS_TEXTURE</text>
<text text-anchor="middle" x="246.5" y="-155.5" font-family="Helvetica,sans-Serif" font-size="10.00">_BASE_CLASS</text>
</a>
</g>
</g>
<!-- Node1&#45;&gt;Node12 -->
<g id="edge11" class="edge">
<title>Node1&#45;&gt;Node12</title>
<path fill="none" stroke="#63b8ff" d="M139.7,-175.81C149.46,-174.67 159.47,-173.51 169.25,-172.37"/>
<polygon fill="#63b8ff" stroke="#63b8ff" points="139.42,-172.32 129.89,-176.95 140.22,-179.27 139.42,-172.32"/>
</g>
<!-- Node13 -->
<g id="node13" class="node">
<title>Node13</title>
<g id="a_node13"><a xlink:href="class_ogre_1_1_texture_gpu_manager.html" target="_top" xlink:title="This class manages all textures (i.e.">
<polygon fill="white" stroke="#666666" points="311.5,-130 181.5,-130 181.5,-111 311.5,-111 311.5,-130"/>
<text text-anchor="middle" x="246.5" y="-118" font-family="Helvetica,sans-Serif" font-size="10.00">Ogre::TextureGpuManager</text>
</a>
</g>
</g>
<!-- Node1&#45;&gt;Node13 -->
<g id="edge12" class="edge">
<title>Node1&#45;&gt;Node13</title>
<path fill="none" stroke="#63b8ff" d="M94.18,-169.39C113.57,-159.81 139.83,-147.72 164,-139.5 174.18,-136.04 185.28,-132.99 195.93,-130.41"/>
<polygon fill="#63b8ff" stroke="#63b8ff" points="92.61,-166.26 85.25,-173.87 95.75,-172.52 92.61,-166.26"/>
</g>
<!-- Node18 -->
<g id="node18" class="node">
<title>Node18</title>
<g id="a_node18"><a xlink:href="class_ogre_1_1_texture_gpu_manager_listener.html" target="_top" xlink:title=" ">
<polygon fill="white" stroke="#666666" points="329,-93 164,-93 164,-74 329,-74 329,-93"/>
<text text-anchor="middle" x="246.5" y="-81" font-family="Helvetica,sans-Serif" font-size="10.00">Ogre::TextureGpuManagerListener</text>
</a>
</g>
</g>
<!-- Node1&#45;&gt;Node18 -->
<g id="edge17" class="edge">
<title>Node1&#45;&gt;Node18</title>
<path fill="none" stroke="#63b8ff" d="M81.71,-166.39C100.08,-147.59 131.35,-118.69 164,-102.5 171.42,-98.82 179.57,-95.84 187.77,-93.42"/>
<polygon fill="#63b8ff" stroke="#63b8ff" points="79.18,-163.97 74.82,-173.62 84.25,-168.8 79.18,-163.97"/>
</g>
<!-- Node20 -->
<g id="node20" class="node">
<title>Node20</title>
<g id="a_node20"><a xlink:href="class_ogre_1_1_texture_unit_state.html" target="_top" xlink:title="Class representing the state of a single texture unit during a Pass of a Technique,...">
<polygon fill="white" stroke="#666666" points="304.5,-56 188.5,-56 188.5,-37 304.5,-37 304.5,-56"/>
<text text-anchor="middle" x="246.5" y="-44" font-family="Helvetica,sans-Serif" font-size="10.00">Ogre::TextureUnitState</text>
</a>
</g>
</g>
<!-- Node1&#45;&gt;Node20 -->
<g id="edge19" class="edge">
<title>Node1&#45;&gt;Node20</title>
<path fill="none" stroke="#63b8ff" d="M75.67,-164.65C91.31,-137.56 123.1,-89.53 164,-64.5 171.42,-59.96 179.83,-56.56 188.37,-54.02"/>
<polygon fill="#63b8ff" stroke="#63b8ff" points="72.71,-162.78 70.88,-173.21 78.82,-166.19 72.71,-162.78"/>
</g>
<!-- Node21 -->
<g id="node21" class="node">
<title>Node21</title>
<g id="a_node21"><a xlink:href="class_ogre_1_1_vct_lighting.html" target="_top" xlink:title=" ">
<polygon fill="white" stroke="#666666" points="292.5,-19 200.5,-19 200.5,0 292.5,0 292.5,-19"/>
<text text-anchor="middle" x="246.5" y="-7" font-family="Helvetica,sans-Serif" font-size="10.00">Ogre::VctLighting</text>
</a>
</g>
</g>
<!-- Node1&#45;&gt;Node21 -->
<g id="edge20" class="edge">
<title>Node1&#45;&gt;Node21</title>
<path fill="none" stroke="#63b8ff" d="M71.78,-164.45C84.33,-130.57 114.48,-62.31 164,-27.5 174.55,-20.08 187.61,-15.65 200.17,-13.02"/>
<polygon fill="#63b8ff" stroke="#63b8ff" points="68.63,-162.86 68.59,-173.46 75.23,-165.21 68.63,-162.86"/>
</g>
<!-- Node3 -->
<g id="node3" class="node">
<title>Node3</title>
<g id="a_node3"><a xlink:href="class_ogre_1_1_d3_d11_async_texture_ticket.html" target="_top" xlink:title="See AsyncTextureTicket.">
<polygon fill="white" stroke="#666666" points="528,-428 370,-428 370,-409 528,-409 528,-428"/>
<text text-anchor="middle" x="449" y="-416" font-family="Helvetica,sans-Serif" font-size="10.00">Ogre::D3D11AsyncTextureTicket</text>
</a>
</g>
</g>
<!-- Node2&#45;&gt;Node3 -->
<g id="edge2" class="edge">
<title>Node2&#45;&gt;Node3</title>
<path fill="none" stroke="#63b8ff" d="M280.93,-368.75C304.21,-378.31 336.13,-390.72 365,-399.5 376.03,-402.86 388.05,-405.93 399.42,-408.59"/>
<polygon fill="#63b8ff" stroke="#63b8ff" points="282.55,-365.63 271.97,-365.03 279.86,-372.09 282.55,-365.63"/>
</g>
<!-- Node4 -->
<g id="node4" class="node">
<title>Node4</title>
<g id="a_node4"><a xlink:href="class_ogre_1_1_g_l3_plus_async_texture_ticket.html" target="_top" xlink:title="See AsyncTextureTicket.">
<polygon fill="white" stroke="#666666" points="519,-390.5 379,-390.5 379,-360.5 519,-360.5 519,-390.5"/>
<text text-anchor="start" x="387" y="-378.5" font-family="Helvetica,sans-Serif" font-size="10.00">Ogre::GL3PlusAsyncTexture</text>
<text text-anchor="middle" x="449" y="-367.5" font-family="Helvetica,sans-Serif" font-size="10.00">Ticket</text>
</a>
</g>
</g>
<!-- Node2&#45;&gt;Node4 -->
<g id="edge3" class="edge">
<title>Node2&#45;&gt;Node4</title>
<path fill="none" stroke="#63b8ff" d="M322.27,-362.33C340.76,-364.27 360.5,-366.34 378.72,-368.24"/>
<polygon fill="#63b8ff" stroke="#63b8ff" points="322.75,-358.86 312.44,-361.3 322.03,-365.82 322.75,-358.86"/>
</g>
<!-- Node5 -->
<g id="node5" class="node">
<title>Node5</title>
<g id="a_node5"><a xlink:href="class_ogre_1_1_metal_async_texture_ticket.html" target="_top" xlink:title="See AsyncTextureTicket.">
<polygon fill="white" stroke="#666666" points="525,-342 373,-342 373,-323 525,-323 525,-342"/>
<text text-anchor="middle" x="449" y="-330" font-family="Helvetica,sans-Serif" font-size="10.00">Ogre::MetalAsyncTextureTicket</text>
</a>
</g>
</g>
<!-- Node2&#45;&gt;Node5 -->
<g id="edge4" class="edge">
<title>Node2&#45;&gt;Node5</title>
<path fill="none" stroke="#63b8ff" d="M322.18,-346.31C338.68,-344.49 356.17,-342.58 372.7,-340.76"/>
<polygon fill="#63b8ff" stroke="#63b8ff" points="322,-342.8 312.44,-347.37 322.77,-349.76 322,-342.8"/>
</g>
<!-- Node6 -->
<g id="node6" class="node">
<title>Node6</title>
<g id="a_node6"><a xlink:href="class_ogre_1_1_n_u_l_l_async_texture_ticket.html" target="_top" xlink:title="See AsyncTextureTicket.">
<polygon fill="white" stroke="#666666" points="526.5,-305 371.5,-305 371.5,-286 526.5,-286 526.5,-305"/>
<text text-anchor="middle" x="449" y="-293" font-family="Helvetica,sans-Serif" font-size="10.00">Ogre::NULLAsyncTextureTicket</text>
</a>
</g>
</g>
<!-- Node2&#45;&gt;Node6 -->
<g id="edge5" class="edge">
<title>Node2&#45;&gt;Node6</title>
<path fill="none" stroke="#63b8ff" d="M314.71,-341.54C319.61,-340.02 324.42,-338.35 329,-336.5 346.39,-329.49 347.63,-321.57 365,-314.5 373.9,-310.88 383.63,-307.87 393.2,-305.39"/>
<polygon fill="#63b8ff" stroke="#63b8ff" points="314.04,-338.09 305.38,-344.19 315.95,-344.82 314.04,-338.09"/>
</g>
<!-- Node11 -->
<g id="node11" class="node">
<title>Node11</title>
<g id="a_node11"><a xlink:href="class_ogre_1_1_p_c_z_light.html" target="_top" xlink:title="Specialized version of Ogre::Light which caches which zones the light affects.">
<polygon fill="white" stroke="#666666" points="490.5,-229 407.5,-229 407.5,-210 490.5,-210 490.5,-229"/>
<text text-anchor="middle" x="449" y="-217" font-family="Helvetica,sans-Serif" font-size="10.00">Ogre::PCZLight</text>
</a>
</g>
</g>
<!-- Node10&#45;&gt;Node11 -->
<g id="edge10" class="edge">
<title>Node10&#45;&gt;Node11</title>
<path fill="none" stroke="#63b8ff" d="M289.98,-209.25C324.56,-211.5 373.06,-214.64 407.18,-216.85"/>
<polygon fill="#63b8ff" stroke="#63b8ff" points="290.54,-205.78 280.34,-208.63 290.09,-212.77 290.54,-205.78"/>
</g>
<!-- Node14 -->
<g id="node14" class="node">
<title>Node14</title>
<g id="a_node14"><a xlink:href="class_ogre_1_1_d3_d11_texture_gpu_manager.html" target="_top" xlink:title=" ">
<polygon fill="white" stroke="#666666" points="528.5,-192 369.5,-192 369.5,-173 528.5,-173 528.5,-192"/>
<text text-anchor="middle" x="449" y="-180" font-family="Helvetica,sans-Serif" font-size="10.00">Ogre::D3D11TextureGpuManager</text>
</a>
</g>
</g>
<!-- Node13&#45;&gt;Node14 -->
<g id="edge13" class="edge">
<title>Node13&#45;&gt;Node14</title>
<path fill="none" stroke="#63b8ff" d="M313.68,-133.66C318.94,-135.39 324.11,-137.33 329,-139.5 346.8,-147.41 347.14,-156.73 365,-164.5 372.44,-167.73 380.51,-170.41 388.6,-172.62"/>
<polygon fill="#63b8ff" stroke="#63b8ff" points="314.83,-130.35 304.24,-130.83 312.82,-137.05 314.83,-130.35"/>
</g>
<!-- Node15 -->
<g id="node15" class="node">
<title>Node15</title>
<g id="a_node15"><a xlink:href="class_ogre_1_1_g_l3_plus_texture_gpu_manager.html" target="_top" xlink:title=" ">
<polygon fill="white" stroke="#666666" points="533,-155 365,-155 365,-136 533,-136 533,-155"/>
<text text-anchor="middle" x="449" y="-143" font-family="Helvetica,sans-Serif" font-size="10.00">Ogre::GL3PlusTextureGpuManager</text>
</a>
</g>
</g>
<!-- Node13&#45;&gt;Node15 -->
<g id="edge14" class="edge">
<title>Node13&#45;&gt;Node15</title>
<path fill="none" stroke="#63b8ff" d="M322.85,-129.9C337.57,-131.73 353.05,-133.66 367.92,-135.51"/>
<polygon fill="#63b8ff" stroke="#63b8ff" points="323.62,-126.46 313.27,-128.7 322.76,-133.41 323.62,-126.46"/>
</g>
<!-- Node16 -->
<g id="node16" class="node">
<title>Node16</title>
<g id="a_node16"><a xlink:href="class_ogre_1_1_metal_texture_gpu_manager.html" target="_top" xlink:title=" ">
<polygon fill="white" stroke="#666666" points="526,-118 372,-118 372,-99 526,-99 526,-118"/>
<text text-anchor="middle" x="449" y="-106" font-family="Helvetica,sans-Serif" font-size="10.00">Ogre::MetalTextureGpuManager</text>
</a>
</g>
</g>
<!-- Node13&#45;&gt;Node16 -->
<g id="edge15" class="edge">
<title>Node13&#45;&gt;Node16</title>
<path fill="none" stroke="#63b8ff" d="M323.18,-115.97C339.1,-115.02 355.91,-114.01 371.85,-113.06"/>
<polygon fill="#63b8ff" stroke="#63b8ff" points="323.05,-112.47 313.28,-116.56 323.47,-119.46 323.05,-112.47"/>
</g>
<!-- Node17 -->
<g id="node17" class="node">
<title>Node17</title>
<g id="a_node17"><a xlink:href="class_ogre_1_1_n_u_l_l_texture_gpu_manager.html" target="_top" xlink:title=" ">
<polygon fill="white" stroke="#666666" points="527.5,-81 370.5,-81 370.5,-62 527.5,-62 527.5,-81"/>
<text text-anchor="middle" x="449" y="-69" font-family="Helvetica,sans-Serif" font-size="10.00">Ogre::NULLTextureGpuManager</text>
</a>
</g>
</g>
<!-- Node13&#45;&gt;Node17 -->
<g id="edge16" class="edge">
<title>Node13&#45;&gt;Node17</title>
<path fill="none" stroke="#63b8ff" d="M307.41,-108.02C314.71,-106.28 322.04,-104.42 329,-102.5 345.26,-98.01 348.76,-95.05 365,-90.5 376.53,-87.27 389.07,-84.18 400.83,-81.47"/>
<polygon fill="#63b8ff" stroke="#63b8ff" points="306.83,-104.56 297.88,-110.23 308.41,-111.38 306.83,-104.56"/>
</g>
<!-- Node19 -->
<g id="node19" class="node">
<title>Node19</title>
<g id="a_node19"><a xlink:href="class_ogre_1_1_default_texture_gpu_manager_listener.html" target="_top" xlink:title="This is a Default implementation of TextureGpuManagerListener based on heuristics.">
<polygon fill="white" stroke="#666666" points="529.5,-43.5 368.5,-43.5 368.5,-13.5 529.5,-13.5 529.5,-43.5"/>
<text text-anchor="start" x="376.5" y="-31.5" font-family="Helvetica,sans-Serif" font-size="10.00">Ogre::DefaultTextureGpuManager</text>
<text text-anchor="middle" x="449" y="-20.5" font-family="Helvetica,sans-Serif" font-size="10.00">Listener</text>
</a>
</g>
</g>
<!-- Node18&#45;&gt;Node19 -->
<g id="edge18" class="edge">
<title>Node18&#45;&gt;Node19</title>
<path fill="none" stroke="#63b8ff" d="M304.51,-70.92C312.76,-68.89 321.12,-66.73 329,-64.5 345.23,-59.91 348.9,-57.51 365,-52.5 374.17,-49.65 383.94,-46.72 393.44,-43.94"/>
<polygon fill="#63b8ff" stroke="#63b8ff" points="303.76,-67.5 294.85,-73.24 305.39,-74.31 303.76,-67.5"/>
</g>
</g>
</svg>
