<?xml version="1.0" encoding="UTF-8" standalone="no"?>
<!DOCTYPE svg PUBLIC "-//W3C//DTD SVG 1.1//EN"
 "http://www.w3.org/Graphics/SVG/1.1/DTD/svg11.dtd">
<!-- Generated by graphviz version 9.0.0 (20230911.1827)
 -->
<!-- Title: Ogre::Win32EGLContext Pages: 1 -->
<svg width="244pt" height="138pt"
 viewBox="0.00 0.00 244.38 137.75" xmlns="http://www.w3.org/2000/svg" xmlns:xlink="http://www.w3.org/1999/xlink">
<g id="graph0" class="graph" transform="scale(1 1) rotate(0) translate(4 133.75)">
<title>Ogre::Win32EGLContext</title>
<!-- Node1 -->
<g id="Node000001" class="node">
<title>Node1</title>
<g id="a_Node000001"><a xlink:title=" ">
<polygon fill="#999999" stroke="#666666" points="179.88,-19.25 58.88,-19.25 58.88,0 179.88,0 179.88,-19.25"/>
<text text-anchor="middle" x="119.38" y="-5.75" font-family="Helvetica,sans-Serif" font-size="10.00">Ogre::Win32EGLContext</text>
</a>
</g>
</g>
<!-- Node2 -->
<g id="Node000002" class="node">
<title>Node2</title>
<g id="a_Node000002"><a xlink:href="class_ogre_1_1_e_g_l_context.html" target="_top" xlink:title=" ">
<polygon fill="white" stroke="#666666" points="166.38,-74.5 72.38,-74.5 72.38,-55.25 166.38,-55.25 166.38,-74.5"/>
<text text-anchor="middle" x="119.38" y="-61" font-family="Helvetica,sans-Serif" font-size="10.00">Ogre::EGLContext</text>
</a>
</g>
</g>
<!-- Node2&#45;&gt;Node1 -->
<g id="edge1_Node000001_Node000002" class="edge">
<title>Node2&#45;&gt;Node1</title>
<g id="a_edge1_Node000001_Node000002"><a xlink:title=" ">
<path fill="none" stroke="#63b8ff" d="M119.38,-43.63C119.38,-35.34 119.38,-26.17 119.38,-19.61"/>
<polygon fill="#63b8ff" stroke="#63b8ff" points="115.88,-43.57 119.38,-53.57 122.88,-43.57 115.88,-43.57"/>
</a>
</g>
</g>
<!-- Node3 -->
<g id="Node000003" class="node">
<title>Node3</title>
<g id="a_Node000003"><a xlink:href="class_ogre_1_1_g_l3_plus_context.html" target="_top" xlink:title="Class that encapsulates an GL context.">
<polygon fill="white" stroke="#666666" points="112.75,-129.75 0,-129.75 0,-110.5 112.75,-110.5 112.75,-129.75"/>
<text text-anchor="middle" x="56.38" y="-116.25" font-family="Helvetica,sans-Serif" font-size="10.00">Ogre::GL3PlusContext</text>
</a>
</g>
</g>
<!-- Node3&#45;&gt;Node2 -->
<g id="edge2_Node000002_Node000003" class="edge">
<title>Node3&#45;&gt;Node2</title>
<g id="a_edge2_Node000002_Node000003"><a xlink:title=" ">
<path fill="none" stroke="#63b8ff" d="M75.55,-102.91C86.49,-93.67 99.79,-82.43 108.85,-74.77"/>
<polygon fill="#63b8ff" stroke="#63b8ff" points="73.6,-99.99 68.22,-109.11 78.11,-105.33 73.6,-99.99"/>
</a>
</g>
</g>
<!-- Node4 -->
<g id="Node000004" class="node">
<title>Node4</title>
<g id="a_Node000004"><a xlink:href="class_ogre_1_1_g_l_e_s2_context.html" target="_top" xlink:title="Class that encapsulates an GL context.">
<polygon fill="white" stroke="#666666" points="236.38,-129.75 130.38,-129.75 130.38,-110.5 236.38,-110.5 236.38,-129.75"/>
<text text-anchor="middle" x="183.38" y="-116.25" font-family="Helvetica,sans-Serif" font-size="10.00">Ogre::GLES2Context</text>
</a>
</g>
</g>
<!-- Node4&#45;&gt;Node2 -->
<g id="edge3_Node000002_Node000004" class="edge">
<title>Node4&#45;&gt;Node2</title>
<g id="a_edge3_Node000002_Node000004"><a xlink:title=" ">
<path fill="none" stroke="#63b8ff" d="M163.89,-102.91C152.78,-93.67 139.27,-82.43 130.07,-74.77"/>
<polygon fill="#63b8ff" stroke="#63b8ff" points="161.43,-105.42 171.35,-109.12 165.91,-100.04 161.43,-105.42"/>
</a>
</g>
</g>
</g>
</svg>
