<?xml version="1.0" encoding="UTF-8" standalone="no"?>
<!DOCTYPE svg PUBLIC "-//W3C//DTD SVG 1.1//EN"
 "http://www.w3.org/Graphics/SVG/1.1/DTD/svg11.dtd">
<!-- Generated by graphviz version 9.0.0 (20230911.1827)
 -->
<!-- Title: Ogre::Volume::HalfFloatGridSource Pages: 1 -->
<svg width="145pt" height="149pt"
 viewBox="0.00 0.00 144.75 149.00" xmlns="http://www.w3.org/2000/svg" xmlns:xlink="http://www.w3.org/1999/xlink">
<g id="graph0" class="graph" transform="scale(1 1) rotate(0) translate(4 145)">
<title>Ogre::Volume::HalfFloatGridSource</title>
<!-- Node1 -->
<g id="Node000001" class="node">
<title>Node1</title>
<g id="a_Node000001"><a xlink:title="A volume source from a 16 Bit float 3D grid capable of loading volume serializations.">
<polygon fill="#999999" stroke="#666666" points="136.75,-30.5 0,-30.5 0,0 136.75,0 136.75,-30.5"/>
<text text-anchor="start" x="8" y="-17" font-family="Helvetica,sans-Serif" font-size="10.00">Ogre::Volume::HalfFloatGrid</text>
<text text-anchor="middle" x="68.38" y="-5.75" font-family="Helvetica,sans-Serif" font-size="10.00">Source</text>
</a>
</g>
</g>
<!-- Node2 -->
<g id="Node000002" class="node">
<title>Node2</title>
<g id="a_Node000002"><a xlink:href="class_ogre_1_1_volume_1_1_grid_source.html" target="_top" xlink:title="A volume source from a discrete 3d grid.">
<polygon fill="white" stroke="#666666" points="132.25,-85.75 4.5,-85.75 4.5,-66.5 132.25,-66.5 132.25,-85.75"/>
<text text-anchor="middle" x="68.38" y="-72.25" font-family="Helvetica,sans-Serif" font-size="10.00">Ogre::Volume::GridSource</text>
</a>
</g>
</g>
<!-- Node2&#45;&gt;Node1 -->
<g id="edge1_Node000001_Node000002" class="edge">
<title>Node2&#45;&gt;Node1</title>
<g id="a_edge1_Node000001_Node000002"><a xlink:title=" ">
<path fill="none" stroke="#63b8ff" d="M68.38,-54.92C68.38,-46.99 68.38,-38.06 68.38,-30.78"/>
<polygon fill="#63b8ff" stroke="#63b8ff" points="64.88,-54.67 68.38,-64.67 71.88,-54.67 64.88,-54.67"/>
</a>
</g>
</g>
<!-- Node3 -->
<g id="Node000003" class="node">
<title>Node3</title>
<g id="a_Node000003"><a xlink:href="class_ogre_1_1_volume_1_1_source.html" target="_top" xlink:title="Abstract class defining the density function.">
<polygon fill="white" stroke="#666666" points="123.25,-141 13.5,-141 13.5,-121.75 123.25,-121.75 123.25,-141"/>
<text text-anchor="middle" x="68.38" y="-127.5" font-family="Helvetica,sans-Serif" font-size="10.00">Ogre::Volume::Source</text>
</a>
</g>
</g>
<!-- Node3&#45;&gt;Node2 -->
<g id="edge2_Node000002_Node000003" class="edge">
<title>Node3&#45;&gt;Node2</title>
<g id="a_edge2_Node000002_Node000003"><a xlink:title=" ">
<path fill="none" stroke="#63b8ff" d="M68.38,-110.13C68.38,-101.84 68.38,-92.67 68.38,-86.11"/>
<polygon fill="#63b8ff" stroke="#63b8ff" points="64.88,-110.07 68.38,-120.07 71.88,-110.07 64.88,-110.07"/>
</a>
</g>
</g>
</g>
</svg>
