<?xml version="1.0" encoding="UTF-8" standalone="no"?>
<!DOCTYPE svg PUBLIC "-//W3C//DTD SVG 1.1//EN"
 "http://www.w3.org/Graphics/SVG/1.1/DTD/svg11.dtd">
<!-- Generated by graphviz version 7.0.5 (20221223.1930)
 -->
<!-- Title: Ogre::Win32EGLWindow Pages: 1 -->
<svg width="250pt" height="247pt"
 viewBox="0.00 0.00 249.50 247.00" xmlns="http://www.w3.org/2000/svg" xmlns:xlink="http://www.w3.org/1999/xlink">
<g id="graph0" class="graph" transform="scale(1 1) rotate(0) translate(4 243)">
<title>Ogre::Win32EGLWindow</title>
<!-- Node1 -->
<g id="node1" class="node">
<title>Node1</title>
<g id="a_node1"><a xlink:title=" ">
<polygon fill="#999999" stroke="#666666" points="159.5,-19 36.5,-19 36.5,0 159.5,0 159.5,-19"/>
<text text-anchor="middle" x="98" y="-7" font-family="Helvetica,sans-Serif" font-size="10.00">Ogre::Win32EGLWindow</text>
</a>
</g>
</g>
<!-- Node2 -->
<g id="node2" class="node">
<title>Node2</title>
<g id="a_node2"><a xlink:href="class_ogre_1_1_e_g_l_window.html" target="_top" xlink:title=" ">
<polygon fill="white" stroke="#666666" points="146,-74 50,-74 50,-55 146,-55 146,-74"/>
<text text-anchor="middle" x="98" y="-62" font-family="Helvetica,sans-Serif" font-size="10.00">Ogre::EGLWindow</text>
</a>
</g>
</g>
<!-- Node2&#45;&gt;Node1 -->
<g id="edge1" class="edge">
<title>Node2&#45;&gt;Node1</title>
<path fill="none" stroke="#63b8ff" d="M98,-43.35C98,-35.1 98,-25.97 98,-19.44"/>
<polygon fill="#63b8ff" stroke="#63b8ff" points="94.5,-43.23 98,-53.23 101.5,-43.23 94.5,-43.23"/>
</g>
<!-- Node3 -->
<g id="node3" class="node">
<title>Node3</title>
<g id="a_node3"><a xlink:href="class_ogre_1_1_window.html" target="_top" xlink:title=" ">
<polygon fill="white" stroke="#666666" points="81.5,-129 4.5,-129 4.5,-110 81.5,-110 81.5,-129"/>
<text text-anchor="middle" x="43" y="-117" font-family="Helvetica,sans-Serif" font-size="10.00">Ogre::Window</text>
</a>
</g>
</g>
<!-- Node3&#45;&gt;Node2 -->
<g id="edge2" class="edge">
<title>Node3&#45;&gt;Node2</title>
<path fill="none" stroke="#63b8ff" d="M60.35,-101.78C69.75,-92.72 80.98,-81.9 88.72,-74.44"/>
<polygon fill="#63b8ff" stroke="#63b8ff" points="57.94,-99.24 53.17,-108.7 62.8,-104.28 57.94,-99.24"/>
</g>
<!-- Node4 -->
<g id="node4" class="node">
<title>Node4</title>
<g id="a_node4"><a xlink:href="class_ogre_1_1_allocated_object.html" target="_top" xlink:title="Superclass for all objects that wish to use custom memory allocators when their new / delete operator...">
<polygon fill="white" stroke="#666666" points="86,-239 0,-239 0,-220 86,-220 86,-239"/>
<text text-anchor="middle" x="43" y="-227" font-family="Helvetica,sans-Serif" font-size="10.00">RenderSysAlloc</text>
</a>
</g>
</g>
<!-- Node4&#45;&gt;Node3 -->
<g id="edge3" class="edge">
<title>Node4&#45;&gt;Node3</title>
<path fill="none" stroke="#63b8ff" d="M43,-208.24C43,-184.63 43,-146.65 43,-129.46"/>
<polygon fill="#63b8ff" stroke="#63b8ff" points="39.5,-208.15 43,-218.15 46.5,-208.15 39.5,-208.15"/>
</g>
<!-- Node6 -->
<g id="node6" class="node">
<title>Node6</title>
<g id="a_node6"><a xlink:href="class_ogre_1_1_render_target.html" target="_top" xlink:title="A &#39;canvas&#39; which can receive the results of a rendering operation.">
<polygon fill="white" stroke="#666666" points="203.5,-184 102.5,-184 102.5,-165 203.5,-165 203.5,-184"/>
<text text-anchor="middle" x="153" y="-172" font-family="Helvetica,sans-Serif" font-size="10.00">Ogre::RenderTarget</text>
</a>
</g>
</g>
<!-- Node4&#45;&gt;Node6 -->
<g id="edge7" class="edge">
<title>Node4&#45;&gt;Node6</title>
<path fill="none" stroke="#63b8ff" d="M71.99,-214.53C91.83,-204.97 117.54,-192.59 134.62,-184.36"/>
<polygon fill="#63b8ff" stroke="#63b8ff" points="70.51,-211.36 63.02,-218.85 73.55,-217.66 70.51,-211.36"/>
</g>
<!-- Node5 -->
<g id="node5" class="node">
<title>Node5</title>
<g id="a_node5"><a xlink:href="class_ogre_1_1_render_window.html" target="_top" xlink:title="Manages the target rendering window.">
<polygon fill="white" stroke="#666666" points="206.5,-129 99.5,-129 99.5,-110 206.5,-110 206.5,-129"/>
<text text-anchor="middle" x="153" y="-117" font-family="Helvetica,sans-Serif" font-size="10.00">Ogre::RenderWindow</text>
</a>
</g>
</g>
<!-- Node5&#45;&gt;Node2 -->
<g id="edge4" class="edge">
<title>Node5&#45;&gt;Node2</title>
<path fill="none" stroke="#63b8ff" d="M135.65,-101.78C126.25,-92.72 115.02,-81.9 107.28,-74.44"/>
<polygon fill="#63b8ff" stroke="#63b8ff" points="133.2,-104.28 142.83,-108.7 138.06,-99.24 133.2,-104.28"/>
</g>
<!-- Node6&#45;&gt;Node5 -->
<g id="edge5" class="edge">
<title>Node6&#45;&gt;Node5</title>
<path fill="none" stroke="#63b8ff" d="M153,-153.35C153,-145.1 153,-135.97 153,-129.44"/>
<polygon fill="#63b8ff" stroke="#63b8ff" points="149.5,-153.23 153,-163.23 156.5,-153.23 149.5,-153.23"/>
</g>
<!-- Node7 -->
<g id="node7" class="node">
<title>Node7</title>
<g id="a_node7"><a xlink:href="struct_ogre_1_1_gpu_tracked_resource.html" target="_top" xlink:title=" ">
<polygon fill="white" stroke="#666666" points="241.5,-239 104.5,-239 104.5,-220 241.5,-220 241.5,-239"/>
<text text-anchor="middle" x="173" y="-227" font-family="Helvetica,sans-Serif" font-size="10.00">Ogre::GpuTrackedResource</text>
</a>
</g>
</g>
<!-- Node7&#45;&gt;Node6 -->
<g id="edge6" class="edge">
<title>Node7&#45;&gt;Node6</title>
<path fill="none" stroke="#63b8ff" d="M165.72,-209.22C162.53,-200.74 158.93,-191.21 156.37,-184.44"/>
<polygon fill="#63b8ff" stroke="#63b8ff" points="162.36,-210.21 169.16,-218.33 168.91,-207.74 162.36,-210.21"/>
</g>
</g>
</svg>
