<?xml version="1.0" encoding="UTF-8" standalone="no"?>
<!DOCTYPE svg PUBLIC "-//W3C//DTD SVG 1.1//EN"
 "http://www.w3.org/Graphics/SVG/1.1/DTD/svg11.dtd">
<!-- Generated by graphviz version 9.0.0 (20230911.1827)
 -->
<!-- Title: Ogre::Codec Pages: 1 -->
<svg width="473pt" height="360pt"
 viewBox="0.00 0.00 473.25 360.25" xmlns="http://www.w3.org/2000/svg" xmlns:xlink="http://www.w3.org/1999/xlink">
<g id="graph0" class="graph" transform="scale(1 1) rotate(0) translate(4 356.25)">
<title>Ogre::Codec</title>
<!-- Node1 -->
<g id="Node000001" class="node">
<title>Node1</title>
<g id="a_Node000001"><a xlink:title="Abstract class that defines a &#39;codec&#39;.">
<polygon fill="#999999" stroke="#666666" points="170.75,-204.25 101.5,-204.25 101.5,-185 170.75,-185 170.75,-204.25"/>
<text text-anchor="middle" x="136.12" y="-190.75" font-family="Helvetica,sans-Serif" font-size="10.00">Ogre::Codec</text>
</a>
</g>
</g>
<!-- Node3 -->
<g id="Node000003" class="node">
<title>Node3</title>
<g id="a_Node000003"><a xlink:href="class_ogre_1_1_image_codec.html" target="_top" xlink:title="Codec specialized in images.">
<polygon fill="white" stroke="#666666" points="305.62,-296.25 209.38,-296.25 209.38,-277 305.62,-277 305.62,-296.25"/>
<text text-anchor="middle" x="257.5" y="-282.75" font-family="Helvetica,sans-Serif" font-size="10.00">Ogre::ImageCodec</text>
</a>
</g>
</g>
<!-- Node1&#45;&gt;Node3 -->
<g id="edge2_Node000001_Node000003" class="edge">
<title>Node1&#45;&gt;Node3</title>
<g id="a_edge2_Node000001_Node000003"><a xlink:title=" ">
<path fill="none" stroke="#63b8ff" d="M158.88,-211.39C183.59,-230.43 223.11,-260.89 243.45,-276.57"/>
<polygon fill="#63b8ff" stroke="#63b8ff" points="161.16,-208.73 151.1,-205.39 156.88,-214.27 161.16,-208.73"/>
</a>
</g>
</g>
<!-- Node7 -->
<g id="Node000007" class="node">
<title>Node7</title>
<g id="a_Node000007"><a xlink:href="class_ogre_1_1_image_codec2.html" target="_top" xlink:title="Codec specialized in images.">
<polygon fill="white" stroke="#666666" points="308.25,-149.25 206.75,-149.25 206.75,-130 308.25,-130 308.25,-149.25"/>
<text text-anchor="middle" x="257.5" y="-135.75" font-family="Helvetica,sans-Serif" font-size="10.00">Ogre::ImageCodec2</text>
</a>
</g>
</g>
<!-- Node1&#45;&gt;Node7 -->
<g id="edge6_Node000001_Node000007" class="edge">
<title>Node1&#45;&gt;Node7</title>
<g id="a_edge6_Node000001_Node000007"><a xlink:title=" ">
<path fill="none" stroke="#63b8ff" d="M169.28,-179.81C190.02,-170.26 216.44,-158.08 234.74,-149.65"/>
<polygon fill="#63b8ff" stroke="#63b8ff" points="168.01,-176.54 160.39,-183.9 170.94,-182.9 168.01,-176.54"/>
</a>
</g>
</g>
<!-- Node2 -->
<g id="Node000002" class="node">
<title>Node2</title>
<g id="a_Node000002"><a xlink:href="class_ogre_1_1_allocated_object.html" target="_top" xlink:title="Superclass for all objects that wish to use custom memory allocators when their new / delete operator...">
<polygon fill="white" stroke="#666666" points="65.5,-204.25 0,-204.25 0,-185 65.5,-185 65.5,-204.25"/>
<text text-anchor="middle" x="32.75" y="-190.75" font-family="Helvetica,sans-Serif" font-size="10.00">CodecAlloc</text>
</a>
</g>
</g>
<!-- Node2&#45;&gt;Node1 -->
<g id="edge1_Node000001_Node000002" class="edge">
<title>Node2&#45;&gt;Node1</title>
<g id="a_edge1_Node000001_Node000002"><a xlink:title=" ">
<path fill="none" stroke="#63b8ff" d="M77.27,-194.62C85.26,-194.62 93.5,-194.62 101.16,-194.62"/>
<polygon fill="#63b8ff" stroke="#63b8ff" points="77.34,-191.13 67.34,-194.63 77.34,-198.13 77.34,-191.13"/>
</a>
</g>
</g>
<!-- Node4 -->
<g id="Node000004" class="node">
<title>Node4</title>
<g id="a_Node000004"><a xlink:href="class_ogre_1_1_d_d_s_codec.html" target="_top" xlink:title="Codec specialized in loading DDS (Direct Draw Surface) images.">
<polygon fill="white" stroke="#666666" points="449.5,-352.25 360,-352.25 360,-333 449.5,-333 449.5,-352.25"/>
<text text-anchor="middle" x="404.75" y="-338.75" font-family="Helvetica,sans-Serif" font-size="10.00">Ogre::DDSCodec</text>
</a>
</g>
</g>
<!-- Node3&#45;&gt;Node4 -->
<g id="edge3_Node000003_Node000004" class="edge">
<title>Node3&#45;&gt;Node4</title>
<g id="a_edge3_Node000003_Node000004"><a xlink:title=" ">
<path fill="none" stroke="#63b8ff" d="M289.32,-301.39C305.48,-308.84 325.72,-317.75 344.25,-324.62 351.84,-327.44 360.09,-330.15 367.96,-332.58"/>
<polygon fill="#63b8ff" stroke="#63b8ff" points="291.26,-298.43 280.72,-297.37 288.3,-304.77 291.26,-298.43"/>
</a>
</g>
</g>
<!-- Node5 -->
<g id="Node000005" class="node">
<title>Node5</title>
<g id="a_Node000005"><a xlink:href="class_ogre_1_1_e_x_r_codec.html" target="_top" xlink:title="Codec specialized in loading OpenEXR high dynamic range images.">
<polygon fill="white" stroke="#666666" points="449.12,-315.25 360.38,-315.25 360.38,-296 449.12,-296 449.12,-315.25"/>
<text text-anchor="middle" x="404.75" y="-301.75" font-family="Helvetica,sans-Serif" font-size="10.00">Ogre::EXRCodec</text>
</a>
</g>
</g>
<!-- Node3&#45;&gt;Node5 -->
<g id="edge4_Node000003_Node000005" class="edge">
<title>Node3&#45;&gt;Node5</title>
<g id="a_edge4_Node000003_Node000005"><a xlink:title=" ">
<path fill="none" stroke="#63b8ff" d="M317.3,-294.32C331.57,-296.18 346.58,-298.15 360.02,-299.9"/>
<polygon fill="#63b8ff" stroke="#63b8ff" points="317.93,-290.87 307.56,-293.04 317.02,-297.81 317.93,-290.87"/>
</a>
</g>
</g>
<!-- Node6 -->
<g id="Node000006" class="node">
<title>Node6</title>
<g id="a_Node000006"><a xlink:href="class_ogre_1_1_free_image_codec.html" target="_top" xlink:title="Codec specialized in images loaded using FreeImage.">
<polygon fill="white" stroke="#666666" points="462.62,-278.25 346.88,-278.25 346.88,-259 462.62,-259 462.62,-278.25"/>
<text text-anchor="middle" x="404.75" y="-264.75" font-family="Helvetica,sans-Serif" font-size="10.00">Ogre::FreeImageCodec</text>
</a>
</g>
</g>
<!-- Node3&#45;&gt;Node6 -->
<g id="edge5_Node000003_Node000006" class="edge">
<title>Node3&#45;&gt;Node6</title>
<g id="a_edge5_Node000003_Node000006"><a xlink:title=" ">
<path fill="none" stroke="#63b8ff" d="M317.19,-279.35C326.85,-278.16 336.84,-276.92 346.46,-275.72"/>
<polygon fill="#63b8ff" stroke="#63b8ff" points="317.06,-275.84 307.56,-280.54 317.92,-282.79 317.06,-275.84"/>
</a>
</g>
</g>
<!-- Node8 -->
<g id="Node000008" class="node">
<title>Node8</title>
<g id="a_Node000008"><a xlink:href="class_ogre_1_1_a_s_t_c_codec.html" target="_top" xlink:title="Codec specialized in loading ASTC (ARM Adaptive Scalable Texture Compression) images.">
<polygon fill="white" stroke="#666666" points="452.5,-241.25 357,-241.25 357,-222 452.5,-222 452.5,-241.25"/>
<text text-anchor="middle" x="404.75" y="-227.75" font-family="Helvetica,sans-Serif" font-size="10.00">Ogre::ASTCCodec</text>
</a>
</g>
</g>
<!-- Node7&#45;&gt;Node8 -->
<g id="edge7_Node000007_Node000008" class="edge">
<title>Node7&#45;&gt;Node8</title>
<g id="a_edge7_Node000007_Node000008"><a xlink:title=" ">
<path fill="none" stroke="#63b8ff" d="M274.75,-157.42C290.9,-174.12 317.11,-198.69 344.25,-213.62 349.83,-216.69 356,-219.3 362.19,-221.5"/>
<polygon fill="#63b8ff" stroke="#63b8ff" points="277.72,-155.47 268.31,-150.6 272.63,-160.27 277.72,-155.47"/>
</a>
</g>
</g>
<!-- Node9 -->
<g id="Node000009" class="node">
<title>Node9</title>
<g id="a_Node000009"><a xlink:href="class_ogre_1_1_d_d_s_codec2.html" target="_top" xlink:title="Codec specialized in loading DDS (Direct Draw Surface) images.">
<polygon fill="white" stroke="#666666" points="452.12,-204.25 357.38,-204.25 357.38,-185 452.12,-185 452.12,-204.25"/>
<text text-anchor="middle" x="404.75" y="-190.75" font-family="Helvetica,sans-Serif" font-size="10.00">Ogre::DDSCodec2</text>
</a>
</g>
</g>
<!-- Node7&#45;&gt;Node9 -->
<g id="edge8_Node000007_Node000009" class="edge">
<title>Node7&#45;&gt;Node9</title>
<g id="a_edge8_Node000007_Node000009"><a xlink:title=" ">
<path fill="none" stroke="#63b8ff" d="M290.47,-154.45C306.45,-161.59 326.19,-170.02 344.25,-176.62 351.85,-179.4 360.11,-182.1 367.98,-184.52"/>
<polygon fill="#63b8ff" stroke="#63b8ff" points="292.01,-151.3 281.46,-150.37 289.12,-157.68 292.01,-151.3"/>
</a>
</g>
</g>
<!-- Node10 -->
<g id="Node000010" class="node">
<title>Node10</title>
<g id="a_Node000010"><a xlink:href="class_ogre_1_1_e_t_c_codec.html" target="_top" xlink:title="Codec specialized in loading ETC (Ericsson Texture Compression) images.">
<polygon fill="white" stroke="#666666" points="448.75,-167.25 360.75,-167.25 360.75,-148 448.75,-148 448.75,-167.25"/>
<text text-anchor="middle" x="404.75" y="-153.75" font-family="Helvetica,sans-Serif" font-size="10.00">Ogre::ETCCodec</text>
</a>
</g>
</g>
<!-- Node7&#45;&gt;Node10 -->
<g id="edge9_Node000007_Node000010" class="edge">
<title>Node7&#45;&gt;Node10</title>
<g id="a_edge9_Node000007_Node000010"><a xlink:title=" ">
<path fill="none" stroke="#63b8ff" d="M319.8,-147.22C333.47,-148.92 347.69,-150.68 360.46,-152.26"/>
<polygon fill="#63b8ff" stroke="#63b8ff" points="320.34,-143.76 309.99,-146.01 319.48,-150.71 320.34,-143.76"/>
</a>
</g>
</g>
<!-- Node11 -->
<g id="Node000011" class="node">
<title>Node11</title>
<g id="a_Node000011"><a xlink:href="class_ogre_1_1_free_image_codec2.html" target="_top" xlink:title="Codec specialized in images loaded using FreeImage.">
<polygon fill="white" stroke="#666666" points="465.25,-130.25 344.25,-130.25 344.25,-111 465.25,-111 465.25,-130.25"/>
<text text-anchor="middle" x="404.75" y="-116.75" font-family="Helvetica,sans-Serif" font-size="10.00">Ogre::FreeImageCodec2</text>
</a>
</g>
</g>
<!-- Node7&#45;&gt;Node11 -->
<g id="edge10_Node000007_Node000011" class="edge">
<title>Node7&#45;&gt;Node11</title>
<g id="a_edge10_Node000007_Node000011"><a xlink:title=" ">
<path fill="none" stroke="#63b8ff" d="M319.66,-131.62C327.68,-130.58 335.9,-129.5 343.9,-128.45"/>
<polygon fill="#63b8ff" stroke="#63b8ff" points="319.45,-128.12 309.99,-132.89 320.36,-135.06 319.45,-128.12"/>
</a>
</g>
</g>
<!-- Node12 -->
<g id="Node000012" class="node">
<title>Node12</title>
<g id="a_Node000012"><a xlink:href="class_ogre_1_1_o_i_t_d_codec.html" target="_top" xlink:title="Codec specialized in loading OITD (Ogre Internal Texture Dump) format.">
<polygon fill="white" stroke="#666666" points="451,-93.25 358.5,-93.25 358.5,-74 451,-74 451,-93.25"/>
<text text-anchor="middle" x="404.75" y="-79.75" font-family="Helvetica,sans-Serif" font-size="10.00">Ogre::OITDCodec</text>
</a>
</g>
</g>
<!-- Node7&#45;&gt;Node12 -->
<g id="edge11_Node000007_Node000012" class="edge">
<title>Node7&#45;&gt;Node12</title>
<g id="a_edge11_Node000007_Node000012"><a xlink:title=" ">
<path fill="none" stroke="#63b8ff" d="M289.32,-124.86C305.48,-117.41 325.72,-108.5 344.25,-101.62 351.84,-98.81 360.09,-96.1 367.96,-93.67"/>
<polygon fill="#63b8ff" stroke="#63b8ff" points="288.3,-121.48 280.72,-128.88 291.26,-127.82 288.3,-121.48"/>
</a>
</g>
</g>
<!-- Node13 -->
<g id="Node000013" class="node">
<title>Node13</title>
<g id="a_Node000013"><a xlink:href="class_ogre_1_1_p_v_r_t_c_codec.html" target="_top" xlink:title="Codec specialized in loading PVRTC (PowerVR) images.">
<polygon fill="white" stroke="#666666" points="455.88,-56.25 353.62,-56.25 353.62,-37 455.88,-37 455.88,-56.25"/>
<text text-anchor="middle" x="404.75" y="-42.75" font-family="Helvetica,sans-Serif" font-size="10.00">Ogre::PVRTCCodec</text>
</a>
</g>
</g>
<!-- Node7&#45;&gt;Node13 -->
<g id="edge12_Node000007_Node000013" class="edge">
<title>Node7&#45;&gt;Node13</title>
<g id="a_edge12_Node000007_Node000013"><a xlink:title=" ">
<path fill="none" stroke="#63b8ff" d="M274.7,-121.58C290.81,-104.65 317,-79.73 344.25,-64.62 349.82,-61.54 355.98,-58.92 362.17,-56.71"/>
<polygon fill="#63b8ff" stroke="#63b8ff" points="272.51,-118.79 268.27,-128.5 277.64,-123.56 272.51,-118.79"/>
</a>
</g>
</g>
<!-- Node14 -->
<g id="Node000014" class="node">
<title>Node14</title>
<g id="a_Node000014"><a xlink:href="class_ogre_1_1_s_t_b_i_image_codec.html" target="_top" xlink:title="Codec specialized in images loaded using stbi (https://github.com/nothings/stb).">
<polygon fill="white" stroke="#666666" points="464.12,-19.25 345.38,-19.25 345.38,0 464.12,0 464.12,-19.25"/>
<text text-anchor="middle" x="404.75" y="-5.75" font-family="Helvetica,sans-Serif" font-size="10.00">Ogre::STBIImageCodec</text>
</a>
</g>
</g>
<!-- Node7&#45;&gt;Node14 -->
<g id="edge13_Node000007_Node000014" class="edge">
<title>Node7&#45;&gt;Node14</title>
<g id="a_edge13_Node000007_Node000014"><a xlink:title=" ">
<path fill="none" stroke="#63b8ff" d="M268.63,-119.7C282.39,-94.58 309.35,-51.79 344.25,-27.62 348.78,-24.49 353.86,-21.89 359.1,-19.74"/>
<polygon fill="#63b8ff" stroke="#63b8ff" points="265.7,-117.75 264.11,-128.23 271.88,-121.03 265.7,-117.75"/>
</a>
</g>
</g>
</g>
</svg>
