<?xml version="1.0" encoding="UTF-8" standalone="no"?>
<!DOCTYPE svg PUBLIC "-//W3C//DTD SVG 1.1//EN"
 "http://www.w3.org/Graphics/SVG/1.1/DTD/svg11.dtd">
<!-- Generated by graphviz version 9.0.0 (20230911.1827)
 -->
<!-- Title: Ogre::CompositorPassDef Pages: 1 -->
<svg width="490pt" height="335pt"
 viewBox="0.00 0.00 489.50 335.25" xmlns="http://www.w3.org/2000/svg" xmlns:xlink="http://www.w3.org/1999/xlink">
<g id="graph0" class="graph" transform="scale(1 1) rotate(0) translate(4 331.25)">
<title>Ogre::CompositorPassDef</title>
<!-- Node1 -->
<g id="Node000001" class="node">
<title>Node1</title>
<g id="a_Node000001"><a xlink:title="Interface to abstract all types of pass definitions (.">
<polygon fill="#999999" stroke="#666666" points="268.25,-167.25 139.75,-167.25 139.75,-148 268.25,-148 268.25,-167.25"/>
<text text-anchor="middle" x="204" y="-153.75" font-family="Helvetica,sans-Serif" font-size="10.00">Ogre::CompositorPassDef</text>
</a>
</g>
</g>
<!-- Node3 -->
<g id="Node000003" class="node">
<title>Node3</title>
<g id="a_Node000003"><a xlink:href="class_ogre_1_1_compositor_pass_clear_def.html" target="_top" xlink:title=" ">
<polygon fill="white" stroke="#666666" points="468.38,-327.25 317.38,-327.25 317.38,-308 468.38,-308 468.38,-327.25"/>
<text text-anchor="middle" x="392.88" y="-313.75" font-family="Helvetica,sans-Serif" font-size="10.00">Ogre::CompositorPassClearDef</text>
</a>
</g>
</g>
<!-- Node1&#45;&gt;Node3 -->
<g id="edge2_Node000001_Node000003" class="edge">
<title>Node1&#45;&gt;Node3</title>
<g id="a_edge2_Node000001_Node000003"><a xlink:title=" ">
<path fill="none" stroke="#63b8ff" d="M213.26,-178.02C227.12,-209.46 258.12,-269.29 304.25,-299.62 309.05,-302.78 314.29,-305.4 319.75,-307.58"/>
<polygon fill="#63b8ff" stroke="#63b8ff" points="216.51,-176.72 209.39,-168.87 210.07,-179.45 216.51,-176.72"/>
</a>
</g>
</g>
<!-- Node4 -->
<g id="Node000004" class="node">
<title>Node4</title>
<g id="a_Node000004"><a xlink:href="class_ogre_1_1_compositor_pass_compute_def.html" target="_top" xlink:title=" ">
<polygon fill="white" stroke="#666666" points="476.62,-290.25 309.12,-290.25 309.12,-271 476.62,-271 476.62,-290.25"/>
<text text-anchor="middle" x="392.88" y="-276.75" font-family="Helvetica,sans-Serif" font-size="10.00">Ogre::CompositorPassComputeDef</text>
</a>
</g>
</g>
<!-- Node1&#45;&gt;Node4 -->
<g id="edge3_Node000001_Node000004" class="edge">
<title>Node1&#45;&gt;Node4</title>
<g id="a_edge3_Node000001_Node000004"><a xlink:title=" ">
<path fill="none" stroke="#63b8ff" d="M217.81,-176.89C234.7,-200.68 266.71,-240.57 304.25,-261.62 310.77,-265.28 317.92,-268.23 325.24,-270.62"/>
<polygon fill="#63b8ff" stroke="#63b8ff" points="220.75,-174.99 212.2,-168.74 214.99,-178.96 220.75,-174.99"/>
</a>
</g>
</g>
<!-- Node5 -->
<g id="Node000005" class="node">
<title>Node5</title>
<g id="a_Node000005"><a xlink:href="class_ogre_1_1_compositor_pass_depth_copy_def.html" target="_top" xlink:title=" ">
<polygon fill="white" stroke="#666666" points="462.38,-252.88 323.38,-252.88 323.38,-222.38 462.38,-222.38 462.38,-252.88"/>
<text text-anchor="start" x="331.38" y="-239.38" font-family="Helvetica,sans-Serif" font-size="10.00">Ogre::CompositorPassDepth</text>
<text text-anchor="middle" x="392.88" y="-228.12" font-family="Helvetica,sans-Serif" font-size="10.00">CopyDef</text>
</a>
</g>
</g>
<!-- Node1&#45;&gt;Node5 -->
<g id="edge4_Node000001_Node000005" class="edge">
<title>Node1&#45;&gt;Node5</title>
<g id="a_edge4_Node000001_Node000005"><a xlink:title=" ">
<path fill="none" stroke="#63b8ff" d="M229.51,-173.72C249.09,-186.01 277.58,-202.64 304.25,-213.62 311.69,-216.69 319.64,-219.48 327.61,-221.99"/>
<polygon fill="#63b8ff" stroke="#63b8ff" points="231.47,-170.82 221.16,-168.39 227.7,-176.72 231.47,-170.82"/>
</a>
</g>
</g>
<!-- Node6 -->
<g id="Node000006" class="node">
<title>Node6</title>
<g id="a_Node000006"><a xlink:href="class_ogre_1_1_compositor_pass_ibl_specular_def.html" target="_top" xlink:title=" ">
<polygon fill="white" stroke="#666666" points="481.5,-204.25 304.25,-204.25 304.25,-185 481.5,-185 481.5,-204.25"/>
<text text-anchor="middle" x="392.88" y="-190.75" font-family="Helvetica,sans-Serif" font-size="10.00">Ogre::CompositorPassIblSpecularDef</text>
</a>
</g>
</g>
<!-- Node1&#45;&gt;Node6 -->
<g id="edge5_Node000001_Node000006" class="edge">
<title>Node1&#45;&gt;Node6</title>
<g id="a_edge5_Node000001_Node000006"><a xlink:title=" ">
<path fill="none" stroke="#63b8ff" d="M267.17,-169.93C291.1,-174.67 318.12,-180.02 340.87,-184.53"/>
<polygon fill="#63b8ff" stroke="#63b8ff" points="268.04,-166.54 257.55,-168.03 266.68,-173.41 268.04,-166.54"/>
</a>
</g>
</g>
<!-- Node7 -->
<g id="Node000007" class="node">
<title>Node7</title>
<g id="a_Node000007"><a xlink:href="class_ogre_1_1_compositor_pass_mipmap_def.html" target="_top" xlink:title=" ">
<polygon fill="white" stroke="#666666" points="474.38,-167.25 311.38,-167.25 311.38,-148 474.38,-148 474.38,-167.25"/>
<text text-anchor="middle" x="392.88" y="-153.75" font-family="Helvetica,sans-Serif" font-size="10.00">Ogre::CompositorPassMipmapDef</text>
</a>
</g>
</g>
<!-- Node1&#45;&gt;Node7 -->
<g id="edge6_Node000001_Node000007" class="edge">
<title>Node1&#45;&gt;Node7</title>
<g id="a_edge6_Node000001_Node000007"><a xlink:title=" ">
<path fill="none" stroke="#63b8ff" d="M279.91,-157.62C290.13,-157.62 300.66,-157.62 310.99,-157.62"/>
<polygon fill="#63b8ff" stroke="#63b8ff" points="280.04,-154.13 270.04,-157.63 280.04,-161.13 280.04,-154.13"/>
</a>
</g>
</g>
<!-- Node8 -->
<g id="Node000008" class="node">
<title>Node8</title>
<g id="a_Node000008"><a xlink:href="class_ogre_1_1_compositor_pass_quad_def.html" target="_top" xlink:title=" ">
<polygon fill="white" stroke="#666666" points="468.75,-130.25 317,-130.25 317,-111 468.75,-111 468.75,-130.25"/>
<text text-anchor="middle" x="392.88" y="-116.75" font-family="Helvetica,sans-Serif" font-size="10.00">Ogre::CompositorPassQuadDef</text>
</a>
</g>
</g>
<!-- Node1&#45;&gt;Node8 -->
<g id="edge7_Node000001_Node000008" class="edge">
<title>Node1&#45;&gt;Node8</title>
<g id="a_edge7_Node000001_Node000008"><a xlink:title=" ">
<path fill="none" stroke="#63b8ff" d="M267.17,-145.32C291.1,-140.58 318.12,-135.23 340.87,-130.72"/>
<polygon fill="#63b8ff" stroke="#63b8ff" points="266.68,-141.84 257.55,-147.22 268.04,-148.71 266.68,-141.84"/>
</a>
</g>
</g>
<!-- Node9 -->
<g id="Node000009" class="node">
<title>Node9</title>
<g id="a_Node000009"><a xlink:href="class_ogre_1_1_compositor_pass_scene_def.html" target="_top" xlink:title=" ">
<polygon fill="white" stroke="#666666" points="471,-93.25 314.75,-93.25 314.75,-74 471,-74 471,-93.25"/>
<text text-anchor="middle" x="392.88" y="-79.75" font-family="Helvetica,sans-Serif" font-size="10.00">Ogre::CompositorPassSceneDef</text>
</a>
</g>
</g>
<!-- Node1&#45;&gt;Node9 -->
<g id="edge8_Node000001_Node000009" class="edge">
<title>Node1&#45;&gt;Node9</title>
<g id="a_edge8_Node000001_Node000009"><a xlink:title=" ">
<path fill="none" stroke="#63b8ff" d="M228.98,-141.27C248.47,-128.69 277.08,-111.8 304.25,-101.62 312.54,-98.52 321.48,-95.91 330.38,-93.72"/>
<polygon fill="#63b8ff" stroke="#63b8ff" points="227.11,-138.31 220.69,-146.73 230.96,-144.15 227.11,-138.31"/>
</a>
</g>
</g>
<!-- Node10 -->
<g id="Node000010" class="node">
<title>Node10</title>
<g id="a_Node000010"><a xlink:href="class_ogre_1_1_compositor_pass_stencil_def.html" target="_top" xlink:title=" ">
<polygon fill="white" stroke="#666666" points="472.12,-56.25 313.62,-56.25 313.62,-37 472.12,-37 472.12,-56.25"/>
<text text-anchor="middle" x="392.88" y="-42.75" font-family="Helvetica,sans-Serif" font-size="10.00">Ogre::CompositorPassStencilDef</text>
</a>
</g>
</g>
<!-- Node1&#45;&gt;Node10 -->
<g id="edge9_Node000001_Node000010" class="edge">
<title>Node1&#45;&gt;Node10</title>
<g id="a_edge9_Node000001_Node000010"><a xlink:title=" ">
<path fill="none" stroke="#63b8ff" d="M219.56,-138.77C237.2,-117.31 268.97,-82.89 304.25,-64.62 310.32,-61.48 316.89,-58.89 323.61,-56.75"/>
<polygon fill="#63b8ff" stroke="#63b8ff" points="216.95,-136.43 213.43,-146.43 222.41,-140.8 216.95,-136.43"/>
</a>
</g>
</g>
<!-- Node11 -->
<g id="Node000011" class="node">
<title>Node11</title>
<g id="a_Node000011"><a xlink:href="class_ogre_1_1_compositor_pass_uav_def.html" target="_top" xlink:title=" ">
<polygon fill="white" stroke="#666666" points="466.12,-19.25 319.62,-19.25 319.62,0 466.12,0 466.12,-19.25"/>
<text text-anchor="middle" x="392.88" y="-5.75" font-family="Helvetica,sans-Serif" font-size="10.00">Ogre::CompositorPassUavDef</text>
</a>
</g>
</g>
<!-- Node1&#45;&gt;Node11 -->
<g id="edge10_Node000001_Node000011" class="edge">
<title>Node1&#45;&gt;Node11</title>
<g id="a_edge10_Node000001_Node000011"><a xlink:title=" ">
<path fill="none" stroke="#63b8ff" d="M214.58,-137.29C229.45,-108.09 260.94,-54.82 304.25,-27.62 309.25,-24.49 314.69,-21.88 320.34,-19.73"/>
<polygon fill="#63b8ff" stroke="#63b8ff" points="211.49,-135.65 210.22,-146.17 217.77,-138.74 211.49,-135.65"/>
</a>
</g>
</g>
<!-- Node2 -->
<g id="Node000002" class="node">
<title>Node2</title>
<g id="a_Node000002"><a xlink:href="class_ogre_1_1_allocated_object.html" target="_top" xlink:title="Superclass for all objects that wish to use custom memory allocators when their new / delete operator...">
<polygon fill="white" stroke="#666666" points="103.75,-167.25 0,-167.25 0,-148 103.75,-148 103.75,-167.25"/>
<text text-anchor="middle" x="51.88" y="-153.75" font-family="Helvetica,sans-Serif" font-size="10.00">CompositorInstAlloc</text>
</a>
</g>
</g>
<!-- Node2&#45;&gt;Node1 -->
<g id="edge1_Node000001_Node000002" class="edge">
<title>Node2&#45;&gt;Node1</title>
<g id="a_edge1_Node000001_Node000002"><a xlink:title=" ">
<path fill="none" stroke="#63b8ff" d="M115.54,-157.62C123.46,-157.62 131.57,-157.62 139.51,-157.62"/>
<polygon fill="#63b8ff" stroke="#63b8ff" points="115.63,-154.13 105.63,-157.63 115.63,-161.13 115.63,-154.13"/>
</a>
</g>
</g>
</g>
</svg>
