<?xml version="1.0" encoding="UTF-8" standalone="no"?>
<!DOCTYPE svg PUBLIC "-//W3C//DTD SVG 1.1//EN"
 "http://www.w3.org/Graphics/SVG/1.1/DTD/svg11.dtd">
<!-- Generated by graphviz version 7.0.5 (20221223.1930)
 -->
<!-- Title: Ogre::Timer Pages: 1 -->
<svg width="90pt" height="82pt"
 viewBox="0.00 0.00 90.10 82.00" xmlns="http://www.w3.org/2000/svg" xmlns:xlink="http://www.w3.org/1999/xlink">
<g id="graph0" class="graph" transform="scale(1 1) rotate(0) translate(4 78)">
<title>Ogre::Timer</title>
<!-- Node1 -->
<g id="node1" class="node">
<title>Node1</title>
<g id="a_node1"><a xlink:title="Timer class.">
<polygon fill="#999999" stroke="#666666" points="74.55,-19 7.55,-19 7.55,0 74.55,0 74.55,-19"/>
<text text-anchor="middle" x="41.05" y="-7" font-family="Helvetica,sans-Serif" font-size="10.00">Ogre::Timer</text>
</a>
</g>
</g>
<!-- Node2 -->
<g id="node2" class="node">
<title>Node2</title>
<g id="a_node2"><a xlink:href="class_ogre_1_1_allocated_object.html" target="_top" xlink:title="Superclass for all objects that wish to use custom memory allocators when their new / delete operator...">
<polygon fill="white" stroke="#666666" points="72.55,-74 9.55,-74 9.55,-55 72.55,-55 72.55,-74"/>
<text text-anchor="middle" x="41.05" y="-62" font-family="Helvetica,sans-Serif" font-size="10.00">TimerAlloc</text>
</a>
</g>
</g>
<!-- Node2&#45;&gt;Node1 -->
<g id="edge1" class="edge">
<title>Node2&#45;&gt;Node1</title>
<path fill="none" stroke="#63b8ff" d="M2.55,-45.69C-1.67,-36.83 0.79,-26.52 9.92,-19.36"/>
<polygon fill="#63b8ff" stroke="#63b8ff" points="-0.24,-47.8 8.79,-53.34 5.18,-43.38 -0.24,-47.8"/>
</g>
<!-- Node2&#45;&gt;Node1 -->
<g id="edge2" class="edge">
<title>Node2&#45;&gt;Node1</title>
<path fill="none" stroke="#63b8ff" d="M15.12,-44.79C12.7,-36.18 14.4,-26.36 20.22,-19.44"/>
<polygon fill="#63b8ff" stroke="#63b8ff" points="11.91,-46.21 19.68,-53.41 18.09,-42.93 11.91,-46.21"/>
</g>
<!-- Node2&#45;&gt;Node1 -->
<g id="edge3" class="edge">
<title>Node2&#45;&gt;Node1</title>
<path fill="none" stroke="#63b8ff" d="M27.93,-43.64C26.95,-35.31 27.85,-26.05 30.64,-19.44"/>
<polygon fill="#63b8ff" stroke="#63b8ff" points="24.52,-44.43 30.35,-53.28 31.31,-42.73 24.52,-44.43"/>
</g>
<!-- Node2&#45;&gt;Node1 -->
<g id="edge4" class="edge">
<title>Node2&#45;&gt;Node1</title>
<path fill="none" stroke="#63b8ff" d="M41.05,-43.35C41.05,-35.1 41.05,-25.97 41.05,-19.44"/>
<polygon fill="#63b8ff" stroke="#63b8ff" points="37.55,-43.23 41.05,-53.23 44.55,-43.23 37.55,-43.23"/>
</g>
<!-- Node2&#45;&gt;Node1 -->
<g id="edge5" class="edge">
<title>Node2&#45;&gt;Node1</title>
<path fill="none" stroke="#63b8ff" d="M54.17,-43.64C55.15,-35.31 54.25,-26.05 51.46,-19.44"/>
<polygon fill="#63b8ff" stroke="#63b8ff" points="50.79,-42.73 51.75,-53.28 57.58,-44.43 50.79,-42.73"/>
</g>
<!-- Node2&#45;&gt;Node1 -->
<g id="edge6" class="edge">
<title>Node2&#45;&gt;Node1</title>
<path fill="none" stroke="#63b8ff" d="M66.99,-44.79C69.4,-36.18 67.7,-26.36 61.88,-19.44"/>
<polygon fill="#63b8ff" stroke="#63b8ff" points="64.01,-42.93 62.42,-53.41 70.19,-46.21 64.01,-42.93"/>
</g>
<!-- Node2&#45;&gt;Node1 -->
<g id="edge7" class="edge">
<title>Node2&#45;&gt;Node1</title>
<path fill="none" stroke="#63b8ff" d="M79.55,-45.69C83.77,-36.83 81.31,-26.52 72.18,-19.36"/>
<polygon fill="#63b8ff" stroke="#63b8ff" points="76.92,-43.38 73.31,-53.34 82.34,-47.8 76.92,-43.38"/>
</g>
</g>
</svg>
