<?xml version="1.0" encoding="UTF-8" standalone="no"?>
<!DOCTYPE svg PUBLIC "-//W3C//DTD SVG 1.1//EN"
 "http://www.w3.org/Graphics/SVG/1.1/DTD/svg11.dtd">
<!-- Generated by graphviz version 9.0.0 (20230911.1827)
 -->
<!-- Title: Ogre::HlmsUnlit Pages: 1 -->
<svg width="266pt" height="193pt"
 viewBox="0.00 0.00 265.88 193.00" xmlns="http://www.w3.org/2000/svg" xmlns:xlink="http://www.w3.org/1999/xlink">
<g id="graph0" class="graph" transform="scale(1 1) rotate(0) translate(4 189)">
<title>Ogre::HlmsUnlit</title>
<!-- Node1 -->
<g id="Node000001" class="node">
<title>Node1</title>
<g id="a_Node000001"><a xlink:title="Implementation without lighting or skeletal animation specfically designed for OpenGL 3+,...">
<polygon fill="#999999" stroke="#666666" points="175.38,-19.25 90.38,-19.25 90.38,0 175.38,0 175.38,-19.25"/>
<text text-anchor="middle" x="132.88" y="-5.75" font-family="Helvetica,sans-Serif" font-size="10.00">Ogre::HlmsUnlit</text>
</a>
</g>
</g>
<!-- Node2 -->
<g id="Node000002" class="node">
<title>Node2</title>
<g id="a_Node000002"><a xlink:href="class_ogre_1_1_hlms_buffer_manager.html" target="_top" xlink:title="Managing constant and texture buffers for sending shader parameters is a very similar process to most...">
<polygon fill="white" stroke="#666666" points="127.75,-74.5 0,-74.5 0,-55.25 127.75,-55.25 127.75,-74.5"/>
<text text-anchor="middle" x="63.88" y="-61" font-family="Helvetica,sans-Serif" font-size="10.00">Ogre::HlmsBufferManager</text>
</a>
</g>
</g>
<!-- Node2&#45;&gt;Node1 -->
<g id="edge1_Node000001_Node000002" class="edge">
<title>Node2&#45;&gt;Node1</title>
<g id="a_edge1_Node000001_Node000002"><a xlink:title=" ">
<path fill="none" stroke="#63b8ff" d="M84.52,-47.94C96.57,-38.64 111.32,-27.26 121.34,-19.52"/>
<polygon fill="#63b8ff" stroke="#63b8ff" points="82.56,-45.04 76.78,-53.92 86.83,-50.58 82.56,-45.04"/>
</a>
</g>
</g>
<!-- Node3 -->
<g id="Node000003" class="node">
<title>Node3</title>
<g id="a_Node000003"><a xlink:href="class_ogre_1_1_hlms.html" target="_top" xlink:title="HLMS stands for &quot;High Level Material System&quot;.">
<polygon fill="white" stroke="#666666" points="96.25,-129.75 31.5,-129.75 31.5,-110.5 96.25,-110.5 96.25,-129.75"/>
<text text-anchor="middle" x="63.88" y="-116.25" font-family="Helvetica,sans-Serif" font-size="10.00">Ogre::Hlms</text>
</a>
</g>
</g>
<!-- Node3&#45;&gt;Node2 -->
<g id="edge2_Node000002_Node000003" class="edge">
<title>Node3&#45;&gt;Node2</title>
<g id="a_edge2_Node000002_Node000003"><a xlink:title=" ">
<path fill="none" stroke="#63b8ff" d="M63.88,-98.88C63.88,-90.59 63.88,-81.42 63.88,-74.86"/>
<polygon fill="#63b8ff" stroke="#63b8ff" points="60.38,-98.82 63.88,-108.82 67.38,-98.82 60.38,-98.82"/>
</a>
</g>
</g>
<!-- Node4 -->
<g id="Node000004" class="node">
<title>Node4</title>
<g id="a_Node000004"><a xlink:href="class_ogre_1_1_allocated_object.html" target="_top" xlink:title="Superclass for all objects that wish to use custom memory allocators when their new / delete operator...">
<polygon fill="white" stroke="#666666" points="94.38,-185 33.38,-185 33.38,-165.75 94.38,-165.75 94.38,-185"/>
<text text-anchor="middle" x="63.88" y="-171.5" font-family="Helvetica,sans-Serif" font-size="10.00">HlmsAlloc</text>
</a>
</g>
</g>
<!-- Node4&#45;&gt;Node3 -->
<g id="edge3_Node000003_Node000004" class="edge">
<title>Node4&#45;&gt;Node3</title>
<g id="a_edge3_Node000003_Node000004"><a xlink:title=" ">
<path fill="none" stroke="#63b8ff" d="M63.88,-154.13C63.88,-145.84 63.88,-136.67 63.88,-130.11"/>
<polygon fill="#63b8ff" stroke="#63b8ff" points="60.38,-154.07 63.88,-164.07 67.38,-154.07 60.38,-154.07"/>
</a>
</g>
</g>
<!-- Node5 -->
<g id="Node000005" class="node">
<title>Node5</title>
<g id="a_Node000005"><a xlink:href="class_ogre_1_1_const_buffer_pool.html" target="_top" xlink:title="Maintains a pool of buffers grouped by hash ID.">
<polygon fill="white" stroke="#666666" points="257.88,-74.5 145.88,-74.5 145.88,-55.25 257.88,-55.25 257.88,-74.5"/>
<text text-anchor="middle" x="201.88" y="-61" font-family="Helvetica,sans-Serif" font-size="10.00">Ogre::ConstBufferPool</text>
</a>
</g>
</g>
<!-- Node5&#45;&gt;Node1 -->
<g id="edge4_Node000001_Node000005" class="edge">
<title>Node5&#45;&gt;Node1</title>
<g id="a_edge4_Node000001_Node000005"><a xlink:title=" ">
<path fill="none" stroke="#63b8ff" d="M181.23,-47.94C169.18,-38.64 154.43,-27.26 144.41,-19.52"/>
<polygon fill="#63b8ff" stroke="#63b8ff" points="178.92,-50.58 188.97,-53.92 183.19,-45.04 178.92,-50.58"/>
</a>
</g>
</g>
</g>
</svg>
