<?xml version="1.0" encoding="UTF-8" standalone="no"?>
<!DOCTYPE svg PUBLIC "-//W3C//DTD SVG 1.1//EN"
 "http://www.w3.org/Graphics/SVG/1.1/DTD/svg11.dtd">
<!-- Generated by graphviz version 7.0.5 (20221223.1930)
 -->
<!-- Title: Ogre::ScriptLoader Pages: 1 -->
<svg width="674pt" height="397pt"
 viewBox="0.00 0.00 674.00 397.00" xmlns="http://www.w3.org/2000/svg" xmlns:xlink="http://www.w3.org/1999/xlink">
<g id="graph0" class="graph" transform="scale(1 1) rotate(0) translate(4 393)">
<title>Ogre::ScriptLoader</title>
<!-- Node1 -->
<g id="node1" class="node">
<title>Node1</title>
<g id="a_node1"><a xlink:title="Abstract class defining the interface used by classes which wish to perform script loading to define ...">
<polygon fill="#999999" stroke="#666666" points="98,-222 0,-222 0,-203 98,-203 98,-222"/>
<text text-anchor="middle" x="49" y="-210" font-family="Helvetica,sans-Serif" font-size="10.00">Ogre::ScriptLoader</text>
</a>
</g>
</g>
<!-- Node2 -->
<g id="node2" class="node">
<title>Node2</title>
<g id="a_node2"><a xlink:href="class_ogre_1_1_hlms_manager.html" target="_top" xlink:title="HLMS stands for &quot;High Level Material System&quot;.">
<polygon fill="white" stroke="#666666" points="258.5,-315 155.5,-315 155.5,-296 258.5,-296 258.5,-315"/>
<text text-anchor="middle" x="207" y="-303" font-family="Helvetica,sans-Serif" font-size="10.00">Ogre::HlmsManager</text>
</a>
</g>
</g>
<!-- Node1&#45;&gt;Node2 -->
<g id="edge1" class="edge">
<title>Node1&#45;&gt;Node2</title>
<path fill="none" stroke="#63b8ff" d="M65.82,-231.05C81.45,-248.2 106.88,-273.14 134,-287.5 140.6,-291 147.91,-293.83 155.27,-296.13"/>
<polygon fill="#63b8ff" stroke="#63b8ff" points="68.45,-228.74 59.2,-223.57 63.21,-233.38 68.45,-228.74"/>
</g>
<!-- Node3 -->
<g id="node3" class="node">
<title>Node3</title>
<g id="a_node3"><a xlink:href="class_ogre_1_1_particle_system_manager.html" target="_top" xlink:title="Manages particle systems, particle system scripts (templates) and the available emitter &amp; affector fa...">
<polygon fill="white" stroke="#666666" points="280,-278 134,-278 134,-259 280,-259 280,-278"/>
<text text-anchor="middle" x="207" y="-266" font-family="Helvetica,sans-Serif" font-size="10.00">Ogre::ParticleSystemManager</text>
</a>
</g>
</g>
<!-- Node1&#45;&gt;Node3 -->
<g id="edge2" class="edge">
<title>Node1&#45;&gt;Node3</title>
<path fill="none" stroke="#63b8ff" d="M79.52,-227.43C95.39,-235.05 115.45,-244.05 134,-250.5 142.64,-253.51 152.03,-256.23 161.08,-258.6"/>
<polygon fill="#63b8ff" stroke="#63b8ff" points="81.16,-224.34 70.64,-223.09 78.09,-230.63 81.16,-224.34"/>
</g>
<!-- Node4 -->
<g id="node4" class="node">
<title>Node4</title>
<g id="a_node4"><a xlink:href="class_ogre_1_1_quake3_shader_manager.html" target="_top" xlink:title="Class for managing Quake3 custom shaders.">
<polygon fill="white" stroke="#666666" points="279,-241 135,-241 135,-222 279,-222 279,-241"/>
<text text-anchor="middle" x="207" y="-229" font-family="Helvetica,sans-Serif" font-size="10.00">Ogre::Quake3ShaderManager</text>
</a>
</g>
</g>
<!-- Node1&#45;&gt;Node4 -->
<g id="edge3" class="edge">
<title>Node1&#45;&gt;Node4</title>
<path fill="none" stroke="#63b8ff" d="M109.45,-219.74C117.66,-220.74 126.17,-221.78 134.57,-222.8"/>
<polygon fill="#63b8ff" stroke="#63b8ff" points="109.93,-216.27 99.58,-218.54 109.08,-223.22 109.93,-216.27"/>
</g>
<!-- Node5 -->
<g id="node5" class="node">
<title>Node5</title>
<g id="a_node5"><a xlink:href="class_ogre_1_1_resource_manager.html" target="_top" xlink:title="Defines a generic resource handler.">
<polygon fill="white" stroke="#666666" points="267.5,-204 146.5,-204 146.5,-185 267.5,-185 267.5,-204"/>
<text text-anchor="middle" x="207" y="-192" font-family="Helvetica,sans-Serif" font-size="10.00">Ogre::ResourceManager</text>
</a>
</g>
</g>
<!-- Node1&#45;&gt;Node5 -->
<g id="edge4" class="edge">
<title>Node1&#45;&gt;Node5</title>
<path fill="none" stroke="#63b8ff" d="M109.41,-205.64C121.47,-204.25 134.17,-202.79 146.24,-201.4"/>
<polygon fill="#63b8ff" stroke="#63b8ff" points="109.11,-202.16 99.58,-206.78 109.92,-209.11 109.11,-202.16"/>
</g>
<!-- Node26 -->
<g id="node26" class="node">
<title>Node26</title>
<g id="a_node26"><a xlink:href="class_ogre_1_1_script_compiler_manager.html" target="_top" xlink:title="Manages threaded compilation of scripts.">
<polygon fill="white" stroke="#666666" points="278.5,-167 135.5,-167 135.5,-148 278.5,-148 278.5,-167"/>
<text text-anchor="middle" x="207" y="-155" font-family="Helvetica,sans-Serif" font-size="10.00">Ogre::ScriptCompilerManager</text>
</a>
</g>
</g>
<!-- Node1&#45;&gt;Node26 -->
<g id="edge25" class="edge">
<title>Node1&#45;&gt;Node26</title>
<path fill="none" stroke="#63b8ff" d="M80.91,-197.96C96.6,-190.92 116.08,-182.67 134,-176.5 143.66,-173.18 154.21,-170.09 164.19,-167.42"/>
<polygon fill="#63b8ff" stroke="#63b8ff" points="79.75,-194.65 72.1,-201.98 82.65,-201.01 79.75,-194.65"/>
</g>
<!-- Node27 -->
<g id="node27" class="node">
<title>Node27</title>
<g id="a_node27"><a xlink:href="class_ogre_1_1v1_1_1_overlay_manager.html" target="_top" xlink:title="Manages Overlay objects, parsing them from .overlay files and storing a lookup library of them.">
<polygon fill="white" stroke="#666666" points="271,-130 143,-130 143,-111 271,-111 271,-130"/>
<text text-anchor="middle" x="207" y="-118" font-family="Helvetica,sans-Serif" font-size="10.00">Ogre::v1::OverlayManager</text>
</a>
</g>
</g>
<!-- Node1&#45;&gt;Node27 -->
<g id="edge26" class="edge">
<title>Node1&#45;&gt;Node27</title>
<path fill="none" stroke="#63b8ff" d="M65.96,-194.54C81.69,-177.91 107.2,-153.68 134,-139.5 140.86,-135.87 148.45,-132.9 156.07,-130.48"/>
<polygon fill="#63b8ff" stroke="#63b8ff" points="63.5,-192.04 59.31,-201.77 68.65,-196.78 63.5,-192.04"/>
</g>
<!-- Node6 -->
<g id="node6" class="node">
<title>Node6</title>
<g id="a_node6"><a xlink:href="class_ogre_1_1_bsp_resource_manager.html" target="_top" xlink:title="Manages the locating and loading of BSP&#45;based indoor levels.">
<polygon fill="white" stroke="#666666" points="459,-364 321,-364 321,-345 459,-345 459,-364"/>
<text text-anchor="middle" x="390" y="-352" font-family="Helvetica,sans-Serif" font-size="10.00">Ogre::BspResourceManager</text>
</a>
</g>
</g>
<!-- Node5&#45;&gt;Node6 -->
<g id="edge5" class="edge">
<title>Node5&#45;&gt;Node6</title>
<path fill="none" stroke="#63b8ff" d="M276.65,-210.54C277.81,-211.48 278.93,-212.46 280,-213.5 320.81,-253.24 274.87,-297.1 316,-336.5 319.39,-339.75 323.28,-342.44 327.44,-344.67"/>
<polygon fill="#63b8ff" stroke="#63b8ff" points="278.6,-207.63 268.29,-205.19 274.82,-213.53 278.6,-207.63"/>
</g>
<!-- Node7 -->
<g id="node7" class="node">
<title>Node7</title>
<g id="a_node7"><a xlink:href="class_ogre_1_1_font_manager.html" target="_top" xlink:title="Manages Font resources, parsing .fontdef files and generally organising them.">
<polygon fill="white" stroke="#666666" points="439.5,-327 340.5,-327 340.5,-308 439.5,-308 439.5,-327"/>
<text text-anchor="middle" x="390" y="-315" font-family="Helvetica,sans-Serif" font-size="10.00">Ogre::FontManager</text>
</a>
</g>
</g>
<!-- Node5&#45;&gt;Node7 -->
<g id="edge6" class="edge">
<title>Node5&#45;&gt;Node7</title>
<path fill="none" stroke="#63b8ff" d="M275.47,-209.98C277.04,-211.07 278.56,-212.25 280,-213.5 311.26,-240.7 284.52,-272.55 316,-299.5 322.84,-305.36 331.3,-309.37 340,-312.09"/>
<polygon fill="#63b8ff" stroke="#63b8ff" points="277.61,-207.17 267.19,-205.24 274.14,-213.25 277.61,-207.17"/>
</g>
<!-- Node8 -->
<g id="node8" class="node">
<title>Node8</title>
<g id="a_node8"><a xlink:href="class_ogre_1_1_gpu_program_manager.html" target="_top" xlink:title=" ">
<polygon fill="white" stroke="#666666" points="457,-290 323,-290 323,-271 457,-271 457,-290"/>
<text text-anchor="middle" x="390" y="-278" font-family="Helvetica,sans-Serif" font-size="10.00">Ogre::GpuProgramManager</text>
</a>
</g>
</g>
<!-- Node5&#45;&gt;Node8 -->
<g id="edge7" class="edge">
<title>Node5&#45;&gt;Node8</title>
<path fill="none" stroke="#63b8ff" d="M272.47,-209.06C275.08,-210.41 277.61,-211.89 280,-213.5 302.12,-228.39 293.86,-246.64 316,-261.5 321.55,-265.22 327.78,-268.21 334.21,-270.62"/>
<polygon fill="#63b8ff" stroke="#63b8ff" points="273.99,-205.91 263.43,-205.07 271.16,-212.31 273.99,-205.91"/>
</g>
<!-- Node14 -->
<g id="node14" class="node">
<title>Node14</title>
<g id="a_node14"><a xlink:href="class_ogre_1_1_high_level_gpu_program_manager.html" target="_top" xlink:title="This ResourceManager manages high&#45;level vertex and fragment programs.">
<polygon fill="white" stroke="#666666" points="460.5,-252.5 319.5,-252.5 319.5,-222.5 460.5,-222.5 460.5,-252.5"/>
<text text-anchor="start" x="327.5" y="-240.5" font-family="Helvetica,sans-Serif" font-size="10.00">Ogre::HighLevelGpuProgram</text>
<text text-anchor="middle" x="390" y="-229.5" font-family="Helvetica,sans-Serif" font-size="10.00">Manager</text>
</a>
</g>
</g>
<!-- Node5&#45;&gt;Node14 -->
<g id="edge13" class="edge">
<title>Node5&#45;&gt;Node14</title>
<path fill="none" stroke="#63b8ff" d="M261.17,-207.13C280.8,-211.8 303.28,-217.13 323.85,-222.02"/>
<polygon fill="#63b8ff" stroke="#63b8ff" points="261.99,-203.73 251.45,-204.82 260.37,-210.54 261.99,-203.73"/>
</g>
<!-- Node15 -->
<g id="node15" class="node">
<title>Node15</title>
<g id="a_node15"><a xlink:href="class_ogre_1_1_material_manager.html" target="_top" xlink:title="Class for managing Material settings for Ogre.">
<polygon fill="white" stroke="#666666" points="447,-204 333,-204 333,-185 447,-185 447,-204"/>
<text text-anchor="middle" x="390" y="-192" font-family="Helvetica,sans-Serif" font-size="10.00">Ogre::MaterialManager</text>
</a>
</g>
</g>
<!-- Node5&#45;&gt;Node15 -->
<g id="edge14" class="edge">
<title>Node5&#45;&gt;Node15</title>
<path fill="none" stroke="#63b8ff" d="M279.25,-194.5C296.99,-194.5 315.76,-194.5 332.67,-194.5"/>
<polygon fill="#63b8ff" stroke="#63b8ff" points="279.28,-191 269.28,-194.5 279.28,-198 279.28,-191"/>
</g>
<!-- Node16 -->
<g id="node16" class="node">
<title>Node16</title>
<g id="a_node16"><a xlink:href="class_ogre_1_1_mesh_manager.html" target="_top" xlink:title="Handles the management of mesh resources.">
<polygon fill="white" stroke="#666666" points="442,-167 338,-167 338,-148 442,-148 442,-167"/>
<text text-anchor="middle" x="390" y="-155" font-family="Helvetica,sans-Serif" font-size="10.00">Ogre::MeshManager</text>
</a>
</g>
</g>
<!-- Node5&#45;&gt;Node16 -->
<g id="edge15" class="edge">
<title>Node5&#45;&gt;Node16</title>
<path fill="none" stroke="#63b8ff" d="M267.78,-182.28C291.33,-177.47 318.03,-172.01 340.36,-167.44"/>
<polygon fill="#63b8ff" stroke="#63b8ff" points="267.08,-178.85 257.99,-184.28 268.49,-185.71 267.08,-178.85"/>
</g>
<!-- Node17 -->
<g id="node17" class="node">
<title>Node17</title>
<g id="a_node17"><a xlink:href="class_ogre_1_1_texture_manager.html" target="_top" xlink:title="Class for loading &amp; managing textures.">
<polygon fill="white" stroke="#666666" points="446,-130 334,-130 334,-111 446,-111 446,-130"/>
<text text-anchor="middle" x="390" y="-118" font-family="Helvetica,sans-Serif" font-size="10.00">Ogre::TextureManager</text>
</a>
</g>
</g>
<!-- Node5&#45;&gt;Node17 -->
<g id="edge16" class="edge">
<title>Node5&#45;&gt;Node17</title>
<path fill="none" stroke="#63b8ff" d="M272.66,-180.27C275.19,-179.11 277.64,-177.86 280,-176.5 299.89,-165.06 296.17,-151.04 316,-139.5 322.34,-135.81 329.4,-132.83 336.56,-130.42"/>
<polygon fill="#63b8ff" stroke="#63b8ff" points="271.38,-177.01 263.39,-183.97 273.98,-183.51 271.38,-177.01"/>
</g>
<!-- Node24 -->
<g id="node24" class="node">
<title>Node24</title>
<g id="a_node24"><a xlink:href="class_ogre_1_1v1_1_1_mesh_manager.html" target="_top" xlink:title="Handles the management of mesh resources.">
<polygon fill="white" stroke="#666666" points="449.5,-93 330.5,-93 330.5,-74 449.5,-74 449.5,-93"/>
<text text-anchor="middle" x="390" y="-81" font-family="Helvetica,sans-Serif" font-size="10.00">Ogre::v1::MeshManager</text>
</a>
</g>
</g>
<!-- Node5&#45;&gt;Node24 -->
<g id="edge23" class="edge">
<title>Node5&#45;&gt;Node24</title>
<path fill="none" stroke="#63b8ff" d="M276.51,-179.11C277.71,-178.28 278.87,-177.41 280,-176.5 308.4,-153.46 287.71,-125.68 316,-102.5 320.46,-98.85 325.54,-95.89 330.9,-93.5"/>
<polygon fill="#63b8ff" stroke="#63b8ff" points="275.04,-175.91 268.05,-183.87 278.48,-182.01 275.04,-175.91"/>
</g>
<!-- Node25 -->
<g id="node25" class="node">
<title>Node25</title>
<g id="a_node25"><a xlink:href="class_ogre_1_1v1_1_1_old_skeleton_manager.html" target="_top" xlink:title="Handles the management of skeleton resources.">
<polygon fill="white" stroke="#666666" points="464,-56 316,-56 316,-37 464,-37 464,-56"/>
<text text-anchor="middle" x="390" y="-44" font-family="Helvetica,sans-Serif" font-size="10.00">Ogre::v1::OldSkeletonManager</text>
</a>
</g>
</g>
<!-- Node5&#45;&gt;Node25 -->
<g id="edge24" class="edge">
<title>Node5&#45;&gt;Node25</title>
<path fill="none" stroke="#63b8ff" d="M277.58,-178.61C278.41,-177.93 279.22,-177.23 280,-176.5 317.91,-141.11 278.26,-101.08 316,-65.5 319.91,-61.82 324.43,-58.83 329.28,-56.4"/>
<polygon fill="#63b8ff" stroke="#63b8ff" points="275.7,-175.66 269.2,-184.02 279.5,-181.54 275.7,-175.66"/>
</g>
<!-- Node9 -->
<g id="node9" class="node">
<title>Node9</title>
<g id="a_node9"><a xlink:href="class_ogre_1_1_d3_d11_gpu_program_manager.html" target="_top" xlink:title=" ">
<polygon fill="white" stroke="#666666" points="665,-389 501,-389 501,-370 665,-370 665,-389"/>
<text text-anchor="middle" x="583" y="-377" font-family="Helvetica,sans-Serif" font-size="10.00">Ogre::D3D11GpuProgramManager</text>
</a>
</g>
</g>
<!-- Node8&#45;&gt;Node9 -->
<g id="edge8" class="edge">
<title>Node8&#45;&gt;Node9</title>
<path fill="none" stroke="#63b8ff" d="M457.98,-295.46C460.07,-296.7 462.09,-298.05 464,-299.5 489.37,-318.78 474.26,-342.72 500,-361.5 504.47,-364.76 509.43,-367.46 514.62,-369.67"/>
<polygon fill="#63b8ff" stroke="#63b8ff" points="459.59,-292.35 449.08,-291.04 456.48,-298.62 459.59,-292.35"/>
</g>
<!-- Node10 -->
<g id="node10" class="node">
<title>Node10</title>
<g id="a_node10"><a xlink:href="class_ogre_1_1_d3_d9_gpu_program_manager.html" target="_top" xlink:title=" ">
<polygon fill="white" stroke="#666666" points="662,-352 504,-352 504,-333 662,-333 662,-352"/>
<text text-anchor="middle" x="583" y="-340" font-family="Helvetica,sans-Serif" font-size="10.00">Ogre::D3D9GpuProgramManager</text>
</a>
</g>
</g>
<!-- Node8&#45;&gt;Node10 -->
<g id="edge9" class="edge">
<title>Node8&#45;&gt;Node10</title>
<path fill="none" stroke="#63b8ff" d="M449.76,-293.83C454.65,-295.53 459.46,-297.41 464,-299.5 481.7,-307.63 482.15,-316.71 500,-324.5 507.35,-327.71 515.32,-330.37 523.32,-332.57"/>
<polygon fill="#63b8ff" stroke="#63b8ff" points="451,-290.55 440.41,-290.86 448.88,-297.22 451,-290.55"/>
</g>
<!-- Node11 -->
<g id="node11" class="node">
<title>Node11</title>
<g id="a_node11"><a xlink:href="class_ogre_1_1_g_l_e_s2_gpu_program_manager.html" target="_top" xlink:title=" ">
<polygon fill="white" stroke="#666666" points="666,-315 500,-315 500,-296 666,-296 666,-315"/>
<text text-anchor="middle" x="583" y="-303" font-family="Helvetica,sans-Serif" font-size="10.00">Ogre::GLES2GpuProgramManager</text>
</a>
</g>
</g>
<!-- Node8&#45;&gt;Node11 -->
<g id="edge10" class="edge">
<title>Node8&#45;&gt;Node11</title>
<path fill="none" stroke="#63b8ff" d="M468.42,-290.63C480.71,-292.24 493.42,-293.91 505.69,-295.51"/>
<polygon fill="#63b8ff" stroke="#63b8ff" points="469.14,-287.2 458.77,-289.37 468.23,-294.14 469.14,-287.2"/>
</g>
<!-- Node12 -->
<g id="node12" class="node">
<title>Node12</title>
<g id="a_node12"><a xlink:href="class_ogre_1_1_g_l_s_l_shader_manager.html" target="_top" xlink:title=" ">
<polygon fill="white" stroke="#666666" points="651.5,-278 514.5,-278 514.5,-259 651.5,-259 651.5,-278"/>
<text text-anchor="middle" x="583" y="-266" font-family="Helvetica,sans-Serif" font-size="10.00">Ogre::GLSLShaderManager</text>
</a>
</g>
</g>
<!-- Node8&#45;&gt;Node12 -->
<g id="edge11" class="edge">
<title>Node8&#45;&gt;Node12</title>
<path fill="none" stroke="#63b8ff" d="M468.67,-275.62C483.77,-274.67 499.48,-273.68 514.23,-272.76"/>
<polygon fill="#63b8ff" stroke="#63b8ff" points="468.54,-272.12 458.78,-276.24 468.98,-279.11 468.54,-272.12"/>
</g>
<!-- Node13 -->
<g id="node13" class="node">
<title>Node13</title>
<g id="a_node13"><a xlink:href="class_ogre_1_1_metal_gpu_program_manager.html" target="_top" xlink:title=" ">
<polygon fill="white" stroke="#666666" points="662,-241 504,-241 504,-222 662,-222 662,-241"/>
<text text-anchor="middle" x="583" y="-229" font-family="Helvetica,sans-Serif" font-size="10.00">Ogre::MetalGpuProgramManager</text>
</a>
</g>
</g>
<!-- Node8&#45;&gt;Node13 -->
<g id="edge12" class="edge">
<title>Node8&#45;&gt;Node13</title>
<path fill="none" stroke="#63b8ff" d="M441.43,-267.67C449.01,-265.66 456.72,-263.56 464,-261.5 480.1,-256.95 483.84,-254.84 500,-250.5 511.71,-247.36 524.45,-244.25 536.32,-241.5"/>
<polygon fill="#63b8ff" stroke="#63b8ff" points="440.73,-264.23 431.95,-270.16 442.51,-271 440.73,-264.23"/>
</g>
<!-- Node18 -->
<g id="node18" class="node">
<title>Node18</title>
<g id="a_node18"><a xlink:href="class_ogre_1_1_d3_d11_texture_manager.html" target="_top" xlink:title=" ">
<polygon fill="white" stroke="#666666" points="653.5,-204 512.5,-204 512.5,-185 653.5,-185 653.5,-204"/>
<text text-anchor="middle" x="583" y="-192" font-family="Helvetica,sans-Serif" font-size="10.00">Ogre::D3D11TextureManager</text>
</a>
</g>
</g>
<!-- Node17&#45;&gt;Node18 -->
<g id="edge17" class="edge">
<title>Node17&#45;&gt;Node18</title>
<path fill="none" stroke="#63b8ff" d="M454.03,-134.48C457.48,-135.99 460.83,-137.66 464,-139.5 483.83,-151.04 479.95,-165.35 500,-176.5 505.86,-179.76 512.26,-182.43 518.82,-184.61"/>
<polygon fill="#63b8ff" stroke="#63b8ff" points="455.44,-131.27 444.85,-130.96 452.94,-137.81 455.44,-131.27"/>
</g>
<!-- Node19 -->
<g id="node19" class="node">
<title>Node19</title>
<g id="a_node19"><a xlink:href="class_ogre_1_1_d3_d9_texture_manager.html" target="_top" xlink:title=" ">
<polygon fill="white" stroke="#666666" points="651,-167 515,-167 515,-148 651,-148 651,-167"/>
<text text-anchor="middle" x="583" y="-155" font-family="Helvetica,sans-Serif" font-size="10.00">Ogre::D3D9TextureManager</text>
</a>
</g>
</g>
<!-- Node17&#45;&gt;Node19 -->
<g id="edge18" class="edge">
<title>Node17&#45;&gt;Node19</title>
<path fill="none" stroke="#63b8ff" d="M453.61,-132.63C478.5,-137.45 506.79,-142.93 530.47,-147.52"/>
<polygon fill="#63b8ff" stroke="#63b8ff" points="454.4,-129.22 443.92,-130.75 453.07,-136.09 454.4,-129.22"/>
</g>
<!-- Node20 -->
<g id="node20" class="node">
<title>Node20</title>
<g id="a_node20"><a xlink:href="class_ogre_1_1_g_l3_plus_texture_manager.html" target="_top" xlink:title="GL3Plus&#45;specific implementation of a TextureManager.">
<polygon fill="white" stroke="#666666" points="658,-130 508,-130 508,-111 658,-111 658,-130"/>
<text text-anchor="middle" x="583" y="-118" font-family="Helvetica,sans-Serif" font-size="10.00">Ogre::GL3PlusTextureManager</text>
</a>
</g>
</g>
<!-- Node17&#45;&gt;Node20 -->
<g id="edge19" class="edge">
<title>Node17&#45;&gt;Node20</title>
<path fill="none" stroke="#63b8ff" d="M457.75,-120.5C473.89,-120.5 491.23,-120.5 507.69,-120.5"/>
<polygon fill="#63b8ff" stroke="#63b8ff" points="457.76,-117 447.76,-120.5 457.76,-124 457.76,-117"/>
</g>
<!-- Node21 -->
<g id="node21" class="node">
<title>Node21</title>
<g id="a_node21"><a xlink:href="class_ogre_1_1_g_l_e_s2_texture_manager.html" target="_top" xlink:title="GL ES&#45;specific implementation of a TextureManager.">
<polygon fill="white" stroke="#666666" points="654.5,-93 511.5,-93 511.5,-74 654.5,-74 654.5,-93"/>
<text text-anchor="middle" x="583" y="-81" font-family="Helvetica,sans-Serif" font-size="10.00">Ogre::GLES2TextureManager</text>
</a>
</g>
</g>
<!-- Node17&#45;&gt;Node21 -->
<g id="edge20" class="edge">
<title>Node17&#45;&gt;Node21</title>
<path fill="none" stroke="#63b8ff" d="M453.61,-108.37C478.5,-103.55 506.79,-98.07 530.47,-93.48"/>
<polygon fill="#63b8ff" stroke="#63b8ff" points="453.07,-104.91 443.92,-110.25 454.4,-111.78 453.07,-104.91"/>
</g>
<!-- Node22 -->
<g id="node22" class="node">
<title>Node22</title>
<g id="a_node22"><a xlink:href="class_ogre_1_1_metal_texture_manager.html" target="_top" xlink:title=" ">
<polygon fill="white" stroke="#666666" points="651,-56 515,-56 515,-37 651,-37 651,-56"/>
<text text-anchor="middle" x="583" y="-44" font-family="Helvetica,sans-Serif" font-size="10.00">Ogre::MetalTextureManager</text>
</a>
</g>
</g>
<!-- Node17&#45;&gt;Node22 -->
<g id="edge21" class="edge">
<title>Node17&#45;&gt;Node22</title>
<path fill="none" stroke="#63b8ff" d="M456.28,-106.43C458.94,-105.23 461.52,-103.92 464,-102.5 483.91,-91.09 480.01,-76.77 500,-65.5 506.49,-61.84 513.65,-58.88 520.96,-56.5"/>
<polygon fill="#63b8ff" stroke="#63b8ff" points="455.16,-103.11 447.14,-110.04 457.73,-109.62 455.16,-103.11"/>
</g>
<!-- Node23 -->
<g id="node23" class="node">
<title>Node23</title>
<g id="a_node23"><a xlink:href="class_ogre_1_1_n_u_l_l_texture_manager.html" target="_top" xlink:title=" ">
<polygon fill="white" stroke="#666666" points="652.5,-19 513.5,-19 513.5,0 652.5,0 652.5,-19"/>
<text text-anchor="middle" x="583" y="-7" font-family="Helvetica,sans-Serif" font-size="10.00">Ogre::NULLTextureManager</text>
</a>
</g>
</g>
<!-- Node17&#45;&gt;Node23 -->
<g id="edge22" class="edge">
<title>Node17&#45;&gt;Node23</title>
<path fill="none" stroke="#63b8ff" d="M456.36,-107.73C459.05,-106.18 461.61,-104.44 464,-102.5 492.69,-79.18 471.01,-50.45 500,-27.5 504.11,-24.24 508.69,-21.55 513.52,-19.32"/>
<polygon fill="#63b8ff" stroke="#63b8ff" points="455.05,-104.47 447.52,-111.93 458.05,-110.8 455.05,-104.47"/>
</g>
</g>
</svg>
