<?xml version="1.0" encoding="UTF-8" standalone="no"?>
<!DOCTYPE svg PUBLIC "-//W3C//DTD SVG 1.1//EN"
 "http://www.w3.org/Graphics/SVG/1.1/DTD/svg11.dtd">
<!-- Generated by graphviz version 7.0.5 (20221223.1930)
 -->
<!-- Title: Ogre::LodInputProvider Pages: 1 -->
<svg width="308pt" height="82pt"
 viewBox="0.00 0.00 308.00 82.00" xmlns="http://www.w3.org/2000/svg" xmlns:xlink="http://www.w3.org/1999/xlink">
<g id="graph0" class="graph" transform="scale(1 1) rotate(0) translate(4 78)">
<title>Ogre::LodInputProvider</title>
<!-- Node1 -->
<g id="node1" class="node">
<title>Node1</title>
<g id="a_node1"><a xlink:title=" ">
<polygon fill="#999999" stroke="#666666" points="208,-74 92,-74 92,-55 208,-55 208,-74"/>
<text text-anchor="middle" x="150" y="-62" font-family="Helvetica,sans-Serif" font-size="10.00">Ogre::LodInputProvider</text>
</a>
</g>
</g>
<!-- Node2 -->
<g id="node2" class="node">
<title>Node2</title>
<g id="a_node2"><a xlink:href="class_ogre_1_1_lod_input_provider_buffer.html" target="_top" xlink:title=" ">
<polygon fill="white" stroke="#666666" points="142,-19 0,-19 0,0 142,0 142,-19"/>
<text text-anchor="middle" x="71" y="-7" font-family="Helvetica,sans-Serif" font-size="10.00">Ogre::LodInputProviderBuffer</text>
</a>
</g>
</g>
<!-- Node1&#45;&gt;Node2 -->
<g id="edge1" class="edge">
<title>Node1&#45;&gt;Node2</title>
<path fill="none" stroke="#63b8ff" d="M127.18,-48.19C113.24,-38.84 95.9,-27.21 84.2,-19.36"/>
<polygon fill="#63b8ff" stroke="#63b8ff" points="125.09,-51 135.34,-53.67 128.99,-45.19 125.09,-51"/>
</g>
<!-- Node3 -->
<g id="node3" class="node">
<title>Node3</title>
<g id="a_node3"><a xlink:href="class_ogre_1_1_lod_input_provider_mesh.html" target="_top" xlink:title=" ">
<polygon fill="white" stroke="#666666" points="300,-19 160,-19 160,0 300,0 300,-19"/>
<text text-anchor="middle" x="230" y="-7" font-family="Helvetica,sans-Serif" font-size="10.00">Ogre::LodInputProviderMesh</text>
</a>
</g>
</g>
<!-- Node1&#45;&gt;Node3 -->
<g id="edge2" class="edge">
<title>Node1&#45;&gt;Node3</title>
<path fill="none" stroke="#63b8ff" d="M173.11,-48.19C187.23,-38.84 204.78,-27.21 216.63,-19.36"/>
<polygon fill="#63b8ff" stroke="#63b8ff" points="171.24,-45.23 164.83,-53.67 175.1,-51.07 171.24,-45.23"/>
</g>
</g>
</svg>
