<?xml version="1.0" encoding="UTF-8" standalone="no"?>
<!DOCTYPE svg PUBLIC "-//W3C//DTD SVG 1.1//EN"
 "http://www.w3.org/Graphics/SVG/1.1/DTD/svg11.dtd">
<!-- Generated by graphviz version 7.0.5 (20221223.1930)
 -->
<!-- Title: Ogre::Codec::CodecData Pages: 1 -->
<svg width="282pt" height="148pt"
 viewBox="0.00 0.00 282.00 148.00" xmlns="http://www.w3.org/2000/svg" xmlns:xlink="http://www.w3.org/1999/xlink">
<g id="graph0" class="graph" transform="scale(1 1) rotate(0) translate(4 144)">
<title>Ogre::Codec::CodecData</title>
<!-- Node1 -->
<g id="node1" class="node">
<title>Node1</title>
<g id="a_node1"><a xlink:title=" ">
<polygon fill="#999999" stroke="#666666" points="187.5,-85 65.5,-85 65.5,-66 187.5,-66 187.5,-85"/>
<text text-anchor="middle" x="126.5" y="-73" font-family="Helvetica,sans-Serif" font-size="10.00">Ogre::Codec::CodecData</text>
</a>
</g>
</g>
<!-- Node3 -->
<g id="node3" class="node">
<title>Node3</title>
<g id="a_node3"><a xlink:href="class_ogre_1_1_image_codec2_1_1_image_data2.html" target="_top" xlink:title="Codec return class for images.">
<polygon fill="white" stroke="#666666" points="107,-30 0,-30 0,0 107,0 107,-30"/>
<text text-anchor="start" x="8" y="-18" font-family="Helvetica,sans-Serif" font-size="10.00">Ogre::ImageCodec2::</text>
<text text-anchor="middle" x="53.5" y="-7" font-family="Helvetica,sans-Serif" font-size="10.00">ImageData2</text>
</a>
</g>
</g>
<!-- Node1&#45;&gt;Node3 -->
<g id="edge2" class="edge">
<title>Node1&#45;&gt;Node3</title>
<path fill="none" stroke="#63b8ff" d="M106.58,-58.53C95.63,-49.76 82.15,-38.96 71.52,-30.44"/>
<polygon fill="#63b8ff" stroke="#63b8ff" points="104.24,-61.15 114.23,-64.67 108.62,-55.68 104.24,-61.15"/>
</g>
<!-- Node4 -->
<g id="node4" class="node">
<title>Node4</title>
<g id="a_node4"><a xlink:href="class_ogre_1_1_image_codec_1_1_image_data.html" target="_top" xlink:title="Codec return class for images.">
<polygon fill="white" stroke="#666666" points="274,-24.5 125,-24.5 125,-5.5 274,-5.5 274,-24.5"/>
<text text-anchor="middle" x="199.5" y="-12.5" font-family="Helvetica,sans-Serif" font-size="10.00">Ogre::ImageCodec::ImageData</text>
</a>
</g>
</g>
<!-- Node1&#45;&gt;Node4 -->
<g id="edge3" class="edge">
<title>Node1&#45;&gt;Node4</title>
<path fill="none" stroke="#63b8ff" d="M146.18,-58.73C159.69,-47.9 177.12,-33.93 188.31,-24.97"/>
<polygon fill="#63b8ff" stroke="#63b8ff" points="144.38,-55.68 138.77,-64.67 148.76,-61.15 144.38,-55.68"/>
</g>
<!-- Node2 -->
<g id="node2" class="node">
<title>Node2</title>
<g id="a_node2"><a xlink:href="class_ogre_1_1_allocated_object.html" target="_top" xlink:title="Superclass for all objects that wish to use custom memory allocators when their new / delete operator...">
<polygon fill="white" stroke="#666666" points="159.5,-140 93.5,-140 93.5,-121 159.5,-121 159.5,-140"/>
<text text-anchor="middle" x="126.5" y="-128" font-family="Helvetica,sans-Serif" font-size="10.00">CodecAlloc</text>
</a>
</g>
</g>
<!-- Node2&#45;&gt;Node1 -->
<g id="edge1" class="edge">
<title>Node2&#45;&gt;Node1</title>
<path fill="none" stroke="#63b8ff" d="M126.5,-109.35C126.5,-101.1 126.5,-91.97 126.5,-85.44"/>
<polygon fill="#63b8ff" stroke="#63b8ff" points="123,-109.23 126.5,-119.23 130,-109.23 123,-109.23"/>
</g>
</g>
</svg>
