<?xml version="1.0" encoding="UTF-8" standalone="no"?>
<!DOCTYPE svg PUBLIC "-//W3C//DTD SVG 1.1//EN"
 "http://www.w3.org/Graphics/SVG/1.1/DTD/svg11.dtd">
<!-- Generated by graphviz version 9.0.0 (20230911.1827)
 -->
<!-- Title: Ogre::PCZLight Pages: 1 -->
<svg width="373pt" height="193pt"
 viewBox="0.00 0.00 372.75 193.00" xmlns="http://www.w3.org/2000/svg" xmlns:xlink="http://www.w3.org/1999/xlink">
<g id="graph0" class="graph" transform="scale(1 1) rotate(0) translate(4 189)">
<title>Ogre::PCZLight</title>
<!-- Node1 -->
<g id="Node000001" class="node">
<title>Node1</title>
<g id="a_Node000001"><a xlink:title="Specialized version of Ogre::Light which caches which zones the light affects.">
<polygon fill="#999999" stroke="#666666" points="274.62,-19.25 191.88,-19.25 191.88,0 274.62,0 274.62,-19.25"/>
<text text-anchor="middle" x="233.25" y="-5.75" font-family="Helvetica,sans-Serif" font-size="10.00">Ogre::PCZLight</text>
</a>
</g>
</g>
<!-- Node2 -->
<g id="Node000002" class="node">
<title>Node2</title>
<g id="a_Node000002"><a xlink:href="class_ogre_1_1_light.html" target="_top" xlink:title="Representation of a dynamic light source in the scene.">
<polygon fill="white" stroke="#666666" points="264.88,-74.5 201.62,-74.5 201.62,-55.25 264.88,-55.25 264.88,-74.5"/>
<text text-anchor="middle" x="233.25" y="-61" font-family="Helvetica,sans-Serif" font-size="10.00">Ogre::Light</text>
</a>
</g>
</g>
<!-- Node2&#45;&gt;Node1 -->
<g id="edge1_Node000001_Node000002" class="edge">
<title>Node2&#45;&gt;Node1</title>
<g id="a_edge1_Node000001_Node000002"><a xlink:title=" ">
<path fill="none" stroke="#63b8ff" d="M233.25,-43.63C233.25,-35.34 233.25,-26.17 233.25,-19.61"/>
<polygon fill="#63b8ff" stroke="#63b8ff" points="229.75,-43.57 233.25,-53.57 236.75,-43.57 229.75,-43.57"/>
</a>
</g>
</g>
<!-- Node3 -->
<g id="Node000003" class="node">
<title>Node3</title>
<g id="a_Node000003"><a xlink:href="class_ogre_1_1_movable_object.html" target="_top" xlink:title="Abstract class defining a movable object in a scene.">
<polygon fill="white" stroke="#666666" points="219.62,-129.75 112.88,-129.75 112.88,-110.5 219.62,-110.5 219.62,-129.75"/>
<text text-anchor="middle" x="166.25" y="-116.25" font-family="Helvetica,sans-Serif" font-size="10.00">Ogre::MovableObject</text>
</a>
</g>
</g>
<!-- Node3&#45;&gt;Node2 -->
<g id="edge2_Node000002_Node000003" class="edge">
<title>Node3&#45;&gt;Node2</title>
<g id="a_edge2_Node000002_Node000003"><a xlink:title=" ">
<path fill="none" stroke="#63b8ff" d="M186.3,-103.19C198,-93.89 212.32,-82.51 222.05,-74.77"/>
<polygon fill="#63b8ff" stroke="#63b8ff" points="184.45,-100.19 178.8,-109.15 188.81,-105.67 184.45,-100.19"/>
</a>
</g>
</g>
<!-- Node4 -->
<g id="Node000004" class="node">
<title>Node4</title>
<g id="a_Node000004"><a xlink:href="class_ogre_1_1_animable_object.html" target="_top" xlink:title="Defines an interface to classes which have one or more AnimableValue instances to expose.">
<polygon fill="white" stroke="#666666" points="110.5,-185 0,-185 0,-165.75 110.5,-165.75 110.5,-185"/>
<text text-anchor="middle" x="55.25" y="-171.5" font-family="Helvetica,sans-Serif" font-size="10.00">Ogre::AnimableObject</text>
</a>
</g>
</g>
<!-- Node4&#45;&gt;Node3 -->
<g id="edge3_Node000003_Node000004" class="edge">
<title>Node4&#45;&gt;Node3</title>
<g id="a_edge3_Node000003_Node000004"><a xlink:title=" ">
<path fill="none" stroke="#63b8ff" d="M84.43,-160.37C104.32,-150.83 130.08,-138.48 147.33,-130.2"/>
<polygon fill="#63b8ff" stroke="#63b8ff" points="82.95,-157.21 75.44,-164.69 85.97,-163.52 82.95,-157.21"/>
</a>
</g>
</g>
<!-- Node5 -->
<g id="Node000005" class="node">
<title>Node5</title>
<g id="a_Node000005"><a xlink:href="class_ogre_1_1_allocated_object.html" target="_top" xlink:title="Superclass for all objects that wish to use custom memory allocators when their new / delete operator...">
<polygon fill="white" stroke="#666666" points="203.5,-185 129,-185 129,-165.75 203.5,-165.75 203.5,-185"/>
<text text-anchor="middle" x="166.25" y="-171.5" font-family="Helvetica,sans-Serif" font-size="10.00">MovableAlloc</text>
</a>
</g>
</g>
<!-- Node5&#45;&gt;Node3 -->
<g id="edge4_Node000003_Node000005" class="edge">
<title>Node5&#45;&gt;Node3</title>
<g id="a_edge4_Node000003_Node000005"><a xlink:title=" ">
<path fill="none" stroke="#63b8ff" d="M166.25,-154.13C166.25,-145.84 166.25,-136.67 166.25,-130.11"/>
<polygon fill="#63b8ff" stroke="#63b8ff" points="162.75,-154.07 166.25,-164.07 169.75,-154.07 162.75,-154.07"/>
</a>
</g>
</g>
<!-- Node6 -->
<g id="Node000006" class="node">
<title>Node6</title>
<g id="a_Node000006"><a xlink:href="class_ogre_1_1_id_object.html" target="_top" xlink:title=" ">
<polygon fill="white" stroke="#666666" points="299.38,-185 221.12,-185 221.12,-165.75 299.38,-165.75 299.38,-185"/>
<text text-anchor="middle" x="260.25" y="-171.5" font-family="Helvetica,sans-Serif" font-size="10.00">Ogre::IdObject</text>
</a>
</g>
</g>
<!-- Node6&#45;&gt;Node3 -->
<g id="edge5_Node000003_Node000006" class="edge">
<title>Node6&#45;&gt;Node3</title>
<g id="a_edge5_Node000003_Node000006"><a xlink:title=" ">
<path fill="none" stroke="#63b8ff" d="M234.6,-159.84C217.89,-150.38 196.61,-138.33 182.27,-130.2"/>
<polygon fill="#63b8ff" stroke="#63b8ff" points="232.56,-162.71 242.99,-164.6 236.01,-156.62 232.56,-162.71"/>
</a>
</g>
</g>
<!-- Node7 -->
<g id="Node000007" class="node">
<title>Node7</title>
<g id="a_Node000007"><a xlink:href="class_ogre_1_1_texture_gpu_listener.html" target="_top" xlink:title=" ">
<polygon fill="white" stroke="#666666" points="364.75,-129.75 237.75,-129.75 237.75,-110.5 364.75,-110.5 364.75,-129.75"/>
<text text-anchor="middle" x="301.25" y="-116.25" font-family="Helvetica,sans-Serif" font-size="10.00">Ogre::TextureGpuListener</text>
</a>
</g>
</g>
<!-- Node7&#45;&gt;Node2 -->
<g id="edge6_Node000002_Node000007" class="edge">
<title>Node7&#45;&gt;Node2</title>
<g id="a_edge6_Node000002_Node000007"><a xlink:title=" ">
<path fill="none" stroke="#63b8ff" d="M280.9,-103.19C269.03,-93.89 254.49,-82.51 244.61,-74.77"/>
<polygon fill="#63b8ff" stroke="#63b8ff" points="278.49,-105.75 288.52,-109.16 282.81,-100.24 278.49,-105.75"/>
</a>
</g>
</g>
</g>
</svg>
