<?xml version="1.0" encoding="UTF-8" standalone="no"?>
<!DOCTYPE svg PUBLIC "-//W3C//DTD SVG 1.1//EN"
 "http://www.w3.org/Graphics/SVG/1.1/DTD/svg11.dtd">
<!-- Generated by graphviz version 7.0.5 (20221223.1930)
 -->
<!-- Title: Ogre::GLSLProgram Pages: 1 -->
<svg width="324pt" height="82pt"
 viewBox="0.00 0.00 324.00 82.00" xmlns="http://www.w3.org/2000/svg" xmlns:xlink="http://www.w3.org/1999/xlink">
<g id="graph0" class="graph" transform="scale(1 1) rotate(0) translate(4 78)">
<title>Ogre::GLSLProgram</title>
<!-- Node1 -->
<g id="node1" class="node">
<title>Node1</title>
<g id="a_node1"><a xlink:title="C++ encapsulation of GLSL program object.">
<polygon fill="#999999" stroke="#666666" points="210,-74 105,-74 105,-55 210,-55 210,-74"/>
<text text-anchor="middle" x="157.5" y="-62" font-family="Helvetica,sans-Serif" font-size="10.00">Ogre::GLSLProgram</text>
</a>
</g>
</g>
<!-- Node2 -->
<g id="node2" class="node">
<title>Node2</title>
<g id="a_node2"><a xlink:href="class_ogre_1_1_g_l_s_l_monolithic_program.html" target="_top" xlink:title="Model of OpenGL program object created using the glLinkProgram method of linking.">
<polygon fill="white" stroke="#666666" points="149,-19 0,-19 0,0 149,0 149,-19"/>
<text text-anchor="middle" x="74.5" y="-7" font-family="Helvetica,sans-Serif" font-size="10.00">Ogre::GLSLMonolithicProgram</text>
</a>
</g>
</g>
<!-- Node1&#45;&gt;Node2 -->
<g id="edge1" class="edge">
<title>Node1&#45;&gt;Node2</title>
<path fill="none" stroke="#63b8ff" d="M133.95,-48.46C119.23,-39.06 100.78,-27.28 88.37,-19.36"/>
<polygon fill="#63b8ff" stroke="#63b8ff" points="131.83,-51.26 142.14,-53.69 135.6,-45.36 131.83,-51.26"/>
</g>
<!-- Node3 -->
<g id="node3" class="node">
<title>Node3</title>
<g id="a_node3"><a xlink:href="class_ogre_1_1_g_l_s_l_separable_program.html" target="_top" xlink:title="Specialisation of GLSLProgram to provide support for separable programs via the OpenGL program pipeli...">
<polygon fill="white" stroke="#666666" points="316,-19 167,-19 167,0 316,0 316,-19"/>
<text text-anchor="middle" x="241.5" y="-7" font-family="Helvetica,sans-Serif" font-size="10.00">Ogre::GLSLSeparableProgram</text>
</a>
</g>
</g>
<!-- Node1&#45;&gt;Node3 -->
<g id="edge2" class="edge">
<title>Node1&#45;&gt;Node3</title>
<path fill="none" stroke="#63b8ff" d="M181.34,-48.46C196.23,-39.06 214.9,-27.28 227.46,-19.36"/>
<polygon fill="#63b8ff" stroke="#63b8ff" points="179.62,-45.41 173.03,-53.7 183.35,-51.33 179.62,-45.41"/>
</g>
</g>
</svg>
