<?xml version="1.0" encoding="UTF-8" standalone="no"?>
<!DOCTYPE svg PUBLIC "-//W3C//DTD SVG 1.1//EN"
 "http://www.w3.org/Graphics/SVG/1.1/DTD/svg11.dtd">
<!-- Generated by graphviz version 9.0.0 (20230911.1827)
 -->
<!-- Title: Ogre::Win32EGLWindow Pages: 1 -->
<svg width="248pt" height="248pt"
 viewBox="0.00 0.00 247.50 248.25" xmlns="http://www.w3.org/2000/svg" xmlns:xlink="http://www.w3.org/1999/xlink">
<g id="graph0" class="graph" transform="scale(1 1) rotate(0) translate(4 244.25)">
<title>Ogre::Win32EGLWindow</title>
<!-- Node1 -->
<g id="Node000001" class="node">
<title>Node1</title>
<g id="a_Node000001"><a xlink:title=" ">
<polygon fill="#999999" stroke="#666666" points="157.75,-19.25 35.25,-19.25 35.25,0 157.75,0 157.75,-19.25"/>
<text text-anchor="middle" x="96.5" y="-5.75" font-family="Helvetica,sans-Serif" font-size="10.00">Ogre::Win32EGLWindow</text>
</a>
</g>
</g>
<!-- Node2 -->
<g id="Node000002" class="node">
<title>Node2</title>
<g id="a_Node000002"><a xlink:href="class_ogre_1_1_e_g_l_window.html" target="_top" xlink:title=" ">
<polygon fill="white" stroke="#666666" points="144.25,-74.5 48.75,-74.5 48.75,-55.25 144.25,-55.25 144.25,-74.5"/>
<text text-anchor="middle" x="96.5" y="-61" font-family="Helvetica,sans-Serif" font-size="10.00">Ogre::EGLWindow</text>
</a>
</g>
</g>
<!-- Node2&#45;&gt;Node1 -->
<g id="edge1_Node000001_Node000002" class="edge">
<title>Node2&#45;&gt;Node1</title>
<g id="a_edge1_Node000001_Node000002"><a xlink:title=" ">
<path fill="none" stroke="#63b8ff" d="M96.5,-43.63C96.5,-35.34 96.5,-26.17 96.5,-19.61"/>
<polygon fill="#63b8ff" stroke="#63b8ff" points="93,-43.57 96.5,-53.57 100,-43.57 93,-43.57"/>
</a>
</g>
</g>
<!-- Node3 -->
<g id="Node000003" class="node">
<title>Node3</title>
<g id="a_Node000003"><a xlink:href="class_ogre_1_1_window.html" target="_top" xlink:title=" ">
<polygon fill="white" stroke="#666666" points="80.5,-129.75 4.5,-129.75 4.5,-110.5 80.5,-110.5 80.5,-129.75"/>
<text text-anchor="middle" x="42.5" y="-116.25" font-family="Helvetica,sans-Serif" font-size="10.00">Ogre::Window</text>
</a>
</g>
</g>
<!-- Node3&#45;&gt;Node2 -->
<g id="edge2_Node000002_Node000003" class="edge">
<title>Node3&#45;&gt;Node2</title>
<g id="a_edge2_Node000002_Node000003"><a xlink:title=" ">
<path fill="none" stroke="#63b8ff" d="M59.54,-102.32C68.76,-93.23 79.79,-82.35 87.39,-74.86"/>
<polygon fill="#63b8ff" stroke="#63b8ff" points="57.16,-99.76 52.49,-109.27 62.07,-104.74 57.16,-99.76"/>
</a>
</g>
</g>
<!-- Node4 -->
<g id="Node000004" class="node">
<title>Node4</title>
<g id="a_Node000004"><a xlink:href="class_ogre_1_1_allocated_object.html" target="_top" xlink:title="Superclass for all objects that wish to use custom memory allocators when their new / delete operator...">
<polygon fill="white" stroke="#666666" points="85,-240.25 0,-240.25 0,-221 85,-221 85,-240.25"/>
<text text-anchor="middle" x="42.5" y="-226.75" font-family="Helvetica,sans-Serif" font-size="10.00">RenderSysAlloc</text>
</a>
</g>
</g>
<!-- Node4&#45;&gt;Node3 -->
<g id="edge3_Node000003_Node000004" class="edge">
<title>Node4&#45;&gt;Node3</title>
<g id="a_edge3_Node000003_Node000004"><a xlink:title=" ">
<path fill="none" stroke="#63b8ff" d="M42.5,-209.28C42.5,-185.55 42.5,-147.39 42.5,-130.13"/>
<polygon fill="#63b8ff" stroke="#63b8ff" points="39,-209.23 42.5,-219.23 46,-209.23 39,-209.23"/>
</a>
</g>
</g>
<!-- Node6 -->
<g id="Node000006" class="node">
<title>Node6</title>
<g id="a_Node000006"><a xlink:href="class_ogre_1_1_render_target.html" target="_top" xlink:title="A &#39;canvas&#39; which can receive the results of a rendering operation.">
<polygon fill="white" stroke="#666666" points="201.5,-185 101.5,-185 101.5,-165.75 201.5,-165.75 201.5,-185"/>
<text text-anchor="middle" x="151.5" y="-171.5" font-family="Helvetica,sans-Serif" font-size="10.00">Ogre::RenderTarget</text>
</a>
</g>
</g>
<!-- Node4&#45;&gt;Node6 -->
<g id="edge7_Node000006_Node000004" class="edge">
<title>Node4&#45;&gt;Node6</title>
<g id="a_edge7_Node000006_Node000004"><a xlink:title=" ">
<path fill="none" stroke="#63b8ff" d="M71.16,-215.62C90.69,-206.08 115.98,-193.73 132.92,-185.45"/>
<polygon fill="#63b8ff" stroke="#63b8ff" points="69.8,-212.39 62.35,-219.93 72.87,-218.68 69.8,-212.39"/>
</a>
</g>
</g>
<!-- Node5 -->
<g id="Node000005" class="node">
<title>Node5</title>
<g id="a_Node000005"><a xlink:href="class_ogre_1_1_render_window.html" target="_top" xlink:title="Manages the target rendering window.">
<polygon fill="white" stroke="#666666" points="204.88,-129.75 98.12,-129.75 98.12,-110.5 204.88,-110.5 204.88,-129.75"/>
<text text-anchor="middle" x="151.5" y="-116.25" font-family="Helvetica,sans-Serif" font-size="10.00">Ogre::RenderWindow</text>
</a>
</g>
</g>
<!-- Node5&#45;&gt;Node2 -->
<g id="edge4_Node000002_Node000005" class="edge">
<title>Node5&#45;&gt;Node2</title>
<g id="a_edge4_Node000002_Node000005"><a xlink:title=" ">
<path fill="none" stroke="#63b8ff" d="M134.15,-102.32C124.75,-93.23 113.52,-82.35 105.78,-74.86"/>
<polygon fill="#63b8ff" stroke="#63b8ff" points="131.71,-104.84 141.33,-109.28 136.58,-99.81 131.71,-104.84"/>
</a>
</g>
</g>
<!-- Node6&#45;&gt;Node5 -->
<g id="edge5_Node000005_Node000006" class="edge">
<title>Node6&#45;&gt;Node5</title>
<g id="a_edge5_Node000005_Node000006"><a xlink:title=" ">
<path fill="none" stroke="#63b8ff" d="M151.5,-154.13C151.5,-145.84 151.5,-136.67 151.5,-130.11"/>
<polygon fill="#63b8ff" stroke="#63b8ff" points="148,-154.07 151.5,-164.07 155,-154.07 148,-154.07"/>
</a>
</g>
</g>
<!-- Node7 -->
<g id="Node000007" class="node">
<title>Node7</title>
<g id="a_Node000007"><a xlink:href="struct_ogre_1_1_gpu_tracked_resource.html" target="_top" xlink:title=" ">
<polygon fill="white" stroke="#666666" points="239.5,-240.25 103.5,-240.25 103.5,-221 239.5,-221 239.5,-240.25"/>
<text text-anchor="middle" x="171.5" y="-226.75" font-family="Helvetica,sans-Serif" font-size="10.00">Ogre::GpuTrackedResource</text>
</a>
</g>
</g>
<!-- Node7&#45;&gt;Node6 -->
<g id="edge6_Node000006_Node000007" class="edge">
<title>Node7&#45;&gt;Node6</title>
<g id="a_edge6_Node000006_Node000007"><a xlink:title=" ">
<path fill="none" stroke="#63b8ff" d="M164.22,-210.25C161.03,-201.74 157.43,-192.15 154.87,-185.36"/>
<polygon fill="#63b8ff" stroke="#63b8ff" points="160.87,-211.28 167.67,-219.41 167.43,-208.82 160.87,-211.28"/>
</a>
</g>
</g>
</g>
</svg>
