<?xml version="1.0" encoding="UTF-8" standalone="no"?>
<!DOCTYPE svg PUBLIC "-//W3C//DTD SVG 1.1//EN"
 "http://www.w3.org/Graphics/SVG/1.1/DTD/svg11.dtd">
<!-- Generated by graphviz version 2.44.0 ()
 -->
<!-- Title: Ogre::v1::HardwareBuffer Pages: 1 -->
<svg width="812pt" height="1705pt"
 viewBox="0.00 0.00 812.00 1705.00" xmlns="http://www.w3.org/2000/svg" xmlns:xlink="http://www.w3.org/1999/xlink">
<g id="graph0" class="graph" transform="scale(1 1) rotate(0) translate(4 1701)">
<title>Ogre::v1::HardwareBuffer</title>
<!-- Node1 -->
<g id="node1" class="node">
<title>Node1</title>
<g id="a_node1"><a xlink:title="Abstract class defining common features of hardware buffers.">
<polygon fill="#bfbfbf" stroke="black" points="100,-1181 100,-1200 225,-1200 225,-1181 100,-1181"/>
<text text-anchor="middle" x="162.5" y="-1188" font-family="Helvetica,sans-Serif" font-size="10.00">Ogre::v1::HardwareBuffer</text>
</a>
</g>
</g>
<!-- Node3 -->
<g id="node3" class="node">
<title>Node3</title>
<g id="a_node3"><a xlink:href="class_ogre_1_1v1_1_1_d3_d11_hardware_buffer.html" target="_top" xlink:title="Base implementation of a D3D11 buffer, dealing with all the common aspects.">
<polygon fill="none" stroke="black" points="261,-1618 261,-1637 415,-1637 415,-1618 261,-1618"/>
<text text-anchor="middle" x="338" y="-1625" font-family="Helvetica,sans-Serif" font-size="10.00">Ogre::v1::D3D11HardwareBuffer</text>
</a>
</g>
</g>
<!-- Node1&#45;&gt;Node3 -->
<g id="edge2" class="edge">
<title>Node1&#45;&gt;Node3</title>
<path fill="none" stroke="midnightblue" d="M165.41,-1210.27C173.03,-1285.19 203.7,-1550.28 261,-1608.5 264.72,-1612.28 269.07,-1615.35 273.77,-1617.84"/>
<polygon fill="midnightblue" stroke="midnightblue" points="168.89,-1209.9 164.42,-1200.29 161.92,-1210.59 168.89,-1209.9"/>
</g>
<!-- Node4 -->
<g id="node4" class="node">
<title>Node4</title>
<g id="a_node4"><a xlink:href="class_ogre_1_1v1_1_1_hardware_counter_buffer.html" target="_top" xlink:title="Specialisation of HardwareBuffer for a counter buffer.">
<polygon fill="none" stroke="black" points="271.5,-1568.5 271.5,-1598.5 404.5,-1598.5 404.5,-1568.5 271.5,-1568.5"/>
<text text-anchor="start" x="279.5" y="-1586.5" font-family="Helvetica,sans-Serif" font-size="10.00">Ogre::v1::HardwareCounter</text>
<text text-anchor="middle" x="338" y="-1575.5" font-family="Helvetica,sans-Serif" font-size="10.00">Buffer</text>
</a>
</g>
</g>
<!-- Node1&#45;&gt;Node4 -->
<g id="edge3" class="edge">
<title>Node1&#45;&gt;Node4</title>
<path fill="none" stroke="midnightblue" d="M171.98,-1209.71C202.04,-1277.8 303.14,-1506.8 330.26,-1568.23"/>
<polygon fill="midnightblue" stroke="midnightblue" points="175.03,-1207.95 167.79,-1200.21 168.63,-1210.78 175.03,-1207.95"/>
</g>
<!-- Node8 -->
<g id="node8" class="node">
<title>Node8</title>
<g id="a_node8"><a xlink:href="class_ogre_1_1v1_1_1_hardware_index_buffer.html" target="_top" xlink:title="Specialisation of HardwareBuffer for vertex index buffers, still abstract.">
<polygon fill="none" stroke="black" points="264,-1378 264,-1397 412,-1397 412,-1378 264,-1378"/>
<text text-anchor="middle" x="338" y="-1385" font-family="Helvetica,sans-Serif" font-size="10.00">Ogre::v1::HardwareIndexBuffer</text>
</a>
</g>
</g>
<!-- Node1&#45;&gt;Node8 -->
<g id="edge7" class="edge">
<title>Node1&#45;&gt;Node8</title>
<path fill="none" stroke="midnightblue" d="M178.56,-1207.6C213.76,-1247.56 300.54,-1346.1 328.31,-1377.63"/>
<polygon fill="midnightblue" stroke="midnightblue" points="181.1,-1205.19 171.87,-1200 175.85,-1209.82 181.1,-1205.19"/>
</g>
<!-- Node15 -->
<g id="node15" class="node">
<title>Node15</title>
<g id="a_node15"><a xlink:href="class_ogre_1_1v1_1_1_hardware_pixel_buffer.html" target="_top" xlink:title="Specialisation of HardwareBuffer for a pixel buffer.">
<polygon fill="none" stroke="black" points="265,-961 265,-980 411,-980 411,-961 265,-961"/>
<text text-anchor="middle" x="338" y="-968" font-family="Helvetica,sans-Serif" font-size="10.00">Ogre::v1::HardwarePixelBuffer</text>
</a>
</g>
</g>
<!-- Node1&#45;&gt;Node15 -->
<g id="edge14" class="edge">
<title>Node1&#45;&gt;Node15</title>
<path fill="none" stroke="midnightblue" d="M177.38,-1172.91C212.24,-1128.7 302.62,-1014.09 329.41,-980.12"/>
<polygon fill="midnightblue" stroke="midnightblue" points="174.62,-1170.74 171.18,-1180.76 180.12,-1175.08 174.62,-1170.74"/>
</g>
<!-- Node34 -->
<g id="node34" class="node">
<title>Node34</title>
<g id="a_node34"><a xlink:href="class_ogre_1_1v1_1_1_hardware_uniform_buffer.html" target="_top" xlink:title="Specialisation of HardwareBuffer for a uniform buffer.">
<polygon fill="none" stroke="black" points="271,-465.5 271,-495.5 405,-495.5 405,-465.5 271,-465.5"/>
<text text-anchor="start" x="279" y="-483.5" font-family="Helvetica,sans-Serif" font-size="10.00">Ogre::v1::HardwareUniform</text>
<text text-anchor="middle" x="338" y="-472.5" font-family="Helvetica,sans-Serif" font-size="10.00">Buffer</text>
</a>
</g>
</g>
<!-- Node1&#45;&gt;Node34 -->
<g id="edge33" class="edge">
<title>Node1&#45;&gt;Node34</title>
<path fill="none" stroke="midnightblue" d="M168.26,-1171.01C193.45,-1067.95 310.78,-587.8 333.27,-495.77"/>
<polygon fill="midnightblue" stroke="midnightblue" points="164.86,-1170.19 165.89,-1180.73 171.66,-1171.85 164.86,-1170.19"/>
</g>
<!-- Node42 -->
<g id="node42" class="node">
<title>Node42</title>
<g id="a_node42"><a xlink:href="class_ogre_1_1v1_1_1_hardware_vertex_buffer.html" target="_top" xlink:title="Specialisation of HardwareBuffer for a vertex buffer.">
<polygon fill="none" stroke="black" points="274.5,-147.5 274.5,-177.5 401.5,-177.5 401.5,-147.5 274.5,-147.5"/>
<text text-anchor="start" x="282.5" y="-165.5" font-family="Helvetica,sans-Serif" font-size="10.00">Ogre::v1::HardwareVertex</text>
<text text-anchor="middle" x="338" y="-154.5" font-family="Helvetica,sans-Serif" font-size="10.00">Buffer</text>
</a>
</g>
</g>
<!-- Node1&#45;&gt;Node42 -->
<g id="edge41" class="edge">
<title>Node1&#45;&gt;Node42</title>
<path fill="none" stroke="midnightblue" d="M165.23,-1170.78C172.91,-1085.11 206.05,-736.93 261,-455.5 282.05,-347.7 319.38,-220.63 332.38,-177.6"/>
<polygon fill="midnightblue" stroke="midnightblue" points="161.72,-1170.63 164.33,-1180.9 168.7,-1171.24 161.72,-1170.63"/>
</g>
<!-- Node2 -->
<g id="node2" class="node">
<title>Node2</title>
<g id="a_node2"><a xlink:href="class_ogre_1_1_allocated_object.html" target="_top" xlink:title="Superclass for all objects that wish to use custom memory allocators when their new / delete operator...">
<polygon fill="none" stroke="black" points="0,-1181 0,-1200 64,-1200 64,-1181 0,-1181"/>
<text text-anchor="middle" x="32" y="-1188" font-family="Helvetica,sans-Serif" font-size="10.00">BufferAlloc</text>
</a>
</g>
</g>
<!-- Node2&#45;&gt;Node1 -->
<g id="edge1" class="edge">
<title>Node2&#45;&gt;Node1</title>
<path fill="none" stroke="midnightblue" d="M74.17,-1190.5C82.41,-1190.5 91.22,-1190.5 99.97,-1190.5"/>
<polygon fill="midnightblue" stroke="midnightblue" points="74.11,-1187 64.11,-1190.5 74.11,-1194 74.11,-1187"/>
</g>
<!-- Node5 -->
<g id="node5" class="node">
<title>Node5</title>
<g id="a_node5"><a xlink:href="class_ogre_1_1v1_1_1_default_hardware_counter_buffer.html" target="_top" xlink:title="Specialisation of HardwareCounterBuffer for emulation.">
<polygon fill="none" stroke="black" points="468.5,-1666.5 468.5,-1696.5 598.5,-1696.5 598.5,-1666.5 468.5,-1666.5"/>
<text text-anchor="start" x="476.5" y="-1684.5" font-family="Helvetica,sans-Serif" font-size="10.00">Ogre::v1::DefaultHardware</text>
<text text-anchor="middle" x="533.5" y="-1673.5" font-family="Helvetica,sans-Serif" font-size="10.00">CounterBuffer</text>
</a>
</g>
</g>
<!-- Node4&#45;&gt;Node5 -->
<g id="edge4" class="edge">
<title>Node4&#45;&gt;Node5</title>
<path fill="none" stroke="midnightblue" d="M406.66,-1603.16C409.56,-1604.81 412.36,-1606.58 415,-1608.5 436.88,-1624.37 428.88,-1641.98 451,-1657.5 456.31,-1661.23 462.21,-1664.38 468.33,-1667.05"/>
<polygon fill="midnightblue" stroke="midnightblue" points="408.19,-1600.02 397.69,-1598.62 405.03,-1606.26 408.19,-1600.02"/>
</g>
<!-- Node6 -->
<g id="node6" class="node">
<title>Node6</title>
<g id="a_node6"><a xlink:href="class_ogre_1_1v1_1_1_g_l3_plus_default_hardware_counter_buffer.html" target="_top" xlink:title="Specialisation of HardwareCounterBuffer for emulation.">
<polygon fill="none" stroke="black" points="470.5,-1617.5 470.5,-1647.5 596.5,-1647.5 596.5,-1617.5 470.5,-1617.5"/>
<text text-anchor="start" x="478.5" y="-1635.5" font-family="Helvetica,sans-Serif" font-size="10.00">Ogre::v1::GL3PlusDefault</text>
<text text-anchor="middle" x="533.5" y="-1624.5" font-family="Helvetica,sans-Serif" font-size="10.00">HardwareCounterBuffer</text>
</a>
</g>
</g>
<!-- Node4&#45;&gt;Node6 -->
<g id="edge5" class="edge">
<title>Node4&#45;&gt;Node6</title>
<path fill="none" stroke="midnightblue" d="M408.3,-1601.05C429.55,-1606.43 452.73,-1612.3 473.24,-1617.49"/>
<polygon fill="midnightblue" stroke="midnightblue" points="408.92,-1597.6 398.37,-1598.53 407.21,-1604.38 408.92,-1597.6"/>
</g>
<!-- Node7 -->
<g id="node7" class="node">
<title>Node7</title>
<g id="a_node7"><a xlink:href="class_ogre_1_1v1_1_1_g_l3_plus_hardware_counter_buffer.html" target="_top" xlink:title="Specialisation of HardwareCounterBuffer for OpenGL.">
<polygon fill="none" stroke="black" points="465,-1568.5 465,-1598.5 602,-1598.5 602,-1568.5 465,-1568.5"/>
<text text-anchor="start" x="473" y="-1586.5" font-family="Helvetica,sans-Serif" font-size="10.00">Ogre::v1::GL3PlusHardware</text>
<text text-anchor="middle" x="533.5" y="-1575.5" font-family="Helvetica,sans-Serif" font-size="10.00">CounterBuffer</text>
</a>
</g>
</g>
<!-- Node4&#45;&gt;Node7 -->
<g id="edge6" class="edge">
<title>Node4&#45;&gt;Node7</title>
<path fill="none" stroke="midnightblue" d="M414.66,-1583.5C431.18,-1583.5 448.56,-1583.5 464.75,-1583.5"/>
<polygon fill="midnightblue" stroke="midnightblue" points="414.51,-1580 404.51,-1583.5 414.51,-1587 414.51,-1580"/>
</g>
<!-- Node9 -->
<g id="node9" class="node">
<title>Node9</title>
<g id="a_node9"><a xlink:href="class_ogre_1_1v1_1_1_d3_d11_hardware_index_buffer.html" target="_top" xlink:title=" ">
<polygon fill="none" stroke="black" points="457.5,-1519.5 457.5,-1549.5 609.5,-1549.5 609.5,-1519.5 457.5,-1519.5"/>
<text text-anchor="start" x="465.5" y="-1537.5" font-family="Helvetica,sans-Serif" font-size="10.00">Ogre::v1::D3D11HardwareIndex</text>
<text text-anchor="middle" x="533.5" y="-1526.5" font-family="Helvetica,sans-Serif" font-size="10.00">Buffer</text>
</a>
</g>
</g>
<!-- Node8&#45;&gt;Node9 -->
<g id="edge8" class="edge">
<title>Node8&#45;&gt;Node9</title>
<path fill="none" stroke="midnightblue" d="M350.62,-1405.58C368.8,-1432.44 406.55,-1482.67 451,-1510.5 456.5,-1513.94 462.52,-1516.91 468.71,-1519.47"/>
<polygon fill="midnightblue" stroke="midnightblue" points="353.46,-1403.54 345.02,-1397.13 347.63,-1407.4 353.46,-1403.54"/>
</g>
<!-- Node10 -->
<g id="node10" class="node">
<title>Node10</title>
<g id="a_node10"><a xlink:href="class_ogre_1_1v1_1_1_default_hardware_index_buffer.html" target="_top" xlink:title="Specialisation of HardwareIndexBuffer for emulation.">
<polygon fill="none" stroke="black" points="468.5,-1470.5 468.5,-1500.5 598.5,-1500.5 598.5,-1470.5 468.5,-1470.5"/>
<text text-anchor="start" x="476.5" y="-1488.5" font-family="Helvetica,sans-Serif" font-size="10.00">Ogre::v1::DefaultHardware</text>
<text text-anchor="middle" x="533.5" y="-1477.5" font-family="Helvetica,sans-Serif" font-size="10.00">IndexBuffer</text>
</a>
</g>
</g>
<!-- Node8&#45;&gt;Node10 -->
<g id="edge9" class="edge">
<title>Node8&#45;&gt;Node10</title>
<path fill="none" stroke="midnightblue" d="M359.13,-1403.49C380.74,-1419.99 416.64,-1445.53 451,-1461.5 458.09,-1464.8 465.74,-1467.75 473.41,-1470.38"/>
<polygon fill="midnightblue" stroke="midnightblue" points="361.09,-1400.58 351.04,-1397.23 356.81,-1406.12 361.09,-1400.58"/>
</g>
<!-- Node11 -->
<g id="node11" class="node">
<title>Node11</title>
<g id="a_node11"><a xlink:href="class_ogre_1_1v1_1_1_g_l3_plus_default_hardware_index_buffer.html" target="_top" xlink:title="Specialisation of HardwareIndexBuffer for emulation.">
<polygon fill="none" stroke="black" points="470.5,-1421.5 470.5,-1451.5 596.5,-1451.5 596.5,-1421.5 470.5,-1421.5"/>
<text text-anchor="start" x="478.5" y="-1439.5" font-family="Helvetica,sans-Serif" font-size="10.00">Ogre::v1::GL3PlusDefault</text>
<text text-anchor="middle" x="533.5" y="-1428.5" font-family="Helvetica,sans-Serif" font-size="10.00">HardwareIndexBuffer</text>
</a>
</g>
</g>
<!-- Node8&#45;&gt;Node11 -->
<g id="edge10" class="edge">
<title>Node8&#45;&gt;Node11</title>
<path fill="none" stroke="midnightblue" d="M386.79,-1399.6C412.88,-1406.21 445.41,-1414.45 473.12,-1421.46"/>
<polygon fill="midnightblue" stroke="midnightblue" points="387.32,-1396.13 376.77,-1397.06 385.6,-1402.91 387.32,-1396.13"/>
</g>
<!-- Node12 -->
<g id="node12" class="node">
<title>Node12</title>
<g id="a_node12"><a xlink:href="class_ogre_1_1v1_1_1_g_l3_plus_hardware_index_buffer.html" target="_top" xlink:title=" ">
<polygon fill="none" stroke="black" points="465,-1372.5 465,-1402.5 602,-1402.5 602,-1372.5 465,-1372.5"/>
<text text-anchor="start" x="473" y="-1390.5" font-family="Helvetica,sans-Serif" font-size="10.00">Ogre::v1::GL3PlusHardware</text>
<text text-anchor="middle" x="533.5" y="-1379.5" font-family="Helvetica,sans-Serif" font-size="10.00">IndexBuffer</text>
</a>
</g>
</g>
<!-- Node8&#45;&gt;Node12 -->
<g id="edge11" class="edge">
<title>Node8&#45;&gt;Node12</title>
<path fill="none" stroke="midnightblue" d="M422.42,-1387.5C436.63,-1387.5 451.24,-1387.5 464.98,-1387.5"/>
<polygon fill="midnightblue" stroke="midnightblue" points="422.15,-1384 412.15,-1387.5 422.15,-1391 422.15,-1384"/>
</g>
<!-- Node13 -->
<g id="node13" class="node">
<title>Node13</title>
<g id="a_node13"><a xlink:href="class_ogre_1_1v1_1_1_g_l_e_s2_default_hardware_index_buffer.html" target="_top" xlink:title="Specialisation of HardwareIndexBuffer for emulation.">
<polygon fill="none" stroke="black" points="453,-1323.5 453,-1353.5 614,-1353.5 614,-1323.5 453,-1323.5"/>
<text text-anchor="start" x="461" y="-1341.5" font-family="Helvetica,sans-Serif" font-size="10.00">Ogre::v1::GLES2DefaultHardware</text>
<text text-anchor="middle" x="533.5" y="-1330.5" font-family="Helvetica,sans-Serif" font-size="10.00">IndexBuffer</text>
</a>
</g>
</g>
<!-- Node8&#45;&gt;Node13 -->
<g id="edge12" class="edge">
<title>Node8&#45;&gt;Node13</title>
<path fill="none" stroke="midnightblue" d="M386.79,-1375.4C412.88,-1368.79 445.41,-1360.55 473.12,-1353.54"/>
<polygon fill="midnightblue" stroke="midnightblue" points="385.6,-1372.09 376.77,-1377.94 387.32,-1378.87 385.6,-1372.09"/>
</g>
<!-- Node14 -->
<g id="node14" class="node">
<title>Node14</title>
<g id="a_node14"><a xlink:href="class_ogre_1_1v1_1_1_metal_hardware_index_buffer.html" target="_top" xlink:title="Specialisation of HardwareIndexBuffer for Metal.">
<polygon fill="none" stroke="black" points="460.5,-1274.5 460.5,-1304.5 606.5,-1304.5 606.5,-1274.5 460.5,-1274.5"/>
<text text-anchor="start" x="468.5" y="-1292.5" font-family="Helvetica,sans-Serif" font-size="10.00">Ogre::v1::MetalHardwareIndex</text>
<text text-anchor="middle" x="533.5" y="-1281.5" font-family="Helvetica,sans-Serif" font-size="10.00">Buffer</text>
</a>
</g>
</g>
<!-- Node8&#45;&gt;Node14 -->
<g id="edge13" class="edge">
<title>Node8&#45;&gt;Node14</title>
<path fill="none" stroke="midnightblue" d="M359.2,-1371.83C380.87,-1355.62 416.82,-1330.49 451,-1314.5 458.91,-1310.8 467.5,-1307.48 476.04,-1304.55"/>
<polygon fill="midnightblue" stroke="midnightblue" points="356.95,-1369.14 351.09,-1377.97 361.18,-1374.72 356.95,-1369.14"/>
</g>
<!-- Node16 -->
<g id="node16" class="node">
<title>Node16</title>
<g id="a_node16"><a xlink:href="class_ogre_1_1v1_1_1_d3_d11_depth_pixel_buffer.html" target="_top" xlink:title=" ">
<polygon fill="none" stroke="black" points="467,-1225.5 467,-1255.5 600,-1255.5 600,-1225.5 467,-1225.5"/>
<text text-anchor="start" x="475" y="-1243.5" font-family="Helvetica,sans-Serif" font-size="10.00">Ogre::v1::D3D11DepthPixel</text>
<text text-anchor="middle" x="533.5" y="-1232.5" font-family="Helvetica,sans-Serif" font-size="10.00">Buffer</text>
</a>
</g>
</g>
<!-- Node15&#45;&gt;Node16 -->
<g id="edge15" class="edge">
<title>Node15&#45;&gt;Node16</title>
<path fill="none" stroke="midnightblue" d="M342.32,-990.07C351.21,-1036.32 379.85,-1153.12 451,-1215.5 455.67,-1219.6 461.01,-1223.02 466.66,-1225.89"/>
<polygon fill="midnightblue" stroke="midnightblue" points="345.75,-989.35 340.52,-980.14 338.86,-990.61 345.75,-989.35"/>
</g>
<!-- Node17 -->
<g id="node17" class="node">
<title>Node17</title>
<g id="a_node17"><a xlink:href="class_ogre_1_1v1_1_1_d3_d11_hardware_pixel_buffer.html" target="_top" xlink:title=" ">
<polygon fill="none" stroke="black" points="459,-1176.5 459,-1206.5 608,-1206.5 608,-1176.5 459,-1176.5"/>
<text text-anchor="start" x="467" y="-1194.5" font-family="Helvetica,sans-Serif" font-size="10.00">Ogre::v1::D3D11HardwarePixel</text>
<text text-anchor="middle" x="533.5" y="-1183.5" font-family="Helvetica,sans-Serif" font-size="10.00">Buffer</text>
</a>
</g>
</g>
<!-- Node15&#45;&gt;Node17 -->
<g id="edge16" class="edge">
<title>Node15&#45;&gt;Node17</title>
<path fill="none" stroke="midnightblue" d="M344.76,-990.08C357.36,-1029.47 391.13,-1118.62 451,-1166.5 455.85,-1170.38 461.31,-1173.66 467.04,-1176.44"/>
<polygon fill="midnightblue" stroke="midnightblue" points="348.06,-988.89 341.77,-980.37 341.37,-990.95 348.06,-988.89"/>
</g>
<!-- Node18 -->
<g id="node18" class="node">
<title>Node18</title>
<g id="a_node18"><a xlink:href="class_ogre_1_1v1_1_1_d3_d11_null_pixel_buffer.html" target="_top" xlink:title=" ">
<polygon fill="none" stroke="black" points="471,-1127.5 471,-1157.5 596,-1157.5 596,-1127.5 471,-1127.5"/>
<text text-anchor="start" x="479" y="-1145.5" font-family="Helvetica,sans-Serif" font-size="10.00">Ogre::v1::D3D11NullPixel</text>
<text text-anchor="middle" x="533.5" y="-1134.5" font-family="Helvetica,sans-Serif" font-size="10.00">Buffer</text>
</a>
</g>
</g>
<!-- Node15&#45;&gt;Node18 -->
<g id="edge17" class="edge">
<title>Node15&#45;&gt;Node18</title>
<path fill="none" stroke="midnightblue" d="M348.12,-988.96C364.43,-1020.11 401.6,-1083.07 451,-1117.5 457.07,-1121.73 463.88,-1125.26 470.91,-1128.21"/>
<polygon fill="midnightblue" stroke="midnightblue" points="351.23,-987.36 343.56,-980.04 344.99,-990.54 351.23,-987.36"/>
</g>
<!-- Node19 -->
<g id="node19" class="node">
<title>Node19</title>
<g id="a_node19"><a xlink:href="class_ogre_1_1v1_1_1_g_l3_plus_depth_pixel_buffer.html" target="_top" xlink:title=" ">
<polygon fill="none" stroke="black" points="462.5,-1078.5 462.5,-1108.5 604.5,-1108.5 604.5,-1078.5 462.5,-1078.5"/>
<text text-anchor="start" x="470.5" y="-1096.5" font-family="Helvetica,sans-Serif" font-size="10.00">Ogre::v1::GL3PlusDepthPixel</text>
<text text-anchor="middle" x="533.5" y="-1085.5" font-family="Helvetica,sans-Serif" font-size="10.00">Buffer</text>
</a>
</g>
</g>
<!-- Node15&#45;&gt;Node19 -->
<g id="edge18" class="edge">
<title>Node15&#45;&gt;Node19</title>
<path fill="none" stroke="midnightblue" d="M354.09,-987.57C374.19,-1009.3 411.77,-1046.65 451,-1068.5 457.85,-1072.32 465.36,-1075.63 472.96,-1078.47"/>
<polygon fill="midnightblue" stroke="midnightblue" points="356.6,-985.12 347.28,-980.07 351.41,-989.82 356.6,-985.12"/>
</g>
<!-- Node20 -->
<g id="node20" class="node">
<title>Node20</title>
<g id="a_node20"><a xlink:href="class_ogre_1_1v1_1_1_g_l3_plus_hardware_pixel_buffer.html" target="_top" xlink:title=" ">
<polygon fill="none" stroke="black" points="465,-1029.5 465,-1059.5 602,-1059.5 602,-1029.5 465,-1029.5"/>
<text text-anchor="start" x="473" y="-1047.5" font-family="Helvetica,sans-Serif" font-size="10.00">Ogre::v1::GL3PlusHardware</text>
<text text-anchor="middle" x="533.5" y="-1036.5" font-family="Helvetica,sans-Serif" font-size="10.00">PixelBuffer</text>
</a>
</g>
</g>
<!-- Node15&#45;&gt;Node20 -->
<g id="edge19" class="edge">
<title>Node15&#45;&gt;Node20</title>
<path fill="none" stroke="midnightblue" d="M368.23,-984.39C390.61,-994.75 422.4,-1008.9 451,-1019.5 460.3,-1022.95 470.31,-1026.3 480.03,-1029.38"/>
<polygon fill="midnightblue" stroke="midnightblue" points="369.49,-981.12 358.95,-980.06 366.53,-987.46 369.49,-981.12"/>
</g>
<!-- Node23 -->
<g id="node23" class="node">
<title>Node23</title>
<g id="a_node23"><a xlink:href="class_ogre_1_1v1_1_1_g_l3_plus_null_pixel_buffer.html" target="_top" xlink:title=" ">
<polygon fill="none" stroke="black" points="466.5,-980.5 466.5,-1010.5 600.5,-1010.5 600.5,-980.5 466.5,-980.5"/>
<text text-anchor="start" x="474.5" y="-998.5" font-family="Helvetica,sans-Serif" font-size="10.00">Ogre::v1::GL3PlusNullPixel</text>
<text text-anchor="middle" x="533.5" y="-987.5" font-family="Helvetica,sans-Serif" font-size="10.00">Buffer</text>
</a>
</g>
</g>
<!-- Node15&#45;&gt;Node23 -->
<g id="edge22" class="edge">
<title>Node15&#45;&gt;Node23</title>
<path fill="none" stroke="midnightblue" d="M421.38,-981.14C436.43,-983.09 451.96,-985.09 466.46,-986.97"/>
<polygon fill="midnightblue" stroke="midnightblue" points="421.42,-977.62 411.05,-979.81 420.52,-984.56 421.42,-977.62"/>
</g>
<!-- Node24 -->
<g id="node24" class="node">
<title>Node24</title>
<g id="a_node24"><a xlink:href="class_ogre_1_1v1_1_1_g_l_e_s2_depth_pixel_buffer.html" target="_top" xlink:title=" ">
<polygon fill="none" stroke="black" points="466,-931.5 466,-961.5 601,-961.5 601,-931.5 466,-931.5"/>
<text text-anchor="start" x="474" y="-949.5" font-family="Helvetica,sans-Serif" font-size="10.00">Ogre::v1::GLES2DepthPixel</text>
<text text-anchor="middle" x="533.5" y="-938.5" font-family="Helvetica,sans-Serif" font-size="10.00">Buffer</text>
</a>
</g>
</g>
<!-- Node15&#45;&gt;Node24 -->
<g id="edge23" class="edge">
<title>Node15&#45;&gt;Node24</title>
<path fill="none" stroke="midnightblue" d="M421.26,-960.3C436.13,-958.45 451.47,-956.55 465.83,-954.77"/>
<polygon fill="midnightblue" stroke="midnightblue" points="420.55,-956.86 411.05,-961.56 421.41,-963.81 420.55,-956.86"/>
</g>
<!-- Node25 -->
<g id="node25" class="node">
<title>Node25</title>
<g id="a_node25"><a xlink:href="class_ogre_1_1v1_1_1_g_l_e_s2_hardware_pixel_buffer.html" target="_top" xlink:title=" ">
<polygon fill="none" stroke="black" points="457.5,-882.5 457.5,-912.5 609.5,-912.5 609.5,-882.5 457.5,-882.5"/>
<text text-anchor="start" x="465.5" y="-900.5" font-family="Helvetica,sans-Serif" font-size="10.00">Ogre::v1::GLES2HardwarePixel</text>
<text text-anchor="middle" x="533.5" y="-889.5" font-family="Helvetica,sans-Serif" font-size="10.00">Buffer</text>
</a>
</g>
</g>
<!-- Node15&#45;&gt;Node25 -->
<g id="edge24" class="edge">
<title>Node15&#45;&gt;Node25</title>
<path fill="none" stroke="midnightblue" d="M368.19,-956.52C390.56,-946.11 422.34,-931.94 451,-921.5 459.59,-918.37 468.8,-915.35 477.83,-912.57"/>
<polygon fill="midnightblue" stroke="midnightblue" points="366.49,-953.45 358.92,-960.87 369.46,-959.79 366.49,-953.45"/>
</g>
<!-- Node28 -->
<g id="node28" class="node">
<title>Node28</title>
<g id="a_node28"><a xlink:href="class_ogre_1_1v1_1_1_g_l_e_s2_null_pixel_buffer.html" target="_top" xlink:title=" ">
<polygon fill="none" stroke="black" points="470,-833.5 470,-863.5 597,-863.5 597,-833.5 470,-833.5"/>
<text text-anchor="start" x="478" y="-851.5" font-family="Helvetica,sans-Serif" font-size="10.00">Ogre::v1::GLES2NullPixel</text>
<text text-anchor="middle" x="533.5" y="-840.5" font-family="Helvetica,sans-Serif" font-size="10.00">Buffer</text>
</a>
</g>
</g>
<!-- Node15&#45;&gt;Node28 -->
<g id="edge27" class="edge">
<title>Node15&#45;&gt;Node28</title>
<path fill="none" stroke="midnightblue" d="M354.06,-953.37C374.11,-931.56 411.65,-894.13 451,-872.5 457.2,-869.09 463.95,-866.11 470.81,-863.53"/>
<polygon fill="midnightblue" stroke="midnightblue" points="351.36,-951.13 347.26,-960.89 356.56,-955.82 351.36,-951.13"/>
</g>
<!-- Node29 -->
<g id="node29" class="node">
<title>Node29</title>
<g id="a_node29"><a xlink:href="class_ogre_1_1v1_1_1_metal_depth_pixel_buffer.html" target="_top" xlink:title=" ">
<polygon fill="none" stroke="black" points="469.5,-784.5 469.5,-814.5 597.5,-814.5 597.5,-784.5 469.5,-784.5"/>
<text text-anchor="start" x="477.5" y="-802.5" font-family="Helvetica,sans-Serif" font-size="10.00">Ogre::v1::MetalDepthPixel</text>
<text text-anchor="middle" x="533.5" y="-791.5" font-family="Helvetica,sans-Serif" font-size="10.00">Buffer</text>
</a>
</g>
</g>
<!-- Node15&#45;&gt;Node29 -->
<g id="edge28" class="edge">
<title>Node15&#45;&gt;Node29</title>
<path fill="none" stroke="midnightblue" d="M348.07,-951.98C364.33,-920.74 401.4,-857.65 451,-823.5 456.59,-819.65 462.8,-816.41 469.23,-813.69"/>
<polygon fill="midnightblue" stroke="midnightblue" points="344.94,-950.42 343.54,-960.93 351.18,-953.59 344.94,-950.42"/>
</g>
<!-- Node30 -->
<g id="node30" class="node">
<title>Node30</title>
<g id="a_node30"><a xlink:href="class_ogre_1_1v1_1_1_metal_hardware_pixel_buffer.html" target="_top" xlink:title=" ">
<polygon fill="none" stroke="black" points="461.5,-735.5 461.5,-765.5 605.5,-765.5 605.5,-735.5 461.5,-735.5"/>
<text text-anchor="start" x="469.5" y="-753.5" font-family="Helvetica,sans-Serif" font-size="10.00">Ogre::v1::MetalHardwarePixel</text>
<text text-anchor="middle" x="533.5" y="-742.5" font-family="Helvetica,sans-Serif" font-size="10.00">Buffer</text>
</a>
</g>
</g>
<!-- Node15&#45;&gt;Node30 -->
<g id="edge29" class="edge">
<title>Node15&#45;&gt;Node30</title>
<path fill="none" stroke="midnightblue" d="M344.72,-950.86C357.24,-911.37 390.86,-822.05 451,-774.5 455.4,-771.02 460.28,-768.05 465.42,-765.51"/>
<polygon fill="midnightblue" stroke="midnightblue" points="341.32,-950.02 341.74,-960.6 348.01,-952.06 341.32,-950.02"/>
</g>
<!-- Node32 -->
<g id="node32" class="node">
<title>Node32</title>
<g id="a_node32"><a xlink:href="class_ogre_1_1v1_1_1_metal_null_pixel_buffer.html" target="_top" xlink:title=" ">
<polygon fill="none" stroke="black" points="474,-686.5 474,-716.5 593,-716.5 593,-686.5 474,-686.5"/>
<text text-anchor="start" x="482" y="-704.5" font-family="Helvetica,sans-Serif" font-size="10.00">Ogre::v1::MetalNullPixel</text>
<text text-anchor="middle" x="533.5" y="-693.5" font-family="Helvetica,sans-Serif" font-size="10.00">Buffer</text>
</a>
</g>
</g>
<!-- Node15&#45;&gt;Node32 -->
<g id="edge31" class="edge">
<title>Node15&#45;&gt;Node32</title>
<path fill="none" stroke="midnightblue" d="M342.28,-950.87C351.06,-904.52 379.5,-787.48 451,-725.5 457.58,-719.8 465.45,-715.45 473.67,-712.14"/>
<polygon fill="midnightblue" stroke="midnightblue" points="338.81,-950.37 340.49,-960.83 345.7,-951.6 338.81,-950.37"/>
</g>
<!-- Node33 -->
<g id="node33" class="node">
<title>Node33</title>
<g id="a_node33"><a xlink:href="class_ogre_1_1v1_1_1_n_u_l_l_hardware_pixel_buffer.html" target="_top" xlink:title=" ">
<polygon fill="none" stroke="black" points="460,-637.5 460,-667.5 607,-667.5 607,-637.5 460,-637.5"/>
<text text-anchor="start" x="468" y="-655.5" font-family="Helvetica,sans-Serif" font-size="10.00">Ogre::v1::NULLHardwarePixel</text>
<text text-anchor="middle" x="533.5" y="-644.5" font-family="Helvetica,sans-Serif" font-size="10.00">Buffer</text>
</a>
</g>
</g>
<!-- Node15&#45;&gt;Node33 -->
<g id="edge32" class="edge">
<title>Node15&#45;&gt;Node33</title>
<path fill="none" stroke="midnightblue" d="M340.6,-950.97C345.94,-898.53 367.9,-753.39 451,-676.5 454.68,-673.09 458.82,-670.17 463.24,-667.66"/>
<polygon fill="midnightblue" stroke="midnightblue" points="337.11,-950.67 339.67,-960.95 344.08,-951.32 337.11,-950.67"/>
</g>
<!-- Node21 -->
<g id="node21" class="node">
<title>Node21</title>
<g id="a_node21"><a xlink:href="class_ogre_1_1v1_1_1_g_l3_plus_render_buffer.html" target="_top" xlink:title="Renderbuffer surface.">
<polygon fill="none" stroke="black" points="652,-1057 652,-1076 804,-1076 804,-1057 652,-1057"/>
<text text-anchor="middle" x="728" y="-1064" font-family="Helvetica,sans-Serif" font-size="10.00">Ogre::v1::GL3PlusRenderBuffer</text>
</a>
</g>
</g>
<!-- Node20&#45;&gt;Node21 -->
<g id="edge20" class="edge">
<title>Node20&#45;&gt;Node21</title>
<path fill="none" stroke="midnightblue" d="M612.38,-1053.4C625.35,-1054.88 638.78,-1056.42 651.68,-1057.89"/>
<polygon fill="midnightblue" stroke="midnightblue" points="612.43,-1049.88 602.1,-1052.23 611.64,-1056.84 612.43,-1049.88"/>
</g>
<!-- Node22 -->
<g id="node22" class="node">
<title>Node22</title>
<g id="a_node22"><a xlink:href="class_ogre_1_1v1_1_1_g_l3_plus_texture_buffer.html" target="_top" xlink:title="Texture surface.">
<polygon fill="none" stroke="black" points="664,-1007.5 664,-1037.5 792,-1037.5 792,-1007.5 664,-1007.5"/>
<text text-anchor="start" x="672" y="-1025.5" font-family="Helvetica,sans-Serif" font-size="10.00">Ogre::v1::GL3PlusTexture</text>
<text text-anchor="middle" x="728" y="-1014.5" font-family="Helvetica,sans-Serif" font-size="10.00">Buffer</text>
</a>
</g>
</g>
<!-- Node20&#45;&gt;Node22 -->
<g id="edge21" class="edge">
<title>Node20&#45;&gt;Node22</title>
<path fill="none" stroke="midnightblue" d="M612.09,-1035.63C629.26,-1033.67 647.25,-1031.61 663.76,-1029.73"/>
<polygon fill="midnightblue" stroke="midnightblue" points="611.64,-1032.16 602.1,-1036.77 612.43,-1039.12 611.64,-1032.16"/>
</g>
<!-- Node26 -->
<g id="node26" class="node">
<title>Node26</title>
<g id="a_node26"><a xlink:href="class_ogre_1_1v1_1_1_g_l_e_s2_render_buffer.html" target="_top" xlink:title="Renderbuffer surface.">
<polygon fill="none" stroke="black" points="655.5,-907 655.5,-926 800.5,-926 800.5,-907 655.5,-907"/>
<text text-anchor="middle" x="728" y="-914" font-family="Helvetica,sans-Serif" font-size="10.00">Ogre::v1::GLES2RenderBuffer</text>
</a>
</g>
</g>
<!-- Node25&#45;&gt;Node26 -->
<g id="edge25" class="edge">
<title>Node25&#45;&gt;Node26</title>
<path fill="none" stroke="midnightblue" d="M620.02,-905.94C631.79,-907.1 643.78,-908.29 655.27,-909.42"/>
<polygon fill="midnightblue" stroke="midnightblue" points="620.05,-902.43 609.75,-904.93 619.36,-909.39 620.05,-902.43"/>
</g>
<!-- Node27 -->
<g id="node27" class="node">
<title>Node27</title>
<g id="a_node27"><a xlink:href="class_ogre_1_1v1_1_1_g_l_e_s2_texture_buffer.html" target="_top" xlink:title="Texture surface.">
<polygon fill="none" stroke="black" points="655,-869 655,-888 801,-888 801,-869 655,-869"/>
<text text-anchor="middle" x="728" y="-876" font-family="Helvetica,sans-Serif" font-size="10.00">Ogre::v1::GLES2TextureBuffer</text>
</a>
</g>
</g>
<!-- Node25&#45;&gt;Node27 -->
<g id="edge26" class="edge">
<title>Node25&#45;&gt;Node27</title>
<path fill="none" stroke="midnightblue" d="M619.95,-889.07C631.64,-887.91 643.54,-886.74 654.95,-885.61"/>
<polygon fill="midnightblue" stroke="midnightblue" points="619.36,-885.61 609.75,-890.07 620.05,-892.57 619.36,-885.61"/>
</g>
<!-- Node31 -->
<g id="node31" class="node">
<title>Node31</title>
<g id="a_node31"><a xlink:href="class_ogre_1_1v1_1_1_metal_texture_buffer.html" target="_top" xlink:title="Texture surface.">
<polygon fill="none" stroke="black" points="658.5,-741 658.5,-760 797.5,-760 797.5,-741 658.5,-741"/>
<text text-anchor="middle" x="728" y="-748" font-family="Helvetica,sans-Serif" font-size="10.00">Ogre::v1::MetalTextureBuffer</text>
</a>
</g>
</g>
<!-- Node30&#45;&gt;Node31 -->
<g id="edge30" class="edge">
<title>Node30&#45;&gt;Node31</title>
<path fill="none" stroke="midnightblue" d="M615.85,-750.5C630.02,-750.5 644.62,-750.5 658.4,-750.5"/>
<polygon fill="midnightblue" stroke="midnightblue" points="615.63,-747 605.63,-750.5 615.63,-754 615.63,-747"/>
</g>
<!-- Node35 -->
<g id="node35" class="node">
<title>Node35</title>
<g id="a_node35"><a xlink:href="class_ogre_1_1v1_1_1_d3_d11_hardware_uniform_buffer.html" target="_top" xlink:title="Specialisation of HardwareBuffer for D3D11.">
<polygon fill="none" stroke="black" points="452,-588.5 452,-618.5 615,-618.5 615,-588.5 452,-588.5"/>
<text text-anchor="start" x="460" y="-606.5" font-family="Helvetica,sans-Serif" font-size="10.00">Ogre::v1::D3D11HardwareUniform</text>
<text text-anchor="middle" x="533.5" y="-595.5" font-family="Helvetica,sans-Serif" font-size="10.00">Buffer</text>
</a>
</g>
</g>
<!-- Node34&#45;&gt;Node35 -->
<g id="edge34" class="edge">
<title>Node34&#45;&gt;Node35</title>
<path fill="none" stroke="midnightblue" d="M359.43,-503.26C380.42,-525.37 415.02,-558.46 451,-578.5 457.85,-582.32 465.36,-585.63 472.96,-588.47"/>
<polygon fill="midnightblue" stroke="midnightblue" points="361.72,-500.58 352.34,-495.66 356.6,-505.36 361.72,-500.58"/>
</g>
<!-- Node36 -->
<g id="node36" class="node">
<title>Node36</title>
<g id="a_node36"><a xlink:href="class_ogre_1_1v1_1_1_default_hardware_uniform_buffer.html" target="_top" xlink:title="Specialisation of HardwareUniformBuffer for emulation.">
<polygon fill="none" stroke="black" points="468.5,-539.5 468.5,-569.5 598.5,-569.5 598.5,-539.5 468.5,-539.5"/>
<text text-anchor="start" x="476.5" y="-557.5" font-family="Helvetica,sans-Serif" font-size="10.00">Ogre::v1::DefaultHardware</text>
<text text-anchor="middle" x="533.5" y="-546.5" font-family="Helvetica,sans-Serif" font-size="10.00">UniformBuffer</text>
</a>
</g>
</g>
<!-- Node34&#45;&gt;Node36 -->
<g id="edge35" class="edge">
<title>Node34&#45;&gt;Node36</title>
<path fill="none" stroke="midnightblue" d="M380.2,-499.88C401.16,-509.39 427.18,-520.67 451,-529.5 460.3,-532.95 470.31,-536.3 480.03,-539.38"/>
<polygon fill="midnightblue" stroke="midnightblue" points="381.5,-496.62 370.95,-495.65 378.58,-502.99 381.5,-496.62"/>
</g>
<!-- Node37 -->
<g id="node37" class="node">
<title>Node37</title>
<g id="a_node37"><a xlink:href="class_ogre_1_1v1_1_1_g_l3_plus_default_hardware_uniform_buffer.html" target="_top" xlink:title="Specialisation of HardwareUniformBuffer for emulation.">
<polygon fill="none" stroke="black" points="470.5,-490.5 470.5,-520.5 596.5,-520.5 596.5,-490.5 470.5,-490.5"/>
<text text-anchor="start" x="478.5" y="-508.5" font-family="Helvetica,sans-Serif" font-size="10.00">Ogre::v1::GL3PlusDefault</text>
<text text-anchor="middle" x="533.5" y="-497.5" font-family="Helvetica,sans-Serif" font-size="10.00">HardwareUniformBuffer</text>
</a>
</g>
</g>
<!-- Node34&#45;&gt;Node37 -->
<g id="edge36" class="edge">
<title>Node34&#45;&gt;Node37</title>
<path fill="none" stroke="midnightblue" d="M415.1,-490.33C433.4,-492.7 452.75,-495.2 470.33,-497.47"/>
<polygon fill="midnightblue" stroke="midnightblue" points="415.42,-486.84 405.05,-489.03 414.52,-493.79 415.42,-486.84"/>
</g>
<!-- Node38 -->
<g id="node38" class="node">
<title>Node38</title>
<g id="a_node38"><a xlink:href="class_ogre_1_1v1_1_1_g_l3_plus_hardware_shader_storage_buffer.html" target="_top" xlink:title="Specialisation of HardwareUniformBuffer for the OpenGL Shader Storage Buffer.">
<polygon fill="none" stroke="black" points="465,-441.5 465,-471.5 602,-471.5 602,-441.5 465,-441.5"/>
<text text-anchor="start" x="473" y="-459.5" font-family="Helvetica,sans-Serif" font-size="10.00">Ogre::v1::GL3PlusHardware</text>
<text text-anchor="middle" x="533.5" y="-448.5" font-family="Helvetica,sans-Serif" font-size="10.00">ShaderStorageBuffer</text>
</a>
</g>
</g>
<!-- Node34&#45;&gt;Node38 -->
<g id="edge37" class="edge">
<title>Node34&#45;&gt;Node38</title>
<path fill="none" stroke="midnightblue" d="M415.13,-471.06C431.52,-469.03 448.73,-466.89 464.77,-464.9"/>
<polygon fill="midnightblue" stroke="midnightblue" points="414.54,-467.6 405.05,-472.31 415.41,-474.55 414.54,-467.6"/>
</g>
<!-- Node39 -->
<g id="node39" class="node">
<title>Node39</title>
<g id="a_node39"><a xlink:href="class_ogre_1_1v1_1_1_g_l3_plus_hardware_uniform_buffer.html" target="_top" xlink:title="Specialisation of HardwareUniformBuffer for OpenGL.">
<polygon fill="none" stroke="black" points="465,-392.5 465,-422.5 602,-422.5 602,-392.5 465,-392.5"/>
<text text-anchor="start" x="473" y="-410.5" font-family="Helvetica,sans-Serif" font-size="10.00">Ogre::v1::GL3PlusHardware</text>
<text text-anchor="middle" x="533.5" y="-399.5" font-family="Helvetica,sans-Serif" font-size="10.00">UniformBuffer</text>
</a>
</g>
</g>
<!-- Node34&#45;&gt;Node39 -->
<g id="edge38" class="edge">
<title>Node34&#45;&gt;Node39</title>
<path fill="none" stroke="midnightblue" d="M379.7,-461.22C400.73,-451.63 426.96,-440.26 451,-431.5 459.59,-428.37 468.8,-425.35 477.83,-422.57"/>
<polygon fill="midnightblue" stroke="midnightblue" points="378.05,-458.12 370.43,-465.48 380.98,-464.48 378.05,-458.12"/>
</g>
<!-- Node40 -->
<g id="node40" class="node">
<title>Node40</title>
<g id="a_node40"><a xlink:href="class_ogre_1_1v1_1_1_g_l_e_s2_default_hardware_uniform_buffer.html" target="_top" xlink:title="Specialisation of HardwareUniformBuffer for emulation.">
<polygon fill="none" stroke="black" points="453,-343.5 453,-373.5 614,-373.5 614,-343.5 453,-343.5"/>
<text text-anchor="start" x="461" y="-361.5" font-family="Helvetica,sans-Serif" font-size="10.00">Ogre::v1::GLES2DefaultHardware</text>
<text text-anchor="middle" x="533.5" y="-350.5" font-family="Helvetica,sans-Serif" font-size="10.00">UniformBuffer</text>
</a>
</g>
</g>
<!-- Node34&#45;&gt;Node40 -->
<g id="edge39" class="edge">
<title>Node34&#45;&gt;Node40</title>
<path fill="none" stroke="midnightblue" d="M359.11,-457.94C380.03,-435.77 414.75,-402.43 451,-382.5 457.2,-379.09 463.95,-376.11 470.81,-373.53"/>
<polygon fill="midnightblue" stroke="midnightblue" points="356.54,-455.57 352.3,-465.28 361.67,-460.33 356.54,-455.57"/>
</g>
<!-- Node41 -->
<g id="node41" class="node">
<title>Node41</title>
<g id="a_node41"><a xlink:href="class_ogre_1_1v1_1_1_g_l_e_s2_hardware_uniform_buffer.html" target="_top" xlink:title="Specialisation of HardwareUniformBuffer for OpenGL.">
<polygon fill="none" stroke="black" points="451,-294.5 451,-324.5 616,-324.5 616,-294.5 451,-294.5"/>
<text text-anchor="start" x="459" y="-312.5" font-family="Helvetica,sans-Serif" font-size="10.00">Ogre::v1::GLES2HardwareUniform</text>
<text text-anchor="middle" x="533.5" y="-301.5" font-family="Helvetica,sans-Serif" font-size="10.00">Buffer</text>
</a>
</g>
</g>
<!-- Node34&#45;&gt;Node41 -->
<g id="edge40" class="edge">
<title>Node34&#45;&gt;Node41</title>
<path fill="none" stroke="midnightblue" d="M350.91,-456.61C368.4,-423.97 404.1,-365.8 451,-333.5 455.98,-330.07 461.46,-327.12 467.14,-324.59"/>
<polygon fill="midnightblue" stroke="midnightblue" points="347.8,-455 346.27,-465.48 354.01,-458.24 347.8,-455"/>
</g>
<!-- Node43 -->
<g id="node43" class="node">
<title>Node43</title>
<g id="a_node43"><a xlink:href="class_ogre_1_1v1_1_1_d3_d11_hardware_vertex_buffer.html" target="_top" xlink:title="Specialisation of HardwareVertexBuffer for D3D11.">
<polygon fill="none" stroke="black" points="455.5,-245.5 455.5,-275.5 611.5,-275.5 611.5,-245.5 455.5,-245.5"/>
<text text-anchor="start" x="463.5" y="-263.5" font-family="Helvetica,sans-Serif" font-size="10.00">Ogre::v1::D3D11HardwareVertex</text>
<text text-anchor="middle" x="533.5" y="-252.5" font-family="Helvetica,sans-Serif" font-size="10.00">Buffer</text>
</a>
</g>
</g>
<!-- Node42&#45;&gt;Node43 -->
<g id="edge42" class="edge">
<title>Node42&#45;&gt;Node43</title>
<path fill="none" stroke="midnightblue" d="M366.82,-183.8C388.73,-199.78 420.56,-221.26 451,-235.5 458.91,-239.2 467.5,-242.52 476.04,-245.45"/>
<polygon fill="midnightblue" stroke="midnightblue" points="368.76,-180.89 358.64,-177.76 364.6,-186.52 368.76,-180.89"/>
</g>
<!-- Node44 -->
<g id="node44" class="node">
<title>Node44</title>
<g id="a_node44"><a xlink:href="class_ogre_1_1v1_1_1_default_hardware_vertex_buffer.html" target="_top" xlink:title="Specialisation of HardwareVertexBuffer for emulation.">
<polygon fill="none" stroke="black" points="468.5,-196.5 468.5,-226.5 598.5,-226.5 598.5,-196.5 468.5,-196.5"/>
<text text-anchor="start" x="476.5" y="-214.5" font-family="Helvetica,sans-Serif" font-size="10.00">Ogre::v1::DefaultHardware</text>
<text text-anchor="middle" x="533.5" y="-203.5" font-family="Helvetica,sans-Serif" font-size="10.00">VertexBuffer</text>
</a>
</g>
</g>
<!-- Node42&#45;&gt;Node44 -->
<g id="edge43" class="edge">
<title>Node42&#45;&gt;Node44</title>
<path fill="none" stroke="midnightblue" d="M408.3,-180.05C429.55,-185.43 452.73,-191.3 473.24,-196.49"/>
<polygon fill="midnightblue" stroke="midnightblue" points="408.92,-176.6 398.37,-177.53 407.21,-183.38 408.92,-176.6"/>
</g>
<!-- Node45 -->
<g id="node45" class="node">
<title>Node45</title>
<g id="a_node45"><a xlink:href="class_ogre_1_1v1_1_1_g_l3_plus_default_hardware_vertex_buffer.html" target="_top" xlink:title="Specialisation of HardwareVertexBuffer for emulation.">
<polygon fill="none" stroke="black" points="470.5,-147.5 470.5,-177.5 596.5,-177.5 596.5,-147.5 470.5,-147.5"/>
<text text-anchor="start" x="478.5" y="-165.5" font-family="Helvetica,sans-Serif" font-size="10.00">Ogre::v1::GL3PlusDefault</text>
<text text-anchor="middle" x="533.5" y="-154.5" font-family="Helvetica,sans-Serif" font-size="10.00">HardwareVertexBuffer</text>
</a>
</g>
</g>
<!-- Node42&#45;&gt;Node45 -->
<g id="edge44" class="edge">
<title>Node42&#45;&gt;Node45</title>
<path fill="none" stroke="midnightblue" d="M411.82,-162.5C431.14,-162.5 451.81,-162.5 470.49,-162.5"/>
<polygon fill="midnightblue" stroke="midnightblue" points="411.56,-159 401.56,-162.5 411.56,-166 411.56,-159"/>
</g>
<!-- Node46 -->
<g id="node46" class="node">
<title>Node46</title>
<g id="a_node46"><a xlink:href="class_ogre_1_1v1_1_1_g_l3_plus_hardware_vertex_buffer.html" target="_top" xlink:title="Specialisation of HardwareVertexBuffer for OpenGL.">
<polygon fill="none" stroke="black" points="465,-98.5 465,-128.5 602,-128.5 602,-98.5 465,-98.5"/>
<text text-anchor="start" x="473" y="-116.5" font-family="Helvetica,sans-Serif" font-size="10.00">Ogre::v1::GL3PlusHardware</text>
<text text-anchor="middle" x="533.5" y="-105.5" font-family="Helvetica,sans-Serif" font-size="10.00">VertexBuffer</text>
</a>
</g>
</g>
<!-- Node42&#45;&gt;Node46 -->
<g id="edge45" class="edge">
<title>Node42&#45;&gt;Node46</title>
<path fill="none" stroke="midnightblue" d="M408.3,-144.95C429.55,-139.57 452.73,-133.7 473.24,-128.51"/>
<polygon fill="midnightblue" stroke="midnightblue" points="407.21,-141.62 398.37,-147.47 408.92,-148.4 407.21,-141.62"/>
</g>
<!-- Node47 -->
<g id="node47" class="node">
<title>Node47</title>
<g id="a_node47"><a xlink:href="class_ogre_1_1v1_1_1_g_l_e_s2_default_hardware_vertex_buffer.html" target="_top" xlink:title="Specialisation of HardwareVertexBuffer for emulation.">
<polygon fill="none" stroke="black" points="453,-49.5 453,-79.5 614,-79.5 614,-49.5 453,-49.5"/>
<text text-anchor="start" x="461" y="-67.5" font-family="Helvetica,sans-Serif" font-size="10.00">Ogre::v1::GLES2DefaultHardware</text>
<text text-anchor="middle" x="533.5" y="-56.5" font-family="Helvetica,sans-Serif" font-size="10.00">VertexBuffer</text>
</a>
</g>
</g>
<!-- Node42&#45;&gt;Node47 -->
<g id="edge46" class="edge">
<title>Node42&#45;&gt;Node47</title>
<path fill="none" stroke="midnightblue" d="M366.33,-141.08C388.2,-124.79 420.22,-102.81 451,-88.5 458.09,-85.2 465.74,-82.25 473.41,-79.62"/>
<polygon fill="midnightblue" stroke="midnightblue" points="364.05,-138.42 358.18,-147.24 368.27,-144.01 364.05,-138.42"/>
</g>
<!-- Node48 -->
<g id="node48" class="node">
<title>Node48</title>
<g id="a_node48"><a xlink:href="class_ogre_1_1v1_1_1_metal_hardware_vertex_buffer.html" target="_top" xlink:title="Specialisation of HardwareVertexBuffer for Metal.">
<polygon fill="none" stroke="black" points="458,-0.5 458,-30.5 609,-30.5 609,-0.5 458,-0.5"/>
<text text-anchor="start" x="466" y="-18.5" font-family="Helvetica,sans-Serif" font-size="10.00">Ogre::v1::MetalHardwareVertex</text>
<text text-anchor="middle" x="533.5" y="-7.5" font-family="Helvetica,sans-Serif" font-size="10.00">Buffer</text>
</a>
</g>
</g>
<!-- Node42&#45;&gt;Node48 -->
<g id="edge47" class="edge">
<title>Node42&#45;&gt;Node48</title>
<path fill="none" stroke="midnightblue" d="M354.46,-138.83C373.8,-111.05 409.47,-65.49 451,-39.5 456.5,-36.06 462.52,-33.09 468.71,-30.53"/>
<polygon fill="midnightblue" stroke="midnightblue" points="351.51,-136.94 348.77,-147.17 357.29,-140.88 351.51,-136.94"/>
</g>
</g>
</svg>
