<?xml version="1.0" encoding="UTF-8" standalone="no"?>
<!DOCTYPE svg PUBLIC "-//W3C//DTD SVG 1.1//EN"
 "http://www.w3.org/Graphics/SVG/1.1/DTD/svg11.dtd">
<!-- Generated by graphviz version 9.0.0 (20230911.1827)
 -->
<!-- Title: Ogre::TextureGpu Pages: 1 -->
<svg width="957pt" height="198pt"
 viewBox="0.00 0.00 956.75 197.88" xmlns="http://www.w3.org/2000/svg" xmlns:xlink="http://www.w3.org/1999/xlink">
<g id="graph0" class="graph" transform="scale(1 1) rotate(0) translate(4 193.88)">
<title>Ogre::TextureGpu</title>
<!-- Node1 -->
<g id="Node000001" class="node">
<title>Node1</title>
<g id="a_Node000001"><a xlink:title=" ">
<polygon fill="#999999" stroke="#666666" points="378.75,-94.88 287,-94.88 287,-75.62 378.75,-75.62 378.75,-94.88"/>
<text text-anchor="middle" x="332.88" y="-81.38" font-family="Helvetica,sans-Serif" font-size="10.00">Ogre::TextureGpu</text>
</a>
</g>
</g>
<!-- Node5 -->
<g id="Node000005" class="node">
<title>Node5</title>
<g id="a_Node000005"><a xlink:href="class_ogre_1_1_d3_d11_texture_gpu.html" target="_top" xlink:title=" ">
<polygon fill="white" stroke="#666666" points="540.25,-171.88 419.25,-171.88 419.25,-152.62 540.25,-152.62 540.25,-171.88"/>
<text text-anchor="middle" x="479.75" y="-158.38" font-family="Helvetica,sans-Serif" font-size="10.00">Ogre::D3D11TextureGpu</text>
</a>
</g>
</g>
<!-- Node1&#45;&gt;Node5 -->
<g id="edge4_Node000001_Node000005" class="edge">
<title>Node1&#45;&gt;Node5</title>
<g id="a_edge4_Node000001_Node000005"><a xlink:title=" ">
<path fill="none" stroke="#63b8ff" d="M362.12,-100.82C377.61,-109.3 397.19,-119.95 414.75,-129.25 429.55,-137.09 446.39,-145.77 459.08,-152.25"/>
<polygon fill="#63b8ff" stroke="#63b8ff" points="363.9,-97.8 353.45,-96.06 360.53,-103.94 363.9,-97.8"/>
</a>
</g>
</g>
<!-- Node8 -->
<g id="Node000008" class="node">
<title>Node8</title>
<g id="a_Node000008"><a xlink:href="class_ogre_1_1_g_l3_plus_texture_gpu.html" target="_top" xlink:title=" ">
<polygon fill="white" stroke="#666666" points="544.75,-119.88 414.75,-119.88 414.75,-100.62 544.75,-100.62 544.75,-119.88"/>
<text text-anchor="middle" x="479.75" y="-106.38" font-family="Helvetica,sans-Serif" font-size="10.00">Ogre::GL3PlusTextureGpu</text>
</a>
</g>
</g>
<!-- Node1&#45;&gt;Node8 -->
<g id="edge7_Node000001_Node000008" class="edge">
<title>Node1&#45;&gt;Node8</title>
<g id="a_edge7_Node000001_Node000008"><a xlink:title=" ">
<path fill="none" stroke="#63b8ff" d="M390.21,-94.97C400.02,-96.66 410.26,-98.43 420.13,-100.13"/>
<polygon fill="#63b8ff" stroke="#63b8ff" points="390.86,-91.53 380.41,-93.28 389.67,-98.43 390.86,-91.53"/>
</a>
</g>
</g>
<!-- Node12 -->
<g id="Node000012" class="node">
<title>Node12</title>
<g id="a_Node000012"><a xlink:href="class_ogre_1_1_metal_texture_gpu.html" target="_top" xlink:title=" ">
<polygon fill="white" stroke="#666666" points="537.62,-76.88 421.88,-76.88 421.88,-57.62 537.62,-57.62 537.62,-76.88"/>
<text text-anchor="middle" x="479.75" y="-63.38" font-family="Helvetica,sans-Serif" font-size="10.00">Ogre::MetalTextureGpu</text>
</a>
</g>
</g>
<!-- Node1&#45;&gt;Node12 -->
<g id="edge11_Node000001_Node000012" class="edge">
<title>Node1&#45;&gt;Node12</title>
<g id="a_edge11_Node000001_Node000012"><a xlink:title=" ">
<path fill="none" stroke="#63b8ff" d="M390.24,-78.25C400.48,-76.97 411.18,-75.65 421.44,-74.37"/>
<polygon fill="#63b8ff" stroke="#63b8ff" points="389.91,-74.76 380.42,-79.47 390.78,-81.71 389.91,-74.76"/>
</a>
</g>
</g>
<!-- Node15 -->
<g id="Node000015" class="node">
<title>Node15</title>
<g id="a_Node000015"><a xlink:href="class_ogre_1_1_n_u_l_l_texture_gpu.html" target="_top" xlink:title=" ">
<polygon fill="white" stroke="#666666" points="539.12,-33.88 420.38,-33.88 420.38,-14.62 539.12,-14.62 539.12,-33.88"/>
<text text-anchor="middle" x="479.75" y="-20.38" font-family="Helvetica,sans-Serif" font-size="10.00">Ogre::NULLTextureGpu</text>
</a>
</g>
</g>
<!-- Node1&#45;&gt;Node15 -->
<g id="edge14_Node000001_Node000015" class="edge">
<title>Node1&#45;&gt;Node15</title>
<g id="a_edge14_Node000001_Node000015"><a xlink:title=" ">
<path fill="none" stroke="#63b8ff" d="M364.88,-70.45C379.84,-63.46 398.11,-55.16 414.75,-48.25 426.37,-43.42 439.33,-38.48 450.54,-34.34"/>
<polygon fill="#63b8ff" stroke="#63b8ff" points="363.57,-67.19 356.01,-74.62 366.55,-73.53 363.57,-67.19"/>
</a>
</g>
</g>
<!-- Node2 -->
<g id="Node000002" class="node">
<title>Node2</title>
<g id="a_Node000002"><a xlink:href="struct_ogre_1_1_gpu_tracked_resource.html" target="_top" xlink:title=" ">
<polygon fill="white" stroke="#666666" points="251,-113.88 115,-113.88 115,-94.62 251,-94.62 251,-113.88"/>
<text text-anchor="middle" x="183" y="-100.38" font-family="Helvetica,sans-Serif" font-size="10.00">Ogre::GpuTrackedResource</text>
</a>
</g>
</g>
<!-- Node2&#45;&gt;Node1 -->
<g id="edge1_Node000001_Node000002" class="edge">
<title>Node2&#45;&gt;Node1</title>
<g id="a_edge1_Node000001_Node000002"><a xlink:title=" ">
<path fill="none" stroke="#63b8ff" d="M262.61,-94.15C270.8,-93.1 278.9,-92.06 286.53,-91.08"/>
<polygon fill="#63b8ff" stroke="#63b8ff" points="262.42,-90.65 252.95,-95.39 263.31,-97.59 262.42,-90.65"/>
</a>
</g>
</g>
<!-- Node3 -->
<g id="Node000003" class="node">
<title>Node3</title>
<g id="a_Node000003"><a xlink:href="class_ogre_1_1_gpu_resource.html" target="_top" xlink:title=" ">
<polygon fill="white" stroke="#666666" points="233.38,-76.88 132.62,-76.88 132.62,-57.62 233.38,-57.62 233.38,-76.88"/>
<text text-anchor="middle" x="183" y="-63.38" font-family="Helvetica,sans-Serif" font-size="10.00">Ogre::GpuResource</text>
</a>
</g>
</g>
<!-- Node3&#45;&gt;Node1 -->
<g id="edge2_Node000001_Node000003" class="edge">
<title>Node3&#45;&gt;Node1</title>
<g id="a_edge2_Node000001_Node000003"><a xlink:title=" ">
<path fill="none" stroke="#63b8ff" d="M244.7,-74.64C258.71,-76.34 273.37,-78.13 286.59,-79.74"/>
<polygon fill="#63b8ff" stroke="#63b8ff" points="245.5,-71.21 235.15,-73.48 244.66,-78.16 245.5,-71.21"/>
</a>
</g>
</g>
<!-- Node4 -->
<g id="Node000004" class="node">
<title>Node4</title>
<g id="a_Node000004"><a xlink:href="class_ogre_1_1_allocated_object.html" target="_top" xlink:title="Superclass for all objects that wish to use custom memory allocators when their new / delete operator...">
<polygon fill="white" stroke="#666666" points="79,-76.88 0,-76.88 0,-57.62 79,-57.62 79,-76.88"/>
<text text-anchor="middle" x="39.5" y="-63.38" font-family="Helvetica,sans-Serif" font-size="10.00">ResourceAlloc</text>
</a>
</g>
</g>
<!-- Node4&#45;&gt;Node3 -->
<g id="edge3_Node000003_Node000004" class="edge">
<title>Node4&#45;&gt;Node3</title>
<g id="a_edge3_Node000003_Node000004"><a xlink:title=" ">
<path fill="none" stroke="#63b8ff" d="M90.27,-67.25C103.87,-67.25 118.61,-67.25 132.21,-67.25"/>
<polygon fill="#63b8ff" stroke="#63b8ff" points="90.68,-63.75 80.68,-67.25 90.68,-70.75 90.68,-63.75"/>
</a>
</g>
</g>
<!-- Node6 -->
<g id="Node000006" class="node">
<title>Node6</title>
<g id="a_Node000006"><a xlink:href="class_ogre_1_1_d3_d11_texture_gpu_render_target.html" target="_top" xlink:title=" ">
<polygon fill="white" stroke="#666666" points="737,-189.5 585.25,-189.5 585.25,-159 737,-159 737,-189.5"/>
<text text-anchor="start" x="593.25" y="-176" font-family="Helvetica,sans-Serif" font-size="10.00">Ogre::D3D11TextureGpuRender</text>
<text text-anchor="middle" x="661.12" y="-164.75" font-family="Helvetica,sans-Serif" font-size="10.00">Target</text>
</a>
</g>
</g>
<!-- Node5&#45;&gt;Node6 -->
<g id="edge5_Node000005_Node000006" class="edge">
<title>Node5&#45;&gt;Node6</title>
<g id="a_edge5_Node000005_Node000006"><a xlink:title=" ">
<path fill="none" stroke="#63b8ff" d="M551.71,-167C562.66,-167.73 573.99,-168.49 585.02,-169.23"/>
<polygon fill="#63b8ff" stroke="#63b8ff" points="552.2,-163.52 541.99,-166.35 551.73,-170.51 552.2,-163.52"/>
</a>
</g>
</g>
<!-- Node7 -->
<g id="Node000007" class="node">
<title>Node7</title>
<g id="a_Node000007"><a xlink:href="class_ogre_1_1_d3_d11_texture_gpu_window.html" target="_top" xlink:title=" ">
<polygon fill="white" stroke="#666666" points="940.88,-189.88 785.38,-189.88 785.38,-170.62 940.88,-170.62 940.88,-189.88"/>
<text text-anchor="middle" x="863.12" y="-176.38" font-family="Helvetica,sans-Serif" font-size="10.00">Ogre::D3D11TextureGpuWindow</text>
</a>
</g>
</g>
<!-- Node6&#45;&gt;Node7 -->
<g id="edge6_Node000006_Node000007" class="edge">
<title>Node6&#45;&gt;Node7</title>
<g id="a_edge6_Node000006_Node000007"><a xlink:title=" ">
<path fill="none" stroke="#63b8ff" d="M748.92,-176.85C760.99,-177.22 773.33,-177.59 785.2,-177.94"/>
<polygon fill="#63b8ff" stroke="#63b8ff" points="749.06,-173.36 738.96,-176.56 748.85,-180.35 749.06,-173.36"/>
</a>
</g>
</g>
<!-- Node9 -->
<g id="Node000009" class="node">
<title>Node9</title>
<g id="a_Node000009"><a xlink:href="class_ogre_1_1_g_l3_plus_texture_gpu_render_target.html" target="_top" xlink:title=" ">
<polygon fill="white" stroke="#666666" points="741.5,-128.5 580.75,-128.5 580.75,-98 741.5,-98 741.5,-128.5"/>
<text text-anchor="start" x="588.75" y="-115" font-family="Helvetica,sans-Serif" font-size="10.00">Ogre::GL3PlusTextureGpuRender</text>
<text text-anchor="middle" x="661.12" y="-103.75" font-family="Helvetica,sans-Serif" font-size="10.00">Target</text>
</a>
</g>
</g>
<!-- Node8&#45;&gt;Node9 -->
<g id="edge8_Node000008_Node000009" class="edge">
<title>Node8&#45;&gt;Node9</title>
<g id="a_edge8_Node000008_Node000009"><a xlink:title=" ">
<path fill="none" stroke="#63b8ff" d="M556.45,-111.52C564.35,-111.65 572.41,-111.78 580.36,-111.92"/>
<polygon fill="#63b8ff" stroke="#63b8ff" points="556.57,-108.02 546.52,-111.35 556.46,-115.02 556.57,-108.02"/>
</a>
</g>
</g>
<!-- Node10 -->
<g id="Node000010" class="node">
<title>Node10</title>
<g id="a_Node000010"><a xlink:href="class_ogre_1_1_g_l3_plus_texture_gpu_headless_window.html" target="_top" xlink:title=" ">
<polygon fill="white" stroke="#666666" points="948.75,-152.5 777.5,-152.5 777.5,-122 948.75,-122 948.75,-152.5"/>
<text text-anchor="start" x="785.5" y="-139" font-family="Helvetica,sans-Serif" font-size="10.00">Ogre::GL3PlusTextureGpuHeadless</text>
<text text-anchor="middle" x="863.12" y="-127.75" font-family="Helvetica,sans-Serif" font-size="10.00">Window</text>
</a>
</g>
</g>
<!-- Node9&#45;&gt;Node10 -->
<g id="edge9_Node000009_Node000010" class="edge">
<title>Node9&#45;&gt;Node10</title>
<g id="a_edge9_Node000009_Node000010"><a xlink:title=" ">
<path fill="none" stroke="#63b8ff" d="M753.04,-124.16C761.09,-125.13 769.21,-126.1 777.2,-127.06"/>
<polygon fill="#63b8ff" stroke="#63b8ff" points="753.59,-120.7 743.25,-122.98 752.76,-127.65 753.59,-120.7"/>
</a>
</g>
</g>
<!-- Node11 -->
<g id="Node000011" class="node">
<title>Node11</title>
<g id="a_Node000011"><a xlink:href="class_ogre_1_1_g_l3_plus_texture_gpu_window.html" target="_top" xlink:title=" ">
<polygon fill="white" stroke="#666666" points="945.38,-103.88 780.88,-103.88 780.88,-84.62 945.38,-84.62 945.38,-103.88"/>
<text text-anchor="middle" x="863.12" y="-90.38" font-family="Helvetica,sans-Serif" font-size="10.00">Ogre::GL3PlusTextureGpuWindow</text>
</a>
</g>
</g>
<!-- Node9&#45;&gt;Node11 -->
<g id="edge10_Node000009_Node000011" class="edge">
<title>Node9&#45;&gt;Node11</title>
<g id="a_edge10_Node000009_Node000011"><a xlink:title=" ">
<path fill="none" stroke="#63b8ff" d="M753.2,-104.6C762.29,-103.73 771.49,-102.86 780.49,-102.01"/>
<polygon fill="#63b8ff" stroke="#63b8ff" points="752.88,-101.11 743.25,-105.54 753.54,-108.08 752.88,-101.11"/>
</a>
</g>
</g>
<!-- Node13 -->
<g id="Node000013" class="node">
<title>Node13</title>
<g id="a_Node000013"><a xlink:href="class_ogre_1_1_metal_texture_gpu_render_target.html" target="_top" xlink:title=" ">
<polygon fill="white" stroke="#666666" points="734.38,-79.5 587.88,-79.5 587.88,-49 734.38,-49 734.38,-79.5"/>
<text text-anchor="start" x="595.88" y="-66" font-family="Helvetica,sans-Serif" font-size="10.00">Ogre::MetalTextureGpuRender</text>
<text text-anchor="middle" x="661.12" y="-54.75" font-family="Helvetica,sans-Serif" font-size="10.00">Target</text>
</a>
</g>
</g>
<!-- Node12&#45;&gt;Node13 -->
<g id="edge12_Node000012_Node000013" class="edge">
<title>Node12&#45;&gt;Node13</title>
<g id="a_edge12_Node000012_Node000013"><a xlink:title=" ">
<path fill="none" stroke="#63b8ff" d="M549.33,-66.1C561.87,-65.89 575,-65.67 587.66,-65.46"/>
<polygon fill="#63b8ff" stroke="#63b8ff" points="549.45,-62.6 539.51,-66.27 549.57,-69.6 549.45,-62.6"/>
</a>
</g>
</g>
<!-- Node14 -->
<g id="Node000014" class="node">
<title>Node14</title>
<g id="a_Node000014"><a xlink:href="class_ogre_1_1_metal_texture_gpu_window.html" target="_top" xlink:title=" ">
<polygon fill="white" stroke="#666666" points="938.25,-66.88 788,-66.88 788,-47.62 938.25,-47.62 938.25,-66.88"/>
<text text-anchor="middle" x="863.12" y="-53.38" font-family="Helvetica,sans-Serif" font-size="10.00">Ogre::MetalTextureGpuWindow</text>
</a>
</g>
</g>
<!-- Node13&#45;&gt;Node14 -->
<g id="edge13_Node000013_Node000014" class="edge">
<title>Node13&#45;&gt;Node14</title>
<g id="a_edge13_Node000013_Node000014"><a xlink:title=" ">
<path fill="none" stroke="#63b8ff" d="M746.06,-61.31C759.82,-60.83 774.01,-60.33 787.53,-59.86"/>
<polygon fill="#63b8ff" stroke="#63b8ff" points="746,-57.81 736.12,-61.66 746.24,-64.81 746,-57.81"/>
</a>
</g>
</g>
<!-- Node16 -->
<g id="Node000016" class="node">
<title>Node16</title>
<g id="a_Node000016"><a xlink:href="class_ogre_1_1_n_u_l_l_texture_gpu_render_target.html" target="_top" xlink:title=" ">
<polygon fill="white" stroke="#666666" points="735.88,-30.5 586.38,-30.5 586.38,0 735.88,0 735.88,-30.5"/>
<text text-anchor="start" x="594.38" y="-17" font-family="Helvetica,sans-Serif" font-size="10.00">Ogre::NULLTextureGpuRender</text>
<text text-anchor="middle" x="661.12" y="-5.75" font-family="Helvetica,sans-Serif" font-size="10.00">Target</text>
</a>
</g>
</g>
<!-- Node15&#45;&gt;Node16 -->
<g id="edge15_Node000015_Node000016" class="edge">
<title>Node15&#45;&gt;Node16</title>
<g id="a_edge15_Node000015_Node000016"><a xlink:title=" ">
<path fill="none" stroke="#63b8ff" d="M550.89,-20.73C562.47,-20.15 574.51,-19.55 586.19,-18.96"/>
<polygon fill="#63b8ff" stroke="#63b8ff" points="550.81,-17.23 541,-21.23 551.16,-24.22 550.81,-17.23"/>
</a>
</g>
</g>
</g>
</svg>
