<?xml version="1.0" encoding="UTF-8" standalone="no"?>
<!DOCTYPE svg PUBLIC "-//W3C//DTD SVG 1.1//EN"
 "http://www.w3.org/Graphics/SVG/1.1/DTD/svg11.dtd">
<!-- Generated by graphviz version 7.0.5 (20221223.1930)
 -->
<!-- Title: Ogre::GL3PlusContext Pages: 1 -->
<svg width="457pt" height="193pt"
 viewBox="0.00 0.00 457.00 193.00" xmlns="http://www.w3.org/2000/svg" xmlns:xlink="http://www.w3.org/1999/xlink">
<g id="graph0" class="graph" transform="scale(1 1) rotate(0) translate(4 189)">
<title>Ogre::GL3PlusContext</title>
<!-- Node1 -->
<g id="node1" class="node">
<title>Node1</title>
<g id="a_node1"><a xlink:title="Class that encapsulates an GL context.">
<polygon fill="#999999" stroke="#666666" points="113,-93 0,-93 0,-74 113,-74 113,-93"/>
<text text-anchor="middle" x="56.5" y="-81" font-family="Helvetica,sans-Serif" font-size="10.00">Ogre::GL3PlusContext</text>
</a>
</g>
</g>
<!-- Node2 -->
<g id="node2" class="node">
<title>Node2</title>
<g id="a_node2"><a xlink:href="class_ogre_1_1_cocoa_context.html" target="_top" xlink:title=" ">
<polygon fill="white" stroke="#666666" points="261,-167 158,-167 158,-148 261,-148 261,-167"/>
<text text-anchor="middle" x="209.5" y="-155" font-family="Helvetica,sans-Serif" font-size="10.00">Ogre::CocoaContext</text>
</a>
</g>
</g>
<!-- Node1&#45;&gt;Node2 -->
<g id="edge1" class="edge">
<title>Node1&#45;&gt;Node2</title>
<path fill="none" stroke="#63b8ff" d="M80.49,-99.86C98.47,-112.08 124.45,-128.49 149,-139.5 155.79,-142.55 163.25,-145.26 170.51,-147.59"/>
<polygon fill="#63b8ff" stroke="#63b8ff" points="82.61,-97.07 72.39,-94.26 78.63,-102.83 82.61,-97.07"/>
</g>
<!-- Node3 -->
<g id="node3" class="node">
<title>Node3</title>
<g id="a_node3"><a xlink:href="class_ogre_1_1_e_g_l_context.html" target="_top" xlink:title=" ">
<polygon fill="white" stroke="#666666" points="257,-130 162,-130 162,-111 257,-111 257,-130"/>
<text text-anchor="middle" x="209.5" y="-118" font-family="Helvetica,sans-Serif" font-size="10.00">Ogre::EGLContext</text>
</a>
</g>
</g>
<!-- Node1&#45;&gt;Node3 -->
<g id="edge2" class="edge">
<title>Node1&#45;&gt;Node3</title>
<path fill="none" stroke="#63b8ff" d="M108.98,-96.12C128.23,-100.83 149.8,-106.12 167.92,-110.56"/>
<polygon fill="#63b8ff" stroke="#63b8ff" points="109.98,-92.76 99.44,-93.78 108.31,-99.55 109.98,-92.76"/>
</g>
<!-- Node8 -->
<g id="node8" class="node">
<title>Node8</title>
<g id="a_node8"><a xlink:href="class_ogre_1_1_egl_p_buffer_context.html" target="_top" xlink:title=" ">
<polygon fill="white" stroke="#666666" points="270,-93 149,-93 149,-74 270,-74 270,-93"/>
<text text-anchor="middle" x="209.5" y="-81" font-family="Helvetica,sans-Serif" font-size="10.00">Ogre::EglPBufferContext</text>
</a>
</g>
</g>
<!-- Node1&#45;&gt;Node8 -->
<g id="edge7" class="edge">
<title>Node1&#45;&gt;Node8</title>
<path fill="none" stroke="#63b8ff" d="M124.8,-83.5C132.74,-83.5 140.8,-83.5 148.62,-83.5"/>
<polygon fill="#63b8ff" stroke="#63b8ff" points="124.81,-80 114.81,-83.5 124.81,-87 124.81,-80"/>
</g>
<!-- Node9 -->
<g id="node9" class="node">
<title>Node9</title>
<g id="a_node9"><a xlink:href="class_ogre_1_1_g_l_x_context.html" target="_top" xlink:title=" ">
<polygon fill="white" stroke="#666666" points="257,-56 162,-56 162,-37 257,-37 257,-56"/>
<text text-anchor="middle" x="209.5" y="-44" font-family="Helvetica,sans-Serif" font-size="10.00">Ogre::GLXContext</text>
</a>
</g>
</g>
<!-- Node1&#45;&gt;Node9 -->
<g id="edge8" class="edge">
<title>Node1&#45;&gt;Node9</title>
<path fill="none" stroke="#63b8ff" d="M108.98,-70.88C128.23,-66.17 149.8,-60.88 167.92,-56.44"/>
<polygon fill="#63b8ff" stroke="#63b8ff" points="108.31,-67.45 99.44,-73.22 109.98,-74.24 108.31,-67.45"/>
</g>
<!-- Node10 -->
<g id="node10" class="node">
<title>Node10</title>
<g id="a_node10"><a xlink:href="class_ogre_1_1_win32_context.html" target="_top" xlink:title=" ">
<polygon fill="white" stroke="#666666" points="260.5,-19 158.5,-19 158.5,0 260.5,0 260.5,-19"/>
<text text-anchor="middle" x="209.5" y="-7" font-family="Helvetica,sans-Serif" font-size="10.00">Ogre::Win32Context</text>
</a>
</g>
</g>
<!-- Node1&#45;&gt;Node10 -->
<g id="edge9" class="edge">
<title>Node1&#45;&gt;Node10</title>
<path fill="none" stroke="#63b8ff" d="M80.49,-67.14C98.47,-54.92 124.45,-38.51 149,-27.5 155.79,-24.45 163.25,-21.74 170.51,-19.41"/>
<polygon fill="#63b8ff" stroke="#63b8ff" points="78.63,-64.17 72.39,-72.74 82.61,-69.93 78.63,-64.17"/>
</g>
<!-- Node4 -->
<g id="node4" class="node">
<title>Node4</title>
<g id="a_node4"><a xlink:href="class_ogre_1_1_android_e_g_l_context.html" target="_top" xlink:title=" ">
<polygon fill="white" stroke="#666666" points="441.5,-185 313.5,-185 313.5,-166 441.5,-166 441.5,-185"/>
<text text-anchor="middle" x="377.5" y="-173" font-family="Helvetica,sans-Serif" font-size="10.00">Ogre::AndroidEGLContext</text>
</a>
</g>
</g>
<!-- Node3&#45;&gt;Node4 -->
<g id="edge3" class="edge">
<title>Node3&#45;&gt;Node4</title>
<path fill="none" stroke="#63b8ff" d="M255.52,-134.06C260.45,-135.78 265.35,-137.61 270,-139.5 286.57,-146.24 289.24,-151.25 306,-157.5 314.17,-160.54 323.05,-163.26 331.68,-165.59"/>
<polygon fill="#63b8ff" stroke="#63b8ff" points="256.83,-130.81 246.24,-130.94 254.61,-137.44 256.83,-130.81"/>
</g>
<!-- Node5 -->
<g id="node5" class="node">
<title>Node5</title>
<g id="a_node5"><a xlink:href="class_ogre_1_1_emscripten_e_g_l_context.html" target="_top" xlink:title=" ">
<polygon fill="white" stroke="#666666" points="449,-148 306,-148 306,-129 449,-129 449,-148"/>
<text text-anchor="middle" x="377.5" y="-136" font-family="Helvetica,sans-Serif" font-size="10.00">Ogre::EmscriptenEGLContext</text>
</a>
</g>
</g>
<!-- Node3&#45;&gt;Node5 -->
<g id="edge4" class="edge">
<title>Node3&#45;&gt;Node5</title>
<path fill="none" stroke="#63b8ff" d="M268.43,-126.78C280.45,-128.09 293.25,-129.47 305.67,-130.82"/>
<polygon fill="#63b8ff" stroke="#63b8ff" points="269.01,-123.32 258.69,-125.73 268.25,-130.28 269.01,-123.32"/>
</g>
<!-- Node6 -->
<g id="node6" class="node">
<title>Node6</title>
<g id="a_node6"><a xlink:href="class_ogre_1_1_win32_e_g_l_context.html" target="_top" xlink:title=" ">
<polygon fill="white" stroke="#666666" points="438.5,-111 316.5,-111 316.5,-92 438.5,-92 438.5,-111"/>
<text text-anchor="middle" x="377.5" y="-99" font-family="Helvetica,sans-Serif" font-size="10.00">Ogre::Win32EGLContext</text>
</a>
</g>
</g>
<!-- Node3&#45;&gt;Node6 -->
<g id="edge5" class="edge">
<title>Node3&#45;&gt;Node6</title>
<path fill="none" stroke="#63b8ff" d="M268.22,-113.89C283.73,-112.12 300.55,-110.19 316.21,-108.4"/>
<polygon fill="#63b8ff" stroke="#63b8ff" points="268.22,-110.37 258.69,-114.98 269.02,-117.32 268.22,-110.37"/>
</g>
<!-- Node7 -->
<g id="node7" class="node">
<title>Node7</title>
<g id="a_node7"><a xlink:href="class_ogre_1_1_x11_e_g_l_context.html" target="_top" xlink:title=" ">
<polygon fill="white" stroke="#666666" points="433.5,-74 321.5,-74 321.5,-55 433.5,-55 433.5,-74"/>
<text text-anchor="middle" x="377.5" y="-62" font-family="Helvetica,sans-Serif" font-size="10.00">Ogre::X11EGLContext</text>
</a>
</g>
</g>
<!-- Node3&#45;&gt;Node7 -->
<g id="edge6" class="edge">
<title>Node3&#45;&gt;Node7</title>
<path fill="none" stroke="#63b8ff" d="M258.12,-106.99C262.18,-105.57 266.18,-104.07 270,-102.5 286.74,-95.63 289.16,-90.12 306,-83.5 314.73,-80.07 324.3,-77.03 333.5,-74.45"/>
<polygon fill="#63b8ff" stroke="#63b8ff" points="257.22,-103.6 248.82,-110.07 259.42,-110.25 257.22,-103.6"/>
</g>
</g>
</svg>
