<?xml version="1.0" encoding="UTF-8" standalone="no"?>
<!DOCTYPE svg PUBLIC "-//W3C//DTD SVG 1.1//EN"
 "http://www.w3.org/Graphics/SVG/1.1/DTD/svg11.dtd">
<!-- Generated by graphviz version 7.0.5 (20221223.1930)
 -->
<!-- Title: Ogre::RTShader::FFPFog Pages: 1 -->
<svg width="146pt" height="148pt"
 viewBox="0.00 0.00 146.00 148.00" xmlns="http://www.w3.org/2000/svg" xmlns:xlink="http://www.w3.org/1999/xlink">
<g id="graph0" class="graph" transform="scale(1 1) rotate(0) translate(4 144)">
<title>Ogre::RTShader::FFPFog</title>
<!-- Node1 -->
<g id="node1" class="node">
<title>Node1</title>
<g id="a_node1"><a xlink:title="Fog sub render state implementation of the Fixed Function Pipeline.">
<polygon fill="#999999" stroke="#666666" points="131.5,-19 6.5,-19 6.5,0 131.5,0 131.5,-19"/>
<text text-anchor="middle" x="69" y="-7" font-family="Helvetica,sans-Serif" font-size="10.00">Ogre::RTShader::FFPFog</text>
</a>
</g>
</g>
<!-- Node2 -->
<g id="node2" class="node">
<title>Node2</title>
<g id="a_node2"><a xlink:href="class_ogre_1_1_r_t_shader_1_1_sub_render_state.html" target="_top" xlink:title="This class is the base interface of sub part from a shader based rendering pipeline.">
<polygon fill="white" stroke="#666666" points="138,-85 0,-85 0,-55 138,-55 138,-85"/>
<text text-anchor="start" x="8" y="-73" font-family="Helvetica,sans-Serif" font-size="10.00">Ogre::RTShader::SubRender</text>
<text text-anchor="middle" x="69" y="-62" font-family="Helvetica,sans-Serif" font-size="10.00">State</text>
</a>
</g>
</g>
<!-- Node2&#45;&gt;Node1 -->
<g id="edge1" class="edge">
<title>Node2&#45;&gt;Node1</title>
<path fill="none" stroke="#63b8ff" d="M69,-43.3C69,-34.65 69,-25.58 69,-19.18"/>
<polygon fill="#63b8ff" stroke="#63b8ff" points="65.5,-43.03 69,-53.03 72.5,-43.03 65.5,-43.03"/>
</g>
<!-- Node3 -->
<g id="node3" class="node">
<title>Node3</title>
<g id="a_node3"><a xlink:href="class_ogre_1_1_allocated_object.html" target="_top" xlink:title="Superclass for all objects that wish to use custom memory allocators when their new / delete operator...">
<polygon fill="white" stroke="#666666" points="126.5,-140 11.5,-140 11.5,-121 126.5,-121 126.5,-140"/>
<text text-anchor="middle" x="69" y="-128" font-family="Helvetica,sans-Serif" font-size="10.00">RTShaderSystemAlloc</text>
</a>
</g>
</g>
<!-- Node3&#45;&gt;Node2 -->
<g id="edge2" class="edge">
<title>Node3&#45;&gt;Node2</title>
<path fill="none" stroke="#63b8ff" d="M69,-109.51C69,-101.49 69,-92.43 69,-85.11"/>
<polygon fill="#63b8ff" stroke="#63b8ff" points="65.5,-109.35 69,-119.35 72.5,-109.35 65.5,-109.35"/>
</g>
</g>
</svg>
