<?xml version="1.0" encoding="UTF-8" standalone="no"?>
<!DOCTYPE svg PUBLIC "-//W3C//DTD SVG 1.1//EN"
 "http://www.w3.org/Graphics/SVG/1.1/DTD/svg11.dtd">
<!-- Generated by graphviz version 9.0.0 (20230911.1827)
 -->
<!-- Title: Ogre::v1::HardwareBufferManager Pages: 1 -->
<svg width="596pt" height="333pt"
 viewBox="0.00 0.00 596.25 332.50" xmlns="http://www.w3.org/2000/svg" xmlns:xlink="http://www.w3.org/1999/xlink">
<g id="graph0" class="graph" transform="scale(1 1) rotate(0) translate(4 328.5)">
<title>Ogre::v1::HardwareBufferManager</title>
<!-- Node1 -->
<g id="Node000001" class="node">
<title>Node1</title>
<g id="a_Node000001"><a xlink:title="Singleton wrapper for hardware buffer manager.">
<polygon fill="#999999" stroke="#666666" points="391.5,-177.5 267.5,-177.5 267.5,-147 391.5,-147 391.5,-177.5"/>
<text text-anchor="start" x="275.5" y="-164" font-family="Helvetica,sans-Serif" font-size="10.00">Ogre::v1::HardwareBuffer</text>
<text text-anchor="middle" x="329.5" y="-152.75" font-family="Helvetica,sans-Serif" font-size="10.00">Manager</text>
</a>
</g>
</g>
<!-- Node5 -->
<g id="Node000005" class="node">
<title>Node5</title>
<g id="a_Node000005"><a xlink:href="class_ogre_1_1v1_1_1_d3_d11_hardware_buffer_manager.html" target="_top" xlink:title="D3D11HardwareBufferManagerBase as a Singleton.">
<polygon fill="white" stroke="#666666" points="584.5,-324.5 431.25,-324.5 431.25,-294 584.5,-294 584.5,-324.5"/>
<text text-anchor="start" x="439.25" y="-311" font-family="Helvetica,sans-Serif" font-size="10.00">Ogre::v1::D3D11HardwareBuffer</text>
<text text-anchor="middle" x="507.88" y="-299.75" font-family="Helvetica,sans-Serif" font-size="10.00">Manager</text>
</a>
</g>
</g>
<!-- Node1&#45;&gt;Node5 -->
<g id="edge4_Node000001_Node000005" class="edge">
<title>Node1&#45;&gt;Node5</title>
<g id="a_edge4_Node000001_Node000005"><a xlink:title=" ">
<path fill="none" stroke="#63b8ff" d="M344.36,-187.54C360.75,-215.16 390.52,-258.84 427.5,-284.25 432.74,-287.85 438.52,-290.95 444.51,-293.62"/>
<polygon fill="#63b8ff" stroke="#63b8ff" points="347.54,-186.04 339.51,-179.13 341.47,-189.54 347.54,-186.04"/>
</a>
</g>
</g>
<!-- Node6 -->
<g id="Node000006" class="node">
<title>Node6</title>
<g id="a_Node000006"><a xlink:href="class_ogre_1_1v1_1_1_default_hardware_buffer_manager.html" target="_top" xlink:title="DefaultHardwareBufferManager as a Singleton.">
<polygon fill="white" stroke="#666666" points="572.5,-275.5 443.25,-275.5 443.25,-245 572.5,-245 572.5,-275.5"/>
<text text-anchor="start" x="451.25" y="-262" font-family="Helvetica,sans-Serif" font-size="10.00">Ogre::v1::DefaultHardware</text>
<text text-anchor="middle" x="507.88" y="-250.75" font-family="Helvetica,sans-Serif" font-size="10.00">BufferManager</text>
</a>
</g>
</g>
<!-- Node1&#45;&gt;Node6 -->
<g id="edge5_Node000001_Node000006" class="edge">
<title>Node1&#45;&gt;Node6</title>
<g id="a_edge5_Node000001_Node000006"><a xlink:title=" ">
<path fill="none" stroke="#63b8ff" d="M356.01,-185.29C374.68,-201.16 401.25,-221.74 427.5,-235.25 434.31,-238.75 441.7,-241.88 449.14,-244.63"/>
<polygon fill="#63b8ff" stroke="#63b8ff" points="358.5,-182.82 348.65,-178.92 353.92,-188.11 358.5,-182.82"/>
</a>
</g>
</g>
<!-- Node7 -->
<g id="Node000007" class="node">
<title>Node7</title>
<g id="a_Node000007"><a xlink:href="class_ogre_1_1v1_1_1_g_l3_plus_default_hardware_buffer_manager.html" target="_top" xlink:title="GL3PlusDefaultHardwareBufferManagerBase as a Singleton.">
<polygon fill="white" stroke="#666666" points="570.62,-226.5 445.12,-226.5 445.12,-196 570.62,-196 570.62,-226.5"/>
<text text-anchor="start" x="453.12" y="-213" font-family="Helvetica,sans-Serif" font-size="10.00">Ogre::v1::GL3PlusDefault</text>
<text text-anchor="middle" x="507.88" y="-201.75" font-family="Helvetica,sans-Serif" font-size="10.00">HardwareBufferManager</text>
</a>
</g>
</g>
<!-- Node1&#45;&gt;Node7 -->
<g id="edge6_Node000001_Node000007" class="edge">
<title>Node1&#45;&gt;Node7</title>
<g id="a_edge6_Node000001_Node000007"><a xlink:title=" ">
<path fill="none" stroke="#63b8ff" d="M397.44,-180.85C414.84,-185.68 433.4,-190.84 450.21,-195.51"/>
<polygon fill="#63b8ff" stroke="#63b8ff" points="398.82,-177.6 388.25,-178.29 396.95,-184.34 398.82,-177.6"/>
</a>
</g>
</g>
<!-- Node8 -->
<g id="Node000008" class="node">
<title>Node8</title>
<g id="a_Node000008"><a xlink:href="class_ogre_1_1v1_1_1_g_l3_plus_hardware_buffer_manager.html" target="_top" xlink:title="GL3PlusHardwareBufferManagerBase as a Singleton.">
<polygon fill="white" stroke="#666666" points="576.25,-177.5 439.5,-177.5 439.5,-147 576.25,-147 576.25,-177.5"/>
<text text-anchor="start" x="447.5" y="-164" font-family="Helvetica,sans-Serif" font-size="10.00">Ogre::v1::GL3PlusHardware</text>
<text text-anchor="middle" x="507.88" y="-152.75" font-family="Helvetica,sans-Serif" font-size="10.00">BufferManager</text>
</a>
</g>
</g>
<!-- Node1&#45;&gt;Node8 -->
<g id="edge7_Node000001_Node000008" class="edge">
<title>Node1&#45;&gt;Node8</title>
<g id="a_edge7_Node000001_Node000008"><a xlink:title=" ">
<path fill="none" stroke="#63b8ff" d="M403.01,-162.25C414.97,-162.25 427.32,-162.25 439.16,-162.25"/>
<polygon fill="#63b8ff" stroke="#63b8ff" points="403.21,-158.75 393.21,-162.25 403.21,-165.75 403.21,-158.75"/>
</a>
</g>
</g>
<!-- Node9 -->
<g id="Node000009" class="node">
<title>Node9</title>
<g id="a_Node000009"><a xlink:href="class_ogre_1_1v1_1_1_g_l_e_s2_default_hardware_buffer_manager.html" target="_top" xlink:title="GLES2DefaultHardwareBufferManagerBase as a Singleton.">
<polygon fill="white" stroke="#666666" points="588.25,-128.5 427.5,-128.5 427.5,-98 588.25,-98 588.25,-128.5"/>
<text text-anchor="start" x="435.5" y="-115" font-family="Helvetica,sans-Serif" font-size="10.00">Ogre::v1::GLES2DefaultHardware</text>
<text text-anchor="middle" x="507.88" y="-103.75" font-family="Helvetica,sans-Serif" font-size="10.00">BufferManager</text>
</a>
</g>
</g>
<!-- Node1&#45;&gt;Node9 -->
<g id="edge8_Node000001_Node000009" class="edge">
<title>Node1&#45;&gt;Node9</title>
<g id="a_edge8_Node000001_Node000009"><a xlink:title=" ">
<path fill="none" stroke="#63b8ff" d="M397.44,-143.65C414.84,-138.82 433.4,-133.66 450.21,-128.99"/>
<polygon fill="#63b8ff" stroke="#63b8ff" points="396.95,-140.16 388.25,-146.21 398.82,-146.9 396.95,-140.16"/>
</a>
</g>
</g>
<!-- Node10 -->
<g id="Node000010" class="node">
<title>Node10</title>
<g id="a_Node000010"><a xlink:href="class_ogre_1_1v1_1_1_g_l_e_s2_hardware_buffer_manager.html" target="_top" xlink:title="GLES2HardwareBufferManagerBase as a Singleton.">
<polygon fill="white" stroke="#666666" points="585.62,-79.5 430.12,-79.5 430.12,-49 585.62,-49 585.62,-79.5"/>
<text text-anchor="start" x="438.12" y="-66" font-family="Helvetica,sans-Serif" font-size="10.00">Ogre::v1::GLES2HardwareBuffer</text>
<text text-anchor="middle" x="507.88" y="-54.75" font-family="Helvetica,sans-Serif" font-size="10.00">Manager</text>
</a>
</g>
</g>
<!-- Node1&#45;&gt;Node10 -->
<g id="edge9_Node000001_Node000010" class="edge">
<title>Node1&#45;&gt;Node10</title>
<g id="a_edge9_Node000001_Node000010"><a xlink:title=" ">
<path fill="none" stroke="#63b8ff" d="M356.01,-139.21C374.68,-123.34 401.25,-102.76 427.5,-89.25 434.31,-85.75 441.7,-82.62 449.14,-79.87"/>
<polygon fill="#63b8ff" stroke="#63b8ff" points="353.92,-136.39 348.65,-145.58 358.5,-141.68 353.92,-136.39"/>
</a>
</g>
</g>
<!-- Node11 -->
<g id="Node000011" class="node">
<title>Node11</title>
<g id="a_Node000011"><a xlink:href="class_ogre_1_1v1_1_1_metal_hardware_buffer_manager.html" target="_top" xlink:title="MetalHardwareBufferManagerBase as a Singleton.">
<polygon fill="white" stroke="#666666" points="581.88,-30.5 433.88,-30.5 433.88,0 581.88,0 581.88,-30.5"/>
<text text-anchor="start" x="441.88" y="-17" font-family="Helvetica,sans-Serif" font-size="10.00">Ogre::v1::MetalHardwareBuffer</text>
<text text-anchor="middle" x="507.88" y="-5.75" font-family="Helvetica,sans-Serif" font-size="10.00">Manager</text>
</a>
</g>
</g>
<!-- Node1&#45;&gt;Node11 -->
<g id="edge10_Node000001_Node000011" class="edge">
<title>Node1&#45;&gt;Node11</title>
<g id="a_edge10_Node000001_Node000011"><a xlink:title=" ">
<path fill="none" stroke="#63b8ff" d="M344.36,-136.96C360.75,-109.34 390.52,-65.66 427.5,-40.25 432.74,-36.65 438.52,-33.55 444.51,-30.88"/>
<polygon fill="#63b8ff" stroke="#63b8ff" points="341.47,-134.96 339.51,-145.37 347.54,-138.46 341.47,-134.96"/>
</a>
</g>
</g>
<!-- Node2 -->
<g id="Node000002" class="node">
<title>Node2</title>
<g id="a_Node000002"><a xlink:href="class_ogre_1_1v1_1_1_hardware_buffer_manager_base.html" target="_top" xlink:title="Base definition of a hardware buffer manager.">
<polygon fill="white" stroke="#666666" points="227.38,-202.5 103.38,-202.5 103.38,-172 227.38,-172 227.38,-202.5"/>
<text text-anchor="start" x="111.38" y="-189" font-family="Helvetica,sans-Serif" font-size="10.00">Ogre::v1::HardwareBuffer</text>
<text text-anchor="middle" x="165.38" y="-177.75" font-family="Helvetica,sans-Serif" font-size="10.00">ManagerBase</text>
</a>
</g>
</g>
<!-- Node2&#45;&gt;Node1 -->
<g id="edge1_Node000001_Node000002" class="edge">
<title>Node2&#45;&gt;Node1</title>
<g id="a_edge1_Node000001_Node000002"><a xlink:title=" ">
<path fill="none" stroke="#63b8ff" d="M239.01,-176.05C248.4,-174.6 257.94,-173.13 267.12,-171.71"/>
<polygon fill="#63b8ff" stroke="#63b8ff" points="238.51,-172.58 229.16,-177.57 239.58,-179.5 238.51,-172.58"/>
</a>
</g>
</g>
<!-- Node3 -->
<g id="Node000003" class="node">
<title>Node3</title>
<g id="a_Node000003"><a xlink:href="class_ogre_1_1_allocated_object.html" target="_top" xlink:title="Superclass for all objects that wish to use custom memory allocators when their new / delete operator...">
<polygon fill="white" stroke="#666666" points="63.25,-196.88 0,-196.88 0,-177.62 63.25,-177.62 63.25,-196.88"/>
<text text-anchor="middle" x="31.62" y="-183.38" font-family="Helvetica,sans-Serif" font-size="10.00">BufferAlloc</text>
</a>
</g>
</g>
<!-- Node3&#45;&gt;Node2 -->
<g id="edge2_Node000002_Node000003" class="edge">
<title>Node3&#45;&gt;Node2</title>
<g id="a_edge2_Node000002_Node000003"><a xlink:title=" ">
<path fill="none" stroke="#63b8ff" d="M74.89,-187.25C83.88,-187.25 93.56,-187.25 103.11,-187.25"/>
<polygon fill="#63b8ff" stroke="#63b8ff" points="75.03,-183.75 65.03,-187.25 75.03,-190.75 75.03,-183.75"/>
</a>
</g>
</g>
<!-- Node4 -->
<g id="Node000004" class="node">
<title>Node4</title>
<g id="a_Node000004"><a xlink:href="class_ogre_1_1_singleton.html" target="_top" xlink:title=" ">
<polygon fill="white" stroke="#666666" points="231.5,-153.5 99.25,-153.5 99.25,-123 231.5,-123 231.5,-153.5"/>
<text text-anchor="start" x="107.25" y="-140" font-family="Helvetica,sans-Serif" font-size="10.00">Ogre::Singleton&lt; Hardware</text>
<text text-anchor="middle" x="165.38" y="-128.75" font-family="Helvetica,sans-Serif" font-size="10.00">BufferManager &gt;</text>
</a>
</g>
</g>
<!-- Node4&#45;&gt;Node1 -->
<g id="edge3_Node000001_Node000004" class="edge">
<title>Node4&#45;&gt;Node1</title>
<g id="a_edge3_Node000001_Node000004"><a xlink:title=" ">
<path fill="none" stroke="#63b8ff" d="M243.19,-149.62C251.26,-150.82 259.38,-152.02 267.24,-153.18"/>
<polygon fill="#63b8ff" stroke="#63b8ff" points="243.75,-146.17 233.35,-148.16 242.73,-153.09 243.75,-146.17"/>
</a>
</g>
</g>
</g>
</svg>
