<?xml version="1.0" encoding="UTF-8" standalone="no"?>
<!DOCTYPE svg PUBLIC "-//W3C//DTD SVG 1.1//EN"
 "http://www.w3.org/Graphics/SVG/1.1/DTD/svg11.dtd">
<!-- Generated by graphviz version 9.0.0 (20230911.1827)
 -->
<!-- Title: Ogre::RTShader::FFPTexturing Pages: 1 -->
<svg width="170pt" height="204pt"
 viewBox="0.00 0.00 169.50 204.25" xmlns="http://www.w3.org/2000/svg" xmlns:xlink="http://www.w3.org/1999/xlink">
<g id="graph0" class="graph" transform="scale(1 1) rotate(0) translate(4 200.25)">
<title>Ogre::RTShader::FFPTexturing</title>
<!-- Node1 -->
<g id="Node000001" class="node">
<title>Node1</title>
<g id="a_Node000001"><a xlink:title="Texturing sub render state implementation of the Fixed Function Pipeline.">
<polygon fill="#999999" stroke="#666666" points="154.75,-74.5 6.75,-74.5 6.75,-55.25 154.75,-55.25 154.75,-74.5"/>
<text text-anchor="middle" x="80.75" y="-61" font-family="Helvetica,sans-Serif" font-size="10.00">Ogre::RTShader::FFPTexturing</text>
</a>
</g>
</g>
<!-- Node4 -->
<g id="Node000004" class="node">
<title>Node4</title>
<g id="a_Node000004"><a xlink:href="class_ogre_1_1_r_t_shader_1_1_layered_blending.html" target="_top" xlink:title="Texturing sub render state implementation of layered blending.">
<polygon fill="white" stroke="#666666" points="161.5,-19.25 0,-19.25 0,0 161.5,0 161.5,-19.25"/>
<text text-anchor="middle" x="80.75" y="-5.75" font-family="Helvetica,sans-Serif" font-size="10.00">Ogre::RTShader::LayeredBlending</text>
</a>
</g>
</g>
<!-- Node1&#45;&gt;Node4 -->
<g id="edge3_Node000001_Node000004" class="edge">
<title>Node1&#45;&gt;Node4</title>
<g id="a_edge3_Node000001_Node000004"><a xlink:title=" ">
<path fill="none" stroke="#63b8ff" d="M80.75,-43.63C80.75,-35.34 80.75,-26.17 80.75,-19.61"/>
<polygon fill="#63b8ff" stroke="#63b8ff" points="77.25,-43.57 80.75,-53.57 84.25,-43.57 77.25,-43.57"/>
</a>
</g>
</g>
<!-- Node2 -->
<g id="Node000002" class="node">
<title>Node2</title>
<g id="a_Node000002"><a xlink:href="class_ogre_1_1_r_t_shader_1_1_sub_render_state.html" target="_top" xlink:title="This class is the base interface of sub part from a shader based rendering pipeline.">
<polygon fill="white" stroke="#666666" points="149.5,-141 12,-141 12,-110.5 149.5,-110.5 149.5,-141"/>
<text text-anchor="start" x="20" y="-127.5" font-family="Helvetica,sans-Serif" font-size="10.00">Ogre::RTShader::SubRender</text>
<text text-anchor="middle" x="80.75" y="-116.25" font-family="Helvetica,sans-Serif" font-size="10.00">State</text>
</a>
</g>
</g>
<!-- Node2&#45;&gt;Node1 -->
<g id="edge1_Node000001_Node000002" class="edge">
<title>Node2&#45;&gt;Node1</title>
<g id="a_edge1_Node000001_Node000002"><a xlink:title=" ">
<path fill="none" stroke="#63b8ff" d="M80.75,-98.73C80.75,-90.23 80.75,-81.34 80.75,-74.95"/>
<polygon fill="#63b8ff" stroke="#63b8ff" points="77.25,-98.68 80.75,-108.68 84.25,-98.68 77.25,-98.68"/>
</a>
</g>
</g>
<!-- Node3 -->
<g id="Node000003" class="node">
<title>Node3</title>
<g id="a_Node000003"><a xlink:href="class_ogre_1_1_allocated_object.html" target="_top" xlink:title="Superclass for all objects that wish to use custom memory allocators when their new / delete operator...">
<polygon fill="white" stroke="#666666" points="137.88,-196.25 23.62,-196.25 23.62,-177 137.88,-177 137.88,-196.25"/>
<text text-anchor="middle" x="80.75" y="-182.75" font-family="Helvetica,sans-Serif" font-size="10.00">RTShaderSystemAlloc</text>
</a>
</g>
</g>
<!-- Node3&#45;&gt;Node2 -->
<g id="edge2_Node000002_Node000003" class="edge">
<title>Node3&#45;&gt;Node2</title>
<g id="a_edge2_Node000002_Node000003"><a xlink:title=" ">
<path fill="none" stroke="#63b8ff" d="M80.75,-165.42C80.75,-157.49 80.75,-148.56 80.75,-141.28"/>
<polygon fill="#63b8ff" stroke="#63b8ff" points="77.25,-165.17 80.75,-175.17 84.25,-165.17 77.25,-165.17"/>
</a>
</g>
</g>
</g>
</svg>
