<?xml version="1.0" encoding="UTF-8" standalone="no"?>
<!DOCTYPE svg PUBLIC "-//W3C//DTD SVG 1.1//EN"
 "http://www.w3.org/Graphics/SVG/1.1/DTD/svg11.dtd">
<!-- Generated by graphviz version 7.0.5 (20221223.1930)
 -->
<!-- Title: Ogre::DataStream Pages: 1 -->
<svg width="385pt" height="175pt"
 viewBox="0.00 0.00 385.00 175.00" xmlns="http://www.w3.org/2000/svg" xmlns:xlink="http://www.w3.org/1999/xlink">
<g id="graph0" class="graph" transform="scale(1 1) rotate(0) translate(4 171)">
<title>Ogre::DataStream</title>
<!-- Node1 -->
<g id="node1" class="node">
<title>Node1</title>
<g id="a_node1"><a xlink:title="General purpose class used for encapsulating the reading and writing of data.">
<polygon fill="#999999" stroke="#666666" points="200,-93 106,-93 106,-74 200,-74 200,-93"/>
<text text-anchor="middle" x="153" y="-81" font-family="Helvetica,sans-Serif" font-size="10.00">Ogre::DataStream</text>
</a>
</g>
</g>
<!-- Node3 -->
<g id="node3" class="node">
<title>Node3</title>
<g id="a_node3"><a xlink:href="class_ogre_1_1_deflate_stream.html" target="_top" xlink:title="Stream which compresses / uncompresses data using the &#39;deflate&#39; compression algorithm.">
<polygon fill="white" stroke="#666666" points="358.5,-167 254.5,-167 254.5,-148 358.5,-148 358.5,-167"/>
<text text-anchor="middle" x="306.5" y="-155" font-family="Helvetica,sans-Serif" font-size="10.00">Ogre::DeflateStream</text>
</a>
</g>
</g>
<!-- Node1&#45;&gt;Node3 -->
<g id="edge2" class="edge">
<title>Node1&#45;&gt;Node3</title>
<path fill="none" stroke="#63b8ff" d="M174.62,-100.57C190.51,-112.97 213.51,-129.29 236,-139.5 242.92,-142.64 250.49,-145.31 258.01,-147.55"/>
<polygon fill="#63b8ff" stroke="#63b8ff" points="176.89,-97.91 166.89,-94.4 172.52,-103.37 176.89,-97.91"/>
</g>
<!-- Node4 -->
<g id="node4" class="node">
<title>Node4</title>
<g id="a_node4"><a xlink:href="class_ogre_1_1_file_handle_data_stream.html" target="_top" xlink:title="Common subclass of DataStream for handling data from C&#45;style file handles.">
<polygon fill="white" stroke="#666666" points="376.5,-130 236.5,-130 236.5,-111 376.5,-111 376.5,-130"/>
<text text-anchor="middle" x="306.5" y="-118" font-family="Helvetica,sans-Serif" font-size="10.00">Ogre::FileHandleDataStream</text>
</a>
</g>
</g>
<!-- Node1&#45;&gt;Node4 -->
<g id="edge3" class="edge">
<title>Node1&#45;&gt;Node4</title>
<path fill="none" stroke="#63b8ff" d="M205.65,-96.12C224.96,-100.83 246.6,-106.12 264.79,-110.56"/>
<polygon fill="#63b8ff" stroke="#63b8ff" points="206.61,-92.75 196.07,-93.77 204.95,-99.55 206.61,-92.75"/>
</g>
<!-- Node5 -->
<g id="node5" class="node">
<title>Node5</title>
<g id="a_node5"><a xlink:href="class_ogre_1_1_file_stream_data_stream.html" target="_top" xlink:title="Common subclass of DataStream for handling data from std::basic_istream.">
<polygon fill="white" stroke="#666666" points="377,-93 236,-93 236,-74 377,-74 377,-93"/>
<text text-anchor="middle" x="306.5" y="-81" font-family="Helvetica,sans-Serif" font-size="10.00">Ogre::FileStreamDataStream</text>
</a>
</g>
</g>
<!-- Node1&#45;&gt;Node5 -->
<g id="edge4" class="edge">
<title>Node1&#45;&gt;Node5</title>
<path fill="none" stroke="#63b8ff" d="M211.53,-83.5C219.37,-83.5 227.48,-83.5 235.52,-83.5"/>
<polygon fill="#63b8ff" stroke="#63b8ff" points="211.79,-80 201.79,-83.5 211.79,-87 211.79,-80"/>
</g>
<!-- Node6 -->
<g id="node6" class="node">
<title>Node6</title>
<g id="a_node6"><a xlink:href="class_ogre_1_1_memory_data_stream.html" target="_top" xlink:title="Common subclass of DataStream for handling data from chunks of memory.">
<polygon fill="white" stroke="#666666" points="370.5,-56 242.5,-56 242.5,-37 370.5,-37 370.5,-56"/>
<text text-anchor="middle" x="306.5" y="-44" font-family="Helvetica,sans-Serif" font-size="10.00">Ogre::MemoryDataStream</text>
</a>
</g>
</g>
<!-- Node1&#45;&gt;Node6 -->
<g id="edge5" class="edge">
<title>Node1&#45;&gt;Node6</title>
<path fill="none" stroke="#63b8ff" d="M205.65,-70.88C224.96,-66.17 246.6,-60.88 264.79,-56.44"/>
<polygon fill="#63b8ff" stroke="#63b8ff" points="204.95,-67.45 196.07,-73.23 206.61,-74.25 204.95,-67.45"/>
</g>
<!-- Node7 -->
<g id="node7" class="node">
<title>Node7</title>
<g id="a_node7"><a xlink:href="class_ogre_1_1_zip_data_stream.html" target="_top" xlink:title="Specialisation of DataStream to handle streaming data from zip archives.">
<polygon fill="white" stroke="#666666" points="360,-19 253,-19 253,0 360,0 360,-19"/>
<text text-anchor="middle" x="306.5" y="-7" font-family="Helvetica,sans-Serif" font-size="10.00">Ogre::ZipDataStream</text>
</a>
</g>
</g>
<!-- Node1&#45;&gt;Node7 -->
<g id="edge6" class="edge">
<title>Node1&#45;&gt;Node7</title>
<path fill="none" stroke="#63b8ff" d="M174.62,-66.43C190.51,-54.03 213.51,-37.71 236,-27.5 242.92,-24.36 250.49,-21.69 258.01,-19.45"/>
<polygon fill="#63b8ff" stroke="#63b8ff" points="172.52,-63.63 166.89,-72.6 176.89,-69.09 172.52,-63.63"/>
</g>
<!-- Node2 -->
<g id="node2" class="node">
<title>Node2</title>
<g id="a_node2"><a xlink:href="class_ogre_1_1_allocated_object.html" target="_top" xlink:title="Superclass for all objects that wish to use custom memory allocators when their new / delete operator...">
<polygon fill="white" stroke="#666666" points="70,-93 0,-93 0,-74 70,-74 70,-93"/>
<text text-anchor="middle" x="35" y="-81" font-family="Helvetica,sans-Serif" font-size="10.00">StreamAlloc</text>
</a>
</g>
</g>
<!-- Node2&#45;&gt;Node1 -->
<g id="edge1" class="edge">
<title>Node2&#45;&gt;Node1</title>
<path fill="none" stroke="#63b8ff" d="M81.78,-83.5C89.68,-83.5 97.91,-83.5 105.83,-83.5"/>
<polygon fill="#63b8ff" stroke="#63b8ff" points="82,-80 72,-83.5 82,-87 82,-80"/>
</g>
</g>
</svg>
