<?xml version="1.0" encoding="UTF-8" standalone="no"?>
<!DOCTYPE svg PUBLIC "-//W3C//DTD SVG 1.1//EN"
 "http://www.w3.org/Graphics/SVG/1.1/DTD/svg11.dtd">
<!-- Generated by graphviz version 7.0.5 (20221223.1930)
 -->
<!-- Title: Ogre::CompositorPass Pages: 1 -->
<svg width="461pt" height="323pt"
 viewBox="0.00 0.00 461.00 323.00" xmlns="http://www.w3.org/2000/svg" xmlns:xlink="http://www.w3.org/1999/xlink">
<g id="graph0" class="graph" transform="scale(1 1) rotate(0) translate(4 319)">
<title>Ogre::CompositorPass</title>
<!-- Node1 -->
<g id="node1" class="node">
<title>Node1</title>
<g id="a_node1"><a xlink:title="Abstract class for compositor passes.">
<polygon fill="#999999" stroke="#666666" points="254,-167 140,-167 140,-148 254,-148 254,-167"/>
<text text-anchor="middle" x="197" y="-155" font-family="Helvetica,sans-Serif" font-size="10.00">Ogre::CompositorPass</text>
</a>
</g>
</g>
<!-- Node3 -->
<g id="node3" class="node">
<title>Node3</title>
<g id="a_node3"><a xlink:href="class_ogre_1_1_compositor_pass_clear.html" target="_top" xlink:title="Implementation of CompositorPass This implementation will clear the RenderTarget using the parameters...">
<polygon fill="white" stroke="#666666" points="440,-315 303,-315 303,-296 440,-296 440,-315"/>
<text text-anchor="middle" x="371.5" y="-303" font-family="Helvetica,sans-Serif" font-size="10.00">Ogre::CompositorPassClear</text>
</a>
</g>
</g>
<!-- Node1&#45;&gt;Node3 -->
<g id="edge2" class="edge">
<title>Node1&#45;&gt;Node3</title>
<path fill="none" stroke="#63b8ff" d="M206.52,-177.69C219.86,-206.75 248.53,-259.89 290,-287.5 294.89,-290.75 300.27,-293.43 305.87,-295.62"/>
<polygon fill="#63b8ff" stroke="#63b8ff" points="209.73,-176.3 202.49,-168.57 203.33,-179.13 209.73,-176.3"/>
</g>
<!-- Node4 -->
<g id="node4" class="node">
<title>Node4</title>
<g id="a_node4"><a xlink:href="class_ogre_1_1_compositor_pass_compute.html" target="_top" xlink:title="Implementation of CompositorPass This implementation will render a fullscreen triangle/quad to the Re...">
<polygon fill="white" stroke="#666666" points="448,-278 295,-278 295,-259 448,-259 448,-278"/>
<text text-anchor="middle" x="371.5" y="-266" font-family="Helvetica,sans-Serif" font-size="10.00">Ogre::CompositorPassCompute</text>
</a>
</g>
</g>
<!-- Node1&#45;&gt;Node4 -->
<g id="edge3" class="edge">
<title>Node1&#45;&gt;Node4</title>
<path fill="none" stroke="#63b8ff" d="M211.46,-176.56C227.61,-197.96 256.72,-232.08 290,-250.5 295.89,-253.76 302.33,-256.43 308.92,-258.61"/>
<polygon fill="#63b8ff" stroke="#63b8ff" points="214.42,-174.69 205.69,-168.69 208.77,-178.82 214.42,-174.69"/>
</g>
<!-- Node5 -->
<g id="node5" class="node">
<title>Node5</title>
<g id="a_node5"><a xlink:href="class_ogre_1_1_compositor_pass_depth_copy.html" target="_top" xlink:title="Implementation of CompositorPass This implementation will copy one DepthBuffer to another DepthBuffer...">
<polygon fill="white" stroke="#666666" points="452,-241 291,-241 291,-222 452,-222 452,-241"/>
<text text-anchor="middle" x="371.5" y="-229" font-family="Helvetica,sans-Serif" font-size="10.00">Ogre::CompositorPassDepthCopy</text>
</a>
</g>
</g>
<!-- Node1&#45;&gt;Node5 -->
<g id="edge4" class="edge">
<title>Node1&#45;&gt;Node5</title>
<path fill="none" stroke="#63b8ff" d="M220.29,-173.94C238.27,-186.48 264.66,-203.28 290,-213.5 297.84,-216.66 306.34,-219.32 314.78,-221.54"/>
<polygon fill="#63b8ff" stroke="#63b8ff" points="222.39,-171.14 212.22,-168.19 218.33,-176.84 222.39,-171.14"/>
</g>
<!-- Node6 -->
<g id="node6" class="node">
<title>Node6</title>
<g id="a_node6"><a xlink:href="class_ogre_1_1_compositor_pass_ibl_specular.html" target="_top" xlink:title="Implementation of CompositorPass This implementation will generate IblSpeculars for the specified tex...">
<polygon fill="white" stroke="#666666" points="453,-204 290,-204 290,-185 453,-185 453,-204"/>
<text text-anchor="middle" x="371.5" y="-192" font-family="Helvetica,sans-Serif" font-size="10.00">Ogre::CompositorPassIblSpecular</text>
</a>
</g>
</g>
<!-- Node1&#45;&gt;Node6 -->
<g id="edge5" class="edge">
<title>Node1&#45;&gt;Node6</title>
<path fill="none" stroke="#63b8ff" d="M255.28,-169.79C277.65,-174.58 302.96,-180.01 324.15,-184.56"/>
<polygon fill="#63b8ff" stroke="#63b8ff" points="256.22,-166.41 245.71,-167.73 254.75,-173.25 256.22,-166.41"/>
</g>
<!-- Node7 -->
<g id="node7" class="node">
<title>Node7</title>
<g id="a_node7"><a xlink:href="class_ogre_1_1_compositor_pass_mipmap.html" target="_top" xlink:title="Implementation of CompositorPass This implementation will generate mipmaps for the specified texture.">
<polygon fill="white" stroke="#666666" points="446,-167 297,-167 297,-148 446,-148 446,-167"/>
<text text-anchor="middle" x="371.5" y="-155" font-family="Helvetica,sans-Serif" font-size="10.00">Ogre::CompositorPassMipmap</text>
</a>
</g>
</g>
<!-- Node1&#45;&gt;Node7 -->
<g id="edge6" class="edge">
<title>Node1&#45;&gt;Node7</title>
<path fill="none" stroke="#63b8ff" d="M265.74,-157.5C275.88,-157.5 286.37,-157.5 296.62,-157.5"/>
<polygon fill="#63b8ff" stroke="#63b8ff" points="266,-154 256,-157.5 266,-161 266,-154"/>
</g>
<!-- Node8 -->
<g id="node8" class="node">
<title>Node8</title>
<g id="a_node8"><a xlink:href="class_ogre_1_1_compositor_pass_quad.html" target="_top" xlink:title="Implementation of CompositorPass This implementation will render a fullscreen triangle/quad to the Re...">
<polygon fill="white" stroke="#666666" points="440,-130 303,-130 303,-111 440,-111 440,-130"/>
<text text-anchor="middle" x="371.5" y="-118" font-family="Helvetica,sans-Serif" font-size="10.00">Ogre::CompositorPassQuad</text>
</a>
</g>
</g>
<!-- Node1&#45;&gt;Node8 -->
<g id="edge7" class="edge">
<title>Node1&#45;&gt;Node8</title>
<path fill="none" stroke="#63b8ff" d="M255.28,-145.21C277.65,-140.42 302.96,-134.99 324.15,-130.44"/>
<polygon fill="#63b8ff" stroke="#63b8ff" points="254.75,-141.75 245.71,-147.27 256.22,-148.59 254.75,-141.75"/>
</g>
<!-- Node9 -->
<g id="node9" class="node">
<title>Node9</title>
<g id="a_node9"><a xlink:href="class_ogre_1_1_compositor_pass_scene.html" target="_top" xlink:title="Implementation of CompositorPass This implementation will perform main rendering, selecting several p...">
<polygon fill="white" stroke="#666666" points="442.5,-93 300.5,-93 300.5,-74 442.5,-74 442.5,-93"/>
<text text-anchor="middle" x="371.5" y="-81" font-family="Helvetica,sans-Serif" font-size="10.00">Ogre::CompositorPassScene</text>
</a>
</g>
</g>
<!-- Node1&#45;&gt;Node9 -->
<g id="edge8" class="edge">
<title>Node1&#45;&gt;Node9</title>
<path fill="none" stroke="#63b8ff" d="M220.29,-141.06C238.27,-128.52 264.66,-111.72 290,-101.5 297.84,-98.34 306.34,-95.68 314.78,-93.46"/>
<polygon fill="#63b8ff" stroke="#63b8ff" points="218.33,-138.16 212.22,-146.81 222.39,-143.86 218.33,-138.16"/>
</g>
<!-- Node10 -->
<g id="node10" class="node">
<title>Node10</title>
<g id="a_node10"><a xlink:href="class_ogre_1_1_compositor_pass_stencil.html" target="_top" xlink:title="Implementation of CompositorPass This implementation will clear the RenderTarget using the parameters...">
<polygon fill="white" stroke="#666666" points="443.5,-56 299.5,-56 299.5,-37 443.5,-37 443.5,-56"/>
<text text-anchor="middle" x="371.5" y="-44" font-family="Helvetica,sans-Serif" font-size="10.00">Ogre::CompositorPassStencil</text>
</a>
</g>
</g>
<!-- Node1&#45;&gt;Node10 -->
<g id="edge9" class="edge">
<title>Node1&#45;&gt;Node10</title>
<path fill="none" stroke="#63b8ff" d="M211.46,-138.44C227.61,-117.04 256.72,-82.92 290,-64.5 295.89,-61.24 302.33,-58.57 308.92,-56.39"/>
<polygon fill="#63b8ff" stroke="#63b8ff" points="208.77,-136.18 205.69,-146.31 214.42,-140.31 208.77,-136.18"/>
</g>
<!-- Node11 -->
<g id="node11" class="node">
<title>Node11</title>
<g id="a_node11"><a xlink:href="class_ogre_1_1_compositor_pass_uav.html" target="_top" xlink:title="Implementation of CompositorPass This implementation will set UAVs.">
<polygon fill="white" stroke="#666666" points="437.5,-19 305.5,-19 305.5,0 437.5,0 437.5,-19"/>
<text text-anchor="middle" x="371.5" y="-7" font-family="Helvetica,sans-Serif" font-size="10.00">Ogre::CompositorPassUav</text>
</a>
</g>
</g>
<!-- Node1&#45;&gt;Node11 -->
<g id="edge10" class="edge">
<title>Node1&#45;&gt;Node11</title>
<path fill="none" stroke="#63b8ff" d="M206.52,-137.31C219.86,-108.25 248.53,-55.11 290,-27.5 294.89,-24.25 300.27,-21.57 305.87,-19.38"/>
<polygon fill="#63b8ff" stroke="#63b8ff" points="203.33,-135.87 202.49,-146.43 209.73,-138.7 203.33,-135.87"/>
</g>
<!-- Node2 -->
<g id="node2" class="node">
<title>Node2</title>
<g id="a_node2"><a xlink:href="class_ogre_1_1_allocated_object.html" target="_top" xlink:title="Superclass for all objects that wish to use custom memory allocators when their new / delete operator...">
<polygon fill="white" stroke="#666666" points="104,-167 0,-167 0,-148 104,-148 104,-167"/>
<text text-anchor="middle" x="52" y="-155" font-family="Helvetica,sans-Serif" font-size="10.00">CompositorInstAlloc</text>
</a>
</g>
</g>
<!-- Node2&#45;&gt;Node1 -->
<g id="edge1" class="edge">
<title>Node2&#45;&gt;Node1</title>
<path fill="none" stroke="#63b8ff" d="M115.5,-157.5C123.59,-157.5 131.83,-157.5 139.8,-157.5"/>
<polygon fill="#63b8ff" stroke="#63b8ff" points="115.74,-154 105.74,-157.5 115.74,-161 115.74,-154"/>
</g>
</g>
</svg>
