<?xml version="1.0" encoding="UTF-8" standalone="no"?>
<!DOCTYPE svg PUBLIC "-//W3C//DTD SVG 1.1//EN"
 "http://www.w3.org/Graphics/SVG/1.1/DTD/svg11.dtd">
<!-- Generated by graphviz version 2.44.0 ()
 -->
<!-- Title: Ogre::v1::AnimationTrack Pages: 1 -->
<svg width="436pt" height="176pt"
 viewBox="0.00 0.00 436.00 175.50" xmlns="http://www.w3.org/2000/svg" xmlns:xlink="http://www.w3.org/1999/xlink">
<g id="graph0" class="graph" transform="scale(1 1) rotate(0) translate(4 171.5)">
<title>Ogre::v1::AnimationTrack</title>
<!-- Node1 -->
<g id="node1" class="node">
<title>Node1</title>
<g id="a_node1"><a xlink:title="A &#39;track&#39; in an animation sequence, i.e.">
<polygon fill="#bfbfbf" stroke="black" points="118,-79 118,-98 243,-98 243,-79 118,-79"/>
<text text-anchor="middle" x="180.5" y="-86" font-family="Helvetica,sans-Serif" font-size="10.00">Ogre::v1::AnimationTrack</text>
</a>
</g>
</g>
<!-- Node3 -->
<g id="node3" class="node">
<title>Node3</title>
<g id="a_node3"><a xlink:href="class_ogre_1_1v1_1_1_node_animation_track.html" target="_top" xlink:title="Specialised AnimationTrack for dealing with node transforms.">
<polygon fill="none" stroke="black" points="279,-148 279,-167 428,-167 428,-148 279,-148"/>
<text text-anchor="middle" x="353.5" y="-155" font-family="Helvetica,sans-Serif" font-size="10.00">Ogre::v1::NodeAnimationTrack</text>
</a>
</g>
</g>
<!-- Node1&#45;&gt;Node3 -->
<g id="edge2" class="edge">
<title>Node1&#45;&gt;Node3</title>
<path fill="none" stroke="midnightblue" d="M206.3,-103.16C225.6,-114.08 253.33,-128.74 279,-138.5 288.49,-142.11 298.91,-145.26 308.86,-147.91"/>
<polygon fill="midnightblue" stroke="midnightblue" points="207.97,-100.08 197.55,-98.14 204.48,-106.15 207.97,-100.08"/>
</g>
<!-- Node4 -->
<g id="node4" class="node">
<title>Node4</title>
<g id="a_node4"><a xlink:href="class_ogre_1_1v1_1_1_numeric_animation_track.html" target="_top" xlink:title="Specialised AnimationTrack for dealing with generic animable values.">
<polygon fill="none" stroke="black" points="285,-98.5 285,-128.5 422,-128.5 422,-98.5 285,-98.5"/>
<text text-anchor="start" x="293" y="-116.5" font-family="Helvetica,sans-Serif" font-size="10.00">Ogre::v1::NumericAnimation</text>
<text text-anchor="middle" x="353.5" y="-105.5" font-family="Helvetica,sans-Serif" font-size="10.00">Track</text>
</a>
</g>
</g>
<!-- Node1&#45;&gt;Node4 -->
<g id="edge3" class="edge">
<title>Node1&#45;&gt;Node4</title>
<path fill="none" stroke="midnightblue" d="M253.17,-98.98C263.64,-100.51 274.39,-102.08 284.78,-103.6"/>
<polygon fill="midnightblue" stroke="midnightblue" points="253.64,-95.51 243.23,-97.53 252.62,-102.44 253.64,-95.51"/>
</g>
<!-- Node5 -->
<g id="node5" class="node">
<title>Node5</title>
<g id="a_node5"><a xlink:href="class_ogre_1_1v1_1_1_old_node_animation_track.html" target="_top" xlink:title="Specialised AnimationTrack for dealing with node transforms.">
<polygon fill="none" stroke="black" points="284,-49.5 284,-79.5 423,-79.5 423,-49.5 284,-49.5"/>
<text text-anchor="start" x="292" y="-67.5" font-family="Helvetica,sans-Serif" font-size="10.00">Ogre::v1::OldNodeAnimation</text>
<text text-anchor="middle" x="353.5" y="-56.5" font-family="Helvetica,sans-Serif" font-size="10.00">Track</text>
</a>
</g>
</g>
<!-- Node1&#45;&gt;Node5 -->
<g id="edge4" class="edge">
<title>Node1&#45;&gt;Node5</title>
<path fill="none" stroke="midnightblue" d="M253.27,-78.43C263.41,-77 273.82,-75.54 283.9,-74.13"/>
<polygon fill="midnightblue" stroke="midnightblue" points="252.65,-74.98 243.23,-79.84 253.62,-81.91 252.65,-74.98"/>
</g>
<!-- Node6 -->
<g id="node6" class="node">
<title>Node6</title>
<g id="a_node6"><a xlink:href="class_ogre_1_1v1_1_1_vertex_animation_track.html" target="_top" xlink:title="Specialised AnimationTrack for dealing with changing vertex position information.">
<polygon fill="none" stroke="black" points="289.5,-0.5 289.5,-30.5 417.5,-30.5 417.5,-0.5 289.5,-0.5"/>
<text text-anchor="start" x="297.5" y="-18.5" font-family="Helvetica,sans-Serif" font-size="10.00">Ogre::v1::VertexAnimation</text>
<text text-anchor="middle" x="353.5" y="-7.5" font-family="Helvetica,sans-Serif" font-size="10.00">Track</text>
</a>
</g>
</g>
<!-- Node1&#45;&gt;Node6 -->
<g id="edge5" class="edge">
<title>Node1&#45;&gt;Node6</title>
<path fill="none" stroke="midnightblue" d="M207.57,-74.05C226.93,-63.66 254.16,-49.73 279,-39.5 286.57,-36.38 294.71,-33.39 302.71,-30.63"/>
<polygon fill="midnightblue" stroke="midnightblue" points="205.87,-70.99 198.74,-78.84 209.2,-77.15 205.87,-70.99"/>
</g>
<!-- Node2 -->
<g id="node2" class="node">
<title>Node2</title>
<g id="a_node2"><a xlink:href="class_ogre_1_1_allocated_object.html" target="_top" xlink:title="Superclass for all objects that wish to use custom memory allocators when their new / delete operator...">
<polygon fill="none" stroke="black" points="0,-79 0,-98 82,-98 82,-79 0,-79"/>
<text text-anchor="middle" x="41" y="-86" font-family="Helvetica,sans-Serif" font-size="10.00">AnimationAlloc</text>
</a>
</g>
</g>
<!-- Node2&#45;&gt;Node1 -->
<g id="edge1" class="edge">
<title>Node2&#45;&gt;Node1</title>
<path fill="none" stroke="midnightblue" d="M92.38,-88.5C100.66,-88.5 109.32,-88.5 117.83,-88.5"/>
<polygon fill="midnightblue" stroke="midnightblue" points="92.14,-85 82.14,-88.5 92.14,-92 92.14,-85"/>
</g>
</g>
</svg>
