<?xml version="1.0" encoding="UTF-8" standalone="no"?>
<!DOCTYPE svg PUBLIC "-//W3C//DTD SVG 1.1//EN"
 "http://www.w3.org/Graphics/SVG/1.1/DTD/svg11.dtd">
<!-- Generated by graphviz version 2.44.0 ()
 -->
<!-- Title: Ogre::RTShader::SubRenderState Pages: 1 -->
<svg width="684pt" height="513pt"
 viewBox="0.00 0.00 684.00 512.50" xmlns="http://www.w3.org/2000/svg" xmlns:xlink="http://www.w3.org/1999/xlink">
<g id="graph0" class="graph" transform="scale(1 1) rotate(0) translate(4 508.5)">
<title>Ogre::RTShader::SubRenderState</title>
<!-- Node1 -->
<g id="node1" class="node">
<title>Node1</title>
<g id="a_node1"><a xlink:title="This class is the base interface of sub part from a shader based rendering pipeline.">
<polygon fill="#bfbfbf" stroke="black" points="151,-267.5 151,-297.5 289,-297.5 289,-267.5 151,-267.5"/>
<text text-anchor="start" x="159" y="-285.5" font-family="Helvetica,sans-Serif" font-size="10.00">Ogre::RTShader::SubRender</text>
<text text-anchor="middle" x="220" y="-274.5" font-family="Helvetica,sans-Serif" font-size="10.00">State</text>
</a>
</g>
</g>
<!-- Node3 -->
<g id="node3" class="node">
<title>Node3</title>
<g id="a_node3"><a xlink:href="class_ogre_1_1_r_t_shader_1_1_f_f_p_alpha_test.html" target="_top" xlink:title="A factory that enables creation of LayeredBlending instances.">
<polygon fill="none" stroke="black" points="325,-485 325,-504 478,-504 478,-485 325,-485"/>
<text text-anchor="middle" x="401.5" y="-492" font-family="Helvetica,sans-Serif" font-size="10.00">Ogre::RTShader::FFPAlphaTest</text>
</a>
</g>
</g>
<!-- Node1&#45;&gt;Node3 -->
<g id="edge2" class="edge">
<title>Node1&#45;&gt;Node3</title>
<path fill="none" stroke="midnightblue" d="M227.31,-307.34C239.17,-348.77 268.78,-431.73 325,-475.5 330.01,-479.4 335.73,-482.51 341.72,-484.99"/>
<polygon fill="midnightblue" stroke="midnightblue" points="230.64,-306.23 224.62,-297.52 223.89,-308.09 230.64,-306.23"/>
</g>
<!-- Node4 -->
<g id="node4" class="node">
<title>Node4</title>
<g id="a_node4"><a xlink:href="class_ogre_1_1_r_t_shader_1_1_f_f_p_colour.html" target="_top" xlink:title="Colour sub render state implementation of the Fixed Function Pipeline.">
<polygon fill="none" stroke="black" points="333,-447 333,-466 470,-466 470,-447 333,-447"/>
<text text-anchor="middle" x="401.5" y="-454" font-family="Helvetica,sans-Serif" font-size="10.00">Ogre::RTShader::FFPColour</text>
</a>
</g>
</g>
<!-- Node1&#45;&gt;Node4 -->
<g id="edge3" class="edge">
<title>Node1&#45;&gt;Node4</title>
<path fill="none" stroke="midnightblue" d="M230.62,-306.9C245.51,-341.43 277.48,-404.06 325,-437.5 330.53,-441.39 336.78,-444.48 343.25,-446.95"/>
<polygon fill="midnightblue" stroke="midnightblue" points="233.79,-305.43 226.71,-297.55 227.34,-308.13 233.79,-305.43"/>
</g>
<!-- Node5 -->
<g id="node5" class="node">
<title>Node5</title>
<g id="a_node5"><a xlink:href="class_ogre_1_1_r_t_shader_1_1_f_f_p_fog.html" target="_top" xlink:title="Fog sub render state implementation of the Fixed Function Pipeline.">
<polygon fill="none" stroke="black" points="339,-409 339,-428 464,-428 464,-409 339,-409"/>
<text text-anchor="middle" x="401.5" y="-416" font-family="Helvetica,sans-Serif" font-size="10.00">Ogre::RTShader::FFPFog</text>
</a>
</g>
</g>
<!-- Node1&#45;&gt;Node5 -->
<g id="edge4" class="edge">
<title>Node1&#45;&gt;Node5</title>
<path fill="none" stroke="midnightblue" d="M235.58,-306.07C253.37,-332.83 285.96,-375.82 325,-399.5 331.36,-403.36 338.47,-406.43 345.71,-408.89"/>
<polygon fill="midnightblue" stroke="midnightblue" points="238.51,-304.15 230.12,-297.67 232.63,-307.96 238.51,-304.15"/>
</g>
<!-- Node6 -->
<g id="node6" class="node">
<title>Node6</title>
<g id="a_node6"><a xlink:href="class_ogre_1_1_r_t_shader_1_1_f_f_p_lighting.html" target="_top" xlink:title="Lighting sub render state implementation of the Fixed Function Pipeline.">
<polygon fill="none" stroke="black" points="330,-371 330,-390 473,-390 473,-371 330,-371"/>
<text text-anchor="middle" x="401.5" y="-378" font-family="Helvetica,sans-Serif" font-size="10.00">Ogre::RTShader::FFPLighting</text>
</a>
</g>
</g>
<!-- Node1&#45;&gt;Node6 -->
<g id="edge5" class="edge">
<title>Node1&#45;&gt;Node6</title>
<path fill="none" stroke="midnightblue" d="M244.19,-304.55C264.15,-322.37 294.47,-346.82 325,-361.5 332.92,-365.31 341.68,-368.4 350.35,-370.91"/>
<polygon fill="midnightblue" stroke="midnightblue" points="246.31,-301.74 236.56,-297.6 241.6,-306.92 246.31,-301.74"/>
</g>
<!-- Node7 -->
<g id="node7" class="node">
<title>Node7</title>
<g id="a_node7"><a xlink:href="class_ogre_1_1_r_t_shader_1_1_f_f_p_texturing.html" target="_top" xlink:title="Texturing sub render state implementation of the Fixed Function Pipeline.">
<polygon fill="none" stroke="black" points="327,-333 327,-352 476,-352 476,-333 327,-333"/>
<text text-anchor="middle" x="401.5" y="-340" font-family="Helvetica,sans-Serif" font-size="10.00">Ogre::RTShader::FFPTexturing</text>
</a>
</g>
</g>
<!-- Node1&#45;&gt;Node7 -->
<g id="edge6" class="edge">
<title>Node1&#45;&gt;Node7</title>
<path fill="none" stroke="midnightblue" d="M265.69,-301.58C283.9,-308.97 305.27,-317.16 325,-323.5 335.68,-326.93 347.37,-330.14 358.3,-332.9"/>
<polygon fill="midnightblue" stroke="midnightblue" points="266.79,-298.25 256.21,-297.69 264.13,-304.72 266.79,-298.25"/>
</g>
<!-- Node9 -->
<g id="node9" class="node">
<title>Node9</title>
<g id="a_node9"><a xlink:href="class_ogre_1_1_r_t_shader_1_1_f_f_p_transform.html" target="_top" xlink:title="Transform sub render state implementation of the Fixed Function Pipeline.">
<polygon fill="none" stroke="black" points="325,-295 325,-314 478,-314 478,-295 325,-295"/>
<text text-anchor="middle" x="401.5" y="-302" font-family="Helvetica,sans-Serif" font-size="10.00">Ogre::RTShader::FFPTransform</text>
</a>
</g>
</g>
<!-- Node1&#45;&gt;Node9 -->
<g id="edge8" class="edge">
<title>Node1&#45;&gt;Node9</title>
<path fill="none" stroke="midnightblue" d="M299.1,-292.07C307.67,-293.12 316.39,-294.19 324.93,-295.24"/>
<polygon fill="midnightblue" stroke="midnightblue" points="299.47,-288.59 289.12,-290.85 298.62,-295.54 299.47,-288.59"/>
</g>
<!-- Node10 -->
<g id="node10" class="node">
<title>Node10</title>
<g id="a_node10"><a xlink:href="class_ogre_1_1_r_t_shader_1_1_hardware_skinning.html" target="_top" xlink:title="Implement a sub render state which performs hardware skinning.">
<polygon fill="none" stroke="black" points="335.5,-245.5 335.5,-275.5 467.5,-275.5 467.5,-245.5 335.5,-245.5"/>
<text text-anchor="start" x="343.5" y="-263.5" font-family="Helvetica,sans-Serif" font-size="10.00">Ogre::RTShader::Hardware</text>
<text text-anchor="middle" x="401.5" y="-252.5" font-family="Helvetica,sans-Serif" font-size="10.00">Skinning</text>
</a>
</g>
</g>
<!-- Node1&#45;&gt;Node10 -->
<g id="edge9" class="edge">
<title>Node1&#45;&gt;Node10</title>
<path fill="none" stroke="midnightblue" d="M299.18,-272.92C311.27,-271.44 323.64,-269.92 335.39,-268.48"/>
<polygon fill="midnightblue" stroke="midnightblue" points="298.62,-269.46 289.12,-274.15 299.47,-276.41 298.62,-269.46"/>
</g>
<!-- Node11 -->
<g id="node11" class="node">
<title>Node11</title>
<g id="a_node11"><a xlink:href="class_ogre_1_1_r_t_shader_1_1_integrated_p_s_s_m3.html" target="_top" xlink:title="Integrated PSSM shadow receiver with 3 splits sub render state implementation.">
<polygon fill="none" stroke="black" points="334.5,-196.5 334.5,-226.5 468.5,-226.5 468.5,-196.5 334.5,-196.5"/>
<text text-anchor="start" x="342.5" y="-214.5" font-family="Helvetica,sans-Serif" font-size="10.00">Ogre::RTShader::Integrated</text>
<text text-anchor="middle" x="401.5" y="-203.5" font-family="Helvetica,sans-Serif" font-size="10.00">PSSM3</text>
</a>
</g>
</g>
<!-- Node1&#45;&gt;Node11 -->
<g id="edge10" class="edge">
<title>Node1&#45;&gt;Node11</title>
<path fill="none" stroke="midnightblue" d="M261.29,-262.97C280.38,-254.06 303.63,-243.69 325,-235.5 333.09,-232.4 341.77,-229.37 350.26,-226.57"/>
<polygon fill="midnightblue" stroke="midnightblue" points="259.56,-259.92 252,-267.34 262.54,-266.25 259.56,-259.92"/>
</g>
<!-- Node12 -->
<g id="node12" class="node">
<title>Node12</title>
<g id="a_node12"><a xlink:href="class_ogre_1_1_r_t_shader_1_1_normal_map_lighting.html" target="_top" xlink:title="Normal Map Lighting extension sub render state implementation.">
<polygon fill="none" stroke="black" points="331.5,-147.5 331.5,-177.5 471.5,-177.5 471.5,-147.5 331.5,-147.5"/>
<text text-anchor="start" x="339.5" y="-165.5" font-family="Helvetica,sans-Serif" font-size="10.00">Ogre::RTShader::NormalMap</text>
<text text-anchor="middle" x="401.5" y="-154.5" font-family="Helvetica,sans-Serif" font-size="10.00">Lighting</text>
</a>
</g>
</g>
<!-- Node1&#45;&gt;Node12 -->
<g id="edge11" class="edge">
<title>Node1&#45;&gt;Node12</title>
<path fill="none" stroke="midnightblue" d="M240.36,-259.58C259.75,-237.94 291.47,-205.99 325,-186.5 330.83,-183.11 337.19,-180.14 343.67,-177.55"/>
<polygon fill="midnightblue" stroke="midnightblue" points="237.53,-257.5 233.55,-267.32 242.78,-262.12 237.53,-257.5"/>
</g>
<!-- Node13 -->
<g id="node13" class="node">
<title>Node13</title>
<g id="a_node13"><a xlink:href="class_ogre_1_1_r_t_shader_1_1_per_pixel_lighting.html" target="_top" xlink:title="Per pixel Lighting extension sub render state implementation.">
<polygon fill="none" stroke="black" points="338.5,-98.5 338.5,-128.5 464.5,-128.5 464.5,-98.5 338.5,-98.5"/>
<text text-anchor="start" x="346.5" y="-116.5" font-family="Helvetica,sans-Serif" font-size="10.00">Ogre::RTShader::PerPixel</text>
<text text-anchor="middle" x="401.5" y="-105.5" font-family="Helvetica,sans-Serif" font-size="10.00">Lighting</text>
</a>
</g>
</g>
<!-- Node1&#45;&gt;Node13 -->
<g id="edge12" class="edge">
<title>Node1&#45;&gt;Node13</title>
<path fill="none" stroke="midnightblue" d="M232.25,-258.15C248.34,-225.94 280.93,-169.51 325,-137.5 329.67,-134.11 334.85,-131.18 340.23,-128.66"/>
<polygon fill="midnightblue" stroke="midnightblue" points="229.02,-256.8 227.79,-267.32 235.31,-259.86 229.02,-256.8"/>
</g>
<!-- Node14 -->
<g id="node14" class="node">
<title>Node14</title>
<g id="a_node14"><a xlink:href="class_ogre_1_1_r_t_shader_1_1_texture_atlas_sampler.html" target="_top" xlink:title="Implements texture atlas sampling.">
<polygon fill="none" stroke="black" points="329,-49.5 329,-79.5 474,-79.5 474,-49.5 329,-49.5"/>
<text text-anchor="start" x="337" y="-67.5" font-family="Helvetica,sans-Serif" font-size="10.00">Ogre::RTShader::TextureAtlas</text>
<text text-anchor="middle" x="401.5" y="-56.5" font-family="Helvetica,sans-Serif" font-size="10.00">Sampler</text>
</a>
</g>
</g>
<!-- Node1&#45;&gt;Node14 -->
<g id="edge13" class="edge">
<title>Node1&#45;&gt;Node14</title>
<path fill="none" stroke="midnightblue" d="M227.66,-257.6C239.96,-216.41 270.11,-134.1 325,-88.5 329.13,-85.07 333.75,-82.13 338.62,-79.61"/>
<polygon fill="midnightblue" stroke="midnightblue" points="224.25,-256.79 224.85,-267.37 230.98,-258.73 224.25,-256.79"/>
</g>
<!-- Node15 -->
<g id="node15" class="node">
<title>Node15</title>
<g id="a_node15"><a xlink:href="class_ogre_1_1_r_t_shader_1_1_triplanar_texturing.html" target="_top" xlink:title="Triplanar Texturing.">
<polygon fill="none" stroke="black" points="337.5,-0.5 337.5,-30.5 465.5,-30.5 465.5,-0.5 337.5,-0.5"/>
<text text-anchor="start" x="345.5" y="-18.5" font-family="Helvetica,sans-Serif" font-size="10.00">Ogre::RTShader::Triplanar</text>
<text text-anchor="middle" x="401.5" y="-7.5" font-family="Helvetica,sans-Serif" font-size="10.00">Texturing</text>
</a>
</g>
</g>
<!-- Node1&#45;&gt;Node15 -->
<g id="edge14" class="edge">
<title>Node1&#45;&gt;Node15</title>
<path fill="none" stroke="midnightblue" d="M224.71,-257.4C233.27,-208.37 258.98,-99.43 325,-39.5 328.77,-36.08 333.02,-33.15 337.55,-30.63"/>
<polygon fill="midnightblue" stroke="midnightblue" points="221.22,-257.02 223.05,-267.45 228.13,-258.16 221.22,-257.02"/>
</g>
<!-- Node2 -->
<g id="node2" class="node">
<title>Node2</title>
<g id="a_node2"><a xlink:href="class_ogre_1_1_allocated_object.html" target="_top" xlink:title="Superclass for all objects that wish to use custom memory allocators when their new / delete operator...">
<polygon fill="none" stroke="black" points="0,-273 0,-292 115,-292 115,-273 0,-273"/>
<text text-anchor="middle" x="57.5" y="-280" font-family="Helvetica,sans-Serif" font-size="10.00">RTShaderSystemAlloc</text>
</a>
</g>
</g>
<!-- Node2&#45;&gt;Node1 -->
<g id="edge1" class="edge">
<title>Node2&#45;&gt;Node1</title>
<path fill="none" stroke="midnightblue" d="M125.26,-282.5C133.7,-282.5 142.35,-282.5 150.82,-282.5"/>
<polygon fill="midnightblue" stroke="midnightblue" points="125.09,-279 115.09,-282.5 125.09,-286 125.09,-279"/>
</g>
<!-- Node8 -->
<g id="node8" class="node">
<title>Node8</title>
<g id="a_node8"><a xlink:href="class_ogre_1_1_r_t_shader_1_1_layered_blending.html" target="_top" xlink:title="Texturing sub render state implementation of layered blending.">
<polygon fill="none" stroke="black" points="514,-333 514,-352 676,-352 676,-333 514,-333"/>
<text text-anchor="middle" x="595" y="-340" font-family="Helvetica,sans-Serif" font-size="10.00">Ogre::RTShader::LayeredBlending</text>
</a>
</g>
</g>
<!-- Node7&#45;&gt;Node8 -->
<g id="edge7" class="edge">
<title>Node7&#45;&gt;Node8</title>
<path fill="none" stroke="midnightblue" d="M486.47,-342.5C495.59,-342.5 504.85,-342.5 513.91,-342.5"/>
<polygon fill="midnightblue" stroke="midnightblue" points="486.27,-339 476.26,-342.5 486.26,-346 486.27,-339"/>
</g>
</g>
</svg>
