<?xml version="1.0" encoding="UTF-8" standalone="no"?>
<!DOCTYPE svg PUBLIC "-//W3C//DTD SVG 1.1//EN"
 "http://www.w3.org/Graphics/SVG/1.1/DTD/svg11.dtd">
<!-- Generated by graphviz version 9.0.0 (20230911.1827)
 -->
<!-- Title: Ogre::EGLContext Pages: 1 -->
<svg width="430pt" height="138pt"
 viewBox="0.00 0.00 429.50 138.25" xmlns="http://www.w3.org/2000/svg" xmlns:xlink="http://www.w3.org/1999/xlink">
<g id="graph0" class="graph" transform="scale(1 1) rotate(0) translate(4 134.25)">
<title>Ogre::EGLContext</title>
<!-- Node1 -->
<g id="Node000001" class="node">
<title>Node1</title>
<g id="a_Node000001"><a xlink:title=" ">
<polygon fill="#999999" stroke="#666666" points="242.75,-74.25 148.75,-74.25 148.75,-55 242.75,-55 242.75,-74.25"/>
<text text-anchor="middle" x="195.75" y="-60.75" font-family="Helvetica,sans-Serif" font-size="10.00">Ogre::EGLContext</text>
</a>
</g>
</g>
<!-- Node4 -->
<g id="Node000004" class="node">
<title>Node4</title>
<g id="a_Node000004"><a xlink:href="class_ogre_1_1_android_e_g_l_context.html" target="_top" xlink:title=" ">
<polygon fill="white" stroke="#666666" points="413.62,-130.25 286.62,-130.25 286.62,-111 413.62,-111 413.62,-130.25"/>
<text text-anchor="middle" x="350.12" y="-116.75" font-family="Helvetica,sans-Serif" font-size="10.00">Ogre::AndroidEGLContext</text>
</a>
</g>
</g>
<!-- Node1&#45;&gt;Node4 -->
<g id="edge3_Node000001_Node000004" class="edge">
<title>Node1&#45;&gt;Node4</title>
<g id="a_edge3_Node000001_Node000004"><a xlink:title=" ">
<path fill="none" stroke="#63b8ff" d="M225.86,-79.7C241.29,-87.29 260.74,-96.21 278.75,-102.62 286.95,-105.54 295.84,-108.2 304.45,-110.52"/>
<polygon fill="#63b8ff" stroke="#63b8ff" points="227.74,-76.73 217.23,-75.39 224.61,-82.99 227.74,-76.73"/>
</a>
</g>
</g>
<!-- Node5 -->
<g id="Node000005" class="node">
<title>Node5</title>
<g id="a_Node000005"><a xlink:href="class_ogre_1_1_emscripten_e_g_l_context.html" target="_top" xlink:title=" ">
<polygon fill="white" stroke="#666666" points="421.5,-93.25 278.75,-93.25 278.75,-74 421.5,-74 421.5,-93.25"/>
<text text-anchor="middle" x="350.12" y="-79.75" font-family="Helvetica,sans-Serif" font-size="10.00">Ogre::EmscriptenEGLContext</text>
</a>
</g>
</g>
<!-- Node1&#45;&gt;Node5 -->
<g id="edge4_Node000001_Node000005" class="edge">
<title>Node1&#45;&gt;Node5</title>
<g id="a_edge4_Node000001_Node000005"><a xlink:title=" ">
<path fill="none" stroke="#63b8ff" d="M254.21,-71.79C262.11,-72.77 270.3,-73.8 278.4,-74.81"/>
<polygon fill="#63b8ff" stroke="#63b8ff" points="254.74,-68.33 244.38,-70.56 253.87,-75.27 254.74,-68.33"/>
</a>
</g>
</g>
<!-- Node6 -->
<g id="Node000006" class="node">
<title>Node6</title>
<g id="a_Node000006"><a xlink:href="class_ogre_1_1_win32_e_g_l_context.html" target="_top" xlink:title=" ">
<polygon fill="white" stroke="#666666" points="410.62,-56.25 289.62,-56.25 289.62,-37 410.62,-37 410.62,-56.25"/>
<text text-anchor="middle" x="350.12" y="-42.75" font-family="Helvetica,sans-Serif" font-size="10.00">Ogre::Win32EGLContext</text>
</a>
</g>
</g>
<!-- Node1&#45;&gt;Node6 -->
<g id="edge5_Node000001_Node000006" class="edge">
<title>Node1&#45;&gt;Node6</title>
<g id="a_edge5_Node000001_Node000006"><a xlink:title=" ">
<path fill="none" stroke="#63b8ff" d="M254.14,-57.85C265.64,-56.49 277.76,-55.06 289.34,-53.69"/>
<polygon fill="#63b8ff" stroke="#63b8ff" points="253.9,-54.35 244.38,-59 254.73,-61.3 253.9,-54.35"/>
</a>
</g>
</g>
<!-- Node7 -->
<g id="Node000007" class="node">
<title>Node7</title>
<g id="a_Node000007"><a xlink:href="class_ogre_1_1_x11_e_g_l_context.html" target="_top" xlink:title=" ">
<polygon fill="white" stroke="#666666" points="405.75,-19.25 294.5,-19.25 294.5,0 405.75,0 405.75,-19.25"/>
<text text-anchor="middle" x="350.12" y="-5.75" font-family="Helvetica,sans-Serif" font-size="10.00">Ogre::X11EGLContext</text>
</a>
</g>
</g>
<!-- Node1&#45;&gt;Node7 -->
<g id="edge6_Node000001_Node000007" class="edge">
<title>Node1&#45;&gt;Node7</title>
<g id="a_edge6_Node000001_Node000007"><a xlink:title=" ">
<path fill="none" stroke="#63b8ff" d="M226.52,-49.69C241.86,-42.38 261.03,-33.84 278.75,-27.62 287.08,-24.7 296.12,-22.04 304.85,-19.7"/>
<polygon fill="#63b8ff" stroke="#63b8ff" points="225.41,-46.34 217.93,-53.85 228.46,-52.64 225.41,-46.34"/>
</a>
</g>
</g>
<!-- Node2 -->
<g id="Node000002" class="node">
<title>Node2</title>
<g id="a_Node000002"><a xlink:href="class_ogre_1_1_g_l3_plus_context.html" target="_top" xlink:title="Class that encapsulates an GL context.">
<polygon fill="white" stroke="#666666" points="112.75,-93.25 0,-93.25 0,-74 112.75,-74 112.75,-93.25"/>
<text text-anchor="middle" x="56.38" y="-79.75" font-family="Helvetica,sans-Serif" font-size="10.00">Ogre::GL3PlusContext</text>
</a>
</g>
</g>
<!-- Node2&#45;&gt;Node1 -->
<g id="edge1_Node000001_Node000002" class="edge">
<title>Node2&#45;&gt;Node1</title>
<g id="a_edge1_Node000001_Node000002"><a xlink:title=" ">
<path fill="none" stroke="#63b8ff" d="M124,-74.41C132.22,-73.27 140.48,-72.13 148.31,-71.05"/>
<polygon fill="#63b8ff" stroke="#63b8ff" points="123.78,-70.91 114.35,-75.74 124.74,-77.84 123.78,-70.91"/>
</a>
</g>
</g>
<!-- Node3 -->
<g id="Node000003" class="node">
<title>Node3</title>
<g id="a_Node000003"><a xlink:href="class_ogre_1_1_g_l_e_s2_context.html" target="_top" xlink:title="Class that encapsulates an GL context.">
<polygon fill="white" stroke="#666666" points="109.38,-56.25 3.38,-56.25 3.38,-37 109.38,-37 109.38,-56.25"/>
<text text-anchor="middle" x="56.38" y="-42.75" font-family="Helvetica,sans-Serif" font-size="10.00">Ogre::GLES2Context</text>
</a>
</g>
</g>
<!-- Node3&#45;&gt;Node1 -->
<g id="edge2_Node000001_Node000003" class="edge">
<title>Node3&#45;&gt;Node1</title>
<g id="a_edge2_Node000001_Node000003"><a xlink:title=" ">
<path fill="none" stroke="#63b8ff" d="M120.9,-54.95C130.17,-56.16 139.57,-57.4 148.41,-58.55"/>
<polygon fill="#63b8ff" stroke="#63b8ff" points="121.57,-51.51 111.2,-53.68 120.66,-58.45 121.57,-51.51"/>
</a>
</g>
</g>
</g>
</svg>
