<?xml version="1.0" encoding="UTF-8" standalone="no"?>
<!DOCTYPE svg PUBLIC "-//W3C//DTD SVG 1.1//EN"
 "http://www.w3.org/Graphics/SVG/1.1/DTD/svg11.dtd">
<!-- Generated by graphviz version 7.0.5 (20221223.1930)
 -->
<!-- Title: Graphical Class Hierarchy Pages: 1 -->
<svg width="180pt" height="64pt"
 viewBox="0.00 0.00 180.00 64.00" xmlns="http://www.w3.org/2000/svg" xmlns:xlink="http://www.w3.org/1999/xlink">
<g id="graph0" class="graph" transform="scale(1 1) rotate(0) translate(4 60)">
<title>Graphical Class Hierarchy</title>
<!-- Node0 -->
<g id="node1" class="node">
<title>Node0</title>
<g id="a_node1"><a xlink:title=" ">
<polygon fill="#e0e0e0" stroke="#999999" points="53,-56 0,-56 0,-37 53,-37 53,-56"/>
<text text-anchor="middle" x="26.5" y="-44" font-family="Helvetica,sans-Serif" font-size="10.00">NSView</text>
</a>
</g>
</g>
<!-- Node1 -->
<g id="node2" class="node">
<title>Node1</title>
<g id="a_node2"><a xlink:href="interface_ogre_metal_view.html" target="_top" xlink:title=" ">
<polygon fill="white" stroke="#666666" points="172,-56 89,-56 89,-37 172,-37 172,-56"/>
<text text-anchor="middle" x="130.5" y="-44" font-family="Helvetica,sans-Serif" font-size="10.00">OgreMetalView</text>
</a>
</g>
</g>
<!-- Node0&#45;&gt;Node1 -->
<g id="edge1" class="edge">
<title>Node0&#45;&gt;Node1</title>
<path fill="none" stroke="#63b8ff" d="M64.64,-46.5C72.45,-46.5 80.74,-46.5 88.68,-46.5"/>
<polygon fill="#63b8ff" stroke="#63b8ff" points="64.75,-43 54.75,-46.5 64.75,-50 64.75,-43"/>
</g>
<!-- Node2 -->
<g id="node3" class="node">
<title>Node2</title>
<g id="a_node3"><a xlink:title=" ">
<polygon fill="#e0e0e0" stroke="#999999" points="51,-19 2,-19 2,0 51,0 51,-19"/>
<text text-anchor="middle" x="26.5" y="-7" font-family="Helvetica,sans-Serif" font-size="10.00">UIView</text>
</a>
</g>
</g>
<!-- Node2&#45;&gt;Node1 -->
<g id="edge2" class="edge">
<title>Node2&#45;&gt;Node1</title>
<path fill="none" stroke="#63b8ff" d="M61.94,-21.99C75.04,-26.75 89.77,-32.09 102.13,-36.57"/>
<polygon fill="#63b8ff" stroke="#63b8ff" points="63.43,-18.81 52.84,-18.69 61.04,-25.39 63.43,-18.81"/>
</g>
<!-- Node3 -->
<g id="node4" class="node">
<title>Node3</title>
<g id="a_node4"><a xlink:href="interface_ogre_view.html" target="_top" xlink:title=" ">
<polygon fill="white" stroke="#666666" points="160,-19 101,-19 101,0 160,0 160,-19"/>
<text text-anchor="middle" x="130.5" y="-7" font-family="Helvetica,sans-Serif" font-size="10.00">OgreView</text>
</a>
</g>
</g>
<!-- Node2&#45;&gt;Node3 -->
<g id="edge3" class="edge">
<title>Node2&#45;&gt;Node3</title>
<path fill="none" stroke="#63b8ff" d="M62.75,-9.5C75.12,-9.5 88.86,-9.5 100.65,-9.5"/>
<polygon fill="#63b8ff" stroke="#63b8ff" points="62.93,-6 52.93,-9.5 62.93,-13 62.93,-6"/>
</g>
</g>
</svg>
