<?xml version="1.0" encoding="UTF-8" standalone="no"?>
<!DOCTYPE svg PUBLIC "-//W3C//DTD SVG 1.1//EN"
 "http://www.w3.org/Graphics/SVG/1.1/DTD/svg11.dtd">
<!-- Generated by graphviz version 7.0.5 (20221223.1930)
 -->
<!-- Title: Graphical Class Hierarchy Pages: 1 -->
<svg width="951pt" height="354pt"
 viewBox="0.00 0.00 951.00 354.00" xmlns="http://www.w3.org/2000/svg" xmlns:xlink="http://www.w3.org/1999/xlink">
<g id="graph0" class="graph" transform="scale(1 1) rotate(0) translate(4 350)">
<title>Graphical Class Hierarchy</title>
<!-- Node0 -->
<g id="node1" class="node">
<title>Node0</title>
<g id="a_node1"><a xlink:href="class_ogre_1_1_small_vector_base.html" target="_top" xlink:title="SmallVectorBase &#45; This is all the non&#45;templated stuff common to all SmallVectors.">
<polygon fill="white" stroke="#666666" points="118,-174.5 0,-174.5 0,-155.5 118,-155.5 118,-174.5"/>
<text text-anchor="middle" x="59" y="-162.5" font-family="Helvetica,sans-Serif" font-size="10.00">Ogre::SmallVectorBase</text>
</a>
</g>
</g>
<!-- Node1 -->
<g id="node2" class="node">
<title>Node1</title>
<g id="a_node2"><a xlink:href="class_ogre_1_1_small_vector_template_common.html" target="_top" xlink:title=" ">
<polygon fill="white" stroke="#666666" points="290,-228 154,-228 154,-198 290,-198 290,-228"/>
<text text-anchor="start" x="162" y="-216" font-family="Helvetica,sans-Serif" font-size="10.00">Ogre::SmallVectorTemplate</text>
<text text-anchor="middle" x="222" y="-205" font-family="Helvetica,sans-Serif" font-size="10.00">Common&lt; Edge &gt;</text>
</a>
</g>
</g>
<!-- Node0&#45;&gt;Node1 -->
<g id="edge1" class="edge">
<title>Node0&#45;&gt;Node1</title>
<path fill="none" stroke="#63b8ff" d="M104.12,-178.15C124.28,-184.16 148.29,-191.32 169.29,-197.58"/>
<polygon fill="#63b8ff" stroke="#63b8ff" points="105.39,-174.88 94.81,-175.38 103.39,-181.59 105.39,-174.88"/>
</g>
<!-- Node2 -->
<g id="node3" class="node">
<title>Node2</title>
<g id="a_node3"><a xlink:href="class_ogre_1_1_small_vector_template_common.html" target="_top" xlink:title=" ">
<polygon fill="white" stroke="#666666" points="290,-180 154,-180 154,-150 290,-150 290,-180"/>
<text text-anchor="start" x="162" y="-168" font-family="Helvetica,sans-Serif" font-size="10.00">Ogre::SmallVectorTemplate</text>
<text text-anchor="middle" x="222" y="-157" font-family="Helvetica,sans-Serif" font-size="10.00">Common&lt; Triangle * &gt;</text>
</a>
</g>
</g>
<!-- Node0&#45;&gt;Node2 -->
<g id="edge2" class="edge">
<title>Node0&#45;&gt;Node2</title>
<path fill="none" stroke="#63b8ff" d="M129.37,-165C137.43,-165 145.63,-165 153.65,-165"/>
<polygon fill="#63b8ff" stroke="#63b8ff" points="129.64,-161.5 119.64,-165 129.64,-168.5 129.64,-161.5"/>
</g>
<!-- Node3 -->
<g id="node4" class="node">
<title>Node3</title>
<g id="a_node4"><a xlink:href="class_ogre_1_1_small_vector_template_common.html" target="_top" xlink:title=" ">
<polygon fill="white" stroke="#666666" points="290,-132 154,-132 154,-102 290,-102 290,-132"/>
<text text-anchor="start" x="162" y="-120" font-family="Helvetica,sans-Serif" font-size="10.00">Ogre::SmallVectorTemplate</text>
<text text-anchor="middle" x="222" y="-109" font-family="Helvetica,sans-Serif" font-size="10.00">Common&lt; T &gt;</text>
</a>
</g>
</g>
<!-- Node0&#45;&gt;Node3 -->
<g id="edge3" class="edge">
<title>Node0&#45;&gt;Node3</title>
<path fill="none" stroke="#63b8ff" d="M104.12,-151.85C124.28,-145.84 148.29,-138.68 169.29,-132.42"/>
<polygon fill="#63b8ff" stroke="#63b8ff" points="103.39,-148.41 94.81,-154.62 105.39,-155.12 103.39,-148.41"/>
</g>
<!-- Node4 -->
<g id="node5" class="node">
<title>Node4</title>
<g id="a_node5"><a xlink:href="class_ogre_1_1_small_vector_template_base.html" target="_top" xlink:title=" ">
<polygon fill="white" stroke="#666666" points="462.5,-255.5 326.5,-255.5 326.5,-214.5 462.5,-214.5 462.5,-255.5"/>
<text text-anchor="start" x="334.5" y="-243.5" font-family="Helvetica,sans-Serif" font-size="10.00">Ogre::SmallVectorTemplate</text>
<text text-anchor="start" x="334.5" y="-232.5" font-family="Helvetica,sans-Serif" font-size="10.00">Base&lt; T, isPodLike&lt; T &gt;</text>
<text text-anchor="middle" x="394.5" y="-221.5" font-family="Helvetica,sans-Serif" font-size="10.00">::value &gt;</text>
</a>
</g>
</g>
<!-- Node3&#45;&gt;Node4 -->
<g id="edge4" class="edge">
<title>Node3&#45;&gt;Node4</title>
<path fill="none" stroke="#63b8ff" d="M286.63,-138.33C287.79,-139.19 288.91,-140.08 290,-141 315.16,-162.39 301.51,-183.85 326,-206 329.31,-208.99 332.98,-211.71 336.84,-214.17"/>
<polygon fill="#63b8ff" stroke="#63b8ff" points="288.83,-135.58 278.51,-133.21 285.1,-141.51 288.83,-135.58"/>
</g>
<!-- Node14 -->
<g id="node15" class="node">
<title>Node14</title>
<g id="a_node15"><a xlink:href="class_ogre_1_1_small_vector_template_base.html" target="_top" xlink:title=" ">
<polygon fill="white" stroke="#666666" points="462.5,-196.5 326.5,-196.5 326.5,-155.5 462.5,-155.5 462.5,-196.5"/>
<text text-anchor="start" x="334.5" y="-184.5" font-family="Helvetica,sans-Serif" font-size="10.00">Ogre::SmallVectorTemplate</text>
<text text-anchor="start" x="334.5" y="-173.5" font-family="Helvetica,sans-Serif" font-size="10.00">Base&lt; Edge, isPodLike&lt;</text>
<text text-anchor="middle" x="394.5" y="-162.5" font-family="Helvetica,sans-Serif" font-size="10.00"> Edge &gt;::value &gt;</text>
</a>
</g>
</g>
<!-- Node3&#45;&gt;Node14 -->
<g id="edge14" class="edge">
<title>Node3&#45;&gt;Node14</title>
<path fill="none" stroke="#63b8ff" d="M278,-136.03C295.55,-142.11 315.08,-148.86 333,-155.07"/>
<polygon fill="#63b8ff" stroke="#63b8ff" points="279.38,-132.81 268.78,-132.84 277.09,-139.42 279.38,-132.81"/>
</g>
<!-- Node15 -->
<g id="node16" class="node">
<title>Node15</title>
<g id="a_node16"><a xlink:href="class_ogre_1_1_small_vector_template_base.html" target="_top" xlink:title=" ">
<polygon fill="white" stroke="#666666" points="463,-137.5 326,-137.5 326,-96.5 463,-96.5 463,-137.5"/>
<text text-anchor="start" x="334" y="-125.5" font-family="Helvetica,sans-Serif" font-size="10.00">Ogre::SmallVectorTemplate</text>
<text text-anchor="start" x="334" y="-114.5" font-family="Helvetica,sans-Serif" font-size="10.00">Base&lt; Triangle *, isPodLike</text>
<text text-anchor="middle" x="394.5" y="-103.5" font-family="Helvetica,sans-Serif" font-size="10.00">&lt; Triangle * &gt;::value &gt;</text>
</a>
</g>
</g>
<!-- Node3&#45;&gt;Node15 -->
<g id="edge15" class="edge">
<title>Node3&#45;&gt;Node15</title>
<path fill="none" stroke="#63b8ff" d="M301.68,-117C309.73,-117 317.85,-117 325.77,-117"/>
<polygon fill="#63b8ff" stroke="#63b8ff" points="301.9,-113.5 291.9,-117 301.9,-120.5 301.9,-113.5"/>
</g>
<!-- Node16 -->
<g id="node17" class="node">
<title>Node16</title>
<g id="a_node17"><a xlink:href="class_ogre_1_1_small_vector_template_base.html" target="_top" xlink:title="SmallVectorTemplateBase&lt;isPodLike = false&gt; &#45; This is where we put method implementations that are des...">
<polygon fill="white" stroke="#666666" points="462.5,-78 326.5,-78 326.5,-48 462.5,-48 462.5,-78"/>
<text text-anchor="start" x="334.5" y="-66" font-family="Helvetica,sans-Serif" font-size="10.00">Ogre::SmallVectorTemplate</text>
<text text-anchor="middle" x="394.5" y="-55" font-family="Helvetica,sans-Serif" font-size="10.00">Base&lt; T, isPodLike &gt;</text>
</a>
</g>
</g>
<!-- Node3&#45;&gt;Node16 -->
<g id="edge16" class="edge">
<title>Node3&#45;&gt;Node16</title>
<path fill="none" stroke="#63b8ff" d="M282.56,-98.14C302.85,-91.71 325.28,-84.61 344.63,-78.48"/>
<polygon fill="#63b8ff" stroke="#63b8ff" points="281.78,-94.71 273.3,-101.07 283.89,-101.39 281.78,-94.71"/>
</g>
<!-- Node19 -->
<g id="node20" class="node">
<title>Node19</title>
<g id="a_node20"><a xlink:href="class_ogre_1_1_small_vector_template_base_3_01_t_00_01true_01_4.html" target="_top" xlink:title="SmallVectorTemplateBase&lt;isPodLike = true&gt; &#45; This is where we put method implementations that are desi...">
<polygon fill="white" stroke="#666666" points="462.5,-30 326.5,-30 326.5,0 462.5,0 462.5,-30"/>
<text text-anchor="start" x="334.5" y="-18" font-family="Helvetica,sans-Serif" font-size="10.00">Ogre::SmallVectorTemplate</text>
<text text-anchor="middle" x="394.5" y="-7" font-family="Helvetica,sans-Serif" font-size="10.00">Base&lt; T, true &gt;</text>
</a>
</g>
</g>
<!-- Node3&#45;&gt;Node19 -->
<g id="edge19" class="edge">
<title>Node3&#45;&gt;Node19</title>
<path fill="none" stroke="#63b8ff" d="M248.23,-94.37C268.21,-77.36 297.41,-54.43 326,-39 331.8,-35.87 338.09,-33.01 344.42,-30.43"/>
<polygon fill="#63b8ff" stroke="#63b8ff" points="246.15,-91.54 240.88,-100.73 250.73,-96.84 246.15,-91.54"/>
</g>
<!-- Node5 -->
<g id="node6" class="node">
<title>Node5</title>
<g id="a_node6"><a xlink:href="class_ogre_1_1_small_vector_impl.html" target="_top" xlink:title="SmallVectorImpl &#45; This class consists of common code factored out of the SmallVector class to reduce ...">
<polygon fill="white" stroke="#666666" points="636,-244.5 499,-244.5 499,-225.5 636,-225.5 636,-244.5"/>
<text text-anchor="middle" x="567.5" y="-232.5" font-family="Helvetica,sans-Serif" font-size="10.00">Ogre::SmallVectorImpl&lt; T &gt;</text>
</a>
</g>
</g>
<!-- Node4&#45;&gt;Node5 -->
<g id="edge5" class="edge">
<title>Node4&#45;&gt;Node5</title>
<path fill="none" stroke="#63b8ff" d="M473.85,-235C482.17,-235 490.58,-235 498.76,-235"/>
<polygon fill="#63b8ff" stroke="#63b8ff" points="474.11,-231.5 464.11,-235 474.11,-238.5 474.11,-231.5"/>
</g>
<!-- Node6 -->
<g id="node7" class="node">
<title>Node6</title>
<g id="a_node7"><a xlink:href="class_ogre_1_1_small_vector.html" target="_top" xlink:title=" ">
<polygon fill="white" stroke="#666666" points="773,-346 672,-346 672,-316 773,-316 773,-346"/>
<text text-anchor="start" x="680" y="-334" font-family="Helvetica,sans-Serif" font-size="10.00">Ogre::SmallVector&lt;</text>
<text text-anchor="middle" x="722.5" y="-323" font-family="Helvetica,sans-Serif" font-size="10.00"> T, S &gt;</text>
</a>
</g>
</g>
<!-- Node5&#45;&gt;Node6 -->
<g id="edge6" class="edge">
<title>Node5&#45;&gt;Node6</title>
<path fill="none" stroke="#63b8ff" d="M590.23,-251.61C610.73,-266.92 642.62,-289.8 672,-307 677.03,-309.94 682.47,-312.85 687.84,-315.56"/>
<polygon fill="#63b8ff" stroke="#63b8ff" points="592.44,-248.9 582.35,-245.68 588.23,-254.49 592.44,-248.9"/>
</g>
<!-- Node8 -->
<g id="node9" class="node">
<title>Node8</title>
<g id="a_node9"><a xlink:href="class_ogre_1_1_small_vector.html" target="_top" xlink:title=" ">
<polygon fill="white" stroke="#666666" points="773,-298 672,-298 672,-268 773,-268 773,-298"/>
<text text-anchor="start" x="680" y="-286" font-family="Helvetica,sans-Serif" font-size="10.00">Ogre::SmallVector&lt;</text>
<text text-anchor="middle" x="722.5" y="-275" font-family="Helvetica,sans-Serif" font-size="10.00"> Edge, S &gt;</text>
</a>
</g>
</g>
<!-- Node5&#45;&gt;Node8 -->
<g id="edge8" class="edge">
<title>Node5&#45;&gt;Node8</title>
<path fill="none" stroke="#63b8ff" d="M610.96,-248.32C630.01,-254.3 652.59,-261.38 672.36,-267.58"/>
<polygon fill="#63b8ff" stroke="#63b8ff" points="612.24,-245.05 601.65,-245.4 610.14,-251.73 612.24,-245.05"/>
</g>
<!-- Node9 -->
<g id="node10" class="node">
<title>Node9</title>
<g id="a_node10"><a xlink:href="class_ogre_1_1_small_vector.html" target="_top" xlink:title=" ">
<polygon fill="white" stroke="#666666" points="773,-250 672,-250 672,-220 773,-220 773,-250"/>
<text text-anchor="start" x="680" y="-238" font-family="Helvetica,sans-Serif" font-size="10.00">Ogre::SmallVector&lt;</text>
<text text-anchor="middle" x="722.5" y="-227" font-family="Helvetica,sans-Serif" font-size="10.00"> Triangle *, S &gt;</text>
</a>
</g>
</g>
<!-- Node5&#45;&gt;Node9 -->
<g id="edge9" class="edge">
<title>Node5&#45;&gt;Node9</title>
<path fill="none" stroke="#63b8ff" d="M647.9,-235C655.96,-235 663.99,-235 671.61,-235"/>
<polygon fill="#63b8ff" stroke="#63b8ff" points="648.01,-231.5 638.01,-235 648.01,-238.5 648.01,-231.5"/>
</g>
<!-- Node10 -->
<g id="node11" class="node">
<title>Node10</title>
<g id="a_node11"><a xlink:href="class_ogre_1_1_small_vector.html" target="_top" xlink:title="SmallVector &#45; This is a &#39;vector&#39; (really, a variable&#45;sized array), optimized for the case when the ar...">
<polygon fill="white" stroke="#666666" points="773,-202 672,-202 672,-172 773,-172 773,-202"/>
<text text-anchor="start" x="680" y="-190" font-family="Helvetica,sans-Serif" font-size="10.00">Ogre::SmallVector&lt;</text>
<text text-anchor="middle" x="722.5" y="-179" font-family="Helvetica,sans-Serif" font-size="10.00"> T, N &gt;</text>
</a>
</g>
</g>
<!-- Node5&#45;&gt;Node10 -->
<g id="edge10" class="edge">
<title>Node5&#45;&gt;Node10</title>
<path fill="none" stroke="#63b8ff" d="M610.96,-221.68C630.01,-215.7 652.59,-208.62 672.36,-202.42"/>
<polygon fill="#63b8ff" stroke="#63b8ff" points="610.14,-218.27 601.65,-224.6 612.24,-224.95 610.14,-218.27"/>
</g>
<!-- Node13 -->
<g id="node14" class="node">
<title>Node13</title>
<g id="a_node14"><a xlink:href="class_ogre_1_1_small_vector_3_01_t_00_010_01_4.html" target="_top" xlink:title="Specialize SmallVector at N=0.">
<polygon fill="white" stroke="#666666" points="773,-154 672,-154 672,-124 773,-124 773,-154"/>
<text text-anchor="start" x="680" y="-142" font-family="Helvetica,sans-Serif" font-size="10.00">Ogre::SmallVector&lt;</text>
<text text-anchor="middle" x="722.5" y="-131" font-family="Helvetica,sans-Serif" font-size="10.00"> T, 0 &gt;</text>
</a>
</g>
</g>
<!-- Node5&#45;&gt;Node13 -->
<g id="edge13" class="edge">
<title>Node5&#45;&gt;Node13</title>
<path fill="none" stroke="#63b8ff" d="M590.23,-218.39C610.73,-203.08 642.62,-180.2 672,-163 677.03,-160.06 682.47,-157.15 687.84,-154.44"/>
<polygon fill="#63b8ff" stroke="#63b8ff" points="588.23,-215.51 582.35,-224.32 592.44,-221.1 588.23,-215.51"/>
</g>
<!-- Node7 -->
<g id="node8" class="node">
<title>Node7</title>
<g id="a_node8"><a xlink:href="struct_ogre_1_1_vector_set.html" target="_top" xlink:title="VectorSet is basically a helper to use a vector as a small set container.">
<polygon fill="white" stroke="#666666" points="936,-340.5 816,-340.5 816,-321.5 936,-321.5 936,-340.5"/>
<text text-anchor="middle" x="876" y="-328.5" font-family="Helvetica,sans-Serif" font-size="10.00">Ogre::VectorSet&lt; T, S &gt;</text>
</a>
</g>
</g>
<!-- Node6&#45;&gt;Node7 -->
<g id="edge7" class="edge">
<title>Node6&#45;&gt;Node7</title>
<path fill="none" stroke="#63b8ff" d="M784.46,-331C794.7,-331 805.31,-331 815.51,-331"/>
<polygon fill="#63b8ff" stroke="#63b8ff" points="784.62,-327.5 774.62,-331 784.62,-334.5 784.62,-327.5"/>
</g>
<!-- Node11 -->
<g id="node12" class="node">
<title>Node11</title>
<g id="a_node12"><a xlink:href="struct_ogre_1_1_vector_set.html" target="_top" xlink:title=" ">
<polygon fill="white" stroke="#666666" points="943,-217.5 809,-217.5 809,-198.5 943,-198.5 943,-217.5"/>
<text text-anchor="middle" x="876" y="-205.5" font-family="Helvetica,sans-Serif" font-size="10.00">Ogre::VectorSet&lt; Edge, 8 &gt;</text>
</a>
</g>
</g>
<!-- Node10&#45;&gt;Node11 -->
<g id="edge11" class="edge">
<title>Node10&#45;&gt;Node11</title>
<path fill="none" stroke="#63b8ff" d="M784.29,-195.43C792.34,-196.54 800.62,-197.69 808.76,-198.82"/>
<polygon fill="#63b8ff" stroke="#63b8ff" points="784.99,-191.99 774.61,-194.08 784.03,-198.92 784.99,-191.99"/>
</g>
<!-- Node12 -->
<g id="node13" class="node">
<title>Node12</title>
<g id="a_node13"><a xlink:href="struct_ogre_1_1_vector_set.html" target="_top" xlink:title=" ">
<polygon fill="white" stroke="#666666" points="940,-180 812,-180 812,-150 940,-150 940,-180"/>
<text text-anchor="start" x="820" y="-168" font-family="Helvetica,sans-Serif" font-size="10.00">Ogre::VectorSet&lt; Triangle</text>
<text text-anchor="middle" x="876" y="-157" font-family="Helvetica,sans-Serif" font-size="10.00"> *, 7 &gt;</text>
</a>
</g>
</g>
<!-- Node10&#45;&gt;Node12 -->
<g id="edge12" class="edge">
<title>Node10&#45;&gt;Node12</title>
<path fill="none" stroke="#63b8ff" d="M784.34,-178.17C793.36,-176.86 802.67,-175.5 811.74,-174.19"/>
<polygon fill="#63b8ff" stroke="#63b8ff" points="784,-174.68 774.6,-179.58 785,-181.61 784,-174.68"/>
</g>
<!-- Node17 -->
<g id="node18" class="node">
<title>Node17</title>
<g id="a_node18"><a xlink:href="class_ogre_1_1_small_vector_impl.html" target="_top" xlink:title=" ">
<polygon fill="white" stroke="#666666" points="624.5,-102 510.5,-102 510.5,-72 624.5,-72 624.5,-102"/>
<text text-anchor="start" x="518.5" y="-90" font-family="Helvetica,sans-Serif" font-size="10.00">Ogre::SmallVectorImpl</text>
<text text-anchor="middle" x="567.5" y="-79" font-family="Helvetica,sans-Serif" font-size="10.00">&lt; Edge &gt;</text>
</a>
</g>
</g>
<!-- Node16&#45;&gt;Node17 -->
<g id="edge17" class="edge">
<title>Node16&#45;&gt;Node17</title>
<path fill="none" stroke="#63b8ff" d="M473.76,-73.98C486.01,-75.7 498.47,-77.45 510.1,-79.08"/>
<polygon fill="#63b8ff" stroke="#63b8ff" points="474.48,-70.55 464.09,-72.63 473.51,-77.48 474.48,-70.55"/>
</g>
<!-- Node18 -->
<g id="node19" class="node">
<title>Node18</title>
<g id="a_node19"><a xlink:href="class_ogre_1_1_small_vector_impl.html" target="_top" xlink:title=" ">
<polygon fill="white" stroke="#666666" points="624.5,-54 510.5,-54 510.5,-24 624.5,-24 624.5,-54"/>
<text text-anchor="start" x="518.5" y="-42" font-family="Helvetica,sans-Serif" font-size="10.00">Ogre::SmallVectorImpl</text>
<text text-anchor="middle" x="567.5" y="-31" font-family="Helvetica,sans-Serif" font-size="10.00">&lt; Triangle * &gt;</text>
</a>
</g>
</g>
<!-- Node16&#45;&gt;Node18 -->
<g id="edge18" class="edge">
<title>Node16&#45;&gt;Node18</title>
<path fill="none" stroke="#63b8ff" d="M473.76,-52.02C486.01,-50.3 498.47,-48.55 510.1,-46.92"/>
<polygon fill="#63b8ff" stroke="#63b8ff" points="473.51,-48.52 464.09,-53.37 474.48,-55.45 473.51,-48.52"/>
</g>
</g>
</svg>
