<?xml version="1.0" encoding="UTF-8" standalone="no"?>
<!DOCTYPE svg PUBLIC "-//W3C//DTD SVG 1.1//EN"
 "http://www.w3.org/Graphics/SVG/1.1/DTD/svg11.dtd">
<!-- Generated by graphviz version 9.0.0 (20230911.1827)
 -->
<!-- Title: Graphical Class Hierarchy Pages: 1 -->
<svg width="505pt" height="64pt"
 viewBox="0.00 0.00 505.25 64.25" xmlns="http://www.w3.org/2000/svg" xmlns:xlink="http://www.w3.org/1999/xlink">
<g id="graph0" class="graph" transform="scale(1 1) rotate(0) translate(4 60.25)">
<title>Graphical Class Hierarchy</title>
<!-- Node0 -->
<g id="Node000000" class="node">
<title>Node0</title>
<g id="a_Node000000"><a xlink:href="class_ogre_1_1_hlms_json_listener.html" target="_top" xlink:title=" ">
<polygon fill="white" stroke="#666666" points="140.12,-56.25 19.12,-56.25 19.12,-37 140.12,-37 140.12,-56.25"/>
<text text-anchor="middle" x="79.62" y="-42.75" font-family="Helvetica,sans-Serif" font-size="10.00">Ogre::HlmsJsonListener</text>
</a>
</g>
</g>
<!-- Node1 -->
<g id="Node000001" class="node">
<title>Node1</title>
<g id="a_Node000001"><a xlink:href="class_ogre_1_1_scene_format_listener.html" target="_top" xlink:title="Override this listener if you want to filter which objects get exported.">
<polygon fill="white" stroke="#666666" points="330.5,-37.25 195.25,-37.25 195.25,-18 330.5,-18 330.5,-37.25"/>
<text text-anchor="middle" x="262.88" y="-23.75" font-family="Helvetica,sans-Serif" font-size="10.00">Ogre::SceneFormatListener</text>
</a>
</g>
</g>
<!-- Node0&#45;&gt;Node1 -->
<g id="edge1110_Node000000_Node000001" class="edge">
<title>Node0&#45;&gt;Node1</title>
<g id="a_edge1110_Node000000_Node000001"><a xlink:title=" ">
<path fill="none" stroke="#63b8ff" d="M151.7,-39.17C165.92,-37.68 180.81,-36.12 194.89,-34.65"/>
<polygon fill="#63b8ff" stroke="#63b8ff" points="151.56,-35.67 141.98,-40.19 152.29,-42.63 151.56,-35.67"/>
</a>
</g>
</g>
<!-- Node2 -->
<g id="Node000002" class="node">
<title>Node2</title>
<g id="a_Node000002"><a xlink:href="class_ogre_1_1_default_scene_format_listener.html" target="_top" xlink:title="Default implementation that prevents a SceneNode from being exported if the only attached objects.">
<polygon fill="white" stroke="#666666" points="497.25,-42.88 366.5,-42.88 366.5,-12.37 497.25,-12.37 497.25,-42.88"/>
<text text-anchor="start" x="374.5" y="-29.38" font-family="Helvetica,sans-Serif" font-size="10.00">Ogre::DefaultSceneFormat</text>
<text text-anchor="middle" x="431.88" y="-18.12" font-family="Helvetica,sans-Serif" font-size="10.00">Listener</text>
</a>
</g>
</g>
<!-- Node1&#45;&gt;Node2 -->
<g id="edge1111_Node000001_Node000002" class="edge">
<title>Node1&#45;&gt;Node2</title>
<g id="a_edge1111_Node000001_Node000002"><a xlink:title=" ">
<path fill="none" stroke="#63b8ff" d="M342.11,-27.62C350.13,-27.62 358.21,-27.62 366.07,-27.62"/>
<polygon fill="#63b8ff" stroke="#63b8ff" points="342.35,-24.13 332.35,-27.63 342.35,-31.13 342.35,-24.13"/>
</a>
</g>
</g>
<!-- Node3 -->
<g id="Node000003" class="node">
<title>Node3</title>
<g id="a_Node000003"><a xlink:href="class_ogre_1_1_hlms_texture_export_listener.html" target="_top" xlink:title=" ">
<polygon fill="white" stroke="#666666" points="159.25,-19.25 0,-19.25 0,0 159.25,0 159.25,-19.25"/>
<text text-anchor="middle" x="79.62" y="-5.75" font-family="Helvetica,sans-Serif" font-size="10.00">Ogre::HlmsTextureExportListener</text>
</a>
</g>
</g>
<!-- Node3&#45;&gt;Node1 -->
<g id="edge1112_Node000003_Node000001" class="edge">
<title>Node3&#45;&gt;Node1</title>
<g id="a_edge1112_Node000003_Node000001"><a xlink:title=" ">
<path fill="none" stroke="#63b8ff" d="M170.93,-18.59C178.96,-19.39 187,-20.19 194.79,-20.96"/>
<polygon fill="#63b8ff" stroke="#63b8ff" points="171.4,-15.12 161.1,-17.62 170.71,-22.09 171.4,-15.12"/>
</a>
</g>
</g>
</g>
</svg>
