<?xml version="1.0" encoding="UTF-8" standalone="no"?>
<!DOCTYPE svg PUBLIC "-//W3C//DTD SVG 1.1//EN"
 "http://www.w3.org/Graphics/SVG/1.1/DTD/svg11.dtd">
<!-- Generated by graphviz version 7.0.5 (20221223.1930)
 -->
<!-- Title: Graphical Class Hierarchy Pages: 1 -->
<svg width="304pt" height="64pt"
 viewBox="0.00 0.00 304.00 64.00" xmlns="http://www.w3.org/2000/svg" xmlns:xlink="http://www.w3.org/1999/xlink">
<g id="graph0" class="graph" transform="scale(1 1) rotate(0) translate(4 60)">
<title>Graphical Class Hierarchy</title>
<!-- Node0 -->
<g id="node1" class="node">
<title>Node0</title>
<g id="a_node1"><a xlink:href="class_ogre_1_1_scene_format_base.html" target="_top" xlink:title=" ">
<polygon fill="white" stroke="#666666" points="123,-37 0,-37 0,-18 123,-18 123,-37"/>
<text text-anchor="middle" x="61.5" y="-25" font-family="Helvetica,sans-Serif" font-size="10.00">Ogre::SceneFormatBase</text>
</a>
</g>
</g>
<!-- Node1 -->
<g id="node2" class="node">
<title>Node1</title>
<g id="a_node2"><a xlink:href="class_ogre_1_1_scene_format_exporter.html" target="_top" xlink:title=" ">
<polygon fill="white" stroke="#666666" points="295.5,-56 159.5,-56 159.5,-37 295.5,-37 295.5,-56"/>
<text text-anchor="middle" x="227.5" y="-44" font-family="Helvetica,sans-Serif" font-size="10.00">Ogre::SceneFormatExporter</text>
</a>
</g>
</g>
<!-- Node0&#45;&gt;Node1 -->
<g id="edge1" class="edge">
<title>Node0&#45;&gt;Node1</title>
<path fill="none" stroke="#63b8ff" d="M134.29,-35.82C142.58,-36.78 151.02,-37.75 159.24,-38.71"/>
<polygon fill="#63b8ff" stroke="#63b8ff" points="134.94,-32.37 124.61,-34.7 134.14,-39.32 134.94,-32.37"/>
</g>
<!-- Node2 -->
<g id="node3" class="node">
<title>Node2</title>
<g id="a_node3"><a xlink:href="class_ogre_1_1_scene_format_importer.html" target="_top" xlink:title=" ">
<polygon fill="white" stroke="#666666" points="296,-19 159,-19 159,0 296,0 296,-19"/>
<text text-anchor="middle" x="227.5" y="-7" font-family="Helvetica,sans-Serif" font-size="10.00">Ogre::SceneFormatImporter</text>
</a>
</g>
</g>
<!-- Node0&#45;&gt;Node2 -->
<g id="edge2" class="edge">
<title>Node0&#45;&gt;Node2</title>
<path fill="none" stroke="#63b8ff" d="M134.39,-19.61C142.46,-18.72 150.67,-17.82 158.69,-16.94"/>
<polygon fill="#63b8ff" stroke="#63b8ff" points="134.16,-16.11 124.61,-20.68 134.93,-23.07 134.16,-16.11"/>
</g>
</g>
</svg>
