<?xml version="1.0" encoding="UTF-8" standalone="no"?>
<!DOCTYPE svg PUBLIC "-//W3C//DTD SVG 1.1//EN"
 "http://www.w3.org/Graphics/SVG/1.1/DTD/svg11.dtd">
<!-- Generated by graphviz version 9.0.0 (20230911.1827)
 -->
<!-- Title: Graphical Class Hierarchy Pages: 1 -->
<svg width="318pt" height="138pt"
 viewBox="0.00 0.00 317.50 138.25" xmlns="http://www.w3.org/2000/svg" xmlns:xlink="http://www.w3.org/1999/xlink">
<g id="graph0" class="graph" transform="scale(1 1) rotate(0) translate(4 134.25)">
<title>Graphical Class Hierarchy</title>
<!-- Node0 -->
<g id="Node000000" class="node">
<title>Node0</title>
<g id="a_Node000000"><a xlink:href="class_ogre_1_1_lod_collapse_cost.html" target="_top" xlink:title=" ">
<polygon fill="white" stroke="#666666" points="115.75,-74.25 0,-74.25 0,-55 115.75,-55 115.75,-74.25"/>
<text text-anchor="middle" x="57.88" y="-60.75" font-family="Helvetica,sans-Serif" font-size="10.00">Ogre::LodCollapseCost</text>
</a>
</g>
</g>
<!-- Node1 -->
<g id="Node000001" class="node">
<title>Node1</title>
<g id="a_Node000001"><a xlink:href="class_ogre_1_1_lod_collapse_cost_curvature.html" target="_top" xlink:title=" ">
<polygon fill="white" stroke="#666666" points="309.5,-130.25 151.75,-130.25 151.75,-111 309.5,-111 309.5,-130.25"/>
<text text-anchor="middle" x="230.62" y="-116.75" font-family="Helvetica,sans-Serif" font-size="10.00">Ogre::LodCollapseCostCurvature</text>
</a>
</g>
</g>
<!-- Node0&#45;&gt;Node1 -->
<g id="edge1127_Node000000_Node000001" class="edge">
<title>Node0&#45;&gt;Node1</title>
<g id="a_edge1127_Node000000_Node000001"><a xlink:title=" ">
<path fill="none" stroke="#63b8ff" d="M90.97,-79.26C108.65,-86.93 131.13,-96.07 151.75,-102.62 161.01,-105.57 171.02,-108.25 180.69,-110.59"/>
<polygon fill="#63b8ff" stroke="#63b8ff" points="92.6,-76.15 82.03,-75.31 89.77,-82.55 92.6,-76.15"/>
</a>
</g>
</g>
<!-- Node2 -->
<g id="Node000002" class="node">
<title>Node2</title>
<g id="a_Node000002"><a xlink:href="class_ogre_1_1_lod_collapse_cost_outside.html" target="_top" xlink:title=" ">
<polygon fill="white" stroke="#666666" points="305.38,-93.25 155.88,-93.25 155.88,-74 305.38,-74 305.38,-93.25"/>
<text text-anchor="middle" x="230.62" y="-79.75" font-family="Helvetica,sans-Serif" font-size="10.00">Ogre::LodCollapseCostOutside</text>
</a>
</g>
</g>
<!-- Node0&#45;&gt;Node2 -->
<g id="edge1128_Node000000_Node000002" class="edge">
<title>Node0&#45;&gt;Node2</title>
<g id="a_edge1128_Node000000_Node000002"><a xlink:title=" ">
<path fill="none" stroke="#63b8ff" d="M127.63,-72.28C136.79,-73.3 146.22,-74.34 155.46,-75.37"/>
<polygon fill="#63b8ff" stroke="#63b8ff" points="128.04,-68.8 117.71,-71.17 127.26,-75.76 128.04,-68.8"/>
</a>
</g>
</g>
<!-- Node3 -->
<g id="Node000003" class="node">
<title>Node3</title>
<g id="a_Node000003"><a xlink:href="class_ogre_1_1_lod_collapse_cost_profiler.html" target="_top" xlink:title=" ">
<polygon fill="white" stroke="#666666" points="303.5,-56.25 157.75,-56.25 157.75,-37 303.5,-37 303.5,-56.25"/>
<text text-anchor="middle" x="230.62" y="-42.75" font-family="Helvetica,sans-Serif" font-size="10.00">Ogre::LodCollapseCostProfiler</text>
</a>
</g>
</g>
<!-- Node0&#45;&gt;Node3 -->
<g id="edge1129_Node000000_Node000003" class="edge">
<title>Node0&#45;&gt;Node3</title>
<g id="a_edge1129_Node000000_Node000003"><a xlink:title=" ">
<path fill="none" stroke="#63b8ff" d="M127.53,-57.39C137.32,-56.36 147.42,-55.29 157.28,-54.25"/>
<polygon fill="#63b8ff" stroke="#63b8ff" points="127.29,-53.89 117.71,-58.42 128.02,-60.85 127.29,-53.89"/>
</a>
</g>
</g>
<!-- Node4 -->
<g id="Node000004" class="node">
<title>Node4</title>
<g id="a_Node000004"><a xlink:href="class_ogre_1_1_lod_collapse_cost_quadric.html" target="_top" xlink:title=" ">
<polygon fill="white" stroke="#666666" points="305.38,-19.25 155.88,-19.25 155.88,0 305.38,0 305.38,-19.25"/>
<text text-anchor="middle" x="230.62" y="-5.75" font-family="Helvetica,sans-Serif" font-size="10.00">Ogre::LodCollapseCostQuadric</text>
</a>
</g>
</g>
<!-- Node0&#45;&gt;Node4 -->
<g id="edge1130_Node000000_Node000004" class="edge">
<title>Node0&#45;&gt;Node4</title>
<g id="a_edge1130_Node000000_Node000004"><a xlink:title=" ">
<path fill="none" stroke="#63b8ff" d="M91.72,-50.12C109.3,-42.73 131.45,-33.98 151.75,-27.62 161.02,-24.73 171.04,-22.07 180.72,-19.73"/>
<polygon fill="#63b8ff" stroke="#63b8ff" points="90.64,-46.78 82.82,-53.93 93.39,-53.22 90.64,-46.78"/>
</a>
</g>
</g>
</g>
</svg>
