<?xml version="1.0" encoding="UTF-8" standalone="no"?>
<!DOCTYPE svg PUBLIC "-//W3C//DTD SVG 1.1//EN"
 "http://www.w3.org/Graphics/SVG/1.1/DTD/svg11.dtd">
<!-- Generated by graphviz version 7.0.5 (20221223.1930)
 -->
<!-- Title: Ogre::SharedPtrInfo Pages: 1 -->
<svg width="298pt" height="150pt"
 viewBox="0.00 0.00 298.00 150.00" xmlns="http://www.w3.org/2000/svg" xmlns:xlink="http://www.w3.org/1999/xlink">
<g id="graph0" class="graph" transform="scale(1 1) rotate(0) translate(4 146)">
<title>Ogre::SharedPtrInfo</title>
<!-- Node1 -->
<g id="node1" class="node">
<title>Node1</title>
<g id="a_node1"><a xlink:title=" ">
<polygon fill="#999999" stroke="#666666" points="102,-77 0,-77 0,-58 102,-58 102,-77"/>
<text text-anchor="middle" x="51" y="-65" font-family="Helvetica,sans-Serif" font-size="10.00">Ogre::SharedPtrInfo</text>
</a>
</g>
</g>
<!-- Node2 -->
<g id="node2" class="node">
<title>Node2</title>
<g id="a_node2"><a xlink:href="class_ogre_1_1_shared_ptr_info_delete.html" target="_top" xlink:title=" ">
<polygon fill="white" stroke="#666666" points="290,-142 138,-142 138,-123 290,-123 290,-142"/>
<text text-anchor="middle" x="214" y="-130" font-family="Helvetica,sans-Serif" font-size="10.00">Ogre::SharedPtrInfoDelete&lt; T &gt;</text>
</a>
</g>
</g>
<!-- Node1&#45;&gt;Node2 -->
<g id="edge1" class="edge">
<title>Node1&#45;&gt;Node2</title>
<path fill="none" stroke="#63b8ff" d="M77.2,-83.08C93.94,-92.9 116.69,-105.24 138,-113.5 147.02,-116.99 156.9,-120.03 166.44,-122.58"/>
<polygon fill="#63b8ff" stroke="#63b8ff" points="79.29,-80.26 68.91,-78.13 75.7,-86.27 79.29,-80.26"/>
</g>
<!-- Node3 -->
<g id="node3" class="node">
<title>Node3</title>
<g id="a_node3"><a xlink:href="class_ogre_1_1_shared_ptr_info_delete_t.html" target="_top" xlink:title=" ">
<polygon fill="white" stroke="#666666" points="279,-104.5 149,-104.5 149,-74.5 279,-74.5 279,-104.5"/>
<text text-anchor="start" x="157" y="-92.5" font-family="Helvetica,sans-Serif" font-size="10.00">Ogre::SharedPtrInfoDelete</text>
<text text-anchor="middle" x="214" y="-81.5" font-family="Helvetica,sans-Serif" font-size="10.00">T&lt; T &gt;</text>
</a>
</g>
</g>
<!-- Node1&#45;&gt;Node3 -->
<g id="edge2" class="edge">
<title>Node1&#45;&gt;Node3</title>
<path fill="none" stroke="#63b8ff" d="M113.75,-75.94C125.22,-77.5 137.22,-79.15 148.76,-80.72"/>
<polygon fill="#63b8ff" stroke="#63b8ff" points="114.38,-72.49 104,-74.61 113.43,-79.43 114.38,-72.49"/>
</g>
<!-- Node4 -->
<g id="node4" class="node">
<title>Node4</title>
<g id="a_node4"><a xlink:href="class_ogre_1_1_shared_ptr_info_free.html" target="_top" xlink:title=" ">
<polygon fill="white" stroke="#666666" points="286,-56 142,-56 142,-37 286,-37 286,-56"/>
<text text-anchor="middle" x="214" y="-44" font-family="Helvetica,sans-Serif" font-size="10.00">Ogre::SharedPtrInfoFree&lt; T &gt;</text>
</a>
</g>
</g>
<!-- Node1&#45;&gt;Node4 -->
<g id="edge3" class="edge">
<title>Node1&#45;&gt;Node4</title>
<path fill="none" stroke="#63b8ff" d="M113.84,-59.43C122.97,-58.24 132.44,-57.01 141.74,-55.79"/>
<polygon fill="#63b8ff" stroke="#63b8ff" points="113.46,-55.95 104,-60.72 114.37,-62.89 113.46,-55.95"/>
</g>
<!-- Node5 -->
<g id="node5" class="node">
<title>Node5</title>
<g id="a_node5"><a xlink:href="struct_ogre_1_1_shared_ptr_info_none.html" target="_top" xlink:title=" ">
<polygon fill="white" stroke="#666666" points="276.5,-19 151.5,-19 151.5,0 276.5,0 276.5,-19"/>
<text text-anchor="middle" x="214" y="-7" font-family="Helvetica,sans-Serif" font-size="10.00">Ogre::SharedPtrInfoNone</text>
</a>
</g>
</g>
<!-- Node1&#45;&gt;Node5 -->
<g id="edge4" class="edge">
<title>Node1&#45;&gt;Node5</title>
<path fill="none" stroke="#63b8ff" d="M81.12,-52.73C97.53,-44.81 118.58,-35.3 138,-28.5 147.63,-25.13 158.16,-22.08 168.19,-19.47"/>
<polygon fill="#63b8ff" stroke="#63b8ff" points="79.86,-49.45 72.42,-57 82.94,-55.74 79.86,-49.45"/>
</g>
</g>
</svg>
