<?xml version="1.0" encoding="UTF-8" standalone="no"?>
<!DOCTYPE svg PUBLIC "-//W3C//DTD SVG 1.1//EN"
 "http://www.w3.org/Graphics/SVG/1.1/DTD/svg11.dtd">
<!-- Generated by graphviz version 7.0.5 (20221223.1930)
 -->
<!-- Title: Ogre::VectorSet&lt; T, S &gt; Pages: 1 -->
<svg width="145pt" height="291pt"
 viewBox="0.00 0.00 145.00 291.00" xmlns="http://www.w3.org/2000/svg" xmlns:xlink="http://www.w3.org/1999/xlink">
<g id="graph0" class="graph" transform="scale(1 1) rotate(0) translate(4 287)">
<title>Ogre::VectorSet&lt; T, S &gt;</title>
<!-- Node1 -->
<g id="node1" class="node">
<title>Node1</title>
<g id="a_node1"><a xlink:title="VectorSet is basically a helper to use a vector as a small set container.">
<polygon fill="#999999" stroke="#666666" points="128.5,-19 8.5,-19 8.5,0 128.5,0 128.5,-19"/>
<text text-anchor="middle" x="68.5" y="-7" font-family="Helvetica,sans-Serif" font-size="10.00">Ogre::VectorSet&lt; T, S &gt;</text>
</a>
</g>
</g>
<!-- Node2 -->
<g id="node2" class="node">
<title>Node2</title>
<g id="a_node2"><a xlink:href="class_ogre_1_1_small_vector.html" target="_top" xlink:title=" ">
<polygon fill="white" stroke="#666666" points="119,-85 18,-85 18,-55 119,-55 119,-85"/>
<text text-anchor="start" x="26" y="-73" font-family="Helvetica,sans-Serif" font-size="10.00">Ogre::SmallVector&lt;</text>
<text text-anchor="middle" x="68.5" y="-62" font-family="Helvetica,sans-Serif" font-size="10.00"> T, S &gt;</text>
</a>
</g>
</g>
<!-- Node2&#45;&gt;Node1 -->
<g id="edge1" class="edge">
<title>Node2&#45;&gt;Node1</title>
<path fill="none" stroke="#63b8ff" d="M68.5,-43.3C68.5,-34.65 68.5,-25.58 68.5,-19.18"/>
<polygon fill="#63b8ff" stroke="#63b8ff" points="65,-43.03 68.5,-53.03 72,-43.03 65,-43.03"/>
</g>
<!-- Node3 -->
<g id="node3" class="node">
<title>Node3</title>
<g id="a_node3"><a xlink:href="class_ogre_1_1_small_vector_impl.html" target="_top" xlink:title="SmallVectorImpl &#45; This class consists of common code factored out of the SmallVector class to reduce ...">
<polygon fill="white" stroke="#666666" points="137,-140 0,-140 0,-121 137,-121 137,-140"/>
<text text-anchor="middle" x="68.5" y="-128" font-family="Helvetica,sans-Serif" font-size="10.00">Ogre::SmallVectorImpl&lt; T &gt;</text>
</a>
</g>
</g>
<!-- Node3&#45;&gt;Node2 -->
<g id="edge2" class="edge">
<title>Node3&#45;&gt;Node2</title>
<path fill="none" stroke="#63b8ff" d="M62.06,-109.51C61.51,-101.49 61.69,-92.43 62.63,-85.11"/>
<polygon fill="#63b8ff" stroke="#63b8ff" points="58.58,-109.91 63.35,-119.37 65.52,-109 58.58,-109.91"/>
</g>
<!-- Node3&#45;&gt;Node2 -->
<g id="edge7" class="edge">
<title>Node3&#45;&gt;Node2</title>
<path fill="none" stroke="#63b8ff" d="M74.94,-109.51C75.49,-101.49 75.31,-92.43 74.37,-85.11"/>
<polygon fill="#63b8ff" stroke="#63b8ff" points="71.48,-109 73.65,-119.37 78.42,-109.91 71.48,-109"/>
</g>
<!-- Node4 -->
<g id="node4" class="node">
<title>Node4</title>
<g id="a_node4"><a xlink:href="class_ogre_1_1_small_vector_template_base.html" target="_top" xlink:title=" ">
<polygon fill="white" stroke="#666666" points="136.5,-217 0.5,-217 0.5,-176 136.5,-176 136.5,-217"/>
<text text-anchor="start" x="8.5" y="-205" font-family="Helvetica,sans-Serif" font-size="10.00">Ogre::SmallVectorTemplate</text>
<text text-anchor="start" x="8.5" y="-194" font-family="Helvetica,sans-Serif" font-size="10.00">Base&lt; T, isPodLike&lt; T &gt;</text>
<text text-anchor="middle" x="68.5" y="-183" font-family="Helvetica,sans-Serif" font-size="10.00">::value &gt;</text>
</a>
</g>
</g>
<!-- Node4&#45;&gt;Node3 -->
<g id="edge3" class="edge">
<title>Node4&#45;&gt;Node3</title>
<path fill="none" stroke="#63b8ff" d="M61.75,-164.23C61.71,-155.38 62.36,-146.45 63.7,-140.16"/>
<polygon fill="#63b8ff" stroke="#63b8ff" points="58.25,-164.23 62.14,-174.09 65.24,-163.96 58.25,-164.23"/>
</g>
<!-- Node4&#45;&gt;Node3 -->
<g id="edge6" class="edge">
<title>Node4&#45;&gt;Node3</title>
<path fill="none" stroke="#63b8ff" d="M75.25,-164.23C75.29,-155.38 74.64,-146.45 73.3,-140.16"/>
<polygon fill="#63b8ff" stroke="#63b8ff" points="71.76,-163.96 74.86,-174.09 78.75,-164.23 71.76,-163.96"/>
</g>
<!-- Node5 -->
<g id="node5" class="node">
<title>Node5</title>
<g id="a_node5"><a xlink:href="class_ogre_1_1_small_vector_template_common.html" target="_top" xlink:title=" ">
<polygon fill="#fff0f0" stroke="red" points="136.5,-283 0.5,-283 0.5,-253 136.5,-253 136.5,-283"/>
<text text-anchor="start" x="8.5" y="-271" font-family="Helvetica,sans-Serif" font-size="10.00">Ogre::SmallVectorTemplate</text>
<text text-anchor="middle" x="68.5" y="-260" font-family="Helvetica,sans-Serif" font-size="10.00">Common&lt; T &gt;</text>
</a>
</g>
</g>
<!-- Node5&#45;&gt;Node4 -->
<g id="edge4" class="edge">
<title>Node5&#45;&gt;Node4</title>
<path fill="none" stroke="#63b8ff" d="M61.96,-241.36C61.59,-233.45 61.71,-224.87 62.33,-217.42"/>
<polygon fill="#63b8ff" stroke="#63b8ff" points="58.45,-241.42 62.78,-251.09 65.43,-240.83 58.45,-241.42"/>
</g>
<!-- Node5&#45;&gt;Node4 -->
<g id="edge5" class="edge">
<title>Node5&#45;&gt;Node4</title>
<path fill="none" stroke="#63b8ff" d="M75.04,-241.36C75.41,-233.45 75.29,-224.87 74.67,-217.42"/>
<polygon fill="#63b8ff" stroke="#63b8ff" points="71.57,-240.83 74.22,-251.09 78.55,-241.42 71.57,-240.83"/>
</g>
</g>
</svg>
