<?xml version="1.0" encoding="UTF-8" standalone="no"?>
<!DOCTYPE svg PUBLIC "-//W3C//DTD SVG 1.1//EN"
 "http://www.w3.org/Graphics/SVG/1.1/DTD/svg11.dtd">
<!-- Generated by graphviz version 2.40.1 (20161225.0304)
 -->
<!-- Title: Ogre::StagingTexture Pages: 1 -->
<svg width="465pt" height="196pt"
 viewBox="0.00 0.00 464.50 196.00" xmlns="http://www.w3.org/2000/svg" xmlns:xlink="http://www.w3.org/1999/xlink">
<g id="graph0" class="graph" transform="scale(1 1) rotate(0) translate(4 192)">
<title>Ogre::StagingTexture</title>
<!-- Node0 -->
<g id="node1" class="node">
<title>Node0</title>
<polygon fill="#bfbfbf" stroke="#000000" points="98,-112.5 98,-131.5 208,-131.5 208,-112.5 98,-112.5"/>
<text text-anchor="middle" x="153" y="-119.5" font-family="Helvetica,sans-Serif" font-size="10.00" fill="#000000">Ogre::StagingTexture</text>
</g>
<!-- Node2 -->
<g id="node3" class="node">
<title>Node2</title>
<g id="a_node3"><a xlink:href="class_ogre_1_1_d3_d11_staging_texture.html" target="_top" xlink:title="Ogre::D3D11StagingTexture">
<polygon fill="none" stroke="#000000" points="0,-56.5 0,-75.5 140,-75.5 140,-56.5 0,-56.5"/>
<text text-anchor="middle" x="70" y="-63.5" font-family="Helvetica,sans-Serif" font-size="10.00" fill="#000000">Ogre::D3D11StagingTexture</text>
</a>
</g>
</g>
<!-- Node0&#45;&gt;Node2 -->
<g id="edge2" class="edge">
<title>Node0&#45;&gt;Node2</title>
<path fill="none" stroke="#191970" d="M130.012,-106.49C115.3678,-96.6096 96.8556,-84.1194 84.2918,-75.6427"/>
<polygon fill="#191970" stroke="#191970" points="128.2953,-109.5539 138.5425,-112.2455 132.2104,-103.7511 128.2953,-109.5539"/>
</g>
<!-- Node3 -->
<g id="node4" class="node">
<title>Node3</title>
<g id="a_node4"><a xlink:href="class_ogre_1_1_staging_texture_buffer_impl.html" target="_top" xlink:title="This implementation can be used by all RenderSystem APIs except D3D11, which is why this implementati...">
<polygon fill="none" stroke="#000000" points="158.5,-56.5 158.5,-75.5 313.5,-75.5 313.5,-56.5 158.5,-56.5"/>
<text text-anchor="middle" x="236" y="-63.5" font-family="Helvetica,sans-Serif" font-size="10.00" fill="#000000">Ogre::StagingTextureBufferImpl</text>
</a>
</g>
</g>
<!-- Node0&#45;&gt;Node3 -->
<g id="edge3" class="edge">
<title>Node0&#45;&gt;Node3</title>
<path fill="none" stroke="#191970" d="M175.988,-106.49C190.6322,-96.6096 209.1444,-84.1194 221.7082,-75.6427"/>
<polygon fill="#191970" stroke="#191970" points="173.7896,-103.7511 167.4575,-112.2455 177.7047,-109.5539 173.7896,-103.7511"/>
</g>
<!-- Node1 -->
<g id="node2" class="node">
<title>Node1</title>
<g id="a_node2"><a xlink:href="class_ogre_1_1_allocated_object.html" target="_top" xlink:title="Superclass for all objects that wish to use custom memory allocators when their new / delete operator...">
<polygon fill="none" stroke="#000000" points="109.5,-168.5 109.5,-187.5 196.5,-187.5 196.5,-168.5 109.5,-168.5"/>
<text text-anchor="middle" x="153" y="-175.5" font-family="Helvetica,sans-Serif" font-size="10.00" fill="#000000">RenderSysAlloc</text>
</a>
</g>
</g>
<!-- Node1&#45;&gt;Node0 -->
<g id="edge1" class="edge">
<title>Node1&#45;&gt;Node0</title>
<path fill="none" stroke="#191970" d="M153,-158.1575C153,-149.155 153,-138.9199 153,-131.6427"/>
<polygon fill="#191970" stroke="#191970" points="149.5001,-158.2455 153,-168.2455 156.5001,-158.2456 149.5001,-158.2455"/>
</g>
<!-- Node4 -->
<g id="node5" class="node">
<title>Node4</title>
<g id="a_node5"><a xlink:href="class_ogre_1_1_g_l3_plus_staging_texture.html" target="_top" xlink:title="Ogre::GL3PlusStagingTexture">
<polygon fill="none" stroke="#000000" points="3.5,-.5 3.5,-19.5 150.5,-19.5 150.5,-.5 3.5,-.5"/>
<text text-anchor="middle" x="77" y="-7.5" font-family="Helvetica,sans-Serif" font-size="10.00" fill="#000000">Ogre::GL3PlusStagingTexture</text>
</a>
</g>
</g>
<!-- Node3&#45;&gt;Node4 -->
<g id="edge4" class="edge">
<title>Node3&#45;&gt;Node4</title>
<path fill="none" stroke="#191970" d="M198.871,-52.9231C169.805,-42.686 130.0631,-28.6889 103.9764,-19.5011"/>
<polygon fill="#191970" stroke="#191970" points="198.0721,-56.3524 208.6669,-56.3733 200.3975,-49.75 198.0721,-56.3524"/>
</g>
<!-- Node5 -->
<g id="node6" class="node">
<title>Node5</title>
<g id="a_node6"><a xlink:href="class_ogre_1_1_metal_staging_texture.html" target="_top" xlink:title="Ogre::MetalStagingTexture">
<polygon fill="none" stroke="#000000" points="169,-.5 169,-19.5 303,-19.5 303,-.5 169,-.5"/>
<text text-anchor="middle" x="236" y="-7.5" font-family="Helvetica,sans-Serif" font-size="10.00" fill="#000000">Ogre::MetalStagingTexture</text>
</a>
</g>
</g>
<!-- Node3&#45;&gt;Node5 -->
<g id="edge5" class="edge">
<title>Node3&#45;&gt;Node5</title>
<path fill="none" stroke="#191970" d="M236,-46.1575C236,-37.155 236,-26.9199 236,-19.6427"/>
<polygon fill="#191970" stroke="#191970" points="232.5001,-46.2455 236,-56.2455 239.5001,-46.2456 232.5001,-46.2455"/>
</g>
<!-- Node6 -->
<g id="node7" class="node">
<title>Node6</title>
<g id="a_node7"><a xlink:href="class_ogre_1_1_n_u_l_l_staging_texture.html" target="_top" xlink:title="Ogre::NULLStagingTexture">
<polygon fill="none" stroke="#000000" points="321.5,-.5 321.5,-19.5 456.5,-19.5 456.5,-.5 321.5,-.5"/>
<text text-anchor="middle" x="389" y="-7.5" font-family="Helvetica,sans-Serif" font-size="10.00" fill="#000000">Ogre::NULLStagingTexture</text>
</a>
</g>
</g>
<!-- Node3&#45;&gt;Node6 -->
<g id="edge6" class="edge">
<title>Node3&#45;&gt;Node6</title>
<path fill="none" stroke="#191970" d="M271.7279,-52.9231C299.6971,-42.686 337.9393,-28.6889 363.0416,-19.5011"/>
<polygon fill="#191970" stroke="#191970" points="270.4894,-49.6493 262.3016,-56.3733 272.8954,-56.2228 270.4894,-49.6493"/>
</g>
</g>
</svg>
