<?xml version="1.0" encoding="UTF-8" standalone="no"?>
<!DOCTYPE svg PUBLIC "-//W3C//DTD SVG 1.1//EN"
 "http://www.w3.org/Graphics/SVG/1.1/DTD/svg11.dtd">
<!-- Generated by graphviz version 2.40.1 (20161225.0304)
 -->
<!-- Title: Ogre::MetalTexBufferPacked Pages: 1 -->
<svg width="264pt" height="196pt"
 viewBox="0.00 0.00 263.50 196.00" xmlns="http://www.w3.org/2000/svg" xmlns:xlink="http://www.w3.org/1999/xlink">
<g id="graph0" class="graph" transform="scale(1 1) rotate(0) translate(4 192)">
<title>Ogre::MetalTexBufferPacked</title>
<!-- Node0 -->
<g id="node1" class="node">
<title>Node0</title>
<polygon fill="#bfbfbf" stroke="#000000" points="66,-.5 66,-19.5 209,-19.5 209,-.5 66,-.5"/>
<text text-anchor="middle" x="137.5" y="-7.5" font-family="Helvetica,sans-Serif" font-size="10.00" fill="#000000">Ogre::MetalTexBufferPacked</text>
</g>
<!-- Node1 -->
<g id="node2" class="node">
<title>Node1</title>
<g id="a_node2"><a xlink:href="class_ogre_1_1_tex_buffer_packed.html" target="_top" xlink:title="Represents Texture buffers (also known as tbuffers in D3D11) ">
<polygon fill="none" stroke="#000000" points="78,-56.5 78,-75.5 197,-75.5 197,-56.5 78,-56.5"/>
<text text-anchor="middle" x="137.5" y="-63.5" font-family="Helvetica,sans-Serif" font-size="10.00" fill="#000000">Ogre::TexBufferPacked</text>
</a>
</g>
</g>
<!-- Node1&#45;&gt;Node0 -->
<g id="edge1" class="edge">
<title>Node1&#45;&gt;Node0</title>
<path fill="none" stroke="#191970" d="M137.5,-46.1575C137.5,-37.155 137.5,-26.9199 137.5,-19.6427"/>
<polygon fill="#191970" stroke="#191970" points="134.0001,-46.2455 137.5,-56.2455 141.0001,-46.2456 134.0001,-46.2455"/>
</g>
<!-- Node2 -->
<g id="node3" class="node">
<title>Node2</title>
<g id="a_node3"><a xlink:href="class_ogre_1_1_buffer_packed.html" target="_top" xlink:title="Ogre::BufferPacked">
<polygon fill="none" stroke="#000000" points="86,-112.5 86,-131.5 189,-131.5 189,-112.5 86,-112.5"/>
<text text-anchor="middle" x="137.5" y="-119.5" font-family="Helvetica,sans-Serif" font-size="10.00" fill="#000000">Ogre::BufferPacked</text>
</a>
</g>
</g>
<!-- Node2&#45;&gt;Node1 -->
<g id="edge2" class="edge">
<title>Node2&#45;&gt;Node1</title>
<path fill="none" stroke="#191970" d="M137.5,-102.1575C137.5,-93.155 137.5,-82.9199 137.5,-75.6427"/>
<polygon fill="#191970" stroke="#191970" points="134.0001,-102.2455 137.5,-112.2455 141.0001,-102.2456 134.0001,-102.2455"/>
</g>
<!-- Node3 -->
<g id="node4" class="node">
<title>Node3</title>
<g id="a_node4"><a xlink:href="struct_ogre_1_1_gpu_tracked_resource.html" target="_top" xlink:title="Ogre::GpuTrackedResource">
<polygon fill="none" stroke="#000000" points="0,-168.5 0,-187.5 139,-187.5 139,-168.5 0,-168.5"/>
<text text-anchor="middle" x="69.5" y="-175.5" font-family="Helvetica,sans-Serif" font-size="10.00" fill="#000000">Ogre::GpuTrackedResource</text>
</a>
</g>
</g>
<!-- Node3&#45;&gt;Node2 -->
<g id="edge3" class="edge">
<title>Node3&#45;&gt;Node2</title>
<path fill="none" stroke="#191970" d="M89.3596,-161.645C101.1858,-151.9058 115.7892,-139.8795 125.791,-131.6427"/>
<polygon fill="#191970" stroke="#191970" points="86.839,-159.1867 81.3447,-168.2455 91.289,-164.5902 86.839,-159.1867"/>
</g>
<!-- Node4 -->
<g id="node5" class="node">
<title>Node4</title>
<g id="a_node5"><a xlink:href="class_ogre_1_1_allocated_object.html" target="_top" xlink:title="Superclass for all objects that wish to use custom memory allocators when their new / delete operator...">
<polygon fill="none" stroke="#000000" points="157.5,-168.5 157.5,-187.5 255.5,-187.5 255.5,-168.5 157.5,-168.5"/>
<text text-anchor="middle" x="206.5" y="-175.5" font-family="Helvetica,sans-Serif" font-size="10.00" fill="#000000">BufferPackedAlloc</text>
</a>
</g>
</g>
<!-- Node4&#45;&gt;Node2 -->
<g id="edge4" class="edge">
<title>Node4&#45;&gt;Node2</title>
<path fill="none" stroke="#191970" d="M186.697,-161.928C174.6364,-152.1397 159.6286,-139.9595 149.3812,-131.6427"/>
<polygon fill="#191970" stroke="#191970" points="184.5109,-164.6614 194.4811,-168.2455 188.9221,-159.2262 184.5109,-164.6614"/>
</g>
</g>
</svg>
