<?xml version="1.0" encoding="UTF-8" standalone="no"?>
<!DOCTYPE svg PUBLIC "-//W3C//DTD SVG 1.1//EN"
 "http://www.w3.org/Graphics/SVG/1.1/DTD/svg11.dtd">
<!-- Generated by graphviz version 2.40.1 (20161225.0304)
 -->
<!-- Title: Ogre::TextureGpuListener Pages: 1 -->
<svg width="546pt" height="448pt"
 viewBox="0.00 0.00 546.00 448.00" xmlns="http://www.w3.org/2000/svg" xmlns:xlink="http://www.w3.org/1999/xlink">
<g id="graph0" class="graph" transform="scale(1 1) rotate(0) translate(4 444)">
<title>Ogre::TextureGpuListener</title>
<!-- Node0 -->
<g id="node1" class="node">
<title>Node0</title>
<polygon fill="#bfbfbf" stroke="#000000" points="0,-180.5 0,-199.5 129,-199.5 129,-180.5 0,-180.5"/>
<text text-anchor="middle" x="64.5" y="-187.5" font-family="Helvetica,sans-Serif" font-size="10.00" fill="#000000">Ogre::TextureGpuListener</text>
</g>
<!-- Node1 -->
<g id="node2" class="node">
<title>Node1</title>
<g id="a_node2"><a xlink:href="class_ogre_1_1_async_texture_ticket.html" target="_top" xlink:title="In Ogre 2.2 reading data from GPU back to CPU is asynchronous. ">
<polygon fill="none" stroke="#000000" points="183,-354.5 183,-373.5 314,-373.5 314,-354.5 183,-354.5"/>
<text text-anchor="middle" x="248.5" y="-361.5" font-family="Helvetica,sans-Serif" font-size="10.00" fill="#000000">Ogre::AsyncTextureTicket</text>
</a>
</g>
</g>
<!-- Node0&#45;&gt;Node1 -->
<g id="edge1" class="edge">
<title>Node0&#45;&gt;Node1</title>
<path fill="none" stroke="#191970" d="M71.4207,-209.3783C84.3444,-242.6439 115.4129,-310.3688 165,-345 170.485,-348.8306 176.6217,-351.9017 183.0116,-354.3617"/>
<polygon fill="#191970" stroke="#191970" points="74.6464,-208.0119 67.8618,-199.8743 68.0909,-210.4667 74.6464,-208.0119"/>
</g>
<!-- Node6 -->
<g id="node7" class="node">
<title>Node6</title>
<g id="a_node7"><a xlink:href="class_ogre_1_1_compositor_pass_uav.html" target="_top" xlink:title="Implementation of CompositorPass This implementation will set UAVs. ">
<polygon fill="none" stroke="#000000" points="181.5,-316.5 181.5,-335.5 315.5,-335.5 315.5,-316.5 181.5,-316.5"/>
<text text-anchor="middle" x="248.5" y="-323.5" font-family="Helvetica,sans-Serif" font-size="10.00" fill="#000000">Ogre::CompositorPassUav</text>
</a>
</g>
</g>
<!-- Node0&#45;&gt;Node6 -->
<g id="edge6" class="edge">
<title>Node0&#45;&gt;Node6</title>
<path fill="none" stroke="#191970" d="M75.1339,-208.6203C91.127,-234.8515 123.9218,-282.2409 165,-307 171.4939,-310.914 178.7143,-314.0227 186.114,-316.4914"/>
<polygon fill="#191970" stroke="#191970" points="77.9537,-206.5131 69.8448,-199.6942 71.9315,-210.0816 77.9537,-206.5131"/>
</g>
<!-- Node7 -->
<g id="node8" class="node">
<title>Node7</title>
<g id="a_node8"><a xlink:href="class_ogre_1_1_decal.html" target="_top" xlink:title="Decals can have diffuse, normal map, and emissive on top of regular objects. ">
<polygon fill="none" stroke="#000000" points="214,-278.5 214,-297.5 283,-297.5 283,-278.5 214,-278.5"/>
<text text-anchor="middle" x="248.5" y="-285.5" font-family="Helvetica,sans-Serif" font-size="10.00" fill="#000000">Ogre::Decal</text>
</a>
</g>
</g>
<!-- Node0&#45;&gt;Node7 -->
<g id="edge7" class="edge">
<title>Node0&#45;&gt;Node7</title>
<path fill="none" stroke="#191970" d="M80.9118,-206.752C99.6052,-224.8477 131.8718,-253.2026 165,-269 180.164,-276.231 198.2101,-280.7804 213.6394,-283.6066"/>
<polygon fill="#191970" stroke="#191970" points="83.341,-204.2319 73.7684,-199.6913 78.4201,-209.2104 83.341,-204.2319"/>
</g>
<!-- Node8 -->
<g id="node9" class="node">
<title>Node8</title>
<g id="a_node9"><a xlink:href="class_ogre_1_1_hlms_compute_job.html" target="_top" xlink:title="Ogre::HlmsComputeJob">
<polygon fill="none" stroke="#000000" points="187.5,-240.5 187.5,-259.5 309.5,-259.5 309.5,-240.5 187.5,-240.5"/>
<text text-anchor="middle" x="248.5" y="-247.5" font-family="Helvetica,sans-Serif" font-size="10.00" fill="#000000">Ogre::HlmsComputeJob</text>
</a>
</g>
</g>
<!-- Node0&#45;&gt;Node8 -->
<g id="edge8" class="edge">
<title>Node0&#45;&gt;Node8</title>
<path fill="none" stroke="#191970" d="M94.6759,-203.8247C114.3901,-212.4767 140.8631,-223.3867 165,-231 176.3428,-234.5777 188.7506,-237.7749 200.4502,-240.4799"/>
<polygon fill="#191970" stroke="#191970" points="95.8659,-200.5235 85.3063,-199.6596 93.0224,-206.92 95.8659,-200.5235"/>
</g>
<!-- Node9 -->
<g id="node10" class="node">
<title>Node9</title>
<g id="a_node10"><a xlink:href="class_ogre_1_1_light.html" target="_top" xlink:title="Representation of a dynamic light source in the scene. ">
<polygon fill="none" stroke="#000000" points="216,-202.5 216,-221.5 281,-221.5 281,-202.5 216,-202.5"/>
<text text-anchor="middle" x="248.5" y="-209.5" font-family="Helvetica,sans-Serif" font-size="10.00" fill="#000000">Ogre::Light</text>
</a>
</g>
</g>
<!-- Node0&#45;&gt;Node9 -->
<g id="edge9" class="edge">
<title>Node0&#45;&gt;Node9</title>
<path fill="none" stroke="#191970" d="M139.2093,-198.9326C165.8607,-202.1192 194.5202,-205.5459 215.802,-208.0905"/>
<polygon fill="#191970" stroke="#191970" points="139.4576,-195.4375 129.1128,-197.7254 138.6265,-202.388 139.4576,-195.4375"/>
</g>
<!-- Node10 -->
<g id="node11" class="node">
<title>Node10</title>
<g id="a_node11"><a xlink:href="class_ogre_1_1_o_g_r_e___h_l_m_s___t_e_x_t_u_r_e___b_a_s_e___c_l_a_s_s.html" target="_top" xlink:title="This is not a regular header, therefore it has no include guards. ">
<polygon fill="none" stroke="#000000" points="169.5,-153 169.5,-183 327.5,-183 327.5,-153 169.5,-153"/>
<text text-anchor="start" x="177.5" y="-171" font-family="Helvetica,sans-Serif" font-size="10.00" fill="#000000">Ogre::OGRE_HLMS_TEXTURE</text>
<text text-anchor="middle" x="248.5" y="-160" font-family="Helvetica,sans-Serif" font-size="10.00" fill="#000000">_BASE_CLASS</text>
</a>
</g>
</g>
<!-- Node0&#45;&gt;Node10 -->
<g id="edge10" class="edge">
<title>Node0&#45;&gt;Node10</title>
<path fill="none" stroke="#191970" d="M139.345,-181.0511C149.2794,-179.8633 159.4905,-178.6424 169.4925,-177.4466"/>
<polygon fill="#191970" stroke="#191970" points="138.6265,-177.612 129.1128,-182.2746 139.4576,-184.5625 138.6265,-177.612"/>
</g>
<!-- Node11 -->
<g id="node12" class="node">
<title>Node11</title>
<g id="a_node12"><a xlink:href="class_ogre_1_1_texture_gpu_manager.html" target="_top" xlink:title="This class manages all textures (i.e. ">
<polygon fill="none" stroke="#000000" points="182.5,-114.5 182.5,-133.5 314.5,-133.5 314.5,-114.5 182.5,-114.5"/>
<text text-anchor="middle" x="248.5" y="-121.5" font-family="Helvetica,sans-Serif" font-size="10.00" fill="#000000">Ogre::TextureGpuManager</text>
</a>
</g>
</g>
<!-- Node0&#45;&gt;Node11 -->
<g id="edge11" class="edge">
<title>Node0&#45;&gt;Node11</title>
<path fill="none" stroke="#191970" d="M91.6633,-175.8199C111.5576,-165.8698 139.4342,-152.819 165,-144 176.6961,-139.9654 189.5854,-136.4446 201.6646,-133.5286"/>
<polygon fill="#191970" stroke="#191970" points="89.9199,-172.7796 82.5833,-180.4233 93.0852,-179.0231 89.9199,-172.7796"/>
</g>
<!-- Node16 -->
<g id="node17" class="node">
<title>Node16</title>
<g id="a_node17"><a xlink:href="class_ogre_1_1_texture_gpu_manager_listener.html" target="_top" xlink:title="Ogre::TextureGpuManagerListener">
<polygon fill="none" stroke="#000000" points="165,-76.5 165,-95.5 332,-95.5 332,-76.5 165,-76.5"/>
<text text-anchor="middle" x="248.5" y="-83.5" font-family="Helvetica,sans-Serif" font-size="10.00" fill="#000000">Ogre::TextureGpuManagerListener</text>
</a>
</g>
</g>
<!-- Node0&#45;&gt;Node16 -->
<g id="edge16" class="edge">
<title>Node0&#45;&gt;Node16</title>
<path fill="none" stroke="#191970" d="M79.785,-172.8503C98.1021,-153.392 130.6492,-122.1427 165,-105 172.7155,-101.1496 181.221,-98.0686 189.7625,-95.6061"/>
<polygon fill="#191970" stroke="#191970" points="77.04,-170.6644 72.8422,-180.3922 82.1901,-175.4054 77.04,-170.6644"/>
</g>
<!-- Node18 -->
<g id="node19" class="node">
<title>Node18</title>
<g id="a_node19"><a xlink:href="class_ogre_1_1_texture_unit_state.html" target="_top" xlink:title="Class representing the state of a single texture unit during a Pass of a Technique, of a Material. ">
<polygon fill="none" stroke="#000000" points="189.5,-38.5 189.5,-57.5 307.5,-57.5 307.5,-38.5 189.5,-38.5"/>
<text text-anchor="middle" x="248.5" y="-45.5" font-family="Helvetica,sans-Serif" font-size="10.00" fill="#000000">Ogre::TextureUnitState</text>
</a>
</g>
</g>
<!-- Node0&#45;&gt;Node18 -->
<g id="edge18" class="edge">
<title>Node0&#45;&gt;Node18</title>
<path fill="none" stroke="#191970" d="M74.4512,-171.1914C89.9742,-143.7774 122.62,-93.2602 165,-67 172.3298,-62.4582 180.6244,-58.9991 189.0704,-56.3652"/>
<polygon fill="#191970" stroke="#191970" points="71.272,-169.7092 69.5206,-180.1583 77.4058,-173.082 71.272,-169.7092"/>
</g>
<!-- Node19 -->
<g id="node20" class="node">
<title>Node19</title>
<g id="a_node20"><a xlink:href="class_ogre_1_1_vct_lighting.html" target="_top" xlink:title="Ogre::VctLighting">
<polygon fill="none" stroke="#000000" points="202.5,-.5 202.5,-19.5 294.5,-19.5 294.5,-.5 202.5,-.5"/>
<text text-anchor="middle" x="248.5" y="-7.5" font-family="Helvetica,sans-Serif" font-size="10.00" fill="#000000">Ogre::VctLighting</text>
</a>
</g>
</g>
<!-- Node0&#45;&gt;Node19 -->
<g id="edge19" class="edge">
<title>Node0&#45;&gt;Node19</title>
<path fill="none" stroke="#191970" d="M71.0226,-170.3743C83.4988,-136.0159 114.1196,-65.1894 165,-29 175.9036,-21.2447 189.4609,-16.594 202.4584,-13.8235"/>
<polygon fill="#191970" stroke="#191970" points="67.5986,-169.5632 67.6068,-180.158 74.2074,-171.8706 67.5986,-169.5632"/>
</g>
<!-- Node2 -->
<g id="node3" class="node">
<title>Node2</title>
<g id="a_node3"><a xlink:href="class_ogre_1_1_d3_d11_async_texture_ticket.html" target="_top" xlink:title="See AsyncTextureTicket. ">
<polygon fill="none" stroke="#000000" points="372,-420.5 372,-439.5 534,-439.5 534,-420.5 372,-420.5"/>
<text text-anchor="middle" x="453" y="-427.5" font-family="Helvetica,sans-Serif" font-size="10.00" fill="#000000">Ogre::D3D11AsyncTextureTicket</text>
</a>
</g>
</g>
<!-- Node1&#45;&gt;Node2 -->
<g id="edge2" class="edge">
<title>Node1&#45;&gt;Node2</title>
<path fill="none" stroke="#191970" d="M278.975,-377.5006C302.8508,-387.7057 337.0885,-401.5287 368,-411 379.5662,-414.5439 392.2042,-417.7283 404.1148,-420.4318"/>
<polygon fill="#191970" stroke="#191970" points="280.3004,-374.2606 269.7322,-373.5094 277.5253,-380.687 280.3004,-374.2606"/>
</g>
<!-- Node3 -->
<g id="node4" class="node">
<title>Node3</title>
<g id="a_node4"><a xlink:href="class_ogre_1_1_g_l3_plus_async_texture_ticket.html" target="_top" xlink:title="See AsyncTextureTicket. ">
<polygon fill="none" stroke="#000000" points="382,-371 382,-401 524,-401 524,-371 382,-371"/>
<text text-anchor="start" x="390" y="-389" font-family="Helvetica,sans-Serif" font-size="10.00" fill="#000000">Ogre::GL3PlusAsyncTexture</text>
<text text-anchor="middle" x="453" y="-378" font-family="Helvetica,sans-Serif" font-size="10.00" fill="#000000">Ticket</text>
</a>
</g>
</g>
<!-- Node1&#45;&gt;Node3 -->
<g id="edge3" class="edge">
<title>Node1&#45;&gt;Node3</title>
<path fill="none" stroke="#191970" d="M324.0859,-372.1315C342.9664,-374.1626 363.1509,-376.3341 381.8105,-378.3415"/>
<polygon fill="#191970" stroke="#191970" points="324.3659,-368.6415 314.0489,-371.0517 323.6171,-375.6013 324.3659,-368.6415"/>
</g>
<!-- Node4 -->
<g id="node5" class="node">
<title>Node4</title>
<g id="a_node5"><a xlink:href="class_ogre_1_1_metal_async_texture_ticket.html" target="_top" xlink:title="See AsyncTextureTicket. ">
<polygon fill="none" stroke="#000000" points="375.5,-332.5 375.5,-351.5 530.5,-351.5 530.5,-332.5 375.5,-332.5"/>
<text text-anchor="middle" x="453" y="-339.5" font-family="Helvetica,sans-Serif" font-size="10.00" fill="#000000">Ogre::MetalAsyncTextureTicket</text>
</a>
</g>
</g>
<!-- Node1&#45;&gt;Node4 -->
<g id="edge4" class="edge">
<title>Node1&#45;&gt;Node4</title>
<path fill="none" stroke="#191970" d="M324.2736,-355.8483C340.932,-354.0562 358.5972,-352.1558 375.3291,-350.3558"/>
<polygon fill="#191970" stroke="#191970" points="323.6171,-352.3987 314.0489,-356.9483 324.3659,-359.3585 323.6171,-352.3987"/>
</g>
<!-- Node5 -->
<g id="node6" class="node">
<title>Node5</title>
<g id="a_node6"><a xlink:href="class_ogre_1_1_n_u_l_l_async_texture_ticket.html" target="_top" xlink:title="See AsyncTextureTicket. ">
<polygon fill="none" stroke="#000000" points="374.5,-294.5 374.5,-313.5 531.5,-313.5 531.5,-294.5 374.5,-294.5"/>
<text text-anchor="middle" x="453" y="-301.5" font-family="Helvetica,sans-Serif" font-size="10.00" fill="#000000">Ogre::NULLAsyncTextureTicket</text>
</a>
</g>
</g>
<!-- Node1&#45;&gt;Node5 -->
<g id="edge5" class="edge">
<title>Node1&#45;&gt;Node5</title>
<path fill="none" stroke="#191970" d="M312.2305,-351.7791C319.0019,-349.8083 325.7077,-347.5581 332,-345 349.3705,-337.938 350.6161,-330.0288 368,-323 377.3925,-319.2024 387.6908,-316.0911 397.7774,-313.5671"/>
<polygon fill="#191970" stroke="#191970" points="311.0394,-348.4755 302.3032,-354.4697 312.8706,-355.2318 311.0394,-348.4755"/>
</g>
<!-- Node12 -->
<g id="node13" class="node">
<title>Node12</title>
<g id="a_node13"><a xlink:href="class_ogre_1_1_d3_d11_texture_gpu_manager.html" target="_top" xlink:title="Ogre::D3D11TextureGpuManager">
<polygon fill="none" stroke="#000000" points="371.5,-190.5 371.5,-209.5 534.5,-209.5 534.5,-190.5 371.5,-190.5"/>
<text text-anchor="middle" x="453" y="-197.5" font-family="Helvetica,sans-Serif" font-size="10.00" fill="#000000">Ogre::D3D11TextureGpuManager</text>
</a>
</g>
</g>
<!-- Node11&#45;&gt;Node12 -->
<g id="edge12" class="edge">
<title>Node11&#45;&gt;Node12</title>
<path fill="none" stroke="#191970" d="M316.7993,-136.9019C322.0877,-138.9331 327.2219,-141.2826 332,-144 351.9441,-155.3424 347.9703,-169.8093 368,-181 374.9963,-184.9089 382.7389,-188.0136 390.619,-190.4796"/>
<polygon fill="#191970" stroke="#191970" points="317.7519,-133.5282 307.1572,-133.5787 315.4709,-140.1462 317.7519,-133.5282"/>
</g>
<!-- Node13 -->
<g id="node14" class="node">
<title>Node13</title>
<g id="a_node14"><a xlink:href="class_ogre_1_1_g_l3_plus_texture_gpu_manager.html" target="_top" xlink:title="Ogre::GL3PlusTextureGpuManager">
<polygon fill="none" stroke="#000000" points="368,-152.5 368,-171.5 538,-171.5 538,-152.5 368,-152.5"/>
<text text-anchor="middle" x="453" y="-159.5" font-family="Helvetica,sans-Serif" font-size="10.00" fill="#000000">Ogre::GL3PlusTextureGpuManager</text>
</a>
</g>
</g>
<!-- Node11&#45;&gt;Node13 -->
<g id="edge13" class="edge">
<title>Node11&#45;&gt;Node13</title>
<path fill="none" stroke="#191970" d="M309.9475,-135.4181C339.2078,-140.8552 373.8006,-147.2832 401.6389,-152.4561"/>
<polygon fill="#191970" stroke="#191970" points="310.3112,-131.9259 299.84,-133.54 309.0323,-138.808 310.3112,-131.9259"/>
</g>
<!-- Node14 -->
<g id="node15" class="node">
<title>Node14</title>
<g id="a_node15"><a xlink:href="class_ogre_1_1_metal_texture_gpu_manager.html" target="_top" xlink:title="Ogre::MetalTextureGpuManager">
<polygon fill="none" stroke="#000000" points="375,-114.5 375,-133.5 531,-133.5 531,-114.5 375,-114.5"/>
<text text-anchor="middle" x="453" y="-121.5" font-family="Helvetica,sans-Serif" font-size="10.00" fill="#000000">Ogre::MetalTextureGpuManager</text>
</a>
</g>
</g>
<!-- Node11&#45;&gt;Node14 -->
<g id="edge14" class="edge">
<title>Node11&#45;&gt;Node14</title>
<path fill="none" stroke="#191970" d="M324.6983,-124C341.1222,-124 358.5069,-124 374.9985,-124"/>
<polygon fill="#191970" stroke="#191970" points="324.6129,-120.5001 314.6129,-124 324.6128,-127.5001 324.6129,-120.5001"/>
</g>
<!-- Node15 -->
<g id="node16" class="node">
<title>Node15</title>
<g id="a_node16"><a xlink:href="class_ogre_1_1_n_u_l_l_texture_gpu_manager.html" target="_top" xlink:title="Ogre::NULLTextureGpuManager">
<polygon fill="none" stroke="#000000" points="374,-76.5 374,-95.5 532,-95.5 532,-76.5 374,-76.5"/>
<text text-anchor="middle" x="453" y="-83.5" font-family="Helvetica,sans-Serif" font-size="10.00" fill="#000000">Ogre::NULLTextureGpuManager</text>
</a>
</g>
</g>
<!-- Node11&#45;&gt;Node15 -->
<g id="edge15" class="edge">
<title>Node11&#45;&gt;Node15</title>
<path fill="none" stroke="#191970" d="M309.9475,-112.5819C339.2078,-107.1448 373.8006,-100.7168 401.6389,-95.5439"/>
<polygon fill="#191970" stroke="#191970" points="309.0323,-109.192 299.84,-114.46 310.3112,-116.0741 309.0323,-109.192"/>
</g>
<!-- Node17 -->
<g id="node18" class="node">
<title>Node17</title>
<g id="a_node18"><a xlink:href="class_ogre_1_1_default_texture_gpu_manager_listener.html" target="_top" xlink:title="This is a Default implementation of TextureGpuManagerListener based on heuristics. ">
<polygon fill="none" stroke="#000000" points="371,-27 371,-57 535,-57 535,-27 371,-27"/>
<text text-anchor="start" x="379" y="-45" font-family="Helvetica,sans-Serif" font-size="10.00" fill="#000000">Ogre::DefaultTextureGpuManager</text>
<text text-anchor="middle" x="453" y="-34" font-family="Helvetica,sans-Serif" font-size="10.00" fill="#000000">Listener</text>
</a>
</g>
</g>
<!-- Node16&#45;&gt;Node17 -->
<g id="edge17" class="edge">
<title>Node16&#45;&gt;Node17</title>
<path fill="none" stroke="#191970" d="M302.7473,-74.3282C327.3465,-69.0355 356.7406,-62.7111 382.9803,-57.0654"/>
<polygon fill="#191970" stroke="#191970" points="301.9135,-70.9274 292.8735,-76.4527 303.386,-77.7708 301.9135,-70.9274"/>
</g>
</g>
</svg>
