<?xml version="1.0" encoding="UTF-8" standalone="no"?>
<!DOCTYPE svg PUBLIC "-//W3C//DTD SVG 1.1//EN"
 "http://www.w3.org/Graphics/SVG/1.1/DTD/svg11.dtd">
<!-- Generated by graphviz version 2.40.1 (20161225.0304)
 -->
<!-- Title: Ogre::RenderSystem::Listener Pages: 1 -->
<svg width="492pt" height="95pt"
 viewBox="0.00 0.00 491.50 95.00" xmlns="http://www.w3.org/2000/svg" xmlns:xlink="http://www.w3.org/1999/xlink">
<g id="graph0" class="graph" transform="scale(1 1) rotate(0) translate(4 91)">
<title>Ogre::RenderSystem::Listener</title>
<!-- Node0 -->
<g id="node1" class="node">
<title>Node0</title>
<polygon fill="#bfbfbf" stroke="#000000" points="210,-56.5 210,-86.5 319,-86.5 319,-56.5 210,-56.5"/>
<text text-anchor="start" x="218" y="-74.5" font-family="Helvetica,sans-Serif" font-size="10.00" fill="#000000">Ogre::RenderSystem</text>
<text text-anchor="middle" x="264.5" y="-63.5" font-family="Helvetica,sans-Serif" font-size="10.00" fill="#000000">::Listener</text>
</g>
<!-- Node1 -->
<g id="node2" class="node">
<title>Node1</title>
<g id="a_node2"><a xlink:href="class_ogre_1_1_d3_d11_render_pass_descriptor.html" target="_top" xlink:title="D3D11 will share groups of ID3D11RenderTargetView all D3D11RenderPassDescriptor that share the same R...">
<polygon fill="none" stroke="#000000" points="0,-.5 0,-19.5 173,-19.5 173,-.5 0,-.5"/>
<text text-anchor="middle" x="86.5" y="-7.5" font-family="Helvetica,sans-Serif" font-size="10.00" fill="#000000">Ogre::D3D11RenderPassDescriptor</text>
</a>
</g>
</g>
<!-- Node0&#45;&gt;Node1 -->
<g id="edge1" class="edge">
<title>Node0&#45;&gt;Node1</title>
<path fill="none" stroke="#191970" d="M211.2937,-53.1169C179.319,-42.0695 139.9481,-28.4666 114.0837,-19.5303"/>
<polygon fill="#191970" stroke="#191970" points="210.3615,-56.4978 220.9563,-56.4554 212.6475,-49.8816 210.3615,-56.4978"/>
</g>
<!-- Node2 -->
<g id="node3" class="node">
<title>Node2</title>
<g id="a_node3"><a xlink:href="class_ogre_1_1_d3_d9_stereo_driver_a_m_d.html" target="_top" xlink:title="Virtual interface of the stereo driver. ">
<polygon fill="none" stroke="#000000" points="191.5,-.5 191.5,-19.5 337.5,-19.5 337.5,-.5 191.5,-.5"/>
<text text-anchor="middle" x="264.5" y="-7.5" font-family="Helvetica,sans-Serif" font-size="10.00" fill="#000000">Ogre::D3D9StereoDriverAMD</text>
</a>
</g>
</g>
<!-- Node0&#45;&gt;Node2 -->
<g id="edge2" class="edge">
<title>Node0&#45;&gt;Node2</title>
<path fill="none" stroke="#191970" d="M264.5,-46.2849C264.5,-36.9858 264.5,-26.9883 264.5,-19.8469"/>
<polygon fill="#191970" stroke="#191970" points="261.0001,-46.2977 264.5,-56.2977 268.0001,-46.2978 261.0001,-46.2977"/>
</g>
<!-- Node3 -->
<g id="node4" class="node">
<title>Node3</title>
<g id="a_node4"><a xlink:href="class_ogre_1_1v1_1_1_overlay_system.html" target="_top" xlink:title="This class simplify initialization / finalization of the overlay system. ">
<polygon fill="none" stroke="#000000" points="355.5,-.5 355.5,-19.5 483.5,-19.5 483.5,-.5 355.5,-.5"/>
<text text-anchor="middle" x="419.5" y="-7.5" font-family="Helvetica,sans-Serif" font-size="10.00" fill="#000000">Ogre::v1::OverlaySystem</text>
</a>
</g>
</g>
<!-- Node0&#45;&gt;Node3 -->
<g id="edge3" class="edge">
<title>Node0&#45;&gt;Node3</title>
<path fill="none" stroke="#191970" d="M311.9146,-52.6871C339.5592,-41.7185 373.2493,-28.3511 395.4805,-19.5303"/>
<polygon fill="#191970" stroke="#191970" points="310.4215,-49.514 302.4173,-56.4554 313.0032,-56.0206 310.4215,-49.514"/>
</g>
</g>
</svg>
