<?xml version="1.0" encoding="UTF-8" standalone="no"?>
<!DOCTYPE svg PUBLIC "-//W3C//DTD SVG 1.1//EN"
 "http://www.w3.org/Graphics/SVG/1.1/DTD/svg11.dtd">
<!-- Generated by graphviz version 2.40.1 (20161225.0304)
 -->
<!-- Title: Ogre::MultiSourceVertexBufferPool Pages: 1 -->
<svg width="503pt" height="186pt"
 viewBox="0.00 0.00 503.00 186.00" xmlns="http://www.w3.org/2000/svg" xmlns:xlink="http://www.w3.org/1999/xlink">
<g id="graph0" class="graph" transform="scale(1 1) rotate(0) translate(4 182)">
<title>Ogre::MultiSourceVertexBufferPool</title>
<!-- Node0 -->
<g id="node1" class="node">
<title>Node0</title>
<polygon fill="#bfbfbf" stroke="#000000" points="134,-79 134,-98 304,-98 304,-79 134,-79"/>
<text text-anchor="middle" x="219" y="-86" font-family="Helvetica,sans-Serif" font-size="10.00" fill="#000000">Ogre::MultiSourceVertexBufferPool</text>
</g>
<!-- Node2 -->
<g id="node3" class="node">
<title>Node2</title>
<g id="a_node3"><a xlink:href="class_ogre_1_1_g_l3_plus_multi_source_vertex_buffer_pool.html" target="_top" xlink:title="Ogre::GL3PlusMultiSource\lVertexBufferPool">
<polygon fill="none" stroke="#000000" points="351,-147.5 351,-177.5 484,-177.5 484,-147.5 351,-147.5"/>
<text text-anchor="start" x="359" y="-165.5" font-family="Helvetica,sans-Serif" font-size="10.00" fill="#000000">Ogre::GL3PlusMultiSource</text>
<text text-anchor="middle" x="417.5" y="-154.5" font-family="Helvetica,sans-Serif" font-size="10.00" fill="#000000">VertexBufferPool</text>
</a>
</g>
</g>
<!-- Node0&#45;&gt;Node2 -->
<g id="edge2" class="edge">
<title>Node0&#45;&gt;Node2</title>
<path fill="none" stroke="#191970" d="M250.0217,-102.239C274.2856,-112.7602 308.9917,-127.3186 340,-138.5 348.4801,-141.5579 357.5639,-144.5868 366.4195,-147.4102"/>
<polygon fill="#191970" stroke="#191970" points="251.1896,-98.93 240.6243,-98.1395 248.3906,-105.346 251.1896,-98.93"/>
</g>
<!-- Node3 -->
<g id="node4" class="node">
<title>Node3</title>
<g id="a_node4"><a xlink:href="class_ogre_1_1_g_l_e_s2_multi_source_vertex_buffer_pool.html" target="_top" xlink:title="Ogre::GLES2MultiSourceVertex\lBufferPool">
<polygon fill="none" stroke="#000000" points="340,-98.5 340,-128.5 495,-128.5 495,-98.5 340,-98.5"/>
<text text-anchor="start" x="348" y="-116.5" font-family="Helvetica,sans-Serif" font-size="10.00" fill="#000000">Ogre::GLES2MultiSourceVertex</text>
<text text-anchor="middle" x="417.5" y="-105.5" font-family="Helvetica,sans-Serif" font-size="10.00" fill="#000000">BufferPool</text>
</a>
</g>
</g>
<!-- Node0&#45;&gt;Node3 -->
<g id="edge3" class="edge">
<title>Node0&#45;&gt;Node3</title>
<path fill="none" stroke="#191970" d="M304.7618,-99.3012C316.4059,-100.7678 328.3024,-102.266 339.7941,-103.7134"/>
<polygon fill="#191970" stroke="#191970" points="304.9696,-95.7998 294.6106,-98.0227 304.0948,-102.745 304.9696,-95.7998"/>
</g>
<!-- Node4 -->
<g id="node5" class="node">
<title>Node4</title>
<g id="a_node5"><a xlink:href="class_ogre_1_1_metal_multi_source_vertex_buffer_pool.html" target="_top" xlink:title="Ogre::MetalMultiSourceVertex\lBufferPool">
<polygon fill="none" stroke="#000000" points="343.5,-49.5 343.5,-79.5 491.5,-79.5 491.5,-49.5 343.5,-49.5"/>
<text text-anchor="start" x="351.5" y="-67.5" font-family="Helvetica,sans-Serif" font-size="10.00" fill="#000000">Ogre::MetalMultiSourceVertex</text>
<text text-anchor="middle" x="417.5" y="-56.5" font-family="Helvetica,sans-Serif" font-size="10.00" fill="#000000">BufferPool</text>
</a>
</g>
</g>
<!-- Node0&#45;&gt;Node4 -->
<g id="edge4" class="edge">
<title>Node0&#45;&gt;Node4</title>
<path fill="none" stroke="#191970" d="M307.6903,-77.7767C319.6147,-76.335 331.7448,-74.8684 343.3814,-73.4614"/>
<polygon fill="#191970" stroke="#191970" points="307.2451,-74.305 297.7376,-78.9801 308.0854,-81.2544 307.2451,-74.305"/>
</g>
<!-- Node5 -->
<g id="node6" class="node">
<title>Node5</title>
<g id="a_node6"><a xlink:href="class_ogre_1_1_n_u_l_l_multi_source_vertex_buffer_pool.html" target="_top" xlink:title="Ogre::NULLMultiSourceVertex\lBufferPool">
<polygon fill="none" stroke="#000000" points="343,-.5 343,-30.5 492,-30.5 492,-.5 343,-.5"/>
<text text-anchor="start" x="351" y="-18.5" font-family="Helvetica,sans-Serif" font-size="10.00" fill="#000000">Ogre::NULLMultiSourceVertex</text>
<text text-anchor="middle" x="417.5" y="-7.5" font-family="Helvetica,sans-Serif" font-size="10.00" fill="#000000">BufferPool</text>
</a>
</g>
</g>
<!-- Node0&#45;&gt;Node5 -->
<g id="edge5" class="edge">
<title>Node0&#45;&gt;Node5</title>
<path fill="none" stroke="#191970" d="M250.4927,-74.8945C274.7499,-64.6232 309.2298,-50.4727 340,-39.5 348.6235,-36.4249 357.8642,-33.3641 366.8527,-30.5086"/>
<polygon fill="#191970" stroke="#191970" points="248.9143,-71.7624 241.085,-78.9005 251.6568,-78.2028 248.9143,-71.7624"/>
</g>
<!-- Node1 -->
<g id="node2" class="node">
<title>Node1</title>
<g id="a_node2"><a xlink:href="class_ogre_1_1_allocated_object.html" target="_top" xlink:title="Superclass for all objects that wish to use custom memory allocators when their new / delete operator...">
<polygon fill="none" stroke="#000000" points="0,-79 0,-98 98,-98 98,-79 0,-79"/>
<text text-anchor="middle" x="49" y="-86" font-family="Helvetica,sans-Serif" font-size="10.00" fill="#000000">BufferPackedAlloc</text>
</a>
</g>
</g>
<!-- Node1&#45;&gt;Node0 -->
<g id="edge1" class="edge">
<title>Node1&#45;&gt;Node0</title>
<path fill="none" stroke="#191970" d="M108.3686,-88.5C116.5891,-88.5 125.1624,-88.5 133.7393,-88.5"/>
<polygon fill="#191970" stroke="#191970" points="108.1711,-85.0001 98.171,-88.5 108.171,-92.0001 108.1711,-85.0001"/>
</g>
</g>
</svg>
