<?xml version="1.0" encoding="UTF-8" standalone="no"?>
<!DOCTYPE svg PUBLIC "-//W3C//DTD SVG 1.1//EN"
 "http://www.w3.org/Graphics/SVG/1.1/DTD/svg11.dtd">
<!-- Generated by graphviz version 2.40.1 (20161225.0304)
 -->
<!-- Title: Ogre::v1::HardwareUniformBuffer Pages: 1 -->
<svg width="614pt" height="333pt"
 viewBox="0.00 0.00 614.00 333.00" xmlns="http://www.w3.org/2000/svg" xmlns:xlink="http://www.w3.org/1999/xlink">
<g id="graph0" class="graph" transform="scale(1 1) rotate(0) translate(4 329)">
<title>Ogre::v1::HardwareUniformBuffer</title>
<!-- Node0 -->
<g id="node1" class="node">
<title>Node0</title>
<polygon fill="#bfbfbf" stroke="#000000" points="265,-147.5 265,-177.5 402,-177.5 402,-147.5 265,-147.5"/>
<text text-anchor="start" x="273" y="-165.5" font-family="Helvetica,sans-Serif" font-size="10.00" fill="#000000">Ogre::v1::HardwareUniform</text>
<text text-anchor="middle" x="333.5" y="-154.5" font-family="Helvetica,sans-Serif" font-size="10.00" fill="#000000">Buffer</text>
</g>
<!-- Node3 -->
<g id="node4" class="node">
<title>Node3</title>
<g id="a_node4"><a xlink:href="class_ogre_1_1v1_1_1_d3_d11_hardware_uniform_buffer.html" target="_top" xlink:title="Specialisation of HardwareBuffer for D3D11. ">
<polygon fill="none" stroke="#000000" points="438.5,-294.5 438.5,-324.5 605.5,-324.5 605.5,-294.5 438.5,-294.5"/>
<text text-anchor="start" x="446.5" y="-312.5" font-family="Helvetica,sans-Serif" font-size="10.00" fill="#000000">Ogre::v1::D3D11HardwareUniform</text>
<text text-anchor="middle" x="522" y="-301.5" font-family="Helvetica,sans-Serif" font-size="10.00" fill="#000000">Buffer</text>
</a>
</g>
</g>
<!-- Node0&#45;&gt;Node3 -->
<g id="edge3" class="edge">
<title>Node0&#45;&gt;Node3</title>
<path fill="none" stroke="#191970" d="M347.7415,-186.6208C365.439,-214.5119 398.2162,-259.8638 438,-285.5 443.3547,-288.9505 449.2133,-291.9148 455.2664,-294.4595"/>
<polygon fill="#191970" stroke="#191970" points="350.5714,-184.5427 342.3295,-177.8851 344.6208,-188.2293 350.5714,-184.5427"/>
</g>
<!-- Node4 -->
<g id="node5" class="node">
<title>Node4</title>
<g id="a_node5"><a xlink:href="class_ogre_1_1v1_1_1_default_hardware_uniform_buffer.html" target="_top" xlink:title="Specialisation of HardwareUniformBuffer for emulation. ">
<polygon fill="none" stroke="#000000" points="455,-245.5 455,-275.5 589,-275.5 589,-245.5 455,-245.5"/>
<text text-anchor="start" x="463" y="-263.5" font-family="Helvetica,sans-Serif" font-size="10.00" fill="#000000">Ogre::v1::DefaultHardware</text>
<text text-anchor="middle" x="522" y="-252.5" font-family="Helvetica,sans-Serif" font-size="10.00" fill="#000000">UniformBuffer</text>
</a>
</g>
</g>
<!-- Node0&#45;&gt;Node4 -->
<g id="edge4" class="edge">
<title>Node0&#45;&gt;Node4</title>
<path fill="none" stroke="#191970" d="M358.6341,-184.0062C378.9032,-200.3991 408.756,-222.4732 438,-236.5 444.9744,-239.8452 452.5037,-242.8101 460.09,-245.4134"/>
<polygon fill="#191970" stroke="#191970" points="360.7762,-181.2364 350.8287,-177.5899 356.3311,-186.6439 360.7762,-181.2364"/>
</g>
<!-- Node5 -->
<g id="node6" class="node">
<title>Node5</title>
<g id="a_node6"><a xlink:href="class_ogre_1_1v1_1_1_g_l3_plus_default_hardware_uniform_buffer.html" target="_top" xlink:title="Specialisation of HardwareUniformBuffer for emulation. ">
<polygon fill="none" stroke="#000000" points="457.5,-196.5 457.5,-226.5 586.5,-226.5 586.5,-196.5 457.5,-196.5"/>
<text text-anchor="start" x="465.5" y="-214.5" font-family="Helvetica,sans-Serif" font-size="10.00" fill="#000000">Ogre::v1::GL3PlusDefault</text>
<text text-anchor="middle" x="522" y="-203.5" font-family="Helvetica,sans-Serif" font-size="10.00" fill="#000000">HardwareUniformBuffer</text>
</a>
</g>
</g>
<!-- Node0&#45;&gt;Node5 -->
<g id="edge5" class="edge">
<title>Node0&#45;&gt;Node5</title>
<path fill="none" stroke="#191970" d="M401.2941,-180.1229C421.9169,-185.4837 444.3785,-191.3225 464.2721,-196.4938"/>
<polygon fill="#191970" stroke="#191970" points="401.8962,-176.6631 391.3372,-177.5346 400.135,-183.438 401.8962,-176.6631"/>
</g>
<!-- Node6 -->
<g id="node7" class="node">
<title>Node6</title>
<g id="a_node7"><a xlink:href="class_ogre_1_1v1_1_1_g_l3_plus_hardware_shader_storage_buffer.html" target="_top" xlink:title="Specialisation of HardwareUniformBuffer for the OpenGL Shader Storage Buffer. ">
<polygon fill="none" stroke="#000000" points="452,-147.5 452,-177.5 592,-177.5 592,-147.5 452,-147.5"/>
<text text-anchor="start" x="460" y="-165.5" font-family="Helvetica,sans-Serif" font-size="10.00" fill="#000000">Ogre::v1::GL3PlusHardware</text>
<text text-anchor="middle" x="522" y="-154.5" font-family="Helvetica,sans-Serif" font-size="10.00" fill="#000000">ShaderStorageBuffer</text>
</a>
</g>
</g>
<!-- Node0&#45;&gt;Node6 -->
<g id="edge6" class="edge">
<title>Node0&#45;&gt;Node6</title>
<path fill="none" stroke="#191970" d="M412.4711,-162.5C425.5531,-162.5 439.0385,-162.5 451.8828,-162.5"/>
<polygon fill="#191970" stroke="#191970" points="412.0861,-159.0001 402.0861,-162.5 412.086,-166.0001 412.0861,-159.0001"/>
</g>
<!-- Node7 -->
<g id="node8" class="node">
<title>Node7</title>
<g id="a_node8"><a xlink:href="class_ogre_1_1v1_1_1_g_l3_plus_hardware_uniform_buffer.html" target="_top" xlink:title="Specialisation of HardwareUniformBuffer for OpenGL. ">
<polygon fill="none" stroke="#000000" points="452,-98.5 452,-128.5 592,-128.5 592,-98.5 452,-98.5"/>
<text text-anchor="start" x="460" y="-116.5" font-family="Helvetica,sans-Serif" font-size="10.00" fill="#000000">Ogre::v1::GL3PlusHardware</text>
<text text-anchor="middle" x="522" y="-105.5" font-family="Helvetica,sans-Serif" font-size="10.00" fill="#000000">UniformBuffer</text>
</a>
</g>
</g>
<!-- Node0&#45;&gt;Node7 -->
<g id="edge7" class="edge">
<title>Node0&#45;&gt;Node7</title>
<path fill="none" stroke="#191970" d="M401.2941,-144.8771C421.9169,-139.5163 444.3785,-133.6775 464.2721,-128.5062"/>
<polygon fill="#191970" stroke="#191970" points="400.135,-141.562 391.3372,-147.4654 401.8962,-148.3369 400.135,-141.562"/>
</g>
<!-- Node8 -->
<g id="node9" class="node">
<title>Node8</title>
<g id="a_node9"><a xlink:href="class_ogre_1_1v1_1_1_g_l_e_s2_default_hardware_uniform_buffer.html" target="_top" xlink:title="Specialisation of HardwareUniformBuffer for emulation. ">
<polygon fill="none" stroke="#000000" points="439.5,-49.5 439.5,-79.5 604.5,-79.5 604.5,-49.5 439.5,-49.5"/>
<text text-anchor="start" x="447.5" y="-67.5" font-family="Helvetica,sans-Serif" font-size="10.00" fill="#000000">Ogre::v1::GLES2DefaultHardware</text>
<text text-anchor="middle" x="522" y="-56.5" font-family="Helvetica,sans-Serif" font-size="10.00" fill="#000000">UniformBuffer</text>
</a>
</g>
</g>
<!-- Node0&#45;&gt;Node8 -->
<g id="edge8" class="edge">
<title>Node0&#45;&gt;Node8</title>
<path fill="none" stroke="#191970" d="M358.6341,-140.9938C378.9032,-124.6009 408.756,-102.5268 438,-88.5 444.9744,-85.1548 452.5037,-82.1899 460.09,-79.5866"/>
<polygon fill="#191970" stroke="#191970" points="356.3311,-138.3561 350.8287,-147.4101 360.7762,-143.7636 356.3311,-138.3561"/>
</g>
<!-- Node9 -->
<g id="node10" class="node">
<title>Node9</title>
<g id="a_node10"><a xlink:href="class_ogre_1_1v1_1_1_g_l_e_s2_hardware_uniform_buffer.html" target="_top" xlink:title="Specialisation of HardwareUniformBuffer for OpenGL. ">
<polygon fill="none" stroke="#000000" points="438,-.5 438,-30.5 606,-30.5 606,-.5 438,-.5"/>
<text text-anchor="start" x="446" y="-18.5" font-family="Helvetica,sans-Serif" font-size="10.00" fill="#000000">Ogre::v1::GLES2HardwareUniform</text>
<text text-anchor="middle" x="522" y="-7.5" font-family="Helvetica,sans-Serif" font-size="10.00" fill="#000000">Buffer</text>
</a>
</g>
</g>
<!-- Node0&#45;&gt;Node9 -->
<g id="edge9" class="edge">
<title>Node0&#45;&gt;Node9</title>
<path fill="none" stroke="#191970" d="M347.7415,-138.3792C365.439,-110.4881 398.2162,-65.1362 438,-39.5 443.3547,-36.0495 449.2133,-33.0852 455.2664,-30.5405"/>
<polygon fill="#191970" stroke="#191970" points="344.6208,-136.7707 342.3295,-147.1149 350.5714,-140.4573 344.6208,-136.7707"/>
</g>
<!-- Node1 -->
<g id="node2" class="node">
<title>Node1</title>
<g id="a_node2"><a xlink:href="class_ogre_1_1v1_1_1_hardware_buffer.html" target="_top" xlink:title="Abstract class defining common features of hardware buffers. ">
<polygon fill="none" stroke="#000000" points="101,-153 101,-172 229,-172 229,-153 101,-153"/>
<text text-anchor="middle" x="165" y="-160" font-family="Helvetica,sans-Serif" font-size="10.00" fill="#000000">Ogre::v1::HardwareBuffer</text>
</a>
</g>
</g>
<!-- Node1&#45;&gt;Node0 -->
<g id="edge1" class="edge">
<title>Node1&#45;&gt;Node0</title>
<path fill="none" stroke="#191970" d="M239.3773,-162.5C247.8079,-162.5 256.3723,-162.5 264.7263,-162.5"/>
<polygon fill="#191970" stroke="#191970" points="239.1833,-159.0001 229.1833,-162.5 239.1833,-166.0001 239.1833,-159.0001"/>
</g>
<!-- Node2 -->
<g id="node3" class="node">
<title>Node2</title>
<g id="a_node3"><a xlink:href="class_ogre_1_1_allocated_object.html" target="_top" xlink:title="Superclass for all objects that wish to use custom memory allocators when their new / delete operator...">
<polygon fill="none" stroke="#000000" points="0,-153 0,-172 65,-172 65,-153 0,-153"/>
<text text-anchor="middle" x="32.5" y="-160" font-family="Helvetica,sans-Serif" font-size="10.00" fill="#000000">BufferAlloc</text>
</a>
</g>
</g>
<!-- Node2&#45;&gt;Node1 -->
<g id="edge2" class="edge">
<title>Node2&#45;&gt;Node1</title>
<path fill="none" stroke="#191970" d="M75.2584,-162.5C83.4237,-162.5 92.1359,-162.5 100.8013,-162.5"/>
<polygon fill="#191970" stroke="#191970" points="75.2529,-159.0001 65.2528,-162.5 75.2528,-166.0001 75.2529,-159.0001"/>
</g>
</g>
</svg>
