<?xml version="1.0" encoding="UTF-8" standalone="no"?>
<!DOCTYPE svg PUBLIC "-//W3C//DTD SVG 1.1//EN"
 "http://www.w3.org/Graphics/SVG/1.1/DTD/svg11.dtd">
<!-- Generated by graphviz version 2.40.1 (20161225.0304)
 -->
<!-- Title: Ogre::ParallaxCorrectedCubemap Pages: 1 -->
<svg width="330pt" height="151pt"
 viewBox="0.00 0.00 330.00 151.00" xmlns="http://www.w3.org/2000/svg" xmlns:xlink="http://www.w3.org/1999/xlink">
<g id="graph0" class="graph" transform="scale(1 1) rotate(0) translate(4 147)">
<title>Ogre::ParallaxCorrectedCubemap</title>
<!-- Node0 -->
<g id="node1" class="node">
<title>Node0</title>
<polygon fill="#bfbfbf" stroke="#000000" points="105,-.5 105,-19.5 269,-19.5 269,-.5 105,-.5"/>
<text text-anchor="middle" x="187" y="-7.5" font-family="Helvetica,sans-Serif" font-size="10.00" fill="#000000">Ogre::ParallaxCorrectedCubemap</text>
</g>
<!-- Node1 -->
<g id="node2" class="node">
<title>Node1</title>
<g id="a_node2"><a xlink:href="class_ogre_1_1_parallax_corrected_cubemap_base.html" target="_top" xlink:title="Ogre::ParallaxCorrectedCubemapBase">
<polygon fill="none" stroke="#000000" points="12,-56.5 12,-75.5 198,-75.5 198,-56.5 12,-56.5"/>
<text text-anchor="middle" x="105" y="-63.5" font-family="Helvetica,sans-Serif" font-size="10.00" fill="#000000">Ogre::ParallaxCorrectedCubemapBase</text>
</a>
</g>
</g>
<!-- Node1&#45;&gt;Node0 -->
<g id="edge1" class="edge">
<title>Node1&#45;&gt;Node0</title>
<path fill="none" stroke="#191970" d="M127.711,-50.49C142.1788,-40.6096 160.468,-28.1194 172.8804,-19.6427"/>
<polygon fill="#191970" stroke="#191970" points="125.5675,-47.7156 119.2833,-56.2455 129.5152,-53.4962 125.5675,-47.7156"/>
</g>
<!-- Node2 -->
<g id="node3" class="node">
<title>Node2</title>
<g id="a_node3"><a xlink:href="class_ogre_1_1_id_object.html" target="_top" xlink:title="Ogre::IdObject">
<polygon fill="none" stroke="#000000" points="0,-118 0,-137 80,-137 80,-118 0,-118"/>
<text text-anchor="middle" x="40" y="-125" font-family="Helvetica,sans-Serif" font-size="10.00" fill="#000000">Ogre::IdObject</text>
</a>
</g>
</g>
<!-- Node2&#45;&gt;Node1 -->
<g id="edge2" class="edge">
<title>Node2&#45;&gt;Node1</title>
<path fill="none" stroke="#191970" d="M57.7293,-110.7253C69.5905,-99.5028 84.7857,-85.1258 94.7006,-75.7449"/>
<polygon fill="#191970" stroke="#191970" points="55.0147,-108.4754 50.1563,-117.8906 59.8257,-113.5602 55.0147,-108.4754"/>
</g>
<!-- Node3 -->
<g id="node4" class="node">
<title>Node3</title>
<g id="a_node4"><a xlink:href="class_ogre_1_1_compositor_workspace_listener.html" target="_top" xlink:title="Ogre::CompositorWorkspace\lListener">
<polygon fill="none" stroke="#000000" points="98.5,-112.5 98.5,-142.5 241.5,-142.5 241.5,-112.5 98.5,-112.5"/>
<text text-anchor="start" x="106.5" y="-130.5" font-family="Helvetica,sans-Serif" font-size="10.00" fill="#000000">Ogre::CompositorWorkspace</text>
<text text-anchor="middle" x="170" y="-119.5" font-family="Helvetica,sans-Serif" font-size="10.00" fill="#000000">Listener</text>
</a>
</g>
</g>
<!-- Node3&#45;&gt;Node1 -->
<g id="edge3" class="edge">
<title>Node3&#45;&gt;Node1</title>
<path fill="none" stroke="#191970" d="M146.4901,-105.256C135.8288,-95.1688 123.7667,-83.7561 115.4073,-75.8469"/>
<polygon fill="#191970" stroke="#191970" points="144.2631,-107.9673 153.9326,-112.2977 149.0741,-102.8825 144.2631,-107.9673"/>
</g>
<!-- Node4 -->
<g id="node5" class="node">
<title>Node4</title>
<g id="a_node5"><a xlink:href="class_ogre_1_1_frame_listener.html" target="_top" xlink:title="A interface class defining a listener which can be used to receive notifications of frame events...">
<polygon fill="none" stroke="#000000" points="216,-56.5 216,-75.5 322,-75.5 322,-56.5 216,-56.5"/>
<text text-anchor="middle" x="269" y="-63.5" font-family="Helvetica,sans-Serif" font-size="10.00" fill="#000000">Ogre::FrameListener</text>
</a>
</g>
</g>
<!-- Node4&#45;&gt;Node0 -->
<g id="edge4" class="edge">
<title>Node4&#45;&gt;Node0</title>
<path fill="none" stroke="#191970" d="M246.289,-50.49C231.8212,-40.6096 213.532,-28.1194 201.1196,-19.6427"/>
<polygon fill="#191970" stroke="#191970" points="244.4848,-53.4962 254.7167,-56.2455 248.4325,-47.7156 244.4848,-53.4962"/>
</g>
</g>
</svg>
