<?xml version="1.0" encoding="UTF-8" standalone="no"?>
<!DOCTYPE svg PUBLIC "-//W3C//DTD SVG 1.1//EN"
 "http://www.w3.org/Graphics/SVG/1.1/DTD/svg11.dtd">
<!-- Generated by graphviz version 2.40.1 (20161225.0304)
 -->
<!-- Title: Ogre::UavBufferPacked Pages: 1 -->
<svg width="637pt" height="142pt"
 viewBox="0.00 0.00 637.00 142.00" xmlns="http://www.w3.org/2000/svg" xmlns:xlink="http://www.w3.org/1999/xlink">
<g id="graph0" class="graph" transform="scale(1 1) rotate(0) translate(4 138)">
<title>Ogre::UavBufferPacked</title>
<!-- Node0 -->
<g id="node1" class="node">
<title>Node0</title>
<polygon fill="#bfbfbf" stroke="#000000" points="314,-57.5 314,-76.5 435,-76.5 435,-57.5 314,-57.5"/>
<text text-anchor="middle" x="374.5" y="-64.5" font-family="Helvetica,sans-Serif" font-size="10.00" fill="#000000">Ogre::UavBufferPacked</text>
</g>
<!-- Node4 -->
<g id="node5" class="node">
<title>Node4</title>
<g id="a_node5"><a xlink:href="class_ogre_1_1_d3_d11_uav_buffer_packed.html" target="_top" xlink:title="Ogre::D3D11UavBufferPacked">
<polygon fill="none" stroke="#000000" points="474,-114.5 474,-133.5 626,-133.5 626,-114.5 474,-114.5"/>
<text text-anchor="middle" x="550" y="-121.5" font-family="Helvetica,sans-Serif" font-size="10.00" fill="#000000">Ogre::D3D11UavBufferPacked</text>
</a>
</g>
</g>
<!-- Node0&#45;&gt;Node4 -->
<g id="edge4" class="edge">
<title>Node0&#45;&gt;Node4</title>
<path fill="none" stroke="#191970" d="M405.6398,-80.5388C424.3534,-88.3527 448.7737,-97.9885 471,-105 482.0313,-108.4799 494.1011,-111.68 505.4123,-114.4223"/>
<polygon fill="#191970" stroke="#191970" points="406.9897,-77.3095 396.4158,-76.6422 404.2656,-83.7578 406.9897,-77.3095"/>
</g>
<!-- Node5 -->
<g id="node6" class="node">
<title>Node5</title>
<g id="a_node6"><a xlink:href="class_ogre_1_1_g_l3_plus_uav_buffer_packed.html" target="_top" xlink:title="Ogre::GL3PlusUavBufferPacked">
<polygon fill="none" stroke="#000000" points="471,-76.5 471,-95.5 629,-95.5 629,-76.5 471,-76.5"/>
<text text-anchor="middle" x="550" y="-83.5" font-family="Helvetica,sans-Serif" font-size="10.00" fill="#000000">Ogre::GL3PlusUavBufferPacked</text>
</a>
</g>
</g>
<!-- Node0&#45;&gt;Node5 -->
<g id="edge5" class="edge">
<title>Node0&#45;&gt;Node5</title>
<path fill="none" stroke="#191970" d="M445.4964,-74.6862C453.8868,-75.5946 462.4894,-76.5259 470.9819,-77.4453"/>
<polygon fill="#191970" stroke="#191970" points="445.7075,-71.1887 435.3888,-73.592 444.954,-78.148 445.7075,-71.1887"/>
</g>
<!-- Node6 -->
<g id="node7" class="node">
<title>Node6</title>
<g id="a_node7"><a xlink:href="class_ogre_1_1_metal_uav_buffer_packed.html" target="_top" xlink:title="Ogre::MetalUavBufferPacked">
<polygon fill="none" stroke="#000000" points="477.5,-38.5 477.5,-57.5 622.5,-57.5 622.5,-38.5 477.5,-38.5"/>
<text text-anchor="middle" x="550" y="-45.5" font-family="Helvetica,sans-Serif" font-size="10.00" fill="#000000">Ogre::MetalUavBufferPacked</text>
</a>
</g>
</g>
<!-- Node0&#45;&gt;Node6 -->
<g id="edge6" class="edge">
<title>Node0&#45;&gt;Node6</title>
<path fill="none" stroke="#191970" d="M445.3891,-59.3254C455.9495,-58.1821 466.8485,-57.0022 477.4427,-55.8552"/>
<polygon fill="#191970" stroke="#191970" points="444.954,-55.852 435.3888,-60.408 445.7075,-62.8113 444.954,-55.852"/>
</g>
<!-- Node7 -->
<g id="node8" class="node">
<title>Node7</title>
<g id="a_node8"><a xlink:href="class_ogre_1_1_n_u_l_l_uav_buffer_packed.html" target="_top" xlink:title="Ogre::NULLUavBufferPacked">
<polygon fill="none" stroke="#000000" points="477,-.5 477,-19.5 623,-19.5 623,-.5 477,-.5"/>
<text text-anchor="middle" x="550" y="-7.5" font-family="Helvetica,sans-Serif" font-size="10.00" fill="#000000">Ogre::NULLUavBufferPacked</text>
</a>
</g>
</g>
<!-- Node0&#45;&gt;Node7 -->
<g id="edge7" class="edge">
<title>Node0&#45;&gt;Node7</title>
<path fill="none" stroke="#191970" d="M405.6398,-53.4612C424.3534,-45.6473 448.7737,-36.0115 471,-29 482.0313,-25.5201 494.1011,-22.32 505.4123,-19.5777"/>
<polygon fill="#191970" stroke="#191970" points="404.2656,-50.2422 396.4158,-57.3578 406.9897,-56.6905 404.2656,-50.2422"/>
</g>
<!-- Node1 -->
<g id="node2" class="node">
<title>Node1</title>
<g id="a_node2"><a xlink:href="class_ogre_1_1_buffer_packed.html" target="_top" xlink:title="Ogre::BufferPacked">
<polygon fill="none" stroke="#000000" points="175,-57.5 175,-76.5 278,-76.5 278,-57.5 175,-57.5"/>
<text text-anchor="middle" x="226.5" y="-64.5" font-family="Helvetica,sans-Serif" font-size="10.00" fill="#000000">Ogre::BufferPacked</text>
</a>
</g>
</g>
<!-- Node1&#45;&gt;Node0 -->
<g id="edge1" class="edge">
<title>Node1&#45;&gt;Node0</title>
<path fill="none" stroke="#191970" d="M288.4064,-67C296.8344,-67 305.4775,-67 313.8824,-67"/>
<polygon fill="#191970" stroke="#191970" points="288.2633,-63.5001 278.2632,-67 288.2632,-70.5001 288.2633,-63.5001"/>
</g>
<!-- Node2 -->
<g id="node3" class="node">
<title>Node2</title>
<g id="a_node3"><a xlink:href="struct_ogre_1_1_gpu_tracked_resource.html" target="_top" xlink:title="Ogre::GpuTrackedResource">
<polygon fill="none" stroke="#000000" points="0,-76.5 0,-95.5 139,-95.5 139,-76.5 0,-76.5"/>
<text text-anchor="middle" x="69.5" y="-83.5" font-family="Helvetica,sans-Serif" font-size="10.00" fill="#000000">Ogre::GpuTrackedResource</text>
</a>
</g>
</g>
<!-- Node2&#45;&gt;Node1 -->
<g id="edge2" class="edge">
<title>Node2&#45;&gt;Node1</title>
<path fill="none" stroke="#191970" d="M149.4051,-76.33C158.0455,-75.2843 166.6631,-74.2414 174.8392,-73.2519"/>
<polygon fill="#191970" stroke="#191970" points="148.7838,-72.8795 139.2768,-77.5557 149.6249,-79.8288 148.7838,-72.8795"/>
</g>
<!-- Node3 -->
<g id="node4" class="node">
<title>Node3</title>
<g id="a_node4"><a xlink:href="class_ogre_1_1_allocated_object.html" target="_top" xlink:title="Superclass for all objects that wish to use custom memory allocators when their new / delete operator...">
<polygon fill="none" stroke="#000000" points="20.5,-38.5 20.5,-57.5 118.5,-57.5 118.5,-38.5 20.5,-38.5"/>
<text text-anchor="middle" x="69.5" y="-45.5" font-family="Helvetica,sans-Serif" font-size="10.00" fill="#000000">BufferPackedAlloc</text>
</a>
</g>
</g>
<!-- Node3&#45;&gt;Node1 -->
<g id="edge3" class="edge">
<title>Node3&#45;&gt;Node1</title>
<path fill="none" stroke="#191970" d="M129.031,-55.2044C144.1626,-57.0356 160.2945,-58.9879 174.9896,-60.7663"/>
<polygon fill="#191970" stroke="#191970" points="129.0931,-51.6864 118.745,-53.9596 128.2521,-58.6357 129.0931,-51.6864"/>
</g>
</g>
</svg>
