<?xml version="1.0" encoding="UTF-8" standalone="no"?>
<!DOCTYPE svg PUBLIC "-//W3C//DTD SVG 1.1//EN"
 "http://www.w3.org/Graphics/SVG/1.1/DTD/svg11.dtd">
<!-- Generated by graphviz version 2.40.1 (20161225.0304)
 -->
<!-- Title: Ogre::VertexArrayObject Pages: 1 -->
<svg width="478pt" height="154pt"
 viewBox="0.00 0.00 478.00 154.00" xmlns="http://www.w3.org/2000/svg" xmlns:xlink="http://www.w3.org/1999/xlink">
<g id="graph0" class="graph" transform="scale(1 1) rotate(0) translate(4 150)">
<title>Ogre::VertexArrayObject</title>
<!-- Node0 -->
<g id="node1" class="node">
<title>Node0</title>
<polygon fill="#bfbfbf" stroke="#000000" points="155,-60.5 155,-79.5 279,-79.5 279,-60.5 155,-60.5"/>
<text text-anchor="middle" x="217" y="-67.5" font-family="Helvetica,sans-Serif" font-size="10.00" fill="#000000">Ogre::VertexArrayObject</text>
</g>
<!-- Node2 -->
<g id="node3" class="node">
<title>Node2</title>
<g id="a_node3"><a xlink:href="struct_ogre_1_1_d3_d11_vertex_array_object.html" target="_top" xlink:title="Ogre::D3D11VertexArrayObject">
<polygon fill="none" stroke="#000000" points="315,-126.5 315,-145.5 470,-145.5 470,-126.5 315,-126.5"/>
<text text-anchor="middle" x="392.5" y="-133.5" font-family="Helvetica,sans-Serif" font-size="10.00" fill="#000000">Ogre::D3D11VertexArrayObject</text>
</a>
</g>
</g>
<!-- Node0&#45;&gt;Node2 -->
<g id="edge2" class="edge">
<title>Node0&#45;&gt;Node2</title>
<path fill="none" stroke="#191970" d="M243.0688,-84.3307C262.4586,-94.5338 289.8096,-107.9813 315,-117 325.1732,-120.6422 336.3418,-123.8289 346.9548,-126.4993"/>
<polygon fill="#191970" stroke="#191970" points="244.7043,-81.2363 234.2341,-79.6161 241.4087,-87.412 244.7043,-81.2363"/>
</g>
<!-- Node3 -->
<g id="node4" class="node">
<title>Node3</title>
<g id="a_node4"><a xlink:href="struct_ogre_1_1_g_l3_plus_vertex_array_object.html" target="_top" xlink:title="Ogre::GL3PlusVertexArray\lObject">
<polygon fill="none" stroke="#000000" points="326,-77 326,-107 459,-107 459,-77 326,-77"/>
<text text-anchor="start" x="334" y="-95" font-family="Helvetica,sans-Serif" font-size="10.00" fill="#000000">Ogre::GL3PlusVertexArray</text>
<text text-anchor="middle" x="392.5" y="-84" font-family="Helvetica,sans-Serif" font-size="10.00" fill="#000000">Object</text>
</a>
</g>
</g>
<!-- Node0&#45;&gt;Node3 -->
<g id="edge3" class="edge">
<title>Node0&#45;&gt;Node3</title>
<path fill="none" stroke="#191970" d="M289.3972,-79.0754C301.4727,-80.5892 313.9486,-82.1531 325.8714,-83.6477"/>
<polygon fill="#191970" stroke="#191970" points="289.7266,-75.5894 279.3689,-77.8183 288.8559,-82.5351 289.7266,-75.5894"/>
</g>
<!-- Node4 -->
<g id="node5" class="node">
<title>Node4</title>
<g id="a_node5"><a xlink:href="struct_ogre_1_1_g_l_e_s2_vertex_array_object.html" target="_top" xlink:title="Ogre::GLES2VertexArrayObject">
<polygon fill="none" stroke="#000000" points="315,-38.5 315,-57.5 470,-57.5 470,-38.5 315,-38.5"/>
<text text-anchor="middle" x="392.5" y="-45.5" font-family="Helvetica,sans-Serif" font-size="10.00" fill="#000000">Ogre::GLES2VertexArrayObject</text>
</a>
</g>
</g>
<!-- Node0&#45;&gt;Node4 -->
<g id="edge4" class="edge">
<title>Node0&#45;&gt;Node4</title>
<path fill="none" stroke="#191970" d="M289.3641,-60.9287C298.3184,-59.8062 307.4933,-58.6561 316.5,-57.5271"/>
<polygon fill="#191970" stroke="#191970" points="288.8559,-57.4649 279.3689,-62.1817 289.7266,-64.4106 288.8559,-57.4649"/>
</g>
<!-- Node5 -->
<g id="node6" class="node">
<title>Node5</title>
<g id="a_node6"><a xlink:href="struct_ogre_1_1_n_u_l_l_vertex_array_object.html" target="_top" xlink:title="Ogre::NULLVertexArrayObject">
<polygon fill="none" stroke="#000000" points="318,-.5 318,-19.5 467,-19.5 467,-.5 318,-.5"/>
<text text-anchor="middle" x="392.5" y="-7.5" font-family="Helvetica,sans-Serif" font-size="10.00" fill="#000000">Ogre::NULLVertexArrayObject</text>
</a>
</g>
</g>
<!-- Node0&#45;&gt;Node5 -->
<g id="edge5" class="edge">
<title>Node0&#45;&gt;Node5</title>
<path fill="none" stroke="#191970" d="M246.4324,-56.2698C265.6591,-47.6558 291.4741,-36.7526 315,-29 325.6574,-25.488 337.3294,-22.2963 348.3071,-19.5738"/>
<polygon fill="#191970" stroke="#191970" points="244.9563,-53.096 237.2943,-60.4135 247.8472,-59.4712 244.9563,-53.096"/>
</g>
<!-- Node1 -->
<g id="node2" class="node">
<title>Node1</title>
<g id="a_node2"><a xlink:href="class_ogre_1_1_allocated_object.html" target="_top" xlink:title="Superclass for all objects that wish to use custom memory allocators when their new / delete operator...">
<polygon fill="none" stroke="#000000" points="0,-60.5 0,-79.5 119,-79.5 119,-60.5 0,-60.5"/>
<text text-anchor="middle" x="59.5" y="-67.5" font-family="Helvetica,sans-Serif" font-size="10.00" fill="#000000">VertexArrayObjectAlloc</text>
</a>
</g>
</g>
<!-- Node1&#45;&gt;Node0 -->
<g id="edge1" class="edge">
<title>Node1&#45;&gt;Node0</title>
<path fill="none" stroke="#191970" d="M129.2901,-70C137.7691,-70 146.3886,-70 154.7483,-70"/>
<polygon fill="#191970" stroke="#191970" points="129.044,-66.5001 119.044,-70 129.044,-73.5001 129.044,-66.5001"/>
</g>
</g>
</svg>
