<?xml version="1.0" encoding="UTF-8" standalone="no"?>
<!DOCTYPE svg PUBLIC "-//W3C//DTD SVG 1.1//EN"
 "http://www.w3.org/Graphics/SVG/1.1/DTD/svg11.dtd">
<!-- Generated by graphviz version 2.40.1 (20161225.0304)
 -->
<!-- Title: Ogre::GpuTrackedResource Pages: 1 -->
<svg width="658pt" height="1295pt"
 viewBox="0.00 0.00 658.00 1295.00" xmlns="http://www.w3.org/2000/svg" xmlns:xlink="http://www.w3.org/1999/xlink">
<g id="graph0" class="graph" transform="scale(1 1) rotate(0) translate(4 1291)">
<title>Ogre::GpuTrackedResource</title>
<!-- Node0 -->
<g id="node1" class="node">
<title>Node0</title>
<polygon fill="#bfbfbf" stroke="#000000" points="0,-307.5 0,-326.5 139,-326.5 139,-307.5 0,-307.5"/>
<text text-anchor="middle" x="69.5" y="-314.5" font-family="Helvetica,sans-Serif" font-size="10.00" fill="#000000">Ogre::GpuTrackedResource</text>
</g>
<!-- Node1 -->
<g id="node2" class="node">
<title>Node1</title>
<g id="a_node2"><a xlink:href="class_ogre_1_1_buffer_packed.html" target="_top" xlink:title="Ogre::BufferPacked">
<polygon fill="none" stroke="#000000" points="175,-977.5 175,-996.5 278,-996.5 278,-977.5 175,-977.5"/>
<text text-anchor="middle" x="226.5" y="-984.5" font-family="Helvetica,sans-Serif" font-size="10.00" fill="#000000">Ogre::BufferPacked</text>
</a>
</g>
</g>
<!-- Node0&#45;&gt;Node1 -->
<g id="edge1" class="edge">
<title>Node0&#45;&gt;Node1</title>
<path fill="none" stroke="#191970" d="M74.0921,-336.5969C97.9366,-438.3535 207.1842,-904.5696 224.2541,-977.4156"/>
<polygon fill="#191970" stroke="#191970" points="77.4692,-335.6673 71.7799,-326.7296 70.6538,-337.2644 77.4692,-335.6673"/>
</g>
<!-- Node21 -->
<g id="node22" class="node">
<title>Node21</title>
<g id="a_node22"><a xlink:href="class_ogre_1_1_render_target.html" target="_top" xlink:title="A &#39;canvas&#39; which can receive the results of a rendering operation. ">
<polygon fill="none" stroke="#000000" points="175,-307.5 175,-326.5 278,-326.5 278,-307.5 175,-307.5"/>
<text text-anchor="middle" x="226.5" y="-314.5" font-family="Helvetica,sans-Serif" font-size="10.00" fill="#000000">Ogre::RenderTarget</text>
</a>
</g>
</g>
<!-- Node0&#45;&gt;Node21 -->
<g id="edge21" class="edge">
<title>Node0&#45;&gt;Node21</title>
<path fill="none" stroke="#191970" d="M149.4051,-317C158.0455,-317 166.6631,-317 174.8392,-317"/>
<polygon fill="#191970" stroke="#191970" points="149.2768,-313.5001 139.2768,-317 149.2768,-320.5001 149.2768,-313.5001"/>
</g>
<!-- Node57 -->
<g id="node45" class="node">
<title>Node57</title>
<g id="a_node45"><a xlink:href="class_ogre_1_1_texture_gpu.html" target="_top" xlink:title="Ogre::TextureGpu">
<polygon fill="none" stroke="#000000" points="179,-76.5 179,-95.5 274,-95.5 274,-76.5 179,-76.5"/>
<text text-anchor="middle" x="226.5" y="-83.5" font-family="Helvetica,sans-Serif" font-size="10.00" fill="#000000">Ogre::TextureGpu</text>
</a>
</g>
</g>
<!-- Node0&#45;&gt;Node57 -->
<g id="edge44" class="edge">
<title>Node0&#45;&gt;Node57</title>
<path fill="none" stroke="#191970" d="M81.7855,-298.9239C113.2596,-252.6149 195.9908,-130.8893 219.9258,-95.6728"/>
<polygon fill="#191970" stroke="#191970" points="78.7727,-297.1303 76.0462,-307.3683 84.5621,-301.0651 78.7727,-297.1303"/>
</g>
<!-- Node2 -->
<g id="node3" class="node">
<title>Node2</title>
<g id="a_node3"><a xlink:href="class_ogre_1_1_const_buffer_packed.html" target="_top" xlink:title="Represents constant buffers (also known as Uniform Buffers in GL) ">
<polygon fill="none" stroke="#000000" points="317,-1179.5 317,-1198.5 446,-1198.5 446,-1179.5 317,-1179.5"/>
<text text-anchor="middle" x="381.5" y="-1186.5" font-family="Helvetica,sans-Serif" font-size="10.00" fill="#000000">Ogre::ConstBufferPacked</text>
</a>
</g>
</g>
<!-- Node1&#45;&gt;Node2 -->
<g id="edge2" class="edge">
<title>Node1&#45;&gt;Node2</title>
<path fill="none" stroke="#191970" d="M240.1812,-1004.8296C271.9302,-1046.2058 349.7577,-1147.6326 374.099,-1179.3549"/>
<polygon fill="#191970" stroke="#191970" points="242.8404,-1002.5458 233.976,-996.7429 237.2869,-1006.8071 242.8404,-1002.5458"/>
</g>
<!-- Node7 -->
<g id="node8" class="node">
<title>Node7</title>
<g id="a_node8"><a xlink:href="class_ogre_1_1_index_buffer_packed.html" target="_top" xlink:title="Ogre::IndexBufferPacked">
<polygon fill="none" stroke="#000000" points="318,-1053.5 318,-1072.5 445,-1072.5 445,-1053.5 318,-1053.5"/>
<text text-anchor="middle" x="381.5" y="-1060.5" font-family="Helvetica,sans-Serif" font-size="10.00" fill="#000000">Ogre::IndexBufferPacked</text>
</a>
</g>
</g>
<!-- Node1&#45;&gt;Node7 -->
<g id="edge7" class="edge">
<title>Node1&#45;&gt;Node7</title>
<path fill="none" stroke="#191970" d="M246.6789,-1002.6944C263.7859,-1015.3562 289.3956,-1032.8383 314,-1044 322.2042,-1047.7218 331.3054,-1050.8795 340.0996,-1053.4882"/>
<polygon fill="#191970" stroke="#191970" points="248.6503,-999.7975 238.5585,-996.5716 244.436,-1005.3867 248.6503,-999.7975"/>
</g>
<!-- Node8 -->
<g id="node9" class="node">
<title>Node8</title>
<g id="a_node9"><a xlink:href="class_ogre_1_1_indirect_buffer_packed.html" target="_top" xlink:title="Represents Indirect buffers for storing draw call commands. ">
<polygon fill="none" stroke="#000000" points="314,-1015.5 314,-1034.5 449,-1034.5 449,-1015.5 314,-1015.5"/>
<text text-anchor="middle" x="381.5" y="-1022.5" font-family="Helvetica,sans-Serif" font-size="10.00" fill="#000000">Ogre::IndirectBufferPacked</text>
</a>
</g>
</g>
<!-- Node1&#45;&gt;Node8 -->
<g id="edge8" class="edge">
<title>Node1&#45;&gt;Node8</title>
<path fill="none" stroke="#191970" d="M275.6105,-999.04C297.2647,-1004.3488 322.3502,-1010.4988 342.6682,-1015.4799"/>
<polygon fill="#191970" stroke="#191970" points="276.1588,-995.5708 265.613,-996.589 274.492,-1002.3695 276.1588,-995.5708"/>
</g>
<!-- Node9 -->
<g id="node10" class="node">
<title>Node9</title>
<g id="a_node10"><a xlink:href="class_ogre_1_1_tex_buffer_packed.html" target="_top" xlink:title="Represents Texture buffers (also known as tbuffers in D3D11) ">
<polygon fill="none" stroke="#000000" points="322,-977.5 322,-996.5 441,-996.5 441,-977.5 322,-977.5"/>
<text text-anchor="middle" x="381.5" y="-984.5" font-family="Helvetica,sans-Serif" font-size="10.00" fill="#000000">Ogre::TexBufferPacked</text>
</a>
</g>
</g>
<!-- Node1&#45;&gt;Node9 -->
<g id="edge9" class="edge">
<title>Node1&#45;&gt;Node9</title>
<path fill="none" stroke="#191970" d="M288.1406,-987C299.2282,-987 310.7684,-987 321.7999,-987"/>
<polygon fill="#191970" stroke="#191970" points="288.1128,-983.5001 278.1128,-987 288.1127,-990.5001 288.1128,-983.5001"/>
</g>
<!-- Node15 -->
<g id="node16" class="node">
<title>Node15</title>
<g id="a_node16"><a xlink:href="class_ogre_1_1_uav_buffer_packed.html" target="_top" xlink:title="Represents UAV buffers (also known as SSBOs in OpenGL) Uav buffers are supported in DX10/DX10...">
<polygon fill="none" stroke="#000000" points="321,-882.5 321,-901.5 442,-901.5 442,-882.5 321,-882.5"/>
<text text-anchor="middle" x="381.5" y="-889.5" font-family="Helvetica,sans-Serif" font-size="10.00" fill="#000000">Ogre::UavBufferPacked</text>
</a>
</g>
</g>
<!-- Node1&#45;&gt;Node15 -->
<g id="edge15" class="edge">
<title>Node1&#45;&gt;Node15</title>
<path fill="none" stroke="#191970" d="M251.005,-971.9808C283.1604,-952.2726 338.675,-918.2476 365.7432,-901.6574"/>
<polygon fill="#191970" stroke="#191970" points="248.9123,-969.1583 242.2152,-977.3681 252.5702,-975.1265 248.9123,-969.1583"/>
</g>
<!-- Node20 -->
<g id="node21" class="node">
<title>Node20</title>
<g id="a_node21"><a xlink:href="class_ogre_1_1_vertex_buffer_packed.html" target="_top" xlink:title="Ogre::VertexBufferPacked">
<polygon fill="none" stroke="#000000" points="316,-844.5 316,-863.5 447,-863.5 447,-844.5 316,-844.5"/>
<text text-anchor="middle" x="381.5" y="-851.5" font-family="Helvetica,sans-Serif" font-size="10.00" fill="#000000">Ogre::VertexBufferPacked</text>
</a>
</g>
</g>
<!-- Node1&#45;&gt;Node20 -->
<g id="edge20" class="edge">
<title>Node1&#45;&gt;Node20</title>
<path fill="none" stroke="#191970" d="M235.8058,-968.3975C249.464,-943.0065 277.3432,-897.8246 314,-873 319.7457,-869.1089 326.2791,-866.0086 332.9646,-863.5399"/>
<polygon fill="#191970" stroke="#191970" points="232.6482,-966.8832 231.1312,-977.3689 238.8561,-970.1179 232.6482,-966.8832"/>
</g>
<!-- Node3 -->
<g id="node4" class="node">
<title>Node3</title>
<g id="a_node4"><a xlink:href="class_ogre_1_1_d3_d11_const_buffer_packed.html" target="_top" xlink:title="Ogre::D3D11ConstBufferPacked">
<polygon fill="none" stroke="#000000" points="487.5,-1267.5 487.5,-1286.5 647.5,-1286.5 647.5,-1267.5 487.5,-1267.5"/>
<text text-anchor="middle" x="567.5" y="-1274.5" font-family="Helvetica,sans-Serif" font-size="10.00" fill="#000000">Ogre::D3D11ConstBufferPacked</text>
</a>
</g>
</g>
<!-- Node2&#45;&gt;Node3 -->
<g id="edge3" class="edge">
<title>Node2&#45;&gt;Node3</title>
<path fill="none" stroke="#191970" d="M400.7578,-1204.9763C420.6599,-1220.7013 453.216,-1244.2922 485,-1258 493.9075,-1261.8416 503.7056,-1264.9653 513.343,-1267.4859"/>
<polygon fill="#191970" stroke="#191970" points="402.7821,-1202.1127 392.7972,-1198.5696 398.3932,-1207.566 402.7821,-1202.1127"/>
</g>
<!-- Node4 -->
<g id="node5" class="node">
<title>Node4</title>
<g id="a_node5"><a xlink:href="class_ogre_1_1_g_l3_plus_const_buffer_packed.html" target="_top" xlink:title="Ogre::GL3PlusConstBuffer\lPacked">
<polygon fill="none" stroke="#000000" points="500.5,-1218 500.5,-1248 634.5,-1248 634.5,-1218 500.5,-1218"/>
<text text-anchor="start" x="508.5" y="-1236" font-family="Helvetica,sans-Serif" font-size="10.00" fill="#000000">Ogre::GL3PlusConstBuffer</text>
<text text-anchor="middle" x="567.5" y="-1225" font-family="Helvetica,sans-Serif" font-size="10.00" fill="#000000">Packed</text>
</a>
</g>
</g>
<!-- Node2&#45;&gt;Node4 -->
<g id="edge4" class="edge">
<title>Node2&#45;&gt;Node4</title>
<path fill="none" stroke="#191970" d="M431.7371,-1200.884C453.9261,-1206.1331 480.2669,-1212.3642 503.8146,-1217.9346"/>
<polygon fill="#191970" stroke="#191970" points="432.3964,-1197.4435 421.8592,-1198.5473 430.7849,-1204.2555 432.3964,-1197.4435"/>
</g>
<!-- Node5 -->
<g id="node6" class="node">
<title>Node5</title>
<g id="a_node6"><a xlink:href="class_ogre_1_1_metal_const_buffer_packed.html" target="_top" xlink:title="Ogre::MetalConstBufferPacked">
<polygon fill="none" stroke="#000000" points="491,-1179.5 491,-1198.5 644,-1198.5 644,-1179.5 491,-1179.5"/>
<text text-anchor="middle" x="567.5" y="-1186.5" font-family="Helvetica,sans-Serif" font-size="10.00" fill="#000000">Ogre::MetalConstBufferPacked</text>
</a>
</g>
</g>
<!-- Node2&#45;&gt;Node5 -->
<g id="edge5" class="edge">
<title>Node2&#45;&gt;Node5</title>
<path fill="none" stroke="#191970" d="M456.36,-1189C467.7443,-1189 479.5058,-1189 490.9261,-1189"/>
<polygon fill="#191970" stroke="#191970" points="456.0318,-1185.5001 446.0318,-1189 456.0317,-1192.5001 456.0318,-1185.5001"/>
</g>
<!-- Node6 -->
<g id="node7" class="node">
<title>Node6</title>
<g id="a_node7"><a xlink:href="class_ogre_1_1_n_u_l_l_const_buffer_packed.html" target="_top" xlink:title="Ogre::NULLConstBufferPacked">
<polygon fill="none" stroke="#000000" points="490,-1141.5 490,-1160.5 645,-1160.5 645,-1141.5 490,-1141.5"/>
<text text-anchor="middle" x="567.5" y="-1148.5" font-family="Helvetica,sans-Serif" font-size="10.00" fill="#000000">Ogre::NULLConstBufferPacked</text>
</a>
</g>
</g>
<!-- Node2&#45;&gt;Node6 -->
<g id="edge6" class="edge">
<title>Node2&#45;&gt;Node6</title>
<path fill="none" stroke="#191970" d="M438.3255,-1177.3905C464.779,-1171.986 495.8583,-1165.6365 520.9019,-1160.5201"/>
<polygon fill="#191970" stroke="#191970" points="437.5327,-1173.9801 428.4357,-1179.411 438.9339,-1180.8384 437.5327,-1173.9801"/>
</g>
<!-- Node10 -->
<g id="node11" class="node">
<title>Node10</title>
<g id="a_node11"><a xlink:href="class_ogre_1_1_d3_d11_tex_buffer_packed.html" target="_top" xlink:title="Ogre::D3D11TexBufferPacked">
<polygon fill="none" stroke="#000000" points="492.5,-1103.5 492.5,-1122.5 642.5,-1122.5 642.5,-1103.5 492.5,-1103.5"/>
<text text-anchor="middle" x="567.5" y="-1110.5" font-family="Helvetica,sans-Serif" font-size="10.00" fill="#000000">Ogre::D3D11TexBufferPacked</text>
</a>
</g>
</g>
<!-- Node9&#45;&gt;Node10 -->
<g id="edge10" class="edge">
<title>Node9&#45;&gt;Node10</title>
<path fill="none" stroke="#191970" d="M443.349,-1001.6398C445.3352,-1002.9698 447.2285,-1004.4197 449,-1006 480.5333,-1034.1306 452.8004,-1066.6346 485,-1094 489.4798,-1097.8073 494.5739,-1100.8886 499.9808,-1103.378"/>
<polygon fill="#191970" stroke="#191970" points="444.5793,-998.3205 434.1347,-996.5424 441.1908,-1004.4458 444.5793,-998.3205"/>
</g>
<!-- Node11 -->
<g id="node12" class="node">
<title>Node11</title>
<g id="a_node12"><a xlink:href="class_ogre_1_1_g_l3_plus_tex_buffer_emulated_packed.html" target="_top" xlink:title="Ogre::GL3PlusTexBufferEmulated\lPacked">
<polygon fill="none" stroke="#000000" points="485,-1054 485,-1084 650,-1084 650,-1054 485,-1054"/>
<text text-anchor="start" x="493" y="-1072" font-family="Helvetica,sans-Serif" font-size="10.00" fill="#000000">Ogre::GL3PlusTexBufferEmulated</text>
<text text-anchor="middle" x="567.5" y="-1061" font-family="Helvetica,sans-Serif" font-size="10.00" fill="#000000">Packed</text>
</a>
</g>
</g>
<!-- Node9&#45;&gt;Node11 -->
<g id="edge11" class="edge">
<title>Node9&#45;&gt;Node11</title>
<path fill="none" stroke="#191970" d="M437.6433,-1000.2085C441.5948,-1001.918 445.4245,-1003.8402 449,-1006 468.9133,-1018.0289 465.207,-1031.7741 485,-1044 491.2391,-1047.8538 498.1123,-1051.1483 505.1483,-1053.9563"/>
<polygon fill="#191970" stroke="#191970" points="438.8541,-996.9243 428.2644,-996.5942 436.3369,-1003.456 438.8541,-996.9243"/>
</g>
<!-- Node12 -->
<g id="node13" class="node">
<title>Node12</title>
<g id="a_node13"><a xlink:href="class_ogre_1_1_g_l3_plus_tex_buffer_packed.html" target="_top" xlink:title="Ogre::GL3PlusTexBufferPacked">
<polygon fill="none" stroke="#000000" points="489,-1015.5 489,-1034.5 646,-1034.5 646,-1015.5 489,-1015.5"/>
<text text-anchor="middle" x="567.5" y="-1022.5" font-family="Helvetica,sans-Serif" font-size="10.00" fill="#000000">Ogre::GL3PlusTexBufferPacked</text>
</a>
</g>
</g>
<!-- Node9&#45;&gt;Node12 -->
<g id="edge12" class="edge">
<title>Node9&#45;&gt;Node12</title>
<path fill="none" stroke="#191970" d="M438.3255,-998.6095C464.779,-1004.014 495.8583,-1010.3635 520.9019,-1015.4799"/>
<polygon fill="#191970" stroke="#191970" points="438.9339,-995.1616 428.4357,-996.589 437.5327,-1002.0199 438.9339,-995.1616"/>
</g>
<!-- Node13 -->
<g id="node14" class="node">
<title>Node13</title>
<g id="a_node14"><a xlink:href="class_ogre_1_1_metal_tex_buffer_packed.html" target="_top" xlink:title="Ogre::MetalTexBufferPacked">
<polygon fill="none" stroke="#000000" points="496,-977.5 496,-996.5 639,-996.5 639,-977.5 496,-977.5"/>
<text text-anchor="middle" x="567.5" y="-984.5" font-family="Helvetica,sans-Serif" font-size="10.00" fill="#000000">Ogre::MetalTexBufferPacked</text>
</a>
</g>
</g>
<!-- Node9&#45;&gt;Node13 -->
<g id="edge13" class="edge">
<title>Node9&#45;&gt;Node13</title>
<path fill="none" stroke="#191970" d="M451.5142,-987C466.0134,-987 481.3078,-987 495.864,-987"/>
<polygon fill="#191970" stroke="#191970" points="451.1191,-983.5001 441.119,-987 451.119,-990.5001 451.1191,-983.5001"/>
</g>
<!-- Node14 -->
<g id="node15" class="node">
<title>Node14</title>
<g id="a_node15"><a xlink:href="class_ogre_1_1_n_u_l_l_tex_buffer_packed.html" target="_top" xlink:title="Ogre::NULLTexBufferPacked">
<polygon fill="none" stroke="#000000" points="495,-939.5 495,-958.5 640,-958.5 640,-939.5 495,-939.5"/>
<text text-anchor="middle" x="567.5" y="-946.5" font-family="Helvetica,sans-Serif" font-size="10.00" fill="#000000">Ogre::NULLTexBufferPacked</text>
</a>
</g>
</g>
<!-- Node9&#45;&gt;Node14 -->
<g id="edge14" class="edge">
<title>Node9&#45;&gt;Node14</title>
<path fill="none" stroke="#191970" d="M438.3255,-975.3905C464.779,-969.986 495.8583,-963.6365 520.9019,-958.5201"/>
<polygon fill="#191970" stroke="#191970" points="437.5327,-971.9801 428.4357,-977.411 438.9339,-978.8384 437.5327,-971.9801"/>
</g>
<!-- Node16 -->
<g id="node17" class="node">
<title>Node16</title>
<g id="a_node17"><a xlink:href="class_ogre_1_1_d3_d11_uav_buffer_packed.html" target="_top" xlink:title="Ogre::D3D11UavBufferPacked">
<polygon fill="none" stroke="#000000" points="491.5,-901.5 491.5,-920.5 643.5,-920.5 643.5,-901.5 491.5,-901.5"/>
<text text-anchor="middle" x="567.5" y="-908.5" font-family="Helvetica,sans-Serif" font-size="10.00" fill="#000000">Ogre::D3D11UavBufferPacked</text>
</a>
</g>
</g>
<!-- Node15&#45;&gt;Node16 -->
<g id="edge16" class="edge">
<title>Node15&#45;&gt;Node16</title>
<path fill="none" stroke="#191970" d="M452.2422,-899.2263C465.0151,-900.5311 478.3832,-901.8967 491.3037,-903.2165"/>
<polygon fill="#191970" stroke="#191970" points="452.4499,-895.7294 442.146,-898.195 451.7385,-902.6932 452.4499,-895.7294"/>
</g>
<!-- Node17 -->
<g id="node18" class="node">
<title>Node17</title>
<g id="a_node18"><a xlink:href="class_ogre_1_1_g_l3_plus_uav_buffer_packed.html" target="_top" xlink:title="Ogre::GL3PlusUavBufferPacked">
<polygon fill="none" stroke="#000000" points="488.5,-863.5 488.5,-882.5 646.5,-882.5 646.5,-863.5 488.5,-863.5"/>
<text text-anchor="middle" x="567.5" y="-870.5" font-family="Helvetica,sans-Serif" font-size="10.00" fill="#000000">Ogre::GL3PlusUavBufferPacked</text>
</a>
</g>
</g>
<!-- Node15&#45;&gt;Node17 -->
<g id="edge17" class="edge">
<title>Node15&#45;&gt;Node17</title>
<path fill="none" stroke="#191970" d="M452.3319,-884.7645C464.0931,-883.5631 476.3567,-882.3103 488.309,-881.0894"/>
<polygon fill="#191970" stroke="#191970" points="451.7385,-881.3068 442.146,-885.805 452.4499,-888.2706 451.7385,-881.3068"/>
</g>
<!-- Node18 -->
<g id="node19" class="node">
<title>Node18</title>
<g id="a_node19"><a xlink:href="class_ogre_1_1_metal_uav_buffer_packed.html" target="_top" xlink:title="Ogre::MetalUavBufferPacked">
<polygon fill="none" stroke="#000000" points="495,-825.5 495,-844.5 640,-844.5 640,-825.5 495,-825.5"/>
<text text-anchor="middle" x="567.5" y="-832.5" font-family="Helvetica,sans-Serif" font-size="10.00" fill="#000000">Ogre::MetalUavBufferPacked</text>
</a>
</g>
</g>
<!-- Node15&#45;&gt;Node18 -->
<g id="edge18" class="edge">
<title>Node15&#45;&gt;Node18</title>
<path fill="none" stroke="#191970" d="M430.6332,-879.4888C436.8831,-877.5132 443.1387,-875.3411 449,-873 465.8011,-866.2894 468.0426,-860.3053 485,-854 495.0567,-850.2606 506.0864,-847.1089 516.7163,-844.5137"/>
<polygon fill="#191970" stroke="#191970" points="429.4404,-876.1926 420.8743,-882.4275 431.4588,-882.8953 429.4404,-876.1926"/>
</g>
<!-- Node19 -->
<g id="node20" class="node">
<title>Node19</title>
<g id="a_node20"><a xlink:href="class_ogre_1_1_n_u_l_l_uav_buffer_packed.html" target="_top" xlink:title="Ogre::NULLUavBufferPacked">
<polygon fill="none" stroke="#000000" points="494.5,-787.5 494.5,-806.5 640.5,-806.5 640.5,-787.5 494.5,-787.5"/>
<text text-anchor="middle" x="567.5" y="-794.5" font-family="Helvetica,sans-Serif" font-size="10.00" fill="#000000">Ogre::NULLUavBufferPacked</text>
</a>
</g>
</g>
<!-- Node15&#45;&gt;Node19 -->
<g id="edge19" class="edge">
<title>Node15&#45;&gt;Node19</title>
<path fill="none" stroke="#191970" d="M441.0162,-878.0732C443.8135,-876.5538 446.4949,-874.8688 449,-873 473.0165,-855.0839 460.5603,-833.3343 485,-816 490.3948,-812.1736 496.4422,-809.1054 502.746,-806.647"/>
<polygon fill="#191970" stroke="#191970" points="439.3492,-874.9885 431.7624,-882.3838 442.3051,-881.3338 439.3492,-874.9885"/>
</g>
<!-- Node22 -->
<g id="node23" class="node">
<title>Node22</title>
<g id="a_node23"><a xlink:href="class_ogre_1_1_multi_render_target.html" target="_top" xlink:title="This class represents a render target that renders to multiple RenderTextures at once. ">
<polygon fill="none" stroke="#000000" points="319.5,-642.5 319.5,-661.5 443.5,-661.5 443.5,-642.5 319.5,-642.5"/>
<text text-anchor="middle" x="381.5" y="-649.5" font-family="Helvetica,sans-Serif" font-size="10.00" fill="#000000">Ogre::MultiRenderTarget</text>
</a>
</g>
</g>
<!-- Node21&#45;&gt;Node22 -->
<g id="edge22" class="edge">
<title>Node21&#45;&gt;Node22</title>
<path fill="none" stroke="#191970" d="M235.3465,-336.1199C264.3112,-398.7209 355.6679,-596.1692 377.0102,-642.2962"/>
<polygon fill="#191970" stroke="#191970" points="238.3474,-334.2705 230.9717,-326.6646 231.9944,-337.21 238.3474,-334.2705"/>
</g>
<!-- Node28 -->
<g id="node29" class="node">
<title>Node28</title>
<g id="a_node29"><a xlink:href="class_ogre_1_1_render_texture.html" target="_top" xlink:title="This class represents a RenderTarget that renders to a Texture. ">
<polygon fill="none" stroke="#000000" points="327.5,-307.5 327.5,-326.5 435.5,-326.5 435.5,-307.5 327.5,-307.5"/>
<text text-anchor="middle" x="381.5" y="-314.5" font-family="Helvetica,sans-Serif" font-size="10.00" fill="#000000">Ogre::RenderTexture</text>
</a>
</g>
</g>
<!-- Node21&#45;&gt;Node28 -->
<g id="edge28" class="edge">
<title>Node21&#45;&gt;Node28</title>
<path fill="none" stroke="#191970" d="M288.3327,-317C301.2751,-317 314.8259,-317 327.4585,-317"/>
<polygon fill="#191970" stroke="#191970" points="288.1128,-313.5001 278.1128,-317 288.1127,-320.5001 288.1128,-313.5001"/>
</g>
<!-- Node43 -->
<g id="node42" class="node">
<title>Node43</title>
<g id="a_node42"><a xlink:href="class_ogre_1_1_render_window.html" target="_top" xlink:title="Manages the target rendering window. ">
<polygon fill="none" stroke="#ff0000" points="326.5,-152.5 326.5,-171.5 436.5,-171.5 436.5,-152.5 326.5,-152.5"/>
<text text-anchor="middle" x="381.5" y="-159.5" font-family="Helvetica,sans-Serif" font-size="10.00" fill="#000000">Ogre::RenderWindow</text>
</a>
</g>
</g>
<!-- Node21&#45;&gt;Node43 -->
<g id="edge41" class="edge">
<title>Node21&#45;&gt;Node43</title>
<path fill="none" stroke="#191970" d="M243.6244,-299.8756C276.2051,-267.2949 346.1507,-197.3493 371.8077,-171.6923"/>
<polygon fill="#191970" stroke="#191970" points="240.7922,-297.7581 236.1959,-307.3041 245.7419,-302.7078 240.7922,-297.7581"/>
</g>
<!-- Node23 -->
<g id="node24" class="node">
<title>Node23</title>
<g id="a_node24"><a xlink:href="class_ogre_1_1_d3_d11_multi_render_target.html" target="_top" xlink:title="Ogre::D3D11MultiRenderTarget">
<polygon fill="none" stroke="#000000" points="490,-749.5 490,-768.5 645,-768.5 645,-749.5 490,-749.5"/>
<text text-anchor="middle" x="567.5" y="-756.5" font-family="Helvetica,sans-Serif" font-size="10.00" fill="#000000">Ogre::D3D11MultiRenderTarget</text>
</a>
</g>
</g>
<!-- Node22&#45;&gt;Node23 -->
<g id="edge23" class="edge">
<title>Node22&#45;&gt;Node23</title>
<path fill="none" stroke="#191970" d="M396.6857,-669.1593C415.4337,-689.2453 449.2487,-722.0417 485,-740 492.7491,-743.8924 501.3083,-746.9999 509.8928,-749.4775"/>
<polygon fill="#191970" stroke="#191970" points="399.1575,-666.6758 389.829,-661.653 393.9892,-671.3969 399.1575,-666.6758"/>
</g>
<!-- Node24 -->
<g id="node25" class="node">
<title>Node24</title>
<g id="a_node25"><a xlink:href="class_ogre_1_1_d3_d9_multi_render_target.html" target="_top" xlink:title="Ogre::D3D9MultiRenderTarget">
<polygon fill="none" stroke="#000000" points="493,-711.5 493,-730.5 642,-730.5 642,-711.5 493,-711.5"/>
<text text-anchor="middle" x="567.5" y="-718.5" font-family="Helvetica,sans-Serif" font-size="10.00" fill="#000000">Ogre::D3D9MultiRenderTarget</text>
</a>
</g>
</g>
<!-- Node22&#45;&gt;Node24 -->
<g id="edge24" class="edge">
<title>Node22&#45;&gt;Node24</title>
<path fill="none" stroke="#191970" d="M407.2267,-666.431C427.7592,-677.4515 457.5349,-692.3404 485,-702 495.399,-705.6574 506.7858,-708.8025 517.6892,-711.4217"/>
<polygon fill="#191970" stroke="#191970" points="408.669,-663.2311 398.2129,-661.5222 405.3211,-669.3786 408.669,-663.2311"/>
</g>
<!-- Node25 -->
<g id="node26" class="node">
<title>Node25</title>
<g id="a_node26"><a xlink:href="class_ogre_1_1_g_l3_plus_f_b_o_multi_render_target.html" target="_top" xlink:title="MultiRenderTarget for OpenGL. ">
<polygon fill="none" stroke="#000000" points="490.5,-662 490.5,-692 644.5,-692 644.5,-662 490.5,-662"/>
<text text-anchor="start" x="498.5" y="-680" font-family="Helvetica,sans-Serif" font-size="10.00" fill="#000000">Ogre::GL3PlusFBOMultiRender</text>
<text text-anchor="middle" x="567.5" y="-669" font-family="Helvetica,sans-Serif" font-size="10.00" fill="#000000">Target</text>
</a>
</g>
</g>
<!-- Node22&#45;&gt;Node25 -->
<g id="edge25" class="edge">
<title>Node22&#45;&gt;Node25</title>
<path fill="none" stroke="#191970" d="M453.6892,-661.7028C465.7488,-663.3238 478.3005,-665.0108 490.4757,-666.6473"/>
<polygon fill="#191970" stroke="#191970" points="454.071,-658.2228 443.6939,-660.3594 453.1385,-665.1604 454.071,-658.2228"/>
</g>
<!-- Node26 -->
<g id="node27" class="node">
<title>Node26</title>
<g id="a_node27"><a xlink:href="class_ogre_1_1_g_l_e_s2_f_b_o_multi_render_target.html" target="_top" xlink:title="MultiRenderTarget for GL ES 2.x. ">
<polygon fill="none" stroke="#000000" points="493.5,-613 493.5,-643 641.5,-643 641.5,-613 493.5,-613"/>
<text text-anchor="start" x="501.5" y="-631" font-family="Helvetica,sans-Serif" font-size="10.00" fill="#000000">Ogre::GLES2FBOMultiRender</text>
<text text-anchor="middle" x="567.5" y="-620" font-family="Helvetica,sans-Serif" font-size="10.00" fill="#000000">Target</text>
</a>
</g>
</g>
<!-- Node22&#45;&gt;Node26 -->
<g id="edge26" class="edge">
<title>Node22&#45;&gt;Node26</title>
<path fill="none" stroke="#191970" d="M453.9466,-642.6521C466.9063,-640.9798 480.4265,-639.2353 493.431,-637.5573"/>
<polygon fill="#191970" stroke="#191970" points="453.1638,-639.224 443.6939,-643.975 454.0596,-646.1664 453.1638,-639.224"/>
</g>
<!-- Node27 -->
<g id="node28" class="node">
<title>Node27</title>
<g id="a_node28"><a xlink:href="class_ogre_1_1_metal_multi_render_target.html" target="_top" xlink:title="Ogre::MetalMultiRenderTarget">
<polygon fill="none" stroke="#000000" points="493.5,-574.5 493.5,-593.5 641.5,-593.5 641.5,-574.5 493.5,-574.5"/>
<text text-anchor="middle" x="567.5" y="-581.5" font-family="Helvetica,sans-Serif" font-size="10.00" fill="#000000">Ogre::MetalMultiRenderTarget</text>
</a>
</g>
</g>
<!-- Node22&#45;&gt;Node27 -->
<g id="edge27" class="edge">
<title>Node22&#45;&gt;Node27</title>
<path fill="none" stroke="#191970" d="M408.4339,-637.7255C428.9746,-627.2819 458.2031,-613.3598 485,-604 496.5482,-599.9664 509.2803,-596.4459 521.2147,-593.5299"/>
<polygon fill="#191970" stroke="#191970" points="406.6593,-634.7025 399.3726,-642.3937 409.8651,-640.9252 406.6593,-634.7025"/>
</g>
<!-- Node29 -->
<g id="node30" class="node">
<title>Node29</title>
<g id="a_node30"><a xlink:href="class_ogre_1_1_d3_d11_depth_texture_target.html" target="_top" xlink:title="Ogre::D3D11DepthTextureTarget">
<polygon fill="none" stroke="#000000" points="487,-536.5 487,-555.5 648,-555.5 648,-536.5 487,-536.5"/>
<text text-anchor="middle" x="567.5" y="-543.5" font-family="Helvetica,sans-Serif" font-size="10.00" fill="#000000">Ogre::D3D11DepthTextureTarget</text>
</a>
</g>
</g>
<!-- Node28&#45;&gt;Node29 -->
<g id="edge29" class="edge">
<title>Node28&#45;&gt;Node29</title>
<path fill="none" stroke="#191970" d="M385.2749,-336.5831C394.4157,-378.4629 421.8102,-476.977 485,-527 489.8401,-530.8316 495.3126,-533.9173 501.0798,-536.3988"/>
<polygon fill="#191970" stroke="#191970" points="388.7019,-335.8714 383.2492,-326.7875 381.8469,-337.2891 388.7019,-335.8714"/>
</g>
<!-- Node30 -->
<g id="node31" class="node">
<title>Node30</title>
<g id="a_node31"><a xlink:href="class_ogre_1_1_d3_d11_null_texture_target.html" target="_top" xlink:title="Ogre::D3D11NullTextureTarget">
<polygon fill="none" stroke="#000000" points="491.5,-498.5 491.5,-517.5 643.5,-517.5 643.5,-498.5 491.5,-498.5"/>
<text text-anchor="middle" x="567.5" y="-505.5" font-family="Helvetica,sans-Serif" font-size="10.00" fill="#000000">Ogre::D3D11NullTextureTarget</text>
</a>
</g>
</g>
<!-- Node28&#45;&gt;Node30 -->
<g id="edge30" class="edge">
<title>Node28&#45;&gt;Node30</title>
<path fill="none" stroke="#191970" d="M387.4936,-336.4361C399.6621,-372.5004 430.8076,-449.676 485,-489 490.3532,-492.8845 496.3735,-495.9904 502.6611,-498.4714"/>
<polygon fill="#191970" stroke="#191970" points="390.7349,-335.0846 384.3219,-326.651 384.076,-337.243 390.7349,-335.0846"/>
</g>
<!-- Node31 -->
<g id="node32" class="node">
<title>Node31</title>
<g id="a_node32"><a xlink:href="class_ogre_1_1_d3_d11_render_texture.html" target="_top" xlink:title="RenderTexture implementation for D3D11. ">
<polygon fill="none" stroke="#000000" points="498,-460.5 498,-479.5 637,-479.5 637,-460.5 498,-460.5"/>
<text text-anchor="middle" x="567.5" y="-467.5" font-family="Helvetica,sans-Serif" font-size="10.00" fill="#000000">Ogre::D3D11RenderTexture</text>
</a>
</g>
</g>
<!-- Node28&#45;&gt;Node31 -->
<g id="edge31" class="edge">
<title>Node28&#45;&gt;Node31</title>
<path fill="none" stroke="#191970" d="M390.5801,-335.782C405.8137,-365.1964 439.3885,-421.7813 485,-451 491.0643,-454.8848 497.8297,-457.9786 504.8055,-460.4418"/>
<polygon fill="#191970" stroke="#191970" points="393.584,-333.9646 385.9671,-326.6003 387.3291,-337.1072 393.584,-333.9646"/>
</g>
<!-- Node32 -->
<g id="node33" class="node">
<title>Node32</title>
<g id="a_node33"><a xlink:href="class_ogre_1_1_d3_d9_render_texture.html" target="_top" xlink:title="RenderTexture implementation for D3D9. ">
<polygon fill="none" stroke="#000000" points="500.5,-422.5 500.5,-441.5 634.5,-441.5 634.5,-422.5 500.5,-422.5"/>
<text text-anchor="middle" x="567.5" y="-429.5" font-family="Helvetica,sans-Serif" font-size="10.00" fill="#000000">Ogre::D3D9RenderTexture</text>
</a>
</g>
</g>
<!-- Node28&#45;&gt;Node32 -->
<g id="edge32" class="edge">
<title>Node28&#45;&gt;Node32</title>
<path fill="none" stroke="#191970" d="M395.2587,-334.4603C413.4255,-356.277 447.5251,-393.1512 485,-413 492.2735,-416.8525 500.3127,-419.9287 508.4344,-422.3839"/>
<polygon fill="#191970" stroke="#191970" points="397.9231,-332.1892 388.8958,-326.6432 392.4942,-336.6083 397.9231,-332.1892"/>
</g>
<!-- Node33 -->
<g id="node34" class="node">
<title>Node33</title>
<g id="a_node34"><a xlink:href="class_ogre_1_1_g_l3_plus_depth_texture_target.html" target="_top" xlink:title="Ogre::GL3PlusDepthTexture\lTarget">
<polygon fill="none" stroke="#000000" points="497.5,-373 497.5,-403 637.5,-403 637.5,-373 497.5,-373"/>
<text text-anchor="start" x="505.5" y="-391" font-family="Helvetica,sans-Serif" font-size="10.00" fill="#000000">Ogre::GL3PlusDepthTexture</text>
<text text-anchor="middle" x="567.5" y="-380" font-family="Helvetica,sans-Serif" font-size="10.00" fill="#000000">Target</text>
</a>
</g>
</g>
<!-- Node28&#45;&gt;Node33 -->
<g id="edge33" class="edge">
<title>Node28&#45;&gt;Node33</title>
<path fill="none" stroke="#191970" d="M409.7211,-331.1425C430.2747,-341.1136 458.9588,-354.3559 485,-364 493.5328,-367.16 502.6834,-370.1768 511.6729,-372.9391"/>
<polygon fill="#191970" stroke="#191970" points="411.1304,-327.9355 400.6104,-326.6786 408.0504,-334.2215 411.1304,-327.9355"/>
</g>
<!-- Node34 -->
<g id="node35" class="node">
<title>Node34</title>
<g id="a_node35"><a xlink:href="class_ogre_1_1_g_l3_plus_null_texture_target.html" target="_top" xlink:title="Ogre::GL3PlusNullTexture\lTarget">
<polygon fill="none" stroke="#000000" points="502,-324 502,-354 633,-354 633,-324 502,-324"/>
<text text-anchor="start" x="510" y="-342" font-family="Helvetica,sans-Serif" font-size="10.00" fill="#000000">Ogre::GL3PlusNullTexture</text>
<text text-anchor="middle" x="567.5" y="-331" font-family="Helvetica,sans-Serif" font-size="10.00" fill="#000000">Target</text>
</a>
</g>
</g>
<!-- Node28&#45;&gt;Node34 -->
<g id="edge34" class="edge">
<title>Node28&#45;&gt;Node34</title>
<path fill="none" stroke="#191970" d="M445.715,-324.5953C463.8318,-326.7382 483.5653,-329.0722 501.7695,-331.2254"/>
<polygon fill="#191970" stroke="#191970" points="445.8907,-321.0918 435.5488,-323.3929 445.0684,-328.0433 445.8907,-321.0918"/>
</g>
<!-- Node35 -->
<g id="node36" class="node">
<title>Node35</title>
<g id="a_node36"><a xlink:href="class_ogre_1_1_g_l3_plus_render_texture.html" target="_top" xlink:title="Base class for GL Render Textures. ">
<polygon fill="none" stroke="#ff0000" points="494.5,-285.5 494.5,-304.5 640.5,-304.5 640.5,-285.5 494.5,-285.5"/>
<text text-anchor="middle" x="567.5" y="-292.5" font-family="Helvetica,sans-Serif" font-size="10.00" fill="#000000">Ogre::GL3PlusRenderTexture</text>
</a>
</g>
</g>
<!-- Node28&#45;&gt;Node35 -->
<g id="edge35" class="edge">
<title>Node28&#45;&gt;Node35</title>
<path fill="none" stroke="#191970" d="M445.6535,-309.412C461.3286,-307.5579 478.2173,-305.5603 494.2804,-303.6604"/>
<polygon fill="#191970" stroke="#191970" points="445.0684,-305.9567 435.5488,-310.6071 445.8907,-312.9082 445.0684,-305.9567"/>
</g>
<!-- Node37 -->
<g id="node37" class="node">
<title>Node37</title>
<g id="a_node37"><a xlink:href="class_ogre_1_1_g_l_e_s2_render_texture.html" target="_top" xlink:title="Base class for GL Render Textures. ">
<polygon fill="none" stroke="#ff0000" points="497.5,-247.5 497.5,-266.5 637.5,-266.5 637.5,-247.5 497.5,-247.5"/>
<text text-anchor="middle" x="567.5" y="-254.5" font-family="Helvetica,sans-Serif" font-size="10.00" fill="#000000">Ogre::GLES2RenderTexture</text>
</a>
</g>
</g>
<!-- Node28&#45;&gt;Node37 -->
<g id="edge36" class="edge">
<title>Node28&#45;&gt;Node37</title>
<path fill="none" stroke="#191970" d="M412.3476,-303.3622C432.6989,-294.7196 460.1016,-283.7501 485,-276 496.3673,-272.4617 508.8006,-269.2603 520.4872,-266.5369"/>
<polygon fill="#191970" stroke="#191970" points="410.7712,-300.23 402.9653,-307.3937 413.5348,-306.6614 410.7712,-300.23"/>
</g>
<!-- Node39 -->
<g id="node38" class="node">
<title>Node39</title>
<g id="a_node38"><a xlink:href="class_ogre_1_1_metal_depth_texture_target.html" target="_top" xlink:title="Ogre::MetalDepthTextureTarget">
<polygon fill="none" stroke="#000000" points="490,-209.5 490,-228.5 645,-228.5 645,-209.5 490,-209.5"/>
<text text-anchor="middle" x="567.5" y="-216.5" font-family="Helvetica,sans-Serif" font-size="10.00" fill="#000000">Ogre::MetalDepthTextureTarget</text>
</a>
</g>
</g>
<!-- Node28&#45;&gt;Node39 -->
<g id="edge37" class="edge">
<title>Node28&#45;&gt;Node39</title>
<path fill="none" stroke="#191970" d="M398.5075,-300.2844C417.8523,-282.2208 451.1642,-253.8942 485,-238 493.248,-234.1255 502.3399,-231.0133 511.3831,-228.5214"/>
<polygon fill="#191970" stroke="#191970" points="395.9368,-297.8993 391.1112,-307.3314 400.7655,-302.9673 395.9368,-297.8993"/>
</g>
<!-- Node40 -->
<g id="node39" class="node">
<title>Node40</title>
<g id="a_node39"><a xlink:href="class_ogre_1_1_metal_null_texture_target.html" target="_top" xlink:title="Ogre::MetalNullTextureTarget">
<polygon fill="none" stroke="#000000" points="494.5,-171.5 494.5,-190.5 640.5,-190.5 640.5,-171.5 494.5,-171.5"/>
<text text-anchor="middle" x="567.5" y="-178.5" font-family="Helvetica,sans-Serif" font-size="10.00" fill="#000000">Ogre::MetalNullTextureTarget</text>
</a>
</g>
</g>
<!-- Node28&#45;&gt;Node40 -->
<g id="edge38" class="edge">
<title>Node28&#45;&gt;Node40</title>
<path fill="none" stroke="#191970" d="M392.3817,-298.7431C408.9541,-272.6068 443.0637,-224.936 485,-200 491.5693,-196.0938 498.8737,-192.9906 506.3436,-190.5253"/>
<polygon fill="#191970" stroke="#191970" points="389.364,-296.9685 387.0875,-307.3159 395.3198,-300.6466 389.364,-296.9685"/>
</g>
<!-- Node41 -->
<g id="node40" class="node">
<title>Node41</title>
<g id="a_node40"><a xlink:href="class_ogre_1_1_metal_render_texture.html" target="_top" xlink:title="Ogre::MetalRenderTexture">
<polygon fill="none" stroke="#000000" points="501.5,-133.5 501.5,-152.5 633.5,-152.5 633.5,-133.5 501.5,-133.5"/>
<text text-anchor="middle" x="567.5" y="-140.5" font-family="Helvetica,sans-Serif" font-size="10.00" fill="#000000">Ogre::MetalRenderTexture</text>
</a>
</g>
</g>
<!-- Node28&#45;&gt;Node41 -->
<g id="edge39" class="edge">
<title>Node28&#45;&gt;Node41</title>
<path fill="none" stroke="#191970" d="M388.8037,-297.6292C402.3834,-264.3753 434.7808,-196.6675 485,-162 490.564,-158.159 496.7922,-155.0849 503.2662,-152.6262"/>
<polygon fill="#191970" stroke="#191970" points="385.4698,-296.543 385.0572,-307.1298 391.9818,-299.111 385.4698,-296.543"/>
</g>
<!-- Node42 -->
<g id="node41" class="node">
<title>Node42</title>
<g id="a_node41"><a xlink:href="class_ogre_1_1_n_u_l_l_render_texture.html" target="_top" xlink:title="Ogre::NULLRenderTexture">
<polygon fill="none" stroke="#000000" points="500.5,-95.5 500.5,-114.5 634.5,-114.5 634.5,-95.5 500.5,-95.5"/>
<text text-anchor="middle" x="567.5" y="-102.5" font-family="Helvetica,sans-Serif" font-size="10.00" fill="#000000">Ogre::NULLRenderTexture</text>
</a>
</g>
</g>
<!-- Node28&#45;&gt;Node42 -->
<g id="edge40" class="edge">
<title>Node28&#45;&gt;Node42</title>
<path fill="none" stroke="#191970" d="M390.4953,-298.1644C412.7222,-251.9422 469.5521,-135.8035 485,-124 490.0219,-120.1628 495.6844,-117.0787 501.6305,-114.6028"/>
<polygon fill="#191970" stroke="#191970" points="387.2458,-296.8463 386.0788,-307.3767 393.5579,-299.8724 387.2458,-296.8463"/>
</g>
<!-- Node44 -->
<g id="node43" class="node">
<title>Node44</title>
<g id="a_node43"><a xlink:href="class_ogre_1_1_cocoa_window.html" target="_top" xlink:title="Ogre::CocoaWindow">
<polygon fill="none" stroke="#000000" points="514,-57.5 514,-76.5 621,-76.5 621,-57.5 514,-57.5"/>
<text text-anchor="middle" x="567.5" y="-64.5" font-family="Helvetica,sans-Serif" font-size="10.00" fill="#000000">Ogre::CocoaWindow</text>
</a>
</g>
</g>
<!-- Node43&#45;&gt;Node44 -->
<g id="edge42" class="edge">
<title>Node43&#45;&gt;Node44</title>
<path fill="none" stroke="#191970" d="M441.0162,-148.0732C443.8135,-146.5538 446.4949,-144.8688 449,-143 473.0165,-125.0839 460.5603,-103.3343 485,-86 493.5119,-79.9628 503.6482,-75.8129 513.8531,-72.9678"/>
<polygon fill="#191970" stroke="#191970" points="439.3492,-144.9885 431.7624,-152.3838 442.3051,-151.3338 439.3492,-144.9885"/>
</g>
<!-- Node45 -->
<g id="node44" class="node">
<title>Node45</title>
<g id="a_node44"><a xlink:href="class_ogre_1_1_d3_d11_render_window_base.html" target="_top" xlink:title="Ogre::D3D11RenderWindowBase">
<polygon fill="none" stroke="#ff0000" points="485.5,-19.5 485.5,-38.5 649.5,-38.5 649.5,-19.5 485.5,-19.5"/>
<text text-anchor="middle" x="567.5" y="-26.5" font-family="Helvetica,sans-Serif" font-size="10.00" fill="#000000">Ogre::D3D11RenderWindowBase</text>
</a>
</g>
</g>
<!-- Node43&#45;&gt;Node45 -->
<g id="edge43" class="edge">
<title>Node43&#45;&gt;Node45</title>
<path fill="none" stroke="#191970" d="M443.5253,-147.3347C445.4517,-146.0113 447.2857,-144.5699 449,-143 482.2985,-112.5053 450.9789,-77.6864 485,-48 489.319,-44.2312 494.2368,-41.1698 499.4707,-38.6877"/>
<polygon fill="#191970" stroke="#191970" points="441.5435,-144.4349 434.5723,-152.4132 444.9973,-150.5236 441.5435,-144.4349"/>
</g>
<!-- Node58 -->
<g id="node46" class="node">
<title>Node58</title>
<g id="a_node46"><a xlink:href="class_ogre_1_1_d3_d11_texture_gpu.html" target="_top" xlink:title="Ogre::D3D11TextureGpu">
<polygon fill="none" stroke="#ff0000" points="319,-114.5 319,-133.5 444,-133.5 444,-114.5 319,-114.5"/>
<text text-anchor="middle" x="381.5" y="-121.5" font-family="Helvetica,sans-Serif" font-size="10.00" fill="#000000">Ogre::D3D11TextureGpu</text>
</a>
</g>
</g>
<!-- Node57&#45;&gt;Node58 -->
<g id="edge45" class="edge">
<title>Node57&#45;&gt;Node58</title>
<path fill="none" stroke="#191970" d="M275.6105,-98.04C297.2647,-103.3488 322.3502,-109.4988 342.6682,-114.4799"/>
<polygon fill="#191970" stroke="#191970" points="276.1588,-94.5708 265.613,-95.589 274.492,-101.3695 276.1588,-94.5708"/>
</g>
<!-- Node61 -->
<g id="node47" class="node">
<title>Node61</title>
<g id="a_node47"><a xlink:href="class_ogre_1_1_g_l3_plus_texture_gpu.html" target="_top" xlink:title="Ogre::GL3PlusTextureGpu">
<polygon fill="none" stroke="#ff0000" points="315.5,-76.5 315.5,-95.5 447.5,-95.5 447.5,-76.5 315.5,-76.5"/>
<text text-anchor="middle" x="381.5" y="-83.5" font-family="Helvetica,sans-Serif" font-size="10.00" fill="#000000">Ogre::GL3PlusTextureGpu</text>
</a>
</g>
</g>
<!-- Node57&#45;&gt;Node61 -->
<g id="edge46" class="edge">
<title>Node57&#45;&gt;Node61</title>
<path fill="none" stroke="#191970" d="M284.5452,-86C294.5972,-86 305.116,-86 315.3639,-86"/>
<polygon fill="#191970" stroke="#191970" points="284.2699,-82.5001 274.2699,-86 284.2698,-89.5001 284.2699,-82.5001"/>
</g>
<!-- Node64 -->
<g id="node48" class="node">
<title>Node64</title>
<g id="a_node48"><a xlink:href="class_ogre_1_1_metal_texture_gpu.html" target="_top" xlink:title="Ogre::MetalTextureGpu">
<polygon fill="none" stroke="#ff0000" points="322,-38.5 322,-57.5 441,-57.5 441,-38.5 322,-38.5"/>
<text text-anchor="middle" x="381.5" y="-45.5" font-family="Helvetica,sans-Serif" font-size="10.00" fill="#000000">Ogre::MetalTextureGpu</text>
</a>
</g>
</g>
<!-- Node57&#45;&gt;Node64 -->
<g id="edge47" class="edge">
<title>Node57&#45;&gt;Node64</title>
<path fill="none" stroke="#191970" d="M275.6105,-73.96C297.2647,-68.6512 322.3502,-62.5012 342.6682,-57.5201"/>
<polygon fill="#191970" stroke="#191970" points="274.492,-70.6305 265.613,-76.411 276.1588,-77.4292 274.492,-70.6305"/>
</g>
<!-- Node67 -->
<g id="node49" class="node">
<title>Node67</title>
<g id="a_node49"><a xlink:href="class_ogre_1_1_n_u_l_l_texture_gpu.html" target="_top" xlink:title="Ogre::NULLTextureGpu">
<polygon fill="none" stroke="#ff0000" points="321.5,-.5 321.5,-19.5 441.5,-19.5 441.5,-.5 321.5,-.5"/>
<text text-anchor="middle" x="381.5" y="-7.5" font-family="Helvetica,sans-Serif" font-size="10.00" fill="#000000">Ogre::NULLTextureGpu</text>
</a>
</g>
</g>
<!-- Node57&#45;&gt;Node67 -->
<g id="edge48" class="edge">
<title>Node57&#45;&gt;Node67</title>
<path fill="none" stroke="#191970" d="M246.6789,-70.3056C263.7859,-57.6438 289.3956,-40.1617 314,-29 322.2042,-25.2782 331.3054,-22.1205 340.0996,-19.5118"/>
<polygon fill="#191970" stroke="#191970" points="244.436,-67.6133 238.5585,-76.4284 248.6503,-73.2025 244.436,-67.6133"/>
</g>
</g>
</svg>
