<?xml version="1.0" encoding="UTF-8" standalone="no"?>
<!DOCTYPE svg PUBLIC "-//W3C//DTD SVG 1.1//EN"
 "http://www.w3.org/Graphics/SVG/1.1/DTD/svg11.dtd">
<!-- Generated by graphviz version 2.44.0 ()
 -->
<!-- Title: Ogre::PortalBase Pages: 1 -->
<svg width="309pt" height="196pt"
 viewBox="0.00 0.00 309.00 196.00" xmlns="http://www.w3.org/2000/svg" xmlns:xlink="http://www.w3.org/1999/xlink">
<g id="graph0" class="graph" transform="scale(1 1) rotate(0) translate(4 192)">
<title>Ogre::PortalBase</title>
<!-- Node1 -->
<g id="node1" class="node">
<title>Node1</title>
<g id="a_node1"><a xlink:title="PortalBase &#45; Base class to Portal and AntiPortal classes.">
<polygon fill="#bfbfbf" stroke="black" points="121.5,-56.5 121.5,-75.5 211.5,-75.5 211.5,-56.5 121.5,-56.5"/>
<text text-anchor="middle" x="166.5" y="-63.5" font-family="Helvetica,sans-Serif" font-size="10.00">Ogre::PortalBase</text>
</a>
</g>
</g>
<!-- Node6 -->
<g id="node6" class="node">
<title>Node6</title>
<g id="a_node6"><a xlink:href="class_ogre_1_1_anti_portal.html" target="_top" xlink:title="AntiPortal datastructure for occlusion culling.">
<polygon fill="none" stroke="black" points="77,-0.5 77,-19.5 162,-19.5 162,-0.5 77,-0.5"/>
<text text-anchor="middle" x="119.5" y="-7.5" font-family="Helvetica,sans-Serif" font-size="10.00">Ogre::AntiPortal</text>
</a>
</g>
</g>
<!-- Node1&#45;&gt;Node6 -->
<g id="edge5" class="edge">
<title>Node1&#45;&gt;Node6</title>
<path fill="none" stroke="midnightblue" d="M152.08,-48.43C143.84,-38.97 133.85,-27.48 127.12,-19.75"/>
<polygon fill="midnightblue" stroke="midnightblue" points="149.53,-50.84 158.74,-56.08 154.81,-46.24 149.53,-50.84"/>
</g>
<!-- Node7 -->
<g id="node7" class="node">
<title>Node7</title>
<g id="a_node7"><a xlink:href="class_ogre_1_1_portal.html" target="_top" xlink:title="Portal datastructure for connecting zones.">
<polygon fill="none" stroke="black" points="180.5,-0.5 180.5,-19.5 248.5,-19.5 248.5,-0.5 180.5,-0.5"/>
<text text-anchor="middle" x="214.5" y="-7.5" font-family="Helvetica,sans-Serif" font-size="10.00">Ogre::Portal</text>
</a>
</g>
</g>
<!-- Node1&#45;&gt;Node7 -->
<g id="edge6" class="edge">
<title>Node1&#45;&gt;Node7</title>
<path fill="none" stroke="midnightblue" d="M181.23,-48.43C189.64,-38.97 199.85,-27.48 206.72,-19.75"/>
<polygon fill="midnightblue" stroke="midnightblue" points="178.45,-46.28 174.43,-56.08 183.69,-50.93 178.45,-46.28"/>
</g>
<!-- Node2 -->
<g id="node2" class="node">
<title>Node2</title>
<g id="a_node2"><a xlink:href="class_ogre_1_1_movable_object.html" target="_top" xlink:title="Abstract class defining a movable object in a scene.">
<polygon fill="none" stroke="black" points="113,-112.5 113,-131.5 220,-131.5 220,-112.5 113,-112.5"/>
<text text-anchor="middle" x="166.5" y="-119.5" font-family="Helvetica,sans-Serif" font-size="10.00">Ogre::MovableObject</text>
</a>
</g>
</g>
<!-- Node2&#45;&gt;Node1 -->
<g id="edge1" class="edge">
<title>Node2&#45;&gt;Node1</title>
<path fill="none" stroke="midnightblue" d="M166.5,-101.8C166.5,-92.91 166.5,-82.78 166.5,-75.75"/>
<polygon fill="midnightblue" stroke="midnightblue" points="163,-102.08 166.5,-112.08 170,-102.08 163,-102.08"/>
</g>
<!-- Node3 -->
<g id="node3" class="node">
<title>Node3</title>
<g id="a_node3"><a xlink:href="class_ogre_1_1_animable_object.html" target="_top" xlink:title="Defines an interface to classes which have one or more AnimableValue instances to expose.">
<polygon fill="none" stroke="black" points="0,-168.5 0,-187.5 111,-187.5 111,-168.5 0,-168.5"/>
<text text-anchor="middle" x="55.5" y="-175.5" font-family="Helvetica,sans-Serif" font-size="10.00">Ogre::AnimableObject</text>
</a>
</g>
</g>
<!-- Node3&#45;&gt;Node2 -->
<g id="edge2" class="edge">
<title>Node3&#45;&gt;Node2</title>
<path fill="none" stroke="midnightblue" d="M82.51,-163.86C103.09,-153.85 130.84,-140.35 148.71,-131.65"/>
<polygon fill="midnightblue" stroke="midnightblue" points="80.8,-160.8 73.33,-168.32 83.86,-167.1 80.8,-160.8"/>
</g>
<!-- Node4 -->
<g id="node4" class="node">
<title>Node4</title>
<g id="a_node4"><a xlink:href="class_ogre_1_1_allocated_object.html" target="_top" xlink:title="Superclass for all objects that wish to use custom memory allocators when their new / delete operator...">
<polygon fill="none" stroke="black" points="129,-168.5 129,-187.5 204,-187.5 204,-168.5 129,-168.5"/>
<text text-anchor="middle" x="166.5" y="-175.5" font-family="Helvetica,sans-Serif" font-size="10.00">MovableAlloc</text>
</a>
</g>
</g>
<!-- Node4&#45;&gt;Node2 -->
<g id="edge3" class="edge">
<title>Node4&#45;&gt;Node2</title>
<path fill="none" stroke="midnightblue" d="M166.5,-157.8C166.5,-148.91 166.5,-138.78 166.5,-131.75"/>
<polygon fill="midnightblue" stroke="midnightblue" points="163,-158.08 166.5,-168.08 170,-158.08 163,-158.08"/>
</g>
<!-- Node5 -->
<g id="node5" class="node">
<title>Node5</title>
<g id="a_node5"><a xlink:href="class_ogre_1_1_id_object.html" target="_top" xlink:title=" ">
<polygon fill="none" stroke="black" points="222,-168.5 222,-187.5 301,-187.5 301,-168.5 222,-168.5"/>
<text text-anchor="middle" x="261.5" y="-175.5" font-family="Helvetica,sans-Serif" font-size="10.00">Ogre::IdObject</text>
</a>
</g>
</g>
<!-- Node5&#45;&gt;Node2 -->
<g id="edge4" class="edge">
<title>Node5&#45;&gt;Node2</title>
<path fill="none" stroke="midnightblue" d="M237.18,-163.18C219.7,-153.24 196.67,-140.15 181.73,-131.65"/>
<polygon fill="midnightblue" stroke="midnightblue" points="235.81,-166.43 246.24,-168.32 239.27,-160.34 235.81,-166.43"/>
</g>
</g>
</svg>
