<?xml version="1.0" encoding="UTF-8" standalone="no"?>
<!DOCTYPE svg PUBLIC "-//W3C//DTD SVG 1.1//EN"
 "http://www.w3.org/Graphics/SVG/1.1/DTD/svg11.dtd">
<!-- Generated by graphviz version 2.44.0 ()
 -->
<!-- Title: Ogre::OctreeAxisAlignedBoxSceneQuery Pages: 1 -->
<svg width="252pt" height="285pt"
 viewBox="0.00 0.00 252.00 285.00" xmlns="http://www.w3.org/2000/svg" xmlns:xlink="http://www.w3.org/1999/xlink">
<g id="graph0" class="graph" transform="scale(1 1) rotate(0) translate(4 281)">
<title>Ogre::OctreeAxisAlignedBoxSceneQuery</title>
<!-- Node1 -->
<g id="node1" class="node">
<title>Node1</title>
<g id="a_node1"><a xlink:title="Octree implementation of AxisAlignedBoxSceneQuery.">
<polygon fill="#bfbfbf" stroke="black" points="43,-0.5 43,-30.5 182,-30.5 182,-0.5 43,-0.5"/>
<text text-anchor="start" x="51" y="-18.5" font-family="Helvetica,sans-Serif" font-size="10.00">Ogre::OctreeAxisAlignedBox</text>
<text text-anchor="middle" x="112.5" y="-7.5" font-family="Helvetica,sans-Serif" font-size="10.00">SceneQuery</text>
</a>
</g>
</g>
<!-- Node2 -->
<g id="node2" class="node">
<title>Node2</title>
<g id="a_node2"><a xlink:href="class_ogre_1_1_default_axis_aligned_box_scene_query.html" target="_top" xlink:title="Default implementation of AxisAlignedBoxSceneQuery.">
<polygon fill="none" stroke="black" points="50.5,-67.5 50.5,-97.5 174.5,-97.5 174.5,-67.5 50.5,-67.5"/>
<text text-anchor="start" x="58.5" y="-85.5" font-family="Helvetica,sans-Serif" font-size="10.00">Ogre::DefaultAxisAligned</text>
<text text-anchor="middle" x="112.5" y="-74.5" font-family="Helvetica,sans-Serif" font-size="10.00">BoxSceneQuery</text>
</a>
</g>
</g>
<!-- Node2&#45;&gt;Node1 -->
<g id="edge1" class="edge">
<title>Node2&#45;&gt;Node1</title>
<path fill="none" stroke="midnightblue" d="M112.5,-57.11C112.5,-48.15 112.5,-38.32 112.5,-30.58"/>
<polygon fill="midnightblue" stroke="midnightblue" points="109,-57.4 112.5,-67.4 116,-57.4 109,-57.4"/>
</g>
<!-- Node3 -->
<g id="node3" class="node">
<title>Node3</title>
<g id="a_node3"><a xlink:href="class_ogre_1_1_axis_aligned_box_scene_query.html" target="_top" xlink:title="Specialises the SceneQuery class for querying within an axis aligned box.">
<polygon fill="none" stroke="black" points="44,-134.5 44,-164.5 181,-164.5 181,-134.5 44,-134.5"/>
<text text-anchor="start" x="52" y="-152.5" font-family="Helvetica,sans-Serif" font-size="10.00">Ogre::AxisAlignedBoxScene</text>
<text text-anchor="middle" x="112.5" y="-141.5" font-family="Helvetica,sans-Serif" font-size="10.00">Query</text>
</a>
</g>
</g>
<!-- Node3&#45;&gt;Node2 -->
<g id="edge2" class="edge">
<title>Node3&#45;&gt;Node2</title>
<path fill="none" stroke="midnightblue" d="M112.5,-124.11C112.5,-115.15 112.5,-105.32 112.5,-97.58"/>
<polygon fill="midnightblue" stroke="midnightblue" points="109,-124.4 112.5,-134.4 116,-124.4 109,-124.4"/>
</g>
<!-- Node4 -->
<g id="node4" class="node">
<title>Node4</title>
<g id="a_node4"><a xlink:href="class_ogre_1_1_region_scene_query.html" target="_top" xlink:title="Abstract class defining a query which returns single results from a region.">
<polygon fill="none" stroke="black" points="50,-201.5 50,-220.5 175,-220.5 175,-201.5 50,-201.5"/>
<text text-anchor="middle" x="112.5" y="-208.5" font-family="Helvetica,sans-Serif" font-size="10.00">Ogre::RegionSceneQuery</text>
</a>
</g>
</g>
<!-- Node4&#45;&gt;Node3 -->
<g id="edge3" class="edge">
<title>Node4&#45;&gt;Node3</title>
<path fill="none" stroke="midnightblue" d="M112.5,-191.23C112.5,-182.59 112.5,-172.5 112.5,-164.52"/>
<polygon fill="midnightblue" stroke="midnightblue" points="109,-191.48 112.5,-201.48 116,-191.48 109,-191.48"/>
</g>
<!-- Node5 -->
<g id="node5" class="node">
<title>Node5</title>
<g id="a_node5"><a xlink:href="class_ogre_1_1_scene_query.html" target="_top" xlink:title="A class for performing queries on a scene.">
<polygon fill="none" stroke="red" points="0,-257.5 0,-276.5 95,-276.5 95,-257.5 0,-257.5"/>
<text text-anchor="middle" x="47.5" y="-264.5" font-family="Helvetica,sans-Serif" font-size="10.00">Ogre::SceneQuery</text>
</a>
</g>
</g>
<!-- Node5&#45;&gt;Node4 -->
<g id="edge4" class="edge">
<title>Node5&#45;&gt;Node4</title>
<path fill="none" stroke="midnightblue" d="M65.77,-250.82C77.42,-241.15 92.1,-228.95 101.87,-220.83"/>
<polygon fill="midnightblue" stroke="midnightblue" points="63.4,-248.24 57.94,-257.32 67.87,-253.63 63.4,-248.24"/>
</g>
<!-- Node7 -->
<g id="node6" class="node">
<title>Node7</title>
<g id="a_node6"><a xlink:href="class_ogre_1_1_scene_query_listener.html" target="_top" xlink:title="This optional class allows you to receive per&#45;result callbacks from SceneQuery executions instead of ...">
<polygon fill="none" stroke="black" points="113,-257.5 113,-276.5 244,-276.5 244,-257.5 113,-257.5"/>
<text text-anchor="middle" x="178.5" y="-264.5" font-family="Helvetica,sans-Serif" font-size="10.00">Ogre::SceneQueryListener</text>
</a>
</g>
</g>
<!-- Node7&#45;&gt;Node4 -->
<g id="edge5" class="edge">
<title>Node7&#45;&gt;Node4</title>
<path fill="none" stroke="midnightblue" d="M159.95,-250.82C148.12,-241.15 133.21,-228.95 123.3,-220.83"/>
<polygon fill="midnightblue" stroke="midnightblue" points="157.94,-253.7 167.9,-257.32 162.37,-248.28 157.94,-253.7"/>
</g>
</g>
</svg>
