<?xml version="1.0" encoding="UTF-8" standalone="no"?>
<!DOCTYPE svg PUBLIC "-//W3C//DTD SVG 1.1//EN"
 "http://www.w3.org/Graphics/SVG/1.1/DTD/svg11.dtd">
<!-- Generated by graphviz version 2.40.1 (20161225.0304)
 -->
<!-- Title: Ogre::VulkanSupport Pages: 1 -->
<svg width="445pt" height="84pt"
 viewBox="0.00 0.00 444.50 84.00" xmlns="http://www.w3.org/2000/svg" xmlns:xlink="http://www.w3.org/1999/xlink">
<g id="graph0" class="graph" transform="scale(1 1) rotate(0) translate(4 80)">
<title>Ogre::VulkanSupport</title>
<!-- Node0 -->
<g id="node1" class="node">
<title>Node0</title>
<polygon fill="#bfbfbf" stroke="#000000" points="172.5,-56.5 172.5,-75.5 279.5,-75.5 279.5,-56.5 172.5,-56.5"/>
<text text-anchor="middle" x="226" y="-63.5" font-family="Helvetica,sans-Serif" font-size="10.00" fill="#000000">Ogre::VulkanSupport</text>
</g>
<!-- Node1 -->
<g id="node2" class="node">
<title>Node1</title>
<g id="a_node2"><a xlink:href="class_ogre_1_1_vulkan_android_support.html" target="_top" xlink:title="Ogre::VulkanAndroidSupport">
<polygon fill="none" stroke="#000000" points="0,-.5 0,-19.5 140,-19.5 140,-.5 0,-.5"/>
<text text-anchor="middle" x="70" y="-7.5" font-family="Helvetica,sans-Serif" font-size="10.00" fill="#000000">Ogre::VulkanAndroidSupport</text>
</a>
</g>
</g>
<!-- Node0&#45;&gt;Node1 -->
<g id="edge1" class="edge">
<title>Node0&#45;&gt;Node1</title>
<path fill="none" stroke="#191970" d="M189.5716,-52.9231C161.0539,-42.686 122.0619,-28.6889 96.4674,-19.5011"/>
<polygon fill="#191970" stroke="#191970" points="188.5881,-56.2887 199.1826,-56.3733 190.9532,-49.7004 188.5881,-56.2887"/>
</g>
<!-- Node2 -->
<g id="node3" class="node">
<title>Node2</title>
<g id="a_node3"><a xlink:href="class_ogre_1_1_vulkan_win32_support.html" target="_top" xlink:title="Ogre::VulkanWin32Support">
<polygon fill="none" stroke="#000000" points="158.5,-.5 158.5,-19.5 293.5,-19.5 293.5,-.5 158.5,-.5"/>
<text text-anchor="middle" x="226" y="-7.5" font-family="Helvetica,sans-Serif" font-size="10.00" fill="#000000">Ogre::VulkanWin32Support</text>
</a>
</g>
</g>
<!-- Node0&#45;&gt;Node2 -->
<g id="edge2" class="edge">
<title>Node0&#45;&gt;Node2</title>
<path fill="none" stroke="#191970" d="M226,-46.1575C226,-37.155 226,-26.9199 226,-19.6427"/>
<polygon fill="#191970" stroke="#191970" points="222.5001,-46.2455 226,-56.2455 229.5001,-46.2456 222.5001,-46.2455"/>
</g>
<!-- Node3 -->
<g id="node4" class="node">
<title>Node3</title>
<g id="a_node4"><a xlink:href="class_ogre_1_1_vulkan_xcb_support.html" target="_top" xlink:title="Ogre::VulkanXcbSupport">
<polygon fill="none" stroke="#000000" points="311.5,-.5 311.5,-19.5 436.5,-19.5 436.5,-.5 311.5,-.5"/>
<text text-anchor="middle" x="374" y="-7.5" font-family="Helvetica,sans-Serif" font-size="10.00" fill="#000000">Ogre::VulkanXcbSupport</text>
</a>
</g>
</g>
<!-- Node0&#45;&gt;Node3 -->
<g id="edge3" class="edge">
<title>Node0&#45;&gt;Node3</title>
<path fill="none" stroke="#191970" d="M260.9153,-52.7888C287.9383,-42.5639 324.714,-28.6488 348.8899,-19.5011"/>
<polygon fill="#191970" stroke="#191970" points="259.5563,-49.5608 251.4421,-56.3733 262.0336,-56.1078 259.5563,-49.5608"/>
</g>
</g>
</svg>
