<?xml version="1.0" encoding="UTF-8" standalone="no"?>
<!DOCTYPE svg PUBLIC "-//W3C//DTD SVG 1.1//EN"
 "http://www.w3.org/Graphics/SVG/1.1/DTD/svg11.dtd">
<!-- Generated by graphviz version 2.44.0 ()
 -->
<!-- Title: Ogre::CompositorPassDef Pages: 1 -->
<svg width="491pt" height="382pt"
 viewBox="0.00 0.00 491.00 382.00" xmlns="http://www.w3.org/2000/svg" xmlns:xlink="http://www.w3.org/1999/xlink">
<g id="graph0" class="graph" transform="scale(1 1) rotate(0) translate(4 378)">
<title>Ogre::CompositorPassDef</title>
<!-- Node1 -->
<g id="node1" class="node">
<title>Node1</title>
<g id="a_node1"><a xlink:title="Interface to abstract all types of pass definitions (.">
<polygon fill="#bfbfbf" stroke="black" points="140,-171.5 140,-190.5 269,-190.5 269,-171.5 140,-171.5"/>
<text text-anchor="middle" x="204.5" y="-178.5" font-family="Helvetica,sans-Serif" font-size="10.00">Ogre::CompositorPassDef</text>
</a>
</g>
</g>
<!-- Node3 -->
<g id="node3" class="node">
<title>Node3</title>
<g id="a_node3"><a xlink:href="class_ogre_1_1_compositor_pass_clear_def.html" target="_top" xlink:title=" ">
<polygon fill="none" stroke="black" points="318,-354.5 318,-373.5 470,-373.5 470,-354.5 318,-354.5"/>
<text text-anchor="middle" x="394" y="-361.5" font-family="Helvetica,sans-Serif" font-size="10.00">Ogre::CompositorPassClearDef</text>
</a>
</g>
</g>
<!-- Node1&#45;&gt;Node3 -->
<g id="edge2" class="edge">
<title>Node1&#45;&gt;Node3</title>
<path fill="none" stroke="midnightblue" d="M211.58,-200.54C223.5,-235.43 253.36,-308.21 305,-345 310.35,-348.81 316.31,-351.88 322.54,-354.35"/>
<polygon fill="midnightblue" stroke="midnightblue" points="214.78,-199.06 208.34,-190.64 208.12,-201.23 214.78,-199.06"/>
</g>
<!-- Node4 -->
<g id="node4" class="node">
<title>Node4</title>
<g id="a_node4"><a xlink:href="class_ogre_1_1_compositor_pass_compute_def.html" target="_top" xlink:title=" ">
<polygon fill="none" stroke="black" points="310,-316.5 310,-335.5 478,-335.5 478,-316.5 310,-316.5"/>
<text text-anchor="middle" x="394" y="-323.5" font-family="Helvetica,sans-Serif" font-size="10.00">Ogre::CompositorPassComputeDef</text>
</a>
</g>
</g>
<!-- Node1&#45;&gt;Node4 -->
<g id="edge3" class="edge">
<title>Node1&#45;&gt;Node4</title>
<path fill="none" stroke="midnightblue" d="M214.92,-199.91C229.93,-227.98 262.03,-280.21 305,-307 311.23,-310.89 318.14,-313.99 325.27,-316.46"/>
<polygon fill="midnightblue" stroke="midnightblue" points="217.89,-198.03 210.18,-190.76 211.67,-201.25 217.89,-198.03"/>
</g>
<!-- Node5 -->
<g id="node5" class="node">
<title>Node5</title>
<g id="a_node5"><a xlink:href="class_ogre_1_1_compositor_pass_depth_copy_def.html" target="_top" xlink:title=" ">
<polygon fill="none" stroke="black" points="324,-267 324,-297 464,-297 464,-267 324,-267"/>
<text text-anchor="start" x="332" y="-285" font-family="Helvetica,sans-Serif" font-size="10.00">Ogre::CompositorPassDepth</text>
<text text-anchor="middle" x="394" y="-274" font-family="Helvetica,sans-Serif" font-size="10.00">CopyDef</text>
</a>
</g>
</g>
<!-- Node1&#45;&gt;Node5 -->
<g id="edge4" class="edge">
<title>Node1&#45;&gt;Node5</title>
<path fill="none" stroke="midnightblue" d="M222.85,-197.55C241.69,-214.69 273.34,-241.14 305,-257 312.53,-260.77 320.71,-264.05 328.95,-266.88"/>
<polygon fill="midnightblue" stroke="midnightblue" points="225.08,-194.85 215.37,-190.62 220.32,-199.98 225.08,-194.85"/>
</g>
<!-- Node6 -->
<g id="node6" class="node">
<title>Node6</title>
<g id="a_node6"><a xlink:href="class_ogre_1_1_compositor_pass_ibl_specular_def.html" target="_top" xlink:title=" ">
<polygon fill="none" stroke="black" points="305,-228.5 305,-247.5 483,-247.5 483,-228.5 305,-228.5"/>
<text text-anchor="middle" x="394" y="-235.5" font-family="Helvetica,sans-Serif" font-size="10.00">Ogre::CompositorPassIblSpecularDef</text>
</a>
</g>
</g>
<!-- Node1&#45;&gt;Node6 -->
<g id="edge5" class="edge">
<title>Node1&#45;&gt;Node6</title>
<path fill="none" stroke="midnightblue" d="M236.94,-194.42C256.31,-202.33 281.8,-212.11 305,-219 316.99,-222.56 330.07,-225.75 342.41,-228.46"/>
<polygon fill="midnightblue" stroke="midnightblue" points="238.27,-191.18 227.69,-190.59 235.59,-197.65 238.27,-191.18"/>
</g>
<!-- Node7 -->
<g id="node7" class="node">
<title>Node7</title>
<g id="a_node7"><a xlink:href="class_ogre_1_1_compositor_pass_mipmap_def.html" target="_top" xlink:title=" ">
<polygon fill="none" stroke="black" points="312,-190.5 312,-209.5 476,-209.5 476,-190.5 312,-190.5"/>
<text text-anchor="middle" x="394" y="-197.5" font-family="Helvetica,sans-Serif" font-size="10.00">Ogre::CompositorPassMipmapDef</text>
</a>
</g>
</g>
<!-- Node1&#45;&gt;Node7 -->
<g id="edge6" class="edge">
<title>Node1&#45;&gt;Node7</title>
<path fill="none" stroke="midnightblue" d="M279.34,-188.48C290.01,-189.56 301.04,-190.68 311.84,-191.78"/>
<polygon fill="midnightblue" stroke="midnightblue" points="279.54,-184.99 269.24,-187.46 278.84,-191.95 279.54,-184.99"/>
</g>
<!-- Node8 -->
<g id="node8" class="node">
<title>Node8</title>
<g id="a_node8"><a xlink:href="class_ogre_1_1_compositor_pass_quad_def.html" target="_top" xlink:title=" ">
<polygon fill="none" stroke="black" points="318,-152.5 318,-171.5 470,-171.5 470,-152.5 318,-152.5"/>
<text text-anchor="middle" x="394" y="-159.5" font-family="Helvetica,sans-Serif" font-size="10.00">Ogre::CompositorPassQuadDef</text>
</a>
</g>
</g>
<!-- Node1&#45;&gt;Node8 -->
<g id="edge7" class="edge">
<title>Node1&#45;&gt;Node8</title>
<path fill="none" stroke="midnightblue" d="M279.26,-173.53C291.92,-172.24 305.09,-170.91 317.78,-169.62"/>
<polygon fill="midnightblue" stroke="midnightblue" points="278.84,-170.05 269.24,-174.54 279.54,-177.01 278.84,-170.05"/>
</g>
<!-- Node9 -->
<g id="node9" class="node">
<title>Node9</title>
<g id="a_node9"><a xlink:href="class_ogre_1_1_compositor_pass_scene_def.html" target="_top" xlink:title=" ">
<polygon fill="none" stroke="black" points="315.5,-114.5 315.5,-133.5 472.5,-133.5 472.5,-114.5 315.5,-114.5"/>
<text text-anchor="middle" x="394" y="-121.5" font-family="Helvetica,sans-Serif" font-size="10.00">Ogre::CompositorPassSceneDef</text>
</a>
</g>
</g>
<!-- Node1&#45;&gt;Node9 -->
<g id="edge8" class="edge">
<title>Node1&#45;&gt;Node9</title>
<path fill="none" stroke="midnightblue" d="M236.94,-167.58C256.31,-159.67 281.8,-149.89 305,-143 316.99,-139.44 330.07,-136.25 342.41,-133.54"/>
<polygon fill="midnightblue" stroke="midnightblue" points="235.59,-164.35 227.69,-171.41 238.27,-170.82 235.59,-164.35"/>
</g>
<!-- Node10 -->
<g id="node10" class="node">
<title>Node10</title>
<g id="a_node10"><a xlink:href="class_ogre_1_1_compositor_pass_shadows_def.html" target="_top" xlink:title=" ">
<polygon fill="none" stroke="black" points="309,-76.5 309,-95.5 479,-95.5 479,-76.5 309,-76.5"/>
<text text-anchor="middle" x="394" y="-83.5" font-family="Helvetica,sans-Serif" font-size="10.00">Ogre::CompositorPassShadowsDef</text>
</a>
</g>
</g>
<!-- Node1&#45;&gt;Node10 -->
<g id="edge9" class="edge">
<title>Node1&#45;&gt;Node10</title>
<path fill="none" stroke="midnightblue" d="M222.35,-164.32C240.99,-146.85 272.68,-119.92 305,-105 313.37,-101.14 322.56,-98.04 331.74,-95.57"/>
<polygon fill="midnightblue" stroke="midnightblue" points="219.78,-161.94 214.98,-171.39 224.62,-167 219.78,-161.94"/>
</g>
<!-- Node11 -->
<g id="node11" class="node">
<title>Node11</title>
<g id="a_node11"><a xlink:href="class_ogre_1_1_compositor_pass_stencil_def.html" target="_top" xlink:title=" ">
<polygon fill="none" stroke="black" points="314.5,-38.5 314.5,-57.5 473.5,-57.5 473.5,-38.5 314.5,-38.5"/>
<text text-anchor="middle" x="394" y="-45.5" font-family="Helvetica,sans-Serif" font-size="10.00">Ogre::CompositorPassStencilDef</text>
</a>
</g>
</g>
<!-- Node1&#45;&gt;Node11 -->
<g id="edge10" class="edge">
<title>Node1&#45;&gt;Node11</title>
<path fill="none" stroke="midnightblue" d="M216.3,-162.42C232.27,-136.71 264.67,-90.79 305,-67 311.6,-63.11 318.89,-60.01 326.38,-57.55"/>
<polygon fill="midnightblue" stroke="midnightblue" points="213.18,-160.82 211.01,-171.19 219.17,-164.44 213.18,-160.82"/>
</g>
<!-- Node12 -->
<g id="node12" class="node">
<title>Node12</title>
<g id="a_node12"><a xlink:href="class_ogre_1_1_compositor_pass_uav_def.html" target="_top" xlink:title=" ">
<polygon fill="none" stroke="black" points="320.5,-0.5 320.5,-19.5 467.5,-19.5 467.5,-0.5 320.5,-0.5"/>
<text text-anchor="middle" x="394" y="-7.5" font-family="Helvetica,sans-Serif" font-size="10.00">Ogre::CompositorPassUavDef</text>
</a>
</g>
</g>
<!-- Node1&#45;&gt;Node12 -->
<g id="edge11" class="edge">
<title>Node1&#45;&gt;Node12</title>
<path fill="none" stroke="midnightblue" d="M212.53,-161.51C225.45,-128.65 256.18,-62.53 305,-29 310.54,-25.19 316.7,-22.13 323.12,-19.67"/>
<polygon fill="midnightblue" stroke="midnightblue" points="209.1,-160.69 208.84,-171.29 215.65,-163.17 209.1,-160.69"/>
</g>
<!-- Node2 -->
<g id="node2" class="node">
<title>Node2</title>
<g id="a_node2"><a xlink:href="class_ogre_1_1_allocated_object.html" target="_top" xlink:title="Superclass for all objects that wish to use custom memory allocators when their new / delete operator...">
<polygon fill="none" stroke="black" points="0,-171.5 0,-190.5 104,-190.5 104,-171.5 0,-171.5"/>
<text text-anchor="middle" x="52" y="-178.5" font-family="Helvetica,sans-Serif" font-size="10.00">CompositorInstAlloc</text>
</a>
</g>
</g>
<!-- Node2&#45;&gt;Node1 -->
<g id="edge1" class="edge">
<title>Node2&#45;&gt;Node1</title>
<path fill="none" stroke="midnightblue" d="M114.44,-181C122.82,-181 131.43,-181 139.85,-181"/>
<polygon fill="midnightblue" stroke="midnightblue" points="114.37,-177.5 104.37,-181 114.37,-184.5 114.37,-177.5"/>
</g>
</g>
</svg>
