<?xml version="1.0" encoding="UTF-8" standalone="no"?>
<!DOCTYPE svg PUBLIC "-//W3C//DTD SVG 1.1//EN"
 "http://www.w3.org/Graphics/SVG/1.1/DTD/svg11.dtd">
<!-- Generated by graphviz version 2.44.0 ()
 -->
<!-- Title: Ogre::PCZoneFactory Pages: 1 -->
<svg width="278pt" height="140pt"
 viewBox="0.00 0.00 278.00 140.00" xmlns="http://www.w3.org/2000/svg" xmlns:xlink="http://www.w3.org/1999/xlink">
<g id="graph0" class="graph" transform="scale(1 1) rotate(0) translate(4 136)">
<title>Ogre::PCZoneFactory</title>
<!-- Node1 -->
<g id="node1" class="node">
<title>Node1</title>
<g id="a_node1"><a xlink:title="Factory for PCZones.">
<polygon fill="#bfbfbf" stroke="black" points="80.5,-56.5 80.5,-75.5 190.5,-75.5 190.5,-56.5 80.5,-56.5"/>
<text text-anchor="middle" x="135.5" y="-63.5" font-family="Helvetica,sans-Serif" font-size="10.00">Ogre::PCZoneFactory</text>
</a>
</g>
</g>
<!-- Node3 -->
<g id="node3" class="node">
<title>Node3</title>
<g id="a_node3"><a xlink:href="class_ogre_1_1_default_zone_factory.html" target="_top" xlink:title=" ">
<polygon fill="none" stroke="black" points="0,-0.5 0,-19.5 127,-19.5 127,-0.5 0,-0.5"/>
<text text-anchor="middle" x="63.5" y="-7.5" font-family="Helvetica,sans-Serif" font-size="10.00">Ogre::DefaultZoneFactory</text>
</a>
</g>
</g>
<!-- Node1&#45;&gt;Node3 -->
<g id="edge2" class="edge">
<title>Node1&#45;&gt;Node3</title>
<path fill="none" stroke="midnightblue" d="M115.63,-50.1C102.68,-40.38 86.2,-28.03 75.28,-19.83"/>
<polygon fill="midnightblue" stroke="midnightblue" points="113.83,-53.12 123.93,-56.32 118.03,-47.52 113.83,-53.12"/>
</g>
<!-- Node4 -->
<g id="node4" class="node">
<title>Node4</title>
<g id="a_node4"><a xlink:href="class_ogre_1_1_octree_zone_factory.html" target="_top" xlink:title="Factory for OctreeZone.">
<polygon fill="none" stroke="black" points="145,-0.5 145,-19.5 270,-19.5 270,-0.5 145,-0.5"/>
<text text-anchor="middle" x="207.5" y="-7.5" font-family="Helvetica,sans-Serif" font-size="10.00">Ogre::OctreeZoneFactory</text>
</a>
</g>
</g>
<!-- Node1&#45;&gt;Node4 -->
<g id="edge3" class="edge">
<title>Node1&#45;&gt;Node4</title>
<path fill="none" stroke="midnightblue" d="M155.37,-50.1C168.32,-40.38 184.8,-28.03 195.72,-19.83"/>
<polygon fill="midnightblue" stroke="midnightblue" points="152.97,-47.52 147.07,-56.32 157.17,-53.12 152.97,-47.52"/>
</g>
<!-- Node2 -->
<g id="node2" class="node">
<title>Node2</title>
<g id="a_node2"><a xlink:href="class_ogre_1_1_allocated_object.html" target="_top" xlink:title="Superclass for all objects that wish to use custom memory allocators when their new / delete operator...">
<polygon fill="none" stroke="black" points="73,-112.5 73,-131.5 198,-131.5 198,-112.5 73,-112.5"/>
<text text-anchor="middle" x="135.5" y="-119.5" font-family="Helvetica,sans-Serif" font-size="10.00">SceneCtlAllocatedObject</text>
</a>
</g>
</g>
<!-- Node2&#45;&gt;Node1 -->
<g id="edge1" class="edge">
<title>Node2&#45;&gt;Node1</title>
<path fill="none" stroke="midnightblue" d="M135.5,-101.8C135.5,-92.91 135.5,-82.78 135.5,-75.75"/>
<polygon fill="midnightblue" stroke="midnightblue" points="132,-102.08 135.5,-112.08 139,-102.08 132,-102.08"/>
</g>
</g>
</svg>
