<?xml version="1.0" encoding="UTF-8" standalone="no"?>
<!DOCTYPE svg PUBLIC "-//W3C//DTD SVG 1.1//EN"
 "http://www.w3.org/Graphics/SVG/1.1/DTD/svg11.dtd">
<!-- Generated by graphviz version 2.44.0 ()
 -->
<!-- Title: Ogre::ScriptTranslator Pages: 1 -->
<svg width="655pt" height="830pt"
 viewBox="0.00 0.00 655.00 829.50" xmlns="http://www.w3.org/2000/svg" xmlns:xlink="http://www.w3.org/1999/xlink">
<g id="graph0" class="graph" transform="scale(1 1) rotate(0) translate(4 825.5)">
<title>Ogre::ScriptTranslator</title>
<!-- Node1 -->
<g id="node1" class="node">
<title>Node1</title>
<g id="a_node1"><a xlink:title="This class translates script AST (abstract syntax tree) into Ogre resources.">
<polygon fill="#bfbfbf" stroke="black" points="143,-361.5 143,-380.5 254,-380.5 254,-361.5 143,-361.5"/>
<text text-anchor="middle" x="198.5" y="-368.5" font-family="Helvetica,sans-Serif" font-size="10.00">Ogre::ScriptTranslator</text>
</a>
</g>
</g>
<!-- Node3 -->
<g id="node3" class="node">
<title>Node3</title>
<g id="a_node3"><a xlink:href="class_ogre_1_1_compositor_load_action_translator.html" target="_top" xlink:title=" ">
<polygon fill="none" stroke="black" points="301,-791 301,-821 442,-821 442,-791 301,-791"/>
<text text-anchor="start" x="309" y="-809" font-family="Helvetica,sans-Serif" font-size="10.00">Ogre::CompositorLoadAction</text>
<text text-anchor="middle" x="371.5" y="-798" font-family="Helvetica,sans-Serif" font-size="10.00">Translator</text>
</a>
</g>
</g>
<!-- Node1&#45;&gt;Node3 -->
<g id="edge2" class="edge">
<title>Node1&#45;&gt;Node3</title>
<path fill="none" stroke="midnightblue" d="M201.26,-390.74C208.21,-464.45 236.03,-722.3 290,-781 293.57,-784.88 297.72,-788.16 302.23,-790.94"/>
<polygon fill="midnightblue" stroke="midnightblue" points="204.72,-390.19 200.32,-380.55 197.75,-390.83 204.72,-390.19"/>
</g>
<!-- Node4 -->
<g id="node4" class="node">
<title>Node4</title>
<g id="a_node4"><a xlink:href="class_ogre_1_1_compositor_pass_translator.html" target="_top" xlink:title=" ">
<polygon fill="none" stroke="black" points="292.5,-752.5 292.5,-771.5 450.5,-771.5 450.5,-752.5 292.5,-752.5"/>
<text text-anchor="middle" x="371.5" y="-759.5" font-family="Helvetica,sans-Serif" font-size="10.00">Ogre::CompositorPassTranslator</text>
</a>
</g>
</g>
<!-- Node1&#45;&gt;Node4 -->
<g id="edge3" class="edge">
<title>Node1&#45;&gt;Node4</title>
<path fill="none" stroke="midnightblue" d="M201.61,-390.81C209.4,-460.39 238.85,-692.2 290,-743 293.87,-746.85 298.37,-749.97 303.22,-752.5"/>
<polygon fill="midnightblue" stroke="midnightblue" points="205.07,-390.31 200.51,-380.75 198.12,-391.07 205.07,-390.31"/>
</g>
<!-- Node5 -->
<g id="node5" class="node">
<title>Node5</title>
<g id="a_node5"><a xlink:href="class_ogre_1_1_compositor_render_target_view_translator.html" target="_top" xlink:title=" ">
<polygon fill="none" stroke="black" points="296.5,-703 296.5,-733 446.5,-733 446.5,-703 296.5,-703"/>
<text text-anchor="start" x="304.5" y="-721" font-family="Helvetica,sans-Serif" font-size="10.00">Ogre::CompositorRenderTarget</text>
<text text-anchor="middle" x="371.5" y="-710" font-family="Helvetica,sans-Serif" font-size="10.00">ViewTranslator</text>
</a>
</g>
</g>
<!-- Node1&#45;&gt;Node5 -->
<g id="edge4" class="edge">
<title>Node1&#45;&gt;Node5</title>
<path fill="none" stroke="midnightblue" d="M198.97,-391.05C198.62,-446.97 205.49,-606.17 290,-693 293.78,-696.88 298.14,-700.16 302.85,-702.93"/>
<polygon fill="midnightblue" stroke="midnightblue" points="202.47,-390.81 199.13,-380.75 195.48,-390.7 202.47,-390.81"/>
</g>
<!-- Node6 -->
<g id="node6" class="node">
<title>Node6</title>
<g id="a_node6"><a xlink:href="class_ogre_1_1_compositor_shadow_map_repeat_translator.html" target="_top" xlink:title=" ">
<polygon fill="none" stroke="black" points="298.5,-654 298.5,-684 444.5,-684 444.5,-654 298.5,-654"/>
<text text-anchor="start" x="306.5" y="-672" font-family="Helvetica,sans-Serif" font-size="10.00">Ogre::CompositorShadowMap</text>
<text text-anchor="middle" x="371.5" y="-661" font-family="Helvetica,sans-Serif" font-size="10.00">RepeatTranslator</text>
</a>
</g>
</g>
<!-- Node1&#45;&gt;Node6 -->
<g id="edge5" class="edge">
<title>Node1&#45;&gt;Node6</title>
<path fill="none" stroke="midnightblue" d="M200.14,-390.63C202.85,-440.34 216.93,-572.3 290,-644 293.97,-647.89 298.53,-651.18 303.43,-653.96"/>
<polygon fill="midnightblue" stroke="midnightblue" points="203.64,-390.41 199.7,-380.58 196.64,-390.73 203.64,-390.41"/>
</g>
<!-- Node7 -->
<g id="node7" class="node">
<title>Node7</title>
<g id="a_node7"><a xlink:href="class_ogre_1_1_compositor_shadow_map_target_translator.html" target="_top" xlink:title=" ">
<polygon fill="none" stroke="black" points="298.5,-605 298.5,-635 444.5,-635 444.5,-605 298.5,-605"/>
<text text-anchor="start" x="306.5" y="-623" font-family="Helvetica,sans-Serif" font-size="10.00">Ogre::CompositorShadowMap</text>
<text text-anchor="middle" x="371.5" y="-612" font-family="Helvetica,sans-Serif" font-size="10.00">TargetTranslator</text>
</a>
</g>
</g>
<!-- Node1&#45;&gt;Node7 -->
<g id="edge6" class="edge">
<title>Node1&#45;&gt;Node7</title>
<path fill="none" stroke="midnightblue" d="M201.81,-390.83C207.92,-434.27 228.53,-538.42 290,-595 294.2,-598.87 298.99,-602.13 304.09,-604.9"/>
<polygon fill="midnightblue" stroke="midnightblue" points="205.26,-390.19 200.5,-380.72 198.31,-391.09 205.26,-390.19"/>
</g>
<!-- Node8 -->
<g id="node8" class="node">
<title>Node8</title>
<g id="a_node8"><a xlink:href="class_ogre_1_1_compositor_shadow_map_target_type_translator.html" target="_top" xlink:title=" ">
<polygon fill="none" stroke="black" points="298.5,-556 298.5,-586 444.5,-586 444.5,-556 298.5,-556"/>
<text text-anchor="start" x="306.5" y="-574" font-family="Helvetica,sans-Serif" font-size="10.00">Ogre::CompositorShadowMap</text>
<text text-anchor="middle" x="371.5" y="-563" font-family="Helvetica,sans-Serif" font-size="10.00">TargetTypeTranslator</text>
</a>
</g>
</g>
<!-- Node1&#45;&gt;Node8 -->
<g id="edge7" class="edge">
<title>Node1&#45;&gt;Node8</title>
<path fill="none" stroke="midnightblue" d="M204.18,-390.37C213.89,-426.38 239.63,-503.8 290,-546 294.6,-549.85 299.79,-553.11 305.27,-555.87"/>
<polygon fill="midnightblue" stroke="midnightblue" points="207.55,-389.42 201.68,-380.61 200.77,-391.16 207.55,-389.42"/>
</g>
<!-- Node9 -->
<g id="node9" class="node">
<title>Node9</title>
<g id="a_node9"><a xlink:href="class_ogre_1_1_compositor_store_action_translator.html" target="_top" xlink:title=" ">
<polygon fill="none" stroke="black" points="300,-507 300,-537 443,-537 443,-507 300,-507"/>
<text text-anchor="start" x="308" y="-525" font-family="Helvetica,sans-Serif" font-size="10.00">Ogre::CompositorStoreAction</text>
<text text-anchor="middle" x="371.5" y="-514" font-family="Helvetica,sans-Serif" font-size="10.00">Translator</text>
</a>
</g>
</g>
<!-- Node1&#45;&gt;Node9 -->
<g id="edge8" class="edge">
<title>Node1&#45;&gt;Node9</title>
<path fill="none" stroke="midnightblue" d="M208.09,-389.82C221.62,-417.37 250.48,-468.51 290,-497 295.34,-500.85 301.29,-504.12 307.48,-506.89"/>
<polygon fill="midnightblue" stroke="midnightblue" points="211.12,-388.04 203.67,-380.51 204.8,-391.04 211.12,-388.04"/>
</g>
<!-- Node10 -->
<g id="node10" class="node">
<title>Node10</title>
<g id="a_node10"><a xlink:href="class_ogre_1_1_compositor_target_translator.html" target="_top" xlink:title=" ">
<polygon fill="none" stroke="black" points="290,-468.5 290,-487.5 453,-487.5 453,-468.5 290,-468.5"/>
<text text-anchor="middle" x="371.5" y="-475.5" font-family="Helvetica,sans-Serif" font-size="10.00">Ogre::CompositorTargetTranslator</text>
</a>
</g>
</g>
<!-- Node1&#45;&gt;Node10 -->
<g id="edge9" class="edge">
<title>Node1&#45;&gt;Node10</title>
<path fill="none" stroke="midnightblue" d="M212.83,-388.46C228.95,-408.32 257.93,-440.29 290,-458 297.82,-462.32 306.57,-465.72 315.34,-468.39"/>
<polygon fill="midnightblue" stroke="midnightblue" points="215.5,-386.19 206.56,-380.52 210.01,-390.53 215.5,-386.19"/>
</g>
<!-- Node11 -->
<g id="node11" class="node">
<title>Node11</title>
<g id="a_node11"><a xlink:href="class_ogre_1_1_compositor_texture_base_translator.html" target="_top" xlink:title=" ">
<polygon fill="none" stroke="black" points="298.5,-419 298.5,-449 444.5,-449 444.5,-419 298.5,-419"/>
<text text-anchor="start" x="306.5" y="-437" font-family="Helvetica,sans-Serif" font-size="10.00">Ogre::CompositorTextureBase</text>
<text text-anchor="middle" x="371.5" y="-426" font-family="Helvetica,sans-Serif" font-size="10.00">Translator</text>
</a>
</g>
</g>
<!-- Node1&#45;&gt;Node11 -->
<g id="edge10" class="edge">
<title>Node1&#45;&gt;Node11</title>
<path fill="none" stroke="midnightblue" d="M230.46,-384.87C247.8,-392.42 269.92,-401.69 290,-409 299.35,-412.41 309.41,-415.77 319.15,-418.87"/>
<polygon fill="midnightblue" stroke="midnightblue" points="231.41,-381.47 220.85,-380.65 228.59,-387.88 231.41,-381.47"/>
</g>
<!-- Node15 -->
<g id="node15" class="node">
<title>Node15</title>
<g id="a_node15"><a xlink:href="class_ogre_1_1_gpu_program_translator.html" target="_top" xlink:title=" ">
<polygon fill="none" stroke="black" points="301.5,-380.5 301.5,-399.5 441.5,-399.5 441.5,-380.5 301.5,-380.5"/>
<text text-anchor="middle" x="371.5" y="-387.5" font-family="Helvetica,sans-Serif" font-size="10.00">Ogre::GpuProgramTranslator</text>
</a>
</g>
</g>
<!-- Node1&#45;&gt;Node15 -->
<g id="edge14" class="edge">
<title>Node1&#45;&gt;Node15</title>
<path fill="none" stroke="midnightblue" d="M264.14,-378.18C276.32,-379.54 289.11,-380.96 301.42,-382.32"/>
<polygon fill="midnightblue" stroke="midnightblue" points="264.4,-374.69 254.08,-377.06 263.63,-381.65 264.4,-374.69"/>
</g>
<!-- Node16 -->
<g id="node16" class="node">
<title>Node16</title>
<g id="a_node16"><a xlink:href="class_ogre_1_1_hlms_translator.html" target="_top" xlink:title=" ">
<polygon fill="none" stroke="black" points="317,-342.5 317,-361.5 426,-361.5 426,-342.5 317,-342.5"/>
<text text-anchor="middle" x="371.5" y="-349.5" font-family="Helvetica,sans-Serif" font-size="10.00">Ogre::HlmsTranslator</text>
</a>
</g>
</g>
<!-- Node1&#45;&gt;Node16 -->
<g id="edge15" class="edge">
<title>Node1&#45;&gt;Node16</title>
<path fill="none" stroke="midnightblue" d="M264.13,-363.82C281.47,-361.89 300.04,-359.83 316.73,-357.97"/>
<polygon fill="midnightblue" stroke="midnightblue" points="263.63,-360.35 254.08,-364.94 264.4,-367.31 263.63,-360.35"/>
</g>
<!-- Node17 -->
<g id="node17" class="node">
<title>Node17</title>
<g id="a_node17"><a xlink:href="class_ogre_1_1_material_translator.html" target="_top" xlink:title=" ">
<polygon fill="none" stroke="black" points="311.5,-304.5 311.5,-323.5 431.5,-323.5 431.5,-304.5 311.5,-304.5"/>
<text text-anchor="middle" x="371.5" y="-311.5" font-family="Helvetica,sans-Serif" font-size="10.00">Ogre::MaterialTranslator</text>
</a>
</g>
</g>
<!-- Node1&#45;&gt;Node17 -->
<g id="edge16" class="edge">
<title>Node1&#45;&gt;Node17</title>
<path fill="none" stroke="midnightblue" d="M228.75,-357.26C246.25,-349.41 269.08,-339.81 290,-333 300.92,-329.44 312.88,-326.26 324.16,-323.55"/>
<polygon fill="midnightblue" stroke="midnightblue" points="227.27,-354.09 219.62,-361.41 230.17,-360.46 227.27,-354.09"/>
</g>
<!-- Node18 -->
<g id="node18" class="node">
<title>Node18</title>
<g id="a_node18"><a xlink:href="class_ogre_1_1_particle_affector_translator.html" target="_top" xlink:title=" ">
<polygon fill="none" stroke="black" points="295.5,-266.5 295.5,-285.5 447.5,-285.5 447.5,-266.5 295.5,-266.5"/>
<text text-anchor="middle" x="371.5" y="-273.5" font-family="Helvetica,sans-Serif" font-size="10.00">Ogre::ParticleAffectorTranslator</text>
</a>
</g>
</g>
<!-- Node1&#45;&gt;Node18 -->
<g id="edge17" class="edge">
<title>Node1&#45;&gt;Node18</title>
<path fill="none" stroke="midnightblue" d="M215.27,-353.67C232.1,-336.24 260.37,-309.87 290,-295 297.7,-291.14 306.21,-288.04 314.73,-285.56"/>
<polygon fill="midnightblue" stroke="midnightblue" points="212.27,-351.74 207.97,-361.42 217.37,-356.54 212.27,-351.74"/>
</g>
<!-- Node19 -->
<g id="node19" class="node">
<title>Node19</title>
<g id="a_node19"><a xlink:href="class_ogre_1_1_particle_emitter_translator.html" target="_top" xlink:title=" ">
<polygon fill="none" stroke="black" points="297,-228.5 297,-247.5 446,-247.5 446,-228.5 297,-228.5"/>
<text text-anchor="middle" x="371.5" y="-235.5" font-family="Helvetica,sans-Serif" font-size="10.00">Ogre::ParticleEmitterTranslator</text>
</a>
</g>
</g>
<!-- Node1&#45;&gt;Node19 -->
<g id="edge18" class="edge">
<title>Node1&#45;&gt;Node19</title>
<path fill="none" stroke="midnightblue" d="M209.14,-352.18C223.29,-326.52 252.15,-281.04 290,-257 296.06,-253.15 302.83,-250.08 309.79,-247.63"/>
<polygon fill="midnightblue" stroke="midnightblue" points="205.92,-350.78 204.3,-361.25 212.1,-354.07 205.92,-350.78"/>
</g>
<!-- Node20 -->
<g id="node20" class="node">
<title>Node20</title>
<g id="a_node20"><a xlink:href="class_ogre_1_1_particle_system_translator.html" target="_top" xlink:title=" ">
<polygon fill="none" stroke="black" points="295.5,-190.5 295.5,-209.5 447.5,-209.5 447.5,-190.5 295.5,-190.5"/>
<text text-anchor="middle" x="371.5" y="-197.5" font-family="Helvetica,sans-Serif" font-size="10.00">Ogre::ParticleSystemTranslator</text>
</a>
</g>
</g>
<!-- Node1&#45;&gt;Node20 -->
<g id="edge19" class="edge">
<title>Node1&#45;&gt;Node20</title>
<path fill="none" stroke="midnightblue" d="M205.45,-351.63C216.52,-318.96 243.5,-253.1 290,-219 295.21,-215.18 301.08,-212.11 307.21,-209.66"/>
<polygon fill="midnightblue" stroke="midnightblue" points="202.05,-350.76 202.3,-361.35 208.71,-352.92 202.05,-350.76"/>
</g>
<!-- Node21 -->
<g id="node21" class="node">
<title>Node21</title>
<g id="a_node21"><a xlink:href="class_ogre_1_1_pass_translator.html" target="_top" xlink:title=" ">
<polygon fill="none" stroke="black" points="317.5,-152.5 317.5,-171.5 425.5,-171.5 425.5,-152.5 317.5,-152.5"/>
<text text-anchor="middle" x="371.5" y="-159.5" font-family="Helvetica,sans-Serif" font-size="10.00">Ogre::PassTranslator</text>
</a>
</g>
</g>
<!-- Node1&#45;&gt;Node21 -->
<g id="edge20" class="edge">
<title>Node1&#45;&gt;Node21</title>
<path fill="none" stroke="midnightblue" d="M203.05,-351.26C211.12,-312.36 234.62,-225.69 290,-181 297.82,-174.69 307.39,-170.41 317.15,-167.52"/>
<polygon fill="midnightblue" stroke="midnightblue" points="199.57,-350.82 201.1,-361.3 206.44,-352.15 199.57,-350.82"/>
</g>
<!-- Node22 -->
<g id="node22" class="node">
<title>Node22</title>
<g id="a_node22"><a xlink:href="class_ogre_1_1_shared_params_translator.html" target="_top" xlink:title=" ">
<polygon fill="none" stroke="black" points="296.5,-114.5 296.5,-133.5 446.5,-133.5 446.5,-114.5 296.5,-114.5"/>
<text text-anchor="middle" x="371.5" y="-121.5" font-family="Helvetica,sans-Serif" font-size="10.00">Ogre::SharedParamsTranslator</text>
</a>
</g>
</g>
<!-- Node1&#45;&gt;Node22 -->
<g id="edge21" class="edge">
<title>Node1&#45;&gt;Node22</title>
<path fill="none" stroke="midnightblue" d="M201.3,-351.4C206.46,-307.1 225.36,-198.82 290,-143 294.46,-139.15 299.55,-136.05 304.96,-133.55"/>
<polygon fill="midnightblue" stroke="midnightblue" points="197.81,-351.12 200.25,-361.43 204.77,-351.85 197.81,-351.12"/>
</g>
<!-- Node23 -->
<g id="node23" class="node">
<title>Node23</title>
<g id="a_node23"><a xlink:href="class_ogre_1_1_technique_translator.html" target="_top" xlink:title=" ">
<polygon fill="none" stroke="black" points="306,-76.5 306,-95.5 437,-95.5 437,-76.5 306,-76.5"/>
<text text-anchor="middle" x="371.5" y="-83.5" font-family="Helvetica,sans-Serif" font-size="10.00">Ogre::TechniqueTranslator</text>
</a>
</g>
</g>
<!-- Node1&#45;&gt;Node23 -->
<g id="edge22" class="edge">
<title>Node1&#45;&gt;Node23</title>
<path fill="none" stroke="midnightblue" d="M200.05,-351.23C202.53,-301.81 216.13,-172.09 290,-105 294.68,-100.75 300.12,-97.4 305.94,-94.77"/>
<polygon fill="midnightblue" stroke="midnightblue" points="196.55,-351.11 199.64,-361.24 203.54,-351.39 196.55,-351.11"/>
</g>
<!-- Node24 -->
<g id="node24" class="node">
<title>Node24</title>
<g id="a_node24"><a xlink:href="class_ogre_1_1_texture_source_translator.html" target="_top" xlink:title=" ">
<polygon fill="none" stroke="black" points="297,-38.5 297,-57.5 446,-57.5 446,-38.5 297,-38.5"/>
<text text-anchor="middle" x="371.5" y="-45.5" font-family="Helvetica,sans-Serif" font-size="10.00">Ogre::TextureSourceTranslator</text>
</a>
</g>
</g>
<!-- Node1&#45;&gt;Node24 -->
<g id="edge23" class="edge">
<title>Node1&#45;&gt;Node24</title>
<path fill="none" stroke="midnightblue" d="M199.07,-351.05C199.04,-296.82 206.81,-145.53 290,-67 294.07,-63.16 298.77,-60.04 303.81,-57.52"/>
<polygon fill="midnightblue" stroke="midnightblue" points="195.57,-351.39 199.17,-361.35 202.57,-351.31 195.57,-351.39"/>
</g>
<!-- Node25 -->
<g id="node25" class="node">
<title>Node25</title>
<g id="a_node25"><a xlink:href="class_ogre_1_1_texture_unit_translator.html" target="_top" xlink:title=" ">
<polygon fill="none" stroke="black" points="303.5,-0.5 303.5,-19.5 439.5,-19.5 439.5,-0.5 303.5,-0.5"/>
<text text-anchor="middle" x="371.5" y="-7.5" font-family="Helvetica,sans-Serif" font-size="10.00">Ogre::TextureUnitTranslator</text>
</a>
</g>
</g>
<!-- Node1&#45;&gt;Node25 -->
<g id="edge24" class="edge">
<title>Node1&#45;&gt;Node25</title>
<path fill="none" stroke="midnightblue" d="M202.07,-351.12C210.99,-285.15 242.67,-75.07 290,-29 293.91,-25.19 298.43,-22.1 303.3,-19.59"/>
<polygon fill="midnightblue" stroke="midnightblue" points="198.55,-351 200.71,-361.37 205.49,-351.92 198.55,-351"/>
</g>
<!-- Node2 -->
<g id="node2" class="node">
<title>Node2</title>
<g id="a_node2"><a xlink:href="class_ogre_1_1_allocated_object.html" target="_top" xlink:title="Superclass for all objects that wish to use custom memory allocators when their new / delete operator...">
<polygon fill="none" stroke="black" points="0,-361.5 0,-380.5 107,-380.5 107,-361.5 0,-361.5"/>
<text text-anchor="middle" x="53.5" y="-368.5" font-family="Helvetica,sans-Serif" font-size="10.00">ScriptTranslatorAlloc</text>
</a>
</g>
</g>
<!-- Node2&#45;&gt;Node1 -->
<g id="edge1" class="edge">
<title>Node2&#45;&gt;Node1</title>
<path fill="none" stroke="midnightblue" d="M117.56,-371C126.03,-371 134.66,-371 142.96,-371"/>
<polygon fill="midnightblue" stroke="midnightblue" points="117.34,-367.5 107.34,-371 117.34,-374.5 117.34,-367.5"/>
</g>
<!-- Node12 -->
<g id="node12" class="node">
<title>Node12</title>
<g id="a_node12"><a xlink:href="class_ogre_1_1_compositor_node_translator.html" target="_top" xlink:title=" ">
<polygon fill="none" stroke="black" points="489,-468.5 489,-487.5 647,-487.5 647,-468.5 489,-468.5"/>
<text text-anchor="middle" x="568" y="-475.5" font-family="Helvetica,sans-Serif" font-size="10.00">Ogre::CompositorNodeTranslator</text>
</a>
</g>
</g>
<!-- Node11&#45;&gt;Node12 -->
<g id="edge11" class="edge">
<title>Node11&#45;&gt;Node12</title>
<path fill="none" stroke="midnightblue" d="M448.71,-451.24C474.65,-457.11 502.69,-463.45 524.95,-468.49"/>
<polygon fill="midnightblue" stroke="midnightblue" points="449.42,-447.81 438.89,-449.02 447.87,-454.64 449.42,-447.81"/>
</g>
<!-- Node13 -->
<g id="node13" class="node">
<title>Node13</title>
<g id="a_node13"><a xlink:href="class_ogre_1_1_compositor_shadow_node_translator.html" target="_top" xlink:title=" ">
<polygon fill="none" stroke="black" points="493,-419 493,-449 643,-449 643,-419 493,-419"/>
<text text-anchor="start" x="501" y="-437" font-family="Helvetica,sans-Serif" font-size="10.00">Ogre::CompositorShadowNode</text>
<text text-anchor="middle" x="568" y="-426" font-family="Helvetica,sans-Serif" font-size="10.00">Translator</text>
</a>
</g>
</g>
<!-- Node11&#45;&gt;Node13 -->
<g id="edge12" class="edge">
<title>Node11&#45;&gt;Node13</title>
<path fill="none" stroke="midnightblue" d="M454.68,-434C467.29,-434 480.26,-434 492.69,-434"/>
<polygon fill="midnightblue" stroke="midnightblue" points="454.65,-430.5 444.65,-434 454.65,-437.5 454.65,-430.5"/>
</g>
<!-- Node14 -->
<g id="node14" class="node">
<title>Node14</title>
<g id="a_node14"><a xlink:href="class_ogre_1_1_compositor_workspace_translator.html" target="_top" xlink:title=" ">
<polygon fill="none" stroke="black" points="498,-370 498,-400 638,-400 638,-370 498,-370"/>
<text text-anchor="start" x="506" y="-388" font-family="Helvetica,sans-Serif" font-size="10.00">Ogre::CompositorWorkspace</text>
<text text-anchor="middle" x="568" y="-377" font-family="Helvetica,sans-Serif" font-size="10.00">Translator</text>
</a>
</g>
</g>
<!-- Node11&#45;&gt;Node14 -->
<g id="edge13" class="edge">
<title>Node11&#45;&gt;Node14</title>
<path fill="none" stroke="midnightblue" d="M442.16,-416.45C463.52,-411.07 486.81,-405.2 507.43,-400.01"/>
<polygon fill="midnightblue" stroke="midnightblue" points="441.02,-413.13 432.18,-418.97 442.73,-419.92 441.02,-413.13"/>
</g>
</g>
</svg>
