<?xml version="1.0" encoding="UTF-8" standalone="no"?>
<!DOCTYPE svg PUBLIC "-//W3C//DTD SVG 1.1//EN"
 "http://www.w3.org/Graphics/SVG/1.1/DTD/svg11.dtd">
<!-- Generated by graphviz version 2.40.1 (20161225.0304)
 -->
<!-- Title: Ogre::TextureFilter::LeaveChannelR Pages: 1 -->
<svg width="106pt" height="162pt"
 viewBox="0.00 0.00 106.00 162.00" xmlns="http://www.w3.org/2000/svg" xmlns:xlink="http://www.w3.org/1999/xlink">
<g id="graph0" class="graph" transform="scale(1 1) rotate(0) translate(4 158)">
<title>Ogre::TextureFilter::LeaveChannelR</title>
<!-- Node0 -->
<g id="node1" class="node">
<title>Node0</title>
<polygon fill="#bfbfbf" stroke="#000000" points="0,-.5 0,-30.5 98,-30.5 98,-.5 0,-.5"/>
<text text-anchor="start" x="8" y="-18.5" font-family="Helvetica,sans-Serif" font-size="10.00" fill="#000000">Ogre::TextureFilter</text>
<text text-anchor="middle" x="49" y="-7.5" font-family="Helvetica,sans-Serif" font-size="10.00" fill="#000000">::LeaveChannelR</text>
</g>
<!-- Node1 -->
<g id="node2" class="node">
<title>Node1</title>
<g id="a_node2"><a xlink:href="class_ogre_1_1_texture_filter_1_1_filter_base.html" target="_top" xlink:title="Ogre::TextureFilter\l::FilterBase">
<polygon fill="none" stroke="#000000" points="0,-67.5 0,-97.5 98,-97.5 98,-67.5 0,-67.5"/>
<text text-anchor="start" x="8" y="-85.5" font-family="Helvetica,sans-Serif" font-size="10.00" fill="#000000">Ogre::TextureFilter</text>
<text text-anchor="middle" x="49" y="-74.5" font-family="Helvetica,sans-Serif" font-size="10.00" fill="#000000">::FilterBase</text>
</a>
</g>
</g>
<!-- Node1&#45;&gt;Node0 -->
<g id="edge1" class="edge">
<title>Node1&#45;&gt;Node0</title>
<path fill="none" stroke="#191970" d="M49,-57.0249C49,-48.128 49,-38.4287 49,-30.6432"/>
<polygon fill="#191970" stroke="#191970" points="45.5001,-57.2966 49,-67.2967 52.5001,-57.2967 45.5001,-57.2966"/>
</g>
<!-- Node2 -->
<g id="node3" class="node">
<title>Node2</title>
<g id="a_node3"><a xlink:href="class_ogre_1_1_allocated_object.html" target="_top" xlink:title="Superclass for all objects that wish to use custom memory allocators when their new / delete operator...">
<polygon fill="none" stroke="#000000" points="9,-134.5 9,-153.5 89,-153.5 89,-134.5 9,-134.5"/>
<text text-anchor="middle" x="49" y="-141.5" font-family="Helvetica,sans-Serif" font-size="10.00" fill="#000000">ResourceAlloc</text>
</a>
</g>
</g>
<!-- Node2&#45;&gt;Node1 -->
<g id="edge2" class="edge">
<title>Node2&#45;&gt;Node1</title>
<path fill="none" stroke="#191970" d="M49,-124.3693C49,-115.681 49,-105.6241 49,-97.5446"/>
<polygon fill="#191970" stroke="#191970" points="45.5001,-124.3906 49,-134.3906 52.5001,-124.3907 45.5001,-124.3906"/>
</g>
</g>
</svg>
