<?xml version="1.0" encoding="UTF-8" standalone="no"?>
<!DOCTYPE svg PUBLIC "-//W3C//DTD SVG 1.1//EN"
 "http://www.w3.org/Graphics/SVG/1.1/DTD/svg11.dtd">
<!-- Generated by graphviz version 2.44.0 ()
 -->
<!-- Title: Ogre::RenderWindow Pages: 1 -->
<svg width="817pt" height="268pt"
 viewBox="0.00 0.00 817.00 267.50" xmlns="http://www.w3.org/2000/svg" xmlns:xlink="http://www.w3.org/1999/xlink">
<g id="graph0" class="graph" transform="scale(1 1) rotate(0) translate(4 263.5)">
<title>Ogre::RenderWindow</title>
<!-- Node1 -->
<g id="node1" class="node">
<title>Node1</title>
<g id="a_node1"><a xlink:title="Manages the target rendering window.">
<polygon fill="#bfbfbf" stroke="black" points="310,-114.5 310,-133.5 417,-133.5 417,-114.5 310,-114.5"/>
<text text-anchor="middle" x="363.5" y="-121.5" font-family="Helvetica,sans-Serif" font-size="10.00">Ogre::RenderWindow</text>
</a>
</g>
</g>
<!-- Node5 -->
<g id="node5" class="node">
<title>Node5</title>
<g id="a_node5"><a xlink:href="class_ogre_1_1_d3_d11_render_window_base.html" target="_top" xlink:title=" ">
<polygon fill="none" stroke="black" points="453,-231.5 453,-250.5 612,-250.5 612,-231.5 453,-231.5"/>
<text text-anchor="middle" x="532.5" y="-238.5" font-family="Helvetica,sans-Serif" font-size="10.00">Ogre::D3D11RenderWindowBase</text>
</a>
</g>
</g>
<!-- Node1&#45;&gt;Node5 -->
<g id="edge4" class="edge">
<title>Node1&#45;&gt;Node5</title>
<path fill="none" stroke="midnightblue" d="M376.5,-141.98C391.78,-163.46 420.15,-198.99 453,-219 461.7,-224.3 471.72,-228.36 481.62,-231.46"/>
<polygon fill="midnightblue" stroke="midnightblue" points="379.36,-139.95 370.79,-133.72 373.6,-143.93 379.36,-139.95"/>
</g>
<!-- Node7 -->
<g id="node7" class="node">
<title>Node7</title>
<g id="a_node7"><a xlink:href="class_ogre_1_1_d3_d9_render_window.html" target="_top" xlink:title=" ">
<polygon fill="none" stroke="black" points="467,-190.5 467,-209.5 598,-209.5 598,-190.5 467,-190.5"/>
<text text-anchor="middle" x="532.5" y="-197.5" font-family="Helvetica,sans-Serif" font-size="10.00">Ogre::D3D9RenderWindow</text>
</a>
</g>
</g>
<!-- Node1&#45;&gt;Node7 -->
<g id="edge6" class="edge">
<title>Node1&#45;&gt;Node7</title>
<path fill="none" stroke="midnightblue" d="M384.54,-139.7C401.79,-152.52 427.82,-170.21 453,-181 461.89,-184.81 471.7,-187.95 481.27,-190.5"/>
<polygon fill="midnightblue" stroke="midnightblue" points="386.45,-136.76 376.36,-133.51 382.22,-142.34 386.45,-136.76"/>
</g>
<!-- Node8 -->
<g id="node8" class="node">
<title>Node8</title>
<g id="a_node8"><a xlink:href="class_ogre_1_1_e_g_l_window.html" target="_top" xlink:title=" ">
<polygon fill="none" stroke="black" points="484.5,-152.5 484.5,-171.5 580.5,-171.5 580.5,-152.5 484.5,-152.5"/>
<text text-anchor="middle" x="532.5" y="-159.5" font-family="Helvetica,sans-Serif" font-size="10.00">Ogre::EGLWindow</text>
</a>
</g>
</g>
<!-- Node1&#45;&gt;Node8 -->
<g id="edge7" class="edge">
<title>Node1&#45;&gt;Node8</title>
<path fill="none" stroke="midnightblue" d="M416.46,-135.82C440.01,-141.18 467.47,-147.43 489.66,-152.48"/>
<polygon fill="midnightblue" stroke="midnightblue" points="417.17,-132.4 406.64,-133.59 415.62,-139.22 417.17,-132.4"/>
</g>
<!-- Node13 -->
<g id="node13" class="node">
<title>Node13</title>
<g id="a_node13"><a xlink:href="class_ogre_1_1_g_t_k_window.html" target="_top" xlink:title=" ">
<polygon fill="none" stroke="black" points="484,-114.5 484,-133.5 581,-133.5 581,-114.5 484,-114.5"/>
<text text-anchor="middle" x="532.5" y="-121.5" font-family="Helvetica,sans-Serif" font-size="10.00">Ogre::GTKWindow</text>
</a>
</g>
</g>
<!-- Node1&#45;&gt;Node13 -->
<g id="edge12" class="edge">
<title>Node1&#45;&gt;Node13</title>
<path fill="none" stroke="midnightblue" d="M427.53,-124C446.19,-124 466.3,-124 483.81,-124"/>
<polygon fill="midnightblue" stroke="midnightblue" points="427.34,-120.5 417.34,-124 427.34,-127.5 427.34,-120.5"/>
</g>
<!-- Node14 -->
<g id="node14" class="node">
<title>Node14</title>
<g id="a_node14"><a xlink:href="class_ogre_1_1_n_u_l_l_render_window.html" target="_top" xlink:title=" ">
<polygon fill="none" stroke="black" points="465.5,-76.5 465.5,-95.5 599.5,-95.5 599.5,-76.5 465.5,-76.5"/>
<text text-anchor="middle" x="532.5" y="-83.5" font-family="Helvetica,sans-Serif" font-size="10.00">Ogre::NULLRenderWindow</text>
</a>
</g>
</g>
<!-- Node1&#45;&gt;Node14 -->
<g id="edge13" class="edge">
<title>Node1&#45;&gt;Node14</title>
<path fill="none" stroke="midnightblue" d="M416.46,-112.18C440.01,-106.82 467.47,-100.57 489.66,-95.52"/>
<polygon fill="midnightblue" stroke="midnightblue" points="415.62,-108.78 406.64,-114.41 417.17,-115.6 415.62,-108.78"/>
</g>
<!-- Node15 -->
<g id="node15" class="node">
<title>Node15</title>
<g id="a_node15"><a xlink:href="class_ogre_1_1_na_cl_window.html" target="_top" xlink:title=" ">
<polygon fill="none" stroke="black" points="483.5,-38.5 483.5,-57.5 581.5,-57.5 581.5,-38.5 483.5,-38.5"/>
<text text-anchor="middle" x="532.5" y="-45.5" font-family="Helvetica,sans-Serif" font-size="10.00">Ogre::NaClWindow</text>
</a>
</g>
</g>
<!-- Node1&#45;&gt;Node15 -->
<g id="edge14" class="edge">
<title>Node1&#45;&gt;Node15</title>
<path fill="none" stroke="midnightblue" d="M384.54,-108.3C401.79,-95.48 427.82,-77.79 453,-67 462.54,-62.91 473.12,-59.6 483.35,-56.96"/>
<polygon fill="midnightblue" stroke="midnightblue" points="382.22,-105.66 376.36,-114.49 386.45,-111.24 382.22,-105.66"/>
</g>
<!-- Node16 -->
<g id="node16" class="node">
<title>Node16</title>
<g id="a_node16"><a xlink:href="class_ogre_1_1_s_d_l_window.html" target="_top" xlink:title=" ">
<polygon fill="none" stroke="black" points="484.5,-0.5 484.5,-19.5 580.5,-19.5 580.5,-0.5 484.5,-0.5"/>
<text text-anchor="middle" x="532.5" y="-7.5" font-family="Helvetica,sans-Serif" font-size="10.00">Ogre::SDLWindow</text>
</a>
</g>
</g>
<!-- Node1&#45;&gt;Node16 -->
<g id="edge15" class="edge">
<title>Node1&#45;&gt;Node16</title>
<path fill="none" stroke="midnightblue" d="M376.15,-106.16C391.25,-84.52 419.63,-48.51 453,-29 462.44,-23.48 473.42,-19.56 484.12,-16.78"/>
<polygon fill="midnightblue" stroke="midnightblue" points="373.24,-104.23 370.52,-114.47 379.03,-108.15 373.24,-104.23"/>
</g>
<!-- Node2 -->
<g id="node2" class="node">
<title>Node2</title>
<g id="a_node2"><a xlink:href="class_ogre_1_1_render_target.html" target="_top" xlink:title="A &#39;canvas&#39; which can receive the results of a rendering operation.">
<polygon fill="none" stroke="black" points="173,-114.5 173,-133.5 274,-133.5 274,-114.5 173,-114.5"/>
<text text-anchor="middle" x="223.5" y="-121.5" font-family="Helvetica,sans-Serif" font-size="10.00">Ogre::RenderTarget</text>
</a>
</g>
</g>
<!-- Node2&#45;&gt;Node1 -->
<g id="edge1" class="edge">
<title>Node2&#45;&gt;Node1</title>
<path fill="none" stroke="midnightblue" d="M284.52,-124C292.99,-124 301.65,-124 309.96,-124"/>
<polygon fill="midnightblue" stroke="midnightblue" points="284.32,-120.5 274.32,-124 284.32,-127.5 284.32,-120.5"/>
</g>
<!-- Node3 -->
<g id="node3" class="node">
<title>Node3</title>
<g id="a_node3"><a xlink:href="struct_ogre_1_1_gpu_tracked_resource.html" target="_top" xlink:title=" ">
<polygon fill="none" stroke="black" points="0,-133.5 0,-152.5 137,-152.5 137,-133.5 0,-133.5"/>
<text text-anchor="middle" x="68.5" y="-140.5" font-family="Helvetica,sans-Serif" font-size="10.00">Ogre::GpuTrackedResource</text>
</a>
</g>
</g>
<!-- Node3&#45;&gt;Node2 -->
<g id="edge2" class="edge">
<title>Node3&#45;&gt;Node2</title>
<path fill="none" stroke="midnightblue" d="M147.23,-133.35C155.91,-132.27 164.57,-131.19 172.77,-130.18"/>
<polygon fill="midnightblue" stroke="midnightblue" points="146.55,-129.91 137.05,-134.61 147.41,-136.85 146.55,-129.91"/>
</g>
<!-- Node4 -->
<g id="node4" class="node">
<title>Node4</title>
<g id="a_node4"><a xlink:href="class_ogre_1_1_allocated_object.html" target="_top" xlink:title="Superclass for all objects that wish to use custom memory allocators when their new / delete operator...">
<polygon fill="none" stroke="black" points="25.5,-95.5 25.5,-114.5 111.5,-114.5 111.5,-95.5 25.5,-95.5"/>
<text text-anchor="middle" x="68.5" y="-102.5" font-family="Helvetica,sans-Serif" font-size="10.00">RenderSysAlloc</text>
</a>
</g>
</g>
<!-- Node4&#45;&gt;Node2 -->
<g id="edge3" class="edge">
<title>Node4&#45;&gt;Node2</title>
<path fill="none" stroke="midnightblue" d="M121.75,-111.49C138.28,-113.54 156.49,-115.8 172.83,-117.83"/>
<polygon fill="midnightblue" stroke="midnightblue" points="122.07,-108 111.71,-110.24 121.21,-114.95 122.07,-108"/>
</g>
<!-- Node6 -->
<g id="node6" class="node">
<title>Node6</title>
<g id="a_node6"><a xlink:href="class_ogre_1_1_d3_d11_render_window_swap_chain_based.html" target="_top" xlink:title=" ">
<polygon fill="none" stroke="black" points="648,-229 648,-259 809,-259 809,-229 648,-229"/>
<text text-anchor="start" x="656" y="-247" font-family="Helvetica,sans-Serif" font-size="10.00">Ogre::D3D11RenderWindowSwap</text>
<text text-anchor="middle" x="728.5" y="-236" font-family="Helvetica,sans-Serif" font-size="10.00">ChainBased</text>
</a>
</g>
</g>
<!-- Node5&#45;&gt;Node6 -->
<g id="edge5" class="edge">
<title>Node5&#45;&gt;Node6</title>
<path fill="none" stroke="midnightblue" d="M622.41,-242.37C630.88,-242.51 639.44,-242.64 647.81,-242.77"/>
<polygon fill="midnightblue" stroke="midnightblue" points="622.18,-238.87 612.13,-242.22 622.07,-245.87 622.18,-238.87"/>
</g>
<!-- Node9 -->
<g id="node9" class="node">
<title>Node9</title>
<g id="a_node9"><a xlink:href="class_ogre_1_1_android_e_g_l_window.html" target="_top" xlink:title=" ">
<polygon fill="none" stroke="black" points="664,-190.5 664,-209.5 793,-209.5 793,-190.5 664,-190.5"/>
<text text-anchor="middle" x="728.5" y="-197.5" font-family="Helvetica,sans-Serif" font-size="10.00">Ogre::AndroidEGLWindow</text>
</a>
</g>
</g>
<!-- Node8&#45;&gt;Node9 -->
<g id="edge8" class="edge">
<title>Node8&#45;&gt;Node9</title>
<path fill="none" stroke="midnightblue" d="M590.99,-173.26C618.94,-178.74 652.17,-185.24 678.85,-190.47"/>
<polygon fill="midnightblue" stroke="midnightblue" points="591.44,-169.78 580.96,-171.3 590.1,-176.65 591.44,-169.78"/>
</g>
<!-- Node10 -->
<g id="node10" class="node">
<title>Node10</title>
<g id="a_node10"><a xlink:href="class_ogre_1_1_emscripten_e_g_l_window.html" target="_top" xlink:title=" ">
<polygon fill="none" stroke="black" points="656,-152.5 656,-171.5 801,-171.5 801,-152.5 656,-152.5"/>
<text text-anchor="middle" x="728.5" y="-159.5" font-family="Helvetica,sans-Serif" font-size="10.00">Ogre::EmscriptenEGLWindow</text>
</a>
</g>
</g>
<!-- Node8&#45;&gt;Node10 -->
<g id="edge9" class="edge">
<title>Node8&#45;&gt;Node10</title>
<path fill="none" stroke="midnightblue" d="M591.02,-162C611.38,-162 634.55,-162 655.94,-162"/>
<polygon fill="midnightblue" stroke="midnightblue" points="590.96,-158.5 580.96,-162 590.96,-165.5 590.96,-158.5"/>
</g>
<!-- Node11 -->
<g id="node11" class="node">
<title>Node11</title>
<g id="a_node11"><a xlink:href="class_ogre_1_1_win32_e_g_l_window.html" target="_top" xlink:title=" ">
<polygon fill="none" stroke="black" points="667,-114.5 667,-133.5 790,-133.5 790,-114.5 667,-114.5"/>
<text text-anchor="middle" x="728.5" y="-121.5" font-family="Helvetica,sans-Serif" font-size="10.00">Ogre::Win32EGLWindow</text>
</a>
</g>
</g>
<!-- Node8&#45;&gt;Node11 -->
<g id="edge10" class="edge">
<title>Node8&#45;&gt;Node11</title>
<path fill="none" stroke="midnightblue" d="M590.99,-150.74C618.94,-145.26 652.17,-138.76 678.85,-133.53"/>
<polygon fill="midnightblue" stroke="midnightblue" points="590.1,-147.35 580.96,-152.7 591.44,-154.22 590.1,-147.35"/>
</g>
<!-- Node12 -->
<g id="node12" class="node">
<title>Node12</title>
<g id="a_node12"><a xlink:href="class_ogre_1_1_x11_e_g_l_window.html" target="_top" xlink:title=" ">
<polygon fill="none" stroke="black" points="672,-76.5 672,-95.5 785,-95.5 785,-76.5 672,-76.5"/>
<text text-anchor="middle" x="728.5" y="-83.5" font-family="Helvetica,sans-Serif" font-size="10.00">Ogre::X11EGLWindow</text>
</a>
</g>
</g>
<!-- Node8&#45;&gt;Node12 -->
<g id="edge11" class="edge">
<title>Node8&#45;&gt;Node12</title>
<path fill="none" stroke="midnightblue" d="M590.66,-152.3C598.1,-149.86 605.42,-146.81 612,-143 632.13,-131.34 627.85,-116.63 648,-105 655.25,-100.81 663.38,-97.55 671.6,-95"/>
<polygon fill="midnightblue" stroke="midnightblue" points="589.47,-149 580.85,-155.17 591.43,-155.72 589.47,-149"/>
</g>
</g>
</svg>
