<?xml version="1.0" encoding="UTF-8" standalone="no"?>
<!DOCTYPE svg PUBLIC "-//W3C//DTD SVG 1.1//EN"
 "http://www.w3.org/Graphics/SVG/1.1/DTD/svg11.dtd">
<!-- Generated by graphviz version 2.40.1 (20161225.0304)
 -->
<!-- Title: Ogre::RenderSystem Pages: 1 -->
<svg width="422pt" height="256pt"
 viewBox="0.00 0.00 422.00 256.00" xmlns="http://www.w3.org/2000/svg" xmlns:xlink="http://www.w3.org/1999/xlink">
<g id="graph0" class="graph" transform="scale(1 1) rotate(0) translate(4 252)">
<title>Ogre::RenderSystem</title>
<!-- Node0 -->
<g id="node1" class="node">
<title>Node0</title>
<polygon fill="#bfbfbf" stroke="#000000" points="123,-114.5 123,-133.5 232,-133.5 232,-114.5 123,-114.5"/>
<text text-anchor="middle" x="177.5" y="-121.5" font-family="Helvetica,sans-Serif" font-size="10.00" fill="#000000">Ogre::RenderSystem</text>
</g>
<!-- Node2 -->
<g id="node3" class="node">
<title>Node2</title>
<g id="a_node3"><a xlink:href="class_ogre_1_1_d3_d11_render_system.html" target="_top" xlink:title="Implementation of DirectX11 as a rendering system. ">
<polygon fill="none" stroke="#000000" points="271,-228.5 271,-247.5 411,-247.5 411,-228.5 271,-228.5"/>
<text text-anchor="middle" x="341" y="-235.5" font-family="Helvetica,sans-Serif" font-size="10.00" fill="#000000">Ogre::D3D11RenderSystem</text>
</a>
</g>
</g>
<!-- Node0&#45;&gt;Node2 -->
<g id="edge2" class="edge">
<title>Node0&#45;&gt;Node2</title>
<path fill="none" stroke="#191970" d="M189.8076,-142.0705C205.4583,-163.6453 234.5077,-199.28 268,-219 274.5453,-222.8538 281.8719,-225.9367 289.2898,-228.4001"/>
<polygon fill="#191970" stroke="#191970" points="192.5746,-139.9212 183.9466,-133.7723 186.8569,-143.9596 192.5746,-139.9212"/>
</g>
<!-- Node3 -->
<g id="node4" class="node">
<title>Node3</title>
<g id="a_node4"><a xlink:href="class_ogre_1_1_d3_d9_render_system.html" target="_top" xlink:title="Implementation of DirectX9 as a rendering system. ">
<polygon fill="none" stroke="#000000" points="274,-190.5 274,-209.5 408,-209.5 408,-190.5 274,-190.5"/>
<text text-anchor="middle" x="341" y="-197.5" font-family="Helvetica,sans-Serif" font-size="10.00" fill="#000000">Ogre::D3D9RenderSystem</text>
</a>
</g>
</g>
<!-- Node0&#45;&gt;Node3 -->
<g id="edge3" class="edge">
<title>Node0&#45;&gt;Node3</title>
<path fill="none" stroke="#191970" d="M198.3979,-139.7854C216.1075,-152.5012 242.6038,-170.0119 268,-181 276.6537,-184.7442 286.2142,-187.8852 295.4867,-190.4661"/>
<polygon fill="#191970" stroke="#191970" points="200.1272,-136.7138 189.9902,-133.6328 195.9933,-142.3628 200.1272,-136.7138"/>
</g>
<!-- Node4 -->
<g id="node5" class="node">
<title>Node4</title>
<g id="a_node5"><a xlink:href="class_ogre_1_1_g_l3_plus_render_system.html" target="_top" xlink:title="Implementation of GL 3 as a rendering system. ">
<polygon fill="none" stroke="#000000" points="268,-152.5 268,-171.5 414,-171.5 414,-152.5 268,-152.5"/>
<text text-anchor="middle" x="341" y="-159.5" font-family="Helvetica,sans-Serif" font-size="10.00" fill="#000000">Ogre::GL3PlusRenderSystem</text>
</a>
</g>
</g>
<!-- Node0&#45;&gt;Node4 -->
<g id="edge4" class="edge">
<title>Node0&#45;&gt;Node4</title>
<path fill="none" stroke="#191970" d="M228.6844,-135.8961C251.6661,-141.2374 278.4125,-147.4537 300.0387,-152.4799"/>
<polygon fill="#191970" stroke="#191970" points="229.2907,-132.4438 218.758,-133.589 227.706,-139.262 229.2907,-132.4438"/>
</g>
<!-- Node5 -->
<g id="node6" class="node">
<title>Node5</title>
<g id="a_node6"><a xlink:href="class_ogre_1_1_g_l_e_s2_render_system.html" target="_top" xlink:title="Implementation of GL ES 2.x as a rendering system. ">
<polygon fill="none" stroke="#000000" points="271,-114.5 271,-133.5 411,-133.5 411,-114.5 271,-114.5"/>
<text text-anchor="middle" x="341" y="-121.5" font-family="Helvetica,sans-Serif" font-size="10.00" fill="#000000">Ogre::GLES2RenderSystem</text>
</a>
</g>
</g>
<!-- Node0&#45;&gt;Node5 -->
<g id="edge5" class="edge">
<title>Node0&#45;&gt;Node5</title>
<path fill="none" stroke="#191970" d="M242.4,-124C251.7513,-124 261.4102,-124 270.858,-124"/>
<polygon fill="#191970" stroke="#191970" points="242.398,-120.5001 232.398,-124 242.3979,-127.5001 242.398,-120.5001"/>
</g>
<!-- Node6 -->
<g id="node7" class="node">
<title>Node6</title>
<g id="a_node7"><a xlink:href="class_ogre_1_1_metal_render_system.html" target="_top" xlink:title="Implementation of Metal as a rendering system. ">
<polygon fill="none" stroke="#000000" points="274.5,-76.5 274.5,-95.5 407.5,-95.5 407.5,-76.5 274.5,-76.5"/>
<text text-anchor="middle" x="341" y="-83.5" font-family="Helvetica,sans-Serif" font-size="10.00" fill="#000000">Ogre::MetalRenderSystem</text>
</a>
</g>
</g>
<!-- Node0&#45;&gt;Node6 -->
<g id="edge6" class="edge">
<title>Node0&#45;&gt;Node6</title>
<path fill="none" stroke="#191970" d="M228.6844,-112.1039C251.6661,-106.7626 278.4125,-100.5463 300.0387,-95.5201"/>
<polygon fill="#191970" stroke="#191970" points="227.706,-108.738 218.758,-114.411 229.2907,-115.5562 227.706,-108.738"/>
</g>
<!-- Node7 -->
<g id="node8" class="node">
<title>Node7</title>
<g id="a_node8"><a xlink:href="class_ogre_1_1_n_u_l_l_render_system.html" target="_top" xlink:title="Implementation of NULL as a rendering system. ">
<polygon fill="none" stroke="#000000" points="274,-38.5 274,-57.5 408,-57.5 408,-38.5 274,-38.5"/>
<text text-anchor="middle" x="341" y="-45.5" font-family="Helvetica,sans-Serif" font-size="10.00" fill="#000000">Ogre::NULLRenderSystem</text>
</a>
</g>
</g>
<!-- Node0&#45;&gt;Node7 -->
<g id="edge7" class="edge">
<title>Node0&#45;&gt;Node7</title>
<path fill="none" stroke="#191970" d="M198.3979,-108.2146C216.1075,-95.4988 242.6038,-77.9881 268,-67 276.6537,-63.2558 286.2142,-60.1148 295.4867,-57.5339"/>
<polygon fill="#191970" stroke="#191970" points="195.9933,-105.6372 189.9902,-114.3672 200.1272,-111.2862 195.9933,-105.6372"/>
</g>
<!-- Node8 -->
<g id="node9" class="node">
<title>Node8</title>
<g id="a_node9"><a xlink:href="class_ogre_1_1_vulkan_render_system.html" target="_top" xlink:title="Implementation of Vulkan as a rendering system. ">
<polygon fill="none" stroke="#000000" points="271.5,-.5 271.5,-19.5 410.5,-19.5 410.5,-.5 271.5,-.5"/>
<text text-anchor="middle" x="341" y="-7.5" font-family="Helvetica,sans-Serif" font-size="10.00" fill="#000000">Ogre::VulkanRenderSystem</text>
</a>
</g>
</g>
<!-- Node0&#45;&gt;Node8 -->
<g id="edge8" class="edge">
<title>Node0&#45;&gt;Node8</title>
<path fill="none" stroke="#191970" d="M189.8076,-105.9295C205.4583,-84.3547 234.5077,-48.72 268,-29 274.5453,-25.1462 281.8719,-22.0633 289.2898,-19.5999"/>
<polygon fill="#191970" stroke="#191970" points="186.8569,-104.0404 183.9466,-114.2277 192.5746,-108.0788 186.8569,-104.0404"/>
</g>
<!-- Node1 -->
<g id="node2" class="node">
<title>Node1</title>
<g id="a_node2"><a xlink:href="class_ogre_1_1_allocated_object.html" target="_top" xlink:title="Superclass for all objects that wish to use custom memory allocators when their new / delete operator...">
<polygon fill="none" stroke="#000000" points="0,-114.5 0,-133.5 87,-133.5 87,-114.5 0,-114.5"/>
<text text-anchor="middle" x="43.5" y="-121.5" font-family="Helvetica,sans-Serif" font-size="10.00" fill="#000000">RenderSysAlloc</text>
</a>
</g>
</g>
<!-- Node1&#45;&gt;Node0 -->
<g id="edge1" class="edge">
<title>Node1&#45;&gt;Node0</title>
<path fill="none" stroke="#191970" d="M97.1713,-124C105.6575,-124 114.4411,-124 122.9473,-124"/>
<polygon fill="#191970" stroke="#191970" points="97.006,-120.5001 87.006,-124 97.0059,-127.5001 97.006,-120.5001"/>
</g>
</g>
</svg>
