<?xml version="1.0" encoding="UTF-8" standalone="no"?>
<!DOCTYPE svg PUBLIC "-//W3C//DTD SVG 1.1//EN"
 "http://www.w3.org/Graphics/SVG/1.1/DTD/svg11.dtd">
<!-- Generated by graphviz version 2.40.1 (20161225.0304)
 -->
<!-- Title: Ogre::VaoManager Pages: 1 -->
<svg width="401pt" height="218pt"
 viewBox="0.00 0.00 401.00 218.00" xmlns="http://www.w3.org/2000/svg" xmlns:xlink="http://www.w3.org/1999/xlink">
<g id="graph0" class="graph" transform="scale(1 1) rotate(0) translate(4 214)">
<title>Ogre::VaoManager</title>
<!-- Node0 -->
<g id="node1" class="node">
<title>Node0</title>
<polygon fill="#bfbfbf" stroke="#000000" points="123,-95.5 123,-114.5 221,-114.5 221,-95.5 123,-95.5"/>
<text text-anchor="middle" x="172" y="-102.5" font-family="Helvetica,sans-Serif" font-size="10.00" fill="#000000">Ogre::VaoManager</text>
</g>
<!-- Node2 -->
<g id="node3" class="node">
<title>Node2</title>
<g id="a_node3"><a xlink:href="class_ogre_1_1_d3_d11_vao_manager.html" target="_top" xlink:title="Ogre::D3D11VaoManager">
<polygon fill="none" stroke="#000000" points="260.5,-190.5 260.5,-209.5 389.5,-209.5 389.5,-190.5 260.5,-190.5"/>
<text text-anchor="middle" x="325" y="-197.5" font-family="Helvetica,sans-Serif" font-size="10.00" fill="#000000">Ogre::D3D11VaoManager</text>
</a>
</g>
</g>
<!-- Node0&#45;&gt;Node2 -->
<g id="edge2" class="edge">
<title>Node0&#45;&gt;Node2</title>
<path fill="none" stroke="#191970" d="M186.9673,-122.4018C202.731,-139.6752 229.0978,-165.7204 257,-181 263.9883,-184.8269 271.8117,-187.9353 279.5956,-190.4435"/>
<polygon fill="#191970" stroke="#191970" points="189.3843,-119.853 180.1202,-114.7123 184.1565,-124.5082 189.3843,-119.853"/>
</g>
<!-- Node3 -->
<g id="node4" class="node">
<title>Node3</title>
<g id="a_node4"><a xlink:href="class_ogre_1_1_g_l3_plus_vao_manager.html" target="_top" xlink:title="Ogre::GL3PlusVaoManager">
<polygon fill="none" stroke="#000000" points="257,-152.5 257,-171.5 393,-171.5 393,-152.5 257,-152.5"/>
<text text-anchor="middle" x="325" y="-159.5" font-family="Helvetica,sans-Serif" font-size="10.00" fill="#000000">Ogre::GL3PlusVaoManager</text>
</a>
</g>
</g>
<!-- Node0&#45;&gt;Node3 -->
<g id="edge3" class="edge">
<title>Node0&#45;&gt;Node3</title>
<path fill="none" stroke="#191970" d="M200.724,-119.1181C216.9938,-126.7894 237.8618,-136.0912 257,-143 266.5695,-146.4545 277.0818,-149.6662 286.9196,-152.4295"/>
<polygon fill="#191970" stroke="#191970" points="201.7765,-115.7419 191.2446,-114.5883 198.7583,-122.0579 201.7765,-115.7419"/>
</g>
<!-- Node4 -->
<g id="node5" class="node">
<title>Node4</title>
<g id="a_node5"><a xlink:href="class_ogre_1_1_g_l_e_s2_vao_manager.html" target="_top" xlink:title="Ogre::GLES2VaoManager">
<polygon fill="none" stroke="#000000" points="260,-114.5 260,-133.5 390,-133.5 390,-114.5 260,-114.5"/>
<text text-anchor="middle" x="325" y="-121.5" font-family="Helvetica,sans-Serif" font-size="10.00" fill="#000000">Ogre::GLES2VaoManager</text>
</a>
</g>
</g>
<!-- Node0&#45;&gt;Node4 -->
<g id="edge4" class="edge">
<title>Node0&#45;&gt;Node4</title>
<path fill="none" stroke="#191970" d="M231.2685,-112.3601C240.6576,-113.5261 250.412,-114.7374 259.9253,-115.9188"/>
<polygon fill="#191970" stroke="#191970" points="231.6075,-108.8754 221.2523,-111.1163 230.7448,-115.8221 231.6075,-108.8754"/>
</g>
<!-- Node5 -->
<g id="node6" class="node">
<title>Node5</title>
<g id="a_node6"><a xlink:href="class_ogre_1_1_metal_vao_manager.html" target="_top" xlink:title="Ogre::MetalVaoManager">
<polygon fill="none" stroke="#000000" points="264,-76.5 264,-95.5 386,-95.5 386,-76.5 264,-76.5"/>
<text text-anchor="middle" x="325" y="-83.5" font-family="Helvetica,sans-Serif" font-size="10.00" fill="#000000">Ogre::MetalVaoManager</text>
</a>
</g>
</g>
<!-- Node0&#45;&gt;Node5 -->
<g id="edge5" class="edge">
<title>Node0&#45;&gt;Node5</title>
<path fill="none" stroke="#191970" d="M231.2919,-97.637C241.9433,-96.3142 253.0642,-94.9332 263.7693,-93.6038"/>
<polygon fill="#191970" stroke="#191970" points="230.7448,-94.1779 221.2523,-98.8837 231.6075,-101.1246 230.7448,-94.1779"/>
</g>
<!-- Node6 -->
<g id="node7" class="node">
<title>Node6</title>
<g id="a_node7"><a xlink:href="class_ogre_1_1_n_u_l_l_vao_manager.html" target="_top" xlink:title="Ogre::NULLVaoManager">
<polygon fill="none" stroke="#000000" points="263,-38.5 263,-57.5 387,-57.5 387,-38.5 263,-38.5"/>
<text text-anchor="middle" x="325" y="-45.5" font-family="Helvetica,sans-Serif" font-size="10.00" fill="#000000">Ogre::NULLVaoManager</text>
</a>
</g>
</g>
<!-- Node0&#45;&gt;Node6 -->
<g id="edge6" class="edge">
<title>Node0&#45;&gt;Node6</title>
<path fill="none" stroke="#191970" d="M200.724,-90.8819C216.9938,-83.2106 237.8618,-73.9088 257,-67 266.5695,-63.5455 277.0818,-60.3338 286.9196,-57.5705"/>
<polygon fill="#191970" stroke="#191970" points="198.7583,-87.9421 191.2446,-95.4117 201.7765,-94.2581 198.7583,-87.9421"/>
</g>
<!-- Node7 -->
<g id="node8" class="node">
<title>Node7</title>
<g id="a_node8"><a xlink:href="class_ogre_1_1_vulkan_vao_manager.html" target="_top" xlink:title="Ogre::VulkanVaoManager">
<polygon fill="none" stroke="#000000" points="261,-.5 261,-19.5 389,-19.5 389,-.5 261,-.5"/>
<text text-anchor="middle" x="325" y="-7.5" font-family="Helvetica,sans-Serif" font-size="10.00" fill="#000000">Ogre::VulkanVaoManager</text>
</a>
</g>
</g>
<!-- Node0&#45;&gt;Node7 -->
<g id="edge7" class="edge">
<title>Node0&#45;&gt;Node7</title>
<path fill="none" stroke="#191970" d="M186.9673,-87.5982C202.731,-70.3248 229.0978,-44.2796 257,-29 263.9883,-25.1731 271.8117,-22.0647 279.5956,-19.5565"/>
<polygon fill="#191970" stroke="#191970" points="184.1565,-85.4918 180.1202,-95.2877 189.3843,-90.147 184.1565,-85.4918"/>
</g>
<!-- Node1 -->
<g id="node2" class="node">
<title>Node1</title>
<g id="a_node2"><a xlink:href="class_ogre_1_1_allocated_object.html" target="_top" xlink:title="Superclass for all objects that wish to use custom memory allocators when their new / delete operator...">
<polygon fill="none" stroke="#000000" points="0,-95.5 0,-114.5 87,-114.5 87,-95.5 0,-95.5"/>
<text text-anchor="middle" x="43.5" y="-102.5" font-family="Helvetica,sans-Serif" font-size="10.00" fill="#000000">RenderSysAlloc</text>
</a>
</g>
</g>
<!-- Node1&#45;&gt;Node0 -->
<g id="edge1" class="edge">
<title>Node1&#45;&gt;Node0</title>
<path fill="none" stroke="#191970" d="M97.1883,-105C105.6739,-105 114.4123,-105 122.7893,-105"/>
<polygon fill="#191970" stroke="#191970" points="97.0043,-101.5001 87.0042,-105 97.0042,-108.5001 97.0043,-101.5001"/>
</g>
</g>
</svg>
