<?xml version="1.0" encoding="UTF-8" standalone="no"?>
<!DOCTYPE svg PUBLIC "-//W3C//DTD SVG 1.1//EN"
 "http://www.w3.org/Graphics/SVG/1.1/DTD/svg11.dtd">
<!-- Generated by graphviz version 2.40.1 (20161225.0304)
 -->
<!-- Title: Ogre::CompositorPass Pages: 1 -->
<svg width="467pt" height="332pt"
 viewBox="0.00 0.00 467.00 332.00" xmlns="http://www.w3.org/2000/svg" xmlns:xlink="http://www.w3.org/1999/xlink">
<g id="graph0" class="graph" transform="scale(1 1) rotate(0) translate(4 328)">
<title>Ogre::CompositorPass</title>
<!-- Node0 -->
<g id="node1" class="node">
<title>Node0</title>
<polygon fill="#bfbfbf" stroke="#000000" points="141,-152.5 141,-171.5 257,-171.5 257,-152.5 141,-152.5"/>
<text text-anchor="middle" x="199" y="-159.5" font-family="Helvetica,sans-Serif" font-size="10.00" fill="#000000">Ogre::CompositorPass</text>
</g>
<!-- Node2 -->
<g id="node3" class="node">
<title>Node2</title>
<g id="a_node3"><a xlink:href="class_ogre_1_1_compositor_pass_clear.html" target="_top" xlink:title="Implementation of CompositorPass This implementation will clear the RenderTarget using the parameters...">
<polygon fill="none" stroke="#000000" points="306,-304.5 306,-323.5 446,-323.5 446,-304.5 306,-304.5"/>
<text text-anchor="middle" x="376" y="-311.5" font-family="Helvetica,sans-Serif" font-size="10.00" fill="#000000">Ogre::CompositorPassClear</text>
</a>
</g>
</g>
<!-- Node0&#45;&gt;Node2 -->
<g id="edge2" class="edge">
<title>Node0&#45;&gt;Node2</title>
<path fill="none" stroke="#191970" d="M206.9825,-181.0257C220.2982,-210.3265 249.9024,-266.1256 293,-295 298.772,-298.8671 305.2223,-301.9547 311.9072,-304.4187"/>
<polygon fill="#191970" stroke="#191970" points="210.0396,-179.2818 202.8189,-171.5286 203.6286,-182.0924 210.0396,-179.2818"/>
</g>
<!-- Node3 -->
<g id="node4" class="node">
<title>Node3</title>
<g id="a_node4"><a xlink:href="class_ogre_1_1_compositor_pass_compute.html" target="_top" xlink:title="Implementation of CompositorPass This implementation will render a fullscreen triangle/quad to the Re...">
<polygon fill="none" stroke="#000000" points="298,-266.5 298,-285.5 454,-285.5 454,-266.5 298,-266.5"/>
<text text-anchor="middle" x="376" y="-273.5" font-family="Helvetica,sans-Serif" font-size="10.00" fill="#000000">Ogre::CompositorPassCompute</text>
</a>
</g>
</g>
<!-- Node0&#45;&gt;Node3 -->
<g id="edge3" class="edge">
<title>Node0&#45;&gt;Node3</title>
<path fill="none" stroke="#191970" d="M211.5988,-179.8933C227.8599,-201.5896 258.2304,-237.6487 293,-257 299.975,-260.882 307.7005,-263.9717 315.5495,-266.4306"/>
<polygon fill="#191970" stroke="#191970" points="214.2436,-177.58 205.5219,-171.5648 208.5888,-181.706 214.2436,-177.58"/>
</g>
<!-- Node4 -->
<g id="node5" class="node">
<title>Node4</title>
<g id="a_node5"><a xlink:href="class_ogre_1_1_compositor_pass_depth_copy.html" target="_top" xlink:title="Implementation of CompositorPass This implementation will copy one DepthBuffer to another DepthBuffer...">
<polygon fill="none" stroke="#000000" points="293,-228.5 293,-247.5 459,-247.5 459,-228.5 293,-228.5"/>
<text text-anchor="middle" x="376" y="-235.5" font-family="Helvetica,sans-Serif" font-size="10.00" fill="#000000">Ogre::CompositorPassDepthCopy</text>
</a>
</g>
</g>
<!-- Node0&#45;&gt;Node4 -->
<g id="edge4" class="edge">
<title>Node0&#45;&gt;Node4</title>
<path fill="none" stroke="#191970" d="M219.8977,-177.374C238.2941,-190.2296 266.2472,-208.157 293,-219 302.316,-222.7758 312.539,-225.8863 322.53,-228.4185"/>
<polygon fill="#191970" stroke="#191970" points="221.8576,-174.473 211.6815,-171.5237 217.7974,-180.1752 221.8576,-174.473"/>
</g>
<!-- Node5 -->
<g id="node6" class="node">
<title>Node5</title>
<g id="a_node6"><a xlink:href="class_ogre_1_1_compositor_pass_ibl_specular.html" target="_top" xlink:title="Implementation of CompositorPass This implementation will generate IblSpeculars for the specified tex...">
<polygon fill="none" stroke="#000000" points="293.5,-190.5 293.5,-209.5 458.5,-209.5 458.5,-190.5 293.5,-190.5"/>
<text text-anchor="middle" x="376" y="-197.5" font-family="Helvetica,sans-Serif" font-size="10.00" fill="#000000">Ogre::CompositorPassIblSpecular</text>
</a>
</g>
</g>
<!-- Node0&#45;&gt;Node5 -->
<g id="edge5" class="edge">
<title>Node0&#45;&gt;Node5</title>
<path fill="none" stroke="#191970" d="M253.7423,-173.7526C278.77,-179.1258 308.0348,-185.4086 331.6566,-190.4799"/>
<polygon fill="#191970" stroke="#191970" points="254.1765,-170.2661 243.6646,-171.589 252.7071,-177.1102 254.1765,-170.2661"/>
</g>
<!-- Node6 -->
<g id="node7" class="node">
<title>Node6</title>
<g id="a_node7"><a xlink:href="class_ogre_1_1_compositor_pass_mipmap.html" target="_top" xlink:title="Implementation of CompositorPass This implementation will generate mipmaps for the specified texture...">
<polygon fill="none" stroke="#000000" points="300.5,-152.5 300.5,-171.5 451.5,-171.5 451.5,-152.5 300.5,-152.5"/>
<text text-anchor="middle" x="376" y="-159.5" font-family="Helvetica,sans-Serif" font-size="10.00" fill="#000000">Ogre::CompositorPassMipmap</text>
</a>
</g>
</g>
<!-- Node0&#45;&gt;Node6 -->
<g id="edge6" class="edge">
<title>Node0&#45;&gt;Node6</title>
<path fill="none" stroke="#191970" d="M267.5667,-162C278.2759,-162 289.3958,-162 300.2541,-162"/>
<polygon fill="#191970" stroke="#191970" points="267.447,-158.5001 257.447,-162 267.4469,-165.5001 267.447,-158.5001"/>
</g>
<!-- Node7 -->
<g id="node8" class="node">
<title>Node7</title>
<g id="a_node8"><a xlink:href="class_ogre_1_1_compositor_pass_quad.html" target="_top" xlink:title="Implementation of CompositorPass This implementation will render a fullscreen triangle/quad to the Re...">
<polygon fill="none" stroke="#000000" points="306,-114.5 306,-133.5 446,-133.5 446,-114.5 306,-114.5"/>
<text text-anchor="middle" x="376" y="-121.5" font-family="Helvetica,sans-Serif" font-size="10.00" fill="#000000">Ogre::CompositorPassQuad</text>
</a>
</g>
</g>
<!-- Node0&#45;&gt;Node7 -->
<g id="edge7" class="edge">
<title>Node0&#45;&gt;Node7</title>
<path fill="none" stroke="#191970" d="M253.7423,-150.2474C278.77,-144.8742 308.0348,-138.5914 331.6566,-133.5201"/>
<polygon fill="#191970" stroke="#191970" points="252.7071,-146.8898 243.6646,-152.411 254.1765,-153.7339 252.7071,-146.8898"/>
</g>
<!-- Node8 -->
<g id="node9" class="node">
<title>Node8</title>
<g id="a_node9"><a xlink:href="class_ogre_1_1_compositor_pass_scene.html" target="_top" xlink:title="Implementation of CompositorPass This implementation will perform main rendering, selecting several p...">
<polygon fill="none" stroke="#000000" points="304,-76.5 304,-95.5 448,-95.5 448,-76.5 304,-76.5"/>
<text text-anchor="middle" x="376" y="-83.5" font-family="Helvetica,sans-Serif" font-size="10.00" fill="#000000">Ogre::CompositorPassScene</text>
</a>
</g>
</g>
<!-- Node0&#45;&gt;Node8 -->
<g id="edge8" class="edge">
<title>Node0&#45;&gt;Node8</title>
<path fill="none" stroke="#191970" d="M219.8977,-146.626C238.2941,-133.7704 266.2472,-115.843 293,-105 302.316,-101.2242 312.539,-98.1137 322.53,-95.5815"/>
<polygon fill="#191970" stroke="#191970" points="217.7974,-143.8248 211.6815,-152.4763 221.8576,-149.527 217.7974,-143.8248"/>
</g>
<!-- Node9 -->
<g id="node10" class="node">
<title>Node9</title>
<g id="a_node10"><a xlink:href="class_ogre_1_1_compositor_pass_stencil.html" target="_top" xlink:title="Implementation of CompositorPass This implementation will clear the RenderTarget using the parameters...">
<polygon fill="none" stroke="#000000" points="303,-38.5 303,-57.5 449,-57.5 449,-38.5 303,-38.5"/>
<text text-anchor="middle" x="376" y="-45.5" font-family="Helvetica,sans-Serif" font-size="10.00" fill="#000000">Ogre::CompositorPassStencil</text>
</a>
</g>
</g>
<!-- Node0&#45;&gt;Node9 -->
<g id="edge9" class="edge">
<title>Node0&#45;&gt;Node9</title>
<path fill="none" stroke="#191970" d="M211.5988,-144.1067C227.8599,-122.4104 258.2304,-86.3513 293,-67 299.975,-63.118 307.7005,-60.0283 315.5495,-57.5694"/>
<polygon fill="#191970" stroke="#191970" points="208.5888,-142.294 205.5219,-152.4352 214.2436,-146.42 208.5888,-142.294"/>
</g>
<!-- Node10 -->
<g id="node11" class="node">
<title>Node10</title>
<g id="a_node11"><a xlink:href="class_ogre_1_1_compositor_pass_uav.html" target="_top" xlink:title="Implementation of CompositorPass This implementation will set UAVs. ">
<polygon fill="none" stroke="#000000" points="309,-.5 309,-19.5 443,-19.5 443,-.5 309,-.5"/>
<text text-anchor="middle" x="376" y="-7.5" font-family="Helvetica,sans-Serif" font-size="10.00" fill="#000000">Ogre::CompositorPassUav</text>
</a>
</g>
</g>
<!-- Node0&#45;&gt;Node10 -->
<g id="edge10" class="edge">
<title>Node0&#45;&gt;Node10</title>
<path fill="none" stroke="#191970" d="M206.9825,-142.9743C220.2982,-113.6735 249.9024,-57.8744 293,-29 298.772,-25.1329 305.2223,-22.0453 311.9072,-19.5813"/>
<polygon fill="#191970" stroke="#191970" points="203.6286,-141.9076 202.8189,-152.4714 210.0396,-144.7182 203.6286,-141.9076"/>
</g>
<!-- Node1 -->
<g id="node2" class="node">
<title>Node1</title>
<g id="a_node2"><a xlink:href="class_ogre_1_1_allocated_object.html" target="_top" xlink:title="Superclass for all objects that wish to use custom memory allocators when their new / delete operator...">
<polygon fill="none" stroke="#000000" points="0,-152.5 0,-171.5 105,-171.5 105,-152.5 0,-152.5"/>
<text text-anchor="middle" x="52.5" y="-159.5" font-family="Helvetica,sans-Serif" font-size="10.00" fill="#000000">CompositorInstAlloc</text>
</a>
</g>
</g>
<!-- Node1&#45;&gt;Node0 -->
<g id="edge1" class="edge">
<title>Node1&#45;&gt;Node0</title>
<path fill="none" stroke="#191970" d="M115.4914,-162C123.8721,-162 132.4354,-162 140.731,-162"/>
<polygon fill="#191970" stroke="#191970" points="115.3899,-158.5001 105.3899,-162 115.3898,-165.5001 115.3899,-158.5001"/>
</g>
</g>
</svg>
