<?xml version="1.0" encoding="UTF-8" standalone="no"?>
<!DOCTYPE svg PUBLIC "-//W3C//DTD SVG 1.1//EN"
 "http://www.w3.org/Graphics/SVG/1.1/DTD/svg11.dtd">
<!-- Generated by graphviz version 2.44.0 ()
 -->
<!-- Title: Ogre::v1::MeshSerializerImpl_v1_10 Pages: 1 -->
<svg width="148pt" height="475pt"
 viewBox="0.00 0.00 148.00 475.00" xmlns="http://www.w3.org/2000/svg" xmlns:xlink="http://www.w3.org/1999/xlink">
<g id="graph0" class="graph" transform="scale(1 1) rotate(0) translate(4 471)">
<title>Ogre::v1::MeshSerializerImpl_v1_10</title>
<!-- Node1 -->
<g id="node1" class="node">
<title>Node1</title>
<g id="a_node1"><a xlink:title="Class for providing backwards&#45;compatibility for loading version 1.10 of the .mesh format.">
<polygon fill="#bfbfbf" stroke="black" points="9.5,-268.5 9.5,-298.5 130.5,-298.5 130.5,-268.5 9.5,-268.5"/>
<text text-anchor="start" x="17.5" y="-286.5" font-family="Helvetica,sans-Serif" font-size="10.00">Ogre::v1::MeshSerializer</text>
<text text-anchor="middle" x="70" y="-275.5" font-family="Helvetica,sans-Serif" font-size="10.00">Impl_v1_10</text>
</a>
</g>
</g>
<!-- Node5 -->
<g id="node5" class="node">
<title>Node5</title>
<g id="a_node5"><a xlink:href="class_ogre_1_1v1_1_1_mesh_serializer_impl__v1__8.html" target="_top" xlink:title="Class for providing backwards&#45;compatibility for loading version 1.8 of the .mesh format.">
<polygon fill="none" stroke="black" points="9.5,-201.5 9.5,-231.5 130.5,-231.5 130.5,-201.5 9.5,-201.5"/>
<text text-anchor="start" x="17.5" y="-219.5" font-family="Helvetica,sans-Serif" font-size="10.00">Ogre::v1::MeshSerializer</text>
<text text-anchor="middle" x="70" y="-208.5" font-family="Helvetica,sans-Serif" font-size="10.00">Impl_v1_8</text>
</a>
</g>
</g>
<!-- Node1&#45;&gt;Node5 -->
<g id="edge4" class="edge">
<title>Node1&#45;&gt;Node5</title>
<path fill="none" stroke="midnightblue" d="M70,-258.11C70,-249.15 70,-239.32 70,-231.58"/>
<polygon fill="midnightblue" stroke="midnightblue" points="66.5,-258.4 70,-268.4 73.5,-258.4 66.5,-258.4"/>
</g>
<!-- Node2 -->
<g id="node2" class="node">
<title>Node2</title>
<g id="a_node2"><a xlink:href="class_ogre_1_1v1_1_1_mesh_serializer_impl.html" target="_top" xlink:title="Internal implementation of Mesh reading / writing for the latest version of the .mesh format.">
<polygon fill="none" stroke="black" points="0,-335.5 0,-354.5 140,-354.5 140,-335.5 0,-335.5"/>
<text text-anchor="middle" x="70" y="-342.5" font-family="Helvetica,sans-Serif" font-size="10.00">Ogre::v1::MeshSerializerImpl</text>
</a>
</g>
</g>
<!-- Node2&#45;&gt;Node1 -->
<g id="edge1" class="edge">
<title>Node2&#45;&gt;Node1</title>
<path fill="none" stroke="midnightblue" d="M70,-325.23C70,-316.59 70,-306.5 70,-298.52"/>
<polygon fill="midnightblue" stroke="midnightblue" points="66.5,-325.48 70,-335.48 73.5,-325.48 66.5,-325.48"/>
</g>
<!-- Node3 -->
<g id="node3" class="node">
<title>Node3</title>
<g id="a_node3"><a xlink:href="class_ogre_1_1_serializer.html" target="_top" xlink:title="Generic class for serialising data to / from binary stream&#45;based files.">
<polygon fill="none" stroke="black" points="29,-391.5 29,-410.5 111,-410.5 111,-391.5 29,-391.5"/>
<text text-anchor="middle" x="70" y="-398.5" font-family="Helvetica,sans-Serif" font-size="10.00">Ogre::Serializer</text>
</a>
</g>
</g>
<!-- Node3&#45;&gt;Node2 -->
<g id="edge2" class="edge">
<title>Node3&#45;&gt;Node2</title>
<path fill="none" stroke="midnightblue" d="M70,-380.8C70,-371.91 70,-361.78 70,-354.75"/>
<polygon fill="midnightblue" stroke="midnightblue" points="66.5,-381.08 70,-391.08 73.5,-381.08 66.5,-381.08"/>
</g>
<!-- Node4 -->
<g id="node4" class="node">
<title>Node4</title>
<g id="a_node4"><a xlink:href="class_ogre_1_1_allocated_object.html" target="_top" xlink:title="Superclass for all objects that wish to use custom memory allocators when their new / delete operator...">
<polygon fill="none" stroke="black" points="31,-447.5 31,-466.5 109,-466.5 109,-447.5 31,-447.5"/>
<text text-anchor="middle" x="70" y="-454.5" font-family="Helvetica,sans-Serif" font-size="10.00">SerializerAlloc</text>
</a>
</g>
</g>
<!-- Node4&#45;&gt;Node3 -->
<g id="edge3" class="edge">
<title>Node4&#45;&gt;Node3</title>
<path fill="none" stroke="midnightblue" d="M70,-436.8C70,-427.91 70,-417.78 70,-410.75"/>
<polygon fill="midnightblue" stroke="midnightblue" points="66.5,-437.08 70,-447.08 73.5,-437.08 66.5,-437.08"/>
</g>
<!-- Node6 -->
<g id="node6" class="node">
<title>Node6</title>
<g id="a_node6"><a xlink:href="class_ogre_1_1v1_1_1_mesh_serializer_impl__v1__41.html" target="_top" xlink:title="Class for providing backwards&#45;compatibility for loading version 1.41 of the .mesh format.">
<polygon fill="none" stroke="black" points="9.5,-134.5 9.5,-164.5 130.5,-164.5 130.5,-134.5 9.5,-134.5"/>
<text text-anchor="start" x="17.5" y="-152.5" font-family="Helvetica,sans-Serif" font-size="10.00">Ogre::v1::MeshSerializer</text>
<text text-anchor="middle" x="70" y="-141.5" font-family="Helvetica,sans-Serif" font-size="10.00">Impl_v1_41</text>
</a>
</g>
</g>
<!-- Node5&#45;&gt;Node6 -->
<g id="edge5" class="edge">
<title>Node5&#45;&gt;Node6</title>
<path fill="none" stroke="midnightblue" d="M70,-191.11C70,-182.15 70,-172.32 70,-164.58"/>
<polygon fill="midnightblue" stroke="midnightblue" points="66.5,-191.4 70,-201.4 73.5,-191.4 66.5,-191.4"/>
</g>
<!-- Node7 -->
<g id="node7" class="node">
<title>Node7</title>
<g id="a_node7"><a xlink:href="class_ogre_1_1v1_1_1_mesh_serializer_impl__v1__4.html" target="_top" xlink:title="Class for providing backwards&#45;compatibility for loading version 1.4 of the .mesh format.">
<polygon fill="none" stroke="black" points="9.5,-67.5 9.5,-97.5 130.5,-97.5 130.5,-67.5 9.5,-67.5"/>
<text text-anchor="start" x="17.5" y="-85.5" font-family="Helvetica,sans-Serif" font-size="10.00">Ogre::v1::MeshSerializer</text>
<text text-anchor="middle" x="70" y="-74.5" font-family="Helvetica,sans-Serif" font-size="10.00">Impl_v1_4</text>
</a>
</g>
</g>
<!-- Node6&#45;&gt;Node7 -->
<g id="edge6" class="edge">
<title>Node6&#45;&gt;Node7</title>
<path fill="none" stroke="midnightblue" d="M70,-124.11C70,-115.15 70,-105.32 70,-97.58"/>
<polygon fill="midnightblue" stroke="midnightblue" points="66.5,-124.4 70,-134.4 73.5,-124.4 66.5,-124.4"/>
</g>
<!-- Node8 -->
<g id="node8" class="node">
<title>Node8</title>
<g id="a_node8"><a xlink:href="class_ogre_1_1v1_1_1_mesh_serializer_impl__v1__3.html" target="_top" xlink:title="Class for providing backwards&#45;compatibility for loading version 1.3 of the .mesh format.">
<polygon fill="none" stroke="red" points="9.5,-0.5 9.5,-30.5 130.5,-30.5 130.5,-0.5 9.5,-0.5"/>
<text text-anchor="start" x="17.5" y="-18.5" font-family="Helvetica,sans-Serif" font-size="10.00">Ogre::v1::MeshSerializer</text>
<text text-anchor="middle" x="70" y="-7.5" font-family="Helvetica,sans-Serif" font-size="10.00">Impl_v1_3</text>
</a>
</g>
</g>
<!-- Node7&#45;&gt;Node8 -->
<g id="edge7" class="edge">
<title>Node7&#45;&gt;Node8</title>
<path fill="none" stroke="midnightblue" d="M70,-57.11C70,-48.15 70,-38.32 70,-30.58"/>
<polygon fill="midnightblue" stroke="midnightblue" points="66.5,-57.4 70,-67.4 73.5,-57.4 66.5,-57.4"/>
</g>
</g>
</svg>
