<?xml version="1.0" encoding="UTF-8" standalone="no"?>
<!DOCTYPE svg PUBLIC "-//W3C//DTD SVG 1.1//EN"
 "http://www.w3.org/Graphics/SVG/1.1/DTD/svg11.dtd">
<!-- Generated by graphviz version 2.44.0 ()
 -->
<!-- Title: Ogre::D3D11TextureGpuWindow Pages: 1 -->
<svg width="352pt" height="263pt"
 viewBox="0.00 0.00 352.00 263.00" xmlns="http://www.w3.org/2000/svg" xmlns:xlink="http://www.w3.org/1999/xlink">
<g id="graph0" class="graph" transform="scale(1 1) rotate(0) translate(4 259)">
<title>Ogre::D3D11TextureGpuWindow</title>
<!-- Node1 -->
<g id="node1" class="node">
<title>Node1</title>
<g id="a_node1"><a xlink:title=" ">
<polygon fill="#bfbfbf" stroke="black" points="126.5,-0.5 126.5,-19.5 282.5,-19.5 282.5,-0.5 126.5,-0.5"/>
<text text-anchor="middle" x="204.5" y="-7.5" font-family="Helvetica,sans-Serif" font-size="10.00">Ogre::D3D11TextureGpuWindow</text>
</a>
</g>
</g>
<!-- Node2 -->
<g id="node2" class="node">
<title>Node2</title>
<g id="a_node2"><a xlink:href="class_ogre_1_1_d3_d11_texture_gpu_render_target.html" target="_top" xlink:title=" ">
<polygon fill="none" stroke="black" points="128.5,-56.5 128.5,-86.5 280.5,-86.5 280.5,-56.5 128.5,-56.5"/>
<text text-anchor="start" x="136.5" y="-74.5" font-family="Helvetica,sans-Serif" font-size="10.00">Ogre::D3D11TextureGpuRender</text>
<text text-anchor="middle" x="204.5" y="-63.5" font-family="Helvetica,sans-Serif" font-size="10.00">Target</text>
</a>
</g>
</g>
<!-- Node2&#45;&gt;Node1 -->
<g id="edge1" class="edge">
<title>Node2&#45;&gt;Node1</title>
<path fill="none" stroke="midnightblue" d="M204.5,-46.29C204.5,-36.86 204.5,-26.65 204.5,-19.66"/>
<polygon fill="midnightblue" stroke="midnightblue" points="201,-46.4 204.5,-56.4 208,-46.4 201,-46.4"/>
</g>
<!-- Node3 -->
<g id="node3" class="node">
<title>Node3</title>
<g id="a_node3"><a xlink:href="class_ogre_1_1_d3_d11_texture_gpu.html" target="_top" xlink:title=" ">
<polygon fill="none" stroke="black" points="143.5,-123.5 143.5,-142.5 265.5,-142.5 265.5,-123.5 143.5,-123.5"/>
<text text-anchor="middle" x="204.5" y="-130.5" font-family="Helvetica,sans-Serif" font-size="10.00">Ogre::D3D11TextureGpu</text>
</a>
</g>
</g>
<!-- Node3&#45;&gt;Node2 -->
<g id="edge2" class="edge">
<title>Node3&#45;&gt;Node2</title>
<path fill="none" stroke="midnightblue" d="M204.5,-113.23C204.5,-104.59 204.5,-94.5 204.5,-86.52"/>
<polygon fill="midnightblue" stroke="midnightblue" points="201,-113.48 204.5,-123.48 208,-113.48 201,-113.48"/>
</g>
<!-- Node4 -->
<g id="node4" class="node">
<title>Node4</title>
<g id="a_node4"><a xlink:href="class_ogre_1_1_texture_gpu.html" target="_top" xlink:title=" ">
<polygon fill="none" stroke="black" points="90.5,-179.5 90.5,-198.5 182.5,-198.5 182.5,-179.5 90.5,-179.5"/>
<text text-anchor="middle" x="136.5" y="-186.5" font-family="Helvetica,sans-Serif" font-size="10.00">Ogre::TextureGpu</text>
</a>
</g>
</g>
<!-- Node4&#45;&gt;Node3 -->
<g id="edge3" class="edge">
<title>Node4&#45;&gt;Node3</title>
<path fill="none" stroke="midnightblue" d="M155.26,-173.1C167.5,-163.38 183.06,-151.03 193.38,-142.83"/>
<polygon fill="midnightblue" stroke="midnightblue" points="153.08,-170.36 147.43,-179.32 157.43,-175.85 153.08,-170.36"/>
</g>
<!-- Node5 -->
<g id="node5" class="node">
<title>Node5</title>
<g id="a_node5"><a xlink:href="struct_ogre_1_1_gpu_tracked_resource.html" target="_top" xlink:title=" ">
<polygon fill="none" stroke="black" points="0,-235.5 0,-254.5 137,-254.5 137,-235.5 0,-235.5"/>
<text text-anchor="middle" x="68.5" y="-242.5" font-family="Helvetica,sans-Serif" font-size="10.00">Ogre::GpuTrackedResource</text>
</a>
</g>
</g>
<!-- Node5&#45;&gt;Node4 -->
<g id="edge4" class="edge">
<title>Node5&#45;&gt;Node4</title>
<path fill="none" stroke="midnightblue" d="M87.26,-229.1C99.5,-219.38 115.06,-207.03 125.38,-198.83"/>
<polygon fill="midnightblue" stroke="midnightblue" points="85.08,-226.36 79.43,-235.32 89.43,-231.85 85.08,-226.36"/>
</g>
<!-- Node6 -->
<g id="node6" class="node">
<title>Node6</title>
<g id="a_node6"><a xlink:href="class_ogre_1_1_gpu_resource.html" target="_top" xlink:title=" ">
<polygon fill="none" stroke="red" points="155,-235.5 155,-254.5 256,-254.5 256,-235.5 155,-235.5"/>
<text text-anchor="middle" x="205.5" y="-242.5" font-family="Helvetica,sans-Serif" font-size="10.00">Ogre::GpuResource</text>
</a>
</g>
</g>
<!-- Node6&#45;&gt;Node4 -->
<g id="edge5" class="edge">
<title>Node6&#45;&gt;Node4</title>
<path fill="none" stroke="midnightblue" d="M186.46,-229.1C174.04,-219.38 158.26,-207.03 147.79,-198.83"/>
<polygon fill="midnightblue" stroke="midnightblue" points="184.38,-231.92 194.41,-235.32 188.7,-226.4 184.38,-231.92"/>
</g>
<!-- Node8 -->
<g id="node7" class="node">
<title>Node8</title>
<g id="a_node7"><a xlink:href="class_ogre_1_1_d3_d11_device_resource.html" target="_top" xlink:title="Represents a Direct3D rendering resource.">
<polygon fill="none" stroke="black" points="201,-179.5 201,-198.5 344,-198.5 344,-179.5 201,-179.5"/>
<text text-anchor="middle" x="272.5" y="-186.5" font-family="Helvetica,sans-Serif" font-size="10.00">Ogre::D3D11DeviceResource</text>
</a>
</g>
</g>
<!-- Node8&#45;&gt;Node3 -->
<g id="edge6" class="edge">
<title>Node8&#45;&gt;Node3</title>
<path fill="none" stroke="#8b1a1a" d="M253.74,-173.1C241.5,-163.38 225.94,-151.03 215.62,-142.83"/>
<polygon fill="#8b1a1a" stroke="#8b1a1a" points="251.57,-175.85 261.57,-179.32 255.92,-170.36 251.57,-175.85"/>
</g>
</g>
</svg>
