<?xml version="1.0" encoding="UTF-8" standalone="no"?>
<!DOCTYPE svg PUBLIC "-//W3C//DTD SVG 1.1//EN"
 "http://www.w3.org/Graphics/SVG/1.1/DTD/svg11.dtd">
<!-- Generated by graphviz version 2.44.0 ()
 -->
<!-- Title: Ogre::RenderSystem Pages: 1 -->
<svg width="416pt" height="256pt"
 viewBox="0.00 0.00 416.00 256.00" xmlns="http://www.w3.org/2000/svg" xmlns:xlink="http://www.w3.org/1999/xlink">
<g id="graph0" class="graph" transform="scale(1 1) rotate(0) translate(4 252)">
<title>Ogre::RenderSystem</title>
<!-- Node1 -->
<g id="node1" class="node">
<title>Node1</title>
<g id="a_node1"><a xlink:title="Defines the functionality of a 3D API.">
<polygon fill="#bfbfbf" stroke="black" points="122,-114.5 122,-133.5 228,-133.5 228,-114.5 122,-114.5"/>
<text text-anchor="middle" x="175" y="-121.5" font-family="Helvetica,sans-Serif" font-size="10.00">Ogre::RenderSystem</text>
</a>
</g>
</g>
<!-- Node3 -->
<g id="node3" class="node">
<title>Node3</title>
<g id="a_node3"><a xlink:href="class_ogre_1_1_d3_d11_render_system.html" target="_top" xlink:title="Implementation of DirectX11 as a rendering system.">
<polygon fill="none" stroke="black" points="268.5,-228.5 268.5,-247.5 403.5,-247.5 403.5,-228.5 268.5,-228.5"/>
<text text-anchor="middle" x="336" y="-235.5" font-family="Helvetica,sans-Serif" font-size="10.00">Ogre::D3D11RenderSystem</text>
</a>
</g>
</g>
<!-- Node1&#45;&gt;Node3 -->
<g id="edge2" class="edge">
<title>Node1&#45;&gt;Node3</title>
<path fill="none" stroke="midnightblue" d="M187.87,-142.04C203,-163.59 231.15,-199.19 264,-219 270.45,-222.89 277.69,-225.99 285.03,-228.47"/>
<polygon fill="midnightblue" stroke="midnightblue" points="190.74,-140.04 182.21,-133.76 184.96,-143.99 190.74,-140.04"/>
</g>
<!-- Node4 -->
<g id="node4" class="node">
<title>Node4</title>
<g id="a_node4"><a xlink:href="class_ogre_1_1_d3_d9_render_system.html" target="_top" xlink:title="Implementation of DirectX9 as a rendering system.">
<polygon fill="none" stroke="black" points="271,-190.5 271,-209.5 401,-209.5 401,-190.5 271,-190.5"/>
<text text-anchor="middle" x="336" y="-197.5" font-family="Helvetica,sans-Serif" font-size="10.00">Ogre::D3D9RenderSystem</text>
</a>
</g>
</g>
<!-- Node1&#45;&gt;Node4 -->
<g id="edge3" class="edge">
<title>Node1&#45;&gt;Node4</title>
<path fill="none" stroke="midnightblue" d="M196.27,-139.77C213.46,-152.48 239.21,-169.99 264,-181 272.4,-184.73 281.69,-187.87 290.7,-190.44"/>
<polygon fill="midnightblue" stroke="midnightblue" points="198.2,-136.85 188.11,-133.62 193.99,-142.44 198.2,-136.85"/>
</g>
<!-- Node5 -->
<g id="node5" class="node">
<title>Node5</title>
<g id="a_node5"><a xlink:href="class_ogre_1_1_g_l3_plus_render_system.html" target="_top" xlink:title="Implementation of GL 3 as a rendering system.">
<polygon fill="none" stroke="black" points="264,-152.5 264,-171.5 408,-171.5 408,-152.5 264,-152.5"/>
<text text-anchor="middle" x="336" y="-159.5" font-family="Helvetica,sans-Serif" font-size="10.00">Ogre::GL3PlusRenderSystem</text>
</a>
</g>
</g>
<!-- Node1&#45;&gt;Node5 -->
<g id="edge4" class="edge">
<title>Node1&#45;&gt;Node5</title>
<path fill="none" stroke="midnightblue" d="M226.08,-135.97C248.36,-141.29 274.23,-147.48 295.17,-152.48"/>
<polygon fill="midnightblue" stroke="midnightblue" points="226.66,-132.51 216.12,-133.59 225.03,-139.32 226.66,-132.51"/>
</g>
<!-- Node6 -->
<g id="node6" class="node">
<title>Node6</title>
<g id="a_node6"><a xlink:href="class_ogre_1_1_g_l_e_s2_render_system.html" target="_top" xlink:title="Implementation of GL ES 2.x as a rendering system.">
<polygon fill="none" stroke="black" points="267.5,-114.5 267.5,-133.5 404.5,-133.5 404.5,-114.5 267.5,-114.5"/>
<text text-anchor="middle" x="336" y="-121.5" font-family="Helvetica,sans-Serif" font-size="10.00">Ogre::GLES2RenderSystem</text>
</a>
</g>
</g>
<!-- Node1&#45;&gt;Node6 -->
<g id="edge5" class="edge">
<title>Node1&#45;&gt;Node6</title>
<path fill="none" stroke="midnightblue" d="M238.29,-124C247.86,-124 257.79,-124 267.47,-124"/>
<polygon fill="midnightblue" stroke="midnightblue" points="238.06,-120.5 228.06,-124 238.06,-127.5 238.06,-120.5"/>
</g>
<!-- Node7 -->
<g id="node7" class="node">
<title>Node7</title>
<g id="a_node7"><a xlink:href="class_ogre_1_1_metal_render_system.html" target="_top" xlink:title="Implementation of Metal as a rendering system.">
<polygon fill="none" stroke="black" points="271,-76.5 271,-95.5 401,-95.5 401,-76.5 271,-76.5"/>
<text text-anchor="middle" x="336" y="-83.5" font-family="Helvetica,sans-Serif" font-size="10.00">Ogre::MetalRenderSystem</text>
</a>
</g>
</g>
<!-- Node1&#45;&gt;Node7 -->
<g id="edge6" class="edge">
<title>Node1&#45;&gt;Node7</title>
<path fill="none" stroke="midnightblue" d="M226.08,-112.03C248.36,-106.71 274.23,-100.52 295.17,-95.52"/>
<polygon fill="midnightblue" stroke="midnightblue" points="225.03,-108.68 216.12,-114.41 226.66,-115.49 225.03,-108.68"/>
</g>
<!-- Node8 -->
<g id="node8" class="node">
<title>Node8</title>
<g id="a_node8"><a xlink:href="class_ogre_1_1_n_u_l_l_render_system.html" target="_top" xlink:title="Implementation of NULL as a rendering system.">
<polygon fill="none" stroke="black" points="269.5,-38.5 269.5,-57.5 402.5,-57.5 402.5,-38.5 269.5,-38.5"/>
<text text-anchor="middle" x="336" y="-45.5" font-family="Helvetica,sans-Serif" font-size="10.00">Ogre::NULLRenderSystem</text>
</a>
</g>
</g>
<!-- Node1&#45;&gt;Node8 -->
<g id="edge7" class="edge">
<title>Node1&#45;&gt;Node8</title>
<path fill="none" stroke="midnightblue" d="M196.27,-108.23C213.46,-95.52 239.21,-78.01 264,-67 272.4,-63.27 281.69,-60.13 290.7,-57.56"/>
<polygon fill="midnightblue" stroke="midnightblue" points="193.99,-105.56 188.11,-114.38 198.2,-111.15 193.99,-105.56"/>
</g>
<!-- Node9 -->
<g id="node9" class="node">
<title>Node9</title>
<g id="a_node9"><a xlink:href="class_ogre_1_1_vulkan_render_system.html" target="_top" xlink:title="Implementation of Vulkan as a rendering system.">
<polygon fill="none" stroke="black" points="268,-0.5 268,-19.5 404,-19.5 404,-0.5 268,-0.5"/>
<text text-anchor="middle" x="336" y="-7.5" font-family="Helvetica,sans-Serif" font-size="10.00">Ogre::VulkanRenderSystem</text>
</a>
</g>
</g>
<!-- Node1&#45;&gt;Node9 -->
<g id="edge8" class="edge">
<title>Node1&#45;&gt;Node9</title>
<path fill="none" stroke="midnightblue" d="M187.87,-105.96C203,-84.41 231.15,-48.81 264,-29 270.45,-25.11 277.69,-22.01 285.03,-19.53"/>
<polygon fill="midnightblue" stroke="midnightblue" points="184.96,-104.01 182.21,-114.24 190.74,-107.96 184.96,-104.01"/>
</g>
<!-- Node2 -->
<g id="node2" class="node">
<title>Node2</title>
<g id="a_node2"><a xlink:href="class_ogre_1_1_allocated_object.html" target="_top" xlink:title="Superclass for all objects that wish to use custom memory allocators when their new / delete operator...">
<polygon fill="none" stroke="black" points="0,-114.5 0,-133.5 86,-133.5 86,-114.5 0,-114.5"/>
<text text-anchor="middle" x="43" y="-121.5" font-family="Helvetica,sans-Serif" font-size="10.00">RenderSysAlloc</text>
</a>
</g>
</g>
<!-- Node2&#45;&gt;Node1 -->
<g id="edge1" class="edge">
<title>Node2&#45;&gt;Node1</title>
<path fill="none" stroke="midnightblue" d="M96.48,-124C104.74,-124 113.28,-124 121.54,-124"/>
<polygon fill="midnightblue" stroke="midnightblue" points="96.21,-120.5 86.21,-124 96.21,-127.5 96.21,-120.5"/>
</g>
</g>
</svg>
