<?xml version="1.0" encoding="UTF-8" standalone="no"?>
<!DOCTYPE svg PUBLIC "-//W3C//DTD SVG 1.1//EN"
 "http://www.w3.org/Graphics/SVG/1.1/DTD/svg11.dtd">
<!-- Generated by graphviz version 2.44.0 ()
 -->
<!-- Title: Ogre::BufferPacked Pages: 1 -->
<svg width="1003pt" height="710pt"
 viewBox="0.00 0.00 1003.00 710.00" xmlns="http://www.w3.org/2000/svg" xmlns:xlink="http://www.w3.org/1999/xlink">
<g id="graph0" class="graph" transform="scale(1 1) rotate(0) translate(4 706)">
<title>Ogre::BufferPacked</title>
<!-- Node1 -->
<g id="node1" class="node">
<title>Node1</title>
<g id="a_node1"><a xlink:title=" ">
<polygon fill="#bfbfbf" stroke="black" points="173,-307.5 173,-326.5 274,-326.5 274,-307.5 173,-307.5"/>
<text text-anchor="middle" x="223.5" y="-314.5" font-family="Helvetica,sans-Serif" font-size="10.00">Ogre::BufferPacked</text>
</a>
</g>
</g>
<!-- Node4 -->
<g id="node4" class="node">
<title>Node4</title>
<g id="a_node4"><a xlink:href="class_ogre_1_1_const_buffer_packed.html" target="_top" xlink:title="Represents constant buffers (also known as Uniform Buffers in GL)">
<polygon fill="none" stroke="black" points="313.5,-556.5 313.5,-575.5 439.5,-575.5 439.5,-556.5 313.5,-556.5"/>
<text text-anchor="middle" x="376.5" y="-563.5" font-family="Helvetica,sans-Serif" font-size="10.00">Ogre::ConstBufferPacked</text>
</a>
</g>
</g>
<!-- Node1&#45;&gt;Node4 -->
<g id="edge3" class="edge">
<title>Node1&#45;&gt;Node4</title>
<path fill="none" stroke="midnightblue" d="M235.7,-335.47C265.68,-384.91 347.05,-519.08 369.62,-556.31"/>
<polygon fill="midnightblue" stroke="midnightblue" points="238.6,-333.5 230.42,-326.76 232.61,-337.13 238.6,-333.5"/>
</g>
<!-- Node11 -->
<g id="node11" class="node">
<title>Node11</title>
<g id="a_node11"><a xlink:href="class_ogre_1_1_index_buffer_packed.html" target="_top" xlink:title=" ">
<polygon fill="none" stroke="black" points="314.5,-364.5 314.5,-383.5 438.5,-383.5 438.5,-364.5 314.5,-364.5"/>
<text text-anchor="middle" x="376.5" y="-371.5" font-family="Helvetica,sans-Serif" font-size="10.00">Ogre::IndexBufferPacked</text>
</a>
</g>
</g>
<!-- Node1&#45;&gt;Node11 -->
<g id="edge10" class="edge">
<title>Node1&#45;&gt;Node11</title>
<path fill="none" stroke="midnightblue" d="M252.97,-330.82C269.41,-338.5 290.61,-347.92 310,-355 319.34,-358.41 329.61,-361.63 339.18,-364.42"/>
<polygon fill="midnightblue" stroke="midnightblue" points="254.42,-327.64 243.89,-326.52 251.43,-333.96 254.42,-327.64"/>
</g>
<!-- Node12 -->
<g id="node12" class="node">
<title>Node12</title>
<g id="a_node12"><a xlink:href="class_ogre_1_1_indirect_buffer_packed.html" target="_top" xlink:title="Represents Indirect buffers for storing draw call commands.">
<polygon fill="none" stroke="black" points="310,-326.5 310,-345.5 443,-345.5 443,-326.5 310,-326.5"/>
<text text-anchor="middle" x="376.5" y="-333.5" font-family="Helvetica,sans-Serif" font-size="10.00">Ogre::IndirectBufferPacked</text>
</a>
</g>
</g>
<!-- Node1&#45;&gt;Node12 -->
<g id="edge11" class="edge">
<title>Node1&#45;&gt;Node12</title>
<path fill="none" stroke="midnightblue" d="M284.39,-324.54C292.74,-325.59 301.35,-326.67 309.8,-327.73"/>
<polygon fill="midnightblue" stroke="midnightblue" points="284.72,-321.05 274.36,-323.27 283.85,-328 284.72,-321.05"/>
</g>
<!-- Node13 -->
<g id="node13" class="node">
<title>Node13</title>
<g id="a_node13"><a xlink:href="class_ogre_1_1_tex_buffer_packed.html" target="_top" xlink:title="Represents Texture buffers (also known as tbuffers in D3D11)">
<polygon fill="none" stroke="black" points="318.5,-288.5 318.5,-307.5 434.5,-307.5 434.5,-288.5 318.5,-288.5"/>
<text text-anchor="middle" x="376.5" y="-295.5" font-family="Helvetica,sans-Serif" font-size="10.00">Ogre::TexBufferPacked</text>
</a>
</g>
</g>
<!-- Node1&#45;&gt;Node13 -->
<g id="edge12" class="edge">
<title>Node1&#45;&gt;Node13</title>
<path fill="none" stroke="midnightblue" d="M284.46,-309.46C295.63,-308.05 307.28,-306.58 318.37,-305.19"/>
<polygon fill="midnightblue" stroke="midnightblue" points="283.85,-306 274.36,-310.73 284.72,-312.95 283.85,-306"/>
</g>
<!-- Node29 -->
<g id="node29" class="node">
<title>Node29</title>
<g id="a_node29"><a xlink:href="class_ogre_1_1_uav_buffer_packed.html" target="_top" xlink:title="Represents UAV buffers (also known as SSBOs in OpenGL) Uav buffers are supported in DX10/DX10....">
<polygon fill="none" stroke="black" points="317,-114.5 317,-133.5 436,-133.5 436,-114.5 317,-114.5"/>
<text text-anchor="middle" x="376.5" y="-121.5" font-family="Helvetica,sans-Serif" font-size="10.00">Ogre::UavBufferPacked</text>
</a>
</g>
</g>
<!-- Node1&#45;&gt;Node29 -->
<g id="edge28" class="edge">
<title>Node1&#45;&gt;Node29</title>
<path fill="none" stroke="midnightblue" d="M238.24,-299.44C269.29,-259.75 344,-164.26 367.97,-133.63"/>
<polygon fill="midnightblue" stroke="midnightblue" points="235.39,-297.4 231.99,-307.43 240.91,-301.71 235.39,-297.4"/>
</g>
<!-- Node35 -->
<g id="node35" class="node">
<title>Node35</title>
<g id="a_node35"><a xlink:href="class_ogre_1_1_vertex_buffer_packed.html" target="_top" xlink:title=" ">
<polygon fill="none" stroke="black" points="312.5,-76.5 312.5,-95.5 440.5,-95.5 440.5,-76.5 312.5,-76.5"/>
<text text-anchor="middle" x="376.5" y="-83.5" font-family="Helvetica,sans-Serif" font-size="10.00">Ogre::VertexBufferPacked</text>
</a>
</g>
</g>
<!-- Node1&#45;&gt;Node35 -->
<g id="edge34" class="edge">
<title>Node1&#45;&gt;Node35</title>
<path fill="none" stroke="midnightblue" d="M226.71,-297.31C232.46,-255.55 251.74,-157.65 310,-105 314.3,-101.11 319.36,-98.01 324.72,-95.55"/>
<polygon fill="midnightblue" stroke="midnightblue" points="223.23,-296.94 225.45,-307.3 230.18,-297.82 223.23,-296.94"/>
</g>
<!-- Node2 -->
<g id="node2" class="node">
<title>Node2</title>
<g id="a_node2"><a xlink:href="struct_ogre_1_1_gpu_tracked_resource.html" target="_top" xlink:title=" ">
<polygon fill="none" stroke="black" points="0,-326.5 0,-345.5 137,-345.5 137,-326.5 0,-326.5"/>
<text text-anchor="middle" x="68.5" y="-333.5" font-family="Helvetica,sans-Serif" font-size="10.00">Ogre::GpuTrackedResource</text>
</a>
</g>
</g>
<!-- Node2&#45;&gt;Node1 -->
<g id="edge1" class="edge">
<title>Node2&#45;&gt;Node1</title>
<path fill="none" stroke="midnightblue" d="M147.23,-326.35C155.91,-325.27 164.57,-324.19 172.77,-323.18"/>
<polygon fill="midnightblue" stroke="midnightblue" points="146.55,-322.91 137.05,-327.61 147.41,-329.85 146.55,-322.91"/>
</g>
<!-- Node3 -->
<g id="node3" class="node">
<title>Node3</title>
<g id="a_node3"><a xlink:href="class_ogre_1_1_allocated_object.html" target="_top" xlink:title="Superclass for all objects that wish to use custom memory allocators when their new / delete operator...">
<polygon fill="none" stroke="black" points="20,-288.5 20,-307.5 117,-307.5 117,-288.5 20,-288.5"/>
<text text-anchor="middle" x="68.5" y="-295.5" font-family="Helvetica,sans-Serif" font-size="10.00">BufferPackedAlloc</text>
</a>
</g>
</g>
<!-- Node3&#45;&gt;Node1 -->
<g id="edge2" class="edge">
<title>Node3&#45;&gt;Node1</title>
<path fill="none" stroke="midnightblue" d="M127.26,-305.17C142.27,-307.04 158.3,-309.03 172.84,-310.83"/>
<polygon fill="midnightblue" stroke="midnightblue" points="127.43,-301.67 117.07,-303.91 126.56,-308.61 127.43,-301.67"/>
</g>
<!-- Node5 -->
<g id="node5" class="node">
<title>Node5</title>
<g id="a_node5"><a xlink:href="class_ogre_1_1_d3_d11_const_buffer_packed.html" target="_top" xlink:title=" ">
<polygon fill="none" stroke="black" points="482.5,-682.5 482.5,-701.5 637.5,-701.5 637.5,-682.5 482.5,-682.5"/>
<text text-anchor="middle" x="560" y="-689.5" font-family="Helvetica,sans-Serif" font-size="10.00">Ogre::D3D11ConstBufferPacked</text>
</a>
</g>
</g>
<!-- Node4&#45;&gt;Node5 -->
<g id="edge4" class="edge">
<title>Node4&#45;&gt;Node5</title>
<path fill="none" stroke="midnightblue" d="M389.47,-584.04C406.44,-608.15 439.85,-650.45 479,-673 485.68,-676.85 493.1,-679.92 500.65,-682.36"/>
<polygon fill="midnightblue" stroke="midnightblue" points="392.33,-582.03 383.79,-575.77 386.56,-585.99 392.33,-582.03"/>
</g>
<!-- Node6 -->
<g id="node6" class="node">
<title>Node6</title>
<g id="a_node6"><a xlink:href="class_ogre_1_1_g_l3_plus_const_buffer_packed.html" target="_top" xlink:title=" ">
<polygon fill="none" stroke="black" points="494.5,-633 494.5,-663 625.5,-663 625.5,-633 494.5,-633"/>
<text text-anchor="start" x="502.5" y="-651" font-family="Helvetica,sans-Serif" font-size="10.00">Ogre::GL3PlusConstBuffer</text>
<text text-anchor="middle" x="560" y="-640" font-family="Helvetica,sans-Serif" font-size="10.00">Packed</text>
</a>
</g>
</g>
<!-- Node4&#45;&gt;Node6 -->
<g id="edge5" class="edge">
<title>Node4&#45;&gt;Node6</title>
<path fill="none" stroke="midnightblue" d="M400.62,-580.83C420.74,-593.28 451,-610.92 479,-623 487.42,-626.63 496.54,-629.99 505.5,-632.99"/>
<polygon fill="midnightblue" stroke="midnightblue" points="402.46,-577.85 392.13,-575.51 398.75,-583.78 402.46,-577.85"/>
</g>
<!-- Node7 -->
<g id="node7" class="node">
<title>Node7</title>
<g id="a_node7"><a xlink:href="class_ogre_1_1_g_l_e_s2_const_buffer_packed.html" target="_top" xlink:title=" ">
<polygon fill="none" stroke="black" points="481,-594.5 481,-613.5 639,-613.5 639,-594.5 481,-594.5"/>
<text text-anchor="middle" x="560" y="-601.5" font-family="Helvetica,sans-Serif" font-size="10.00">Ogre::GLES2ConstBufferPacked</text>
</a>
</g>
</g>
<!-- Node4&#45;&gt;Node7 -->
<g id="edge6" class="edge">
<title>Node4&#45;&gt;Node7</title>
<path fill="none" stroke="midnightblue" d="M433.29,-577.68C459.03,-583.07 489.2,-589.39 513.53,-594.48"/>
<polygon fill="midnightblue" stroke="midnightblue" points="433.81,-574.21 423.3,-575.59 432.37,-581.06 433.81,-574.21"/>
</g>
<!-- Node8 -->
<g id="node8" class="node">
<title>Node8</title>
<g id="a_node8"><a xlink:href="class_ogre_1_1_metal_const_buffer_packed.html" target="_top" xlink:title=" ">
<polygon fill="none" stroke="black" points="485,-556.5 485,-575.5 635,-575.5 635,-556.5 485,-556.5"/>
<text text-anchor="middle" x="560" y="-563.5" font-family="Helvetica,sans-Serif" font-size="10.00">Ogre::MetalConstBufferPacked</text>
</a>
</g>
</g>
<!-- Node4&#45;&gt;Node8 -->
<g id="edge7" class="edge">
<title>Node4&#45;&gt;Node8</title>
<path fill="none" stroke="midnightblue" d="M449.76,-566C461.35,-566 473.35,-566 484.98,-566"/>
<polygon fill="midnightblue" stroke="midnightblue" points="449.71,-562.5 439.71,-566 449.71,-569.5 449.71,-562.5"/>
</g>
<!-- Node9 -->
<g id="node9" class="node">
<title>Node9</title>
<g id="a_node9"><a xlink:href="class_ogre_1_1_n_u_l_l_const_buffer_packed.html" target="_top" xlink:title=" ">
<polygon fill="none" stroke="black" points="483.5,-518.5 483.5,-537.5 636.5,-537.5 636.5,-518.5 483.5,-518.5"/>
<text text-anchor="middle" x="560" y="-525.5" font-family="Helvetica,sans-Serif" font-size="10.00">Ogre::NULLConstBufferPacked</text>
</a>
</g>
</g>
<!-- Node4&#45;&gt;Node9 -->
<g id="edge8" class="edge">
<title>Node4&#45;&gt;Node9</title>
<path fill="none" stroke="midnightblue" d="M433.29,-554.32C459.03,-548.93 489.2,-542.61 513.53,-537.52"/>
<polygon fill="midnightblue" stroke="midnightblue" points="432.37,-550.94 423.3,-556.41 433.81,-557.79 432.37,-550.94"/>
</g>
<!-- Node10 -->
<g id="node10" class="node">
<title>Node10</title>
<g id="a_node10"><a xlink:href="class_ogre_1_1_vulkan_const_buffer_packed.html" target="_top" xlink:title=" ">
<polygon fill="none" stroke="black" points="482,-480.5 482,-499.5 638,-499.5 638,-480.5 482,-480.5"/>
<text text-anchor="middle" x="560" y="-487.5" font-family="Helvetica,sans-Serif" font-size="10.00">Ogre::VulkanConstBufferPacked</text>
</a>
</g>
</g>
<!-- Node4&#45;&gt;Node10 -->
<g id="edge9" class="edge">
<title>Node4&#45;&gt;Node10</title>
<path fill="none" stroke="midnightblue" d="M400.07,-550.9C420.07,-538.12 450.43,-520.16 479,-509 488.57,-505.26 499.09,-502.12 509.26,-499.54"/>
<polygon fill="midnightblue" stroke="midnightblue" points="398.14,-547.98 391.66,-556.36 401.95,-553.85 398.14,-547.98"/>
</g>
<!-- Node14 -->
<g id="node14" class="node">
<title>Node14</title>
<g id="a_node14"><a xlink:href="class_ogre_1_1_d3_d11_tex_buffer_packed.html" target="_top" xlink:title=" ">
<polygon fill="none" stroke="black" points="487,-442.5 487,-461.5 633,-461.5 633,-442.5 487,-442.5"/>
<text text-anchor="middle" x="560" y="-449.5" font-family="Helvetica,sans-Serif" font-size="10.00">Ogre::D3D11TexBufferPacked</text>
</a>
</g>
</g>
<!-- Node13&#45;&gt;Node14 -->
<g id="edge13" class="edge">
<title>Node13&#45;&gt;Node14</title>
<path fill="none" stroke="midnightblue" d="M438.24,-312.94C439.92,-314.19 441.51,-315.54 443,-317 481.52,-354.81 439.56,-396.14 479,-433 483.07,-436.8 487.75,-439.89 492.77,-442.38"/>
<polygon fill="midnightblue" stroke="midnightblue" points="439.62,-309.68 429.25,-307.52 436,-315.68 439.62,-309.68"/>
</g>
<!-- Node15 -->
<g id="node15" class="node">
<title>Node15</title>
<g id="a_node15"><a xlink:href="class_ogre_1_1_g_l3_plus_tex_buffer_emulated_packed.html" target="_top" xlink:title=" ">
<polygon fill="none" stroke="black" points="479,-393 479,-423 641,-423 641,-393 479,-393"/>
<text text-anchor="start" x="487" y="-411" font-family="Helvetica,sans-Serif" font-size="10.00">Ogre::GL3PlusTexBufferEmulated</text>
<text text-anchor="middle" x="560" y="-400" font-family="Helvetica,sans-Serif" font-size="10.00">Packed</text>
</a>
</g>
</g>
<!-- Node13&#45;&gt;Node15 -->
<g id="edge14" class="edge">
<title>Node13&#45;&gt;Node15</title>
<path fill="none" stroke="midnightblue" d="M435.81,-312.08C438.34,-313.56 440.75,-315.19 443,-317 469.05,-337.93 453.17,-361.8 479,-383 483.72,-386.88 489.05,-390.15 494.66,-392.93"/>
<polygon fill="midnightblue" stroke="midnightblue" points="437.36,-308.94 426.85,-307.62 434.24,-315.21 437.36,-308.94"/>
</g>
<!-- Node16 -->
<g id="node16" class="node">
<title>Node16</title>
<g id="a_node16"><a xlink:href="class_ogre_1_1_g_l3_plus_tex_buffer_packed.html" target="_top" xlink:title=" ">
<polygon fill="none" stroke="black" points="482.5,-354.5 482.5,-373.5 637.5,-373.5 637.5,-354.5 482.5,-354.5"/>
<text text-anchor="middle" x="560" y="-361.5" font-family="Helvetica,sans-Serif" font-size="10.00">Ogre::GL3PlusTexBufferPacked</text>
</a>
</g>
</g>
<!-- Node13&#45;&gt;Node16 -->
<g id="edge15" class="edge">
<title>Node13&#45;&gt;Node16</title>
<path fill="none" stroke="midnightblue" d="M428.78,-310.81C433.68,-312.65 438.5,-314.71 443,-317 461.06,-326.21 460.72,-336.24 479,-345 486.98,-348.83 495.79,-351.91 504.55,-354.4"/>
<polygon fill="midnightblue" stroke="midnightblue" points="429.89,-307.49 419.29,-307.55 427.61,-314.11 429.89,-307.49"/>
</g>
<!-- Node17 -->
<g id="node17" class="node">
<title>Node17</title>
<g id="a_node17"><a xlink:href="class_ogre_1_1_g_l_e_s2_tex_buffer_emulated_packed.html" target="_top" xlink:title=" ">
<polygon fill="none" stroke="black" points="482.5,-305 482.5,-335 637.5,-335 637.5,-305 482.5,-305"/>
<text text-anchor="start" x="490.5" y="-323" font-family="Helvetica,sans-Serif" font-size="10.00">Ogre::GLES2TexBufferEmulated</text>
<text text-anchor="middle" x="560" y="-312" font-family="Helvetica,sans-Serif" font-size="10.00">Packed</text>
</a>
</g>
</g>
<!-- Node13&#45;&gt;Node17 -->
<g id="edge16" class="edge">
<title>Node13&#45;&gt;Node17</title>
<path fill="none" stroke="midnightblue" d="M444.99,-306.18C457.17,-307.66 469.94,-309.21 482.36,-310.71"/>
<polygon fill="midnightblue" stroke="midnightblue" points="445.28,-302.69 434.93,-304.96 444.43,-309.64 445.28,-302.69"/>
</g>
<!-- Node18 -->
<g id="node18" class="node">
<title>Node18</title>
<g id="a_node18"><a xlink:href="class_ogre_1_1_n_u_l_l_tex_buffer_packed.html" target="_top" xlink:title=" ">
<polygon fill="none" stroke="black" points="488.5,-266.5 488.5,-285.5 631.5,-285.5 631.5,-266.5 488.5,-266.5"/>
<text text-anchor="middle" x="560" y="-273.5" font-family="Helvetica,sans-Serif" font-size="10.00">Ogre::NULLTexBufferPacked</text>
</a>
</g>
</g>
<!-- Node13&#45;&gt;Node18 -->
<g id="edge17" class="edge">
<title>Node13&#45;&gt;Node18</title>
<path fill="none" stroke="midnightblue" d="M445.03,-289.81C459.13,-288.11 474.03,-286.3 488.24,-284.58"/>
<polygon fill="midnightblue" stroke="midnightblue" points="444.43,-286.36 434.93,-291.04 445.28,-293.31 444.43,-286.36"/>
</g>
<!-- Node19 -->
<g id="node19" class="node">
<title>Node19</title>
<g id="a_node19"><a xlink:href="class_ogre_1_1_read_only_buffer_packed.html" target="_top" xlink:title="Represents the best way to access read&#45;only data.">
<polygon fill="none" stroke="black" points="488.5,-228.5 488.5,-247.5 631.5,-247.5 631.5,-228.5 488.5,-228.5"/>
<text text-anchor="middle" x="560" y="-235.5" font-family="Helvetica,sans-Serif" font-size="10.00">Ogre::ReadOnlyBufferPacked</text>
</a>
</g>
</g>
<!-- Node13&#45;&gt;Node19 -->
<g id="edge18" class="edge">
<title>Node13&#45;&gt;Node19</title>
<path fill="none" stroke="midnightblue" d="M407.74,-284.39C427.7,-275.75 454.57,-264.79 479,-257 490.02,-253.49 502.07,-250.3 513.4,-247.57"/>
<polygon fill="midnightblue" stroke="midnightblue" points="406.3,-281.2 398.54,-288.41 409.11,-287.61 406.3,-281.2"/>
</g>
<!-- Node28 -->
<g id="node28" class="node">
<title>Node28</title>
<g id="a_node28"><a xlink:href="class_ogre_1_1_vulkan_tex_buffer_packed.html" target="_top" xlink:title=" ">
<polygon fill="none" stroke="black" points="487,-190.5 487,-209.5 633,-209.5 633,-190.5 487,-190.5"/>
<text text-anchor="middle" x="560" y="-197.5" font-family="Helvetica,sans-Serif" font-size="10.00">Ogre::VulkanTexBufferPacked</text>
</a>
</g>
</g>
<!-- Node13&#45;&gt;Node28 -->
<g id="edge27" class="edge">
<title>Node13&#45;&gt;Node28</title>
<path fill="none" stroke="midnightblue" d="M394.14,-281.31C413.07,-263.28 445.7,-234.97 479,-219 486.98,-215.17 495.79,-212.08 504.55,-209.6"/>
<polygon fill="midnightblue" stroke="midnightblue" points="391.63,-278.87 386.9,-288.35 396.51,-283.89 391.63,-278.87"/>
</g>
<!-- Node20 -->
<g id="node20" class="node">
<title>Node20</title>
<g id="a_node20"><a xlink:href="class_ogre_1_1_d3_d11_read_only_buffer_packed.html" target="_top" xlink:title=" ">
<polygon fill="none" stroke="black" points="681.5,-370 681.5,-400 820.5,-400 820.5,-370 681.5,-370"/>
<text text-anchor="start" x="689.5" y="-388" font-family="Helvetica,sans-Serif" font-size="10.00">Ogre::D3D11ReadOnlyBuffer</text>
<text text-anchor="middle" x="751" y="-377" font-family="Helvetica,sans-Serif" font-size="10.00">Packed</text>
</a>
</g>
</g>
<!-- Node19&#45;&gt;Node20 -->
<g id="edge19" class="edge">
<title>Node19&#45;&gt;Node20</title>
<path fill="none" stroke="midnightblue" d="M635.55,-252.69C637.46,-254.01 639.28,-255.44 641,-257 677.27,-289.81 642.14,-326.68 677,-361 680.52,-364.46 684.54,-367.43 688.86,-369.96"/>
<polygon fill="midnightblue" stroke="midnightblue" points="637.12,-249.55 626.71,-247.57 633.61,-255.61 637.12,-249.55"/>
</g>
<!-- Node21 -->
<g id="node21" class="node">
<title>Node21</title>
<g id="a_node21"><a xlink:href="class_ogre_1_1_g_l3_plus_read_only_buffer_emulated_packed.html" target="_top" xlink:title=" ">
<polygon fill="none" stroke="black" points="677,-321 677,-351 825,-351 825,-321 677,-321"/>
<text text-anchor="start" x="685" y="-339" font-family="Helvetica,sans-Serif" font-size="10.00">Ogre::GL3PlusReadOnlyBuffer</text>
<text text-anchor="middle" x="751" y="-328" font-family="Helvetica,sans-Serif" font-size="10.00">EmulatedPacked</text>
</a>
</g>
</g>
<!-- Node19&#45;&gt;Node21 -->
<g id="edge20" class="edge">
<title>Node19&#45;&gt;Node21</title>
<path fill="none" stroke="midnightblue" d="M632.29,-251.81C635.32,-253.36 638.25,-255.08 641,-257 664.68,-273.48 654.15,-293.4 677,-311 681.99,-314.84 687.6,-318.12 693.45,-320.9"/>
<polygon fill="midnightblue" stroke="midnightblue" points="633.45,-248.49 622.89,-247.65 630.62,-254.9 633.45,-248.49"/>
</g>
<!-- Node22 -->
<g id="node22" class="node">
<title>Node22</title>
<g id="a_node22"><a xlink:href="class_ogre_1_1_g_l3_plus_read_only_tex_buffer_packed.html" target="_top" xlink:title=" ">
<polygon fill="none" stroke="black" points="682,-272 682,-302 820,-302 820,-272 682,-272"/>
<text text-anchor="start" x="690" y="-290" font-family="Helvetica,sans-Serif" font-size="10.00">Ogre::GL3PlusReadOnlyTex</text>
<text text-anchor="middle" x="751" y="-279" font-family="Helvetica,sans-Serif" font-size="10.00">BufferPacked</text>
</a>
</g>
</g>
<!-- Node19&#45;&gt;Node22 -->
<g id="edge21" class="edge">
<title>Node19&#45;&gt;Node22</title>
<path fill="none" stroke="midnightblue" d="M612.37,-249.92C621.9,-252.21 631.76,-254.63 641,-257 659.25,-261.68 679.14,-267.07 696.88,-271.97"/>
<polygon fill="midnightblue" stroke="midnightblue" points="613.13,-246.5 602.59,-247.58 611.51,-253.31 613.13,-246.5"/>
</g>
<!-- Node23 -->
<g id="node23" class="node">
<title>Node23</title>
<g id="a_node23"><a xlink:href="class_ogre_1_1_g_l3_plus_read_only_uav_buffer_packed.html" target="_top" xlink:title=" ">
<polygon fill="none" stroke="black" points="681,-223 681,-253 821,-253 821,-223 681,-223"/>
<text text-anchor="start" x="689" y="-241" font-family="Helvetica,sans-Serif" font-size="10.00">Ogre::GL3PlusReadOnlyUav</text>
<text text-anchor="middle" x="751" y="-230" font-family="Helvetica,sans-Serif" font-size="10.00">BufferPacked</text>
</a>
</g>
</g>
<!-- Node19&#45;&gt;Node23 -->
<g id="edge22" class="edge">
<title>Node19&#45;&gt;Node23</title>
<path fill="none" stroke="midnightblue" d="M641.91,-238C654.82,-238 668.08,-238 680.7,-238"/>
<polygon fill="midnightblue" stroke="midnightblue" points="641.65,-234.5 631.65,-238 641.65,-241.5 641.65,-234.5"/>
</g>
<!-- Node24 -->
<g id="node24" class="node">
<title>Node24</title>
<g id="a_node24"><a xlink:href="class_ogre_1_1_metal_tex_buffer_packed.html" target="_top" xlink:title="In Metal, Tex and ReadOnly buffers are exactly the same, thus we derive from ReadOnlyBufferPacked to ...">
<polygon fill="none" stroke="black" points="681,-184.5 681,-203.5 821,-203.5 821,-184.5 681,-184.5"/>
<text text-anchor="middle" x="751" y="-191.5" font-family="Helvetica,sans-Serif" font-size="10.00">Ogre::MetalTexBufferPacked</text>
</a>
</g>
</g>
<!-- Node19&#45;&gt;Node24 -->
<g id="edge23" class="edge">
<title>Node19&#45;&gt;Node24</title>
<path fill="none" stroke="midnightblue" d="M612.01,-226.12C642.46,-219.04 680.61,-210.16 709.07,-203.53"/>
<polygon fill="midnightblue" stroke="midnightblue" points="610.96,-222.78 602.01,-228.45 612.54,-229.59 610.96,-222.78"/>
</g>
<!-- Node26 -->
<g id="node26" class="node">
<title>Node26</title>
<g id="a_node26"><a xlink:href="class_ogre_1_1_n_u_l_l_read_only_buffer_packed.html" target="_top" xlink:title=" ">
<polygon fill="none" stroke="black" points="682.5,-135 682.5,-165 819.5,-165 819.5,-135 682.5,-135"/>
<text text-anchor="start" x="690.5" y="-153" font-family="Helvetica,sans-Serif" font-size="10.00">Ogre::NULLReadOnlyBuffer</text>
<text text-anchor="middle" x="751" y="-142" font-family="Helvetica,sans-Serif" font-size="10.00">Packed</text>
</a>
</g>
</g>
<!-- Node19&#45;&gt;Node26 -->
<g id="edge25" class="edge">
<title>Node19&#45;&gt;Node26</title>
<path fill="none" stroke="midnightblue" d="M630.32,-224.66C634.04,-222.99 637.62,-221.11 641,-219 662.42,-205.6 656.25,-189.42 677,-175 682.5,-171.18 688.64,-167.89 694.95,-165.08"/>
<polygon fill="midnightblue" stroke="midnightblue" points="628.88,-221.46 620.87,-228.39 631.45,-227.97 628.88,-221.46"/>
</g>
<!-- Node27 -->
<g id="node27" class="node">
<title>Node27</title>
<g id="a_node27"><a xlink:href="class_ogre_1_1_vulkan_read_only_buffer_packed.html" target="_top" xlink:title=" ">
<polygon fill="none" stroke="black" points="681,-86 681,-116 821,-116 821,-86 681,-86"/>
<text text-anchor="start" x="689" y="-104" font-family="Helvetica,sans-Serif" font-size="10.00">Ogre::VulkanReadOnlyBuffer</text>
<text text-anchor="middle" x="751" y="-93" font-family="Helvetica,sans-Serif" font-size="10.00">Packed</text>
</a>
</g>
</g>
<!-- Node19&#45;&gt;Node27 -->
<g id="edge26" class="edge">
<title>Node19&#45;&gt;Node27</title>
<path fill="none" stroke="midnightblue" d="M635.34,-223.34C637.32,-222.01 639.21,-220.57 641,-219 674.66,-189.53 644.61,-155.86 677,-125 680.57,-121.59 684.64,-118.67 688.98,-116.16"/>
<polygon fill="midnightblue" stroke="midnightblue" points="633.2,-220.52 626.18,-228.46 636.62,-226.63 633.2,-220.52"/>
</g>
<!-- Node25 -->
<g id="node25" class="node">
<title>Node25</title>
<g id="a_node25"><a xlink:href="class_ogre_1_1_metal_read_only_buffer_packed.html" target="_top" xlink:title=" ">
<polygon fill="none" stroke="black" points="861,-179 861,-209 995,-209 995,-179 861,-179"/>
<text text-anchor="start" x="869" y="-197" font-family="Helvetica,sans-Serif" font-size="10.00">Ogre::MetalReadOnlyBuffer</text>
<text text-anchor="middle" x="928" y="-186" font-family="Helvetica,sans-Serif" font-size="10.00">Packed</text>
</a>
</g>
</g>
<!-- Node24&#45;&gt;Node25 -->
<g id="edge24" class="edge">
<title>Node24&#45;&gt;Node25</title>
<path fill="none" stroke="midnightblue" d="M831.38,-194C841.25,-194 851.26,-194 860.91,-194"/>
<polygon fill="midnightblue" stroke="midnightblue" points="831.16,-190.5 821.16,-194 831.16,-197.5 831.16,-190.5"/>
</g>
<!-- Node30 -->
<g id="node30" class="node">
<title>Node30</title>
<g id="a_node30"><a xlink:href="class_ogre_1_1_d3_d11_uav_buffer_packed.html" target="_top" xlink:title=" ">
<polygon fill="none" stroke="black" points="486,-152.5 486,-171.5 634,-171.5 634,-152.5 486,-152.5"/>
<text text-anchor="middle" x="560" y="-159.5" font-family="Helvetica,sans-Serif" font-size="10.00">Ogre::D3D11UavBufferPacked</text>
</a>
</g>
</g>
<!-- Node29&#45;&gt;Node30 -->
<g id="edge29" class="edge">
<title>Node29&#45;&gt;Node30</title>
<path fill="none" stroke="midnightblue" d="M433.29,-135.68C459.03,-141.07 489.2,-147.39 513.53,-152.48"/>
<polygon fill="midnightblue" stroke="midnightblue" points="433.81,-132.21 423.3,-133.59 432.37,-139.06 433.81,-132.21"/>
</g>
<!-- Node31 -->
<g id="node31" class="node">
<title>Node31</title>
<g id="a_node31"><a xlink:href="class_ogre_1_1_g_l3_plus_uav_buffer_packed.html" target="_top" xlink:title=" ">
<polygon fill="none" stroke="black" points="481.5,-114.5 481.5,-133.5 638.5,-133.5 638.5,-114.5 481.5,-114.5"/>
<text text-anchor="middle" x="560" y="-121.5" font-family="Helvetica,sans-Serif" font-size="10.00">Ogre::GL3PlusUavBufferPacked</text>
</a>
</g>
</g>
<!-- Node29&#45;&gt;Node31 -->
<g id="edge30" class="edge">
<title>Node29&#45;&gt;Node31</title>
<path fill="none" stroke="midnightblue" d="M446.48,-124C457.87,-124 469.75,-124 481.34,-124"/>
<polygon fill="midnightblue" stroke="midnightblue" points="446.18,-120.5 436.18,-124 446.18,-127.5 446.18,-120.5"/>
</g>
<!-- Node32 -->
<g id="node32" class="node">
<title>Node32</title>
<g id="a_node32"><a xlink:href="class_ogre_1_1_metal_uav_buffer_packed.html" target="_top" xlink:title=" ">
<polygon fill="none" stroke="black" points="488.5,-76.5 488.5,-95.5 631.5,-95.5 631.5,-76.5 488.5,-76.5"/>
<text text-anchor="middle" x="560" y="-83.5" font-family="Helvetica,sans-Serif" font-size="10.00">Ogre::MetalUavBufferPacked</text>
</a>
</g>
</g>
<!-- Node29&#45;&gt;Node32 -->
<g id="edge31" class="edge">
<title>Node29&#45;&gt;Node32</title>
<path fill="none" stroke="midnightblue" d="M433.29,-112.32C459.03,-106.93 489.2,-100.61 513.53,-95.52"/>
<polygon fill="midnightblue" stroke="midnightblue" points="432.37,-108.94 423.3,-114.41 433.81,-115.79 432.37,-108.94"/>
</g>
<!-- Node33 -->
<g id="node33" class="node">
<title>Node33</title>
<g id="a_node33"><a xlink:href="class_ogre_1_1_n_u_l_l_uav_buffer_packed.html" target="_top" xlink:title=" ">
<polygon fill="none" stroke="black" points="487,-38.5 487,-57.5 633,-57.5 633,-38.5 487,-38.5"/>
<text text-anchor="middle" x="560" y="-45.5" font-family="Helvetica,sans-Serif" font-size="10.00">Ogre::NULLUavBufferPacked</text>
</a>
</g>
</g>
<!-- Node29&#45;&gt;Node33 -->
<g id="edge32" class="edge">
<title>Node29&#45;&gt;Node33</title>
<path fill="none" stroke="midnightblue" d="M432.12,-110.63C435.9,-108.96 439.57,-107.09 443,-105 462.87,-92.89 458.84,-78.62 479,-67 485.68,-63.15 493.1,-60.08 500.65,-57.63"/>
<polygon fill="midnightblue" stroke="midnightblue" points="430.57,-107.48 422.54,-114.39 433.12,-113.99 430.57,-107.48"/>
</g>
<!-- Node34 -->
<g id="node34" class="node">
<title>Node34</title>
<g id="a_node34"><a xlink:href="class_ogre_1_1_vulkan_uav_buffer_packed.html" target="_top" xlink:title=" ">
<polygon fill="none" stroke="black" points="485.5,-0.5 485.5,-19.5 634.5,-19.5 634.5,-0.5 485.5,-0.5"/>
<text text-anchor="middle" x="560" y="-7.5" font-family="Helvetica,sans-Serif" font-size="10.00">Ogre::VulkanUavBufferPacked</text>
</a>
</g>
</g>
<!-- Node29&#45;&gt;Node34 -->
<g id="edge33" class="edge">
<title>Node29&#45;&gt;Node34</title>
<path fill="none" stroke="midnightblue" d="M436.57,-109.69C438.83,-108.27 440.99,-106.71 443,-105 471.46,-80.77 449.96,-52.52 479,-29 483.77,-25.14 489.19,-22.03 494.92,-19.55"/>
<polygon fill="midnightblue" stroke="midnightblue" points="434.63,-106.75 427.39,-114.49 437.88,-112.95 434.63,-106.75"/>
</g>
</g>
</svg>
