<?xml version="1.0" encoding="UTF-8" standalone="no"?>
<!DOCTYPE svg PUBLIC "-//W3C//DTD SVG 1.1//EN"
 "http://www.w3.org/Graphics/SVG/1.1/DTD/svg11.dtd">
<!-- Generated by graphviz version 2.40.1 (20161225.0304)
 -->
<!-- Title: Ogre::IdObject Pages: 1 -->
<svg width="704pt" height="990pt"
 viewBox="0.00 0.00 704.00 990.00" xmlns="http://www.w3.org/2000/svg" xmlns:xlink="http://www.w3.org/1999/xlink">
<g id="graph0" class="graph" transform="scale(1 1) rotate(0) translate(4 986)">
<title>Ogre::IdObject</title>
<!-- Node0 -->
<g id="node1" class="node">
<title>Node0</title>
<polygon fill="#bfbfbf" stroke="#000000" points="0,-449.5 0,-468.5 80,-468.5 80,-449.5 0,-449.5"/>
<text text-anchor="middle" x="40" y="-456.5" font-family="Helvetica,sans-Serif" font-size="10.00" fill="#000000">Ogre::IdObject</text>
</g>
<!-- Node1 -->
<g id="node2" class="node">
<title>Node1</title>
<g id="a_node2"><a xlink:href="class_ogre_1_1_bone.html" target="_top" xlink:title="Class representing a Bone in the join hierarchy of a skeleton. ">
<polygon fill="none" stroke="#000000" points="176,-639.5 176,-658.5 242,-658.5 242,-639.5 176,-639.5"/>
<text text-anchor="middle" x="209" y="-646.5" font-family="Helvetica,sans-Serif" font-size="10.00" fill="#000000">Ogre::Bone</text>
</a>
</g>
</g>
<!-- Node0&#45;&gt;Node1 -->
<g id="edge1" class="edge">
<title>Node0&#45;&gt;Node1</title>
<path fill="none" stroke="#191970" d="M42.8276,-478.7874C49.0767,-514.8342 67.5606,-591.0647 116,-630 132.6977,-643.4215 156.4191,-648.1114 175.7248,-649.4767"/>
<polygon fill="#191970" stroke="#191970" points="46.2338,-477.92 41.2062,-468.5941 39.3207,-479.0198 46.2338,-477.92"/>
</g>
<!-- Node2 -->
<g id="node3" class="node">
<title>Node2</title>
<g id="a_node3"><a xlink:href="class_ogre_1_1_compositor_node.html" target="_top" xlink:title="Compositor nodes are the core subject of compositing. ">
<polygon fill="none" stroke="#000000" points="150.5,-601.5 150.5,-620.5 267.5,-620.5 267.5,-601.5 150.5,-601.5"/>
<text text-anchor="middle" x="209" y="-608.5" font-family="Helvetica,sans-Serif" font-size="10.00" fill="#000000">Ogre::CompositorNode</text>
</a>
</g>
</g>
<!-- Node0&#45;&gt;Node2 -->
<g id="edge2" class="edge">
<title>Node0&#45;&gt;Node2</title>
<path fill="none" stroke="#191970" d="M45.4497,-478.4774C54.7613,-507.9657 76.6501,-563.5145 116,-592 126.0116,-599.2474 138.1393,-603.8791 150.2839,-606.8056"/>
<polygon fill="#191970" stroke="#191970" points="48.7034,-477.1415 42.4865,-468.5624 41.9966,-479.1459 48.7034,-477.1415"/>
</g>
<!-- Node4 -->
<g id="node5" class="node">
<title>Node4</title>
<g id="a_node5"><a xlink:href="class_ogre_1_1_compositor_workspace.html" target="_top" xlink:title="A compositor workspace is the main interface to render into an RT, be it a RenderWindow or an RTT (Re...">
<polygon fill="none" stroke="#000000" points="137.5,-563.5 137.5,-582.5 280.5,-582.5 280.5,-563.5 137.5,-563.5"/>
<text text-anchor="middle" x="209" y="-570.5" font-family="Helvetica,sans-Serif" font-size="10.00" fill="#000000">Ogre::CompositorWorkspace</text>
</a>
</g>
</g>
<!-- Node0&#45;&gt;Node4 -->
<g id="edge4" class="edge">
<title>Node0&#45;&gt;Node4</title>
<path fill="none" stroke="#191970" d="M49.6035,-477.6307C61.9122,-499.5354 85.3719,-535.2726 116,-554 122.6079,-558.0404 129.9242,-561.2376 137.4661,-563.7651"/>
<polygon fill="#191970" stroke="#191970" points="52.5827,-475.7818 44.7471,-468.6505 46.4254,-479.1116 52.5827,-475.7818"/>
</g>
<!-- Node5 -->
<g id="node6" class="node">
<title>Node5</title>
<g id="a_node6"><a xlink:href="class_ogre_1_1_irradiance_field.html" target="_top" xlink:title="Implements an Irradiance Field with Depth, inspired on DDGI. ">
<polygon fill="none" stroke="#000000" points="155.5,-525.5 155.5,-544.5 262.5,-544.5 262.5,-525.5 155.5,-525.5"/>
<text text-anchor="middle" x="209" y="-532.5" font-family="Helvetica,sans-Serif" font-size="10.00" fill="#000000">Ogre::IrradianceField</text>
</a>
</g>
</g>
<!-- Node0&#45;&gt;Node5 -->
<g id="edge5" class="edge">
<title>Node0&#45;&gt;Node5</title>
<path fill="none" stroke="#191970" d="M57.5377,-475.7609C72.0733,-488.7101 93.8685,-506.0498 116,-516 128.1744,-521.4735 141.9552,-525.3855 155.1071,-528.1761"/>
<polygon fill="#191970" stroke="#191970" points="59.6073,-472.91 49.8706,-468.733 54.8773,-478.0702 59.6073,-472.91"/>
</g>
<!-- Node6 -->
<g id="node7" class="node">
<title>Node6</title>
<g id="a_node7"><a xlink:href="class_ogre_1_1_movable_object.html" target="_top" xlink:title="Abstract class defining a movable object in a scene. ">
<polygon fill="none" stroke="#000000" points="154.5,-487.5 154.5,-506.5 263.5,-506.5 263.5,-487.5 154.5,-487.5"/>
<text text-anchor="middle" x="209" y="-494.5" font-family="Helvetica,sans-Serif" font-size="10.00" fill="#000000">Ogre::MovableObject</text>
</a>
</g>
</g>
<!-- Node0&#45;&gt;Node6 -->
<g id="edge6" class="edge">
<title>Node0&#45;&gt;Node6</title>
<path fill="none" stroke="#191970" d="M86.55,-470.9773C96.2633,-473.381 106.4517,-475.8322 116,-478 130.3026,-481.2472 145.9009,-484.5331 160.1652,-487.4382"/>
<polygon fill="#191970" stroke="#191970" points="87.1965,-467.5313 76.6464,-468.5035 85.5,-474.3227 87.1965,-467.5313"/>
</g>
<!-- Node31 -->
<g id="node32" class="node">
<title>Node31</title>
<g id="a_node32"><a xlink:href="class_ogre_1_1_node.html" target="_top" xlink:title="Class representing a general&#45;purpose node an articulated scene graph. ">
<polygon fill="none" stroke="#000000" points="175.5,-449.5 175.5,-468.5 242.5,-468.5 242.5,-449.5 175.5,-449.5"/>
<text text-anchor="middle" x="209" y="-456.5" font-family="Helvetica,sans-Serif" font-size="10.00" fill="#000000">Ogre::Node</text>
</a>
</g>
</g>
<!-- Node0&#45;&gt;Node31 -->
<g id="edge31" class="edge">
<title>Node0&#45;&gt;Node31</title>
<path fill="none" stroke="#191970" d="M90.283,-459C117.8066,-459 151.1578,-459 175.4943,-459"/>
<polygon fill="#191970" stroke="#191970" points="90.0507,-455.5001 80.0506,-459 90.0506,-462.5001 90.0507,-455.5001"/>
</g>
<!-- Node34 -->
<g id="node35" class="node">
<title>Node34</title>
<g id="a_node35"><a xlink:href="class_ogre_1_1_parallax_corrected_cubemap_base.html" target="_top" xlink:title="Ogre::ParallaxCorrectedCubemapBase">
<polygon fill="none" stroke="#000000" points="116,-411.5 116,-430.5 302,-430.5 302,-411.5 116,-411.5"/>
<text text-anchor="middle" x="209" y="-418.5" font-family="Helvetica,sans-Serif" font-size="10.00" fill="#000000">Ogre::ParallaxCorrectedCubemapBase</text>
</a>
</g>
</g>
<!-- Node0&#45;&gt;Node34 -->
<g id="edge34" class="edge">
<title>Node0&#45;&gt;Node34</title>
<path fill="none" stroke="#191970" d="M86.55,-447.0227C96.2633,-444.619 106.4517,-442.1678 116,-440 130.3026,-436.7528 145.9009,-433.4669 160.1652,-430.5618"/>
<polygon fill="#191970" stroke="#191970" points="85.5,-443.6773 76.6464,-449.4965 87.1965,-450.4687 85.5,-443.6773"/>
</g>
<!-- Node37 -->
<g id="node38" class="node">
<title>Node37</title>
<g id="a_node38"><a xlink:href="class_ogre_1_1_scene_manager.html" target="_top" xlink:title="Manages the organisation and rendering of a &#39;scene&#39; i.e. ">
<polygon fill="none" stroke="#000000" points="154.5,-373.5 154.5,-392.5 263.5,-392.5 263.5,-373.5 154.5,-373.5"/>
<text text-anchor="middle" x="209" y="-380.5" font-family="Helvetica,sans-Serif" font-size="10.00" fill="#000000">Ogre::SceneManager</text>
</a>
</g>
</g>
<!-- Node0&#45;&gt;Node37 -->
<g id="edge37" class="edge">
<title>Node0&#45;&gt;Node37</title>
<path fill="none" stroke="#191970" d="M57.5377,-442.2391C72.0733,-429.2899 93.8685,-411.9502 116,-402 127.8738,-396.6616 141.2757,-392.8087 154.1317,-390.0327"/>
<polygon fill="#191970" stroke="#191970" points="54.8773,-439.9298 49.8706,-449.267 59.6073,-445.09 54.8773,-439.9298"/>
</g>
<!-- Node39 -->
<g id="node40" class="node">
<title>Node39</title>
<g id="a_node40"><a xlink:href="class_ogre_1_1_vct_lighting.html" target="_top" xlink:title="Ogre::VctLighting">
<polygon fill="none" stroke="#000000" points="163,-335.5 163,-354.5 255,-354.5 255,-335.5 163,-335.5"/>
<text text-anchor="middle" x="209" y="-342.5" font-family="Helvetica,sans-Serif" font-size="10.00" fill="#000000">Ogre::VctLighting</text>
</a>
</g>
</g>
<!-- Node0&#45;&gt;Node39 -->
<g id="edge39" class="edge">
<title>Node0&#45;&gt;Node39</title>
<path fill="none" stroke="#191970" d="M49.6035,-440.3693C61.9122,-418.4646 85.3719,-382.7274 116,-364 129.9188,-355.4894 146.9806,-350.7197 162.6729,-348.0704"/>
<polygon fill="#191970" stroke="#191970" points="46.4254,-438.8884 44.7471,-449.3495 52.5827,-442.2182 46.4254,-438.8884"/>
</g>
<!-- Node40 -->
<g id="node41" class="node">
<title>Node40</title>
<g id="a_node41"><a xlink:href="class_ogre_1_1_vct_material.html" target="_top" xlink:title="Ogre::VctMaterial">
<polygon fill="none" stroke="#000000" points="162.5,-297.5 162.5,-316.5 255.5,-316.5 255.5,-297.5 162.5,-297.5"/>
<text text-anchor="middle" x="209" y="-304.5" font-family="Helvetica,sans-Serif" font-size="10.00" fill="#000000">Ogre::VctMaterial</text>
</a>
</g>
</g>
<!-- Node0&#45;&gt;Node40 -->
<g id="edge40" class="edge">
<title>Node0&#45;&gt;Node40</title>
<path fill="none" stroke="#191970" d="M45.4497,-439.5226C54.7613,-410.0343 76.6501,-354.4855 116,-326 129.3488,-316.3368 146.4595,-311.3238 162.3563,-308.8025"/>
<polygon fill="#191970" stroke="#191970" points="41.9966,-438.8541 42.4865,-449.4376 48.7034,-440.8585 41.9966,-438.8541"/>
</g>
<!-- Node41 -->
<g id="node42" class="node">
<title>Node41</title>
<g id="a_node42"><a xlink:href="class_ogre_1_1_vct_voxelizer.html" target="_top" xlink:title="The voxelizer consists in several stages. ">
<polygon fill="none" stroke="#000000" points="159.5,-259.5 159.5,-278.5 258.5,-278.5 258.5,-259.5 159.5,-259.5"/>
<text text-anchor="middle" x="209" y="-266.5" font-family="Helvetica,sans-Serif" font-size="10.00" fill="#000000">Ogre::VctVoxelizer</text>
</a>
</g>
</g>
<!-- Node0&#45;&gt;Node41 -->
<g id="edge41" class="edge">
<title>Node0&#45;&gt;Node41</title>
<path fill="none" stroke="#191970" d="M42.8276,-439.2126C49.0767,-403.1658 67.5606,-326.9353 116,-288 128.2022,-278.192 144.1551,-273.0468 159.3947,-270.4545"/>
<polygon fill="#191970" stroke="#191970" points="39.3207,-438.9802 41.2062,-449.4059 46.2338,-440.08 39.3207,-438.9802"/>
</g>
<!-- Node3 -->
<g id="node4" class="node">
<title>Node3</title>
<g id="a_node4"><a xlink:href="class_ogre_1_1_compositor_shadow_node.html" target="_top" xlink:title="Shadow Nodes are special nodes (not to be confused with. ">
<polygon fill="none" stroke="#000000" points="354,-962.5 354,-981.5 506,-981.5 506,-962.5 354,-962.5"/>
<text text-anchor="middle" x="430" y="-969.5" font-family="Helvetica,sans-Serif" font-size="10.00" fill="#000000">Ogre::CompositorShadowNode</text>
</a>
</g>
</g>
<!-- Node2&#45;&gt;Node3 -->
<g id="edge3" class="edge">
<title>Node2&#45;&gt;Node3</title>
<path fill="none" stroke="#191970" d="M277.6343,-614.6217C286.8609,-617.8798 295.4014,-622.7752 302,-630 399.4113,-736.6547 240.7024,-846.2415 338,-953 342.5042,-957.9422 347.9255,-961.7887 353.8545,-964.7637"/>
<polygon fill="#191970" stroke="#191970" points="278.4018,-611.2004 267.8234,-611.7902 276.4607,-617.9259 278.4018,-611.2004"/>
</g>
<!-- Node7 -->
<g id="node8" class="node">
<title>Node7</title>
<g id="a_node8"><a xlink:href="class_ogre_1_1_decal.html" target="_top" xlink:title="Decals can have diffuse, normal map, and emissive on top of regular objects. ">
<polygon fill="none" stroke="#000000" points="395.5,-924.5 395.5,-943.5 464.5,-943.5 464.5,-924.5 395.5,-924.5"/>
<text text-anchor="middle" x="430" y="-931.5" font-family="Helvetica,sans-Serif" font-size="10.00" fill="#000000">Ogre::Decal</text>
</a>
</g>
</g>
<!-- Node6&#45;&gt;Node7 -->
<g id="edge7" class="edge">
<title>Node6&#45;&gt;Node7</title>
<path fill="none" stroke="#191970" d="M273.6484,-499.1557C284.4254,-502.3689 294.5148,-507.6295 302,-516 361.3444,-582.3628 278.7263,-848.574 338,-915 352.1162,-930.8196 375.62,-935.472 395.337,-936.2195"/>
<polygon fill="#191970" stroke="#191970" points="274.1534,-495.6777 263.6129,-496.7499 272.5214,-502.4848 274.1534,-495.6777"/>
</g>
<!-- Node8 -->
<g id="node9" class="node">
<title>Node8</title>
<g id="a_node9"><a xlink:href="class_ogre_1_1_frustum.html" target="_top" xlink:title="A frustum represents a pyramid, capped at the near and far end which is used to represent either a vi...">
<polygon fill="none" stroke="#000000" points="390,-886.5 390,-905.5 470,-905.5 470,-886.5 390,-886.5"/>
<text text-anchor="middle" x="430" y="-893.5" font-family="Helvetica,sans-Serif" font-size="10.00" fill="#000000">Ogre::Frustum</text>
</a>
</g>
</g>
<!-- Node6&#45;&gt;Node8 -->
<g id="edge8" class="edge">
<title>Node6&#45;&gt;Node8</title>
<path fill="none" stroke="#191970" d="M273.5849,-499.2128C284.3677,-502.4208 294.4755,-507.6649 302,-516 356.0228,-575.8426 284.041,-817.0999 338,-877 350.8806,-891.2989 371.4336,-896.4528 389.8492,-897.8542"/>
<polygon fill="#191970" stroke="#191970" points="274.0876,-495.7343 263.5474,-496.8088 272.4571,-502.5418 274.0876,-495.7343"/>
</g>
<!-- Node10 -->
<g id="node11" class="node">
<title>Node10</title>
<g id="a_node11"><a xlink:href="class_ogre_1_1_ifd_probe_visualizer.html" target="_top" xlink:title="Ogre::IfdProbeVisualizer">
<polygon fill="none" stroke="#000000" points="368.5,-848.5 368.5,-867.5 491.5,-867.5 491.5,-848.5 368.5,-848.5"/>
<text text-anchor="middle" x="430" y="-855.5" font-family="Helvetica,sans-Serif" font-size="10.00" fill="#000000">Ogre::IfdProbeVisualizer</text>
</a>
</g>
</g>
<!-- Node6&#45;&gt;Node10 -->
<g id="edge10" class="edge">
<title>Node6&#45;&gt;Node10</title>
<path fill="none" stroke="#191970" d="M273.8704,-499.3922C284.5242,-502.6028 294.5123,-507.8018 302,-516 399.4113,-622.6547 240.7024,-732.2415 338,-839 346.0197,-847.7995 356.9466,-853.1255 368.4705,-856.2435"/>
<polygon fill="#191970" stroke="#191970" points="274.4964,-495.9424 263.9519,-496.9737 272.8381,-502.7431 274.4964,-495.9424"/>
</g>
<!-- Node11 -->
<g id="node12" class="node">
<title>Node11</title>
<g id="a_node12"><a xlink:href="class_ogre_1_1_internal_cubemap_probe.html" target="_top" xlink:title="This class is internal and should not be interfaced directly by users. ">
<polygon fill="none" stroke="#000000" points="358.5,-810.5 358.5,-829.5 501.5,-829.5 501.5,-810.5 358.5,-810.5"/>
<text text-anchor="middle" x="430" y="-817.5" font-family="Helvetica,sans-Serif" font-size="10.00" fill="#000000">Ogre::InternalCubemapProbe</text>
</a>
</g>
</g>
<!-- Node6&#45;&gt;Node11 -->
<g id="edge11" class="edge">
<title>Node6&#45;&gt;Node11</title>
<path fill="none" stroke="#191970" d="M273.7729,-499.4819C284.436,-502.684 294.4525,-507.8569 302,-516 388.7894,-609.6379 251.3104,-707.2697 338,-801 343.6477,-807.1064 350.6965,-811.5339 358.3639,-814.709"/>
<polygon fill="#191970" stroke="#191970" points="274.395,-496.0312 263.8509,-497.0667 272.7393,-502.8326 274.395,-496.0312"/>
</g>
<!-- Node12 -->
<g id="node13" class="node">
<title>Node12</title>
<g id="a_node13"><a xlink:href="class_ogre_1_1_item.html" target="_top" xlink:title="Defines an instance of a discrete, movable object based on a Mesh. ">
<polygon fill="none" stroke="#000000" points="398.5,-772.5 398.5,-791.5 461.5,-791.5 461.5,-772.5 398.5,-772.5"/>
<text text-anchor="middle" x="430" y="-779.5" font-family="Helvetica,sans-Serif" font-size="10.00" fill="#000000">Ogre::Item</text>
</a>
</g>
</g>
<!-- Node6&#45;&gt;Node12 -->
<g id="edge12" class="edge">
<title>Node6&#45;&gt;Node12</title>
<path fill="none" stroke="#191970" d="M273.647,-499.5998C284.322,-502.7906 294.3751,-507.9293 302,-516 378.1857,-596.6406 261.9003,-682.2783 338,-763 353.2152,-779.1393 378.2291,-783.4929 398.3364,-784.0282"/>
<polygon fill="#191970" stroke="#191970" points="274.2639,-496.148 263.7204,-497.1888 272.6117,-502.9502 274.2639,-496.148"/>
</g>
<!-- Node13 -->
<g id="node14" class="node">
<title>Node13</title>
<g id="a_node14"><a xlink:href="class_ogre_1_1_light.html" target="_top" xlink:title="Representation of a dynamic light source in the scene. ">
<polygon fill="none" stroke="#000000" points="397.5,-734.5 397.5,-753.5 462.5,-753.5 462.5,-734.5 397.5,-734.5"/>
<text text-anchor="middle" x="430" y="-741.5" font-family="Helvetica,sans-Serif" font-size="10.00" fill="#000000">Ogre::Light</text>
</a>
</g>
</g>
<!-- Node6&#45;&gt;Node13 -->
<g id="edge13" class="edge">
<title>Node6&#45;&gt;Node13</title>
<path fill="none" stroke="#191970" d="M273.4782,-499.7614C284.1693,-502.9368 294.2715,-508.0285 302,-516 367.6102,-583.6731 272.4619,-657.257 338,-725 353.0823,-740.5897 377.3251,-745.1091 397.1392,-745.853"/>
<polygon fill="#191970" stroke="#191970" points="274.0883,-496.308 263.5454,-497.3562 272.4408,-503.1114 274.0883,-496.308"/>
</g>
<!-- Node14 -->
<g id="node15" class="node">
<title>Node14</title>
<g id="a_node15"><a xlink:href="class_ogre_1_1_manual_object.html" target="_top" xlink:title="Ogre::ManualObject">
<polygon fill="none" stroke="#000000" points="378,-696.5 378,-715.5 482,-715.5 482,-696.5 378,-696.5"/>
<text text-anchor="middle" x="430" y="-703.5" font-family="Helvetica,sans-Serif" font-size="10.00" fill="#000000">Ogre::ManualObject</text>
</a>
</g>
</g>
<!-- Node6&#45;&gt;Node14 -->
<g id="edge14" class="edge">
<title>Node6&#45;&gt;Node14</title>
<path fill="none" stroke="#191970" d="M273.6057,-500.1042C284.1852,-503.2636 294.2151,-508.2614 302,-516 357.0818,-570.754 282.9766,-632.1874 338,-687 348.5146,-697.4743 363.1789,-702.9029 377.7142,-705.5493"/>
<polygon fill="#191970" stroke="#191970" points="274.3299,-496.6781 263.7838,-497.6936 272.6614,-503.4764 274.3299,-496.6781"/>
</g>
<!-- Node15 -->
<g id="node16" class="node">
<title>Node15</title>
<g id="a_node16"><a xlink:href="class_ogre_1_1_movable_plane.html" target="_top" xlink:title="Definition of a Plane that may be attached to a node, and the derived details of it retrieved simply...">
<polygon fill="none" stroke="#000000" points="377.5,-658.5 377.5,-677.5 482.5,-677.5 482.5,-658.5 377.5,-658.5"/>
<text text-anchor="middle" x="430" y="-665.5" font-family="Helvetica,sans-Serif" font-size="10.00" fill="#000000">Ogre::MovablePlane</text>
</a>
</g>
</g>
<!-- Node6&#45;&gt;Node15 -->
<g id="edge15" class="edge">
<title>Node6&#45;&gt;Node15</title>
<path fill="none" stroke="#191970" d="M273.6156,-500.581C284.0972,-503.7083 294.0903,-508.5722 302,-516 346.6404,-557.9209 293.4043,-607.0316 338,-649 348.5705,-658.9477 362.9108,-664.2751 377.122,-666.9924"/>
<polygon fill="#191970" stroke="#191970" points="274.4463,-497.181 263.898,-498.1733 272.7628,-503.9756 274.4463,-497.181"/>
</g>
<!-- Node16 -->
<g id="node17" class="node">
<title>Node16</title>
<g id="a_node17"><a xlink:href="class_ogre_1_1_null_entity.html" target="_top" xlink:title="Ogre::NullEntity">
<polygon fill="none" stroke="#000000" points="387,-620.5 387,-639.5 473,-639.5 473,-620.5 387,-620.5"/>
<text text-anchor="middle" x="430" y="-627.5" font-family="Helvetica,sans-Serif" font-size="10.00" fill="#000000">Ogre::NullEntity</text>
</a>
</g>
</g>
<!-- Node6&#45;&gt;Node16 -->
<g id="edge16" class="edge">
<title>Node6&#45;&gt;Node16</title>
<path fill="none" stroke="#191970" d="M273.7159,-501.4378C284.0119,-504.5004 293.9158,-509.1207 302,-516 336.387,-545.2618 303.6442,-581.7016 338,-611 351.4023,-622.4294 369.8705,-627.5969 386.7448,-629.7517"/>
<polygon fill="#191970" stroke="#191970" points="274.3208,-497.9815 263.7709,-498.9559 272.6258,-504.7732 274.3208,-497.9815"/>
</g>
<!-- Node17 -->
<g id="node18" class="node">
<title>Node17</title>
<g id="a_node18"><a xlink:href="class_ogre_1_1_particle_system.html" target="_top" xlink:title="Class defining particle system based special effects. ">
<polygon fill="none" stroke="#000000" points="375,-582.5 375,-601.5 485,-601.5 485,-582.5 375,-582.5"/>
<text text-anchor="middle" x="430" y="-589.5" font-family="Helvetica,sans-Serif" font-size="10.00" fill="#000000">Ogre::ParticleSystem</text>
</a>
</g>
</g>
<!-- Node6&#45;&gt;Node17 -->
<g id="edge17" class="edge">
<title>Node6&#45;&gt;Node17</title>
<path fill="none" stroke="#191970" d="M273.3591,-503.067C283.5199,-505.9656 293.4716,-510.1089 302,-516 326.653,-533.0296 313.3651,-555.9442 338,-573 348.7273,-580.427 361.7344,-585.0676 374.5489,-587.938"/>
<polygon fill="#191970" stroke="#191970" points="274.1406,-499.6549 263.5929,-500.6529 272.4608,-506.4504 274.1406,-499.6549"/>
</g>
<!-- Node18 -->
<g id="node19" class="node">
<title>Node18</title>
<g id="a_node19"><a xlink:href="class_ogre_1_1_rectangle2_d.html" target="_top" xlink:title="Ogre::Rectangle2D">
<polygon fill="none" stroke="#000000" points="379.5,-544.5 379.5,-563.5 480.5,-563.5 480.5,-544.5 379.5,-544.5"/>
<text text-anchor="middle" x="430" y="-551.5" font-family="Helvetica,sans-Serif" font-size="10.00" fill="#000000">Ogre::Rectangle2D</text>
</a>
</g>
</g>
<!-- Node6&#45;&gt;Node18 -->
<g id="edge18" class="edge">
<title>Node6&#45;&gt;Node18</title>
<path fill="none" stroke="#191970" d="M273.7458,-507.7511C283.3419,-510.0546 293.0176,-512.7864 302,-516 319.0343,-522.0943 320.9722,-528.8876 338,-535 351.0477,-539.6837 365.5734,-543.3518 379.1573,-546.1623"/>
<polygon fill="#191970" stroke="#191970" points="274.3326,-504.2955 263.8068,-505.5033 272.7884,-511.123 274.3326,-504.2955"/>
</g>
<!-- Node19 -->
<g id="node20" class="node">
<title>Node19</title>
<g id="a_node20"><a xlink:href="class_ogre_1_1v1_1_1_billboard_chain.html" target="_top" xlink:title="Allows the rendering of a chain of connected billboards. ">
<polygon fill="none" stroke="#000000" points="368.5,-506.5 368.5,-525.5 491.5,-525.5 491.5,-506.5 368.5,-506.5"/>
<text text-anchor="middle" x="430" y="-513.5" font-family="Helvetica,sans-Serif" font-size="10.00" fill="#000000">Ogre::v1::BillboardChain</text>
</a>
</g>
</g>
<!-- Node6&#45;&gt;Node19 -->
<g id="edge19" class="edge">
<title>Node6&#45;&gt;Node19</title>
<path fill="none" stroke="#191970" d="M273.9188,-502.5813C303.6917,-505.1409 338.8176,-508.1608 368.2004,-510.6869"/>
<polygon fill="#191970" stroke="#191970" points="273.8923,-499.0662 263.6292,-501.6966 273.2926,-506.0404 273.8923,-499.0662"/>
</g>
<!-- Node21 -->
<g id="node22" class="node">
<title>Node21</title>
<g id="a_node22"><a xlink:href="class_ogre_1_1v1_1_1_billboard_set.html" target="_top" xlink:title="A collection of billboards (faces which are always facing the given direction) with the same (default...">
<polygon fill="none" stroke="#000000" points="373.5,-468.5 373.5,-487.5 486.5,-487.5 486.5,-468.5 373.5,-468.5"/>
<text text-anchor="middle" x="430" y="-475.5" font-family="Helvetica,sans-Serif" font-size="10.00" fill="#000000">Ogre::v1::BillboardSet</text>
</a>
</g>
</g>
<!-- Node6&#45;&gt;Node21 -->
<g id="edge21" class="edge">
<title>Node6&#45;&gt;Node21</title>
<path fill="none" stroke="#191970" d="M273.65,-491.4419C305.2229,-488.7274 342.8664,-485.4911 373.3045,-482.8743"/>
<polygon fill="#191970" stroke="#191970" points="273.2926,-487.9596 263.6292,-492.3034 273.8923,-494.9338 273.2926,-487.9596"/>
</g>
<!-- Node22 -->
<g id="node23" class="node">
<title>Node22</title>
<g id="a_node23"><a xlink:href="class_ogre_1_1v1_1_1_entity.html" target="_top" xlink:title="Defines an instance of a discrete, movable object based on a Mesh. ">
<polygon fill="none" stroke="#000000" points="387,-430.5 387,-449.5 473,-449.5 473,-430.5 387,-430.5"/>
<text text-anchor="middle" x="430" y="-437.5" font-family="Helvetica,sans-Serif" font-size="10.00" fill="#000000">Ogre::v1::Entity</text>
</a>
</g>
</g>
<!-- Node6&#45;&gt;Node22 -->
<g id="edge22" class="edge">
<title>Node6&#45;&gt;Node22</title>
<path fill="none" stroke="#191970" d="M273.7458,-486.2489C283.3419,-483.9454 293.0176,-481.2136 302,-478 319.0343,-471.9057 320.9722,-465.1124 338,-459 353.5038,-453.4347 371.0943,-449.3033 386.7119,-446.3407"/>
<polygon fill="#191970" stroke="#191970" points="272.7884,-482.877 263.8068,-488.4967 274.3326,-489.7045 272.7884,-482.877"/>
</g>
<!-- Node23 -->
<g id="node24" class="node">
<title>Node23</title>
<g id="a_node24"><a xlink:href="class_ogre_1_1v1_1_1_manual_object.html" target="_top" xlink:title="Class providing a much simplified interface to generating manual objects with custom geometry...">
<polygon fill="none" stroke="#000000" points="370,-392.5 370,-411.5 490,-411.5 490,-392.5 370,-392.5"/>
<text text-anchor="middle" x="430" y="-399.5" font-family="Helvetica,sans-Serif" font-size="10.00" fill="#000000">Ogre::v1::ManualObject</text>
</a>
</g>
</g>
<!-- Node6&#45;&gt;Node23 -->
<g id="edge23" class="edge">
<title>Node6&#45;&gt;Node23</title>
<path fill="none" stroke="#191970" d="M273.3591,-490.933C283.5199,-488.0344 293.4716,-483.8911 302,-478 326.653,-460.9704 313.3651,-438.0558 338,-421 347.3864,-414.5014 358.5183,-410.1361 369.7393,-407.2234"/>
<polygon fill="#191970" stroke="#191970" points="272.4608,-487.5496 263.5929,-493.3471 274.1406,-494.3451 272.4608,-487.5496"/>
</g>
<!-- Node24 -->
<g id="node25" class="node">
<title>Node24</title>
<g id="a_node25"><a xlink:href="class_ogre_1_1v1_1_1_overlay.html" target="_top" xlink:title="Represents a layer which is rendered on top of the &#39;normal&#39; scene contents. ">
<polygon fill="none" stroke="#000000" points="383,-354.5 383,-373.5 477,-373.5 477,-354.5 383,-354.5"/>
<text text-anchor="middle" x="430" y="-361.5" font-family="Helvetica,sans-Serif" font-size="10.00" fill="#000000">Ogre::v1::Overlay</text>
</a>
</g>
</g>
<!-- Node6&#45;&gt;Node24 -->
<g id="edge24" class="edge">
<title>Node6&#45;&gt;Node24</title>
<path fill="none" stroke="#191970" d="M273.7159,-492.5622C284.0119,-489.4996 293.9158,-484.8793 302,-478 336.387,-448.7382 303.6442,-412.2984 338,-383 350.4096,-372.4172 367.1622,-367.203 382.9714,-364.7781"/>
<polygon fill="#191970" stroke="#191970" points="272.6258,-489.2268 263.7709,-495.0441 274.3208,-496.0185 272.6258,-489.2268"/>
</g>
<!-- Node25 -->
<g id="node26" class="node">
<title>Node25</title>
<g id="a_node26"><a xlink:href="class_ogre_1_1v1_1_1_rectangle2_d.html" target="_top" xlink:title="Allows the rendering of a simple 2D rectangle This class renders a simple 2D rectangle; this rectangl...">
<polygon fill="none" stroke="#000000" points="371.5,-316.5 371.5,-335.5 488.5,-335.5 488.5,-316.5 371.5,-316.5"/>
<text text-anchor="middle" x="430" y="-323.5" font-family="Helvetica,sans-Serif" font-size="10.00" fill="#000000">Ogre::v1::Rectangle2D</text>
</a>
</g>
</g>
<!-- Node6&#45;&gt;Node25 -->
<g id="edge25" class="edge">
<title>Node6&#45;&gt;Node25</title>
<path fill="none" stroke="#191970" d="M273.6156,-493.419C284.0972,-490.2917 294.0903,-485.4278 302,-478 346.6404,-436.0791 293.4043,-386.9684 338,-345 347.1453,-336.3935 359.1123,-331.2455 371.3762,-328.254"/>
<polygon fill="#191970" stroke="#191970" points="272.7628,-490.0244 263.898,-495.8267 274.4463,-496.819 272.7628,-490.0244"/>
</g>
<!-- Node26 -->
<g id="node27" class="node">
<title>Node26</title>
<g id="a_node27"><a xlink:href="class_ogre_1_1v1_1_1_simple_renderable.html" target="_top" xlink:title="Simple implementation of MovableObject and Renderable for single&#45;part custom objects. ">
<polygon fill="none" stroke="#000000" points="360,-278.5 360,-297.5 500,-297.5 500,-278.5 360,-278.5"/>
<text text-anchor="middle" x="430" y="-285.5" font-family="Helvetica,sans-Serif" font-size="10.00" fill="#000000">Ogre::v1::SimpleRenderable</text>
</a>
</g>
</g>
<!-- Node6&#45;&gt;Node26 -->
<g id="edge26" class="edge">
<title>Node6&#45;&gt;Node26</title>
<path fill="none" stroke="#191970" d="M273.6057,-493.8958C284.1852,-490.7364 294.2151,-485.7386 302,-478 357.0818,-423.246 282.9766,-361.8126 338,-307 344.1239,-300.8996 351.6554,-296.5107 359.7492,-293.3862"/>
<polygon fill="#191970" stroke="#191970" points="272.6614,-490.5236 263.7838,-496.3064 274.3299,-497.3219 272.6614,-490.5236"/>
</g>
<!-- Node28 -->
<g id="node29" class="node">
<title>Node28</title>
<g id="a_node29"><a xlink:href="class_ogre_1_1v1_1_1_static_geometry_1_1_region.html" target="_top" xlink:title="The details of a topological region which is the highest level of partitioning for this class...">
<polygon fill="none" stroke="#000000" points="366,-229 366,-259 494,-259 494,-229 366,-229"/>
<text text-anchor="start" x="374" y="-247" font-family="Helvetica,sans-Serif" font-size="10.00" fill="#000000">Ogre::v1::StaticGeometry</text>
<text text-anchor="middle" x="430" y="-236" font-family="Helvetica,sans-Serif" font-size="10.00" fill="#000000">::Region</text>
</a>
</g>
</g>
<!-- Node6&#45;&gt;Node28 -->
<g id="edge28" class="edge">
<title>Node6&#45;&gt;Node28</title>
<path fill="none" stroke="#191970" d="M273.4782,-494.2386C284.1693,-491.0632 294.2715,-485.9715 302,-478 367.6102,-410.3269 274.5817,-338.7314 338,-269 345.4613,-260.796 355.3187,-255.1738 365.807,-251.3441"/>
<polygon fill="#191970" stroke="#191970" points="272.4408,-490.8886 263.5454,-496.6438 274.0883,-497.692 272.4408,-490.8886"/>
</g>
<!-- Node29 -->
<g id="node30" class="node">
<title>Node29</title>
<g id="a_node30"><a xlink:href="class_ogre_1_1_voxel_visualizer.html" target="_top" xlink:title="Ogre::VoxelVisualizer">
<polygon fill="none" stroke="#000000" points="374.5,-190.5 374.5,-209.5 485.5,-209.5 485.5,-190.5 374.5,-190.5"/>
<text text-anchor="middle" x="430" y="-197.5" font-family="Helvetica,sans-Serif" font-size="10.00" fill="#000000">Ogre::VoxelVisualizer</text>
</a>
</g>
</g>
<!-- Node6&#45;&gt;Node29 -->
<g id="edge29" class="edge">
<title>Node6&#45;&gt;Node29</title>
<path fill="none" stroke="#191970" d="M273.6871,-494.4379C284.3583,-491.2435 294.3997,-486.0939 302,-478 381.2528,-393.5996 259.2776,-304.8954 338,-220 347.4468,-209.8124 360.7629,-204.1851 374.3373,-201.2129"/>
<polygon fill="#191970" stroke="#191970" points="272.6523,-491.0875 263.7619,-496.8503 274.3056,-497.8894 272.6523,-491.0875"/>
</g>
<!-- Node30 -->
<g id="node31" class="node">
<title>Node30</title>
<g id="a_node31"><a xlink:href="class_ogre_1_1_wire_aabb.html" target="_top" xlink:title="Helper class to display the Aabb of a MovableObject as lines. ">
<polygon fill="none" stroke="#000000" points="387,-152.5 387,-171.5 473,-171.5 473,-152.5 387,-152.5"/>
<text text-anchor="middle" x="430" y="-159.5" font-family="Helvetica,sans-Serif" font-size="10.00" fill="#000000">Ogre::WireAabb</text>
</a>
</g>
</g>
<!-- Node6&#45;&gt;Node30 -->
<g id="edge30" class="edge">
<title>Node6&#45;&gt;Node30</title>
<path fill="none" stroke="#191970" d="M273.8063,-494.5489C284.4662,-491.3439 294.4729,-486.1621 302,-478 392.142,-380.2533 247.9621,-278.8427 338,-181 350.2586,-167.6788 369.1831,-162.3375 386.6881,-160.5604"/>
<polygon fill="#191970" stroke="#191970" points="272.7731,-491.1982 263.8854,-496.9653 274.4297,-497.9993 272.7731,-491.1982"/>
</g>
<!-- Node9 -->
<g id="node10" class="node">
<title>Node9</title>
<g id="a_node10"><a xlink:href="class_ogre_1_1_camera.html" target="_top" xlink:title="A viewpoint from which the scene will be rendered. ">
<polygon fill="none" stroke="#000000" points="588,-886.5 588,-905.5 666,-905.5 666,-886.5 588,-886.5"/>
<text text-anchor="middle" x="627" y="-893.5" font-family="Helvetica,sans-Serif" font-size="10.00" fill="#000000">Ogre::Camera</text>
</a>
</g>
</g>
<!-- Node8&#45;&gt;Node9 -->
<g id="edge9" class="edge">
<title>Node8&#45;&gt;Node9</title>
<path fill="none" stroke="#191970" d="M480.3603,-896C513.7342,-896 556.8852,-896 587.721,-896"/>
<polygon fill="#191970" stroke="#191970" points="480.3413,-892.5001 470.3413,-896 480.3412,-899.5001 480.3413,-892.5001"/>
</g>
<!-- Node20 -->
<g id="node21" class="node">
<title>Node20</title>
<g id="a_node21"><a xlink:href="class_ogre_1_1v1_1_1_ribbon_trail.html" target="_top" xlink:title="Subclass of BillboardChain which automatically leaves a trail behind one or more Node instances...">
<polygon fill="none" stroke="#000000" points="572,-506.5 572,-525.5 682,-525.5 682,-506.5 572,-506.5"/>
<text text-anchor="middle" x="627" y="-513.5" font-family="Helvetica,sans-Serif" font-size="10.00" fill="#000000">Ogre::v1::RibbonTrail</text>
</a>
</g>
</g>
<!-- Node19&#45;&gt;Node20 -->
<g id="edge20" class="edge">
<title>Node19&#45;&gt;Node20</title>
<path fill="none" stroke="#191970" d="M501.6538,-516C524.8362,-516 550.1664,-516 571.9506,-516"/>
<polygon fill="#191970" stroke="#191970" points="501.5217,-512.5001 491.5217,-516 501.5217,-519.5001 501.5217,-512.5001"/>
</g>
<!-- Node27 -->
<g id="node28" class="node">
<title>Node27</title>
<g id="a_node28"><a xlink:href="class_ogre_1_1v1_1_1_wire_bounding_box.html" target="_top" xlink:title="Allows the rendering of a wireframe bounding box. ">
<polygon fill="none" stroke="#000000" points="558,-278.5 558,-297.5 696,-297.5 696,-278.5 558,-278.5"/>
<text text-anchor="middle" x="627" y="-285.5" font-family="Helvetica,sans-Serif" font-size="10.00" fill="#000000">Ogre::v1::WireBoundingBox</text>
</a>
</g>
</g>
<!-- Node26&#45;&gt;Node27 -->
<g id="edge27" class="edge">
<title>Node26&#45;&gt;Node27</title>
<path fill="none" stroke="#191970" d="M510.2732,-288C526.0608,-288 542.4957,-288 557.8784,-288"/>
<polygon fill="#191970" stroke="#191970" points="510.0096,-284.5001 500.0095,-288 510.0095,-291.5001 510.0096,-284.5001"/>
</g>
<!-- Node32 -->
<g id="node33" class="node">
<title>Node32</title>
<g id="a_node33"><a xlink:href="class_ogre_1_1_scene_node.html" target="_top" xlink:title="Class representing a node in the scene graph. ">
<polygon fill="none" stroke="#000000" points="382.5,-114.5 382.5,-133.5 477.5,-133.5 477.5,-114.5 382.5,-114.5"/>
<text text-anchor="middle" x="430" y="-121.5" font-family="Helvetica,sans-Serif" font-size="10.00" fill="#000000">Ogre::SceneNode</text>
</a>
</g>
</g>
<!-- Node31&#45;&gt;Node32 -->
<g id="edge32" class="edge">
<title>Node31&#45;&gt;Node32</title>
<path fill="none" stroke="#191970" d="M253.0881,-460.529C270.6939,-458.7413 289.6725,-453.3674 302,-440 392.142,-342.2533 247.9621,-240.8427 338,-143 349.2647,-130.7589 366.158,-125.2561 382.4064,-123.0653"/>
<polygon fill="#191970" stroke="#191970" points="252.6883,-457.0477 242.9413,-461.2005 253.1506,-464.0324 252.6883,-457.0477"/>
</g>
<!-- Node33 -->
<g id="node34" class="node">
<title>Node33</title>
<g id="a_node34"><a xlink:href="class_ogre_1_1_tag_point.html" target="_top" xlink:title="TagPoints are like SceneNodes, that can be children of a Bone. ">
<polygon fill="none" stroke="#000000" points="585.5,-114.5 585.5,-133.5 668.5,-133.5 668.5,-114.5 585.5,-114.5"/>
<text text-anchor="middle" x="627" y="-121.5" font-family="Helvetica,sans-Serif" font-size="10.00" fill="#000000">Ogre::TagPoint</text>
</a>
</g>
</g>
<!-- Node32&#45;&gt;Node33 -->
<g id="edge33" class="edge">
<title>Node32&#45;&gt;Node33</title>
<path fill="none" stroke="#191970" d="M488.0144,-124C519.2767,-124 557.1263,-124 585.4283,-124"/>
<polygon fill="#191970" stroke="#191970" points="487.6882,-120.5001 477.6882,-124 487.6882,-127.5001 487.6882,-120.5001"/>
</g>
<!-- Node35 -->
<g id="node36" class="node">
<title>Node35</title>
<g id="a_node36"><a xlink:href="class_ogre_1_1_parallax_corrected_cubemap.html" target="_top" xlink:title="Ogre::ParallaxCorrectedCubemap">
<polygon fill="none" stroke="#000000" points="348,-76.5 348,-95.5 512,-95.5 512,-76.5 348,-76.5"/>
<text text-anchor="middle" x="430" y="-83.5" font-family="Helvetica,sans-Serif" font-size="10.00" fill="#000000">Ogre::ParallaxCorrectedCubemap</text>
</a>
</g>
</g>
<!-- Node34&#45;&gt;Node35 -->
<g id="edge35" class="edge">
<title>Node34&#45;&gt;Node35</title>
<path fill="none" stroke="#191970" d="M298.6048,-405.3389C299.7842,-404.2855 300.9177,-403.1736 302,-402 392.142,-304.2533 247.9621,-202.8427 338,-105 341.4236,-101.2797 345.3671,-98.1817 349.6544,-95.61"/>
<polygon fill="#191970" stroke="#191970" points="296.222,-402.7452 290.2132,-411.4714 300.3522,-408.3969 296.222,-402.7452"/>
</g>
<!-- Node36 -->
<g id="node37" class="node">
<title>Node36</title>
<g id="a_node37"><a xlink:href="class_ogre_1_1_parallax_corrected_cubemap_auto.html" target="_top" xlink:title="Per&#45;Pixel reflection probes. ">
<polygon fill="none" stroke="#000000" points="338,-38.5 338,-57.5 522,-57.5 522,-38.5 338,-38.5"/>
<text text-anchor="middle" x="430" y="-45.5" font-family="Helvetica,sans-Serif" font-size="10.00" fill="#000000">Ogre::ParallaxCorrectedCubemapAuto</text>
</a>
</g>
</g>
<!-- Node34&#45;&gt;Node36 -->
<g id="edge36" class="edge">
<title>Node34&#45;&gt;Node36</title>
<path fill="none" stroke="#191970" d="M298.7403,-405.2565C299.8722,-404.2274 300.9604,-403.1428 302,-402 402.7684,-291.2316 237.3497,-177.8757 338,-67 341.3983,-63.2565 345.3226,-60.141 349.5957,-57.5564"/>
<polygon fill="#191970" stroke="#191970" points="296.6054,-402.4825 290.6895,-411.2719 300.7953,-408.0901 296.6054,-402.4825"/>
</g>
<!-- Node38 -->
<g id="node39" class="node">
<title>Node38</title>
<g id="a_node39"><a xlink:href="class_ogre_1_1_default_scene_manager.html" target="_top" xlink:title="Default scene manager. ">
<polygon fill="none" stroke="#000000" points="360,-.5 360,-19.5 500,-19.5 500,-.5 360,-.5"/>
<text text-anchor="middle" x="430" y="-7.5" font-family="Helvetica,sans-Serif" font-size="10.00" fill="#000000">Ogre::DefaultSceneManager</text>
</a>
</g>
</g>
<!-- Node37&#45;&gt;Node38 -->
<g id="edge38" class="edge">
<title>Node37&#45;&gt;Node38</title>
<path fill="none" stroke="#191970" d="M273.8968,-380.6318C284.5481,-377.4189 294.5285,-372.2129 302,-364 402.7684,-253.2316 237.3497,-139.8757 338,-29 343.9195,-22.4791 351.4353,-17.8638 359.6104,-14.6403"/>
<polygon fill="#191970" stroke="#191970" points="272.8648,-377.2808 263.9792,-383.0512 274.5238,-384.0814 272.8648,-377.2808"/>
</g>
</g>
</svg>
