<?xml version="1.0" encoding="UTF-8" standalone="no"?>
<!DOCTYPE svg PUBLIC "-//W3C//DTD SVG 1.1//EN"
 "http://www.w3.org/Graphics/SVG/1.1/DTD/svg11.dtd">
<!-- Generated by graphviz version 2.44.0 ()
 -->
<!-- Title: Ogre::D3D11StereoDriverImpl Pages: 1 -->
<svg width="332pt" height="140pt"
 viewBox="0.00 0.00 332.00 140.00" xmlns="http://www.w3.org/2000/svg" xmlns:xlink="http://www.w3.org/1999/xlink">
<g id="graph0" class="graph" transform="scale(1 1) rotate(0) translate(4 136)">
<title>Ogre::D3D11StereoDriverImpl</title>
<!-- Node1 -->
<g id="node1" class="node">
<title>Node1</title>
<g id="a_node1"><a xlink:title="Virtual interface of the stereo driver.">
<polygon fill="#bfbfbf" stroke="black" points="86.5,-56.5 86.5,-75.5 230.5,-75.5 230.5,-56.5 86.5,-56.5"/>
<text text-anchor="middle" x="158.5" y="-63.5" font-family="Helvetica,sans-Serif" font-size="10.00">Ogre::D3D11StereoDriverImpl</text>
</a>
</g>
</g>
<!-- Node3 -->
<g id="node3" class="node">
<title>Node3</title>
<g id="a_node3"><a xlink:href="class_ogre_1_1_d3_d11_stereo_driver_a_m_d.html" target="_top" xlink:title="Virtual interface of the stereo driver.">
<polygon fill="none" stroke="black" points="0,-0.5 0,-19.5 147,-19.5 147,-0.5 0,-0.5"/>
<text text-anchor="middle" x="73.5" y="-7.5" font-family="Helvetica,sans-Serif" font-size="10.00">Ogre::D3D11StereoDriverAMD</text>
</a>
</g>
</g>
<!-- Node1&#45;&gt;Node3 -->
<g id="edge2" class="edge">
<title>Node1&#45;&gt;Node3</title>
<path fill="none" stroke="midnightblue" d="M136.31,-50.9C120.72,-41 100.37,-28.07 87.12,-19.65"/>
<polygon fill="midnightblue" stroke="midnightblue" points="134.53,-53.92 144.84,-56.32 138.28,-48.01 134.53,-53.92"/>
</g>
<!-- Node4 -->
<g id="node4" class="node">
<title>Node4</title>
<g id="a_node4"><a xlink:href="class_ogre_1_1_d3_d11_stereo_driver_n_v_i_d_i_a.html" target="_top" xlink:title="Interface of the NVIDIA stereo driver.">
<polygon fill="none" stroke="black" points="165,-0.5 165,-19.5 324,-19.5 324,-0.5 165,-0.5"/>
<text text-anchor="middle" x="244.5" y="-7.5" font-family="Helvetica,sans-Serif" font-size="10.00">Ogre::D3D11StereoDriverNVIDIA</text>
</a>
</g>
</g>
<!-- Node1&#45;&gt;Node4 -->
<g id="edge3" class="edge">
<title>Node1&#45;&gt;Node4</title>
<path fill="none" stroke="midnightblue" d="M180.95,-50.9C196.72,-41 217.31,-28.07 230.72,-19.65"/>
<polygon fill="midnightblue" stroke="midnightblue" points="178.93,-48.04 172.32,-56.32 182.65,-53.97 178.93,-48.04"/>
</g>
<!-- Node2 -->
<g id="node2" class="node">
<title>Node2</title>
<g id="a_node2"><a xlink:href="class_ogre_1_1_allocated_object.html" target="_top" xlink:title="Superclass for all objects that wish to use custom memory allocators when their new / delete operator...">
<polygon fill="none" stroke="black" points="118.5,-112.5 118.5,-131.5 198.5,-131.5 198.5,-112.5 118.5,-112.5"/>
<text text-anchor="middle" x="158.5" y="-119.5" font-family="Helvetica,sans-Serif" font-size="10.00">ResourceAlloc</text>
</a>
</g>
</g>
<!-- Node2&#45;&gt;Node1 -->
<g id="edge1" class="edge">
<title>Node2&#45;&gt;Node1</title>
<path fill="none" stroke="midnightblue" d="M158.5,-101.8C158.5,-92.91 158.5,-82.78 158.5,-75.75"/>
<polygon fill="midnightblue" stroke="midnightblue" points="155,-102.08 158.5,-112.08 162,-102.08 155,-102.08"/>
</g>
</g>
</svg>
