<?xml version="1.0" encoding="UTF-8" standalone="no"?>
<!DOCTYPE svg PUBLIC "-//W3C//DTD SVG 1.1//EN"
 "http://www.w3.org/Graphics/SVG/1.1/DTD/svg11.dtd">
<!-- Generated by graphviz version 2.44.0 ()
 -->
<!-- Title: Ogre::DefaultShadowCameraSetup Pages: 1 -->
<svg width="341pt" height="274pt"
 viewBox="0.00 0.00 340.50 274.00" xmlns="http://www.w3.org/2000/svg" xmlns:xlink="http://www.w3.org/1999/xlink">
<g id="graph0" class="graph" transform="scale(1 1) rotate(0) translate(4 270)">
<title>Ogre::DefaultShadowCameraSetup</title>
<!-- Node1 -->
<g id="node1" class="node">
<title>Node1</title>
<g id="a_node1"><a xlink:title="Implements default shadow camera setup.">
<polygon fill="#bfbfbf" stroke="black" points="93,-123.5 93,-153.5 235,-153.5 235,-123.5 93,-123.5"/>
<text text-anchor="start" x="101" y="-141.5" font-family="Helvetica,sans-Serif" font-size="10.00">Ogre::DefaultShadowCamera</text>
<text text-anchor="middle" x="164" y="-130.5" font-family="Helvetica,sans-Serif" font-size="10.00">Setup</text>
</a>
</g>
</g>
<!-- Node4 -->
<g id="node4" class="node">
<title>Node4</title>
<g id="a_node4"><a xlink:href="class_ogre_1_1_concentric_shadow_camera.html" target="_top" xlink:title="Implements the concentric shadow mapping algorithm.">
<polygon fill="none" stroke="black" points="0,-62 0,-81 158,-81 158,-62 0,-62"/>
<text text-anchor="middle" x="79" y="-69" font-family="Helvetica,sans-Serif" font-size="10.00">Ogre::ConcentricShadowCamera</text>
</a>
</g>
</g>
<!-- Node1&#45;&gt;Node4 -->
<g id="edge3" class="edge">
<title>Node1&#45;&gt;Node4</title>
<path fill="none" stroke="midnightblue" d="M137.2,-117.01C121.42,-104.94 102.28,-90.3 90.37,-81.19"/>
<polygon fill="midnightblue" stroke="midnightblue" points="135.49,-120.1 145.56,-123.4 139.74,-114.54 135.49,-120.1"/>
</g>
<!-- Node5 -->
<g id="node5" class="node">
<title>Node5</title>
<g id="a_node5"><a xlink:href="class_ogre_1_1_focused_shadow_camera_setup.html" target="_top" xlink:title="Implements the uniform shadow mapping algorithm in focused mode.">
<polygon fill="none" stroke="black" points="175.5,-56.5 175.5,-86.5 324.5,-86.5 324.5,-56.5 175.5,-56.5"/>
<text text-anchor="start" x="183.5" y="-74.5" font-family="Helvetica,sans-Serif" font-size="10.00">Ogre::FocusedShadowCamera</text>
<text text-anchor="middle" x="250" y="-63.5" font-family="Helvetica,sans-Serif" font-size="10.00">Setup</text>
</a>
</g>
</g>
<!-- Node1&#45;&gt;Node5 -->
<g id="edge4" class="edge">
<title>Node1&#45;&gt;Node5</title>
<path fill="none" stroke="midnightblue" d="M190.9,-117.17C204.05,-107.23 219.55,-95.51 231.38,-86.58"/>
<polygon fill="midnightblue" stroke="midnightblue" points="188.53,-114.57 182.66,-123.4 192.75,-120.16 188.53,-114.57"/>
</g>
<!-- Node2 -->
<g id="node2" class="node">
<title>Node2</title>
<g id="a_node2"><a xlink:href="class_ogre_1_1_shadow_camera_setup.html" target="_top" xlink:title="This class allows you to plug in new ways to define the camera setup when rendering and projecting sh...">
<polygon fill="none" stroke="black" points="95.5,-190.5 95.5,-209.5 232.5,-209.5 232.5,-190.5 95.5,-190.5"/>
<text text-anchor="middle" x="164" y="-197.5" font-family="Helvetica,sans-Serif" font-size="10.00">Ogre::ShadowCameraSetup</text>
</a>
</g>
</g>
<!-- Node2&#45;&gt;Node1 -->
<g id="edge1" class="edge">
<title>Node2&#45;&gt;Node1</title>
<path fill="none" stroke="midnightblue" d="M164,-180.23C164,-171.59 164,-161.5 164,-153.52"/>
<polygon fill="midnightblue" stroke="midnightblue" points="160.5,-180.48 164,-190.48 167.5,-180.48 160.5,-180.48"/>
</g>
<!-- Node3 -->
<g id="node3" class="node">
<title>Node3</title>
<g id="a_node3"><a xlink:href="class_ogre_1_1_allocated_object.html" target="_top" xlink:title="Superclass for all objects that wish to use custom memory allocators when their new / delete operator...">
<polygon fill="none" stroke="black" points="117,-246.5 117,-265.5 211,-265.5 211,-246.5 117,-246.5"/>
<text text-anchor="middle" x="164" y="-253.5" font-family="Helvetica,sans-Serif" font-size="10.00">ShadowDataAlloc</text>
</a>
</g>
</g>
<!-- Node3&#45;&gt;Node2 -->
<g id="edge2" class="edge">
<title>Node3&#45;&gt;Node2</title>
<path fill="none" stroke="midnightblue" d="M164,-235.8C164,-226.91 164,-216.78 164,-209.75"/>
<polygon fill="midnightblue" stroke="midnightblue" points="160.5,-236.08 164,-246.08 167.5,-236.08 160.5,-236.08"/>
</g>
<!-- Node6 -->
<g id="node6" class="node">
<title>Node6</title>
<g id="a_node6"><a xlink:href="class_ogre_1_1_p_s_s_m_shadow_camera_setup.html" target="_top" xlink:title="Parallel Split Shadow Map (PSSM) shadow camera setup.">
<polygon fill="none" stroke="black" points="167.5,-0.5 167.5,-19.5 332.5,-19.5 332.5,-0.5 167.5,-0.5"/>
<text text-anchor="middle" x="250" y="-7.5" font-family="Helvetica,sans-Serif" font-size="10.00">Ogre::PSSMShadowCameraSetup</text>
</a>
</g>
</g>
<!-- Node5&#45;&gt;Node6 -->
<g id="edge5" class="edge">
<title>Node5&#45;&gt;Node6</title>
<path fill="none" stroke="midnightblue" d="M250,-46.29C250,-36.86 250,-26.65 250,-19.66"/>
<polygon fill="midnightblue" stroke="midnightblue" points="246.5,-46.4 250,-56.4 253.5,-46.4 246.5,-46.4"/>
</g>
</g>
</svg>
