<?xml version="1.0" encoding="UTF-8" standalone="no"?>
<!DOCTYPE svg PUBLIC "-//W3C//DTD SVG 1.1//EN"
 "http://www.w3.org/Graphics/SVG/1.1/DTD/svg11.dtd">
<!-- Generated by graphviz version 2.44.0 ()
 -->
<!-- Title: Ogre::v1::HardwareBuffer Pages: 1 -->
<svg width="624pt" height="1166pt"
 viewBox="0.00 0.00 624.00 1166.00" xmlns="http://www.w3.org/2000/svg" xmlns:xlink="http://www.w3.org/1999/xlink">
<g id="graph0" class="graph" transform="scale(1 1) rotate(0) translate(4 1162)">
<title>Ogre::v1::HardwareBuffer</title>
<!-- Node1 -->
<g id="node1" class="node">
<title>Node1</title>
<g id="a_node1"><a xlink:title="Abstract class defining common features of hardware buffers.">
<polygon fill="#bfbfbf" stroke="black" points="100,-839 100,-858 225,-858 225,-839 100,-839"/>
<text text-anchor="middle" x="162.5" y="-846" font-family="Helvetica,sans-Serif" font-size="10.00">Ogre::v1::HardwareBuffer</text>
</a>
</g>
</g>
<!-- Node3 -->
<g id="node3" class="node">
<title>Node3</title>
<g id="a_node3"><a xlink:href="class_ogre_1_1v1_1_1_d3_d11_hardware_buffer.html" target="_top" xlink:title="Base implementation of a D3D11 buffer, dealing with all the common aspects.">
<polygon fill="none" stroke="black" points="261,-1079 261,-1098 415,-1098 415,-1079 261,-1079"/>
<text text-anchor="middle" x="338" y="-1086" font-family="Helvetica,sans-Serif" font-size="10.00">Ogre::v1::D3D11HardwareBuffer</text>
</a>
</g>
</g>
<!-- Node1&#45;&gt;Node3 -->
<g id="edge2" class="edge">
<title>Node1&#45;&gt;Node3</title>
<path fill="none" stroke="midnightblue" d="M166.33,-868.36C173.62,-911.81 197.12,-1015.68 261,-1069.5 265.58,-1073.36 270.82,-1076.45 276.38,-1078.92"/>
<polygon fill="midnightblue" stroke="midnightblue" points="169.76,-867.58 164.75,-858.24 162.84,-868.66 169.76,-867.58"/>
</g>
<!-- Node4 -->
<g id="node4" class="node">
<title>Node4</title>
<g id="a_node4"><a xlink:href="class_ogre_1_1v1_1_1_hardware_counter_buffer.html" target="_top" xlink:title="Specialisation of HardwareBuffer for a counter buffer.">
<polygon fill="none" stroke="black" points="271.5,-1029.5 271.5,-1059.5 404.5,-1059.5 404.5,-1029.5 271.5,-1029.5"/>
<text text-anchor="start" x="279.5" y="-1047.5" font-family="Helvetica,sans-Serif" font-size="10.00">Ogre::v1::HardwareCounter</text>
<text text-anchor="middle" x="338" y="-1036.5" font-family="Helvetica,sans-Serif" font-size="10.00">Buffer</text>
</a>
</g>
</g>
<!-- Node1&#45;&gt;Node4 -->
<g id="edge3" class="edge">
<title>Node1&#45;&gt;Node4</title>
<path fill="none" stroke="midnightblue" d="M178.9,-865.9C212.48,-903.84 291.85,-993.49 323.56,-1029.32"/>
<polygon fill="midnightblue" stroke="midnightblue" points="181.35,-863.39 172.1,-858.22 176.11,-868.03 181.35,-863.39"/>
</g>
<!-- Node8 -->
<g id="node8" class="node">
<title>Node8</title>
<g id="a_node8"><a xlink:href="class_ogre_1_1v1_1_1_hardware_index_buffer.html" target="_top" xlink:title="Specialisation of HardwareBuffer for vertex index buffers, still abstract.">
<polygon fill="none" stroke="black" points="264,-839 264,-858 412,-858 412,-839 264,-839"/>
<text text-anchor="middle" x="338" y="-846" font-family="Helvetica,sans-Serif" font-size="10.00">Ogre::v1::HardwareIndexBuffer</text>
</a>
</g>
</g>
<!-- Node1&#45;&gt;Node8 -->
<g id="edge7" class="edge">
<title>Node1&#45;&gt;Node8</title>
<path fill="none" stroke="midnightblue" d="M235.31,-848.5C244.78,-848.5 254.49,-848.5 263.97,-848.5"/>
<polygon fill="midnightblue" stroke="midnightblue" points="235.16,-845 225.16,-848.5 235.16,-852 235.16,-845"/>
</g>
<!-- Node16 -->
<g id="node16" class="node">
<title>Node16</title>
<g id="a_node16"><a xlink:href="class_ogre_1_1v1_1_1_hardware_uniform_buffer.html" target="_top" xlink:title="Specialisation of HardwareBuffer for a uniform buffer.">
<polygon fill="none" stroke="black" points="271,-514.5 271,-544.5 405,-544.5 405,-514.5 271,-514.5"/>
<text text-anchor="start" x="279" y="-532.5" font-family="Helvetica,sans-Serif" font-size="10.00">Ogre::v1::HardwareUniform</text>
<text text-anchor="middle" x="338" y="-521.5" font-family="Helvetica,sans-Serif" font-size="10.00">Buffer</text>
</a>
</g>
</g>
<!-- Node1&#45;&gt;Node16 -->
<g id="edge15" class="edge">
<title>Node1&#45;&gt;Node16</title>
<path fill="none" stroke="midnightblue" d="M173.63,-829.88C205.01,-772.18 300.24,-597.09 328.81,-544.56"/>
<polygon fill="midnightblue" stroke="midnightblue" points="170.4,-828.5 168.69,-838.95 176.55,-831.84 170.4,-828.5"/>
</g>
<!-- Node24 -->
<g id="node24" class="node">
<title>Node24</title>
<g id="a_node24"><a xlink:href="class_ogre_1_1v1_1_1_hardware_vertex_buffer.html" target="_top" xlink:title="Specialisation of HardwareBuffer for a vertex buffer.">
<polygon fill="none" stroke="black" points="274.5,-172.5 274.5,-202.5 401.5,-202.5 401.5,-172.5 274.5,-172.5"/>
<text text-anchor="start" x="282.5" y="-190.5" font-family="Helvetica,sans-Serif" font-size="10.00">Ogre::v1::HardwareVertex</text>
<text text-anchor="middle" x="338" y="-179.5" font-family="Helvetica,sans-Serif" font-size="10.00">Buffer</text>
</a>
</g>
</g>
<!-- Node1&#45;&gt;Node24 -->
<g id="edge23" class="edge">
<title>Node1&#45;&gt;Node24</title>
<path fill="none" stroke="midnightblue" d="M168.59,-829.12C194.36,-730.95 310.15,-289.8 333.06,-202.53"/>
<polygon fill="midnightblue" stroke="midnightblue" points="165.17,-828.34 166.02,-838.9 171.94,-830.12 165.17,-828.34"/>
</g>
<!-- Node2 -->
<g id="node2" class="node">
<title>Node2</title>
<g id="a_node2"><a xlink:href="class_ogre_1_1_allocated_object.html" target="_top" xlink:title="Superclass for all objects that wish to use custom memory allocators when their new / delete operator...">
<polygon fill="none" stroke="black" points="0,-839 0,-858 64,-858 64,-839 0,-839"/>
<text text-anchor="middle" x="32" y="-846" font-family="Helvetica,sans-Serif" font-size="10.00">BufferAlloc</text>
</a>
</g>
</g>
<!-- Node2&#45;&gt;Node1 -->
<g id="edge1" class="edge">
<title>Node2&#45;&gt;Node1</title>
<path fill="none" stroke="midnightblue" d="M74.17,-848.5C82.41,-848.5 91.22,-848.5 99.97,-848.5"/>
<polygon fill="midnightblue" stroke="midnightblue" points="74.11,-845 64.11,-848.5 74.11,-852 74.11,-845"/>
</g>
<!-- Node5 -->
<g id="node5" class="node">
<title>Node5</title>
<g id="a_node5"><a xlink:href="class_ogre_1_1v1_1_1_default_hardware_counter_buffer.html" target="_top" xlink:title="Specialisation of HardwareCounterBuffer for emulation.">
<polygon fill="none" stroke="black" points="468.5,-1127.5 468.5,-1157.5 598.5,-1157.5 598.5,-1127.5 468.5,-1127.5"/>
<text text-anchor="start" x="476.5" y="-1145.5" font-family="Helvetica,sans-Serif" font-size="10.00">Ogre::v1::DefaultHardware</text>
<text text-anchor="middle" x="533.5" y="-1134.5" font-family="Helvetica,sans-Serif" font-size="10.00">CounterBuffer</text>
</a>
</g>
</g>
<!-- Node4&#45;&gt;Node5 -->
<g id="edge4" class="edge">
<title>Node4&#45;&gt;Node5</title>
<path fill="none" stroke="midnightblue" d="M406.66,-1064.16C409.56,-1065.81 412.36,-1067.58 415,-1069.5 436.88,-1085.37 428.88,-1102.98 451,-1118.5 456.31,-1122.23 462.21,-1125.38 468.33,-1128.05"/>
<polygon fill="midnightblue" stroke="midnightblue" points="408.19,-1061.02 397.69,-1059.62 405.03,-1067.26 408.19,-1061.02"/>
</g>
<!-- Node6 -->
<g id="node6" class="node">
<title>Node6</title>
<g id="a_node6"><a xlink:href="class_ogre_1_1v1_1_1_g_l3_plus_default_hardware_counter_buffer.html" target="_top" xlink:title="Specialisation of HardwareCounterBuffer for emulation.">
<polygon fill="none" stroke="black" points="470.5,-1078.5 470.5,-1108.5 596.5,-1108.5 596.5,-1078.5 470.5,-1078.5"/>
<text text-anchor="start" x="478.5" y="-1096.5" font-family="Helvetica,sans-Serif" font-size="10.00">Ogre::v1::GL3PlusDefault</text>
<text text-anchor="middle" x="533.5" y="-1085.5" font-family="Helvetica,sans-Serif" font-size="10.00">HardwareCounterBuffer</text>
</a>
</g>
</g>
<!-- Node4&#45;&gt;Node6 -->
<g id="edge5" class="edge">
<title>Node4&#45;&gt;Node6</title>
<path fill="none" stroke="midnightblue" d="M408.3,-1062.05C429.55,-1067.43 452.73,-1073.3 473.24,-1078.49"/>
<polygon fill="midnightblue" stroke="midnightblue" points="408.92,-1058.6 398.37,-1059.53 407.21,-1065.38 408.92,-1058.6"/>
</g>
<!-- Node7 -->
<g id="node7" class="node">
<title>Node7</title>
<g id="a_node7"><a xlink:href="class_ogre_1_1v1_1_1_g_l3_plus_hardware_counter_buffer.html" target="_top" xlink:title="Specialisation of HardwareCounterBuffer for OpenGL.">
<polygon fill="none" stroke="black" points="465,-1029.5 465,-1059.5 602,-1059.5 602,-1029.5 465,-1029.5"/>
<text text-anchor="start" x="473" y="-1047.5" font-family="Helvetica,sans-Serif" font-size="10.00">Ogre::v1::GL3PlusHardware</text>
<text text-anchor="middle" x="533.5" y="-1036.5" font-family="Helvetica,sans-Serif" font-size="10.00">CounterBuffer</text>
</a>
</g>
</g>
<!-- Node4&#45;&gt;Node7 -->
<g id="edge6" class="edge">
<title>Node4&#45;&gt;Node7</title>
<path fill="none" stroke="midnightblue" d="M414.66,-1044.5C431.18,-1044.5 448.56,-1044.5 464.75,-1044.5"/>
<polygon fill="midnightblue" stroke="midnightblue" points="414.51,-1041 404.51,-1044.5 414.51,-1048 414.51,-1041"/>
</g>
<!-- Node9 -->
<g id="node9" class="node">
<title>Node9</title>
<g id="a_node9"><a xlink:href="class_ogre_1_1v1_1_1_d3_d11_hardware_index_buffer.html" target="_top" xlink:title=" ">
<polygon fill="none" stroke="black" points="457.5,-980.5 457.5,-1010.5 609.5,-1010.5 609.5,-980.5 457.5,-980.5"/>
<text text-anchor="start" x="465.5" y="-998.5" font-family="Helvetica,sans-Serif" font-size="10.00">Ogre::v1::D3D11HardwareIndex</text>
<text text-anchor="middle" x="533.5" y="-987.5" font-family="Helvetica,sans-Serif" font-size="10.00">Buffer</text>
</a>
</g>
</g>
<!-- Node8&#45;&gt;Node9 -->
<g id="edge8" class="edge">
<title>Node8&#45;&gt;Node9</title>
<path fill="none" stroke="midnightblue" d="M350.62,-866.58C368.8,-893.44 406.55,-943.67 451,-971.5 456.5,-974.94 462.52,-977.91 468.71,-980.47"/>
<polygon fill="midnightblue" stroke="midnightblue" points="353.46,-864.54 345.02,-858.13 347.63,-868.4 353.46,-864.54"/>
</g>
<!-- Node10 -->
<g id="node10" class="node">
<title>Node10</title>
<g id="a_node10"><a xlink:href="class_ogre_1_1v1_1_1_default_hardware_index_buffer.html" target="_top" xlink:title="Specialisation of HardwareIndexBuffer for emulation.">
<polygon fill="none" stroke="black" points="468.5,-931.5 468.5,-961.5 598.5,-961.5 598.5,-931.5 468.5,-931.5"/>
<text text-anchor="start" x="476.5" y="-949.5" font-family="Helvetica,sans-Serif" font-size="10.00">Ogre::v1::DefaultHardware</text>
<text text-anchor="middle" x="533.5" y="-938.5" font-family="Helvetica,sans-Serif" font-size="10.00">IndexBuffer</text>
</a>
</g>
</g>
<!-- Node8&#45;&gt;Node10 -->
<g id="edge9" class="edge">
<title>Node8&#45;&gt;Node10</title>
<path fill="none" stroke="midnightblue" d="M359.13,-864.49C380.74,-880.99 416.64,-906.53 451,-922.5 458.09,-925.8 465.74,-928.75 473.41,-931.38"/>
<polygon fill="midnightblue" stroke="midnightblue" points="361.09,-861.58 351.04,-858.23 356.81,-867.12 361.09,-861.58"/>
</g>
<!-- Node11 -->
<g id="node11" class="node">
<title>Node11</title>
<g id="a_node11"><a xlink:href="class_ogre_1_1v1_1_1_g_l3_plus_default_hardware_index_buffer.html" target="_top" xlink:title="Specialisation of HardwareIndexBuffer for emulation.">
<polygon fill="none" stroke="black" points="470.5,-882.5 470.5,-912.5 596.5,-912.5 596.5,-882.5 470.5,-882.5"/>
<text text-anchor="start" x="478.5" y="-900.5" font-family="Helvetica,sans-Serif" font-size="10.00">Ogre::v1::GL3PlusDefault</text>
<text text-anchor="middle" x="533.5" y="-889.5" font-family="Helvetica,sans-Serif" font-size="10.00">HardwareIndexBuffer</text>
</a>
</g>
</g>
<!-- Node8&#45;&gt;Node11 -->
<g id="edge10" class="edge">
<title>Node8&#45;&gt;Node11</title>
<path fill="none" stroke="midnightblue" d="M386.79,-860.6C412.88,-867.21 445.41,-875.45 473.12,-882.46"/>
<polygon fill="midnightblue" stroke="midnightblue" points="387.32,-857.13 376.77,-858.06 385.6,-863.91 387.32,-857.13"/>
</g>
<!-- Node12 -->
<g id="node12" class="node">
<title>Node12</title>
<g id="a_node12"><a xlink:href="class_ogre_1_1v1_1_1_g_l3_plus_hardware_index_buffer.html" target="_top" xlink:title=" ">
<polygon fill="none" stroke="black" points="465,-833.5 465,-863.5 602,-863.5 602,-833.5 465,-833.5"/>
<text text-anchor="start" x="473" y="-851.5" font-family="Helvetica,sans-Serif" font-size="10.00">Ogre::v1::GL3PlusHardware</text>
<text text-anchor="middle" x="533.5" y="-840.5" font-family="Helvetica,sans-Serif" font-size="10.00">IndexBuffer</text>
</a>
</g>
</g>
<!-- Node8&#45;&gt;Node12 -->
<g id="edge11" class="edge">
<title>Node8&#45;&gt;Node12</title>
<path fill="none" stroke="midnightblue" d="M422.42,-848.5C436.63,-848.5 451.24,-848.5 464.98,-848.5"/>
<polygon fill="midnightblue" stroke="midnightblue" points="422.15,-845 412.15,-848.5 422.15,-852 422.15,-845"/>
</g>
<!-- Node13 -->
<g id="node13" class="node">
<title>Node13</title>
<g id="a_node13"><a xlink:href="class_ogre_1_1v1_1_1_g_l_e_s2_default_hardware_index_buffer.html" target="_top" xlink:title="Specialisation of HardwareIndexBuffer for emulation.">
<polygon fill="none" stroke="black" points="453,-784.5 453,-814.5 614,-814.5 614,-784.5 453,-784.5"/>
<text text-anchor="start" x="461" y="-802.5" font-family="Helvetica,sans-Serif" font-size="10.00">Ogre::v1::GLES2DefaultHardware</text>
<text text-anchor="middle" x="533.5" y="-791.5" font-family="Helvetica,sans-Serif" font-size="10.00">IndexBuffer</text>
</a>
</g>
</g>
<!-- Node8&#45;&gt;Node13 -->
<g id="edge12" class="edge">
<title>Node8&#45;&gt;Node13</title>
<path fill="none" stroke="midnightblue" d="M386.79,-836.4C412.88,-829.79 445.41,-821.55 473.12,-814.54"/>
<polygon fill="midnightblue" stroke="midnightblue" points="385.6,-833.09 376.77,-838.94 387.32,-839.87 385.6,-833.09"/>
</g>
<!-- Node14 -->
<g id="node14" class="node">
<title>Node14</title>
<g id="a_node14"><a xlink:href="class_ogre_1_1v1_1_1_metal_hardware_index_buffer.html" target="_top" xlink:title="Specialisation of HardwareIndexBuffer for Metal.">
<polygon fill="none" stroke="black" points="460.5,-735.5 460.5,-765.5 606.5,-765.5 606.5,-735.5 460.5,-735.5"/>
<text text-anchor="start" x="468.5" y="-753.5" font-family="Helvetica,sans-Serif" font-size="10.00">Ogre::v1::MetalHardwareIndex</text>
<text text-anchor="middle" x="533.5" y="-742.5" font-family="Helvetica,sans-Serif" font-size="10.00">Buffer</text>
</a>
</g>
</g>
<!-- Node8&#45;&gt;Node14 -->
<g id="edge13" class="edge">
<title>Node8&#45;&gt;Node14</title>
<path fill="none" stroke="midnightblue" d="M359.13,-832.51C380.74,-816.01 416.64,-790.47 451,-774.5 458.09,-771.2 465.74,-768.25 473.41,-765.62"/>
<polygon fill="midnightblue" stroke="midnightblue" points="356.81,-829.88 351.04,-838.77 361.09,-835.42 356.81,-829.88"/>
</g>
<!-- Node15 -->
<g id="node15" class="node">
<title>Node15</title>
<g id="a_node15"><a xlink:href="class_ogre_1_1v1_1_1_vulkan_hardware_index_buffer.html" target="_top" xlink:title=" ">
<polygon fill="none" stroke="black" points="469,-686.5 469,-716.5 598,-716.5 598,-686.5 469,-686.5"/>
<text text-anchor="start" x="477" y="-704.5" font-family="Helvetica,sans-Serif" font-size="10.00">Ogre::v1::VulkanHardware</text>
<text text-anchor="middle" x="533.5" y="-693.5" font-family="Helvetica,sans-Serif" font-size="10.00">IndexBuffer</text>
</a>
</g>
</g>
<!-- Node8&#45;&gt;Node15 -->
<g id="edge14" class="edge">
<title>Node8&#45;&gt;Node15</title>
<path fill="none" stroke="midnightblue" d="M350.62,-830.42C368.8,-803.56 406.55,-753.33 451,-725.5 456.5,-722.06 462.52,-719.09 468.71,-716.53"/>
<polygon fill="midnightblue" stroke="midnightblue" points="347.63,-828.6 345.02,-838.87 353.46,-832.46 347.63,-828.6"/>
</g>
<!-- Node17 -->
<g id="node17" class="node">
<title>Node17</title>
<g id="a_node17"><a xlink:href="class_ogre_1_1v1_1_1_d3_d11_hardware_uniform_buffer.html" target="_top" xlink:title="Specialisation of HardwareBuffer for D3D11.">
<polygon fill="none" stroke="black" points="452,-637.5 452,-667.5 615,-667.5 615,-637.5 452,-637.5"/>
<text text-anchor="start" x="460" y="-655.5" font-family="Helvetica,sans-Serif" font-size="10.00">Ogre::v1::D3D11HardwareUniform</text>
<text text-anchor="middle" x="533.5" y="-644.5" font-family="Helvetica,sans-Serif" font-size="10.00">Buffer</text>
</a>
</g>
</g>
<!-- Node16&#45;&gt;Node17 -->
<g id="edge16" class="edge">
<title>Node16&#45;&gt;Node17</title>
<path fill="none" stroke="midnightblue" d="M359.43,-552.26C380.42,-574.37 415.02,-607.46 451,-627.5 457.85,-631.32 465.36,-634.63 472.96,-637.47"/>
<polygon fill="midnightblue" stroke="midnightblue" points="361.72,-549.58 352.34,-544.66 356.6,-554.36 361.72,-549.58"/>
</g>
<!-- Node18 -->
<g id="node18" class="node">
<title>Node18</title>
<g id="a_node18"><a xlink:href="class_ogre_1_1v1_1_1_default_hardware_uniform_buffer.html" target="_top" xlink:title="Specialisation of HardwareUniformBuffer for emulation.">
<polygon fill="none" stroke="black" points="468.5,-588.5 468.5,-618.5 598.5,-618.5 598.5,-588.5 468.5,-588.5"/>
<text text-anchor="start" x="476.5" y="-606.5" font-family="Helvetica,sans-Serif" font-size="10.00">Ogre::v1::DefaultHardware</text>
<text text-anchor="middle" x="533.5" y="-595.5" font-family="Helvetica,sans-Serif" font-size="10.00">UniformBuffer</text>
</a>
</g>
</g>
<!-- Node16&#45;&gt;Node18 -->
<g id="edge17" class="edge">
<title>Node16&#45;&gt;Node18</title>
<path fill="none" stroke="midnightblue" d="M380.2,-548.88C401.16,-558.39 427.18,-569.67 451,-578.5 460.3,-581.95 470.31,-585.3 480.03,-588.38"/>
<polygon fill="midnightblue" stroke="midnightblue" points="381.5,-545.62 370.95,-544.65 378.58,-551.99 381.5,-545.62"/>
</g>
<!-- Node19 -->
<g id="node19" class="node">
<title>Node19</title>
<g id="a_node19"><a xlink:href="class_ogre_1_1v1_1_1_g_l3_plus_default_hardware_uniform_buffer.html" target="_top" xlink:title="Specialisation of HardwareUniformBuffer for emulation.">
<polygon fill="none" stroke="black" points="470.5,-539.5 470.5,-569.5 596.5,-569.5 596.5,-539.5 470.5,-539.5"/>
<text text-anchor="start" x="478.5" y="-557.5" font-family="Helvetica,sans-Serif" font-size="10.00">Ogre::v1::GL3PlusDefault</text>
<text text-anchor="middle" x="533.5" y="-546.5" font-family="Helvetica,sans-Serif" font-size="10.00">HardwareUniformBuffer</text>
</a>
</g>
</g>
<!-- Node16&#45;&gt;Node19 -->
<g id="edge18" class="edge">
<title>Node16&#45;&gt;Node19</title>
<path fill="none" stroke="midnightblue" d="M415.1,-539.33C433.4,-541.7 452.75,-544.2 470.33,-546.47"/>
<polygon fill="midnightblue" stroke="midnightblue" points="415.42,-535.84 405.05,-538.03 414.52,-542.79 415.42,-535.84"/>
</g>
<!-- Node20 -->
<g id="node20" class="node">
<title>Node20</title>
<g id="a_node20"><a xlink:href="class_ogre_1_1v1_1_1_g_l3_plus_hardware_shader_storage_buffer.html" target="_top" xlink:title="Specialisation of HardwareUniformBuffer for the OpenGL Shader Storage Buffer.">
<polygon fill="none" stroke="black" points="465,-490.5 465,-520.5 602,-520.5 602,-490.5 465,-490.5"/>
<text text-anchor="start" x="473" y="-508.5" font-family="Helvetica,sans-Serif" font-size="10.00">Ogre::v1::GL3PlusHardware</text>
<text text-anchor="middle" x="533.5" y="-497.5" font-family="Helvetica,sans-Serif" font-size="10.00">ShaderStorageBuffer</text>
</a>
</g>
</g>
<!-- Node16&#45;&gt;Node20 -->
<g id="edge19" class="edge">
<title>Node16&#45;&gt;Node20</title>
<path fill="none" stroke="midnightblue" d="M415.13,-520.06C431.52,-518.03 448.73,-515.89 464.77,-513.9"/>
<polygon fill="midnightblue" stroke="midnightblue" points="414.54,-516.6 405.05,-521.31 415.41,-523.55 414.54,-516.6"/>
</g>
<!-- Node21 -->
<g id="node21" class="node">
<title>Node21</title>
<g id="a_node21"><a xlink:href="class_ogre_1_1v1_1_1_g_l3_plus_hardware_uniform_buffer.html" target="_top" xlink:title="Specialisation of HardwareUniformBuffer for OpenGL.">
<polygon fill="none" stroke="black" points="465,-441.5 465,-471.5 602,-471.5 602,-441.5 465,-441.5"/>
<text text-anchor="start" x="473" y="-459.5" font-family="Helvetica,sans-Serif" font-size="10.00">Ogre::v1::GL3PlusHardware</text>
<text text-anchor="middle" x="533.5" y="-448.5" font-family="Helvetica,sans-Serif" font-size="10.00">UniformBuffer</text>
</a>
</g>
</g>
<!-- Node16&#45;&gt;Node21 -->
<g id="edge20" class="edge">
<title>Node16&#45;&gt;Node21</title>
<path fill="none" stroke="midnightblue" d="M379.7,-510.22C400.73,-500.63 426.96,-489.26 451,-480.5 459.59,-477.37 468.8,-474.35 477.83,-471.57"/>
<polygon fill="midnightblue" stroke="midnightblue" points="378.05,-507.12 370.43,-514.48 380.98,-513.48 378.05,-507.12"/>
</g>
<!-- Node22 -->
<g id="node22" class="node">
<title>Node22</title>
<g id="a_node22"><a xlink:href="class_ogre_1_1v1_1_1_g_l_e_s2_default_hardware_uniform_buffer.html" target="_top" xlink:title="Specialisation of HardwareUniformBuffer for emulation.">
<polygon fill="none" stroke="black" points="453,-392.5 453,-422.5 614,-422.5 614,-392.5 453,-392.5"/>
<text text-anchor="start" x="461" y="-410.5" font-family="Helvetica,sans-Serif" font-size="10.00">Ogre::v1::GLES2DefaultHardware</text>
<text text-anchor="middle" x="533.5" y="-399.5" font-family="Helvetica,sans-Serif" font-size="10.00">UniformBuffer</text>
</a>
</g>
</g>
<!-- Node16&#45;&gt;Node22 -->
<g id="edge21" class="edge">
<title>Node16&#45;&gt;Node22</title>
<path fill="none" stroke="midnightblue" d="M359.11,-506.94C380.03,-484.77 414.75,-451.43 451,-431.5 457.2,-428.09 463.95,-425.11 470.81,-422.53"/>
<polygon fill="midnightblue" stroke="midnightblue" points="356.54,-504.57 352.3,-514.28 361.67,-509.33 356.54,-504.57"/>
</g>
<!-- Node23 -->
<g id="node23" class="node">
<title>Node23</title>
<g id="a_node23"><a xlink:href="class_ogre_1_1v1_1_1_g_l_e_s2_hardware_uniform_buffer.html" target="_top" xlink:title="Specialisation of HardwareUniformBuffer for OpenGL.">
<polygon fill="none" stroke="black" points="451,-343.5 451,-373.5 616,-373.5 616,-343.5 451,-343.5"/>
<text text-anchor="start" x="459" y="-361.5" font-family="Helvetica,sans-Serif" font-size="10.00">Ogre::v1::GLES2HardwareUniform</text>
<text text-anchor="middle" x="533.5" y="-350.5" font-family="Helvetica,sans-Serif" font-size="10.00">Buffer</text>
</a>
</g>
</g>
<!-- Node16&#45;&gt;Node23 -->
<g id="edge22" class="edge">
<title>Node16&#45;&gt;Node23</title>
<path fill="none" stroke="midnightblue" d="M350.91,-505.61C368.4,-472.97 404.1,-414.8 451,-382.5 455.98,-379.07 461.46,-376.12 467.14,-373.59"/>
<polygon fill="midnightblue" stroke="midnightblue" points="347.8,-504 346.27,-514.48 354.01,-507.24 347.8,-504"/>
</g>
<!-- Node25 -->
<g id="node25" class="node">
<title>Node25</title>
<g id="a_node25"><a xlink:href="class_ogre_1_1v1_1_1_d3_d11_hardware_vertex_buffer.html" target="_top" xlink:title="Specialisation of HardwareVertexBuffer for D3D11.">
<polygon fill="none" stroke="black" points="455.5,-294.5 455.5,-324.5 611.5,-324.5 611.5,-294.5 455.5,-294.5"/>
<text text-anchor="start" x="463.5" y="-312.5" font-family="Helvetica,sans-Serif" font-size="10.00">Ogre::v1::D3D11HardwareVertex</text>
<text text-anchor="middle" x="533.5" y="-301.5" font-family="Helvetica,sans-Serif" font-size="10.00">Buffer</text>
</a>
</g>
</g>
<!-- Node24&#45;&gt;Node25 -->
<g id="edge24" class="edge">
<title>Node24&#45;&gt;Node25</title>
<path fill="none" stroke="midnightblue" d="M359.83,-210.39C380.88,-232.26 415.32,-264.75 451,-284.5 457.86,-288.3 465.38,-291.6 472.98,-294.44"/>
<polygon fill="midnightblue" stroke="midnightblue" points="362.12,-207.71 352.7,-202.85 357.03,-212.52 362.12,-207.71"/>
</g>
<!-- Node26 -->
<g id="node26" class="node">
<title>Node26</title>
<g id="a_node26"><a xlink:href="class_ogre_1_1v1_1_1_default_hardware_vertex_buffer.html" target="_top" xlink:title="Specialisation of HardwareVertexBuffer for emulation.">
<polygon fill="none" stroke="black" points="468.5,-245.5 468.5,-275.5 598.5,-275.5 598.5,-245.5 468.5,-245.5"/>
<text text-anchor="start" x="476.5" y="-263.5" font-family="Helvetica,sans-Serif" font-size="10.00">Ogre::v1::DefaultHardware</text>
<text text-anchor="middle" x="533.5" y="-252.5" font-family="Helvetica,sans-Serif" font-size="10.00">VertexBuffer</text>
</a>
</g>
</g>
<!-- Node24&#45;&gt;Node26 -->
<g id="edge25" class="edge">
<title>Node24&#45;&gt;Node26</title>
<path fill="none" stroke="midnightblue" d="M380.69,-206.63C401.58,-215.89 427.4,-226.85 451,-235.5 460.45,-238.96 470.63,-242.35 480.48,-245.46"/>
<polygon fill="midnightblue" stroke="midnightblue" points="382.02,-203.39 371.46,-202.51 379.17,-209.78 382.02,-203.39"/>
</g>
<!-- Node27 -->
<g id="node27" class="node">
<title>Node27</title>
<g id="a_node27"><a xlink:href="class_ogre_1_1v1_1_1_g_l3_plus_default_hardware_vertex_buffer.html" target="_top" xlink:title="Specialisation of HardwareVertexBuffer for emulation.">
<polygon fill="none" stroke="black" points="470.5,-196.5 470.5,-226.5 596.5,-226.5 596.5,-196.5 470.5,-196.5"/>
<text text-anchor="start" x="478.5" y="-214.5" font-family="Helvetica,sans-Serif" font-size="10.00">Ogre::v1::GL3PlusDefault</text>
<text text-anchor="middle" x="533.5" y="-203.5" font-family="Helvetica,sans-Serif" font-size="10.00">HardwareVertexBuffer</text>
</a>
</g>
</g>
<!-- Node24&#45;&gt;Node27 -->
<g id="edge26" class="edge">
<title>Node24&#45;&gt;Node27</title>
<path fill="none" stroke="midnightblue" d="M411.55,-196.5C430.94,-198.9 451.72,-201.48 470.49,-203.81"/>
<polygon fill="midnightblue" stroke="midnightblue" points="411.91,-193.02 401.56,-195.26 411.05,-199.96 411.91,-193.02"/>
</g>
<!-- Node28 -->
<g id="node28" class="node">
<title>Node28</title>
<g id="a_node28"><a xlink:href="class_ogre_1_1v1_1_1_g_l3_plus_hardware_vertex_buffer.html" target="_top" xlink:title="Specialisation of HardwareVertexBuffer for OpenGL.">
<polygon fill="none" stroke="black" points="465,-147.5 465,-177.5 602,-177.5 602,-147.5 465,-147.5"/>
<text text-anchor="start" x="473" y="-165.5" font-family="Helvetica,sans-Serif" font-size="10.00">Ogre::v1::GL3PlusHardware</text>
<text text-anchor="middle" x="533.5" y="-154.5" font-family="Helvetica,sans-Serif" font-size="10.00">VertexBuffer</text>
</a>
</g>
</g>
<!-- Node24&#45;&gt;Node28 -->
<g id="edge27" class="edge">
<title>Node24&#45;&gt;Node28</title>
<path fill="none" stroke="midnightblue" d="M411.67,-178.11C429.09,-175.86 447.63,-173.47 464.81,-171.25"/>
<polygon fill="midnightblue" stroke="midnightblue" points="411.03,-174.67 401.56,-179.42 411.92,-181.61 411.03,-174.67"/>
</g>
<!-- Node29 -->
<g id="node29" class="node">
<title>Node29</title>
<g id="a_node29"><a xlink:href="class_ogre_1_1v1_1_1_g_l_e_s2_default_hardware_vertex_buffer.html" target="_top" xlink:title="Specialisation of HardwareVertexBuffer for emulation.">
<polygon fill="none" stroke="black" points="453,-98.5 453,-128.5 614,-128.5 614,-98.5 453,-98.5"/>
<text text-anchor="start" x="461" y="-116.5" font-family="Helvetica,sans-Serif" font-size="10.00">Ogre::v1::GLES2DefaultHardware</text>
<text text-anchor="middle" x="533.5" y="-105.5" font-family="Helvetica,sans-Serif" font-size="10.00">VertexBuffer</text>
</a>
</g>
</g>
<!-- Node24&#45;&gt;Node29 -->
<g id="edge28" class="edge">
<title>Node24&#45;&gt;Node29</title>
<path fill="none" stroke="midnightblue" d="M379.21,-167.98C400.3,-158.15 426.74,-146.44 451,-137.5 459.58,-134.34 468.79,-131.3 477.81,-128.51"/>
<polygon fill="midnightblue" stroke="midnightblue" points="377.48,-164.93 369.92,-172.36 380.46,-171.26 377.48,-164.93"/>
</g>
<!-- Node30 -->
<g id="node30" class="node">
<title>Node30</title>
<g id="a_node30"><a xlink:href="class_ogre_1_1v1_1_1_metal_hardware_vertex_buffer.html" target="_top" xlink:title="Specialisation of HardwareVertexBuffer for Metal.">
<polygon fill="none" stroke="black" points="458,-49.5 458,-79.5 609,-79.5 609,-49.5 458,-49.5"/>
<text text-anchor="start" x="466" y="-67.5" font-family="Helvetica,sans-Serif" font-size="10.00">Ogre::v1::MetalHardwareVertex</text>
<text text-anchor="middle" x="533.5" y="-56.5" font-family="Helvetica,sans-Serif" font-size="10.00">Buffer</text>
</a>
</g>
</g>
<!-- Node24&#45;&gt;Node30 -->
<g id="edge29" class="edge">
<title>Node24&#45;&gt;Node30</title>
<path fill="none" stroke="midnightblue" d="M358.71,-165.08C379.56,-142.67 414.43,-108.72 451,-88.5 457.07,-85.15 463.65,-82.21 470.36,-79.66"/>
<polygon fill="midnightblue" stroke="midnightblue" points="356.11,-162.74 351.94,-172.48 361.27,-167.46 356.11,-162.74"/>
</g>
<!-- Node31 -->
<g id="node31" class="node">
<title>Node31</title>
<g id="a_node31"><a xlink:href="class_ogre_1_1v1_1_1_vulkan_hardware_vertex_buffer.html" target="_top" xlink:title=" ">
<polygon fill="none" stroke="black" points="469,-0.5 469,-30.5 598,-30.5 598,-0.5 469,-0.5"/>
<text text-anchor="start" x="477" y="-18.5" font-family="Helvetica,sans-Serif" font-size="10.00">Ogre::v1::VulkanHardware</text>
<text text-anchor="middle" x="533.5" y="-7.5" font-family="Helvetica,sans-Serif" font-size="10.00">VertexBuffer</text>
</a>
</g>
</g>
<!-- Node24&#45;&gt;Node31 -->
<g id="edge30" class="edge">
<title>Node24&#45;&gt;Node31</title>
<path fill="none" stroke="midnightblue" d="M350.87,-163.45C368.31,-130.58 403.95,-72.01 451,-39.5 456.46,-35.73 462.52,-32.54 468.8,-29.85"/>
<polygon fill="midnightblue" stroke="midnightblue" points="347.73,-161.89 346.24,-172.38 353.95,-165.11 347.73,-161.89"/>
</g>
</g>
</svg>
