<?xml version="1.0" encoding="UTF-8" standalone="no"?>
<!DOCTYPE svg PUBLIC "-//W3C//DTD SVG 1.1//EN"
 "http://www.w3.org/Graphics/SVG/1.1/DTD/svg11.dtd">
<!-- Generated by graphviz version 2.44.0 ()
 -->
<!-- Title: Ogre::IdObject Pages: 1 -->
<svg width="642pt" height="1218pt"
 viewBox="0.00 0.00 642.00 1218.00" xmlns="http://www.w3.org/2000/svg" xmlns:xlink="http://www.w3.org/1999/xlink">
<g id="graph0" class="graph" transform="scale(1 1) rotate(0) translate(4 1214)">
<title>Ogre::IdObject</title>
<!-- Node1 -->
<g id="node1" class="node">
<title>Node1</title>
<g id="a_node1"><a xlink:title=" ">
<polygon fill="#bfbfbf" stroke="black" points="0,-285.5 0,-304.5 79,-304.5 79,-285.5 0,-285.5"/>
<text text-anchor="middle" x="39.5" y="-292.5" font-family="Helvetica,sans-Serif" font-size="10.00">Ogre::IdObject</text>
</a>
</g>
</g>
<!-- Node2 -->
<g id="node2" class="node">
<title>Node2</title>
<g id="a_node2"><a xlink:href="class_ogre_1_1_bone.html" target="_top" xlink:title="Class representing a Bone in the join hierarchy of a skeleton.">
<polygon fill="none" stroke="black" points="173.5,-829.5 173.5,-848.5 238.5,-848.5 238.5,-829.5 173.5,-829.5"/>
<text text-anchor="middle" x="206" y="-836.5" font-family="Helvetica,sans-Serif" font-size="10.00">Ogre::Bone</text>
</a>
</g>
</g>
<!-- Node1&#45;&gt;Node2 -->
<g id="edge1" class="edge">
<title>Node1&#45;&gt;Node2</title>
<path fill="none" stroke="midnightblue" d="M40.4,-314.64C40.38,-400.86 44.75,-744.87 115,-820 129.62,-835.63 153.59,-840.1 173.12,-840.82"/>
<polygon fill="midnightblue" stroke="midnightblue" points="43.9,-314.64 40.42,-304.63 36.9,-314.63 43.9,-314.64"/>
</g>
<!-- Node3 -->
<g id="node3" class="node">
<title>Node3</title>
<g id="a_node3"><a xlink:href="class_ogre_1_1_compositor_node.html" target="_top" xlink:title="Compositor nodes are the core subject of compositing.">
<polygon fill="none" stroke="black" points="148.5,-791.5 148.5,-810.5 263.5,-810.5 263.5,-791.5 148.5,-791.5"/>
<text text-anchor="middle" x="206" y="-798.5" font-family="Helvetica,sans-Serif" font-size="10.00">Ogre::CompositorNode</text>
</a>
</g>
</g>
<!-- Node1&#45;&gt;Node3 -->
<g id="edge2" class="edge">
<title>Node1&#45;&gt;Node3</title>
<path fill="none" stroke="midnightblue" d="M40.64,-314.78C41.65,-397.28 49.77,-712.99 115,-782 123.78,-791.28 135.86,-796.62 148.32,-799.57"/>
<polygon fill="midnightblue" stroke="midnightblue" points="44.14,-314.7 40.54,-304.73 37.14,-314.77 44.14,-314.7"/>
</g>
<!-- Node5 -->
<g id="node5" class="node">
<title>Node5</title>
<g id="a_node5"><a xlink:href="class_ogre_1_1_compositor_workspace.html" target="_top" xlink:title="A compositor workspace is the main interface to render into an RT, be it a RenderWindow or an RTT (Re...">
<polygon fill="none" stroke="black" points="136,-753.5 136,-772.5 276,-772.5 276,-753.5 136,-753.5"/>
<text text-anchor="middle" x="206" y="-760.5" font-family="Helvetica,sans-Serif" font-size="10.00">Ogre::CompositorWorkspace</text>
</a>
</g>
</g>
<!-- Node1&#45;&gt;Node5 -->
<g id="edge4" class="edge">
<title>Node1&#45;&gt;Node5</title>
<path fill="none" stroke="midnightblue" d="M40.93,-315.2C43.05,-394.23 54.84,-681.16 115,-744 120.74,-750 127.87,-754.34 135.57,-757.46"/>
<polygon fill="midnightblue" stroke="midnightblue" points="44.42,-314.65 40.68,-304.73 37.42,-314.82 44.42,-314.65"/>
</g>
<!-- Node6 -->
<g id="node6" class="node">
<title>Node6</title>
<g id="a_node6"><a xlink:href="class_ogre_1_1_irradiance_field.html" target="_top" xlink:title="Implements an Irradiance Field with Depth, inspired on DDGI.">
<polygon fill="none" stroke="black" points="153,-715.5 153,-734.5 259,-734.5 259,-715.5 153,-715.5"/>
<text text-anchor="middle" x="206" y="-722.5" font-family="Helvetica,sans-Serif" font-size="10.00">Ogre::IrradianceField</text>
</a>
</g>
</g>
<!-- Node1&#45;&gt;Node6 -->
<g id="edge5" class="edge">
<title>Node1&#45;&gt;Node6</title>
<path fill="none" stroke="midnightblue" d="M41.26,-314.91C44.51,-389.24 59.72,-649.1 115,-706 124.9,-716.19 138.8,-721.6 152.71,-724.31"/>
<polygon fill="midnightblue" stroke="midnightblue" points="44.75,-314.48 40.84,-304.64 37.75,-314.77 44.75,-314.48"/>
</g>
<!-- Node7 -->
<g id="node7" class="node">
<title>Node7</title>
<g id="a_node7"><a xlink:href="class_ogre_1_1_movable_object.html" target="_top" xlink:title="Abstract class defining a movable object in a scene.">
<polygon fill="none" stroke="black" points="152.5,-677.5 152.5,-696.5 259.5,-696.5 259.5,-677.5 152.5,-677.5"/>
<text text-anchor="middle" x="206" y="-684.5" font-family="Helvetica,sans-Serif" font-size="10.00">Ogre::MovableObject</text>
</a>
</g>
</g>
<!-- Node1&#45;&gt;Node7 -->
<g id="edge6" class="edge">
<title>Node1&#45;&gt;Node7</title>
<path fill="none" stroke="midnightblue" d="M48.5,-314.07C77.9,-384.12 179.32,-625.79 200.93,-677.3"/>
<polygon fill="midnightblue" stroke="midnightblue" points="51.66,-312.56 44.57,-304.69 45.21,-315.27 51.66,-312.56"/>
</g>
<!-- Node38 -->
<g id="node34" class="node">
<title>Node38</title>
<g id="a_node34"><a xlink:href="class_ogre_1_1_node.html" target="_top" xlink:title="Class representing a general&#45;purpose node an articulated scene graph.">
<polygon fill="none" stroke="black" points="173.5,-304.5 173.5,-323.5 238.5,-323.5 238.5,-304.5 173.5,-304.5"/>
<text text-anchor="middle" x="206" y="-311.5" font-family="Helvetica,sans-Serif" font-size="10.00">Ogre::Node</text>
</a>
</g>
</g>
<!-- Node1&#45;&gt;Node38 -->
<g id="edge33" class="edge">
<title>Node1&#45;&gt;Node38</title>
<path fill="none" stroke="midnightblue" d="M89.17,-300.62C116.35,-303.76 149.45,-307.58 173.3,-310.34"/>
<polygon fill="midnightblue" stroke="midnightblue" points="89.4,-297.13 79.07,-299.45 88.6,-304.08 89.4,-297.13"/>
</g>
<!-- Node44 -->
<g id="node36" class="node">
<title>Node44</title>
<g id="a_node36"><a xlink:href="class_ogre_1_1_parallax_corrected_cubemap_base.html" target="_top" xlink:title=" ">
<polygon fill="none" stroke="black" points="115,-266.5 115,-285.5 297,-285.5 297,-266.5 115,-266.5"/>
<text text-anchor="middle" x="206" y="-273.5" font-family="Helvetica,sans-Serif" font-size="10.00">Ogre::ParallaxCorrectedCubemapBase</text>
</a>
</g>
</g>
<!-- Node1&#45;&gt;Node44 -->
<g id="edge35" class="edge">
<title>Node1&#45;&gt;Node44</title>
<path fill="none" stroke="midnightblue" d="M89.26,-289.37C99.77,-288.15 111.16,-286.84 122.56,-285.52"/>
<polygon fill="midnightblue" stroke="midnightblue" points="88.6,-285.92 79.07,-290.55 89.4,-292.87 88.6,-285.92"/>
</g>
<!-- Node47 -->
<g id="node39" class="node">
<title>Node47</title>
<g id="a_node39"><a xlink:href="class_ogre_1_1_scene_manager.html" target="_top" xlink:title="Manages the organisation and rendering of a &#39;scene&#39; i.e.">
<polygon fill="none" stroke="black" points="152.5,-190.5 152.5,-209.5 259.5,-209.5 259.5,-190.5 152.5,-190.5"/>
<text text-anchor="middle" x="206" y="-197.5" font-family="Helvetica,sans-Serif" font-size="10.00">Ogre::SceneManager</text>
</a>
</g>
</g>
<!-- Node1&#45;&gt;Node47 -->
<g id="edge38" class="edge">
<title>Node1&#45;&gt;Node47</title>
<path fill="none" stroke="midnightblue" d="M66.07,-280.23C100.13,-260.57 159.43,-226.32 188.28,-209.66"/>
<polygon fill="midnightblue" stroke="midnightblue" points="64.09,-277.34 57.18,-285.37 67.59,-283.4 64.09,-277.34"/>
</g>
<!-- Node52 -->
<g id="node44" class="node">
<title>Node52</title>
<g id="a_node44"><a xlink:href="class_ogre_1_1_vct_lighting.html" target="_top" xlink:title=" ">
<polygon fill="none" stroke="black" points="160,-152.5 160,-171.5 252,-171.5 252,-152.5 160,-152.5"/>
<text text-anchor="middle" x="206" y="-159.5" font-family="Helvetica,sans-Serif" font-size="10.00">Ogre::VctLighting</text>
</a>
</g>
</g>
<!-- Node1&#45;&gt;Node52 -->
<g id="edge43" class="edge">
<title>Node1&#45;&gt;Node52</title>
<path fill="none" stroke="midnightblue" d="M47.6,-275.73C58.15,-249.91 80.53,-204.58 115,-181 128.05,-172.07 144.46,-167.21 159.69,-164.6"/>
<polygon fill="midnightblue" stroke="midnightblue" points="44.28,-274.6 43.91,-285.19 50.8,-277.15 44.28,-274.6"/>
</g>
<!-- Node53 -->
<g id="node45" class="node">
<title>Node53</title>
<g id="a_node45"><a xlink:href="class_ogre_1_1_vct_material.html" target="_top" xlink:title=" ">
<polygon fill="none" stroke="black" points="160,-114.5 160,-133.5 252,-133.5 252,-114.5 160,-114.5"/>
<text text-anchor="middle" x="206" y="-121.5" font-family="Helvetica,sans-Serif" font-size="10.00">Ogre::VctMaterial</text>
</a>
</g>
</g>
<!-- Node1&#45;&gt;Node53 -->
<g id="edge44" class="edge">
<title>Node1&#45;&gt;Node53</title>
<path fill="none" stroke="midnightblue" d="M44.37,-275.16C51.88,-242.27 71.65,-176.75 115,-143 127.73,-133.09 144.42,-128.04 159.97,-125.56"/>
<polygon fill="midnightblue" stroke="midnightblue" points="40.87,-274.82 42.21,-285.33 47.72,-276.27 40.87,-274.82"/>
</g>
<!-- Node54 -->
<g id="node46" class="node">
<title>Node54</title>
<g id="a_node46"><a xlink:href="class_ogre_1_1_vct_voxelizer_source_base.html" target="_top" xlink:title="This class contains shared functionality between voxelizer; and is used by VctLighting to source its ...">
<polygon fill="none" stroke="black" points="131.5,-57.5 131.5,-76.5 280.5,-76.5 280.5,-57.5 131.5,-57.5"/>
<text text-anchor="middle" x="206" y="-64.5" font-family="Helvetica,sans-Serif" font-size="10.00">Ogre::VctVoxelizerSourceBase</text>
</a>
</g>
</g>
<!-- Node1&#45;&gt;Node54 -->
<g id="edge45" class="edge">
<title>Node1&#45;&gt;Node54</title>
<path fill="none" stroke="midnightblue" d="M43.14,-275.06C49.16,-237.12 67.27,-153.98 115,-105 128.26,-91.4 147.14,-82.42 164.19,-76.63"/>
<polygon fill="midnightblue" stroke="midnightblue" points="39.63,-274.89 41.64,-285.29 46.55,-275.91 39.63,-274.89"/>
</g>
<!-- Node57 -->
<g id="node49" class="node">
<title>Node57</title>
<g id="a_node49"><a xlink:href="class_ogre_1_1_voxelized_mesh_cache.html" target="_top" xlink:title="Uses a VctVoxelizer to convert a single mesh made up of triangles into a voxel 3D texture representat...">
<polygon fill="none" stroke="black" points="138.5,-19.5 138.5,-38.5 273.5,-38.5 273.5,-19.5 138.5,-19.5"/>
<text text-anchor="middle" x="206" y="-26.5" font-family="Helvetica,sans-Serif" font-size="10.00">Ogre::VoxelizedMeshCache</text>
</a>
</g>
</g>
<!-- Node1&#45;&gt;Node57 -->
<g id="edge48" class="edge">
<title>Node1&#45;&gt;Node57</title>
<path fill="none" stroke="#8b1a1a" d="M40.15,-275.38C40.44,-228.52 48.11,-109.44 115,-48 121.59,-41.95 129.6,-37.64 138.1,-34.59"/>
<polygon fill="#8b1a1a" stroke="#8b1a1a" points="36.65,-275.44 40.2,-285.42 43.65,-275.41 36.65,-275.44"/>
</g>
<!-- Node4 -->
<g id="node4" class="node">
<title>Node4</title>
<g id="a_node4"><a xlink:href="class_ogre_1_1_compositor_shadow_node.html" target="_top" xlink:title="Shadow Nodes are special nodes (not to be confused with.">
<polygon fill="none" stroke="black" points="348,-1190.5 348,-1209.5 498,-1209.5 498,-1190.5 348,-1190.5"/>
<text text-anchor="middle" x="423" y="-1197.5" font-family="Helvetica,sans-Serif" font-size="10.00">Ogre::CompositorShadowNode</text>
</a>
</g>
</g>
<!-- Node3&#45;&gt;Node4 -->
<g id="edge3" class="edge">
<title>Node3&#45;&gt;Node4</title>
<path fill="none" stroke="midnightblue" d="M273.18,-804.8C282.23,-808.01 290.59,-812.85 297,-820 404.65,-940.04 225.48,-1060.84 333,-1181 337.21,-1185.71 342.28,-1189.41 347.84,-1192.31"/>
<polygon fill="midnightblue" stroke="midnightblue" points="274.14,-801.43 263.56,-802 272.19,-808.15 274.14,-801.43"/>
</g>
<!-- Node8 -->
<g id="node8" class="node">
<title>Node8</title>
<g id="a_node8"><a xlink:href="class_ogre_1_1_decal.html" target="_top" xlink:title="Decals can have diffuse, normal map, and emissive on top of regular objects.">
<polygon fill="none" stroke="black" points="389.5,-1152.5 389.5,-1171.5 456.5,-1171.5 456.5,-1152.5 389.5,-1152.5"/>
<text text-anchor="middle" x="423" y="-1159.5" font-family="Helvetica,sans-Serif" font-size="10.00">Ogre::Decal</text>
</a>
</g>
</g>
<!-- Node7&#45;&gt;Node8 -->
<g id="edge7" class="edge">
<title>Node7&#45;&gt;Node8</title>
<path fill="none" stroke="midnightblue" d="M269.64,-689.49C280.06,-692.67 289.8,-697.84 297,-706 361.43,-779.1 268.65,-1069.83 333,-1143 346.77,-1158.66 370,-1163.22 389.28,-1163.97"/>
<polygon fill="midnightblue" stroke="midnightblue" points="270.48,-686.09 259.93,-687.1 268.8,-692.89 270.48,-686.09"/>
</g>
<!-- Node9 -->
<g id="node9" class="node">
<title>Node9</title>
<g id="a_node9"><a xlink:href="class_ogre_1_1_frustum.html" target="_top" xlink:title="A frustum represents a pyramid, capped at the near and far end which is used to represent either a vi...">
<polygon fill="none" stroke="black" points="384,-1114.5 384,-1133.5 462,-1133.5 462,-1114.5 384,-1114.5"/>
<text text-anchor="middle" x="423" y="-1121.5" font-family="Helvetica,sans-Serif" font-size="10.00">Ogre::Frustum</text>
</a>
</g>
</g>
<!-- Node7&#45;&gt;Node9 -->
<g id="edge8" class="edge">
<title>Node7&#45;&gt;Node9</title>
<path fill="none" stroke="midnightblue" d="M269.59,-689.54C280.02,-692.71 289.77,-697.86 297,-706 356.13,-772.56 273.95,-1038.38 333,-1105 345.58,-1119.19 365.92,-1124.25 383.98,-1125.62"/>
<polygon fill="midnightblue" stroke="midnightblue" points="270.43,-686.14 259.88,-687.14 268.75,-692.93 270.43,-686.14"/>
</g>
<!-- Node13 -->
<g id="node11" class="node">
<title>Node13</title>
<g id="a_node11"><a xlink:href="class_ogre_1_1_ifd_probe_visualizer.html" target="_top" xlink:title=" ">
<polygon fill="none" stroke="black" points="362.5,-1076.5 362.5,-1095.5 483.5,-1095.5 483.5,-1076.5 362.5,-1076.5"/>
<text text-anchor="middle" x="423" y="-1083.5" font-family="Helvetica,sans-Serif" font-size="10.00">Ogre::IfdProbeVisualizer</text>
</a>
</g>
</g>
<!-- Node7&#45;&gt;Node13 -->
<g id="edge10" class="edge">
<title>Node7&#45;&gt;Node13</title>
<path fill="none" stroke="midnightblue" d="M269.53,-689.59C279.96,-692.76 289.73,-697.9 297,-706 404.65,-826.04 225.48,-946.84 333,-1067 340.69,-1075.6 351.23,-1080.83 362.37,-1083.93"/>
<polygon fill="midnightblue" stroke="midnightblue" points="270.36,-686.19 259.82,-687.2 268.69,-692.99 270.36,-686.19"/>
</g>
<!-- Node14 -->
<g id="node12" class="node">
<title>Node14</title>
<g id="a_node12"><a xlink:href="class_ogre_1_1_internal_cubemap_probe.html" target="_top" xlink:title="This class is internal and should not be interfaced directly by users.">
<polygon fill="none" stroke="black" points="352.5,-1038.5 352.5,-1057.5 493.5,-1057.5 493.5,-1038.5 352.5,-1038.5"/>
<text text-anchor="middle" x="423" y="-1045.5" font-family="Helvetica,sans-Serif" font-size="10.00">Ogre::InternalCubemapProbe</text>
</a>
</g>
</g>
<!-- Node7&#45;&gt;Node14 -->
<g id="edge11" class="edge">
<title>Node7&#45;&gt;Node14</title>
<path fill="none" stroke="midnightblue" d="M269.45,-689.66C279.89,-692.83 289.69,-697.94 297,-706 394.06,-812.97 236.06,-921.92 333,-1029 338.3,-1034.86 344.93,-1039.15 352.16,-1042.27"/>
<polygon fill="midnightblue" stroke="midnightblue" points="270.28,-686.26 259.74,-687.27 268.61,-693.06 270.28,-686.26"/>
</g>
<!-- Node15 -->
<g id="node13" class="node">
<title>Node15</title>
<g id="a_node13"><a xlink:href="class_ogre_1_1_item.html" target="_top" xlink:title="Defines an instance of a discrete, movable object based on a Mesh.">
<polygon fill="none" stroke="black" points="392,-1000.5 392,-1019.5 454,-1019.5 454,-1000.5 392,-1000.5"/>
<text text-anchor="middle" x="423" y="-1007.5" font-family="Helvetica,sans-Serif" font-size="10.00">Ogre::Item</text>
</a>
</g>
</g>
<!-- Node7&#45;&gt;Node15 -->
<g id="edge12" class="edge">
<title>Node7&#45;&gt;Node15</title>
<path fill="none" stroke="midnightblue" d="M269.36,-689.75C279.81,-692.91 289.63,-698 297,-706 383.48,-799.92 246.62,-896.98 333,-991 347.64,-1006.94 372.1,-1011.26 391.68,-1011.83"/>
<polygon fill="midnightblue" stroke="midnightblue" points="270.19,-686.35 259.64,-687.36 268.52,-693.14 270.19,-686.35"/>
</g>
<!-- Node16 -->
<g id="node14" class="node">
<title>Node16</title>
<g id="a_node14"><a xlink:href="class_ogre_1_1_light.html" target="_top" xlink:title="Representation of a dynamic light source in the scene.">
<polygon fill="none" stroke="black" points="391,-962.5 391,-981.5 455,-981.5 455,-962.5 391,-962.5"/>
<text text-anchor="middle" x="423" y="-969.5" font-family="Helvetica,sans-Serif" font-size="10.00">Ogre::Light</text>
</a>
</g>
</g>
<!-- Node7&#45;&gt;Node16 -->
<g id="edge13" class="edge">
<title>Node7&#45;&gt;Node16</title>
<path fill="none" stroke="midnightblue" d="M269.23,-689.86C279.69,-693.01 289.55,-698.07 297,-706 372.92,-786.89 257.17,-872.03 333,-953 347.58,-968.57 371.53,-973 390.92,-973.71"/>
<polygon fill="midnightblue" stroke="midnightblue" points="270.06,-686.46 259.51,-687.48 268.39,-693.26 270.06,-686.46"/>
</g>
<!-- Node18 -->
<g id="node16" class="node">
<title>Node18</title>
<g id="a_node16"><a xlink:href="class_ogre_1_1_manual_object.html" target="_top" xlink:title=" ">
<polygon fill="none" stroke="black" points="372,-924.5 372,-943.5 474,-943.5 474,-924.5 372,-924.5"/>
<text text-anchor="middle" x="423" y="-931.5" font-family="Helvetica,sans-Serif" font-size="10.00">Ogre::ManualObject</text>
</a>
</g>
</g>
<!-- Node7&#45;&gt;Node18 -->
<g id="edge15" class="edge">
<title>Node7&#45;&gt;Node18</title>
<path fill="none" stroke="midnightblue" d="M269.74,-690.22C279.97,-693.37 289.61,-698.33 297,-706 362.39,-773.89 267.69,-847.04 333,-915 343.07,-925.48 357.4,-930.88 371.62,-933.5"/>
<polygon fill="midnightblue" stroke="midnightblue" points="270.36,-686.77 259.81,-687.73 268.66,-693.56 270.36,-686.77"/>
</g>
<!-- Node19 -->
<g id="node17" class="node">
<title>Node19</title>
<g id="a_node17"><a xlink:href="class_ogre_1_1_movable_plane.html" target="_top" xlink:title="Definition of a Plane that may be attached to a node, and the derived details of it retrieved simply.">
<polygon fill="none" stroke="black" points="371,-886.5 371,-905.5 475,-905.5 475,-886.5 371,-886.5"/>
<text text-anchor="middle" x="423" y="-893.5" font-family="Helvetica,sans-Serif" font-size="10.00">Ogre::MovablePlane</text>
</a>
</g>
</g>
<!-- Node7&#45;&gt;Node19 -->
<g id="edge16" class="edge">
<title>Node7&#45;&gt;Node19</title>
<path fill="none" stroke="midnightblue" d="M269.51,-690.45C279.76,-693.57 289.47,-698.47 297,-706 351.9,-760.93 278.16,-822 333,-877 343.04,-887.07 357.02,-892.41 370.93,-895.09"/>
<polygon fill="midnightblue" stroke="midnightblue" points="270.12,-686.99 259.57,-687.97 268.43,-693.78 270.12,-686.99"/>
</g>
<!-- Node20 -->
<g id="node18" class="node">
<title>Node20</title>
<g id="a_node18"><a xlink:href="class_ogre_1_1_null_entity.html" target="_top" xlink:title=" ">
<polygon fill="none" stroke="black" points="381.5,-848.5 381.5,-867.5 464.5,-867.5 464.5,-848.5 381.5,-848.5"/>
<text text-anchor="middle" x="423" y="-855.5" font-family="Helvetica,sans-Serif" font-size="10.00">Ogre::NullEntity</text>
</a>
</g>
</g>
<!-- Node7&#45;&gt;Node20 -->
<g id="edge17" class="edge">
<title>Node7&#45;&gt;Node20</title>
<path fill="none" stroke="midnightblue" d="M269.51,-690.91C279.67,-694 289.35,-698.77 297,-706 341.5,-748.07 288.54,-796.88 333,-839 345.85,-851.17 364.49,-856.33 381.39,-858.28"/>
<polygon fill="midnightblue" stroke="midnightblue" points="270.23,-687.48 259.68,-688.43 268.52,-694.27 270.23,-687.48"/>
</g>
<!-- Node21 -->
<g id="node19" class="node">
<title>Node21</title>
<g id="a_node19"><a xlink:href="class_ogre_1_1_particle_system.html" target="_top" xlink:title="Class defining particle system based special effects.">
<polygon fill="none" stroke="black" points="369,-810.5 369,-829.5 477,-829.5 477,-810.5 369,-810.5"/>
<text text-anchor="middle" x="423" y="-817.5" font-family="Helvetica,sans-Serif" font-size="10.00">Ogre::ParticleSystem</text>
</a>
</g>
</g>
<!-- Node7&#45;&gt;Node21 -->
<g id="edge18" class="edge">
<title>Node7&#45;&gt;Node21</title>
<path fill="none" stroke="midnightblue" d="M269.3,-691.65C279.38,-694.67 289.1,-699.23 297,-706 331.29,-735.37 298.74,-771.59 333,-801 342.95,-809.54 355.8,-814.54 368.63,-817.4"/>
<polygon fill="midnightblue" stroke="midnightblue" points="270.11,-688.24 259.56,-689.19 268.39,-695.03 270.11,-688.24"/>
</g>
<!-- Node22 -->
<g id="node20" class="node">
<title>Node22</title>
<g id="a_node20"><a xlink:href="class_ogre_1_1_portal_base.html" target="_top" xlink:title="PortalBase &#45; Base class to Portal and AntiPortal classes.">
<polygon fill="none" stroke="black" points="378,-772.5 378,-791.5 468,-791.5 468,-772.5 378,-772.5"/>
<text text-anchor="middle" x="423" y="-779.5" font-family="Helvetica,sans-Serif" font-size="10.00">Ogre::PortalBase</text>
</a>
</g>
</g>
<!-- Node7&#45;&gt;Node22 -->
<g id="edge19" class="edge">
<title>Node7&#45;&gt;Node22</title>
<path fill="none" stroke="midnightblue" d="M269.6,-693.42C279.33,-696.28 288.84,-700.32 297,-706 321.6,-723.11 308.42,-745.86 333,-763 345.96,-772.04 362.38,-776.91 377.57,-779.5"/>
<polygon fill="midnightblue" stroke="midnightblue" points="270.4,-690.01 259.85,-690.93 268.67,-696.8 270.4,-690.01"/>
</g>
<!-- Node25 -->
<g id="node23" class="node">
<title>Node25</title>
<g id="a_node23"><a xlink:href="class_ogre_1_1_rectangle2_d.html" target="_top" xlink:title=" ">
<polygon fill="none" stroke="black" points="374,-734.5 374,-753.5 472,-753.5 472,-734.5 374,-734.5"/>
<text text-anchor="middle" x="423" y="-741.5" font-family="Helvetica,sans-Serif" font-size="10.00">Ogre::Rectangle2D</text>
</a>
</g>
</g>
<!-- Node7&#45;&gt;Node25 -->
<g id="edge22" class="edge">
<title>Node7&#45;&gt;Node25</title>
<path fill="none" stroke="midnightblue" d="M269.59,-697.86C278.9,-700.15 288.29,-702.85 297,-706 314.01,-712.15 315.99,-718.83 333,-725 345.92,-729.69 360.34,-733.38 373.74,-736.22"/>
<polygon fill="midnightblue" stroke="midnightblue" points="270.09,-694.39 259.56,-695.54 268.51,-701.21 270.09,-694.39"/>
</g>
<!-- Node26 -->
<g id="node24" class="node">
<title>Node26</title>
<g id="a_node24"><a xlink:href="class_ogre_1_1_voxel_visualizer.html" target="_top" xlink:title=" ">
<polygon fill="none" stroke="black" points="369,-696.5 369,-715.5 477,-715.5 477,-696.5 369,-696.5"/>
<text text-anchor="middle" x="423" y="-703.5" font-family="Helvetica,sans-Serif" font-size="10.00">Ogre::VoxelVisualizer</text>
</a>
</g>
</g>
<!-- Node7&#45;&gt;Node26 -->
<g id="edge23" class="edge">
<title>Node7&#45;&gt;Node26</title>
<path fill="none" stroke="midnightblue" d="M269.57,-692.53C301.05,-695.31 338.78,-698.65 368.83,-701.3"/>
<polygon fill="midnightblue" stroke="midnightblue" points="269.86,-689.04 259.59,-691.65 269.25,-696.01 269.86,-689.04"/>
</g>
<!-- Node27 -->
<g id="node25" class="node">
<title>Node27</title>
<g id="a_node25"><a xlink:href="class_ogre_1_1_wire_aabb.html" target="_top" xlink:title="Helper class to display the Aabb of a MovableObject as lines.">
<polygon fill="none" stroke="black" points="381,-658.5 381,-677.5 465,-677.5 465,-658.5 381,-658.5"/>
<text text-anchor="middle" x="423" y="-665.5" font-family="Helvetica,sans-Serif" font-size="10.00">Ogre::WireAabb</text>
</a>
</g>
</g>
<!-- Node7&#45;&gt;Node27 -->
<g id="edge24" class="edge">
<title>Node7&#45;&gt;Node27</title>
<path fill="none" stroke="midnightblue" d="M269.92,-681.44C305.64,-678.28 349.33,-674.42 380.71,-671.65"/>
<polygon fill="midnightblue" stroke="midnightblue" points="269.25,-677.99 259.59,-682.35 269.86,-684.96 269.25,-677.99"/>
</g>
<!-- Node28 -->
<g id="node26" class="node">
<title>Node28</title>
<g id="a_node26"><a xlink:href="class_ogre_1_1v1_1_1_billboard_chain.html" target="_top" xlink:title="Allows the rendering of a chain of connected billboards.">
<polygon fill="none" stroke="red" points="363.5,-620.5 363.5,-639.5 482.5,-639.5 482.5,-620.5 363.5,-620.5"/>
<text text-anchor="middle" x="423" y="-627.5" font-family="Helvetica,sans-Serif" font-size="10.00">Ogre::v1::BillboardChain</text>
</a>
</g>
</g>
<!-- Node7&#45;&gt;Node28 -->
<g id="edge25" class="edge">
<title>Node7&#45;&gt;Node28</title>
<path fill="none" stroke="midnightblue" d="M245.84,-674.38C270.63,-666.55 303.53,-656.57 333,-649 346.16,-645.62 360.52,-642.36 373.79,-639.53"/>
<polygon fill="midnightblue" stroke="midnightblue" points="244.56,-671.12 236.09,-677.48 246.68,-677.79 244.56,-671.12"/>
</g>
<!-- Node30 -->
<g id="node27" class="node">
<title>Node30</title>
<g id="a_node27"><a xlink:href="class_ogre_1_1v1_1_1_billboard_set.html" target="_top" xlink:title="A collection of billboards (faces which are always facing the given direction) with the same (default...">
<polygon fill="none" stroke="black" points="368,-582.5 368,-601.5 478,-601.5 478,-582.5 368,-582.5"/>
<text text-anchor="middle" x="423" y="-589.5" font-family="Helvetica,sans-Serif" font-size="10.00">Ogre::v1::BillboardSet</text>
</a>
</g>
</g>
<!-- Node7&#45;&gt;Node30 -->
<g id="edge26" class="edge">
<title>Node7&#45;&gt;Node30</title>
<path fill="none" stroke="midnightblue" d="M227.84,-671.43C251.94,-654.15 293.4,-626.66 333,-611 344.02,-606.64 356.22,-603.21 367.97,-600.53"/>
<polygon fill="midnightblue" stroke="midnightblue" points="225.52,-668.79 219.49,-677.5 229.64,-674.45 225.52,-668.79"/>
</g>
<!-- Node31 -->
<g id="node28" class="node">
<title>Node31</title>
<g id="a_node28"><a xlink:href="class_ogre_1_1v1_1_1_entity.html" target="_top" xlink:title="Defines an instance of a discrete, movable object based on a Mesh.">
<polygon fill="none" stroke="black" points="382.5,-544.5 382.5,-563.5 463.5,-563.5 463.5,-544.5 382.5,-544.5"/>
<text text-anchor="middle" x="423" y="-551.5" font-family="Helvetica,sans-Serif" font-size="10.00">Ogre::v1::Entity</text>
</a>
</g>
</g>
<!-- Node7&#45;&gt;Node31 -->
<g id="edge27" class="edge">
<title>Node7&#45;&gt;Node31</title>
<path fill="none" stroke="midnightblue" d="M221.01,-669.47C242.36,-644.02 285.57,-597.26 333,-573 348.19,-565.23 366.4,-560.63 382.39,-557.92"/>
<polygon fill="midnightblue" stroke="midnightblue" points="218.29,-667.27 214.64,-677.21 223.7,-671.72 218.29,-667.27"/>
</g>
<!-- Node32 -->
<g id="node29" class="node">
<title>Node32</title>
<g id="a_node29"><a xlink:href="class_ogre_1_1v1_1_1_manual_object.html" target="_top" xlink:title="Class providing a much simplified interface to generating manual objects with custom geometry.">
<polygon fill="none" stroke="black" points="364.5,-506.5 364.5,-525.5 481.5,-525.5 481.5,-506.5 364.5,-506.5"/>
<text text-anchor="middle" x="423" y="-513.5" font-family="Helvetica,sans-Serif" font-size="10.00">Ogre::v1::ManualObject</text>
</a>
</g>
</g>
<!-- Node7&#45;&gt;Node32 -->
<g id="edge28" class="edge">
<title>Node7&#45;&gt;Node32</title>
<path fill="none" stroke="midnightblue" d="M216.87,-668.32C235.13,-635.7 277.47,-568.63 333,-535 342.46,-529.27 353.4,-525.25 364.31,-522.44"/>
<polygon fill="midnightblue" stroke="midnightblue" points="213.71,-666.81 211.99,-677.26 219.85,-670.16 213.71,-666.81"/>
</g>
<!-- Node33 -->
<g id="node30" class="node">
<title>Node33</title>
<g id="a_node30"><a xlink:href="class_ogre_1_1v1_1_1_overlay.html" target="_top" xlink:title="Represents a layer which is rendered on top of the &#39;normal&#39; scene contents.">
<polygon fill="none" stroke="black" points="378,-468.5 378,-487.5 468,-487.5 468,-468.5 378,-468.5"/>
<text text-anchor="middle" x="423" y="-475.5" font-family="Helvetica,sans-Serif" font-size="10.00">Ogre::v1::Overlay</text>
</a>
</g>
</g>
<!-- Node7&#45;&gt;Node33 -->
<g id="edge29" class="edge">
<title>Node7&#45;&gt;Node33</title>
<path fill="none" stroke="midnightblue" d="M214.04,-667.54C229.24,-628.49 269,-540.57 333,-497 346.06,-488.11 362.5,-483.26 377.68,-480.66"/>
<polygon fill="midnightblue" stroke="midnightblue" points="210.66,-666.59 210.41,-677.19 217.21,-669.06 210.66,-666.59"/>
</g>
<!-- Node34 -->
<g id="node31" class="node">
<title>Node34</title>
<g id="a_node31"><a xlink:href="class_ogre_1_1v1_1_1_rectangle2_d.html" target="_top" xlink:title="Allows the rendering of a simple 2D rectangle This class renders a simple 2D rectangle; this rectangl...">
<polygon fill="none" stroke="black" points="366.5,-430.5 366.5,-449.5 479.5,-449.5 479.5,-430.5 366.5,-430.5"/>
<text text-anchor="middle" x="423" y="-437.5" font-family="Helvetica,sans-Serif" font-size="10.00">Ogre::v1::Rectangle2D</text>
</a>
</g>
</g>
<!-- Node7&#45;&gt;Node34 -->
<g id="edge30" class="edge">
<title>Node7&#45;&gt;Node34</title>
<path fill="none" stroke="midnightblue" d="M211.84,-667.43C223.96,-622.79 260,-513.14 333,-459 342.64,-451.85 354.41,-447.27 366.18,-444.36"/>
<polygon fill="midnightblue" stroke="midnightblue" points="208.41,-666.74 209.27,-677.3 215.18,-668.51 208.41,-666.74"/>
</g>
<!-- Node35 -->
<g id="node32" class="node">
<title>Node35</title>
<g id="a_node32"><a xlink:href="class_ogre_1_1v1_1_1_simple_renderable.html" target="_top" xlink:title="Simple implementation of MovableObject and Renderable for single&#45;part custom objects.">
<polygon fill="none" stroke="red" points="355,-392.5 355,-411.5 491,-411.5 491,-392.5 355,-392.5"/>
<text text-anchor="middle" x="423" y="-399.5" font-family="Helvetica,sans-Serif" font-size="10.00">Ogre::v1::SimpleRenderable</text>
</a>
</g>
</g>
<!-- Node7&#45;&gt;Node35 -->
<g id="edge31" class="edge">
<title>Node7&#45;&gt;Node35</title>
<path fill="none" stroke="midnightblue" d="M210.22,-667.3C219.46,-617.51 250.84,-486.01 333,-421 339.44,-415.9 346.94,-412.09 354.8,-409.26"/>
<polygon fill="midnightblue" stroke="midnightblue" points="206.74,-666.92 208.46,-677.37 213.63,-668.13 206.74,-666.92"/>
</g>
<!-- Node37 -->
<g id="node33" class="node">
<title>Node37</title>
<g id="a_node33"><a xlink:href="class_ogre_1_1v1_1_1_static_geometry_1_1_region.html" target="_top" xlink:title="The details of a topological region which is the highest level of partitioning for this class.">
<polygon fill="none" stroke="black" points="360.5,-343 360.5,-373 485.5,-373 485.5,-343 360.5,-343"/>
<text text-anchor="start" x="368.5" y="-361" font-family="Helvetica,sans-Serif" font-size="10.00">Ogre::v1::StaticGeometry</text>
<text text-anchor="middle" x="423" y="-350" font-family="Helvetica,sans-Serif" font-size="10.00">::Region</text>
</a>
</g>
</g>
<!-- Node7&#45;&gt;Node37 -->
<g id="edge32" class="edge">
<title>Node7&#45;&gt;Node37</title>
<path fill="none" stroke="midnightblue" d="M209.23,-667.41C216.44,-613.55 244.04,-461.95 333,-383 340.8,-376.08 350.38,-371.06 360.33,-367.42"/>
<polygon fill="midnightblue" stroke="midnightblue" points="205.76,-667.01 207.99,-677.36 212.7,-667.87 205.76,-667.01"/>
</g>
<!-- Node10 -->
<g id="node10" class="node">
<title>Node10</title>
<g id="a_node10"><a xlink:href="class_ogre_1_1_camera.html" target="_top" xlink:title="A viewpoint from which the scene will be rendered.">
<polygon fill="none" stroke="red" points="553.5,-1114.5 553.5,-1133.5 629.5,-1133.5 629.5,-1114.5 553.5,-1114.5"/>
<text text-anchor="middle" x="591.5" y="-1121.5" font-family="Helvetica,sans-Serif" font-size="10.00">Ogre::Camera</text>
</a>
</g>
</g>
<!-- Node9&#45;&gt;Node10 -->
<g id="edge9" class="edge">
<title>Node9&#45;&gt;Node10</title>
<path fill="none" stroke="midnightblue" d="M472.51,-1124C498.3,-1124 529.5,-1124 553.34,-1124"/>
<polygon fill="midnightblue" stroke="midnightblue" points="472.2,-1120.5 462.2,-1124 472.2,-1127.5 472.2,-1120.5"/>
</g>
<!-- Node17 -->
<g id="node15" class="node">
<title>Node17</title>
<g id="a_node15"><a xlink:href="class_ogre_1_1_p_c_z_light.html" target="_top" xlink:title="Specialized version of Ogre::Light which caches which zones the light affects.">
<polygon fill="none" stroke="black" points="550,-962.5 550,-981.5 633,-981.5 633,-962.5 550,-962.5"/>
<text text-anchor="middle" x="591.5" y="-969.5" font-family="Helvetica,sans-Serif" font-size="10.00">Ogre::PCZLight</text>
</a>
</g>
</g>
<!-- Node16&#45;&gt;Node17 -->
<g id="edge14" class="edge">
<title>Node16&#45;&gt;Node17</title>
<path fill="none" stroke="midnightblue" d="M465.52,-972C491.3,-972 524.26,-972 549.87,-972"/>
<polygon fill="midnightblue" stroke="midnightblue" points="465.32,-968.5 455.32,-972 465.32,-975.5 465.32,-968.5"/>
</g>
<!-- Node23 -->
<g id="node21" class="node">
<title>Node23</title>
<g id="a_node21"><a xlink:href="class_ogre_1_1_anti_portal.html" target="_top" xlink:title="AntiPortal datastructure for occlusion culling.">
<polygon fill="none" stroke="black" points="549,-791.5 549,-810.5 634,-810.5 634,-791.5 549,-791.5"/>
<text text-anchor="middle" x="591.5" y="-798.5" font-family="Helvetica,sans-Serif" font-size="10.00">Ogre::AntiPortal</text>
</a>
</g>
</g>
<!-- Node22&#45;&gt;Node23 -->
<g id="edge20" class="edge">
<title>Node22&#45;&gt;Node23</title>
<path fill="none" stroke="midnightblue" d="M478.15,-788.18C501.15,-790.8 527.55,-793.82 548.98,-796.26"/>
<polygon fill="midnightblue" stroke="midnightblue" points="478.51,-784.7 468.18,-787.04 477.72,-791.65 478.51,-784.7"/>
</g>
<!-- Node24 -->
<g id="node22" class="node">
<title>Node24</title>
<g id="a_node22"><a xlink:href="class_ogre_1_1_portal.html" target="_top" xlink:title="Portal datastructure for connecting zones.">
<polygon fill="none" stroke="black" points="557.5,-753.5 557.5,-772.5 625.5,-772.5 625.5,-753.5 557.5,-753.5"/>
<text text-anchor="middle" x="591.5" y="-760.5" font-family="Helvetica,sans-Serif" font-size="10.00">Ogre::Portal</text>
</a>
</g>
</g>
<!-- Node22&#45;&gt;Node24 -->
<g id="edge21" class="edge">
<title>Node22&#45;&gt;Node24</title>
<path fill="none" stroke="midnightblue" d="M478.32,-775.8C504.44,-772.82 534.89,-769.35 557.48,-766.77"/>
<polygon fill="midnightblue" stroke="midnightblue" points="477.72,-772.35 468.18,-776.96 478.51,-779.3 477.72,-772.35"/>
</g>
<!-- Node39 -->
<g id="node35" class="node">
<title>Node39</title>
<g id="a_node35"><a xlink:href="class_ogre_1_1_scene_node.html" target="_top" xlink:title="Class representing a node in the scene graph.">
<polygon fill="none" stroke="red" points="376.5,-304.5 376.5,-323.5 469.5,-323.5 469.5,-304.5 376.5,-304.5"/>
<text text-anchor="middle" x="423" y="-311.5" font-family="Helvetica,sans-Serif" font-size="10.00">Ogre::SceneNode</text>
</a>
</g>
</g>
<!-- Node38&#45;&gt;Node39 -->
<g id="edge34" class="edge">
<title>Node38&#45;&gt;Node39</title>
<path fill="none" stroke="midnightblue" d="M249.05,-314C285.65,-314 338.58,-314 376.24,-314"/>
<polygon fill="midnightblue" stroke="midnightblue" points="248.72,-310.5 238.72,-314 248.72,-317.5 248.72,-310.5"/>
</g>
<!-- Node45 -->
<g id="node37" class="node">
<title>Node45</title>
<g id="a_node37"><a xlink:href="class_ogre_1_1_parallax_corrected_cubemap.html" target="_top" xlink:title=" ">
<polygon fill="none" stroke="black" points="343,-266.5 343,-285.5 503,-285.5 503,-266.5 343,-266.5"/>
<text text-anchor="middle" x="423" y="-273.5" font-family="Helvetica,sans-Serif" font-size="10.00">Ogre::ParallaxCorrectedCubemap</text>
</a>
</g>
</g>
<!-- Node44&#45;&gt;Node45 -->
<g id="edge36" class="edge">
<title>Node44&#45;&gt;Node45</title>
<path fill="none" stroke="midnightblue" d="M307.25,-276C319.22,-276 331.3,-276 342.91,-276"/>
<polygon fill="midnightblue" stroke="midnightblue" points="307.24,-272.5 297.24,-276 307.24,-279.5 307.24,-272.5"/>
</g>
<!-- Node46 -->
<g id="node38" class="node">
<title>Node46</title>
<g id="a_node38"><a xlink:href="class_ogre_1_1_parallax_corrected_cubemap_auto.html" target="_top" xlink:title="Per&#45;Pixel reflection probes.">
<polygon fill="none" stroke="black" points="333,-228.5 333,-247.5 513,-247.5 513,-228.5 333,-228.5"/>
<text text-anchor="middle" x="423" y="-235.5" font-family="Helvetica,sans-Serif" font-size="10.00">Ogre::ParallaxCorrectedCubemapAuto</text>
</a>
</g>
</g>
<!-- Node44&#45;&gt;Node46 -->
<g id="edge37" class="edge">
<title>Node44&#45;&gt;Node46</title>
<path fill="none" stroke="midnightblue" d="M271.2,-264.65C302.05,-259.2 338.61,-252.74 368,-247.54"/>
<polygon fill="midnightblue" stroke="midnightblue" points="270.21,-261.27 260.98,-266.46 271.43,-268.17 270.21,-261.27"/>
</g>
<!-- Node48 -->
<g id="node40" class="node">
<title>Node48</title>
<g id="a_node40"><a xlink:href="class_ogre_1_1_bsp_scene_manager.html" target="_top" xlink:title="Specialisation of the SceneManager class to deal with indoor scenes based on a BSP tree.">
<polygon fill="none" stroke="black" points="360.5,-190.5 360.5,-209.5 485.5,-209.5 485.5,-190.5 360.5,-190.5"/>
<text text-anchor="middle" x="423" y="-197.5" font-family="Helvetica,sans-Serif" font-size="10.00">Ogre::BspSceneManager</text>
</a>
</g>
</g>
<!-- Node47&#45;&gt;Node48 -->
<g id="edge39" class="edge">
<title>Node47&#45;&gt;Node48</title>
<path fill="none" stroke="midnightblue" d="M269.86,-200C298.39,-200 332.03,-200 360.42,-200"/>
<polygon fill="midnightblue" stroke="midnightblue" points="269.59,-196.5 259.59,-200 269.59,-203.5 269.59,-196.5"/>
</g>
<!-- Node49 -->
<g id="node41" class="node">
<title>Node49</title>
<g id="a_node41"><a xlink:href="class_ogre_1_1_default_scene_manager.html" target="_top" xlink:title="Default scene manager.">
<polygon fill="none" stroke="black" points="354,-152.5 354,-171.5 492,-171.5 492,-152.5 354,-152.5"/>
<text text-anchor="middle" x="423" y="-159.5" font-family="Helvetica,sans-Serif" font-size="10.00">Ogre::DefaultSceneManager</text>
</a>
</g>
</g>
<!-- Node47&#45;&gt;Node49 -->
<g id="edge40" class="edge">
<title>Node47&#45;&gt;Node49</title>
<path fill="none" stroke="midnightblue" d="M269.5,-188.95C300.72,-183.44 338.13,-176.82 368.08,-171.53"/>
<polygon fill="midnightblue" stroke="midnightblue" points="268.83,-185.52 259.59,-190.7 270.05,-192.41 268.83,-185.52"/>
</g>
<!-- Node50 -->
<g id="node42" class="node">
<title>Node50</title>
<g id="a_node42"><a xlink:href="class_ogre_1_1_octree_scene_manager.html" target="_top" xlink:title="Specialized SceneManager that divides the geometry into an octree in order to facilitate spatial quer...">
<polygon fill="none" stroke="black" points="354.5,-114.5 354.5,-133.5 491.5,-133.5 491.5,-114.5 354.5,-114.5"/>
<text text-anchor="middle" x="423" y="-121.5" font-family="Helvetica,sans-Serif" font-size="10.00">Ogre::OctreeSceneManager</text>
</a>
</g>
</g>
<!-- Node47&#45;&gt;Node50 -->
<g id="edge41" class="edge">
<title>Node47&#45;&gt;Node50</title>
<path fill="none" stroke="midnightblue" d="M269.73,-191.89C279.22,-189.22 288.62,-185.69 297,-181 317.3,-169.64 312.71,-154.39 333,-143 339.89,-139.13 347.48,-136.05 355.24,-133.6"/>
<polygon fill="midnightblue" stroke="midnightblue" points="268.7,-188.54 259.85,-194.36 270.4,-195.33 268.7,-188.54"/>
</g>
<!-- Node51 -->
<g id="node43" class="node">
<title>Node51</title>
<g id="a_node43"><a xlink:href="class_ogre_1_1_p_c_z_scene_manager.html" target="_top" xlink:title="Specialized SceneManager that uses Portal&#45;Connected&#45;Zones to divide the scene spatially.">
<polygon fill="none" stroke="black" points="359.5,-76.5 359.5,-95.5 486.5,-95.5 486.5,-76.5 359.5,-76.5"/>
<text text-anchor="middle" x="423" y="-83.5" font-family="Helvetica,sans-Serif" font-size="10.00">Ogre::PCZSceneManager</text>
</a>
</g>
</g>
<!-- Node47&#45;&gt;Node51 -->
<g id="edge42" class="edge">
<title>Node47&#45;&gt;Node51</title>
<path fill="none" stroke="midnightblue" d="M269.52,-194.62C279.42,-191.65 289.01,-187.31 297,-181 326.34,-157.84 303.69,-128.19 333,-105 340.68,-98.92 349.86,-94.67 359.37,-91.72"/>
<polygon fill="midnightblue" stroke="midnightblue" points="268.39,-191.29 259.56,-197.15 270.12,-198.08 268.39,-191.29"/>
</g>
<!-- Node55 -->
<g id="node47" class="node">
<title>Node55</title>
<g id="a_node47"><a xlink:href="class_ogre_1_1_vct_image_voxelizer.html" target="_top" xlink:title="The image voxelizer aims to be faster than VctImageVoxelizer for the whole scene by following a diffe...">
<polygon fill="none" stroke="black" points="361.5,-38.5 361.5,-57.5 484.5,-57.5 484.5,-38.5 361.5,-38.5"/>
<text text-anchor="middle" x="423" y="-45.5" font-family="Helvetica,sans-Serif" font-size="10.00">Ogre::VctImageVoxelizer</text>
</a>
</g>
</g>
<!-- Node54&#45;&gt;Node55 -->
<g id="edge46" class="edge">
<title>Node54&#45;&gt;Node55</title>
<path fill="none" stroke="midnightblue" d="M290.66,-59.61C314.19,-57.53 339.33,-55.31 361.25,-53.37"/>
<polygon fill="midnightblue" stroke="midnightblue" points="290.34,-56.12 280.69,-60.49 290.96,-63.09 290.34,-56.12"/>
</g>
<!-- Node56 -->
<g id="node48" class="node">
<title>Node56</title>
<g id="a_node48"><a xlink:href="class_ogre_1_1_vct_voxelizer.html" target="_top" xlink:title="The voxelizer consists in several stages.">
<polygon fill="none" stroke="black" points="375,-0.5 375,-19.5 471,-19.5 471,-0.5 375,-0.5"/>
<text text-anchor="middle" x="423" y="-7.5" font-family="Helvetica,sans-Serif" font-size="10.00">Ogre::VctVoxelizer</text>
</a>
</g>
</g>
<!-- Node54&#45;&gt;Node56 -->
<g id="edge47" class="edge">
<title>Node54&#45;&gt;Node56</title>
<path fill="none" stroke="midnightblue" d="M274.17,-54.98C281.96,-52.95 289.71,-50.63 297,-48 314.01,-41.85 315.99,-35.17 333,-29 346.22,-24.21 361,-20.45 374.67,-17.59"/>
<polygon fill="midnightblue" stroke="midnightblue" points="273.2,-51.61 264.32,-57.39 274.87,-58.41 273.2,-51.61"/>
</g>
</g>
</svg>
