<?xml version="1.0" encoding="UTF-8" standalone="no"?>
<!DOCTYPE svg PUBLIC "-//W3C//DTD SVG 1.1//EN"
 "http://www.w3.org/Graphics/SVG/1.1/DTD/svg11.dtd">
<!-- Generated by graphviz version 2.40.1 (20161225.0304)
 -->
<!-- Title: Ogre::MetalAsyncTextureTicket Pages: 1 -->
<svg width="216pt" height="140pt"
 viewBox="0.00 0.00 216.00 140.00" xmlns="http://www.w3.org/2000/svg" xmlns:xlink="http://www.w3.org/1999/xlink">
<g id="graph0" class="graph" transform="scale(1 1) rotate(0) translate(4 136)">
<title>Ogre::MetalAsyncTextureTicket</title>
<!-- Node0 -->
<g id="node1" class="node">
<title>Node0</title>
<polygon fill="#bfbfbf" stroke="#000000" points="9,-.5 9,-19.5 164,-19.5 164,-.5 9,-.5"/>
<text text-anchor="middle" x="86.5" y="-7.5" font-family="Helvetica,sans-Serif" font-size="10.00" fill="#000000">Ogre::MetalAsyncTextureTicket</text>
</g>
<!-- Node1 -->
<g id="node2" class="node">
<title>Node1</title>
<g id="a_node2"><a xlink:href="class_ogre_1_1_async_texture_ticket.html" target="_top" xlink:title="In Ogre 2.2 reading data from GPU back to CPU is asynchronous. ">
<polygon fill="none" stroke="#000000" points="21,-56.5 21,-75.5 152,-75.5 152,-56.5 21,-56.5"/>
<text text-anchor="middle" x="86.5" y="-63.5" font-family="Helvetica,sans-Serif" font-size="10.00" fill="#000000">Ogre::AsyncTextureTicket</text>
</a>
</g>
</g>
<!-- Node1&#45;&gt;Node0 -->
<g id="edge1" class="edge">
<title>Node1&#45;&gt;Node0</title>
<path fill="none" stroke="#191970" d="M86.5,-46.1575C86.5,-37.155 86.5,-26.9199 86.5,-19.6427"/>
<polygon fill="#191970" stroke="#191970" points="83.0001,-46.2455 86.5,-56.2455 90.0001,-46.2456 83.0001,-46.2455"/>
</g>
<!-- Node2 -->
<g id="node3" class="node">
<title>Node2</title>
<g id="a_node3"><a xlink:href="class_ogre_1_1_allocated_object.html" target="_top" xlink:title="Superclass for all objects that wish to use custom memory allocators when their new / delete operator...">
<polygon fill="none" stroke="#000000" points="0,-112.5 0,-131.5 61,-131.5 61,-112.5 0,-112.5"/>
<text text-anchor="middle" x="30.5" y="-119.5" font-family="Helvetica,sans-Serif" font-size="10.00" fill="#000000">PassAlloc</text>
</a>
</g>
</g>
<!-- Node2&#45;&gt;Node1 -->
<g id="edge2" class="edge">
<title>Node2&#45;&gt;Node1</title>
<path fill="none" stroke="#191970" d="M47.4249,-105.0751C57.0598,-95.4402 68.7804,-83.7196 76.8573,-75.6427"/>
<polygon fill="#191970" stroke="#191970" points="44.8507,-102.6996 40.2545,-112.2455 49.8004,-107.6493 44.8507,-102.6996"/>
</g>
<!-- Node3 -->
<g id="node4" class="node">
<title>Node3</title>
<g id="a_node4"><a xlink:href="class_ogre_1_1_texture_gpu_listener.html" target="_top" xlink:title="Ogre::TextureGpuListener">
<polygon fill="none" stroke="#000000" points="79,-112.5 79,-131.5 208,-131.5 208,-112.5 79,-112.5"/>
<text text-anchor="middle" x="143.5" y="-119.5" font-family="Helvetica,sans-Serif" font-size="10.00" fill="#000000">Ogre::TextureGpuListener</text>
</a>
</g>
</g>
<!-- Node3&#45;&gt;Node1 -->
<g id="edge3" class="edge">
<title>Node3&#45;&gt;Node1</title>
<path fill="none" stroke="#191970" d="M126.2729,-105.0751C116.4659,-95.4402 104.536,-83.7196 96.3149,-75.6427"/>
<polygon fill="#191970" stroke="#191970" points="123.9851,-107.734 133.5714,-112.2455 128.8909,-102.7406 123.9851,-107.734"/>
</g>
</g>
</svg>
