<?xml version="1.0" encoding="UTF-8" standalone="no"?>
<!DOCTYPE svg PUBLIC "-//W3C//DTD SVG 1.1//EN"
 "http://www.w3.org/Graphics/SVG/1.1/DTD/svg11.dtd">
<!-- Generated by graphviz version 2.40.1 (20161225.0304)
 -->
<!-- Title: Ogre::Codec::CodecData Pages: 1 -->
<svg width="290pt" height="151pt"
 viewBox="0.00 0.00 289.50 151.00" xmlns="http://www.w3.org/2000/svg" xmlns:xlink="http://www.w3.org/1999/xlink">
<g id="graph0" class="graph" transform="scale(1 1) rotate(0) translate(4 147)">
<title>Ogre::Codec::CodecData</title>
<!-- Node0 -->
<g id="node1" class="node">
<title>Node0</title>
<polygon fill="#bfbfbf" stroke="#000000" points="66,-67.5 66,-86.5 194,-86.5 194,-67.5 66,-67.5"/>
<text text-anchor="middle" x="130" y="-74.5" font-family="Helvetica,sans-Serif" font-size="10.00" fill="#000000">Ogre::Codec::CodecData</text>
</g>
<!-- Node2 -->
<g id="node3" class="node">
<title>Node2</title>
<g id="a_node3"><a xlink:href="class_ogre_1_1_image_codec2_1_1_image_data2.html" target="_top" xlink:title="Codec return class for images. ">
<polygon fill="none" stroke="#000000" points="0,-.5 0,-30.5 110,-30.5 110,-.5 0,-.5"/>
<text text-anchor="start" x="8" y="-18.5" font-family="Helvetica,sans-Serif" font-size="10.00" fill="#000000">Ogre::ImageCodec2::</text>
<text text-anchor="middle" x="55" y="-7.5" font-family="Helvetica,sans-Serif" font-size="10.00" fill="#000000">ImageData2</text>
</a>
</g>
</g>
<!-- Node0&#45;&gt;Node2 -->
<g id="edge2" class="edge">
<title>Node0&#45;&gt;Node2</title>
<path fill="none" stroke="#191970" d="M110.5347,-61.0385C99.058,-51.6276 84.6234,-39.7911 73.3471,-30.5446"/>
<polygon fill="#191970" stroke="#191970" points="108.3293,-63.7562 118.2813,-67.3906 112.7678,-58.3433 108.3293,-63.7562"/>
</g>
<!-- Node3 -->
<g id="node4" class="node">
<title>Node3</title>
<g id="a_node4"><a xlink:href="class_ogre_1_1_image_codec_1_1_image_data.html" target="_top" xlink:title="Codec return class for images. ">
<polygon fill="none" stroke="#000000" points="128.5,-6 128.5,-25 281.5,-25 281.5,-6 128.5,-6"/>
<text text-anchor="middle" x="205" y="-13" font-family="Helvetica,sans-Serif" font-size="10.00" fill="#000000">Ogre::ImageCodec::ImageData</text>
</a>
</g>
</g>
<!-- Node0&#45;&gt;Node3 -->
<g id="edge3" class="edge">
<title>Node0&#45;&gt;Node3</title>
<path fill="none" stroke="#191970" d="M149.6717,-60.8692C163.4663,-49.5576 181.4558,-34.8062 193.116,-25.2449"/>
<polygon fill="#191970" stroke="#191970" points="147.2322,-58.3433 141.7188,-67.3906 151.6707,-63.7562 147.2322,-58.3433"/>
</g>
<!-- Node1 -->
<g id="node2" class="node">
<title>Node1</title>
<g id="a_node2"><a xlink:href="class_ogre_1_1_allocated_object.html" target="_top" xlink:title="Superclass for all objects that wish to use custom memory allocators when their new / delete operator...">
<polygon fill="none" stroke="#000000" points="96.5,-123.5 96.5,-142.5 163.5,-142.5 163.5,-123.5 96.5,-123.5"/>
<text text-anchor="middle" x="130" y="-130.5" font-family="Helvetica,sans-Serif" font-size="10.00" fill="#000000">CodecAlloc</text>
</a>
</g>
</g>
<!-- Node1&#45;&gt;Node0 -->
<g id="edge1" class="edge">
<title>Node1&#45;&gt;Node0</title>
<path fill="none" stroke="#191970" d="M130,-113.1575C130,-104.155 130,-93.9199 130,-86.6427"/>
<polygon fill="#191970" stroke="#191970" points="126.5001,-113.2455 130,-123.2455 133.5001,-113.2456 126.5001,-113.2455"/>
</g>
</g>
</svg>
