<?xml version="1.0" encoding="UTF-8" standalone="no"?>
<!DOCTYPE svg PUBLIC "-//W3C//DTD SVG 1.1//EN"
 "http://www.w3.org/Graphics/SVG/1.1/DTD/svg11.dtd">
<!-- Generated by graphviz version 2.40.1 (20161225.0304)
 -->
<!-- Title: Ogre::FrameListener Pages: 1 -->
<svg width="334pt" height="192pt"
 viewBox="0.00 0.00 334.00 191.50" xmlns="http://www.w3.org/2000/svg" xmlns:xlink="http://www.w3.org/1999/xlink">
<g id="graph0" class="graph" transform="scale(1 1) rotate(0) translate(4 187.5)">
<title>Ogre::FrameListener</title>
<!-- Node0 -->
<g id="node1" class="node">
<title>Node0</title>
<polygon fill="#bfbfbf" stroke="#000000" points="0,-76.5 0,-95.5 106,-95.5 106,-76.5 0,-76.5"/>
<text text-anchor="middle" x="53" y="-83.5" font-family="Helvetica,sans-Serif" font-size="10.00" fill="#000000">Ogre::FrameListener</text>
</g>
<!-- Node1 -->
<g id="node2" class="node">
<title>Node1</title>
<g id="a_node2"><a xlink:href="class_ogre_1_1_frame_time_controller_value.html" target="_top" xlink:title="Predefined controller value for getting the latest frame time. ">
<polygon fill="none" stroke="#000000" points="166.5,-153 166.5,-183 301.5,-183 301.5,-153 166.5,-153"/>
<text text-anchor="start" x="174.5" y="-171" font-family="Helvetica,sans-Serif" font-size="10.00" fill="#000000">Ogre::FrameTimeController</text>
<text text-anchor="middle" x="234" y="-160" font-family="Helvetica,sans-Serif" font-size="10.00" fill="#000000">Value</text>
</a>
</g>
</g>
<!-- Node0&#45;&gt;Node1 -->
<g id="edge1" class="edge">
<title>Node0&#45;&gt;Node1</title>
<path fill="none" stroke="#191970" d="M73.541,-101.7337C90.9509,-114.4187 117.0047,-131.9132 142,-143 150.4727,-146.7581 159.641,-150.0684 168.795,-152.9468"/>
<polygon fill="#191970" stroke="#191970" points="75.3917,-98.7485 65.2761,-95.598 71.2192,-104.369 75.3917,-98.7485"/>
</g>
<!-- Node2 -->
<g id="node3" class="node">
<title>Node2</title>
<g id="a_node3"><a xlink:href="class_ogre_1_1_parallax_corrected_cubemap.html" target="_top" xlink:title="Ogre::ParallaxCorrectedCubemap">
<polygon fill="none" stroke="#000000" points="152,-114.5 152,-133.5 316,-133.5 316,-114.5 152,-114.5"/>
<text text-anchor="middle" x="234" y="-121.5" font-family="Helvetica,sans-Serif" font-size="10.00" fill="#000000">Ogre::ParallaxCorrectedCubemap</text>
</a>
</g>
</g>
<!-- Node0&#45;&gt;Node2 -->
<g id="edge2" class="edge">
<title>Node0&#45;&gt;Node2</title>
<path fill="none" stroke="#191970" d="M107.2532,-97.6424C118.7238,-100.087 130.7584,-102.6393 142,-105 156.8439,-108.1172 173.0443,-111.4771 187.6566,-114.4919"/>
<polygon fill="#191970" stroke="#191970" points="107.8626,-94.1937 97.3523,-95.5293 106.4015,-101.0395 107.8626,-94.1937"/>
</g>
<!-- Node3 -->
<g id="node4" class="node">
<title>Node3</title>
<g id="a_node4"><a xlink:href="class_ogre_1_1_parallax_corrected_cubemap_auto.html" target="_top" xlink:title="Per&#45;Pixel reflection probes. ">
<polygon fill="none" stroke="#000000" points="142,-76.5 142,-95.5 326,-95.5 326,-76.5 142,-76.5"/>
<text text-anchor="middle" x="234" y="-83.5" font-family="Helvetica,sans-Serif" font-size="10.00" fill="#000000">Ogre::ParallaxCorrectedCubemapAuto</text>
</a>
</g>
</g>
<!-- Node0&#45;&gt;Node3 -->
<g id="edge3" class="edge">
<title>Node0&#45;&gt;Node3</title>
<path fill="none" stroke="#191970" d="M116.4829,-86C124.6553,-86 133.1514,-86 141.669,-86"/>
<polygon fill="#191970" stroke="#191970" points="116.327,-82.5001 106.327,-86 116.327,-89.5001 116.327,-82.5001"/>
</g>
<!-- Node4 -->
<g id="node5" class="node">
<title>Node4</title>
<g id="a_node5"><a xlink:href="class_ogre_1_1_terrain.html" target="_top" xlink:title="The main containing class for a chunk of terrain. ">
<polygon fill="none" stroke="#000000" points="197,-38.5 197,-57.5 271,-57.5 271,-38.5 197,-38.5"/>
<text text-anchor="middle" x="234" y="-45.5" font-family="Helvetica,sans-Serif" font-size="10.00" fill="#000000">Ogre::Terrain</text>
</a>
</g>
</g>
<!-- Node0&#45;&gt;Node4 -->
<g id="edge4" class="edge">
<title>Node0&#45;&gt;Node4</title>
<path fill="none" stroke="#191970" d="M107.2532,-74.3576C118.7238,-71.913 130.7584,-69.3607 142,-67 160.0361,-63.2124 180.0749,-59.0666 196.8343,-55.6168"/>
<polygon fill="#191970" stroke="#191970" points="106.4015,-70.9605 97.3523,-76.4707 107.8626,-77.8063 106.4015,-70.9605"/>
</g>
<!-- Node5 -->
<g id="node6" class="node">
<title>Node5</title>
<g id="a_node6"><a xlink:href="class_ogre_1_1_volume_1_1_chunk.html" target="_top" xlink:title="A single volume chunk mesh. ">
<polygon fill="none" stroke="#000000" points="178.5,-.5 178.5,-19.5 289.5,-19.5 289.5,-.5 178.5,-.5"/>
<text text-anchor="middle" x="234" y="-7.5" font-family="Helvetica,sans-Serif" font-size="10.00" fill="#000000">Ogre::Volume::Chunk</text>
</a>
</g>
</g>
<!-- Node0&#45;&gt;Node5 -->
<g id="edge5" class="edge">
<title>Node0&#45;&gt;Node5</title>
<path fill="none" stroke="#191970" d="M73.0724,-70.081C90.378,-57.1344 116.53,-39.3698 142,-29 153.329,-24.3875 165.9163,-20.8469 178.0523,-18.146"/>
<polygon fill="#191970" stroke="#191970" points="70.6962,-67.492 64.8795,-76.3474 74.9489,-73.0521 70.6962,-67.492"/>
</g>
</g>
</svg>
