<?xml version="1.0" encoding="UTF-8" standalone="no"?>
<!DOCTYPE svg PUBLIC "-//W3C//DTD SVG 1.1//EN"
 "http://www.w3.org/Graphics/SVG/1.1/DTD/svg11.dtd">
<!-- Generated by graphviz version 2.44.0 ()
 -->
<!-- Title: Ogre::RTShader::ProgramWriterFactory Pages: 1 -->
<svg width="505pt" height="186pt"
 viewBox="0.00 0.00 505.00 186.00" xmlns="http://www.w3.org/2000/svg" xmlns:xlink="http://www.w3.org/1999/xlink">
<g id="graph0" class="graph" transform="scale(1 1) rotate(0) translate(4 182)">
<title>Ogre::RTShader::ProgramWriterFactory</title>
<!-- Node1 -->
<g id="node1" class="node">
<title>Node1</title>
<g id="a_node1"><a xlink:title="Interface definition for factories of ShaderProgramWriter.">
<polygon fill="#bfbfbf" stroke="black" points="151,-73.5 151,-103.5 303,-103.5 303,-73.5 151,-73.5"/>
<text text-anchor="start" x="159" y="-91.5" font-family="Helvetica,sans-Serif" font-size="10.00">Ogre::RTShader::ProgramWriter</text>
<text text-anchor="middle" x="227" y="-80.5" font-family="Helvetica,sans-Serif" font-size="10.00">Factory</text>
</a>
</g>
</g>
<!-- Node3 -->
<g id="node3" class="node">
<title>Node3</title>
<g id="a_node3"><a xlink:href="class_ogre_1_1_r_t_shader_1_1_shader_program_writer_c_g_factory.html" target="_top" xlink:title="CG program writer factory implementation.">
<polygon fill="none" stroke="black" points="339,-147.5 339,-177.5 497,-177.5 497,-147.5 339,-147.5"/>
<text text-anchor="start" x="347" y="-165.5" font-family="Helvetica,sans-Serif" font-size="10.00">Ogre::RTShader::ShaderProgram</text>
<text text-anchor="middle" x="418" y="-154.5" font-family="Helvetica,sans-Serif" font-size="10.00">WriterCGFactory</text>
</a>
</g>
</g>
<!-- Node1&#45;&gt;Node3 -->
<g id="edge2" class="edge">
<title>Node1&#45;&gt;Node3</title>
<path fill="none" stroke="midnightblue" d="M267.88,-107.92C288.79,-117.73 314.99,-129.44 339,-138.5 347.22,-141.6 356.03,-144.61 364.67,-147.38"/>
<polygon fill="midnightblue" stroke="midnightblue" points="269.2,-104.67 258.67,-103.56 266.21,-111 269.2,-104.67"/>
</g>
<!-- Node4 -->
<g id="node4" class="node">
<title>Node4</title>
<g id="a_node4"><a xlink:href="class_ogre_1_1_r_t_shader_1_1_shader_program_writer_g_l_s_l_e_s_factory.html" target="_top" xlink:title="GLSL ES program writer factory implementation.">
<polygon fill="none" stroke="black" points="339,-98.5 339,-128.5 497,-128.5 497,-98.5 339,-98.5"/>
<text text-anchor="start" x="347" y="-116.5" font-family="Helvetica,sans-Serif" font-size="10.00">Ogre::RTShader::ShaderProgram</text>
<text text-anchor="middle" x="418" y="-105.5" font-family="Helvetica,sans-Serif" font-size="10.00">WriterGLSLESFactory</text>
</a>
</g>
</g>
<!-- Node1&#45;&gt;Node4 -->
<g id="edge3" class="edge">
<title>Node1&#45;&gt;Node4</title>
<path fill="none" stroke="midnightblue" d="M313.22,-99.77C321.78,-100.91 330.44,-102.05 338.92,-103.17"/>
<polygon fill="midnightblue" stroke="midnightblue" points="313.61,-96.29 303.24,-98.45 312.7,-103.23 313.61,-96.29"/>
</g>
<!-- Node5 -->
<g id="node5" class="node">
<title>Node5</title>
<g id="a_node5"><a xlink:href="class_ogre_1_1_r_t_shader_1_1_shader_program_writer_g_l_s_l_factory.html" target="_top" xlink:title="GLSL program writer factory implementation.">
<polygon fill="none" stroke="black" points="339,-49.5 339,-79.5 497,-79.5 497,-49.5 339,-49.5"/>
<text text-anchor="start" x="347" y="-67.5" font-family="Helvetica,sans-Serif" font-size="10.00">Ogre::RTShader::ShaderProgram</text>
<text text-anchor="middle" x="418" y="-56.5" font-family="Helvetica,sans-Serif" font-size="10.00">WriterGLSLFactory</text>
</a>
</g>
</g>
<!-- Node1&#45;&gt;Node5 -->
<g id="edge4" class="edge">
<title>Node1&#45;&gt;Node5</title>
<path fill="none" stroke="midnightblue" d="M313.22,-77.68C321.78,-76.59 330.44,-75.49 338.92,-74.41"/>
<polygon fill="midnightblue" stroke="midnightblue" points="312.72,-74.21 303.24,-78.95 313.6,-81.16 312.72,-74.21"/>
</g>
<!-- Node6 -->
<g id="node6" class="node">
<title>Node6</title>
<g id="a_node6"><a xlink:href="class_ogre_1_1_r_t_shader_1_1_shader_program_writer_h_l_s_l_factory.html" target="_top" xlink:title="HLSL program writer factory implementation.">
<polygon fill="none" stroke="black" points="339,-0.5 339,-30.5 497,-30.5 497,-0.5 339,-0.5"/>
<text text-anchor="start" x="347" y="-18.5" font-family="Helvetica,sans-Serif" font-size="10.00">Ogre::RTShader::ShaderProgram</text>
<text text-anchor="middle" x="418" y="-7.5" font-family="Helvetica,sans-Serif" font-size="10.00">WriterHLSLFactory</text>
</a>
</g>
</g>
<!-- Node1&#45;&gt;Node6 -->
<g id="edge5" class="edge">
<title>Node1&#45;&gt;Node6</title>
<path fill="none" stroke="midnightblue" d="M268.81,-69.11C289.59,-59.59 315.38,-48.31 339,-39.5 347.36,-36.38 356.33,-33.34 365.11,-30.53"/>
<polygon fill="midnightblue" stroke="midnightblue" points="267.26,-65.97 259.65,-73.34 270.2,-72.33 267.26,-65.97"/>
</g>
<!-- Node2 -->
<g id="node2" class="node">
<title>Node2</title>
<g id="a_node2"><a xlink:href="class_ogre_1_1_allocated_object.html" target="_top" xlink:title="Superclass for all objects that wish to use custom memory allocators when their new / delete operator...">
<polygon fill="none" stroke="black" points="0,-79 0,-98 115,-98 115,-79 0,-79"/>
<text text-anchor="middle" x="57.5" y="-86" font-family="Helvetica,sans-Serif" font-size="10.00">RTShaderSystemAlloc</text>
</a>
</g>
</g>
<!-- Node2&#45;&gt;Node1 -->
<g id="edge1" class="edge">
<title>Node2&#45;&gt;Node1</title>
<path fill="none" stroke="midnightblue" d="M125.33,-88.5C133.75,-88.5 142.41,-88.5 150.94,-88.5"/>
<polygon fill="midnightblue" stroke="midnightblue" points="125.21,-85 115.21,-88.5 125.21,-92 125.21,-85"/>
</g>
</g>
</svg>
