<?xml version="1.0" encoding="UTF-8" standalone="no"?>
<!DOCTYPE svg PUBLIC "-//W3C//DTD SVG 1.1//EN"
 "http://www.w3.org/Graphics/SVG/1.1/DTD/svg11.dtd">
<!-- Generated by graphviz version 2.44.0 ()
 -->
<!-- Title: Ogre::EGLWindow Pages: 1 -->
<svg width="525pt" height="142pt"
 viewBox="0.00 0.00 525.00 142.00" xmlns="http://www.w3.org/2000/svg" xmlns:xlink="http://www.w3.org/1999/xlink">
<g id="graph0" class="graph" transform="scale(1 1) rotate(0) translate(4 138)">
<title>Ogre::EGLWindow</title>
<!-- Node1 -->
<g id="node1" class="node">
<title>Node1</title>
<g id="a_node1"><a xlink:title=" ">
<polygon fill="#bfbfbf" stroke="black" points="240,-57.5 240,-76.5 336,-76.5 336,-57.5 240,-57.5"/>
<text text-anchor="middle" x="288" y="-64.5" font-family="Helvetica,sans-Serif" font-size="10.00">Ogre::EGLWindow</text>
</a>
</g>
</g>
<!-- Node5 -->
<g id="node5" class="node">
<title>Node5</title>
<g id="a_node5"><a xlink:href="class_ogre_1_1_android_e_g_l_window.html" target="_top" xlink:title=" ">
<polygon fill="none" stroke="black" points="380,-114.5 380,-133.5 509,-133.5 509,-114.5 380,-114.5"/>
<text text-anchor="middle" x="444.5" y="-121.5" font-family="Helvetica,sans-Serif" font-size="10.00">Ogre::AndroidEGLWindow</text>
</a>
</g>
</g>
<!-- Node1&#45;&gt;Node5 -->
<g id="edge4" class="edge">
<title>Node1&#45;&gt;Node5</title>
<path fill="none" stroke="midnightblue" d="M316.67,-81.1C332.58,-88.84 353.1,-98.22 372,-105 381.79,-108.51 392.55,-111.71 402.67,-114.43"/>
<polygon fill="midnightblue" stroke="midnightblue" points="317.93,-77.82 307.41,-76.53 314.83,-84.09 317.93,-77.82"/>
</g>
<!-- Node6 -->
<g id="node6" class="node">
<title>Node6</title>
<g id="a_node6"><a xlink:href="class_ogre_1_1_emscripten_e_g_l_window.html" target="_top" xlink:title=" ">
<polygon fill="none" stroke="black" points="372,-76.5 372,-95.5 517,-95.5 517,-76.5 372,-76.5"/>
<text text-anchor="middle" x="444.5" y="-83.5" font-family="Helvetica,sans-Serif" font-size="10.00">Ogre::EmscriptenEGLWindow</text>
</a>
</g>
</g>
<!-- Node1&#45;&gt;Node6 -->
<g id="edge5" class="edge">
<title>Node1&#45;&gt;Node6</title>
<path fill="none" stroke="midnightblue" d="M346.19,-74.03C354.55,-75.06 363.24,-76.13 371.84,-77.19"/>
<polygon fill="midnightblue" stroke="midnightblue" points="346.55,-70.55 336.19,-72.8 345.69,-77.5 346.55,-70.55"/>
</g>
<!-- Node7 -->
<g id="node7" class="node">
<title>Node7</title>
<g id="a_node7"><a xlink:href="class_ogre_1_1_win32_e_g_l_window.html" target="_top" xlink:title=" ">
<polygon fill="none" stroke="black" points="383,-38.5 383,-57.5 506,-57.5 506,-38.5 383,-38.5"/>
<text text-anchor="middle" x="444.5" y="-45.5" font-family="Helvetica,sans-Serif" font-size="10.00">Ogre::Win32EGLWindow</text>
</a>
</g>
</g>
<!-- Node1&#45;&gt;Node7 -->
<g id="edge6" class="edge">
<title>Node1&#45;&gt;Node7</title>
<path fill="none" stroke="midnightblue" d="M346.44,-59.94C358.34,-58.47 370.9,-56.93 382.9,-55.45"/>
<polygon fill="midnightblue" stroke="midnightblue" points="345.69,-56.5 336.19,-61.2 346.55,-63.45 345.69,-56.5"/>
</g>
<!-- Node8 -->
<g id="node8" class="node">
<title>Node8</title>
<g id="a_node8"><a xlink:href="class_ogre_1_1_x11_e_g_l_window.html" target="_top" xlink:title=" ">
<polygon fill="none" stroke="black" points="388,-0.5 388,-19.5 501,-19.5 501,-0.5 388,-0.5"/>
<text text-anchor="middle" x="444.5" y="-7.5" font-family="Helvetica,sans-Serif" font-size="10.00">Ogre::X11EGLWindow</text>
</a>
</g>
</g>
<!-- Node1&#45;&gt;Node8 -->
<g id="edge7" class="edge">
<title>Node1&#45;&gt;Node8</title>
<path fill="none" stroke="midnightblue" d="M316.67,-52.9C332.58,-45.16 353.1,-35.78 372,-29 381.79,-25.49 392.55,-22.29 402.67,-19.57"/>
<polygon fill="midnightblue" stroke="midnightblue" points="314.83,-49.91 307.41,-57.47 317.93,-56.18 314.83,-49.91"/>
</g>
<!-- Node2 -->
<g id="node2" class="node">
<title>Node2</title>
<g id="a_node2"><a xlink:href="class_ogre_1_1_window.html" target="_top" xlink:title=" ">
<polygon fill="none" stroke="black" points="124.5,-76.5 124.5,-95.5 201.5,-95.5 201.5,-76.5 124.5,-76.5"/>
<text text-anchor="middle" x="163" y="-83.5" font-family="Helvetica,sans-Serif" font-size="10.00">Ogre::Window</text>
</a>
</g>
</g>
<!-- Node2&#45;&gt;Node1 -->
<g id="edge1" class="edge">
<title>Node2&#45;&gt;Node1</title>
<path fill="none" stroke="midnightblue" d="M211.7,-78.63C220.88,-77.21 230.48,-75.73 239.65,-74.31"/>
<polygon fill="midnightblue" stroke="midnightblue" points="210.92,-75.21 201.57,-80.2 211.99,-82.13 210.92,-75.21"/>
</g>
<!-- Node3 -->
<g id="node3" class="node">
<title>Node3</title>
<g id="a_node3"><a xlink:href="class_ogre_1_1_allocated_object.html" target="_top" xlink:title="Superclass for all objects that wish to use custom memory allocators when their new / delete operator...">
<polygon fill="none" stroke="black" points="0,-76.5 0,-95.5 86,-95.5 86,-76.5 0,-76.5"/>
<text text-anchor="middle" x="43" y="-83.5" font-family="Helvetica,sans-Serif" font-size="10.00">RenderSysAlloc</text>
</a>
</g>
</g>
<!-- Node3&#45;&gt;Node2 -->
<g id="edge2" class="edge">
<title>Node3&#45;&gt;Node2</title>
<path fill="none" stroke="midnightblue" d="M96.36,-86C105.78,-86 115.43,-86 124.34,-86"/>
<polygon fill="midnightblue" stroke="midnightblue" points="96.27,-82.5 86.27,-86 96.27,-89.5 96.27,-82.5"/>
</g>
<!-- Node4 -->
<g id="node4" class="node">
<title>Node4</title>
<g id="a_node4"><a xlink:title=" ">
<polygon fill="none" stroke="#bfbfbf" points="122,-38.5 122,-57.5 204,-57.5 204,-38.5 122,-38.5"/>
<text text-anchor="middle" x="163" y="-45.5" font-family="Helvetica,sans-Serif" font-size="10.00">RenderWindow</text>
</a>
</g>
</g>
<!-- Node4&#45;&gt;Node1 -->
<g id="edge3" class="edge">
<title>Node4&#45;&gt;Node1</title>
<path fill="none" stroke="midnightblue" d="M214.35,-55.78C222.76,-57.08 231.46,-58.42 239.79,-59.71"/>
<polygon fill="midnightblue" stroke="midnightblue" points="214.69,-52.29 204.27,-54.22 213.62,-59.21 214.69,-52.29"/>
</g>
</g>
</svg>
