<?xml version="1.0" encoding="UTF-8" standalone="no"?>
<!DOCTYPE svg PUBLIC "-//W3C//DTD SVG 1.1//EN"
 "http://www.w3.org/Graphics/SVG/1.1/DTD/svg11.dtd">
<!-- Generated by graphviz version 2.40.1 (20161225.0304)
 -->
<!-- Title: Ogre::ParallaxCorrectedCubemap Pages: 1 -->
<svg width="542pt" height="151pt"
 viewBox="0.00 0.00 542.00 151.00" xmlns="http://www.w3.org/2000/svg" xmlns:xlink="http://www.w3.org/1999/xlink">
<g id="graph0" class="graph" transform="scale(1 1) rotate(0) translate(4 147)">
<title>Ogre::ParallaxCorrectedCubemap</title>
<!-- Node0 -->
<g id="node1" class="node">
<title>Node0</title>
<polygon fill="#bfbfbf" stroke="#000000" points="235,-.5 235,-19.5 399,-19.5 399,-.5 235,-.5"/>
<text text-anchor="middle" x="317" y="-7.5" font-family="Helvetica,sans-Serif" font-size="10.00" fill="#000000">Ogre::ParallaxCorrectedCubemap</text>
</g>
<!-- Node1 -->
<g id="node2" class="node">
<title>Node1</title>
<g id="a_node2"><a xlink:href="class_ogre_1_1_parallax_corrected_cubemap_base.html" target="_top" xlink:title="Ogre::ParallaxCorrectedCubemapBase">
<polygon fill="none" stroke="#000000" points="60,-56.5 60,-75.5 246,-75.5 246,-56.5 60,-56.5"/>
<text text-anchor="middle" x="153" y="-63.5" font-family="Helvetica,sans-Serif" font-size="10.00" fill="#000000">Ogre::ParallaxCorrectedCubemapBase</text>
</a>
</g>
</g>
<!-- Node1&#45;&gt;Node0 -->
<g id="edge1" class="edge">
<title>Node1&#45;&gt;Node0</title>
<path fill="none" stroke="#191970" d="M190.9044,-53.057C220.9184,-42.8084 262.1507,-28.729 289.1753,-19.5011"/>
<polygon fill="#191970" stroke="#191970" points="189.5251,-49.8295 181.1926,-56.3733 191.7871,-56.454 189.5251,-49.8295"/>
</g>
<!-- Node2 -->
<g id="node3" class="node">
<title>Node2</title>
<g id="a_node3"><a xlink:href="class_ogre_1_1_id_object.html" target="_top" xlink:title="Ogre::IdObject">
<polygon fill="none" stroke="#000000" points="0,-118 0,-137 80,-137 80,-118 0,-118"/>
<text text-anchor="middle" x="40" y="-125" font-family="Helvetica,sans-Serif" font-size="10.00" fill="#000000">Ogre::IdObject</text>
</a>
</g>
</g>
<!-- Node2&#45;&gt;Node1 -->
<g id="edge2" class="edge">
<title>Node2&#45;&gt;Node1</title>
<path fill="none" stroke="#191970" d="M66.5119,-113.071C87.7775,-101.4972 117.0236,-85.5801 135.4677,-75.5419"/>
<polygon fill="#191970" stroke="#191970" points="64.7665,-110.036 57.6563,-117.8906 68.1128,-116.1844 64.7665,-110.036"/>
</g>
<!-- Node3 -->
<g id="node4" class="node">
<title>Node3</title>
<g id="a_node4"><a xlink:href="class_ogre_1_1_render_system_1_1_listener.html" target="_top" xlink:title="Defines a listener on the custom events that this render system can raise. ">
<polygon fill="none" stroke="#000000" points="98.5,-112.5 98.5,-142.5 207.5,-142.5 207.5,-112.5 98.5,-112.5"/>
<text text-anchor="start" x="106.5" y="-130.5" font-family="Helvetica,sans-Serif" font-size="10.00" fill="#000000">Ogre::RenderSystem</text>
<text text-anchor="middle" x="153" y="-119.5" font-family="Helvetica,sans-Serif" font-size="10.00" fill="#000000">::Listener</text>
</a>
</g>
</g>
<!-- Node3&#45;&gt;Node1 -->
<g id="edge3" class="edge">
<title>Node3&#45;&gt;Node1</title>
<path fill="none" stroke="#191970" d="M153,-102.2849C153,-92.9858 153,-82.9883 153,-75.8469"/>
<polygon fill="#191970" stroke="#191970" points="149.5001,-102.2977 153,-112.2977 156.5001,-102.2978 149.5001,-102.2977"/>
</g>
<!-- Node4 -->
<g id="node5" class="node">
<title>Node4</title>
<g id="a_node5"><a xlink:href="class_ogre_1_1_compositor_workspace_listener.html" target="_top" xlink:title="Ogre::CompositorWorkspace\lListener">
<polygon fill="none" stroke="#000000" points="225.5,-112.5 225.5,-142.5 368.5,-142.5 368.5,-112.5 225.5,-112.5"/>
<text text-anchor="start" x="233.5" y="-130.5" font-family="Helvetica,sans-Serif" font-size="10.00" fill="#000000">Ogre::CompositorWorkspace</text>
<text text-anchor="middle" x="297" y="-119.5" font-family="Helvetica,sans-Serif" font-size="10.00" fill="#000000">Listener</text>
</a>
</g>
</g>
<!-- Node4&#45;&gt;Node1 -->
<g id="edge4" class="edge">
<title>Node4&#45;&gt;Node1</title>
<path fill="none" stroke="#191970" d="M252.2761,-108.3992C226.7217,-97.4853 195.788,-84.274 175.3149,-75.5303"/>
<polygon fill="#191970" stroke="#191970" points="251.2025,-111.7465 261.7736,-112.4554 253.9519,-105.309 251.2025,-111.7465"/>
</g>
<!-- Node5 -->
<g id="node6" class="node">
<title>Node5</title>
<g id="a_node6"><a xlink:href="class_ogre_1_1_frame_listener.html" target="_top" xlink:title="A interface class defining a listener which can be used to receive notifications of frame events...">
<polygon fill="none" stroke="#000000" points="264,-56.5 264,-75.5 370,-75.5 370,-56.5 264,-56.5"/>
<text text-anchor="middle" x="317" y="-63.5" font-family="Helvetica,sans-Serif" font-size="10.00" fill="#000000">Ogre::FrameListener</text>
</a>
</g>
</g>
<!-- Node5&#45;&gt;Node0 -->
<g id="edge5" class="edge">
<title>Node5&#45;&gt;Node0</title>
<path fill="none" stroke="#191970" d="M317,-46.1575C317,-37.155 317,-26.9199 317,-19.6427"/>
<polygon fill="#191970" stroke="#191970" points="313.5001,-46.2455 317,-56.2455 320.5001,-46.2456 313.5001,-46.2455"/>
</g>
<!-- Node6 -->
<g id="node7" class="node">
<title>Node6</title>
<g id="a_node7"><a xlink:href="class_ogre_1_1_manual_resource_loader.html" target="_top" xlink:title="Interface describing a manual resource loader. ">
<polygon fill="none" stroke="#000000" points="388,-56.5 388,-75.5 534,-75.5 534,-56.5 388,-56.5"/>
<text text-anchor="middle" x="461" y="-63.5" font-family="Helvetica,sans-Serif" font-size="10.00" fill="#000000">Ogre::ManualResourceLoader</text>
</a>
</g>
</g>
<!-- Node6&#45;&gt;Node0 -->
<g id="edge6" class="edge">
<title>Node6&#45;&gt;Node0</title>
<path fill="none" stroke="#8b1a1a" d="M426.6818,-52.6541C400.422,-42.4419 364.8508,-28.6086 341.4315,-19.5011"/>
<polygon fill="#8b1a1a" stroke="#8b1a1a" points="425.6569,-56.0108 436.2455,-56.3733 428.194,-49.4867 425.6569,-56.0108"/>
</g>
</g>
</svg>
