<?xml version="1.0" encoding="UTF-8" standalone="no"?>
<!DOCTYPE svg PUBLIC "-//W3C//DTD SVG 1.1//EN"
 "http://www.w3.org/Graphics/SVG/1.1/DTD/svg11.dtd">
<!-- Generated by graphviz version 2.40.1 (20161225.0304)
 -->
<!-- Title: Ogre::ParallaxCorrectedCubemapBase Pages: 1 -->
<svg width="402pt" height="151pt"
 viewBox="0.00 0.00 401.50 151.00" xmlns="http://www.w3.org/2000/svg" xmlns:xlink="http://www.w3.org/1999/xlink">
<g id="graph0" class="graph" transform="scale(1 1) rotate(0) translate(4 147)">
<title>Ogre::ParallaxCorrectedCubemapBase</title>
<!-- Node0 -->
<g id="node1" class="node">
<title>Node0</title>
<polygon fill="#bfbfbf" stroke="#000000" points="85,-56.5 85,-75.5 271,-75.5 271,-56.5 85,-56.5"/>
<text text-anchor="middle" x="178" y="-63.5" font-family="Helvetica,sans-Serif" font-size="10.00" fill="#000000">Ogre::ParallaxCorrectedCubemapBase</text>
</g>
<!-- Node4 -->
<g id="node5" class="node">
<title>Node4</title>
<g id="a_node5"><a xlink:href="class_ogre_1_1_parallax_corrected_cubemap.html" target="_top" xlink:title="Ogre::ParallaxCorrectedCubemap">
<polygon fill="none" stroke="#000000" points="0,-.5 0,-19.5 164,-19.5 164,-.5 0,-.5"/>
<text text-anchor="middle" x="82" y="-7.5" font-family="Helvetica,sans-Serif" font-size="10.00" fill="#000000">Ogre::ParallaxCorrectedCubemap</text>
</a>
</g>
</g>
<!-- Node0&#45;&gt;Node4 -->
<g id="edge4" class="edge">
<title>Node0&#45;&gt;Node4</title>
<path fill="none" stroke="#191970" d="M152.3654,-51.0465C135.2841,-41.0824 113.336,-28.2794 98.5303,-19.6427"/>
<polygon fill="#191970" stroke="#191970" points="150.8767,-54.23 161.2781,-56.2455 154.4038,-48.1836 150.8767,-54.23"/>
</g>
<!-- Node5 -->
<g id="node6" class="node">
<title>Node5</title>
<g id="a_node6"><a xlink:href="class_ogre_1_1_parallax_corrected_cubemap_auto.html" target="_top" xlink:title="Per&#45;Pixel reflection probes. ">
<polygon fill="none" stroke="#000000" points="182,-.5 182,-19.5 366,-19.5 366,-.5 182,-.5"/>
<text text-anchor="middle" x="274" y="-7.5" font-family="Helvetica,sans-Serif" font-size="10.00" fill="#000000">Ogre::ParallaxCorrectedCubemapAuto</text>
</a>
</g>
</g>
<!-- Node0&#45;&gt;Node5 -->
<g id="edge5" class="edge">
<title>Node0&#45;&gt;Node5</title>
<path fill="none" stroke="#191970" d="M203.6346,-51.0465C220.7159,-41.0824 242.664,-28.2794 257.4697,-19.6427"/>
<polygon fill="#191970" stroke="#191970" points="201.5962,-48.1836 194.7219,-56.2455 205.1233,-54.23 201.5962,-48.1836"/>
</g>
<!-- Node1 -->
<g id="node2" class="node">
<title>Node1</title>
<g id="a_node2"><a xlink:href="class_ogre_1_1_id_object.html" target="_top" xlink:title="Ogre::IdObject">
<polygon fill="none" stroke="#000000" points="25,-118 25,-137 105,-137 105,-118 25,-118"/>
<text text-anchor="middle" x="65" y="-125" font-family="Helvetica,sans-Serif" font-size="10.00" fill="#000000">Ogre::IdObject</text>
</a>
</g>
</g>
<!-- Node1&#45;&gt;Node0 -->
<g id="edge1" class="edge">
<title>Node1&#45;&gt;Node0</title>
<path fill="none" stroke="#191970" d="M91.5119,-113.071C112.7775,-101.4972 142.0236,-85.5801 160.4677,-75.5419"/>
<polygon fill="#191970" stroke="#191970" points="89.7665,-110.036 82.6563,-117.8906 93.1128,-116.1844 89.7665,-110.036"/>
</g>
<!-- Node2 -->
<g id="node3" class="node">
<title>Node2</title>
<g id="a_node3"><a xlink:href="class_ogre_1_1_render_system_1_1_listener.html" target="_top" xlink:title="Defines a listener on the custom events that this render system can raise. ">
<polygon fill="none" stroke="#000000" points="123.5,-112.5 123.5,-142.5 232.5,-142.5 232.5,-112.5 123.5,-112.5"/>
<text text-anchor="start" x="131.5" y="-130.5" font-family="Helvetica,sans-Serif" font-size="10.00" fill="#000000">Ogre::RenderSystem</text>
<text text-anchor="middle" x="178" y="-119.5" font-family="Helvetica,sans-Serif" font-size="10.00" fill="#000000">::Listener</text>
</a>
</g>
</g>
<!-- Node2&#45;&gt;Node0 -->
<g id="edge2" class="edge">
<title>Node2&#45;&gt;Node0</title>
<path fill="none" stroke="#191970" d="M178,-102.2849C178,-92.9858 178,-82.9883 178,-75.8469"/>
<polygon fill="#191970" stroke="#191970" points="174.5001,-102.2977 178,-112.2977 181.5001,-102.2978 174.5001,-102.2977"/>
</g>
<!-- Node3 -->
<g id="node4" class="node">
<title>Node3</title>
<g id="a_node4"><a xlink:href="class_ogre_1_1_compositor_workspace_listener.html" target="_top" xlink:title="Ogre::CompositorWorkspace\lListener">
<polygon fill="none" stroke="#000000" points="250.5,-112.5 250.5,-142.5 393.5,-142.5 393.5,-112.5 250.5,-112.5"/>
<text text-anchor="start" x="258.5" y="-130.5" font-family="Helvetica,sans-Serif" font-size="10.00" fill="#000000">Ogre::CompositorWorkspace</text>
<text text-anchor="middle" x="322" y="-119.5" font-family="Helvetica,sans-Serif" font-size="10.00" fill="#000000">Listener</text>
</a>
</g>
</g>
<!-- Node3&#45;&gt;Node0 -->
<g id="edge3" class="edge">
<title>Node3&#45;&gt;Node0</title>
<path fill="none" stroke="#191970" d="M277.2761,-108.3992C251.7217,-97.4853 220.788,-84.274 200.3149,-75.5303"/>
<polygon fill="#191970" stroke="#191970" points="276.2025,-111.7465 286.7736,-112.4554 278.9519,-105.309 276.2025,-111.7465"/>
</g>
</g>
</svg>
