<?xml version="1.0" encoding="UTF-8" standalone="no"?>
<!DOCTYPE svg PUBLIC "-//W3C//DTD SVG 1.1//EN"
 "http://www.w3.org/Graphics/SVG/1.1/DTD/svg11.dtd">
<!-- Generated by graphviz version 2.40.1 (20161225.0304)
 -->
<!-- Title: Ogre::GL3PlusTextureGpuWindow Pages: 1 -->
<svg width="270pt" height="263pt"
 viewBox="0.00 0.00 269.50 263.00" xmlns="http://www.w3.org/2000/svg" xmlns:xlink="http://www.w3.org/1999/xlink">
<g id="graph0" class="graph" transform="scale(1 1) rotate(0) translate(4 259)">
<title>Ogre::GL3PlusTextureGpuWindow</title>
<!-- Node0 -->
<g id="node1" class="node">
<title>Node0</title>
<polygon fill="#bfbfbf" stroke="#000000" points="56,-.5 56,-19.5 223,-19.5 223,-.5 56,-.5"/>
<text text-anchor="middle" x="139.5" y="-7.5" font-family="Helvetica,sans-Serif" font-size="10.00" fill="#000000">Ogre::GL3PlusTextureGpuWindow</text>
</g>
<!-- Node1 -->
<g id="node2" class="node">
<title>Node1</title>
<g id="a_node2"><a xlink:href="class_ogre_1_1_g_l3_plus_texture_gpu_render_target.html" target="_top" xlink:title="Ogre::GL3PlusTextureGpuRender\lTarget">
<polygon fill="none" stroke="#000000" points="57.5,-56.5 57.5,-86.5 221.5,-86.5 221.5,-56.5 57.5,-56.5"/>
<text text-anchor="start" x="65.5" y="-74.5" font-family="Helvetica,sans-Serif" font-size="10.00" fill="#000000">Ogre::GL3PlusTextureGpuRender</text>
<text text-anchor="middle" x="139.5" y="-63.5" font-family="Helvetica,sans-Serif" font-size="10.00" fill="#000000">Target</text>
</a>
</g>
</g>
<!-- Node1&#45;&gt;Node0 -->
<g id="edge1" class="edge">
<title>Node1&#45;&gt;Node0</title>
<path fill="none" stroke="#191970" d="M139.5,-46.2849C139.5,-36.9858 139.5,-26.9883 139.5,-19.8469"/>
<polygon fill="#191970" stroke="#191970" points="136.0001,-46.2977 139.5,-56.2977 143.0001,-46.2978 136.0001,-46.2977"/>
</g>
<!-- Node2 -->
<g id="node3" class="node">
<title>Node2</title>
<g id="a_node3"><a xlink:href="class_ogre_1_1_g_l3_plus_texture_gpu.html" target="_top" xlink:title="Ogre::GL3PlusTextureGpu">
<polygon fill="none" stroke="#000000" points="73.5,-123.5 73.5,-142.5 205.5,-142.5 205.5,-123.5 73.5,-123.5"/>
<text text-anchor="middle" x="139.5" y="-130.5" font-family="Helvetica,sans-Serif" font-size="10.00" fill="#000000">Ogre::GL3PlusTextureGpu</text>
</a>
</g>
</g>
<!-- Node2&#45;&gt;Node1 -->
<g id="edge2" class="edge">
<title>Node2&#45;&gt;Node1</title>
<path fill="none" stroke="#191970" d="M139.5,-113.3693C139.5,-104.681 139.5,-94.6241 139.5,-86.5446"/>
<polygon fill="#191970" stroke="#191970" points="136.0001,-113.3906 139.5,-123.3906 143.0001,-113.3907 136.0001,-113.3906"/>
</g>
<!-- Node3 -->
<g id="node4" class="node">
<title>Node3</title>
<g id="a_node4"><a xlink:href="class_ogre_1_1_texture_gpu.html" target="_top" xlink:title="Ogre::TextureGpu">
<polygon fill="none" stroke="#000000" points="92,-179.5 92,-198.5 187,-198.5 187,-179.5 92,-179.5"/>
<text text-anchor="middle" x="139.5" y="-186.5" font-family="Helvetica,sans-Serif" font-size="10.00" fill="#000000">Ogre::TextureGpu</text>
</a>
</g>
</g>
<!-- Node3&#45;&gt;Node2 -->
<g id="edge3" class="edge">
<title>Node3&#45;&gt;Node2</title>
<path fill="none" stroke="#191970" d="M139.5,-169.1575C139.5,-160.155 139.5,-149.9199 139.5,-142.6427"/>
<polygon fill="#191970" stroke="#191970" points="136.0001,-169.2455 139.5,-179.2455 143.0001,-169.2456 136.0001,-169.2455"/>
</g>
<!-- Node4 -->
<g id="node5" class="node">
<title>Node4</title>
<g id="a_node5"><a xlink:href="struct_ogre_1_1_gpu_tracked_resource.html" target="_top" xlink:title="Ogre::GpuTrackedResource">
<polygon fill="none" stroke="#000000" points="0,-235.5 0,-254.5 139,-254.5 139,-235.5 0,-235.5"/>
<text text-anchor="middle" x="69.5" y="-242.5" font-family="Helvetica,sans-Serif" font-size="10.00" fill="#000000">Ogre::GpuTrackedResource</text>
</a>
</g>
</g>
<!-- Node4&#45;&gt;Node3 -->
<g id="edge4" class="edge">
<title>Node4&#45;&gt;Node3</title>
<path fill="none" stroke="#191970" d="M89.59,-228.928C101.8253,-219.1397 117.0507,-206.9595 127.4467,-198.6427"/>
<polygon fill="#191970" stroke="#191970" points="87.3153,-226.2655 81.6931,-235.2455 91.6882,-231.7316 87.3153,-226.2655"/>
</g>
<!-- Node5 -->
<g id="node6" class="node">
<title>Node5</title>
<g id="a_node6"><a xlink:href="class_ogre_1_1_gpu_resource.html" target="_top" xlink:title="Ogre::GpuResource">
<polygon fill="none" stroke="#ff0000" points="157.5,-235.5 157.5,-254.5 261.5,-254.5 261.5,-235.5 157.5,-235.5"/>
<text text-anchor="middle" x="209.5" y="-242.5" font-family="Helvetica,sans-Serif" font-size="10.00" fill="#000000">Ogre::GpuResource</text>
</a>
</g>
</g>
<!-- Node5&#45;&gt;Node3 -->
<g id="edge5" class="edge">
<title>Node5&#45;&gt;Node3</title>
<path fill="none" stroke="#191970" d="M189.41,-228.928C177.1747,-219.1397 161.9493,-206.9595 151.5533,-198.6427"/>
<polygon fill="#191970" stroke="#191970" points="187.3118,-231.7316 197.3069,-235.2455 191.6847,-226.2655 187.3118,-231.7316"/>
</g>
</g>
</svg>
