<?xml version="1.0" encoding="UTF-8" standalone="no"?>
<!DOCTYPE svg PUBLIC "-//W3C//DTD SVG 1.1//EN"
 "http://www.w3.org/Graphics/SVG/1.1/DTD/svg11.dtd">
<!-- Generated by graphviz version 2.44.0 ()
 -->
<!-- Title: Ogre::HlmsTextureExportListener Pages: 1 -->
<svg width="168pt" height="151pt"
 viewBox="0.00 0.00 168.00 151.00" xmlns="http://www.w3.org/2000/svg" xmlns:xlink="http://www.w3.org/1999/xlink">
<g id="graph0" class="graph" transform="scale(1 1) rotate(0) translate(4 147)">
<title>Ogre::HlmsTextureExportListener</title>
<!-- Node1 -->
<g id="node1" class="node">
<title>Node1</title>
<g id="a_node1"><a xlink:title=" ">
<polygon fill="#bfbfbf" stroke="black" points="0,-123.5 0,-142.5 160,-142.5 160,-123.5 0,-123.5"/>
<text text-anchor="middle" x="80" y="-130.5" font-family="Helvetica,sans-Serif" font-size="10.00">Ogre::HlmsTextureExportListener</text>
</a>
</g>
</g>
<!-- Node2 -->
<g id="node2" class="node">
<title>Node2</title>
<g id="a_node2"><a xlink:href="class_ogre_1_1_scene_format_listener.html" target="_top" xlink:title="Override this listener if you want to filter which objects get exported.">
<polygon fill="none" stroke="black" points="12,-67.5 12,-86.5 148,-86.5 148,-67.5 12,-67.5"/>
<text text-anchor="middle" x="80" y="-74.5" font-family="Helvetica,sans-Serif" font-size="10.00">Ogre::SceneFormatListener</text>
</a>
</g>
</g>
<!-- Node1&#45;&gt;Node2 -->
<g id="edge1" class="edge">
<title>Node1&#45;&gt;Node2</title>
<path fill="none" stroke="midnightblue" d="M80,-112.8C80,-103.91 80,-93.78 80,-86.75"/>
<polygon fill="midnightblue" stroke="midnightblue" points="76.5,-113.08 80,-123.08 83.5,-113.08 76.5,-113.08"/>
</g>
<!-- Node3 -->
<g id="node3" class="node">
<title>Node3</title>
<g id="a_node3"><a xlink:href="class_ogre_1_1_default_scene_format_listener.html" target="_top" xlink:title="Default implementation that prevents a SceneNode from being exported if the only attached objects.">
<polygon fill="none" stroke="black" points="14.5,-0.5 14.5,-30.5 145.5,-30.5 145.5,-0.5 14.5,-0.5"/>
<text text-anchor="start" x="22.5" y="-18.5" font-family="Helvetica,sans-Serif" font-size="10.00">Ogre::DefaultSceneFormat</text>
<text text-anchor="middle" x="80" y="-7.5" font-family="Helvetica,sans-Serif" font-size="10.00">Listener</text>
</a>
</g>
</g>
<!-- Node2&#45;&gt;Node3 -->
<g id="edge2" class="edge">
<title>Node2&#45;&gt;Node3</title>
<path fill="none" stroke="midnightblue" d="M80,-57.23C80,-48.59 80,-38.5 80,-30.52"/>
<polygon fill="midnightblue" stroke="midnightblue" points="76.5,-57.48 80,-67.48 83.5,-57.48 76.5,-57.48"/>
</g>
</g>
</svg>
