<?xml version="1.0" encoding="UTF-8" standalone="no"?>
<!DOCTYPE svg PUBLIC "-//W3C//DTD SVG 1.1//EN"
 "http://www.w3.org/Graphics/SVG/1.1/DTD/svg11.dtd">
<!-- Generated by graphviz version 2.44.0 ()
 -->
<!-- Title: Ogre::Resource::Listener Pages: 1 -->
<svg width="312pt" height="84pt"
 viewBox="0.00 0.00 312.00 84.00" xmlns="http://www.w3.org/2000/svg" xmlns:xlink="http://www.w3.org/1999/xlink">
<g id="graph0" class="graph" transform="scale(1 1) rotate(0) translate(4 80)">
<title>Ogre::Resource::Listener</title>
<!-- Node1 -->
<g id="node1" class="node">
<title>Node1</title>
<g id="a_node1"><a xlink:title=" ">
<polygon fill="#bfbfbf" stroke="black" points="112,-56.5 112,-75.5 235,-75.5 235,-56.5 112,-56.5"/>
<text text-anchor="middle" x="173.5" y="-63.5" font-family="Helvetica,sans-Serif" font-size="10.00">Ogre::Resource::Listener</text>
</a>
</g>
</g>
<!-- Node2 -->
<g id="node2" class="node">
<title>Node2</title>
<g id="a_node2"><a xlink:href="class_ogre_1_1_gpu_program_usage.html" target="_top" xlink:title="This class makes the usage of a vertex and fragment programs (low&#45;level or high&#45;level),...">
<polygon fill="none" stroke="black" points="0,-0.5 0,-19.5 125,-19.5 125,-0.5 0,-0.5"/>
<text text-anchor="middle" x="62.5" y="-7.5" font-family="Helvetica,sans-Serif" font-size="10.00">Ogre::GpuProgramUsage</text>
</a>
</g>
</g>
<!-- Node1&#45;&gt;Node2 -->
<g id="edge1" class="edge">
<title>Node1&#45;&gt;Node2</title>
<path fill="none" stroke="midnightblue" d="M146.49,-51.86C125.91,-41.85 98.16,-28.35 80.29,-19.65"/>
<polygon fill="midnightblue" stroke="midnightblue" points="145.14,-55.1 155.67,-56.32 148.2,-48.8 145.14,-55.1"/>
</g>
<!-- Node3 -->
<g id="node3" class="node">
<title>Node3</title>
<g id="a_node3"><a xlink:href="class_ogre_1_1_item.html" target="_top" xlink:title="Defines an instance of a discrete, movable object based on a Mesh.">
<polygon fill="none" stroke="black" points="142.5,-0.5 142.5,-19.5 204.5,-19.5 204.5,-0.5 142.5,-0.5"/>
<text text-anchor="middle" x="173.5" y="-7.5" font-family="Helvetica,sans-Serif" font-size="10.00">Ogre::Item</text>
</a>
</g>
</g>
<!-- Node1&#45;&gt;Node3 -->
<g id="edge2" class="edge">
<title>Node1&#45;&gt;Node3</title>
<path fill="none" stroke="midnightblue" d="M173.5,-45.8C173.5,-36.91 173.5,-26.78 173.5,-19.75"/>
<polygon fill="midnightblue" stroke="midnightblue" points="170,-46.08 173.5,-56.08 177,-46.08 170,-46.08"/>
</g>
<!-- Node4 -->
<g id="node4" class="node">
<title>Node4</title>
<g id="a_node4"><a xlink:href="class_ogre_1_1v1_1_1_entity.html" target="_top" xlink:title="Defines an instance of a discrete, movable object based on a Mesh.">
<polygon fill="none" stroke="black" points="223,-0.5 223,-19.5 304,-19.5 304,-0.5 223,-0.5"/>
<text text-anchor="middle" x="263.5" y="-7.5" font-family="Helvetica,sans-Serif" font-size="10.00">Ogre::v1::Entity</text>
</a>
</g>
</g>
<!-- Node1&#45;&gt;Node4 -->
<g id="edge3" class="edge">
<title>Node1&#45;&gt;Node4</title>
<path fill="none" stroke="midnightblue" d="M196.54,-51.18C213.1,-41.24 234.92,-28.15 249.08,-19.65"/>
<polygon fill="midnightblue" stroke="midnightblue" points="194.73,-48.18 187.96,-56.32 198.34,-54.18 194.73,-48.18"/>
</g>
</g>
</svg>
