<?xml version="1.0" encoding="UTF-8" standalone="no"?>
<!DOCTYPE svg PUBLIC "-//W3C//DTD SVG 1.1//EN"
 "http://www.w3.org/Graphics/SVG/1.1/DTD/svg11.dtd">
<!-- Generated by graphviz version 2.40.1 (20161225.0304)
 -->
<!-- Title: Ogre::D3D11WindowSwapChainBased Pages: 1 -->
<svg width="256pt" height="207pt"
 viewBox="0.00 0.00 256.00 207.00" xmlns="http://www.w3.org/2000/svg" xmlns:xlink="http://www.w3.org/1999/xlink">
<g id="graph0" class="graph" transform="scale(1 1) rotate(0) translate(4 203)">
<title>Ogre::D3D11WindowSwapChainBased</title>
<!-- Node0 -->
<g id="node1" class="node">
<title>Node0</title>
<polygon fill="#bfbfbf" stroke="#000000" points="28.5,-.5 28.5,-30.5 188.5,-30.5 188.5,-.5 28.5,-.5"/>
<text text-anchor="start" x="36.5" y="-18.5" font-family="Helvetica,sans-Serif" font-size="10.00" fill="#000000">Ogre::D3D11WindowSwapChain</text>
<text text-anchor="middle" x="108.5" y="-7.5" font-family="Helvetica,sans-Serif" font-size="10.00" fill="#000000">Based</text>
</g>
<!-- Node1 -->
<g id="node2" class="node">
<title>Node1</title>
<g id="a_node2"><a xlink:href="class_ogre_1_1_d3_d11_window.html" target="_top" xlink:title="Ogre::D3D11Window">
<polygon fill="none" stroke="#000000" points="53.5,-67.5 53.5,-86.5 163.5,-86.5 163.5,-67.5 53.5,-67.5"/>
<text text-anchor="middle" x="108.5" y="-74.5" font-family="Helvetica,sans-Serif" font-size="10.00" fill="#000000">Ogre::D3D11Window</text>
</a>
</g>
</g>
<!-- Node1&#45;&gt;Node0 -->
<g id="edge1" class="edge">
<title>Node1&#45;&gt;Node0</title>
<path fill="none" stroke="#191970" d="M108.5,-57.3693C108.5,-48.681 108.5,-38.6241 108.5,-30.5446"/>
<polygon fill="#191970" stroke="#191970" points="105.0001,-57.3906 108.5,-67.3906 112.0001,-57.3907 105.0001,-57.3906"/>
</g>
<!-- Node2 -->
<g id="node3" class="node">
<title>Node2</title>
<g id="a_node3"><a xlink:href="class_ogre_1_1_window.html" target="_top" xlink:title="Ogre::Window">
<polygon fill="none" stroke="#000000" points="4,-123.5 4,-142.5 83,-142.5 83,-123.5 4,-123.5"/>
<text text-anchor="middle" x="43.5" y="-130.5" font-family="Helvetica,sans-Serif" font-size="10.00" fill="#000000">Ogre::Window</text>
</a>
</g>
</g>
<!-- Node2&#45;&gt;Node1 -->
<g id="edge2" class="edge">
<title>Node2&#45;&gt;Node1</title>
<path fill="none" stroke="#191970" d="M62.4835,-116.645C73.7879,-106.9058 87.747,-94.8795 97.3076,-86.6427"/>
<polygon fill="#191970" stroke="#191970" points="60.1138,-114.0668 54.8221,-123.2455 64.6827,-119.3701 60.1138,-114.0668"/>
</g>
<!-- Node3 -->
<g id="node4" class="node">
<title>Node3</title>
<g id="a_node4"><a xlink:href="class_ogre_1_1_allocated_object.html" target="_top" xlink:title="Superclass for all objects that wish to use custom memory allocators when their new / delete operator...">
<polygon fill="none" stroke="#000000" points="0,-179.5 0,-198.5 87,-198.5 87,-179.5 0,-179.5"/>
<text text-anchor="middle" x="43.5" y="-186.5" font-family="Helvetica,sans-Serif" font-size="10.00" fill="#000000">RenderSysAlloc</text>
</a>
</g>
</g>
<!-- Node3&#45;&gt;Node2 -->
<g id="edge3" class="edge">
<title>Node3&#45;&gt;Node2</title>
<path fill="none" stroke="#191970" d="M43.5,-169.1575C43.5,-160.155 43.5,-149.9199 43.5,-142.6427"/>
<polygon fill="#191970" stroke="#191970" points="40.0001,-169.2455 43.5,-179.2455 47.0001,-169.2456 40.0001,-169.2455"/>
</g>
<!-- Node4 -->
<g id="node5" class="node">
<title>Node4</title>
<g id="a_node5"><a xlink:href="class_ogre_1_1_d3_d11_device_resource.html" target="_top" xlink:title="Represents a Direct3D rendering resource. ">
<polygon fill="none" stroke="#000000" points="101,-123.5 101,-142.5 248,-142.5 248,-123.5 101,-123.5"/>
<text text-anchor="middle" x="174.5" y="-130.5" font-family="Helvetica,sans-Serif" font-size="10.00" fill="#000000">Ogre::D3D11DeviceResource</text>
</a>
</g>
</g>
<!-- Node4&#45;&gt;Node1 -->
<g id="edge4" class="edge">
<title>Node4&#45;&gt;Node1</title>
<path fill="none" stroke="#8b1a1a" d="M155.2245,-116.645C143.7462,-106.9058 129.5723,-94.8795 119.8646,-86.6427"/>
<polygon fill="#8b1a1a" stroke="#8b1a1a" points="153.1141,-119.4445 163.0037,-123.2455 157.643,-114.1069 153.1141,-119.4445"/>
</g>
</g>
</svg>
