<?xml version="1.0" encoding="UTF-8" standalone="no"?>
<!DOCTYPE svg PUBLIC "-//W3C//DTD SVG 1.1//EN"
 "http://www.w3.org/Graphics/SVG/1.1/DTD/svg11.dtd">
<!-- Generated by graphviz version 2.44.0 ()
 -->
<!-- Title: Ogre::Serializer Pages: 1 -->
<svg width="895pt" height="256pt"
 viewBox="0.00 0.00 895.00 256.00" xmlns="http://www.w3.org/2000/svg" xmlns:xlink="http://www.w3.org/1999/xlink">
<g id="graph0" class="graph" transform="scale(1 1) rotate(0) translate(4 252)">
<title>Ogre::Serializer</title>
<!-- Node1 -->
<g id="node1" class="node">
<title>Node1</title>
<g id="a_node1"><a xlink:title="Generic class for serialising data to / from binary stream&#45;based files.">
<polygon fill="#bfbfbf" stroke="black" points="114,-114.5 114,-133.5 196,-133.5 196,-114.5 114,-114.5"/>
<text text-anchor="middle" x="155" y="-121.5" font-family="Helvetica,sans-Serif" font-size="10.00">Ogre::Serializer</text>
</a>
</g>
</g>
<!-- Node3 -->
<g id="node3" class="node">
<title>Node3</title>
<g id="a_node3"><a xlink:href="class_ogre_1_1_gpu_named_constants_serializer.html" target="_top" xlink:title="Simple class for loading / saving GpuNamedConstants.">
<polygon fill="none" stroke="black" points="232,-228.5 232,-247.5 408,-247.5 408,-228.5 232,-228.5"/>
<text text-anchor="middle" x="320" y="-235.5" font-family="Helvetica,sans-Serif" font-size="10.00">Ogre::GpuNamedConstantsSerializer</text>
</a>
</g>
</g>
<!-- Node1&#45;&gt;Node3 -->
<g id="edge2" class="edge">
<title>Node1&#45;&gt;Node3</title>
<path fill="none" stroke="midnightblue" d="M165.65,-142.56C178,-164.4 201.5,-200.07 232,-219 238.17,-222.83 245.01,-225.9 252.07,-228.35"/>
<polygon fill="midnightblue" stroke="midnightblue" points="168.63,-140.72 160.77,-133.61 162.48,-144.07 168.63,-140.72"/>
</g>
<!-- Node4 -->
<g id="node4" class="node">
<title>Node4</title>
<g id="a_node4"><a xlink:href="class_ogre_1_1_lod_config_serializer.html" target="_top" xlink:title=" ">
<polygon fill="none" stroke="black" points="257.5,-190.5 257.5,-209.5 382.5,-209.5 382.5,-190.5 257.5,-190.5"/>
<text text-anchor="middle" x="320" y="-197.5" font-family="Helvetica,sans-Serif" font-size="10.00">Ogre::LodConfigSerializer</text>
</a>
</g>
</g>
<!-- Node1&#45;&gt;Node4 -->
<g id="edge3" class="edge">
<title>Node1&#45;&gt;Node4</title>
<path fill="none" stroke="midnightblue" d="M173.57,-140.68C188.13,-153.58 209.94,-170.9 232,-181 240.43,-184.86 249.69,-187.96 258.93,-190.43"/>
<polygon fill="midnightblue" stroke="midnightblue" points="175.64,-137.83 165.89,-133.68 170.93,-143 175.64,-137.83"/>
</g>
<!-- Node5 -->
<g id="node5" class="node">
<title>Node5</title>
<g id="a_node5"><a xlink:href="class_ogre_1_1_mesh_serializer.html" target="_top" xlink:title="Class for serialising mesh data to/from an OGRE .mesh file.">
<polygon fill="none" stroke="black" points="267,-152.5 267,-171.5 373,-171.5 373,-152.5 267,-152.5"/>
<text text-anchor="middle" x="320" y="-159.5" font-family="Helvetica,sans-Serif" font-size="10.00">Ogre::MeshSerializer</text>
</a>
</g>
</g>
<!-- Node1&#45;&gt;Node5 -->
<g id="edge4" class="edge">
<title>Node1&#45;&gt;Node5</title>
<path fill="none" stroke="midnightblue" d="M202.87,-135.95C212.49,-138.34 222.56,-140.79 232,-143 245.7,-146.21 260.65,-149.54 274.24,-152.49"/>
<polygon fill="midnightblue" stroke="midnightblue" points="203.61,-132.53 193.06,-133.5 201.91,-139.32 203.61,-132.53"/>
</g>
<!-- Node6 -->
<g id="node6" class="node">
<title>Node6</title>
<g id="a_node6"><a xlink:href="class_ogre_1_1_mesh_serializer_impl.html" target="_top" xlink:title="Internal implementation of Mesh reading / writing for the latest version of the .mesh format.">
<polygon fill="none" stroke="black" points="257.5,-114.5 257.5,-133.5 382.5,-133.5 382.5,-114.5 257.5,-114.5"/>
<text text-anchor="middle" x="320" y="-121.5" font-family="Helvetica,sans-Serif" font-size="10.00">Ogre::MeshSerializerImpl</text>
</a>
</g>
</g>
<!-- Node1&#45;&gt;Node6 -->
<g id="edge5" class="edge">
<title>Node1&#45;&gt;Node6</title>
<path fill="none" stroke="midnightblue" d="M206.54,-124C222.59,-124 240.52,-124 257.27,-124"/>
<polygon fill="midnightblue" stroke="midnightblue" points="206.29,-120.5 196.29,-124 206.29,-127.5 206.29,-120.5"/>
</g>
<!-- Node9 -->
<g id="node9" class="node">
<title>Node9</title>
<g id="a_node9"><a xlink:href="class_ogre_1_1v1_1_1_mesh_serializer.html" target="_top" xlink:title="Class for serialising mesh data to/from an OGRE .mesh file.">
<polygon fill="none" stroke="black" points="259.5,-76.5 259.5,-95.5 380.5,-95.5 380.5,-76.5 259.5,-76.5"/>
<text text-anchor="middle" x="320" y="-83.5" font-family="Helvetica,sans-Serif" font-size="10.00">Ogre::v1::MeshSerializer</text>
</a>
</g>
</g>
<!-- Node1&#45;&gt;Node9 -->
<g id="edge8" class="edge">
<title>Node1&#45;&gt;Node9</title>
<path fill="none" stroke="midnightblue" d="M202.87,-112.05C212.49,-109.66 222.56,-107.21 232,-105 245.7,-101.79 260.65,-98.46 274.24,-95.51"/>
<polygon fill="midnightblue" stroke="midnightblue" points="201.91,-108.68 193.06,-114.5 203.61,-115.47 201.91,-108.68"/>
</g>
<!-- Node10 -->
<g id="node10" class="node">
<title>Node10</title>
<g id="a_node10"><a xlink:href="class_ogre_1_1v1_1_1_mesh_serializer_impl.html" target="_top" xlink:title="Internal implementation of Mesh reading / writing for the latest version of the .mesh format.">
<polygon fill="none" stroke="black" points="250,-38.5 250,-57.5 390,-57.5 390,-38.5 250,-38.5"/>
<text text-anchor="middle" x="320" y="-45.5" font-family="Helvetica,sans-Serif" font-size="10.00">Ogre::v1::MeshSerializerImpl</text>
</a>
</g>
</g>
<!-- Node1&#45;&gt;Node10 -->
<g id="edge9" class="edge">
<title>Node1&#45;&gt;Node10</title>
<path fill="none" stroke="midnightblue" d="M173.57,-107.32C188.13,-94.42 209.94,-77.1 232,-67 240.43,-63.14 249.69,-60.04 258.93,-57.57"/>
<polygon fill="midnightblue" stroke="midnightblue" points="170.93,-105 165.89,-114.32 175.64,-110.17 170.93,-105"/>
</g>
<!-- Node18 -->
<g id="node14" class="node">
<title>Node18</title>
<g id="a_node14"><a xlink:href="class_ogre_1_1v1_1_1_skeleton_serializer.html" target="_top" xlink:title="Class for serialising skeleton data to/from an OGRE .skeleton file.">
<polygon fill="none" stroke="black" points="252.5,-0.5 252.5,-19.5 387.5,-19.5 387.5,-0.5 252.5,-0.5"/>
<text text-anchor="middle" x="320" y="-7.5" font-family="Helvetica,sans-Serif" font-size="10.00">Ogre::v1::SkeletonSerializer</text>
</a>
</g>
</g>
<!-- Node1&#45;&gt;Node18 -->
<g id="edge13" class="edge">
<title>Node1&#45;&gt;Node18</title>
<path fill="none" stroke="midnightblue" d="M165.65,-105.44C178,-83.6 201.5,-47.93 232,-29 238.17,-25.17 245.01,-22.1 252.07,-19.65"/>
<polygon fill="midnightblue" stroke="midnightblue" points="162.48,-103.93 160.77,-114.39 168.63,-107.28 162.48,-103.93"/>
</g>
<!-- Node2 -->
<g id="node2" class="node">
<title>Node2</title>
<g id="a_node2"><a xlink:href="class_ogre_1_1_allocated_object.html" target="_top" xlink:title="Superclass for all objects that wish to use custom memory allocators when their new / delete operator...">
<polygon fill="none" stroke="black" points="0,-114.5 0,-133.5 78,-133.5 78,-114.5 0,-114.5"/>
<text text-anchor="middle" x="39" y="-121.5" font-family="Helvetica,sans-Serif" font-size="10.00">SerializerAlloc</text>
</a>
</g>
</g>
<!-- Node2&#45;&gt;Node1 -->
<g id="edge1" class="edge">
<title>Node2&#45;&gt;Node1</title>
<path fill="none" stroke="midnightblue" d="M88.38,-124C96.81,-124 105.49,-124 113.68,-124"/>
<polygon fill="midnightblue" stroke="midnightblue" points="88.28,-120.5 78.28,-124 88.28,-127.5 88.28,-120.5"/>
</g>
<!-- Node7 -->
<g id="node7" class="node">
<title>Node7</title>
<g id="a_node7"><a xlink:href="class_ogre_1_1_mesh_serializer_impl__v2__1___r1.html" target="_top" xlink:title=" ">
<polygon fill="none" stroke="black" points="444,-109 444,-139 569,-139 569,-109 444,-109"/>
<text text-anchor="start" x="452" y="-127" font-family="Helvetica,sans-Serif" font-size="10.00">Ogre::MeshSerializerImpl</text>
<text text-anchor="middle" x="506.5" y="-116" font-family="Helvetica,sans-Serif" font-size="10.00">_v2_1_R1</text>
</a>
</g>
</g>
<!-- Node6&#45;&gt;Node7 -->
<g id="edge6" class="edge">
<title>Node6&#45;&gt;Node7</title>
<path fill="none" stroke="midnightblue" d="M393.01,-124C409.81,-124 427.56,-124 443.87,-124"/>
<polygon fill="midnightblue" stroke="midnightblue" points="392.69,-120.5 382.69,-124 392.69,-127.5 392.69,-120.5"/>
</g>
<!-- Node8 -->
<g id="node8" class="node">
<title>Node8</title>
<g id="a_node8"><a xlink:href="class_ogre_1_1_mesh_serializer_impl__v2__1___r0.html" target="_top" xlink:title=" ">
<polygon fill="none" stroke="black" points="605,-109 605,-139 730,-139 730,-109 605,-109"/>
<text text-anchor="start" x="613" y="-127" font-family="Helvetica,sans-Serif" font-size="10.00">Ogre::MeshSerializerImpl</text>
<text text-anchor="middle" x="667.5" y="-116" font-family="Helvetica,sans-Serif" font-size="10.00">_v2_1_R0</text>
</a>
</g>
</g>
<!-- Node7&#45;&gt;Node8 -->
<g id="edge7" class="edge">
<title>Node7&#45;&gt;Node8</title>
<path fill="none" stroke="midnightblue" d="M579.59,-124C587.99,-124 596.5,-124 604.74,-124"/>
<polygon fill="midnightblue" stroke="midnightblue" points="579.43,-120.5 569.43,-124 579.43,-127.5 579.43,-120.5"/>
</g>
<!-- Node11 -->
<g id="node11" class="node">
<title>Node11</title>
<g id="a_node11"><a xlink:href="class_ogre_1_1v1_1_1_mesh_serializer_impl__v1__10.html" target="_top" xlink:title="Class for providing backwards&#45;compatibility for loading version 1.10 of the .mesh format.">
<polygon fill="none" stroke="black" points="446,-33 446,-63 567,-63 567,-33 446,-33"/>
<text text-anchor="start" x="454" y="-51" font-family="Helvetica,sans-Serif" font-size="10.00">Ogre::v1::MeshSerializer</text>
<text text-anchor="middle" x="506.5" y="-40" font-family="Helvetica,sans-Serif" font-size="10.00">Impl_v1_10</text>
</a>
</g>
</g>
<!-- Node10&#45;&gt;Node11 -->
<g id="edge10" class="edge">
<title>Node10&#45;&gt;Node11</title>
<path fill="none" stroke="midnightblue" d="M400.64,-48C415.81,-48 431.45,-48 445.87,-48"/>
<polygon fill="midnightblue" stroke="midnightblue" points="400.23,-44.5 390.23,-48 400.23,-51.5 400.23,-44.5"/>
</g>
<!-- Node12 -->
<g id="node12" class="node">
<title>Node12</title>
<g id="a_node12"><a xlink:href="class_ogre_1_1v1_1_1_mesh_serializer_impl__v1__8.html" target="_top" xlink:title="Class for providing backwards&#45;compatibility for loading version 1.8 of the .mesh format.">
<polygon fill="none" stroke="black" points="607,-33 607,-63 728,-63 728,-33 607,-33"/>
<text text-anchor="start" x="615" y="-51" font-family="Helvetica,sans-Serif" font-size="10.00">Ogre::v1::MeshSerializer</text>
<text text-anchor="middle" x="667.5" y="-40" font-family="Helvetica,sans-Serif" font-size="10.00">Impl_v1_8</text>
</a>
</g>
</g>
<!-- Node11&#45;&gt;Node12 -->
<g id="edge11" class="edge">
<title>Node11&#45;&gt;Node12</title>
<path fill="none" stroke="midnightblue" d="M577.3,-48C587.13,-48 597.16,-48 606.77,-48"/>
<polygon fill="midnightblue" stroke="midnightblue" points="577.16,-44.5 567.16,-48 577.16,-51.5 577.16,-44.5"/>
</g>
<!-- Node13 -->
<g id="node13" class="node">
<title>Node13</title>
<g id="a_node13"><a xlink:href="class_ogre_1_1v1_1_1_mesh_serializer_impl__v1__41.html" target="_top" xlink:title="Class for providing backwards&#45;compatibility for loading version 1.41 of the .mesh format.">
<polygon fill="none" stroke="red" points="766,-33 766,-63 887,-63 887,-33 766,-33"/>
<text text-anchor="start" x="774" y="-51" font-family="Helvetica,sans-Serif" font-size="10.00">Ogre::v1::MeshSerializer</text>
<text text-anchor="middle" x="826.5" y="-40" font-family="Helvetica,sans-Serif" font-size="10.00">Impl_v1_41</text>
</a>
</g>
</g>
<!-- Node12&#45;&gt;Node13 -->
<g id="edge12" class="edge">
<title>Node12&#45;&gt;Node13</title>
<path fill="none" stroke="midnightblue" d="M738.52,-48C747.64,-48 756.93,-48 765.86,-48"/>
<polygon fill="midnightblue" stroke="midnightblue" points="738.3,-44.5 728.3,-48 738.3,-51.5 738.3,-44.5"/>
</g>
</g>
</svg>
