<?xml version="1.0" encoding="UTF-8" standalone="no"?>
<!DOCTYPE svg PUBLIC "-//W3C//DTD SVG 1.1//EN"
 "http://www.w3.org/Graphics/SVG/1.1/DTD/svg11.dtd">
<!-- Generated by graphviz version 2.40.1 (20161225.0304)
 -->
<!-- Title: Ogre::v1::HardwareVertexBuffer Pages: 1 -->
<svg width="605pt" height="333pt"
 viewBox="0.00 0.00 605.00 333.00" xmlns="http://www.w3.org/2000/svg" xmlns:xlink="http://www.w3.org/1999/xlink">
<g id="graph0" class="graph" transform="scale(1 1) rotate(0) translate(4 329)">
<title>Ogre::v1::HardwareVertexBuffer</title>
<!-- Node0 -->
<g id="node1" class="node">
<title>Node0</title>
<polygon fill="#bfbfbf" stroke="#000000" points="265,-147.5 265,-177.5 396,-177.5 396,-147.5 265,-147.5"/>
<text text-anchor="start" x="273" y="-165.5" font-family="Helvetica,sans-Serif" font-size="10.00" fill="#000000">Ogre::v1::HardwareVertex</text>
<text text-anchor="middle" x="330.5" y="-154.5" font-family="Helvetica,sans-Serif" font-size="10.00" fill="#000000">Buffer</text>
</g>
<!-- Node3 -->
<g id="node4" class="node">
<title>Node3</title>
<g id="a_node4"><a xlink:href="class_ogre_1_1v1_1_1_d3_d11_hardware_vertex_buffer.html" target="_top" xlink:title="Specialisation of HardwareVertexBuffer for D3D11. ">
<polygon fill="none" stroke="#000000" points="434,-294.5 434,-324.5 595,-324.5 595,-294.5 434,-294.5"/>
<text text-anchor="start" x="442" y="-312.5" font-family="Helvetica,sans-Serif" font-size="10.00" fill="#000000">Ogre::v1::D3D11HardwareVertex</text>
<text text-anchor="middle" x="514.5" y="-301.5" font-family="Helvetica,sans-Serif" font-size="10.00" fill="#000000">Buffer</text>
</a>
</g>
</g>
<!-- Node0&#45;&gt;Node3 -->
<g id="edge3" class="edge">
<title>Node0&#45;&gt;Node3</title>
<path fill="none" stroke="#191970" d="M344.1857,-186.5968C361.2341,-214.465 392.935,-259.7949 432,-285.5 437.2336,-288.9438 442.9706,-291.9035 448.9048,-294.4455"/>
<polygon fill="#191970" stroke="#191970" points="347.1069,-184.6619 338.9763,-177.8689 341.0961,-188.2495 347.1069,-184.6619"/>
</g>
<!-- Node4 -->
<g id="node5" class="node">
<title>Node4</title>
<g id="a_node5"><a xlink:href="class_ogre_1_1v1_1_1_default_hardware_vertex_buffer.html" target="_top" xlink:title="Specialisation of HardwareVertexBuffer for emulation. ">
<polygon fill="none" stroke="#000000" points="447.5,-245.5 447.5,-275.5 581.5,-275.5 581.5,-245.5 447.5,-245.5"/>
<text text-anchor="start" x="455.5" y="-263.5" font-family="Helvetica,sans-Serif" font-size="10.00" fill="#000000">Ogre::v1::DefaultHardware</text>
<text text-anchor="middle" x="514.5" y="-252.5" font-family="Helvetica,sans-Serif" font-size="10.00" fill="#000000">VertexBuffer</text>
</a>
</g>
</g>
<!-- Node0&#45;&gt;Node4 -->
<g id="edge4" class="edge">
<title>Node0&#45;&gt;Node4</title>
<path fill="none" stroke="#191970" d="M355.0896,-184.2255C374.7249,-200.5958 403.5685,-222.5363 432,-236.5 438.8284,-239.8537 446.2104,-242.8236 453.6544,-245.4297"/>
<polygon fill="#191970" stroke="#191970" points="357.1565,-181.3893 347.2662,-177.5902 352.6287,-186.7278 357.1565,-181.3893"/>
</g>
<!-- Node5 -->
<g id="node6" class="node">
<title>Node5</title>
<g id="a_node6"><a xlink:href="class_ogre_1_1v1_1_1_g_l3_plus_default_hardware_vertex_buffer.html" target="_top" xlink:title="Specialisation of HardwareVertexBuffer for emulation. ">
<polygon fill="none" stroke="#000000" points="450,-196.5 450,-226.5 579,-226.5 579,-196.5 450,-196.5"/>
<text text-anchor="start" x="458" y="-214.5" font-family="Helvetica,sans-Serif" font-size="10.00" fill="#000000">Ogre::v1::GL3PlusDefault</text>
<text text-anchor="middle" x="514.5" y="-203.5" font-family="Helvetica,sans-Serif" font-size="10.00" fill="#000000">HardwareVertexBuffer</text>
</a>
</g>
</g>
<!-- Node0&#45;&gt;Node5 -->
<g id="edge5" class="edge">
<title>Node0&#45;&gt;Node5</title>
<path fill="none" stroke="#191970" d="M396.6757,-180.1229C416.8062,-185.4837 438.7316,-191.3225 458.1502,-196.4938"/>
<polygon fill="#191970" stroke="#191970" points="397.5204,-176.7259 386.9565,-177.5346 395.719,-183.4902 397.5204,-176.7259"/>
</g>
<!-- Node6 -->
<g id="node7" class="node">
<title>Node6</title>
<g id="a_node7"><a xlink:href="class_ogre_1_1v1_1_1_g_l3_plus_hardware_vertex_buffer.html" target="_top" xlink:title="Specialisation of HardwareVertexBuffer for OpenGL. ">
<polygon fill="none" stroke="#000000" points="444.5,-147.5 444.5,-177.5 584.5,-177.5 584.5,-147.5 444.5,-147.5"/>
<text text-anchor="start" x="452.5" y="-165.5" font-family="Helvetica,sans-Serif" font-size="10.00" fill="#000000">Ogre::v1::GL3PlusHardware</text>
<text text-anchor="middle" x="514.5" y="-154.5" font-family="Helvetica,sans-Serif" font-size="10.00" fill="#000000">VertexBuffer</text>
</a>
</g>
</g>
<!-- Node0&#45;&gt;Node6 -->
<g id="edge6" class="edge">
<title>Node0&#45;&gt;Node6</title>
<path fill="none" stroke="#191970" d="M406.5133,-162.5C418.9902,-162.5 431.8717,-162.5 444.2017,-162.5"/>
<polygon fill="#191970" stroke="#191970" points="406.149,-159.0001 396.149,-162.5 406.1489,-166.0001 406.149,-159.0001"/>
</g>
<!-- Node7 -->
<g id="node8" class="node">
<title>Node7</title>
<g id="a_node8"><a xlink:href="class_ogre_1_1v1_1_1_g_l_e_s2_default_hardware_vertex_buffer.html" target="_top" xlink:title="Specialisation of HardwareVertexBuffer for emulation. ">
<polygon fill="none" stroke="#000000" points="432,-98.5 432,-128.5 597,-128.5 597,-98.5 432,-98.5"/>
<text text-anchor="start" x="440" y="-116.5" font-family="Helvetica,sans-Serif" font-size="10.00" fill="#000000">Ogre::v1::GLES2DefaultHardware</text>
<text text-anchor="middle" x="514.5" y="-105.5" font-family="Helvetica,sans-Serif" font-size="10.00" fill="#000000">VertexBuffer</text>
</a>
</g>
</g>
<!-- Node0&#45;&gt;Node7 -->
<g id="edge7" class="edge">
<title>Node0&#45;&gt;Node7</title>
<path fill="none" stroke="#191970" d="M396.6757,-144.8771C416.8062,-139.5163 438.7316,-133.6775 458.1502,-128.5062"/>
<polygon fill="#191970" stroke="#191970" points="395.719,-141.5098 386.9565,-147.4654 397.5204,-148.2741 395.719,-141.5098"/>
</g>
<!-- Node8 -->
<g id="node9" class="node">
<title>Node8</title>
<g id="a_node9"><a xlink:href="class_ogre_1_1v1_1_1_metal_hardware_vertex_buffer.html" target="_top" xlink:title="Specialisation of HardwareVertexBuffer for Metal. ">
<polygon fill="none" stroke="#000000" points="437,-49.5 437,-79.5 592,-79.5 592,-49.5 437,-49.5"/>
<text text-anchor="start" x="445" y="-67.5" font-family="Helvetica,sans-Serif" font-size="10.00" fill="#000000">Ogre::v1::MetalHardwareVertex</text>
<text text-anchor="middle" x="514.5" y="-56.5" font-family="Helvetica,sans-Serif" font-size="10.00" fill="#000000">Buffer</text>
</a>
</g>
</g>
<!-- Node0&#45;&gt;Node8 -->
<g id="edge8" class="edge">
<title>Node0&#45;&gt;Node8</title>
<path fill="none" stroke="#191970" d="M355.0896,-140.7745C374.7249,-124.4042 403.5685,-102.4637 432,-88.5 438.8284,-85.1463 446.2104,-82.1764 453.6544,-79.5703"/>
<polygon fill="#191970" stroke="#191970" points="352.6287,-138.2722 347.2662,-147.4098 357.1565,-143.6107 352.6287,-138.2722"/>
</g>
<!-- Node9 -->
<g id="node10" class="node">
<title>Node9</title>
<g id="a_node10"><a xlink:href="class_ogre_1_1v1_1_1_vulkan_hardware_vertex_buffer.html" target="_top" xlink:title="Ogre::v1::VulkanHardware\lVertexBuffer">
<polygon fill="none" stroke="#000000" points="448.5,-.5 448.5,-30.5 580.5,-30.5 580.5,-.5 448.5,-.5"/>
<text text-anchor="start" x="456.5" y="-18.5" font-family="Helvetica,sans-Serif" font-size="10.00" fill="#000000">Ogre::v1::VulkanHardware</text>
<text text-anchor="middle" x="514.5" y="-7.5" font-family="Helvetica,sans-Serif" font-size="10.00" fill="#000000">VertexBuffer</text>
</a>
</g>
</g>
<!-- Node0&#45;&gt;Node9 -->
<g id="edge9" class="edge">
<title>Node0&#45;&gt;Node9</title>
<path fill="none" stroke="#191970" d="M344.1857,-138.4032C361.2341,-110.535 392.935,-65.2051 432,-39.5 437.2336,-36.0562 442.9706,-33.0965 448.9048,-30.5545"/>
<polygon fill="#191970" stroke="#191970" points="341.0961,-136.7505 338.9763,-147.1311 347.1069,-140.3381 341.0961,-136.7505"/>
</g>
<!-- Node1 -->
<g id="node2" class="node">
<title>Node1</title>
<g id="a_node2"><a xlink:href="class_ogre_1_1v1_1_1_hardware_buffer.html" target="_top" xlink:title="Abstract class defining common features of hardware buffers. ">
<polygon fill="none" stroke="#000000" points="101,-153 101,-172 229,-172 229,-153 101,-153"/>
<text text-anchor="middle" x="165" y="-160" font-family="Helvetica,sans-Serif" font-size="10.00" fill="#000000">Ogre::v1::HardwareBuffer</text>
</a>
</g>
</g>
<!-- Node1&#45;&gt;Node0 -->
<g id="edge1" class="edge">
<title>Node1&#45;&gt;Node0</title>
<path fill="none" stroke="#191970" d="M239.6382,-162.5C248.0474,-162.5 256.5694,-162.5 264.8523,-162.5"/>
<polygon fill="#191970" stroke="#191970" points="239.4606,-159.0001 229.4605,-162.5 239.4605,-166.0001 239.4606,-159.0001"/>
</g>
<!-- Node2 -->
<g id="node3" class="node">
<title>Node2</title>
<g id="a_node3"><a xlink:href="class_ogre_1_1_allocated_object.html" target="_top" xlink:title="Superclass for all objects that wish to use custom memory allocators when their new / delete operator...">
<polygon fill="none" stroke="#000000" points="0,-153 0,-172 65,-172 65,-153 0,-153"/>
<text text-anchor="middle" x="32.5" y="-160" font-family="Helvetica,sans-Serif" font-size="10.00" fill="#000000">BufferAlloc</text>
</a>
</g>
</g>
<!-- Node2&#45;&gt;Node1 -->
<g id="edge2" class="edge">
<title>Node2&#45;&gt;Node1</title>
<path fill="none" stroke="#191970" d="M75.2584,-162.5C83.4237,-162.5 92.1359,-162.5 100.8013,-162.5"/>
<polygon fill="#191970" stroke="#191970" points="75.2529,-159.0001 65.2528,-162.5 75.2528,-166.0001 75.2529,-159.0001"/>
</g>
</g>
</svg>
