<?xml version="1.0" encoding="UTF-8" standalone="no"?>
<!DOCTYPE svg PUBLIC "-//W3C//DTD SVG 1.1//EN"
 "http://www.w3.org/Graphics/SVG/1.1/DTD/svg11.dtd">
<!-- Generated by graphviz version 2.44.0 ()
 -->
<!-- Title: Ogre::ResourceManager Pages: 1 -->
<svg width="649pt" height="325pt"
 viewBox="0.00 0.00 649.00 325.00" xmlns="http://www.w3.org/2000/svg" xmlns:xlink="http://www.w3.org/1999/xlink">
<g id="graph0" class="graph" transform="scale(1 1) rotate(0) translate(4 321)">
<title>Ogre::ResourceManager</title>
<!-- Node1 -->
<g id="node1" class="node">
<title>Node1</title>
<g id="a_node1"><a xlink:title="Defines a generic resource handler.">
<polygon fill="#bfbfbf" stroke="black" points="134,-136.5 134,-155.5 255,-155.5 255,-136.5 134,-136.5"/>
<text text-anchor="middle" x="194.5" y="-143.5" font-family="Helvetica,sans-Serif" font-size="10.00">Ogre::ResourceManager</text>
</a>
</g>
</g>
<!-- Node4 -->
<g id="node4" class="node">
<title>Node4</title>
<g id="a_node4"><a xlink:href="class_ogre_1_1_bsp_resource_manager.html" target="_top" xlink:title="Manages the locating and loading of BSP&#45;based indoor levels.">
<polygon fill="none" stroke="black" points="296,-278.5 296,-297.5 434,-297.5 434,-278.5 296,-278.5"/>
<text text-anchor="middle" x="365" y="-285.5" font-family="Helvetica,sans-Serif" font-size="10.00">Ogre::BspResourceManager</text>
</a>
</g>
</g>
<!-- Node1&#45;&gt;Node4 -->
<g id="edge3" class="edge">
<title>Node1&#45;&gt;Node4</title>
<path fill="none" stroke="midnightblue" d="M204.82,-164.64C219.39,-191.85 250.19,-242.11 291,-269 296.91,-272.89 303.57,-275.99 310.4,-278.45"/>
<polygon fill="midnightblue" stroke="midnightblue" points="207.91,-163.01 200.19,-155.75 201.7,-166.24 207.91,-163.01"/>
</g>
<!-- Node5 -->
<g id="node5" class="node">
<title>Node5</title>
<g id="a_node5"><a xlink:href="class_ogre_1_1_font_manager.html" target="_top" xlink:title="Manages Font resources, parsing .fontdef files and generally organising them.">
<polygon fill="none" stroke="black" points="315.5,-240.5 315.5,-259.5 414.5,-259.5 414.5,-240.5 315.5,-240.5"/>
<text text-anchor="middle" x="365" y="-247.5" font-family="Helvetica,sans-Serif" font-size="10.00">Ogre::FontManager</text>
</a>
</g>
</g>
<!-- Node1&#45;&gt;Node5 -->
<g id="edge4" class="edge">
<title>Node1&#45;&gt;Node5</title>
<path fill="none" stroke="midnightblue" d="M210.17,-163.25C227.54,-182.58 258.26,-213.5 291,-231 298.51,-235.01 306.91,-238.21 315.26,-240.75"/>
<polygon fill="midnightblue" stroke="midnightblue" points="212.6,-160.72 203.38,-155.51 207.34,-165.34 212.6,-160.72"/>
</g>
<!-- Node6 -->
<g id="node6" class="node">
<title>Node6</title>
<g id="a_node6"><a xlink:href="class_ogre_1_1_gpu_program_manager.html" target="_top" xlink:title=" ">
<polygon fill="none" stroke="black" points="298,-202.5 298,-221.5 432,-221.5 432,-202.5 298,-202.5"/>
<text text-anchor="middle" x="365" y="-209.5" font-family="Helvetica,sans-Serif" font-size="10.00">Ogre::GpuProgramManager</text>
</a>
</g>
</g>
<!-- Node1&#45;&gt;Node6 -->
<g id="edge5" class="edge">
<title>Node1&#45;&gt;Node6</title>
<path fill="none" stroke="midnightblue" d="M221.15,-160.4C240.03,-170.55 266.55,-183.91 291,-193 300.7,-196.61 311.36,-199.8 321.47,-202.48"/>
<polygon fill="midnightblue" stroke="midnightblue" points="222.74,-157.28 212.29,-155.57 219.39,-163.43 222.74,-157.28"/>
</g>
<!-- Node13 -->
<g id="node13" class="node">
<title>Node13</title>
<g id="a_node13"><a xlink:href="class_ogre_1_1_high_level_gpu_program_manager.html" target="_top" xlink:title="This ResourceManager manages high&#45;level vertex and fragment programs.">
<polygon fill="none" stroke="black" points="294.5,-153 294.5,-183 435.5,-183 435.5,-153 294.5,-153"/>
<text text-anchor="start" x="302.5" y="-171" font-family="Helvetica,sans-Serif" font-size="10.00">Ogre::HighLevelGpuProgram</text>
<text text-anchor="middle" x="365" y="-160" font-family="Helvetica,sans-Serif" font-size="10.00">Manager</text>
</a>
</g>
</g>
<!-- Node1&#45;&gt;Node13 -->
<g id="edge12" class="edge">
<title>Node1&#45;&gt;Node13</title>
<path fill="none" stroke="midnightblue" d="M265.55,-155.15C275.03,-156.38 284.76,-157.65 294.24,-158.89"/>
<polygon fill="midnightblue" stroke="midnightblue" points="265.75,-151.64 255.38,-153.82 264.84,-158.58 265.75,-151.64"/>
</g>
<!-- Node14 -->
<g id="node14" class="node">
<title>Node14</title>
<g id="a_node14"><a xlink:href="class_ogre_1_1_material_manager.html" target="_top" xlink:title="Class for managing Material settings for Ogre.">
<polygon fill="none" stroke="black" points="308,-114.5 308,-133.5 422,-133.5 422,-114.5 308,-114.5"/>
<text text-anchor="middle" x="365" y="-121.5" font-family="Helvetica,sans-Serif" font-size="10.00">Ogre::MaterialManager</text>
</a>
</g>
</g>
<!-- Node1&#45;&gt;Node14 -->
<g id="edge13" class="edge">
<title>Node1&#45;&gt;Node14</title>
<path fill="none" stroke="midnightblue" d="M265.56,-136.85C279.7,-135.01 294.39,-133.09 307.97,-131.31"/>
<polygon fill="midnightblue" stroke="midnightblue" points="264.84,-133.42 255.38,-138.18 265.75,-140.36 264.84,-133.42"/>
</g>
<!-- Node15 -->
<g id="node15" class="node">
<title>Node15</title>
<g id="a_node15"><a xlink:href="class_ogre_1_1_mesh_manager.html" target="_top" xlink:title="Handles the management of mesh resources.">
<polygon fill="none" stroke="black" points="313,-76.5 313,-95.5 417,-95.5 417,-76.5 313,-76.5"/>
<text text-anchor="middle" x="365" y="-83.5" font-family="Helvetica,sans-Serif" font-size="10.00">Ogre::MeshManager</text>
</a>
</g>
</g>
<!-- Node1&#45;&gt;Node15 -->
<g id="edge14" class="edge">
<title>Node1&#45;&gt;Node15</title>
<path fill="none" stroke="midnightblue" d="M224.44,-132.22C243.15,-123.65 268.18,-112.82 291,-105 301.16,-101.52 312.3,-98.32 322.75,-95.58"/>
<polygon fill="midnightblue" stroke="midnightblue" points="222.88,-129.09 215.28,-136.47 225.82,-135.44 222.88,-129.09"/>
</g>
<!-- Node16 -->
<g id="node16" class="node">
<title>Node16</title>
<g id="a_node16"><a xlink:href="class_ogre_1_1v1_1_1_mesh_manager.html" target="_top" xlink:title="Handles the management of mesh resources.">
<polygon fill="none" stroke="black" points="305.5,-38.5 305.5,-57.5 424.5,-57.5 424.5,-38.5 305.5,-38.5"/>
<text text-anchor="middle" x="365" y="-45.5" font-family="Helvetica,sans-Serif" font-size="10.00">Ogre::v1::MeshManager</text>
</a>
</g>
</g>
<!-- Node1&#45;&gt;Node16 -->
<g id="edge15" class="edge">
<title>Node1&#45;&gt;Node16</title>
<path fill="none" stroke="midnightblue" d="M211.5,-128.92C229.26,-110.94 259.6,-83.06 291,-67 298.46,-63.18 306.75,-60.09 315,-57.59"/>
<polygon fill="midnightblue" stroke="midnightblue" points="208.69,-126.78 204.26,-136.4 213.73,-131.65 208.69,-126.78"/>
</g>
<!-- Node17 -->
<g id="node17" class="node">
<title>Node17</title>
<g id="a_node17"><a xlink:href="class_ogre_1_1v1_1_1_old_skeleton_manager.html" target="_top" xlink:title="Handles the management of skeleton resources.">
<polygon fill="none" stroke="black" points="291,-0.5 291,-19.5 439,-19.5 439,-0.5 291,-0.5"/>
<text text-anchor="middle" x="365" y="-7.5" font-family="Helvetica,sans-Serif" font-size="10.00">Ogre::v1::OldSkeletonManager</text>
</a>
</g>
</g>
<!-- Node1&#45;&gt;Node17 -->
<g id="edge16" class="edge">
<title>Node1&#45;&gt;Node17</title>
<path fill="none" stroke="midnightblue" d="M205.47,-127.54C220.51,-101.51 251.47,-54.36 291,-29 297.06,-25.11 303.89,-22.02 310.87,-19.55"/>
<polygon fill="midnightblue" stroke="midnightblue" points="202.34,-125.96 200.5,-136.4 208.45,-129.39 202.34,-125.96"/>
</g>
<!-- Node2 -->
<g id="node2" class="node">
<title>Node2</title>
<g id="a_node2"><a xlink:href="class_ogre_1_1_script_loader.html" target="_top" xlink:title="Abstract class defining the interface used by classes which wish to perform script loading to define ...">
<polygon fill="none" stroke="black" points="0,-155.5 0,-174.5 98,-174.5 98,-155.5 0,-155.5"/>
<text text-anchor="middle" x="49" y="-162.5" font-family="Helvetica,sans-Serif" font-size="10.00">Ogre::ScriptLoader</text>
</a>
</g>
</g>
<!-- Node2&#45;&gt;Node1 -->
<g id="edge1" class="edge">
<title>Node2&#45;&gt;Node1</title>
<path fill="none" stroke="midnightblue" d="M108.33,-157.28C116.79,-156.16 125.5,-155 133.97,-153.88"/>
<polygon fill="midnightblue" stroke="midnightblue" points="107.64,-153.84 98.18,-158.62 108.56,-160.78 107.64,-153.84"/>
</g>
<!-- Node3 -->
<g id="node3" class="node">
<title>Node3</title>
<g id="a_node3"><a xlink:href="class_ogre_1_1_allocated_object.html" target="_top" xlink:title="Superclass for all objects that wish to use custom memory allocators when their new / delete operator...">
<polygon fill="none" stroke="black" points="9,-117.5 9,-136.5 89,-136.5 89,-117.5 9,-117.5"/>
<text text-anchor="middle" x="49" y="-124.5" font-family="Helvetica,sans-Serif" font-size="10.00">ResourceAlloc</text>
</a>
</g>
</g>
<!-- Node3&#45;&gt;Node1 -->
<g id="edge2" class="edge">
<title>Node3&#45;&gt;Node1</title>
<path fill="none" stroke="midnightblue" d="M99.2,-133.51C110.36,-134.99 122.33,-136.58 133.86,-138.1"/>
<polygon fill="midnightblue" stroke="midnightblue" points="99.58,-130.03 89.21,-132.19 98.67,-136.97 99.58,-130.03"/>
</g>
<!-- Node7 -->
<g id="node7" class="node">
<title>Node7</title>
<g id="a_node7"><a xlink:href="class_ogre_1_1_d3_d11_gpu_program_manager.html" target="_top" xlink:title=" ">
<polygon fill="none" stroke="black" points="476,-297.5 476,-316.5 640,-316.5 640,-297.5 476,-297.5"/>
<text text-anchor="middle" x="558" y="-304.5" font-family="Helvetica,sans-Serif" font-size="10.00">Ogre::D3D11GpuProgramManager</text>
</a>
</g>
</g>
<!-- Node6&#45;&gt;Node7 -->
<g id="edge6" class="edge">
<title>Node6&#45;&gt;Node7</title>
<path fill="none" stroke="midnightblue" d="M430.59,-225.77C433.53,-227.33 436.36,-229.07 439,-231 463.19,-248.68 450.57,-270.65 475,-288 480.48,-291.89 486.64,-295 493.05,-297.48"/>
<polygon fill="midnightblue" stroke="midnightblue" points="432.01,-222.58 421.46,-221.6 429.11,-228.94 432.01,-222.58"/>
</g>
<!-- Node8 -->
<g id="node8" class="node">
<title>Node8</title>
<g id="a_node8"><a xlink:href="class_ogre_1_1_d3_d9_gpu_program_manager.html" target="_top" xlink:title=" ">
<polygon fill="none" stroke="black" points="479,-259.5 479,-278.5 637,-278.5 637,-259.5 479,-259.5"/>
<text text-anchor="middle" x="558" y="-266.5" font-family="Helvetica,sans-Serif" font-size="10.00">Ogre::D3D9GpuProgramManager</text>
</a>
</g>
</g>
<!-- Node6&#45;&gt;Node8 -->
<g id="edge7" class="edge">
<title>Node6&#45;&gt;Node8</title>
<path fill="none" stroke="midnightblue" d="M419.2,-224.3C425.94,-226.31 432.68,-228.55 439,-231 455.87,-237.54 458.05,-243.68 475,-250 485,-253.72 495.96,-256.87 506.53,-259.46"/>
<polygon fill="midnightblue" stroke="midnightblue" points="419.95,-220.88 409.37,-221.53 418.04,-227.62 419.95,-220.88"/>
</g>
<!-- Node9 -->
<g id="node9" class="node">
<title>Node9</title>
<g id="a_node9"><a xlink:href="class_ogre_1_1_g_l_e_s2_gpu_program_manager.html" target="_top" xlink:title=" ">
<polygon fill="none" stroke="black" points="475,-221.5 475,-240.5 641,-240.5 641,-221.5 475,-221.5"/>
<text text-anchor="middle" x="558" y="-228.5" font-family="Helvetica,sans-Serif" font-size="10.00">Ogre::GLES2GpuProgramManager</text>
</a>
</g>
</g>
<!-- Node6&#45;&gt;Node9 -->
<g id="edge8" class="edge">
<title>Node6&#45;&gt;Node9</title>
<path fill="none" stroke="midnightblue" d="M442.35,-219.59C452.98,-220.65 463.95,-221.74 474.69,-222.81"/>
<polygon fill="midnightblue" stroke="midnightblue" points="442.56,-216.1 432.27,-218.59 441.87,-223.06 442.56,-216.1"/>
</g>
<!-- Node10 -->
<g id="node10" class="node">
<title>Node10</title>
<g id="a_node10"><a xlink:href="class_ogre_1_1_g_l_s_l_shader_manager.html" target="_top" xlink:title=" ">
<polygon fill="none" stroke="black" points="489.5,-183.5 489.5,-202.5 626.5,-202.5 626.5,-183.5 489.5,-183.5"/>
<text text-anchor="middle" x="558" y="-190.5" font-family="Helvetica,sans-Serif" font-size="10.00">Ogre::GLSLShaderManager</text>
</a>
</g>
</g>
<!-- Node6&#45;&gt;Node10 -->
<g id="edge9" class="edge">
<title>Node6&#45;&gt;Node10</title>
<path fill="none" stroke="midnightblue" d="M442.34,-204.41C457.84,-202.86 474.05,-201.25 489.23,-199.74"/>
<polygon fill="midnightblue" stroke="midnightblue" points="441.87,-200.94 432.27,-205.41 442.56,-207.9 441.87,-200.94"/>
</g>
<!-- Node11 -->
<g id="node11" class="node">
<title>Node11</title>
<g id="a_node11"><a xlink:href="class_ogre_1_1_metal_gpu_program_manager.html" target="_top" xlink:title=" ">
<polygon fill="none" stroke="black" points="479,-145.5 479,-164.5 637,-164.5 637,-145.5 479,-145.5"/>
<text text-anchor="middle" x="558" y="-152.5" font-family="Helvetica,sans-Serif" font-size="10.00">Ogre::MetalGpuProgramManager</text>
</a>
</g>
</g>
<!-- Node6&#45;&gt;Node11 -->
<g id="edge10" class="edge">
<title>Node6&#45;&gt;Node11</title>
<path fill="none" stroke="midnightblue" d="M419.2,-199.7C425.94,-197.69 432.68,-195.45 439,-193 455.87,-186.46 458.05,-180.32 475,-174 485,-170.28 495.96,-167.13 506.53,-164.54"/>
<polygon fill="midnightblue" stroke="midnightblue" points="418.04,-196.38 409.37,-202.47 419.95,-203.12 418.04,-196.38"/>
</g>
<!-- Node12 -->
<g id="node12" class="node">
<title>Node12</title>
<g id="a_node12"><a xlink:href="class_ogre_1_1_vulkan_gpu_program_manager.html" target="_top" xlink:title=" ">
<polygon fill="none" stroke="black" points="476,-107.5 476,-126.5 640,-126.5 640,-107.5 476,-107.5"/>
<text text-anchor="middle" x="558" y="-114.5" font-family="Helvetica,sans-Serif" font-size="10.00">Ogre::VulkanGpuProgramManager</text>
</a>
</g>
</g>
<!-- Node6&#45;&gt;Node12 -->
<g id="edge11" class="edge">
<title>Node6&#45;&gt;Node12</title>
<path fill="none" stroke="midnightblue" d="M430.59,-198.23C433.53,-196.67 436.36,-194.93 439,-193 463.19,-175.32 450.57,-153.35 475,-136 480.48,-132.11 486.64,-129 493.05,-126.52"/>
<polygon fill="midnightblue" stroke="midnightblue" points="429.11,-195.06 421.46,-202.4 432.01,-201.42 429.11,-195.06"/>
</g>
</g>
</svg>
