<?xml version="1.0" encoding="UTF-8" standalone="no"?>
<!DOCTYPE svg PUBLIC "-//W3C//DTD SVG 1.1//EN"
 "http://www.w3.org/Graphics/SVG/1.1/DTD/svg11.dtd">
<!-- Generated by graphviz version 2.44.0 ()
 -->
<!-- Title: Ogre::CompositorNodeDef Pages: 1 -->
<svg width="173pt" height="196pt"
 viewBox="0.00 0.00 173.00 196.00" xmlns="http://www.w3.org/2000/svg" xmlns:xlink="http://www.w3.org/1999/xlink">
<g id="graph0" class="graph" transform="scale(1 1) rotate(0) translate(4 192)">
<title>Ogre::CompositorNodeDef</title>
<!-- Node1 -->
<g id="node1" class="node">
<title>Node1</title>
<g id="a_node1"><a xlink:title="Compositor nodes are the core subject of compositing.">
<polygon fill="#bfbfbf" stroke="black" points="17.5,-56.5 17.5,-75.5 147.5,-75.5 147.5,-56.5 17.5,-56.5"/>
<text text-anchor="middle" x="82.5" y="-63.5" font-family="Helvetica,sans-Serif" font-size="10.00">Ogre::CompositorNodeDef</text>
</a>
</g>
</g>
<!-- Node4 -->
<g id="node4" class="node">
<title>Node4</title>
<g id="a_node4"><a xlink:href="class_ogre_1_1_compositor_shadow_node_def.html" target="_top" xlink:title="Shadow Nodes are special nodes (not to be confused with.">
<polygon fill="none" stroke="black" points="0,-0.5 0,-19.5 165,-19.5 165,-0.5 0,-0.5"/>
<text text-anchor="middle" x="82.5" y="-7.5" font-family="Helvetica,sans-Serif" font-size="10.00">Ogre::CompositorShadowNodeDef</text>
</a>
</g>
</g>
<!-- Node1&#45;&gt;Node4 -->
<g id="edge3" class="edge">
<title>Node1&#45;&gt;Node4</title>
<path fill="none" stroke="midnightblue" d="M82.5,-45.8C82.5,-36.91 82.5,-26.78 82.5,-19.75"/>
<polygon fill="midnightblue" stroke="midnightblue" points="79,-46.08 82.5,-56.08 86,-46.08 79,-46.08"/>
</g>
<!-- Node2 -->
<g id="node2" class="node">
<title>Node2</title>
<g id="a_node2"><a xlink:href="class_ogre_1_1_texture_definition_base.html" target="_top" xlink:title="Centralized class for dealing with declarations of textures in Node &amp; Workspace definitions.">
<polygon fill="none" stroke="black" points="14,-112.5 14,-131.5 151,-131.5 151,-112.5 14,-112.5"/>
<text text-anchor="middle" x="82.5" y="-119.5" font-family="Helvetica,sans-Serif" font-size="10.00">Ogre::TextureDefinitionBase</text>
</a>
</g>
</g>
<!-- Node2&#45;&gt;Node1 -->
<g id="edge1" class="edge">
<title>Node2&#45;&gt;Node1</title>
<path fill="none" stroke="midnightblue" d="M82.5,-101.8C82.5,-92.91 82.5,-82.78 82.5,-75.75"/>
<polygon fill="midnightblue" stroke="midnightblue" points="79,-102.08 82.5,-112.08 86,-102.08 79,-102.08"/>
</g>
<!-- Node3 -->
<g id="node3" class="node">
<title>Node3</title>
<g id="a_node3"><a xlink:href="class_ogre_1_1_allocated_object.html" target="_top" xlink:title="Superclass for all objects that wish to use custom memory allocators when their new / delete operator...">
<polygon fill="none" stroke="black" points="30.5,-168.5 30.5,-187.5 134.5,-187.5 134.5,-168.5 30.5,-168.5"/>
<text text-anchor="middle" x="82.5" y="-175.5" font-family="Helvetica,sans-Serif" font-size="10.00">CompositorInstAlloc</text>
</a>
</g>
</g>
<!-- Node3&#45;&gt;Node2 -->
<g id="edge2" class="edge">
<title>Node3&#45;&gt;Node2</title>
<path fill="none" stroke="midnightblue" d="M82.5,-157.8C82.5,-148.91 82.5,-138.78 82.5,-131.75"/>
<polygon fill="midnightblue" stroke="midnightblue" points="79,-158.08 82.5,-168.08 86,-158.08 79,-158.08"/>
</g>
</g>
</svg>
