<?xml version="1.0" encoding="UTF-8" standalone="no"?>
<!DOCTYPE svg PUBLIC "-//W3C//DTD SVG 1.1//EN"
 "http://www.w3.org/Graphics/SVG/1.1/DTD/svg11.dtd">
<!-- Generated by graphviz version 2.40.1 (20161225.0304)
 -->
<!-- Title: Ogre::Plugin Pages: 1 -->
<svg width="324pt" height="256pt"
 viewBox="0.00 0.00 324.00 256.00" xmlns="http://www.w3.org/2000/svg" xmlns:xlink="http://www.w3.org/1999/xlink">
<g id="graph0" class="graph" transform="scale(1 1) rotate(0) translate(4 252)">
<title>Ogre::Plugin</title>
<!-- Node0 -->
<g id="node1" class="node">
<title>Node0</title>
<polygon fill="#bfbfbf" stroke="#000000" points="101,-114.5 101,-133.5 172,-133.5 172,-114.5 101,-114.5"/>
<text text-anchor="middle" x="136.5" y="-121.5" font-family="Helvetica,sans-Serif" font-size="10.00" fill="#000000">Ogre::Plugin</text>
</g>
<!-- Node2 -->
<g id="node3" class="node">
<title>Node2</title>
<g id="a_node3"><a xlink:href="class_ogre_1_1_d3_d11_plugin.html" target="_top" xlink:title="Plugin instance for D3D11 Manager. ">
<polygon fill="none" stroke="#000000" points="211.5,-228.5 211.5,-247.5 312.5,-247.5 312.5,-228.5 211.5,-228.5"/>
<text text-anchor="middle" x="262" y="-235.5" font-family="Helvetica,sans-Serif" font-size="10.00" fill="#000000">Ogre::D3D11Plugin</text>
</a>
</g>
</g>
<!-- Node0&#45;&gt;Node2 -->
<g id="edge2" class="edge">
<title>Node0&#45;&gt;Node2</title>
<path fill="none" stroke="#191970" d="M146.0467,-142.5678C157.8811,-163.863 179.9619,-198.4724 208,-219 213.2123,-222.8161 219.259,-225.9193 225.3804,-228.4255"/>
<polygon fill="#191970" stroke="#191970" points="149.0253,-140.7165 141.212,-133.5609 142.8577,-144.0271 149.0253,-140.7165"/>
</g>
<!-- Node3 -->
<g id="node4" class="node">
<title>Node3</title>
<g id="a_node4"><a xlink:href="class_ogre_1_1_d3_d9_plugin.html" target="_top" xlink:title="Plugin instance for D3D9 Manager. ">
<polygon fill="none" stroke="#000000" points="214,-190.5 214,-209.5 310,-209.5 310,-190.5 214,-190.5"/>
<text text-anchor="middle" x="262" y="-197.5" font-family="Helvetica,sans-Serif" font-size="10.00" fill="#000000">Ogre::D3D9Plugin</text>
</a>
</g>
</g>
<!-- Node0&#45;&gt;Node3 -->
<g id="edge3" class="edge">
<title>Node0&#45;&gt;Node3</title>
<path fill="none" stroke="#191970" d="M154.0711,-140.8012C167.8517,-153.2539 187.988,-169.9194 208,-181 214.6079,-184.6588 222.0516,-187.8197 229.2525,-190.4559"/>
<polygon fill="#191970" stroke="#191970" points="156.0883,-137.8994 146.37,-133.6796 151.3356,-143.0388 156.0883,-137.8994"/>
</g>
<!-- Node4 -->
<g id="node5" class="node">
<title>Node4</title>
<g id="a_node5"><a xlink:href="class_ogre_1_1_g_l3_plus_plugin.html" target="_top" xlink:title="Plugin instance for GL3Plus Manager. ">
<polygon fill="none" stroke="#000000" points="208,-152.5 208,-171.5 316,-171.5 316,-152.5 208,-152.5"/>
<text text-anchor="middle" x="262" y="-159.5" font-family="Helvetica,sans-Serif" font-size="10.00" fill="#000000">Ogre::GL3PlusPlugin</text>
</a>
</g>
</g>
<!-- Node0&#45;&gt;Node4 -->
<g id="edge4" class="edge">
<title>Node0&#45;&gt;Node4</title>
<path fill="none" stroke="#191970" d="M177.8995,-136.5353C194.9723,-141.7048 214.4391,-147.5991 230.3412,-152.4141"/>
<polygon fill="#191970" stroke="#191970" points="178.7541,-133.1372 168.1689,-133.589 176.7255,-139.8368 178.7541,-133.1372"/>
</g>
<!-- Node5 -->
<g id="node6" class="node">
<title>Node5</title>
<g id="a_node6"><a xlink:href="class_ogre_1_1_g_l_e_s2_plugin.html" target="_top" xlink:title="Plugin instance for GL ES 2 Manager. ">
<polygon fill="none" stroke="#000000" points="211,-114.5 211,-133.5 313,-133.5 313,-114.5 211,-114.5"/>
<text text-anchor="middle" x="262" y="-121.5" font-family="Helvetica,sans-Serif" font-size="10.00" fill="#000000">Ogre::GLES2Plugin</text>
</a>
</g>
</g>
<!-- Node0&#45;&gt;Node5 -->
<g id="edge5" class="edge">
<title>Node0&#45;&gt;Node5</title>
<path fill="none" stroke="#191970" d="M182.3173,-124C191.5851,-124 201.3857,-124 210.8243,-124"/>
<polygon fill="#191970" stroke="#191970" points="182.1276,-120.5001 172.1276,-124 182.1275,-127.5001 182.1276,-120.5001"/>
</g>
<!-- Node6 -->
<g id="node7" class="node">
<title>Node6</title>
<g id="a_node7"><a xlink:href="class_ogre_1_1_metal_plugin.html" target="_top" xlink:title="Plugin instance for Metal Manager. ">
<polygon fill="none" stroke="#000000" points="214.5,-76.5 214.5,-95.5 309.5,-95.5 309.5,-76.5 214.5,-76.5"/>
<text text-anchor="middle" x="262" y="-83.5" font-family="Helvetica,sans-Serif" font-size="10.00" fill="#000000">Ogre::MetalPlugin</text>
</a>
</g>
</g>
<!-- Node0&#45;&gt;Node6 -->
<g id="edge6" class="edge">
<title>Node0&#45;&gt;Node6</title>
<path fill="none" stroke="#191970" d="M177.8995,-111.4647C194.9723,-106.2952 214.4391,-100.4009 230.3412,-95.5859"/>
<polygon fill="#191970" stroke="#191970" points="176.7255,-108.1632 168.1689,-114.411 178.7541,-114.8628 176.7255,-108.1632"/>
</g>
<!-- Node7 -->
<g id="node8" class="node">
<title>Node7</title>
<g id="a_node8"><a xlink:href="class_ogre_1_1_n_u_l_l_plugin.html" target="_top" xlink:title="Plugin instance for NULL Manager. ">
<polygon fill="none" stroke="#000000" points="214,-38.5 214,-57.5 310,-57.5 310,-38.5 214,-38.5"/>
<text text-anchor="middle" x="262" y="-45.5" font-family="Helvetica,sans-Serif" font-size="10.00" fill="#000000">Ogre::NULLPlugin</text>
</a>
</g>
</g>
<!-- Node0&#45;&gt;Node7 -->
<g id="edge7" class="edge">
<title>Node0&#45;&gt;Node7</title>
<path fill="none" stroke="#191970" d="M154.0711,-107.1988C167.8517,-94.7461 187.988,-78.0806 208,-67 214.6079,-63.3412 222.0516,-60.1803 229.2525,-57.5441"/>
<polygon fill="#191970" stroke="#191970" points="151.3356,-104.9612 146.37,-114.3204 156.0883,-110.1006 151.3356,-104.9612"/>
</g>
<!-- Node8 -->
<g id="node9" class="node">
<title>Node8</title>
<g id="a_node9"><a xlink:href="class_ogre_1_1_vulkan_plugin.html" target="_top" xlink:title="Plugin instance for Vulkan Manager. ">
<polygon fill="none" stroke="#000000" points="211.5,-.5 211.5,-19.5 312.5,-19.5 312.5,-.5 211.5,-.5"/>
<text text-anchor="middle" x="262" y="-7.5" font-family="Helvetica,sans-Serif" font-size="10.00" fill="#000000">Ogre::VulkanPlugin</text>
</a>
</g>
</g>
<!-- Node0&#45;&gt;Node8 -->
<g id="edge8" class="edge">
<title>Node0&#45;&gt;Node8</title>
<path fill="none" stroke="#191970" d="M146.0467,-105.4322C157.8811,-84.137 179.9619,-49.5276 208,-29 213.2123,-25.1839 219.259,-22.0807 225.3804,-19.5745"/>
<polygon fill="#191970" stroke="#191970" points="142.8577,-103.9729 141.212,-114.4391 149.0253,-107.2835 142.8577,-103.9729"/>
</g>
<!-- Node1 -->
<g id="node2" class="node">
<title>Node1</title>
<g id="a_node2"><a xlink:href="class_ogre_1_1_allocated_object.html" target="_top" xlink:title="Superclass for all objects that wish to use custom memory allocators when their new / delete operator...">
<polygon fill="none" stroke="#000000" points="0,-114.5 0,-133.5 65,-133.5 65,-114.5 0,-114.5"/>
<text text-anchor="middle" x="32.5" y="-121.5" font-family="Helvetica,sans-Serif" font-size="10.00" fill="#000000">PluginAlloc</text>
</a>
</g>
</g>
<!-- Node1&#45;&gt;Node0 -->
<g id="edge1" class="edge">
<title>Node1&#45;&gt;Node0</title>
<path fill="none" stroke="#191970" d="M75.231,-124C83.7095,-124 92.5277,-124 100.7444,-124"/>
<polygon fill="#191970" stroke="#191970" points="75.1209,-120.5001 65.1209,-124 75.1209,-127.5001 75.1209,-120.5001"/>
</g>
</g>
</svg>
