<?xml version="1.0" encoding="UTF-8" standalone="no"?>
<!DOCTYPE svg PUBLIC "-//W3C//DTD SVG 1.1//EN"
 "http://www.w3.org/Graphics/SVG/1.1/DTD/svg11.dtd">
<!-- Generated by graphviz version 2.44.0 ()
 -->
<!-- Title: Ogre::Resource Pages: 1 -->
<svg width="748pt" height="306pt"
 viewBox="0.00 0.00 748.00 306.00" xmlns="http://www.w3.org/2000/svg" xmlns:xlink="http://www.w3.org/1999/xlink">
<g id="graph0" class="graph" transform="scale(1 1) rotate(0) translate(4 302)">
<title>Ogre::Resource</title>
<!-- Node1 -->
<g id="node1" class="node">
<title>Node1</title>
<g id="a_node1"><a xlink:title="Abstract class representing a loadable resource (e.g.">
<polygon fill="#bfbfbf" stroke="black" points="142,-126.5 142,-145.5 225,-145.5 225,-126.5 142,-126.5"/>
<text text-anchor="middle" x="183.5" y="-133.5" font-family="Helvetica,sans-Serif" font-size="10.00">Ogre::Resource</text>
</a>
</g>
</g>
<!-- Node4 -->
<g id="node4" class="node">
<title>Node4</title>
<g id="a_node4"><a xlink:href="class_ogre_1_1_bsp_level.html" target="_top" xlink:title="Holds all the data associated with a Binary Space Parition (BSP) based indoor level.">
<polygon fill="none" stroke="black" points="268,-240.5 268,-259.5 351,-259.5 351,-240.5 268,-240.5"/>
<text text-anchor="middle" x="309.5" y="-247.5" font-family="Helvetica,sans-Serif" font-size="10.00">Ogre::BspLevel</text>
</a>
</g>
</g>
<!-- Node1&#45;&gt;Node4 -->
<g id="edge3" class="edge">
<title>Node1&#45;&gt;Node4</title>
<path fill="none" stroke="midnightblue" d="M195.21,-154.37C208.32,-175.45 232.35,-209.82 261,-231 266,-234.7 271.82,-237.79 277.63,-240.34"/>
<polygon fill="midnightblue" stroke="midnightblue" points="198.15,-152.47 189.98,-145.72 192.16,-156.09 198.15,-152.47"/>
</g>
<!-- Node5 -->
<g id="node5" class="node">
<title>Node5</title>
<g id="a_node5"><a xlink:href="class_ogre_1_1_font.html" target="_top" xlink:title="Class representing a font in the system.">
<polygon fill="none" stroke="black" points="278.5,-202.5 278.5,-221.5 340.5,-221.5 340.5,-202.5 278.5,-202.5"/>
<text text-anchor="middle" x="309.5" y="-209.5" font-family="Helvetica,sans-Serif" font-size="10.00">Ogre::Font</text>
</a>
</g>
</g>
<!-- Node1&#45;&gt;Node5 -->
<g id="edge4" class="edge">
<title>Node1&#45;&gt;Node5</title>
<path fill="none" stroke="midnightblue" d="M203.73,-152.55C218.65,-164.82 240.22,-181.37 261,-193 267.2,-196.47 274.16,-199.63 280.81,-202.33"/>
<polygon fill="midnightblue" stroke="midnightblue" points="205.69,-149.62 195.78,-145.89 201.2,-154.99 205.69,-149.62"/>
</g>
<!-- Node6 -->
<g id="node6" class="node">
<title>Node6</title>
<g id="a_node6"><a xlink:href="class_ogre_1_1_gpu_program.html" target="_top" xlink:title="Defines a program which runs on the GPU such as a vertex or fragment program.">
<polygon fill="none" stroke="black" points="261,-164.5 261,-183.5 358,-183.5 358,-164.5 261,-164.5"/>
<text text-anchor="middle" x="309.5" y="-171.5" font-family="Helvetica,sans-Serif" font-size="10.00">Ogre::GpuProgram</text>
</a>
</g>
</g>
<!-- Node1&#45;&gt;Node6 -->
<g id="edge5" class="edge">
<title>Node1&#45;&gt;Node6</title>
<path fill="none" stroke="midnightblue" d="M225.4,-148.54C242.27,-153.7 261.51,-159.6 277.22,-164.41"/>
<polygon fill="midnightblue" stroke="midnightblue" points="226.38,-145.17 215.79,-145.59 224.33,-151.87 226.38,-145.17"/>
</g>
<!-- Node17 -->
<g id="node17" class="node">
<title>Node17</title>
<g id="a_node17"><a xlink:href="class_ogre_1_1_material.html" target="_top" xlink:title="Class encapsulates rendering properties of an object.">
<polygon fill="none" stroke="black" points="271,-126.5 271,-145.5 348,-145.5 348,-126.5 271,-126.5"/>
<text text-anchor="middle" x="309.5" y="-133.5" font-family="Helvetica,sans-Serif" font-size="10.00">Ogre::Material</text>
</a>
</g>
</g>
<!-- Node1&#45;&gt;Node17 -->
<g id="edge16" class="edge">
<title>Node1&#45;&gt;Node17</title>
<path fill="none" stroke="midnightblue" d="M235.32,-136C247.17,-136 259.58,-136 270.75,-136"/>
<polygon fill="midnightblue" stroke="midnightblue" points="235.1,-132.5 225.1,-136 235.1,-139.5 235.1,-132.5"/>
</g>
<!-- Node18 -->
<g id="node18" class="node">
<title>Node18</title>
<g id="a_node18"><a xlink:href="class_ogre_1_1_mesh.html" target="_top" xlink:title="Resource holding data about 3D mesh.">
<polygon fill="none" stroke="black" points="276.5,-88.5 276.5,-107.5 342.5,-107.5 342.5,-88.5 276.5,-88.5"/>
<text text-anchor="middle" x="309.5" y="-95.5" font-family="Helvetica,sans-Serif" font-size="10.00">Ogre::Mesh</text>
</a>
</g>
</g>
<!-- Node1&#45;&gt;Node18 -->
<g id="edge17" class="edge">
<title>Node1&#45;&gt;Node18</title>
<path fill="none" stroke="midnightblue" d="M225.4,-123.46C242.27,-118.3 261.51,-112.4 277.22,-107.59"/>
<polygon fill="midnightblue" stroke="midnightblue" points="224.33,-120.13 215.79,-126.41 226.38,-126.83 224.33,-120.13"/>
</g>
<!-- Node19 -->
<g id="node19" class="node">
<title>Node19</title>
<g id="a_node19"><a xlink:href="class_ogre_1_1v1_1_1_mesh.html" target="_top" xlink:title="Resource holding data about 3D mesh.">
<polygon fill="none" stroke="black" points="269,-50.5 269,-69.5 350,-69.5 350,-50.5 269,-50.5"/>
<text text-anchor="middle" x="309.5" y="-57.5" font-family="Helvetica,sans-Serif" font-size="10.00">Ogre::v1::Mesh</text>
</a>
</g>
</g>
<!-- Node1&#45;&gt;Node19 -->
<g id="edge18" class="edge">
<title>Node1&#45;&gt;Node19</title>
<path fill="none" stroke="midnightblue" d="M203.73,-119.45C218.65,-107.18 240.22,-90.63 261,-79 267.2,-75.53 274.16,-72.37 280.81,-69.67"/>
<polygon fill="midnightblue" stroke="midnightblue" points="201.2,-117.01 195.78,-126.11 205.69,-122.38 201.2,-117.01"/>
</g>
<!-- Node21 -->
<g id="node21" class="node">
<title>Node21</title>
<g id="a_node21"><a xlink:href="class_ogre_1_1v1_1_1_skeleton.html" target="_top" xlink:title="A collection of OldBone objects used to animate a skinned mesh.">
<polygon fill="none" stroke="black" points="262,-12.5 262,-31.5 357,-31.5 357,-12.5 262,-12.5"/>
<text text-anchor="middle" x="309.5" y="-19.5" font-family="Helvetica,sans-Serif" font-size="10.00">Ogre::v1::Skeleton</text>
</a>
</g>
</g>
<!-- Node1&#45;&gt;Node21 -->
<g id="edge20" class="edge">
<title>Node1&#45;&gt;Node21</title>
<path fill="none" stroke="midnightblue" d="M195.21,-117.63C208.32,-96.55 232.35,-62.18 261,-41 266,-37.3 271.82,-34.21 277.63,-31.66"/>
<polygon fill="midnightblue" stroke="midnightblue" points="192.16,-115.91 189.98,-126.28 198.15,-119.53 192.16,-115.91"/>
</g>
<!-- Node2 -->
<g id="node2" class="node">
<title>Node2</title>
<g id="a_node2"><a xlink:href="class_ogre_1_1_string_interface.html" target="_top" xlink:title="Class defining the common interface which classes can use to present a reflection&#45;style,...">
<polygon fill="none" stroke="black" points="0,-145.5 0,-164.5 106,-164.5 106,-145.5 0,-145.5"/>
<text text-anchor="middle" x="53" y="-152.5" font-family="Helvetica,sans-Serif" font-size="10.00">Ogre::StringInterface</text>
</a>
</g>
</g>
<!-- Node2&#45;&gt;Node1 -->
<g id="edge1" class="edge">
<title>Node2&#45;&gt;Node1</title>
<path fill="none" stroke="midnightblue" d="M116.33,-145.78C124.95,-144.51 133.62,-143.23 141.71,-142.03"/>
<polygon fill="midnightblue" stroke="midnightblue" points="115.65,-142.35 106.27,-147.27 116.67,-149.27 115.65,-142.35"/>
</g>
<!-- Node3 -->
<g id="node3" class="node">
<title>Node3</title>
<g id="a_node3"><a xlink:href="class_ogre_1_1_allocated_object.html" target="_top" xlink:title="Superclass for all objects that wish to use custom memory allocators when their new / delete operator...">
<polygon fill="none" stroke="black" points="13,-107.5 13,-126.5 93,-126.5 93,-107.5 13,-107.5"/>
<text text-anchor="middle" x="53" y="-114.5" font-family="Helvetica,sans-Serif" font-size="10.00">ResourceAlloc</text>
</a>
</g>
</g>
<!-- Node3&#45;&gt;Node1 -->
<g id="edge2" class="edge">
<title>Node3&#45;&gt;Node1</title>
<path fill="none" stroke="midnightblue" d="M103.23,-124.28C115.94,-126.16 129.48,-128.16 141.71,-129.97"/>
<polygon fill="midnightblue" stroke="midnightblue" points="103.66,-120.8 93.25,-122.8 102.63,-127.73 103.66,-120.8"/>
</g>
<!-- Node7 -->
<g id="node7" class="node">
<title>Node7</title>
<g id="a_node7"><a xlink:href="class_ogre_1_1_d3_d9_gpu_program.html" target="_top" xlink:title="Direct3D implementation of a few things common to low&#45;level vertex &amp; fragment programs.">
<polygon fill="none" stroke="black" points="407.5,-240.5 407.5,-259.5 528.5,-259.5 528.5,-240.5 407.5,-240.5"/>
<text text-anchor="middle" x="468" y="-247.5" font-family="Helvetica,sans-Serif" font-size="10.00">Ogre::D3D9GpuProgram</text>
</a>
</g>
</g>
<!-- Node6&#45;&gt;Node7 -->
<g id="edge6" class="edge">
<title>Node6&#45;&gt;Node7</title>
<path fill="none" stroke="midnightblue" d="M345.21,-187.41C349.55,-189.22 353.89,-191.11 358,-193 391.17,-208.26 428.66,-228.57 449.9,-240.37"/>
<polygon fill="midnightblue" stroke="midnightblue" points="346.43,-184.13 335.85,-183.59 343.78,-190.61 346.43,-184.13"/>
</g>
<!-- Node10 -->
<g id="node10" class="node">
<title>Node10</title>
<g id="a_node10"><a xlink:href="class_ogre_1_1_high_level_gpu_program.html" target="_top" xlink:title="Abstract base class representing a high&#45;level program (a vertex or fragment program).">
<polygon fill="none" stroke="black" points="397.5,-126.5 397.5,-145.5 538.5,-145.5 538.5,-126.5 397.5,-126.5"/>
<text text-anchor="middle" x="468" y="-133.5" font-family="Helvetica,sans-Serif" font-size="10.00">Ogre::HighLevelGpuProgram</text>
</a>
</g>
</g>
<!-- Node6&#45;&gt;Node10 -->
<g id="edge9" class="edge">
<title>Node6&#45;&gt;Node10</title>
<path fill="none" stroke="midnightblue" d="M359.79,-162.03C381.72,-156.71 407.18,-150.52 427.79,-145.52"/>
<polygon fill="midnightblue" stroke="midnightblue" points="358.88,-158.65 349.99,-164.41 360.54,-165.45 358.88,-158.65"/>
</g>
<!-- Node8 -->
<g id="node8" class="node">
<title>Node8</title>
<g id="a_node8"><a xlink:href="class_ogre_1_1_d3_d9_gpu_fragment_program.html" target="_top" xlink:title="Direct3D implementation of low&#45;level fragment programs.">
<polygon fill="none" stroke="black" points="578,-278.5 578,-297.5 740,-297.5 740,-278.5 578,-278.5"/>
<text text-anchor="middle" x="659" y="-285.5" font-family="Helvetica,sans-Serif" font-size="10.00">Ogre::D3D9GpuFragmentProgram</text>
</a>
</g>
</g>
<!-- Node7&#45;&gt;Node8 -->
<g id="edge7" class="edge">
<title>Node7&#45;&gt;Node8</title>
<path fill="none" stroke="midnightblue" d="M526.74,-261.61C553.62,-267.01 585.2,-273.36 610.65,-278.48"/>
<polygon fill="midnightblue" stroke="midnightblue" points="527.19,-258.13 516.69,-259.59 525.81,-264.99 527.19,-258.13"/>
</g>
<!-- Node9 -->
<g id="node9" class="node">
<title>Node9</title>
<g id="a_node9"><a xlink:href="class_ogre_1_1_d3_d9_gpu_vertex_program.html" target="_top" xlink:title="Direct3D implementation of low&#45;level vertex programs.">
<polygon fill="none" stroke="black" points="584.5,-240.5 584.5,-259.5 733.5,-259.5 733.5,-240.5 584.5,-240.5"/>
<text text-anchor="middle" x="659" y="-247.5" font-family="Helvetica,sans-Serif" font-size="10.00">Ogre::D3D9GpuVertexProgram</text>
</a>
</g>
</g>
<!-- Node7&#45;&gt;Node9 -->
<g id="edge8" class="edge">
<title>Node7&#45;&gt;Node9</title>
<path fill="none" stroke="midnightblue" d="M538.7,-250C553.62,-250 569.42,-250 584.47,-250"/>
<polygon fill="midnightblue" stroke="midnightblue" points="538.54,-246.5 528.54,-250 538.54,-253.5 538.54,-246.5"/>
</g>
<!-- Node11 -->
<g id="node11" class="node">
<title>Node11</title>
<g id="a_node11"><a xlink:href="class_ogre_1_1_d3_d11_h_l_s_l_program.html" target="_top" xlink:title="Specialization of HighLevelGpuProgram to provide support for D3D11 High&#45;Level Shader Language (HLSL).">
<polygon fill="none" stroke="black" points="592,-202.5 592,-221.5 726,-221.5 726,-202.5 592,-202.5"/>
<text text-anchor="middle" x="659" y="-209.5" font-family="Helvetica,sans-Serif" font-size="10.00">Ogre::D3D11HLSLProgram</text>
</a>
</g>
</g>
<!-- Node10&#45;&gt;Node11 -->
<g id="edge10" class="edge">
<title>Node10&#45;&gt;Node11</title>
<path fill="none" stroke="midnightblue" d="M493.11,-150.84C514.68,-163.57 547.5,-181.61 578,-193 587.9,-196.7 598.76,-199.84 609.19,-202.45"/>
<polygon fill="midnightblue" stroke="midnightblue" points="494.69,-147.71 484.32,-145.58 491.1,-153.72 494.69,-147.71"/>
</g>
<!-- Node12 -->
<g id="node12" class="node">
<title>Node12</title>
<g id="a_node12"><a xlink:href="class_ogre_1_1_d3_d9_h_l_s_l_program.html" target="_top" xlink:title="Specialisation of HighLevelGpuProgram to provide support for D3D9 High&#45;Level Shader Language (HLSL).">
<polygon fill="none" stroke="black" points="594.5,-164.5 594.5,-183.5 723.5,-183.5 723.5,-164.5 594.5,-164.5"/>
<text text-anchor="middle" x="659" y="-171.5" font-family="Helvetica,sans-Serif" font-size="10.00">Ogre::D3D9HLSLProgram</text>
</a>
</g>
</g>
<!-- Node10&#45;&gt;Node12 -->
<g id="edge11" class="edge">
<title>Node10&#45;&gt;Node12</title>
<path fill="none" stroke="midnightblue" d="M526.74,-147.61C553.62,-153.01 585.2,-159.36 610.65,-164.48"/>
<polygon fill="midnightblue" stroke="midnightblue" points="527.19,-144.13 516.69,-145.59 525.81,-150.99 527.19,-144.13"/>
</g>
<!-- Node13 -->
<g id="node13" class="node">
<title>Node13</title>
<g id="a_node13"><a xlink:href="class_ogre_1_1_g_l_s_l_shader.html" target="_top" xlink:title="Specialisation of HighLevelGpuProgram to encapsulate shader objects obtained from compiled shaders wr...">
<polygon fill="none" stroke="black" points="609.5,-126.5 609.5,-145.5 708.5,-145.5 708.5,-126.5 609.5,-126.5"/>
<text text-anchor="middle" x="659" y="-133.5" font-family="Helvetica,sans-Serif" font-size="10.00">Ogre::GLSLShader</text>
</a>
</g>
</g>
<!-- Node10&#45;&gt;Node13 -->
<g id="edge12" class="edge">
<title>Node10&#45;&gt;Node13</title>
<path fill="none" stroke="midnightblue" d="M548.59,-136C569.18,-136 590.75,-136 609.24,-136"/>
<polygon fill="midnightblue" stroke="midnightblue" points="548.57,-132.5 538.57,-136 548.57,-139.5 548.57,-132.5"/>
</g>
<!-- Node14 -->
<g id="node14" class="node">
<title>Node14</title>
<g id="a_node14"><a xlink:href="class_ogre_1_1_metal_program.html" target="_top" xlink:title="Specialisation of HighLevelGpuProgram to provide support for Metal Shader Language.">
<polygon fill="none" stroke="black" points="607.5,-88.5 607.5,-107.5 710.5,-107.5 710.5,-88.5 607.5,-88.5"/>
<text text-anchor="middle" x="659" y="-95.5" font-family="Helvetica,sans-Serif" font-size="10.00">Ogre::MetalProgram</text>
</a>
</g>
</g>
<!-- Node10&#45;&gt;Node14 -->
<g id="edge13" class="edge">
<title>Node10&#45;&gt;Node14</title>
<path fill="none" stroke="midnightblue" d="M526.74,-124.39C553.62,-118.99 585.2,-112.64 610.65,-107.52"/>
<polygon fill="midnightblue" stroke="midnightblue" points="525.81,-121.01 516.69,-126.41 527.19,-127.87 525.81,-121.01"/>
</g>
<!-- Node15 -->
<g id="node15" class="node">
<title>Node15</title>
<g id="a_node15"><a xlink:href="class_ogre_1_1_unified_high_level_gpu_program.html" target="_top" xlink:title="Specialisation of HighLevelGpuProgram which just delegates its implementation to one other high level...">
<polygon fill="none" stroke="black" points="592,-39 592,-69 726,-69 726,-39 592,-39"/>
<text text-anchor="start" x="600" y="-57" font-family="Helvetica,sans-Serif" font-size="10.00">Ogre::UnifiedHighLevelGpu</text>
<text text-anchor="middle" x="659" y="-46" font-family="Helvetica,sans-Serif" font-size="10.00">Program</text>
</a>
</g>
</g>
<!-- Node10&#45;&gt;Node15 -->
<g id="edge14" class="edge">
<title>Node10&#45;&gt;Node15</title>
<path fill="none" stroke="midnightblue" d="M494.06,-121.25C515.77,-108.88 548.26,-91.31 578,-79 586.61,-75.44 595.91,-72.1 605.02,-69.08"/>
<polygon fill="midnightblue" stroke="midnightblue" points="492.1,-118.34 485.18,-126.36 495.59,-124.41 492.1,-118.34"/>
</g>
<!-- Node16 -->
<g id="node16" class="node">
<title>Node16</title>
<g id="a_node16"><a xlink:href="class_ogre_1_1_vulkan_program.html" target="_top" xlink:title="Specialisation of HighLevelGpuProgram to provide support for Vulkan Shader Language.">
<polygon fill="none" stroke="black" points="604.5,-0.5 604.5,-19.5 713.5,-19.5 713.5,-0.5 604.5,-0.5"/>
<text text-anchor="middle" x="659" y="-7.5" font-family="Helvetica,sans-Serif" font-size="10.00">Ogre::VulkanProgram</text>
</a>
</g>
</g>
<!-- Node10&#45;&gt;Node16 -->
<g id="edge15" class="edge">
<title>Node10&#45;&gt;Node16</title>
<path fill="none" stroke="midnightblue" d="M492,-120.62C507.11,-109.92 526.81,-94.79 542,-79 560.98,-59.26 555.25,-44.23 578,-29 585.83,-23.76 594.94,-19.96 604.15,-17.2"/>
<polygon fill="midnightblue" stroke="midnightblue" points="489.93,-117.8 483.71,-126.38 493.92,-123.55 489.93,-117.8"/>
</g>
<!-- Node20 -->
<g id="node20" class="node">
<title>Node20</title>
<g id="a_node20"><a xlink:href="class_ogre_1_1v1_1_1_patch_mesh.html" target="_top" xlink:title="Patch specialisation of Mesh.">
<polygon fill="none" stroke="black" points="414.5,-50.5 414.5,-69.5 521.5,-69.5 521.5,-50.5 414.5,-50.5"/>
<text text-anchor="middle" x="468" y="-57.5" font-family="Helvetica,sans-Serif" font-size="10.00">Ogre::v1::PatchMesh</text>
</a>
</g>
</g>
<!-- Node19&#45;&gt;Node20 -->
<g id="edge19" class="edge">
<title>Node19&#45;&gt;Node20</title>
<path fill="none" stroke="midnightblue" d="M360.77,-60C377.93,-60 397.14,-60 414.47,-60"/>
<polygon fill="midnightblue" stroke="midnightblue" points="360.4,-56.5 350.4,-60 360.4,-63.5 360.4,-56.5"/>
</g>
<!-- Node22 -->
<g id="node22" class="node">
<title>Node22</title>
<g id="a_node22"><a xlink:href="class_ogre_1_1v1_1_1_old_skeleton_instance.html" target="_top" xlink:title="A OldSkeletonInstance is a single instance of a Skeleton used by a world object.">
<polygon fill="none" stroke="black" points="394,-12.5 394,-31.5 542,-31.5 542,-12.5 394,-12.5"/>
<text text-anchor="middle" x="468" y="-19.5" font-family="Helvetica,sans-Serif" font-size="10.00">Ogre::v1::OldSkeletonInstance</text>
</a>
</g>
</g>
<!-- Node21&#45;&gt;Node22 -->
<g id="edge21" class="edge">
<title>Node21&#45;&gt;Node22</title>
<path fill="none" stroke="midnightblue" d="M367.08,-22C375.81,-22 384.94,-22 393.97,-22"/>
<polygon fill="midnightblue" stroke="midnightblue" points="367.03,-18.5 357.03,-22 367.03,-25.5 367.03,-18.5"/>
</g>
</g>
</svg>
