<?xml version="1.0" encoding="UTF-8" standalone="no"?>
<!DOCTYPE svg PUBLIC "-//W3C//DTD SVG 1.1//EN"
 "http://www.w3.org/Graphics/SVG/1.1/DTD/svg11.dtd">
<!-- Generated by graphviz version 2.44.0 ()
 -->
<!-- Title: Ogre::FrameListener Pages: 1 -->
<svg width="329pt" height="192pt"
 viewBox="0.00 0.00 329.00 191.50" xmlns="http://www.w3.org/2000/svg" xmlns:xlink="http://www.w3.org/1999/xlink">
<g id="graph0" class="graph" transform="scale(1 1) rotate(0) translate(4 187.5)">
<title>Ogre::FrameListener</title>
<!-- Node1 -->
<g id="node1" class="node">
<title>Node1</title>
<g id="a_node1"><a xlink:title="A interface class defining a listener which can be used to receive notifications of frame events.">
<polygon fill="#bfbfbf" stroke="black" points="0,-76.5 0,-95.5 105,-95.5 105,-76.5 0,-76.5"/>
<text text-anchor="middle" x="52.5" y="-83.5" font-family="Helvetica,sans-Serif" font-size="10.00">Ogre::FrameListener</text>
</a>
</g>
</g>
<!-- Node2 -->
<g id="node2" class="node">
<title>Node2</title>
<g id="a_node2"><a xlink:href="class_ogre_1_1_frame_time_controller_value.html" target="_top" xlink:title="Predefined controller value for getting the latest frame time.">
<polygon fill="none" stroke="black" points="164.5,-153 164.5,-183 297.5,-183 297.5,-153 164.5,-153"/>
<text text-anchor="start" x="172.5" y="-171" font-family="Helvetica,sans-Serif" font-size="10.00">Ogre::FrameTimeController</text>
<text text-anchor="middle" x="231" y="-160" font-family="Helvetica,sans-Serif" font-size="10.00">Value</text>
</a>
</g>
</g>
<!-- Node1&#45;&gt;Node2 -->
<g id="edge1" class="edge">
<title>Node1&#45;&gt;Node2</title>
<path fill="none" stroke="midnightblue" d="M73.68,-101.7C90.78,-114.36 116.39,-131.84 141,-143 149.19,-146.71 158.05,-149.99 166.9,-152.86"/>
<polygon fill="midnightblue" stroke="midnightblue" points="75.65,-98.8 65.56,-95.57 71.43,-104.39 75.65,-98.8"/>
</g>
<!-- Node3 -->
<g id="node3" class="node">
<title>Node3</title>
<g id="a_node3"><a xlink:href="class_ogre_1_1_parallax_corrected_cubemap.html" target="_top" xlink:title=" ">
<polygon fill="none" stroke="black" points="151,-114.5 151,-133.5 311,-133.5 311,-114.5 151,-114.5"/>
<text text-anchor="middle" x="231" y="-121.5" font-family="Helvetica,sans-Serif" font-size="10.00">Ogre::ParallaxCorrectedCubemap</text>
</a>
</g>
</g>
<!-- Node1&#45;&gt;Node3 -->
<g id="edge2" class="edge">
<title>Node1&#45;&gt;Node3</title>
<path fill="none" stroke="midnightblue" d="M107.19,-97.69C118.36,-100.11 130.06,-102.65 141,-105 155.36,-108.09 171.04,-111.45 185.17,-114.46"/>
<polygon fill="midnightblue" stroke="midnightblue" points="107.63,-94.2 97.11,-95.5 106.14,-101.04 107.63,-94.2"/>
</g>
<!-- Node4 -->
<g id="node4" class="node">
<title>Node4</title>
<g id="a_node4"><a xlink:href="class_ogre_1_1_parallax_corrected_cubemap_auto.html" target="_top" xlink:title="Per&#45;Pixel reflection probes.">
<polygon fill="none" stroke="black" points="141,-76.5 141,-95.5 321,-95.5 321,-76.5 141,-76.5"/>
<text text-anchor="middle" x="231" y="-83.5" font-family="Helvetica,sans-Serif" font-size="10.00">Ogre::ParallaxCorrectedCubemapAuto</text>
</a>
</g>
</g>
<!-- Node1&#45;&gt;Node4 -->
<g id="edge3" class="edge">
<title>Node1&#45;&gt;Node4</title>
<path fill="none" stroke="midnightblue" d="M115.04,-86C123.42,-86 132.14,-86 140.88,-86"/>
<polygon fill="midnightblue" stroke="midnightblue" points="115.03,-82.5 105.03,-86 115.03,-89.5 115.03,-82.5"/>
</g>
<!-- Node5 -->
<g id="node5" class="node">
<title>Node5</title>
<g id="a_node5"><a xlink:href="class_ogre_1_1_terrain.html" target="_top" xlink:title="The main containing class for a chunk of terrain.">
<polygon fill="none" stroke="black" points="195,-38.5 195,-57.5 267,-57.5 267,-38.5 195,-38.5"/>
<text text-anchor="middle" x="231" y="-45.5" font-family="Helvetica,sans-Serif" font-size="10.00">Ogre::Terrain</text>
</a>
</g>
</g>
<!-- Node1&#45;&gt;Node5 -->
<g id="edge4" class="edge">
<title>Node1&#45;&gt;Node5</title>
<path fill="none" stroke="midnightblue" d="M107.19,-74.31C118.36,-71.89 130.06,-69.35 141,-67 158.76,-63.18 178.53,-58.95 194.91,-55.46"/>
<polygon fill="midnightblue" stroke="midnightblue" points="106.14,-70.96 97.11,-76.5 107.63,-77.8 106.14,-70.96"/>
</g>
<!-- Node6 -->
<g id="node6" class="node">
<title>Node6</title>
<g id="a_node6"><a xlink:href="class_ogre_1_1_volume_1_1_chunk.html" target="_top" xlink:title="A single volume chunk mesh.">
<polygon fill="none" stroke="black" points="177.5,-0.5 177.5,-19.5 284.5,-19.5 284.5,-0.5 177.5,-0.5"/>
<text text-anchor="middle" x="231" y="-7.5" font-family="Helvetica,sans-Serif" font-size="10.00">Ogre::Volume::Chunk</text>
</a>
</g>
</g>
<!-- Node1&#45;&gt;Node6 -->
<g id="edge5" class="edge">
<title>Node1&#45;&gt;Node6</title>
<path fill="none" stroke="midnightblue" d="M73.21,-70.11C90.21,-57.18 115.91,-39.43 141,-29 152.38,-24.27 165.09,-20.66 177.26,-17.92"/>
<polygon fill="midnightblue" stroke="midnightblue" points="70.91,-67.47 65.16,-76.37 75.2,-72.99 70.91,-67.47"/>
</g>
</g>
</svg>
