<?xml version="1.0" encoding="UTF-8" standalone="no"?>
<!DOCTYPE svg PUBLIC "-//W3C//DTD SVG 1.1//EN"
 "http://www.w3.org/Graphics/SVG/1.1/DTD/svg11.dtd">
<!-- Generated by graphviz version 2.40.1 (20161225.0304)
 -->
<!-- Title: Ogre::MetalTexBufferPacked Pages: 1 -->
<svg width="264pt" height="319pt"
 viewBox="0.00 0.00 263.50 319.00" xmlns="http://www.w3.org/2000/svg" xmlns:xlink="http://www.w3.org/1999/xlink">
<g id="graph0" class="graph" transform="scale(1 1) rotate(0) translate(4 315)">
<title>Ogre::MetalTexBufferPacked</title>
<!-- Node0 -->
<g id="node1" class="node">
<title>Node0</title>
<polygon fill="#bfbfbf" stroke="#000000" points="66,-67.5 66,-86.5 209,-86.5 209,-67.5 66,-67.5"/>
<text text-anchor="middle" x="137.5" y="-74.5" font-family="Helvetica,sans-Serif" font-size="10.00" fill="#000000">Ogre::MetalTexBufferPacked</text>
</g>
<!-- Node6 -->
<g id="node7" class="node">
<title>Node6</title>
<g id="a_node7"><a xlink:href="class_ogre_1_1_metal_read_only_buffer_packed.html" target="_top" xlink:title="Ogre::MetalReadOnlyBuffer\lPacked">
<polygon fill="none" stroke="#000000" points="69,-.5 69,-30.5 206,-30.5 206,-.5 69,-.5"/>
<text text-anchor="start" x="77" y="-18.5" font-family="Helvetica,sans-Serif" font-size="10.00" fill="#000000">Ogre::MetalReadOnlyBuffer</text>
<text text-anchor="middle" x="137.5" y="-7.5" font-family="Helvetica,sans-Serif" font-size="10.00" fill="#000000">Packed</text>
</a>
</g>
</g>
<!-- Node0&#45;&gt;Node6 -->
<g id="edge6" class="edge">
<title>Node0&#45;&gt;Node6</title>
<path fill="none" stroke="#191970" d="M137.5,-57.3693C137.5,-48.681 137.5,-38.6241 137.5,-30.5446"/>
<polygon fill="#191970" stroke="#191970" points="134.0001,-57.3906 137.5,-67.3906 141.0001,-57.3907 134.0001,-57.3906"/>
</g>
<!-- Node1 -->
<g id="node2" class="node">
<title>Node1</title>
<g id="a_node2"><a xlink:href="class_ogre_1_1_read_only_buffer_packed.html" target="_top" xlink:title="Represents the best way to access read&#45;only data. ">
<polygon fill="none" stroke="#000000" points="64.5,-123.5 64.5,-142.5 210.5,-142.5 210.5,-123.5 64.5,-123.5"/>
<text text-anchor="middle" x="137.5" y="-130.5" font-family="Helvetica,sans-Serif" font-size="10.00" fill="#000000">Ogre::ReadOnlyBufferPacked</text>
</a>
</g>
</g>
<!-- Node1&#45;&gt;Node0 -->
<g id="edge1" class="edge">
<title>Node1&#45;&gt;Node0</title>
<path fill="none" stroke="#191970" d="M137.5,-113.1575C137.5,-104.155 137.5,-93.9199 137.5,-86.6427"/>
<polygon fill="#191970" stroke="#191970" points="134.0001,-113.2455 137.5,-123.2455 141.0001,-113.2456 134.0001,-113.2455"/>
</g>
<!-- Node2 -->
<g id="node3" class="node">
<title>Node2</title>
<g id="a_node3"><a xlink:href="class_ogre_1_1_tex_buffer_packed.html" target="_top" xlink:title="Represents Texture buffers (also known as tbuffers in D3D11) ">
<polygon fill="none" stroke="#000000" points="78,-179.5 78,-198.5 197,-198.5 197,-179.5 78,-179.5"/>
<text text-anchor="middle" x="137.5" y="-186.5" font-family="Helvetica,sans-Serif" font-size="10.00" fill="#000000">Ogre::TexBufferPacked</text>
</a>
</g>
</g>
<!-- Node2&#45;&gt;Node1 -->
<g id="edge2" class="edge">
<title>Node2&#45;&gt;Node1</title>
<path fill="none" stroke="#191970" d="M137.5,-169.1575C137.5,-160.155 137.5,-149.9199 137.5,-142.6427"/>
<polygon fill="#191970" stroke="#191970" points="134.0001,-169.2455 137.5,-179.2455 141.0001,-169.2456 134.0001,-169.2455"/>
</g>
<!-- Node3 -->
<g id="node4" class="node">
<title>Node3</title>
<g id="a_node4"><a xlink:href="class_ogre_1_1_buffer_packed.html" target="_top" xlink:title="Ogre::BufferPacked">
<polygon fill="none" stroke="#000000" points="86,-235.5 86,-254.5 189,-254.5 189,-235.5 86,-235.5"/>
<text text-anchor="middle" x="137.5" y="-242.5" font-family="Helvetica,sans-Serif" font-size="10.00" fill="#000000">Ogre::BufferPacked</text>
</a>
</g>
</g>
<!-- Node3&#45;&gt;Node2 -->
<g id="edge3" class="edge">
<title>Node3&#45;&gt;Node2</title>
<path fill="none" stroke="#191970" d="M137.5,-225.1575C137.5,-216.155 137.5,-205.9199 137.5,-198.6427"/>
<polygon fill="#191970" stroke="#191970" points="134.0001,-225.2455 137.5,-235.2455 141.0001,-225.2456 134.0001,-225.2455"/>
</g>
<!-- Node4 -->
<g id="node5" class="node">
<title>Node4</title>
<g id="a_node5"><a xlink:href="struct_ogre_1_1_gpu_tracked_resource.html" target="_top" xlink:title="Ogre::GpuTrackedResource">
<polygon fill="none" stroke="#000000" points="0,-291.5 0,-310.5 139,-310.5 139,-291.5 0,-291.5"/>
<text text-anchor="middle" x="69.5" y="-298.5" font-family="Helvetica,sans-Serif" font-size="10.00" fill="#000000">Ogre::GpuTrackedResource</text>
</a>
</g>
</g>
<!-- Node4&#45;&gt;Node3 -->
<g id="edge4" class="edge">
<title>Node4&#45;&gt;Node3</title>
<path fill="none" stroke="#191970" d="M89.3596,-284.645C101.1858,-274.9058 115.7892,-262.8795 125.791,-254.6427"/>
<polygon fill="#191970" stroke="#191970" points="86.839,-282.1867 81.3447,-291.2455 91.289,-287.5902 86.839,-282.1867"/>
</g>
<!-- Node5 -->
<g id="node6" class="node">
<title>Node5</title>
<g id="a_node6"><a xlink:href="class_ogre_1_1_allocated_object.html" target="_top" xlink:title="Superclass for all objects that wish to use custom memory allocators when their new / delete operator...">
<polygon fill="none" stroke="#000000" points="157.5,-291.5 157.5,-310.5 255.5,-310.5 255.5,-291.5 157.5,-291.5"/>
<text text-anchor="middle" x="206.5" y="-298.5" font-family="Helvetica,sans-Serif" font-size="10.00" fill="#000000">BufferPackedAlloc</text>
</a>
</g>
</g>
<!-- Node5&#45;&gt;Node3 -->
<g id="edge5" class="edge">
<title>Node5&#45;&gt;Node3</title>
<path fill="none" stroke="#191970" d="M186.697,-284.928C174.6364,-275.1397 159.6286,-262.9595 149.3812,-254.6427"/>
<polygon fill="#191970" stroke="#191970" points="184.5109,-287.6614 194.4811,-291.2455 188.9221,-282.2262 184.5109,-287.6614"/>
</g>
</g>
</svg>
