<?xml version="1.0" encoding="UTF-8" standalone="no"?>
<!DOCTYPE svg PUBLIC "-//W3C//DTD SVG 1.1//EN"
 "http://www.w3.org/Graphics/SVG/1.1/DTD/svg11.dtd">
<!-- Generated by graphviz version 2.40.1 (20161225.0304)
 -->
<!-- Title: Ogre::ImageCodec2 Pages: 1 -->
<svg width="483pt" height="256pt"
 viewBox="0.00 0.00 483.00 256.00" xmlns="http://www.w3.org/2000/svg" xmlns:xlink="http://www.w3.org/1999/xlink">
<g id="graph0" class="graph" transform="scale(1 1) rotate(0) translate(4 252)">
<title>Ogre::ImageCodec2</title>
<!-- Node0 -->
<g id="node1" class="node">
<title>Node0</title>
<polygon fill="#bfbfbf" stroke="#000000" points="211,-114.5 211,-133.5 315,-133.5 315,-114.5 211,-114.5"/>
<text text-anchor="middle" x="263" y="-121.5" font-family="Helvetica,sans-Serif" font-size="10.00" fill="#000000">Ogre::ImageCodec2</text>
</g>
<!-- Node3 -->
<g id="node4" class="node">
<title>Node3</title>
<g id="a_node4"><a xlink:href="class_ogre_1_1_a_s_t_c_codec.html" target="_top" xlink:title="Codec specialized in loading ASTC (ARM Adaptive Scalable Texture Compression) images. ">
<polygon fill="none" stroke="#000000" points="363.5,-228.5 363.5,-247.5 462.5,-247.5 462.5,-228.5 363.5,-228.5"/>
<text text-anchor="middle" x="413" y="-235.5" font-family="Helvetica,sans-Serif" font-size="10.00" fill="#000000">Ogre::ASTCCodec</text>
</a>
</g>
</g>
<!-- Node0&#45;&gt;Node3 -->
<g id="edge3" class="edge">
<title>Node0&#45;&gt;Node3</title>
<path fill="none" stroke="#191970" d="M275.1982,-142.133C290.4898,-163.5128 318.6549,-198.6988 351,-219 357.1027,-222.8303 364.029,-225.9329 370.9857,-228.4324"/>
<polygon fill="#191970" stroke="#191970" points="277.8711,-139.8466 269.2835,-133.6415 272.1271,-143.8476 277.8711,-139.8466"/>
</g>
<!-- Node4 -->
<g id="node5" class="node">
<title>Node4</title>
<g id="a_node5"><a xlink:href="class_ogre_1_1_d_d_s_codec2.html" target="_top" xlink:title="Codec specialized in loading DDS (Direct Draw Surface) images. ">
<polygon fill="none" stroke="#000000" points="363.5,-190.5 363.5,-209.5 462.5,-209.5 462.5,-190.5 363.5,-190.5"/>
<text text-anchor="middle" x="413" y="-197.5" font-family="Helvetica,sans-Serif" font-size="10.00" fill="#000000">Ogre::DDSCodec2</text>
</a>
</g>
</g>
<!-- Node0&#45;&gt;Node4 -->
<g id="edge4" class="edge">
<title>Node0&#45;&gt;Node4</title>
<path fill="none" stroke="#191970" d="M283.6732,-139.7554C300.925,-152.3079 326.5527,-169.6078 351,-181 358.8574,-184.6615 367.5972,-187.8393 375.9777,-190.4931"/>
<polygon fill="#191970" stroke="#191970" points="285.5858,-136.8166 275.4658,-133.6804 281.4213,-142.443 285.5858,-136.8166"/>
</g>
<!-- Node5 -->
<g id="node6" class="node">
<title>Node5</title>
<g id="a_node6"><a xlink:href="class_ogre_1_1_e_t_c_codec.html" target="_top" xlink:title="Codec specialized in loading ETC (Ericsson Texture Compression) images. ">
<polygon fill="none" stroke="#000000" points="367,-152.5 367,-171.5 459,-171.5 459,-152.5 367,-152.5"/>
<text text-anchor="middle" x="413" y="-159.5" font-family="Helvetica,sans-Serif" font-size="10.00" fill="#000000">Ogre::ETCCodec</text>
</a>
</g>
</g>
<!-- Node0&#45;&gt;Node5 -->
<g id="edge5" class="edge">
<title>Node0&#45;&gt;Node5</title>
<path fill="none" stroke="#191970" d="M310.811,-136.1121C331.7016,-141.4044 355.8472,-147.5213 375.4209,-152.4799"/>
<polygon fill="#191970" stroke="#191970" points="311.4047,-132.652 300.8513,-133.589 309.6856,-139.4377 311.4047,-132.652"/>
</g>
<!-- Node6 -->
<g id="node7" class="node">
<title>Node6</title>
<g id="a_node7"><a xlink:href="class_ogre_1_1_free_image_codec2.html" target="_top" xlink:title="Codec specialized in images loaded using FreeImage. ">
<polygon fill="none" stroke="#000000" points="351,-114.5 351,-133.5 475,-133.5 475,-114.5 351,-114.5"/>
<text text-anchor="middle" x="413" y="-121.5" font-family="Helvetica,sans-Serif" font-size="10.00" fill="#000000">Ogre::FreeImageCodec2</text>
</a>
</g>
</g>
<!-- Node0&#45;&gt;Node6 -->
<g id="edge6" class="edge">
<title>Node0&#45;&gt;Node6</title>
<path fill="none" stroke="#191970" d="M325.2671,-124C333.7664,-124 342.4904,-124 350.9852,-124"/>
<polygon fill="#191970" stroke="#191970" points="325.0418,-120.5001 315.0418,-124 325.0417,-127.5001 325.0418,-120.5001"/>
</g>
<!-- Node7 -->
<g id="node8" class="node">
<title>Node7</title>
<g id="a_node8"><a xlink:href="class_ogre_1_1_o_i_t_d_codec.html" target="_top" xlink:title="Codec specialized in loading OITD (Ogre Internal Texture Dump) format. ">
<polygon fill="none" stroke="#000000" points="365,-76.5 365,-95.5 461,-95.5 461,-76.5 365,-76.5"/>
<text text-anchor="middle" x="413" y="-83.5" font-family="Helvetica,sans-Serif" font-size="10.00" fill="#000000">Ogre::OITDCodec</text>
</a>
</g>
</g>
<!-- Node0&#45;&gt;Node7 -->
<g id="edge7" class="edge">
<title>Node0&#45;&gt;Node7</title>
<path fill="none" stroke="#191970" d="M310.811,-111.8879C331.7016,-106.5956 355.8472,-100.4787 375.4209,-95.5201"/>
<polygon fill="#191970" stroke="#191970" points="309.6856,-108.5623 300.8513,-114.411 311.4047,-115.348 309.6856,-108.5623"/>
</g>
<!-- Node8 -->
<g id="node9" class="node">
<title>Node8</title>
<g id="a_node9"><a xlink:href="class_ogre_1_1_p_v_r_t_c_codec.html" target="_top" xlink:title="Codec specialized in loading PVRTC (PowerVR) images. ">
<polygon fill="none" stroke="#000000" points="359.5,-38.5 359.5,-57.5 466.5,-57.5 466.5,-38.5 359.5,-38.5"/>
<text text-anchor="middle" x="413" y="-45.5" font-family="Helvetica,sans-Serif" font-size="10.00" fill="#000000">Ogre::PVRTCCodec</text>
</a>
</g>
</g>
<!-- Node0&#45;&gt;Node8 -->
<g id="edge8" class="edge">
<title>Node0&#45;&gt;Node8</title>
<path fill="none" stroke="#191970" d="M283.6732,-108.2446C300.925,-95.6921 326.5527,-78.3922 351,-67 358.8574,-63.3385 367.5972,-60.1607 375.9777,-57.5069"/>
<polygon fill="#191970" stroke="#191970" points="281.4213,-105.557 275.4658,-114.3196 285.5858,-111.1834 281.4213,-105.557"/>
</g>
<!-- Node9 -->
<g id="node10" class="node">
<title>Node9</title>
<g id="a_node10"><a xlink:href="class_ogre_1_1_s_t_b_i_image_codec.html" target="_top" xlink:title="Codec specialized in images loaded using stbi (https://github.com/nothings/stb). ">
<polygon fill="none" stroke="#000000" points="352,-.5 352,-19.5 474,-19.5 474,-.5 352,-.5"/>
<text text-anchor="middle" x="413" y="-7.5" font-family="Helvetica,sans-Serif" font-size="10.00" fill="#000000">Ogre::STBIImageCodec</text>
</a>
</g>
</g>
<!-- Node0&#45;&gt;Node9 -->
<g id="edge9" class="edge">
<title>Node0&#45;&gt;Node9</title>
<path fill="none" stroke="#191970" d="M275.1982,-105.867C290.4898,-84.4872 318.6549,-49.3012 351,-29 357.1027,-25.1697 364.029,-22.0671 370.9857,-19.5676"/>
<polygon fill="#191970" stroke="#191970" points="272.1271,-104.1524 269.2835,-114.3585 277.8711,-108.1534 272.1271,-104.1524"/>
</g>
<!-- Node1 -->
<g id="node2" class="node">
<title>Node1</title>
<g id="a_node2"><a xlink:href="class_ogre_1_1_codec.html" target="_top" xlink:title="Abstract class that defines a &#39;codec&#39;. ">
<polygon fill="none" stroke="#000000" points="103,-114.5 103,-133.5 175,-133.5 175,-114.5 103,-114.5"/>
<text text-anchor="middle" x="139" y="-121.5" font-family="Helvetica,sans-Serif" font-size="10.00" fill="#000000">Ogre::Codec</text>
</a>
</g>
</g>
<!-- Node1&#45;&gt;Node0 -->
<g id="edge1" class="edge">
<title>Node1&#45;&gt;Node0</title>
<path fill="none" stroke="#191970" d="M185.4409,-124C193.7324,-124 202.4208,-124 210.8592,-124"/>
<polygon fill="#191970" stroke="#191970" points="185.1993,-120.5001 175.1993,-124 185.1992,-127.5001 185.1993,-120.5001"/>
</g>
<!-- Node2 -->
<g id="node3" class="node">
<title>Node2</title>
<g id="a_node3"><a xlink:href="class_ogre_1_1_allocated_object.html" target="_top" xlink:title="Superclass for all objects that wish to use custom memory allocators when their new / delete operator...">
<polygon fill="none" stroke="#000000" points="0,-114.5 0,-133.5 67,-133.5 67,-114.5 0,-114.5"/>
<text text-anchor="middle" x="33.5" y="-121.5" font-family="Helvetica,sans-Serif" font-size="10.00" fill="#000000">CodecAlloc</text>
</a>
</g>
</g>
<!-- Node2&#45;&gt;Node1 -->
<g id="edge2" class="edge">
<title>Node2&#45;&gt;Node1</title>
<path fill="none" stroke="#191970" d="M77.2819,-124C85.7502,-124 94.5362,-124 102.7321,-124"/>
<polygon fill="#191970" stroke="#191970" points="77.171,-120.5001 67.1709,-124 77.1709,-127.5001 77.171,-120.5001"/>
</g>
</g>
</svg>
