<?xml version="1.0" encoding="UTF-8" standalone="no"?>
<!DOCTYPE svg PUBLIC "-//W3C//DTD SVG 1.1//EN"
 "http://www.w3.org/Graphics/SVG/1.1/DTD/svg11.dtd">
<!-- Generated by graphviz version 2.44.0 ()
 -->
<!-- Title: Graphical Class Hierarchy Pages: 1 -->
<svg width="345pt" height="431pt"
 viewBox="0.00 0.00 345.00 431.00" xmlns="http://www.w3.org/2000/svg" xmlns:xlink="http://www.w3.org/1999/xlink">
<g id="graph0" class="graph" transform="scale(1 1) rotate(0) translate(4 427)">
<title>Graphical Class Hierarchy</title>
<!-- Node0 -->
<g id="node1" class="node">
<title>Node0</title>
<g id="a_node1"><a xlink:href="class_ogre_1_1_script_compiler_event.html" target="_top" xlink:title="This struct is a base class for events which can be thrown by the compilers and caught by subscribers...">
<polygon fill="none" stroke="black" points="0,-202 0,-221 131,-221 131,-202 0,-202"/>
<text text-anchor="middle" x="65.5" y="-209" font-family="Helvetica,sans-Serif" font-size="10.00">Ogre::ScriptCompilerEvent</text>
</a>
</g>
</g>
<!-- Node1 -->
<g id="node2" class="node">
<title>Node1</title>
<g id="a_node2"><a xlink:href="class_ogre_1_1_create_compositor_script_compiler_event.html" target="_top" xlink:title=" ">
<polygon fill="none" stroke="black" points="179,-392.5 179,-422.5 325,-422.5 325,-392.5 179,-392.5"/>
<text text-anchor="start" x="187" y="-410.5" font-family="Helvetica,sans-Serif" font-size="10.00">Ogre::CreateCompositorScript</text>
<text text-anchor="middle" x="252" y="-399.5" font-family="Helvetica,sans-Serif" font-size="10.00">CompilerEvent</text>
</a>
</g>
</g>
<!-- Node0&#45;&gt;Node1 -->
<g id="edge1" class="edge">
<title>Node0&#45;&gt;Node1</title>
<path fill="none" stroke="midnightblue" d="M72.35,-230.67C84.2,-266.29 114.51,-342.75 167,-383.5 171.43,-386.94 176.34,-389.89 181.49,-392.41"/>
<polygon fill="midnightblue" stroke="midnightblue" points="75.64,-229.47 69.25,-221.01 68.97,-231.6 75.64,-229.47"/>
</g>
<!-- Node2 -->
<g id="node3" class="node">
<title>Node2</title>
<g id="a_node3"><a xlink:href="class_ogre_1_1_create_gpu_program_script_compiler_event.html" target="_top" xlink:title=" ">
<polygon fill="none" stroke="black" points="176.5,-343.5 176.5,-373.5 327.5,-373.5 327.5,-343.5 176.5,-343.5"/>
<text text-anchor="start" x="184.5" y="-361.5" font-family="Helvetica,sans-Serif" font-size="10.00">Ogre::CreateGpuProgramScript</text>
<text text-anchor="middle" x="252" y="-350.5" font-family="Helvetica,sans-Serif" font-size="10.00">CompilerEvent</text>
</a>
</g>
</g>
<!-- Node0&#45;&gt;Node2 -->
<g id="edge2" class="edge">
<title>Node0&#45;&gt;Node2</title>
<path fill="none" stroke="midnightblue" d="M76.64,-230.01C92.4,-257.05 125.35,-307.09 167,-334.5 172.19,-337.92 177.88,-340.86 183.77,-343.38"/>
<polygon fill="midnightblue" stroke="midnightblue" points="79.61,-228.15 71.63,-221.18 73.52,-231.6 79.61,-228.15"/>
</g>
<!-- Node3 -->
<g id="node4" class="node">
<title>Node3</title>
<g id="a_node4"><a xlink:href="class_ogre_1_1_create_gpu_shared_parameters_script_compiler_event.html" target="_top" xlink:title=" ">
<polygon fill="none" stroke="black" points="167,-294.5 167,-324.5 337,-324.5 337,-294.5 167,-294.5"/>
<text text-anchor="start" x="175" y="-312.5" font-family="Helvetica,sans-Serif" font-size="10.00">Ogre::CreateGpuSharedParameters</text>
<text text-anchor="middle" x="252" y="-301.5" font-family="Helvetica,sans-Serif" font-size="10.00">ScriptCompilerEvent</text>
</a>
</g>
</g>
<!-- Node0&#45;&gt;Node3 -->
<g id="edge3" class="edge">
<title>Node0&#45;&gt;Node3</title>
<path fill="none" stroke="midnightblue" d="M84.45,-227.84C103.61,-244.5 135.49,-270.02 167,-285.5 173.81,-288.84 181.16,-291.8 188.58,-294.38"/>
<polygon fill="midnightblue" stroke="midnightblue" points="86.63,-225.09 76.82,-221.09 81.99,-230.34 86.63,-225.09"/>
</g>
<!-- Node4 -->
<g id="node5" class="node">
<title>Node4</title>
<g id="a_node5"><a xlink:href="class_ogre_1_1_create_high_level_gpu_program_script_compiler_event.html" target="_top" xlink:title=" ">
<polygon fill="none" stroke="black" points="181,-245.5 181,-275.5 323,-275.5 323,-245.5 181,-245.5"/>
<text text-anchor="start" x="189" y="-263.5" font-family="Helvetica,sans-Serif" font-size="10.00">Ogre::CreateHighLevelGpu</text>
<text text-anchor="middle" x="252" y="-252.5" font-family="Helvetica,sans-Serif" font-size="10.00">ProgramScriptCompilerEvent</text>
</a>
</g>
</g>
<!-- Node0&#45;&gt;Node4 -->
<g id="edge4" class="edge">
<title>Node0&#45;&gt;Node4</title>
<path fill="none" stroke="midnightblue" d="M112.4,-223.69C137.22,-230.28 168.08,-238.48 194.38,-245.46"/>
<polygon fill="midnightblue" stroke="midnightblue" points="113.07,-220.25 102.51,-221.06 111.28,-227.01 113.07,-220.25"/>
</g>
<!-- Node5 -->
<g id="node6" class="node">
<title>Node5</title>
<g id="a_node6"><a xlink:href="class_ogre_1_1_create_material_script_compiler_event.html" target="_top" xlink:title=" ">
<polygon fill="none" stroke="black" points="186.5,-196.5 186.5,-226.5 317.5,-226.5 317.5,-196.5 186.5,-196.5"/>
<text text-anchor="start" x="194.5" y="-214.5" font-family="Helvetica,sans-Serif" font-size="10.00">Ogre::CreateMaterialScript</text>
<text text-anchor="middle" x="252" y="-203.5" font-family="Helvetica,sans-Serif" font-size="10.00">CompilerEvent</text>
</a>
</g>
</g>
<!-- Node0&#45;&gt;Node5 -->
<g id="edge5" class="edge">
<title>Node0&#45;&gt;Node5</title>
<path fill="none" stroke="midnightblue" d="M141.22,-211.5C156.13,-211.5 171.66,-211.5 186.2,-211.5"/>
<polygon fill="midnightblue" stroke="midnightblue" points="141.03,-208 131.03,-211.5 141.03,-215 141.03,-208"/>
</g>
<!-- Node6 -->
<g id="node7" class="node">
<title>Node6</title>
<g id="a_node7"><a xlink:href="class_ogre_1_1_create_particle_system_script_compiler_event.html" target="_top" xlink:title=" ">
<polygon fill="none" stroke="black" points="183.5,-147.5 183.5,-177.5 320.5,-177.5 320.5,-147.5 183.5,-147.5"/>
<text text-anchor="start" x="191.5" y="-165.5" font-family="Helvetica,sans-Serif" font-size="10.00">Ogre::CreateParticleSystem</text>
<text text-anchor="middle" x="252" y="-154.5" font-family="Helvetica,sans-Serif" font-size="10.00">ScriptCompilerEvent</text>
</a>
</g>
</g>
<!-- Node0&#45;&gt;Node6 -->
<g id="edge6" class="edge">
<title>Node0&#45;&gt;Node6</title>
<path fill="none" stroke="midnightblue" d="M112.4,-199.31C137.22,-192.72 168.08,-184.52 194.38,-177.54"/>
<polygon fill="midnightblue" stroke="midnightblue" points="111.28,-195.99 102.51,-201.94 113.07,-202.75 111.28,-195.99"/>
</g>
<!-- Node7 -->
<g id="node8" class="node">
<title>Node7</title>
<g id="a_node8"><a xlink:href="class_ogre_1_1_pre_apply_texture_aliases_script_compiler_event.html" target="_top" xlink:title=" ">
<polygon fill="none" stroke="black" points="179,-98.5 179,-128.5 325,-128.5 325,-98.5 179,-98.5"/>
<text text-anchor="start" x="187" y="-116.5" font-family="Helvetica,sans-Serif" font-size="10.00">Ogre::PreApplyTextureAliases</text>
<text text-anchor="middle" x="252" y="-105.5" font-family="Helvetica,sans-Serif" font-size="10.00">ScriptCompilerEvent</text>
</a>
</g>
</g>
<!-- Node0&#45;&gt;Node7 -->
<g id="edge7" class="edge">
<title>Node0&#45;&gt;Node7</title>
<path fill="none" stroke="midnightblue" d="M84.83,-195.2C104.09,-178.83 135.84,-153.89 167,-138.5 174.64,-134.73 182.96,-131.41 191.29,-128.53"/>
<polygon fill="midnightblue" stroke="midnightblue" points="82.42,-192.66 77.15,-201.85 87,-197.95 82.42,-192.66"/>
</g>
<!-- Node8 -->
<g id="node9" class="node">
<title>Node8</title>
<g id="a_node9"><a xlink:href="class_ogre_1_1_process_name_exclusion_script_compiler_event.html" target="_top" xlink:title=" ">
<polygon fill="none" stroke="black" points="179,-49.5 179,-79.5 325,-79.5 325,-49.5 179,-49.5"/>
<text text-anchor="start" x="187" y="-67.5" font-family="Helvetica,sans-Serif" font-size="10.00">Ogre::ProcessNameExclusion</text>
<text text-anchor="middle" x="252" y="-56.5" font-family="Helvetica,sans-Serif" font-size="10.00">ScriptCompilerEvent</text>
</a>
</g>
</g>
<!-- Node0&#45;&gt;Node8 -->
<g id="edge8" class="edge">
<title>Node0&#45;&gt;Node8</title>
<path fill="none" stroke="midnightblue" d="M76.72,-193.2C92.58,-166.46 125.65,-116.92 167,-89.5 172.83,-85.63 179.28,-82.35 185.94,-79.56"/>
<polygon fill="midnightblue" stroke="midnightblue" points="73.64,-191.53 71.67,-201.94 79.7,-195.03 73.64,-191.53"/>
</g>
<!-- Node9 -->
<g id="node10" class="node">
<title>Node9</title>
<g id="a_node10"><a xlink:href="class_ogre_1_1_process_resource_name_script_compiler_event.html" target="_top" xlink:title=" ">
<polygon fill="none" stroke="black" points="179,-0.5 179,-30.5 325,-30.5 325,-0.5 179,-0.5"/>
<text text-anchor="start" x="187" y="-18.5" font-family="Helvetica,sans-Serif" font-size="10.00">Ogre::ProcessResourceName</text>
<text text-anchor="middle" x="252" y="-7.5" font-family="Helvetica,sans-Serif" font-size="10.00">ScriptCompilerEvent</text>
</a>
</g>
</g>
<!-- Node0&#45;&gt;Node9 -->
<g id="edge9" class="edge">
<title>Node0&#45;&gt;Node9</title>
<path fill="none" stroke="midnightblue" d="M72.59,-191.99C84.69,-156.45 115.16,-81.1 167,-40.5 171.91,-36.65 177.4,-33.4 183.17,-30.64"/>
<polygon fill="midnightblue" stroke="midnightblue" points="69.21,-191.07 69.42,-201.66 75.86,-193.25 69.21,-191.07"/>
</g>
</g>
</svg>
