<?xml version="1.0" encoding="UTF-8" standalone="no"?>
<!DOCTYPE svg PUBLIC "-//W3C//DTD SVG 1.1//EN"
 "http://www.w3.org/Graphics/SVG/1.1/DTD/svg11.dtd">
<!-- Generated by graphviz version 2.40.1 (20161225.0304)
 -->
<!-- Title: Graphical Class Hierarchy Pages: 1 -->
<svg width="291pt" height="104pt"
 viewBox="0.00 0.00 291.00 104.00" xmlns="http://www.w3.org/2000/svg" xmlns:xlink="http://www.w3.org/1999/xlink">
<g id="graph0" class="graph" transform="scale(1 1) rotate(0) translate(4 100)">
<title>Graphical Class Hierarchy</title>
<!-- Node0 -->
<g id="node1" class="node">
<title>Node0</title>
<g id="a_node1"><a xlink:href="class_ogre_1_1_vulkan_support.html" target="_top" xlink:title="Ogre::VulkanSupport">
<polygon fill="none" stroke="#000000" points="0,-38.5 0,-57.5 107,-57.5 107,-38.5 0,-38.5"/>
<text text-anchor="middle" x="53.5" y="-45.5" font-family="Helvetica,sans-Serif" font-size="10.00" fill="#000000">Ogre::VulkanSupport</text>
</a>
</g>
</g>
<!-- Node1 -->
<g id="node2" class="node">
<title>Node1</title>
<g id="a_node2"><a xlink:href="class_ogre_1_1_vulkan_android_support.html" target="_top" xlink:title="Ogre::VulkanAndroidSupport">
<polygon fill="none" stroke="#000000" points="143,-76.5 143,-95.5 283,-95.5 283,-76.5 143,-76.5"/>
<text text-anchor="middle" x="213" y="-83.5" font-family="Helvetica,sans-Serif" font-size="10.00" fill="#000000">Ogre::VulkanAndroidSupport</text>
</a>
</g>
</g>
<!-- Node0&#45;&gt;Node1 -->
<g id="edge1" class="edge">
<title>Node0&#45;&gt;Node1</title>
<path fill="none" stroke="#191970" d="M103.734,-59.968C126.0855,-65.2931 152.0383,-71.4762 173.0408,-76.4799"/>
<polygon fill="#191970" stroke="#191970" points="104.2875,-56.502 93.7486,-57.589 102.6651,-63.3114 104.2875,-56.502"/>
</g>
<!-- Node2 -->
<g id="node3" class="node">
<title>Node2</title>
<g id="a_node3"><a xlink:href="class_ogre_1_1_vulkan_win32_support.html" target="_top" xlink:title="Ogre::VulkanWin32Support">
<polygon fill="none" stroke="#000000" points="145.5,-38.5 145.5,-57.5 280.5,-57.5 280.5,-38.5 145.5,-38.5"/>
<text text-anchor="middle" x="213" y="-45.5" font-family="Helvetica,sans-Serif" font-size="10.00" fill="#000000">Ogre::VulkanWin32Support</text>
</a>
</g>
</g>
<!-- Node0&#45;&gt;Node2 -->
<g id="edge2" class="edge">
<title>Node0&#45;&gt;Node2</title>
<path fill="none" stroke="#191970" d="M117.3335,-48C126.574,-48 136.1117,-48 145.4227,-48"/>
<polygon fill="#191970" stroke="#191970" points="117.0549,-44.5001 107.0549,-48 117.0549,-51.5001 117.0549,-44.5001"/>
</g>
<!-- Node3 -->
<g id="node4" class="node">
<title>Node3</title>
<g id="a_node4"><a xlink:href="class_ogre_1_1_vulkan_xcb_support.html" target="_top" xlink:title="Ogre::VulkanXcbSupport">
<polygon fill="none" stroke="#000000" points="150.5,-.5 150.5,-19.5 275.5,-19.5 275.5,-.5 150.5,-.5"/>
<text text-anchor="middle" x="213" y="-7.5" font-family="Helvetica,sans-Serif" font-size="10.00" fill="#000000">Ogre::VulkanXcbSupport</text>
</a>
</g>
</g>
<!-- Node0&#45;&gt;Node3 -->
<g id="edge3" class="edge">
<title>Node0&#45;&gt;Node3</title>
<path fill="none" stroke="#191970" d="M103.734,-36.032C126.0855,-30.7069 152.0383,-24.5238 173.0408,-19.5201"/>
<polygon fill="#191970" stroke="#191970" points="102.6651,-32.6886 93.7486,-38.411 104.2875,-39.498 102.6651,-32.6886"/>
</g>
</g>
</svg>
