<?xml version="1.0" encoding="UTF-8" standalone="no"?>
<!DOCTYPE svg PUBLIC "-//W3C//DTD SVG 1.1//EN"
 "http://www.w3.org/Graphics/SVG/1.1/DTD/svg11.dtd">
<!-- Generated by graphviz version 2.44.0 ()
 -->
<!-- Title: Graphical Class Hierarchy Pages: 1 -->
<svg width="346pt" height="294pt"
 viewBox="0.00 0.00 346.00 294.00" xmlns="http://www.w3.org/2000/svg" xmlns:xlink="http://www.w3.org/1999/xlink">
<g id="graph0" class="graph" transform="scale(1 1) rotate(0) translate(4 290)">
<title>Graphical Class Hierarchy</title>
<!-- Node0 -->
<g id="node1" class="node">
<title>Node0</title>
<g id="a_node1"><a xlink:href="class_ogre_1_1_g_l3_plus_support.html" target="_top" xlink:title=" ">
<polygon fill="none" stroke="black" points="26.5,-133.5 26.5,-152.5 140.5,-152.5 140.5,-133.5 26.5,-133.5"/>
<text text-anchor="middle" x="83.5" y="-140.5" font-family="Helvetica,sans-Serif" font-size="10.00">Ogre::GL3PlusSupport</text>
</a>
</g>
</g>
<!-- Node1 -->
<g id="node2" class="node">
<title>Node1</title>
<g id="a_node2"><a xlink:href="class_ogre_1_1_e_g_l_g_l_support.html" target="_top" xlink:title=" ">
<polygon fill="none" stroke="black" points="216,-228.5 216,-247.5 325,-247.5 325,-228.5 216,-228.5"/>
<text text-anchor="middle" x="270.5" y="-235.5" font-family="Helvetica,sans-Serif" font-size="10.00">Ogre::EGLGLSupport</text>
</a>
</g>
</g>
<!-- Node0&#45;&gt;Node1 -->
<g id="edge1" class="edge">
<title>Node0&#45;&gt;Node1</title>
<path fill="none" stroke="midnightblue" d="M105.18,-158.94C128.02,-175.88 166.43,-202.48 203,-219 211.21,-222.71 220.31,-225.87 229.09,-228.5"/>
<polygon fill="midnightblue" stroke="midnightblue" points="107.04,-155.96 96.94,-152.74 102.83,-161.55 107.04,-155.96"/>
</g>
<!-- Node2 -->
<g id="node3" class="node">
<title>Node2</title>
<g id="a_node3"><a xlink:href="class_ogre_1_1_egl_p_buffer_support.html" target="_top" xlink:title=" ">
<polygon fill="none" stroke="black" points="209.5,-190.5 209.5,-209.5 331.5,-209.5 331.5,-190.5 209.5,-190.5"/>
<text text-anchor="middle" x="270.5" y="-197.5" font-family="Helvetica,sans-Serif" font-size="10.00">Ogre::EglPBufferSupport</text>
</a>
</g>
</g>
<!-- Node0&#45;&gt;Node2 -->
<g id="edge2" class="edge">
<title>Node0&#45;&gt;Node2</title>
<path fill="none" stroke="midnightblue" d="M123.41,-155.82C146.48,-163.34 176.34,-172.92 203,-181 213.46,-184.17 224.88,-187.49 235.27,-190.45"/>
<polygon fill="midnightblue" stroke="midnightblue" points="124.23,-152.41 113.64,-152.63 122.06,-159.06 124.23,-152.41"/>
</g>
<!-- Node3 -->
<g id="node4" class="node">
<title>Node3</title>
<g id="a_node4"><a xlink:href="class_ogre_1_1_g_l_x_g_l_support.html" target="_top" xlink:title=" ">
<polygon fill="none" stroke="black" points="215.5,-152.5 215.5,-171.5 325.5,-171.5 325.5,-152.5 215.5,-152.5"/>
<text text-anchor="middle" x="270.5" y="-159.5" font-family="Helvetica,sans-Serif" font-size="10.00">Ogre::GLXGLSupport</text>
</a>
</g>
</g>
<!-- Node0&#45;&gt;Node3 -->
<g id="edge3" class="edge">
<title>Node0&#45;&gt;Node3</title>
<path fill="none" stroke="midnightblue" d="M150.72,-149.8C171.89,-151.97 195.06,-154.35 215.27,-156.43"/>
<polygon fill="midnightblue" stroke="midnightblue" points="150.81,-146.29 140.51,-148.75 150.1,-153.26 150.81,-146.29"/>
</g>
<!-- Node4 -->
<g id="node5" class="node">
<title>Node4</title>
<g id="a_node5"><a xlink:href="class_ogre_1_1_g_t_k_g_l_support.html" target="_top" xlink:title="GL support in a GTK window.">
<polygon fill="none" stroke="black" points="215.5,-266.5 215.5,-285.5 325.5,-285.5 325.5,-266.5 215.5,-266.5"/>
<text text-anchor="middle" x="270.5" y="-273.5" font-family="Helvetica,sans-Serif" font-size="10.00">Ogre::GTKGLSupport</text>
</a>
</g>
</g>
<!-- Node0&#45;&gt;Node4 -->
<g id="edge4" class="edge">
<title>Node0&#45;&gt;Node4</title>
<path fill="none" stroke="midnightblue" d="M97.92,-160.48C118.06,-185.52 158.51,-231.4 203,-257 209.66,-260.83 217.15,-263.94 224.63,-266.44"/>
<polygon fill="midnightblue" stroke="midnightblue" points="100.61,-158.24 91.67,-152.56 95.12,-162.58 100.61,-158.24"/>
</g>
<!-- Node5 -->
<g id="node6" class="node">
<title>Node5</title>
<g id="a_node6"><a xlink:href="class_ogre_1_1_gl_switchable_support.html" target="_top" xlink:title=" ">
<polygon fill="none" stroke="black" points="203.5,-114.5 203.5,-133.5 337.5,-133.5 337.5,-114.5 203.5,-114.5"/>
<text text-anchor="middle" x="270.5" y="-121.5" font-family="Helvetica,sans-Serif" font-size="10.00">Ogre::GlSwitchableSupport</text>
</a>
</g>
</g>
<!-- Node0&#45;&gt;Node5 -->
<g id="edge5" class="edge">
<title>Node0&#45;&gt;Node5</title>
<path fill="none" stroke="midnightblue" d="M150.92,-136.18C167.94,-134.43 186.25,-132.55 203.27,-130.8"/>
<polygon fill="midnightblue" stroke="midnightblue" points="150.1,-132.74 140.51,-137.25 150.81,-139.71 150.1,-132.74"/>
</g>
<!-- Node6 -->
<g id="node7" class="node">
<title>Node6</title>
<g id="a_node7"><a xlink:href="class_ogre_1_1_o_s_x_g_l3_plus_support.html" target="_top" xlink:title=" ">
<polygon fill="none" stroke="black" points="203,-76.5 203,-95.5 338,-95.5 338,-76.5 203,-76.5"/>
<text text-anchor="middle" x="270.5" y="-83.5" font-family="Helvetica,sans-Serif" font-size="10.00">Ogre::OSXGL3PlusSupport</text>
</a>
</g>
</g>
<!-- Node0&#45;&gt;Node6 -->
<g id="edge6" class="edge">
<title>Node0&#45;&gt;Node6</title>
<path fill="none" stroke="midnightblue" d="M123.41,-130.18C146.48,-122.66 176.34,-113.08 203,-105 213.46,-101.83 224.88,-98.51 235.27,-95.55"/>
<polygon fill="midnightblue" stroke="midnightblue" points="122.06,-126.94 113.64,-133.37 124.23,-133.59 122.06,-126.94"/>
</g>
<!-- Node7 -->
<g id="node8" class="node">
<title>Node7</title>
<g id="a_node8"><a xlink:href="class_ogre_1_1_s_d_l_g_l_support.html" target="_top" xlink:title=" ">
<polygon fill="none" stroke="black" points="216,-38.5 216,-57.5 325,-57.5 325,-38.5 216,-38.5"/>
<text text-anchor="middle" x="270.5" y="-45.5" font-family="Helvetica,sans-Serif" font-size="10.00">Ogre::SDLGLSupport</text>
</a>
</g>
</g>
<!-- Node0&#45;&gt;Node7 -->
<g id="edge7" class="edge">
<title>Node0&#45;&gt;Node7</title>
<path fill="none" stroke="midnightblue" d="M105.18,-127.06C128.02,-110.12 166.43,-83.52 203,-67 211.21,-63.29 220.31,-60.13 229.09,-57.5"/>
<polygon fill="midnightblue" stroke="midnightblue" points="102.83,-124.45 96.94,-133.26 107.04,-130.04 102.83,-124.45"/>
</g>
<!-- Node8 -->
<g id="node9" class="node">
<title>Node8</title>
<g id="a_node9"><a xlink:href="class_ogre_1_1_win32_g_l_support.html" target="_top" xlink:title=" ">
<polygon fill="none" stroke="black" points="212.5,-0.5 212.5,-19.5 328.5,-19.5 328.5,-0.5 212.5,-0.5"/>
<text text-anchor="middle" x="270.5" y="-7.5" font-family="Helvetica,sans-Serif" font-size="10.00">Ogre::Win32GLSupport</text>
</a>
</g>
</g>
<!-- Node0&#45;&gt;Node8 -->
<g id="edge8" class="edge">
<title>Node0&#45;&gt;Node8</title>
<path fill="none" stroke="midnightblue" d="M97.92,-125.52C118.06,-100.48 158.51,-54.6 203,-29 209.66,-25.17 217.15,-22.06 224.63,-19.56"/>
<polygon fill="midnightblue" stroke="midnightblue" points="95.12,-123.42 91.67,-133.44 100.61,-127.76 95.12,-123.42"/>
</g>
<!-- Node2019 -->
<g id="node10" class="node">
<title>Node2019</title>
<g id="a_node10"><a xlink:href="class_ogre_1_1_singleton.html" target="_top" xlink:title=" ">
<polygon fill="none" stroke="black" points="0,-266.5 0,-285.5 167,-285.5 167,-266.5 0,-266.5"/>
<text text-anchor="middle" x="83.5" y="-273.5" font-family="Helvetica,sans-Serif" font-size="10.00">Ogre::Singleton&lt; GTKGLSupport &gt;</text>
</a>
</g>
</g>
<!-- Node2019&#45;&gt;Node4 -->
<g id="edge9" class="edge">
<title>Node2019&#45;&gt;Node4</title>
<path fill="none" stroke="midnightblue" d="M177.65,-276C190.61,-276 203.57,-276 215.48,-276"/>
<polygon fill="midnightblue" stroke="midnightblue" points="177.26,-272.5 167.26,-276 177.26,-279.5 177.26,-272.5"/>
</g>
</g>
</svg>
