<?xml version="1.0" encoding="UTF-8" standalone="no"?>
<!DOCTYPE svg PUBLIC "-//W3C//DTD SVG 1.1//EN"
 "http://www.w3.org/Graphics/SVG/1.1/DTD/svg11.dtd">
<!-- Generated by graphviz version 2.44.0 ()
 -->
<!-- Title: Graphical Class Hierarchy Pages: 1 -->
<svg width="324pt" height="104pt"
 viewBox="0.00 0.00 324.00 104.00" xmlns="http://www.w3.org/2000/svg" xmlns:xlink="http://www.w3.org/1999/xlink">
<g id="graph0" class="graph" transform="scale(1 1) rotate(0) translate(4 100)">
<title>Graphical Class Hierarchy</title>
<!-- Node0 -->
<g id="node1" class="node">
<title>Node0</title>
<g id="a_node1"><a xlink:href="class_ogre_1_1_array_memory_manager_1_1_rebase_listener.html" target="_top" xlink:title="When mUsedMemory &gt;= mMaxMemory (that is, we&#39;ve exhausted all our preallocated memory) ArrayMemoryMana...">
<polygon fill="none" stroke="black" points="0,-33 0,-63 137,-63 137,-33 0,-33"/>
<text text-anchor="start" x="8" y="-51" font-family="Helvetica,sans-Serif" font-size="10.00">Ogre::ArrayMemoryManager</text>
<text text-anchor="middle" x="68.5" y="-40" font-family="Helvetica,sans-Serif" font-size="10.00">::RebaseListener</text>
</a>
</g>
</g>
<!-- Node1 -->
<g id="node2" class="node">
<title>Node1</title>
<g id="a_node2"><a xlink:href="class_ogre_1_1_bone_memory_manager.html" target="_top" xlink:title="Wrap&#45;around class that contains multiple ArrayMemoryManager, one per hierarchy depth.">
<polygon fill="none" stroke="black" points="176,-76.5 176,-95.5 313,-95.5 313,-76.5 176,-76.5"/>
<text text-anchor="middle" x="244.5" y="-83.5" font-family="Helvetica,sans-Serif" font-size="10.00">Ogre::BoneMemoryManager</text>
</a>
</g>
</g>
<!-- Node0&#45;&gt;Node1 -->
<g id="edge1" class="edge">
<title>Node0&#45;&gt;Node1</title>
<path fill="none" stroke="#8b1a1a" d="M147.25,-64.98C165.35,-68.93 184,-73.01 200,-76.5"/>
<polygon fill="#8b1a1a" stroke="#8b1a1a" points="147.79,-61.51 137.27,-62.8 146.29,-68.35 147.79,-61.51"/>
</g>
<!-- Node2 -->
<g id="node3" class="node">
<title>Node2</title>
<g id="a_node3"><a xlink:href="class_ogre_1_1_node_memory_manager.html" target="_top" xlink:title="Wrap&#45;around class that contains multiple ArrayMemoryManager, one per hierarchy depth.">
<polygon fill="none" stroke="black" points="176,-38.5 176,-57.5 313,-57.5 313,-38.5 176,-38.5"/>
<text text-anchor="middle" x="244.5" y="-45.5" font-family="Helvetica,sans-Serif" font-size="10.00">Ogre::NodeMemoryManager</text>
</a>
</g>
</g>
<!-- Node0&#45;&gt;Node2 -->
<g id="edge2" class="edge">
<title>Node0&#45;&gt;Node2</title>
<path fill="none" stroke="#8b1a1a" d="M147.48,-48C156.97,-48 166.6,-48 175.91,-48"/>
<polygon fill="#8b1a1a" stroke="#8b1a1a" points="147.27,-44.5 137.27,-48 147.27,-51.5 147.27,-44.5"/>
</g>
<!-- Node3 -->
<g id="node4" class="node">
<title>Node3</title>
<g id="a_node4"><a xlink:href="class_ogre_1_1_object_memory_manager.html" target="_top" xlink:title="Wrap&#45;around class that contains multiple ArrayMemoryManager, one per render queue.">
<polygon fill="none" stroke="black" points="173,-0.5 173,-19.5 316,-19.5 316,-0.5 173,-0.5"/>
<text text-anchor="middle" x="244.5" y="-7.5" font-family="Helvetica,sans-Serif" font-size="10.00">Ogre::ObjectMemoryManager</text>
</a>
</g>
</g>
<!-- Node0&#45;&gt;Node3 -->
<g id="edge3" class="edge">
<title>Node0&#45;&gt;Node3</title>
<path fill="none" stroke="#8b1a1a" d="M147.25,-31.02C165.35,-27.07 184,-22.99 200,-19.5"/>
<polygon fill="#8b1a1a" stroke="#8b1a1a" points="146.29,-27.65 137.27,-33.2 147.79,-34.49 146.29,-27.65"/>
</g>
</g>
</svg>
