<?xml version="1.0" encoding="UTF-8" standalone="no"?>
<!DOCTYPE svg PUBLIC "-//W3C//DTD SVG 1.1//EN"
 "http://www.w3.org/Graphics/SVG/1.1/DTD/svg11.dtd">
<!-- Generated by graphviz version 2.44.0 ()
 -->
<!-- Title: Graphical Class Hierarchy Pages: 1 -->
<svg width="298pt" height="154pt"
 viewBox="0.00 0.00 298.00 154.00" xmlns="http://www.w3.org/2000/svg" xmlns:xlink="http://www.w3.org/1999/xlink">
<g id="graph0" class="graph" transform="scale(1 1) rotate(0) translate(4 150)">
<title>Graphical Class Hierarchy</title>
<!-- Node0 -->
<g id="node1" class="node">
<title>Node0</title>
<g id="a_node1"><a xlink:href="struct_ogre_1_1_shared_ptr_info.html" target="_top" xlink:title=" ">
<polygon fill="none" stroke="black" points="0,-60.5 0,-79.5 102,-79.5 102,-60.5 0,-60.5"/>
<text text-anchor="middle" x="51" y="-67.5" font-family="Helvetica,sans-Serif" font-size="10.00">Ogre::SharedPtrInfo</text>
</a>
</g>
</g>
<!-- Node1 -->
<g id="node2" class="node">
<title>Node1</title>
<g id="a_node2"><a xlink:href="class_ogre_1_1_shared_ptr_info_delete.html" target="_top" xlink:title=" ">
<polygon fill="none" stroke="black" points="138,-126.5 138,-145.5 290,-145.5 290,-126.5 138,-126.5"/>
<text text-anchor="middle" x="214" y="-133.5" font-family="Helvetica,sans-Serif" font-size="10.00">Ogre::SharedPtrInfoDelete&lt; T &gt;</text>
</a>
</g>
</g>
<!-- Node0&#45;&gt;Node1 -->
<g id="edge1" class="edge">
<title>Node0&#45;&gt;Node1</title>
<path fill="none" stroke="midnightblue" d="M75.29,-84.83C92.16,-95.04 115.82,-108.29 138,-117 147.38,-120.68 157.7,-123.84 167.6,-126.46"/>
<polygon fill="midnightblue" stroke="midnightblue" points="77.02,-81.78 66.67,-79.52 73.34,-87.74 77.02,-81.78"/>
</g>
<!-- Node2 -->
<g id="node3" class="node">
<title>Node2</title>
<g id="a_node3"><a xlink:href="class_ogre_1_1_shared_ptr_info_delete_t.html" target="_top" xlink:title=" ">
<polygon fill="none" stroke="black" points="149,-77 149,-107 279,-107 279,-77 149,-77"/>
<text text-anchor="start" x="157" y="-95" font-family="Helvetica,sans-Serif" font-size="10.00">Ogre::SharedPtrInfoDelete</text>
<text text-anchor="middle" x="214" y="-84" font-family="Helvetica,sans-Serif" font-size="10.00">T&lt; T &gt;</text>
</a>
</g>
</g>
<!-- Node0&#45;&gt;Node2 -->
<g id="edge2" class="edge">
<title>Node0&#45;&gt;Node2</title>
<path fill="none" stroke="midnightblue" d="M112.32,-78.24C124.2,-79.87 136.72,-81.58 148.73,-83.22"/>
<polygon fill="midnightblue" stroke="midnightblue" points="112.44,-74.73 102.06,-76.84 111.49,-81.66 112.44,-74.73"/>
</g>
<!-- Node3 -->
<g id="node4" class="node">
<title>Node3</title>
<g id="a_node4"><a xlink:href="class_ogre_1_1_shared_ptr_info_free.html" target="_top" xlink:title=" ">
<polygon fill="none" stroke="black" points="142,-38.5 142,-57.5 286,-57.5 286,-38.5 142,-38.5"/>
<text text-anchor="middle" x="214" y="-45.5" font-family="Helvetica,sans-Serif" font-size="10.00">Ogre::SharedPtrInfoFree&lt; T &gt;</text>
</a>
</g>
</g>
<!-- Node0&#45;&gt;Node3 -->
<g id="edge3" class="edge">
<title>Node0&#45;&gt;Node3</title>
<path fill="none" stroke="midnightblue" d="M112.1,-61.79C122.32,-60.39 133.02,-58.93 143.46,-57.5"/>
<polygon fill="midnightblue" stroke="midnightblue" points="111.49,-58.34 102.06,-63.16 112.44,-65.27 111.49,-58.34"/>
</g>
<!-- Node4 -->
<g id="node5" class="node">
<title>Node4</title>
<g id="a_node5"><a xlink:href="struct_ogre_1_1_shared_ptr_info_none.html" target="_top" xlink:title=" ">
<polygon fill="none" stroke="black" points="151.5,-0.5 151.5,-19.5 276.5,-19.5 276.5,-0.5 151.5,-0.5"/>
<text text-anchor="middle" x="214" y="-7.5" font-family="Helvetica,sans-Serif" font-size="10.00">Ogre::SharedPtrInfoNone</text>
</a>
</g>
</g>
<!-- Node0&#45;&gt;Node4 -->
<g id="edge4" class="edge">
<title>Node0&#45;&gt;Node4</title>
<path fill="none" stroke="midnightblue" d="M78.5,-55.69C95.21,-47.1 117.45,-36.42 138,-29 147.98,-25.4 158.94,-22.21 169.33,-19.52"/>
<polygon fill="midnightblue" stroke="midnightblue" points="76.59,-52.74 69.35,-60.48 79.84,-58.95 76.59,-52.74"/>
</g>
</g>
</svg>
