<?xml version="1.0" encoding="UTF-8" standalone="no"?>
<!DOCTYPE svg PUBLIC "-//W3C//DTD SVG 1.1//EN"
 "http://www.w3.org/Graphics/SVG/1.1/DTD/svg11.dtd">
<!-- Generated by graphviz version 2.40.1 (20161225.0304)
 -->
<!-- Title: Graphical Class Hierarchy Pages: 1 -->
<svg width="536pt" height="28pt"
 viewBox="0.00 0.00 536.00 28.00" xmlns="http://www.w3.org/2000/svg" xmlns:xlink="http://www.w3.org/1999/xlink">
<g id="graph0" class="graph" transform="scale(1 1) rotate(0) translate(4 24)">
<title>Graphical Class Hierarchy</title>
<!-- Node0 -->
<g id="node1" class="node">
<title>Node0</title>
<g id="a_node1"><a xlink:href="class_ogre_1_1_singleton.html" target="_top" xlink:title="Ogre::Singleton\&lt; GLES2RTTManager \&gt;">
<polygon fill="none" stroke="#000000" points="0,-.5 0,-19.5 191,-19.5 191,-.5 0,-.5"/>
<text text-anchor="middle" x="95.5" y="-7.5" font-family="Helvetica,sans-Serif" font-size="10.00" fill="#000000">Ogre::Singleton&lt; GLES2RTTManager &gt;</text>
</a>
</g>
</g>
<!-- Node1 -->
<g id="node2" class="node">
<title>Node1</title>
<g id="a_node2"><a xlink:href="class_ogre_1_1_g_l_e_s2_r_t_t_manager.html" target="_top" xlink:title="Manager/factory for RenderTextures. ">
<polygon fill="none" stroke="#000000" points="227,-.5 227,-19.5 359,-19.5 359,-.5 227,-.5"/>
<text text-anchor="middle" x="293" y="-7.5" font-family="Helvetica,sans-Serif" font-size="10.00" fill="#000000">Ogre::GLES2RTTManager</text>
</a>
</g>
</g>
<!-- Node0&#45;&gt;Node1 -->
<g id="edge1" class="edge">
<title>Node0&#45;&gt;Node1</title>
<path fill="none" stroke="#191970" d="M201.2855,-10C209.9745,-10 218.5905,-10 226.8626,-10"/>
<polygon fill="#191970" stroke="#191970" points="201.0682,-6.5001 191.0681,-10 201.0681,-13.5001 201.0682,-6.5001"/>
</g>
<!-- Node2 -->
<g id="node3" class="node">
<title>Node2</title>
<g id="a_node3"><a xlink:href="class_ogre_1_1_g_l_e_s2_f_b_o_manager.html" target="_top" xlink:title="Factory for GL ES 2 Frame Buffer Objects, and related things. ">
<polygon fill="none" stroke="#000000" points="395,-.5 395,-19.5 528,-19.5 528,-.5 395,-.5"/>
<text text-anchor="middle" x="461.5" y="-7.5" font-family="Helvetica,sans-Serif" font-size="10.00" fill="#000000">Ogre::GLES2FBOManager</text>
</a>
</g>
</g>
<!-- Node1&#45;&gt;Node2 -->
<g id="edge2" class="edge">
<title>Node1&#45;&gt;Node2</title>
<path fill="none" stroke="#191970" d="M369.366,-10C377.835,-10 386.4113,-10 394.7484,-10"/>
<polygon fill="#191970" stroke="#191970" points="369.1121,-6.5001 359.112,-10 369.112,-13.5001 369.1121,-6.5001"/>
</g>
</g>
</svg>
