<?xml version="1.0" encoding="UTF-8" standalone="no"?>
<!DOCTYPE svg PUBLIC "-//W3C//DTD SVG 1.1//EN"
 "http://www.w3.org/Graphics/SVG/1.1/DTD/svg11.dtd">
<!-- Generated by graphviz version 2.44.0 ()
 -->
<!-- Title: Graphical Class Hierarchy Pages: 1 -->
<svg width="507pt" height="66pt"
 viewBox="0.00 0.00 507.00 66.00" xmlns="http://www.w3.org/2000/svg" xmlns:xlink="http://www.w3.org/1999/xlink">
<g id="graph0" class="graph" transform="scale(1 1) rotate(0) translate(4 62)">
<title>Graphical Class Hierarchy</title>
<!-- Node0 -->
<g id="node1" class="node">
<title>Node0</title>
<g id="a_node1"><a xlink:href="class_ogre_1_1_hlms_json_listener.html" target="_top" xlink:title=" ">
<polygon fill="none" stroke="black" points="19,-38.5 19,-57.5 141,-57.5 141,-38.5 19,-38.5"/>
<text text-anchor="middle" x="80" y="-45.5" font-family="Helvetica,sans-Serif" font-size="10.00">Ogre::HlmsJsonListener</text>
</a>
</g>
</g>
<!-- Node1 -->
<g id="node2" class="node">
<title>Node1</title>
<g id="a_node2"><a xlink:href="class_ogre_1_1_scene_format_listener.html" target="_top" xlink:title="Override this listener if you want to filter which objects get exported.">
<polygon fill="none" stroke="black" points="196,-19.5 196,-38.5 332,-38.5 332,-19.5 196,-19.5"/>
<text text-anchor="middle" x="264" y="-26.5" font-family="Helvetica,sans-Serif" font-size="10.00">Ogre::SceneFormatListener</text>
</a>
</g>
</g>
<!-- Node0&#45;&gt;Node1 -->
<g id="edge1" class="edge">
<title>Node0&#45;&gt;Node1</title>
<path fill="none" stroke="midnightblue" d="M151.1,-40.68C165.76,-39.15 181.18,-37.54 195.73,-36.02"/>
<polygon fill="midnightblue" stroke="midnightblue" points="150.68,-37.21 141.1,-41.73 151.41,-44.17 150.68,-37.21"/>
</g>
<!-- Node2 -->
<g id="node3" class="node">
<title>Node2</title>
<g id="a_node3"><a xlink:href="class_ogre_1_1_default_scene_format_listener.html" target="_top" xlink:title="Default implementation that prevents a SceneNode from being exported if the only attached objects.">
<polygon fill="none" stroke="black" points="368,-14 368,-44 499,-44 499,-14 368,-14"/>
<text text-anchor="start" x="376" y="-32" font-family="Helvetica,sans-Serif" font-size="10.00">Ogre::DefaultSceneFormat</text>
<text text-anchor="middle" x="433.5" y="-21" font-family="Helvetica,sans-Serif" font-size="10.00">Listener</text>
</a>
</g>
</g>
<!-- Node1&#45;&gt;Node2 -->
<g id="edge2" class="edge">
<title>Node1&#45;&gt;Node2</title>
<path fill="none" stroke="midnightblue" d="M342.44,-29C350.91,-29 359.47,-29 367.77,-29"/>
<polygon fill="midnightblue" stroke="midnightblue" points="342.16,-25.5 332.16,-29 342.16,-32.5 342.16,-25.5"/>
</g>
<!-- Node1328 -->
<g id="node4" class="node">
<title>Node1328</title>
<g id="a_node4"><a xlink:href="class_ogre_1_1_hlms_texture_export_listener.html" target="_top" xlink:title=" ">
<polygon fill="none" stroke="black" points="0,-0.5 0,-19.5 160,-19.5 160,-0.5 0,-0.5"/>
<text text-anchor="middle" x="80" y="-7.5" font-family="Helvetica,sans-Serif" font-size="10.00">Ogre::HlmsTextureExportListener</text>
</a>
</g>
</g>
<!-- Node1328&#45;&gt;Node1 -->
<g id="edge3" class="edge">
<title>Node1328&#45;&gt;Node1</title>
<path fill="none" stroke="midnightblue" d="M170.12,-19.3C178.73,-20.2 187.37,-21.1 195.72,-21.98"/>
<polygon fill="midnightblue" stroke="midnightblue" points="170.34,-15.81 160.03,-18.25 169.62,-22.77 170.34,-15.81"/>
</g>
</g>
</svg>
