<?xml version="1.0" encoding="UTF-8" standalone="no"?>
<!DOCTYPE svg PUBLIC "-//W3C//DTD SVG 1.1//EN"
 "http://www.w3.org/Graphics/SVG/1.1/DTD/svg11.dtd">
<!-- Generated by graphviz version 2.44.0 ()
 -->
<!-- Title: Graphical Class Hierarchy Pages: 1 -->
<svg width="440pt" height="142pt"
 viewBox="0.00 0.00 440.00 142.00" xmlns="http://www.w3.org/2000/svg" xmlns:xlink="http://www.w3.org/1999/xlink">
<g id="graph0" class="graph" transform="scale(1 1) rotate(0) translate(4 138)">
<title>Graphical Class Hierarchy</title>
<!-- Node1166 -->
<g id="node1" class="node">
<title>Node1166</title>
<g id="a_node1"><a xlink:href="class_ogre_1_1_g_l_e_s2_context.html" target="_top" xlink:title="Class that encapsulates an GL context.">
<polygon fill="none" stroke="black" points="0,-57.5 0,-76.5 107,-76.5 107,-57.5 0,-57.5"/>
<text text-anchor="middle" x="53.5" y="-64.5" font-family="Helvetica,sans-Serif" font-size="10.00">Ogre::GLES2Context</text>
</a>
</g>
</g>
<!-- Node1167 -->
<g id="node2" class="node">
<title>Node1167</title>
<g id="a_node2"><a xlink:href="class_ogre_1_1_e_g_l_context.html" target="_top" xlink:title=" ">
<polygon fill="none" stroke="black" points="150.5,-57.5 150.5,-76.5 245.5,-76.5 245.5,-57.5 150.5,-57.5"/>
<text text-anchor="middle" x="198" y="-64.5" font-family="Helvetica,sans-Serif" font-size="10.00">Ogre::EGLContext</text>
</a>
</g>
</g>
<!-- Node1166&#45;&gt;Node1167 -->
<g id="edge1" class="edge">
<title>Node1166&#45;&gt;Node1167</title>
<path fill="none" stroke="midnightblue" d="M117.22,-67C128.3,-67 139.66,-67 150.2,-67"/>
<polygon fill="midnightblue" stroke="midnightblue" points="117.16,-63.5 107.16,-67 117.16,-70.5 117.16,-63.5"/>
</g>
<!-- Node0 -->
<g id="node7" class="node">
<title>Node0</title>
<g id="a_node7"><a xlink:href="class_ogre_1_1_na_cl_g_l_context.html" target="_top" xlink:title=" ">
<polygon fill="none" stroke="black" points="143,-19.5 143,-38.5 253,-38.5 253,-19.5 143,-19.5"/>
<text text-anchor="middle" x="198" y="-26.5" font-family="Helvetica,sans-Serif" font-size="10.00">Ogre::NaClGLContext</text>
</a>
</g>
</g>
<!-- Node1166&#45;&gt;Node0 -->
<g id="edge6" class="edge">
<title>Node1166&#45;&gt;Node0</title>
<path fill="none" stroke="midnightblue" d="M100.15,-54.83C119.86,-49.57 142.57,-43.51 161.05,-38.59"/>
<polygon fill="midnightblue" stroke="midnightblue" points="99.22,-51.45 90.46,-57.41 101.02,-58.22 99.22,-51.45"/>
</g>
<!-- Node1168 -->
<g id="node3" class="node">
<title>Node1168</title>
<g id="a_node3"><a xlink:href="class_ogre_1_1_android_e_g_l_context.html" target="_top" xlink:title=" ">
<polygon fill="none" stroke="black" points="296.5,-114.5 296.5,-133.5 424.5,-133.5 424.5,-114.5 296.5,-114.5"/>
<text text-anchor="middle" x="360.5" y="-121.5" font-family="Helvetica,sans-Serif" font-size="10.00">Ogre::AndroidEGLContext</text>
</a>
</g>
</g>
<!-- Node1167&#45;&gt;Node1168 -->
<g id="edge2" class="edge">
<title>Node1167&#45;&gt;Node1168</title>
<path fill="none" stroke="midnightblue" d="M228.99,-80.87C246.3,-88.58 268.62,-97.99 289,-105 299.07,-108.46 310.12,-111.7 320.43,-114.49"/>
<polygon fill="midnightblue" stroke="midnightblue" points="229.98,-77.48 219.42,-76.57 227.1,-83.86 229.98,-77.48"/>
</g>
<!-- Node1169 -->
<g id="node4" class="node">
<title>Node1169</title>
<g id="a_node4"><a xlink:href="class_ogre_1_1_emscripten_e_g_l_context.html" target="_top" xlink:title=" ">
<polygon fill="none" stroke="black" points="289,-76.5 289,-95.5 432,-95.5 432,-76.5 289,-76.5"/>
<text text-anchor="middle" x="360.5" y="-83.5" font-family="Helvetica,sans-Serif" font-size="10.00">Ogre::EmscriptenEGLContext</text>
</a>
</g>
</g>
<!-- Node1167&#45;&gt;Node1169 -->
<g id="edge3" class="edge">
<title>Node1167&#45;&gt;Node1169</title>
<path fill="none" stroke="midnightblue" d="M255.84,-73.73C266.48,-74.99 277.72,-76.32 288.72,-77.62"/>
<polygon fill="midnightblue" stroke="midnightblue" points="256.2,-70.25 245.85,-72.55 255.37,-77.2 256.2,-70.25"/>
</g>
<!-- Node1170 -->
<g id="node5" class="node">
<title>Node1170</title>
<g id="a_node5"><a xlink:href="class_ogre_1_1_win32_e_g_l_context.html" target="_top" xlink:title=" ">
<polygon fill="none" stroke="black" points="299.5,-38.5 299.5,-57.5 421.5,-57.5 421.5,-38.5 299.5,-38.5"/>
<text text-anchor="middle" x="360.5" y="-45.5" font-family="Helvetica,sans-Serif" font-size="10.00">Ogre::Win32EGLContext</text>
</a>
</g>
</g>
<!-- Node1167&#45;&gt;Node1170 -->
<g id="edge4" class="edge">
<title>Node1167&#45;&gt;Node1170</title>
<path fill="none" stroke="midnightblue" d="M255.91,-60.26C270.01,-58.59 285.17,-56.8 299.42,-55.11"/>
<polygon fill="midnightblue" stroke="midnightblue" points="255.37,-56.8 245.85,-61.45 256.2,-63.75 255.37,-56.8"/>
</g>
<!-- Node1171 -->
<g id="node6" class="node">
<title>Node1171</title>
<g id="a_node6"><a xlink:href="class_ogre_1_1_x11_e_g_l_context.html" target="_top" xlink:title=" ">
<polygon fill="none" stroke="black" points="304.5,-0.5 304.5,-19.5 416.5,-19.5 416.5,-0.5 304.5,-0.5"/>
<text text-anchor="middle" x="360.5" y="-7.5" font-family="Helvetica,sans-Serif" font-size="10.00">Ogre::X11EGLContext</text>
</a>
</g>
</g>
<!-- Node1167&#45;&gt;Node1171 -->
<g id="edge5" class="edge">
<title>Node1167&#45;&gt;Node1171</title>
<path fill="none" stroke="midnightblue" d="M238.26,-53.95C243.26,-52.07 248.28,-50.06 253,-48 269.58,-40.76 272.16,-35.62 289,-29 298.2,-25.38 308.34,-22.21 317.99,-19.54"/>
<polygon fill="midnightblue" stroke="midnightblue" points="236.93,-50.71 228.73,-57.42 239.33,-57.29 236.93,-50.71"/>
</g>
<!-- Node258 -->
<g id="node8" class="node">
<title>Node258</title>
<g id="a_node8"><a xlink:title=" ">
<polygon fill="none" stroke="#bfbfbf" points="7.5,-19.5 7.5,-38.5 99.5,-38.5 99.5,-19.5 7.5,-19.5"/>
<text text-anchor="middle" x="53.5" y="-26.5" font-family="Helvetica,sans-Serif" font-size="10.00">Graphics3DClient</text>
</a>
</g>
</g>
<!-- Node258&#45;&gt;Node0 -->
<g id="edge7" class="edge">
<title>Node258&#45;&gt;Node0</title>
<path fill="none" stroke="midnightblue" d="M109.83,-29C120.72,-29 132.13,-29 142.97,-29"/>
<polygon fill="midnightblue" stroke="midnightblue" points="109.59,-25.5 99.59,-29 109.59,-32.5 109.59,-25.5"/>
</g>
</g>
</svg>
