<?xml version="1.0" encoding="UTF-8" standalone="no"?>
<!DOCTYPE svg PUBLIC "-//W3C//DTD SVG 1.1//EN"
 "http://www.w3.org/Graphics/SVG/1.1/DTD/svg11.dtd">
<!-- Generated by graphviz version 2.44.0 ()
 -->
<!-- Title: Graphical Class Hierarchy Pages: 1 -->
<svg width="283pt" height="142pt"
 viewBox="0.00 0.00 283.00 142.00" xmlns="http://www.w3.org/2000/svg" xmlns:xlink="http://www.w3.org/1999/xlink">
<g id="graph0" class="graph" transform="scale(1 1) rotate(0) translate(4 138)">
<title>Graphical Class Hierarchy</title>
<!-- Node1859 -->
<g id="node1" class="node">
<title>Node1859</title>
<g id="a_node1"><a xlink:title=" ">
<polygon fill="none" stroke="#bfbfbf" points="0,-57.5 0,-76.5 80,-76.5 80,-57.5 0,-57.5"/>
<text text-anchor="middle" x="40" y="-64.5" font-family="Helvetica,sans-Serif" font-size="10.00">RenderTexture</text>
</a>
</g>
</g>
<!-- Node0 -->
<g id="node2" class="node">
<title>Node0</title>
<g id="a_node2"><a xlink:href="class_ogre_1_1_d3_d9_render_texture.html" target="_top" xlink:title="RenderTexture implementation for D3D9.">
<polygon fill="none" stroke="black" points="131,-114.5 131,-133.5 260,-133.5 260,-114.5 131,-114.5"/>
<text text-anchor="middle" x="195.5" y="-121.5" font-family="Helvetica,sans-Serif" font-size="10.00">Ogre::D3D9RenderTexture</text>
</a>
</g>
</g>
<!-- Node1859&#45;&gt;Node0 -->
<g id="edge1" class="edge">
<title>Node1859&#45;&gt;Node0</title>
<path fill="none" stroke="midnightblue" d="M66.33,-81.69C80.56,-89.46 98.86,-98.68 116,-105 126,-108.69 136.98,-111.86 147.48,-114.5"/>
<polygon fill="midnightblue" stroke="midnightblue" points="67.62,-78.4 57.19,-76.59 64.21,-84.52 67.62,-78.4"/>
</g>
<!-- Node1861 -->
<g id="node3" class="node">
<title>Node1861</title>
<g id="a_node3"><a xlink:href="class_ogre_1_1_g_l_e_s2_depth_texture_target.html" target="_top" xlink:title=" ">
<polygon fill="none" stroke="black" points="116,-76.5 116,-95.5 275,-95.5 275,-76.5 116,-76.5"/>
<text text-anchor="middle" x="195.5" y="-83.5" font-family="Helvetica,sans-Serif" font-size="10.00">Ogre::GLES2DepthTextureTarget</text>
</a>
</g>
</g>
<!-- Node1859&#45;&gt;Node1861 -->
<g id="edge2" class="edge">
<title>Node1859&#45;&gt;Node1861</title>
<path fill="none" stroke="midnightblue" d="M90.12,-73.08C98.87,-74.16 108.18,-75.32 117.49,-76.47"/>
<polygon fill="midnightblue" stroke="midnightblue" points="90.49,-69.6 80.13,-71.84 89.63,-76.55 90.49,-69.6"/>
</g>
<!-- Node1862 -->
<g id="node4" class="node">
<title>Node1862</title>
<g id="a_node4"><a xlink:href="class_ogre_1_1_g_l_e_s2_null_texture_target.html" target="_top" xlink:title=" ">
<polygon fill="none" stroke="black" points="120,-38.5 120,-57.5 271,-57.5 271,-38.5 120,-38.5"/>
<text text-anchor="middle" x="195.5" y="-45.5" font-family="Helvetica,sans-Serif" font-size="10.00">Ogre::GLES2NullTextureTarget</text>
</a>
</g>
</g>
<!-- Node1859&#45;&gt;Node1862 -->
<g id="edge3" class="edge">
<title>Node1859&#45;&gt;Node1862</title>
<path fill="none" stroke="midnightblue" d="M90.15,-60.92C99.65,-59.74 109.8,-58.48 119.9,-57.23"/>
<polygon fill="midnightblue" stroke="midnightblue" points="89.63,-57.45 80.13,-62.16 90.49,-64.4 89.63,-57.45"/>
</g>
<!-- Node1863 -->
<g id="node5" class="node">
<title>Node1863</title>
<g id="a_node5"><a xlink:href="class_ogre_1_1_g_l_e_s2_render_texture.html" target="_top" xlink:title="Base class for GL Render Textures.">
<polygon fill="none" stroke="black" points="127,-0.5 127,-19.5 264,-19.5 264,-0.5 127,-0.5"/>
<text text-anchor="middle" x="195.5" y="-7.5" font-family="Helvetica,sans-Serif" font-size="10.00">Ogre::GLES2RenderTexture</text>
</a>
</g>
</g>
<!-- Node1859&#45;&gt;Node1863 -->
<g id="edge4" class="edge">
<title>Node1859&#45;&gt;Node1863</title>
<path fill="none" stroke="midnightblue" d="M66.33,-52.31C80.56,-44.54 98.86,-35.32 116,-29 126,-25.31 136.98,-22.14 147.48,-19.5"/>
<polygon fill="midnightblue" stroke="midnightblue" points="64.21,-49.48 57.19,-57.41 67.62,-55.6 64.21,-49.48"/>
</g>
</g>
</svg>
