<?xml version="1.0" encoding="UTF-8" standalone="no"?>
<!DOCTYPE svg PUBLIC "-//W3C//DTD SVG 1.1//EN"
 "http://www.w3.org/Graphics/SVG/1.1/DTD/svg11.dtd">
<!-- Generated by graphviz version 2.44.0 ()
 -->
<!-- Title: Graphical Class Hierarchy Pages: 1 -->
<svg width="486pt" height="176pt"
 viewBox="0.00 0.00 486.00 175.50" xmlns="http://www.w3.org/2000/svg" xmlns:xlink="http://www.w3.org/1999/xlink">
<g id="graph0" class="graph" transform="scale(1 1) rotate(0) translate(4 171.5)">
<title>Graphical Class Hierarchy</title>
<!-- Node166 -->
<g id="node1" class="node">
<title>Node166</title>
<g id="a_node1"><a xlink:title=" ">
<polygon fill="none" stroke="#bfbfbf" points="0,-79 0,-98 105,-98 105,-79 0,-79"/>
<text text-anchor="middle" x="52.5" y="-86" font-family="Helvetica,sans-Serif" font-size="10.00">HardwarePixelBuffer</text>
</a>
</g>
</g>
<!-- Node0 -->
<g id="node2" class="node">
<title>Node0</title>
<g id="a_node2"><a xlink:href="class_ogre_1_1_d3_d9_hardware_pixel_buffer.html" target="_top" xlink:title=" ">
<polygon fill="none" stroke="black" points="141,-148 141,-167 296,-167 296,-148 141,-148"/>
<text text-anchor="middle" x="218.5" y="-155" font-family="Helvetica,sans-Serif" font-size="10.00">Ogre::D3D9HardwarePixelBuffer</text>
</a>
</g>
</g>
<!-- Node166&#45;&gt;Node0 -->
<g id="edge1" class="edge">
<title>Node166&#45;&gt;Node0</title>
<path fill="none" stroke="midnightblue" d="M76.17,-103.78C93.34,-114.76 117.84,-129.22 141,-138.5 150.27,-142.22 160.48,-145.36 170.33,-147.95"/>
<polygon fill="midnightblue" stroke="midnightblue" points="77.73,-100.62 67.44,-98.09 73.9,-106.48 77.73,-100.62"/>
</g>
<!-- Node168 -->
<g id="node3" class="node">
<title>Node168</title>
<g id="a_node3"><a xlink:href="class_ogre_1_1v1_1_1_g_l_e_s2_depth_pixel_buffer.html" target="_top" xlink:title=" ">
<polygon fill="none" stroke="black" points="151,-98.5 151,-128.5 286,-128.5 286,-98.5 151,-98.5"/>
<text text-anchor="start" x="159" y="-116.5" font-family="Helvetica,sans-Serif" font-size="10.00">Ogre::v1::GLES2DepthPixel</text>
<text text-anchor="middle" x="218.5" y="-105.5" font-family="Helvetica,sans-Serif" font-size="10.00">Buffer</text>
</a>
</g>
</g>
<!-- Node166&#45;&gt;Node168 -->
<g id="edge2" class="edge">
<title>Node166&#45;&gt;Node168</title>
<path fill="none" stroke="midnightblue" d="M115.41,-97.94C127.01,-99.71 139.18,-101.56 150.91,-103.35"/>
<polygon fill="midnightblue" stroke="midnightblue" points="115.8,-94.46 105.39,-96.41 114.75,-101.38 115.8,-94.46"/>
</g>
<!-- Node169 -->
<g id="node4" class="node">
<title>Node169</title>
<g id="a_node4"><a xlink:href="class_ogre_1_1v1_1_1_g_l_e_s2_hardware_pixel_buffer.html" target="_top" xlink:title=" ">
<polygon fill="none" stroke="black" points="142.5,-49.5 142.5,-79.5 294.5,-79.5 294.5,-49.5 142.5,-49.5"/>
<text text-anchor="start" x="150.5" y="-67.5" font-family="Helvetica,sans-Serif" font-size="10.00">Ogre::v1::GLES2HardwarePixel</text>
<text text-anchor="middle" x="218.5" y="-56.5" font-family="Helvetica,sans-Serif" font-size="10.00">Buffer</text>
</a>
</g>
</g>
<!-- Node166&#45;&gt;Node169 -->
<g id="edge3" class="edge">
<title>Node166&#45;&gt;Node169</title>
<path fill="none" stroke="midnightblue" d="M115.49,-79.43C124.24,-78.15 133.31,-76.82 142.28,-75.51"/>
<polygon fill="midnightblue" stroke="midnightblue" points="114.78,-76 105.39,-80.91 115.79,-82.92 114.78,-76"/>
</g>
<!-- Node172 -->
<g id="node7" class="node">
<title>Node172</title>
<g id="a_node7"><a xlink:href="class_ogre_1_1v1_1_1_g_l_e_s2_null_pixel_buffer.html" target="_top" xlink:title=" ">
<polygon fill="none" stroke="black" points="155,-0.5 155,-30.5 282,-30.5 282,-0.5 155,-0.5"/>
<text text-anchor="start" x="163" y="-18.5" font-family="Helvetica,sans-Serif" font-size="10.00">Ogre::v1::GLES2NullPixel</text>
<text text-anchor="middle" x="218.5" y="-7.5" font-family="Helvetica,sans-Serif" font-size="10.00">Buffer</text>
</a>
</g>
</g>
<!-- Node166&#45;&gt;Node172 -->
<g id="edge6" class="edge">
<title>Node166&#45;&gt;Node172</title>
<path fill="none" stroke="midnightblue" d="M77.31,-73.4C94.53,-62.92 118.61,-49.16 141,-39.5 148.41,-36.3 156.39,-33.32 164.3,-30.62"/>
<polygon fill="midnightblue" stroke="midnightblue" points="75.17,-70.6 68.5,-78.83 78.85,-76.56 75.17,-70.6"/>
</g>
<!-- Node170 -->
<g id="node5" class="node">
<title>Node170</title>
<g id="a_node5"><a xlink:href="class_ogre_1_1v1_1_1_g_l_e_s2_render_buffer.html" target="_top" xlink:title="Renderbuffer surface.">
<polygon fill="none" stroke="black" points="332.5,-74 332.5,-93 477.5,-93 477.5,-74 332.5,-74"/>
<text text-anchor="middle" x="405" y="-81" font-family="Helvetica,sans-Serif" font-size="10.00">Ogre::v1::GLES2RenderBuffer</text>
</a>
</g>
</g>
<!-- Node169&#45;&gt;Node170 -->
<g id="edge4" class="edge">
<title>Node169&#45;&gt;Node170</title>
<path fill="none" stroke="midnightblue" d="M304.55,-73.26C313.83,-74.21 323.21,-75.18 332.3,-76.12"/>
<polygon fill="midnightblue" stroke="midnightblue" points="304.85,-69.77 294.54,-72.23 304.13,-76.73 304.85,-69.77"/>
</g>
<!-- Node171 -->
<g id="node6" class="node">
<title>Node171</title>
<g id="a_node6"><a xlink:href="class_ogre_1_1v1_1_1_g_l_e_s2_texture_buffer.html" target="_top" xlink:title="Texture surface.">
<polygon fill="none" stroke="black" points="332,-36 332,-55 478,-55 478,-36 332,-36"/>
<text text-anchor="middle" x="405" y="-43" font-family="Helvetica,sans-Serif" font-size="10.00">Ogre::v1::GLES2TextureBuffer</text>
</a>
</g>
</g>
<!-- Node169&#45;&gt;Node171 -->
<g id="edge5" class="edge">
<title>Node169&#45;&gt;Node171</title>
<path fill="none" stroke="midnightblue" d="M304.69,-55.73C313.72,-54.8 322.84,-53.86 331.71,-52.94"/>
<polygon fill="midnightblue" stroke="midnightblue" points="304.13,-52.27 294.54,-56.77 304.85,-59.23 304.13,-52.27"/>
</g>
</g>
</svg>
