<?xml version="1.0" encoding="UTF-8" standalone="no"?>
<!DOCTYPE svg PUBLIC "-//W3C//DTD SVG 1.1//EN"
 "http://www.w3.org/Graphics/SVG/1.1/DTD/svg11.dtd">
<!-- Generated by graphviz version 2.44.0 ()
 -->
<!-- Title: Ogre::DepthBuffer Pages: 1 -->
<svg width="268pt" height="84pt"
 viewBox="0.00 0.00 268.00 84.00" xmlns="http://www.w3.org/2000/svg" xmlns:xlink="http://www.w3.org/1999/xlink">
<g id="graph0" class="graph" transform="scale(1 1) rotate(0) translate(4 80)">
<title>Ogre::DepthBuffer</title>
<!-- Node1 -->
<g id="node1" class="node">
<title>Node1</title>
<g id="a_node1"><a xlink:title="An abstract class that contains a depth/stencil buffer.">
<polygon fill="#bfbfbf" stroke="black" points="81,-56.5 81,-75.5 174,-75.5 174,-56.5 81,-56.5"/>
<text text-anchor="middle" x="127.5" y="-63.5" font-family="Helvetica,sans-Serif" font-size="10.00">Ogre::DepthBuffer</text>
</a>
</g>
</g>
<!-- Node2 -->
<g id="node2" class="node">
<title>Node2</title>
<g id="a_node2"><a xlink:href="class_ogre_1_1_d3_d9_depth_buffer.html" target="_top" xlink:title=" ">
<polygon fill="none" stroke="black" points="0,-0.5 0,-19.5 117,-19.5 117,-0.5 0,-0.5"/>
<text text-anchor="middle" x="58.5" y="-7.5" font-family="Helvetica,sans-Serif" font-size="10.00">Ogre::D3D9DepthBuffer</text>
</a>
</g>
</g>
<!-- Node1&#45;&gt;Node2 -->
<g id="edge1" class="edge">
<title>Node1&#45;&gt;Node2</title>
<path fill="none" stroke="midnightblue" d="M108.46,-50.1C96.04,-40.38 80.26,-28.03 69.79,-19.83"/>
<polygon fill="midnightblue" stroke="midnightblue" points="106.38,-52.92 116.41,-56.32 110.7,-47.4 106.38,-52.92"/>
</g>
<!-- Node3 -->
<g id="node3" class="node">
<title>Node3</title>
<g id="a_node3"><a xlink:href="class_ogre_1_1_g_l_e_s2_depth_buffer.html" target="_top" xlink:title="An abstract class that contains a depth/stencil buffer.">
<polygon fill="none" stroke="black" points="135,-0.5 135,-19.5 260,-19.5 260,-0.5 135,-0.5"/>
<text text-anchor="middle" x="197.5" y="-7.5" font-family="Helvetica,sans-Serif" font-size="10.00">Ogre::GLES2DepthBuffer</text>
</a>
</g>
</g>
<!-- Node1&#45;&gt;Node3 -->
<g id="edge2" class="edge">
<title>Node1&#45;&gt;Node3</title>
<path fill="none" stroke="midnightblue" d="M146.81,-50.1C159.41,-40.38 175.43,-28.03 186.05,-19.83"/>
<polygon fill="midnightblue" stroke="midnightblue" points="144.53,-47.44 138.75,-56.32 148.8,-52.99 144.53,-47.44"/>
</g>
</g>
</svg>
