<?xml version="1.0" encoding="UTF-8" standalone="no"?>
<!DOCTYPE svg PUBLIC "-//W3C//DTD SVG 1.1//EN"
 "http://www.w3.org/Graphics/SVG/1.1/DTD/svg11.dtd">
<!-- Generated by graphviz version 2.44.0 ()
 -->
<!-- Title: Ogre::VertexArrayObject Pages: 1 -->
<svg width="470pt" height="154pt"
 viewBox="0.00 0.00 470.00 154.00" xmlns="http://www.w3.org/2000/svg" xmlns:xlink="http://www.w3.org/1999/xlink">
<g id="graph0" class="graph" transform="scale(1 1) rotate(0) translate(4 150)">
<title>Ogre::VertexArrayObject</title>
<!-- Node1 -->
<g id="node1" class="node">
<title>Node1</title>
<g id="a_node1"><a xlink:title="Vertex array objects (Vaos) are immutable objects that describe a combination of vertex buffers and i...">
<polygon fill="#bfbfbf" stroke="black" points="153,-60.5 153,-79.5 274,-79.5 274,-60.5 153,-60.5"/>
<text text-anchor="middle" x="213.5" y="-67.5" font-family="Helvetica,sans-Serif" font-size="10.00">Ogre::VertexArrayObject</text>
</a>
</g>
</g>
<!-- Node3 -->
<g id="node3" class="node">
<title>Node3</title>
<g id="a_node3"><a xlink:href="struct_ogre_1_1_d3_d11_vertex_array_object.html" target="_top" xlink:title=" ">
<polygon fill="none" stroke="black" points="311,-126.5 311,-145.5 461,-145.5 461,-126.5 311,-126.5"/>
<text text-anchor="middle" x="386" y="-133.5" font-family="Helvetica,sans-Serif" font-size="10.00">Ogre::D3D11VertexArrayObject</text>
</a>
</g>
</g>
<!-- Node1&#45;&gt;Node3 -->
<g id="edge2" class="edge">
<title>Node1&#45;&gt;Node3</title>
<path fill="none" stroke="midnightblue" d="M240.14,-84.45C259,-94.63 285.52,-107.99 310,-117 319.83,-120.62 330.64,-123.8 340.91,-126.47"/>
<polygon fill="midnightblue" stroke="midnightblue" points="241.73,-81.33 231.28,-79.6 238.37,-87.47 241.73,-81.33"/>
</g>
<!-- Node4 -->
<g id="node4" class="node">
<title>Node4</title>
<g id="a_node4"><a xlink:href="struct_ogre_1_1_g_l3_plus_vertex_array_object.html" target="_top" xlink:title=" ">
<polygon fill="none" stroke="black" points="320.5,-77 320.5,-107 451.5,-107 451.5,-77 320.5,-77"/>
<text text-anchor="start" x="328.5" y="-95" font-family="Helvetica,sans-Serif" font-size="10.00">Ogre::GL3PlusVertexArray</text>
<text text-anchor="middle" x="386" y="-84" font-family="Helvetica,sans-Serif" font-size="10.00">Object</text>
</a>
</g>
</g>
<!-- Node1&#45;&gt;Node4 -->
<g id="edge3" class="edge">
<title>Node1&#45;&gt;Node4</title>
<path fill="none" stroke="midnightblue" d="M284.11,-78.98C296.13,-80.53 308.58,-82.14 320.47,-83.67"/>
<polygon fill="midnightblue" stroke="midnightblue" points="284.5,-75.5 274.13,-77.69 283.6,-82.45 284.5,-75.5"/>
</g>
<!-- Node5 -->
<g id="node5" class="node">
<title>Node5</title>
<g id="a_node5"><a xlink:href="struct_ogre_1_1_g_l_e_s2_vertex_array_object.html" target="_top" xlink:title=" ">
<polygon fill="none" stroke="black" points="310,-38.5 310,-57.5 462,-57.5 462,-38.5 310,-38.5"/>
<text text-anchor="middle" x="386" y="-45.5" font-family="Helvetica,sans-Serif" font-size="10.00">Ogre::GLES2VertexArrayObject</text>
</a>
</g>
</g>
<!-- Node1&#45;&gt;Node5 -->
<g id="edge4" class="edge">
<title>Node1&#45;&gt;Node5</title>
<path fill="none" stroke="midnightblue" d="M284.12,-61.02C293.08,-59.86 302.28,-58.67 311.3,-57.51"/>
<polygon fill="midnightblue" stroke="midnightblue" points="283.6,-57.55 274.13,-62.31 284.5,-64.5 283.6,-57.55"/>
</g>
<!-- Node6 -->
<g id="node6" class="node">
<title>Node6</title>
<g id="a_node6"><a xlink:href="struct_ogre_1_1_n_u_l_l_vertex_array_object.html" target="_top" xlink:title=" ">
<polygon fill="none" stroke="black" points="312,-0.5 312,-19.5 460,-19.5 460,-0.5 312,-0.5"/>
<text text-anchor="middle" x="386" y="-7.5" font-family="Helvetica,sans-Serif" font-size="10.00">Ogre::NULLVertexArrayObject</text>
</a>
</g>
</g>
<!-- Node1&#45;&gt;Node6 -->
<g id="edge5" class="edge">
<title>Node1&#45;&gt;Node6</title>
<path fill="none" stroke="midnightblue" d="M243.42,-56.17C262.12,-47.58 287.15,-36.74 310,-29 320.43,-25.46 331.88,-22.24 342.61,-19.5"/>
<polygon fill="midnightblue" stroke="midnightblue" points="241.86,-53.04 234.26,-60.43 244.81,-59.39 241.86,-53.04"/>
</g>
<!-- Node2 -->
<g id="node2" class="node">
<title>Node2</title>
<g id="a_node2"><a xlink:href="class_ogre_1_1_allocated_object.html" target="_top" xlink:title="Superclass for all objects that wish to use custom memory allocators when their new / delete operator...">
<polygon fill="none" stroke="black" points="0,-60.5 0,-79.5 117,-79.5 117,-60.5 0,-60.5"/>
<text text-anchor="middle" x="58.5" y="-67.5" font-family="Helvetica,sans-Serif" font-size="10.00">VertexArrayObjectAlloc</text>
</a>
</g>
</g>
<!-- Node2&#45;&gt;Node1 -->
<g id="edge1" class="edge">
<title>Node2&#45;&gt;Node1</title>
<path fill="none" stroke="midnightblue" d="M127.52,-70C135.94,-70 144.51,-70 152.79,-70"/>
<polygon fill="midnightblue" stroke="midnightblue" points="127.34,-66.5 117.34,-70 127.34,-73.5 127.34,-66.5"/>
</g>
</g>
</svg>
