<?xml version="1.0" encoding="UTF-8" standalone="no"?>
<!DOCTYPE svg PUBLIC "-//W3C//DTD SVG 1.1//EN"
 "http://www.w3.org/Graphics/SVG/1.1/DTD/svg11.dtd">
<!-- Generated by graphviz version 2.44.0 ()
 -->
<!-- Title: Ogre::GpuResource Pages: 1 -->
<svg width="918pt" height="235pt"
 viewBox="0.00 0.00 918.00 235.00" xmlns="http://www.w3.org/2000/svg" xmlns:xlink="http://www.w3.org/1999/xlink">
<g id="graph0" class="graph" transform="scale(1 1) rotate(0) translate(4 231)">
<title>Ogre::GpuResource</title>
<!-- Node1 -->
<g id="node1" class="node">
<title>Node1</title>
<g id="a_node1"><a xlink:title=" ">
<polygon fill="#bfbfbf" stroke="black" points="116,-104 116,-123 217,-123 217,-104 116,-104"/>
<text text-anchor="middle" x="166.5" y="-111" font-family="Helvetica,sans-Serif" font-size="10.00">Ogre::GpuResource</text>
</a>
</g>
</g>
<!-- Node3 -->
<g id="node3" class="node">
<title>Node3</title>
<g id="a_node3"><a xlink:href="class_ogre_1_1_texture_gpu.html" target="_top" xlink:title=" ">
<polygon fill="none" stroke="black" points="253,-104 253,-123 345,-123 345,-104 253,-104"/>
<text text-anchor="middle" x="299" y="-111" font-family="Helvetica,sans-Serif" font-size="10.00">Ogre::TextureGpu</text>
</a>
</g>
</g>
<!-- Node1&#45;&gt;Node3 -->
<g id="edge2" class="edge">
<title>Node1&#45;&gt;Node3</title>
<path fill="none" stroke="midnightblue" d="M227.47,-113.5C235.95,-113.5 244.56,-113.5 252.71,-113.5"/>
<polygon fill="midnightblue" stroke="midnightblue" points="227.21,-110 217.21,-113.5 227.21,-117 227.21,-110"/>
</g>
<!-- Node2 -->
<g id="node2" class="node">
<title>Node2</title>
<g id="a_node2"><a xlink:href="class_ogre_1_1_allocated_object.html" target="_top" xlink:title="Superclass for all objects that wish to use custom memory allocators when their new / delete operator...">
<polygon fill="none" stroke="black" points="0,-104 0,-123 80,-123 80,-104 0,-104"/>
<text text-anchor="middle" x="40" y="-111" font-family="Helvetica,sans-Serif" font-size="10.00">ResourceAlloc</text>
</a>
</g>
</g>
<!-- Node2&#45;&gt;Node1 -->
<g id="edge1" class="edge">
<title>Node2&#45;&gt;Node1</title>
<path fill="none" stroke="midnightblue" d="M90.07,-113.5C98.46,-113.5 107.19,-113.5 115.6,-113.5"/>
<polygon fill="midnightblue" stroke="midnightblue" points="90.05,-110 80.05,-113.5 90.05,-117 90.05,-110"/>
</g>
<!-- Node4 -->
<g id="node4" class="node">
<title>Node4</title>
<g id="a_node4"><a xlink:href="class_ogre_1_1_d3_d11_texture_gpu.html" target="_top" xlink:title=" ">
<polygon fill="none" stroke="black" points="385.5,-193 385.5,-212 507.5,-212 507.5,-193 385.5,-193"/>
<text text-anchor="middle" x="446.5" y="-200" font-family="Helvetica,sans-Serif" font-size="10.00">Ogre::D3D11TextureGpu</text>
</a>
</g>
</g>
<!-- Node3&#45;&gt;Node4 -->
<g id="edge3" class="edge">
<title>Node3&#45;&gt;Node4</title>
<path fill="none" stroke="midnightblue" d="M318.81,-130.15C334.63,-143.57 358.24,-162.32 381,-175.5 392.77,-182.31 406.58,-188.33 418.4,-192.95"/>
<polygon fill="midnightblue" stroke="midnightblue" points="320.74,-127.19 310.88,-123.3 316.17,-132.49 320.74,-127.19"/>
</g>
<!-- Node7 -->
<g id="node7" class="node">
<title>Node7</title>
<g id="a_node7"><a xlink:href="class_ogre_1_1_g_l3_plus_texture_gpu.html" target="_top" xlink:title=" ">
<polygon fill="none" stroke="black" points="381,-147 381,-166 512,-166 512,-147 381,-147"/>
<text text-anchor="middle" x="446.5" y="-154" font-family="Helvetica,sans-Serif" font-size="10.00">Ogre::GL3PlusTextureGpu</text>
</a>
</g>
</g>
<!-- Node3&#45;&gt;Node7 -->
<g id="edge6" class="edge">
<title>Node3&#45;&gt;Node7</title>
<path fill="none" stroke="midnightblue" d="M342.01,-125.92C364.72,-132.63 392.31,-140.78 413.3,-146.98"/>
<polygon fill="midnightblue" stroke="midnightblue" points="342.87,-122.52 332.29,-123.04 340.89,-129.23 342.87,-122.52"/>
</g>
<!-- Node10 -->
<g id="node10" class="node">
<title>Node10</title>
<g id="a_node10"><a xlink:href="class_ogre_1_1_metal_texture_gpu.html" target="_top" xlink:title=" ">
<polygon fill="none" stroke="black" points="388.5,-104 388.5,-123 504.5,-123 504.5,-104 388.5,-104"/>
<text text-anchor="middle" x="446.5" y="-111" font-family="Helvetica,sans-Serif" font-size="10.00">Ogre::MetalTextureGpu</text>
</a>
</g>
</g>
<!-- Node3&#45;&gt;Node10 -->
<g id="edge9" class="edge">
<title>Node3&#45;&gt;Node10</title>
<path fill="none" stroke="midnightblue" d="M355.41,-113.5C366.23,-113.5 377.6,-113.5 388.47,-113.5"/>
<polygon fill="midnightblue" stroke="midnightblue" points="355.24,-110 345.24,-113.5 355.24,-117 355.24,-110"/>
</g>
<!-- Node13 -->
<g id="node13" class="node">
<title>Node13</title>
<g id="a_node13"><a xlink:href="class_ogre_1_1_n_u_l_l_texture_gpu.html" target="_top" xlink:title=" ">
<polygon fill="none" stroke="black" points="387,-61 387,-80 506,-80 506,-61 387,-61"/>
<text text-anchor="middle" x="446.5" y="-68" font-family="Helvetica,sans-Serif" font-size="10.00">Ogre::NULLTextureGpu</text>
</a>
</g>
</g>
<!-- Node3&#45;&gt;Node13 -->
<g id="edge12" class="edge">
<title>Node3&#45;&gt;Node13</title>
<path fill="none" stroke="midnightblue" d="M342.01,-101.08C364.72,-94.37 392.31,-86.22 413.3,-80.02"/>
<polygon fill="midnightblue" stroke="midnightblue" points="340.89,-97.77 332.29,-103.96 342.87,-104.48 340.89,-97.77"/>
</g>
<!-- Node15 -->
<g id="node15" class="node">
<title>Node15</title>
<g id="a_node15"><a xlink:href="class_ogre_1_1_vulkan_texture_gpu.html" target="_top" xlink:title=" ">
<polygon fill="none" stroke="black" points="385.5,-12 385.5,-31 507.5,-31 507.5,-12 385.5,-12"/>
<text text-anchor="middle" x="446.5" y="-19" font-family="Helvetica,sans-Serif" font-size="10.00">Ogre::VulkanTextureGpu</text>
</a>
</g>
</g>
<!-- Node3&#45;&gt;Node15 -->
<g id="edge14" class="edge">
<title>Node3&#45;&gt;Node15</title>
<path fill="none" stroke="midnightblue" d="M318.95,-97.09C334.85,-83.8 358.5,-65.12 381,-51.5 393.99,-43.63 409.39,-36.4 421.88,-31.01"/>
<polygon fill="midnightblue" stroke="midnightblue" points="316.34,-94.71 310.98,-103.85 320.87,-100.05 316.34,-94.71"/>
</g>
<!-- Node5 -->
<g id="node5" class="node">
<title>Node5</title>
<g id="a_node5"><a xlink:href="class_ogre_1_1_d3_d11_texture_gpu_render_target.html" target="_top" xlink:title=" ">
<polygon fill="none" stroke="black" points="552.5,-196.5 552.5,-226.5 704.5,-226.5 704.5,-196.5 552.5,-196.5"/>
<text text-anchor="start" x="560.5" y="-214.5" font-family="Helvetica,sans-Serif" font-size="10.00">Ogre::D3D11TextureGpuRender</text>
<text text-anchor="middle" x="628.5" y="-203.5" font-family="Helvetica,sans-Serif" font-size="10.00">Target</text>
</a>
</g>
</g>
<!-- Node4&#45;&gt;Node5 -->
<g id="edge4" class="edge">
<title>Node4&#45;&gt;Node5</title>
<path fill="none" stroke="midnightblue" d="M517.91,-206.02C529.2,-206.59 540.93,-207.17 552.32,-207.74"/>
<polygon fill="midnightblue" stroke="midnightblue" points="517.85,-202.51 507.69,-205.51 517.5,-209.5 517.85,-202.51"/>
</g>
<!-- Node6 -->
<g id="node6" class="node">
<title>Node6</title>
<g id="a_node6"><a xlink:href="class_ogre_1_1_d3_d11_texture_gpu_window.html" target="_top" xlink:title=" ">
<polygon fill="none" stroke="black" points="749.5,-202 749.5,-221 905.5,-221 905.5,-202 749.5,-202"/>
<text text-anchor="middle" x="827.5" y="-209" font-family="Helvetica,sans-Serif" font-size="10.00">Ogre::D3D11TextureGpuWindow</text>
</a>
</g>
</g>
<!-- Node5&#45;&gt;Node6 -->
<g id="edge5" class="edge">
<title>Node5&#45;&gt;Node6</title>
<path fill="none" stroke="midnightblue" d="M714.61,-211.5C726.17,-211.5 737.98,-211.5 749.38,-211.5"/>
<polygon fill="midnightblue" stroke="midnightblue" points="714.54,-208 704.54,-211.5 714.54,-215 714.54,-208"/>
</g>
<!-- Node8 -->
<g id="node8" class="node">
<title>Node8</title>
<g id="a_node8"><a xlink:href="class_ogre_1_1_g_l3_plus_texture_gpu_render_target.html" target="_top" xlink:title=" ">
<polygon fill="none" stroke="black" points="548,-147.5 548,-177.5 709,-177.5 709,-147.5 548,-147.5"/>
<text text-anchor="start" x="556" y="-165.5" font-family="Helvetica,sans-Serif" font-size="10.00">Ogre::GL3PlusTextureGpuRender</text>
<text text-anchor="middle" x="628.5" y="-154.5" font-family="Helvetica,sans-Serif" font-size="10.00">Target</text>
</a>
</g>
</g>
<!-- Node7&#45;&gt;Node8 -->
<g id="edge7" class="edge">
<title>Node7&#45;&gt;Node8</title>
<path fill="none" stroke="midnightblue" d="M522.41,-159C530.85,-159.28 539.47,-159.57 547.97,-159.85"/>
<polygon fill="midnightblue" stroke="midnightblue" points="522.34,-155.49 512.23,-158.66 522.11,-162.49 522.34,-155.49"/>
</g>
<!-- Node9 -->
<g id="node9" class="node">
<title>Node9</title>
<g id="a_node9"><a xlink:href="class_ogre_1_1_g_l3_plus_texture_gpu_window.html" target="_top" xlink:title=" ">
<polygon fill="none" stroke="black" points="745,-153 745,-172 910,-172 910,-153 745,-153"/>
<text text-anchor="middle" x="827.5" y="-160" font-family="Helvetica,sans-Serif" font-size="10.00">Ogre::GL3PlusTextureGpuWindow</text>
</a>
</g>
</g>
<!-- Node8&#45;&gt;Node9 -->
<g id="edge8" class="edge">
<title>Node8&#45;&gt;Node9</title>
<path fill="none" stroke="midnightblue" d="M719.32,-162.5C727.79,-162.5 736.33,-162.5 744.72,-162.5"/>
<polygon fill="midnightblue" stroke="midnightblue" points="719.06,-159 709.06,-162.5 719.06,-166 719.06,-159"/>
</g>
<!-- Node11 -->
<g id="node11" class="node">
<title>Node11</title>
<g id="a_node11"><a xlink:href="class_ogre_1_1_metal_texture_gpu_render_target.html" target="_top" xlink:title=" ">
<polygon fill="none" stroke="black" points="555,-98.5 555,-128.5 702,-128.5 702,-98.5 555,-98.5"/>
<text text-anchor="start" x="563" y="-116.5" font-family="Helvetica,sans-Serif" font-size="10.00">Ogre::MetalTextureGpuRender</text>
<text text-anchor="middle" x="628.5" y="-105.5" font-family="Helvetica,sans-Serif" font-size="10.00">Target</text>
</a>
</g>
</g>
<!-- Node10&#45;&gt;Node11 -->
<g id="edge10" class="edge">
<title>Node10&#45;&gt;Node11</title>
<path fill="none" stroke="midnightblue" d="M515.16,-113.5C528.1,-113.5 541.69,-113.5 554.78,-113.5"/>
<polygon fill="midnightblue" stroke="midnightblue" points="514.95,-110 504.95,-113.5 514.95,-117 514.95,-110"/>
</g>
<!-- Node12 -->
<g id="node12" class="node">
<title>Node12</title>
<g id="a_node12"><a xlink:href="class_ogre_1_1_metal_texture_gpu_window.html" target="_top" xlink:title=" ">
<polygon fill="none" stroke="black" points="752,-104 752,-123 903,-123 903,-104 752,-104"/>
<text text-anchor="middle" x="827.5" y="-111" font-family="Helvetica,sans-Serif" font-size="10.00">Ogre::MetalTextureGpuWindow</text>
</a>
</g>
</g>
<!-- Node11&#45;&gt;Node12 -->
<g id="edge11" class="edge">
<title>Node11&#45;&gt;Node12</title>
<path fill="none" stroke="midnightblue" d="M712.02,-113.5C725.22,-113.5 738.82,-113.5 751.83,-113.5"/>
<polygon fill="midnightblue" stroke="midnightblue" points="712.02,-110 702.02,-113.5 712.02,-117 712.02,-110"/>
</g>
<!-- Node14 -->
<g id="node14" class="node">
<title>Node14</title>
<g id="a_node14"><a xlink:href="class_ogre_1_1_n_u_l_l_texture_gpu_render_target.html" target="_top" xlink:title=" ">
<polygon fill="none" stroke="black" points="553.5,-49.5 553.5,-79.5 703.5,-79.5 703.5,-49.5 553.5,-49.5"/>
<text text-anchor="start" x="561.5" y="-67.5" font-family="Helvetica,sans-Serif" font-size="10.00">Ogre::NULLTextureGpuRender</text>
<text text-anchor="middle" x="628.5" y="-56.5" font-family="Helvetica,sans-Serif" font-size="10.00">Target</text>
</a>
</g>
</g>
<!-- Node13&#45;&gt;Node14 -->
<g id="edge13" class="edge">
<title>Node13&#45;&gt;Node14</title>
<path fill="none" stroke="midnightblue" d="M516.79,-68.19C528.75,-67.79 541.22,-67.38 553.3,-66.97"/>
<polygon fill="midnightblue" stroke="midnightblue" points="516.32,-64.7 506.44,-68.54 516.55,-71.7 516.32,-64.7"/>
</g>
<!-- Node16 -->
<g id="node16" class="node">
<title>Node16</title>
<g id="a_node16"><a xlink:href="class_ogre_1_1_vulkan_texture_gpu_render_target.html" target="_top" xlink:title=" ">
<polygon fill="none" stroke="black" points="552,-0.5 552,-30.5 705,-30.5 705,-0.5 552,-0.5"/>
<text text-anchor="start" x="560" y="-18.5" font-family="Helvetica,sans-Serif" font-size="10.00">Ogre::VulkanTextureGpuRender</text>
<text text-anchor="middle" x="628.5" y="-7.5" font-family="Helvetica,sans-Serif" font-size="10.00">Target</text>
</a>
</g>
</g>
<!-- Node15&#45;&gt;Node16 -->
<g id="edge15" class="edge">
<title>Node15&#45;&gt;Node16</title>
<path fill="none" stroke="midnightblue" d="M517.77,-19.16C528.89,-18.79 540.44,-18.4 551.68,-18.03"/>
<polygon fill="midnightblue" stroke="midnightblue" points="517.57,-15.66 507.69,-19.49 517.8,-22.66 517.57,-15.66"/>
</g>
<!-- Node17 -->
<g id="node17" class="node">
<title>Node17</title>
<g id="a_node17"><a xlink:href="class_ogre_1_1_vulkan_texture_gpu_window.html" target="_top" xlink:title=" ">
<polygon fill="none" stroke="black" points="749,-6 749,-25 906,-25 906,-6 749,-6"/>
<text text-anchor="middle" x="827.5" y="-13" font-family="Helvetica,sans-Serif" font-size="10.00">Ogre::VulkanTextureGpuWindow</text>
</a>
</g>
</g>
<!-- Node16&#45;&gt;Node17 -->
<g id="edge16" class="edge">
<title>Node16&#45;&gt;Node17</title>
<path fill="none" stroke="midnightblue" d="M715.27,-15.5C726.42,-15.5 737.8,-15.5 748.82,-15.5"/>
<polygon fill="midnightblue" stroke="midnightblue" points="715.1,-12 705.1,-15.5 715.1,-19 715.1,-12"/>
</g>
</g>
</svg>
