<?xml version="1.0" encoding="UTF-8" standalone="no"?>
<!DOCTYPE svg PUBLIC "-//W3C//DTD SVG 1.1//EN"
 "http://www.w3.org/Graphics/SVG/1.1/DTD/svg11.dtd">
<!-- Generated by graphviz version 2.44.0 ()
 -->
<!-- Title: Ogre::EGLWindow Pages: 1 -->
<svg width="738pt" height="142pt"
 viewBox="0.00 0.00 738.00 142.00" xmlns="http://www.w3.org/2000/svg" xmlns:xlink="http://www.w3.org/1999/xlink">
<g id="graph0" class="graph" transform="scale(1 1) rotate(0) translate(4 138)">
<title>Ogre::EGLWindow</title>
<!-- Node1 -->
<g id="node1" class="node">
<title>Node1</title>
<g id="a_node1"><a xlink:title=" ">
<polygon fill="#bfbfbf" stroke="black" points="453,-57.5 453,-76.5 549,-76.5 549,-57.5 453,-57.5"/>
<text text-anchor="middle" x="501" y="-64.5" font-family="Helvetica,sans-Serif" font-size="10.00">Ogre::EGLWindow</text>
</a>
</g>
</g>
<!-- Node6 -->
<g id="node6" class="node">
<title>Node6</title>
<g id="a_node6"><a xlink:href="class_ogre_1_1_android_e_g_l_window.html" target="_top" xlink:title=" ">
<polygon fill="none" stroke="black" points="593,-114.5 593,-133.5 722,-133.5 722,-114.5 593,-114.5"/>
<text text-anchor="middle" x="657.5" y="-121.5" font-family="Helvetica,sans-Serif" font-size="10.00">Ogre::AndroidEGLWindow</text>
</a>
</g>
</g>
<!-- Node1&#45;&gt;Node6 -->
<g id="edge5" class="edge">
<title>Node1&#45;&gt;Node6</title>
<path fill="none" stroke="midnightblue" d="M529.67,-81.1C545.58,-88.84 566.1,-98.22 585,-105 594.79,-108.51 605.55,-111.71 615.67,-114.43"/>
<polygon fill="midnightblue" stroke="midnightblue" points="530.93,-77.82 520.41,-76.53 527.83,-84.09 530.93,-77.82"/>
</g>
<!-- Node7 -->
<g id="node7" class="node">
<title>Node7</title>
<g id="a_node7"><a xlink:href="class_ogre_1_1_emscripten_e_g_l_window.html" target="_top" xlink:title=" ">
<polygon fill="none" stroke="black" points="585,-76.5 585,-95.5 730,-95.5 730,-76.5 585,-76.5"/>
<text text-anchor="middle" x="657.5" y="-83.5" font-family="Helvetica,sans-Serif" font-size="10.00">Ogre::EmscriptenEGLWindow</text>
</a>
</g>
</g>
<!-- Node1&#45;&gt;Node7 -->
<g id="edge6" class="edge">
<title>Node1&#45;&gt;Node7</title>
<path fill="none" stroke="midnightblue" d="M559.19,-74.03C567.55,-75.06 576.24,-76.13 584.84,-77.19"/>
<polygon fill="midnightblue" stroke="midnightblue" points="559.55,-70.55 549.19,-72.8 558.69,-77.5 559.55,-70.55"/>
</g>
<!-- Node8 -->
<g id="node8" class="node">
<title>Node8</title>
<g id="a_node8"><a xlink:href="class_ogre_1_1_win32_e_g_l_window.html" target="_top" xlink:title=" ">
<polygon fill="none" stroke="black" points="596,-38.5 596,-57.5 719,-57.5 719,-38.5 596,-38.5"/>
<text text-anchor="middle" x="657.5" y="-45.5" font-family="Helvetica,sans-Serif" font-size="10.00">Ogre::Win32EGLWindow</text>
</a>
</g>
</g>
<!-- Node1&#45;&gt;Node8 -->
<g id="edge7" class="edge">
<title>Node1&#45;&gt;Node8</title>
<path fill="none" stroke="midnightblue" d="M559.44,-59.94C571.34,-58.47 583.9,-56.93 595.9,-55.45"/>
<polygon fill="midnightblue" stroke="midnightblue" points="558.69,-56.5 549.19,-61.2 559.55,-63.45 558.69,-56.5"/>
</g>
<!-- Node9 -->
<g id="node9" class="node">
<title>Node9</title>
<g id="a_node9"><a xlink:href="class_ogre_1_1_x11_e_g_l_window.html" target="_top" xlink:title=" ">
<polygon fill="none" stroke="black" points="601,-0.5 601,-19.5 714,-19.5 714,-0.5 601,-0.5"/>
<text text-anchor="middle" x="657.5" y="-7.5" font-family="Helvetica,sans-Serif" font-size="10.00">Ogre::X11EGLWindow</text>
</a>
</g>
</g>
<!-- Node1&#45;&gt;Node9 -->
<g id="edge8" class="edge">
<title>Node1&#45;&gt;Node9</title>
<path fill="none" stroke="midnightblue" d="M529.67,-52.9C545.58,-45.16 566.1,-35.78 585,-29 594.79,-25.49 605.55,-22.29 615.67,-19.57"/>
<polygon fill="midnightblue" stroke="midnightblue" points="527.83,-49.91 520.41,-57.47 530.93,-56.18 527.83,-49.91"/>
</g>
<!-- Node2 -->
<g id="node2" class="node">
<title>Node2</title>
<g id="a_node2"><a xlink:href="class_ogre_1_1_render_window.html" target="_top" xlink:title="Manages the target rendering window.">
<polygon fill="none" stroke="black" points="310,-57.5 310,-76.5 417,-76.5 417,-57.5 310,-57.5"/>
<text text-anchor="middle" x="363.5" y="-64.5" font-family="Helvetica,sans-Serif" font-size="10.00">Ogre::RenderWindow</text>
</a>
</g>
</g>
<!-- Node2&#45;&gt;Node1 -->
<g id="edge1" class="edge">
<title>Node2&#45;&gt;Node1</title>
<path fill="none" stroke="midnightblue" d="M427.3,-67C435.91,-67 444.62,-67 452.89,-67"/>
<polygon fill="midnightblue" stroke="midnightblue" points="427.28,-63.5 417.28,-67 427.28,-70.5 427.28,-63.5"/>
</g>
<!-- Node3 -->
<g id="node3" class="node">
<title>Node3</title>
<g id="a_node3"><a xlink:href="class_ogre_1_1_render_target.html" target="_top" xlink:title="A &#39;canvas&#39; which can receive the results of a rendering operation.">
<polygon fill="none" stroke="black" points="173,-57.5 173,-76.5 274,-76.5 274,-57.5 173,-57.5"/>
<text text-anchor="middle" x="223.5" y="-64.5" font-family="Helvetica,sans-Serif" font-size="10.00">Ogre::RenderTarget</text>
</a>
</g>
</g>
<!-- Node3&#45;&gt;Node2 -->
<g id="edge2" class="edge">
<title>Node3&#45;&gt;Node2</title>
<path fill="none" stroke="midnightblue" d="M284.52,-67C292.99,-67 301.65,-67 309.96,-67"/>
<polygon fill="midnightblue" stroke="midnightblue" points="284.32,-63.5 274.32,-67 284.32,-70.5 284.32,-63.5"/>
</g>
<!-- Node4 -->
<g id="node4" class="node">
<title>Node4</title>
<g id="a_node4"><a xlink:href="struct_ogre_1_1_gpu_tracked_resource.html" target="_top" xlink:title=" ">
<polygon fill="none" stroke="black" points="0,-76.5 0,-95.5 137,-95.5 137,-76.5 0,-76.5"/>
<text text-anchor="middle" x="68.5" y="-83.5" font-family="Helvetica,sans-Serif" font-size="10.00">Ogre::GpuTrackedResource</text>
</a>
</g>
</g>
<!-- Node4&#45;&gt;Node3 -->
<g id="edge3" class="edge">
<title>Node4&#45;&gt;Node3</title>
<path fill="none" stroke="midnightblue" d="M147.23,-76.35C155.91,-75.27 164.57,-74.19 172.77,-73.18"/>
<polygon fill="midnightblue" stroke="midnightblue" points="146.55,-72.91 137.05,-77.61 147.41,-79.85 146.55,-72.91"/>
</g>
<!-- Node5 -->
<g id="node5" class="node">
<title>Node5</title>
<g id="a_node5"><a xlink:href="class_ogre_1_1_allocated_object.html" target="_top" xlink:title="Superclass for all objects that wish to use custom memory allocators when their new / delete operator...">
<polygon fill="none" stroke="black" points="25.5,-38.5 25.5,-57.5 111.5,-57.5 111.5,-38.5 25.5,-38.5"/>
<text text-anchor="middle" x="68.5" y="-45.5" font-family="Helvetica,sans-Serif" font-size="10.00">RenderSysAlloc</text>
</a>
</g>
</g>
<!-- Node5&#45;&gt;Node3 -->
<g id="edge4" class="edge">
<title>Node5&#45;&gt;Node3</title>
<path fill="none" stroke="midnightblue" d="M121.75,-54.49C138.28,-56.54 156.49,-58.8 172.83,-60.83"/>
<polygon fill="midnightblue" stroke="midnightblue" points="122.07,-51 111.71,-53.24 121.21,-57.95 122.07,-51"/>
</g>
</g>
</svg>
