<?xml version="1.0" encoding="UTF-8" standalone="no"?>
<!DOCTYPE svg PUBLIC "-//W3C//DTD SVG 1.1//EN"
 "http://www.w3.org/Graphics/SVG/1.1/DTD/svg11.dtd">
<!-- Generated by graphviz version 2.44.0 ()
 -->
<!-- Title: Ogre::PCZSphereSceneQuery Pages: 1 -->
<svg width="252pt" height="263pt"
 viewBox="0.00 0.00 252.00 263.00" xmlns="http://www.w3.org/2000/svg" xmlns:xlink="http://www.w3.org/1999/xlink">
<g id="graph0" class="graph" transform="scale(1 1) rotate(0) translate(4 259)">
<title>Ogre::PCZSphereSceneQuery</title>
<!-- Node1 -->
<g id="node1" class="node">
<title>Node1</title>
<g id="a_node1"><a xlink:title="PCZ implementation of SphereSceneQuery.">
<polygon fill="#bfbfbf" stroke="black" points="39.5,-0.5 39.5,-19.5 185.5,-19.5 185.5,-0.5 39.5,-0.5"/>
<text text-anchor="middle" x="112.5" y="-7.5" font-family="Helvetica,sans-Serif" font-size="10.00">Ogre::PCZSphereSceneQuery</text>
</a>
</g>
</g>
<!-- Node2 -->
<g id="node2" class="node">
<title>Node2</title>
<g id="a_node2"><a xlink:href="class_ogre_1_1_default_sphere_scene_query.html" target="_top" xlink:title="Default implementation of SphereSceneQuery.">
<polygon fill="none" stroke="black" points="47,-56.5 47,-86.5 178,-86.5 178,-56.5 47,-56.5"/>
<text text-anchor="start" x="55" y="-74.5" font-family="Helvetica,sans-Serif" font-size="10.00">Ogre::DefaultSphereScene</text>
<text text-anchor="middle" x="112.5" y="-63.5" font-family="Helvetica,sans-Serif" font-size="10.00">Query</text>
</a>
</g>
</g>
<!-- Node2&#45;&gt;Node1 -->
<g id="edge1" class="edge">
<title>Node2&#45;&gt;Node1</title>
<path fill="none" stroke="midnightblue" d="M112.5,-46.29C112.5,-36.86 112.5,-26.65 112.5,-19.66"/>
<polygon fill="midnightblue" stroke="midnightblue" points="109,-46.4 112.5,-56.4 116,-46.4 109,-46.4"/>
</g>
<!-- Node3 -->
<g id="node3" class="node">
<title>Node3</title>
<g id="a_node3"><a xlink:href="class_ogre_1_1_sphere_scene_query.html" target="_top" xlink:title="Specialises the SceneQuery class for querying within a sphere.">
<polygon fill="none" stroke="black" points="49.5,-123.5 49.5,-142.5 175.5,-142.5 175.5,-123.5 49.5,-123.5"/>
<text text-anchor="middle" x="112.5" y="-130.5" font-family="Helvetica,sans-Serif" font-size="10.00">Ogre::SphereSceneQuery</text>
</a>
</g>
</g>
<!-- Node3&#45;&gt;Node2 -->
<g id="edge2" class="edge">
<title>Node3&#45;&gt;Node2</title>
<path fill="none" stroke="midnightblue" d="M112.5,-113.23C112.5,-104.59 112.5,-94.5 112.5,-86.52"/>
<polygon fill="midnightblue" stroke="midnightblue" points="109,-113.48 112.5,-123.48 116,-113.48 109,-113.48"/>
</g>
<!-- Node4 -->
<g id="node4" class="node">
<title>Node4</title>
<g id="a_node4"><a xlink:href="class_ogre_1_1_region_scene_query.html" target="_top" xlink:title="Abstract class defining a query which returns single results from a region.">
<polygon fill="none" stroke="black" points="50,-179.5 50,-198.5 175,-198.5 175,-179.5 50,-179.5"/>
<text text-anchor="middle" x="112.5" y="-186.5" font-family="Helvetica,sans-Serif" font-size="10.00">Ogre::RegionSceneQuery</text>
</a>
</g>
</g>
<!-- Node4&#45;&gt;Node3 -->
<g id="edge3" class="edge">
<title>Node4&#45;&gt;Node3</title>
<path fill="none" stroke="midnightblue" d="M112.5,-168.8C112.5,-159.91 112.5,-149.78 112.5,-142.75"/>
<polygon fill="midnightblue" stroke="midnightblue" points="109,-169.08 112.5,-179.08 116,-169.08 109,-169.08"/>
</g>
<!-- Node5 -->
<g id="node5" class="node">
<title>Node5</title>
<g id="a_node5"><a xlink:href="class_ogre_1_1_scene_query.html" target="_top" xlink:title="A class for performing queries on a scene.">
<polygon fill="none" stroke="red" points="0,-235.5 0,-254.5 95,-254.5 95,-235.5 0,-235.5"/>
<text text-anchor="middle" x="47.5" y="-242.5" font-family="Helvetica,sans-Serif" font-size="10.00">Ogre::SceneQuery</text>
</a>
</g>
</g>
<!-- Node5&#45;&gt;Node4 -->
<g id="edge4" class="edge">
<title>Node5&#45;&gt;Node4</title>
<path fill="none" stroke="midnightblue" d="M65.77,-228.82C77.42,-219.15 92.1,-206.95 101.87,-198.83"/>
<polygon fill="midnightblue" stroke="midnightblue" points="63.4,-226.24 57.94,-235.32 67.87,-231.63 63.4,-226.24"/>
</g>
<!-- Node7 -->
<g id="node6" class="node">
<title>Node7</title>
<g id="a_node6"><a xlink:href="class_ogre_1_1_scene_query_listener.html" target="_top" xlink:title="This optional class allows you to receive per&#45;result callbacks from SceneQuery executions instead of ...">
<polygon fill="none" stroke="black" points="113,-235.5 113,-254.5 244,-254.5 244,-235.5 113,-235.5"/>
<text text-anchor="middle" x="178.5" y="-242.5" font-family="Helvetica,sans-Serif" font-size="10.00">Ogre::SceneQueryListener</text>
</a>
</g>
</g>
<!-- Node7&#45;&gt;Node4 -->
<g id="edge5" class="edge">
<title>Node7&#45;&gt;Node4</title>
<path fill="none" stroke="midnightblue" d="M159.95,-228.82C148.12,-219.15 133.21,-206.95 123.3,-198.83"/>
<polygon fill="midnightblue" stroke="midnightblue" points="157.94,-231.7 167.9,-235.32 162.37,-226.28 157.94,-231.7"/>
</g>
</g>
</svg>
