<?xml version="1.0" encoding="UTF-8" standalone="no"?>
<!DOCTYPE svg PUBLIC "-//W3C//DTD SVG 1.1//EN"
 "http://www.w3.org/Graphics/SVG/1.1/DTD/svg11.dtd">
<!-- Generated by graphviz version 2.44.0 ()
 -->
<!-- Title: Ogre::v1::AnimationStateControllerValue Pages: 1 -->
<svg width="132pt" height="162pt"
 viewBox="0.00 0.00 132.00 162.00" xmlns="http://www.w3.org/2000/svg" xmlns:xlink="http://www.w3.org/1999/xlink">
<g id="graph0" class="graph" transform="scale(1 1) rotate(0) translate(4 158)">
<title>Ogre::v1::AnimationStateControllerValue</title>
<!-- Node1 -->
<g id="node1" class="node">
<title>Node1</title>
<g id="a_node1"><a xlink:title="ControllerValue wrapper class for AnimationState.">
<polygon fill="#bfbfbf" stroke="black" points="0,-0.5 0,-30.5 124,-30.5 124,-0.5 0,-0.5"/>
<text text-anchor="start" x="8" y="-18.5" font-family="Helvetica,sans-Serif" font-size="10.00">Ogre::v1::AnimationState</text>
<text text-anchor="middle" x="62" y="-7.5" font-family="Helvetica,sans-Serif" font-size="10.00">ControllerValue</text>
</a>
</g>
</g>
<!-- Node2 -->
<g id="node2" class="node">
<title>Node2</title>
<g id="a_node2"><a xlink:href="class_ogre_1_1_controller_value.html" target="_top" xlink:title=" ">
<polygon fill="none" stroke="black" points="8,-67.5 8,-97.5 116,-97.5 116,-67.5 8,-67.5"/>
<text text-anchor="start" x="16" y="-85.5" font-family="Helvetica,sans-Serif" font-size="10.00">Ogre::ControllerValue</text>
<text text-anchor="middle" x="62" y="-74.5" font-family="Helvetica,sans-Serif" font-size="10.00">&lt; Real &gt;</text>
</a>
</g>
</g>
<!-- Node2&#45;&gt;Node1 -->
<g id="edge1" class="edge">
<title>Node2&#45;&gt;Node1</title>
<path fill="none" stroke="midnightblue" d="M62,-57.11C62,-48.15 62,-38.32 62,-30.58"/>
<polygon fill="midnightblue" stroke="midnightblue" points="58.5,-57.4 62,-67.4 65.5,-57.4 58.5,-57.4"/>
</g>
<!-- Node3 -->
<g id="node3" class="node">
<title>Node3</title>
<g id="a_node3"><a xlink:href="class_ogre_1_1_allocated_object.html" target="_top" xlink:title="Superclass for all objects that wish to use custom memory allocators when their new / delete operator...">
<polygon fill="none" stroke="black" points="22,-134.5 22,-153.5 102,-153.5 102,-134.5 22,-134.5"/>
<text text-anchor="middle" x="62" y="-141.5" font-family="Helvetica,sans-Serif" font-size="10.00">ControllerAlloc</text>
</a>
</g>
</g>
<!-- Node3&#45;&gt;Node2 -->
<g id="edge2" class="edge">
<title>Node3&#45;&gt;Node2</title>
<path fill="none" stroke="midnightblue" d="M62,-124.23C62,-115.59 62,-105.5 62,-97.52"/>
<polygon fill="midnightblue" stroke="midnightblue" points="58.5,-124.48 62,-134.48 65.5,-124.48 58.5,-124.48"/>
</g>
</g>
</svg>
