<?xml version="1.0" encoding="UTF-8" standalone="no"?>
<!DOCTYPE svg PUBLIC "-//W3C//DTD SVG 1.1//EN"
 "http://www.w3.org/Graphics/SVG/1.1/DTD/svg11.dtd">
<!-- Generated by graphviz version 2.44.0 ()
 -->
<!-- Title: Ogre::SceneQuery Pages: 1 -->
<svg width="954pt" height="476pt"
 viewBox="0.00 0.00 954.00 475.50" xmlns="http://www.w3.org/2000/svg" xmlns:xlink="http://www.w3.org/1999/xlink">
<g id="graph0" class="graph" transform="scale(1 1) rotate(0) translate(4 471.5)">
<title>Ogre::SceneQuery</title>
<!-- Node1 -->
<g id="node1" class="node">
<title>Node1</title>
<g id="a_node1"><a xlink:title="A class for performing queries on a scene.">
<polygon fill="#bfbfbf" stroke="black" points="119,-262.5 119,-281.5 214,-281.5 214,-262.5 119,-262.5"/>
<text text-anchor="middle" x="166.5" y="-269.5" font-family="Helvetica,sans-Serif" font-size="10.00">Ogre::SceneQuery</text>
</a>
</g>
</g>
<!-- Node3 -->
<g id="node3" class="node">
<title>Node3</title>
<g id="a_node3"><a xlink:href="class_ogre_1_1_intersection_scene_query.html" target="_top" xlink:title="Separate SceneQuery class to query for pairs of objects which are possibly intersecting one another.">
<polygon fill="none" stroke="black" points="250,-322.5 250,-341.5 396,-341.5 396,-322.5 250,-322.5"/>
<text text-anchor="middle" x="323" y="-329.5" font-family="Helvetica,sans-Serif" font-size="10.00">Ogre::IntersectionSceneQuery</text>
</a>
</g>
</g>
<!-- Node1&#45;&gt;Node3 -->
<g id="edge2" class="edge">
<title>Node1&#45;&gt;Node3</title>
<path fill="none" stroke="midnightblue" d="M201.31,-285.13C230.31,-296.39 271.41,-312.35 297.38,-322.44"/>
<polygon fill="midnightblue" stroke="midnightblue" points="202.57,-281.86 191.98,-281.51 200.04,-288.39 202.57,-281.86"/>
</g>
<!-- Node8 -->
<g id="node8" class="node">
<title>Node8</title>
<g id="a_node8"><a xlink:href="class_ogre_1_1_ray_scene_query.html" target="_top" xlink:title="Specialises the SceneQuery class for querying along a ray.">
<polygon fill="none" stroke="black" points="267,-262.5 267,-281.5 379,-281.5 379,-262.5 267,-262.5"/>
<text text-anchor="middle" x="323" y="-269.5" font-family="Helvetica,sans-Serif" font-size="10.00">Ogre::RaySceneQuery</text>
</a>
</g>
</g>
<!-- Node1&#45;&gt;Node8 -->
<g id="edge7" class="edge">
<title>Node1&#45;&gt;Node8</title>
<path fill="none" stroke="midnightblue" d="M224.64,-272C238.47,-272 253.23,-272 266.96,-272"/>
<polygon fill="midnightblue" stroke="midnightblue" points="224.27,-268.5 214.27,-272 224.27,-275.5 224.27,-268.5"/>
</g>
<!-- Node13 -->
<g id="node13" class="node">
<title>Node13</title>
<g id="a_node13"><a xlink:href="class_ogre_1_1_region_scene_query.html" target="_top" xlink:title="Abstract class defining a query which returns single results from a region.">
<polygon fill="none" stroke="black" points="260.5,-156.5 260.5,-175.5 385.5,-175.5 385.5,-156.5 260.5,-156.5"/>
<text text-anchor="middle" x="323" y="-163.5" font-family="Helvetica,sans-Serif" font-size="10.00">Ogre::RegionSceneQuery</text>
</a>
</g>
</g>
<!-- Node1&#45;&gt;Node13 -->
<g id="edge12" class="edge">
<title>Node1&#45;&gt;Node13</title>
<path fill="none" stroke="midnightblue" d="M189.83,-256.68C222.06,-234.57 280.72,-194.32 307.71,-175.8"/>
<polygon fill="midnightblue" stroke="midnightblue" points="187.75,-253.86 181.48,-262.41 191.71,-259.63 187.75,-253.86"/>
</g>
<!-- Node2 -->
<g id="node2" class="node">
<title>Node2</title>
<g id="a_node2"><a xlink:href="class_ogre_1_1_allocated_object.html" target="_top" xlink:title="Superclass for all objects that wish to use custom memory allocators when their new / delete operator...">
<polygon fill="none" stroke="black" points="0,-262.5 0,-281.5 83,-281.5 83,-262.5 0,-262.5"/>
<text text-anchor="middle" x="41.5" y="-269.5" font-family="Helvetica,sans-Serif" font-size="10.00">SceneMgtAlloc</text>
</a>
</g>
</g>
<!-- Node2&#45;&gt;Node1 -->
<g id="edge1" class="edge">
<title>Node2&#45;&gt;Node1</title>
<path fill="none" stroke="midnightblue" d="M93.3,-272C101.8,-272 110.58,-272 118.96,-272"/>
<polygon fill="midnightblue" stroke="midnightblue" points="93.12,-268.5 83.12,-272 93.12,-275.5 93.12,-268.5"/>
</g>
<!-- Node4 -->
<g id="node4" class="node">
<title>Node4</title>
<g id="a_node4"><a xlink:href="class_ogre_1_1_default_intersection_scene_query.html" target="_top" xlink:title="Default implementation of IntersectionSceneQuery.">
<polygon fill="none" stroke="black" points="441.5,-363 441.5,-393 565.5,-393 565.5,-363 441.5,-363"/>
<text text-anchor="start" x="449.5" y="-381" font-family="Helvetica,sans-Serif" font-size="10.00">Ogre::DefaultIntersection</text>
<text text-anchor="middle" x="503.5" y="-370" font-family="Helvetica,sans-Serif" font-size="10.00">SceneQuery</text>
</a>
</g>
</g>
<!-- Node3&#45;&gt;Node4 -->
<g id="edge3" class="edge">
<title>Node3&#45;&gt;Node4</title>
<path fill="none" stroke="midnightblue" d="M370.93,-344.09C393.35,-349.87 420.4,-356.84 444.13,-362.96"/>
<polygon fill="midnightblue" stroke="midnightblue" points="371.54,-340.64 360.99,-341.53 369.8,-347.42 371.54,-340.64"/>
</g>
<!-- Node5 -->
<g id="node5" class="node">
<title>Node5</title>
<g id="a_node5"><a xlink:href="class_ogre_1_1_bsp_intersection_scene_query.html" target="_top" xlink:title="BSP specialisation of IntersectionSceneQuery.">
<polygon fill="none" stroke="black" points="612.5,-437 612.5,-467 750.5,-467 750.5,-437 612.5,-437"/>
<text text-anchor="start" x="620.5" y="-455" font-family="Helvetica,sans-Serif" font-size="10.00">Ogre::BspIntersectionScene</text>
<text text-anchor="middle" x="681.5" y="-444" font-family="Helvetica,sans-Serif" font-size="10.00">Query</text>
</a>
</g>
</g>
<!-- Node4&#45;&gt;Node5 -->
<g id="edge4" class="edge">
<title>Node4&#45;&gt;Node5</title>
<path fill="none" stroke="midnightblue" d="M543.51,-397.53C563.47,-407.22 588.29,-418.78 611,-428 618.57,-431.07 626.7,-434.11 634.63,-436.94"/>
<polygon fill="midnightblue" stroke="midnightblue" points="544.94,-394.34 534.42,-393.09 541.87,-400.63 544.94,-394.34"/>
</g>
<!-- Node6 -->
<g id="node6" class="node">
<title>Node6</title>
<g id="a_node6"><a xlink:href="class_ogre_1_1_octree_intersection_scene_query.html" target="_top" xlink:title="Octree implementation of IntersectionSceneQuery.">
<polygon fill="none" stroke="black" points="620.5,-388 620.5,-418 742.5,-418 742.5,-388 620.5,-388"/>
<text text-anchor="start" x="628.5" y="-406" font-family="Helvetica,sans-Serif" font-size="10.00">Ogre::OctreeIntersection</text>
<text text-anchor="middle" x="681.5" y="-395" font-family="Helvetica,sans-Serif" font-size="10.00">SceneQuery</text>
</a>
</g>
</g>
<!-- Node4&#45;&gt;Node6 -->
<g id="edge5" class="edge">
<title>Node4&#45;&gt;Node6</title>
<path fill="none" stroke="midnightblue" d="M575.71,-388.11C590.55,-390.22 606.05,-392.42 620.44,-394.47"/>
<polygon fill="midnightblue" stroke="midnightblue" points="575.96,-384.61 565.56,-386.67 574.97,-391.55 575.96,-384.61"/>
</g>
<!-- Node7 -->
<g id="node7" class="node">
<title>Node7</title>
<g id="a_node7"><a xlink:href="class_ogre_1_1_p_c_z_intersection_scene_query.html" target="_top" xlink:title="PCZ implementation of IntersectionSceneQuery.">
<polygon fill="none" stroke="black" points="611.5,-339 611.5,-369 751.5,-369 751.5,-339 611.5,-339"/>
<text text-anchor="start" x="619.5" y="-357" font-family="Helvetica,sans-Serif" font-size="10.00">Ogre::PCZIntersectionScene</text>
<text text-anchor="middle" x="681.5" y="-346" font-family="Helvetica,sans-Serif" font-size="10.00">Query</text>
</a>
</g>
</g>
<!-- Node4&#45;&gt;Node7 -->
<g id="edge6" class="edge">
<title>Node4&#45;&gt;Node7</title>
<path fill="none" stroke="midnightblue" d="M575.77,-368.28C587.53,-366.68 599.7,-365.02 611.41,-363.42"/>
<polygon fill="midnightblue" stroke="midnightblue" points="575,-364.85 565.56,-369.67 575.94,-371.79 575,-364.85"/>
</g>
<!-- Node9 -->
<g id="node9" class="node">
<title>Node9</title>
<g id="a_node9"><a xlink:href="class_ogre_1_1_default_ray_scene_query.html" target="_top" xlink:title="Default implementation of RaySceneQuery.">
<polygon fill="none" stroke="black" points="432,-262.5 432,-281.5 575,-281.5 575,-262.5 432,-262.5"/>
<text text-anchor="middle" x="503.5" y="-269.5" font-family="Helvetica,sans-Serif" font-size="10.00">Ogre::DefaultRaySceneQuery</text>
</a>
</g>
</g>
<!-- Node8&#45;&gt;Node9 -->
<g id="edge8" class="edge">
<title>Node8&#45;&gt;Node9</title>
<path fill="none" stroke="midnightblue" d="M389.4,-272C403.22,-272 417.86,-272 431.86,-272"/>
<polygon fill="midnightblue" stroke="midnightblue" points="389.01,-268.5 379.01,-272 389.01,-275.5 389.01,-268.5"/>
</g>
<!-- Node10 -->
<g id="node10" class="node">
<title>Node10</title>
<g id="a_node10"><a xlink:href="class_ogre_1_1_bsp_ray_scene_query.html" target="_top" xlink:title="BSP specialisation of RaySceneQuery.">
<polygon fill="none" stroke="black" points="617,-300.5 617,-319.5 746,-319.5 746,-300.5 617,-300.5"/>
<text text-anchor="middle" x="681.5" y="-307.5" font-family="Helvetica,sans-Serif" font-size="10.00">Ogre::BspRaySceneQuery</text>
</a>
</g>
</g>
<!-- Node9&#45;&gt;Node10 -->
<g id="edge9" class="edge">
<title>Node9&#45;&gt;Node10</title>
<path fill="none" stroke="midnightblue" d="M558.93,-283.75C583.82,-289.13 612.92,-295.41 636.41,-300.48"/>
<polygon fill="midnightblue" stroke="midnightblue" points="559.43,-280.28 548.91,-281.59 557.95,-287.12 559.43,-280.28"/>
</g>
<!-- Node11 -->
<g id="node11" class="node">
<title>Node11</title>
<g id="a_node11"><a xlink:href="class_ogre_1_1_octree_ray_scene_query.html" target="_top" xlink:title="Octree implementation of RaySceneQuery.">
<polygon fill="none" stroke="black" points="611,-262.5 611,-281.5 752,-281.5 752,-262.5 611,-262.5"/>
<text text-anchor="middle" x="681.5" y="-269.5" font-family="Helvetica,sans-Serif" font-size="10.00">Ogre::OctreeRaySceneQuery</text>
</a>
</g>
</g>
<!-- Node9&#45;&gt;Node11 -->
<g id="edge10" class="edge">
<title>Node9&#45;&gt;Node11</title>
<path fill="none" stroke="midnightblue" d="M585.08,-272C593.66,-272 602.33,-272 610.77,-272"/>
<polygon fill="midnightblue" stroke="midnightblue" points="585.07,-268.5 575.07,-272 585.07,-275.5 585.07,-268.5"/>
</g>
<!-- Node12 -->
<g id="node12" class="node">
<title>Node12</title>
<g id="a_node12"><a xlink:href="class_ogre_1_1_p_c_z_ray_scene_query.html" target="_top" xlink:title="PCZ implementation of RaySceneQuery.">
<polygon fill="none" stroke="black" points="616,-224.5 616,-243.5 747,-243.5 747,-224.5 616,-224.5"/>
<text text-anchor="middle" x="681.5" y="-231.5" font-family="Helvetica,sans-Serif" font-size="10.00">Ogre::PCZRaySceneQuery</text>
</a>
</g>
</g>
<!-- Node9&#45;&gt;Node12 -->
<g id="edge11" class="edge">
<title>Node9&#45;&gt;Node12</title>
<path fill="none" stroke="midnightblue" d="M558.93,-260.25C583.82,-254.87 612.92,-248.59 636.41,-243.52"/>
<polygon fill="midnightblue" stroke="midnightblue" points="557.95,-256.88 548.91,-262.41 559.43,-263.72 557.95,-256.88"/>
</g>
<!-- Node14 -->
<g id="node14" class="node">
<title>Node14</title>
<g id="a_node14"><a xlink:href="class_ogre_1_1_axis_aligned_box_scene_query.html" target="_top" xlink:title="Specialises the SceneQuery class for querying within an axis aligned box.">
<polygon fill="none" stroke="black" points="435,-175 435,-205 572,-205 572,-175 435,-175"/>
<text text-anchor="start" x="443" y="-193" font-family="Helvetica,sans-Serif" font-size="10.00">Ogre::AxisAlignedBoxScene</text>
<text text-anchor="middle" x="503.5" y="-182" font-family="Helvetica,sans-Serif" font-size="10.00">Query</text>
</a>
</g>
</g>
<!-- Node13&#45;&gt;Node14 -->
<g id="edge13" class="edge">
<title>Node13&#45;&gt;Node14</title>
<path fill="none" stroke="midnightblue" d="M395.84,-175.66C408.67,-177.38 422,-179.18 434.71,-180.89"/>
<polygon fill="midnightblue" stroke="midnightblue" points="396.06,-172.16 385.68,-174.29 395.12,-179.09 396.06,-172.16"/>
</g>
<!-- Node18 -->
<g id="node18" class="node">
<title>Node18</title>
<g id="a_node18"><a xlink:href="class_ogre_1_1_plane_bounded_volume_list_scene_query.html" target="_top" xlink:title="Specialises the SceneQuery class for querying within a plane&#45;bounded volume.">
<polygon fill="none" stroke="black" points="434.5,-126 434.5,-156 572.5,-156 572.5,-126 434.5,-126"/>
<text text-anchor="start" x="442.5" y="-144" font-family="Helvetica,sans-Serif" font-size="10.00">Ogre::PlaneBoundedVolume</text>
<text text-anchor="middle" x="503.5" y="-133" font-family="Helvetica,sans-Serif" font-size="10.00">ListSceneQuery</text>
</a>
</g>
</g>
<!-- Node13&#45;&gt;Node18 -->
<g id="edge17" class="edge">
<title>Node13&#45;&gt;Node18</title>
<path fill="none" stroke="midnightblue" d="M395.78,-155.95C408.52,-154.16 421.76,-152.31 434.41,-150.54"/>
<polygon fill="midnightblue" stroke="midnightblue" points="395.1,-152.51 385.68,-157.36 396.07,-159.44 395.1,-152.51"/>
</g>
<!-- Node22 -->
<g id="node22" class="node">
<title>Node22</title>
<g id="a_node22"><a xlink:href="class_ogre_1_1_sphere_scene_query.html" target="_top" xlink:title="Specialises the SceneQuery class for querying within a sphere.">
<polygon fill="none" stroke="black" points="440.5,-63.5 440.5,-82.5 566.5,-82.5 566.5,-63.5 440.5,-63.5"/>
<text text-anchor="middle" x="503.5" y="-70.5" font-family="Helvetica,sans-Serif" font-size="10.00">Ogre::SphereSceneQuery</text>
</a>
</g>
</g>
<!-- Node13&#45;&gt;Node22 -->
<g id="edge21" class="edge">
<title>Node13&#45;&gt;Node22</title>
<path fill="none" stroke="midnightblue" d="M351.61,-151.61C388.48,-132.41 452.76,-98.92 484.17,-82.55"/>
<polygon fill="midnightblue" stroke="midnightblue" points="349.68,-148.67 342.43,-156.4 352.92,-154.88 349.68,-148.67"/>
</g>
<!-- Node15 -->
<g id="node15" class="node">
<title>Node15</title>
<g id="a_node15"><a xlink:href="class_ogre_1_1_default_axis_aligned_box_scene_query.html" target="_top" xlink:title="Default implementation of AxisAlignedBoxSceneQuery.">
<polygon fill="none" stroke="black" points="619.5,-175 619.5,-205 743.5,-205 743.5,-175 619.5,-175"/>
<text text-anchor="start" x="627.5" y="-193" font-family="Helvetica,sans-Serif" font-size="10.00">Ogre::DefaultAxisAligned</text>
<text text-anchor="middle" x="681.5" y="-182" font-family="Helvetica,sans-Serif" font-size="10.00">BoxSceneQuery</text>
</a>
</g>
</g>
<!-- Node14&#45;&gt;Node15 -->
<g id="edge14" class="edge">
<title>Node14&#45;&gt;Node15</title>
<path fill="none" stroke="midnightblue" d="M582.39,-190C594.82,-190 607.52,-190 619.48,-190"/>
<polygon fill="midnightblue" stroke="midnightblue" points="582.04,-186.5 572.04,-190 582.04,-193.5 582.04,-186.5"/>
</g>
<!-- Node16 -->
<g id="node16" class="node">
<title>Node16</title>
<g id="a_node16"><a xlink:href="class_ogre_1_1_octree_axis_aligned_box_scene_query.html" target="_top" xlink:title="Octree implementation of AxisAlignedBoxSceneQuery.">
<polygon fill="none" stroke="black" points="797.5,-224 797.5,-254 936.5,-254 936.5,-224 797.5,-224"/>
<text text-anchor="start" x="805.5" y="-242" font-family="Helvetica,sans-Serif" font-size="10.00">Ogre::OctreeAxisAlignedBox</text>
<text text-anchor="middle" x="867" y="-231" font-family="Helvetica,sans-Serif" font-size="10.00">SceneQuery</text>
</a>
</g>
</g>
<!-- Node15&#45;&gt;Node16 -->
<g id="edge15" class="edge">
<title>Node15&#45;&gt;Node16</title>
<path fill="none" stroke="midnightblue" d="M748.5,-207.62C768.57,-212.98 790.44,-218.82 809.8,-223.99"/>
<polygon fill="midnightblue" stroke="midnightblue" points="749.37,-204.23 738.8,-205.03 747.56,-211 749.37,-204.23"/>
</g>
<!-- Node17 -->
<g id="node17" class="node">
<title>Node17</title>
<g id="a_node17"><a xlink:href="class_ogre_1_1_p_c_z_axis_aligned_box_scene_query.html" target="_top" xlink:title="PCZ implementation of AxisAlignedBoxSceneQuery.">
<polygon fill="none" stroke="black" points="788.5,-175 788.5,-205 945.5,-205 945.5,-175 788.5,-175"/>
<text text-anchor="start" x="796.5" y="-193" font-family="Helvetica,sans-Serif" font-size="10.00">Ogre::PCZAxisAlignedBoxScene</text>
<text text-anchor="middle" x="867" y="-182" font-family="Helvetica,sans-Serif" font-size="10.00">Query</text>
</a>
</g>
</g>
<!-- Node15&#45;&gt;Node17 -->
<g id="edge16" class="edge">
<title>Node15&#45;&gt;Node17</title>
<path fill="none" stroke="midnightblue" d="M753.81,-190C765.08,-190 776.78,-190 788.19,-190"/>
<polygon fill="midnightblue" stroke="midnightblue" points="753.6,-186.5 743.6,-190 753.6,-193.5 753.6,-186.5"/>
</g>
<!-- Node19 -->
<g id="node19" class="node">
<title>Node19</title>
<g id="a_node19"><a xlink:href="class_ogre_1_1_default_plane_bounded_volume_list_scene_query.html" target="_top" xlink:title="Default implementation of PlaneBoundedVolumeListSceneQuery.">
<polygon fill="none" stroke="black" points="613.5,-126 613.5,-156 749.5,-156 749.5,-126 613.5,-126"/>
<text text-anchor="start" x="621.5" y="-144" font-family="Helvetica,sans-Serif" font-size="10.00">Ogre::DefaultPlaneBounded</text>
<text text-anchor="middle" x="681.5" y="-133" font-family="Helvetica,sans-Serif" font-size="10.00">VolumeListSceneQuery</text>
</a>
</g>
</g>
<!-- Node18&#45;&gt;Node19 -->
<g id="edge18" class="edge">
<title>Node18&#45;&gt;Node19</title>
<path fill="none" stroke="midnightblue" d="M582.66,-141C592.85,-141 603.22,-141 613.21,-141"/>
<polygon fill="midnightblue" stroke="midnightblue" points="582.55,-137.5 572.55,-141 582.55,-144.5 582.55,-137.5"/>
</g>
<!-- Node20 -->
<g id="node20" class="node">
<title>Node20</title>
<g id="a_node20"><a xlink:href="class_ogre_1_1_octree_plane_bounded_volume_list_scene_query.html" target="_top" xlink:title="Octree implementation of PlaneBoundedVolumeListSceneQuery.">
<polygon fill="none" stroke="black" points="800,-126 800,-156 934,-156 934,-126 800,-126"/>
<text text-anchor="start" x="808" y="-144" font-family="Helvetica,sans-Serif" font-size="10.00">Ogre::OctreePlaneBounded</text>
<text text-anchor="middle" x="867" y="-133" font-family="Helvetica,sans-Serif" font-size="10.00">VolumeListSceneQuery</text>
</a>
</g>
</g>
<!-- Node19&#45;&gt;Node20 -->
<g id="edge19" class="edge">
<title>Node19&#45;&gt;Node20</title>
<path fill="none" stroke="midnightblue" d="M759.63,-141C772.98,-141 786.74,-141 799.77,-141"/>
<polygon fill="midnightblue" stroke="midnightblue" points="759.53,-137.5 749.53,-141 759.53,-144.5 759.53,-137.5"/>
</g>
<!-- Node21 -->
<g id="node21" class="node">
<title>Node21</title>
<g id="a_node21"><a xlink:href="class_ogre_1_1_p_c_z_plane_bounded_volume_list_scene_query.html" target="_top" xlink:title="PCZ implementation of PlaneBoundedVolumeListSceneQuery.">
<polygon fill="none" stroke="black" points="788,-77 788,-107 946,-107 946,-77 788,-77"/>
<text text-anchor="start" x="796" y="-95" font-family="Helvetica,sans-Serif" font-size="10.00">Ogre::PCZPlaneBoundedVolume</text>
<text text-anchor="middle" x="867" y="-84" font-family="Helvetica,sans-Serif" font-size="10.00">ListSceneQuery</text>
</a>
</g>
</g>
<!-- Node19&#45;&gt;Node21 -->
<g id="edge20" class="edge">
<title>Node19&#45;&gt;Node21</title>
<path fill="none" stroke="midnightblue" d="M748.5,-123.38C768.57,-118.02 790.44,-112.18 809.8,-107.01"/>
<polygon fill="midnightblue" stroke="midnightblue" points="747.56,-120 738.8,-125.97 749.37,-126.77 747.56,-120"/>
</g>
<!-- Node23 -->
<g id="node23" class="node">
<title>Node23</title>
<g id="a_node23"><a xlink:href="class_ogre_1_1_default_sphere_scene_query.html" target="_top" xlink:title="Default implementation of SphereSceneQuery.">
<polygon fill="none" stroke="black" points="616,-33 616,-63 747,-63 747,-33 616,-33"/>
<text text-anchor="start" x="624" y="-51" font-family="Helvetica,sans-Serif" font-size="10.00">Ogre::DefaultSphereScene</text>
<text text-anchor="middle" x="681.5" y="-40" font-family="Helvetica,sans-Serif" font-size="10.00">Query</text>
</a>
</g>
</g>
<!-- Node22&#45;&gt;Node23 -->
<g id="edge22" class="edge">
<title>Node22&#45;&gt;Node23</title>
<path fill="none" stroke="midnightblue" d="M576.78,-62.73C589.68,-60.9 603.05,-59 615.73,-57.2"/>
<polygon fill="midnightblue" stroke="midnightblue" points="575.96,-59.31 566.55,-64.19 576.94,-66.24 575.96,-59.31"/>
</g>
<!-- Node24 -->
<g id="node24" class="node">
<title>Node24</title>
<g id="a_node24"><a xlink:href="class_ogre_1_1_octree_sphere_scene_query.html" target="_top" xlink:title="Octree implementation of SphereSceneQuery.">
<polygon fill="none" stroke="black" points="789.5,-38.5 789.5,-57.5 944.5,-57.5 944.5,-38.5 789.5,-38.5"/>
<text text-anchor="middle" x="867" y="-45.5" font-family="Helvetica,sans-Serif" font-size="10.00">Ogre::OctreeSphereSceneQuery</text>
</a>
</g>
</g>
<!-- Node23&#45;&gt;Node24 -->
<g id="edge23" class="edge">
<title>Node23&#45;&gt;Node24</title>
<path fill="none" stroke="midnightblue" d="M757.23,-48C767.81,-48 778.7,-48 789.32,-48"/>
<polygon fill="midnightblue" stroke="midnightblue" points="757.2,-44.5 747.2,-48 757.2,-51.5 757.2,-44.5"/>
</g>
<!-- Node25 -->
<g id="node25" class="node">
<title>Node25</title>
<g id="a_node25"><a xlink:href="class_ogre_1_1_p_c_z_sphere_scene_query.html" target="_top" xlink:title="PCZ implementation of SphereSceneQuery.">
<polygon fill="none" stroke="black" points="794,-0.5 794,-19.5 940,-19.5 940,-0.5 794,-0.5"/>
<text text-anchor="middle" x="867" y="-7.5" font-family="Helvetica,sans-Serif" font-size="10.00">Ogre::PCZSphereSceneQuery</text>
</a>
</g>
</g>
<!-- Node23&#45;&gt;Node25 -->
<g id="edge24" class="edge">
<title>Node23&#45;&gt;Node25</title>
<path fill="none" stroke="midnightblue" d="M757.19,-32.53C778.47,-28.13 801.01,-23.46 820.03,-19.52"/>
<polygon fill="midnightblue" stroke="midnightblue" points="756.28,-29.15 747.2,-34.6 757.7,-36 756.28,-29.15"/>
</g>
</g>
</svg>
