<?xml version="1.0" encoding="UTF-8" standalone="no"?>
<!DOCTYPE svg PUBLIC "-//W3C//DTD SVG 1.1//EN"
 "http://www.w3.org/Graphics/SVG/1.1/DTD/svg11.dtd">
<!-- Generated by graphviz version 2.44.0 ()
 -->
<!-- Title: Ogre::AxisAlignedBoxSceneQuery Pages: 1 -->
<svg width="322pt" height="341pt"
 viewBox="0.00 0.00 322.00 341.00" xmlns="http://www.w3.org/2000/svg" xmlns:xlink="http://www.w3.org/1999/xlink">
<g id="graph0" class="graph" transform="scale(1 1) rotate(0) translate(4 337)">
<title>Ogre::AxisAlignedBoxSceneQuery</title>
<!-- Node1 -->
<g id="node1" class="node">
<title>Node1</title>
<g id="a_node1"><a xlink:title="Specialises the SceneQuery class for querying within an axis aligned box.">
<polygon fill="#bfbfbf" stroke="black" points="84,-134.5 84,-164.5 221,-164.5 221,-134.5 84,-134.5"/>
<text text-anchor="start" x="92" y="-152.5" font-family="Helvetica,sans-Serif" font-size="10.00">Ogre::AxisAlignedBoxScene</text>
<text text-anchor="middle" x="152.5" y="-141.5" font-family="Helvetica,sans-Serif" font-size="10.00">Query</text>
</a>
</g>
</g>
<!-- Node6 -->
<g id="node6" class="node">
<title>Node6</title>
<g id="a_node6"><a xlink:href="class_ogre_1_1_default_axis_aligned_box_scene_query.html" target="_top" xlink:title="Default implementation of AxisAlignedBoxSceneQuery.">
<polygon fill="none" stroke="black" points="90.5,-67.5 90.5,-97.5 214.5,-97.5 214.5,-67.5 90.5,-67.5"/>
<text text-anchor="start" x="98.5" y="-85.5" font-family="Helvetica,sans-Serif" font-size="10.00">Ogre::DefaultAxisAligned</text>
<text text-anchor="middle" x="152.5" y="-74.5" font-family="Helvetica,sans-Serif" font-size="10.00">BoxSceneQuery</text>
</a>
</g>
</g>
<!-- Node1&#45;&gt;Node6 -->
<g id="edge5" class="edge">
<title>Node1&#45;&gt;Node6</title>
<path fill="none" stroke="midnightblue" d="M152.5,-124.11C152.5,-115.15 152.5,-105.32 152.5,-97.58"/>
<polygon fill="midnightblue" stroke="midnightblue" points="149,-124.4 152.5,-134.4 156,-124.4 149,-124.4"/>
</g>
<!-- Node2 -->
<g id="node2" class="node">
<title>Node2</title>
<g id="a_node2"><a xlink:href="class_ogre_1_1_region_scene_query.html" target="_top" xlink:title="Abstract class defining a query which returns single results from a region.">
<polygon fill="none" stroke="black" points="90,-201.5 90,-220.5 215,-220.5 215,-201.5 90,-201.5"/>
<text text-anchor="middle" x="152.5" y="-208.5" font-family="Helvetica,sans-Serif" font-size="10.00">Ogre::RegionSceneQuery</text>
</a>
</g>
</g>
<!-- Node2&#45;&gt;Node1 -->
<g id="edge1" class="edge">
<title>Node2&#45;&gt;Node1</title>
<path fill="none" stroke="midnightblue" d="M152.5,-191.23C152.5,-182.59 152.5,-172.5 152.5,-164.52"/>
<polygon fill="midnightblue" stroke="midnightblue" points="149,-191.48 152.5,-201.48 156,-191.48 149,-191.48"/>
</g>
<!-- Node3 -->
<g id="node3" class="node">
<title>Node3</title>
<g id="a_node3"><a xlink:href="class_ogre_1_1_scene_query.html" target="_top" xlink:title="A class for performing queries on a scene.">
<polygon fill="none" stroke="black" points="40,-257.5 40,-276.5 135,-276.5 135,-257.5 40,-257.5"/>
<text text-anchor="middle" x="87.5" y="-264.5" font-family="Helvetica,sans-Serif" font-size="10.00">Ogre::SceneQuery</text>
</a>
</g>
</g>
<!-- Node3&#45;&gt;Node2 -->
<g id="edge2" class="edge">
<title>Node3&#45;&gt;Node2</title>
<path fill="none" stroke="midnightblue" d="M105.77,-250.82C117.42,-241.15 132.1,-228.95 141.87,-220.83"/>
<polygon fill="midnightblue" stroke="midnightblue" points="103.4,-248.24 97.94,-257.32 107.87,-253.63 103.4,-248.24"/>
</g>
<!-- Node4 -->
<g id="node4" class="node">
<title>Node4</title>
<g id="a_node4"><a xlink:href="class_ogre_1_1_allocated_object.html" target="_top" xlink:title="Superclass for all objects that wish to use custom memory allocators when their new / delete operator...">
<polygon fill="none" stroke="black" points="46,-313.5 46,-332.5 129,-332.5 129,-313.5 46,-313.5"/>
<text text-anchor="middle" x="87.5" y="-320.5" font-family="Helvetica,sans-Serif" font-size="10.00">SceneMgtAlloc</text>
</a>
</g>
</g>
<!-- Node4&#45;&gt;Node3 -->
<g id="edge3" class="edge">
<title>Node4&#45;&gt;Node3</title>
<path fill="none" stroke="midnightblue" d="M87.5,-302.8C87.5,-293.91 87.5,-283.78 87.5,-276.75"/>
<polygon fill="midnightblue" stroke="midnightblue" points="84,-303.08 87.5,-313.08 91,-303.08 84,-303.08"/>
</g>
<!-- Node5 -->
<g id="node5" class="node">
<title>Node5</title>
<g id="a_node5"><a xlink:href="class_ogre_1_1_scene_query_listener.html" target="_top" xlink:title="This optional class allows you to receive per&#45;result callbacks from SceneQuery executions instead of ...">
<polygon fill="none" stroke="black" points="153,-257.5 153,-276.5 284,-276.5 284,-257.5 153,-257.5"/>
<text text-anchor="middle" x="218.5" y="-264.5" font-family="Helvetica,sans-Serif" font-size="10.00">Ogre::SceneQueryListener</text>
</a>
</g>
</g>
<!-- Node5&#45;&gt;Node2 -->
<g id="edge4" class="edge">
<title>Node5&#45;&gt;Node2</title>
<path fill="none" stroke="midnightblue" d="M199.95,-250.82C188.12,-241.15 173.21,-228.95 163.3,-220.83"/>
<polygon fill="midnightblue" stroke="midnightblue" points="197.94,-253.7 207.9,-257.32 202.37,-248.28 197.94,-253.7"/>
</g>
<!-- Node7 -->
<g id="node7" class="node">
<title>Node7</title>
<g id="a_node7"><a xlink:href="class_ogre_1_1_octree_axis_aligned_box_scene_query.html" target="_top" xlink:title="Octree implementation of AxisAlignedBoxSceneQuery.">
<polygon fill="none" stroke="black" points="0,-0.5 0,-30.5 139,-30.5 139,-0.5 0,-0.5"/>
<text text-anchor="start" x="8" y="-18.5" font-family="Helvetica,sans-Serif" font-size="10.00">Ogre::OctreeAxisAlignedBox</text>
<text text-anchor="middle" x="69.5" y="-7.5" font-family="Helvetica,sans-Serif" font-size="10.00">SceneQuery</text>
</a>
</g>
</g>
<!-- Node6&#45;&gt;Node7 -->
<g id="edge6" class="edge">
<title>Node6&#45;&gt;Node7</title>
<path fill="none" stroke="midnightblue" d="M126.54,-61.17C113.85,-51.23 98.89,-39.51 87.47,-30.58"/>
<polygon fill="midnightblue" stroke="midnightblue" points="124.46,-63.99 134.49,-67.4 128.78,-58.47 124.46,-63.99"/>
</g>
<!-- Node8 -->
<g id="node8" class="node">
<title>Node8</title>
<g id="a_node8"><a xlink:href="class_ogre_1_1_p_c_z_axis_aligned_box_scene_query.html" target="_top" xlink:title="PCZ implementation of AxisAlignedBoxSceneQuery.">
<polygon fill="none" stroke="black" points="157,-0.5 157,-30.5 314,-30.5 314,-0.5 157,-0.5"/>
<text text-anchor="start" x="165" y="-18.5" font-family="Helvetica,sans-Serif" font-size="10.00">Ogre::PCZAxisAlignedBoxScene</text>
<text text-anchor="middle" x="235.5" y="-7.5" font-family="Helvetica,sans-Serif" font-size="10.00">Query</text>
</a>
</g>
</g>
<!-- Node6&#45;&gt;Node8 -->
<g id="edge7" class="edge">
<title>Node6&#45;&gt;Node8</title>
<path fill="none" stroke="midnightblue" d="M178.46,-61.17C191.15,-51.23 206.11,-39.51 217.53,-30.58"/>
<polygon fill="midnightblue" stroke="midnightblue" points="176.22,-58.47 170.51,-67.4 180.54,-63.99 176.22,-58.47"/>
</g>
</g>
</svg>
