<?xml version="1.0" encoding="UTF-8" standalone="no"?>
<!DOCTYPE svg PUBLIC "-//W3C//DTD SVG 1.1//EN"
 "http://www.w3.org/Graphics/SVG/1.1/DTD/svg11.dtd">
<!-- Generated by graphviz version 2.44.0 ()
 -->
<!-- Title: Ogre::ResourceManager Pages: 1 -->
<svg width="649pt" height="446pt"
 viewBox="0.00 0.00 649.00 446.00" xmlns="http://www.w3.org/2000/svg" xmlns:xlink="http://www.w3.org/1999/xlink">
<g id="graph0" class="graph" transform="scale(1 1) rotate(0) translate(4 442)">
<title>Ogre::ResourceManager</title>
<!-- Node1 -->
<g id="node1" class="node">
<title>Node1</title>
<g id="a_node1"><a xlink:title="Defines a generic resource handler.">
<polygon fill="#bfbfbf" stroke="black" points="134,-203.5 134,-222.5 255,-222.5 255,-203.5 134,-203.5"/>
<text text-anchor="middle" x="194.5" y="-210.5" font-family="Helvetica,sans-Serif" font-size="10.00">Ogre::ResourceManager</text>
</a>
</g>
</g>
<!-- Node4 -->
<g id="node4" class="node">
<title>Node4</title>
<g id="a_node4"><a xlink:href="class_ogre_1_1_bsp_resource_manager.html" target="_top" xlink:title="Manages the locating and loading of BSP&#45;based indoor levels.">
<polygon fill="none" stroke="black" points="296,-367.5 296,-386.5 434,-386.5 434,-367.5 296,-367.5"/>
<text text-anchor="middle" x="365" y="-374.5" font-family="Helvetica,sans-Serif" font-size="10.00">Ogre::BspResourceManager</text>
</a>
</g>
</g>
<!-- Node1&#45;&gt;Node4 -->
<g id="edge3" class="edge">
<title>Node1&#45;&gt;Node4</title>
<path fill="none" stroke="midnightblue" d="M202.61,-231.83C215.38,-263.02 245.2,-325.2 291,-358 296.43,-361.89 302.59,-364.98 308.98,-367.44"/>
<polygon fill="midnightblue" stroke="midnightblue" points="205.87,-230.55 198.94,-222.53 199.36,-233.12 205.87,-230.55"/>
</g>
<!-- Node5 -->
<g id="node5" class="node">
<title>Node5</title>
<g id="a_node5"><a xlink:href="class_ogre_1_1_font_manager.html" target="_top" xlink:title="Manages Font resources, parsing .fontdef files and generally organising them.">
<polygon fill="none" stroke="black" points="315.5,-329.5 315.5,-348.5 414.5,-348.5 414.5,-329.5 315.5,-329.5"/>
<text text-anchor="middle" x="365" y="-336.5" font-family="Helvetica,sans-Serif" font-size="10.00">Ogre::FontManager</text>
</a>
</g>
</g>
<!-- Node1&#45;&gt;Node5 -->
<g id="edge4" class="edge">
<title>Node1&#45;&gt;Node5</title>
<path fill="none" stroke="midnightblue" d="M206.78,-231.26C222.6,-255.3 253.67,-297.2 291,-320 298.38,-324.51 306.8,-327.95 315.24,-330.58"/>
<polygon fill="midnightblue" stroke="midnightblue" points="209.65,-229.24 201.31,-222.71 203.75,-233.02 209.65,-229.24"/>
</g>
<!-- Node6 -->
<g id="node6" class="node">
<title>Node6</title>
<g id="a_node6"><a xlink:href="class_ogre_1_1_gpu_program_manager.html" target="_top" xlink:title=" ">
<polygon fill="none" stroke="black" points="298,-291.5 298,-310.5 432,-310.5 432,-291.5 298,-291.5"/>
<text text-anchor="middle" x="365" y="-298.5" font-family="Helvetica,sans-Serif" font-size="10.00">Ogre::GpuProgramManager</text>
</a>
</g>
</g>
<!-- Node1&#45;&gt;Node6 -->
<g id="edge5" class="edge">
<title>Node1&#45;&gt;Node6</title>
<path fill="none" stroke="midnightblue" d="M213.67,-229.33C231.98,-244.97 261.63,-268.17 291,-282 299.06,-285.79 307.98,-288.91 316.75,-291.45"/>
<polygon fill="midnightblue" stroke="midnightblue" points="215.95,-226.67 206.11,-222.74 211.35,-231.95 215.95,-226.67"/>
</g>
<!-- Node13 -->
<g id="node13" class="node">
<title>Node13</title>
<g id="a_node13"><a xlink:href="class_ogre_1_1_high_level_gpu_program_manager.html" target="_top" xlink:title="This ResourceManager manages high&#45;level vertex and fragment programs.">
<polygon fill="none" stroke="black" points="294.5,-242 294.5,-272 435.5,-272 435.5,-242 294.5,-242"/>
<text text-anchor="start" x="302.5" y="-260" font-family="Helvetica,sans-Serif" font-size="10.00">Ogre::HighLevelGpuProgram</text>
<text text-anchor="middle" x="365" y="-249" font-family="Helvetica,sans-Serif" font-size="10.00">Manager</text>
</a>
</g>
</g>
<!-- Node1&#45;&gt;Node13 -->
<g id="edge12" class="edge">
<title>Node1&#45;&gt;Node13</title>
<path fill="none" stroke="midnightblue" d="M241.83,-225.1C261.76,-230.3 285.26,-236.44 306.31,-241.93"/>
<polygon fill="midnightblue" stroke="midnightblue" points="242.62,-221.69 232.06,-222.55 240.85,-228.46 242.62,-221.69"/>
</g>
<!-- Node14 -->
<g id="node14" class="node">
<title>Node14</title>
<g id="a_node14"><a xlink:href="class_ogre_1_1_material_manager.html" target="_top" xlink:title="Class for managing Material settings for Ogre.">
<polygon fill="none" stroke="black" points="308,-203.5 308,-222.5 422,-222.5 422,-203.5 308,-203.5"/>
<text text-anchor="middle" x="365" y="-210.5" font-family="Helvetica,sans-Serif" font-size="10.00">Ogre::MaterialManager</text>
</a>
</g>
</g>
<!-- Node1&#45;&gt;Node14 -->
<g id="edge13" class="edge">
<title>Node1&#45;&gt;Node14</title>
<path fill="none" stroke="midnightblue" d="M265.56,-213C279.7,-213 294.39,-213 307.97,-213"/>
<polygon fill="midnightblue" stroke="midnightblue" points="265.38,-209.5 255.38,-213 265.38,-216.5 265.38,-209.5"/>
</g>
<!-- Node15 -->
<g id="node15" class="node">
<title>Node15</title>
<g id="a_node15"><a xlink:href="class_ogre_1_1_mesh_manager.html" target="_top" xlink:title="Handles the management of mesh resources.">
<polygon fill="none" stroke="black" points="313,-165.5 313,-184.5 417,-184.5 417,-165.5 313,-165.5"/>
<text text-anchor="middle" x="365" y="-172.5" font-family="Helvetica,sans-Serif" font-size="10.00">Ogre::MeshManager</text>
</a>
</g>
</g>
<!-- Node1&#45;&gt;Node15 -->
<g id="edge14" class="edge">
<title>Node1&#45;&gt;Node15</title>
<path fill="none" stroke="midnightblue" d="M247.93,-201.18C271.69,-195.82 299.4,-189.57 321.79,-184.52"/>
<polygon fill="midnightblue" stroke="midnightblue" points="247,-197.8 238.02,-203.41 248.54,-204.63 247,-197.8"/>
</g>
<!-- Node16 -->
<g id="node16" class="node">
<title>Node16</title>
<g id="a_node16"><a xlink:href="class_ogre_1_1_texture_manager.html" target="_top" xlink:title="Class for loading &amp; managing textures.">
<polygon fill="none" stroke="black" points="309,-127.5 309,-146.5 421,-146.5 421,-127.5 309,-127.5"/>
<text text-anchor="middle" x="365" y="-134.5" font-family="Helvetica,sans-Serif" font-size="10.00">Ogre::TextureManager</text>
</a>
</g>
</g>
<!-- Node1&#45;&gt;Node16 -->
<g id="edge15" class="edge">
<title>Node1&#45;&gt;Node16</title>
<path fill="none" stroke="midnightblue" d="M217.17,-197.63C235.94,-184.92 264.21,-167.21 291,-156 299.82,-152.31 309.54,-149.18 318.94,-146.59"/>
<polygon fill="midnightblue" stroke="midnightblue" points="215.02,-194.86 208.77,-203.41 218.99,-200.62 215.02,-194.86"/>
</g>
<!-- Node23 -->
<g id="node23" class="node">
<title>Node23</title>
<g id="a_node23"><a xlink:href="class_ogre_1_1v1_1_1_mesh_manager.html" target="_top" xlink:title="Handles the management of mesh resources.">
<polygon fill="none" stroke="black" points="305.5,-89.5 305.5,-108.5 424.5,-108.5 424.5,-89.5 305.5,-89.5"/>
<text text-anchor="middle" x="365" y="-96.5" font-family="Helvetica,sans-Serif" font-size="10.00">Ogre::v1::MeshManager</text>
</a>
</g>
</g>
<!-- Node1&#45;&gt;Node23 -->
<g id="edge22" class="edge">
<title>Node1&#45;&gt;Node23</title>
<path fill="none" stroke="midnightblue" d="M208.49,-195.24C225.19,-173.71 256.19,-137.87 291,-118 297.82,-114.1 305.46,-110.99 313.15,-108.51"/>
<polygon fill="midnightblue" stroke="midnightblue" points="205.68,-193.15 202.44,-203.24 211.26,-197.38 205.68,-193.15"/>
</g>
<!-- Node24 -->
<g id="node24" class="node">
<title>Node24</title>
<g id="a_node24"><a xlink:href="class_ogre_1_1v1_1_1_old_skeleton_manager.html" target="_top" xlink:title="Handles the management of skeleton resources.">
<polygon fill="none" stroke="black" points="291,-51.5 291,-70.5 439,-70.5 439,-51.5 291,-51.5"/>
<text text-anchor="middle" x="365" y="-58.5" font-family="Helvetica,sans-Serif" font-size="10.00">Ogre::v1::OldSkeletonManager</text>
</a>
</g>
</g>
<!-- Node1&#45;&gt;Node24 -->
<g id="edge23" class="edge">
<title>Node1&#45;&gt;Node24</title>
<path fill="none" stroke="midnightblue" d="M203.82,-194.08C217.61,-164.98 248.02,-109.49 291,-80 296.62,-76.15 302.96,-73.08 309.51,-70.63"/>
<polygon fill="midnightblue" stroke="midnightblue" points="200.63,-192.64 199.64,-203.19 206.99,-195.56 200.63,-192.64"/>
</g>
<!-- Node2 -->
<g id="node2" class="node">
<title>Node2</title>
<g id="a_node2"><a xlink:href="class_ogre_1_1_script_loader.html" target="_top" xlink:title="Abstract class defining the interface used by classes which wish to perform script loading to define ...">
<polygon fill="none" stroke="black" points="0,-222.5 0,-241.5 98,-241.5 98,-222.5 0,-222.5"/>
<text text-anchor="middle" x="49" y="-229.5" font-family="Helvetica,sans-Serif" font-size="10.00">Ogre::ScriptLoader</text>
</a>
</g>
</g>
<!-- Node2&#45;&gt;Node1 -->
<g id="edge1" class="edge">
<title>Node2&#45;&gt;Node1</title>
<path fill="none" stroke="midnightblue" d="M108.33,-224.28C116.79,-223.16 125.5,-222 133.97,-220.88"/>
<polygon fill="midnightblue" stroke="midnightblue" points="107.64,-220.84 98.18,-225.62 108.56,-227.78 107.64,-220.84"/>
</g>
<!-- Node3 -->
<g id="node3" class="node">
<title>Node3</title>
<g id="a_node3"><a xlink:href="class_ogre_1_1_allocated_object.html" target="_top" xlink:title="Superclass for all objects that wish to use custom memory allocators when their new / delete operator...">
<polygon fill="none" stroke="black" points="9,-184.5 9,-203.5 89,-203.5 89,-184.5 9,-184.5"/>
<text text-anchor="middle" x="49" y="-191.5" font-family="Helvetica,sans-Serif" font-size="10.00">ResourceAlloc</text>
</a>
</g>
</g>
<!-- Node3&#45;&gt;Node1 -->
<g id="edge2" class="edge">
<title>Node3&#45;&gt;Node1</title>
<path fill="none" stroke="midnightblue" d="M99.2,-200.51C110.36,-201.99 122.33,-203.58 133.86,-205.1"/>
<polygon fill="midnightblue" stroke="midnightblue" points="99.58,-197.03 89.21,-199.19 98.67,-203.97 99.58,-197.03"/>
</g>
<!-- Node7 -->
<g id="node7" class="node">
<title>Node7</title>
<g id="a_node7"><a xlink:href="class_ogre_1_1_d3_d11_gpu_program_manager.html" target="_top" xlink:title=" ">
<polygon fill="none" stroke="black" points="476,-418.5 476,-437.5 640,-437.5 640,-418.5 476,-418.5"/>
<text text-anchor="middle" x="558" y="-425.5" font-family="Helvetica,sans-Serif" font-size="10.00">Ogre::D3D11GpuProgramManager</text>
</a>
</g>
</g>
<!-- Node6&#45;&gt;Node7 -->
<g id="edge6" class="edge">
<title>Node6&#45;&gt;Node7</title>
<path fill="none" stroke="midnightblue" d="M432.82,-315.33C434.99,-316.75 437.06,-318.3 439,-320 471.06,-348.15 442.56,-381.28 475,-409 479.44,-412.8 484.5,-415.87 489.87,-418.36"/>
<polygon fill="midnightblue" stroke="midnightblue" points="434.46,-312.24 424,-310.52 431.1,-318.38 434.46,-312.24"/>
</g>
<!-- Node8 -->
<g id="node8" class="node">
<title>Node8</title>
<g id="a_node8"><a xlink:href="class_ogre_1_1_d3_d9_gpu_program_manager.html" target="_top" xlink:title=" ">
<polygon fill="none" stroke="black" points="479,-380.5 479,-399.5 637,-399.5 637,-380.5 479,-380.5"/>
<text text-anchor="middle" x="558" y="-387.5" font-family="Helvetica,sans-Serif" font-size="10.00">Ogre::D3D9GpuProgramManager</text>
</a>
</g>
</g>
<!-- Node6&#45;&gt;Node8 -->
<g id="edge7" class="edge">
<title>Node6&#45;&gt;Node8</title>
<path fill="none" stroke="midnightblue" d="M429.82,-314.61C433.03,-316.21 436.11,-318 439,-320 461.81,-335.79 451.98,-355.52 475,-371 480.7,-374.83 487.07,-377.9 493.67,-380.35"/>
<polygon fill="midnightblue" stroke="midnightblue" points="431.09,-311.35 420.52,-310.58 428.31,-317.77 431.09,-311.35"/>
</g>
<!-- Node9 -->
<g id="node9" class="node">
<title>Node9</title>
<g id="a_node9"><a xlink:href="class_ogre_1_1_g_l_e_s2_gpu_program_manager.html" target="_top" xlink:title=" ">
<polygon fill="none" stroke="black" points="475,-342.5 475,-361.5 641,-361.5 641,-342.5 475,-342.5"/>
<text text-anchor="middle" x="558" y="-349.5" font-family="Helvetica,sans-Serif" font-size="10.00">Ogre::GLES2GpuProgramManager</text>
</a>
</g>
</g>
<!-- Node6&#45;&gt;Node9 -->
<g id="edge8" class="edge">
<title>Node6&#45;&gt;Node9</title>
<path fill="none" stroke="midnightblue" d="M415.47,-313.22C423.37,-315.36 431.44,-317.66 439,-320 455.25,-325.04 458.69,-328.18 475,-333 486.63,-336.43 499.34,-339.64 511.21,-342.4"/>
<polygon fill="midnightblue" stroke="midnightblue" points="416.15,-309.78 405.59,-310.6 414.36,-316.54 416.15,-309.78"/>
</g>
<!-- Node10 -->
<g id="node10" class="node">
<title>Node10</title>
<g id="a_node10"><a xlink:href="class_ogre_1_1_g_l_s_l_shader_manager.html" target="_top" xlink:title=" ">
<polygon fill="none" stroke="black" points="489.5,-304.5 489.5,-323.5 626.5,-323.5 626.5,-304.5 489.5,-304.5"/>
<text text-anchor="middle" x="558" y="-311.5" font-family="Helvetica,sans-Serif" font-size="10.00">Ogre::GLSLShaderManager</text>
</a>
</g>
</g>
<!-- Node6&#45;&gt;Node10 -->
<g id="edge9" class="edge">
<title>Node6&#45;&gt;Node10</title>
<path fill="none" stroke="midnightblue" d="M442.34,-306.2C457.84,-307.25 474.05,-308.35 489.23,-309.39"/>
<polygon fill="midnightblue" stroke="midnightblue" points="442.48,-302.7 432.27,-305.51 442.01,-309.68 442.48,-302.7"/>
</g>
<!-- Node11 -->
<g id="node11" class="node">
<title>Node11</title>
<g id="a_node11"><a xlink:href="class_ogre_1_1_metal_gpu_program_manager.html" target="_top" xlink:title=" ">
<polygon fill="none" stroke="black" points="479,-266.5 479,-285.5 637,-285.5 637,-266.5 479,-266.5"/>
<text text-anchor="middle" x="558" y="-273.5" font-family="Helvetica,sans-Serif" font-size="10.00">Ogre::MetalGpuProgramManager</text>
</a>
</g>
</g>
<!-- Node6&#45;&gt;Node11 -->
<g id="edge10" class="edge">
<title>Node6&#45;&gt;Node11</title>
<path fill="none" stroke="midnightblue" d="M442.25,-291.02C456.12,-289.2 470.56,-287.31 484.33,-285.51"/>
<polygon fill="midnightblue" stroke="midnightblue" points="441.73,-287.56 432.27,-292.33 442.64,-294.5 441.73,-287.56"/>
</g>
<!-- Node12 -->
<g id="node12" class="node">
<title>Node12</title>
<g id="a_node12"><a xlink:href="class_ogre_1_1_vulkan_gpu_program_manager.html" target="_top" xlink:title=" ">
<polygon fill="none" stroke="black" points="476,-228.5 476,-247.5 640,-247.5 640,-228.5 476,-228.5"/>
<text text-anchor="middle" x="558" y="-235.5" font-family="Helvetica,sans-Serif" font-size="10.00">Ogre::VulkanGpuProgramManager</text>
</a>
</g>
</g>
<!-- Node6&#45;&gt;Node12 -->
<g id="edge11" class="edge">
<title>Node6&#45;&gt;Node12</title>
<path fill="none" stroke="midnightblue" d="M422.42,-288.47C428.12,-286.57 433.74,-284.42 439,-282 456.7,-273.87 457.19,-264.9 475,-257 483.68,-253.15 493.24,-250.03 502.68,-247.52"/>
<polygon fill="midnightblue" stroke="midnightblue" points="421.33,-285.14 412.81,-291.44 423.39,-291.83 421.33,-285.14"/>
</g>
<!-- Node17 -->
<g id="node17" class="node">
<title>Node17</title>
<g id="a_node17"><a xlink:href="class_ogre_1_1_d3_d11_texture_manager.html" target="_top" xlink:title=" ">
<polygon fill="none" stroke="black" points="487.5,-190.5 487.5,-209.5 628.5,-209.5 628.5,-190.5 487.5,-190.5"/>
<text text-anchor="middle" x="558" y="-197.5" font-family="Helvetica,sans-Serif" font-size="10.00">Ogre::D3D11TextureManager</text>
</a>
</g>
</g>
<!-- Node16&#45;&gt;Node17 -->
<g id="edge16" class="edge">
<title>Node16&#45;&gt;Node17</title>
<path fill="none" stroke="midnightblue" d="M422.42,-149.53C428.12,-151.43 433.74,-153.58 439,-156 456.7,-164.13 457.19,-173.1 475,-181 483.68,-184.85 493.24,-187.97 502.68,-190.48"/>
<polygon fill="midnightblue" stroke="midnightblue" points="423.39,-146.17 412.81,-146.56 421.33,-152.86 423.39,-146.17"/>
</g>
<!-- Node18 -->
<g id="node18" class="node">
<title>Node18</title>
<g id="a_node18"><a xlink:href="class_ogre_1_1_d3_d9_texture_manager.html" target="_top" xlink:title=" ">
<polygon fill="none" stroke="black" points="490,-152.5 490,-171.5 626,-171.5 626,-152.5 490,-152.5"/>
<text text-anchor="middle" x="558" y="-159.5" font-family="Helvetica,sans-Serif" font-size="10.00">Ogre::D3D9TextureManager</text>
</a>
</g>
</g>
<!-- Node16&#45;&gt;Node18 -->
<g id="edge17" class="edge">
<title>Node16&#45;&gt;Node18</title>
<path fill="none" stroke="midnightblue" d="M431.22,-145.54C450.08,-148.01 470.7,-150.7 489.68,-153.19"/>
<polygon fill="midnightblue" stroke="midnightblue" points="431.61,-142.06 421.25,-144.23 430.71,-149 431.61,-142.06"/>
</g>
<!-- Node19 -->
<g id="node19" class="node">
<title>Node19</title>
<g id="a_node19"><a xlink:href="class_ogre_1_1_g_l3_plus_texture_manager.html" target="_top" xlink:title="GL3Plus&#45;specific implementation of a TextureManager.">
<polygon fill="none" stroke="black" points="483,-114.5 483,-133.5 633,-133.5 633,-114.5 483,-114.5"/>
<text text-anchor="middle" x="558" y="-121.5" font-family="Helvetica,sans-Serif" font-size="10.00">Ogre::GL3PlusTextureManager</text>
</a>
</g>
</g>
<!-- Node16&#45;&gt;Node19 -->
<g id="edge18" class="edge">
<title>Node16&#45;&gt;Node19</title>
<path fill="none" stroke="midnightblue" d="M431.34,-132.55C447.88,-131.43 465.75,-130.21 482.69,-129.06"/>
<polygon fill="midnightblue" stroke="midnightblue" points="430.98,-129.07 421.25,-133.24 431.46,-136.05 430.98,-129.07"/>
</g>
<!-- Node20 -->
<g id="node20" class="node">
<title>Node20</title>
<g id="a_node20"><a xlink:href="class_ogre_1_1_g_l_e_s2_texture_manager.html" target="_top" xlink:title="GL ES&#45;specific implementation of a TextureManager.">
<polygon fill="none" stroke="black" points="486.5,-76.5 486.5,-95.5 629.5,-95.5 629.5,-76.5 486.5,-76.5"/>
<text text-anchor="middle" x="558" y="-83.5" font-family="Helvetica,sans-Serif" font-size="10.00">Ogre::GLES2TextureManager</text>
</a>
</g>
</g>
<!-- Node16&#45;&gt;Node20 -->
<g id="edge19" class="edge">
<title>Node16&#45;&gt;Node20</title>
<path fill="none" stroke="midnightblue" d="M415.47,-124.78C423.37,-122.64 431.44,-120.34 439,-118 455.25,-112.96 458.69,-109.82 475,-105 486.63,-101.57 499.34,-98.36 511.21,-95.6"/>
<polygon fill="midnightblue" stroke="midnightblue" points="414.36,-121.46 405.59,-127.4 416.15,-128.22 414.36,-121.46"/>
</g>
<!-- Node21 -->
<g id="node21" class="node">
<title>Node21</title>
<g id="a_node21"><a xlink:href="class_ogre_1_1_metal_texture_manager.html" target="_top" xlink:title=" ">
<polygon fill="none" stroke="black" points="490,-38.5 490,-57.5 626,-57.5 626,-38.5 490,-38.5"/>
<text text-anchor="middle" x="558" y="-45.5" font-family="Helvetica,sans-Serif" font-size="10.00">Ogre::MetalTextureManager</text>
</a>
</g>
</g>
<!-- Node16&#45;&gt;Node21 -->
<g id="edge20" class="edge">
<title>Node16&#45;&gt;Node21</title>
<path fill="none" stroke="midnightblue" d="M429.82,-123.39C433.03,-121.79 436.11,-120 439,-118 461.81,-102.21 451.98,-82.48 475,-67 480.7,-63.17 487.07,-60.1 493.67,-57.65"/>
<polygon fill="midnightblue" stroke="midnightblue" points="428.31,-120.23 420.52,-127.42 431.09,-126.65 428.31,-120.23"/>
</g>
<!-- Node22 -->
<g id="node22" class="node">
<title>Node22</title>
<g id="a_node22"><a xlink:href="class_ogre_1_1_n_u_l_l_texture_manager.html" target="_top" xlink:title=" ">
<polygon fill="none" stroke="black" points="488.5,-0.5 488.5,-19.5 627.5,-19.5 627.5,-0.5 488.5,-0.5"/>
<text text-anchor="middle" x="558" y="-7.5" font-family="Helvetica,sans-Serif" font-size="10.00">Ogre::NULLTextureManager</text>
</a>
</g>
</g>
<!-- Node16&#45;&gt;Node22 -->
<g id="edge21" class="edge">
<title>Node16&#45;&gt;Node22</title>
<path fill="none" stroke="midnightblue" d="M430.24,-124.26C433.36,-122.43 436.31,-120.36 439,-118 471.06,-89.85 442.56,-56.72 475,-29 479.44,-25.2 484.5,-22.13 489.87,-19.64"/>
<polygon fill="midnightblue" stroke="midnightblue" points="428.51,-121.21 421.07,-128.74 431.59,-127.49 428.51,-121.21"/>
</g>
</g>
</svg>
