<?xml version="1.0" encoding="UTF-8" standalone="no"?>
<!DOCTYPE svg PUBLIC "-//W3C//DTD SVG 1.1//EN"
 "http://www.w3.org/Graphics/SVG/1.1/DTD/svg11.dtd">
<!-- Generated by graphviz version 2.43.0 (0)
 -->
<!-- Title: Ogre::v1::MeshSerializerImpl Pages: 1 -->
<svg width="166pt" height="401pt"
 viewBox="0.00 0.00 166.00 401.00" xmlns="http://www.w3.org/2000/svg" xmlns:xlink="http://www.w3.org/1999/xlink">
<g id="graph0" class="graph" transform="scale(1 1) rotate(0) translate(4 397)">
<title>Ogre::v1::MeshSerializerImpl</title>
<!-- Node1 -->
<g id="Node000001" class="node">
<title>Node1</title>
<g id="a_Node000001"><a xlink:title="Internal implementation of Mesh reading / writing for the latest version of the .mesh format.">
<polygon fill="#999999" stroke="#666666" points="158,-283 0,-283 0,-264 158,-264 158,-283"/>
<text text-anchor="middle" x="79" y="-271" font-family="Helvetica,sans-Serif" font-size="10.00">Ogre::v1::MeshSerializerImpl</text>
</a>
</g>
</g>
<!-- Node4 -->
<g id="Node000004" class="node">
<title>Node4</title>
<g id="a_Node000004"><a xlink:href="class_ogre_1_1v1_1_1_mesh_serializer_impl__v1__10.html" target="_top" xlink:title="Class for providing backwards&#45;compatibility for loading version 1.10 of the .mesh format.">
<polygon fill="white" stroke="#666666" points="147,-228 11,-228 11,-198 147,-198 147,-228"/>
<text text-anchor="start" x="19" y="-216" font-family="Helvetica,sans-Serif" font-size="10.00">Ogre::v1::MeshSerializer</text>
<text text-anchor="middle" x="79" y="-205" font-family="Helvetica,sans-Serif" font-size="10.00">Impl_v1_10</text>
</a>
</g>
</g>
<!-- Node1&#45;&gt;Node4 -->
<g id="edge3_Node000001_Node000004" class="edge">
<title>Node1&#45;&gt;Node4</title>
<g id="a_edge3_Node000001_Node000004"><a xlink:title=" ">
<path fill="none" stroke="#63b8ff" d="M79,-253.65C79,-245.36 79,-235.78 79,-228.11"/>
<polygon fill="#63b8ff" stroke="#63b8ff" points="75.5,-253.87 79,-263.87 82.5,-253.87 75.5,-253.87"/>
</a>
</g>
</g>
<!-- Node2 -->
<g id="Node000002" class="node">
<title>Node2</title>
<g id="a_Node000002"><a xlink:href="class_ogre_1_1_serializer.html" target="_top" xlink:title="Generic class for serialising data to / from binary stream&#45;based files.">
<polygon fill="white" stroke="#666666" points="125,-338 33,-338 33,-319 125,-319 125,-338"/>
<text text-anchor="middle" x="79" y="-326" font-family="Helvetica,sans-Serif" font-size="10.00">Ogre::Serializer</text>
</a>
</g>
</g>
<!-- Node2&#45;&gt;Node1 -->
<g id="edge1_Node000001_Node000002" class="edge">
<title>Node2&#45;&gt;Node1</title>
<g id="a_edge1_Node000001_Node000002"><a xlink:title=" ">
<path fill="none" stroke="#63b8ff" d="M79,-308.66C79,-299.93 79,-289.99 79,-283.09"/>
<polygon fill="#63b8ff" stroke="#63b8ff" points="75.5,-308.75 79,-318.75 82.5,-308.75 75.5,-308.75"/>
</a>
</g>
</g>
<!-- Node3 -->
<g id="Node000003" class="node">
<title>Node3</title>
<g id="a_Node000003"><a xlink:title=" ">
<polygon fill="white" stroke="#666666" points="144.5,-393 13.5,-393 13.5,-374 144.5,-374 144.5,-393"/>
<text text-anchor="middle" x="79" y="-381" font-family="Helvetica,sans-Serif" font-size="10.00">Ogre::OgreAllocatedObj</text>
</a>
</g>
</g>
<!-- Node3&#45;&gt;Node2 -->
<g id="edge2_Node000002_Node000003" class="edge">
<title>Node3&#45;&gt;Node2</title>
<g id="a_edge2_Node000002_Node000003"><a xlink:title=" ">
<path fill="none" stroke="#63b8ff" d="M79,-363.66C79,-354.93 79,-344.99 79,-338.09"/>
<polygon fill="#63b8ff" stroke="#63b8ff" points="75.5,-363.75 79,-373.75 82.5,-363.75 75.5,-363.75"/>
</a>
</g>
</g>
<!-- Node5 -->
<g id="Node000005" class="node">
<title>Node5</title>
<g id="a_Node000005"><a xlink:href="class_ogre_1_1v1_1_1_mesh_serializer_impl__v1__8.html" target="_top" xlink:title="Class for providing backwards&#45;compatibility for loading version 1.8 of the .mesh format.">
<polygon fill="white" stroke="#666666" points="147,-162 11,-162 11,-132 147,-132 147,-162"/>
<text text-anchor="start" x="19" y="-150" font-family="Helvetica,sans-Serif" font-size="10.00">Ogre::v1::MeshSerializer</text>
<text text-anchor="middle" x="79" y="-139" font-family="Helvetica,sans-Serif" font-size="10.00">Impl_v1_8</text>
</a>
</g>
</g>
<!-- Node4&#45;&gt;Node5 -->
<g id="edge4_Node000004_Node000005" class="edge">
<title>Node4&#45;&gt;Node5</title>
<g id="a_edge4_Node000004_Node000005"><a xlink:title=" ">
<path fill="none" stroke="#63b8ff" d="M79,-187.54C79,-178.96 79,-169.61 79,-162.16"/>
<polygon fill="#63b8ff" stroke="#63b8ff" points="75.5,-187.8 79,-197.8 82.5,-187.8 75.5,-187.8"/>
</a>
</g>
</g>
<!-- Node6 -->
<g id="Node000006" class="node">
<title>Node6</title>
<g id="a_Node000006"><a xlink:href="class_ogre_1_1v1_1_1_mesh_serializer_impl__v1__41.html" target="_top" xlink:title="Class for providing backwards&#45;compatibility for loading version 1.41 of the .mesh format.">
<polygon fill="white" stroke="#666666" points="147,-96 11,-96 11,-66 147,-66 147,-96"/>
<text text-anchor="start" x="19" y="-84" font-family="Helvetica,sans-Serif" font-size="10.00">Ogre::v1::MeshSerializer</text>
<text text-anchor="middle" x="79" y="-73" font-family="Helvetica,sans-Serif" font-size="10.00">Impl_v1_41</text>
</a>
</g>
</g>
<!-- Node5&#45;&gt;Node6 -->
<g id="edge5_Node000005_Node000006" class="edge">
<title>Node5&#45;&gt;Node6</title>
<g id="a_edge5_Node000005_Node000006"><a xlink:title=" ">
<path fill="none" stroke="#63b8ff" d="M79,-121.54C79,-112.96 79,-103.61 79,-96.16"/>
<polygon fill="#63b8ff" stroke="#63b8ff" points="75.5,-121.8 79,-131.8 82.5,-121.8 75.5,-121.8"/>
</a>
</g>
</g>
<!-- Node7 -->
<g id="Node000007" class="node">
<title>Node7</title>
<g id="a_Node000007"><a xlink:href="class_ogre_1_1v1_1_1_mesh_serializer_impl__v1__4.html" target="_top" xlink:title="Class for providing backwards&#45;compatibility for loading version 1.4 of the .mesh format.">
<polygon fill="#fff0f0" stroke="red" points="147,-30 11,-30 11,0 147,0 147,-30"/>
<text text-anchor="start" x="19" y="-18" font-family="Helvetica,sans-Serif" font-size="10.00">Ogre::v1::MeshSerializer</text>
<text text-anchor="middle" x="79" y="-7" font-family="Helvetica,sans-Serif" font-size="10.00">Impl_v1_4</text>
</a>
</g>
</g>
<!-- Node6&#45;&gt;Node7 -->
<g id="edge6_Node000006_Node000007" class="edge">
<title>Node6&#45;&gt;Node7</title>
<g id="a_edge6_Node000006_Node000007"><a xlink:title=" ">
<path fill="none" stroke="#63b8ff" d="M79,-55.54C79,-46.96 79,-37.61 79,-30.16"/>
<polygon fill="#63b8ff" stroke="#63b8ff" points="75.5,-55.8 79,-65.8 82.5,-55.8 75.5,-55.8"/>
</a>
</g>
</g>
</g>
</svg>
