<?xml version="1.0" encoding="UTF-8" standalone="no"?>
<!DOCTYPE svg PUBLIC "-//W3C//DTD SVG 1.1//EN"
 "http://www.w3.org/Graphics/SVG/1.1/DTD/svg11.dtd">
<!-- Generated by graphviz version 7.0.5 (20221223.1930)
 -->
<!-- Title: Ogre::HlmsLowLevelDatablock Pages: 1 -->
<svg width="160pt" height="137pt"
 viewBox="0.00 0.00 160.00 137.00" xmlns="http://www.w3.org/2000/svg" xmlns:xlink="http://www.w3.org/1999/xlink">
<g id="graph0" class="graph" transform="scale(1 1) rotate(0) translate(4 133)">
<title>Ogre::HlmsLowLevelDatablock</title>
<!-- Node1 -->
<g id="node1" class="node">
<title>Node1</title>
<g id="a_node1"><a xlink:title="Contains information needed by the UI (2D) for OpenGL ES 2.0.">
<polygon fill="#999999" stroke="#666666" points="152,-19 0,-19 0,0 152,0 152,-19"/>
<text text-anchor="middle" x="76" y="-7" font-family="Helvetica,sans-Serif" font-size="10.00">Ogre::HlmsLowLevelDatablock</text>
</a>
</g>
</g>
<!-- Node2 -->
<g id="node2" class="node">
<title>Node2</title>
<g id="a_node2"><a xlink:href="class_ogre_1_1_hlms_datablock.html" target="_top" xlink:title="An hlms datablock contains individual information about a specific material.">
<polygon fill="white" stroke="#666666" points="130.5,-74 21.5,-74 21.5,-55 130.5,-55 130.5,-74"/>
<text text-anchor="middle" x="76" y="-62" font-family="Helvetica,sans-Serif" font-size="10.00">Ogre::HlmsDatablock</text>
</a>
</g>
</g>
<!-- Node2&#45;&gt;Node1 -->
<g id="edge1" class="edge">
<title>Node2&#45;&gt;Node1</title>
<path fill="none" stroke="#63b8ff" d="M76,-43.35C76,-35.1 76,-25.97 76,-19.44"/>
<polygon fill="#63b8ff" stroke="#63b8ff" points="72.5,-43.23 76,-53.23 79.5,-43.23 72.5,-43.23"/>
</g>
<!-- Node3 -->
<g id="node3" class="node">
<title>Node3</title>
<g id="a_node3"><a xlink:title=" ">
<polygon fill="white" stroke="#666666" points="135.5,-129 16.5,-129 16.5,-110 135.5,-110 135.5,-129"/>
<text text-anchor="middle" x="76" y="-117" font-family="Helvetica,sans-Serif" font-size="10.00">Ogre::OgreAllocatedObj</text>
</a>
</g>
</g>
<!-- Node3&#45;&gt;Node2 -->
<g id="edge2" class="edge">
<title>Node3&#45;&gt;Node2</title>
<path fill="none" stroke="#63b8ff" d="M76,-98.35C76,-90.1 76,-80.97 76,-74.44"/>
<polygon fill="#63b8ff" stroke="#63b8ff" points="72.5,-98.23 76,-108.23 79.5,-98.23 72.5,-98.23"/>
</g>
</g>
</svg>
