<?xml version="1.0" encoding="UTF-8" standalone="no"?>
<!DOCTYPE svg PUBLIC "-//W3C//DTD SVG 1.1//EN"
 "http://www.w3.org/Graphics/SVG/1.1/DTD/svg11.dtd">
<!-- Generated by graphviz version 7.0.5 (20221223.1930)
 -->
<!-- Title: Ogre::VaoManager Pages: 1 -->
<svg width="431pt" height="212pt"
 viewBox="0.00 0.00 431.00 212.00" xmlns="http://www.w3.org/2000/svg" xmlns:xlink="http://www.w3.org/1999/xlink">
<g id="graph0" class="graph" transform="scale(1 1) rotate(0) translate(4 208)">
<title>Ogre::VaoManager</title>
<!-- Node1 -->
<g id="node1" class="node">
<title>Node1</title>
<g id="a_node1"><a xlink:title=" ">
<polygon fill="#999999" stroke="#666666" points="252,-111 155,-111 155,-92 252,-92 252,-111"/>
<text text-anchor="middle" x="203.5" y="-99" font-family="Helvetica,sans-Serif" font-size="10.00">Ogre::VaoManager</text>
</a>
</g>
</g>
<!-- Node3 -->
<g id="node3" class="node">
<title>Node3</title>
<g id="a_node3"><a xlink:href="class_ogre_1_1_d3_d11_vao_manager.html" target="_top" xlink:title=" ">
<polygon fill="white" stroke="#666666" points="418.5,-204 292.5,-204 292.5,-185 418.5,-185 418.5,-204"/>
<text text-anchor="middle" x="355.5" y="-192" font-family="Helvetica,sans-Serif" font-size="10.00">Ogre::D3D11VaoManager</text>
</a>
</g>
</g>
<!-- Node1&#45;&gt;Node3 -->
<g id="edge2" class="edge">
<title>Node1&#45;&gt;Node3</title>
<path fill="none" stroke="#63b8ff" d="M220.27,-119.94C235.83,-137.01 261.14,-161.89 288,-176.5 293.88,-179.7 300.38,-182.36 306.93,-184.57"/>
<polygon fill="#63b8ff" stroke="#63b8ff" points="222.93,-117.67 213.68,-112.5 217.69,-122.31 222.93,-117.67"/>
</g>
<!-- Node4 -->
<g id="node4" class="node">
<title>Node4</title>
<g id="a_node4"><a xlink:href="class_ogre_1_1_g_l3_plus_vao_manager.html" target="_top" xlink:title=" ">
<polygon fill="white" stroke="#666666" points="423,-167 288,-167 288,-148 423,-148 423,-167"/>
<text text-anchor="middle" x="355.5" y="-155" font-family="Helvetica,sans-Serif" font-size="10.00">Ogre::GL3PlusVaoManager</text>
</a>
</g>
</g>
<!-- Node1&#45;&gt;Node4 -->
<g id="edge3" class="edge">
<title>Node1&#45;&gt;Node4</title>
<path fill="none" stroke="#63b8ff" d="M234.21,-116.45C249.94,-123.99 269.74,-132.92 288,-139.5 296.21,-142.46 305.15,-145.19 313.73,-147.59"/>
<polygon fill="#63b8ff" stroke="#63b8ff" points="235.91,-113.39 225.39,-112.15 232.85,-119.68 235.91,-113.39"/>
</g>
<!-- Node5 -->
<g id="node5" class="node">
<title>Node5</title>
<g id="a_node5"><a xlink:href="class_ogre_1_1_g_l_e_s2_vao_manager.html" target="_top" xlink:title=" ">
<polygon fill="white" stroke="#666666" points="419.5,-130 291.5,-130 291.5,-111 419.5,-111 419.5,-130"/>
<text text-anchor="middle" x="355.5" y="-118" font-family="Helvetica,sans-Serif" font-size="10.00">Ogre::GLES2VaoManager</text>
</a>
</g>
</g>
<!-- Node1&#45;&gt;Node5 -->
<g id="edge4" class="edge">
<title>Node1&#45;&gt;Node5</title>
<path fill="none" stroke="#63b8ff" d="M263.63,-108.99C272.68,-110.14 282.06,-111.32 291.2,-112.48"/>
<polygon fill="#63b8ff" stroke="#63b8ff" points="264.24,-105.54 253.87,-107.75 263.36,-112.48 264.24,-105.54"/>
</g>
<!-- Node6 -->
<g id="node6" class="node">
<title>Node6</title>
<g id="a_node6"><a xlink:href="class_ogre_1_1_metal_vao_manager.html" target="_top" xlink:title=" ">
<polygon fill="white" stroke="#666666" points="416,-93 295,-93 295,-74 416,-74 416,-93"/>
<text text-anchor="middle" x="355.5" y="-81" font-family="Helvetica,sans-Serif" font-size="10.00">Ogre::MetalVaoManager</text>
</a>
</g>
</g>
<!-- Node1&#45;&gt;Node6 -->
<g id="edge5" class="edge">
<title>Node1&#45;&gt;Node6</title>
<path fill="none" stroke="#63b8ff" d="M263.68,-94.4C273.88,-93.17 284.49,-91.9 294.71,-90.68"/>
<polygon fill="#63b8ff" stroke="#63b8ff" points="263.39,-90.91 253.88,-95.57 264.22,-97.86 263.39,-90.91"/>
</g>
<!-- Node7 -->
<g id="node7" class="node">
<title>Node7</title>
<g id="a_node7"><a xlink:href="class_ogre_1_1_n_u_l_l_vao_manager.html" target="_top" xlink:title=" ">
<polygon fill="white" stroke="#666666" points="417.5,-56 293.5,-56 293.5,-37 417.5,-37 417.5,-56"/>
<text text-anchor="middle" x="355.5" y="-44" font-family="Helvetica,sans-Serif" font-size="10.00">Ogre::NULLVaoManager</text>
</a>
</g>
</g>
<!-- Node1&#45;&gt;Node7 -->
<g id="edge6" class="edge">
<title>Node1&#45;&gt;Node7</title>
<path fill="none" stroke="#63b8ff" d="M234.56,-86.84C250.25,-79.54 269.91,-70.91 288,-64.5 296.23,-61.58 305.17,-58.86 313.75,-56.47"/>
<polygon fill="#63b8ff" stroke="#63b8ff" points="233.31,-83.56 225.77,-91 236.3,-89.89 233.31,-83.56"/>
</g>
<!-- Node8 -->
<g id="node8" class="node">
<title>Node8</title>
<g id="a_node8"><a xlink:href="class_ogre_1_1_vulkan_vao_manager.html" target="_top" xlink:title=" ">
<polygon fill="white" stroke="#666666" points="419,-19 292,-19 292,0 419,0 419,-19"/>
<text text-anchor="middle" x="355.5" y="-7" font-family="Helvetica,sans-Serif" font-size="10.00">Ogre::VulkanVaoManager</text>
</a>
</g>
</g>
<!-- Node1&#45;&gt;Node8 -->
<g id="edge7" class="edge">
<title>Node1&#45;&gt;Node8</title>
<path fill="none" stroke="#63b8ff" d="M220.57,-83.05C236.19,-66.22 261.39,-41.86 288,-27.5 293.89,-24.32 300.39,-21.67 306.95,-19.47"/>
<polygon fill="#63b8ff" stroke="#63b8ff" points="218.05,-80.62 213.94,-90.38 223.24,-85.31 218.05,-80.62"/>
</g>
<!-- Node2 -->
<g id="node2" class="node">
<title>Node2</title>
<g id="a_node2"><a xlink:title=" ">
<polygon fill="white" stroke="#666666" points="119,-111 0,-111 0,-92 119,-92 119,-111"/>
<text text-anchor="middle" x="59.5" y="-99" font-family="Helvetica,sans-Serif" font-size="10.00">Ogre::OgreAllocatedObj</text>
</a>
</g>
</g>
<!-- Node2&#45;&gt;Node1 -->
<g id="edge1" class="edge">
<title>Node2&#45;&gt;Node1</title>
<path fill="none" stroke="#63b8ff" d="M130.86,-101.5C138.94,-101.5 147.03,-101.5 154.71,-101.5"/>
<polygon fill="#63b8ff" stroke="#63b8ff" points="131,-98 121,-101.5 131,-105 131,-98"/>
</g>
</g>
</svg>
