<?xml version="1.0" encoding="UTF-8" standalone="no"?>
<!DOCTYPE svg PUBLIC "-//W3C//DTD SVG 1.1//EN"
 "http://www.w3.org/Graphics/SVG/1.1/DTD/svg11.dtd">
<!-- Generated by graphviz version 7.0.5 (20221223.1930)
 -->
<!-- Title: Ogre::TextureGpuListener Pages: 1 -->
<svg width="541pt" height="495pt"
 viewBox="0.00 0.00 541.00 495.00" xmlns="http://www.w3.org/2000/svg" xmlns:xlink="http://www.w3.org/1999/xlink">
<g id="graph0" class="graph" transform="scale(1 1) rotate(0) translate(4 491)">
<title>Ogre::TextureGpuListener</title>
<!-- Node1 -->
<g id="node1" class="node">
<title>Node1</title>
<g id="a_node1"><a xlink:title=" ">
<polygon fill="#999999" stroke="#666666" points="128,-216 0,-216 0,-197 128,-197 128,-216"/>
<text text-anchor="middle" x="64" y="-204" font-family="Helvetica,sans-Serif" font-size="10.00">Ogre::TextureGpuListener</text>
</a>
</g>
</g>
<!-- Node2 -->
<g id="node2" class="node">
<title>Node2</title>
<g id="a_node2"><a xlink:href="class_ogre_1_1_async_texture_ticket.html" target="_top" xlink:title="In Ogre 2.2 reading data from GPU back to CPU is asynchronous.">
<polygon fill="white" stroke="#666666" points="310.5,-401 182.5,-401 182.5,-382 310.5,-382 310.5,-401"/>
<text text-anchor="middle" x="246.5" y="-389" font-family="Helvetica,sans-Serif" font-size="10.00">Ogre::AsyncTextureTicket</text>
</a>
</g>
</g>
<!-- Node1&#45;&gt;Node2 -->
<g id="edge1" class="edge">
<title>Node1&#45;&gt;Node2</title>
<path fill="none" stroke="#63b8ff" d="M71.08,-226.83C82.85,-262.48 112.24,-336.04 164,-373.5 169.52,-377.49 175.76,-380.63 182.26,-383.08"/>
<polygon fill="#63b8ff" stroke="#63b8ff" points="74.56,-226.23 68.22,-217.74 67.89,-228.33 74.56,-226.23"/>
</g>
<!-- Node8 -->
<g id="node8" class="node">
<title>Node8</title>
<g id="a_node8"><a xlink:href="class_ogre_1_1_compositor_pass_uav.html" target="_top" xlink:title="Implementation of CompositorPass This implementation will set UAVs.">
<polygon fill="white" stroke="#666666" points="312.5,-364 180.5,-364 180.5,-345 312.5,-345 312.5,-364"/>
<text text-anchor="middle" x="246.5" y="-352" font-family="Helvetica,sans-Serif" font-size="10.00">Ogre::CompositorPassUav</text>
</a>
</g>
</g>
<!-- Node1&#45;&gt;Node8 -->
<g id="edge7" class="edge">
<title>Node1&#45;&gt;Node8</title>
<path fill="none" stroke="#63b8ff" d="M74.38,-226.33C89.17,-255.33 120.74,-308.85 164,-336.5 169.01,-339.7 174.5,-342.34 180.19,-344.51"/>
<polygon fill="#63b8ff" stroke="#63b8ff" points="77.61,-224.98 70.06,-217.55 71.33,-228.07 77.61,-224.98"/>
</g>
<!-- Node9 -->
<g id="node9" class="node">
<title>Node9</title>
<g id="a_node9"><a xlink:href="class_ogre_1_1_decal.html" target="_top" xlink:title="Decals can have diffuse, normal map, and emissive on top of regular objects.">
<polygon fill="white" stroke="#666666" points="280,-327 213,-327 213,-308 280,-308 280,-327"/>
<text text-anchor="middle" x="246.5" y="-315" font-family="Helvetica,sans-Serif" font-size="10.00">Ogre::Decal</text>
</a>
</g>
</g>
<!-- Node1&#45;&gt;Node9 -->
<g id="edge8" class="edge">
<title>Node1&#45;&gt;Node9</title>
<path fill="none" stroke="#63b8ff" d="M79.56,-225.27C97.19,-246.64 128.92,-280.98 164,-299.5 178.99,-307.42 197.3,-311.86 212.77,-314.34"/>
<polygon fill="#63b8ff" stroke="#63b8ff" points="82.43,-223.25 73.44,-217.64 76.97,-227.63 82.43,-223.25"/>
</g>
<!-- Node10 -->
<g id="node10" class="node">
<title>Node10</title>
<g id="a_node10"><a xlink:href="class_ogre_1_1_font.html" target="_top" xlink:title="Class representing a font in the system.">
<polygon fill="white" stroke="#666666" points="277.5,-290 215.5,-290 215.5,-271 277.5,-271 277.5,-290"/>
<text text-anchor="middle" x="246.5" y="-278" font-family="Helvetica,sans-Serif" font-size="10.00">Ogre::Font</text>
</a>
</g>
</g>
<!-- Node1&#45;&gt;Node10 -->
<g id="edge9" class="edge">
<title>Node1&#45;&gt;Node10</title>
<path fill="none" stroke="#63b8ff" d="M88.96,-222.75C108.41,-235.27 136.96,-252.13 164,-262.5 180.37,-268.78 199.47,-273.14 215.07,-276"/>
<polygon fill="#63b8ff" stroke="#63b8ff" points="90.96,-219.88 80.68,-217.32 87.12,-225.73 90.96,-219.88"/>
</g>
<!-- Node11 -->
<g id="node11" class="node">
<title>Node11</title>
<g id="a_node11"><a xlink:href="class_ogre_1_1_hlms_compute_job.html" target="_top" xlink:title=" ">
<polygon fill="white" stroke="#666666" points="306.5,-253 186.5,-253 186.5,-234 306.5,-234 306.5,-253"/>
<text text-anchor="middle" x="246.5" y="-241" font-family="Helvetica,sans-Serif" font-size="10.00">Ogre::HlmsComputeJob</text>
</a>
</g>
</g>
<!-- Node1&#45;&gt;Node11 -->
<g id="edge10" class="edge">
<title>Node1&#45;&gt;Node11</title>
<path fill="none" stroke="#63b8ff" d="M124.61,-218.72C148.1,-223.53 174.72,-228.99 197,-233.56"/>
<polygon fill="#63b8ff" stroke="#63b8ff" points="125.35,-215.3 114.85,-216.72 123.95,-222.16 125.35,-215.3"/>
</g>
<!-- Node12 -->
<g id="node12" class="node">
<title>Node12</title>
<g id="a_node12"><a xlink:href="class_ogre_1_1_light.html" target="_top" xlink:title="Representation of a dynamic light source in the scene.">
<polygon fill="white" stroke="#666666" points="278.5,-216 214.5,-216 214.5,-197 278.5,-197 278.5,-216"/>
<text text-anchor="middle" x="246.5" y="-204" font-family="Helvetica,sans-Serif" font-size="10.00">Ogre::Light</text>
</a>
</g>
</g>
<!-- Node1&#45;&gt;Node12 -->
<g id="edge11" class="edge">
<title>Node1&#45;&gt;Node12</title>
<path fill="none" stroke="#63b8ff" d="M139.79,-206.5C165.82,-206.5 193.62,-206.5 214.17,-206.5"/>
<polygon fill="#63b8ff" stroke="#63b8ff" points="139.9,-203 129.9,-206.5 139.9,-210 139.9,-203"/>
</g>
<!-- Node13 -->
<g id="node13" class="node">
<title>Node13</title>
<g id="a_node13"><a xlink:href="class_ogre_1_1_o_g_r_e___h_l_m_s___t_e_x_t_u_r_e___b_a_s_e___c_l_a_s_s.html" target="_top" xlink:title="This is not a regular header, therefore it has no include guards.">
<polygon fill="white" stroke="#666666" points="323.5,-178.5 169.5,-178.5 169.5,-148.5 323.5,-148.5 323.5,-178.5"/>
<text text-anchor="start" x="177.5" y="-166.5" font-family="Helvetica,sans-Serif" font-size="10.00">Ogre::OGRE_HLMS_TEXTURE</text>
<text text-anchor="middle" x="246.5" y="-155.5" font-family="Helvetica,sans-Serif" font-size="10.00">_BASE_CLASS</text>
</a>
</g>
</g>
<!-- Node1&#45;&gt;Node13 -->
<g id="edge12" class="edge">
<title>Node1&#45;&gt;Node13</title>
<path fill="none" stroke="#63b8ff" d="M118.03,-193.87C137.6,-189.2 160.01,-183.87 180.53,-178.98"/>
<polygon fill="#63b8ff" stroke="#63b8ff" points="117.25,-190.45 108.34,-196.18 118.88,-197.26 117.25,-190.45"/>
</g>
<!-- Node14 -->
<g id="node14" class="node">
<title>Node14</title>
<g id="a_node14"><a xlink:href="class_ogre_1_1_texture_gpu_manager.html" target="_top" xlink:title="This class manages all textures (i.e.">
<polygon fill="white" stroke="#666666" points="311.5,-130 181.5,-130 181.5,-111 311.5,-111 311.5,-130"/>
<text text-anchor="middle" x="246.5" y="-118" font-family="Helvetica,sans-Serif" font-size="10.00">Ogre::TextureGpuManager</text>
</a>
</g>
</g>
<!-- Node1&#45;&gt;Node14 -->
<g id="edge13" class="edge">
<title>Node1&#45;&gt;Node14</title>
<path fill="none" stroke="#63b8ff" d="M85.05,-189.66C104.18,-174.42 134.39,-152.44 164,-139.5 172.25,-135.89 181.29,-132.92 190.25,-130.48"/>
<polygon fill="#63b8ff" stroke="#63b8ff" points="83.08,-186.75 77.53,-195.78 87.5,-192.18 83.08,-186.75"/>
</g>
<!-- Node20 -->
<g id="node20" class="node">
<title>Node20</title>
<g id="a_node20"><a xlink:href="class_ogre_1_1_texture_gpu_manager_listener.html" target="_top" xlink:title=" ">
<polygon fill="white" stroke="#666666" points="329,-93 164,-93 164,-74 329,-74 329,-93"/>
<text text-anchor="middle" x="246.5" y="-81" font-family="Helvetica,sans-Serif" font-size="10.00">Ogre::TextureGpuManagerListener</text>
</a>
</g>
</g>
<!-- Node1&#45;&gt;Node20 -->
<g id="edge19" class="edge">
<title>Node1&#45;&gt;Node20</title>
<path fill="none" stroke="#63b8ff" d="M77.82,-187.33C94.71,-163.64 126.68,-123.85 164,-102.5 170.43,-98.82 177.54,-95.85 184.79,-93.46"/>
<polygon fill="#63b8ff" stroke="#63b8ff" points="75.02,-185.22 72.21,-195.43 80.78,-189.21 75.02,-185.22"/>
</g>
<!-- Node22 -->
<g id="node22" class="node">
<title>Node22</title>
<g id="a_node22"><a xlink:href="class_ogre_1_1_texture_unit_state.html" target="_top" xlink:title="Class representing the state of a single texture unit during a Pass of a Technique,...">
<polygon fill="white" stroke="#666666" points="304.5,-56 188.5,-56 188.5,-37 304.5,-37 304.5,-56"/>
<text text-anchor="middle" x="246.5" y="-44" font-family="Helvetica,sans-Serif" font-size="10.00">Ogre::TextureUnitState</text>
</a>
</g>
</g>
<!-- Node1&#45;&gt;Node22 -->
<g id="edge21" class="edge">
<title>Node1&#45;&gt;Node22</title>
<path fill="none" stroke="#63b8ff" d="M73.37,-186.39C87.35,-155.37 118.5,-96.22 164,-65.5 171.22,-60.62 179.54,-56.99 188.04,-54.28"/>
<polygon fill="#63b8ff" stroke="#63b8ff" points="70.23,-184.83 69.46,-195.4 76.65,-187.62 70.23,-184.83"/>
</g>
<!-- Node23 -->
<g id="node23" class="node">
<title>Node23</title>
<g id="a_node23"><a xlink:href="class_ogre_1_1_vct_lighting.html" target="_top" xlink:title=" ">
<polygon fill="white" stroke="#666666" points="292.5,-19 200.5,-19 200.5,0 292.5,0 292.5,-19"/>
<text text-anchor="middle" x="246.5" y="-7" font-family="Helvetica,sans-Serif" font-size="10.00">Ogre::VctLighting</text>
</a>
</g>
</g>
<!-- Node1&#45;&gt;Node23 -->
<g id="edge22" class="edge">
<title>Node1&#45;&gt;Node23</title>
<path fill="none" stroke="#63b8ff" d="M70.33,-185.81C81.18,-148.06 109.55,-68.17 164,-27.5 174.45,-19.7 187.62,-15.15 200.32,-12.55"/>
<polygon fill="#63b8ff" stroke="#63b8ff" points="66.97,-184.85 67.71,-195.42 73.72,-186.69 66.97,-184.85"/>
</g>
<!-- Node3 -->
<g id="node3" class="node">
<title>Node3</title>
<g id="a_node3"><a xlink:href="class_ogre_1_1_d3_d11_async_texture_ticket.html" target="_top" xlink:title="See AsyncTextureTicket.">
<polygon fill="white" stroke="#666666" points="528,-487 370,-487 370,-468 528,-468 528,-487"/>
<text text-anchor="middle" x="449" y="-475" font-family="Helvetica,sans-Serif" font-size="10.00">Ogre::D3D11AsyncTextureTicket</text>
</a>
</g>
</g>
<!-- Node2&#45;&gt;Node3 -->
<g id="edge2" class="edge">
<title>Node2&#45;&gt;Node3</title>
<path fill="none" stroke="#63b8ff" d="M270.92,-407.61C293.93,-422.76 330.5,-445.05 365,-458.5 374.23,-462.1 384.31,-465.11 394.17,-467.6"/>
<polygon fill="#63b8ff" stroke="#63b8ff" points="273.16,-404.9 262.91,-402.25 269.27,-410.72 273.16,-404.9"/>
</g>
<!-- Node4 -->
<g id="node4" class="node">
<title>Node4</title>
<g id="a_node4"><a xlink:href="class_ogre_1_1_g_l3_plus_async_texture_ticket.html" target="_top" xlink:title="See AsyncTextureTicket.">
<polygon fill="white" stroke="#666666" points="519,-449.5 379,-449.5 379,-419.5 519,-419.5 519,-449.5"/>
<text text-anchor="start" x="387" y="-437.5" font-family="Helvetica,sans-Serif" font-size="10.00">Ogre::GL3PlusAsyncTexture</text>
<text text-anchor="middle" x="449" y="-426.5" font-family="Helvetica,sans-Serif" font-size="10.00">Ticket</text>
</a>
</g>
</g>
<!-- Node2&#45;&gt;Node4 -->
<g id="edge3" class="edge">
<title>Node2&#45;&gt;Node4</title>
<path fill="none" stroke="#63b8ff" d="M305.26,-403.89C328.13,-408.79 354.63,-414.48 378.54,-419.6"/>
<polygon fill="#63b8ff" stroke="#63b8ff" points="305.99,-400.47 295.48,-401.79 304.53,-407.31 305.99,-400.47"/>
</g>
<!-- Node5 -->
<g id="node5" class="node">
<title>Node5</title>
<g id="a_node5"><a xlink:href="class_ogre_1_1_metal_async_texture_ticket.html" target="_top" xlink:title="See AsyncTextureTicket.">
<polygon fill="white" stroke="#666666" points="525,-401 373,-401 373,-382 525,-382 525,-401"/>
<text text-anchor="middle" x="449" y="-389" font-family="Helvetica,sans-Serif" font-size="10.00">Ogre::MetalAsyncTextureTicket</text>
</a>
</g>
</g>
<!-- Node2&#45;&gt;Node5 -->
<g id="edge4" class="edge">
<title>Node2&#45;&gt;Node5</title>
<path fill="none" stroke="#63b8ff" d="M322.18,-391.5C338.68,-391.5 356.17,-391.5 372.7,-391.5"/>
<polygon fill="#63b8ff" stroke="#63b8ff" points="322.45,-388 312.45,-391.5 322.45,-395 322.45,-388"/>
</g>
<!-- Node6 -->
<g id="node6" class="node">
<title>Node6</title>
<g id="a_node6"><a xlink:href="class_ogre_1_1_n_u_l_l_async_texture_ticket.html" target="_top" xlink:title="See AsyncTextureTicket.">
<polygon fill="white" stroke="#666666" points="526.5,-364 371.5,-364 371.5,-345 526.5,-345 526.5,-364"/>
<text text-anchor="middle" x="449" y="-352" font-family="Helvetica,sans-Serif" font-size="10.00">Ogre::NULLAsyncTextureTicket</text>
</a>
</g>
</g>
<!-- Node2&#45;&gt;Node6 -->
<g id="edge5" class="edge">
<title>Node2&#45;&gt;Node6</title>
<path fill="none" stroke="#63b8ff" d="M312.51,-379.5C338.82,-374.65 368.83,-369.11 393.91,-364.48"/>
<polygon fill="#63b8ff" stroke="#63b8ff" points="312.18,-376 302.98,-381.26 313.45,-382.89 312.18,-376"/>
</g>
<!-- Node7 -->
<g id="node7" class="node">
<title>Node7</title>
<g id="a_node7"><a xlink:href="class_ogre_1_1_vulkan_async_texture_ticket.html" target="_top" xlink:title="See AsyncTextureTicket.">
<polygon fill="white" stroke="#666666" points="514.5,-326.5 383.5,-326.5 383.5,-296.5 514.5,-296.5 514.5,-326.5"/>
<text text-anchor="start" x="391.5" y="-314.5" font-family="Helvetica,sans-Serif" font-size="10.00">Ogre::VulkanAsyncTexture</text>
<text text-anchor="middle" x="449" y="-303.5" font-family="Helvetica,sans-Serif" font-size="10.00">Ticket</text>
</a>
</g>
</g>
<!-- Node2&#45;&gt;Node7 -->
<g id="edge6" class="edge">
<title>Node2&#45;&gt;Node7</title>
<path fill="none" stroke="#63b8ff" d="M320.79,-377.56C323.61,-376.32 326.36,-374.97 329,-373.5 349.04,-362.33 345.39,-348.41 365,-336.5 371.05,-332.83 377.67,-329.66 384.45,-326.94"/>
<polygon fill="#63b8ff" stroke="#63b8ff" points="319.79,-374.19 311.71,-381.04 322.3,-380.73 319.79,-374.19"/>
</g>
<!-- Node15 -->
<g id="node15" class="node">
<title>Node15</title>
<g id="a_node15"><a xlink:href="class_ogre_1_1_d3_d11_texture_gpu_manager.html" target="_top" xlink:title=" ">
<polygon fill="white" stroke="#666666" points="528.5,-223 369.5,-223 369.5,-204 528.5,-204 528.5,-223"/>
<text text-anchor="middle" x="449" y="-211" font-family="Helvetica,sans-Serif" font-size="10.00">Ogre::D3D11TextureGpuManager</text>
</a>
</g>
</g>
<!-- Node14&#45;&gt;Node15 -->
<g id="edge14" class="edge">
<title>Node14&#45;&gt;Node15</title>
<path fill="none" stroke="#63b8ff" d="M322.09,-135.2C324.48,-136.52 326.8,-137.95 329,-139.5 353.18,-156.55 340.69,-178.63 365,-195.5 369.6,-198.69 374.67,-201.34 379.96,-203.52"/>
<polygon fill="#63b8ff" stroke="#63b8ff" points="323.77,-132.13 313.23,-131.07 320.81,-138.47 323.77,-132.13"/>
</g>
<!-- Node16 -->
<g id="node16" class="node">
<title>Node16</title>
<g id="a_node16"><a xlink:href="class_ogre_1_1_g_l3_plus_texture_gpu_manager.html" target="_top" xlink:title=" ">
<polygon fill="white" stroke="#666666" points="533,-186 365,-186 365,-167 533,-167 533,-186"/>
<text text-anchor="middle" x="449" y="-174" font-family="Helvetica,sans-Serif" font-size="10.00">Ogre::GL3PlusTextureGpuManager</text>
</a>
</g>
</g>
<!-- Node14&#45;&gt;Node16 -->
<g id="edge15" class="edge">
<title>Node14&#45;&gt;Node16</title>
<path fill="none" stroke="#63b8ff" d="M310.2,-133.38C316.61,-135.22 322.98,-137.25 329,-139.5 345.95,-145.83 348,-152.3 365,-158.5 373.59,-161.63 382.89,-164.3 392.04,-166.55"/>
<polygon fill="#63b8ff" stroke="#63b8ff" points="311.42,-130.09 300.86,-130.88 309.61,-136.85 311.42,-130.09"/>
</g>
<!-- Node17 -->
<g id="node17" class="node">
<title>Node17</title>
<g id="a_node17"><a xlink:href="class_ogre_1_1_metal_texture_gpu_manager.html" target="_top" xlink:title=" ">
<polygon fill="white" stroke="#666666" points="526,-149 372,-149 372,-130 526,-130 526,-149"/>
<text text-anchor="middle" x="449" y="-137" font-family="Helvetica,sans-Serif" font-size="10.00">Ogre::MetalTextureGpuManager</text>
</a>
</g>
</g>
<!-- Node14&#45;&gt;Node17 -->
<g id="edge16" class="edge">
<title>Node14&#45;&gt;Node17</title>
<path fill="none" stroke="#63b8ff" d="M323.18,-127.67C339.1,-129.18 355.91,-130.77 371.85,-132.28"/>
<polygon fill="#63b8ff" stroke="#63b8ff" points="323.56,-124.19 313.27,-126.73 322.9,-131.16 323.56,-124.19"/>
</g>
<!-- Node18 -->
<g id="node18" class="node">
<title>Node18</title>
<g id="a_node18"><a xlink:href="class_ogre_1_1_n_u_l_l_texture_gpu_manager.html" target="_top" xlink:title=" ">
<polygon fill="white" stroke="#666666" points="527.5,-112 370.5,-112 370.5,-93 527.5,-93 527.5,-112"/>
<text text-anchor="middle" x="449" y="-100" font-family="Helvetica,sans-Serif" font-size="10.00">Ogre::NULLTextureGpuManager</text>
</a>
</g>
</g>
<!-- Node14&#45;&gt;Node18 -->
<g id="edge17" class="edge">
<title>Node14&#45;&gt;Node18</title>
<path fill="none" stroke="#63b8ff" d="M322.83,-113.74C338.27,-112.35 354.54,-110.89 370.07,-109.5"/>
<polygon fill="#63b8ff" stroke="#63b8ff" points="322.92,-110.21 313.27,-114.6 323.55,-117.19 322.92,-110.21"/>
</g>
<!-- Node19 -->
<g id="node19" class="node">
<title>Node19</title>
<g id="a_node19"><a xlink:href="class_ogre_1_1_vulkan_texture_gpu_manager.html" target="_top" xlink:title=" ">
<polygon fill="white" stroke="#666666" points="529,-75 369,-75 369,-56 529,-56 529,-75"/>
<text text-anchor="middle" x="449" y="-63" font-family="Helvetica,sans-Serif" font-size="10.00">Ogre::VulkanTextureGpuManager</text>
</a>
</g>
</g>
<!-- Node14&#45;&gt;Node19 -->
<g id="edge18" class="edge">
<title>Node14&#45;&gt;Node19</title>
<path fill="none" stroke="#63b8ff" d="M312.42,-107.69C318.08,-106.12 323.67,-104.39 329,-102.5 345.86,-96.53 348.16,-90.54 365,-84.5 374.74,-81.01 385.36,-78 395.65,-75.48"/>
<polygon fill="#63b8ff" stroke="#63b8ff" points="311.77,-104.25 302.98,-110.16 313.54,-111.02 311.77,-104.25"/>
</g>
<!-- Node21 -->
<g id="node21" class="node">
<title>Node21</title>
<g id="a_node21"><a xlink:href="class_ogre_1_1_default_texture_gpu_manager_listener.html" target="_top" xlink:title="This is a Default implementation of TextureGpuManagerListener based on heuristics.">
<polygon fill="white" stroke="#666666" points="529.5,-37.5 368.5,-37.5 368.5,-7.5 529.5,-7.5 529.5,-37.5"/>
<text text-anchor="start" x="376.5" y="-25.5" font-family="Helvetica,sans-Serif" font-size="10.00">Ogre::DefaultTextureGpuManager</text>
<text text-anchor="middle" x="449" y="-14.5" font-family="Helvetica,sans-Serif" font-size="10.00">Listener</text>
</a>
</g>
</g>
<!-- Node20&#45;&gt;Node21 -->
<g id="edge20" class="edge">
<title>Node20&#45;&gt;Node21</title>
<path fill="none" stroke="#63b8ff" d="M312.73,-70.74C318.29,-69.16 323.78,-67.42 329,-65.5 345.99,-59.27 348.22,-53.27 365,-46.5 372.65,-43.41 380.84,-40.54 389,-37.94"/>
<polygon fill="#63b8ff" stroke="#63b8ff" points="312.24,-67.25 303.47,-73.2 314.03,-74.02 312.24,-67.25"/>
</g>
</g>
</svg>
