<?xml version="1.0" encoding="UTF-8" standalone="no"?>
<!DOCTYPE svg PUBLIC "-//W3C//DTD SVG 1.1//EN"
 "http://www.w3.org/Graphics/SVG/1.1/DTD/svg11.dtd">
<!-- Generated by graphviz version 3.0.0 (20220413.0242)
 -->
<!-- Title: Ogre::TextureFilter::FilterBase Pages: 1 -->
<svg width="406pt" height="235pt"
 viewBox="0.00 0.00 406.00 235.00" xmlns="http://www.w3.org/2000/svg" xmlns:xlink="http://www.w3.org/1999/xlink">
<g id="graph0" class="graph" transform="scale(1 1) rotate(0) translate(4 231)">
<title>Ogre::TextureFilter::FilterBase</title>
<!-- Node1 -->
<g id="node1" class="node">
<title>Node1</title>
<g id="a_node1"><a xlink:title=" ">
<polygon fill="#bfbfbf" stroke="black" points="129,-98.5 129,-128.5 225,-128.5 225,-98.5 129,-98.5"/>
<text text-anchor="start" x="137" y="-116.5" font-family="Helvetica,sans-Serif" font-size="10.00">Ogre::TextureFilter</text>
<text text-anchor="middle" x="177" y="-105.5" font-family="Helvetica,sans-Serif" font-size="10.00">::FilterBase</text>
</a>
</g>
</g>
<!-- Node3 -->
<g id="node3" class="node">
<title>Node3</title>
<g id="a_node3"><a xlink:href="class_ogre_1_1_texture_filter_1_1_generate_hw_mipmaps.html" target="_top" xlink:title=" ">
<polygon fill="none" stroke="black" points="271.5,-196.5 271.5,-226.5 387.5,-226.5 387.5,-196.5 271.5,-196.5"/>
<text text-anchor="start" x="279.5" y="-214.5" font-family="Helvetica,sans-Serif" font-size="10.00">Ogre::TextureFilter</text>
<text text-anchor="middle" x="329.5" y="-203.5" font-family="Helvetica,sans-Serif" font-size="10.00">::GenerateHwMipmaps</text>
</a>
</g>
</g>
<!-- Node1&#45;&gt;Node3 -->
<g id="edge2" class="edge">
<title>Node1&#45;&gt;Node3</title>
<path fill="none" stroke="midnightblue" d="M198.76,-136.21C214.52,-152.35 237.45,-173.55 261,-187.5 266.67,-190.86 272.89,-193.86 279.18,-196.5"/>
<polygon fill="midnightblue" stroke="midnightblue" points="201.06,-133.56 191.62,-128.75 196,-138.39 201.06,-133.56"/>
</g>
<!-- Node4 -->
<g id="node4" class="node">
<title>Node4</title>
<g id="a_node4"><a xlink:href="class_ogre_1_1_texture_filter_1_1_generate_sw_mipmaps.html" target="_top" xlink:title=" ">
<polygon fill="none" stroke="black" points="272,-147.5 272,-177.5 387,-177.5 387,-147.5 272,-147.5"/>
<text text-anchor="start" x="280" y="-165.5" font-family="Helvetica,sans-Serif" font-size="10.00">Ogre::TextureFilter</text>
<text text-anchor="middle" x="329.5" y="-154.5" font-family="Helvetica,sans-Serif" font-size="10.00">::GenerateSwMipmaps</text>
</a>
</g>
</g>
<!-- Node1&#45;&gt;Node4 -->
<g id="edge3" class="edge">
<title>Node1&#45;&gt;Node4</title>
<path fill="none" stroke="midnightblue" d="M234.08,-131.76C249.96,-136.93 267.05,-142.49 282.27,-147.45"/>
<polygon fill="midnightblue" stroke="midnightblue" points="234.98,-128.37 224.38,-128.6 232.81,-135.03 234.98,-128.37"/>
</g>
<!-- Node5 -->
<g id="node5" class="node">
<title>Node5</title>
<g id="a_node5"><a xlink:href="class_ogre_1_1_texture_filter_1_1_leave_channel_r.html" target="_top" xlink:title=" ">
<polygon fill="none" stroke="black" points="281.5,-98.5 281.5,-128.5 377.5,-128.5 377.5,-98.5 281.5,-98.5"/>
<text text-anchor="start" x="289.5" y="-116.5" font-family="Helvetica,sans-Serif" font-size="10.00">Ogre::TextureFilter</text>
<text text-anchor="middle" x="329.5" y="-105.5" font-family="Helvetica,sans-Serif" font-size="10.00">::LeaveChannelR</text>
</a>
</g>
</g>
<!-- Node1&#45;&gt;Node5 -->
<g id="edge4" class="edge">
<title>Node1&#45;&gt;Node5</title>
<path fill="none" stroke="midnightblue" d="M235.52,-113.5C250.7,-113.5 266.91,-113.5 281.46,-113.5"/>
<polygon fill="midnightblue" stroke="midnightblue" points="235.21,-110 225.21,-113.5 235.21,-117 235.21,-110"/>
</g>
<!-- Node6 -->
<g id="node6" class="node">
<title>Node6</title>
<g id="a_node6"><a xlink:href="class_ogre_1_1_texture_filter_1_1_premultiply_alpha.html" target="_top" xlink:title=" ">
<polygon fill="none" stroke="black" points="281.5,-49.5 281.5,-79.5 377.5,-79.5 377.5,-49.5 281.5,-49.5"/>
<text text-anchor="start" x="289.5" y="-67.5" font-family="Helvetica,sans-Serif" font-size="10.00">Ogre::TextureFilter</text>
<text text-anchor="middle" x="329.5" y="-56.5" font-family="Helvetica,sans-Serif" font-size="10.00">::PremultiplyAlpha</text>
</a>
</g>
</g>
<!-- Node1&#45;&gt;Node6 -->
<g id="edge5" class="edge">
<title>Node1&#45;&gt;Node6</title>
<path fill="none" stroke="midnightblue" d="M234.08,-95.24C249.96,-90.07 267.05,-84.51 282.27,-79.55"/>
<polygon fill="midnightblue" stroke="midnightblue" points="232.81,-91.97 224.38,-98.4 234.98,-98.63 232.81,-91.97"/>
</g>
<!-- Node7 -->
<g id="node7" class="node">
<title>Node7</title>
<g id="a_node7"><a xlink:href="class_ogre_1_1_texture_filter_1_1_prepare_for_normal_mapping.html" target="_top" xlink:title=" ">
<polygon fill="none" stroke="black" points="261,-0.5 261,-30.5 398,-30.5 398,-0.5 261,-0.5"/>
<text text-anchor="start" x="269" y="-18.5" font-family="Helvetica,sans-Serif" font-size="10.00">Ogre::TextureFilter</text>
<text text-anchor="middle" x="329.5" y="-7.5" font-family="Helvetica,sans-Serif" font-size="10.00">::PrepareForNormalMapping</text>
</a>
</g>
</g>
<!-- Node1&#45;&gt;Node7 -->
<g id="edge6" class="edge">
<title>Node1&#45;&gt;Node7</title>
<path fill="none" stroke="midnightblue" d="M198.76,-90.79C214.52,-74.65 237.45,-53.45 261,-39.5 266.67,-36.14 272.89,-33.14 279.18,-30.5"/>
<polygon fill="midnightblue" stroke="midnightblue" points="196,-88.61 191.62,-98.25 201.06,-93.44 196,-88.61"/>
</g>
<!-- Node2 -->
<g id="node2" class="node">
<title>Node2</title>
<g id="a_node2"><a xlink:href="class_ogre_1_1_allocated_object.html" target="_top" xlink:title="Superclass for all objects that wish to use custom memory allocators when their new / delete operator...">
<polygon fill="none" stroke="black" points="0,-104 0,-123 93,-123 93,-104 0,-104"/>
<text text-anchor="middle" x="46.5" y="-111" font-family="Helvetica,sans-Serif" font-size="10.00">OgreAllocatedObj</text>
</a>
</g>
</g>
<!-- Node2&#45;&gt;Node1 -->
<g id="edge1" class="edge">
<title>Node2&#45;&gt;Node1</title>
<path fill="none" stroke="midnightblue" d="M103.35,-113.5C111.82,-113.5 120.48,-113.5 128.74,-113.5"/>
<polygon fill="midnightblue" stroke="midnightblue" points="103.17,-110 93.17,-113.5 103.17,-117 103.17,-110"/>
</g>
</g>
</svg>
