<?xml version="1.0" encoding="UTF-8" standalone="no"?>
<!DOCTYPE svg PUBLIC "-//W3C//DTD SVG 1.1//EN"
 "http://www.w3.org/Graphics/SVG/1.1/DTD/svg11.dtd">
<!-- Generated by graphviz version 2.43.0 (0)
 -->
<!-- Title: Ogre::Volume::GridSource Pages: 1 -->
<svg width="338pt" height="151pt"
 viewBox="0.00 0.00 338.00 151.00" xmlns="http://www.w3.org/2000/svg" xmlns:xlink="http://www.w3.org/1999/xlink">
<g id="graph0" class="graph" transform="scale(1 1) rotate(0) translate(4 147)">
<title>Ogre::Volume::GridSource</title>
<!-- Node1 -->
<g id="node1" class="node">
<title>Node1</title>
<g id="a_node1"><a xlink:title="A volume source from a discrete 3d grid.">
<polygon fill="#bfbfbf" stroke="black" points="93,-67.5 93,-86.5 235,-86.5 235,-67.5 93,-67.5"/>
<text text-anchor="middle" x="164" y="-74.5" font-family="Helvetica,sans-Serif" font-size="10.00">Ogre::Volume::GridSource</text>
</a>
</g>
</g>
<!-- Node3 -->
<g id="node3" class="node">
<title>Node3</title>
<g id="a_node3"><a xlink:href="class_ogre_1_1_volume_1_1_half_float_grid_source.html" target="_top" xlink:title="A volume source from a 16 Bit float 3D grid capable of loading volume serializations.">
<polygon fill="none" stroke="black" points="0,-0.5 0,-30.5 154,-30.5 154,-0.5 0,-0.5"/>
<text text-anchor="start" x="8" y="-18.5" font-family="Helvetica,sans-Serif" font-size="10.00">Ogre::Volume::HalfFloatGrid</text>
<text text-anchor="middle" x="77" y="-7.5" font-family="Helvetica,sans-Serif" font-size="10.00">Source</text>
</a>
</g>
</g>
<!-- Node1&#45;&gt;Node3 -->
<g id="edge2" class="edge">
<title>Node1&#45;&gt;Node3</title>
<path fill="none" stroke="midnightblue" d="M143.15,-61.74C129.32,-52.28 111.26,-39.93 97.5,-30.52"/>
<polygon fill="midnightblue" stroke="midnightblue" points="141.3,-64.72 151.54,-67.48 145.26,-58.94 141.3,-64.72"/>
</g>
<!-- Node4 -->
<g id="node4" class="node">
<title>Node4</title>
<g id="a_node4"><a xlink:href="class_ogre_1_1_volume_1_1_texture_source.html" target="_top" xlink:title="A volume source from a 3D texture.">
<polygon fill="none" stroke="black" points="172,-6 172,-25 330,-25 330,-6 172,-6"/>
<text text-anchor="middle" x="251" y="-13" font-family="Helvetica,sans-Serif" font-size="10.00">Ogre::Volume::TextureSource</text>
</a>
</g>
</g>
<!-- Node1&#45;&gt;Node4 -->
<g id="edge3" class="edge">
<title>Node1&#45;&gt;Node4</title>
<path fill="none" stroke="midnightblue" d="M185.04,-61.61C201.77,-50.17 224.61,-34.55 238.56,-25.01"/>
<polygon fill="midnightblue" stroke="midnightblue" points="182.74,-58.94 176.46,-67.48 186.7,-64.72 182.74,-58.94"/>
</g>
<!-- Node2 -->
<g id="node2" class="node">
<title>Node2</title>
<g id="a_node2"><a xlink:href="class_ogre_1_1_volume_1_1_source.html" target="_top" xlink:title="Abstract class defining the density function.">
<polygon fill="none" stroke="black" points="103,-123.5 103,-142.5 225,-142.5 225,-123.5 103,-123.5"/>
<text text-anchor="middle" x="164" y="-130.5" font-family="Helvetica,sans-Serif" font-size="10.00">Ogre::Volume::Source</text>
</a>
</g>
</g>
<!-- Node2&#45;&gt;Node1 -->
<g id="edge1" class="edge">
<title>Node2&#45;&gt;Node1</title>
<path fill="none" stroke="midnightblue" d="M164,-112.8C164,-103.91 164,-93.78 164,-86.75"/>
<polygon fill="midnightblue" stroke="midnightblue" points="160.5,-113.08 164,-123.08 167.5,-113.08 160.5,-113.08"/>
</g>
</g>
</svg>
