<?xml version="1.0" encoding="UTF-8" standalone="no"?>
<!DOCTYPE svg PUBLIC "-//W3C//DTD SVG 1.1//EN"
 "http://www.w3.org/Graphics/SVG/1.1/DTD/svg11.dtd">
<!-- Generated by graphviz version 3.0.0 (20220413.0242)
 -->
<!-- Title: Ogre::MetalTexBufferPacked Pages: 1 -->
<svg width="256pt" height="319pt"
 viewBox="0.00 0.00 256.00 319.00" xmlns="http://www.w3.org/2000/svg" xmlns:xlink="http://www.w3.org/1999/xlink">
<g id="graph0" class="graph" transform="scale(1 1) rotate(0) translate(4 315)">
<title>Ogre::MetalTexBufferPacked</title>
<!-- Node1 -->
<g id="node1" class="node">
<title>Node1</title>
<g id="a_node1"><a xlink:title="In Metal, Tex and ReadOnly buffers are exactly the same, thus we derive from ReadOnlyBufferPacked to ...">
<polygon fill="#bfbfbf" stroke="black" points="64.5,-67.5 64.5,-86.5 204.5,-86.5 204.5,-67.5 64.5,-67.5"/>
<text text-anchor="middle" x="134.5" y="-74.5" font-family="Helvetica,sans-Serif" font-size="10.00">Ogre::MetalTexBufferPacked</text>
</a>
</g>
</g>
<!-- Node7 -->
<g id="node7" class="node">
<title>Node7</title>
<g id="a_node7"><a xlink:href="class_ogre_1_1_metal_read_only_buffer_packed.html" target="_top" xlink:title=" ">
<polygon fill="none" stroke="black" points="67.5,-0.5 67.5,-30.5 201.5,-30.5 201.5,-0.5 67.5,-0.5"/>
<text text-anchor="start" x="75.5" y="-18.5" font-family="Helvetica,sans-Serif" font-size="10.00">Ogre::MetalReadOnlyBuffer</text>
<text text-anchor="middle" x="134.5" y="-7.5" font-family="Helvetica,sans-Serif" font-size="10.00">Packed</text>
</a>
</g>
</g>
<!-- Node1&#45;&gt;Node7 -->
<g id="edge6" class="edge">
<title>Node1&#45;&gt;Node7</title>
<path fill="none" stroke="midnightblue" d="M134.5,-57.23C134.5,-48.59 134.5,-38.5 134.5,-30.52"/>
<polygon fill="midnightblue" stroke="midnightblue" points="131,-57.48 134.5,-67.48 138,-57.48 131,-57.48"/>
</g>
<!-- Node2 -->
<g id="node2" class="node">
<title>Node2</title>
<g id="a_node2"><a xlink:href="class_ogre_1_1_read_only_buffer_packed.html" target="_top" xlink:title="Represents the best way to access read&#45;only data.">
<polygon fill="none" stroke="black" points="63,-123.5 63,-142.5 206,-142.5 206,-123.5 63,-123.5"/>
<text text-anchor="middle" x="134.5" y="-130.5" font-family="Helvetica,sans-Serif" font-size="10.00">Ogre::ReadOnlyBufferPacked</text>
</a>
</g>
</g>
<!-- Node2&#45;&gt;Node1 -->
<g id="edge1" class="edge">
<title>Node2&#45;&gt;Node1</title>
<path fill="none" stroke="midnightblue" d="M134.5,-112.8C134.5,-103.91 134.5,-93.78 134.5,-86.75"/>
<polygon fill="midnightblue" stroke="midnightblue" points="131,-113.08 134.5,-123.08 138,-113.08 131,-113.08"/>
</g>
<!-- Node3 -->
<g id="node3" class="node">
<title>Node3</title>
<g id="a_node3"><a xlink:href="class_ogre_1_1_tex_buffer_packed.html" target="_top" xlink:title="Represents Texture buffers (also known as tbuffers in D3D11)">
<polygon fill="none" stroke="black" points="76.5,-179.5 76.5,-198.5 192.5,-198.5 192.5,-179.5 76.5,-179.5"/>
<text text-anchor="middle" x="134.5" y="-186.5" font-family="Helvetica,sans-Serif" font-size="10.00">Ogre::TexBufferPacked</text>
</a>
</g>
</g>
<!-- Node3&#45;&gt;Node2 -->
<g id="edge2" class="edge">
<title>Node3&#45;&gt;Node2</title>
<path fill="none" stroke="midnightblue" d="M134.5,-168.8C134.5,-159.91 134.5,-149.78 134.5,-142.75"/>
<polygon fill="midnightblue" stroke="midnightblue" points="131,-169.08 134.5,-179.08 138,-169.08 131,-169.08"/>
</g>
<!-- Node4 -->
<g id="node4" class="node">
<title>Node4</title>
<g id="a_node4"><a xlink:href="class_ogre_1_1_buffer_packed.html" target="_top" xlink:title=" ">
<polygon fill="none" stroke="black" points="84,-235.5 84,-254.5 185,-254.5 185,-235.5 84,-235.5"/>
<text text-anchor="middle" x="134.5" y="-242.5" font-family="Helvetica,sans-Serif" font-size="10.00">Ogre::BufferPacked</text>
</a>
</g>
</g>
<!-- Node4&#45;&gt;Node3 -->
<g id="edge3" class="edge">
<title>Node4&#45;&gt;Node3</title>
<path fill="none" stroke="midnightblue" d="M134.5,-224.8C134.5,-215.91 134.5,-205.78 134.5,-198.75"/>
<polygon fill="midnightblue" stroke="midnightblue" points="131,-225.08 134.5,-235.08 138,-225.08 131,-225.08"/>
</g>
<!-- Node5 -->
<g id="node5" class="node">
<title>Node5</title>
<g id="a_node5"><a xlink:href="struct_ogre_1_1_gpu_tracked_resource.html" target="_top" xlink:title=" ">
<polygon fill="none" stroke="black" points="0,-291.5 0,-310.5 137,-310.5 137,-291.5 0,-291.5"/>
<text text-anchor="middle" x="68.5" y="-298.5" font-family="Helvetica,sans-Serif" font-size="10.00">Ogre::GpuTrackedResource</text>
</a>
</g>
</g>
<!-- Node5&#45;&gt;Node4 -->
<g id="edge4" class="edge">
<title>Node5&#45;&gt;Node4</title>
<path fill="none" stroke="midnightblue" d="M87.05,-284.82C98.88,-275.15 113.79,-262.95 123.7,-254.83"/>
<polygon fill="midnightblue" stroke="midnightblue" points="84.63,-282.28 79.1,-291.32 89.06,-287.7 84.63,-282.28"/>
</g>
<!-- Node6 -->
<g id="node6" class="node">
<title>Node6</title>
<g id="a_node6"><a xlink:href="class_ogre_1_1_allocated_object.html" target="_top" xlink:title="Superclass for all objects that wish to use custom memory allocators when their new / delete operator...">
<polygon fill="none" stroke="black" points="155,-291.5 155,-310.5 248,-310.5 248,-291.5 155,-291.5"/>
<text text-anchor="middle" x="201.5" y="-298.5" font-family="Helvetica,sans-Serif" font-size="10.00">OgreAllocatedObj</text>
</a>
</g>
</g>
<!-- Node6&#45;&gt;Node4 -->
<g id="edge5" class="edge">
<title>Node6&#45;&gt;Node4</title>
<path fill="none" stroke="midnightblue" d="M182.67,-284.82C170.66,-275.15 155.53,-262.95 145.46,-254.83"/>
<polygon fill="midnightblue" stroke="midnightblue" points="180.75,-287.77 190.74,-291.32 185.15,-282.32 180.75,-287.77"/>
</g>
</g>
</svg>
