<?xml version="1.0" encoding="UTF-8" standalone="no"?>
<!DOCTYPE svg PUBLIC "-//W3C//DTD SVG 1.1//EN"
 "http://www.w3.org/Graphics/SVG/1.1/DTD/svg11.dtd">
<!-- Generated by graphviz version 7.0.5 (20221223.1930)
 -->
<!-- Title: Ogre::WorkQueue::RequestHandler Pages: 1 -->
<svg width="319pt" height="150pt"
 viewBox="0.00 0.00 319.00 150.00" xmlns="http://www.w3.org/2000/svg" xmlns:xlink="http://www.w3.org/1999/xlink">
<g id="graph0" class="graph" transform="scale(1 1) rotate(0) translate(4 146)">
<title>Ogre::WorkQueue::RequestHandler</title>
<!-- Node1 -->
<g id="node1" class="node">
<title>Node1</title>
<g id="a_node1"><a xlink:title="Interface definition for a handler of requests.">
<polygon fill="#999999" stroke="#666666" points="134,-88.5 0,-88.5 0,-58.5 134,-58.5 134,-88.5"/>
<text text-anchor="start" x="8" y="-76.5" font-family="Helvetica,sans-Serif" font-size="10.00">Ogre::WorkQueue::Request</text>
<text text-anchor="middle" x="67" y="-65.5" font-family="Helvetica,sans-Serif" font-size="10.00">Handler</text>
</a>
</g>
</g>
<!-- Node2 -->
<g id="node2" class="node">
<title>Node2</title>
<g id="a_node2"><a xlink:href="class_ogre_1_1_lod_work_queue_worker.html" target="_top" xlink:title="Processes requests.">
<polygon fill="white" stroke="#666666" points="310.5,-142 170.5,-142 170.5,-123 310.5,-123 310.5,-142"/>
<text text-anchor="middle" x="240.5" y="-130" font-family="Helvetica,sans-Serif" font-size="10.00">Ogre::LodWorkQueueWorker</text>
</a>
</g>
</g>
<!-- Node1&#45;&gt;Node2 -->
<g id="edge1" class="edge">
<title>Node1&#45;&gt;Node2</title>
<path fill="none" stroke="#8b1a1a" d="M113.48,-93.24C130.97,-100.44 151.23,-108.33 170,-114.5 178.76,-117.38 188.27,-120.1 197.35,-122.51"/>
<polygon fill="#8b1a1a" stroke="#8b1a1a" points="114.96,-90.07 104.39,-89.45 112.27,-96.53 114.96,-90.07"/>
</g>
<!-- Node3 -->
<g id="node3" class="node">
<title>Node3</title>
<g id="a_node3"><a xlink:href="class_ogre_1_1_page.html" target="_top" xlink:title="Page class.">
<polygon fill="white" stroke="#666666" points="273,-105 208,-105 208,-86 273,-86 273,-105"/>
<text text-anchor="middle" x="240.5" y="-93" font-family="Helvetica,sans-Serif" font-size="10.00">Ogre::Page</text>
</a>
</g>
</g>
<!-- Node1&#45;&gt;Node3 -->
<g id="edge2" class="edge">
<title>Node1&#45;&gt;Node3</title>
<path fill="none" stroke="#63b8ff" d="M145.68,-83.47C167.62,-86.28 190.26,-89.18 207.81,-91.43"/>
<polygon fill="#63b8ff" stroke="#63b8ff" points="146.17,-80 135.81,-82.2 145.28,-86.94 146.17,-80"/>
</g>
<!-- Node4 -->
<g id="node4" class="node">
<title>Node4</title>
<g id="a_node4"><a xlink:href="class_ogre_1_1_resource_background_queue.html" target="_top" xlink:title="This class is used to perform Resource operations in a background thread.">
<polygon fill="white" stroke="#666666" points="308,-67.5 173,-67.5 173,-37.5 308,-37.5 308,-67.5"/>
<text text-anchor="start" x="181" y="-55.5" font-family="Helvetica,sans-Serif" font-size="10.00">Ogre::ResourceBackground</text>
<text text-anchor="middle" x="240.5" y="-44.5" font-family="Helvetica,sans-Serif" font-size="10.00">Queue</text>
</a>
</g>
</g>
<!-- Node1&#45;&gt;Node4 -->
<g id="edge3" class="edge">
<title>Node1&#45;&gt;Node4</title>
<path fill="none" stroke="#63b8ff" d="M145.6,-64C154.58,-62.9 163.69,-61.78 172.52,-60.7"/>
<polygon fill="#63b8ff" stroke="#63b8ff" points="145.31,-60.51 135.81,-65.2 146.16,-67.46 145.31,-60.51"/>
</g>
<!-- Node5 -->
<g id="node5" class="node">
<title>Node5</title>
<g id="a_node5"><a xlink:href="class_ogre_1_1_volume_1_1_chunk_handler.html" target="_top" xlink:title="Handles the WorkQueue management of the chunks.">
<polygon fill="white" stroke="#666666" points="311,-19 170,-19 170,0 311,0 311,-19"/>
<text text-anchor="middle" x="240.5" y="-7" font-family="Helvetica,sans-Serif" font-size="10.00">Ogre::Volume::ChunkHandler</text>
</a>
</g>
</g>
<!-- Node1&#45;&gt;Node5 -->
<g id="edge4" class="edge">
<title>Node1&#45;&gt;Node5</title>
<path fill="none" stroke="#63b8ff" d="M109.94,-53.31C128.15,-44.99 149.87,-35.65 170,-28.5 179.31,-25.19 189.5,-22.12 199.13,-19.45"/>
<polygon fill="#63b8ff" stroke="#63b8ff" points="108.64,-50.06 101.04,-57.44 111.58,-56.41 108.64,-50.06"/>
</g>
</g>
</svg>
