<?xml version="1.0" encoding="UTF-8" standalone="no"?>
<!DOCTYPE svg PUBLIC "-//W3C//DTD SVG 1.1//EN"
 "http://www.w3.org/Graphics/SVG/1.1/DTD/svg11.dtd">
<!-- Generated by graphviz version 2.43.0 (0)
 -->
<!-- Title: Ogre::EllipsoidEmitter2 Pages: 1 -->
<svg width="226pt" height="308pt"
 viewBox="0.00 0.00 226.00 308.00" xmlns="http://www.w3.org/2000/svg" xmlns:xlink="http://www.w3.org/1999/xlink">
<g id="graph0" class="graph" transform="scale(1 1) rotate(0) translate(4 304)">
<title>Ogre::EllipsoidEmitter2</title>
<!-- Node1 -->
<g id="node1" class="node">
<title>Node1</title>
<g id="a_node1"><a xlink:title="Particle emitter which emits particles randomly from points inside an ellipsoid.">
<polygon fill="#bfbfbf" stroke="black" points="53.5,-56.5 53.5,-75.5 182.5,-75.5 182.5,-56.5 53.5,-56.5"/>
<text text-anchor="middle" x="118" y="-63.5" font-family="Helvetica,sans-Serif" font-size="10.00">Ogre::EllipsoidEmitter2</text>
</a>
</g>
</g>
<!-- Node8 -->
<g id="node7" class="node">
<title>Node8</title>
<g id="a_node7"><a xlink:href="class_ogre_1_1_hollow_ellipsoid_emitter2.html" target="_top" xlink:title="Particle emitter which emits particles randomly from points inside a hollow ellipsoid.">
<polygon fill="none" stroke="black" points="36.5,-0.5 36.5,-19.5 199.5,-19.5 199.5,-0.5 36.5,-0.5"/>
<text text-anchor="middle" x="118" y="-7.5" font-family="Helvetica,sans-Serif" font-size="10.00">Ogre::HollowEllipsoidEmitter2</text>
</a>
</g>
</g>
<!-- Node1&#45;&gt;Node8 -->
<g id="edge6" class="edge">
<title>Node1&#45;&gt;Node8</title>
<path fill="none" stroke="midnightblue" d="M118,-45.8C118,-36.91 118,-26.78 118,-19.75"/>
<polygon fill="midnightblue" stroke="midnightblue" points="114.5,-46.08 118,-56.08 121.5,-46.08 114.5,-46.08"/>
</g>
<!-- Node2 -->
<g id="node2" class="node">
<title>Node2</title>
<g id="a_node2"><a xlink:href="class_ogre_1_1_area_emitter2.html" target="_top" xlink:title="Particle emitter which emits particles randomly from points inside an area (box, sphere,...">
<polygon fill="none" stroke="black" points="63,-112.5 63,-131.5 173,-131.5 173,-112.5 63,-112.5"/>
<text text-anchor="middle" x="118" y="-119.5" font-family="Helvetica,sans-Serif" font-size="10.00">Ogre::AreaEmitter2</text>
</a>
</g>
</g>
<!-- Node2&#45;&gt;Node1 -->
<g id="edge1" class="edge">
<title>Node2&#45;&gt;Node1</title>
<path fill="none" stroke="midnightblue" d="M118,-101.8C118,-92.91 118,-82.78 118,-75.75"/>
<polygon fill="midnightblue" stroke="midnightblue" points="114.5,-102.08 118,-112.08 121.5,-102.08 114.5,-102.08"/>
</g>
<!-- Node3 -->
<g id="node3" class="node">
<title>Node3</title>
<g id="a_node3"><a xlink:href="class_ogre_1_1_emitter_def_data.html" target="_top" xlink:title="EmitterDefData are per ParticleSystemDef.">
<polygon fill="none" stroke="black" points="57,-168.5 57,-187.5 179,-187.5 179,-168.5 57,-168.5"/>
<text text-anchor="middle" x="118" y="-175.5" font-family="Helvetica,sans-Serif" font-size="10.00">Ogre::EmitterDefData</text>
</a>
</g>
</g>
<!-- Node3&#45;&gt;Node2 -->
<g id="edge2" class="edge">
<title>Node3&#45;&gt;Node2</title>
<path fill="none" stroke="midnightblue" d="M118,-157.8C118,-148.91 118,-138.78 118,-131.75"/>
<polygon fill="midnightblue" stroke="midnightblue" points="114.5,-158.08 118,-168.08 121.5,-158.08 114.5,-158.08"/>
</g>
<!-- Node4 -->
<g id="node4" class="node">
<title>Node4</title>
<g id="a_node4"><a xlink:href="class_ogre_1_1_particle_emitter.html" target="_top" xlink:title="Abstract class defining the interface to be implemented by particle emitters.">
<polygon fill="none" stroke="black" points="59,-224.5 59,-243.5 177,-243.5 177,-224.5 59,-224.5"/>
<text text-anchor="middle" x="118" y="-231.5" font-family="Helvetica,sans-Serif" font-size="10.00">Ogre::ParticleEmitter</text>
</a>
</g>
</g>
<!-- Node4&#45;&gt;Node3 -->
<g id="edge3" class="edge">
<title>Node4&#45;&gt;Node3</title>
<path fill="none" stroke="#8b1a1a" d="M118,-213.8C118,-204.91 118,-194.78 118,-187.75"/>
<polygon fill="#8b1a1a" stroke="#8b1a1a" points="114.5,-214.08 118,-224.08 121.5,-214.08 114.5,-214.08"/>
</g>
<!-- Node5 -->
<g id="node5" class="node">
<title>Node5</title>
<g id="a_node5"><a xlink:href="class_ogre_1_1_string_interface.html" target="_top" xlink:title="Class defining the common interface which classes can use to present a reflection&#45;style,...">
<polygon fill="none" stroke="black" points="0,-280.5 0,-299.5 118,-299.5 118,-280.5 0,-280.5"/>
<text text-anchor="middle" x="59" y="-287.5" font-family="Helvetica,sans-Serif" font-size="10.00">Ogre::StringInterface</text>
</a>
</g>
</g>
<!-- Node5&#45;&gt;Node4 -->
<g id="edge4" class="edge">
<title>Node5&#45;&gt;Node4</title>
<path fill="none" stroke="midnightblue" d="M75.89,-273.54C86.41,-263.91 99.57,-251.87 108.35,-243.83"/>
<polygon fill="midnightblue" stroke="midnightblue" points="73.49,-270.99 68.48,-280.32 78.22,-276.15 73.49,-270.99"/>
</g>
<!-- Node6 -->
<g id="node6" class="node">
<title>Node6</title>
<g id="a_node6"><a xlink:href="class_ogre_1_1_particle.html" target="_top" xlink:title="Class representing a single particle instance.">
<polygon fill="none" stroke="red" points="136,-280.5 136,-299.5 218,-299.5 218,-280.5 136,-280.5"/>
<text text-anchor="middle" x="177" y="-287.5" font-family="Helvetica,sans-Serif" font-size="10.00">Ogre::Particle</text>
</a>
</g>
</g>
<!-- Node6&#45;&gt;Node4 -->
<g id="edge5" class="edge">
<title>Node6&#45;&gt;Node4</title>
<path fill="none" stroke="midnightblue" d="M160.11,-273.54C149.59,-263.91 136.43,-251.87 127.65,-243.83"/>
<polygon fill="midnightblue" stroke="midnightblue" points="157.78,-276.15 167.52,-280.32 162.51,-270.99 157.78,-276.15"/>
</g>
</g>
</svg>
