<?xml version="1.0" encoding="UTF-8" standalone="no"?>
<!DOCTYPE svg PUBLIC "-//W3C//DTD SVG 1.1//EN"
 "http://www.w3.org/Graphics/SVG/1.1/DTD/svg11.dtd">
<!-- Generated by graphviz version 3.0.0 (20220413.0242)
 -->
<!-- Title: Ogre::GL3PlusConstBufferPacked Pages: 1 -->
<svg width="256pt" height="207pt"
 viewBox="0.00 0.00 256.00 207.00" xmlns="http://www.w3.org/2000/svg" xmlns:xlink="http://www.w3.org/1999/xlink">
<g id="graph0" class="graph" transform="scale(1 1) rotate(0) translate(4 203)">
<title>Ogre::GL3PlusConstBufferPacked</title>
<!-- Node1 -->
<g id="node1" class="node">
<title>Node1</title>
<g id="a_node1"><a xlink:title=" ">
<polygon fill="#bfbfbf" stroke="black" points="69,-0.5 69,-30.5 200,-30.5 200,-0.5 69,-0.5"/>
<text text-anchor="start" x="77" y="-18.5" font-family="Helvetica,sans-Serif" font-size="10.00">Ogre::GL3PlusConstBuffer</text>
<text text-anchor="middle" x="134.5" y="-7.5" font-family="Helvetica,sans-Serif" font-size="10.00">Packed</text>
</a>
</g>
</g>
<!-- Node2 -->
<g id="node2" class="node">
<title>Node2</title>
<g id="a_node2"><a xlink:href="class_ogre_1_1_const_buffer_packed.html" target="_top" xlink:title="Represents constant buffers (also known as Uniform Buffers in GL)">
<polygon fill="none" stroke="black" points="71.5,-67.5 71.5,-86.5 197.5,-86.5 197.5,-67.5 71.5,-67.5"/>
<text text-anchor="middle" x="134.5" y="-74.5" font-family="Helvetica,sans-Serif" font-size="10.00">Ogre::ConstBufferPacked</text>
</a>
</g>
</g>
<!-- Node2&#45;&gt;Node1 -->
<g id="edge1" class="edge">
<title>Node2&#45;&gt;Node1</title>
<path fill="none" stroke="midnightblue" d="M134.5,-57.23C134.5,-48.59 134.5,-38.5 134.5,-30.52"/>
<polygon fill="midnightblue" stroke="midnightblue" points="131,-57.48 134.5,-67.48 138,-57.48 131,-57.48"/>
</g>
<!-- Node3 -->
<g id="node3" class="node">
<title>Node3</title>
<g id="a_node3"><a xlink:href="class_ogre_1_1_buffer_packed.html" target="_top" xlink:title=" ">
<polygon fill="none" stroke="black" points="84,-123.5 84,-142.5 185,-142.5 185,-123.5 84,-123.5"/>
<text text-anchor="middle" x="134.5" y="-130.5" font-family="Helvetica,sans-Serif" font-size="10.00">Ogre::BufferPacked</text>
</a>
</g>
</g>
<!-- Node3&#45;&gt;Node2 -->
<g id="edge2" class="edge">
<title>Node3&#45;&gt;Node2</title>
<path fill="none" stroke="midnightblue" d="M134.5,-112.8C134.5,-103.91 134.5,-93.78 134.5,-86.75"/>
<polygon fill="midnightblue" stroke="midnightblue" points="131,-113.08 134.5,-123.08 138,-113.08 131,-113.08"/>
</g>
<!-- Node4 -->
<g id="node4" class="node">
<title>Node4</title>
<g id="a_node4"><a xlink:href="struct_ogre_1_1_gpu_tracked_resource.html" target="_top" xlink:title=" ">
<polygon fill="none" stroke="black" points="0,-179.5 0,-198.5 137,-198.5 137,-179.5 0,-179.5"/>
<text text-anchor="middle" x="68.5" y="-186.5" font-family="Helvetica,sans-Serif" font-size="10.00">Ogre::GpuTrackedResource</text>
</a>
</g>
</g>
<!-- Node4&#45;&gt;Node3 -->
<g id="edge3" class="edge">
<title>Node4&#45;&gt;Node3</title>
<path fill="none" stroke="midnightblue" d="M87.05,-172.82C98.88,-163.15 113.79,-150.95 123.7,-142.83"/>
<polygon fill="midnightblue" stroke="midnightblue" points="84.63,-170.28 79.1,-179.32 89.06,-175.7 84.63,-170.28"/>
</g>
<!-- Node5 -->
<g id="node5" class="node">
<title>Node5</title>
<g id="a_node5"><a xlink:href="class_ogre_1_1_allocated_object.html" target="_top" xlink:title="Superclass for all objects that wish to use custom memory allocators when their new / delete operator...">
<polygon fill="none" stroke="black" points="155,-179.5 155,-198.5 248,-198.5 248,-179.5 155,-179.5"/>
<text text-anchor="middle" x="201.5" y="-186.5" font-family="Helvetica,sans-Serif" font-size="10.00">OgreAllocatedObj</text>
</a>
</g>
</g>
<!-- Node5&#45;&gt;Node3 -->
<g id="edge4" class="edge">
<title>Node5&#45;&gt;Node3</title>
<path fill="none" stroke="midnightblue" d="M182.67,-172.82C170.66,-163.15 155.53,-150.95 145.46,-142.83"/>
<polygon fill="midnightblue" stroke="midnightblue" points="180.75,-175.77 190.74,-179.32 185.15,-170.32 180.75,-175.77"/>
</g>
</g>
</svg>
