<?xml version="1.0" encoding="UTF-8" standalone="no"?>
<!DOCTYPE svg PUBLIC "-//W3C//DTD SVG 1.1//EN"
 "http://www.w3.org/Graphics/SVG/1.1/DTD/svg11.dtd">
<!-- Generated by graphviz version 7.0.5 (20221223.1930)
 -->
<!-- Title: Ogre::Serializer Pages: 1 -->
<svg width="936pt" height="249pt"
 viewBox="0.00 0.00 936.00 249.00" xmlns="http://www.w3.org/2000/svg" xmlns:xlink="http://www.w3.org/1999/xlink">
<g id="graph0" class="graph" transform="scale(1 1) rotate(0) translate(4 245)">
<title>Ogre::Serializer</title>
<!-- Node1 -->
<g id="node1" class="node">
<title>Node1</title>
<g id="a_node1"><a xlink:title="Generic class for serialising data to / from binary stream&#45;based files.">
<polygon fill="#999999" stroke="#666666" points="237,-130 155,-130 155,-111 237,-111 237,-130"/>
<text text-anchor="middle" x="196" y="-118" font-family="Helvetica,sans-Serif" font-size="10.00">Ogre::Serializer</text>
</a>
</g>
</g>
<!-- Node3 -->
<g id="node3" class="node">
<title>Node3</title>
<g id="a_node3"><a xlink:href="class_ogre_1_1_gpu_named_constants_serializer.html" target="_top" xlink:title="Simple class for loading / saving GpuNamedConstants.">
<polygon fill="white" stroke="#666666" points="449,-241 273,-241 273,-222 449,-222 449,-241"/>
<text text-anchor="middle" x="361" y="-229" font-family="Helvetica,sans-Serif" font-size="10.00">Ogre::GpuNamedConstantsSerializer</text>
</a>
</g>
</g>
<!-- Node1&#45;&gt;Node3 -->
<g id="edge2" class="edge">
<title>Node1&#45;&gt;Node3</title>
<path fill="none" stroke="#63b8ff" d="M207.59,-140.23C220.22,-161.76 243.39,-195.55 273,-213.5 278.28,-216.7 284.03,-219.34 289.98,-221.51"/>
<polygon fill="#63b8ff" stroke="#63b8ff" points="210.66,-138.55 202.71,-131.55 204.56,-141.99 210.66,-138.55"/>
</g>
<!-- Node4 -->
<g id="node4" class="node">
<title>Node4</title>
<g id="a_node4"><a xlink:href="class_ogre_1_1_lod_config_serializer.html" target="_top" xlink:title=" ">
<polygon fill="white" stroke="#666666" points="423.5,-204 298.5,-204 298.5,-185 423.5,-185 423.5,-204"/>
<text text-anchor="middle" x="361" y="-192" font-family="Helvetica,sans-Serif" font-size="10.00">Ogre::LodConfigSerializer</text>
</a>
</g>
</g>
<!-- Node1&#45;&gt;Node4 -->
<g id="edge3" class="edge">
<title>Node1&#45;&gt;Node4</title>
<path fill="none" stroke="#63b8ff" d="M215.92,-138.09C230.47,-150.66 251.64,-166.97 273,-176.5 280.89,-180.02 289.49,-182.86 298.11,-185.15"/>
<polygon fill="#63b8ff" stroke="#63b8ff" points="218.31,-135.53 208.51,-131.49 213.65,-140.75 218.31,-135.53"/>
</g>
<!-- Node5 -->
<g id="node5" class="node">
<title>Node5</title>
<g id="a_node5"><a xlink:href="class_ogre_1_1_mesh_serializer.html" target="_top" xlink:title="Class for serialising mesh data to/from an OGRE .mesh file.">
<polygon fill="white" stroke="#666666" points="414,-167 308,-167 308,-148 414,-148 414,-167"/>
<text text-anchor="middle" x="361" y="-155" font-family="Helvetica,sans-Serif" font-size="10.00">Ogre::MeshSerializer</text>
</a>
</g>
</g>
<!-- Node1&#45;&gt;Node5 -->
<g id="edge4" class="edge">
<title>Node1&#45;&gt;Node5</title>
<path fill="none" stroke="#63b8ff" d="M248.28,-132.77C256.54,-134.71 265,-136.68 273,-138.5 286.27,-141.52 300.69,-144.71 313.91,-147.59"/>
<polygon fill="#63b8ff" stroke="#63b8ff" points="249.21,-129.4 238.67,-130.51 247.6,-136.21 249.21,-129.4"/>
</g>
<!-- Node6 -->
<g id="node6" class="node">
<title>Node6</title>
<g id="a_node6"><a xlink:href="class_ogre_1_1_mesh_serializer_impl.html" target="_top" xlink:title="Internal implementation of Mesh reading / writing for the latest version of the .mesh format.">
<polygon fill="white" stroke="#666666" points="423.5,-130 298.5,-130 298.5,-111 423.5,-111 423.5,-130"/>
<text text-anchor="middle" x="361" y="-118" font-family="Helvetica,sans-Serif" font-size="10.00">Ogre::MeshSerializerImpl</text>
</a>
</g>
</g>
<!-- Node1&#45;&gt;Node6 -->
<g id="edge5" class="edge">
<title>Node1&#45;&gt;Node6</title>
<path fill="none" stroke="#63b8ff" d="M248.46,-120.5C264.27,-120.5 281.84,-120.5 298.27,-120.5"/>
<polygon fill="#63b8ff" stroke="#63b8ff" points="248.81,-117 238.81,-120.5 248.81,-124 248.81,-117"/>
</g>
<!-- Node9 -->
<g id="node9" class="node">
<title>Node9</title>
<g id="a_node9"><a xlink:href="class_ogre_1_1v1_1_1_mesh_serializer.html" target="_top" xlink:title="Class for serialising mesh data to/from an OGRE .mesh file.">
<polygon fill="white" stroke="#666666" points="421.5,-93 300.5,-93 300.5,-74 421.5,-74 421.5,-93"/>
<text text-anchor="middle" x="361" y="-81" font-family="Helvetica,sans-Serif" font-size="10.00">Ogre::v1::MeshSerializer</text>
</a>
</g>
</g>
<!-- Node1&#45;&gt;Node9 -->
<g id="edge8" class="edge">
<title>Node1&#45;&gt;Node9</title>
<path fill="none" stroke="#63b8ff" d="M246.52,-107.81C255.33,-105.64 264.42,-103.46 273,-101.5 285.03,-98.75 298.04,-95.97 310.24,-93.43"/>
<polygon fill="#63b8ff" stroke="#63b8ff" points="245.92,-104.35 237.06,-110.16 247.61,-111.14 245.92,-104.35"/>
</g>
<!-- Node10 -->
<g id="node10" class="node">
<title>Node10</title>
<g id="a_node10"><a xlink:href="class_ogre_1_1v1_1_1_mesh_serializer_impl.html" target="_top" xlink:title="Internal implementation of Mesh reading / writing for the latest version of the .mesh format.">
<polygon fill="white" stroke="#666666" points="431,-56 291,-56 291,-37 431,-37 431,-56"/>
<text text-anchor="middle" x="361" y="-44" font-family="Helvetica,sans-Serif" font-size="10.00">Ogre::v1::MeshSerializerImpl</text>
</a>
</g>
</g>
<!-- Node1&#45;&gt;Node10 -->
<g id="edge9" class="edge">
<title>Node1&#45;&gt;Node10</title>
<path fill="none" stroke="#63b8ff" d="M215.92,-102.91C230.47,-90.34 251.64,-74.03 273,-64.5 280.18,-61.3 287.96,-58.65 295.8,-56.48"/>
<polygon fill="#63b8ff" stroke="#63b8ff" points="213.65,-100.25 208.51,-109.51 218.31,-105.47 213.65,-100.25"/>
</g>
<!-- Node18 -->
<g id="node14" class="node">
<title>Node18</title>
<g id="a_node14"><a xlink:href="class_ogre_1_1v1_1_1_skeleton_serializer.html" target="_top" xlink:title="Class for serialising skeleton data to/from an OGRE .skeleton file.">
<polygon fill="white" stroke="#666666" points="428.5,-19 293.5,-19 293.5,0 428.5,0 428.5,-19"/>
<text text-anchor="middle" x="361" y="-7" font-family="Helvetica,sans-Serif" font-size="10.00">Ogre::v1::SkeletonSerializer</text>
</a>
</g>
</g>
<!-- Node1&#45;&gt;Node18 -->
<g id="edge13" class="edge">
<title>Node1&#45;&gt;Node18</title>
<path fill="none" stroke="#63b8ff" d="M207.59,-100.77C220.22,-79.24 243.39,-45.45 273,-27.5 279.2,-23.74 286.06,-20.76 293.12,-18.39"/>
<polygon fill="#63b8ff" stroke="#63b8ff" points="204.56,-99.01 202.71,-109.45 210.66,-102.45 204.56,-99.01"/>
</g>
<!-- Node2 -->
<g id="node2" class="node">
<title>Node2</title>
<g id="a_node2"><a xlink:title=" ">
<polygon fill="white" stroke="#666666" points="119,-130 0,-130 0,-111 119,-111 119,-130"/>
<text text-anchor="middle" x="59.5" y="-118" font-family="Helvetica,sans-Serif" font-size="10.00">Ogre::OgreAllocatedObj</text>
</a>
</g>
</g>
<!-- Node2&#45;&gt;Node1 -->
<g id="edge1" class="edge">
<title>Node2&#45;&gt;Node1</title>
<path fill="none" stroke="#63b8ff" d="M130.95,-120.5C139.05,-120.5 147.1,-120.5 154.61,-120.5"/>
<polygon fill="#63b8ff" stroke="#63b8ff" points="131.01,-117 121.01,-120.5 131.01,-124 131.01,-117"/>
</g>
<!-- Node7 -->
<g id="node7" class="node">
<title>Node7</title>
<g id="a_node7"><a xlink:href="class_ogre_1_1_mesh_serializer_impl__v2__1___r1.html" target="_top" xlink:title=" ">
<polygon fill="white" stroke="#666666" points="610,-135.5 485,-135.5 485,-105.5 610,-105.5 610,-135.5"/>
<text text-anchor="start" x="493" y="-123.5" font-family="Helvetica,sans-Serif" font-size="10.00">Ogre::MeshSerializerImpl</text>
<text text-anchor="middle" x="547.5" y="-112.5" font-family="Helvetica,sans-Serif" font-size="10.00">_v2_1_R1</text>
</a>
</g>
</g>
<!-- Node6&#45;&gt;Node7 -->
<g id="edge6" class="edge">
<title>Node6&#45;&gt;Node7</title>
<path fill="none" stroke="#63b8ff" d="M435.15,-120.5C451.56,-120.5 468.82,-120.5 484.71,-120.5"/>
<polygon fill="#63b8ff" stroke="#63b8ff" points="435.46,-117 425.46,-120.5 435.46,-124 435.46,-117"/>
</g>
<!-- Node8 -->
<g id="node8" class="node">
<title>Node8</title>
<g id="a_node8"><a xlink:href="class_ogre_1_1_mesh_serializer_impl__v2__1___r0.html" target="_top" xlink:title=" ">
<polygon fill="white" stroke="#666666" points="771,-135.5 646,-135.5 646,-105.5 771,-105.5 771,-135.5"/>
<text text-anchor="start" x="654" y="-123.5" font-family="Helvetica,sans-Serif" font-size="10.00">Ogre::MeshSerializerImpl</text>
<text text-anchor="middle" x="708.5" y="-112.5" font-family="Helvetica,sans-Serif" font-size="10.00">_v2_1_R0</text>
</a>
</g>
</g>
<!-- Node7&#45;&gt;Node8 -->
<g id="edge7" class="edge">
<title>Node7&#45;&gt;Node8</title>
<path fill="none" stroke="#63b8ff" d="M621.7,-120.5C629.74,-120.5 637.86,-120.5 645.74,-120.5"/>
<polygon fill="#63b8ff" stroke="#63b8ff" points="621.94,-117 611.94,-120.5 621.94,-124 621.94,-117"/>
</g>
<!-- Node11 -->
<g id="node11" class="node">
<title>Node11</title>
<g id="a_node11"><a xlink:href="class_ogre_1_1v1_1_1_mesh_serializer_impl__v1__10.html" target="_top" xlink:title="Class for providing backwards&#45;compatibility for loading version 1.10 of the .mesh format.">
<polygon fill="white" stroke="#666666" points="608,-61.5 487,-61.5 487,-31.5 608,-31.5 608,-61.5"/>
<text text-anchor="start" x="495" y="-49.5" font-family="Helvetica,sans-Serif" font-size="10.00">Ogre::v1::MeshSerializer</text>
<text text-anchor="middle" x="547.5" y="-38.5" font-family="Helvetica,sans-Serif" font-size="10.00">Impl_v1_10</text>
</a>
</g>
</g>
<!-- Node10&#45;&gt;Node11 -->
<g id="edge10" class="edge">
<title>Node10&#45;&gt;Node11</title>
<path fill="none" stroke="#63b8ff" d="M442.7,-46.5C457.49,-46.5 472.69,-46.5 486.74,-46.5"/>
<polygon fill="#63b8ff" stroke="#63b8ff" points="443,-43 433,-46.5 443,-50 443,-43"/>
</g>
<!-- Node12 -->
<g id="node12" class="node">
<title>Node12</title>
<g id="a_node12"><a xlink:href="class_ogre_1_1v1_1_1_mesh_serializer_impl__v1__8.html" target="_top" xlink:title="Class for providing backwards&#45;compatibility for loading version 1.8 of the .mesh format.">
<polygon fill="white" stroke="#666666" points="769,-61.5 648,-61.5 648,-31.5 769,-31.5 769,-61.5"/>
<text text-anchor="start" x="656" y="-49.5" font-family="Helvetica,sans-Serif" font-size="10.00">Ogre::v1::MeshSerializer</text>
<text text-anchor="middle" x="708.5" y="-38.5" font-family="Helvetica,sans-Serif" font-size="10.00">Impl_v1_8</text>
</a>
</g>
</g>
<!-- Node11&#45;&gt;Node12 -->
<g id="edge11" class="edge">
<title>Node11&#45;&gt;Node12</title>
<path fill="none" stroke="#63b8ff" d="M619.46,-46.5C628.83,-46.5 638.35,-46.5 647.51,-46.5"/>
<polygon fill="#63b8ff" stroke="#63b8ff" points="619.67,-43 609.67,-46.5 619.67,-50 619.67,-43"/>
</g>
<!-- Node13 -->
<g id="node13" class="node">
<title>Node13</title>
<g id="a_node13"><a xlink:href="class_ogre_1_1v1_1_1_mesh_serializer_impl__v1__41.html" target="_top" xlink:title="Class for providing backwards&#45;compatibility for loading version 1.41 of the .mesh format.">
<polygon fill="#fff0f0" stroke="red" points="928,-61.5 807,-61.5 807,-31.5 928,-31.5 928,-61.5"/>
<text text-anchor="start" x="815" y="-49.5" font-family="Helvetica,sans-Serif" font-size="10.00">Ogre::v1::MeshSerializer</text>
<text text-anchor="middle" x="867.5" y="-38.5" font-family="Helvetica,sans-Serif" font-size="10.00">Impl_v1_41</text>
</a>
</g>
</g>
<!-- Node12&#45;&gt;Node13 -->
<g id="edge12" class="edge">
<title>Node12&#45;&gt;Node13</title>
<path fill="none" stroke="#63b8ff" d="M780.61,-46.5C789.3,-46.5 798.11,-46.5 806.6,-46.5"/>
<polygon fill="#63b8ff" stroke="#63b8ff" points="780.82,-43 770.82,-46.5 780.82,-50 780.82,-43"/>
</g>
</g>
</svg>
