<?xml version="1.0" encoding="UTF-8" standalone="no"?>
<!DOCTYPE svg PUBLIC "-//W3C//DTD SVG 1.1//EN"
 "http://www.w3.org/Graphics/SVG/1.1/DTD/svg11.dtd">
<!-- Generated by graphviz version 2.43.0 (0)
 -->
<!-- Title: Ogre::v1::OverlaySystem Pages: 1 -->
<svg width="415pt" height="95pt"
 viewBox="0.00 0.00 414.50 95.00" xmlns="http://www.w3.org/2000/svg" xmlns:xlink="http://www.w3.org/1999/xlink">
<g id="graph0" class="graph" transform="scale(1 1) rotate(0) translate(4 91)">
<title>Ogre::v1::OverlaySystem</title>
<!-- Node1 -->
<g id="node1" class="node">
<title>Node1</title>
<g id="a_node1"><a xlink:title="This class simplify initialization / finalization of the overlay system.">
<polygon fill="#bfbfbf" stroke="black" points="126.5,-0.5 126.5,-19.5 265.5,-19.5 265.5,-0.5 126.5,-0.5"/>
<text text-anchor="middle" x="196" y="-7.5" font-family="Helvetica,sans-Serif" font-size="10.00">Ogre::v1::OverlaySystem</text>
</a>
</g>
</g>
<!-- Node2 -->
<g id="node2" class="node">
<title>Node2</title>
<g id="a_node2"><a xlink:title=" ">
<polygon fill="none" stroke="#bfbfbf" points="0,-62 0,-81 102,-81 102,-62 0,-62"/>
<text text-anchor="middle" x="51" y="-69" font-family="Helvetica,sans-Serif" font-size="10.00">OgreAllocatedObj</text>
</a>
</g>
</g>
<!-- Node2&#45;&gt;Node1 -->
<g id="edge1" class="edge">
<title>Node2&#45;&gt;Node1</title>
<path fill="none" stroke="midnightblue" d="M81.14,-58.13C109.31,-46.57 150.62,-29.62 175.26,-19.51"/>
<polygon fill="midnightblue" stroke="midnightblue" points="79.7,-54.94 71.77,-61.98 82.36,-61.42 79.7,-54.94"/>
</g>
<!-- Node3 -->
<g id="node3" class="node">
<title>Node3</title>
<g id="a_node3"><a xlink:href="class_ogre_1_1_render_queue_listener.html" target="_top" xlink:title="Abstract interface which classes must implement if they wish to receive events from the render queue.">
<polygon fill="none" stroke="black" points="120.5,-62 120.5,-81 271.5,-81 271.5,-62 120.5,-62"/>
<text text-anchor="middle" x="196" y="-69" font-family="Helvetica,sans-Serif" font-size="10.00">Ogre::RenderQueueListener</text>
</a>
</g>
</g>
<!-- Node3&#45;&gt;Node1 -->
<g id="edge2" class="edge">
<title>Node3&#45;&gt;Node1</title>
<path fill="none" stroke="midnightblue" d="M196,-51.82C196,-41 196,-27.9 196,-19.51"/>
<polygon fill="midnightblue" stroke="midnightblue" points="192.5,-51.98 196,-61.98 199.5,-51.98 192.5,-51.98"/>
</g>
<!-- Node4 -->
<g id="node4" class="node">
<title>Node4</title>
<g id="a_node4"><a xlink:href="class_ogre_1_1_render_system_1_1_listener.html" target="_top" xlink:title="Defines a listener on the custom events that this render system can raise.">
<polygon fill="none" stroke="black" points="289.5,-56.5 289.5,-86.5 406.5,-86.5 406.5,-56.5 289.5,-56.5"/>
<text text-anchor="start" x="297.5" y="-74.5" font-family="Helvetica,sans-Serif" font-size="10.00">Ogre::RenderSystem</text>
<text text-anchor="middle" x="348" y="-63.5" font-family="Helvetica,sans-Serif" font-size="10.00">::Listener</text>
</a>
</g>
</g>
<!-- Node4&#45;&gt;Node1 -->
<g id="edge3" class="edge">
<title>Node4&#45;&gt;Node1</title>
<path fill="none" stroke="midnightblue" d="M302.42,-52.66C274.54,-41.75 240.12,-28.27 218.12,-19.66"/>
<polygon fill="midnightblue" stroke="midnightblue" points="301.39,-56.01 311.98,-56.4 303.94,-49.49 301.39,-56.01"/>
</g>
</g>
</svg>
