<?xml version="1.0" encoding="UTF-8" standalone="no"?>
<!DOCTYPE svg PUBLIC "-//W3C//DTD SVG 1.1//EN"
 "http://www.w3.org/Graphics/SVG/1.1/DTD/svg11.dtd">
<!-- Generated by graphviz version 7.0.5 (20221223.1930)
 -->
<!-- Title: Ogre::UnifiedHighLevelGpuProgramFactory Pages: 1 -->
<svg width="149pt" height="159pt"
 viewBox="0.00 0.00 149.00 159.00" xmlns="http://www.w3.org/2000/svg" xmlns:xlink="http://www.w3.org/1999/xlink">
<g id="graph0" class="graph" transform="scale(1 1) rotate(0) translate(4 155)">
<title>Ogre::UnifiedHighLevelGpuProgramFactory</title>
<!-- Node1 -->
<g id="node1" class="node">
<title>Node1</title>
<g id="a_node1"><a xlink:title="Factory class for Unified programs.">
<polygon fill="#999999" stroke="#666666" points="137.5,-30 3.5,-30 3.5,0 137.5,0 137.5,-30"/>
<text text-anchor="start" x="11.5" y="-18" font-family="Helvetica,sans-Serif" font-size="10.00">Ogre::UnifiedHighLevelGpu</text>
<text text-anchor="middle" x="70.5" y="-7" font-family="Helvetica,sans-Serif" font-size="10.00">ProgramFactory</text>
</a>
</g>
</g>
<!-- Node2 -->
<g id="node2" class="node">
<title>Node2</title>
<g id="a_node2"><a xlink:href="class_ogre_1_1_high_level_gpu_program_factory.html" target="_top" xlink:title="Interface definition for factories of HighLevelGpuProgram.">
<polygon fill="white" stroke="#666666" points="141,-96 0,-96 0,-66 141,-66 141,-96"/>
<text text-anchor="start" x="8" y="-84" font-family="Helvetica,sans-Serif" font-size="10.00">Ogre::HighLevelGpuProgram</text>
<text text-anchor="middle" x="70.5" y="-73" font-family="Helvetica,sans-Serif" font-size="10.00">Factory</text>
</a>
</g>
</g>
<!-- Node2&#45;&gt;Node1 -->
<g id="edge1" class="edge">
<title>Node2&#45;&gt;Node1</title>
<path fill="none" stroke="#63b8ff" d="M70.5,-54.39C70.5,-46.13 70.5,-37.28 70.5,-30.16"/>
<polygon fill="#63b8ff" stroke="#63b8ff" points="67,-54.28 70.5,-64.28 74,-54.28 67,-54.28"/>
</g>
<!-- Node3 -->
<g id="node3" class="node">
<title>Node3</title>
<g id="a_node3"><a xlink:title=" ">
<polygon fill="white" stroke="#666666" points="130,-151 11,-151 11,-132 130,-132 130,-151"/>
<text text-anchor="middle" x="70.5" y="-139" font-family="Helvetica,sans-Serif" font-size="10.00">Ogre::OgreAllocatedObj</text>
</a>
</g>
</g>
<!-- Node3&#45;&gt;Node2 -->
<g id="edge2" class="edge">
<title>Node3&#45;&gt;Node2</title>
<path fill="none" stroke="#63b8ff" d="M70.5,-120.51C70.5,-112.49 70.5,-103.43 70.5,-96.11"/>
<polygon fill="#63b8ff" stroke="#63b8ff" points="67,-120.35 70.5,-130.35 74,-120.35 67,-120.35"/>
</g>
</g>
</svg>
