<?xml version="1.0" encoding="UTF-8" standalone="no"?>
<!DOCTYPE svg PUBLIC "-//W3C//DTD SVG 1.1//EN"
 "http://www.w3.org/Graphics/SVG/1.1/DTD/svg11.dtd">
<!-- Generated by graphviz version 7.0.5 (20221223.1930)
 -->
<!-- Title: Ogre::DefaultShadowCameraSetup Pages: 1 -->
<svg width="342pt" height="269pt"
 viewBox="0.00 0.00 341.50 269.00" xmlns="http://www.w3.org/2000/svg" xmlns:xlink="http://www.w3.org/1999/xlink">
<g id="graph0" class="graph" transform="scale(1 1) rotate(0) translate(4 265)">
<title>Ogre::DefaultShadowCameraSetup</title>
<!-- Node1 -->
<g id="node1" class="node">
<title>Node1</title>
<g id="a_node1"><a xlink:title="Implements default shadow camera setup.">
<polygon fill="#999999" stroke="#666666" points="236,-151 94,-151 94,-121 236,-121 236,-151"/>
<text text-anchor="start" x="102" y="-139" font-family="Helvetica,sans-Serif" font-size="10.00">Ogre::DefaultShadowCamera</text>
<text text-anchor="middle" x="165" y="-128" font-family="Helvetica,sans-Serif" font-size="10.00">Setup</text>
</a>
</g>
</g>
<!-- Node4 -->
<g id="node4" class="node">
<title>Node4</title>
<g id="a_node4"><a xlink:href="class_ogre_1_1_concentric_shadow_camera.html" target="_top" xlink:title="Implements the concentric shadow mapping algorithm.">
<polygon fill="white" stroke="#666666" points="158,-79.5 0,-79.5 0,-60.5 158,-60.5 158,-79.5"/>
<text text-anchor="middle" x="79" y="-67.5" font-family="Helvetica,sans-Serif" font-size="10.00">Ogre::ConcentricShadowCamera</text>
</a>
</g>
</g>
<!-- Node1&#45;&gt;Node4 -->
<g id="edge3" class="edge">
<title>Node1&#45;&gt;Node4</title>
<path fill="none" stroke="#63b8ff" d="M136.69,-113.93C121.13,-102.35 102.66,-88.61 90.88,-79.84"/>
<polygon fill="#63b8ff" stroke="#63b8ff" points="134.59,-116.73 144.7,-119.89 138.77,-111.11 134.59,-116.73"/>
</g>
<!-- Node5 -->
<g id="node5" class="node">
<title>Node5</title>
<g id="a_node5"><a xlink:href="class_ogre_1_1_focused_shadow_camera_setup.html" target="_top" xlink:title="Implements the uniform shadow mapping algorithm in focused mode.">
<polygon fill="white" stroke="#666666" points="325.5,-85 176.5,-85 176.5,-55 325.5,-55 325.5,-85"/>
<text text-anchor="start" x="184.5" y="-73" font-family="Helvetica,sans-Serif" font-size="10.00">Ogre::FocusedShadowCamera</text>
<text text-anchor="middle" x="251" y="-62" font-family="Helvetica,sans-Serif" font-size="10.00">Setup</text>
</a>
</g>
</g>
<!-- Node1&#45;&gt;Node5 -->
<g id="edge4" class="edge">
<title>Node1&#45;&gt;Node5</title>
<path fill="none" stroke="#63b8ff" d="M193.25,-113.97C205.84,-104.61 220.35,-93.81 231.67,-85.39"/>
<polygon fill="#63b8ff" stroke="#63b8ff" points="191.23,-111.11 185.3,-119.89 195.41,-116.73 191.23,-111.11"/>
</g>
<!-- Node2 -->
<g id="node2" class="node">
<title>Node2</title>
<g id="a_node2"><a xlink:href="class_ogre_1_1_shadow_camera_setup.html" target="_top" xlink:title="This class allows you to plug in new ways to define the camera setup when rendering and projecting sh...">
<polygon fill="white" stroke="#666666" points="233.5,-206 96.5,-206 96.5,-187 233.5,-187 233.5,-206"/>
<text text-anchor="middle" x="165" y="-194" font-family="Helvetica,sans-Serif" font-size="10.00">Ogre::ShadowCameraSetup</text>
</a>
</g>
</g>
<!-- Node2&#45;&gt;Node1 -->
<g id="edge1" class="edge">
<title>Node2&#45;&gt;Node1</title>
<path fill="none" stroke="#63b8ff" d="M165,-175.51C165,-167.49 165,-158.43 165,-151.11"/>
<polygon fill="#63b8ff" stroke="#63b8ff" points="161.5,-175.35 165,-185.35 168.5,-175.35 161.5,-175.35"/>
</g>
<!-- Node3 -->
<g id="node3" class="node">
<title>Node3</title>
<g id="a_node3"><a xlink:title=" ">
<polygon fill="white" stroke="#666666" points="224.5,-261 105.5,-261 105.5,-242 224.5,-242 224.5,-261"/>
<text text-anchor="middle" x="165" y="-249" font-family="Helvetica,sans-Serif" font-size="10.00">Ogre::OgreAllocatedObj</text>
</a>
</g>
</g>
<!-- Node3&#45;&gt;Node2 -->
<g id="edge2" class="edge">
<title>Node3&#45;&gt;Node2</title>
<path fill="none" stroke="#63b8ff" d="M165,-230.35C165,-222.1 165,-212.97 165,-206.44"/>
<polygon fill="#63b8ff" stroke="#63b8ff" points="161.5,-230.23 165,-240.23 168.5,-230.23 161.5,-230.23"/>
</g>
<!-- Node6 -->
<g id="node6" class="node">
<title>Node6</title>
<g id="a_node6"><a xlink:href="class_ogre_1_1_p_s_s_m_shadow_camera_setup.html" target="_top" xlink:title="Parallel Split Shadow Map (PSSM) shadow camera setup.">
<polygon fill="white" stroke="#666666" points="333.5,-19 168.5,-19 168.5,0 333.5,0 333.5,-19"/>
<text text-anchor="middle" x="251" y="-7" font-family="Helvetica,sans-Serif" font-size="10.00">Ogre::PSSMShadowCameraSetup</text>
</a>
</g>
</g>
<!-- Node5&#45;&gt;Node6 -->
<g id="edge5" class="edge">
<title>Node5&#45;&gt;Node6</title>
<path fill="none" stroke="#63b8ff" d="M251,-43.3C251,-34.65 251,-25.58 251,-19.18"/>
<polygon fill="#63b8ff" stroke="#63b8ff" points="247.5,-43.03 251,-53.03 254.5,-43.03 247.5,-43.03"/>
</g>
</g>
</svg>
