<?xml version="1.0" encoding="UTF-8" standalone="no"?>
<!DOCTYPE svg PUBLIC "-//W3C//DTD SVG 1.1//EN"
 "http://www.w3.org/Graphics/SVG/1.1/DTD/svg11.dtd">
<!-- Generated by graphviz version 2.43.0 (0)
 -->
<!-- Title: Ogre::D3D11RenderSystem Pages: 1 -->
<svg width="318pt" height="151pt"
 viewBox="0.00 0.00 317.50 151.00" xmlns="http://www.w3.org/2000/svg" xmlns:xlink="http://www.w3.org/1999/xlink">
<g id="graph0" class="graph" transform="scale(1 1) rotate(0) translate(4 147)">
<title>Ogre::D3D11RenderSystem</title>
<!-- Node1 -->
<g id="node1" class="node">
<title>Node1</title>
<g id="a_node1"><a xlink:title="Implementation of DirectX11 as a rendering system.">
<polygon fill="#bfbfbf" stroke="black" points="65.5,-0.5 65.5,-19.5 215.5,-19.5 215.5,-0.5 65.5,-0.5"/>
<text text-anchor="middle" x="140.5" y="-7.5" font-family="Helvetica,sans-Serif" font-size="10.00">Ogre::D3D11RenderSystem</text>
</a>
</g>
</g>
<!-- Node2 -->
<g id="node2" class="node">
<title>Node2</title>
<g id="a_node2"><a xlink:href="class_ogre_1_1_render_system.html" target="_top" xlink:title="Defines the functionality of a 3D API.">
<polygon fill="none" stroke="black" points="0,-62 0,-81 117,-81 117,-62 0,-62"/>
<text text-anchor="middle" x="58.5" y="-69" font-family="Helvetica,sans-Serif" font-size="10.00">Ogre::RenderSystem</text>
</a>
</g>
</g>
<!-- Node2&#45;&gt;Node1 -->
<g id="edge1" class="edge">
<title>Node2&#45;&gt;Node1</title>
<path fill="none" stroke="midnightblue" d="M78.77,-55.79C94.5,-44.38 115.75,-28.96 128.77,-19.51"/>
<polygon fill="midnightblue" stroke="midnightblue" points="76.29,-53.27 70.25,-61.98 80.4,-58.93 76.29,-53.27"/>
</g>
<!-- Node3 -->
<g id="node3" class="node">
<title>Node3</title>
<g id="a_node3"><a xlink:title=" ">
<polygon fill="none" stroke="#bfbfbf" points="7.5,-123.5 7.5,-142.5 109.5,-142.5 109.5,-123.5 7.5,-123.5"/>
<text text-anchor="middle" x="58.5" y="-130.5" font-family="Helvetica,sans-Serif" font-size="10.00">OgreAllocatedObj</text>
</a>
</g>
</g>
<!-- Node3&#45;&gt;Node2 -->
<g id="edge2" class="edge">
<title>Node3&#45;&gt;Node2</title>
<path fill="none" stroke="midnightblue" d="M58.5,-113.32C58.5,-102.5 58.5,-89.4 58.5,-81.01"/>
<polygon fill="midnightblue" stroke="midnightblue" points="55,-113.48 58.5,-123.48 62,-113.48 55,-113.48"/>
</g>
<!-- Node4 -->
<g id="node4" class="node">
<title>Node4</title>
<g id="a_node4"><a xlink:href="class_ogre_1_1_device_depended_resource_manager.html" target="_top" xlink:title="Singleton that is used to propagate device state changed notifications.">
<polygon fill="none" stroke="black" points="135.5,-56.5 135.5,-86.5 309.5,-86.5 309.5,-56.5 135.5,-56.5"/>
<text text-anchor="start" x="143.5" y="-74.5" font-family="Helvetica,sans-Serif" font-size="10.00">Ogre::DeviceDependedResource</text>
<text text-anchor="middle" x="222.5" y="-63.5" font-family="Helvetica,sans-Serif" font-size="10.00">Manager</text>
</a>
</g>
</g>
<!-- Node4&#45;&gt;Node1 -->
<g id="edge3" class="edge">
<title>Node4&#45;&gt;Node1</title>
<path fill="none" stroke="#8b1a1a" d="M194.91,-50.48C180.47,-40 163.53,-27.71 152.43,-19.66"/>
<polygon fill="#8b1a1a" stroke="#8b1a1a" points="192.92,-53.36 203.07,-56.4 197.03,-47.69 192.92,-53.36"/>
</g>
</g>
</svg>
