<?xml version="1.0" encoding="UTF-8" standalone="no"?>
<!DOCTYPE svg PUBLIC "-//W3C//DTD SVG 1.1//EN"
 "http://www.w3.org/Graphics/SVG/1.1/DTD/svg11.dtd">
<!-- Generated by graphviz version 2.43.0 (0)
 -->
<!-- Title: Ogre::Particle Pages: 1 -->
<svg width="921pt" height="249pt"
 viewBox="0.00 0.00 921.00 249.00" xmlns="http://www.w3.org/2000/svg" xmlns:xlink="http://www.w3.org/1999/xlink">
<g id="graph0" class="graph" transform="scale(1 1) rotate(0) translate(4 245)">
<title>Ogre::Particle</title>
<!-- Node1 -->
<g id="Node000001" class="node">
<title>Node1</title>
<g id="a_Node000001"><a xlink:title="Class representing a single particle instance.">
<polygon fill="#999999" stroke="#666666" points="249,-93 167,-93 167,-74 249,-74 249,-93"/>
<text text-anchor="middle" x="208" y="-81" font-family="Helvetica,sans-Serif" font-size="10.00">Ogre::Particle</text>
</a>
</g>
</g>
<!-- Node3 -->
<g id="Node000003" class="node">
<title>Node3</title>
<g id="a_Node000003"><a xlink:href="class_ogre_1_1_particle_emitter.html" target="_top" xlink:title="Abstract class defining the interface to be implemented by particle emitters.">
<polygon fill="white" stroke="#666666" points="403,-93 285,-93 285,-74 403,-74 403,-93"/>
<text text-anchor="middle" x="344" y="-81" font-family="Helvetica,sans-Serif" font-size="10.00">Ogre::ParticleEmitter</text>
</a>
</g>
</g>
<!-- Node1&#45;&gt;Node3 -->
<g id="edge2_Node000001_Node000003" class="edge">
<title>Node1&#45;&gt;Node3</title>
<g id="a_edge2_Node000001_Node000003"><a xlink:title=" ">
<path fill="none" stroke="#63b8ff" d="M259.23,-83.5C267.63,-83.5 276.41,-83.5 284.99,-83.5"/>
<polygon fill="#63b8ff" stroke="#63b8ff" points="259.2,-80 249.2,-83.5 259.2,-87 259.2,-80"/>
</a>
</g>
</g>
<!-- Node2 -->
<g id="Node000002" class="node">
<title>Node2</title>
<g id="a_Node000002"><a xlink:title=" ">
<polygon fill="white" stroke="#666666" points="131,-93 0,-93 0,-74 131,-74 131,-93"/>
<text text-anchor="middle" x="65.5" y="-81" font-family="Helvetica,sans-Serif" font-size="10.00">Ogre::OgreAllocatedObj</text>
</a>
</g>
</g>
<!-- Node2&#45;&gt;Node1 -->
<g id="edge1_Node000001_Node000002" class="edge">
<title>Node2&#45;&gt;Node1</title>
<g id="a_edge1_Node000001_Node000002"><a xlink:title=" ">
<path fill="none" stroke="#63b8ff" d="M141.61,-83.5C150.3,-83.5 158.89,-83.5 166.84,-83.5"/>
<polygon fill="#63b8ff" stroke="#63b8ff" points="141.4,-80 131.4,-83.5 141.4,-87 141.4,-80"/>
</a>
</g>
</g>
<!-- Node4 -->
<g id="Node000004" class="node">
<title>Node4</title>
<g id="a_Node000004"><a xlink:href="class_ogre_1_1_area_emitter.html" target="_top" xlink:title="Particle emitter which emits particles randomly from points inside an area (box, sphere,...">
<polygon fill="white" stroke="#666666" points="552,-167 448,-167 448,-148 552,-148 552,-167"/>
<text text-anchor="middle" x="500" y="-155" font-family="Helvetica,sans-Serif" font-size="10.00">Ogre::AreaEmitter</text>
</a>
</g>
</g>
<!-- Node3&#45;&gt;Node4 -->
<g id="edge3_Node000003_Node000004" class="edge">
<title>Node3&#45;&gt;Node4</title>
<g id="a_edge3_Node000003_Node000004"><a xlink:title=" ">
<path fill="none" stroke="#63b8ff" d="M374.12,-97.49C404.71,-112.19 452.02,-134.93 478.77,-147.78"/>
<polygon fill="#63b8ff" stroke="#63b8ff" points="375.35,-94.2 364.82,-93.02 372.32,-100.51 375.35,-94.2"/>
</a>
</g>
</g>
<!-- Node10 -->
<g id="Node000010" class="node">
<title>Node10</title>
<g id="a_Node000010"><a xlink:href="class_ogre_1_1_emitter_def_data.html" target="_top" xlink:title="EmitterDefData are per ParticleSystemDef.">
<polygon fill="white" stroke="#666666" points="561,-93 439,-93 439,-74 561,-74 561,-93"/>
<text text-anchor="middle" x="500" y="-81" font-family="Helvetica,sans-Serif" font-size="10.00">Ogre::EmitterDefData</text>
</a>
</g>
</g>
<!-- Node3&#45;&gt;Node10 -->
<g id="edge9_Node000003_Node000010" class="edge">
<title>Node3&#45;&gt;Node10</title>
<g id="a_edge9_Node000003_Node000010"><a xlink:title=" ">
<path fill="none" stroke="#8b1a1a" d="M413.47,-83.5C421.94,-83.5 430.56,-83.5 438.9,-83.5"/>
<polygon fill="#8b1a1a" stroke="#8b1a1a" points="413.22,-80 403.22,-83.5 413.22,-87 413.22,-80"/>
</a>
</g>
</g>
<!-- Node18 -->
<g id="Node000018" class="node">
<title>Node18</title>
<g id="a_Node000018"><a xlink:href="class_ogre_1_1_point_emitter.html" target="_top" xlink:title="Particle emitter which emits particles from a single point.">
<polygon fill="white" stroke="#666666" points="553.5,-56 446.5,-56 446.5,-37 553.5,-37 553.5,-56"/>
<text text-anchor="middle" x="500" y="-44" font-family="Helvetica,sans-Serif" font-size="10.00">Ogre::PointEmitter</text>
</a>
</g>
</g>
<!-- Node3&#45;&gt;Node18 -->
<g id="edge16_Node000003_Node000018" class="edge">
<title>Node3&#45;&gt;Node18</title>
<g id="a_edge16_Node000003_Node000018"><a xlink:title=" ">
<path fill="none" stroke="#63b8ff" d="M394.63,-71.57C415.53,-66.56 439.51,-60.79 459.21,-56.06"/>
<polygon fill="#63b8ff" stroke="#63b8ff" points="393.56,-68.23 384.66,-73.97 395.2,-75.04 393.56,-68.23"/>
</a>
</g>
</g>
<!-- Node5 -->
<g id="Node000005" class="node">
<title>Node5</title>
<g id="a_Node000005"><a xlink:href="class_ogre_1_1_box_emitter.html" target="_top" xlink:title="Particle emitter which emits particles randomly from points inside a box.">
<polygon fill="white" stroke="#666666" points="709,-241 608,-241 608,-222 709,-222 709,-241"/>
<text text-anchor="middle" x="658.5" y="-229" font-family="Helvetica,sans-Serif" font-size="10.00">Ogre::BoxEmitter</text>
</a>
</g>
</g>
<!-- Node4&#45;&gt;Node5 -->
<g id="edge4_Node000004_Node000005" class="edge">
<title>Node4&#45;&gt;Node5</title>
<g id="a_edge4_Node000004_Node000005"><a xlink:title=" ">
<path fill="none" stroke="#63b8ff" d="M523.59,-172.77C542.55,-185.06 570.68,-202.1 597,-213.5 604.34,-216.68 612.41,-219.51 620.21,-221.93"/>
<polygon fill="#63b8ff" stroke="#63b8ff" points="525.35,-169.73 515.07,-167.16 521.5,-175.58 525.35,-169.73"/>
</a>
</g>
</g>
<!-- Node6 -->
<g id="Node000006" class="node">
<title>Node6</title>
<g id="a_Node000006"><a xlink:href="class_ogre_1_1_cylinder_emitter.html" target="_top" xlink:title="Particle emitter which emits particles randomly from points inside a cylinder.">
<polygon fill="white" stroke="#666666" points="719.5,-204 597.5,-204 597.5,-185 719.5,-185 719.5,-204"/>
<text text-anchor="middle" x="658.5" y="-192" font-family="Helvetica,sans-Serif" font-size="10.00">Ogre::CylinderEmitter</text>
</a>
</g>
</g>
<!-- Node4&#45;&gt;Node6 -->
<g id="edge5_Node000004_Node000006" class="edge">
<title>Node4&#45;&gt;Node6</title>
<g id="a_edge5_Node000004_Node000006"><a xlink:title=" ">
<path fill="none" stroke="#63b8ff" d="M551.15,-169.36C572.45,-174.39 596.95,-180.18 617.06,-184.94"/>
<polygon fill="#63b8ff" stroke="#63b8ff" points="551.84,-165.92 541.3,-167.03 550.23,-172.74 551.84,-165.92"/>
</a>
</g>
</g>
<!-- Node7 -->
<g id="Node000007" class="node">
<title>Node7</title>
<g id="a_Node000007"><a xlink:href="class_ogre_1_1_ellipsoid_emitter.html" target="_top" xlink:title="Particle emitter which emits particles randomly from points inside an ellipsoid.">
<polygon fill="white" stroke="#666666" points="720,-167 597,-167 597,-148 720,-148 720,-167"/>
<text text-anchor="middle" x="658.5" y="-155" font-family="Helvetica,sans-Serif" font-size="10.00">Ogre::EllipsoidEmitter</text>
</a>
</g>
</g>
<!-- Node4&#45;&gt;Node7 -->
<g id="edge6_Node000004_Node000007" class="edge">
<title>Node4&#45;&gt;Node7</title>
<g id="a_edge6_Node000004_Node000007"><a xlink:title=" ">
<path fill="none" stroke="#63b8ff" d="M562.47,-157.5C573.78,-157.5 585.59,-157.5 596.88,-157.5"/>
<polygon fill="#63b8ff" stroke="#63b8ff" points="562.24,-154 552.24,-157.5 562.24,-161 562.24,-154"/>
</a>
</g>
</g>
<!-- Node9 -->
<g id="Node000009" class="node">
<title>Node9</title>
<g id="a_Node000009"><a xlink:href="class_ogre_1_1_ring_emitter.html" target="_top" xlink:title="Particle emitter which emits particles randomly from points inside a ring (e.g.">
<polygon fill="white" stroke="#666666" points="710.5,-130 606.5,-130 606.5,-111 710.5,-111 710.5,-130"/>
<text text-anchor="middle" x="658.5" y="-118" font-family="Helvetica,sans-Serif" font-size="10.00">Ogre::RingEmitter</text>
</a>
</g>
</g>
<!-- Node4&#45;&gt;Node9 -->
<g id="edge8_Node000004_Node000009" class="edge">
<title>Node4&#45;&gt;Node9</title>
<g id="a_edge8_Node000004_Node000009"><a xlink:title=" ">
<path fill="none" stroke="#63b8ff" d="M551.15,-145.64C572.45,-140.61 596.95,-134.82 617.06,-130.06"/>
<polygon fill="#63b8ff" stroke="#63b8ff" points="550.23,-142.26 541.3,-147.97 551.84,-149.08 550.23,-142.26"/>
</a>
</g>
</g>
<!-- Node8 -->
<g id="Node000008" class="node">
<title>Node8</title>
<g id="a_Node000008"><a xlink:href="class_ogre_1_1_hollow_ellipsoid_emitter.html" target="_top" xlink:title="Particle emitter which emits particles randomly from points inside a hollow ellipsoid.">
<polygon fill="white" stroke="#666666" points="913,-167 756,-167 756,-148 913,-148 913,-167"/>
<text text-anchor="middle" x="834.5" y="-155" font-family="Helvetica,sans-Serif" font-size="10.00">Ogre::HollowEllipsoidEmitter</text>
</a>
</g>
</g>
<!-- Node7&#45;&gt;Node8 -->
<g id="edge7_Node000007_Node000008" class="edge">
<title>Node7&#45;&gt;Node8</title>
<g id="a_edge7_Node000007_Node000008"><a xlink:title=" ">
<path fill="none" stroke="#63b8ff" d="M730.45,-157.5C738.82,-157.5 747.4,-157.5 755.85,-157.5"/>
<polygon fill="#63b8ff" stroke="#63b8ff" points="730.36,-154 720.36,-157.5 730.36,-161 730.36,-154"/>
</a>
</g>
</g>
<!-- Node11 -->
<g id="Node000011" class="node">
<title>Node11</title>
<g id="a_Node000011"><a xlink:href="class_ogre_1_1_area_emitter2.html" target="_top" xlink:title="Particle emitter which emits particles randomly from points inside an area (box, sphere,...">
<polygon fill="white" stroke="#666666" points="713.5,-93 603.5,-93 603.5,-74 713.5,-74 713.5,-93"/>
<text text-anchor="middle" x="658.5" y="-81" font-family="Helvetica,sans-Serif" font-size="10.00">Ogre::AreaEmitter2</text>
</a>
</g>
</g>
<!-- Node10&#45;&gt;Node11 -->
<g id="edge10_Node000010_Node000011" class="edge">
<title>Node10&#45;&gt;Node11</title>
<g id="a_edge10_Node000010_Node000011"><a xlink:title=" ">
<path fill="none" stroke="#63b8ff" d="M571.32,-83.5C582.12,-83.5 593.12,-83.5 603.49,-83.5"/>
<polygon fill="#63b8ff" stroke="#63b8ff" points="571.06,-80 561.06,-83.5 571.06,-87 571.06,-80"/>
</a>
</g>
</g>
<!-- Node17 -->
<g id="Node000017" class="node">
<title>Node17</title>
<g id="a_Node000017"><a xlink:href="class_ogre_1_1_point_emitter2.html" target="_top" xlink:title=" ">
<polygon fill="white" stroke="#666666" points="715,-56 602,-56 602,-37 715,-37 715,-56"/>
<text text-anchor="middle" x="658.5" y="-44" font-family="Helvetica,sans-Serif" font-size="10.00">Ogre::PointEmitter2</text>
</a>
</g>
</g>
<!-- Node10&#45;&gt;Node17 -->
<g id="edge15_Node000010_Node000017" class="edge">
<title>Node10&#45;&gt;Node17</title>
<g id="a_edge15_Node000010_Node000017"><a xlink:title=" ">
<path fill="none" stroke="#63b8ff" d="M551.15,-71.64C572.45,-66.61 596.95,-60.82 617.06,-56.06"/>
<polygon fill="#63b8ff" stroke="#63b8ff" points="550.23,-68.26 541.3,-73.97 551.84,-75.08 550.23,-68.26"/>
</a>
</g>
</g>
<!-- Node12 -->
<g id="Node000012" class="node">
<title>Node12</title>
<g id="a_Node000012"><a xlink:href="class_ogre_1_1_box_emitter2.html" target="_top" xlink:title="Particle emitter which emits particles randomly from points inside a box.">
<polygon fill="white" stroke="#666666" points="888,-130 781,-130 781,-111 888,-111 888,-130"/>
<text text-anchor="middle" x="834.5" y="-118" font-family="Helvetica,sans-Serif" font-size="10.00">Ogre::BoxEmitter2</text>
</a>
</g>
</g>
<!-- Node11&#45;&gt;Node12 -->
<g id="edge11_Node000011_Node000012" class="edge">
<title>Node11&#45;&gt;Node12</title>
<g id="a_edge11_Node000011_Node000012"><a xlink:title=" ">
<path fill="none" stroke="#63b8ff" d="M714.3,-95.15C738.2,-100.23 765.87,-106.12 788.54,-110.94"/>
<polygon fill="#63b8ff" stroke="#63b8ff" points="714.82,-91.68 704.31,-93.03 713.36,-98.53 714.82,-91.68"/>
</a>
</g>
</g>
<!-- Node13 -->
<g id="Node000013" class="node">
<title>Node13</title>
<g id="a_Node000013"><a xlink:href="class_ogre_1_1_cylinder_emitter2.html" target="_top" xlink:title="Particle emitter which emits particles randomly from points inside a cylinder.">
<polygon fill="white" stroke="#666666" points="898.5,-93 770.5,-93 770.5,-74 898.5,-74 898.5,-93"/>
<text text-anchor="middle" x="834.5" y="-81" font-family="Helvetica,sans-Serif" font-size="10.00">Ogre::CylinderEmitter2</text>
</a>
</g>
</g>
<!-- Node11&#45;&gt;Node13 -->
<g id="edge12_Node000011_Node000013" class="edge">
<title>Node11&#45;&gt;Node13</title>
<g id="a_edge12_Node000011_Node000013"><a xlink:title=" ">
<path fill="none" stroke="#63b8ff" d="M723.91,-83.5C739.06,-83.5 755.19,-83.5 770.29,-83.5"/>
<polygon fill="#63b8ff" stroke="#63b8ff" points="723.6,-80 713.6,-83.5 723.6,-87 723.6,-80"/>
</a>
</g>
</g>
<!-- Node14 -->
<g id="Node000014" class="node">
<title>Node14</title>
<g id="a_Node000014"><a xlink:href="class_ogre_1_1_ellipsoid_emitter2.html" target="_top" xlink:title="Particle emitter which emits particles randomly from points inside an ellipsoid.">
<polygon fill="#fff0f0" stroke="red" points="899,-56 770,-56 770,-37 899,-37 899,-56"/>
<text text-anchor="middle" x="834.5" y="-44" font-family="Helvetica,sans-Serif" font-size="10.00">Ogre::EllipsoidEmitter2</text>
</a>
</g>
</g>
<!-- Node11&#45;&gt;Node14 -->
<g id="edge13_Node000011_Node000014" class="edge">
<title>Node11&#45;&gt;Node14</title>
<g id="a_edge13_Node000011_Node000014"><a xlink:title=" ">
<path fill="none" stroke="#63b8ff" d="M714.3,-71.85C738.2,-66.77 765.87,-60.88 788.54,-56.06"/>
<polygon fill="#63b8ff" stroke="#63b8ff" points="713.36,-68.47 704.31,-73.97 714.82,-75.32 713.36,-68.47"/>
</a>
</g>
</g>
<!-- Node16 -->
<g id="Node000016" class="node">
<title>Node16</title>
<g id="a_Node000016"><a xlink:href="class_ogre_1_1_ring_emitter2.html" target="_top" xlink:title="Particle emitter which emits particles randomly from points inside a ring (e.g.">
<polygon fill="white" stroke="#666666" points="889.5,-19 779.5,-19 779.5,0 889.5,0 889.5,-19"/>
<text text-anchor="middle" x="834.5" y="-7" font-family="Helvetica,sans-Serif" font-size="10.00">Ogre::RingEmitter2</text>
</a>
</g>
</g>
<!-- Node11&#45;&gt;Node16 -->
<g id="edge14_Node000011_Node000016" class="edge">
<title>Node11&#45;&gt;Node16</title>
<g id="a_edge14_Node000011_Node000016"><a xlink:title=" ">
<path fill="none" stroke="#63b8ff" d="M709.24,-70.14C712.98,-68.46 716.62,-66.58 720,-64.5 739.54,-52.47 736.02,-38.77 756,-27.5 763.22,-23.43 771.31,-20.28 779.47,-17.84"/>
<polygon fill="#63b8ff" stroke="#63b8ff" points="707.76,-66.96 699.78,-73.93 710.37,-73.46 707.76,-66.96"/>
</a>
</g>
</g>
</g>
</svg>
