<?xml version="1.0" encoding="UTF-8" standalone="no"?>
<!DOCTYPE svg PUBLIC "-//W3C//DTD SVG 1.1//EN"
 "http://www.w3.org/Graphics/SVG/1.1/DTD/svg11.dtd">
<!-- Generated by graphviz version 7.0.5 (20221223.1930)
 -->
<!-- Title: Ogre::DistanceLodBoxStrategy Pages: 1 -->
<svg width="310pt" height="203pt"
 viewBox="0.00 0.00 310.00 203.00" xmlns="http://www.w3.org/2000/svg" xmlns:xlink="http://www.w3.org/1999/xlink">
<g id="graph0" class="graph" transform="scale(1 1) rotate(0) translate(4 199)">
<title>Ogre::DistanceLodBoxStrategy</title>
<!-- Node1 -->
<g id="node1" class="node">
<title>Node1</title>
<g id="a_node1"><a xlink:title="Level of detail strategy based on distance from camera to an object&#39;s bounding box.">
<polygon fill="#999999" stroke="#666666" points="232,-19 83,-19 83,0 232,0 232,-19"/>
<text text-anchor="middle" x="157.5" y="-7" font-family="Helvetica,sans-Serif" font-size="10.00">Ogre::DistanceLodBoxStrategy</text>
</a>
</g>
</g>
<!-- Node2 -->
<g id="node2" class="node">
<title>Node2</title>
<g id="a_node2"><a xlink:href="class_ogre_1_1_distance_lod_strategy_base.html" target="_top" xlink:title="Level of detail strategy based on distance from camera.">
<polygon fill="white" stroke="#666666" points="155,-79.5 0,-79.5 0,-60.5 155,-60.5 155,-79.5"/>
<text text-anchor="middle" x="77.5" y="-67.5" font-family="Helvetica,sans-Serif" font-size="10.00">Ogre::DistanceLodStrategyBase</text>
</a>
</g>
</g>
<!-- Node2&#45;&gt;Node1 -->
<g id="edge1" class="edge">
<title>Node2&#45;&gt;Node1</title>
<path fill="none" stroke="#63b8ff" d="M98.64,-53.54C113.5,-42.67 132.86,-28.52 145.24,-19.47"/>
<polygon fill="#63b8ff" stroke="#63b8ff" points="96.88,-50.49 90.87,-59.22 101.01,-56.14 96.88,-50.49"/>
</g>
<!-- Node3 -->
<g id="node3" class="node">
<title>Node3</title>
<g id="a_node3"><a xlink:href="class_ogre_1_1_lod_strategy.html" target="_top" xlink:title="Strategy for determining level of detail.">
<polygon fill="white" stroke="#666666" points="125,-140 30,-140 30,-121 125,-121 125,-140"/>
<text text-anchor="middle" x="77.5" y="-128" font-family="Helvetica,sans-Serif" font-size="10.00">Ogre::LodStrategy</text>
</a>
</g>
</g>
<!-- Node3&#45;&gt;Node2 -->
<g id="edge2" class="edge">
<title>Node3&#45;&gt;Node2</title>
<path fill="none" stroke="#63b8ff" d="M77.5,-109.66C77.5,-99.45 77.5,-87.54 77.5,-79.67"/>
<polygon fill="#63b8ff" stroke="#63b8ff" points="74,-109.35 77.5,-119.35 81,-109.35 74,-109.35"/>
</g>
<!-- Node4 -->
<g id="node4" class="node">
<title>Node4</title>
<g id="a_node4"><a xlink:title=" ">
<polygon fill="white" stroke="#666666" points="137,-195 18,-195 18,-176 137,-176 137,-195"/>
<text text-anchor="middle" x="77.5" y="-183" font-family="Helvetica,sans-Serif" font-size="10.00">Ogre::OgreAllocatedObj</text>
</a>
</g>
</g>
<!-- Node4&#45;&gt;Node3 -->
<g id="edge3" class="edge">
<title>Node4&#45;&gt;Node3</title>
<path fill="none" stroke="#63b8ff" d="M77.5,-164.35C77.5,-156.1 77.5,-146.97 77.5,-140.44"/>
<polygon fill="#63b8ff" stroke="#63b8ff" points="74,-164.23 77.5,-174.23 81,-164.23 74,-164.23"/>
</g>
<!-- Node5 -->
<g id="node5" class="node">
<title>Node5</title>
<g id="a_node5"><a xlink:href="class_ogre_1_1_singleton.html" target="_top" xlink:title=" ">
<polygon fill="white" stroke="#666666" points="302,-85 173,-85 173,-55 302,-55 302,-85"/>
<text text-anchor="start" x="181" y="-73" font-family="Helvetica,sans-Serif" font-size="10.00">Ogre::Singleton&lt; Distance</text>
<text text-anchor="middle" x="237.5" y="-62" font-family="Helvetica,sans-Serif" font-size="10.00">LodBoxStrategy &gt;</text>
</a>
</g>
</g>
<!-- Node5&#45;&gt;Node1 -->
<g id="edge4" class="edge">
<title>Node5&#45;&gt;Node1</title>
<path fill="none" stroke="#63b8ff" d="M208.72,-47.95C195.15,-38.03 179.71,-26.74 169.36,-19.18"/>
<polygon fill="#63b8ff" stroke="#63b8ff" points="206.36,-50.57 216.5,-53.65 210.5,-44.92 206.36,-50.57"/>
</g>
</g>
</svg>
