<?xml version="1.0" encoding="UTF-8" standalone="no"?>
<!DOCTYPE svg PUBLIC "-//W3C//DTD SVG 1.1//EN"
 "http://www.w3.org/Graphics/SVG/1.1/DTD/svg11.dtd">
<!-- Generated by graphviz version 2.43.0 (0)
 -->
<!-- Title: Ogre::BufferPacked Pages: 1 -->
<svg width="1078pt" height="692pt"
 viewBox="0.00 0.00 1078.00 692.00" xmlns="http://www.w3.org/2000/svg" xmlns:xlink="http://www.w3.org/1999/xlink">
<g id="graph0" class="graph" transform="scale(1 1) rotate(0) translate(4 688)">
<title>Ogre::BufferPacked</title>
<!-- Node1 -->
<g id="Node000001" class="node">
<title>Node1</title>
<g id="a_Node000001"><a xlink:title=" ">
<polygon fill="#999999" stroke="#666666" points="292,-317 183,-317 183,-298 292,-298 292,-317"/>
<text text-anchor="middle" x="237.5" y="-305" font-family="Helvetica,sans-Serif" font-size="10.00">Ogre::BufferPacked</text>
</a>
</g>
</g>
<!-- Node4 -->
<g id="Node000004" class="node">
<title>Node4</title>
<g id="a_Node000004"><a xlink:href="class_ogre_1_1_const_buffer_packed.html" target="_top" xlink:title="Represents constant buffers (also known as Uniform Buffers in GL)">
<polygon fill="white" stroke="#666666" points="469.5,-561 332.5,-561 332.5,-542 469.5,-542 469.5,-561"/>
<text text-anchor="middle" x="401" y="-549" font-family="Helvetica,sans-Serif" font-size="10.00">Ogre::ConstBufferPacked</text>
</a>
</g>
</g>
<!-- Node1&#45;&gt;Node4 -->
<g id="edge3_Node000001_Node000004" class="edge">
<title>Node1&#45;&gt;Node4</title>
<g id="a_edge3_Node000001_Node000004"><a xlink:title=" ">
<path fill="none" stroke="#63b8ff" d="M250.46,-325.57C282.44,-373.89 369.15,-504.88 393.54,-541.74"/>
<polygon fill="#63b8ff" stroke="#63b8ff" points="253.27,-323.47 244.83,-317.07 247.43,-327.34 253.27,-323.47"/>
</a>
</g>
</g>
<!-- Node11 -->
<g id="Node000011" class="node">
<title>Node11</title>
<g id="a_Node000011"><a xlink:href="class_ogre_1_1_index_buffer_packed.html" target="_top" xlink:title=" ">
<polygon fill="white" stroke="#666666" points="469,-373 333,-373 333,-354 469,-354 469,-373"/>
<text text-anchor="middle" x="401" y="-361" font-family="Helvetica,sans-Serif" font-size="10.00">Ogre::IndexBufferPacked</text>
</a>
</g>
</g>
<!-- Node1&#45;&gt;Node11 -->
<g id="edge10_Node000001_Node000011" class="edge">
<title>Node1&#45;&gt;Node11</title>
<g id="a_edge10_Node000001_Node000011"><a xlink:title=" ">
<path fill="none" stroke="#63b8ff" d="M267.92,-321.37C285.17,-329.15 307.53,-338.64 328,-345.5 337.29,-348.61 347.4,-351.46 357.04,-353.93"/>
<polygon fill="#63b8ff" stroke="#63b8ff" points="268.96,-318 258.41,-317.02 266.05,-324.36 268.96,-318"/>
</a>
</g>
</g>
<!-- Node12 -->
<g id="Node000012" class="node">
<title>Node12</title>
<g id="a_Node000012"><a xlink:href="class_ogre_1_1_indirect_buffer_packed.html" target="_top" xlink:title="Represents Indirect buffers for storing draw call commands.">
<polygon fill="white" stroke="#666666" points="474,-336 328,-336 328,-317 474,-317 474,-336"/>
<text text-anchor="middle" x="401" y="-324" font-family="Helvetica,sans-Serif" font-size="10.00">Ogre::IndirectBufferPacked</text>
</a>
</g>
</g>
<!-- Node1&#45;&gt;Node12 -->
<g id="edge11_Node000001_Node000012" class="edge">
<title>Node1&#45;&gt;Node12</title>
<g id="a_edge11_Node000001_Node000012"><a xlink:title=" ">
<path fill="none" stroke="#63b8ff" d="M302.32,-315.01C310.68,-315.99 319.29,-317 327.77,-318"/>
<polygon fill="#63b8ff" stroke="#63b8ff" points="302.62,-311.52 292.28,-313.83 301.8,-318.47 302.62,-311.52"/>
</a>
</g>
</g>
<!-- Node13 -->
<g id="Node000013" class="node">
<title>Node13</title>
<g id="a_Node000013"><a xlink:href="class_ogre_1_1_tex_buffer_packed.html" target="_top" xlink:title="Represents Texture buffers (also known as tbuffers in D3D11)">
<polygon fill="white" stroke="#666666" points="463.5,-299 338.5,-299 338.5,-280 463.5,-280 463.5,-299"/>
<text text-anchor="middle" x="401" y="-287" font-family="Helvetica,sans-Serif" font-size="10.00">Ogre::TexBufferPacked</text>
</a>
</g>
</g>
<!-- Node1&#45;&gt;Node13 -->
<g id="edge12_Node000001_Node000013" class="edge">
<title>Node1&#45;&gt;Node13</title>
<g id="a_edge12_Node000001_Node000013"><a xlink:title=" ">
<path fill="none" stroke="#63b8ff" d="M302.5,-300.37C314.31,-299.05 326.62,-297.68 338.36,-296.37"/>
<polygon fill="#63b8ff" stroke="#63b8ff" points="301.83,-296.92 292.28,-301.51 302.6,-303.88 301.83,-296.92"/>
</a>
</g>
</g>
<!-- Node29 -->
<g id="Node000029" class="node">
<title>Node29</title>
<g id="a_Node000029"><a xlink:href="class_ogre_1_1_uav_buffer_packed.html" target="_top" xlink:title="Represents UAV buffers (also known as SSBOs in OpenGL) Uav buffers are supported in DX10/DX10....">
<polygon fill="white" stroke="#666666" points="465,-130 337,-130 337,-111 465,-111 465,-130"/>
<text text-anchor="middle" x="401" y="-118" font-family="Helvetica,sans-Serif" font-size="10.00">Ogre::UavBufferPacked</text>
</a>
</g>
</g>
<!-- Node1&#45;&gt;Node29 -->
<g id="edge28_Node000001_Node000029" class="edge">
<title>Node1&#45;&gt;Node29</title>
<g id="a_edge28_Node000001_Node000029"><a xlink:title=" ">
<path fill="none" stroke="#63b8ff" d="M253.43,-290.21C286.63,-251.77 365.65,-160.27 391.59,-130.24"/>
<polygon fill="#63b8ff" stroke="#63b8ff" points="250.62,-288.11 246.73,-297.97 255.92,-292.69 250.62,-288.11"/>
</a>
</g>
</g>
<!-- Node35 -->
<g id="Node000035" class="node">
<title>Node35</title>
<g id="a_Node000035"><a xlink:href="class_ogre_1_1_vertex_buffer_packed.html" target="_top" xlink:title=" ">
<polygon fill="white" stroke="#666666" points="471,-93 331,-93 331,-74 471,-74 471,-93"/>
<text text-anchor="middle" x="401" y="-81" font-family="Helvetica,sans-Serif" font-size="10.00">Ogre::VertexBufferPacked</text>
</a>
</g>
</g>
<!-- Node1&#45;&gt;Node35 -->
<g id="edge34_Node000001_Node000035" class="edge">
<title>Node1&#45;&gt;Node35</title>
<g id="a_edge34_Node000001_Node000035"><a xlink:title=" ">
<path fill="none" stroke="#63b8ff" d="M241.19,-287.91C247.89,-246.8 269.26,-151.27 328,-101.5 332.03,-98.08 336.62,-95.3 341.48,-93.04"/>
<polygon fill="#63b8ff" stroke="#63b8ff" points="237.7,-287.56 239.67,-297.97 244.62,-288.61 237.7,-287.56"/>
</a>
</g>
</g>
<!-- Node2 -->
<g id="Node000002" class="node">
<title>Node2</title>
<g id="a_Node000002"><a xlink:href="struct_ogre_1_1_gpu_tracked_resource.html" target="_top" xlink:title=" ">
<polygon fill="white" stroke="#666666" points="147,-336 0,-336 0,-317 147,-317 147,-336"/>
<text text-anchor="middle" x="73.5" y="-324" font-family="Helvetica,sans-Serif" font-size="10.00">Ogre::GpuTrackedResource</text>
</a>
</g>
</g>
<!-- Node2&#45;&gt;Node1 -->
<g id="edge1_Node000001_Node000002" class="edge">
<title>Node2&#45;&gt;Node1</title>
<g id="a_edge1_Node000001_Node000002"><a xlink:title=" ">
<path fill="none" stroke="#63b8ff" d="M157.54,-316.76C166.15,-315.75 174.72,-314.75 182.88,-313.79"/>
<polygon fill="#63b8ff" stroke="#63b8ff" points="156.97,-313.3 147.44,-317.94 157.78,-320.26 156.97,-313.3"/>
</a>
</g>
</g>
<!-- Node3 -->
<g id="Node000003" class="node">
<title>Node3</title>
<g id="a_Node000003"><a xlink:title=" ">
<polygon fill="white" stroke="#666666" points="139,-299 8,-299 8,-280 139,-280 139,-299"/>
<text text-anchor="middle" x="73.5" y="-287" font-family="Helvetica,sans-Serif" font-size="10.00">Ogre::OgreAllocatedObj</text>
</a>
</g>
</g>
<!-- Node3&#45;&gt;Node1 -->
<g id="edge2_Node000001_Node000003" class="edge">
<title>Node3&#45;&gt;Node1</title>
<g id="a_edge2_Node000001_Node000003"><a xlink:title=" ">
<path fill="none" stroke="#63b8ff" d="M149.7,-297.86C160.93,-299.1 172.3,-300.37 182.96,-301.55"/>
<polygon fill="#63b8ff" stroke="#63b8ff" points="149.78,-294.34 139.46,-296.72 149.01,-301.3 149.78,-294.34"/>
</a>
</g>
</g>
<!-- Node5 -->
<g id="Node000005" class="node">
<title>Node5</title>
<g id="a_Node000005"><a xlink:href="class_ogre_1_1_d3_d11_const_buffer_packed.html" target="_top" xlink:title=" ">
<polygon fill="white" stroke="#666666" points="683.5,-684 513.5,-684 513.5,-665 683.5,-665 683.5,-684"/>
<text text-anchor="middle" x="598.5" y="-672" font-family="Helvetica,sans-Serif" font-size="10.00">Ogre::D3D11ConstBufferPacked</text>
</a>
</g>
</g>
<!-- Node4&#45;&gt;Node5 -->
<g id="edge4_Node000004_Node000005" class="edge">
<title>Node4&#45;&gt;Node5</title>
<g id="a_edge4_Node000004_Node000005"><a xlink:title=" ">
<path fill="none" stroke="#63b8ff" d="M415.06,-569.12C433.51,-592.65 469.48,-633.88 510,-655.5 517.27,-659.38 525.28,-662.47 533.41,-664.92"/>
<polygon fill="#63b8ff" stroke="#63b8ff" points="417.74,-566.86 408.88,-561.04 412.18,-571.11 417.74,-566.86"/>
</a>
</g>
</g>
<!-- Node6 -->
<g id="Node000006" class="node">
<title>Node6</title>
<g id="a_Node000006"><a xlink:href="class_ogre_1_1_g_l3_plus_const_buffer_packed.html" target="_top" xlink:title=" ">
<polygon fill="white" stroke="#666666" points="669.5,-646.5 527.5,-646.5 527.5,-616.5 669.5,-616.5 669.5,-646.5"/>
<text text-anchor="start" x="535.5" y="-634.5" font-family="Helvetica,sans-Serif" font-size="10.00">Ogre::GL3PlusConstBuffer</text>
<text text-anchor="middle" x="598.5" y="-623.5" font-family="Helvetica,sans-Serif" font-size="10.00">Packed</text>
</a>
</g>
</g>
<!-- Node4&#45;&gt;Node6 -->
<g id="edge5_Node000004_Node000006" class="edge">
<title>Node4&#45;&gt;Node6</title>
<g id="a_edge5_Node000004_Node000006"><a xlink:title=" ">
<path fill="none" stroke="#63b8ff" d="M426.74,-566.24C448.19,-578.55 480.36,-595.9 510,-607.5 518.36,-610.77 527.34,-613.78 536.24,-616.47"/>
<polygon fill="#63b8ff" stroke="#63b8ff" points="428.37,-563.14 417.97,-561.14 424.85,-569.19 428.37,-563.14"/>
</a>
</g>
</g>
<!-- Node7 -->
<g id="Node000007" class="node">
<title>Node7</title>
<g id="a_Node000007"><a xlink:href="class_ogre_1_1_g_l_e_s2_const_buffer_packed.html" target="_top" xlink:title=" ">
<polygon fill="white" stroke="#666666" points="682,-598 515,-598 515,-579 682,-579 682,-598"/>
<text text-anchor="middle" x="598.5" y="-586" font-family="Helvetica,sans-Serif" font-size="10.00">Ogre::GLES2ConstBufferPacked</text>
</a>
</g>
</g>
<!-- Node4&#45;&gt;Node7 -->
<g id="edge6_Node000004_Node000007" class="edge">
<title>Node4&#45;&gt;Node7</title>
<g id="a_edge6_Node000004_Node000007"><a xlink:title=" ">
<path fill="none" stroke="#63b8ff" d="M462.49,-562.95C489.59,-568.08 521.18,-574.06 546.99,-578.94"/>
<polygon fill="#63b8ff" stroke="#63b8ff" points="462.82,-559.45 452.35,-561.03 461.52,-566.33 462.82,-559.45"/>
</a>
</g>
</g>
<!-- Node8 -->
<g id="Node000008" class="node">
<title>Node8</title>
<g id="a_Node000008"><a xlink:href="class_ogre_1_1_metal_const_buffer_packed.html" target="_top" xlink:title=" ">
<polygon fill="white" stroke="#666666" points="680.5,-561 516.5,-561 516.5,-542 680.5,-542 680.5,-561"/>
<text text-anchor="middle" x="598.5" y="-549" font-family="Helvetica,sans-Serif" font-size="10.00">Ogre::MetalConstBufferPacked</text>
</a>
</g>
</g>
<!-- Node4&#45;&gt;Node8 -->
<g id="edge7_Node000004_Node000008" class="edge">
<title>Node4&#45;&gt;Node8</title>
<g id="a_edge7_Node000004_Node000008"><a xlink:title=" ">
<path fill="none" stroke="#63b8ff" d="M479.61,-551.5C491.73,-551.5 504.28,-551.5 516.47,-551.5"/>
<polygon fill="#63b8ff" stroke="#63b8ff" points="479.55,-548 469.55,-551.5 479.55,-555 479.55,-548"/>
</a>
</g>
</g>
<!-- Node9 -->
<g id="Node000009" class="node">
<title>Node9</title>
<g id="a_Node000009"><a xlink:href="class_ogre_1_1_n_u_l_l_const_buffer_packed.html" target="_top" xlink:title=" ">
<polygon fill="white" stroke="#666666" points="679.5,-524 517.5,-524 517.5,-505 679.5,-505 679.5,-524"/>
<text text-anchor="middle" x="598.5" y="-512" font-family="Helvetica,sans-Serif" font-size="10.00">Ogre::NULLConstBufferPacked</text>
</a>
</g>
</g>
<!-- Node4&#45;&gt;Node9 -->
<g id="edge8_Node000004_Node000009" class="edge">
<title>Node4&#45;&gt;Node9</title>
<g id="a_edge8_Node000004_Node000009"><a xlink:title=" ">
<path fill="none" stroke="#63b8ff" d="M462.49,-540.05C489.59,-534.92 521.18,-528.94 546.99,-524.06"/>
<polygon fill="#63b8ff" stroke="#63b8ff" points="461.52,-536.67 452.35,-541.97 462.82,-543.55 461.52,-536.67"/>
</a>
</g>
</g>
<!-- Node10 -->
<g id="Node000010" class="node">
<title>Node10</title>
<g id="a_Node000010"><a xlink:href="class_ogre_1_1_vulkan_const_buffer_packed.html" target="_top" xlink:title=" ">
<polygon fill="white" stroke="#666666" points="683,-487 514,-487 514,-468 683,-468 683,-487"/>
<text text-anchor="middle" x="598.5" y="-475" font-family="Helvetica,sans-Serif" font-size="10.00">Ogre::VulkanConstBufferPacked</text>
</a>
</g>
</g>
<!-- Node4&#45;&gt;Node10 -->
<g id="edge9_Node000004_Node000010" class="edge">
<title>Node4&#45;&gt;Node10</title>
<g id="a_edge9_Node000004_Node000010"><a xlink:title=" ">
<path fill="none" stroke="#63b8ff" d="M426.26,-536.86C447.63,-524.52 479.96,-507.21 510,-496.5 520.54,-492.74 532.08,-489.59 543.21,-487.01"/>
<polygon fill="#63b8ff" stroke="#63b8ff" points="424.39,-533.89 417.53,-541.97 427.93,-539.93 424.39,-533.89"/>
</a>
</g>
</g>
<!-- Node14 -->
<g id="Node000014" class="node">
<title>Node14</title>
<g id="a_Node000014"><a xlink:href="class_ogre_1_1_d3_d11_tex_buffer_packed.html" target="_top" xlink:title=" ">
<polygon fill="white" stroke="#666666" points="677.5,-450 519.5,-450 519.5,-431 677.5,-431 677.5,-450"/>
<text text-anchor="middle" x="598.5" y="-438" font-family="Helvetica,sans-Serif" font-size="10.00">Ogre::D3D11TexBufferPacked</text>
</a>
</g>
</g>
<!-- Node13&#45;&gt;Node14 -->
<g id="edge13_Node000013_Node000014" class="edge">
<title>Node13&#45;&gt;Node14</title>
<g id="a_edge13_Node000013_Node000014"><a xlink:title=" ">
<path fill="none" stroke="#63b8ff" d="M469.2,-304.5C470.88,-305.73 472.49,-307.06 474,-308.5 512.2,-344.82 471.01,-386.03 510,-421.5 514.14,-425.27 518.85,-428.35 523.88,-430.86"/>
<polygon fill="#63b8ff" stroke="#63b8ff" points="470.6,-301.26 460.22,-299.12 467,-307.26 470.6,-301.26"/>
</a>
</g>
</g>
<!-- Node15 -->
<g id="Node000015" class="node">
<title>Node15</title>
<g id="a_Node000015"><a xlink:href="class_ogre_1_1_g_l3_plus_tex_buffer_emulated_packed.html" target="_top" xlink:title=" ">
<polygon fill="white" stroke="#666666" points="687,-412.5 510,-412.5 510,-382.5 687,-382.5 687,-412.5"/>
<text text-anchor="start" x="518" y="-400.5" font-family="Helvetica,sans-Serif" font-size="10.00">Ogre::GL3PlusTexBufferEmulated</text>
<text text-anchor="middle" x="598.5" y="-389.5" font-family="Helvetica,sans-Serif" font-size="10.00">Packed</text>
</a>
</g>
</g>
<!-- Node13&#45;&gt;Node15 -->
<g id="edge14_Node000013_Node000015" class="edge">
<title>Node13&#45;&gt;Node15</title>
<g id="a_edge14_Node000013_Node000015"><a xlink:title=" ">
<path fill="none" stroke="#63b8ff" d="M466.54,-303.53C469.15,-305.03 471.66,-306.68 474,-308.5 500.06,-328.79 484.04,-353.09 510,-373.5 514.33,-376.91 519.12,-379.83 524.15,-382.34"/>
<polygon fill="#63b8ff" stroke="#63b8ff" points="467.82,-300.26 457.29,-299.05 464.76,-306.56 467.82,-300.26"/>
</a>
</g>
</g>
<!-- Node16 -->
<g id="Node000016" class="node">
<title>Node16</title>
<g id="a_Node000016"><a xlink:href="class_ogre_1_1_g_l3_plus_tex_buffer_packed.html" target="_top" xlink:title=" ">
<polygon fill="white" stroke="#666666" points="680.5,-364 516.5,-364 516.5,-345 680.5,-345 680.5,-364"/>
<text text-anchor="middle" x="598.5" y="-352" font-family="Helvetica,sans-Serif" font-size="10.00">Ogre::GL3PlusTexBufferPacked</text>
</a>
</g>
</g>
<!-- Node13&#45;&gt;Node16 -->
<g id="edge15_Node000013_Node000016" class="edge">
<title>Node13&#45;&gt;Node16</title>
<g id="a_edge15_Node000013_Node000016"><a xlink:title=" ">
<path fill="none" stroke="#63b8ff" d="M458.62,-302.19C463.92,-304.05 469.13,-306.14 474,-308.5 492,-317.21 491.81,-327.19 510,-335.5 518.48,-339.38 527.8,-342.48 537.08,-344.96"/>
<polygon fill="#63b8ff" stroke="#63b8ff" points="459.63,-298.84 449.04,-299.11 457.48,-305.5 459.63,-298.84"/>
</a>
</g>
</g>
<!-- Node17 -->
<g id="Node000017" class="node">
<title>Node17</title>
<g id="a_Node000017"><a xlink:href="class_ogre_1_1_g_l_e_s2_tex_buffer_emulated_packed.html" target="_top" xlink:title=" ">
<polygon fill="white" stroke="#666666" points="683,-326.5 514,-326.5 514,-296.5 683,-296.5 683,-326.5"/>
<text text-anchor="start" x="522" y="-314.5" font-family="Helvetica,sans-Serif" font-size="10.00">Ogre::GLES2TexBufferEmulated</text>
<text text-anchor="middle" x="598.5" y="-303.5" font-family="Helvetica,sans-Serif" font-size="10.00">Packed</text>
</a>
</g>
</g>
<!-- Node13&#45;&gt;Node17 -->
<g id="edge16_Node000013_Node000017" class="edge">
<title>Node13&#45;&gt;Node17</title>
<g id="a_edge16_Node000013_Node000017"><a xlink:title=" ">
<path fill="none" stroke="#63b8ff" d="M473.83,-297.58C486.79,-299.04 500.41,-300.57 513.68,-302.07"/>
<polygon fill="#63b8ff" stroke="#63b8ff" points="473.92,-294.07 463.59,-296.43 473.13,-301.03 473.92,-294.07"/>
</a>
</g>
</g>
<!-- Node18 -->
<g id="Node000018" class="node">
<title>Node18</title>
<g id="a_Node000018"><a xlink:href="class_ogre_1_1_n_u_l_l_tex_buffer_packed.html" target="_top" xlink:title=" ">
<polygon fill="white" stroke="#666666" points="673.5,-278 523.5,-278 523.5,-259 673.5,-259 673.5,-278"/>
<text text-anchor="middle" x="598.5" y="-266" font-family="Helvetica,sans-Serif" font-size="10.00">Ogre::NULLTexBufferPacked</text>
</a>
</g>
</g>
<!-- Node13&#45;&gt;Node18 -->
<g id="edge17_Node000013_Node000018" class="edge">
<title>Node13&#45;&gt;Node18</title>
<g id="a_edge17_Node000013_Node000018"><a xlink:title=" ">
<path fill="none" stroke="#63b8ff" d="M473.97,-281.77C490.01,-280.05 507.06,-278.22 523.19,-276.48"/>
<polygon fill="#63b8ff" stroke="#63b8ff" points="473.16,-278.34 463.59,-282.88 473.91,-285.3 473.16,-278.34"/>
</a>
</g>
</g>
<!-- Node19 -->
<g id="Node000019" class="node">
<title>Node19</title>
<g id="a_Node000019"><a xlink:href="class_ogre_1_1_read_only_buffer_packed.html" target="_top" xlink:title="Represents the best way to access read&#45;only data.">
<polygon fill="white" stroke="#666666" points="676.5,-241 520.5,-241 520.5,-222 676.5,-222 676.5,-241"/>
<text text-anchor="middle" x="598.5" y="-229" font-family="Helvetica,sans-Serif" font-size="10.00">Ogre::ReadOnlyBufferPacked</text>
</a>
</g>
</g>
<!-- Node13&#45;&gt;Node19 -->
<g id="edge18_Node000013_Node000019" class="edge">
<title>Node13&#45;&gt;Node19</title>
<g id="a_edge18_Node000013_Node000019"><a xlink:title=" ">
<path fill="none" stroke="#63b8ff" d="M434.34,-276.06C455.57,-267.59 484.11,-256.91 510,-249.5 521.03,-246.34 533,-243.51 544.44,-241.07"/>
<polygon fill="#63b8ff" stroke="#63b8ff" points="432.8,-272.9 424.84,-279.89 435.42,-279.39 432.8,-272.9"/>
</a>
</g>
</g>
<!-- Node28 -->
<g id="Node000028" class="node">
<title>Node28</title>
<g id="a_Node000028"><a xlink:href="class_ogre_1_1_vulkan_tex_buffer_packed.html" target="_top" xlink:title=" ">
<polygon fill="white" stroke="#666666" points="677.5,-204 519.5,-204 519.5,-185 677.5,-185 677.5,-204"/>
<text text-anchor="middle" x="598.5" y="-192" font-family="Helvetica,sans-Serif" font-size="10.00">Ogre::VulkanTexBufferPacked</text>
</a>
</g>
</g>
<!-- Node13&#45;&gt;Node28 -->
<g id="edge27_Node000013_Node000028" class="edge">
<title>Node13&#45;&gt;Node28</title>
<g id="a_edge27_Node000013_Node000028"><a xlink:title=" ">
<path fill="none" stroke="#63b8ff" d="M419.95,-273.06C440.27,-255.36 475.12,-227.71 510,-212.5 517.82,-209.09 526.32,-206.32 534.84,-204.06"/>
<polygon fill="#63b8ff" stroke="#63b8ff" points="417.57,-270.49 412.41,-279.75 422.21,-275.73 417.57,-270.49"/>
</a>
</g>
</g>
<!-- Node20 -->
<g id="Node000020" class="node">
<title>Node20</title>
<g id="a_Node000020"><a xlink:href="class_ogre_1_1_d3_d11_read_only_buffer_packed.html" target="_top" xlink:title=" ">
<polygon fill="white" stroke="#666666" points="881,-390.5 726,-390.5 726,-360.5 881,-360.5 881,-390.5"/>
<text text-anchor="start" x="734" y="-378.5" font-family="Helvetica,sans-Serif" font-size="10.00">Ogre::D3D11ReadOnlyBuffer</text>
<text text-anchor="middle" x="803.5" y="-367.5" font-family="Helvetica,sans-Serif" font-size="10.00">Packed</text>
</a>
</g>
</g>
<!-- Node19&#45;&gt;Node20 -->
<g id="edge19_Node000019_Node000020" class="edge">
<title>Node19&#45;&gt;Node20</title>
<g id="a_edge19_Node000019_Node000020"><a xlink:title=" ">
<path fill="none" stroke="#63b8ff" d="M682.87,-246.23C684.29,-247.25 685.67,-248.34 687,-249.5 723.23,-281.1 688.23,-318.3 723,-351.5 726.55,-354.89 730.55,-357.79 734.83,-360.3"/>
<polygon fill="#63b8ff" stroke="#63b8ff" points="684.6,-243.19 674.23,-241.02 680.99,-249.18 684.6,-243.19"/>
</a>
</g>
</g>
<!-- Node21 -->
<g id="Node000021" class="node">
<title>Node21</title>
<g id="a_Node000021"><a xlink:href="class_ogre_1_1_g_l3_plus_read_only_buffer_emulated_packed.html" target="_top" xlink:title=" ">
<polygon fill="white" stroke="#666666" points="884,-342.5 723,-342.5 723,-312.5 884,-312.5 884,-342.5"/>
<text text-anchor="start" x="731" y="-330.5" font-family="Helvetica,sans-Serif" font-size="10.00">Ogre::GL3PlusReadOnlyBuffer</text>
<text text-anchor="middle" x="803.5" y="-319.5" font-family="Helvetica,sans-Serif" font-size="10.00">EmulatedPacked</text>
</a>
</g>
</g>
<!-- Node19&#45;&gt;Node21 -->
<g id="edge20_Node000019_Node000021" class="edge">
<title>Node19&#45;&gt;Node21</title>
<g id="a_edge20_Node000019_Node000021"><a xlink:title=" ">
<path fill="none" stroke="#63b8ff" d="M679.9,-245.27C682.35,-246.56 684.73,-247.97 687,-249.5 710.92,-265.62 699.83,-286.32 723,-303.5 727.63,-306.93 732.76,-309.88 738.11,-312.41"/>
<polygon fill="#63b8ff" stroke="#63b8ff" points="681.26,-242.05 670.71,-241.09 678.36,-248.42 681.26,-242.05"/>
</a>
</g>
</g>
<!-- Node22 -->
<g id="Node000022" class="node">
<title>Node22</title>
<g id="a_Node000022"><a xlink:href="class_ogre_1_1_g_l3_plus_read_only_tex_buffer_packed.html" target="_top" xlink:title=" ">
<polygon fill="white" stroke="#666666" points="878,-294.5 729,-294.5 729,-264.5 878,-264.5 878,-294.5"/>
<text text-anchor="start" x="737" y="-282.5" font-family="Helvetica,sans-Serif" font-size="10.00">Ogre::GL3PlusReadOnlyTex</text>
<text text-anchor="middle" x="803.5" y="-271.5" font-family="Helvetica,sans-Serif" font-size="10.00">BufferPacked</text>
</a>
</g>
</g>
<!-- Node19&#45;&gt;Node22 -->
<g id="edge21_Node000019_Node000022" class="edge">
<title>Node19&#45;&gt;Node22</title>
<g id="a_edge21_Node000019_Node000022"><a xlink:title=" ">
<path fill="none" stroke="#63b8ff" d="M658.14,-243.13C667.8,-245.17 677.69,-247.34 687,-249.5 706.57,-254.05 727.9,-259.46 746.83,-264.43"/>
<polygon fill="#63b8ff" stroke="#63b8ff" points="658.7,-239.67 648.19,-241.06 657.27,-246.52 658.7,-239.67"/>
</a>
</g>
</g>
<!-- Node23 -->
<g id="Node000023" class="node">
<title>Node23</title>
<g id="a_Node000023"><a xlink:href="class_ogre_1_1_g_l3_plus_read_only_uav_buffer_packed.html" target="_top" xlink:title=" ">
<polygon fill="white" stroke="#666666" points="879.5,-246.5 727.5,-246.5 727.5,-216.5 879.5,-216.5 879.5,-246.5"/>
<text text-anchor="start" x="735.5" y="-234.5" font-family="Helvetica,sans-Serif" font-size="10.00">Ogre::GL3PlusReadOnlyUav</text>
<text text-anchor="middle" x="803.5" y="-223.5" font-family="Helvetica,sans-Serif" font-size="10.00">BufferPacked</text>
</a>
</g>
</g>
<!-- Node19&#45;&gt;Node23 -->
<g id="edge22_Node000019_Node000023" class="edge">
<title>Node19&#45;&gt;Node23</title>
<g id="a_edge22_Node000019_Node000023"><a xlink:title=" ">
<path fill="none" stroke="#63b8ff" d="M686.75,-231.5C700.21,-231.5 714.02,-231.5 727.2,-231.5"/>
<polygon fill="#63b8ff" stroke="#63b8ff" points="686.54,-228 676.54,-231.5 686.54,-235 686.54,-228"/>
</a>
</g>
</g>
<!-- Node24 -->
<g id="Node000024" class="node">
<title>Node24</title>
<g id="a_Node000024"><a xlink:href="class_ogre_1_1_metal_tex_buffer_packed.html" target="_top" xlink:title="In Metal, Tex and ReadOnly buffers are exactly the same, thus we derive from ReadOnlyBufferPacked to ...">
<polygon fill="white" stroke="#666666" points="880,-198 727,-198 727,-179 880,-179 880,-198"/>
<text text-anchor="middle" x="803.5" y="-186" font-family="Helvetica,sans-Serif" font-size="10.00">Ogre::MetalTexBufferPacked</text>
</a>
</g>
</g>
<!-- Node19&#45;&gt;Node24 -->
<g id="edge23_Node000019_Node000024" class="edge">
<title>Node19&#45;&gt;Node24</title>
<g id="a_edge23_Node000019_Node000024"><a xlink:title=" ">
<path fill="none" stroke="#63b8ff" d="M654.73,-219.8C687.02,-212.96 727.25,-204.44 757.57,-198.02"/>
<polygon fill="#63b8ff" stroke="#63b8ff" points="653.61,-216.46 644.55,-221.96 655.06,-223.31 653.61,-216.46"/>
</a>
</g>
</g>
<!-- Node26 -->
<g id="Node000026" class="node">
<title>Node26</title>
<g id="a_Node000026"><a xlink:href="class_ogre_1_1_n_u_l_l_read_only_buffer_packed.html" target="_top" xlink:title=" ">
<polygon fill="white" stroke="#666666" points="877.5,-160.5 729.5,-160.5 729.5,-130.5 877.5,-130.5 877.5,-160.5"/>
<text text-anchor="start" x="737.5" y="-148.5" font-family="Helvetica,sans-Serif" font-size="10.00">Ogre::NULLReadOnlyBuffer</text>
<text text-anchor="middle" x="803.5" y="-137.5" font-family="Helvetica,sans-Serif" font-size="10.00">Packed</text>
</a>
</g>
</g>
<!-- Node19&#45;&gt;Node26 -->
<g id="edge25_Node000019_Node000026" class="edge">
<title>Node19&#45;&gt;Node26</title>
<g id="a_edge25_Node000019_Node000026"><a xlink:title=" ">
<path fill="none" stroke="#63b8ff" d="M675.66,-218.3C679.6,-216.6 683.41,-214.67 687,-212.5 708.33,-199.6 702.2,-183.23 723,-169.5 728.17,-166.08 733.85,-163.14 739.72,-160.6"/>
<polygon fill="#63b8ff" stroke="#63b8ff" points="674.36,-215.05 666.28,-221.9 676.87,-221.59 674.36,-215.05"/>
</a>
</g>
</g>
<!-- Node27 -->
<g id="Node000027" class="node">
<title>Node27</title>
<g id="a_Node000027"><a xlink:href="class_ogre_1_1_vulkan_read_only_buffer_packed.html" target="_top" xlink:title=" ">
<polygon fill="white" stroke="#666666" points="881,-112.5 726,-112.5 726,-82.5 881,-82.5 881,-112.5"/>
<text text-anchor="start" x="734" y="-100.5" font-family="Helvetica,sans-Serif" font-size="10.00">Ogre::VulkanReadOnlyBuffer</text>
<text text-anchor="middle" x="803.5" y="-89.5" font-family="Helvetica,sans-Serif" font-size="10.00">Packed</text>
</a>
</g>
</g>
<!-- Node19&#45;&gt;Node27 -->
<g id="edge26_Node000019_Node000027" class="edge">
<title>Node19&#45;&gt;Node27</title>
<g id="a_edge26_Node000019_Node000027"><a xlink:title=" ">
<path fill="none" stroke="#63b8ff" d="M680.77,-217.12C682.95,-215.71 685.03,-214.17 687,-212.5 720.16,-184.35 690.99,-150.94 723,-121.5 726.71,-118.08 730.9,-115.15 735.36,-112.64"/>
<polygon fill="#63b8ff" stroke="#63b8ff" points="679.07,-214.06 671.99,-221.95 682.44,-220.19 679.07,-214.06"/>
</a>
</g>
</g>
<!-- Node25 -->
<g id="Node000025" class="node">
<title>Node25</title>
<g id="a_Node000025"><a xlink:href="class_ogre_1_1_metal_read_only_buffer_packed.html" target="_top" xlink:title=" ">
<polygon fill="white" stroke="#666666" points="1070,-203.5 920,-203.5 920,-173.5 1070,-173.5 1070,-203.5"/>
<text text-anchor="start" x="928" y="-191.5" font-family="Helvetica,sans-Serif" font-size="10.00">Ogre::MetalReadOnlyBuffer</text>
<text text-anchor="middle" x="995" y="-180.5" font-family="Helvetica,sans-Serif" font-size="10.00">Packed</text>
</a>
</g>
</g>
<!-- Node24&#45;&gt;Node25 -->
<g id="edge24_Node000024_Node000025" class="edge">
<title>Node24&#45;&gt;Node25</title>
<g id="a_edge24_Node000024_Node000025"><a xlink:title=" ">
<path fill="none" stroke="#63b8ff" d="M890.42,-188.5C900.28,-188.5 910.27,-188.5 919.95,-188.5"/>
<polygon fill="#63b8ff" stroke="#63b8ff" points="890.21,-185 880.21,-188.5 890.21,-192 890.21,-185"/>
</a>
</g>
</g>
<!-- Node30 -->
<g id="Node000030" class="node">
<title>Node30</title>
<g id="a_Node000030"><a xlink:href="class_ogre_1_1_d3_d11_uav_buffer_packed.html" target="_top" xlink:title=" ">
<polygon fill="white" stroke="#666666" points="679,-167 518,-167 518,-148 679,-148 679,-167"/>
<text text-anchor="middle" x="598.5" y="-155" font-family="Helvetica,sans-Serif" font-size="10.00">Ogre::D3D11UavBufferPacked</text>
</a>
</g>
</g>
<!-- Node29&#45;&gt;Node30 -->
<g id="edge29_Node000029_Node000030" class="edge">
<title>Node29&#45;&gt;Node30</title>
<g id="a_edge29_Node000029_Node000030"><a xlink:title=" ">
<path fill="none" stroke="#63b8ff" d="M462.49,-131.95C489.59,-137.08 521.18,-143.06 546.99,-147.94"/>
<polygon fill="#63b8ff" stroke="#63b8ff" points="462.82,-128.45 452.35,-130.03 461.52,-135.33 462.82,-128.45"/>
</a>
</g>
</g>
<!-- Node31 -->
<g id="Node000031" class="node">
<title>Node31</title>
<g id="a_Node000031"><a xlink:href="class_ogre_1_1_g_l3_plus_uav_buffer_packed.html" target="_top" xlink:title=" ">
<polygon fill="white" stroke="#666666" points="682,-130 515,-130 515,-111 682,-111 682,-130"/>
<text text-anchor="middle" x="598.5" y="-118" font-family="Helvetica,sans-Serif" font-size="10.00">Ogre::GL3PlusUavBufferPacked</text>
</a>
</g>
</g>
<!-- Node29&#45;&gt;Node31 -->
<g id="edge30_Node000029_Node000031" class="edge">
<title>Node29&#45;&gt;Node31</title>
<g id="a_edge30_Node000029_Node000031"><a xlink:title=" ">
<path fill="none" stroke="#63b8ff" d="M475.39,-120.5C488.29,-120.5 501.78,-120.5 514.91,-120.5"/>
<polygon fill="#63b8ff" stroke="#63b8ff" points="475.2,-117 465.2,-120.5 475.2,-124 475.2,-117"/>
</a>
</g>
</g>
<!-- Node32 -->
<g id="Node000032" class="node">
<title>Node32</title>
<g id="a_Node000032"><a xlink:href="class_ogre_1_1_metal_uav_buffer_packed.html" target="_top" xlink:title=" ">
<polygon fill="white" stroke="#666666" points="676.5,-93 520.5,-93 520.5,-74 676.5,-74 676.5,-93"/>
<text text-anchor="middle" x="598.5" y="-81" font-family="Helvetica,sans-Serif" font-size="10.00">Ogre::MetalUavBufferPacked</text>
</a>
</g>
</g>
<!-- Node29&#45;&gt;Node32 -->
<g id="edge31_Node000029_Node000032" class="edge">
<title>Node29&#45;&gt;Node32</title>
<g id="a_edge31_Node000029_Node000032"><a xlink:title=" ">
<path fill="none" stroke="#63b8ff" d="M462.49,-109.05C489.59,-103.92 521.18,-97.94 546.99,-93.06"/>
<polygon fill="#63b8ff" stroke="#63b8ff" points="461.52,-105.67 452.35,-110.97 462.82,-112.55 461.52,-105.67"/>
</a>
</g>
</g>
<!-- Node33 -->
<g id="Node000033" class="node">
<title>Node33</title>
<g id="a_Node000033"><a xlink:href="class_ogre_1_1_n_u_l_l_uav_buffer_packed.html" target="_top" xlink:title=" ">
<polygon fill="white" stroke="#666666" points="675.5,-56 521.5,-56 521.5,-37 675.5,-37 675.5,-56"/>
<text text-anchor="middle" x="598.5" y="-44" font-family="Helvetica,sans-Serif" font-size="10.00">Ogre::NULLUavBufferPacked</text>
</a>
</g>
</g>
<!-- Node29&#45;&gt;Node33 -->
<g id="edge32_Node000029_Node000033" class="edge">
<title>Node29&#45;&gt;Node33</title>
<g id="a_edge32_Node000029_Node000033"><a xlink:title=" ">
<path fill="none" stroke="#63b8ff" d="M462.26,-107.29C466.34,-105.59 470.3,-103.66 474,-101.5 493.81,-89.93 489.88,-75.52 510,-64.5 516.26,-61.07 523.09,-58.3 530.09,-56.05"/>
<polygon fill="#63b8ff" stroke="#63b8ff" points="460.74,-104.13 452.59,-110.9 463.18,-110.69 460.74,-104.13"/>
</a>
</g>
</g>
<!-- Node34 -->
<g id="Node000034" class="node">
<title>Node34</title>
<g id="a_Node000034"><a xlink:href="class_ogre_1_1_vulkan_uav_buffer_packed.html" target="_top" xlink:title=" ">
<polygon fill="white" stroke="#666666" points="679,-19 518,-19 518,0 679,0 679,-19"/>
<text text-anchor="middle" x="598.5" y="-7" font-family="Helvetica,sans-Serif" font-size="10.00">Ogre::VulkanUavBufferPacked</text>
</a>
</g>
</g>
<!-- Node29&#45;&gt;Node34 -->
<g id="edge33_Node000029_Node000034" class="edge">
<title>Node29&#45;&gt;Node34</title>
<g id="a_edge33_Node000029_Node000034"><a xlink:title=" ">
<path fill="none" stroke="#63b8ff" d="M467.47,-106.13C469.76,-104.73 471.95,-103.19 474,-101.5 502.25,-78.28 481.12,-49.94 510,-27.5 514.29,-24.17 519.04,-21.41 524.04,-19.14"/>
<polygon fill="#63b8ff" stroke="#63b8ff" points="465.51,-103.21 458.22,-110.9 468.72,-109.43 465.51,-103.21"/>
</a>
</g>
</g>
</g>
</svg>
