<?xml version="1.0" encoding="UTF-8" standalone="no"?>
<!DOCTYPE svg PUBLIC "-//W3C//DTD SVG 1.1//EN"
 "http://www.w3.org/Graphics/SVG/1.1/DTD/svg11.dtd">
<!-- Generated by graphviz version 2.43.0 (0)
 -->
<!-- Title: Ogre::PSSMShadowCameraSetup Pages: 1 -->
<svg width="185pt" height="269pt"
 viewBox="0.00 0.00 185.00 269.00" xmlns="http://www.w3.org/2000/svg" xmlns:xlink="http://www.w3.org/1999/xlink">
<g id="graph0" class="graph" transform="scale(1 1) rotate(0) translate(4 265)">
<title>Ogre::PSSMShadowCameraSetup</title>
<!-- Node1 -->
<g id="Node000001" class="node">
<title>Node1</title>
<g id="a_Node000001"><a xlink:title="Parallel Split Shadow Map (PSSM) shadow camera setup.">
<polygon fill="#999999" stroke="#666666" points="177,-19 0,-19 0,0 177,0 177,-19"/>
<text text-anchor="middle" x="88.5" y="-7" font-family="Helvetica,sans-Serif" font-size="10.00">Ogre::PSSMShadowCameraSetup</text>
</a>
</g>
</g>
<!-- Node2 -->
<g id="Node000002" class="node">
<title>Node2</title>
<g id="a_Node000002"><a xlink:href="class_ogre_1_1_focused_shadow_camera_setup.html" target="_top" xlink:title="Implements the uniform shadow mapping algorithm in focused mode.">
<polygon fill="white" stroke="#666666" points="169.5,-85 7.5,-85 7.5,-55 169.5,-55 169.5,-85"/>
<text text-anchor="start" x="15.5" y="-73" font-family="Helvetica,sans-Serif" font-size="10.00">Ogre::FocusedShadowCamera</text>
<text text-anchor="middle" x="88.5" y="-62" font-family="Helvetica,sans-Serif" font-size="10.00">Setup</text>
</a>
</g>
</g>
<!-- Node2&#45;&gt;Node1 -->
<g id="edge1_Node000001_Node000002" class="edge">
<title>Node2&#45;&gt;Node1</title>
<g id="a_edge1_Node000001_Node000002"><a xlink:title=" ">
<path fill="none" stroke="#63b8ff" d="M88.5,-44.75C88.5,-35.72 88.5,-26.03 88.5,-19.27"/>
<polygon fill="#63b8ff" stroke="#63b8ff" points="85,-44.84 88.5,-54.84 92,-44.84 85,-44.84"/>
</a>
</g>
</g>
<!-- Node3 -->
<g id="Node000003" class="node">
<title>Node3</title>
<g id="a_Node000003"><a xlink:href="class_ogre_1_1_default_shadow_camera_setup.html" target="_top" xlink:title="Implements default shadow camera setup.">
<polygon fill="white" stroke="#666666" points="167.5,-151 9.5,-151 9.5,-121 167.5,-121 167.5,-151"/>
<text text-anchor="start" x="17.5" y="-139" font-family="Helvetica,sans-Serif" font-size="10.00">Ogre::DefaultShadowCamera</text>
<text text-anchor="middle" x="88.5" y="-128" font-family="Helvetica,sans-Serif" font-size="10.00">Setup</text>
</a>
</g>
</g>
<!-- Node3&#45;&gt;Node2 -->
<g id="edge2_Node000002_Node000003" class="edge">
<title>Node3&#45;&gt;Node2</title>
<g id="a_edge2_Node000002_Node000003"><a xlink:title=" ">
<path fill="none" stroke="#63b8ff" d="M88.5,-110.54C88.5,-101.96 88.5,-92.61 88.5,-85.16"/>
<polygon fill="#63b8ff" stroke="#63b8ff" points="85,-110.8 88.5,-120.8 92,-110.8 85,-110.8"/>
</a>
</g>
</g>
<!-- Node4 -->
<g id="Node000004" class="node">
<title>Node4</title>
<g id="a_Node000004"><a xlink:href="class_ogre_1_1_shadow_camera_setup.html" target="_top" xlink:title="This class allows you to plug in new ways to define the camera setup when rendering and projecting sh...">
<polygon fill="white" stroke="#666666" points="163.5,-206 13.5,-206 13.5,-187 163.5,-187 163.5,-206"/>
<text text-anchor="middle" x="88.5" y="-194" font-family="Helvetica,sans-Serif" font-size="10.00">Ogre::ShadowCameraSetup</text>
</a>
</g>
</g>
<!-- Node4&#45;&gt;Node3 -->
<g id="edge3_Node000003_Node000004" class="edge">
<title>Node4&#45;&gt;Node3</title>
<g id="a_edge3_Node000003_Node000004"><a xlink:title=" ">
<path fill="none" stroke="#63b8ff" d="M88.5,-176.65C88.5,-168.36 88.5,-158.78 88.5,-151.11"/>
<polygon fill="#63b8ff" stroke="#63b8ff" points="85,-176.87 88.5,-186.87 92,-176.87 85,-176.87"/>
</a>
</g>
</g>
<!-- Node5 -->
<g id="Node000005" class="node">
<title>Node5</title>
<g id="a_Node000005"><a xlink:title=" ">
<polygon fill="white" stroke="#666666" points="154,-261 23,-261 23,-242 154,-242 154,-261"/>
<text text-anchor="middle" x="88.5" y="-249" font-family="Helvetica,sans-Serif" font-size="10.00">Ogre::OgreAllocatedObj</text>
</a>
</g>
</g>
<!-- Node5&#45;&gt;Node4 -->
<g id="edge4_Node000004_Node000005" class="edge">
<title>Node5&#45;&gt;Node4</title>
<g id="a_edge4_Node000004_Node000005"><a xlink:title=" ">
<path fill="none" stroke="#63b8ff" d="M88.5,-231.66C88.5,-222.93 88.5,-212.99 88.5,-206.09"/>
<polygon fill="#63b8ff" stroke="#63b8ff" points="85,-231.75 88.5,-241.75 92,-231.75 85,-231.75"/>
</a>
</g>
</g>
</g>
</svg>
