<?xml version="1.0" encoding="UTF-8" standalone="no"?>
<!DOCTYPE svg PUBLIC "-//W3C//DTD SVG 1.1//EN"
 "http://www.w3.org/Graphics/SVG/1.1/DTD/svg11.dtd">
<!-- Generated by graphviz version 2.43.0 (0)
 -->
<!-- Title: Ogre::CompositorPass Pages: 1 -->
<svg width="513pt" height="483pt"
 viewBox="0.00 0.00 513.00 483.00" xmlns="http://www.w3.org/2000/svg" xmlns:xlink="http://www.w3.org/1999/xlink">
<g id="graph0" class="graph" transform="scale(1 1) rotate(0) translate(4 479)">
<title>Ogre::CompositorPass</title>
<!-- Node1 -->
<g id="Node000001" class="node">
<title>Node1</title>
<g id="a_Node000001"><a xlink:title="Abstract class for compositor passes.">
<polygon fill="#999999" stroke="#666666" points="291,-253 167,-253 167,-234 291,-234 291,-253"/>
<text text-anchor="middle" x="229" y="-241" font-family="Helvetica,sans-Serif" font-size="10.00">Ogre::CompositorPass</text>
</a>
</g>
</g>
<!-- Node3 -->
<g id="Node000003" class="node">
<title>Node3</title>
<g id="a_Node000003"><a xlink:href="class_ogre_1_1_compositor_pass_clear.html" target="_top" xlink:title="Implementation of CompositorPass This implementation will clear the RenderTarget using the parameters...">
<polygon fill="white" stroke="#666666" points="490.5,-475 341.5,-475 341.5,-456 490.5,-456 490.5,-475"/>
<text text-anchor="middle" x="416" y="-463" font-family="Helvetica,sans-Serif" font-size="10.00">Ogre::CompositorPassClear</text>
</a>
</g>
</g>
<!-- Node1&#45;&gt;Node3 -->
<g id="edge2_Node000001_Node000003" class="edge">
<title>Node1&#45;&gt;Node3</title>
<g id="a_edge2_Node000001_Node000003"><a xlink:title=" ">
<path fill="none" stroke="#63b8ff" d="M233.34,-263.15C241.41,-304.32 266.04,-399.76 327,-447.5 331.3,-450.87 336.06,-453.65 341.09,-455.94"/>
<polygon fill="#63b8ff" stroke="#63b8ff" points="236.73,-262.26 231.48,-253.06 229.85,-263.53 236.73,-262.26"/>
</a>
</g>
</g>
<!-- Node4 -->
<g id="Node000004" class="node">
<title>Node4</title>
<g id="a_Node000004"><a xlink:href="class_ogre_1_1_compositor_pass_compute.html" target="_top" xlink:title="Implementation of CompositorPass This implementation will render a fullscreen triangle/quad to the Re...">
<polygon fill="white" stroke="#666666" points="500,-438 332,-438 332,-419 500,-419 500,-438"/>
<text text-anchor="middle" x="416" y="-426" font-family="Helvetica,sans-Serif" font-size="10.00">Ogre::CompositorPassCompute</text>
</a>
</g>
</g>
<!-- Node1&#45;&gt;Node4 -->
<g id="edge3_Node000001_Node000004" class="edge">
<title>Node1&#45;&gt;Node4</title>
<g id="a_edge3_Node000001_Node000004"><a xlink:title=" ">
<path fill="none" stroke="#63b8ff" d="M235.49,-262.98C246.53,-298.39 274.94,-373.08 327,-410.5 331.69,-413.87 336.85,-416.64 342.27,-418.91"/>
<polygon fill="#63b8ff" stroke="#63b8ff" points="238.83,-261.92 232.61,-253.34 232.12,-263.92 238.83,-261.92"/>
</a>
</g>
</g>
<!-- Node5 -->
<g id="Node000005" class="node">
<title>Node5</title>
<g id="a_Node000005"><a xlink:href="class_ogre_1_1_compositor_pass_depth_copy.html" target="_top" xlink:title="Implementation of CompositorPass This implementation will copy one DepthBuffer to another DepthBuffer...">
<polygon fill="white" stroke="#666666" points="505,-401 327,-401 327,-382 505,-382 505,-401"/>
<text text-anchor="middle" x="416" y="-389" font-family="Helvetica,sans-Serif" font-size="10.00">Ogre::CompositorPassDepthCopy</text>
</a>
</g>
</g>
<!-- Node1&#45;&gt;Node5 -->
<g id="edge4_Node000001_Node000005" class="edge">
<title>Node1&#45;&gt;Node5</title>
<g id="a_edge4_Node000001_Node000005"><a xlink:title=" ">
<path fill="none" stroke="#63b8ff" d="M238.65,-262.65C252.77,-291.57 283.6,-345.94 327,-373.5 332.4,-376.93 338.32,-379.72 344.47,-381.99"/>
<polygon fill="#63b8ff" stroke="#63b8ff" points="241.64,-260.79 234.21,-253.24 235.31,-263.78 241.64,-260.79"/>
</a>
</g>
</g>
<!-- Node6 -->
<g id="Node000006" class="node">
<title>Node6</title>
<g id="a_Node000006"><a xlink:href="class_ogre_1_1_compositor_pass_ibl_specular.html" target="_top" xlink:title="Implementation of CompositorPass This implementation will generate IblSpeculars for the specified tex...">
<polygon fill="white" stroke="#666666" points="505,-364 327,-364 327,-345 505,-345 505,-364"/>
<text text-anchor="middle" x="416" y="-352" font-family="Helvetica,sans-Serif" font-size="10.00">Ogre::CompositorPassIblSpecular</text>
</a>
</g>
</g>
<!-- Node1&#45;&gt;Node6 -->
<g id="edge5_Node000001_Node000006" class="edge">
<title>Node1&#45;&gt;Node6</title>
<g id="a_edge5_Node000001_Node000006"><a xlink:title=" ">
<path fill="none" stroke="#63b8ff" d="M243.18,-261.18C260.12,-282.54 291.59,-317.93 327,-336.5 333.49,-339.9 340.56,-342.67 347.79,-344.9"/>
<polygon fill="#63b8ff" stroke="#63b8ff" points="245.92,-259 237.04,-253.23 240.38,-263.28 245.92,-259"/>
</a>
</g>
</g>
<!-- Node7 -->
<g id="Node000007" class="node">
<title>Node7</title>
<g id="a_Node000007"><a xlink:href="class_ogre_1_1_compositor_pass_imgui.html" target="_top" xlink:title=" ">
<polygon fill="white" stroke="#666666" points="492,-327 340,-327 340,-308 492,-308 492,-327"/>
<text text-anchor="middle" x="416" y="-315" font-family="Helvetica,sans-Serif" font-size="10.00">Ogre::CompositorPassImgui</text>
</a>
</g>
</g>
<!-- Node1&#45;&gt;Node7 -->
<g id="edge6_Node000001_Node000007" class="edge">
<title>Node1&#45;&gt;Node7</title>
<g id="a_edge6_Node000001_Node000007"><a xlink:title=" ">
<path fill="none" stroke="#63b8ff" d="M251.94,-258.93C270.97,-271.61 299.66,-289.13 327,-299.5 335.89,-302.87 345.55,-305.66 355.09,-307.95"/>
<polygon fill="#63b8ff" stroke="#63b8ff" points="253.67,-255.87 243.43,-253.15 249.74,-261.66 253.67,-255.87"/>
</a>
</g>
</g>
<!-- Node8 -->
<g id="Node000008" class="node">
<title>Node8</title>
<g id="a_Node000008"><a xlink:href="class_ogre_1_1_compositor_pass_mipmap.html" target="_top" xlink:title="Implementation of CompositorPass This implementation will generate mipmaps for the specified texture.">
<polygon fill="white" stroke="#666666" points="498,-290 334,-290 334,-271 498,-271 498,-290"/>
<text text-anchor="middle" x="416" y="-278" font-family="Helvetica,sans-Serif" font-size="10.00">Ogre::CompositorPassMipmap</text>
</a>
</g>
</g>
<!-- Node1&#45;&gt;Node8 -->
<g id="edge7_Node000001_Node000008" class="edge">
<title>Node1&#45;&gt;Node8</title>
<g id="a_edge7_Node000001_Node000008"><a xlink:title=" ">
<path fill="none" stroke="#63b8ff" d="M287.58,-255.02C313.15,-260.13 342.88,-266.08 367.2,-270.94"/>
<polygon fill="#63b8ff" stroke="#63b8ff" points="288.13,-251.56 277.64,-253.03 286.76,-258.42 288.13,-251.56"/>
</a>
</g>
</g>
<!-- Node9 -->
<g id="Node000009" class="node">
<title>Node9</title>
<g id="a_Node000009"><a xlink:href="class_ogre_1_1_compositor_pass_quad.html" target="_top" xlink:title="Implementation of CompositorPass This implementation will render a fullscreen triangle/quad to the Re...">
<polygon fill="white" stroke="#666666" points="490.5,-253 341.5,-253 341.5,-234 490.5,-234 490.5,-253"/>
<text text-anchor="middle" x="416" y="-241" font-family="Helvetica,sans-Serif" font-size="10.00">Ogre::CompositorPassQuad</text>
</a>
</g>
</g>
<!-- Node1&#45;&gt;Node9 -->
<g id="edge8_Node000001_Node000009" class="edge">
<title>Node1&#45;&gt;Node9</title>
<g id="a_edge8_Node000001_Node000009"><a xlink:title=" ">
<path fill="none" stroke="#63b8ff" d="M301.45,-243.5C314.55,-243.5 328.25,-243.5 341.42,-243.5"/>
<polygon fill="#63b8ff" stroke="#63b8ff" points="301.09,-240 291.09,-243.5 301.09,-247 301.09,-240"/>
</a>
</g>
</g>
<!-- Node10 -->
<g id="Node000010" class="node">
<title>Node10</title>
<g id="a_Node000010"><a xlink:href="class_ogre_1_1_compositor_pass_scene.html" target="_top" xlink:title="Implementation of CompositorPass This implementation will perform main rendering, selecting several p...">
<polygon fill="white" stroke="#666666" points="492.5,-216 339.5,-216 339.5,-197 492.5,-197 492.5,-216"/>
<text text-anchor="middle" x="416" y="-204" font-family="Helvetica,sans-Serif" font-size="10.00">Ogre::CompositorPassScene</text>
</a>
</g>
</g>
<!-- Node1&#45;&gt;Node10 -->
<g id="edge9_Node000001_Node000010" class="edge">
<title>Node1&#45;&gt;Node10</title>
<g id="a_edge9_Node000001_Node000010"><a xlink:title=" ">
<path fill="none" stroke="#63b8ff" d="M287.58,-231.98C313.15,-226.87 342.88,-220.92 367.2,-216.06"/>
<polygon fill="#63b8ff" stroke="#63b8ff" points="286.76,-228.58 277.64,-233.97 288.13,-235.44 286.76,-228.58"/>
</a>
</g>
</g>
<!-- Node11 -->
<g id="Node000011" class="node">
<title>Node11</title>
<g id="a_Node000011"><a xlink:href="class_ogre_1_1_compositor_pass_shadows.html" target="_top" xlink:title="CompositorPassShadows This class enables force&#45;updating multiple shadow nodes in batch in its own pas...">
<polygon fill="white" stroke="#666666" points="499.5,-179 332.5,-179 332.5,-160 499.5,-160 499.5,-179"/>
<text text-anchor="middle" x="416" y="-167" font-family="Helvetica,sans-Serif" font-size="10.00">Ogre::CompositorPassShadows</text>
</a>
</g>
</g>
<!-- Node1&#45;&gt;Node11 -->
<g id="edge10_Node000001_Node000011" class="edge">
<title>Node1&#45;&gt;Node11</title>
<g id="a_edge10_Node000001_Node000011"><a xlink:title=" ">
<path fill="none" stroke="#63b8ff" d="M251.94,-228.07C270.97,-215.39 299.66,-197.87 327,-187.5 335.89,-184.13 345.55,-181.34 355.09,-179.05"/>
<polygon fill="#63b8ff" stroke="#63b8ff" points="249.74,-225.34 243.43,-233.85 253.67,-231.13 249.74,-225.34"/>
</a>
</g>
</g>
<!-- Node12 -->
<g id="Node000012" class="node">
<title>Node12</title>
<g id="a_Node000012"><a xlink:href="class_ogre_1_1_compositor_pass_stencil.html" target="_top" xlink:title="Implementation of CompositorPass This implementation will clear the RenderTarget using the parameters...">
<polygon fill="white" stroke="#666666" points="494.5,-142 337.5,-142 337.5,-123 494.5,-123 494.5,-142"/>
<text text-anchor="middle" x="416" y="-130" font-family="Helvetica,sans-Serif" font-size="10.00">Ogre::CompositorPassStencil</text>
</a>
</g>
</g>
<!-- Node1&#45;&gt;Node12 -->
<g id="edge11_Node000001_Node000012" class="edge">
<title>Node1&#45;&gt;Node12</title>
<g id="a_edge11_Node000001_Node000012"><a xlink:title=" ">
<path fill="none" stroke="#63b8ff" d="M243.18,-225.82C260.12,-204.46 291.59,-169.07 327,-150.5 333.49,-147.1 340.56,-144.33 347.79,-142.1"/>
<polygon fill="#63b8ff" stroke="#63b8ff" points="240.38,-223.72 237.04,-233.77 245.92,-228 240.38,-223.72"/>
</a>
</g>
</g>
<!-- Node13 -->
<g id="Node000013" class="node">
<title>Node13</title>
<g id="a_Node000013"><a xlink:href="class_ogre_1_1_compositor_pass_target_barrier.html" target="_top" xlink:title=" ">
<polygon fill="white" stroke="#666666" points="493,-104.5 339,-104.5 339,-74.5 493,-74.5 493,-104.5"/>
<text text-anchor="start" x="347" y="-92.5" font-family="Helvetica,sans-Serif" font-size="10.00">Ogre::CompositorPassTarget</text>
<text text-anchor="middle" x="416" y="-81.5" font-family="Helvetica,sans-Serif" font-size="10.00">Barrier</text>
</a>
</g>
</g>
<!-- Node1&#45;&gt;Node13 -->
<g id="edge12_Node000001_Node000013" class="edge">
<title>Node1&#45;&gt;Node13</title>
<g id="a_edge12_Node000001_Node000013"><a xlink:title=" ">
<path fill="none" stroke="#63b8ff" d="M238.87,-224.7C253.29,-196.23 284.51,-142.45 327,-113.5 332.1,-110.02 337.7,-107.05 343.51,-104.5"/>
<polygon fill="#63b8ff" stroke="#63b8ff" points="235.6,-223.43 234.33,-233.95 241.88,-226.51 235.6,-223.43"/>
</a>
</g>
</g>
<!-- Node14 -->
<g id="Node000014" class="node">
<title>Node14</title>
<g id="a_Node000014"><a xlink:href="class_ogre_1_1_compositor_pass_uav.html" target="_top" xlink:title="Implementation of CompositorPass This implementation will set UAVs.">
<polygon fill="white" stroke="#666666" points="487.5,-56 344.5,-56 344.5,-37 487.5,-37 487.5,-56"/>
<text text-anchor="middle" x="416" y="-44" font-family="Helvetica,sans-Serif" font-size="10.00">Ogre::CompositorPassUav</text>
</a>
</g>
</g>
<!-- Node1&#45;&gt;Node14 -->
<g id="edge13_Node000001_Node000014" class="edge">
<title>Node1&#45;&gt;Node14</title>
<g id="a_edge13_Node000001_Node000014"><a xlink:title=" ">
<path fill="none" stroke="#63b8ff" d="M234.85,-223.88C245.09,-186.72 272.6,-106.19 327,-65.5 332.26,-61.57 338.16,-58.41 344.35,-55.89"/>
<polygon fill="#63b8ff" stroke="#63b8ff" points="231.36,-223.36 232.21,-233.92 238.13,-225.14 231.36,-223.36"/>
</a>
</g>
</g>
<!-- Node15 -->
<g id="Node000015" class="node">
<title>Node15</title>
<g id="a_Node000015"><a xlink:href="class_ogre_1_1_compositor_pass_warm_up.html" target="_top" xlink:title="Implementation of CompositorPass.">
<polygon fill="white" stroke="#666666" points="499,-19 333,-19 333,0 499,0 499,-19"/>
<text text-anchor="middle" x="416" y="-7" font-family="Helvetica,sans-Serif" font-size="10.00">Ogre::CompositorPassWarmUp</text>
</a>
</g>
</g>
<!-- Node1&#45;&gt;Node15 -->
<g id="edge14_Node000001_Node000015" class="edge">
<title>Node1&#45;&gt;Node15</title>
<g id="a_edge14_Node000001_Node000015"><a xlink:title=" ">
<path fill="none" stroke="#63b8ff" d="M232.77,-223.88C239.91,-181 263.08,-78.69 327,-27.5 331.14,-24.19 335.73,-21.43 340.58,-19.15"/>
<polygon fill="#63b8ff" stroke="#63b8ff" points="229.29,-223.45 231.22,-233.87 236.21,-224.52 229.29,-223.45"/>
</a>
</g>
</g>
<!-- Node2 -->
<g id="Node000002" class="node">
<title>Node2</title>
<g id="a_Node000002"><a xlink:title=" ">
<polygon fill="white" stroke="#666666" points="131,-253 0,-253 0,-234 131,-234 131,-253"/>
<text text-anchor="middle" x="65.5" y="-241" font-family="Helvetica,sans-Serif" font-size="10.00">Ogre::OgreAllocatedObj</text>
</a>
</g>
</g>
<!-- Node2&#45;&gt;Node1 -->
<g id="edge1_Node000001_Node000002" class="edge">
<title>Node2&#45;&gt;Node1</title>
<g id="a_edge1_Node000001_Node000002"><a xlink:title=" ">
<path fill="none" stroke="#63b8ff" d="M141.27,-243.5C149.85,-243.5 158.52,-243.5 166.9,-243.5"/>
<polygon fill="#63b8ff" stroke="#63b8ff" points="141.26,-240 131.26,-243.5 141.26,-247 141.26,-240"/>
</a>
</g>
</g>
</g>
</svg>
