<?xml version="1.0" encoding="UTF-8" standalone="no"?>
<!DOCTYPE svg PUBLIC "-//W3C//DTD SVG 1.1//EN"
 "http://www.w3.org/Graphics/SVG/1.1/DTD/svg11.dtd">
<!-- Generated by graphviz version 2.43.0 (0)
 -->
<!-- Title: Ogre::Resource::Listener Pages: 1 -->
<svg width="342pt" height="82pt"
 viewBox="0.00 0.00 341.50 82.00" xmlns="http://www.w3.org/2000/svg" xmlns:xlink="http://www.w3.org/1999/xlink">
<g id="graph0" class="graph" transform="scale(1 1) rotate(0) translate(4 78)">
<title>Ogre::Resource::Listener</title>
<!-- Node1 -->
<g id="Node000001" class="node">
<title>Node1</title>
<g id="a_Node000001"><a xlink:title=" ">
<polygon fill="#999999" stroke="#666666" points="257.5,-74 121.5,-74 121.5,-55 257.5,-55 257.5,-74"/>
<text text-anchor="middle" x="189.5" y="-62" font-family="Helvetica,sans-Serif" font-size="10.00">Ogre::Resource::Listener</text>
</a>
</g>
</g>
<!-- Node2 -->
<g id="Node000002" class="node">
<title>Node2</title>
<g id="a_Node000002"><a xlink:href="class_ogre_1_1_gpu_program_usage.html" target="_top" xlink:title="This class makes the usage of a vertex and fragment programs (low&#45;level or high&#45;level),...">
<polygon fill="white" stroke="#666666" points="137,-19 0,-19 0,0 137,0 137,-19"/>
<text text-anchor="middle" x="68.5" y="-7" font-family="Helvetica,sans-Serif" font-size="10.00">Ogre::GpuProgramUsage</text>
</a>
</g>
</g>
<!-- Node1&#45;&gt;Node2 -->
<g id="edge1_Node000001_Node000002" class="edge">
<title>Node1&#45;&gt;Node2</title>
<g id="a_edge1_Node000001_Node000002"><a xlink:title=" ">
<path fill="none" stroke="#63b8ff" d="M160.73,-50.9C138.38,-41.11 107.98,-27.79 88.29,-19.17"/>
<polygon fill="#63b8ff" stroke="#63b8ff" points="159.5,-54.18 170.06,-54.98 162.3,-47.77 159.5,-54.18"/>
</a>
</g>
</g>
<!-- Node3 -->
<g id="Node000003" class="node">
<title>Node3</title>
<g id="a_Node000003"><a xlink:href="class_ogre_1_1_item.html" target="_top" xlink:title="Defines an instance of a discrete, movable object based on a Mesh.">
<polygon fill="white" stroke="#666666" points="223.5,-19 155.5,-19 155.5,0 223.5,0 223.5,-19"/>
<text text-anchor="middle" x="189.5" y="-7" font-family="Helvetica,sans-Serif" font-size="10.00">Ogre::Item</text>
</a>
</g>
</g>
<!-- Node1&#45;&gt;Node3 -->
<g id="edge2_Node000001_Node000003" class="edge">
<title>Node1&#45;&gt;Node3</title>
<g id="a_edge2_Node000001_Node000003"><a xlink:title=" ">
<path fill="none" stroke="#63b8ff" d="M189.5,-44.66C189.5,-35.93 189.5,-25.99 189.5,-19.09"/>
<polygon fill="#63b8ff" stroke="#63b8ff" points="186,-44.75 189.5,-54.75 193,-44.75 186,-44.75"/>
</a>
</g>
</g>
<!-- Node4 -->
<g id="Node000004" class="node">
<title>Node4</title>
<g id="a_Node000004"><a xlink:href="class_ogre_1_1v1_1_1_entity.html" target="_top" xlink:title="Defines an instance of a discrete, movable object based on a Mesh.">
<polygon fill="white" stroke="#666666" points="333.5,-19 241.5,-19 241.5,0 333.5,0 333.5,-19"/>
<text text-anchor="middle" x="287.5" y="-7" font-family="Helvetica,sans-Serif" font-size="10.00">Ogre::v1::Entity</text>
</a>
</g>
</g>
<!-- Node1&#45;&gt;Node4 -->
<g id="edge3_Node000001_Node000004" class="edge">
<title>Node1&#45;&gt;Node4</title>
<g id="a_edge3_Node000001_Node000004"><a xlink:title=" ">
<path fill="none" stroke="#63b8ff" d="M214.53,-49.97C232.44,-40.28 256.03,-27.52 271.47,-19.17"/>
<polygon fill="#63b8ff" stroke="#63b8ff" points="212.38,-47.15 205.25,-54.98 215.71,-53.31 212.38,-47.15"/>
</a>
</g>
</g>
</g>
</svg>
