<?xml version="1.0" encoding="UTF-8" standalone="no"?>
<!DOCTYPE svg PUBLIC "-//W3C//DTD SVG 1.1//EN"
 "http://www.w3.org/Graphics/SVG/1.1/DTD/svg11.dtd">
<!-- Generated by graphviz version 2.43.0 (0)
 -->
<!-- Title: Ogre::ParticleEmitter Pages: 1 -->
<svg width="1127pt" height="256pt"
 viewBox="0.00 0.00 1127.00 256.00" xmlns="http://www.w3.org/2000/svg" xmlns:xlink="http://www.w3.org/1999/xlink">
<g id="graph0" class="graph" transform="scale(1 1) rotate(0) translate(4 252)">
<title>Ogre::ParticleEmitter</title>
<!-- Node1 -->
<g id="node1" class="node">
<title>Node1</title>
<g id="a_node1"><a xlink:title="Abstract class defining the interface to be implemented by particle emitters.">
<polygon fill="#bfbfbf" stroke="black" points="292,-76.5 292,-95.5 410,-95.5 410,-76.5 292,-76.5"/>
<text text-anchor="middle" x="351" y="-83.5" font-family="Helvetica,sans-Serif" font-size="10.00">Ogre::ParticleEmitter</text>
</a>
</g>
</g>
<!-- Node5 -->
<g id="node5" class="node">
<title>Node5</title>
<g id="a_node5"><a xlink:href="class_ogre_1_1_area_emitter.html" target="_top" xlink:title="Particle emitter which emits particles randomly from points inside an area (box, sphere,...">
<polygon fill="none" stroke="black" points="455,-152.5 455,-171.5 559,-171.5 559,-152.5 455,-152.5"/>
<text text-anchor="middle" x="507" y="-159.5" font-family="Helvetica,sans-Serif" font-size="10.00">Ogre::AreaEmitter</text>
</a>
</g>
</g>
<!-- Node1&#45;&gt;Node5 -->
<g id="edge4" class="edge">
<title>Node1&#45;&gt;Node5</title>
<path fill="none" stroke="midnightblue" d="M380.49,-100.06C411.39,-115.31 459.89,-139.25 486.65,-152.45"/>
<polygon fill="midnightblue" stroke="midnightblue" points="382.02,-96.91 371.5,-95.63 378.92,-103.19 382.02,-96.91"/>
</g>
<!-- Node11 -->
<g id="node11" class="node">
<title>Node11</title>
<g id="a_node11"><a xlink:href="class_ogre_1_1_emitter_def_data.html" target="_top" xlink:title="EmitterDefData are per ParticleSystemDef.">
<polygon fill="none" stroke="black" points="446,-76.5 446,-95.5 568,-95.5 568,-76.5 446,-76.5"/>
<text text-anchor="middle" x="507" y="-83.5" font-family="Helvetica,sans-Serif" font-size="10.00">Ogre::EmitterDefData</text>
</a>
</g>
</g>
<!-- Node1&#45;&gt;Node11 -->
<g id="edge10" class="edge">
<title>Node1&#45;&gt;Node11</title>
<path fill="none" stroke="#8b1a1a" d="M420.47,-86C428.94,-86 437.56,-86 445.9,-86"/>
<polygon fill="#8b1a1a" stroke="#8b1a1a" points="420.22,-82.5 410.22,-86 420.22,-89.5 420.22,-82.5"/>
</g>
<!-- Node19 -->
<g id="node19" class="node">
<title>Node19</title>
<g id="a_node19"><a xlink:href="class_ogre_1_1_point_emitter.html" target="_top" xlink:title="Particle emitter which emits particles from a single point.">
<polygon fill="none" stroke="black" points="453.5,-38.5 453.5,-57.5 560.5,-57.5 560.5,-38.5 453.5,-38.5"/>
<text text-anchor="middle" x="507" y="-45.5" font-family="Helvetica,sans-Serif" font-size="10.00">Ogre::PointEmitter</text>
</a>
</g>
</g>
<!-- Node1&#45;&gt;Node19 -->
<g id="edge18" class="edge">
<title>Node1&#45;&gt;Node19</title>
<path fill="none" stroke="midnightblue" d="M400.79,-73.96C422.31,-68.65 447.23,-62.5 467.42,-57.52"/>
<polygon fill="midnightblue" stroke="midnightblue" points="399.73,-70.62 390.86,-76.41 401.41,-77.41 399.73,-70.62"/>
</g>
<!-- Node2 -->
<g id="node2" class="node">
<title>Node2</title>
<g id="a_node2"><a xlink:href="class_ogre_1_1_string_interface.html" target="_top" xlink:title="Class defining the common interface which classes can use to present a reflection&#45;style,...">
<polygon fill="none" stroke="black" points="138,-95.5 138,-114.5 256,-114.5 256,-95.5 138,-95.5"/>
<text text-anchor="middle" x="197" y="-102.5" font-family="Helvetica,sans-Serif" font-size="10.00">Ogre::StringInterface</text>
</a>
</g>
</g>
<!-- Node2&#45;&gt;Node1 -->
<g id="edge1" class="edge">
<title>Node2&#45;&gt;Node1</title>
<path fill="none" stroke="midnightblue" d="M266.26,-96.47C274.8,-95.4 283.46,-94.32 291.82,-93.27"/>
<polygon fill="midnightblue" stroke="midnightblue" points="265.82,-93 256.33,-97.71 266.69,-99.94 265.82,-93"/>
</g>
<!-- Node3 -->
<g id="node3" class="node">
<title>Node3</title>
<g id="a_node3"><a xlink:href="class_ogre_1_1_particle.html" target="_top" xlink:title="Class representing a single particle instance.">
<polygon fill="none" stroke="black" points="156,-57.5 156,-76.5 238,-76.5 238,-57.5 156,-57.5"/>
<text text-anchor="middle" x="197" y="-64.5" font-family="Helvetica,sans-Serif" font-size="10.00">Ogre::Particle</text>
</a>
</g>
</g>
<!-- Node3&#45;&gt;Node1 -->
<g id="edge2" class="edge">
<title>Node3&#45;&gt;Node1</title>
<path fill="none" stroke="midnightblue" d="M248.62,-73.33C262.44,-75.06 277.52,-76.94 291.73,-78.72"/>
<polygon fill="midnightblue" stroke="midnightblue" points="248.69,-69.81 238.33,-72.04 247.82,-76.76 248.69,-69.81"/>
</g>
<!-- Node4 -->
<g id="node4" class="node">
<title>Node4</title>
<g id="a_node4"><a xlink:title=" ">
<polygon fill="none" stroke="#bfbfbf" points="0,-57.5 0,-76.5 102,-76.5 102,-57.5 0,-57.5"/>
<text text-anchor="middle" x="51" y="-64.5" font-family="Helvetica,sans-Serif" font-size="10.00">OgreAllocatedObj</text>
</a>
</g>
</g>
<!-- Node4&#45;&gt;Node3 -->
<g id="edge3" class="edge">
<title>Node4&#45;&gt;Node3</title>
<path fill="none" stroke="midnightblue" d="M112.39,-67C127.06,-67 142.39,-67 155.86,-67"/>
<polygon fill="midnightblue" stroke="midnightblue" points="112.36,-63.5 102.36,-67 112.36,-70.5 112.36,-63.5"/>
</g>
<!-- Node6 -->
<g id="node6" class="node">
<title>Node6</title>
<g id="a_node6"><a xlink:href="class_ogre_1_1_box_emitter.html" target="_top" xlink:title="Particle emitter which emits particles randomly from points inside a box.">
<polygon fill="none" stroke="black" points="615,-228.5 615,-247.5 716,-247.5 716,-228.5 615,-228.5"/>
<text text-anchor="middle" x="665.5" y="-235.5" font-family="Helvetica,sans-Serif" font-size="10.00">Ogre::BoxEmitter</text>
</a>
</g>
</g>
<!-- Node5&#45;&gt;Node6 -->
<g id="edge5" class="edge">
<title>Node5&#45;&gt;Node6</title>
<path fill="none" stroke="midnightblue" d="M530.27,-177.24C549.23,-189.72 577.54,-207.18 604,-219 612.04,-222.59 620.97,-225.79 629.43,-228.5"/>
<polygon fill="midnightblue" stroke="midnightblue" points="532.02,-174.2 521.76,-171.56 528.14,-180.03 532.02,-174.2"/>
</g>
<!-- Node7 -->
<g id="node7" class="node">
<title>Node7</title>
<g id="a_node7"><a xlink:href="class_ogre_1_1_cylinder_emitter.html" target="_top" xlink:title="Particle emitter which emits particles randomly from points inside a cylinder.">
<polygon fill="none" stroke="black" points="604.5,-190.5 604.5,-209.5 726.5,-209.5 726.5,-190.5 604.5,-190.5"/>
<text text-anchor="middle" x="665.5" y="-197.5" font-family="Helvetica,sans-Serif" font-size="10.00">Ogre::CylinderEmitter</text>
</a>
</g>
</g>
<!-- Node5&#45;&gt;Node7 -->
<g id="edge6" class="edge">
<title>Node5&#45;&gt;Node7</title>
<path fill="none" stroke="midnightblue" d="M557.29,-173.97C579.22,-179.29 604.68,-185.48 625.29,-190.48"/>
<polygon fill="midnightblue" stroke="midnightblue" points="558.04,-170.55 547.49,-171.59 556.38,-177.35 558.04,-170.55"/>
</g>
<!-- Node8 -->
<g id="node8" class="node">
<title>Node8</title>
<g id="a_node8"><a xlink:href="class_ogre_1_1_ellipsoid_emitter.html" target="_top" xlink:title="Particle emitter which emits particles randomly from points inside an ellipsoid.">
<polygon fill="none" stroke="black" points="604,-152.5 604,-171.5 727,-171.5 727,-152.5 604,-152.5"/>
<text text-anchor="middle" x="665.5" y="-159.5" font-family="Helvetica,sans-Serif" font-size="10.00">Ogre::EllipsoidEmitter</text>
</a>
</g>
</g>
<!-- Node5&#45;&gt;Node8 -->
<g id="edge7" class="edge">
<title>Node5&#45;&gt;Node8</title>
<path fill="none" stroke="midnightblue" d="M569.47,-162C580.78,-162 592.59,-162 603.88,-162"/>
<polygon fill="midnightblue" stroke="midnightblue" points="569.24,-158.5 559.24,-162 569.24,-165.5 569.24,-158.5"/>
</g>
<!-- Node10 -->
<g id="node10" class="node">
<title>Node10</title>
<g id="a_node10"><a xlink:href="class_ogre_1_1_ring_emitter.html" target="_top" xlink:title="Particle emitter which emits particles randomly from points inside a ring (e.g.">
<polygon fill="none" stroke="black" points="613.5,-114.5 613.5,-133.5 717.5,-133.5 717.5,-114.5 613.5,-114.5"/>
<text text-anchor="middle" x="665.5" y="-121.5" font-family="Helvetica,sans-Serif" font-size="10.00">Ogre::RingEmitter</text>
</a>
</g>
</g>
<!-- Node5&#45;&gt;Node10 -->
<g id="edge9" class="edge">
<title>Node5&#45;&gt;Node10</title>
<path fill="none" stroke="midnightblue" d="M557.29,-150.03C579.22,-144.71 604.68,-138.52 625.29,-133.52"/>
<polygon fill="midnightblue" stroke="midnightblue" points="556.38,-146.65 547.49,-152.41 558.04,-153.45 556.38,-146.65"/>
</g>
<!-- Node9 -->
<g id="node9" class="node">
<title>Node9</title>
<g id="a_node9"><a xlink:href="class_ogre_1_1_hollow_ellipsoid_emitter.html" target="_top" xlink:title="Particle emitter which emits particles randomly from points inside a hollow ellipsoid.">
<polygon fill="none" stroke="black" points="763,-152.5 763,-171.5 920,-171.5 920,-152.5 763,-152.5"/>
<text text-anchor="middle" x="841.5" y="-159.5" font-family="Helvetica,sans-Serif" font-size="10.00">Ogre::HollowEllipsoidEmitter</text>
</a>
</g>
</g>
<!-- Node8&#45;&gt;Node9 -->
<g id="edge8" class="edge">
<title>Node8&#45;&gt;Node9</title>
<path fill="none" stroke="midnightblue" d="M737.45,-162C745.82,-162 754.4,-162 762.85,-162"/>
<polygon fill="midnightblue" stroke="midnightblue" points="737.36,-158.5 727.36,-162 737.36,-165.5 737.36,-158.5"/>
</g>
<!-- Node12 -->
<g id="node12" class="node">
<title>Node12</title>
<g id="a_node12"><a xlink:href="class_ogre_1_1_area_emitter2.html" target="_top" xlink:title="Particle emitter which emits particles randomly from points inside an area (box, sphere,...">
<polygon fill="none" stroke="black" points="610.5,-76.5 610.5,-95.5 720.5,-95.5 720.5,-76.5 610.5,-76.5"/>
<text text-anchor="middle" x="665.5" y="-83.5" font-family="Helvetica,sans-Serif" font-size="10.00">Ogre::AreaEmitter2</text>
</a>
</g>
</g>
<!-- Node11&#45;&gt;Node12 -->
<g id="edge11" class="edge">
<title>Node11&#45;&gt;Node12</title>
<path fill="none" stroke="midnightblue" d="M578.32,-86C589.12,-86 600.12,-86 610.49,-86"/>
<polygon fill="midnightblue" stroke="midnightblue" points="578.06,-82.5 568.06,-86 578.06,-89.5 578.06,-82.5"/>
</g>
<!-- Node18 -->
<g id="node18" class="node">
<title>Node18</title>
<g id="a_node18"><a xlink:href="class_ogre_1_1_point_emitter2.html" target="_top" xlink:title=" ">
<polygon fill="none" stroke="black" points="609,-38.5 609,-57.5 722,-57.5 722,-38.5 609,-38.5"/>
<text text-anchor="middle" x="665.5" y="-45.5" font-family="Helvetica,sans-Serif" font-size="10.00">Ogre::PointEmitter2</text>
</a>
</g>
</g>
<!-- Node11&#45;&gt;Node18 -->
<g id="edge17" class="edge">
<title>Node11&#45;&gt;Node18</title>
<path fill="none" stroke="midnightblue" d="M557.29,-74.03C579.22,-68.71 604.68,-62.52 625.29,-57.52"/>
<polygon fill="midnightblue" stroke="midnightblue" points="556.38,-70.65 547.49,-76.41 558.04,-77.45 556.38,-70.65"/>
</g>
<!-- Node13 -->
<g id="node13" class="node">
<title>Node13</title>
<g id="a_node13"><a xlink:href="class_ogre_1_1_box_emitter2.html" target="_top" xlink:title="Particle emitter which emits particles randomly from points inside a box.">
<polygon fill="none" stroke="black" points="788,-114.5 788,-133.5 895,-133.5 895,-114.5 788,-114.5"/>
<text text-anchor="middle" x="841.5" y="-121.5" font-family="Helvetica,sans-Serif" font-size="10.00">Ogre::BoxEmitter2</text>
</a>
</g>
</g>
<!-- Node12&#45;&gt;Node13 -->
<g id="edge12" class="edge">
<title>Node12&#45;&gt;Node13</title>
<path fill="none" stroke="midnightblue" d="M720.31,-97.75C744.92,-103.13 773.69,-109.41 796.91,-114.48"/>
<polygon fill="midnightblue" stroke="midnightblue" points="720.92,-94.3 710.41,-95.59 719.43,-101.14 720.92,-94.3"/>
</g>
<!-- Node14 -->
<g id="node14" class="node">
<title>Node14</title>
<g id="a_node14"><a xlink:href="class_ogre_1_1_cylinder_emitter2.html" target="_top" xlink:title="Particle emitter which emits particles randomly from points inside a cylinder.">
<polygon fill="none" stroke="black" points="777.5,-76.5 777.5,-95.5 905.5,-95.5 905.5,-76.5 777.5,-76.5"/>
<text text-anchor="middle" x="841.5" y="-83.5" font-family="Helvetica,sans-Serif" font-size="10.00">Ogre::CylinderEmitter2</text>
</a>
</g>
</g>
<!-- Node12&#45;&gt;Node14 -->
<g id="edge13" class="edge">
<title>Node12&#45;&gt;Node14</title>
<path fill="none" stroke="midnightblue" d="M730.91,-86C746.06,-86 762.19,-86 777.29,-86"/>
<polygon fill="midnightblue" stroke="midnightblue" points="730.6,-82.5 720.6,-86 730.6,-89.5 730.6,-82.5"/>
</g>
<!-- Node15 -->
<g id="node15" class="node">
<title>Node15</title>
<g id="a_node15"><a xlink:href="class_ogre_1_1_ellipsoid_emitter2.html" target="_top" xlink:title="Particle emitter which emits particles randomly from points inside an ellipsoid.">
<polygon fill="none" stroke="black" points="777,-38.5 777,-57.5 906,-57.5 906,-38.5 777,-38.5"/>
<text text-anchor="middle" x="841.5" y="-45.5" font-family="Helvetica,sans-Serif" font-size="10.00">Ogre::EllipsoidEmitter2</text>
</a>
</g>
</g>
<!-- Node12&#45;&gt;Node15 -->
<g id="edge14" class="edge">
<title>Node12&#45;&gt;Node15</title>
<path fill="none" stroke="midnightblue" d="M720.31,-74.25C744.92,-68.87 773.69,-62.59 796.91,-57.52"/>
<polygon fill="midnightblue" stroke="midnightblue" points="719.43,-70.86 710.41,-76.41 720.92,-77.7 719.43,-70.86"/>
</g>
<!-- Node17 -->
<g id="node17" class="node">
<title>Node17</title>
<g id="a_node17"><a xlink:href="class_ogre_1_1_ring_emitter2.html" target="_top" xlink:title="Particle emitter which emits particles randomly from points inside a ring (e.g.">
<polygon fill="none" stroke="black" points="786.5,-0.5 786.5,-19.5 896.5,-19.5 896.5,-0.5 786.5,-0.5"/>
<text text-anchor="middle" x="841.5" y="-7.5" font-family="Helvetica,sans-Serif" font-size="10.00">Ogre::RingEmitter2</text>
</a>
</g>
</g>
<!-- Node12&#45;&gt;Node17 -->
<g id="edge16" class="edge">
<title>Node12&#45;&gt;Node17</title>
<path fill="none" stroke="midnightblue" d="M716.27,-72.69C720.01,-70.99 723.63,-69.11 727,-67 746.73,-54.67 742.89,-40.69 763,-29 770.19,-24.82 778.26,-21.56 786.41,-19.01"/>
<polygon fill="midnightblue" stroke="midnightblue" points="714.79,-69.51 706.83,-76.5 717.41,-76 714.79,-69.51"/>
</g>
<!-- Node16 -->
<g id="node16" class="node">
<title>Node16</title>
<g id="a_node16"><a xlink:href="class_ogre_1_1_hollow_ellipsoid_emitter2.html" target="_top" xlink:title="Particle emitter which emits particles randomly from points inside a hollow ellipsoid.">
<polygon fill="none" stroke="black" points="956,-38.5 956,-57.5 1119,-57.5 1119,-38.5 956,-38.5"/>
<text text-anchor="middle" x="1037.5" y="-45.5" font-family="Helvetica,sans-Serif" font-size="10.00">Ogre::HollowEllipsoidEmitter2</text>
</a>
</g>
</g>
<!-- Node15&#45;&gt;Node16 -->
<g id="edge15" class="edge">
<title>Node15&#45;&gt;Node16</title>
<path fill="none" stroke="midnightblue" d="M916.26,-48C929.2,-48 942.72,-48 955.84,-48"/>
<polygon fill="midnightblue" stroke="midnightblue" points="916.02,-44.5 906.02,-48 916.02,-51.5 916.02,-44.5"/>
</g>
</g>
</svg>
