<?xml version="1.0" encoding="UTF-8" standalone="no"?>
<!DOCTYPE svg PUBLIC "-//W3C//DTD SVG 1.1//EN"
 "http://www.w3.org/Graphics/SVG/1.1/DTD/svg11.dtd">
<!-- Generated by graphviz version 2.44.0 ()
 -->
<!-- Title: Ogre::SmallVectorBase Pages: 1 -->
<svg width="780pt" height="191pt"
 viewBox="0.00 0.00 780.00 191.00" xmlns="http://www.w3.org/2000/svg" xmlns:xlink="http://www.w3.org/1999/xlink">
<g id="graph0" class="graph" transform="scale(1 1) rotate(0) translate(4 187)">
<title>Ogre::SmallVectorBase</title>
<!-- Node1 -->
<g id="node1" class="node">
<title>Node1</title>
<g id="a_node1"><a xlink:title="SmallVectorBase &#45; This is all the non&#45;templated stuff common to all SmallVectors.">
<polygon fill="#bfbfbf" stroke="black" points="0,-55 0,-74 118,-74 118,-55 0,-55"/>
<text text-anchor="middle" x="59" y="-62" font-family="Helvetica,sans-Serif" font-size="10.00">Ogre::SmallVectorBase</text>
</a>
</g>
</g>
<!-- Node2 -->
<g id="node2" class="node">
<title>Node2</title>
<g id="a_node2"><a xlink:href="class_ogre_1_1_small_vector_template_common.html" target="_top" xlink:title=" ">
<polygon fill="none" stroke="black" points="154,-49.5 154,-79.5 290,-79.5 290,-49.5 154,-49.5"/>
<text text-anchor="start" x="162" y="-67.5" font-family="Helvetica,sans-Serif" font-size="10.00">Ogre::SmallVectorTemplate</text>
<text text-anchor="middle" x="222" y="-56.5" font-family="Helvetica,sans-Serif" font-size="10.00">Common&lt; T &gt;</text>
</a>
</g>
</g>
<!-- Node1&#45;&gt;Node2 -->
<g id="edge1" class="edge">
<title>Node1&#45;&gt;Node2</title>
<path fill="none" stroke="midnightblue" d="M128.34,-64.5C136.82,-64.5 145.48,-64.5 153.93,-64.5"/>
<polygon fill="midnightblue" stroke="midnightblue" points="128.12,-61 118.12,-64.5 128.12,-68 128.12,-61"/>
</g>
<!-- Node3 -->
<g id="node3" class="node">
<title>Node3</title>
<g id="a_node3"><a xlink:href="class_ogre_1_1_small_vector_template_base.html" target="_top" xlink:title=" ">
<polygon fill="none" stroke="black" points="326,-98 326,-139 462,-139 462,-98 326,-98"/>
<text text-anchor="start" x="334" y="-127" font-family="Helvetica,sans-Serif" font-size="10.00">Ogre::SmallVectorTemplate</text>
<text text-anchor="start" x="334" y="-116" font-family="Helvetica,sans-Serif" font-size="10.00">Base&lt; T, isPodLike&lt; T &gt;</text>
<text text-anchor="middle" x="394" y="-105" font-family="Helvetica,sans-Serif" font-size="10.00">::value &gt;</text>
</a>
</g>
</g>
<!-- Node2&#45;&gt;Node3 -->
<g id="edge2" class="edge">
<title>Node2&#45;&gt;Node3</title>
<path fill="none" stroke="midnightblue" d="M280.29,-82.7C295.76,-87.61 312.6,-92.96 328.43,-97.99"/>
<polygon fill="midnightblue" stroke="midnightblue" points="280.94,-79.23 270.35,-79.54 278.83,-85.91 280.94,-79.23"/>
</g>
<!-- Node11 -->
<g id="node8" class="node">
<title>Node11</title>
<g id="a_node8"><a xlink:href="class_ogre_1_1_small_vector_template_base.html" target="_top" xlink:title="SmallVectorTemplateBase&lt;isPodLike = false&gt; &#45; This is where we put method implementations that are des...">
<polygon fill="none" stroke="black" points="326,-49.5 326,-79.5 462,-79.5 462,-49.5 326,-49.5"/>
<text text-anchor="start" x="334" y="-67.5" font-family="Helvetica,sans-Serif" font-size="10.00">Ogre::SmallVectorTemplate</text>
<text text-anchor="middle" x="394" y="-56.5" font-family="Helvetica,sans-Serif" font-size="10.00">Base&lt; T, isPodLike &gt;</text>
</a>
</g>
</g>
<!-- Node2&#45;&gt;Node11 -->
<g id="edge7" class="edge">
<title>Node2&#45;&gt;Node11</title>
<path fill="none" stroke="midnightblue" d="M300.42,-64.5C308.88,-64.5 317.43,-64.5 325.74,-64.5"/>
<polygon fill="midnightblue" stroke="midnightblue" points="300.19,-61 290.19,-64.5 300.19,-68 300.19,-61"/>
</g>
<!-- Node12 -->
<g id="node9" class="node">
<title>Node12</title>
<g id="a_node9"><a xlink:href="class_ogre_1_1_small_vector_template_base_3_01_t_00_01true_01_4.html" target="_top" xlink:title="SmallVectorTemplateBase&lt;isPodLike = true&gt; &#45; This is where we put method implementations that are desi...">
<polygon fill="none" stroke="black" points="326,-0.5 326,-30.5 462,-30.5 462,-0.5 326,-0.5"/>
<text text-anchor="start" x="334" y="-18.5" font-family="Helvetica,sans-Serif" font-size="10.00">Ogre::SmallVectorTemplate</text>
<text text-anchor="middle" x="394" y="-7.5" font-family="Helvetica,sans-Serif" font-size="10.00">Base&lt; T, true &gt;</text>
</a>
</g>
</g>
<!-- Node2&#45;&gt;Node12 -->
<g id="edge8" class="edge">
<title>Node2&#45;&gt;Node12</title>
<path fill="none" stroke="midnightblue" d="M285.08,-46.61C303.37,-41.34 323.18,-35.62 340.78,-30.55"/>
<polygon fill="midnightblue" stroke="midnightblue" points="284.03,-43.27 275.39,-49.4 285.97,-49.99 284.03,-43.27"/>
</g>
<!-- Node4 -->
<g id="node4" class="node">
<title>Node4</title>
<g id="a_node4"><a xlink:href="class_ogre_1_1_small_vector_impl.html" target="_top" xlink:title="SmallVectorImpl &#45; This class consists of common code factored out of the SmallVector class to reduce ...">
<polygon fill="none" stroke="black" points="498,-109 498,-128 635,-128 635,-109 498,-109"/>
<text text-anchor="middle" x="566.5" y="-116" font-family="Helvetica,sans-Serif" font-size="10.00">Ogre::SmallVectorImpl&lt; T &gt;</text>
</a>
</g>
</g>
<!-- Node3&#45;&gt;Node4 -->
<g id="edge3" class="edge">
<title>Node3&#45;&gt;Node4</title>
<path fill="none" stroke="midnightblue" d="M472.57,-118.5C480.98,-118.5 489.49,-118.5 497.77,-118.5"/>
<polygon fill="midnightblue" stroke="midnightblue" points="472.39,-115 462.39,-118.5 472.39,-122 472.39,-115"/>
</g>
<!-- Node5 -->
<g id="node5" class="node">
<title>Node5</title>
<g id="a_node5"><a xlink:href="class_ogre_1_1_small_vector.html" target="_top" xlink:title=" ">
<polygon fill="none" stroke="red" points="671,-152.5 671,-182.5 772,-182.5 772,-152.5 671,-152.5"/>
<text text-anchor="start" x="679" y="-170.5" font-family="Helvetica,sans-Serif" font-size="10.00">Ogre::SmallVector&lt;</text>
<text text-anchor="middle" x="721.5" y="-159.5" font-family="Helvetica,sans-Serif" font-size="10.00"> T, S &gt;</text>
</a>
</g>
</g>
<!-- Node4&#45;&gt;Node5 -->
<g id="edge4" class="edge">
<title>Node4&#45;&gt;Node5</title>
<path fill="none" stroke="midnightblue" d="M606.94,-131.13C627.28,-137.64 652.22,-145.63 673.55,-152.46"/>
<polygon fill="midnightblue" stroke="midnightblue" points="607.95,-127.78 597.36,-128.06 605.82,-134.45 607.95,-127.78"/>
</g>
<!-- Node7 -->
<g id="node6" class="node">
<title>Node7</title>
<g id="a_node6"><a xlink:href="class_ogre_1_1_small_vector.html" target="_top" xlink:title="SmallVector &#45; This is a &#39;vector&#39; (really, a variable&#45;sized array), optimized for the case when the ar...">
<polygon fill="none" stroke="red" points="671,-103.5 671,-133.5 772,-133.5 772,-103.5 671,-103.5"/>
<text text-anchor="start" x="679" y="-121.5" font-family="Helvetica,sans-Serif" font-size="10.00">Ogre::SmallVector&lt;</text>
<text text-anchor="middle" x="721.5" y="-110.5" font-family="Helvetica,sans-Serif" font-size="10.00"> T, N &gt;</text>
</a>
</g>
</g>
<!-- Node4&#45;&gt;Node7 -->
<g id="edge5" class="edge">
<title>Node4&#45;&gt;Node7</title>
<path fill="none" stroke="midnightblue" d="M645.23,-118.5C653.91,-118.5 662.57,-118.5 670.77,-118.5"/>
<polygon fill="midnightblue" stroke="midnightblue" points="645.05,-115 635.05,-118.5 645.05,-122 645.05,-115"/>
</g>
<!-- Node10 -->
<g id="node7" class="node">
<title>Node10</title>
<g id="a_node7"><a xlink:href="class_ogre_1_1_small_vector_3_01_t_00_010_01_4.html" target="_top" xlink:title="Specialize SmallVector at N=0.">
<polygon fill="none" stroke="black" points="671,-54.5 671,-84.5 772,-84.5 772,-54.5 671,-54.5"/>
<text text-anchor="start" x="679" y="-72.5" font-family="Helvetica,sans-Serif" font-size="10.00">Ogre::SmallVector&lt;</text>
<text text-anchor="middle" x="721.5" y="-61.5" font-family="Helvetica,sans-Serif" font-size="10.00"> T, 0 &gt;</text>
</a>
</g>
</g>
<!-- Node4&#45;&gt;Node10 -->
<g id="edge6" class="edge">
<title>Node4&#45;&gt;Node10</title>
<path fill="none" stroke="midnightblue" d="M606.94,-105.87C627.28,-99.36 652.22,-91.37 673.55,-84.54"/>
<polygon fill="midnightblue" stroke="midnightblue" points="605.82,-102.55 597.36,-108.94 607.95,-109.22 605.82,-102.55"/>
</g>
</g>
</svg>
