<?xml version="1.0" encoding="UTF-8" standalone="no"?>
<!DOCTYPE svg PUBLIC "-//W3C//DTD SVG 1.1//EN"
 "http://www.w3.org/Graphics/SVG/1.1/DTD/svg11.dtd">
<!-- Generated by graphviz version 7.0.5 (20221223.1930)
 -->
<!-- Title: Ogre::RenderSystem Pages: 1 -->
<svg width="449pt" height="212pt"
 viewBox="0.00 0.00 449.00 212.00" xmlns="http://www.w3.org/2000/svg" xmlns:xlink="http://www.w3.org/1999/xlink">
<g id="graph0" class="graph" transform="scale(1 1) rotate(0) translate(4 208)">
<title>Ogre::RenderSystem</title>
<!-- Node1 -->
<g id="node1" class="node">
<title>Node1</title>
<g id="a_node1"><a xlink:title="Defines the functionality of a 3D API.">
<polygon fill="#999999" stroke="#666666" points="261,-111 155,-111 155,-92 261,-92 261,-111"/>
<text text-anchor="middle" x="208" y="-99" font-family="Helvetica,sans-Serif" font-size="10.00">Ogre::RenderSystem</text>
</a>
</g>
</g>
<!-- Node3 -->
<g id="node3" class="node">
<title>Node3</title>
<g id="a_node3"><a xlink:href="class_ogre_1_1_d3_d11_render_system.html" target="_top" xlink:title="Implementation of DirectX11 as a rendering system.">
<polygon fill="white" stroke="#666666" points="436.5,-204 301.5,-204 301.5,-185 436.5,-185 436.5,-204"/>
<text text-anchor="middle" x="369" y="-192" font-family="Helvetica,sans-Serif" font-size="10.00">Ogre::D3D11RenderSystem</text>
</a>
</g>
</g>
<!-- Node1&#45;&gt;Node3 -->
<g id="edge2" class="edge">
<title>Node1&#45;&gt;Node3</title>
<path fill="none" stroke="#63b8ff" d="M225.31,-119.53C241.77,-136.66 268.75,-161.9 297,-176.5 303.21,-179.71 310.03,-182.37 316.91,-184.57"/>
<polygon fill="#63b8ff" stroke="#63b8ff" points="228.13,-117.42 218.74,-112.52 223.02,-122.21 228.13,-117.42"/>
</g>
<!-- Node4 -->
<g id="node4" class="node">
<title>Node4</title>
<g id="a_node4"><a xlink:href="class_ogre_1_1_g_l3_plus_render_system.html" target="_top" xlink:title="Implementation of GL 3 as a rendering system.">
<polygon fill="white" stroke="#666666" points="441,-167 297,-167 297,-148 441,-148 441,-167"/>
<text text-anchor="middle" x="369" y="-155" font-family="Helvetica,sans-Serif" font-size="10.00">Ogre::GL3PlusRenderSystem</text>
</a>
</g>
</g>
<!-- Node1&#45;&gt;Node4 -->
<g id="edge3" class="edge">
<title>Node1&#45;&gt;Node4</title>
<path fill="none" stroke="#63b8ff" d="M239.53,-116.11C256.25,-123.75 277.49,-132.86 297,-139.5 305.67,-142.45 315.08,-145.16 324.12,-147.54"/>
<polygon fill="#63b8ff" stroke="#63b8ff" points="241.18,-113.02 230.64,-111.99 238.23,-119.37 241.18,-113.02"/>
</g>
<!-- Node5 -->
<g id="node5" class="node">
<title>Node5</title>
<g id="a_node5"><a xlink:href="class_ogre_1_1_g_l_e_s2_render_system.html" target="_top" xlink:title="Implementation of GL ES 2.x as a rendering system.">
<polygon fill="white" stroke="#666666" points="437.5,-130 300.5,-130 300.5,-111 437.5,-111 437.5,-130"/>
<text text-anchor="middle" x="369" y="-118" font-family="Helvetica,sans-Serif" font-size="10.00">Ogre::GLES2RenderSystem</text>
</a>
</g>
</g>
<!-- Node1&#45;&gt;Node5 -->
<g id="edge4" class="edge">
<title>Node1&#45;&gt;Node5</title>
<path fill="none" stroke="#63b8ff" d="M272.43,-109.08C281.56,-110.17 290.98,-111.3 300.19,-112.4"/>
<polygon fill="#63b8ff" stroke="#63b8ff" points="272.91,-105.61 262.57,-107.9 272.08,-112.56 272.91,-105.61"/>
</g>
<!-- Node6 -->
<g id="node6" class="node">
<title>Node6</title>
<g id="a_node6"><a xlink:href="class_ogre_1_1_metal_render_system.html" target="_top" xlink:title="Implementation of Metal as a rendering system.">
<polygon fill="white" stroke="#666666" points="434,-93 304,-93 304,-74 434,-74 434,-93"/>
<text text-anchor="middle" x="369" y="-81" font-family="Helvetica,sans-Serif" font-size="10.00">Ogre::MetalRenderSystem</text>
</a>
</g>
</g>
<!-- Node1&#45;&gt;Node6 -->
<g id="edge5" class="edge">
<title>Node1&#45;&gt;Node6</title>
<path fill="none" stroke="#63b8ff" d="M272.44,-94.32C282.69,-93.16 293.32,-91.95 303.59,-90.79"/>
<polygon fill="#63b8ff" stroke="#63b8ff" points="272.11,-90.83 262.57,-95.44 272.9,-97.79 272.11,-90.83"/>
</g>
<!-- Node7 -->
<g id="node7" class="node">
<title>Node7</title>
<g id="a_node7"><a xlink:href="class_ogre_1_1_n_u_l_l_render_system.html" target="_top" xlink:title="Implementation of NULL as a rendering system.">
<polygon fill="white" stroke="#666666" points="435.5,-56 302.5,-56 302.5,-37 435.5,-37 435.5,-56"/>
<text text-anchor="middle" x="369" y="-44" font-family="Helvetica,sans-Serif" font-size="10.00">Ogre::NULLRenderSystem</text>
</a>
</g>
</g>
<!-- Node1&#45;&gt;Node7 -->
<g id="edge6" class="edge">
<title>Node1&#45;&gt;Node7</title>
<path fill="none" stroke="#63b8ff" d="M240.24,-87.02C256.87,-79.66 277.79,-70.93 297,-64.5 305.8,-61.55 315.36,-58.82 324.52,-56.42"/>
<polygon fill="#63b8ff" stroke="#63b8ff" points="239.06,-83.71 231.38,-91 241.93,-90.09 239.06,-83.71"/>
</g>
<!-- Node8 -->
<g id="node8" class="node">
<title>Node8</title>
<g id="a_node8"><a xlink:href="class_ogre_1_1_vulkan_render_system.html" target="_top" xlink:title="Implementation of Vulkan as a rendering system.">
<polygon fill="white" stroke="#666666" points="437,-19 301,-19 301,0 437,0 437,-19"/>
<text text-anchor="middle" x="369" y="-7" font-family="Helvetica,sans-Serif" font-size="10.00">Ogre::VulkanRenderSystem</text>
</a>
</g>
</g>
<!-- Node1&#45;&gt;Node8 -->
<g id="edge7" class="edge">
<title>Node1&#45;&gt;Node8</title>
<path fill="none" stroke="#63b8ff" d="M225.35,-83.72C241.86,-66.83 268.86,-41.92 297,-27.5 303.22,-24.31 310.05,-21.66 316.93,-19.46"/>
<polygon fill="#63b8ff" stroke="#63b8ff" points="223.13,-80.98 218.77,-90.63 228.2,-85.8 223.13,-80.98"/>
</g>
<!-- Node2 -->
<g id="node2" class="node">
<title>Node2</title>
<g id="a_node2"><a xlink:title=" ">
<polygon fill="white" stroke="#666666" points="119,-111 0,-111 0,-92 119,-92 119,-111"/>
<text text-anchor="middle" x="59.5" y="-99" font-family="Helvetica,sans-Serif" font-size="10.00">Ogre::OgreAllocatedObj</text>
</a>
</g>
</g>
<!-- Node2&#45;&gt;Node1 -->
<g id="edge1" class="edge">
<title>Node2&#45;&gt;Node1</title>
<path fill="none" stroke="#63b8ff" d="M130.68,-101.5C138.83,-101.5 147.02,-101.5 154.87,-101.5"/>
<polygon fill="#63b8ff" stroke="#63b8ff" points="130.76,-98 120.76,-101.5 130.76,-105 130.76,-98"/>
</g>
</g>
</svg>
