<?xml version="1.0" encoding="UTF-8" standalone="no"?>
<!DOCTYPE svg PUBLIC "-//W3C//DTD SVG 1.1//EN"
 "http://www.w3.org/Graphics/SVG/1.1/DTD/svg11.dtd">
<!-- Generated by graphviz version 7.0.5 (20221223.1930)
 -->
<!-- Title: Ogre::v1::HardwareIndexBuffer Pages: 1 -->
<svg width="669pt" height="326pt"
 viewBox="0.00 0.00 669.00 326.00" xmlns="http://www.w3.org/2000/svg" xmlns:xlink="http://www.w3.org/1999/xlink">
<g id="graph0" class="graph" transform="scale(1 1) rotate(0) translate(4 322)">
<title>Ogre::v1::HardwareIndexBuffer</title>
<!-- Node1 -->
<g id="node1" class="node">
<title>Node1</title>
<g id="a_node1"><a xlink:title="Specialisation of HardwareBuffer for vertex index buffers, still abstract.">
<polygon fill="#999999" stroke="#666666" points="464,-168.5 316,-168.5 316,-149.5 464,-149.5 464,-168.5"/>
<text text-anchor="middle" x="390" y="-156.5" font-family="Helvetica,sans-Serif" font-size="10.00">Ogre::v1::HardwareIndexBuffer</text>
</a>
</g>
</g>
<!-- Node4 -->
<g id="node4" class="node">
<title>Node4</title>
<g id="a_node4"><a xlink:href="class_ogre_1_1v1_1_1_d3_d11_hardware_index_buffer.html" target="_top" xlink:title=" ">
<polygon fill="white" stroke="#666666" points="656.5,-318 504.5,-318 504.5,-288 656.5,-288 656.5,-318"/>
<text text-anchor="start" x="512.5" y="-306" font-family="Helvetica,sans-Serif" font-size="10.00">Ogre::v1::D3D11HardwareIndex</text>
<text text-anchor="middle" x="580.5" y="-295" font-family="Helvetica,sans-Serif" font-size="10.00">Buffer</text>
</a>
</g>
</g>
<!-- Node1&#45;&gt;Node4 -->
<g id="edge3" class="edge">
<title>Node1&#45;&gt;Node4</title>
<path fill="none" stroke="#63b8ff" d="M403.29,-178.04C421.36,-204.51 457.56,-252.2 500,-279 505.12,-282.23 510.7,-285.05 516.45,-287.5"/>
<polygon fill="#63b8ff" stroke="#63b8ff" points="406.38,-176.36 397.93,-169.97 400.55,-180.24 406.38,-176.36"/>
</g>
<!-- Node5 -->
<g id="node5" class="node">
<title>Node5</title>
<g id="a_node5"><a xlink:href="class_ogre_1_1v1_1_1_default_hardware_index_buffer.html" target="_top" xlink:title="Specialisation of HardwareIndexBuffer for emulation.">
<polygon fill="white" stroke="#666666" points="645.5,-270 515.5,-270 515.5,-240 645.5,-240 645.5,-270"/>
<text text-anchor="start" x="523.5" y="-258" font-family="Helvetica,sans-Serif" font-size="10.00">Ogre::v1::DefaultHardware</text>
<text text-anchor="middle" x="580.5" y="-247" font-family="Helvetica,sans-Serif" font-size="10.00">IndexBuffer</text>
</a>
</g>
</g>
<!-- Node1&#45;&gt;Node5 -->
<g id="edge4" class="edge">
<title>Node1&#45;&gt;Node5</title>
<path fill="none" stroke="#63b8ff" d="M412.44,-175.89C433.65,-191.93 467.56,-215.79 500,-231 506.79,-234.18 514.1,-237.06 521.44,-239.63"/>
<polygon fill="#63b8ff" stroke="#63b8ff" points="414.63,-173.17 404.57,-169.85 410.37,-178.72 414.63,-173.17"/>
</g>
<!-- Node6 -->
<g id="node6" class="node">
<title>Node6</title>
<g id="a_node6"><a xlink:href="class_ogre_1_1v1_1_1_g_l3_plus_default_hardware_index_buffer.html" target="_top" xlink:title="Specialisation of HardwareIndexBuffer for emulation.">
<polygon fill="white" stroke="#666666" points="643.5,-222 517.5,-222 517.5,-192 643.5,-192 643.5,-222"/>
<text text-anchor="start" x="525.5" y="-210" font-family="Helvetica,sans-Serif" font-size="10.00">Ogre::v1::GL3PlusDefault</text>
<text text-anchor="middle" x="580.5" y="-199" font-family="Helvetica,sans-Serif" font-size="10.00">HardwareIndexBuffer</text>
</a>
</g>
</g>
<!-- Node1&#45;&gt;Node6 -->
<g id="edge5" class="edge">
<title>Node1&#45;&gt;Node6</title>
<path fill="none" stroke="#63b8ff" d="M441.02,-171.74C464.95,-177.83 493.8,-185.18 518.96,-191.58"/>
<polygon fill="#63b8ff" stroke="#63b8ff" points="442.08,-168.4 431.52,-169.32 440.35,-175.18 442.08,-168.4"/>
</g>
<!-- Node7 -->
<g id="node7" class="node">
<title>Node7</title>
<g id="a_node7"><a xlink:href="class_ogre_1_1v1_1_1_g_l3_plus_hardware_index_buffer.html" target="_top" xlink:title=" ">
<polygon fill="white" stroke="#666666" points="649,-174 512,-174 512,-144 649,-144 649,-174"/>
<text text-anchor="start" x="520" y="-162" font-family="Helvetica,sans-Serif" font-size="10.00">Ogre::v1::GL3PlusHardware</text>
<text text-anchor="middle" x="580.5" y="-151" font-family="Helvetica,sans-Serif" font-size="10.00">IndexBuffer</text>
</a>
</g>
</g>
<!-- Node1&#45;&gt;Node7 -->
<g id="edge6" class="edge">
<title>Node1&#45;&gt;Node7</title>
<path fill="none" stroke="#63b8ff" d="M475.8,-159C487.76,-159 499.93,-159 511.52,-159"/>
<polygon fill="#63b8ff" stroke="#63b8ff" points="475.93,-155.5 465.93,-159 475.93,-162.5 475.93,-155.5"/>
</g>
<!-- Node8 -->
<g id="node8" class="node">
<title>Node8</title>
<g id="a_node8"><a xlink:href="class_ogre_1_1v1_1_1_g_l_e_s2_default_hardware_index_buffer.html" target="_top" xlink:title="Specialisation of HardwareIndexBuffer for emulation.">
<polygon fill="white" stroke="#666666" points="661,-126 500,-126 500,-96 661,-96 661,-126"/>
<text text-anchor="start" x="508" y="-114" font-family="Helvetica,sans-Serif" font-size="10.00">Ogre::v1::GLES2DefaultHardware</text>
<text text-anchor="middle" x="580.5" y="-103" font-family="Helvetica,sans-Serif" font-size="10.00">IndexBuffer</text>
</a>
</g>
</g>
<!-- Node1&#45;&gt;Node8 -->
<g id="edge7" class="edge">
<title>Node1&#45;&gt;Node8</title>
<path fill="none" stroke="#63b8ff" d="M441.02,-146.26C464.95,-140.17 493.8,-132.82 518.96,-126.42"/>
<polygon fill="#63b8ff" stroke="#63b8ff" points="440.35,-142.82 431.52,-148.68 442.08,-149.6 440.35,-142.82"/>
</g>
<!-- Node9 -->
<g id="node9" class="node">
<title>Node9</title>
<g id="a_node9"><a xlink:href="class_ogre_1_1v1_1_1_metal_hardware_index_buffer.html" target="_top" xlink:title="Specialisation of HardwareIndexBuffer for Metal.">
<polygon fill="white" stroke="#666666" points="653.5,-78 507.5,-78 507.5,-48 653.5,-48 653.5,-78"/>
<text text-anchor="start" x="515.5" y="-66" font-family="Helvetica,sans-Serif" font-size="10.00">Ogre::v1::MetalHardwareIndex</text>
<text text-anchor="middle" x="580.5" y="-55" font-family="Helvetica,sans-Serif" font-size="10.00">Buffer</text>
</a>
</g>
</g>
<!-- Node1&#45;&gt;Node9 -->
<g id="edge8" class="edge">
<title>Node1&#45;&gt;Node9</title>
<path fill="none" stroke="#63b8ff" d="M412.44,-142.11C433.65,-126.07 467.56,-102.21 500,-87 506.79,-83.82 514.1,-80.94 521.44,-78.37"/>
<polygon fill="#63b8ff" stroke="#63b8ff" points="410.37,-139.28 404.57,-148.15 414.63,-144.83 410.37,-139.28"/>
</g>
<!-- Node10 -->
<g id="node10" class="node">
<title>Node10</title>
<g id="a_node10"><a xlink:href="class_ogre_1_1v1_1_1_vulkan_hardware_index_buffer.html" target="_top" xlink:title=" ">
<polygon fill="white" stroke="#666666" points="645,-30 516,-30 516,0 645,0 645,-30"/>
<text text-anchor="start" x="524" y="-18" font-family="Helvetica,sans-Serif" font-size="10.00">Ogre::v1::VulkanHardware</text>
<text text-anchor="middle" x="580.5" y="-7" font-family="Helvetica,sans-Serif" font-size="10.00">IndexBuffer</text>
</a>
</g>
</g>
<!-- Node1&#45;&gt;Node10 -->
<g id="edge9" class="edge">
<title>Node1&#45;&gt;Node10</title>
<path fill="none" stroke="#63b8ff" d="M403.29,-139.96C421.36,-113.49 457.56,-65.8 500,-39 505.12,-35.77 510.7,-32.95 516.45,-30.5"/>
<polygon fill="#63b8ff" stroke="#63b8ff" points="400.55,-137.76 397.93,-148.03 406.38,-141.64 400.55,-137.76"/>
</g>
<!-- Node2 -->
<g id="node2" class="node">
<title>Node2</title>
<g id="a_node2"><a xlink:href="class_ogre_1_1v1_1_1_hardware_buffer.html" target="_top" xlink:title="Abstract class defining common features of hardware buffers.">
<polygon fill="white" stroke="#666666" points="280,-168.5 155,-168.5 155,-149.5 280,-149.5 280,-168.5"/>
<text text-anchor="middle" x="217.5" y="-156.5" font-family="Helvetica,sans-Serif" font-size="10.00">Ogre::v1::HardwareBuffer</text>
</a>
</g>
</g>
<!-- Node2&#45;&gt;Node1 -->
<g id="edge1" class="edge">
<title>Node2&#45;&gt;Node1</title>
<path fill="none" stroke="#63b8ff" d="M291.31,-159C299.36,-159 307.57,-159 315.63,-159"/>
<polygon fill="#63b8ff" stroke="#63b8ff" points="291.57,-155.5 281.57,-159 291.57,-162.5 291.57,-155.5"/>
</g>
<!-- Node3 -->
<g id="node3" class="node">
<title>Node3</title>
<g id="a_node3"><a xlink:title=" ">
<polygon fill="white" stroke="#666666" points="119,-168.5 0,-168.5 0,-149.5 119,-149.5 119,-168.5"/>
<text text-anchor="middle" x="59.5" y="-156.5" font-family="Helvetica,sans-Serif" font-size="10.00">Ogre::OgreAllocatedObj</text>
</a>
</g>
</g>
<!-- Node3&#45;&gt;Node2 -->
<g id="edge2" class="edge">
<title>Node3&#45;&gt;Node2</title>
<path fill="none" stroke="#63b8ff" d="M130.92,-159C138.81,-159 146.81,-159 154.58,-159"/>
<polygon fill="#63b8ff" stroke="#63b8ff" points="130.99,-155.5 120.99,-159 130.99,-162.5 130.99,-155.5"/>
</g>
</g>
</svg>
