<?xml version="1.0" encoding="UTF-8" standalone="no"?>
<!DOCTYPE svg PUBLIC "-//W3C//DTD SVG 1.1//EN"
 "http://www.w3.org/Graphics/SVG/1.1/DTD/svg11.dtd">
<!-- Generated by graphviz version 2.43.0 (0)
 -->
<!-- Title: Ogre::MaterialManager Pages: 1 -->
<svg width="351pt" height="151pt"
 viewBox="0.00 0.00 351.00 151.00" xmlns="http://www.w3.org/2000/svg" xmlns:xlink="http://www.w3.org/1999/xlink">
<g id="graph0" class="graph" transform="scale(1 1) rotate(0) translate(4 147)">
<title>Ogre::MaterialManager</title>
<!-- Node1 -->
<g id="node1" class="node">
<title>Node1</title>
<g id="a_node1"><a xlink:title="Class for managing Material settings for Ogre.">
<polygon fill="#bfbfbf" stroke="black" points="128,-0.5 128,-19.5 257,-19.5 257,-0.5 128,-0.5"/>
<text text-anchor="middle" x="192.5" y="-7.5" font-family="Helvetica,sans-Serif" font-size="10.00">Ogre::MaterialManager</text>
</a>
</g>
</g>
<!-- Node2 -->
<g id="node2" class="node">
<title>Node2</title>
<g id="a_node2"><a xlink:href="class_ogre_1_1_resource_manager.html" target="_top" xlink:title="Defines a generic resource handler.">
<polygon fill="none" stroke="black" points="47.5,-62 47.5,-81 181.5,-81 181.5,-62 47.5,-62"/>
<text text-anchor="middle" x="114.5" y="-69" font-family="Helvetica,sans-Serif" font-size="10.00">Ogre::ResourceManager</text>
</a>
</g>
</g>
<!-- Node2&#45;&gt;Node1 -->
<g id="edge1" class="edge">
<title>Node2&#45;&gt;Node1</title>
<path fill="none" stroke="midnightblue" d="M133.78,-55.79C148.74,-44.38 168.96,-28.96 181.35,-19.51"/>
<polygon fill="midnightblue" stroke="midnightblue" points="131.5,-53.13 125.68,-61.98 135.75,-58.69 131.5,-53.13"/>
</g>
<!-- Node3 -->
<g id="node3" class="node">
<title>Node3</title>
<g id="a_node3"><a xlink:href="class_ogre_1_1_script_loader.html" target="_top" xlink:title="Abstract class defining the interface used by classes which wish to perform script loading to define ...">
<polygon fill="none" stroke="black" points="0,-123.5 0,-142.5 107,-142.5 107,-123.5 0,-123.5"/>
<text text-anchor="middle" x="53.5" y="-130.5" font-family="Helvetica,sans-Serif" font-size="10.00">Ogre::ScriptLoader</text>
</a>
</g>
</g>
<!-- Node3&#45;&gt;Node2 -->
<g id="edge2" class="edge">
<title>Node3&#45;&gt;Node2</title>
<path fill="none" stroke="midnightblue" d="M69.57,-116.32C81.16,-105.02 96.36,-90.19 105.78,-81.01"/>
<polygon fill="midnightblue" stroke="midnightblue" points="66.95,-113.99 62.24,-123.48 71.84,-119 66.95,-113.99"/>
</g>
<!-- Node4 -->
<g id="node4" class="node">
<title>Node4</title>
<g id="a_node4"><a xlink:title=" ">
<polygon fill="none" stroke="#bfbfbf" points="125.5,-123.5 125.5,-142.5 227.5,-142.5 227.5,-123.5 125.5,-123.5"/>
<text text-anchor="middle" x="176.5" y="-130.5" font-family="Helvetica,sans-Serif" font-size="10.00">OgreAllocatedObj</text>
</a>
</g>
</g>
<!-- Node4&#45;&gt;Node2 -->
<g id="edge3" class="edge">
<title>Node4&#45;&gt;Node2</title>
<path fill="none" stroke="midnightblue" d="M160.17,-116.32C148.39,-105.02 132.94,-90.19 123.37,-81.01"/>
<polygon fill="midnightblue" stroke="midnightblue" points="157.98,-119.08 167.62,-123.48 162.83,-114.03 157.98,-119.08"/>
</g>
<!-- Node5 -->
<g id="node5" class="node">
<title>Node5</title>
<g id="a_node5"><a xlink:href="class_ogre_1_1_singleton.html" target="_top" xlink:title=" ">
<polygon fill="none" stroke="black" points="200,-56.5 200,-86.5 343,-86.5 343,-56.5 200,-56.5"/>
<text text-anchor="start" x="208" y="-74.5" font-family="Helvetica,sans-Serif" font-size="10.00">Ogre::Singleton&lt; Material</text>
<text text-anchor="middle" x="271.5" y="-63.5" font-family="Helvetica,sans-Serif" font-size="10.00">Manager &gt;</text>
</a>
</g>
</g>
<!-- Node5&#45;&gt;Node1 -->
<g id="edge4" class="edge">
<title>Node5&#45;&gt;Node1</title>
<path fill="none" stroke="midnightblue" d="M244.53,-50.19C230.7,-39.77 214.58,-27.63 204,-19.66"/>
<polygon fill="midnightblue" stroke="midnightblue" points="242.68,-53.18 252.78,-56.4 246.9,-47.59 242.68,-53.18"/>
</g>
</g>
</svg>
