<?xml version="1.0" encoding="UTF-8" standalone="no"?>
<!DOCTYPE svg PUBLIC "-//W3C//DTD SVG 1.1//EN"
 "http://www.w3.org/Graphics/SVG/1.1/DTD/svg11.dtd">
<!-- Generated by graphviz version 2.50.0 (20220203.2022)
 -->
<!-- Title: Ogre::v1::KeyFrame Pages: 1 -->
<svg width="426pt" height="154pt"
 viewBox="0.00 0.00 426.00 154.00" xmlns="http://www.w3.org/2000/svg" xmlns:xlink="http://www.w3.org/1999/xlink">
<g id="graph0" class="graph" transform="scale(1 1) rotate(0) translate(4 150)">
<title>Ogre::v1::KeyFrame</title>
<!-- Node1 -->
<g id="node1" class="node">
<title>Node1</title>
<g id="a_node1"><a xlink:title="A key frame in an animation sequence defined by an AnimationTrack.">
<polygon fill="#bfbfbf" stroke="black" points="129,-66.5 129,-85.5 230,-85.5 230,-66.5 129,-66.5"/>
<text text-anchor="middle" x="179.5" y="-73.5" font-family="Helvetica,sans-Serif" font-size="10.00">Ogre::v1::KeyFrame</text>
</a>
</g>
</g>
<!-- Node3 -->
<g id="node3" class="node">
<title>Node3</title>
<g id="a_node3"><a xlink:href="class_ogre_1_1v1_1_1_numeric_key_frame.html" target="_top" xlink:title="Specialised KeyFrame which stores any numeric value.">
<polygon fill="none" stroke="black" points="273,-126.5 273,-145.5 411,-145.5 411,-126.5 273,-126.5"/>
<text text-anchor="middle" x="342" y="-133.5" font-family="Helvetica,sans-Serif" font-size="10.00">Ogre::v1::NumericKeyFrame</text>
</a>
</g>
</g>
<!-- Node1&#45;&gt;Node3 -->
<g id="edge2" class="edge">
<title>Node1&#45;&gt;Node3</title>
<path fill="none" stroke="midnightblue" d="M206.84,-90.31C223.45,-98.92 245.56,-109.59 266,-117 275.98,-120.61 286.94,-123.81 297.33,-126.5"/>
<polygon fill="midnightblue" stroke="midnightblue" points="208.22,-87.09 197.74,-85.53 204.96,-93.28 208.22,-87.09"/>
</g>
<!-- Node4 -->
<g id="node4" class="node">
<title>Node4</title>
<g id="a_node4"><a xlink:href="class_ogre_1_1v1_1_1_transform_key_frame.html" target="_top" xlink:title="Specialised KeyFrame which stores a full transform.">
<polygon fill="none" stroke="black" points="269,-88.5 269,-107.5 415,-107.5 415,-88.5 269,-88.5"/>
<text text-anchor="middle" x="342" y="-95.5" font-family="Helvetica,sans-Serif" font-size="10.00">Ogre::v1::TransformKeyFrame</text>
</a>
</g>
</g>
<!-- Node1&#45;&gt;Node4 -->
<g id="edge3" class="edge">
<title>Node1&#45;&gt;Node4</title>
<path fill="none" stroke="midnightblue" d="M240.41,-84.21C250.61,-85.61 261.27,-87.07 271.68,-88.5"/>
<polygon fill="midnightblue" stroke="midnightblue" points="240.79,-80.73 230.4,-82.84 239.84,-87.67 240.79,-80.73"/>
</g>
<!-- Node5 -->
<g id="node5" class="node">
<title>Node5</title>
<g id="a_node5"><a xlink:href="class_ogre_1_1v1_1_1_vertex_morph_key_frame.html" target="_top" xlink:title="Specialised KeyFrame which stores absolute vertex positions for a complete buffer,...">
<polygon fill="none" stroke="black" points="278,-39 278,-69 406,-69 406,-39 278,-39"/>
<text text-anchor="start" x="286" y="-57" font-family="Helvetica,sans-Serif" font-size="10.00">Ogre::v1::VertexMorphKey</text>
<text text-anchor="middle" x="342" y="-46" font-family="Helvetica,sans-Serif" font-size="10.00">Frame</text>
</a>
</g>
</g>
<!-- Node1&#45;&gt;Node5 -->
<g id="edge4" class="edge">
<title>Node1&#45;&gt;Node5</title>
<path fill="none" stroke="midnightblue" d="M240.46,-67.78C252.65,-66.11 265.5,-64.35 277.8,-62.66"/>
<polygon fill="midnightblue" stroke="midnightblue" points="239.84,-64.33 230.4,-69.16 240.79,-71.27 239.84,-64.33"/>
</g>
<!-- Node6 -->
<g id="node6" class="node">
<title>Node6</title>
<g id="a_node6"><a xlink:href="class_ogre_1_1v1_1_1_vertex_pose_key_frame.html" target="_top" xlink:title="Specialised KeyFrame which references a Mesh::Pose at a certain influence level, which stores offsets...">
<polygon fill="none" stroke="black" points="266,-0.5 266,-19.5 418,-19.5 418,-0.5 266,-0.5"/>
<text text-anchor="middle" x="342" y="-7.5" font-family="Helvetica,sans-Serif" font-size="10.00">Ogre::v1::VertexPoseKeyFrame</text>
</a>
</g>
</g>
<!-- Node1&#45;&gt;Node6 -->
<g id="edge5" class="edge">
<title>Node1&#45;&gt;Node6</title>
<path fill="none" stroke="midnightblue" d="M203.64,-61.16C220.41,-50.95 243.93,-37.7 266,-29 275.37,-25.31 285.69,-22.15 295.6,-19.52"/>
<polygon fill="midnightblue" stroke="midnightblue" points="201.73,-58.23 195.07,-66.48 205.42,-64.18 201.73,-58.23"/>
</g>
<!-- Node2 -->
<g id="node2" class="node">
<title>Node2</title>
<g id="a_node2"><a xlink:href="class_ogre_1_1_allocated_object.html" target="_top" xlink:title="Superclass for all objects that wish to use custom memory allocators when their new / delete operator...">
<polygon fill="none" stroke="black" points="0,-66.5 0,-85.5 93,-85.5 93,-66.5 0,-66.5"/>
<text text-anchor="middle" x="46.5" y="-73.5" font-family="Helvetica,sans-Serif" font-size="10.00">OgreAllocatedObj</text>
</a>
</g>
</g>
<!-- Node2&#45;&gt;Node1 -->
<g id="edge1" class="edge">
<title>Node2&#45;&gt;Node1</title>
<path fill="none" stroke="midnightblue" d="M103.48,-76C111.94,-76 120.61,-76 128.92,-76"/>
<polygon fill="midnightblue" stroke="midnightblue" points="103.32,-72.5 93.32,-76 103.32,-79.5 103.32,-72.5"/>
</g>
</g>
</svg>
