<?xml version="1.0" encoding="UTF-8" standalone="no"?>
<!DOCTYPE svg PUBLIC "-//W3C//DTD SVG 1.1//EN"
 "http://www.w3.org/Graphics/SVG/1.1/DTD/svg11.dtd">
<!-- Generated by graphviz version 2.43.0 (0)
 -->
<!-- Title: Ogre::GL3PlusTextureGpuHeadlessWindow Pages: 1 -->
<svg width="284pt" height="269pt"
 viewBox="0.00 0.00 283.50 269.00" xmlns="http://www.w3.org/2000/svg" xmlns:xlink="http://www.w3.org/1999/xlink">
<g id="graph0" class="graph" transform="scale(1 1) rotate(0) translate(4 265)">
<title>Ogre::GL3PlusTextureGpuHeadlessWindow</title>
<!-- Node1 -->
<g id="Node000001" class="node">
<title>Node1</title>
<g id="a_Node000001"><a xlink:title=" ">
<polygon fill="#999999" stroke="#666666" points="239,-30 54,-30 54,0 239,0 239,-30"/>
<text text-anchor="start" x="62" y="-18" font-family="Helvetica,sans-Serif" font-size="10.00">Ogre::GL3PlusTextureGpuHeadless</text>
<text text-anchor="middle" x="146.5" y="-7" font-family="Helvetica,sans-Serif" font-size="10.00">Window</text>
</a>
</g>
</g>
<!-- Node2 -->
<g id="Node000002" class="node">
<title>Node2</title>
<g id="a_Node000002"><a xlink:href="class_ogre_1_1_g_l3_plus_texture_gpu_render_target.html" target="_top" xlink:title=" ">
<polygon fill="white" stroke="#666666" points="234,-96 59,-96 59,-66 234,-66 234,-96"/>
<text text-anchor="start" x="67" y="-84" font-family="Helvetica,sans-Serif" font-size="10.00">Ogre::GL3PlusTextureGpuRender</text>
<text text-anchor="middle" x="146.5" y="-73" font-family="Helvetica,sans-Serif" font-size="10.00">Target</text>
</a>
</g>
</g>
<!-- Node2&#45;&gt;Node1 -->
<g id="edge1_Node000001_Node000002" class="edge">
<title>Node2&#45;&gt;Node1</title>
<g id="a_edge1_Node000001_Node000002"><a xlink:title=" ">
<path fill="none" stroke="#63b8ff" d="M146.5,-55.54C146.5,-46.96 146.5,-37.61 146.5,-30.16"/>
<polygon fill="#63b8ff" stroke="#63b8ff" points="143,-55.8 146.5,-65.8 150,-55.8 143,-55.8"/>
</a>
</g>
</g>
<!-- Node3 -->
<g id="Node000003" class="node">
<title>Node3</title>
<g id="a_Node000003"><a xlink:href="class_ogre_1_1_g_l3_plus_texture_gpu.html" target="_top" xlink:title=" ">
<polygon fill="white" stroke="#666666" points="216.5,-151 76.5,-151 76.5,-132 216.5,-132 216.5,-151"/>
<text text-anchor="middle" x="146.5" y="-139" font-family="Helvetica,sans-Serif" font-size="10.00">Ogre::GL3PlusTextureGpu</text>
</a>
</g>
</g>
<!-- Node3&#45;&gt;Node2 -->
<g id="edge2_Node000002_Node000003" class="edge">
<title>Node3&#45;&gt;Node2</title>
<g id="a_edge2_Node000002_Node000003"><a xlink:title=" ">
<path fill="none" stroke="#63b8ff" d="M146.5,-121.65C146.5,-113.36 146.5,-103.78 146.5,-96.11"/>
<polygon fill="#63b8ff" stroke="#63b8ff" points="143,-121.87 146.5,-131.87 150,-121.87 143,-121.87"/>
</a>
</g>
</g>
<!-- Node4 -->
<g id="Node000004" class="node">
<title>Node4</title>
<g id="a_Node000004"><a xlink:href="class_ogre_1_1_texture_gpu.html" target="_top" xlink:title=" ">
<polygon fill="white" stroke="#666666" points="197,-206 96,-206 96,-187 197,-187 197,-206"/>
<text text-anchor="middle" x="146.5" y="-194" font-family="Helvetica,sans-Serif" font-size="10.00">Ogre::TextureGpu</text>
</a>
</g>
</g>
<!-- Node4&#45;&gt;Node3 -->
<g id="edge3_Node000003_Node000004" class="edge">
<title>Node4&#45;&gt;Node3</title>
<g id="a_edge3_Node000003_Node000004"><a xlink:title=" ">
<path fill="none" stroke="#63b8ff" d="M146.5,-176.66C146.5,-167.93 146.5,-157.99 146.5,-151.09"/>
<polygon fill="#63b8ff" stroke="#63b8ff" points="143,-176.75 146.5,-186.75 150,-176.75 143,-176.75"/>
</a>
</g>
</g>
<!-- Node5 -->
<g id="Node000005" class="node">
<title>Node5</title>
<g id="a_Node000005"><a xlink:href="struct_ogre_1_1_gpu_tracked_resource.html" target="_top" xlink:title=" ">
<polygon fill="white" stroke="#666666" points="147,-261 0,-261 0,-242 147,-242 147,-261"/>
<text text-anchor="middle" x="73.5" y="-249" font-family="Helvetica,sans-Serif" font-size="10.00">Ogre::GpuTrackedResource</text>
</a>
</g>
</g>
<!-- Node5&#45;&gt;Node4 -->
<g id="edge4_Node000004_Node000005" class="edge">
<title>Node5&#45;&gt;Node4</title>
<g id="a_edge4_Node000004_Node000005"><a xlink:title=" ">
<path fill="none" stroke="#63b8ff" d="M93.64,-235.88C106.78,-226.34 123.48,-214.21 134.56,-206.17"/>
<polygon fill="#63b8ff" stroke="#63b8ff" points="91.26,-233.28 85.23,-241.98 95.38,-238.94 91.26,-233.28"/>
</a>
</g>
</g>
<!-- Node6 -->
<g id="Node000006" class="node">
<title>Node6</title>
<g id="a_Node000006"><a xlink:href="class_ogre_1_1_gpu_resource.html" target="_top" xlink:title=" ">
<polygon fill="#fff0f0" stroke="red" points="275.5,-261 165.5,-261 165.5,-242 275.5,-242 275.5,-261"/>
<text text-anchor="middle" x="220.5" y="-249" font-family="Helvetica,sans-Serif" font-size="10.00">Ogre::GpuResource</text>
</a>
</g>
</g>
<!-- Node6&#45;&gt;Node4 -->
<g id="edge5_Node000004_Node000006" class="edge">
<title>Node6&#45;&gt;Node4</title>
<g id="a_edge5_Node000004_Node000006"><a xlink:title=" ">
<path fill="none" stroke="#63b8ff" d="M200.47,-236.15C187.09,-226.57 169.94,-214.29 158.61,-206.17"/>
<polygon fill="#63b8ff" stroke="#63b8ff" points="198.44,-239.01 208.61,-241.98 202.52,-233.32 198.44,-239.01"/>
</a>
</g>
</g>
</g>
</svg>
