<?xml version="1.0" encoding="UTF-8" standalone="no"?>
<!DOCTYPE svg PUBLIC "-//W3C//DTD SVG 1.1//EN"
 "http://www.w3.org/Graphics/SVG/1.1/DTD/svg11.dtd">
<!-- Generated by graphviz version 7.0.5 (20221223.1930)
 -->
<!-- Title: Ogre::AbstractNode Pages: 1 -->
<svg width="445pt" height="175pt"
 viewBox="0.00 0.00 445.00 175.00" xmlns="http://www.w3.org/2000/svg" xmlns:xlink="http://www.w3.org/1999/xlink">
<g id="graph0" class="graph" transform="scale(1 1) rotate(0) translate(4 171)">
<title>Ogre::AbstractNode</title>
<!-- Node1 -->
<g id="node1" class="node">
<title>Node1</title>
<g id="a_node1"><a xlink:title=" ">
<polygon fill="#999999" stroke="#666666" points="231,-93 129,-93 129,-74 231,-74 231,-93"/>
<text text-anchor="middle" x="180" y="-81" font-family="Helvetica,sans-Serif" font-size="10.00">Ogre::AbstractNode</text>
</a>
</g>
</g>
<!-- Node3 -->
<g id="node3" class="node">
<title>Node3</title>
<g id="a_node3"><a xlink:href="class_ogre_1_1_atom_abstract_node.html" target="_top" xlink:title="This is an abstract node which cannot be broken down further.">
<polygon fill="white" stroke="#666666" points="414.5,-167 289.5,-167 289.5,-148 414.5,-148 414.5,-167"/>
<text text-anchor="middle" x="352" y="-155" font-family="Helvetica,sans-Serif" font-size="10.00">Ogre::AtomAbstractNode</text>
</a>
</g>
</g>
<!-- Node1&#45;&gt;Node3 -->
<g id="edge2" class="edge">
<title>Node1&#45;&gt;Node3</title>
<path fill="none" stroke="#63b8ff" d="M201.87,-100.24C218.57,-112.83 243.07,-129.55 267,-139.5 274.71,-142.71 283.07,-145.37 291.42,-147.58"/>
<polygon fill="#63b8ff" stroke="#63b8ff" points="204.26,-97.66 194.21,-94.32 199.98,-103.2 204.26,-97.66"/>
</g>
<!-- Node4 -->
<g id="node4" class="node">
<title>Node4</title>
<g id="a_node4"><a xlink:href="class_ogre_1_1_import_abstract_node.html" target="_top" xlink:title="This abstract node represents an import statement.">
<polygon fill="white" stroke="#666666" points="417,-130 287,-130 287,-111 417,-111 417,-130"/>
<text text-anchor="middle" x="352" y="-118" font-family="Helvetica,sans-Serif" font-size="10.00">Ogre::ImportAbstractNode</text>
</a>
</g>
</g>
<!-- Node1&#45;&gt;Node4 -->
<g id="edge3" class="edge">
<title>Node1&#45;&gt;Node4</title>
<path fill="none" stroke="#63b8ff" d="M236.78,-95.88C246.84,-98.09 257.23,-100.37 267,-102.5 279.1,-105.13 292.18,-107.95 304.34,-110.56"/>
<polygon fill="#63b8ff" stroke="#63b8ff" points="237.62,-92.48 227.1,-93.74 236.11,-99.31 237.62,-92.48"/>
</g>
<!-- Node5 -->
<g id="node5" class="node">
<title>Node5</title>
<g id="a_node5"><a xlink:href="class_ogre_1_1_object_abstract_node.html" target="_top" xlink:title="This specific abstract node represents a script object.">
<polygon fill="white" stroke="#666666" points="417.5,-93 286.5,-93 286.5,-74 417.5,-74 417.5,-93"/>
<text text-anchor="middle" x="352" y="-81" font-family="Helvetica,sans-Serif" font-size="10.00">Ogre::ObjectAbstractNode</text>
</a>
</g>
</g>
<!-- Node1&#45;&gt;Node5 -->
<g id="edge4" class="edge">
<title>Node1&#45;&gt;Node5</title>
<path fill="none" stroke="#63b8ff" d="M242.27,-83.5C256.52,-83.5 271.73,-83.5 286.12,-83.5"/>
<polygon fill="#63b8ff" stroke="#63b8ff" points="242.6,-80 232.6,-83.5 242.6,-87 242.6,-80"/>
</g>
<!-- Node6 -->
<g id="node6" class="node">
<title>Node6</title>
<g id="a_node6"><a xlink:href="class_ogre_1_1_property_abstract_node.html" target="_top" xlink:title="This abstract node represents a script property.">
<polygon fill="white" stroke="#666666" points="421,-56 283,-56 283,-37 421,-37 421,-56"/>
<text text-anchor="middle" x="352" y="-44" font-family="Helvetica,sans-Serif" font-size="10.00">Ogre::PropertyAbstractNode</text>
</a>
</g>
</g>
<!-- Node1&#45;&gt;Node6 -->
<g id="edge5" class="edge">
<title>Node1&#45;&gt;Node6</title>
<path fill="none" stroke="#63b8ff" d="M236.78,-71.12C246.84,-68.91 257.23,-66.63 267,-64.5 279.1,-61.87 292.18,-59.05 304.34,-56.44"/>
<polygon fill="#63b8ff" stroke="#63b8ff" points="236.11,-67.69 227.1,-73.26 237.62,-74.52 236.11,-67.69"/>
</g>
<!-- Node7 -->
<g id="node7" class="node">
<title>Node7</title>
<g id="a_node7"><a xlink:href="class_ogre_1_1_variable_access_abstract_node.html" target="_top" xlink:title="This abstract node represents a variable assignment.">
<polygon fill="white" stroke="#666666" points="437,-19 267,-19 267,0 437,0 437,-19"/>
<text text-anchor="middle" x="352" y="-7" font-family="Helvetica,sans-Serif" font-size="10.00">Ogre::VariableAccessAbstractNode</text>
</a>
</g>
</g>
<!-- Node1&#45;&gt;Node7 -->
<g id="edge6" class="edge">
<title>Node1&#45;&gt;Node7</title>
<path fill="none" stroke="#63b8ff" d="M201.87,-66.76C218.57,-54.17 243.07,-37.45 267,-27.5 274.71,-24.29 283.07,-21.63 291.42,-19.42"/>
<polygon fill="#63b8ff" stroke="#63b8ff" points="199.98,-63.8 194.21,-72.68 204.26,-69.34 199.98,-63.8"/>
</g>
<!-- Node2 -->
<g id="node2" class="node">
<title>Node2</title>
<g id="a_node2"><a xlink:title=" ">
<polygon fill="white" stroke="#666666" points="93,-93 0,-93 0,-74 93,-74 93,-93"/>
<text text-anchor="middle" x="46.5" y="-81" font-family="Helvetica,sans-Serif" font-size="10.00">OgreAllocatedObj</text>
</a>
</g>
</g>
<!-- Node2&#45;&gt;Node1 -->
<g id="edge1" class="edge">
<title>Node2&#45;&gt;Node1</title>
<path fill="none" stroke="#63b8ff" d="M104.95,-83.5C112.88,-83.5 120.98,-83.5 128.78,-83.5"/>
<polygon fill="#63b8ff" stroke="#63b8ff" points="105.01,-80 95.01,-83.5 105.01,-87 105.01,-80"/>
</g>
</g>
</svg>
