<?xml version="1.0" encoding="UTF-8" standalone="no"?>
<!DOCTYPE svg PUBLIC "-//W3C//DTD SVG 1.1//EN"
 "http://www.w3.org/Graphics/SVG/1.1/DTD/svg11.dtd">
<!-- Generated by graphviz version 2.43.0 (0)
 -->
<!-- Title: Ogre::SceneQuery Pages: 1 -->
<svg width="860pt" height="220pt"
 viewBox="0.00 0.00 860.00 220.00" xmlns="http://www.w3.org/2000/svg" xmlns:xlink="http://www.w3.org/1999/xlink">
<g id="graph0" class="graph" transform="scale(1 1) rotate(0) translate(4 216)">
<title>Ogre::SceneQuery</title>
<!-- Node1 -->
<g id="Node000001" class="node">
<title>Node1</title>
<g id="a_Node000001"><a xlink:title="A class for performing queries on a scene.">
<polygon fill="#999999" stroke="#666666" points="271,-163.5 167,-163.5 167,-144.5 271,-144.5 271,-163.5"/>
<text text-anchor="middle" x="219" y="-151.5" font-family="Helvetica,sans-Serif" font-size="10.00">Ogre::SceneQuery</text>
</a>
</g>
</g>
<!-- Node3 -->
<g id="Node000003" class="node">
<title>Node3</title>
<g id="a_Node000003"><a xlink:href="class_ogre_1_1_intersection_scene_query.html" target="_top" xlink:title="Separate SceneQuery class to query for pairs of objects which are possibly intersecting one another.">
<polygon fill="white" stroke="#666666" points="469,-203.5 307,-203.5 307,-184.5 469,-184.5 469,-203.5"/>
<text text-anchor="middle" x="388" y="-191.5" font-family="Helvetica,sans-Serif" font-size="10.00">Ogre::IntersectionSceneQuery</text>
</a>
</g>
</g>
<!-- Node1&#45;&gt;Node3 -->
<g id="edge2_Node000001_Node000003" class="edge">
<title>Node1&#45;&gt;Node3</title>
<g id="a_edge2_Node000001_Node000003"><a xlink:title=" ">
<path fill="none" stroke="#63b8ff" d="M269.93,-165.96C294.68,-171.89 324.15,-178.95 347.33,-184.5"/>
<polygon fill="#63b8ff" stroke="#63b8ff" points="270.54,-162.51 260,-163.58 268.91,-169.31 270.54,-162.51"/>
</a>
</g>
</g>
<!-- Node5 -->
<g id="Node000005" class="node">
<title>Node5</title>
<g id="a_Node000005"><a xlink:href="class_ogre_1_1_ray_scene_query.html" target="_top" xlink:title="Specialises the SceneQuery class for querying along a ray.">
<polygon fill="white" stroke="#666666" points="449.5,-163.5 326.5,-163.5 326.5,-144.5 449.5,-144.5 449.5,-163.5"/>
<text text-anchor="middle" x="388" y="-151.5" font-family="Helvetica,sans-Serif" font-size="10.00">Ogre::RaySceneQuery</text>
</a>
</g>
</g>
<!-- Node1&#45;&gt;Node5 -->
<g id="edge4_Node000001_Node000005" class="edge">
<title>Node1&#45;&gt;Node5</title>
<g id="a_edge4_Node000001_Node000005"><a xlink:title=" ">
<path fill="none" stroke="#63b8ff" d="M281.04,-154C295.8,-154 311.58,-154 326.32,-154"/>
<polygon fill="#63b8ff" stroke="#63b8ff" points="281.01,-150.5 271.01,-154 281.01,-157.5 281.01,-150.5"/>
</a>
</g>
</g>
<!-- Node7 -->
<g id="Node000007" class="node">
<title>Node7</title>
<g id="a_Node000007"><a xlink:href="class_ogre_1_1_region_scene_query.html" target="_top" xlink:title="Abstract class defining a query which returns single results from a region.">
<polygon fill="white" stroke="#666666" points="457,-96.5 319,-96.5 319,-77.5 457,-77.5 457,-96.5"/>
<text text-anchor="middle" x="388" y="-84.5" font-family="Helvetica,sans-Serif" font-size="10.00">Ogre::RegionSceneQuery</text>
</a>
</g>
</g>
<!-- Node1&#45;&gt;Node7 -->
<g id="edge6_Node000001_Node000007" class="edge">
<title>Node1&#45;&gt;Node7</title>
<g id="a_edge6_Node000001_Node000007"><a xlink:title=" ">
<path fill="none" stroke="#63b8ff" d="M253.45,-140.58C285.91,-127.56 334.37,-108.12 363.12,-96.58"/>
<polygon fill="#63b8ff" stroke="#63b8ff" points="251.9,-137.43 243.93,-144.4 254.51,-143.93 251.9,-137.43"/>
</a>
</g>
</g>
<!-- Node2 -->
<g id="Node000002" class="node">
<title>Node2</title>
<g id="a_Node000002"><a xlink:title=" ">
<polygon fill="white" stroke="#666666" points="131,-163.5 0,-163.5 0,-144.5 131,-144.5 131,-163.5"/>
<text text-anchor="middle" x="65.5" y="-151.5" font-family="Helvetica,sans-Serif" font-size="10.00">Ogre::OgreAllocatedObj</text>
</a>
</g>
</g>
<!-- Node2&#45;&gt;Node1 -->
<g id="edge1_Node000001_Node000002" class="edge">
<title>Node2&#45;&gt;Node1</title>
<g id="a_edge1_Node000001_Node000002"><a xlink:title=" ">
<path fill="none" stroke="#63b8ff" d="M141.29,-154C149.93,-154 158.58,-154 166.8,-154"/>
<polygon fill="#63b8ff" stroke="#63b8ff" points="141.19,-150.5 131.19,-154 141.19,-157.5 141.19,-150.5"/>
</a>
</g>
</g>
<!-- Node4 -->
<g id="Node000004" class="node">
<title>Node4</title>
<g id="a_Node000004"><a xlink:href="class_ogre_1_1_default_intersection_scene_query.html" target="_top" xlink:title="Default implementation of IntersectionSceneQuery.">
<polygon fill="white" stroke="#666666" points="654.5,-212 514.5,-212 514.5,-182 654.5,-182 654.5,-212"/>
<text text-anchor="start" x="522.5" y="-200" font-family="Helvetica,sans-Serif" font-size="10.00">Ogre::DefaultIntersection</text>
<text text-anchor="middle" x="584.5" y="-189" font-family="Helvetica,sans-Serif" font-size="10.00">SceneQuery</text>
</a>
</g>
</g>
<!-- Node3&#45;&gt;Node4 -->
<g id="edge3_Node000003_Node000004" class="edge">
<title>Node3&#45;&gt;Node4</title>
<g id="a_edge3_Node000003_Node000004"><a xlink:title=" ">
<path fill="none" stroke="#63b8ff" d="M479.47,-195.4C491.18,-195.58 503.02,-195.76 514.31,-195.93"/>
<polygon fill="#63b8ff" stroke="#63b8ff" points="479.29,-191.89 469.23,-195.24 479.18,-198.89 479.29,-191.89"/>
</a>
</g>
</g>
<!-- Node6 -->
<g id="Node000006" class="node">
<title>Node6</title>
<g id="a_Node000006"><a xlink:href="class_ogre_1_1_default_ray_scene_query.html" target="_top" xlink:title="Default implementation of RaySceneQuery.">
<polygon fill="white" stroke="#666666" points="664,-163.5 505,-163.5 505,-144.5 664,-144.5 664,-163.5"/>
<text text-anchor="middle" x="584.5" y="-151.5" font-family="Helvetica,sans-Serif" font-size="10.00">Ogre::DefaultRaySceneQuery</text>
</a>
</g>
</g>
<!-- Node5&#45;&gt;Node6 -->
<g id="edge5_Node000005_Node000006" class="edge">
<title>Node5&#45;&gt;Node6</title>
<g id="a_edge5_Node000005_Node000006"><a xlink:title=" ">
<path fill="none" stroke="#63b8ff" d="M459.76,-154C474.46,-154 490.04,-154 505,-154"/>
<polygon fill="#63b8ff" stroke="#63b8ff" points="459.74,-150.5 449.74,-154 459.74,-157.5 459.74,-150.5"/>
</a>
</g>
</g>
<!-- Node8 -->
<g id="Node000008" class="node">
<title>Node8</title>
<g id="a_Node000008"><a xlink:href="class_ogre_1_1_axis_aligned_box_scene_query.html" target="_top" xlink:title="Specialises the SceneQuery class for querying within an axis aligned box.">
<polygon fill="white" stroke="#666666" points="660.5,-126 508.5,-126 508.5,-96 660.5,-96 660.5,-126"/>
<text text-anchor="start" x="516.5" y="-114" font-family="Helvetica,sans-Serif" font-size="10.00">Ogre::AxisAlignedBoxScene</text>
<text text-anchor="middle" x="584.5" y="-103" font-family="Helvetica,sans-Serif" font-size="10.00">Query</text>
</a>
</g>
</g>
<!-- Node7&#45;&gt;Node8 -->
<g id="edge7_Node000007_Node000008" class="edge">
<title>Node7&#45;&gt;Node8</title>
<g id="a_edge7_Node000007_Node000008"><a xlink:title=" ">
<path fill="none" stroke="#63b8ff" d="M467.24,-96.65C480.76,-98.32 494.78,-100.05 508.21,-101.71"/>
<polygon fill="#63b8ff" stroke="#63b8ff" points="467.38,-93.15 457.03,-95.39 466.52,-100.09 467.38,-93.15"/>
</a>
</g>
</g>
<!-- Node10 -->
<g id="Node000010" class="node">
<title>Node10</title>
<g id="a_Node000010"><a xlink:href="class_ogre_1_1_plane_bounded_volume_list_scene_query.html" target="_top" xlink:title="Specialises the SceneQuery class for querying within a plane&#45;bounded volume.">
<polygon fill="white" stroke="#666666" points="660.5,-78 508.5,-78 508.5,-48 660.5,-48 660.5,-78"/>
<text text-anchor="start" x="516.5" y="-66" font-family="Helvetica,sans-Serif" font-size="10.00">Ogre::PlaneBoundedVolume</text>
<text text-anchor="middle" x="584.5" y="-55" font-family="Helvetica,sans-Serif" font-size="10.00">ListSceneQuery</text>
</a>
</g>
</g>
<!-- Node7&#45;&gt;Node10 -->
<g id="edge9_Node000007_Node000010" class="edge">
<title>Node7&#45;&gt;Node10</title>
<g id="a_edge9_Node000007_Node000010"><a xlink:title=" ">
<path fill="none" stroke="#63b8ff" d="M467.24,-77.35C480.76,-75.68 494.78,-73.95 508.21,-72.29"/>
<polygon fill="#63b8ff" stroke="#63b8ff" points="466.52,-73.91 457.03,-78.61 467.38,-80.85 466.52,-73.91"/>
</a>
</g>
</g>
<!-- Node12 -->
<g id="Node000012" class="node">
<title>Node12</title>
<g id="a_Node000012"><a xlink:href="class_ogre_1_1_sphere_scene_query.html" target="_top" xlink:title="Specialises the SceneQuery class for querying within a sphere.">
<polygon fill="white" stroke="#666666" points="653.5,-27.5 515.5,-27.5 515.5,-8.5 653.5,-8.5 653.5,-27.5"/>
<text text-anchor="middle" x="584.5" y="-15.5" font-family="Helvetica,sans-Serif" font-size="10.00">Ogre::SphereSceneQuery</text>
</a>
</g>
</g>
<!-- Node7&#45;&gt;Node12 -->
<g id="edge11_Node000007_Node000012" class="edge">
<title>Node7&#45;&gt;Node12</title>
<g id="a_edge11_Node000007_Node000012"><a xlink:title=" ">
<path fill="none" stroke="#63b8ff" d="M418.93,-73.34C442.12,-63.08 475.2,-49.1 505,-39 517.43,-34.79 531.18,-30.86 543.66,-27.58"/>
<polygon fill="#63b8ff" stroke="#63b8ff" points="417.34,-70.22 409.64,-77.49 420.2,-76.61 417.34,-70.22"/>
</a>
</g>
</g>
<!-- Node9 -->
<g id="Node000009" class="node">
<title>Node9</title>
<g id="a_Node000009"><a xlink:href="class_ogre_1_1_default_axis_aligned_box_scene_query.html" target="_top" xlink:title="Default implementation of AxisAlignedBoxSceneQuery.">
<polygon fill="white" stroke="#666666" points="846,-126 706,-126 706,-96 846,-96 846,-126"/>
<text text-anchor="start" x="714" y="-114" font-family="Helvetica,sans-Serif" font-size="10.00">Ogre::DefaultAxisAligned</text>
<text text-anchor="middle" x="776" y="-103" font-family="Helvetica,sans-Serif" font-size="10.00">BoxSceneQuery</text>
</a>
</g>
</g>
<!-- Node8&#45;&gt;Node9 -->
<g id="edge8_Node000008_Node000009" class="edge">
<title>Node8&#45;&gt;Node9</title>
<g id="a_edge8_Node000008_Node000009"><a xlink:title=" ">
<path fill="none" stroke="#63b8ff" d="M670.87,-111C682.55,-111 694.43,-111 705.77,-111"/>
<polygon fill="#63b8ff" stroke="#63b8ff" points="670.67,-107.5 660.67,-111 670.67,-114.5 670.67,-107.5"/>
</a>
</g>
</g>
<!-- Node11 -->
<g id="Node000011" class="node">
<title>Node11</title>
<g id="a_Node000011"><a xlink:href="class_ogre_1_1_default_plane_bounded_volume_list_scene_query.html" target="_top" xlink:title="Default implementation of PlaneBoundedVolumeListSceneQuery.">
<polygon fill="white" stroke="#666666" points="852,-78 700,-78 700,-48 852,-48 852,-78"/>
<text text-anchor="start" x="708" y="-66" font-family="Helvetica,sans-Serif" font-size="10.00">Ogre::DefaultPlaneBounded</text>
<text text-anchor="middle" x="776" y="-55" font-family="Helvetica,sans-Serif" font-size="10.00">VolumeListSceneQuery</text>
</a>
</g>
</g>
<!-- Node10&#45;&gt;Node11 -->
<g id="edge10_Node000010_Node000011" class="edge">
<title>Node10&#45;&gt;Node11</title>
<g id="a_edge10_Node000010_Node000011"><a xlink:title=" ">
<path fill="none" stroke="#63b8ff" d="M670.74,-63C680.47,-63 690.34,-63 699.92,-63"/>
<polygon fill="#63b8ff" stroke="#63b8ff" points="670.67,-59.5 660.67,-63 670.67,-66.5 670.67,-59.5"/>
</a>
</g>
</g>
<!-- Node13 -->
<g id="Node000013" class="node">
<title>Node13</title>
<g id="a_Node000013"><a xlink:href="class_ogre_1_1_default_sphere_scene_query.html" target="_top" xlink:title="Default implementation of SphereSceneQuery.">
<polygon fill="white" stroke="#666666" points="848.5,-30 703.5,-30 703.5,0 848.5,0 848.5,-30"/>
<text text-anchor="start" x="711.5" y="-18" font-family="Helvetica,sans-Serif" font-size="10.00">Ogre::DefaultSphereScene</text>
<text text-anchor="middle" x="776" y="-7" font-family="Helvetica,sans-Serif" font-size="10.00">Query</text>
</a>
</g>
</g>
<!-- Node12&#45;&gt;Node13 -->
<g id="edge12_Node000012_Node000013" class="edge">
<title>Node12&#45;&gt;Node13</title>
<g id="a_edge12_Node000012_Node000013"><a xlink:title=" ">
<path fill="none" stroke="#63b8ff" d="M663.98,-16.76C677.01,-16.55 690.46,-16.34 703.3,-16.14"/>
<polygon fill="#63b8ff" stroke="#63b8ff" points="663.59,-13.26 653.65,-16.92 663.7,-20.26 663.59,-13.26"/>
</a>
</g>
</g>
</g>
</svg>
