<?xml version="1.0" encoding="UTF-8" standalone="no"?>
<!DOCTYPE svg PUBLIC "-//W3C//DTD SVG 1.1//EN"
 "http://www.w3.org/Graphics/SVG/1.1/DTD/svg11.dtd">
<!-- Generated by graphviz version 7.0.5 (20221223.1930)
 -->
<!-- Title: Ogre::GL3PlusHardwareOcclusionQuery Pages: 1 -->
<svg width="174pt" height="148pt"
 viewBox="0.00 0.00 174.00 148.00" xmlns="http://www.w3.org/2000/svg" xmlns:xlink="http://www.w3.org/1999/xlink">
<g id="graph0" class="graph" transform="scale(1 1) rotate(0) translate(4 144)">
<title>Ogre::GL3PlusHardwareOcclusionQuery</title>
<!-- Node1 -->
<g id="node1" class="node">
<title>Node1</title>
<g id="a_node1"><a xlink:title="This is a class that is the base class of the query class for hardware occlusion.">
<polygon fill="#999999" stroke="#666666" points="166,-30 0,-30 0,0 166,0 166,-30"/>
<text text-anchor="start" x="8" y="-18" font-family="Helvetica,sans-Serif" font-size="10.00">Ogre::GL3PlusHardwareOcclusion</text>
<text text-anchor="middle" x="83" y="-7" font-family="Helvetica,sans-Serif" font-size="10.00">Query</text>
</a>
</g>
</g>
<!-- Node2 -->
<g id="node2" class="node">
<title>Node2</title>
<g id="a_node2"><a xlink:href="class_ogre_1_1_hardware_occlusion_query.html" target="_top" xlink:title="This is a abstract class that that provides the interface for the query class for hardware occlusion.">
<polygon fill="white" stroke="#666666" points="159.5,-85 6.5,-85 6.5,-66 159.5,-66 159.5,-85"/>
<text text-anchor="middle" x="83" y="-73" font-family="Helvetica,sans-Serif" font-size="10.00">Ogre::HardwareOcclusionQuery</text>
</a>
</g>
</g>
<!-- Node2&#45;&gt;Node1 -->
<g id="edge1" class="edge">
<title>Node2&#45;&gt;Node1</title>
<path fill="none" stroke="#63b8ff" d="M83,-54.51C83,-46.49 83,-37.43 83,-30.11"/>
<polygon fill="#63b8ff" stroke="#63b8ff" points="79.5,-54.35 83,-64.35 86.5,-54.35 79.5,-54.35"/>
</g>
<!-- Node3 -->
<g id="node3" class="node">
<title>Node3</title>
<g id="a_node3"><a xlink:title=" ">
<polygon fill="white" stroke="#666666" points="142.5,-140 23.5,-140 23.5,-121 142.5,-121 142.5,-140"/>
<text text-anchor="middle" x="83" y="-128" font-family="Helvetica,sans-Serif" font-size="10.00">Ogre::OgreAllocatedObj</text>
</a>
</g>
</g>
<!-- Node3&#45;&gt;Node2 -->
<g id="edge2" class="edge">
<title>Node3&#45;&gt;Node2</title>
<path fill="none" stroke="#63b8ff" d="M83,-109.35C83,-101.1 83,-91.97 83,-85.44"/>
<polygon fill="#63b8ff" stroke="#63b8ff" points="79.5,-109.23 83,-119.23 86.5,-109.23 79.5,-109.23"/>
</g>
</g>
</svg>
