<?xml version="1.0" encoding="UTF-8" standalone="no"?>
<!DOCTYPE svg PUBLIC "-//W3C//DTD SVG 1.1//EN"
 "http://www.w3.org/Graphics/SVG/1.1/DTD/svg11.dtd">
<!-- Generated by graphviz version 2.43.0 (0)
 -->
<!-- Title: Ogre::MetalTexBufferPacked Pages: 1 -->
<svg width="304pt" height="313pt"
 viewBox="0.00 0.00 304.00 313.00" xmlns="http://www.w3.org/2000/svg" xmlns:xlink="http://www.w3.org/1999/xlink">
<g id="graph0" class="graph" transform="scale(1 1) rotate(0) translate(4 309)">
<title>Ogre::MetalTexBufferPacked</title>
<!-- Node1 -->
<g id="Node000001" class="node">
<title>Node1</title>
<g id="a_Node000001"><a xlink:title="In Metal, Tex and ReadOnly buffers are exactly the same, thus we derive from ReadOnlyBufferPacked to ...">
<polygon fill="#999999" stroke="#666666" points="228,-85 75,-85 75,-66 228,-66 228,-85"/>
<text text-anchor="middle" x="151.5" y="-73" font-family="Helvetica,sans-Serif" font-size="10.00">Ogre::MetalTexBufferPacked</text>
</a>
</g>
</g>
<!-- Node7 -->
<g id="Node000007" class="node">
<title>Node7</title>
<g id="a_Node000007"><a xlink:href="class_ogre_1_1_metal_read_only_buffer_packed.html" target="_top" xlink:title=" ">
<polygon fill="white" stroke="#666666" points="226.5,-30 76.5,-30 76.5,0 226.5,0 226.5,-30"/>
<text text-anchor="start" x="84.5" y="-18" font-family="Helvetica,sans-Serif" font-size="10.00">Ogre::MetalReadOnlyBuffer</text>
<text text-anchor="middle" x="151.5" y="-7" font-family="Helvetica,sans-Serif" font-size="10.00">Packed</text>
</a>
</g>
</g>
<!-- Node1&#45;&gt;Node7 -->
<g id="edge6_Node000001_Node000007" class="edge">
<title>Node1&#45;&gt;Node7</title>
<g id="a_edge6_Node000001_Node000007"><a xlink:title=" ">
<path fill="none" stroke="#63b8ff" d="M151.5,-55.65C151.5,-47.36 151.5,-37.78 151.5,-30.11"/>
<polygon fill="#63b8ff" stroke="#63b8ff" points="148,-55.87 151.5,-65.87 155,-55.87 148,-55.87"/>
</a>
</g>
</g>
<!-- Node2 -->
<g id="Node000002" class="node">
<title>Node2</title>
<g id="a_Node000002"><a xlink:href="class_ogre_1_1_read_only_buffer_packed.html" target="_top" xlink:title="Represents the best way to access read&#45;only data.">
<polygon fill="white" stroke="#666666" points="229.5,-140 73.5,-140 73.5,-121 229.5,-121 229.5,-140"/>
<text text-anchor="middle" x="151.5" y="-128" font-family="Helvetica,sans-Serif" font-size="10.00">Ogre::ReadOnlyBufferPacked</text>
</a>
</g>
</g>
<!-- Node2&#45;&gt;Node1 -->
<g id="edge1_Node000001_Node000002" class="edge">
<title>Node2&#45;&gt;Node1</title>
<g id="a_edge1_Node000001_Node000002"><a xlink:title=" ">
<path fill="none" stroke="#63b8ff" d="M151.5,-110.66C151.5,-101.93 151.5,-91.99 151.5,-85.09"/>
<polygon fill="#63b8ff" stroke="#63b8ff" points="148,-110.75 151.5,-120.75 155,-110.75 148,-110.75"/>
</a>
</g>
</g>
<!-- Node3 -->
<g id="Node000003" class="node">
<title>Node3</title>
<g id="a_Node000003"><a xlink:href="class_ogre_1_1_tex_buffer_packed.html" target="_top" xlink:title="Represents Texture buffers (also known as tbuffers in D3D11)">
<polygon fill="white" stroke="#666666" points="214,-195 89,-195 89,-176 214,-176 214,-195"/>
<text text-anchor="middle" x="151.5" y="-183" font-family="Helvetica,sans-Serif" font-size="10.00">Ogre::TexBufferPacked</text>
</a>
</g>
</g>
<!-- Node3&#45;&gt;Node2 -->
<g id="edge2_Node000002_Node000003" class="edge">
<title>Node3&#45;&gt;Node2</title>
<g id="a_edge2_Node000002_Node000003"><a xlink:title=" ">
<path fill="none" stroke="#63b8ff" d="M151.5,-165.66C151.5,-156.93 151.5,-146.99 151.5,-140.09"/>
<polygon fill="#63b8ff" stroke="#63b8ff" points="148,-165.75 151.5,-175.75 155,-165.75 148,-165.75"/>
</a>
</g>
</g>
<!-- Node4 -->
<g id="Node000004" class="node">
<title>Node4</title>
<g id="a_Node000004"><a xlink:href="class_ogre_1_1_buffer_packed.html" target="_top" xlink:title=" ">
<polygon fill="white" stroke="#666666" points="206,-250 97,-250 97,-231 206,-231 206,-250"/>
<text text-anchor="middle" x="151.5" y="-238" font-family="Helvetica,sans-Serif" font-size="10.00">Ogre::BufferPacked</text>
</a>
</g>
</g>
<!-- Node4&#45;&gt;Node3 -->
<g id="edge3_Node000003_Node000004" class="edge">
<title>Node4&#45;&gt;Node3</title>
<g id="a_edge3_Node000003_Node000004"><a xlink:title=" ">
<path fill="none" stroke="#63b8ff" d="M151.5,-220.66C151.5,-211.93 151.5,-201.99 151.5,-195.09"/>
<polygon fill="#63b8ff" stroke="#63b8ff" points="148,-220.75 151.5,-230.75 155,-220.75 148,-220.75"/>
</a>
</g>
</g>
<!-- Node5 -->
<g id="Node000005" class="node">
<title>Node5</title>
<g id="a_Node000005"><a xlink:href="struct_ogre_1_1_gpu_tracked_resource.html" target="_top" xlink:title=" ">
<polygon fill="white" stroke="#666666" points="147,-305 0,-305 0,-286 147,-286 147,-305"/>
<text text-anchor="middle" x="73.5" y="-293" font-family="Helvetica,sans-Serif" font-size="10.00">Ogre::GpuTrackedResource</text>
</a>
</g>
</g>
<!-- Node5&#45;&gt;Node4 -->
<g id="edge4_Node000004_Node000005" class="edge">
<title>Node5&#45;&gt;Node4</title>
<g id="a_edge4_Node000004_Node000005"><a xlink:title=" ">
<path fill="none" stroke="#63b8ff" d="M94.62,-280.15C108.71,-270.57 126.79,-258.29 138.74,-250.17"/>
<polygon fill="#63b8ff" stroke="#63b8ff" points="92.34,-277.47 86.03,-285.98 96.27,-283.26 92.34,-277.47"/>
</a>
</g>
</g>
<!-- Node6 -->
<g id="Node000006" class="node">
<title>Node6</title>
<g id="a_Node000006"><a xlink:title=" ">
<polygon fill="white" stroke="#666666" points="296,-305 165,-305 165,-286 296,-286 296,-305"/>
<text text-anchor="middle" x="230.5" y="-293" font-family="Helvetica,sans-Serif" font-size="10.00">Ogre::OgreAllocatedObj</text>
</a>
</g>
</g>
<!-- Node6&#45;&gt;Node4 -->
<g id="edge5_Node000004_Node000006" class="edge">
<title>Node6&#45;&gt;Node4</title>
<g id="a_edge5_Node000004_Node000006"><a xlink:title=" ">
<path fill="none" stroke="#63b8ff" d="M209.11,-280.15C194.83,-270.57 176.53,-258.29 164.42,-250.17"/>
<polygon fill="#63b8ff" stroke="#63b8ff" points="207.55,-283.32 217.81,-285.98 211.45,-277.51 207.55,-283.32"/>
</a>
</g>
</g>
</g>
</svg>
