<?xml version="1.0" encoding="UTF-8" standalone="no"?>
<!DOCTYPE svg PUBLIC "-//W3C//DTD SVG 1.1//EN"
 "http://www.w3.org/Graphics/SVG/1.1/DTD/svg11.dtd">
<!-- Generated by graphviz version 3.0.0 (20220413.0106)
 -->
<!-- Title: Ogre::WorkQueue::ResponseHandler Pages: 1 -->
<svg width="327pt" height="154pt"
 viewBox="0.00 0.00 327.00 154.00" xmlns="http://www.w3.org/2000/svg" xmlns:xlink="http://www.w3.org/1999/xlink">
<g id="graph0" class="graph" transform="scale(1 1) rotate(0) translate(4 150)">
<title>Ogre::WorkQueue::ResponseHandler</title>
<!-- Node1 -->
<g id="node1" class="node">
<title>Node1</title>
<g id="a_node1"><a xlink:title="Interface definition for a handler of responses.">
<polygon fill="#bfbfbf" stroke="black" points="0,-61 0,-91 141,-91 141,-61 0,-61"/>
<text text-anchor="start" x="8" y="-79" font-family="Helvetica,sans-Serif" font-size="10.00">Ogre::WorkQueue::Response</text>
<text text-anchor="middle" x="70.5" y="-68" font-family="Helvetica,sans-Serif" font-size="10.00">Handler</text>
</a>
</g>
</g>
<!-- Node2 -->
<g id="node2" class="node">
<title>Node2</title>
<g id="a_node2"><a xlink:href="class_ogre_1_1_lod_work_queue_injector.html" target="_top" xlink:title="Injects the output of a request to the mesh in a thread safe way.">
<polygon fill="none" stroke="black" points="177,-126.5 177,-145.5 319,-145.5 319,-126.5 177,-126.5"/>
<text text-anchor="middle" x="248" y="-133.5" font-family="Helvetica,sans-Serif" font-size="10.00">Ogre::LodWorkQueueInjector</text>
</a>
</g>
</g>
<!-- Node1&#45;&gt;Node2 -->
<g id="edge1" class="edge">
<title>Node1&#45;&gt;Node2</title>
<path fill="none" stroke="midnightblue" d="M117.11,-94.94C135.54,-102.27 157.13,-110.46 177,-117 187.29,-120.38 198.56,-123.64 209,-126.47"/>
<polygon fill="midnightblue" stroke="midnightblue" points="118.36,-91.67 107.77,-91.19 115.75,-98.16 118.36,-91.67"/>
</g>
<!-- Node3 -->
<g id="node3" class="node">
<title>Node3</title>
<g id="a_node3"><a xlink:href="class_ogre_1_1_page.html" target="_top" xlink:title="Page class.">
<polygon fill="none" stroke="black" points="215.5,-88.5 215.5,-107.5 280.5,-107.5 280.5,-88.5 215.5,-88.5"/>
<text text-anchor="middle" x="248" y="-95.5" font-family="Helvetica,sans-Serif" font-size="10.00">Ogre::Page</text>
</a>
</g>
</g>
<!-- Node1&#45;&gt;Node3 -->
<g id="edge2" class="edge">
<title>Node1&#45;&gt;Node3</title>
<path fill="none" stroke="midnightblue" d="M151.12,-85.98C173.81,-88.83 197.24,-91.76 215.25,-94.02"/>
<polygon fill="midnightblue" stroke="midnightblue" points="151.47,-82.5 141.11,-84.73 150.6,-89.44 151.47,-82.5"/>
</g>
<!-- Node4 -->
<g id="node4" class="node">
<title>Node4</title>
<g id="a_node4"><a xlink:href="class_ogre_1_1_resource_background_queue.html" target="_top" xlink:title="This class is used to perform Resource operations in a background thread.">
<polygon fill="none" stroke="black" points="180.5,-39 180.5,-69 315.5,-69 315.5,-39 180.5,-39"/>
<text text-anchor="start" x="188.5" y="-57" font-family="Helvetica,sans-Serif" font-size="10.00">Ogre::ResourceBackground</text>
<text text-anchor="middle" x="248" y="-46" font-family="Helvetica,sans-Serif" font-size="10.00">Queue</text>
</a>
</g>
</g>
<!-- Node1&#45;&gt;Node4 -->
<g id="edge3" class="edge">
<title>Node1&#45;&gt;Node4</title>
<path fill="none" stroke="midnightblue" d="M151.2,-66.01C160.94,-64.79 170.81,-63.55 180.33,-62.36"/>
<polygon fill="midnightblue" stroke="midnightblue" points="150.6,-62.56 141.11,-67.27 151.47,-69.5 150.6,-62.56"/>
</g>
<!-- Node5 -->
<g id="node5" class="node">
<title>Node5</title>
<g id="a_node5"><a xlink:href="class_ogre_1_1_volume_1_1_chunk_handler.html" target="_top" xlink:title="Handles the WorkQueue management of the chunks.">
<polygon fill="none" stroke="black" points="177.5,-0.5 177.5,-19.5 318.5,-19.5 318.5,-0.5 177.5,-0.5"/>
<text text-anchor="middle" x="248" y="-7.5" font-family="Helvetica,sans-Serif" font-size="10.00">Ogre::Volume::ChunkHandler</text>
</a>
</g>
</g>
<!-- Node1&#45;&gt;Node5 -->
<g id="edge4" class="edge">
<title>Node1&#45;&gt;Node5</title>
<path fill="none" stroke="midnightblue" d="M112.07,-56.81C131.47,-48.01 155.18,-37.83 177,-30 187.59,-26.2 199.27,-22.62 210.01,-19.58"/>
<polygon fill="midnightblue" stroke="midnightblue" points="110.55,-53.65 102.91,-60.99 113.46,-60.02 110.55,-53.65"/>
</g>
</g>
</svg>
