<?xml version="1.0" encoding="UTF-8" standalone="no"?>
<!DOCTYPE svg PUBLIC "-//W3C//DTD SVG 1.1//EN"
 "http://www.w3.org/Graphics/SVG/1.1/DTD/svg11.dtd">
<!-- Generated by graphviz version 7.0.5 (20221223.1930)
 -->
<!-- Title: Ogre::v1::OldNode Pages: 1 -->
<svg width="127pt" height="192pt"
 viewBox="0.00 0.00 127.00 192.00" xmlns="http://www.w3.org/2000/svg" xmlns:xlink="http://www.w3.org/1999/xlink">
<g id="graph0" class="graph" transform="scale(1 1) rotate(0) translate(4 188)">
<title>Ogre::v1::OldNode</title>
<!-- Node1 -->
<g id="node1" class="node">
<title>Node1</title>
<g id="a_node1"><a xlink:title="Class representing a general&#45;purpose OldNode an articulated scene graph.">
<polygon fill="#999999" stroke="#666666" points="107,-129 12,-129 12,-110 107,-110 107,-129"/>
<text text-anchor="middle" x="59.5" y="-117" font-family="Helvetica,sans-Serif" font-size="10.00">Ogre::v1::OldNode</text>
</a>
</g>
</g>
<!-- Node3 -->
<g id="node3" class="node">
<title>Node3</title>
<g id="a_node3"><a xlink:href="class_ogre_1_1v1_1_1_old_bone.html" target="_top" xlink:title="A bone in a skeleton.">
<polygon fill="white" stroke="#666666" points="107,-74 12,-74 12,-55 107,-55 107,-74"/>
<text text-anchor="middle" x="59.5" y="-62" font-family="Helvetica,sans-Serif" font-size="10.00">Ogre::v1::OldBone</text>
</a>
</g>
</g>
<!-- Node1&#45;&gt;Node3 -->
<g id="edge2" class="edge">
<title>Node1&#45;&gt;Node3</title>
<path fill="none" stroke="#63b8ff" d="M59.5,-98.35C59.5,-90.1 59.5,-80.97 59.5,-74.44"/>
<polygon fill="#63b8ff" stroke="#63b8ff" points="56,-98.23 59.5,-108.23 63,-98.23 56,-98.23"/>
</g>
<!-- Node2 -->
<g id="node2" class="node">
<title>Node2</title>
<g id="a_node2"><a xlink:title=" ">
<polygon fill="white" stroke="#666666" points="119,-184 0,-184 0,-165 119,-165 119,-184"/>
<text text-anchor="middle" x="59.5" y="-172" font-family="Helvetica,sans-Serif" font-size="10.00">Ogre::OgreAllocatedObj</text>
</a>
</g>
</g>
<!-- Node2&#45;&gt;Node1 -->
<g id="edge1" class="edge">
<title>Node2&#45;&gt;Node1</title>
<path fill="none" stroke="#63b8ff" d="M59.5,-153.35C59.5,-145.1 59.5,-135.97 59.5,-129.44"/>
<polygon fill="#63b8ff" stroke="#63b8ff" points="56,-153.23 59.5,-163.23 63,-153.23 56,-153.23"/>
</g>
<!-- Node4 -->
<g id="node4" class="node">
<title>Node4</title>
<g id="a_node4"><a xlink:href="class_ogre_1_1v1_1_1_tag_point.html" target="_top" xlink:title="A tagged point on a skeleton, which can be used to attach entities to on specific other entities.">
<polygon fill="white" stroke="#666666" points="107.5,-19 11.5,-19 11.5,0 107.5,0 107.5,-19"/>
<text text-anchor="middle" x="59.5" y="-7" font-family="Helvetica,sans-Serif" font-size="10.00">Ogre::v1::TagPoint</text>
</a>
</g>
</g>
<!-- Node3&#45;&gt;Node4 -->
<g id="edge3" class="edge">
<title>Node3&#45;&gt;Node4</title>
<path fill="none" stroke="#63b8ff" d="M59.5,-43.35C59.5,-35.1 59.5,-25.97 59.5,-19.44"/>
<polygon fill="#63b8ff" stroke="#63b8ff" points="56,-43.23 59.5,-53.23 63,-43.23 56,-43.23"/>
</g>
</g>
</svg>
