<?xml version="1.0" encoding="UTF-8" standalone="no"?>
<!DOCTYPE svg PUBLIC "-//W3C//DTD SVG 1.1//EN"
 "http://www.w3.org/Graphics/SVG/1.1/DTD/svg11.dtd">
<!-- Generated by graphviz version 7.0.5 (20221223.1930)
 -->
<!-- Title: Ogre::v1::TextAreaOverlayElementFactory Pages: 1 -->
<svg width="137pt" height="159pt"
 viewBox="0.00 0.00 137.00 159.00" xmlns="http://www.w3.org/2000/svg" xmlns:xlink="http://www.w3.org/1999/xlink">
<g id="graph0" class="graph" transform="scale(1 1) rotate(0) translate(4 155)">
<title>Ogre::v1::TextAreaOverlayElementFactory</title>
<!-- Node1 -->
<g id="node1" class="node">
<title>Node1</title>
<g id="a_node1"><a xlink:title="Factory for creating TextAreaOverlayElement instances.">
<polygon fill="#999999" stroke="#666666" points="129,-30 0,-30 0,0 129,0 129,-30"/>
<text text-anchor="start" x="8" y="-18" font-family="Helvetica,sans-Serif" font-size="10.00">Ogre::v1::TextAreaOverlay</text>
<text text-anchor="middle" x="64.5" y="-7" font-family="Helvetica,sans-Serif" font-size="10.00">ElementFactory</text>
</a>
</g>
</g>
<!-- Node2 -->
<g id="node2" class="node">
<title>Node2</title>
<g id="a_node2"><a xlink:href="class_ogre_1_1v1_1_1_overlay_element_factory.html" target="_top" xlink:title="Defines the interface which all components wishing to supply OverlayElement subclasses must implement...">
<polygon fill="white" stroke="#666666" points="127,-96 2,-96 2,-66 127,-66 127,-96"/>
<text text-anchor="start" x="10" y="-84" font-family="Helvetica,sans-Serif" font-size="10.00">Ogre::v1::OverlayElement</text>
<text text-anchor="middle" x="64.5" y="-73" font-family="Helvetica,sans-Serif" font-size="10.00">Factory</text>
</a>
</g>
</g>
<!-- Node2&#45;&gt;Node1 -->
<g id="edge1" class="edge">
<title>Node2&#45;&gt;Node1</title>
<path fill="none" stroke="#63b8ff" d="M64.5,-54.39C64.5,-46.13 64.5,-37.28 64.5,-30.16"/>
<polygon fill="#63b8ff" stroke="#63b8ff" points="61,-54.28 64.5,-64.28 68,-54.28 61,-54.28"/>
</g>
<!-- Node3 -->
<g id="node3" class="node">
<title>Node3</title>
<g id="a_node3"><a xlink:title=" ">
<polygon fill="white" stroke="#666666" points="124,-151 5,-151 5,-132 124,-132 124,-151"/>
<text text-anchor="middle" x="64.5" y="-139" font-family="Helvetica,sans-Serif" font-size="10.00">Ogre::OgreAllocatedObj</text>
</a>
</g>
</g>
<!-- Node3&#45;&gt;Node2 -->
<g id="edge2" class="edge">
<title>Node3&#45;&gt;Node2</title>
<path fill="none" stroke="#63b8ff" d="M64.5,-120.51C64.5,-112.49 64.5,-103.43 64.5,-96.11"/>
<polygon fill="#63b8ff" stroke="#63b8ff" points="61,-120.35 64.5,-130.35 68,-120.35 61,-120.35"/>
</g>
</g>
</svg>
