<?xml version="1.0" encoding="UTF-8" standalone="no"?>
<!DOCTYPE svg PUBLIC "-//W3C//DTD SVG 1.1//EN"
 "http://www.w3.org/Graphics/SVG/1.1/DTD/svg11.dtd">
<!-- Generated by graphviz version 7.0.5 (20221223.1930)
 -->
<!-- Title: Ogre::VulkanProgram Pages: 1 -->
<svg width="252pt" height="247pt"
 viewBox="0.00 0.00 251.50 247.00" xmlns="http://www.w3.org/2000/svg" xmlns:xlink="http://www.w3.org/1999/xlink">
<g id="graph0" class="graph" transform="scale(1 1) rotate(0) translate(4 243)">
<title>Ogre::VulkanProgram</title>
<!-- Node1 -->
<g id="node1" class="node">
<title>Node1</title>
<g id="a_node1"><a xlink:title="Specialisation of HighLevelGpuProgram to provide support for Vulkan Shader Language.">
<polygon fill="#999999" stroke="#666666" points="172.5,-19 63.5,-19 63.5,0 172.5,0 172.5,-19"/>
<text text-anchor="middle" x="118" y="-7" font-family="Helvetica,sans-Serif" font-size="10.00">Ogre::VulkanProgram</text>
</a>
</g>
</g>
<!-- Node2 -->
<g id="node2" class="node">
<title>Node2</title>
<g id="a_node2"><a xlink:href="class_ogre_1_1_high_level_gpu_program.html" target="_top" xlink:title="Abstract base class representing a high&#45;level program (a vertex or fragment program).">
<polygon fill="white" stroke="#666666" points="188.5,-74 47.5,-74 47.5,-55 188.5,-55 188.5,-74"/>
<text text-anchor="middle" x="118" y="-62" font-family="Helvetica,sans-Serif" font-size="10.00">Ogre::HighLevelGpuProgram</text>
</a>
</g>
</g>
<!-- Node2&#45;&gt;Node1 -->
<g id="edge1" class="edge">
<title>Node2&#45;&gt;Node1</title>
<path fill="none" stroke="#63b8ff" d="M118,-43.35C118,-35.1 118,-25.97 118,-19.44"/>
<polygon fill="#63b8ff" stroke="#63b8ff" points="114.5,-43.23 118,-53.23 121.5,-43.23 114.5,-43.23"/>
</g>
<!-- Node3 -->
<g id="node3" class="node">
<title>Node3</title>
<g id="a_node3"><a xlink:href="class_ogre_1_1_gpu_program.html" target="_top" xlink:title="Defines a program which runs on the GPU such as a vertex or fragment program.">
<polygon fill="white" stroke="#666666" points="166.5,-129 69.5,-129 69.5,-110 166.5,-110 166.5,-129"/>
<text text-anchor="middle" x="118" y="-117" font-family="Helvetica,sans-Serif" font-size="10.00">Ogre::GpuProgram</text>
</a>
</g>
</g>
<!-- Node3&#45;&gt;Node2 -->
<g id="edge2" class="edge">
<title>Node3&#45;&gt;Node2</title>
<path fill="none" stroke="#63b8ff" d="M118,-98.35C118,-90.1 118,-80.97 118,-74.44"/>
<polygon fill="#63b8ff" stroke="#63b8ff" points="114.5,-98.23 118,-108.23 121.5,-98.23 114.5,-98.23"/>
</g>
<!-- Node4 -->
<g id="node4" class="node">
<title>Node4</title>
<g id="a_node4"><a xlink:href="class_ogre_1_1_resource.html" target="_top" xlink:title="Abstract class representing a loadable resource (e.g.">
<polygon fill="white" stroke="#666666" points="159.5,-184 76.5,-184 76.5,-165 159.5,-165 159.5,-184"/>
<text text-anchor="middle" x="118" y="-172" font-family="Helvetica,sans-Serif" font-size="10.00">Ogre::Resource</text>
</a>
</g>
</g>
<!-- Node4&#45;&gt;Node3 -->
<g id="edge3" class="edge">
<title>Node4&#45;&gt;Node3</title>
<path fill="none" stroke="#63b8ff" d="M118,-153.35C118,-145.1 118,-135.97 118,-129.44"/>
<polygon fill="#63b8ff" stroke="#63b8ff" points="114.5,-153.23 118,-163.23 121.5,-153.23 114.5,-153.23"/>
</g>
<!-- Node5 -->
<g id="node5" class="node">
<title>Node5</title>
<g id="a_node5"><a xlink:href="class_ogre_1_1_string_interface.html" target="_top" xlink:title="Class defining the common interface which classes can use to present a reflection&#45;style,...">
<polygon fill="white" stroke="#666666" points="106,-239 0,-239 0,-220 106,-220 106,-239"/>
<text text-anchor="middle" x="53" y="-227" font-family="Helvetica,sans-Serif" font-size="10.00">Ogre::StringInterface</text>
</a>
</g>
</g>
<!-- Node5&#45;&gt;Node4 -->
<g id="edge4" class="edge">
<title>Node5&#45;&gt;Node4</title>
<path fill="none" stroke="#63b8ff" d="M72.79,-212.37C84.08,-203.16 97.79,-191.98 107.14,-184.36"/>
<polygon fill="#63b8ff" stroke="#63b8ff" points="70.74,-209.52 65.2,-218.55 75.16,-214.95 70.74,-209.52"/>
</g>
<!-- Node6 -->
<g id="node6" class="node">
<title>Node6</title>
<g id="a_node6"><a xlink:title=" ">
<polygon fill="white" stroke="#666666" points="243.5,-239 124.5,-239 124.5,-220 243.5,-220 243.5,-239"/>
<text text-anchor="middle" x="184" y="-227" font-family="Helvetica,sans-Serif" font-size="10.00">Ogre::OgreAllocatedObj</text>
</a>
</g>
</g>
<!-- Node6&#45;&gt;Node4 -->
<g id="edge5" class="edge">
<title>Node6&#45;&gt;Node4</title>
<path fill="none" stroke="#63b8ff" d="M163.91,-212.37C152.45,-203.16 138.52,-191.98 129.03,-184.36"/>
<polygon fill="#63b8ff" stroke="#63b8ff" points="161.64,-215.03 171.62,-218.56 166.02,-209.57 161.64,-215.03"/>
</g>
</g>
</svg>
