<?xml version="1.0" encoding="UTF-8" standalone="no"?>
<!DOCTYPE svg PUBLIC "-//W3C//DTD SVG 1.1//EN"
 "http://www.w3.org/Graphics/SVG/1.1/DTD/svg11.dtd">
<!-- Generated by graphviz version 7.0.5 (20221223.1930)
 -->
<!-- Title: Ogre::HlmsLowLevel Pages: 1 -->
<svg width="123pt" height="148pt"
 viewBox="0.00 0.00 123.00 148.00" xmlns="http://www.w3.org/2000/svg" xmlns:xlink="http://www.w3.org/1999/xlink">
<g id="graph0" class="graph" transform="scale(1 1) rotate(0) translate(4 144)">
<title>Ogre::HlmsLowLevel</title>
<!-- Node1 -->
<g id="node1" class="node">
<title>Node1</title>
<g id="a_node1"><a xlink:title="This is an HLMS implementation that acts as proxy to use the Material system from Ogre 1....">
<polygon fill="#999999" stroke="#666666" points="111.5,-19 3.5,-19 3.5,0 111.5,0 111.5,-19"/>
<text text-anchor="middle" x="57.5" y="-7" font-family="Helvetica,sans-Serif" font-size="10.00">Ogre::HlmsLowLevel</text>
</a>
</g>
</g>
<!-- Node2 -->
<g id="node2" class="node">
<title>Node2</title>
<g id="a_node2"><a xlink:href="class_ogre_1_1_hlms.html" target="_top" xlink:title="HLMS stands for &quot;High Level Material System&quot;.">
<polygon fill="white" stroke="#666666" points="90,-74 25,-74 25,-55 90,-55 90,-74"/>
<text text-anchor="middle" x="57.5" y="-62" font-family="Helvetica,sans-Serif" font-size="10.00">Ogre::Hlms</text>
</a>
</g>
</g>
<!-- Node2&#45;&gt;Node1 -->
<g id="edge1" class="edge">
<title>Node2&#45;&gt;Node1</title>
<path fill="none" stroke="#63b8ff" d="M57.5,-43.35C57.5,-35.1 57.5,-25.97 57.5,-19.44"/>
<polygon fill="#63b8ff" stroke="#63b8ff" points="54,-43.23 57.5,-53.23 61,-43.23 54,-43.23"/>
</g>
<!-- Node3 -->
<g id="node3" class="node">
<title>Node3</title>
<g id="a_node3"><a xlink:href="class_ogre_1_1_allocated_object.html" target="_top" xlink:title=" ">
<polygon fill="white" stroke="#666666" points="115,-140 0,-140 0,-110 115,-110 115,-140"/>
<text text-anchor="start" x="8" y="-128" font-family="Helvetica,sans-Serif" font-size="10.00">Ogre::AllocatedObject</text>
<text text-anchor="middle" x="57.5" y="-117" font-family="Helvetica,sans-Serif" font-size="10.00">&lt; AlignAllocPolicy&lt;&gt; &gt;</text>
</a>
</g>
</g>
<!-- Node3&#45;&gt;Node2 -->
<g id="edge2" class="edge">
<title>Node3&#45;&gt;Node2</title>
<path fill="none" stroke="#63b8ff" d="M57.5,-98.3C57.5,-89.65 57.5,-80.58 57.5,-74.18"/>
<polygon fill="#63b8ff" stroke="#63b8ff" points="54,-98.03 57.5,-108.03 61,-98.03 54,-98.03"/>
</g>
</g>
</svg>
