<?xml version="1.0" encoding="UTF-8" standalone="no"?>
<!DOCTYPE svg PUBLIC "-//W3C//DTD SVG 1.1//EN"
 "http://www.w3.org/Graphics/SVG/1.1/DTD/svg11.dtd">
<!-- Generated by graphviz version 7.0.5 (20221223.1930)
 -->
<!-- Title: Ogre::v1::HardwareVertexBuffer Pages: 1 -->
<svg width="648pt" height="326pt"
 viewBox="0.00 0.00 648.00 326.00" xmlns="http://www.w3.org/2000/svg" xmlns:xlink="http://www.w3.org/1999/xlink">
<g id="graph0" class="graph" transform="scale(1 1) rotate(0) translate(4 322)">
<title>Ogre::v1::HardwareVertexBuffer</title>
<!-- Node1 -->
<g id="node1" class="node">
<title>Node1</title>
<g id="a_node1"><a xlink:title="Specialisation of HardwareBuffer for a vertex buffer.">
<polygon fill="#999999" stroke="#666666" points="443,-174 316,-174 316,-144 443,-144 443,-174"/>
<text text-anchor="start" x="324" y="-162" font-family="Helvetica,sans-Serif" font-size="10.00">Ogre::v1::HardwareVertex</text>
<text text-anchor="middle" x="379.5" y="-151" font-family="Helvetica,sans-Serif" font-size="10.00">Buffer</text>
</a>
</g>
</g>
<!-- Node4 -->
<g id="node4" class="node">
<title>Node4</title>
<g id="a_node4"><a xlink:href="class_ogre_1_1v1_1_1_d3_d11_hardware_vertex_buffer.html" target="_top" xlink:title="Specialisation of HardwareVertexBuffer for D3D11.">
<polygon fill="white" stroke="#666666" points="637.5,-318 481.5,-318 481.5,-288 637.5,-288 637.5,-318"/>
<text text-anchor="start" x="489.5" y="-306" font-family="Helvetica,sans-Serif" font-size="10.00">Ogre::v1::D3D11HardwareVertex</text>
<text text-anchor="middle" x="559.5" y="-295" font-family="Helvetica,sans-Serif" font-size="10.00">Buffer</text>
</a>
</g>
</g>
<!-- Node1&#45;&gt;Node4 -->
<g id="edge3" class="edge">
<title>Node1&#45;&gt;Node4</title>
<path fill="none" stroke="#63b8ff" d="M394.72,-183.95C411.48,-211.18 441.82,-254.2 479,-279 483.92,-282.28 489.3,-285.13 494.87,-287.59"/>
<polygon fill="#63b8ff" stroke="#63b8ff" points="397.89,-182.44 389.75,-175.66 391.89,-186.03 397.89,-182.44"/>
</g>
<!-- Node5 -->
<g id="node5" class="node">
<title>Node5</title>
<g id="a_node5"><a xlink:href="class_ogre_1_1v1_1_1_default_hardware_vertex_buffer.html" target="_top" xlink:title="Specialisation of HardwareVertexBuffer for emulation.">
<polygon fill="white" stroke="#666666" points="624.5,-270 494.5,-270 494.5,-240 624.5,-240 624.5,-270"/>
<text text-anchor="start" x="502.5" y="-258" font-family="Helvetica,sans-Serif" font-size="10.00">Ogre::v1::DefaultHardware</text>
<text text-anchor="middle" x="559.5" y="-247" font-family="Helvetica,sans-Serif" font-size="10.00">VertexBuffer</text>
</a>
</g>
</g>
<!-- Node1&#45;&gt;Node5 -->
<g id="edge4" class="edge">
<title>Node1&#45;&gt;Node5</title>
<path fill="none" stroke="#63b8ff" d="M406.11,-181.49C425.13,-197.21 452.28,-217.69 479,-231 485.45,-234.21 492.42,-237.09 499.45,-239.63"/>
<polygon fill="#63b8ff" stroke="#63b8ff" points="408.53,-178.95 398.63,-175.19 404.02,-184.31 408.53,-178.95"/>
</g>
<!-- Node6 -->
<g id="node6" class="node">
<title>Node6</title>
<g id="a_node6"><a xlink:href="class_ogre_1_1v1_1_1_g_l3_plus_default_hardware_vertex_buffer.html" target="_top" xlink:title="Specialisation of HardwareVertexBuffer for emulation.">
<polygon fill="white" stroke="#666666" points="622.5,-222 496.5,-222 496.5,-192 622.5,-192 622.5,-222"/>
<text text-anchor="start" x="504.5" y="-210" font-family="Helvetica,sans-Serif" font-size="10.00">Ogre::v1::GL3PlusDefault</text>
<text text-anchor="middle" x="559.5" y="-199" font-family="Helvetica,sans-Serif" font-size="10.00">HardwareVertexBuffer</text>
</a>
</g>
</g>
<!-- Node1&#45;&gt;Node6 -->
<g id="edge5" class="edge">
<title>Node1&#45;&gt;Node6</title>
<path fill="none" stroke="#63b8ff" d="M448.48,-177.33C465.91,-182.03 484.48,-187.04 501.31,-191.58"/>
<polygon fill="#63b8ff" stroke="#63b8ff" points="449.83,-174.07 439.26,-174.85 448.01,-180.83 449.83,-174.07"/>
</g>
<!-- Node7 -->
<g id="node7" class="node">
<title>Node7</title>
<g id="a_node7"><a xlink:href="class_ogre_1_1v1_1_1_g_l3_plus_hardware_vertex_buffer.html" target="_top" xlink:title="Specialisation of HardwareVertexBuffer for OpenGL.">
<polygon fill="white" stroke="#666666" points="628,-174 491,-174 491,-144 628,-144 628,-174"/>
<text text-anchor="start" x="499" y="-162" font-family="Helvetica,sans-Serif" font-size="10.00">Ogre::v1::GL3PlusHardware</text>
<text text-anchor="middle" x="559.5" y="-151" font-family="Helvetica,sans-Serif" font-size="10.00">VertexBuffer</text>
</a>
</g>
</g>
<!-- Node1&#45;&gt;Node7 -->
<g id="edge6" class="edge">
<title>Node1&#45;&gt;Node7</title>
<path fill="none" stroke="#63b8ff" d="M454.55,-159C466.49,-159 478.79,-159 490.57,-159"/>
<polygon fill="#63b8ff" stroke="#63b8ff" points="454.77,-155.5 444.77,-159 454.77,-162.5 454.77,-155.5"/>
</g>
<!-- Node8 -->
<g id="node8" class="node">
<title>Node8</title>
<g id="a_node8"><a xlink:href="class_ogre_1_1v1_1_1_g_l_e_s2_default_hardware_vertex_buffer.html" target="_top" xlink:title="Specialisation of HardwareVertexBuffer for emulation.">
<polygon fill="white" stroke="#666666" points="640,-126 479,-126 479,-96 640,-96 640,-126"/>
<text text-anchor="start" x="487" y="-114" font-family="Helvetica,sans-Serif" font-size="10.00">Ogre::v1::GLES2DefaultHardware</text>
<text text-anchor="middle" x="559.5" y="-103" font-family="Helvetica,sans-Serif" font-size="10.00">VertexBuffer</text>
</a>
</g>
</g>
<!-- Node1&#45;&gt;Node8 -->
<g id="edge7" class="edge">
<title>Node1&#45;&gt;Node8</title>
<path fill="none" stroke="#63b8ff" d="M448.48,-140.67C465.91,-135.97 484.48,-130.96 501.31,-126.42"/>
<polygon fill="#63b8ff" stroke="#63b8ff" points="448.01,-137.17 439.26,-143.15 449.83,-143.93 448.01,-137.17"/>
</g>
<!-- Node9 -->
<g id="node9" class="node">
<title>Node9</title>
<g id="a_node9"><a xlink:href="class_ogre_1_1v1_1_1_metal_hardware_vertex_buffer.html" target="_top" xlink:title="Specialisation of HardwareVertexBuffer for Metal.">
<polygon fill="white" stroke="#666666" points="635,-78 484,-78 484,-48 635,-48 635,-78"/>
<text text-anchor="start" x="492" y="-66" font-family="Helvetica,sans-Serif" font-size="10.00">Ogre::v1::MetalHardwareVertex</text>
<text text-anchor="middle" x="559.5" y="-55" font-family="Helvetica,sans-Serif" font-size="10.00">Buffer</text>
</a>
</g>
</g>
<!-- Node1&#45;&gt;Node9 -->
<g id="edge8" class="edge">
<title>Node1&#45;&gt;Node9</title>
<path fill="none" stroke="#63b8ff" d="M406.11,-136.51C425.13,-120.79 452.28,-100.31 479,-87 485.45,-83.79 492.42,-80.91 499.45,-78.37"/>
<polygon fill="#63b8ff" stroke="#63b8ff" points="404.02,-133.69 398.63,-142.81 408.53,-139.05 404.02,-133.69"/>
</g>
<!-- Node10 -->
<g id="node10" class="node">
<title>Node10</title>
<g id="a_node10"><a xlink:href="class_ogre_1_1v1_1_1_vulkan_hardware_vertex_buffer.html" target="_top" xlink:title=" ">
<polygon fill="white" stroke="#666666" points="624,-30 495,-30 495,0 624,0 624,-30"/>
<text text-anchor="start" x="503" y="-18" font-family="Helvetica,sans-Serif" font-size="10.00">Ogre::v1::VulkanHardware</text>
<text text-anchor="middle" x="559.5" y="-7" font-family="Helvetica,sans-Serif" font-size="10.00">VertexBuffer</text>
</a>
</g>
</g>
<!-- Node1&#45;&gt;Node10 -->
<g id="edge9" class="edge">
<title>Node1&#45;&gt;Node10</title>
<path fill="none" stroke="#63b8ff" d="M394.72,-134.05C411.48,-106.82 441.82,-63.8 479,-39 483.92,-35.72 489.3,-32.87 494.87,-30.41"/>
<polygon fill="#63b8ff" stroke="#63b8ff" points="391.89,-131.97 389.75,-142.34 397.89,-135.56 391.89,-131.97"/>
</g>
<!-- Node2 -->
<g id="node2" class="node">
<title>Node2</title>
<g id="a_node2"><a xlink:href="class_ogre_1_1v1_1_1_hardware_buffer.html" target="_top" xlink:title="Abstract class defining common features of hardware buffers.">
<polygon fill="white" stroke="#666666" points="280,-168.5 155,-168.5 155,-149.5 280,-149.5 280,-168.5"/>
<text text-anchor="middle" x="217.5" y="-156.5" font-family="Helvetica,sans-Serif" font-size="10.00">Ogre::v1::HardwareBuffer</text>
</a>
</g>
</g>
<!-- Node2&#45;&gt;Node1 -->
<g id="edge1" class="edge">
<title>Node2&#45;&gt;Node1</title>
<path fill="none" stroke="#63b8ff" d="M291.65,-159C299.7,-159 307.84,-159 315.75,-159"/>
<polygon fill="#63b8ff" stroke="#63b8ff" points="291.87,-155.5 281.87,-159 291.87,-162.5 291.87,-155.5"/>
</g>
<!-- Node3 -->
<g id="node3" class="node">
<title>Node3</title>
<g id="a_node3"><a xlink:title=" ">
<polygon fill="white" stroke="#666666" points="119,-168.5 0,-168.5 0,-149.5 119,-149.5 119,-168.5"/>
<text text-anchor="middle" x="59.5" y="-156.5" font-family="Helvetica,sans-Serif" font-size="10.00">Ogre::OgreAllocatedObj</text>
</a>
</g>
</g>
<!-- Node3&#45;&gt;Node2 -->
<g id="edge2" class="edge">
<title>Node3&#45;&gt;Node2</title>
<path fill="none" stroke="#63b8ff" d="M130.92,-159C138.81,-159 146.81,-159 154.58,-159"/>
<polygon fill="#63b8ff" stroke="#63b8ff" points="130.99,-155.5 120.99,-159 130.99,-162.5 130.99,-155.5"/>
</g>
</g>
</svg>
