<?xml version="1.0" encoding="UTF-8" standalone="no"?>
<!DOCTYPE svg PUBLIC "-//W3C//DTD SVG 1.1//EN"
 "http://www.w3.org/Graphics/SVG/1.1/DTD/svg11.dtd">
<!-- Generated by graphviz version 7.0.5 (20221223.1930)
 -->
<!-- Title: Ogre::ParticleSystem Pages: 1 -->
<svg width="353pt" height="137pt"
 viewBox="0.00 0.00 353.00 137.00" xmlns="http://www.w3.org/2000/svg" xmlns:xlink="http://www.w3.org/1999/xlink">
<g id="graph0" class="graph" transform="scale(1 1) rotate(0) translate(4 133)">
<title>Ogre::ParticleSystem</title>
<!-- Node1 -->
<g id="node1" class="node">
<title>Node1</title>
<g id="a_node1"><a xlink:title="Class defining particle system based special effects.">
<polygon fill="#999999" stroke="#666666" points="179.5,-19 71.5,-19 71.5,0 179.5,0 179.5,-19"/>
<text text-anchor="middle" x="125.5" y="-7" font-family="Helvetica,sans-Serif" font-size="10.00">Ogre::ParticleSystem</text>
</a>
</g>
</g>
<!-- Node2 -->
<g id="node2" class="node">
<title>Node2</title>
<g id="a_node2"><a xlink:href="class_ogre_1_1_string_interface.html" target="_top" xlink:title="Class defining the common interface which classes can use to present a reflection&#45;style,...">
<polygon fill="white" stroke="#666666" points="116.5,-74 10.5,-74 10.5,-55 116.5,-55 116.5,-74"/>
<text text-anchor="middle" x="63.5" y="-62" font-family="Helvetica,sans-Serif" font-size="10.00">Ogre::StringInterface</text>
</a>
</g>
</g>
<!-- Node2&#45;&gt;Node1 -->
<g id="edge1" class="edge">
<title>Node2&#45;&gt;Node1</title>
<path fill="none" stroke="#63b8ff" d="M82.7,-47.09C93.4,-37.94 106.31,-26.9 115.14,-19.36"/>
<polygon fill="#63b8ff" stroke="#63b8ff" points="80.49,-44.37 75.17,-53.53 85.04,-49.69 80.49,-44.37"/>
</g>
<!-- Node3 -->
<g id="node3" class="node">
<title>Node3</title>
<g id="a_node3"><a xlink:href="class_ogre_1_1_movable_object.html" target="_top" xlink:title="Abstract class defining a movable object in a scene.">
<polygon fill="white" stroke="#666666" points="242,-74 135,-74 135,-55 242,-55 242,-74"/>
<text text-anchor="middle" x="188.5" y="-62" font-family="Helvetica,sans-Serif" font-size="10.00">Ogre::MovableObject</text>
</a>
</g>
</g>
<!-- Node3&#45;&gt;Node1 -->
<g id="edge2" class="edge">
<title>Node3&#45;&gt;Node1</title>
<path fill="none" stroke="#63b8ff" d="M169.32,-47.37C158.38,-38.16 145.09,-26.98 136.03,-19.36"/>
<polygon fill="#63b8ff" stroke="#63b8ff" points="166.75,-49.78 176.65,-53.53 171.26,-44.42 166.75,-49.78"/>
</g>
<!-- Node4 -->
<g id="node4" class="node">
<title>Node4</title>
<g id="a_node4"><a xlink:href="class_ogre_1_1_animable_object.html" target="_top" xlink:title="Defines an interface to classes which have one or more AnimableValue instances to expose.">
<polygon fill="white" stroke="#666666" points="111,-129 0,-129 0,-110 111,-110 111,-129"/>
<text text-anchor="middle" x="55.5" y="-117" font-family="Helvetica,sans-Serif" font-size="10.00">Ogre::AnimableObject</text>
</a>
</g>
</g>
<!-- Node4&#45;&gt;Node3 -->
<g id="edge3" class="edge">
<title>Node4&#45;&gt;Node3</title>
<path fill="none" stroke="#63b8ff" d="M88.57,-105.32C112.8,-95.67 145.05,-82.82 166.27,-74.36"/>
<polygon fill="#63b8ff" stroke="#63b8ff" points="87.46,-102 79.47,-108.95 90.05,-108.5 87.46,-102"/>
</g>
<!-- Node5 -->
<g id="node5" class="node">
<title>Node5</title>
<g id="a_node5"><a xlink:title=" ">
<polygon fill="white" stroke="#666666" points="248,-129 129,-129 129,-110 248,-110 248,-129"/>
<text text-anchor="middle" x="188.5" y="-117" font-family="Helvetica,sans-Serif" font-size="10.00">Ogre::OgreAllocatedObj</text>
</a>
</g>
</g>
<!-- Node5&#45;&gt;Node3 -->
<g id="edge4" class="edge">
<title>Node5&#45;&gt;Node3</title>
<path fill="none" stroke="#63b8ff" d="M188.5,-98.35C188.5,-90.1 188.5,-80.97 188.5,-74.44"/>
<polygon fill="#63b8ff" stroke="#63b8ff" points="185,-98.23 188.5,-108.23 192,-98.23 185,-98.23"/>
</g>
<!-- Node6 -->
<g id="node6" class="node">
<title>Node6</title>
<g id="a_node6"><a xlink:href="class_ogre_1_1_id_object.html" target="_top" xlink:title=" ">
<polygon fill="white" stroke="#666666" points="345,-129 266,-129 266,-110 345,-110 345,-129"/>
<text text-anchor="middle" x="305.5" y="-117" font-family="Helvetica,sans-Serif" font-size="10.00">Ogre::IdObject</text>
</a>
</g>
</g>
<!-- Node6&#45;&gt;Node3 -->
<g id="edge5" class="edge">
<title>Node6&#45;&gt;Node3</title>
<path fill="none" stroke="#63b8ff" d="M275.25,-104.8C254.07,-95.2 226.39,-82.66 208.05,-74.36"/>
<polygon fill="#63b8ff" stroke="#63b8ff" points="273.72,-107.95 284.27,-108.88 276.61,-101.57 273.72,-107.95"/>
</g>
</g>
</svg>
