<?xml version="1.0" encoding="UTF-8" standalone="no"?>
<!DOCTYPE svg PUBLIC "-//W3C//DTD SVG 1.1//EN"
 "http://www.w3.org/Graphics/SVG/1.1/DTD/svg11.dtd">
<!-- Generated by graphviz version 7.0.5 (20221223.1930)
 -->
<!-- Title: Ogre::D3D11ReadOnlyBufferPacked Pages: 1 -->
<svg width="382pt" height="258pt"
 viewBox="0.00 0.00 382.00 258.00" xmlns="http://www.w3.org/2000/svg" xmlns:xlink="http://www.w3.org/1999/xlink">
<g id="graph0" class="graph" transform="scale(1 1) rotate(0) translate(4 254)">
<title>Ogre::D3D11ReadOnlyBufferPacked</title>
<!-- Node1 -->
<g id="node1" class="node">
<title>Node1</title>
<g id="a_node1"><a xlink:title=" ">
<polygon fill="#999999" stroke="#666666" points="291,-30 152,-30 152,0 291,0 291,-30"/>
<text text-anchor="start" x="160" y="-18" font-family="Helvetica,sans-Serif" font-size="10.00">Ogre::D3D11ReadOnlyBuffer</text>
<text text-anchor="middle" x="221.5" y="-7" font-family="Helvetica,sans-Serif" font-size="10.00">Packed</text>
</a>
</g>
</g>
<!-- Node2 -->
<g id="node2" class="node">
<title>Node2</title>
<g id="a_node2"><a xlink:href="class_ogre_1_1_read_only_buffer_packed.html" target="_top" xlink:title="Represents the best way to access read&#45;only data.">
<polygon fill="white" stroke="#666666" points="213,-85 70,-85 70,-66 213,-66 213,-85"/>
<text text-anchor="middle" x="141.5" y="-73" font-family="Helvetica,sans-Serif" font-size="10.00">Ogre::ReadOnlyBufferPacked</text>
</a>
</g>
</g>
<!-- Node2&#45;&gt;Node1 -->
<g id="edge1" class="edge">
<title>Node2&#45;&gt;Node1</title>
<path fill="none" stroke="#63b8ff" d="M162.61,-59.06C174.73,-50.2 189.87,-39.13 201.75,-30.44"/>
<polygon fill="#63b8ff" stroke="#63b8ff" points="160.88,-55.99 154.87,-64.72 165.01,-61.64 160.88,-55.99"/>
</g>
<!-- Node3 -->
<g id="node3" class="node">
<title>Node3</title>
<g id="a_node3"><a xlink:href="class_ogre_1_1_tex_buffer_packed.html" target="_top" xlink:title="Represents Texture buffers (also known as tbuffers in D3D11)">
<polygon fill="white" stroke="#666666" points="199.5,-140 83.5,-140 83.5,-121 199.5,-121 199.5,-140"/>
<text text-anchor="middle" x="141.5" y="-128" font-family="Helvetica,sans-Serif" font-size="10.00">Ogre::TexBufferPacked</text>
</a>
</g>
</g>
<!-- Node3&#45;&gt;Node2 -->
<g id="edge2" class="edge">
<title>Node3&#45;&gt;Node2</title>
<path fill="none" stroke="#63b8ff" d="M141.5,-109.35C141.5,-101.1 141.5,-91.97 141.5,-85.44"/>
<polygon fill="#63b8ff" stroke="#63b8ff" points="138,-109.23 141.5,-119.23 145,-109.23 138,-109.23"/>
</g>
<!-- Node4 -->
<g id="node4" class="node">
<title>Node4</title>
<g id="a_node4"><a xlink:href="class_ogre_1_1_buffer_packed.html" target="_top" xlink:title=" ">
<polygon fill="white" stroke="#666666" points="192,-195 91,-195 91,-176 192,-176 192,-195"/>
<text text-anchor="middle" x="141.5" y="-183" font-family="Helvetica,sans-Serif" font-size="10.00">Ogre::BufferPacked</text>
</a>
</g>
</g>
<!-- Node4&#45;&gt;Node3 -->
<g id="edge3" class="edge">
<title>Node4&#45;&gt;Node3</title>
<path fill="none" stroke="#63b8ff" d="M141.5,-164.35C141.5,-156.1 141.5,-146.97 141.5,-140.44"/>
<polygon fill="#63b8ff" stroke="#63b8ff" points="138,-164.23 141.5,-174.23 145,-164.23 138,-164.23"/>
</g>
<!-- Node5 -->
<g id="node5" class="node">
<title>Node5</title>
<g id="a_node5"><a xlink:href="struct_ogre_1_1_gpu_tracked_resource.html" target="_top" xlink:title=" ">
<polygon fill="white" stroke="#666666" points="137,-250 0,-250 0,-231 137,-231 137,-250"/>
<text text-anchor="middle" x="68.5" y="-238" font-family="Helvetica,sans-Serif" font-size="10.00">Ogre::GpuTrackedResource</text>
</a>
</g>
</g>
<!-- Node5&#45;&gt;Node4 -->
<g id="edge4" class="edge">
<title>Node5&#45;&gt;Node4</title>
<path fill="none" stroke="#63b8ff" d="M89.97,-223.92C102.78,-214.61 118.6,-203.13 129.3,-195.36"/>
<polygon fill="#63b8ff" stroke="#63b8ff" points="88.14,-220.91 82.11,-229.62 92.26,-226.58 88.14,-220.91"/>
</g>
<!-- Node6 -->
<g id="node6" class="node">
<title>Node6</title>
<g id="a_node6"><a xlink:title=" ">
<polygon fill="white" stroke="#666666" points="274,-250 155,-250 155,-231 274,-231 274,-250"/>
<text text-anchor="middle" x="214.5" y="-238" font-family="Helvetica,sans-Serif" font-size="10.00">Ogre::OgreAllocatedObj</text>
</a>
</g>
</g>
<!-- Node6&#45;&gt;Node4 -->
<g id="edge5" class="edge">
<title>Node6&#45;&gt;Node4</title>
<path fill="none" stroke="#63b8ff" d="M193.03,-223.92C180.22,-214.61 164.4,-203.13 153.7,-195.36"/>
<polygon fill="#63b8ff" stroke="#63b8ff" points="190.74,-226.58 200.89,-229.62 194.86,-220.91 190.74,-226.58"/>
</g>
<!-- Node7 -->
<g id="node7" class="node">
<title>Node7</title>
<g id="a_node7"><a xlink:href="class_ogre_1_1_d3_d11_device_resource.html" target="_top" xlink:title="Represents a Direct3D rendering resource.">
<polygon fill="white" stroke="#666666" points="374,-85 231,-85 231,-66 374,-66 374,-85"/>
<text text-anchor="middle" x="302.5" y="-73" font-family="Helvetica,sans-Serif" font-size="10.00">Ogre::D3D11DeviceResource</text>
</a>
</g>
</g>
<!-- Node7&#45;&gt;Node1 -->
<g id="edge6" class="edge">
<title>Node7&#45;&gt;Node1</title>
<path fill="none" stroke="#8b1a1a" d="M281.13,-59.06C268.85,-50.2 253.53,-39.13 241.49,-30.44"/>
<polygon fill="#8b1a1a" stroke="#8b1a1a" points="278.81,-61.71 288.97,-64.73 282.91,-56.04 278.81,-61.71"/>
</g>
</g>
</svg>
