<?xml version="1.0" encoding="UTF-8" standalone="no"?>
<!DOCTYPE svg PUBLIC "-//W3C//DTD SVG 1.1//EN"
 "http://www.w3.org/Graphics/SVG/1.1/DTD/svg11.dtd">
<!-- Generated by graphviz version 7.0.5 (20221223.1930)
 -->
<!-- Title: Ogre::v1::HardwareBufferManager Pages: 1 -->
<svg width="654pt" height="374pt"
 viewBox="0.00 0.00 654.00 374.00" xmlns="http://www.w3.org/2000/svg" xmlns:xlink="http://www.w3.org/1999/xlink">
<g id="graph0" class="graph" transform="scale(1 1) rotate(0) translate(4 370)">
<title>Ogre::v1::HardwareBufferManager</title>
<!-- Node1 -->
<g id="node1" class="node">
<title>Node1</title>
<g id="a_node1"><a xlink:title="Singleton wrapper for hardware buffer manager.">
<polygon fill="#999999" stroke="#666666" points="449,-198 324,-198 324,-168 449,-168 449,-198"/>
<text text-anchor="start" x="332" y="-186" font-family="Helvetica,sans-Serif" font-size="10.00">Ogre::v1::HardwareBuffer</text>
<text text-anchor="middle" x="386.5" y="-175" font-family="Helvetica,sans-Serif" font-size="10.00">Manager</text>
</a>
</g>
</g>
<!-- Node5 -->
<g id="node5" class="node">
<title>Node5</title>
<g id="a_node5"><a xlink:href="class_ogre_1_1v1_1_1_d3_d11_hardware_buffer_manager.html" target="_top" xlink:title="D3D11HardwareBufferManagerBase as a Singleton.">
<polygon fill="white" stroke="#666666" points="642.5,-366 488.5,-366 488.5,-336 642.5,-336 642.5,-366"/>
<text text-anchor="start" x="496.5" y="-354" font-family="Helvetica,sans-Serif" font-size="10.00">Ogre::v1::D3D11HardwareBuffer</text>
<text text-anchor="middle" x="565.5" y="-343" font-family="Helvetica,sans-Serif" font-size="10.00">Manager</text>
</a>
</g>
</g>
<!-- Node1&#45;&gt;Node5 -->
<g id="edge4" class="edge">
<title>Node1&#45;&gt;Node5</title>
<path fill="none" stroke="#63b8ff" d="M398.2,-208.53C413.01,-240.82 442.8,-295.95 485,-327 489.53,-330.33 494.52,-333.21 499.74,-335.68"/>
<polygon fill="#63b8ff" stroke="#63b8ff" points="401.45,-207.24 394.2,-199.52 395.06,-210.08 401.45,-207.24"/>
</g>
<!-- Node6 -->
<g id="node6" class="node">
<title>Node6</title>
<g id="a_node6"><a xlink:href="class_ogre_1_1v1_1_1_default_hardware_buffer_manager.html" target="_top" xlink:title="DefaultHardwareBufferManager as a Singleton.">
<polygon fill="white" stroke="#666666" points="630.5,-318 500.5,-318 500.5,-288 630.5,-288 630.5,-318"/>
<text text-anchor="start" x="508.5" y="-306" font-family="Helvetica,sans-Serif" font-size="10.00">Ogre::v1::DefaultHardware</text>
<text text-anchor="middle" x="565.5" y="-295" font-family="Helvetica,sans-Serif" font-size="10.00">BufferManager</text>
</a>
</g>
</g>
<!-- Node1&#45;&gt;Node6 -->
<g id="edge5" class="edge">
<title>Node1&#45;&gt;Node6</title>
<path fill="none" stroke="#63b8ff" d="M406.25,-207.24C424.25,-228.96 453.32,-260.21 485,-279 490.46,-282.24 496.38,-285.07 502.46,-287.54"/>
<polygon fill="#63b8ff" stroke="#63b8ff" points="408.97,-205.05 399.96,-199.47 403.53,-209.45 408.97,-205.05"/>
</g>
<!-- Node7 -->
<g id="node7" class="node">
<title>Node7</title>
<g id="a_node7"><a xlink:href="class_ogre_1_1v1_1_1_g_l3_plus_default_hardware_buffer_manager.html" target="_top" xlink:title="GL3PlusDefaultHardwareBufferManagerBase as a Singleton.">
<polygon fill="white" stroke="#666666" points="628.5,-270 502.5,-270 502.5,-240 628.5,-240 628.5,-270"/>
<text text-anchor="start" x="510.5" y="-258" font-family="Helvetica,sans-Serif" font-size="10.00">Ogre::v1::GL3PlusDefault</text>
<text text-anchor="middle" x="565.5" y="-247" font-family="Helvetica,sans-Serif" font-size="10.00">HardwareBufferManager</text>
</a>
</g>
</g>
<!-- Node1&#45;&gt;Node7 -->
<g id="edge6" class="edge">
<title>Node1&#45;&gt;Node7</title>
<path fill="none" stroke="#63b8ff" d="M425.5,-203.52C443.27,-212.64 464.9,-223.08 485,-231 492.65,-234.01 500.83,-236.87 508.93,-239.5"/>
<polygon fill="#63b8ff" stroke="#63b8ff" points="427.36,-200.54 416.87,-199.03 424.13,-206.75 427.36,-200.54"/>
</g>
<!-- Node8 -->
<g id="node8" class="node">
<title>Node8</title>
<g id="a_node8"><a xlink:href="class_ogre_1_1v1_1_1_g_l3_plus_hardware_buffer_manager.html" target="_top" xlink:title="GL3PlusHardwareBufferManagerBase as a Singleton.">
<polygon fill="white" stroke="#666666" points="634,-222 497,-222 497,-192 634,-192 634,-222"/>
<text text-anchor="start" x="505" y="-210" font-family="Helvetica,sans-Serif" font-size="10.00">Ogre::v1::GL3PlusHardware</text>
<text text-anchor="middle" x="565.5" y="-199" font-family="Helvetica,sans-Serif" font-size="10.00">BufferManager</text>
</a>
</g>
</g>
<!-- Node1&#45;&gt;Node8 -->
<g id="edge7" class="edge">
<title>Node1&#45;&gt;Node8</title>
<path fill="none" stroke="#63b8ff" d="M460.66,-192.92C472.56,-194.53 484.83,-196.2 496.59,-197.79"/>
<polygon fill="#63b8ff" stroke="#63b8ff" points="461.29,-189.47 450.91,-191.6 460.34,-196.41 461.29,-189.47"/>
</g>
<!-- Node9 -->
<g id="node9" class="node">
<title>Node9</title>
<g id="a_node9"><a xlink:href="class_ogre_1_1v1_1_1_g_l_e_s2_default_hardware_buffer_manager.html" target="_top" xlink:title="GLES2DefaultHardwareBufferManagerBase as a Singleton.">
<polygon fill="white" stroke="#666666" points="646,-174 485,-174 485,-144 646,-144 646,-174"/>
<text text-anchor="start" x="493" y="-162" font-family="Helvetica,sans-Serif" font-size="10.00">Ogre::v1::GLES2DefaultHardware</text>
<text text-anchor="middle" x="565.5" y="-151" font-family="Helvetica,sans-Serif" font-size="10.00">BufferManager</text>
</a>
</g>
</g>
<!-- Node1&#45;&gt;Node9 -->
<g id="edge8" class="edge">
<title>Node1&#45;&gt;Node9</title>
<path fill="none" stroke="#63b8ff" d="M460.77,-173.06C468.63,-172 476.65,-170.91 484.58,-169.84"/>
<polygon fill="#63b8ff" stroke="#63b8ff" points="460.34,-169.59 450.91,-174.4 461.29,-176.53 460.34,-169.59"/>
</g>
<!-- Node10 -->
<g id="node10" class="node">
<title>Node10</title>
<g id="a_node10"><a xlink:href="class_ogre_1_1v1_1_1_g_l_e_s2_hardware_buffer_manager.html" target="_top" xlink:title="GLES2HardwareBufferManagerBase as a Singleton.">
<polygon fill="white" stroke="#666666" points="643.5,-126 487.5,-126 487.5,-96 643.5,-96 643.5,-126"/>
<text text-anchor="start" x="495.5" y="-114" font-family="Helvetica,sans-Serif" font-size="10.00">Ogre::v1::GLES2HardwareBuffer</text>
<text text-anchor="middle" x="565.5" y="-103" font-family="Helvetica,sans-Serif" font-size="10.00">Manager</text>
</a>
</g>
</g>
<!-- Node1&#45;&gt;Node10 -->
<g id="edge9" class="edge">
<title>Node1&#45;&gt;Node10</title>
<path fill="none" stroke="#63b8ff" d="M425.5,-162.48C443.27,-153.36 464.9,-142.92 485,-135 492.65,-131.99 500.83,-129.13 508.93,-126.5"/>
<polygon fill="#63b8ff" stroke="#63b8ff" points="424.13,-159.25 416.87,-166.97 427.36,-165.46 424.13,-159.25"/>
</g>
<!-- Node11 -->
<g id="node11" class="node">
<title>Node11</title>
<g id="a_node11"><a xlink:href="class_ogre_1_1v1_1_1_metal_hardware_buffer_manager.html" target="_top" xlink:title="MetalHardwareBufferManagerBase as a Singleton.">
<polygon fill="white" stroke="#666666" points="640,-78 491,-78 491,-48 640,-48 640,-78"/>
<text text-anchor="start" x="499" y="-66" font-family="Helvetica,sans-Serif" font-size="10.00">Ogre::v1::MetalHardwareBuffer</text>
<text text-anchor="middle" x="565.5" y="-55" font-family="Helvetica,sans-Serif" font-size="10.00">Manager</text>
</a>
</g>
</g>
<!-- Node1&#45;&gt;Node11 -->
<g id="edge10" class="edge">
<title>Node1&#45;&gt;Node11</title>
<path fill="none" stroke="#63b8ff" d="M406.25,-158.76C424.25,-137.04 453.32,-105.79 485,-87 490.46,-83.76 496.38,-80.93 502.46,-78.46"/>
<polygon fill="#63b8ff" stroke="#63b8ff" points="403.53,-156.55 399.96,-166.53 408.97,-160.95 403.53,-156.55"/>
</g>
<!-- Node12 -->
<g id="node12" class="node">
<title>Node12</title>
<g id="a_node12"><a xlink:href="class_ogre_1_1v1_1_1_vulkan_hardware_buffer_manager.html" target="_top" xlink:title=" ">
<polygon fill="white" stroke="#666666" points="630,-30 501,-30 501,0 630,0 630,-30"/>
<text text-anchor="start" x="509" y="-18" font-family="Helvetica,sans-Serif" font-size="10.00">Ogre::v1::VulkanHardware</text>
<text text-anchor="middle" x="565.5" y="-7" font-family="Helvetica,sans-Serif" font-size="10.00">BufferManager</text>
</a>
</g>
</g>
<!-- Node1&#45;&gt;Node12 -->
<g id="edge11" class="edge">
<title>Node1&#45;&gt;Node12</title>
<path fill="none" stroke="#63b8ff" d="M398.2,-157.47C413.01,-125.18 442.8,-70.05 485,-39 489.76,-35.5 495.04,-32.5 500.54,-29.94"/>
<polygon fill="#63b8ff" stroke="#63b8ff" points="395.06,-155.92 394.2,-166.48 401.45,-158.76 395.06,-155.92"/>
</g>
<!-- Node2 -->
<g id="node2" class="node">
<title>Node2</title>
<g id="a_node2"><a xlink:href="class_ogre_1_1v1_1_1_hardware_buffer_manager_base.html" target="_top" xlink:title="Base definition of a hardware buffer manager.">
<polygon fill="white" stroke="#666666" points="284,-222 159,-222 159,-192 284,-192 284,-222"/>
<text text-anchor="start" x="167" y="-210" font-family="Helvetica,sans-Serif" font-size="10.00">Ogre::v1::HardwareBuffer</text>
<text text-anchor="middle" x="221.5" y="-199" font-family="Helvetica,sans-Serif" font-size="10.00">ManagerBase</text>
</a>
</g>
</g>
<!-- Node2&#45;&gt;Node1 -->
<g id="edge1" class="edge">
<title>Node2&#45;&gt;Node1</title>
<path fill="none" stroke="#63b8ff" d="M295.45,-196.26C304.82,-194.88 314.34,-193.48 323.52,-192.13"/>
<polygon fill="#63b8ff" stroke="#63b8ff" points="295,-192.79 285.62,-197.71 296.02,-199.71 295,-192.79"/>
</g>
<!-- Node3 -->
<g id="node3" class="node">
<title>Node3</title>
<g id="a_node3"><a xlink:title=" ">
<polygon fill="white" stroke="#666666" points="119,-216.5 0,-216.5 0,-197.5 119,-197.5 119,-216.5"/>
<text text-anchor="middle" x="59.5" y="-204.5" font-family="Helvetica,sans-Serif" font-size="10.00">Ogre::OgreAllocatedObj</text>
</a>
</g>
</g>
<!-- Node3&#45;&gt;Node2 -->
<g id="edge2" class="edge">
<title>Node3&#45;&gt;Node2</title>
<path fill="none" stroke="#63b8ff" d="M130.47,-207C139.84,-207 149.39,-207 158.61,-207"/>
<polygon fill="#63b8ff" stroke="#63b8ff" points="130.68,-203.5 120.68,-207 130.68,-210.5 130.68,-203.5"/>
</g>
<!-- Node4 -->
<g id="node4" class="node">
<title>Node4</title>
<g id="a_node4"><a xlink:href="class_ogre_1_1_singleton.html" target="_top" xlink:title=" ">
<polygon fill="white" stroke="#666666" points="288,-174 155,-174 155,-144 288,-144 288,-174"/>
<text text-anchor="start" x="163" y="-162" font-family="Helvetica,sans-Serif" font-size="10.00">Ogre::Singleton&lt; Hardware</text>
<text text-anchor="middle" x="221.5" y="-151" font-family="Helvetica,sans-Serif" font-size="10.00">BufferManager &gt;</text>
</a>
</g>
</g>
<!-- Node4&#45;&gt;Node1 -->
<g id="edge3" class="edge">
<title>Node4&#45;&gt;Node1</title>
<path fill="none" stroke="#63b8ff" d="M299.64,-170.36C307.69,-171.54 315.8,-172.74 323.65,-173.89"/>
<polygon fill="#63b8ff" stroke="#63b8ff" points="300.23,-166.91 289.83,-168.91 299.21,-173.83 300.23,-166.91"/>
</g>
</g>
</svg>
