<?xml version="1.0" encoding="UTF-8" standalone="no"?>
<!DOCTYPE svg PUBLIC "-//W3C//DTD SVG 1.1//EN"
 "http://www.w3.org/Graphics/SVG/1.1/DTD/svg11.dtd">
<!-- Generated by graphviz version 2.43.0 (0)
 -->
<!-- Title: Ogre::SceneQuery Pages: 1 -->
<svg width="831pt" height="225pt"
 viewBox="0.00 0.00 831.00 225.00" xmlns="http://www.w3.org/2000/svg" xmlns:xlink="http://www.w3.org/1999/xlink">
<g id="graph0" class="graph" transform="scale(1 1) rotate(0) translate(4 221)">
<title>Ogre::SceneQuery</title>
<!-- Node1 -->
<g id="node1" class="node">
<title>Node1</title>
<g id="a_node1"><a xlink:title="A class for performing queries on a scene.">
<polygon fill="#bfbfbf" stroke="black" points="138,-148 138,-167 242,-167 242,-148 138,-148"/>
<text text-anchor="middle" x="190" y="-155" font-family="Helvetica,sans-Serif" font-size="10.00">Ogre::SceneQuery</text>
</a>
</g>
</g>
<!-- Node3 -->
<g id="node3" class="node">
<title>Node3</title>
<g id="a_node3"><a xlink:href="class_ogre_1_1_intersection_scene_query.html" target="_top" xlink:title="Separate SceneQuery class to query for pairs of objects which are possibly intersecting one another.">
<polygon fill="none" stroke="black" points="278,-189 278,-208 440,-208 440,-189 278,-189"/>
<text text-anchor="middle" x="359" y="-196" font-family="Helvetica,sans-Serif" font-size="10.00">Ogre::IntersectionSceneQuery</text>
</a>
</g>
</g>
<!-- Node1&#45;&gt;Node3 -->
<g id="edge2" class="edge">
<title>Node1&#45;&gt;Node3</title>
<path fill="none" stroke="midnightblue" d="M239.52,-169.41C264.86,-175.63 295.44,-183.14 319.19,-188.97"/>
<polygon fill="midnightblue" stroke="midnightblue" points="240.28,-165.99 229.73,-167.01 238.61,-172.79 240.28,-165.99"/>
</g>
<!-- Node5 -->
<g id="node5" class="node">
<title>Node5</title>
<g id="a_node5"><a xlink:href="class_ogre_1_1_ray_scene_query.html" target="_top" xlink:title="Specialises the SceneQuery class for querying along a ray.">
<polygon fill="none" stroke="black" points="297.5,-148 297.5,-167 420.5,-167 420.5,-148 297.5,-148"/>
<text text-anchor="middle" x="359" y="-155" font-family="Helvetica,sans-Serif" font-size="10.00">Ogre::RaySceneQuery</text>
</a>
</g>
</g>
<!-- Node1&#45;&gt;Node5 -->
<g id="edge4" class="edge">
<title>Node1&#45;&gt;Node5</title>
<path fill="none" stroke="midnightblue" d="M252.04,-157.5C266.8,-157.5 282.58,-157.5 297.32,-157.5"/>
<polygon fill="midnightblue" stroke="midnightblue" points="252.01,-154 242.01,-157.5 252.01,-161 252.01,-154"/>
</g>
<!-- Node7 -->
<g id="node7" class="node">
<title>Node7</title>
<g id="a_node7"><a xlink:href="class_ogre_1_1_region_scene_query.html" target="_top" xlink:title="Abstract class defining a query which returns single results from a region.">
<polygon fill="none" stroke="black" points="290,-80 290,-99 428,-99 428,-80 290,-80"/>
<text text-anchor="middle" x="359" y="-87" font-family="Helvetica,sans-Serif" font-size="10.00">Ogre::RegionSceneQuery</text>
</a>
</g>
</g>
<!-- Node1&#45;&gt;Node7 -->
<g id="edge6" class="edge">
<title>Node1&#45;&gt;Node7</title>
<path fill="none" stroke="midnightblue" d="M224.13,-144.01C256.76,-130.73 305.76,-110.77 334.55,-99.05"/>
<polygon fill="midnightblue" stroke="midnightblue" points="222.51,-140.89 214.57,-147.9 225.15,-147.37 222.51,-140.89"/>
</g>
<!-- Node2 -->
<g id="node2" class="node">
<title>Node2</title>
<g id="a_node2"><a xlink:title=" ">
<polygon fill="none" stroke="#bfbfbf" points="0,-148 0,-167 102,-167 102,-148 0,-148"/>
<text text-anchor="middle" x="51" y="-155" font-family="Helvetica,sans-Serif" font-size="10.00">OgreAllocatedObj</text>
</a>
</g>
</g>
<!-- Node2&#45;&gt;Node1 -->
<g id="edge1" class="edge">
<title>Node2&#45;&gt;Node1</title>
<path fill="none" stroke="midnightblue" d="M112.46,-157.5C120.93,-157.5 129.57,-157.5 137.85,-157.5"/>
<polygon fill="midnightblue" stroke="midnightblue" points="112.24,-154 102.24,-157.5 112.24,-161 112.24,-154"/>
</g>
<!-- Node4 -->
<g id="node4" class="node">
<title>Node4</title>
<g id="a_node4"><a xlink:href="class_ogre_1_1_default_intersection_scene_query.html" target="_top" xlink:title="Default implementation of IntersectionSceneQuery.">
<polygon fill="none" stroke="black" points="485.5,-186.5 485.5,-216.5 625.5,-216.5 625.5,-186.5 485.5,-186.5"/>
<text text-anchor="start" x="493.5" y="-204.5" font-family="Helvetica,sans-Serif" font-size="10.00">Ogre::DefaultIntersection</text>
<text text-anchor="middle" x="555.5" y="-193.5" font-family="Helvetica,sans-Serif" font-size="10.00">SceneQuery</text>
</a>
</g>
</g>
<!-- Node3&#45;&gt;Node4 -->
<g id="edge3" class="edge">
<title>Node3&#45;&gt;Node4</title>
<path fill="none" stroke="midnightblue" d="M450.47,-199.9C462.18,-200.08 474.02,-200.26 485.31,-200.43"/>
<polygon fill="midnightblue" stroke="midnightblue" points="450.29,-196.39 440.23,-199.74 450.18,-203.39 450.29,-196.39"/>
</g>
<!-- Node6 -->
<g id="node6" class="node">
<title>Node6</title>
<g id="a_node6"><a xlink:href="class_ogre_1_1_default_ray_scene_query.html" target="_top" xlink:title="Default implementation of RaySceneQuery.">
<polygon fill="none" stroke="black" points="476,-148 476,-167 635,-167 635,-148 476,-148"/>
<text text-anchor="middle" x="555.5" y="-155" font-family="Helvetica,sans-Serif" font-size="10.00">Ogre::DefaultRaySceneQuery</text>
</a>
</g>
</g>
<!-- Node5&#45;&gt;Node6 -->
<g id="edge5" class="edge">
<title>Node5&#45;&gt;Node6</title>
<path fill="none" stroke="midnightblue" d="M430.76,-157.5C445.46,-157.5 461.04,-157.5 476,-157.5"/>
<polygon fill="midnightblue" stroke="midnightblue" points="430.74,-154 420.74,-157.5 430.74,-161 430.74,-154"/>
</g>
<!-- Node8 -->
<g id="node8" class="node">
<title>Node8</title>
<g id="a_node8"><a xlink:href="class_ogre_1_1_axis_aligned_box_scene_query.html" target="_top" xlink:title="Specialises the SceneQuery class for querying within an axis aligned box.">
<polygon fill="none" stroke="black" points="479.5,-98.5 479.5,-128.5 631.5,-128.5 631.5,-98.5 479.5,-98.5"/>
<text text-anchor="start" x="487.5" y="-116.5" font-family="Helvetica,sans-Serif" font-size="10.00">Ogre::AxisAlignedBoxScene</text>
<text text-anchor="middle" x="555.5" y="-105.5" font-family="Helvetica,sans-Serif" font-size="10.00">Query</text>
</a>
</g>
</g>
<!-- Node7&#45;&gt;Node8 -->
<g id="edge7" class="edge">
<title>Node7&#45;&gt;Node8</title>
<path fill="none" stroke="midnightblue" d="M438.24,-99.15C451.76,-100.82 465.78,-102.55 479.21,-104.21"/>
<polygon fill="midnightblue" stroke="midnightblue" points="438.38,-95.65 428.03,-97.89 437.52,-102.59 438.38,-95.65"/>
</g>
<!-- Node10 -->
<g id="node10" class="node">
<title>Node10</title>
<g id="a_node10"><a xlink:href="class_ogre_1_1_plane_bounded_volume_list_scene_query.html" target="_top" xlink:title="Specialises the SceneQuery class for querying within a plane&#45;bounded volume.">
<polygon fill="none" stroke="black" points="479.5,-49.5 479.5,-79.5 631.5,-79.5 631.5,-49.5 479.5,-49.5"/>
<text text-anchor="start" x="487.5" y="-67.5" font-family="Helvetica,sans-Serif" font-size="10.00">Ogre::PlaneBoundedVolume</text>
<text text-anchor="middle" x="555.5" y="-56.5" font-family="Helvetica,sans-Serif" font-size="10.00">ListSceneQuery</text>
</a>
</g>
</g>
<!-- Node7&#45;&gt;Node10 -->
<g id="edge9" class="edge">
<title>Node7&#45;&gt;Node10</title>
<path fill="none" stroke="midnightblue" d="M438.24,-79.44C451.76,-77.71 465.78,-75.9 479.21,-74.18"/>
<polygon fill="midnightblue" stroke="midnightblue" points="437.5,-76.01 428.03,-80.76 438.39,-82.95 437.5,-76.01"/>
</g>
<!-- Node12 -->
<g id="node12" class="node">
<title>Node12</title>
<g id="a_node12"><a xlink:href="class_ogre_1_1_sphere_scene_query.html" target="_top" xlink:title="Specialises the SceneQuery class for querying within a sphere.">
<polygon fill="none" stroke="black" points="486.5,-9 486.5,-28 624.5,-28 624.5,-9 486.5,-9"/>
<text text-anchor="middle" x="555.5" y="-16" font-family="Helvetica,sans-Serif" font-size="10.00">Ogre::SphereSceneQuery</text>
</a>
</g>
</g>
<!-- Node7&#45;&gt;Node12 -->
<g id="edge11" class="edge">
<title>Node7&#45;&gt;Node12</title>
<path fill="none" stroke="midnightblue" d="M389.03,-75.58C412.22,-64.81 445.73,-50.01 476,-39.5 488.26,-35.24 501.85,-31.33 514.22,-28.07"/>
<polygon fill="midnightblue" stroke="midnightblue" points="387.34,-72.51 379.77,-79.93 390.31,-78.85 387.34,-72.51"/>
</g>
<!-- Node9 -->
<g id="node9" class="node">
<title>Node9</title>
<g id="a_node9"><a xlink:href="class_ogre_1_1_default_axis_aligned_box_scene_query.html" target="_top" xlink:title="Default implementation of AxisAlignedBoxSceneQuery.">
<polygon fill="none" stroke="black" points="677,-98.5 677,-128.5 817,-128.5 817,-98.5 677,-98.5"/>
<text text-anchor="start" x="685" y="-116.5" font-family="Helvetica,sans-Serif" font-size="10.00">Ogre::DefaultAxisAligned</text>
<text text-anchor="middle" x="747" y="-105.5" font-family="Helvetica,sans-Serif" font-size="10.00">BoxSceneQuery</text>
</a>
</g>
</g>
<!-- Node8&#45;&gt;Node9 -->
<g id="edge8" class="edge">
<title>Node8&#45;&gt;Node9</title>
<path fill="none" stroke="midnightblue" d="M641.87,-113.5C653.55,-113.5 665.43,-113.5 676.77,-113.5"/>
<polygon fill="midnightblue" stroke="midnightblue" points="641.67,-110 631.67,-113.5 641.67,-117 641.67,-110"/>
</g>
<!-- Node11 -->
<g id="node11" class="node">
<title>Node11</title>
<g id="a_node11"><a xlink:href="class_ogre_1_1_default_plane_bounded_volume_list_scene_query.html" target="_top" xlink:title="Default implementation of PlaneBoundedVolumeListSceneQuery.">
<polygon fill="none" stroke="black" points="671,-49.5 671,-79.5 823,-79.5 823,-49.5 671,-49.5"/>
<text text-anchor="start" x="679" y="-67.5" font-family="Helvetica,sans-Serif" font-size="10.00">Ogre::DefaultPlaneBounded</text>
<text text-anchor="middle" x="747" y="-56.5" font-family="Helvetica,sans-Serif" font-size="10.00">VolumeListSceneQuery</text>
</a>
</g>
</g>
<!-- Node10&#45;&gt;Node11 -->
<g id="edge10" class="edge">
<title>Node10&#45;&gt;Node11</title>
<path fill="none" stroke="midnightblue" d="M641.74,-64.5C651.47,-64.5 661.34,-64.5 670.92,-64.5"/>
<polygon fill="midnightblue" stroke="midnightblue" points="641.67,-61 631.67,-64.5 641.67,-68 641.67,-61"/>
</g>
<!-- Node13 -->
<g id="node13" class="node">
<title>Node13</title>
<g id="a_node13"><a xlink:href="class_ogre_1_1_default_sphere_scene_query.html" target="_top" xlink:title="Default implementation of SphereSceneQuery.">
<polygon fill="none" stroke="black" points="674.5,-0.5 674.5,-30.5 819.5,-30.5 819.5,-0.5 674.5,-0.5"/>
<text text-anchor="start" x="682.5" y="-18.5" font-family="Helvetica,sans-Serif" font-size="10.00">Ogre::DefaultSphereScene</text>
<text text-anchor="middle" x="747" y="-7.5" font-family="Helvetica,sans-Serif" font-size="10.00">Query</text>
</a>
</g>
</g>
<!-- Node12&#45;&gt;Node13 -->
<g id="edge12" class="edge">
<title>Node12&#45;&gt;Node13</title>
<path fill="none" stroke="midnightblue" d="M634.98,-17.26C648.01,-17.05 661.46,-16.84 674.3,-16.64"/>
<polygon fill="midnightblue" stroke="midnightblue" points="634.59,-13.76 624.65,-17.42 634.7,-20.76 634.59,-13.76"/>
</g>
</g>
</svg>
