<?xml version="1.0" encoding="UTF-8" standalone="no"?>
<!DOCTYPE svg PUBLIC "-//W3C//DTD SVG 1.1//EN"
 "http://www.w3.org/Graphics/SVG/1.1/DTD/svg11.dtd">
<!-- Generated by graphviz version 2.44.0 ()
 -->
<!-- Title: Ogre::Serializer Pages: 1 -->
<svg width="910pt" height="256pt"
 viewBox="0.00 0.00 910.00 256.00" xmlns="http://www.w3.org/2000/svg" xmlns:xlink="http://www.w3.org/1999/xlink">
<g id="graph0" class="graph" transform="scale(1 1) rotate(0) translate(4 252)">
<title>Ogre::Serializer</title>
<!-- Node1 -->
<g id="node1" class="node">
<title>Node1</title>
<g id="a_node1"><a xlink:title="Generic class for serialising data to / from binary stream&#45;based files.">
<polygon fill="#bfbfbf" stroke="black" points="129,-114.5 129,-133.5 211,-133.5 211,-114.5 129,-114.5"/>
<text text-anchor="middle" x="170" y="-121.5" font-family="Helvetica,sans-Serif" font-size="10.00">Ogre::Serializer</text>
</a>
</g>
</g>
<!-- Node3 -->
<g id="node3" class="node">
<title>Node3</title>
<g id="a_node3"><a xlink:href="class_ogre_1_1_gpu_named_constants_serializer.html" target="_top" xlink:title="Simple class for loading / saving GpuNamedConstants.">
<polygon fill="none" stroke="black" points="247,-228.5 247,-247.5 423,-247.5 423,-228.5 247,-228.5"/>
<text text-anchor="middle" x="335" y="-235.5" font-family="Helvetica,sans-Serif" font-size="10.00">Ogre::GpuNamedConstantsSerializer</text>
</a>
</g>
</g>
<!-- Node1&#45;&gt;Node3 -->
<g id="edge2" class="edge">
<title>Node1&#45;&gt;Node3</title>
<path fill="none" stroke="midnightblue" d="M180.65,-142.56C193,-164.4 216.5,-200.07 247,-219 253.17,-222.83 260.01,-225.9 267.07,-228.35"/>
<polygon fill="midnightblue" stroke="midnightblue" points="183.63,-140.72 175.77,-133.61 177.48,-144.07 183.63,-140.72"/>
</g>
<!-- Node4 -->
<g id="node4" class="node">
<title>Node4</title>
<g id="a_node4"><a xlink:href="class_ogre_1_1_lod_config_serializer.html" target="_top" xlink:title=" ">
<polygon fill="none" stroke="black" points="272.5,-190.5 272.5,-209.5 397.5,-209.5 397.5,-190.5 272.5,-190.5"/>
<text text-anchor="middle" x="335" y="-197.5" font-family="Helvetica,sans-Serif" font-size="10.00">Ogre::LodConfigSerializer</text>
</a>
</g>
</g>
<!-- Node1&#45;&gt;Node4 -->
<g id="edge3" class="edge">
<title>Node1&#45;&gt;Node4</title>
<path fill="none" stroke="midnightblue" d="M188.57,-140.68C203.13,-153.58 224.94,-170.9 247,-181 255.43,-184.86 264.69,-187.96 273.93,-190.43"/>
<polygon fill="midnightblue" stroke="midnightblue" points="190.64,-137.83 180.89,-133.68 185.93,-143 190.64,-137.83"/>
</g>
<!-- Node5 -->
<g id="node5" class="node">
<title>Node5</title>
<g id="a_node5"><a xlink:href="class_ogre_1_1_mesh_serializer.html" target="_top" xlink:title="Class for serialising mesh data to/from an OGRE .mesh file.">
<polygon fill="none" stroke="black" points="282,-152.5 282,-171.5 388,-171.5 388,-152.5 282,-152.5"/>
<text text-anchor="middle" x="335" y="-159.5" font-family="Helvetica,sans-Serif" font-size="10.00">Ogre::MeshSerializer</text>
</a>
</g>
</g>
<!-- Node1&#45;&gt;Node5 -->
<g id="edge4" class="edge">
<title>Node1&#45;&gt;Node5</title>
<path fill="none" stroke="midnightblue" d="M217.87,-135.95C227.49,-138.34 237.56,-140.79 247,-143 260.7,-146.21 275.65,-149.54 289.24,-152.49"/>
<polygon fill="midnightblue" stroke="midnightblue" points="218.61,-132.53 208.06,-133.5 216.91,-139.32 218.61,-132.53"/>
</g>
<!-- Node6 -->
<g id="node6" class="node">
<title>Node6</title>
<g id="a_node6"><a xlink:href="class_ogre_1_1_mesh_serializer_impl.html" target="_top" xlink:title="Internal implementation of Mesh reading / writing for the latest version of the .mesh format.">
<polygon fill="none" stroke="black" points="272.5,-114.5 272.5,-133.5 397.5,-133.5 397.5,-114.5 272.5,-114.5"/>
<text text-anchor="middle" x="335" y="-121.5" font-family="Helvetica,sans-Serif" font-size="10.00">Ogre::MeshSerializerImpl</text>
</a>
</g>
</g>
<!-- Node1&#45;&gt;Node6 -->
<g id="edge5" class="edge">
<title>Node1&#45;&gt;Node6</title>
<path fill="none" stroke="midnightblue" d="M221.54,-124C237.59,-124 255.52,-124 272.27,-124"/>
<polygon fill="midnightblue" stroke="midnightblue" points="221.29,-120.5 211.29,-124 221.29,-127.5 221.29,-120.5"/>
</g>
<!-- Node9 -->
<g id="node9" class="node">
<title>Node9</title>
<g id="a_node9"><a xlink:href="class_ogre_1_1v1_1_1_mesh_serializer.html" target="_top" xlink:title="Class for serialising mesh data to/from an OGRE .mesh file.">
<polygon fill="none" stroke="black" points="274.5,-76.5 274.5,-95.5 395.5,-95.5 395.5,-76.5 274.5,-76.5"/>
<text text-anchor="middle" x="335" y="-83.5" font-family="Helvetica,sans-Serif" font-size="10.00">Ogre::v1::MeshSerializer</text>
</a>
</g>
</g>
<!-- Node1&#45;&gt;Node9 -->
<g id="edge8" class="edge">
<title>Node1&#45;&gt;Node9</title>
<path fill="none" stroke="midnightblue" d="M217.87,-112.05C227.49,-109.66 237.56,-107.21 247,-105 260.7,-101.79 275.65,-98.46 289.24,-95.51"/>
<polygon fill="midnightblue" stroke="midnightblue" points="216.91,-108.68 208.06,-114.5 218.61,-115.47 216.91,-108.68"/>
</g>
<!-- Node10 -->
<g id="node10" class="node">
<title>Node10</title>
<g id="a_node10"><a xlink:href="class_ogre_1_1v1_1_1_mesh_serializer_impl.html" target="_top" xlink:title="Internal implementation of Mesh reading / writing for the latest version of the .mesh format.">
<polygon fill="none" stroke="black" points="265,-38.5 265,-57.5 405,-57.5 405,-38.5 265,-38.5"/>
<text text-anchor="middle" x="335" y="-45.5" font-family="Helvetica,sans-Serif" font-size="10.00">Ogre::v1::MeshSerializerImpl</text>
</a>
</g>
</g>
<!-- Node1&#45;&gt;Node10 -->
<g id="edge9" class="edge">
<title>Node1&#45;&gt;Node10</title>
<path fill="none" stroke="midnightblue" d="M188.57,-107.32C203.13,-94.42 224.94,-77.1 247,-67 255.43,-63.14 264.69,-60.04 273.93,-57.57"/>
<polygon fill="midnightblue" stroke="midnightblue" points="185.93,-105 180.89,-114.32 190.64,-110.17 185.93,-105"/>
</g>
<!-- Node18 -->
<g id="node14" class="node">
<title>Node18</title>
<g id="a_node14"><a xlink:href="class_ogre_1_1v1_1_1_skeleton_serializer.html" target="_top" xlink:title="Class for serialising skeleton data to/from an OGRE .skeleton file.">
<polygon fill="none" stroke="black" points="267.5,-0.5 267.5,-19.5 402.5,-19.5 402.5,-0.5 267.5,-0.5"/>
<text text-anchor="middle" x="335" y="-7.5" font-family="Helvetica,sans-Serif" font-size="10.00">Ogre::v1::SkeletonSerializer</text>
</a>
</g>
</g>
<!-- Node1&#45;&gt;Node18 -->
<g id="edge13" class="edge">
<title>Node1&#45;&gt;Node18</title>
<path fill="none" stroke="midnightblue" d="M180.65,-105.44C193,-83.6 216.5,-47.93 247,-29 253.17,-25.17 260.01,-22.1 267.07,-19.65"/>
<polygon fill="midnightblue" stroke="midnightblue" points="177.48,-103.93 175.77,-114.39 183.63,-107.28 177.48,-103.93"/>
</g>
<!-- Node2 -->
<g id="node2" class="node">
<title>Node2</title>
<g id="a_node2"><a xlink:href="class_ogre_1_1_allocated_object.html" target="_top" xlink:title="Superclass for all objects that wish to use custom memory allocators when their new / delete operator...">
<polygon fill="none" stroke="black" points="0,-114.5 0,-133.5 93,-133.5 93,-114.5 0,-114.5"/>
<text text-anchor="middle" x="46.5" y="-121.5" font-family="Helvetica,sans-Serif" font-size="10.00">OgreAllocatedObj</text>
</a>
</g>
</g>
<!-- Node2&#45;&gt;Node1 -->
<g id="edge1" class="edge">
<title>Node2&#45;&gt;Node1</title>
<path fill="none" stroke="midnightblue" d="M103.12,-124C111.76,-124 120.54,-124 128.75,-124"/>
<polygon fill="midnightblue" stroke="midnightblue" points="103.09,-120.5 93.09,-124 103.09,-127.5 103.09,-120.5"/>
</g>
<!-- Node7 -->
<g id="node7" class="node">
<title>Node7</title>
<g id="a_node7"><a xlink:href="class_ogre_1_1_mesh_serializer_impl__v2__1___r1.html" target="_top" xlink:title=" ">
<polygon fill="none" stroke="black" points="459,-109 459,-139 584,-139 584,-109 459,-109"/>
<text text-anchor="start" x="467" y="-127" font-family="Helvetica,sans-Serif" font-size="10.00">Ogre::MeshSerializerImpl</text>
<text text-anchor="middle" x="521.5" y="-116" font-family="Helvetica,sans-Serif" font-size="10.00">_v2_1_R1</text>
</a>
</g>
</g>
<!-- Node6&#45;&gt;Node7 -->
<g id="edge6" class="edge">
<title>Node6&#45;&gt;Node7</title>
<path fill="none" stroke="midnightblue" d="M408.01,-124C424.81,-124 442.56,-124 458.87,-124"/>
<polygon fill="midnightblue" stroke="midnightblue" points="407.69,-120.5 397.69,-124 407.69,-127.5 407.69,-120.5"/>
</g>
<!-- Node8 -->
<g id="node8" class="node">
<title>Node8</title>
<g id="a_node8"><a xlink:href="class_ogre_1_1_mesh_serializer_impl__v2__1___r0.html" target="_top" xlink:title=" ">
<polygon fill="none" stroke="black" points="620,-109 620,-139 745,-139 745,-109 620,-109"/>
<text text-anchor="start" x="628" y="-127" font-family="Helvetica,sans-Serif" font-size="10.00">Ogre::MeshSerializerImpl</text>
<text text-anchor="middle" x="682.5" y="-116" font-family="Helvetica,sans-Serif" font-size="10.00">_v2_1_R0</text>
</a>
</g>
</g>
<!-- Node7&#45;&gt;Node8 -->
<g id="edge7" class="edge">
<title>Node7&#45;&gt;Node8</title>
<path fill="none" stroke="midnightblue" d="M594.59,-124C602.99,-124 611.5,-124 619.74,-124"/>
<polygon fill="midnightblue" stroke="midnightblue" points="594.43,-120.5 584.43,-124 594.43,-127.5 594.43,-120.5"/>
</g>
<!-- Node11 -->
<g id="node11" class="node">
<title>Node11</title>
<g id="a_node11"><a xlink:href="class_ogre_1_1v1_1_1_mesh_serializer_impl__v1__10.html" target="_top" xlink:title="Class for providing backwards&#45;compatibility for loading version 1.10 of the .mesh format.">
<polygon fill="none" stroke="black" points="461,-33 461,-63 582,-63 582,-33 461,-33"/>
<text text-anchor="start" x="469" y="-51" font-family="Helvetica,sans-Serif" font-size="10.00">Ogre::v1::MeshSerializer</text>
<text text-anchor="middle" x="521.5" y="-40" font-family="Helvetica,sans-Serif" font-size="10.00">Impl_v1_10</text>
</a>
</g>
</g>
<!-- Node10&#45;&gt;Node11 -->
<g id="edge10" class="edge">
<title>Node10&#45;&gt;Node11</title>
<path fill="none" stroke="midnightblue" d="M415.64,-48C430.81,-48 446.45,-48 460.87,-48"/>
<polygon fill="midnightblue" stroke="midnightblue" points="415.23,-44.5 405.23,-48 415.23,-51.5 415.23,-44.5"/>
</g>
<!-- Node12 -->
<g id="node12" class="node">
<title>Node12</title>
<g id="a_node12"><a xlink:href="class_ogre_1_1v1_1_1_mesh_serializer_impl__v1__8.html" target="_top" xlink:title="Class for providing backwards&#45;compatibility for loading version 1.8 of the .mesh format.">
<polygon fill="none" stroke="black" points="622,-33 622,-63 743,-63 743,-33 622,-33"/>
<text text-anchor="start" x="630" y="-51" font-family="Helvetica,sans-Serif" font-size="10.00">Ogre::v1::MeshSerializer</text>
<text text-anchor="middle" x="682.5" y="-40" font-family="Helvetica,sans-Serif" font-size="10.00">Impl_v1_8</text>
</a>
</g>
</g>
<!-- Node11&#45;&gt;Node12 -->
<g id="edge11" class="edge">
<title>Node11&#45;&gt;Node12</title>
<path fill="none" stroke="midnightblue" d="M592.3,-48C602.13,-48 612.16,-48 621.77,-48"/>
<polygon fill="midnightblue" stroke="midnightblue" points="592.16,-44.5 582.16,-48 592.16,-51.5 592.16,-44.5"/>
</g>
<!-- Node13 -->
<g id="node13" class="node">
<title>Node13</title>
<g id="a_node13"><a xlink:href="class_ogre_1_1v1_1_1_mesh_serializer_impl__v1__41.html" target="_top" xlink:title="Class for providing backwards&#45;compatibility for loading version 1.41 of the .mesh format.">
<polygon fill="none" stroke="red" points="781,-33 781,-63 902,-63 902,-33 781,-33"/>
<text text-anchor="start" x="789" y="-51" font-family="Helvetica,sans-Serif" font-size="10.00">Ogre::v1::MeshSerializer</text>
<text text-anchor="middle" x="841.5" y="-40" font-family="Helvetica,sans-Serif" font-size="10.00">Impl_v1_41</text>
</a>
</g>
</g>
<!-- Node12&#45;&gt;Node13 -->
<g id="edge12" class="edge">
<title>Node12&#45;&gt;Node13</title>
<path fill="none" stroke="midnightblue" d="M753.52,-48C762.64,-48 771.93,-48 780.86,-48"/>
<polygon fill="midnightblue" stroke="midnightblue" points="753.3,-44.5 743.3,-48 753.3,-51.5 753.3,-44.5"/>
</g>
</g>
</svg>
