<?xml version="1.0" encoding="UTF-8" standalone="no"?>
<!DOCTYPE svg PUBLIC "-//W3C//DTD SVG 1.1//EN"
 "http://www.w3.org/Graphics/SVG/1.1/DTD/svg11.dtd">
<!-- Generated by graphviz version 2.43.0 (0)
 -->
<!-- Title: Ogre::v1::HardwareBufferManagerBase Pages: 1 -->
<svg width="714pt" height="504pt"
 viewBox="0.00 0.00 714.00 504.00" xmlns="http://www.w3.org/2000/svg" xmlns:xlink="http://www.w3.org/1999/xlink">
<g id="graph0" class="graph" transform="scale(1 1) rotate(0) translate(4 500)">
<title>Ogre::v1::HardwareBufferManagerBase</title>
<!-- Node1 -->
<g id="node1" class="node">
<title>Node1</title>
<g id="a_node1"><a xlink:title="Base definition of a hardware buffer manager.">
<polygon fill="#bfbfbf" stroke="black" points="138,-269.5 138,-299.5 278,-299.5 278,-269.5 138,-269.5"/>
<text text-anchor="start" x="146" y="-287.5" font-family="Helvetica,sans-Serif" font-size="10.00">Ogre::v1::HardwareBuffer</text>
<text text-anchor="middle" x="208" y="-276.5" font-family="Helvetica,sans-Serif" font-size="10.00">ManagerBase</text>
</a>
</g>
</g>
<!-- Node3 -->
<g id="node3" class="node">
<title>Node3</title>
<g id="a_node3"><a xlink:href="class_ogre_1_1v1_1_1_d3_d11_hardware_buffer_manager_base.html" target="_top" xlink:title="Implementation of HardwareBufferManager for D3D11.">
<polygon fill="none" stroke="black" points="316.5,-465.5 316.5,-495.5 489.5,-495.5 489.5,-465.5 316.5,-465.5"/>
<text text-anchor="start" x="324.5" y="-483.5" font-family="Helvetica,sans-Serif" font-size="10.00">Ogre::v1::D3D11HardwareBuffer</text>
<text text-anchor="middle" x="403" y="-472.5" font-family="Helvetica,sans-Serif" font-size="10.00">ManagerBase</text>
</a>
</g>
</g>
<!-- Node1&#45;&gt;Node3 -->
<g id="edge2" class="edge">
<title>Node1&#45;&gt;Node3</title>
<path fill="none" stroke="midnightblue" d="M217.3,-309.21C231.22,-346.82 262.87,-418.07 314,-456.5 318.56,-459.93 323.57,-462.86 328.83,-465.38"/>
<polygon fill="midnightblue" stroke="midnightblue" points="220.51,-307.79 213.85,-299.56 213.92,-310.15 220.51,-307.79"/>
</g>
<!-- Node4 -->
<g id="node4" class="node">
<title>Node4</title>
<g id="a_node4"><a xlink:href="class_ogre_1_1v1_1_1_default_hardware_buffer_manager_base.html" target="_top" xlink:title="Specialisation of HardwareBufferManagerBase to emulate hardware buffers.">
<polygon fill="none" stroke="black" points="329.5,-416.5 329.5,-446.5 476.5,-446.5 476.5,-416.5 329.5,-416.5"/>
<text text-anchor="start" x="337.5" y="-434.5" font-family="Helvetica,sans-Serif" font-size="10.00">Ogre::v1::DefaultHardware</text>
<text text-anchor="middle" x="403" y="-423.5" font-family="Helvetica,sans-Serif" font-size="10.00">BufferManagerBase</text>
</a>
</g>
</g>
<!-- Node1&#45;&gt;Node4 -->
<g id="edge3" class="edge">
<title>Node1&#45;&gt;Node4</title>
<path fill="none" stroke="midnightblue" d="M223,-308.26C240.69,-336.19 273.74,-381.96 314,-407.5 319.35,-410.89 325.18,-413.81 331.2,-416.32"/>
<polygon fill="midnightblue" stroke="midnightblue" points="225.84,-306.19 217.6,-299.52 219.88,-309.87 225.84,-306.19"/>
</g>
<!-- Node5 -->
<g id="node5" class="node">
<title>Node5</title>
<g id="a_node5"><a xlink:href="class_ogre_1_1v1_1_1_g_l3_plus_default_hardware_buffer_manager_base.html" target="_top" xlink:title="Specialisation of HardwareBufferManager to emulate hardware buffers.">
<polygon fill="none" stroke="black" points="323,-367.5 323,-397.5 483,-397.5 483,-367.5 323,-367.5"/>
<text text-anchor="start" x="331" y="-385.5" font-family="Helvetica,sans-Serif" font-size="10.00">Ogre::v1::GL3PlusDefault</text>
<text text-anchor="middle" x="403" y="-374.5" font-family="Helvetica,sans-Serif" font-size="10.00">HardwareBufferManagerBase</text>
</a>
</g>
</g>
<!-- Node1&#45;&gt;Node5 -->
<g id="edge4" class="edge">
<title>Node1&#45;&gt;Node5</title>
<path fill="none" stroke="midnightblue" d="M234.22,-306.1C254.57,-322.54 284.56,-344.64 314,-358.5 321.16,-361.87 328.89,-364.84 336.67,-367.44"/>
<polygon fill="midnightblue" stroke="midnightblue" points="236.34,-303.3 226.39,-299.66 231.89,-308.71 236.34,-303.3"/>
</g>
<!-- Node6 -->
<g id="node6" class="node">
<title>Node6</title>
<g id="a_node6"><a xlink:href="class_ogre_1_1v1_1_1_g_l3_plus_hardware_buffer_manager_base.html" target="_top" xlink:title="Implementation of HardwareBufferManager for OpenGL.">
<polygon fill="none" stroke="black" points="328,-318.5 328,-348.5 478,-348.5 478,-318.5 328,-318.5"/>
<text text-anchor="start" x="336" y="-336.5" font-family="Helvetica,sans-Serif" font-size="10.00">Ogre::v1::GL3PlusHardware</text>
<text text-anchor="middle" x="403" y="-325.5" font-family="Helvetica,sans-Serif" font-size="10.00">BufferManagerBase</text>
</a>
</g>
</g>
<!-- Node1&#45;&gt;Node6 -->
<g id="edge5" class="edge">
<title>Node1&#45;&gt;Node6</title>
<path fill="none" stroke="midnightblue" d="M278.12,-302.05C299.32,-307.43 322.43,-313.3 342.89,-318.49"/>
<polygon fill="midnightblue" stroke="midnightblue" points="278.77,-298.6 268.22,-299.53 277.05,-305.39 278.77,-298.6"/>
</g>
<!-- Node7 -->
<g id="node7" class="node">
<title>Node7</title>
<g id="a_node7"><a xlink:href="class_ogre_1_1v1_1_1_g_l_e_s2_default_hardware_buffer_manager_base.html" target="_top" xlink:title="Specialisation of HardwareBufferManager to emulate hardware buffers.">
<polygon fill="none" stroke="black" points="314,-269.5 314,-299.5 492,-299.5 492,-269.5 314,-269.5"/>
<text text-anchor="start" x="322" y="-287.5" font-family="Helvetica,sans-Serif" font-size="10.00">Ogre::v1::GLES2DefaultHardware</text>
<text text-anchor="middle" x="403" y="-276.5" font-family="Helvetica,sans-Serif" font-size="10.00">BufferManagerBase</text>
</a>
</g>
</g>
<!-- Node1&#45;&gt;Node7 -->
<g id="edge6" class="edge">
<title>Node1&#45;&gt;Node7</title>
<path fill="none" stroke="midnightblue" d="M288.29,-284.5C296.71,-284.5 305.31,-284.5 313.83,-284.5"/>
<polygon fill="midnightblue" stroke="midnightblue" points="288.13,-281 278.13,-284.5 288.13,-288 288.13,-281"/>
</g>
<!-- Node8 -->
<g id="node8" class="node">
<title>Node8</title>
<g id="a_node8"><a xlink:href="class_ogre_1_1v1_1_1_g_l_e_s2_hardware_buffer_manager_base.html" target="_top" xlink:title="Implementation of HardwareBufferManager for OpenGL ES.">
<polygon fill="none" stroke="black" points="317.5,-220.5 317.5,-250.5 488.5,-250.5 488.5,-220.5 317.5,-220.5"/>
<text text-anchor="start" x="325.5" y="-238.5" font-family="Helvetica,sans-Serif" font-size="10.00">Ogre::v1::GLES2HardwareBuffer</text>
<text text-anchor="middle" x="403" y="-227.5" font-family="Helvetica,sans-Serif" font-size="10.00">ManagerBase</text>
</a>
</g>
</g>
<!-- Node1&#45;&gt;Node8 -->
<g id="edge7" class="edge">
<title>Node1&#45;&gt;Node8</title>
<path fill="none" stroke="midnightblue" d="M278.12,-266.95C299.32,-261.57 322.43,-255.7 342.89,-250.51"/>
<polygon fill="midnightblue" stroke="midnightblue" points="277.05,-263.61 268.22,-269.47 278.77,-270.4 277.05,-263.61"/>
</g>
<!-- Node9 -->
<g id="node9" class="node">
<title>Node9</title>
<g id="a_node9"><a xlink:href="class_ogre_1_1v1_1_1_hardware_buffer_manager.html" target="_top" xlink:title="Singleton wrapper for hardware buffer manager.">
<polygon fill="none" stroke="black" points="333,-171.5 333,-201.5 473,-201.5 473,-171.5 333,-171.5"/>
<text text-anchor="start" x="341" y="-189.5" font-family="Helvetica,sans-Serif" font-size="10.00">Ogre::v1::HardwareBuffer</text>
<text text-anchor="middle" x="403" y="-178.5" font-family="Helvetica,sans-Serif" font-size="10.00">Manager</text>
</a>
</g>
</g>
<!-- Node1&#45;&gt;Node9 -->
<g id="edge8" class="edge">
<title>Node1&#45;&gt;Node9</title>
<path fill="none" stroke="midnightblue" d="M234.22,-262.9C254.57,-246.46 284.56,-224.36 314,-210.5 321.16,-207.13 328.89,-204.16 336.67,-201.56"/>
<polygon fill="midnightblue" stroke="midnightblue" points="231.89,-260.29 226.39,-269.34 236.34,-265.7 231.89,-260.29"/>
</g>
<!-- Node18 -->
<g id="node18" class="node">
<title>Node18</title>
<g id="a_node18"><a xlink:href="class_ogre_1_1v1_1_1_metal_hardware_buffer_manager_base.html" target="_top" xlink:title="Implementation of HardwareBufferManager for Metal.">
<polygon fill="none" stroke="black" points="319,-122.5 319,-152.5 487,-152.5 487,-122.5 319,-122.5"/>
<text text-anchor="start" x="327" y="-140.5" font-family="Helvetica,sans-Serif" font-size="10.00">Ogre::v1::MetalHardwareBuffer</text>
<text text-anchor="middle" x="403" y="-129.5" font-family="Helvetica,sans-Serif" font-size="10.00">ManagerBase</text>
</a>
</g>
</g>
<!-- Node1&#45;&gt;Node18 -->
<g id="edge17" class="edge">
<title>Node1&#45;&gt;Node18</title>
<path fill="none" stroke="midnightblue" d="M223,-260.74C240.69,-232.81 273.74,-187.04 314,-161.5 319.35,-158.11 325.18,-155.19 331.2,-152.68"/>
<polygon fill="midnightblue" stroke="midnightblue" points="219.88,-259.13 217.6,-269.48 225.84,-262.81 219.88,-259.13"/>
</g>
<!-- Node19 -->
<g id="node19" class="node">
<title>Node19</title>
<g id="a_node19"><a xlink:href="class_ogre_1_1v1_1_1_vulkan_hardware_buffer_manager_base.html" target="_top" xlink:title=" ">
<polygon fill="none" stroke="black" points="331.5,-73.5 331.5,-103.5 474.5,-103.5 474.5,-73.5 331.5,-73.5"/>
<text text-anchor="start" x="339.5" y="-91.5" font-family="Helvetica,sans-Serif" font-size="10.00">Ogre::v1::VulkanHardware</text>
<text text-anchor="middle" x="403" y="-80.5" font-family="Helvetica,sans-Serif" font-size="10.00">BufferManagerBase</text>
</a>
</g>
</g>
<!-- Node1&#45;&gt;Node19 -->
<g id="edge18" class="edge">
<title>Node1&#45;&gt;Node19</title>
<path fill="none" stroke="midnightblue" d="M217.3,-259.79C231.22,-222.18 262.87,-150.93 314,-112.5 319.32,-108.5 325.26,-105.17 331.47,-102.4"/>
<polygon fill="midnightblue" stroke="midnightblue" points="213.92,-258.85 213.85,-269.44 220.51,-261.21 213.92,-258.85"/>
</g>
<!-- Node2 -->
<g id="node2" class="node">
<title>Node2</title>
<g id="a_node2"><a xlink:title=" ">
<polygon fill="none" stroke="#bfbfbf" points="0,-275 0,-294 102,-294 102,-275 0,-275"/>
<text text-anchor="middle" x="51" y="-282" font-family="Helvetica,sans-Serif" font-size="10.00">OgreAllocatedObj</text>
</a>
</g>
</g>
<!-- Node2&#45;&gt;Node1 -->
<g id="edge1" class="edge">
<title>Node2&#45;&gt;Node1</title>
<path fill="none" stroke="midnightblue" d="M112.33,-284.5C120.67,-284.5 129.29,-284.5 137.77,-284.5"/>
<polygon fill="midnightblue" stroke="midnightblue" points="112.32,-281 102.32,-284.5 112.32,-288 112.32,-281"/>
</g>
<!-- Node10 -->
<g id="node10" class="node">
<title>Node10</title>
<g id="a_node10"><a xlink:href="class_ogre_1_1v1_1_1_d3_d11_hardware_buffer_manager.html" target="_top" xlink:title="D3D11HardwareBufferManagerBase as a Singleton.">
<polygon fill="none" stroke="black" points="530.5,-343.5 530.5,-373.5 703.5,-373.5 703.5,-343.5 530.5,-343.5"/>
<text text-anchor="start" x="538.5" y="-361.5" font-family="Helvetica,sans-Serif" font-size="10.00">Ogre::v1::D3D11HardwareBuffer</text>
<text text-anchor="middle" x="617" y="-350.5" font-family="Helvetica,sans-Serif" font-size="10.00">Manager</text>
</a>
</g>
</g>
<!-- Node9&#45;&gt;Node10 -->
<g id="edge9" class="edge">
<title>Node9&#45;&gt;Node10</title>
<path fill="none" stroke="midnightblue" d="M481.95,-202.56C485.57,-204.87 488.95,-207.5 492,-210.5 532.91,-250.75 487.09,-294.25 528,-334.5 531.5,-337.94 535.44,-340.9 539.67,-343.45"/>
<polygon fill="midnightblue" stroke="midnightblue" points="483.6,-199.47 473.15,-197.73 480.23,-205.61 483.6,-199.47"/>
</g>
<!-- Node11 -->
<g id="node11" class="node">
<title>Node11</title>
<g id="a_node11"><a xlink:href="class_ogre_1_1v1_1_1_default_hardware_buffer_manager.html" target="_top" xlink:title="DefaultHardwareBufferManager as a Singleton.">
<polygon fill="none" stroke="black" points="543.5,-294.5 543.5,-324.5 690.5,-324.5 690.5,-294.5 543.5,-294.5"/>
<text text-anchor="start" x="551.5" y="-312.5" font-family="Helvetica,sans-Serif" font-size="10.00">Ogre::v1::DefaultHardware</text>
<text text-anchor="middle" x="617" y="-301.5" font-family="Helvetica,sans-Serif" font-size="10.00">BufferManager</text>
</a>
</g>
</g>
<!-- Node9&#45;&gt;Node11 -->
<g id="edge10" class="edge">
<title>Node9&#45;&gt;Node11</title>
<path fill="none" stroke="midnightblue" d="M482.14,-203.65C485.62,-205.68 488.93,-207.96 492,-210.5 520.16,-233.84 499.97,-261.01 528,-284.5 532.63,-288.38 537.82,-291.65 543.31,-294.42"/>
<polygon fill="midnightblue" stroke="midnightblue" points="483.67,-200.5 473.18,-199.07 480.49,-206.74 483.67,-200.5"/>
</g>
<!-- Node12 -->
<g id="node12" class="node">
<title>Node12</title>
<g id="a_node12"><a xlink:href="class_ogre_1_1v1_1_1_g_l3_plus_default_hardware_buffer_manager.html" target="_top" xlink:title="GL3PlusDefaultHardwareBufferManagerBase as a Singleton.">
<polygon fill="none" stroke="black" points="547.5,-245.5 547.5,-275.5 686.5,-275.5 686.5,-245.5 547.5,-245.5"/>
<text text-anchor="start" x="555.5" y="-263.5" font-family="Helvetica,sans-Serif" font-size="10.00">Ogre::v1::GL3PlusDefault</text>
<text text-anchor="middle" x="617" y="-252.5" font-family="Helvetica,sans-Serif" font-size="10.00">HardwareBufferManager</text>
</a>
</g>
</g>
<!-- Node9&#45;&gt;Node12 -->
<g id="edge11" class="edge">
<title>Node9&#45;&gt;Node12</title>
<path fill="none" stroke="midnightblue" d="M478.74,-204.95C483.28,-206.66 487.74,-208.51 492,-210.5 509.65,-218.74 510.39,-227.17 528,-235.5 535.9,-239.24 544.46,-242.52 553.04,-245.37"/>
<polygon fill="midnightblue" stroke="midnightblue" points="479.9,-201.64 469.3,-201.61 477.56,-208.24 479.9,-201.64"/>
</g>
<!-- Node13 -->
<g id="node13" class="node">
<title>Node13</title>
<g id="a_node13"><a xlink:href="class_ogre_1_1v1_1_1_g_l3_plus_hardware_buffer_manager.html" target="_top" xlink:title="GL3PlusHardwareBufferManagerBase as a Singleton.">
<polygon fill="none" stroke="black" points="542,-196.5 542,-226.5 692,-226.5 692,-196.5 542,-196.5"/>
<text text-anchor="start" x="550" y="-214.5" font-family="Helvetica,sans-Serif" font-size="10.00">Ogre::v1::GL3PlusHardware</text>
<text text-anchor="middle" x="617" y="-203.5" font-family="Helvetica,sans-Serif" font-size="10.00">BufferManager</text>
</a>
</g>
</g>
<!-- Node9&#45;&gt;Node13 -->
<g id="edge12" class="edge">
<title>Node9&#45;&gt;Node13</title>
<path fill="none" stroke="midnightblue" d="M483.06,-195.82C502.32,-198.09 522.84,-200.51 541.86,-202.76"/>
<polygon fill="midnightblue" stroke="midnightblue" points="483.46,-192.35 473.12,-194.65 482.64,-199.3 483.46,-192.35"/>
</g>
<!-- Node14 -->
<g id="node14" class="node">
<title>Node14</title>
<g id="a_node14"><a xlink:href="class_ogre_1_1v1_1_1_g_l_e_s2_default_hardware_buffer_manager.html" target="_top" xlink:title="GLES2DefaultHardwareBufferManagerBase as a Singleton.">
<polygon fill="none" stroke="black" points="528,-147.5 528,-177.5 706,-177.5 706,-147.5 528,-147.5"/>
<text text-anchor="start" x="536" y="-165.5" font-family="Helvetica,sans-Serif" font-size="10.00">Ogre::v1::GLES2DefaultHardware</text>
<text text-anchor="middle" x="617" y="-154.5" font-family="Helvetica,sans-Serif" font-size="10.00">BufferManager</text>
</a>
</g>
</g>
<!-- Node9&#45;&gt;Node14 -->
<g id="edge13" class="edge">
<title>Node9&#45;&gt;Node14</title>
<path fill="none" stroke="midnightblue" d="M483.48,-177.5C497.88,-175.87 512.99,-174.16 527.64,-172.5"/>
<polygon fill="midnightblue" stroke="midnightblue" points="482.67,-174.07 473.12,-178.67 483.45,-181.03 482.67,-174.07"/>
</g>
<!-- Node15 -->
<g id="node15" class="node">
<title>Node15</title>
<g id="a_node15"><a xlink:href="class_ogre_1_1v1_1_1_g_l_e_s2_hardware_buffer_manager.html" target="_top" xlink:title="GLES2HardwareBufferManagerBase as a Singleton.">
<polygon fill="none" stroke="black" points="531.5,-98.5 531.5,-128.5 702.5,-128.5 702.5,-98.5 531.5,-98.5"/>
<text text-anchor="start" x="539.5" y="-116.5" font-family="Helvetica,sans-Serif" font-size="10.00">Ogre::v1::GLES2HardwareBuffer</text>
<text text-anchor="middle" x="617" y="-105.5" font-family="Helvetica,sans-Serif" font-size="10.00">Manager</text>
</a>
</g>
</g>
<!-- Node9&#45;&gt;Node15 -->
<g id="edge14" class="edge">
<title>Node9&#45;&gt;Node15</title>
<path fill="none" stroke="midnightblue" d="M476.23,-167.98C481.64,-165.99 486.95,-163.83 492,-161.5 509.46,-153.44 510.5,-145.47 528,-137.5 535.35,-134.15 543.27,-131.19 551.23,-128.59"/>
<polygon fill="midnightblue" stroke="midnightblue" points="474.72,-164.8 466.42,-171.39 477.02,-171.41 474.72,-164.8"/>
</g>
<!-- Node16 -->
<g id="node16" class="node">
<title>Node16</title>
<g id="a_node16"><a xlink:href="class_ogre_1_1v1_1_1_metal_hardware_buffer_manager.html" target="_top" xlink:title="MetalHardwareBufferManagerBase as a Singleton.">
<polygon fill="none" stroke="black" points="533,-49.5 533,-79.5 701,-79.5 701,-49.5 533,-49.5"/>
<text text-anchor="start" x="541" y="-67.5" font-family="Helvetica,sans-Serif" font-size="10.00">Ogre::v1::MetalHardwareBuffer</text>
<text text-anchor="middle" x="617" y="-56.5" font-family="Helvetica,sans-Serif" font-size="10.00">Manager</text>
</a>
</g>
</g>
<!-- Node9&#45;&gt;Node16 -->
<g id="edge15" class="edge">
<title>Node9&#45;&gt;Node16</title>
<path fill="none" stroke="midnightblue" d="M482.13,-168.42C485.61,-166.35 488.93,-164.06 492,-161.5 519.79,-138.34 500.09,-111.51 528,-88.5 532.15,-85.08 536.76,-82.14 541.62,-79.62"/>
<polygon fill="midnightblue" stroke="midnightblue" points="480.43,-165.36 473.17,-173.07 483.65,-171.57 480.43,-165.36"/>
</g>
<!-- Node17 -->
<g id="node17" class="node">
<title>Node17</title>
<g id="a_node17"><a xlink:href="class_ogre_1_1v1_1_1_vulkan_hardware_buffer_manager.html" target="_top" xlink:title=" ">
<polygon fill="none" stroke="black" points="545.5,-0.5 545.5,-30.5 688.5,-30.5 688.5,-0.5 545.5,-0.5"/>
<text text-anchor="start" x="553.5" y="-18.5" font-family="Helvetica,sans-Serif" font-size="10.00">Ogre::v1::VulkanHardware</text>
<text text-anchor="middle" x="617" y="-7.5" font-family="Helvetica,sans-Serif" font-size="10.00">BufferManager</text>
</a>
</g>
</g>
<!-- Node9&#45;&gt;Node17 -->
<g id="edge16" class="edge">
<title>Node9&#45;&gt;Node17</title>
<path fill="none" stroke="midnightblue" d="M481.95,-169.52C485.57,-167.18 488.95,-164.52 492,-161.5 532.18,-121.73 487.61,-79.06 528,-39.5 532.98,-34.62 538.84,-30.72 545.15,-27.59"/>
<polygon fill="midnightblue" stroke="midnightblue" points="480.18,-166.5 473.15,-174.43 483.59,-172.61 480.18,-166.5"/>
</g>
</g>
</svg>
