<?xml version="1.0" encoding="UTF-8" standalone="no"?>
<!DOCTYPE svg PUBLIC "-//W3C//DTD SVG 1.1//EN"
 "http://www.w3.org/Graphics/SVG/1.1/DTD/svg11.dtd">
<!-- Generated by graphviz version 7.0.5 (20221223.1930)
 -->
<!-- Title: Ogre::GTKWindow Pages: 1 -->
<svg width="180pt" height="82pt"
 viewBox="0.00 0.00 179.50 82.00" xmlns="http://www.w3.org/2000/svg" xmlns:xlink="http://www.w3.org/1999/xlink">
<g id="graph0" class="graph" transform="scale(1 1) rotate(0) translate(4 78)">
<title>Ogre::GTKWindow</title>
<!-- Node1 -->
<g id="node1" class="node">
<title>Node1</title>
<g id="a_node1"><a xlink:title=" ">
<polygon fill="#999999" stroke="#666666" points="136.5,-19 39.5,-19 39.5,0 136.5,0 136.5,-19"/>
<text text-anchor="middle" x="88" y="-7" font-family="Helvetica,sans-Serif" font-size="10.00">Ogre::GTKWindow</text>
</a>
</g>
</g>
<!-- Node2 -->
<g id="node2" class="node">
<title>Node2</title>
<g id="a_node2"><a xlink:title=" ">
<polygon fill="white" stroke="#666666" points="82,-74 0,-74 0,-55 82,-55 82,-74"/>
<text text-anchor="middle" x="41" y="-62" font-family="Helvetica,sans-Serif" font-size="10.00">RenderWindow</text>
</a>
</g>
</g>
<!-- Node2&#45;&gt;Node1 -->
<g id="edge1" class="edge">
<title>Node2&#45;&gt;Node1</title>
<path fill="none" stroke="#63b8ff" d="M56.33,-46.22C64.25,-37.28 73.6,-26.74 80.07,-19.44"/>
<polygon fill="#63b8ff" stroke="#63b8ff" points="53.78,-43.81 49.77,-53.62 59.02,-48.46 53.78,-43.81"/>
</g>
<!-- Node3 -->
<g id="node3" class="node">
<title>Node3</title>
<g id="a_node3"><a xlink:title=" ">
<polygon fill="white" stroke="#666666" points="171.5,-74 100.5,-74 100.5,-55 171.5,-55 171.5,-74"/>
<text text-anchor="middle" x="136" y="-62" font-family="Helvetica,sans-Serif" font-size="10.00">SigC::Object</text>
</a>
</g>
</g>
<!-- Node3&#45;&gt;Node1 -->
<g id="edge2" class="edge">
<title>Node3&#45;&gt;Node1</title>
<path fill="none" stroke="#63b8ff" d="M120.35,-46.22C112.25,-37.28 102.71,-26.74 96.1,-19.44"/>
<polygon fill="#63b8ff" stroke="#63b8ff" points="117.75,-48.56 127.06,-53.63 122.94,-43.86 117.75,-48.56"/>
</g>
</g>
</svg>
