<?xml version="1.0" encoding="UTF-8" standalone="no"?>
<!DOCTYPE svg PUBLIC "-//W3C//DTD SVG 1.1//EN"
 "http://www.w3.org/Graphics/SVG/1.1/DTD/svg11.dtd">
<!-- Generated by graphviz version 2.43.0 (0)
 -->
<!-- Title: Ogre::D3D11BufferInterface Pages: 1 -->
<svg width="304pt" height="140pt"
 viewBox="0.00 0.00 303.50 140.00" xmlns="http://www.w3.org/2000/svg" xmlns:xlink="http://www.w3.org/1999/xlink">
<g id="graph0" class="graph" transform="scale(1 1) rotate(0) translate(4 136)">
<title>Ogre::D3D11BufferInterface</title>
<!-- Node1 -->
<g id="node1" class="node">
<title>Node1</title>
<g id="a_node1"><a xlink:title="For D3D11, most (if not all) buffers, can be treated with the same code.">
<polygon fill="#bfbfbf" stroke="black" points="61.5,-0.5 61.5,-19.5 213.5,-19.5 213.5,-0.5 61.5,-0.5"/>
<text text-anchor="middle" x="137.5" y="-7.5" font-family="Helvetica,sans-Serif" font-size="10.00">Ogre::D3D11BufferInterface</text>
</a>
</g>
</g>
<!-- Node2 -->
<g id="node2" class="node">
<title>Node2</title>
<g id="a_node2"><a xlink:href="class_ogre_1_1_d3_d11_buffer_interface_base.html" target="_top" xlink:title="For D3D11, most (if not all) buffers, can be treated with the same code.">
<polygon fill="none" stroke="black" points="49.5,-56.5 49.5,-75.5 225.5,-75.5 225.5,-56.5 49.5,-56.5"/>
<text text-anchor="middle" x="137.5" y="-63.5" font-family="Helvetica,sans-Serif" font-size="10.00">Ogre::D3D11BufferInterfaceBase</text>
</a>
</g>
</g>
<!-- Node2&#45;&gt;Node1 -->
<g id="edge1" class="edge">
<title>Node2&#45;&gt;Node1</title>
<path fill="none" stroke="midnightblue" d="M137.5,-45.8C137.5,-36.91 137.5,-26.78 137.5,-19.75"/>
<polygon fill="midnightblue" stroke="midnightblue" points="134,-46.08 137.5,-56.08 141,-46.08 134,-46.08"/>
</g>
<!-- Node3 -->
<g id="node3" class="node">
<title>Node3</title>
<g id="a_node3"><a xlink:href="class_ogre_1_1_buffer_interface.html" target="_top" xlink:title="Most (if not all) buffers, can be treated with the same code.">
<polygon fill="none" stroke="black" points="0,-112.5 0,-131.5 119,-131.5 119,-112.5 0,-112.5"/>
<text text-anchor="middle" x="59.5" y="-119.5" font-family="Helvetica,sans-Serif" font-size="10.00">Ogre::BufferInterface</text>
</a>
</g>
</g>
<!-- Node3&#45;&gt;Node2 -->
<g id="edge2" class="edge">
<title>Node3&#45;&gt;Node2</title>
<path fill="none" stroke="midnightblue" d="M80.27,-106.62C94.52,-96.76 112.96,-83.99 125,-75.65"/>
<polygon fill="midnightblue" stroke="midnightblue" points="78.26,-103.75 72.03,-112.32 82.25,-109.51 78.26,-103.75"/>
</g>
<!-- Node4 -->
<g id="node4" class="node">
<title>Node4</title>
<g id="a_node4"><a xlink:href="class_ogre_1_1_d3_d11_device_resource.html" target="_top" xlink:title="Represents a Direct3D rendering resource.">
<polygon fill="none" stroke="black" points="137.5,-112.5 137.5,-131.5 295.5,-131.5 295.5,-112.5 137.5,-112.5"/>
<text text-anchor="middle" x="216.5" y="-119.5" font-family="Helvetica,sans-Serif" font-size="10.00">Ogre::D3D11DeviceResource</text>
</a>
</g>
</g>
<!-- Node4&#45;&gt;Node2 -->
<g id="edge3" class="edge">
<title>Node4&#45;&gt;Node2</title>
<path fill="none" stroke="#8b1a1a" d="M195.47,-106.62C181.03,-96.76 162.36,-83.99 150.16,-75.65"/>
<polygon fill="#8b1a1a" stroke="#8b1a1a" points="193.58,-109.57 203.81,-112.32 197.53,-103.79 193.58,-109.57"/>
</g>
</g>
</svg>
