<?xml version="1.0" encoding="UTF-8" standalone="no"?>
<!DOCTYPE svg PUBLIC "-//W3C//DTD SVG 1.1//EN"
 "http://www.w3.org/Graphics/SVG/1.1/DTD/svg11.dtd">
<!-- Generated by graphviz version 2.44.0 ()
 -->
<!-- Title: Ogre::DynLibManager Pages: 1 -->
<svg width="286pt" height="84pt"
 viewBox="0.00 0.00 286.00 84.00" xmlns="http://www.w3.org/2000/svg" xmlns:xlink="http://www.w3.org/1999/xlink">
<g id="graph0" class="graph" transform="scale(1 1) rotate(0) translate(4 80)">
<title>Ogre::DynLibManager</title>
<!-- Node1 -->
<g id="node1" class="node">
<title>Node1</title>
<g id="a_node1"><a xlink:title="Manager for Dynamic&#45;loading Libraries.">
<polygon fill="#bfbfbf" stroke="black" points="102.5,-0.5 102.5,-19.5 212.5,-19.5 212.5,-0.5 102.5,-0.5"/>
<text text-anchor="middle" x="157.5" y="-7.5" font-family="Helvetica,sans-Serif" font-size="10.00">Ogre::DynLibManager</text>
</a>
</g>
</g>
<!-- Node2 -->
<g id="node2" class="node">
<title>Node2</title>
<g id="a_node2"><a xlink:href="class_ogre_1_1_singleton.html" target="_top" xlink:title=" ">
<polygon fill="none" stroke="black" points="0,-56.5 0,-75.5 167,-75.5 167,-56.5 0,-56.5"/>
<text text-anchor="middle" x="83.5" y="-63.5" font-family="Helvetica,sans-Serif" font-size="10.00">Ogre::Singleton&lt; DynLibManager &gt;</text>
</a>
</g>
</g>
<!-- Node2&#45;&gt;Node1 -->
<g id="edge1" class="edge">
<title>Node2&#45;&gt;Node1</title>
<path fill="none" stroke="midnightblue" d="M103.53,-50.38C116.91,-40.62 134.06,-28.11 145.39,-19.83"/>
<polygon fill="midnightblue" stroke="midnightblue" points="101.4,-47.6 95.39,-56.32 105.53,-53.26 101.4,-47.6"/>
</g>
<!-- Node3 -->
<g id="node3" class="node">
<title>Node3</title>
<g id="a_node3"><a xlink:href="class_ogre_1_1_allocated_object.html" target="_top" xlink:title="Superclass for all objects that wish to use custom memory allocators when their new / delete operator...">
<polygon fill="none" stroke="black" points="185,-56.5 185,-75.5 278,-75.5 278,-56.5 185,-56.5"/>
<text text-anchor="middle" x="231.5" y="-63.5" font-family="Helvetica,sans-Serif" font-size="10.00">OgreAllocatedObj</text>
</a>
</g>
</g>
<!-- Node3&#45;&gt;Node1 -->
<g id="edge2" class="edge">
<title>Node3&#45;&gt;Node1</title>
<path fill="none" stroke="midnightblue" d="M211.47,-50.38C198.09,-40.62 180.94,-28.11 169.61,-19.83"/>
<polygon fill="midnightblue" stroke="midnightblue" points="209.47,-53.26 219.61,-56.32 213.6,-47.6 209.47,-53.26"/>
</g>
</g>
</svg>
