<?xml version="1.0" encoding="UTF-8" standalone="no"?>
<!DOCTYPE svg PUBLIC "-//W3C//DTD SVG 1.1//EN"
 "http://www.w3.org/Graphics/SVG/1.1/DTD/svg11.dtd">
<!-- Generated by graphviz version 7.0.5 (20221223.1930)
 -->
<!-- Title: Ogre::EGLSupport Pages: 1 -->
<svg width="426pt" height="138pt"
 viewBox="0.00 0.00 426.00 138.00" xmlns="http://www.w3.org/2000/svg" xmlns:xlink="http://www.w3.org/1999/xlink">
<g id="graph0" class="graph" transform="scale(1 1) rotate(0) translate(4 134)">
<title>Ogre::EGLSupport</title>
<!-- Node1 -->
<g id="node1" class="node">
<title>Node1</title>
<g id="a_node1"><a xlink:title=" ">
<polygon fill="#999999" stroke="#666666" points="238,-74 143,-74 143,-55 238,-55 238,-74"/>
<text text-anchor="middle" x="190.5" y="-62" font-family="Helvetica,sans-Serif" font-size="10.00">Ogre::EGLSupport</text>
</a>
</g>
</g>
<!-- Node3 -->
<g id="node3" class="node">
<title>Node3</title>
<g id="a_node3"><a xlink:href="class_ogre_1_1_android_e_g_l_support.html" target="_top" xlink:title=" ">
<polygon fill="white" stroke="#666666" points="410,-130 282,-130 282,-111 410,-111 410,-130"/>
<text text-anchor="middle" x="346" y="-118" font-family="Helvetica,sans-Serif" font-size="10.00">Ogre::AndroidEGLSupport</text>
</a>
</g>
</g>
<!-- Node1&#45;&gt;Node3 -->
<g id="edge2" class="edge">
<title>Node1&#45;&gt;Node3</title>
<path fill="none" stroke="#63b8ff" d="M220.48,-79.43C236.05,-87.05 255.76,-96.05 274,-102.5 282.39,-105.47 291.5,-108.16 300.31,-110.5"/>
<polygon fill="#63b8ff" stroke="#63b8ff" points="222.29,-76.43 211.78,-75.1 219.17,-82.69 222.29,-76.43"/>
</g>
<!-- Node4 -->
<g id="node4" class="node">
<title>Node4</title>
<g id="a_node4"><a xlink:href="class_ogre_1_1_emscripten_e_g_l_support.html" target="_top" xlink:title=" ">
<polygon fill="white" stroke="#666666" points="418,-93 274,-93 274,-74 418,-74 418,-93"/>
<text text-anchor="middle" x="346" y="-81" font-family="Helvetica,sans-Serif" font-size="10.00">Ogre::EmscriptenEGLSupport</text>
</a>
</g>
</g>
<!-- Node1&#45;&gt;Node4 -->
<g id="edge3" class="edge">
<title>Node1&#45;&gt;Node4</title>
<path fill="none" stroke="#63b8ff" d="M249.6,-71.69C257.42,-72.66 265.51,-73.66 273.52,-74.65"/>
<polygon fill="#63b8ff" stroke="#63b8ff" points="250.25,-68.24 239.89,-70.49 249.39,-75.19 250.25,-68.24"/>
</g>
<!-- Node5 -->
<g id="node5" class="node">
<title>Node5</title>
<g id="a_node5"><a xlink:href="class_ogre_1_1_win32_e_g_l_support.html" target="_top" xlink:title=" ">
<polygon fill="white" stroke="#666666" points="407,-56 285,-56 285,-37 407,-37 407,-56"/>
<text text-anchor="middle" x="346" y="-44" font-family="Helvetica,sans-Serif" font-size="10.00">Ogre::Win32EGLSupport</text>
</a>
</g>
</g>
<!-- Node1&#45;&gt;Node5 -->
<g id="edge4" class="edge">
<title>Node1&#45;&gt;Node5</title>
<path fill="none" stroke="#63b8ff" d="M249.58,-57.69C261,-56.35 273.01,-54.94 284.52,-53.59"/>
<polygon fill="#63b8ff" stroke="#63b8ff" points="249.42,-54.18 239.89,-58.83 250.23,-61.14 249.42,-54.18"/>
</g>
<!-- Node6 -->
<g id="node6" class="node">
<title>Node6</title>
<g id="a_node6"><a xlink:href="class_ogre_1_1_x11_e_g_l_support.html" target="_top" xlink:title=" ">
<polygon fill="white" stroke="#666666" points="402.5,-19 289.5,-19 289.5,0 402.5,0 402.5,-19"/>
<text text-anchor="middle" x="346" y="-7" font-family="Helvetica,sans-Serif" font-size="10.00">Ogre::X11EGLSupport</text>
</a>
</g>
</g>
<!-- Node1&#45;&gt;Node6 -->
<g id="edge5" class="edge">
<title>Node1&#45;&gt;Node6</title>
<path fill="none" stroke="#63b8ff" d="M221.14,-49.7C236.63,-42.36 256.05,-33.75 274,-27.5 282.53,-24.53 291.79,-21.83 300.71,-19.46"/>
<polygon fill="#63b8ff" stroke="#63b8ff" points="219.96,-46.39 212.48,-53.88 223,-52.69 219.96,-46.39"/>
</g>
<!-- Node2 -->
<g id="node2" class="node">
<title>Node2</title>
<g id="a_node2"><a xlink:href="class_ogre_1_1_g_l_e_s2_support.html" target="_top" xlink:title=" ">
<polygon fill="white" stroke="#666666" points="107,-74 0,-74 0,-55 107,-55 107,-74"/>
<text text-anchor="middle" x="53.5" y="-62" font-family="Helvetica,sans-Serif" font-size="10.00">Ogre::GLES2Support</text>
</a>
</g>
</g>
<!-- Node2&#45;&gt;Node1 -->
<g id="edge1" class="edge">
<title>Node2&#45;&gt;Node1</title>
<path fill="none" stroke="#63b8ff" d="M118.82,-64.5C126.92,-64.5 135.07,-64.5 142.82,-64.5"/>
<polygon fill="#63b8ff" stroke="#63b8ff" points="118.98,-61 108.98,-64.5 118.98,-68 118.98,-61"/>
</g>
</g>
</svg>
