<?xml version="1.0" encoding="UTF-8" standalone="no"?>
<!DOCTYPE svg PUBLIC "-//W3C//DTD SVG 1.1//EN"
 "http://www.w3.org/Graphics/SVG/1.1/DTD/svg11.dtd">
<!-- Generated by graphviz version 7.0.5 (20221223.1930)
 -->
<!-- Title: Ogre::Archive Pages: 1 -->
<svg width="402pt" height="137pt"
 viewBox="0.00 0.00 401.50 137.00" xmlns="http://www.w3.org/2000/svg" xmlns:xlink="http://www.w3.org/1999/xlink">
<g id="graph0" class="graph" transform="scale(1 1) rotate(0) translate(4 133)">
<title>Ogre::Archive</title>
<!-- Node1 -->
<g id="node1" class="node">
<title>Node1</title>
<g id="a_node1"><a xlink:title="Archive&#45;handling class.">
<polygon fill="#999999" stroke="#666666" points="261.5,-74 186.5,-74 186.5,-55 261.5,-55 261.5,-74"/>
<text text-anchor="middle" x="224" y="-62" font-family="Helvetica,sans-Serif" font-size="10.00">Ogre::Archive</text>
</a>
</g>
</g>
<!-- Node3 -->
<g id="node3" class="node">
<title>Node3</title>
<g id="a_node3"><a xlink:href="class_ogre_1_1_a_p_k_file_system_archive.html" target="_top" xlink:title=" ">
<polygon fill="white" stroke="#666666" points="144,-19 0,-19 0,0 144,0 144,-19"/>
<text text-anchor="middle" x="72" y="-7" font-family="Helvetica,sans-Serif" font-size="10.00">Ogre::APKFileSystemArchive</text>
</a>
</g>
</g>
<!-- Node1&#45;&gt;Node3 -->
<g id="edge2" class="edge">
<title>Node1&#45;&gt;Node3</title>
<path fill="none" stroke="#63b8ff" d="M187.36,-50.73C159.64,-41.06 122.25,-28.02 97.66,-19.45"/>
<polygon fill="#63b8ff" stroke="#63b8ff" points="186.19,-54.02 196.79,-54.01 188.5,-47.41 186.19,-54.02"/>
</g>
<!-- Node4 -->
<g id="node4" class="node">
<title>Node4</title>
<g id="a_node4"><a xlink:href="class_ogre_1_1_file_system_archive.html" target="_top" xlink:title="Specialisation of the Archive class to allow reading of files from filesystem folders / directories.">
<polygon fill="white" stroke="#666666" points="286,-19 162,-19 162,0 286,0 286,-19"/>
<text text-anchor="middle" x="224" y="-7" font-family="Helvetica,sans-Serif" font-size="10.00">Ogre::FileSystemArchive</text>
</a>
</g>
</g>
<!-- Node1&#45;&gt;Node4 -->
<g id="edge3" class="edge">
<title>Node1&#45;&gt;Node4</title>
<path fill="none" stroke="#63b8ff" d="M224,-43.35C224,-35.1 224,-25.97 224,-19.44"/>
<polygon fill="#63b8ff" stroke="#63b8ff" points="220.5,-43.23 224,-53.23 227.5,-43.23 220.5,-43.23"/>
</g>
<!-- Node5 -->
<g id="node5" class="node">
<title>Node5</title>
<g id="a_node5"><a xlink:href="class_ogre_1_1_zip_archive.html" target="_top" xlink:title="Specialisation of the Archive class to allow reading of files from a zip format source archive.">
<polygon fill="white" stroke="#666666" points="393.5,-19 304.5,-19 304.5,0 393.5,0 393.5,-19"/>
<text text-anchor="middle" x="349" y="-7" font-family="Helvetica,sans-Serif" font-size="10.00">Ogre::ZipArchive</text>
</a>
</g>
</g>
<!-- Node1&#45;&gt;Node5 -->
<g id="edge4" class="edge">
<title>Node1&#45;&gt;Node5</title>
<path fill="none" stroke="#63b8ff" d="M255.69,-50.06C278.4,-40.43 308.34,-27.74 328.11,-19.36"/>
<polygon fill="#63b8ff" stroke="#63b8ff" points="254.44,-46.79 246.6,-53.92 257.17,-53.24 254.44,-46.79"/>
</g>
<!-- Node2 -->
<g id="node2" class="node">
<title>Node2</title>
<g id="a_node2"><a xlink:title=" ">
<polygon fill="white" stroke="#666666" points="283.5,-129 164.5,-129 164.5,-110 283.5,-110 283.5,-129"/>
<text text-anchor="middle" x="224" y="-117" font-family="Helvetica,sans-Serif" font-size="10.00">Ogre::OgreAllocatedObj</text>
</a>
</g>
</g>
<!-- Node2&#45;&gt;Node1 -->
<g id="edge1" class="edge">
<title>Node2&#45;&gt;Node1</title>
<path fill="none" stroke="#63b8ff" d="M224,-98.35C224,-90.1 224,-80.97 224,-74.44"/>
<polygon fill="#63b8ff" stroke="#63b8ff" points="220.5,-98.23 224,-108.23 227.5,-98.23 220.5,-98.23"/>
</g>
</g>
</svg>
