<?xml version="1.0" encoding="UTF-8" standalone="no"?>
<!DOCTYPE svg PUBLIC "-//W3C//DTD SVG 1.1//EN"
 "http://www.w3.org/Graphics/SVG/1.1/DTD/svg11.dtd">
<!-- Generated by graphviz version 2.43.0 (0)
 -->
<!-- Title: Ogre::CompositorNodeDef Pages: 1 -->
<svg width="191pt" height="192pt"
 viewBox="0.00 0.00 191.00 192.00" xmlns="http://www.w3.org/2000/svg" xmlns:xlink="http://www.w3.org/1999/xlink">
<g id="graph0" class="graph" transform="scale(1 1) rotate(0) translate(4 188)">
<title>Ogre::CompositorNodeDef</title>
<!-- Node1 -->
<g id="Node000001" class="node">
<title>Node1</title>
<g id="a_Node000001"><a xlink:title="Compositor nodes are the core subject of compositing.">
<polygon fill="#999999" stroke="#666666" points="164,-74 19,-74 19,-55 164,-55 164,-74"/>
<text text-anchor="middle" x="91.5" y="-62" font-family="Helvetica,sans-Serif" font-size="10.00">Ogre::CompositorNodeDef</text>
</a>
</g>
</g>
<!-- Node4 -->
<g id="Node000004" class="node">
<title>Node4</title>
<g id="a_Node000004"><a xlink:href="class_ogre_1_1_compositor_shadow_node_def.html" target="_top" xlink:title="Shadow Nodes are special nodes (not to be confused with.">
<polygon fill="white" stroke="#666666" points="183,-19 0,-19 0,0 183,0 183,-19"/>
<text text-anchor="middle" x="91.5" y="-7" font-family="Helvetica,sans-Serif" font-size="10.00">Ogre::CompositorShadowNodeDef</text>
</a>
</g>
</g>
<!-- Node1&#45;&gt;Node4 -->
<g id="edge3_Node000001_Node000004" class="edge">
<title>Node1&#45;&gt;Node4</title>
<g id="a_edge3_Node000001_Node000004"><a xlink:title=" ">
<path fill="none" stroke="#63b8ff" d="M91.5,-44.66C91.5,-35.93 91.5,-25.99 91.5,-19.09"/>
<polygon fill="#63b8ff" stroke="#63b8ff" points="88,-44.75 91.5,-54.75 95,-44.75 88,-44.75"/>
</a>
</g>
</g>
<!-- Node2 -->
<g id="Node000002" class="node">
<title>Node2</title>
<g id="a_Node000002"><a xlink:href="class_ogre_1_1_texture_definition_base.html" target="_top" xlink:title="Centralized class for dealing with declarations of textures in Node &amp; Workspace definitions.">
<polygon fill="white" stroke="#666666" points="168,-129 15,-129 15,-110 168,-110 168,-129"/>
<text text-anchor="middle" x="91.5" y="-117" font-family="Helvetica,sans-Serif" font-size="10.00">Ogre::TextureDefinitionBase</text>
</a>
</g>
</g>
<!-- Node2&#45;&gt;Node1 -->
<g id="edge1_Node000001_Node000002" class="edge">
<title>Node2&#45;&gt;Node1</title>
<g id="a_edge1_Node000001_Node000002"><a xlink:title=" ">
<path fill="none" stroke="#63b8ff" d="M91.5,-99.66C91.5,-90.93 91.5,-80.99 91.5,-74.09"/>
<polygon fill="#63b8ff" stroke="#63b8ff" points="88,-99.75 91.5,-109.75 95,-99.75 88,-99.75"/>
</a>
</g>
</g>
<!-- Node3 -->
<g id="Node000003" class="node">
<title>Node3</title>
<g id="a_Node000003"><a xlink:title=" ">
<polygon fill="white" stroke="#666666" points="157,-184 26,-184 26,-165 157,-165 157,-184"/>
<text text-anchor="middle" x="91.5" y="-172" font-family="Helvetica,sans-Serif" font-size="10.00">Ogre::OgreAllocatedObj</text>
</a>
</g>
</g>
<!-- Node3&#45;&gt;Node2 -->
<g id="edge2_Node000002_Node000003" class="edge">
<title>Node3&#45;&gt;Node2</title>
<g id="a_edge2_Node000002_Node000003"><a xlink:title=" ">
<path fill="none" stroke="#63b8ff" d="M91.5,-154.66C91.5,-145.93 91.5,-135.99 91.5,-129.09"/>
<polygon fill="#63b8ff" stroke="#63b8ff" points="88,-154.75 91.5,-164.75 95,-154.75 88,-154.75"/>
</a>
</g>
</g>
</g>
</svg>
