<?xml version="1.0" encoding="UTF-8" standalone="no"?>
<!DOCTYPE svg PUBLIC "-//W3C//DTD SVG 1.1//EN"
 "http://www.w3.org/Graphics/SVG/1.1/DTD/svg11.dtd">
<!-- Generated by graphviz version 7.0.5 (20221223.1930)
 -->
<!-- Title: Ogre::v1::HardwareVertexBufferSharedPtr Pages: 1 -->
<svg width="144pt" height="170pt"
 viewBox="0.00 0.00 144.00 170.00" xmlns="http://www.w3.org/2000/svg" xmlns:xlink="http://www.w3.org/1999/xlink">
<g id="graph0" class="graph" transform="scale(1 1) rotate(0) translate(4 166)">
<title>Ogre::v1::HardwareVertexBufferSharedPtr</title>
<!-- Node1 -->
<g id="node1" class="node">
<title>Node1</title>
<g id="a_node1"><a xlink:title="Shared pointer implementation used to share vertex buffers.">
<polygon fill="#999999" stroke="#666666" points="131.5,-30 4.5,-30 4.5,0 131.5,0 131.5,-30"/>
<text text-anchor="start" x="12.5" y="-18" font-family="Helvetica,sans-Serif" font-size="10.00">Ogre::v1::HardwareVertex</text>
<text text-anchor="middle" x="68" y="-7" font-family="Helvetica,sans-Serif" font-size="10.00">BufferSharedPtr</text>
</a>
</g>
</g>
<!-- Node2 -->
<g id="node2" class="node">
<title>Node2</title>
<g id="a_node2"><a xlink:href="class_ogre_1_1_shared_ptr.html" target="_top" xlink:title=" ">
<polygon fill="white" stroke="#666666" points="136,-96 0,-96 0,-66 136,-66 136,-96"/>
<text text-anchor="start" x="8" y="-84" font-family="Helvetica,sans-Serif" font-size="10.00">Ogre::SharedPtr&lt; Hardware</text>
<text text-anchor="middle" x="68" y="-73" font-family="Helvetica,sans-Serif" font-size="10.00">VertexBuffer &gt;</text>
</a>
</g>
</g>
<!-- Node2&#45;&gt;Node1 -->
<g id="edge1" class="edge">
<title>Node2&#45;&gt;Node1</title>
<path fill="none" stroke="#63b8ff" d="M68,-54.39C68,-46.13 68,-37.28 68,-30.16"/>
<polygon fill="#63b8ff" stroke="#63b8ff" points="64.5,-54.28 68,-64.28 71.5,-54.28 64.5,-54.28"/>
</g>
<!-- Node3 -->
<g id="node3" class="node">
<title>Node3</title>
<g id="a_node3"><a xlink:title=" ">
<polygon fill="white" stroke="#666666" points="133.5,-162 2.5,-162 2.5,-132 133.5,-132 133.5,-162"/>
<text text-anchor="start" x="10.5" y="-150" font-family="Helvetica,sans-Serif" font-size="10.00">std::shared_ptr&lt; Hardware</text>
<text text-anchor="middle" x="68" y="-139" font-family="Helvetica,sans-Serif" font-size="10.00">VertexBuffer &gt;</text>
</a>
</g>
</g>
<!-- Node3&#45;&gt;Node2 -->
<g id="edge2" class="edge">
<title>Node3&#45;&gt;Node2</title>
<path fill="none" stroke="#63b8ff" d="M68,-120.39C68,-112.13 68,-103.28 68,-96.16"/>
<polygon fill="#63b8ff" stroke="#63b8ff" points="64.5,-120.28 68,-130.28 71.5,-120.28 64.5,-120.28"/>
</g>
</g>
</svg>
