<?xml version="1.0" encoding="UTF-8" standalone="no"?>
<!DOCTYPE svg PUBLIC "-//W3C//DTD SVG 1.1//EN"
 "http://www.w3.org/Graphics/SVG/1.1/DTD/svg11.dtd">
<!-- Generated by graphviz version 2.44.0 ()
 -->
<!-- Title: Ogre::v1::OverlayElementFactory Pages: 1 -->
<svg width="448pt" height="137pt"
 viewBox="0.00 0.00 448.00 137.00" xmlns="http://www.w3.org/2000/svg" xmlns:xlink="http://www.w3.org/1999/xlink">
<g id="graph0" class="graph" transform="scale(1 1) rotate(0) translate(4 133)">
<title>Ogre::v1::OverlayElementFactory</title>
<!-- Node1 -->
<g id="node1" class="node">
<title>Node1</title>
<g id="a_node1"><a xlink:title="Defines the interface which all components wishing to supply OverlayElement subclasses must implement...">
<polygon fill="#bfbfbf" stroke="black" points="129,-49.5 129,-79.5 254,-79.5 254,-49.5 129,-49.5"/>
<text text-anchor="start" x="137" y="-67.5" font-family="Helvetica,sans-Serif" font-size="10.00">Ogre::v1::OverlayElement</text>
<text text-anchor="middle" x="191.5" y="-56.5" font-family="Helvetica,sans-Serif" font-size="10.00">Factory</text>
</a>
</g>
</g>
<!-- Node3 -->
<g id="node3" class="node">
<title>Node3</title>
<g id="a_node3"><a xlink:href="class_ogre_1_1v1_1_1_border_panel_overlay_element_factory.html" target="_top" xlink:title="Factory for creating BorderPanelOverlayElement instances.">
<polygon fill="none" stroke="black" points="293.5,-98.5 293.5,-128.5 436.5,-128.5 436.5,-98.5 293.5,-98.5"/>
<text text-anchor="start" x="301.5" y="-116.5" font-family="Helvetica,sans-Serif" font-size="10.00">Ogre::v1::BorderPanelOverlay</text>
<text text-anchor="middle" x="365" y="-105.5" font-family="Helvetica,sans-Serif" font-size="10.00">ElementFactory</text>
</a>
</g>
</g>
<!-- Node1&#45;&gt;Node3 -->
<g id="edge2" class="edge">
<title>Node1&#45;&gt;Node3</title>
<path fill="none" stroke="midnightblue" d="M255.13,-82.39C273.58,-87.66 293.56,-93.38 311.32,-98.45"/>
<polygon fill="midnightblue" stroke="midnightblue" points="255.93,-78.98 245.36,-79.6 254.01,-85.71 255.93,-78.98"/>
</g>
<!-- Node4 -->
<g id="node4" class="node">
<title>Node4</title>
<g id="a_node4"><a xlink:href="class_ogre_1_1v1_1_1_panel_overlay_element_factory.html" target="_top" xlink:title="Factory for creating PanelOverlayElement instances.">
<polygon fill="none" stroke="black" points="290,-49.5 290,-79.5 440,-79.5 440,-49.5 290,-49.5"/>
<text text-anchor="start" x="298" y="-67.5" font-family="Helvetica,sans-Serif" font-size="10.00">Ogre::v1::PanelOverlayElement</text>
<text text-anchor="middle" x="365" y="-56.5" font-family="Helvetica,sans-Serif" font-size="10.00">Factory</text>
</a>
</g>
</g>
<!-- Node1&#45;&gt;Node4 -->
<g id="edge3" class="edge">
<title>Node1&#45;&gt;Node4</title>
<path fill="none" stroke="midnightblue" d="M264.53,-64.5C272.92,-64.5 281.49,-64.5 289.9,-64.5"/>
<polygon fill="midnightblue" stroke="midnightblue" points="264.42,-61 254.42,-64.5 264.42,-68 264.42,-61"/>
</g>
<!-- Node5 -->
<g id="node5" class="node">
<title>Node5</title>
<g id="a_node5"><a xlink:href="class_ogre_1_1v1_1_1_text_area_overlay_element_factory.html" target="_top" xlink:title="Factory for creating TextAreaOverlayElement instances.">
<polygon fill="none" stroke="black" points="300.5,-0.5 300.5,-30.5 429.5,-30.5 429.5,-0.5 300.5,-0.5"/>
<text text-anchor="start" x="308.5" y="-18.5" font-family="Helvetica,sans-Serif" font-size="10.00">Ogre::v1::TextAreaOverlay</text>
<text text-anchor="middle" x="365" y="-7.5" font-family="Helvetica,sans-Serif" font-size="10.00">ElementFactory</text>
</a>
</g>
</g>
<!-- Node1&#45;&gt;Node5 -->
<g id="edge4" class="edge">
<title>Node1&#45;&gt;Node5</title>
<path fill="none" stroke="midnightblue" d="M255.13,-46.61C273.58,-41.34 293.56,-35.62 311.32,-30.55"/>
<polygon fill="midnightblue" stroke="midnightblue" points="254.01,-43.29 245.36,-49.4 255.93,-50.02 254.01,-43.29"/>
</g>
<!-- Node2 -->
<g id="node2" class="node">
<title>Node2</title>
<g id="a_node2"><a xlink:href="class_ogre_1_1_allocated_object.html" target="_top" xlink:title="Superclass for all objects that wish to use custom memory allocators when their new / delete operator...">
<polygon fill="none" stroke="black" points="0,-55 0,-74 93,-74 93,-55 0,-55"/>
<text text-anchor="middle" x="46.5" y="-62" font-family="Helvetica,sans-Serif" font-size="10.00">OgreAllocatedObj</text>
</a>
</g>
</g>
<!-- Node2&#45;&gt;Node1 -->
<g id="edge1" class="edge">
<title>Node2&#45;&gt;Node1</title>
<path fill="none" stroke="midnightblue" d="M103.21,-64.5C111.62,-64.5 120.34,-64.5 128.86,-64.5"/>
<polygon fill="midnightblue" stroke="midnightblue" points="103.14,-61 93.14,-64.5 103.14,-68 103.14,-61"/>
</g>
</g>
</svg>
