<?xml version="1.0" encoding="UTF-8" standalone="no"?>
<!DOCTYPE svg PUBLIC "-//W3C//DTD SVG 1.1//EN"
 "http://www.w3.org/Graphics/SVG/1.1/DTD/svg11.dtd">
<!-- Generated by graphviz version 3.0.0 (20220413.0242)
 -->
<!-- Title: Ogre::ResourceManager Pages: 1 -->
<svg width="649pt" height="306pt"
 viewBox="0.00 0.00 649.00 306.00" xmlns="http://www.w3.org/2000/svg" xmlns:xlink="http://www.w3.org/1999/xlink">
<g id="graph0" class="graph" transform="scale(1 1) rotate(0) translate(4 302)">
<title>Ogre::ResourceManager</title>
<!-- Node1 -->
<g id="node1" class="node">
<title>Node1</title>
<g id="a_node1"><a xlink:title="Defines a generic resource handler.">
<polygon fill="#bfbfbf" stroke="black" points="134,-114.5 134,-133.5 255,-133.5 255,-114.5 134,-114.5"/>
<text text-anchor="middle" x="194.5" y="-121.5" font-family="Helvetica,sans-Serif" font-size="10.00">Ogre::ResourceManager</text>
</a>
</g>
</g>
<!-- Node4 -->
<g id="node4" class="node">
<title>Node4</title>
<g id="a_node4"><a xlink:href="class_ogre_1_1_font_manager.html" target="_top" xlink:title="Manages Font resources, parsing .fontdef files and generally organising them.">
<polygon fill="none" stroke="black" points="315.5,-240.5 315.5,-259.5 414.5,-259.5 414.5,-240.5 315.5,-240.5"/>
<text text-anchor="middle" x="365" y="-247.5" font-family="Helvetica,sans-Serif" font-size="10.00">Ogre::FontManager</text>
</a>
</g>
</g>
<!-- Node1&#45;&gt;Node4 -->
<g id="edge3" class="edge">
<title>Node1&#45;&gt;Node4</title>
<path fill="none" stroke="midnightblue" d="M206.78,-142.26C222.6,-166.3 253.67,-208.2 291,-231 298.38,-235.51 306.8,-238.95 315.24,-241.58"/>
<polygon fill="midnightblue" stroke="midnightblue" points="209.65,-140.24 201.31,-133.71 203.75,-144.02 209.65,-140.24"/>
</g>
<!-- Node5 -->
<g id="node5" class="node">
<title>Node5</title>
<g id="a_node5"><a xlink:href="class_ogre_1_1_gpu_program_manager.html" target="_top" xlink:title=" ">
<polygon fill="none" stroke="black" points="298,-202.5 298,-221.5 432,-221.5 432,-202.5 298,-202.5"/>
<text text-anchor="middle" x="365" y="-209.5" font-family="Helvetica,sans-Serif" font-size="10.00">Ogre::GpuProgramManager</text>
</a>
</g>
</g>
<!-- Node1&#45;&gt;Node5 -->
<g id="edge4" class="edge">
<title>Node1&#45;&gt;Node5</title>
<path fill="none" stroke="midnightblue" d="M213.67,-140.33C231.98,-155.97 261.63,-179.17 291,-193 299.06,-196.79 307.98,-199.91 316.75,-202.45"/>
<polygon fill="midnightblue" stroke="midnightblue" points="215.95,-137.67 206.11,-133.74 211.35,-142.95 215.95,-137.67"/>
</g>
<!-- Node11 -->
<g id="node11" class="node">
<title>Node11</title>
<g id="a_node11"><a xlink:href="class_ogre_1_1_high_level_gpu_program_manager.html" target="_top" xlink:title="This ResourceManager manages high&#45;level vertex and fragment programs.">
<polygon fill="none" stroke="black" points="294.5,-153 294.5,-183 435.5,-183 435.5,-153 294.5,-153"/>
<text text-anchor="start" x="302.5" y="-171" font-family="Helvetica,sans-Serif" font-size="10.00">Ogre::HighLevelGpuProgram</text>
<text text-anchor="middle" x="365" y="-160" font-family="Helvetica,sans-Serif" font-size="10.00">Manager</text>
</a>
</g>
</g>
<!-- Node1&#45;&gt;Node11 -->
<g id="edge10" class="edge">
<title>Node1&#45;&gt;Node11</title>
<path fill="none" stroke="midnightblue" d="M241.83,-136.1C261.76,-141.3 285.26,-147.44 306.31,-152.93"/>
<polygon fill="midnightblue" stroke="midnightblue" points="242.62,-132.69 232.06,-133.55 240.85,-139.46 242.62,-132.69"/>
</g>
<!-- Node12 -->
<g id="node12" class="node">
<title>Node12</title>
<g id="a_node12"><a xlink:href="class_ogre_1_1_material_manager.html" target="_top" xlink:title="Class for managing Material settings for Ogre.">
<polygon fill="none" stroke="black" points="308,-114.5 308,-133.5 422,-133.5 422,-114.5 308,-114.5"/>
<text text-anchor="middle" x="365" y="-121.5" font-family="Helvetica,sans-Serif" font-size="10.00">Ogre::MaterialManager</text>
</a>
</g>
</g>
<!-- Node1&#45;&gt;Node12 -->
<g id="edge11" class="edge">
<title>Node1&#45;&gt;Node12</title>
<path fill="none" stroke="midnightblue" d="M265.56,-124C279.7,-124 294.39,-124 307.97,-124"/>
<polygon fill="midnightblue" stroke="midnightblue" points="265.38,-120.5 255.38,-124 265.38,-127.5 265.38,-120.5"/>
</g>
<!-- Node13 -->
<g id="node13" class="node">
<title>Node13</title>
<g id="a_node13"><a xlink:href="class_ogre_1_1_mesh_manager.html" target="_top" xlink:title="Handles the management of mesh resources.">
<polygon fill="none" stroke="black" points="313,-76.5 313,-95.5 417,-95.5 417,-76.5 313,-76.5"/>
<text text-anchor="middle" x="365" y="-83.5" font-family="Helvetica,sans-Serif" font-size="10.00">Ogre::MeshManager</text>
</a>
</g>
</g>
<!-- Node1&#45;&gt;Node13 -->
<g id="edge12" class="edge">
<title>Node1&#45;&gt;Node13</title>
<path fill="none" stroke="midnightblue" d="M247.93,-112.18C271.69,-106.82 299.4,-100.57 321.79,-95.52"/>
<polygon fill="midnightblue" stroke="midnightblue" points="247,-108.8 238.02,-114.41 248.54,-115.63 247,-108.8"/>
</g>
<!-- Node14 -->
<g id="node14" class="node">
<title>Node14</title>
<g id="a_node14"><a xlink:href="class_ogre_1_1v1_1_1_mesh_manager.html" target="_top" xlink:title="Handles the management of mesh resources.">
<polygon fill="none" stroke="black" points="305.5,-38.5 305.5,-57.5 424.5,-57.5 424.5,-38.5 305.5,-38.5"/>
<text text-anchor="middle" x="365" y="-45.5" font-family="Helvetica,sans-Serif" font-size="10.00">Ogre::v1::MeshManager</text>
</a>
</g>
</g>
<!-- Node1&#45;&gt;Node14 -->
<g id="edge13" class="edge">
<title>Node1&#45;&gt;Node14</title>
<path fill="none" stroke="midnightblue" d="M217.17,-108.63C235.94,-95.92 264.21,-78.21 291,-67 299.82,-63.31 309.54,-60.18 318.94,-57.59"/>
<polygon fill="midnightblue" stroke="midnightblue" points="215.02,-105.86 208.77,-114.41 218.99,-111.62 215.02,-105.86"/>
</g>
<!-- Node15 -->
<g id="node15" class="node">
<title>Node15</title>
<g id="a_node15"><a xlink:href="class_ogre_1_1v1_1_1_old_skeleton_manager.html" target="_top" xlink:title="Handles the management of skeleton resources.">
<polygon fill="none" stroke="black" points="291,-0.5 291,-19.5 439,-19.5 439,-0.5 291,-0.5"/>
<text text-anchor="middle" x="365" y="-7.5" font-family="Helvetica,sans-Serif" font-size="10.00">Ogre::v1::OldSkeletonManager</text>
</a>
</g>
</g>
<!-- Node1&#45;&gt;Node15 -->
<g id="edge14" class="edge">
<title>Node1&#45;&gt;Node15</title>
<path fill="none" stroke="midnightblue" d="M208.49,-106.24C225.19,-84.71 256.19,-48.87 291,-29 297.82,-25.1 305.46,-21.99 313.15,-19.51"/>
<polygon fill="midnightblue" stroke="midnightblue" points="205.68,-104.15 202.44,-114.24 211.26,-108.38 205.68,-104.15"/>
</g>
<!-- Node2 -->
<g id="node2" class="node">
<title>Node2</title>
<g id="a_node2"><a xlink:href="class_ogre_1_1_script_loader.html" target="_top" xlink:title="Abstract class defining the interface used by classes which wish to perform script loading to define ...">
<polygon fill="none" stroke="black" points="0,-133.5 0,-152.5 98,-152.5 98,-133.5 0,-133.5"/>
<text text-anchor="middle" x="49" y="-140.5" font-family="Helvetica,sans-Serif" font-size="10.00">Ogre::ScriptLoader</text>
</a>
</g>
</g>
<!-- Node2&#45;&gt;Node1 -->
<g id="edge1" class="edge">
<title>Node2&#45;&gt;Node1</title>
<path fill="none" stroke="midnightblue" d="M108.33,-135.28C116.79,-134.16 125.5,-133 133.97,-131.88"/>
<polygon fill="midnightblue" stroke="midnightblue" points="107.64,-131.84 98.18,-136.62 108.56,-138.78 107.64,-131.84"/>
</g>
<!-- Node3 -->
<g id="node3" class="node">
<title>Node3</title>
<g id="a_node3"><a xlink:href="class_ogre_1_1_allocated_object.html" target="_top" xlink:title="Superclass for all objects that wish to use custom memory allocators when their new / delete operator...">
<polygon fill="none" stroke="black" points="2.5,-95.5 2.5,-114.5 95.5,-114.5 95.5,-95.5 2.5,-95.5"/>
<text text-anchor="middle" x="49" y="-102.5" font-family="Helvetica,sans-Serif" font-size="10.00">OgreAllocatedObj</text>
</a>
</g>
</g>
<!-- Node3&#45;&gt;Node1 -->
<g id="edge2" class="edge">
<title>Node3&#45;&gt;Node1</title>
<path fill="none" stroke="midnightblue" d="M105.98,-112.41C115.16,-113.63 124.71,-114.89 133.98,-116.12"/>
<polygon fill="midnightblue" stroke="midnightblue" points="106.17,-108.91 95.8,-111.06 105.25,-115.85 106.17,-108.91"/>
</g>
<!-- Node6 -->
<g id="node6" class="node">
<title>Node6</title>
<g id="a_node6"><a xlink:href="class_ogre_1_1_d3_d11_gpu_program_manager.html" target="_top" xlink:title=" ">
<polygon fill="none" stroke="black" points="476,-278.5 476,-297.5 640,-297.5 640,-278.5 476,-278.5"/>
<text text-anchor="middle" x="558" y="-285.5" font-family="Helvetica,sans-Serif" font-size="10.00">Ogre::D3D11GpuProgramManager</text>
</a>
</g>
</g>
<!-- Node5&#45;&gt;Node6 -->
<g id="edge5" class="edge">
<title>Node5&#45;&gt;Node6</title>
<path fill="none" stroke="midnightblue" d="M427.34,-225.19C431.39,-226.9 435.32,-228.83 439,-231 459.03,-242.83 454.81,-257.44 475,-269 481.72,-272.85 489.17,-275.92 496.77,-278.37"/>
<polygon fill="midnightblue" stroke="midnightblue" points="428.31,-221.82 417.72,-221.58 425.86,-228.37 428.31,-221.82"/>
</g>
<!-- Node7 -->
<g id="node7" class="node">
<title>Node7</title>
<g id="a_node7"><a xlink:href="class_ogre_1_1_g_l_e_s2_gpu_program_manager.html" target="_top" xlink:title=" ">
<polygon fill="none" stroke="black" points="475,-240.5 475,-259.5 641,-259.5 641,-240.5 475,-240.5"/>
<text text-anchor="middle" x="558" y="-247.5" font-family="Helvetica,sans-Serif" font-size="10.00">Ogre::GLES2GpuProgramManager</text>
</a>
</g>
</g>
<!-- Node5&#45;&gt;Node7 -->
<g id="edge6" class="edge">
<title>Node5&#45;&gt;Node7</title>
<path fill="none" stroke="midnightblue" d="M424.35,-223.61C451.52,-229.01 483.43,-235.36 509.15,-240.48"/>
<polygon fill="midnightblue" stroke="midnightblue" points="424.69,-220.11 414.2,-221.59 423.32,-226.97 424.69,-220.11"/>
</g>
<!-- Node8 -->
<g id="node8" class="node">
<title>Node8</title>
<g id="a_node8"><a xlink:href="class_ogre_1_1_g_l_s_l_shader_manager.html" target="_top" xlink:title=" ">
<polygon fill="none" stroke="black" points="489.5,-202.5 489.5,-221.5 626.5,-221.5 626.5,-202.5 489.5,-202.5"/>
<text text-anchor="middle" x="558" y="-209.5" font-family="Helvetica,sans-Serif" font-size="10.00">Ogre::GLSLShaderManager</text>
</a>
</g>
</g>
<!-- Node5&#45;&gt;Node8 -->
<g id="edge7" class="edge">
<title>Node5&#45;&gt;Node8</title>
<path fill="none" stroke="midnightblue" d="M442.34,-212C457.84,-212 474.05,-212 489.23,-212"/>
<polygon fill="midnightblue" stroke="midnightblue" points="442.27,-208.5 432.27,-212 442.27,-215.5 442.27,-208.5"/>
</g>
<!-- Node9 -->
<g id="node9" class="node">
<title>Node9</title>
<g id="a_node9"><a xlink:href="class_ogre_1_1_metal_gpu_program_manager.html" target="_top" xlink:title=" ">
<polygon fill="none" stroke="black" points="479,-164.5 479,-183.5 637,-183.5 637,-164.5 479,-164.5"/>
<text text-anchor="middle" x="558" y="-171.5" font-family="Helvetica,sans-Serif" font-size="10.00">Ogre::MetalGpuProgramManager</text>
</a>
</g>
</g>
<!-- Node5&#45;&gt;Node9 -->
<g id="edge8" class="edge">
<title>Node5&#45;&gt;Node9</title>
<path fill="none" stroke="midnightblue" d="M424.35,-200.39C451.52,-194.99 483.43,-188.64 509.15,-183.52"/>
<polygon fill="midnightblue" stroke="midnightblue" points="423.32,-197.03 414.2,-202.41 424.69,-203.89 423.32,-197.03"/>
</g>
<!-- Node10 -->
<g id="node10" class="node">
<title>Node10</title>
<g id="a_node10"><a xlink:href="class_ogre_1_1_vulkan_gpu_program_manager.html" target="_top" xlink:title=" ">
<polygon fill="none" stroke="black" points="476,-126.5 476,-145.5 640,-145.5 640,-126.5 476,-126.5"/>
<text text-anchor="middle" x="558" y="-133.5" font-family="Helvetica,sans-Serif" font-size="10.00">Ogre::VulkanGpuProgramManager</text>
</a>
</g>
</g>
<!-- Node5&#45;&gt;Node10 -->
<g id="edge9" class="edge">
<title>Node5&#45;&gt;Node10</title>
<path fill="none" stroke="midnightblue" d="M427.34,-198.81C431.39,-197.1 435.32,-195.17 439,-193 459.03,-181.17 454.81,-166.56 475,-155 481.72,-151.15 489.17,-148.08 496.77,-145.63"/>
<polygon fill="midnightblue" stroke="midnightblue" points="425.86,-195.63 417.72,-202.42 428.31,-202.18 425.86,-195.63"/>
</g>
</g>
</svg>
