<?xml version="1.0" encoding="UTF-8" standalone="no"?>
<!DOCTYPE svg PUBLIC "-//W3C//DTD SVG 1.1//EN"
 "http://www.w3.org/Graphics/SVG/1.1/DTD/svg11.dtd">
<!-- Generated by graphviz version 2.43.0 (0)
 -->
<!-- Title: Ogre::StagingTextureBufferImpl Pages: 1 -->
<svg width="665pt" height="142pt"
 viewBox="0.00 0.00 665.00 142.00" xmlns="http://www.w3.org/2000/svg" xmlns:xlink="http://www.w3.org/1999/xlink">
<g id="graph0" class="graph" transform="scale(1 1) rotate(0) translate(4 138)">
<title>Ogre::StagingTextureBufferImpl</title>
<!-- Node1 -->
<g id="node1" class="node">
<title>Node1</title>
<g id="a_node1"><a xlink:title="This implementation can be used by all RenderSystem APIs except D3D11, which is why this implementati...">
<polygon fill="#bfbfbf" stroke="black" points="293,-57.5 293,-76.5 463,-76.5 463,-57.5 293,-57.5"/>
<text text-anchor="middle" x="378" y="-64.5" font-family="Helvetica,sans-Serif" font-size="10.00">Ogre::StagingTextureBufferImpl</text>
</a>
</g>
</g>
<!-- Node4 -->
<g id="node4" class="node">
<title>Node4</title>
<g id="a_node4"><a xlink:href="class_ogre_1_1_g_l3_plus_staging_texture.html" target="_top" xlink:title=" ">
<polygon fill="none" stroke="black" points="499,-114.5 499,-133.5 657,-133.5 657,-114.5 499,-114.5"/>
<text text-anchor="middle" x="578" y="-121.5" font-family="Helvetica,sans-Serif" font-size="10.00">Ogre::GL3PlusStagingTexture</text>
</a>
</g>
</g>
<!-- Node1&#45;&gt;Node4 -->
<g id="edge3" class="edge">
<title>Node1&#45;&gt;Node4</title>
<path fill="none" stroke="midnightblue" d="M417.04,-79.77C440.54,-87.48 471.38,-97.27 499,-105 510.81,-108.3 523.72,-111.58 535.57,-114.46"/>
<polygon fill="midnightblue" stroke="midnightblue" points="418.04,-76.42 407.45,-76.61 415.85,-83.06 418.04,-76.42"/>
</g>
<!-- Node5 -->
<g id="node5" class="node">
<title>Node5</title>
<g id="a_node5"><a xlink:href="class_ogre_1_1_metal_staging_texture.html" target="_top" xlink:title=" ">
<polygon fill="none" stroke="black" points="505,-76.5 505,-95.5 651,-95.5 651,-76.5 505,-76.5"/>
<text text-anchor="middle" x="578" y="-83.5" font-family="Helvetica,sans-Serif" font-size="10.00">Ogre::MetalStagingTexture</text>
</a>
</g>
</g>
<!-- Node1&#45;&gt;Node5 -->
<g id="edge4" class="edge">
<title>Node1&#45;&gt;Node5</title>
<path fill="none" stroke="midnightblue" d="M473.41,-76.06C484.03,-77.08 494.72,-78.1 505,-79.09"/>
<polygon fill="midnightblue" stroke="midnightblue" points="473.55,-72.56 463.26,-75.09 472.88,-79.52 473.55,-72.56"/>
</g>
<!-- Node6 -->
<g id="node6" class="node">
<title>Node6</title>
<g id="a_node6"><a xlink:href="class_ogre_1_1_n_u_l_l_staging_texture.html" target="_top" xlink:title=" ">
<polygon fill="none" stroke="black" points="506,-38.5 506,-57.5 650,-57.5 650,-38.5 506,-38.5"/>
<text text-anchor="middle" x="578" y="-45.5" font-family="Helvetica,sans-Serif" font-size="10.00">Ogre::NULLStagingTexture</text>
</a>
</g>
</g>
<!-- Node1&#45;&gt;Node6 -->
<g id="edge5" class="edge">
<title>Node1&#45;&gt;Node6</title>
<path fill="none" stroke="midnightblue" d="M473.3,-57.95C484.28,-56.9 495.33,-55.84 505.92,-54.82"/>
<polygon fill="midnightblue" stroke="midnightblue" points="472.88,-54.48 463.26,-58.91 473.55,-61.44 472.88,-54.48"/>
</g>
<!-- Node7 -->
<g id="node7" class="node">
<title>Node7</title>
<g id="a_node7"><a xlink:href="class_ogre_1_1_vulkan_staging_texture.html" target="_top" xlink:title=" ">
<polygon fill="none" stroke="black" points="502.5,-0.5 502.5,-19.5 653.5,-19.5 653.5,-0.5 502.5,-0.5"/>
<text text-anchor="middle" x="578" y="-7.5" font-family="Helvetica,sans-Serif" font-size="10.00">Ogre::VulkanStagingTexture</text>
</a>
</g>
</g>
<!-- Node1&#45;&gt;Node7 -->
<g id="edge6" class="edge">
<title>Node1&#45;&gt;Node7</title>
<path fill="none" stroke="midnightblue" d="M417.04,-54.23C440.54,-46.52 471.38,-36.73 499,-29 510.81,-25.7 523.72,-22.42 535.57,-19.54"/>
<polygon fill="midnightblue" stroke="midnightblue" points="415.85,-50.94 407.45,-57.39 418.04,-57.58 415.85,-50.94"/>
</g>
<!-- Node2 -->
<g id="node2" class="node">
<title>Node2</title>
<g id="a_node2"><a xlink:href="class_ogre_1_1_staging_texture.html" target="_top" xlink:title="A StagingTexture is an intermediate texture that can be read and be written from both CPU &amp; GPU.">
<polygon fill="none" stroke="black" points="138,-57.5 138,-76.5 257,-76.5 257,-57.5 138,-57.5"/>
<text text-anchor="middle" x="197.5" y="-64.5" font-family="Helvetica,sans-Serif" font-size="10.00">Ogre::StagingTexture</text>
</a>
</g>
</g>
<!-- Node2&#45;&gt;Node1 -->
<g id="edge1" class="edge">
<title>Node2&#45;&gt;Node1</title>
<path fill="none" stroke="midnightblue" d="M267.47,-67C275.81,-67 284.4,-67 292.93,-67"/>
<polygon fill="midnightblue" stroke="midnightblue" points="267.44,-63.5 257.44,-67 267.44,-70.5 267.44,-63.5"/>
</g>
<!-- Node3 -->
<g id="node3" class="node">
<title>Node3</title>
<g id="a_node3"><a xlink:title=" ">
<polygon fill="none" stroke="#bfbfbf" points="0,-57.5 0,-76.5 102,-76.5 102,-57.5 0,-57.5"/>
<text text-anchor="middle" x="51" y="-64.5" font-family="Helvetica,sans-Serif" font-size="10.00">OgreAllocatedObj</text>
</a>
</g>
</g>
<!-- Node3&#45;&gt;Node2 -->
<g id="edge2" class="edge">
<title>Node3&#45;&gt;Node2</title>
<path fill="none" stroke="midnightblue" d="M112.28,-67C120.71,-67 129.36,-67 137.77,-67"/>
<polygon fill="midnightblue" stroke="midnightblue" points="112.13,-63.5 102.13,-67 112.13,-70.5 112.13,-63.5"/>
</g>
</g>
</svg>
