<?xml version="1.0" encoding="UTF-8" standalone="no"?>
<!DOCTYPE svg PUBLIC "-//W3C//DTD SVG 1.1//EN"
 "http://www.w3.org/Graphics/SVG/1.1/DTD/svg11.dtd">
<!-- Generated by graphviz version 2.43.0 (0)
 -->
<!-- Title: Ogre::ResourceManager Pages: 1 -->
<svg width="728pt" height="298pt"
 viewBox="0.00 0.00 728.00 298.00" xmlns="http://www.w3.org/2000/svg" xmlns:xlink="http://www.w3.org/1999/xlink">
<g id="graph0" class="graph" transform="scale(1 1) rotate(0) translate(4 294)">
<title>Ogre::ResourceManager</title>
<!-- Node1 -->
<g id="Node000001" class="node">
<title>Node1</title>
<g id="a_Node000001"><a xlink:title="Defines a generic resource handler.">
<polygon fill="#999999" stroke="#666666" points="301,-130 167,-130 167,-111 301,-111 301,-130"/>
<text text-anchor="middle" x="234" y="-118" font-family="Helvetica,sans-Serif" font-size="10.00">Ogre::ResourceManager</text>
</a>
</g>
</g>
<!-- Node4 -->
<g id="Node000004" class="node">
<title>Node4</title>
<g id="a_Node000004"><a xlink:href="class_ogre_1_1_font_manager.html" target="_top" xlink:title="Manages Font resources, parsing .fontdef files and generally organising them.">
<polygon fill="white" stroke="#666666" points="474.5,-253 364.5,-253 364.5,-234 474.5,-234 474.5,-253"/>
<text text-anchor="middle" x="419.5" y="-241" font-family="Helvetica,sans-Serif" font-size="10.00">Ogre::FontManager</text>
</a>
</g>
</g>
<!-- Node1&#45;&gt;Node4 -->
<g id="edge3_Node000001_Node000004" class="edge">
<title>Node1&#45;&gt;Node4</title>
<g id="a_edge3_Node000001_Node000004"><a xlink:title=" ">
<path fill="none" stroke="#63b8ff" d="M247.31,-138.6C264.49,-162.41 298,-203.76 337,-225.5 345.35,-230.16 354.82,-233.61 364.26,-236.17"/>
<polygon fill="#63b8ff" stroke="#63b8ff" points="249.97,-136.3 241.35,-130.14 244.24,-140.33 249.97,-136.3"/>
</a>
</g>
</g>
<!-- Node5 -->
<g id="Node000005" class="node">
<title>Node5</title>
<g id="a_Node000005"><a xlink:href="class_ogre_1_1_gpu_program_manager.html" target="_top" xlink:title=" ">
<polygon fill="white" stroke="#666666" points="494,-216 345,-216 345,-197 494,-197 494,-216"/>
<text text-anchor="middle" x="419.5" y="-204" font-family="Helvetica,sans-Serif" font-size="10.00">Ogre::GpuProgramManager</text>
</a>
</g>
</g>
<!-- Node1&#45;&gt;Node5 -->
<g id="edge4_Node000001_Node000005" class="edge">
<title>Node1&#45;&gt;Node5</title>
<g id="a_edge4_Node000001_Node000005"><a xlink:title=" ">
<path fill="none" stroke="#63b8ff" d="M254.35,-136.23C274.03,-151.48 305.96,-174.19 337,-187.5 345.95,-191.34 355.79,-194.47 365.45,-197"/>
<polygon fill="#63b8ff" stroke="#63b8ff" points="256.48,-133.45 246.46,-130.01 252.14,-138.95 256.48,-133.45"/>
</a>
</g>
</g>
<!-- Node11 -->
<g id="Node000011" class="node">
<title>Node11</title>
<g id="a_Node000011"><a xlink:href="class_ogre_1_1_high_level_gpu_program_manager.html" target="_top" xlink:title="This ResourceManager manages high&#45;level vertex and fragment programs.">
<polygon fill="white" stroke="#666666" points="497,-178.5 342,-178.5 342,-148.5 497,-148.5 497,-178.5"/>
<text text-anchor="start" x="350" y="-166.5" font-family="Helvetica,sans-Serif" font-size="10.00">Ogre::HighLevelGpuProgram</text>
<text text-anchor="middle" x="419.5" y="-155.5" font-family="Helvetica,sans-Serif" font-size="10.00">Manager</text>
</a>
</g>
</g>
<!-- Node1&#45;&gt;Node11 -->
<g id="edge10_Node000001_Node000011" class="edge">
<title>Node1&#45;&gt;Node11</title>
<g id="a_edge10_Node000001_Node000011"><a xlink:title=" ">
<path fill="none" stroke="#63b8ff" d="M285.54,-132.34C306.84,-137.34 331.89,-143.2 354.46,-148.49"/>
<polygon fill="#63b8ff" stroke="#63b8ff" points="286.26,-128.92 275.72,-130.04 284.66,-135.73 286.26,-128.92"/>
</a>
</g>
</g>
<!-- Node12 -->
<g id="Node000012" class="node">
<title>Node12</title>
<g id="a_Node000012"><a xlink:href="class_ogre_1_1_material_manager.html" target="_top" xlink:title="Class for managing Material settings for Ogre.">
<polygon fill="white" stroke="#666666" points="484,-130 355,-130 355,-111 484,-111 484,-130"/>
<text text-anchor="middle" x="419.5" y="-118" font-family="Helvetica,sans-Serif" font-size="10.00">Ogre::MaterialManager</text>
</a>
</g>
</g>
<!-- Node1&#45;&gt;Node12 -->
<g id="edge11_Node000001_Node000012" class="edge">
<title>Node1&#45;&gt;Node12</title>
<g id="a_edge11_Node000001_Node000012"><a xlink:title=" ">
<path fill="none" stroke="#63b8ff" d="M311.61,-120.5C325.98,-120.5 340.87,-120.5 354.8,-120.5"/>
<polygon fill="#63b8ff" stroke="#63b8ff" points="311.25,-117 301.25,-120.5 311.25,-124 311.25,-117"/>
</a>
</g>
</g>
<!-- Node13 -->
<g id="Node000013" class="node">
<title>Node13</title>
<g id="a_Node000013"><a xlink:href="class_ogre_1_1_mesh_manager.html" target="_top" xlink:title="Handles the management of mesh resources.">
<polygon fill="white" stroke="#666666" points="477,-93 362,-93 362,-74 477,-74 477,-93"/>
<text text-anchor="middle" x="419.5" y="-81" font-family="Helvetica,sans-Serif" font-size="10.00">Ogre::MeshManager</text>
</a>
</g>
</g>
<!-- Node1&#45;&gt;Node13 -->
<g id="edge12_Node000001_Node000013" class="edge">
<title>Node1&#45;&gt;Node13</title>
<g id="a_edge12_Node000001_Node000013"><a xlink:title=" ">
<path fill="none" stroke="#63b8ff" d="M292.11,-108.98C317.47,-103.87 346.97,-97.92 371.09,-93.06"/>
<polygon fill="#63b8ff" stroke="#63b8ff" points="291.37,-105.56 282.26,-110.97 292.75,-112.43 291.37,-105.56"/>
</a>
</g>
</g>
<!-- Node14 -->
<g id="Node000014" class="node">
<title>Node14</title>
<g id="a_Node000014"><a xlink:href="class_ogre_1_1v1_1_1_mesh_manager.html" target="_top" xlink:title="Handles the management of mesh resources.">
<polygon fill="white" stroke="#666666" points="486,-56 353,-56 353,-37 486,-37 486,-56"/>
<text text-anchor="middle" x="419.5" y="-44" font-family="Helvetica,sans-Serif" font-size="10.00">Ogre::v1::MeshManager</text>
</a>
</g>
</g>
<!-- Node1&#45;&gt;Node14 -->
<g id="edge13_Node000001_Node000014" class="edge">
<title>Node1&#45;&gt;Node14</title>
<g id="a_edge13_Node000001_Node000014"><a xlink:title=" ">
<path fill="none" stroke="#63b8ff" d="M257.69,-105.57C277.79,-92.97 308.3,-75.29 337,-64.5 345.82,-61.18 355.41,-58.39 364.82,-56.07"/>
<polygon fill="#63b8ff" stroke="#63b8ff" points="255.78,-102.64 249.23,-110.97 259.55,-108.54 255.78,-102.64"/>
</a>
</g>
</g>
<!-- Node15 -->
<g id="Node000015" class="node">
<title>Node15</title>
<g id="a_Node000015"><a xlink:href="class_ogre_1_1v1_1_1_old_skeleton_manager.html" target="_top" xlink:title="Handles the management of skeleton resources.">
<polygon fill="white" stroke="#666666" points="502,-19 337,-19 337,0 502,0 502,-19"/>
<text text-anchor="middle" x="419.5" y="-7" font-family="Helvetica,sans-Serif" font-size="10.00">Ogre::v1::OldSkeletonManager</text>
</a>
</g>
</g>
<!-- Node1&#45;&gt;Node15 -->
<g id="edge14_Node000001_Node000015" class="edge">
<title>Node1&#45;&gt;Node15</title>
<g id="a_edge14_Node000001_Node000015"><a xlink:title=" ">
<path fill="none" stroke="#63b8ff" d="M249.11,-102.93C267.18,-81.68 300.54,-46.4 337,-27.5 343.56,-24.1 350.74,-21.34 358.04,-19.1"/>
<polygon fill="#63b8ff" stroke="#63b8ff" points="246.24,-100.91 242.55,-110.84 251.63,-105.38 246.24,-100.91"/>
</a>
</g>
</g>
<!-- Node2 -->
<g id="Node000002" class="node">
<title>Node2</title>
<g id="a_Node000002"><a xlink:href="class_ogre_1_1_script_loader.html" target="_top" xlink:title="Abstract class defining the interface used by classes which wish to perform script loading to define ...">
<polygon fill="white" stroke="#666666" points="119,-149 12,-149 12,-130 119,-130 119,-149"/>
<text text-anchor="middle" x="65.5" y="-137" font-family="Helvetica,sans-Serif" font-size="10.00">Ogre::ScriptLoader</text>
</a>
</g>
</g>
<!-- Node2&#45;&gt;Node1 -->
<g id="edge1_Node000001_Node000002" class="edge">
<title>Node2&#45;&gt;Node1</title>
<g id="a_edge1_Node000001_Node000002"><a xlink:title=" ">
<path fill="none" stroke="#63b8ff" d="M129.32,-132.33C141.6,-130.93 154.51,-129.46 166.9,-128.04"/>
<polygon fill="#63b8ff" stroke="#63b8ff" points="128.72,-128.88 119.18,-133.49 129.51,-135.83 128.72,-128.88"/>
</a>
</g>
</g>
<!-- Node3 -->
<g id="Node000003" class="node">
<title>Node3</title>
<g id="a_Node000003"><a xlink:title=" ">
<polygon fill="white" stroke="#666666" points="131,-112 0,-112 0,-93 131,-93 131,-112"/>
<text text-anchor="middle" x="65.5" y="-100" font-family="Helvetica,sans-Serif" font-size="10.00">Ogre::OgreAllocatedObj</text>
</a>
</g>
</g>
<!-- Node3&#45;&gt;Node1 -->
<g id="edge2_Node000001_Node000003" class="edge">
<title>Node3&#45;&gt;Node1</title>
<g id="a_edge2_Node000001_Node000003"><a xlink:title=" ">
<path fill="none" stroke="#63b8ff" d="M141.31,-110.59C149.86,-111.51 158.53,-112.45 166.96,-113.36"/>
<polygon fill="#63b8ff" stroke="#63b8ff" points="141.67,-107.11 131.35,-109.51 140.92,-114.07 141.67,-107.11"/>
</a>
</g>
</g>
<!-- Node6 -->
<g id="Node000006" class="node">
<title>Node6</title>
<g id="a_Node000006"><a xlink:href="class_ogre_1_1_d3_d11_gpu_program_manager.html" target="_top" xlink:title=" ">
<polygon fill="white" stroke="#666666" points="720,-290 538,-290 538,-271 720,-271 720,-290"/>
<text text-anchor="middle" x="629" y="-278" font-family="Helvetica,sans-Serif" font-size="10.00">Ogre::D3D11GpuProgramManager</text>
</a>
</g>
</g>
<!-- Node5&#45;&gt;Node6 -->
<g id="edge5_Node000005_Node000006" class="edge">
<title>Node5&#45;&gt;Node6</title>
<g id="a_edge5_Node000005_Node000006"><a xlink:title=" ">
<path fill="none" stroke="#63b8ff" d="M489.52,-219.56C493.85,-221.3 498.05,-223.27 502,-225.5 521.98,-236.78 517.85,-251.54 538,-262.5 544.3,-265.93 551.16,-268.7 558.2,-270.96"/>
<polygon fill="#63b8ff" stroke="#63b8ff" points="490.49,-216.19 479.89,-216.11 488.13,-222.78 490.49,-216.19"/>
</a>
</g>
</g>
<!-- Node7 -->
<g id="Node000007" class="node">
<title>Node7</title>
<g id="a_Node000007"><a xlink:href="class_ogre_1_1_g_l_e_s2_gpu_program_manager.html" target="_top" xlink:title=" ">
<polygon fill="white" stroke="#666666" points="719,-253 539,-253 539,-234 719,-234 719,-253"/>
<text text-anchor="middle" x="629" y="-241" font-family="Helvetica,sans-Serif" font-size="10.00">Ogre::GLES2GpuProgramManager</text>
</a>
</g>
</g>
<!-- Node5&#45;&gt;Node7 -->
<g id="edge6_Node000005_Node000007" class="edge">
<title>Node5&#45;&gt;Node7</title>
<g id="a_edge6_Node000005_Node000007"><a xlink:title=" ">
<path fill="none" stroke="#63b8ff" d="M483.94,-217.81C512.87,-222.97 546.75,-229.01 574.38,-233.94"/>
<polygon fill="#63b8ff" stroke="#63b8ff" points="484.4,-214.34 473.94,-216.03 483.17,-221.23 484.4,-214.34"/>
</a>
</g>
</g>
<!-- Node8 -->
<g id="Node000008" class="node">
<title>Node8</title>
<g id="a_Node000008"><a xlink:href="class_ogre_1_1_g_l_s_l_shader_manager.html" target="_top" xlink:title=" ">
<polygon fill="white" stroke="#666666" points="702,-216 556,-216 556,-197 702,-197 702,-216"/>
<text text-anchor="middle" x="629" y="-204" font-family="Helvetica,sans-Serif" font-size="10.00">Ogre::GLSLShaderManager</text>
</a>
</g>
</g>
<!-- Node5&#45;&gt;Node8 -->
<g id="edge7_Node000005_Node000008" class="edge">
<title>Node5&#45;&gt;Node8</title>
<g id="a_edge7_Node000005_Node000008"><a xlink:title=" ">
<path fill="none" stroke="#63b8ff" d="M504.7,-206.5C521.67,-206.5 539.37,-206.5 555.89,-206.5"/>
<polygon fill="#63b8ff" stroke="#63b8ff" points="504.24,-203 494.24,-206.5 504.24,-210 504.24,-203"/>
</a>
</g>
</g>
<!-- Node9 -->
<g id="Node000009" class="node">
<title>Node9</title>
<g id="a_Node000009"><a xlink:href="class_ogre_1_1_metal_gpu_program_manager.html" target="_top" xlink:title=" ">
<polygon fill="white" stroke="#666666" points="717.5,-179 540.5,-179 540.5,-160 717.5,-160 717.5,-179"/>
<text text-anchor="middle" x="629" y="-167" font-family="Helvetica,sans-Serif" font-size="10.00">Ogre::MetalGpuProgramManager</text>
</a>
</g>
</g>
<!-- Node5&#45;&gt;Node9 -->
<g id="edge8_Node000005_Node000009" class="edge">
<title>Node5&#45;&gt;Node9</title>
<g id="a_edge8_Node000005_Node000009"><a xlink:title=" ">
<path fill="none" stroke="#63b8ff" d="M483.94,-195.19C512.87,-190.03 546.75,-183.99 574.38,-179.06"/>
<polygon fill="#63b8ff" stroke="#63b8ff" points="483.17,-191.77 473.94,-196.97 484.4,-198.66 483.17,-191.77"/>
</a>
</g>
</g>
<!-- Node10 -->
<g id="Node000010" class="node">
<title>Node10</title>
<g id="a_Node000010"><a xlink:href="class_ogre_1_1_vulkan_gpu_program_manager.html" target="_top" xlink:title=" ">
<polygon fill="white" stroke="#666666" points="720,-142 538,-142 538,-123 720,-123 720,-142"/>
<text text-anchor="middle" x="629" y="-130" font-family="Helvetica,sans-Serif" font-size="10.00">Ogre::VulkanGpuProgramManager</text>
</a>
</g>
</g>
<!-- Node5&#45;&gt;Node10 -->
<g id="edge9_Node000005_Node000010" class="edge">
<title>Node5&#45;&gt;Node10</title>
<g id="a_edge9_Node000005_Node000010"><a xlink:title=" ">
<path fill="none" stroke="#63b8ff" d="M488.89,-193.61C493.44,-191.83 497.85,-189.8 502,-187.5 521.78,-176.51 518.11,-162.28 538,-151.5 545.16,-147.62 553.04,-144.53 561.07,-142.07"/>
<polygon fill="#63b8ff" stroke="#63b8ff" points="487.69,-190.32 479.41,-196.93 490.01,-196.93 487.69,-190.32"/>
</a>
</g>
</g>
</g>
</svg>
