<?xml version="1.0" encoding="UTF-8" standalone="no"?>
<!DOCTYPE svg PUBLIC "-//W3C//DTD SVG 1.1//EN"
 "http://www.w3.org/Graphics/SVG/1.1/DTD/svg11.dtd">
<!-- Generated by graphviz version 2.43.0 (0)
 -->
<!-- Title: Ogre::TexBufferPacked Pages: 1 -->
<svg width="1057pt" height="385pt"
 viewBox="0.00 0.00 1057.00 384.50" xmlns="http://www.w3.org/2000/svg" xmlns:xlink="http://www.w3.org/1999/xlink">
<g id="graph0" class="graph" transform="scale(1 1) rotate(0) translate(4 380.5)">
<title>Ogre::TexBufferPacked</title>
<!-- Node1 -->
<g id="node1" class="node">
<title>Node1</title>
<g id="a_node1"><a xlink:title="Represents Texture buffers (also known as tbuffers in D3D11)">
<polygon fill="#bfbfbf" stroke="black" points="328,-225 328,-244 453,-244 453,-225 328,-225"/>
<text text-anchor="middle" x="390.5" y="-232" font-family="Helvetica,sans-Serif" font-size="10.00">Ogre::TexBufferPacked</text>
</a>
</g>
</g>
<!-- Node5 -->
<g id="node5" class="node">
<title>Node5</title>
<g id="a_node5"><a xlink:href="class_ogre_1_1_d3_d11_tex_buffer_packed.html" target="_top" xlink:title=" ">
<polygon fill="none" stroke="black" points="498.5,-357 498.5,-376 656.5,-376 656.5,-357 498.5,-357"/>
<text text-anchor="middle" x="577.5" y="-364" font-family="Helvetica,sans-Serif" font-size="10.00">Ogre::D3D11TexBufferPacked</text>
</a>
</g>
</g>
<!-- Node1&#45;&gt;Node5 -->
<g id="edge4" class="edge">
<title>Node1&#45;&gt;Node5</title>
<path fill="none" stroke="midnightblue" d="M402.11,-252.69C417.79,-277.87 449.58,-322.89 489,-346.5 496.22,-350.82 504.29,-354.21 512.52,-356.87"/>
<polygon fill="midnightblue" stroke="midnightblue" points="405.08,-250.84 396.91,-244.1 399.1,-254.47 405.08,-250.84"/>
</g>
<!-- Node6 -->
<g id="node6" class="node">
<title>Node6</title>
<g id="a_node6"><a xlink:href="class_ogre_1_1_g_l3_plus_tex_buffer_emulated_packed.html" target="_top" xlink:title=" ">
<polygon fill="none" stroke="black" points="489,-307.5 489,-337.5 666,-337.5 666,-307.5 489,-307.5"/>
<text text-anchor="start" x="497" y="-325.5" font-family="Helvetica,sans-Serif" font-size="10.00">Ogre::GL3PlusTexBufferEmulated</text>
<text text-anchor="middle" x="577.5" y="-314.5" font-family="Helvetica,sans-Serif" font-size="10.00">Packed</text>
</a>
</g>
</g>
<!-- Node1&#45;&gt;Node6 -->
<g id="edge5" class="edge">
<title>Node1&#45;&gt;Node6</title>
<path fill="none" stroke="midnightblue" d="M411.95,-250.28C430.99,-264.34 460.64,-284.63 489,-297.5 497.2,-301.22 506.09,-304.52 514.95,-307.41"/>
<polygon fill="midnightblue" stroke="midnightblue" points="413.84,-247.33 403.74,-244.12 409.64,-252.93 413.84,-247.33"/>
</g>
<!-- Node7 -->
<g id="node7" class="node">
<title>Node7</title>
<g id="a_node7"><a xlink:href="class_ogre_1_1_g_l3_plus_tex_buffer_packed.html" target="_top" xlink:title=" ">
<polygon fill="none" stroke="black" points="495.5,-269 495.5,-288 659.5,-288 659.5,-269 495.5,-269"/>
<text text-anchor="middle" x="577.5" y="-276" font-family="Helvetica,sans-Serif" font-size="10.00">Ogre::GL3PlusTexBufferPacked</text>
</a>
</g>
</g>
<!-- Node1&#45;&gt;Node7 -->
<g id="edge6" class="edge">
<title>Node1&#45;&gt;Node7</title>
<path fill="none" stroke="midnightblue" d="M439.9,-246.58C455.55,-250.44 473,-254.7 489,-258.5 503.71,-261.99 519.83,-265.71 534.19,-268.98"/>
<polygon fill="midnightblue" stroke="midnightblue" points="440.45,-243.11 429.9,-244.11 438.77,-249.91 440.45,-243.11"/>
</g>
<!-- Node8 -->
<g id="node8" class="node">
<title>Node8</title>
<g id="a_node8"><a xlink:href="class_ogre_1_1_g_l_e_s2_tex_buffer_emulated_packed.html" target="_top" xlink:title=" ">
<polygon fill="none" stroke="black" points="493,-219.5 493,-249.5 662,-249.5 662,-219.5 493,-219.5"/>
<text text-anchor="start" x="501" y="-237.5" font-family="Helvetica,sans-Serif" font-size="10.00">Ogre::GLES2TexBufferEmulated</text>
<text text-anchor="middle" x="577.5" y="-226.5" font-family="Helvetica,sans-Serif" font-size="10.00">Packed</text>
</a>
</g>
</g>
<!-- Node1&#45;&gt;Node8 -->
<g id="edge7" class="edge">
<title>Node1&#45;&gt;Node8</title>
<path fill="none" stroke="midnightblue" d="M463.4,-234.5C473.03,-234.5 482.97,-234.5 492.77,-234.5"/>
<polygon fill="midnightblue" stroke="midnightblue" points="463.1,-231 453.1,-234.5 463.1,-238 463.1,-231"/>
</g>
<!-- Node9 -->
<g id="node9" class="node">
<title>Node9</title>
<g id="a_node9"><a xlink:href="class_ogre_1_1_n_u_l_l_tex_buffer_packed.html" target="_top" xlink:title=" ">
<polygon fill="none" stroke="black" points="502.5,-181 502.5,-200 652.5,-200 652.5,-181 502.5,-181"/>
<text text-anchor="middle" x="577.5" y="-188" font-family="Helvetica,sans-Serif" font-size="10.00">Ogre::NULLTexBufferPacked</text>
</a>
</g>
</g>
<!-- Node1&#45;&gt;Node9 -->
<g id="edge8" class="edge">
<title>Node1&#45;&gt;Node9</title>
<path fill="none" stroke="midnightblue" d="M437.35,-222.37C453.63,-218.16 472.1,-213.5 489,-209.5 502.61,-206.28 517.47,-202.97 531.01,-200.04"/>
<polygon fill="midnightblue" stroke="midnightblue" points="436.34,-219.02 427.54,-224.92 438.1,-225.79 436.34,-219.02"/>
</g>
<!-- Node10 -->
<g id="node10" class="node">
<title>Node10</title>
<g id="a_node10"><a xlink:href="class_ogre_1_1_read_only_buffer_packed.html" target="_top" xlink:title="Represents the best way to access read&#45;only data.">
<polygon fill="none" stroke="black" points="499.5,-143 499.5,-162 655.5,-162 655.5,-143 499.5,-143"/>
<text text-anchor="middle" x="577.5" y="-150" font-family="Helvetica,sans-Serif" font-size="10.00">Ogre::ReadOnlyBufferPacked</text>
</a>
</g>
</g>
<!-- Node1&#45;&gt;Node10 -->
<g id="edge9" class="edge">
<title>Node1&#45;&gt;Node10</title>
<path fill="none" stroke="midnightblue" d="M411.44,-218.52C430.35,-204.16 460.08,-183.51 489,-171.5 498.19,-167.68 508.25,-164.59 518.18,-162.09"/>
<polygon fill="midnightblue" stroke="midnightblue" points="409.08,-215.93 403.32,-224.82 413.37,-221.46 409.08,-215.93"/>
</g>
<!-- Node19 -->
<g id="node19" class="node">
<title>Node19</title>
<g id="a_node19"><a xlink:href="class_ogre_1_1_vulkan_tex_buffer_packed.html" target="_top" xlink:title=" ">
<polygon fill="none" stroke="black" points="498.5,-105 498.5,-124 656.5,-124 656.5,-105 498.5,-105"/>
<text text-anchor="middle" x="577.5" y="-112" font-family="Helvetica,sans-Serif" font-size="10.00">Ogre::VulkanTexBufferPacked</text>
</a>
</g>
</g>
<!-- Node1&#45;&gt;Node19 -->
<g id="edge18" class="edge">
<title>Node1&#45;&gt;Node19</title>
<path fill="none" stroke="midnightblue" d="M403.69,-216.41C420.22,-193.4 451.95,-154.15 489,-133.5 495.93,-129.64 503.56,-126.56 511.36,-124.11"/>
<polygon fill="midnightblue" stroke="midnightblue" points="400.61,-214.71 397.76,-224.91 406.35,-218.72 400.61,-214.71"/>
</g>
<!-- Node2 -->
<g id="node2" class="node">
<title>Node2</title>
<g id="a_node2"><a xlink:href="class_ogre_1_1_buffer_packed.html" target="_top" xlink:title=" ">
<polygon fill="none" stroke="black" points="183,-225 183,-244 292,-244 292,-225 183,-225"/>
<text text-anchor="middle" x="237.5" y="-232" font-family="Helvetica,sans-Serif" font-size="10.00">Ogre::BufferPacked</text>
</a>
</g>
</g>
<!-- Node2&#45;&gt;Node1 -->
<g id="edge1" class="edge">
<title>Node2&#45;&gt;Node1</title>
<path fill="none" stroke="midnightblue" d="M302.32,-234.5C310.75,-234.5 319.38,-234.5 327.77,-234.5"/>
<polygon fill="midnightblue" stroke="midnightblue" points="302.16,-231 292.16,-234.5 302.16,-238 302.16,-231"/>
</g>
<!-- Node3 -->
<g id="node3" class="node">
<title>Node3</title>
<g id="a_node3"><a xlink:href="struct_ogre_1_1_gpu_tracked_resource.html" target="_top" xlink:title=" ">
<polygon fill="none" stroke="black" points="0,-244 0,-263 147,-263 147,-244 0,-244"/>
<text text-anchor="middle" x="73.5" y="-251" font-family="Helvetica,sans-Serif" font-size="10.00">Ogre::GpuTrackedResource</text>
</a>
</g>
</g>
<!-- Node3&#45;&gt;Node2 -->
<g id="edge2" class="edge">
<title>Node3&#45;&gt;Node2</title>
<path fill="none" stroke="midnightblue" d="M157.54,-243.76C166.15,-242.75 174.72,-241.75 182.88,-240.79"/>
<polygon fill="midnightblue" stroke="midnightblue" points="156.97,-240.3 147.44,-244.94 157.78,-247.26 156.97,-240.3"/>
</g>
<!-- Node4 -->
<g id="node4" class="node">
<title>Node4</title>
<g id="a_node4"><a xlink:title=" ">
<polygon fill="none" stroke="#bfbfbf" points="22.5,-206 22.5,-225 124.5,-225 124.5,-206 22.5,-206"/>
<text text-anchor="middle" x="73.5" y="-213" font-family="Helvetica,sans-Serif" font-size="10.00">OgreAllocatedObj</text>
</a>
</g>
</g>
<!-- Node4&#45;&gt;Node2 -->
<g id="edge3" class="edge">
<title>Node4&#45;&gt;Node2</title>
<path fill="none" stroke="midnightblue" d="M135,-222.6C150.69,-224.44 167.48,-226.4 182.79,-228.2"/>
<polygon fill="midnightblue" stroke="midnightblue" points="135.21,-219.1 124.87,-221.41 134.39,-226.05 135.21,-219.1"/>
</g>
<!-- Node11 -->
<g id="node11" class="node">
<title>Node11</title>
<g id="a_node11"><a xlink:href="class_ogre_1_1_d3_d11_read_only_buffer_packed.html" target="_top" xlink:title=" ">
<polygon fill="none" stroke="black" points="705,-284.5 705,-314.5 860,-314.5 860,-284.5 705,-284.5"/>
<text text-anchor="start" x="713" y="-302.5" font-family="Helvetica,sans-Serif" font-size="10.00">Ogre::D3D11ReadOnlyBuffer</text>
<text text-anchor="middle" x="782.5" y="-291.5" font-family="Helvetica,sans-Serif" font-size="10.00">Packed</text>
</a>
</g>
</g>
<!-- Node10&#45;&gt;Node11 -->
<g id="edge10" class="edge">
<title>Node10&#45;&gt;Node11</title>
<path fill="none" stroke="midnightblue" d="M660.48,-167.2C662.4,-168.52 664.25,-169.95 666,-171.5 702.32,-203.63 667.17,-240.76 702,-274.5 705.95,-278.33 710.48,-281.57 715.32,-284.31"/>
<polygon fill="midnightblue" stroke="midnightblue" points="662,-164.03 651.59,-162.06 658.49,-170.09 662,-164.03"/>
</g>
<!-- Node12 -->
<g id="node12" class="node">
<title>Node12</title>
<g id="a_node12"><a xlink:href="class_ogre_1_1_g_l3_plus_read_only_buffer_emulated_packed.html" target="_top" xlink:title=" ">
<polygon fill="none" stroke="black" points="702,-235.5 702,-265.5 863,-265.5 863,-235.5 702,-235.5"/>
<text text-anchor="start" x="710" y="-253.5" font-family="Helvetica,sans-Serif" font-size="10.00">Ogre::GL3PlusReadOnlyBuffer</text>
<text text-anchor="middle" x="782.5" y="-242.5" font-family="Helvetica,sans-Serif" font-size="10.00">EmulatedPacked</text>
</a>
</g>
</g>
<!-- Node10&#45;&gt;Node12 -->
<g id="edge11" class="edge">
<title>Node10&#45;&gt;Node12</title>
<path fill="none" stroke="midnightblue" d="M656.8,-166.13C660,-167.73 663.09,-169.51 666,-171.5 689.83,-187.75 678.93,-208.19 702,-225.5 707.09,-229.32 712.78,-232.57 718.71,-235.32"/>
<polygon fill="midnightblue" stroke="midnightblue" points="658.07,-162.87 647.51,-162.08 655.28,-169.28 658.07,-162.87"/>
</g>
<!-- Node13 -->
<g id="node13" class="node">
<title>Node13</title>
<g id="a_node13"><a xlink:href="class_ogre_1_1_g_l3_plus_read_only_tex_buffer_packed.html" target="_top" xlink:title=" ">
<polygon fill="none" stroke="black" points="708,-186.5 708,-216.5 857,-216.5 857,-186.5 708,-186.5"/>
<text text-anchor="start" x="716" y="-204.5" font-family="Helvetica,sans-Serif" font-size="10.00">Ogre::GL3PlusReadOnlyTex</text>
<text text-anchor="middle" x="782.5" y="-193.5" font-family="Helvetica,sans-Serif" font-size="10.00">BufferPacked</text>
</a>
</g>
</g>
<!-- Node10&#45;&gt;Node13 -->
<g id="edge12" class="edge">
<title>Node10&#45;&gt;Node13</title>
<path fill="none" stroke="midnightblue" d="M634.03,-164.2C644.66,-166.55 655.69,-169.04 666,-171.5 685.45,-176.14 706.65,-181.54 725.51,-186.47"/>
<polygon fill="midnightblue" stroke="midnightblue" points="634.51,-160.73 623.99,-162.01 633.02,-167.57 634.51,-160.73"/>
</g>
<!-- Node14 -->
<g id="node14" class="node">
<title>Node14</title>
<g id="a_node14"><a xlink:href="class_ogre_1_1_g_l3_plus_read_only_uav_buffer_packed.html" target="_top" xlink:title=" ">
<polygon fill="none" stroke="black" points="706.5,-137.5 706.5,-167.5 858.5,-167.5 858.5,-137.5 706.5,-137.5"/>
<text text-anchor="start" x="714.5" y="-155.5" font-family="Helvetica,sans-Serif" font-size="10.00">Ogre::GL3PlusReadOnlyUav</text>
<text text-anchor="middle" x="782.5" y="-144.5" font-family="Helvetica,sans-Serif" font-size="10.00">BufferPacked</text>
</a>
</g>
</g>
<!-- Node10&#45;&gt;Node14 -->
<g id="edge13" class="edge">
<title>Node10&#45;&gt;Node14</title>
<path fill="none" stroke="midnightblue" d="M665.75,-152.5C679.21,-152.5 693.02,-152.5 706.2,-152.5"/>
<polygon fill="midnightblue" stroke="midnightblue" points="665.54,-149 655.54,-152.5 665.54,-156 665.54,-149"/>
</g>
<!-- Node15 -->
<g id="node15" class="node">
<title>Node15</title>
<g id="a_node15"><a xlink:href="class_ogre_1_1_metal_tex_buffer_packed.html" target="_top" xlink:title="In Metal, Tex and ReadOnly buffers are exactly the same, thus we derive from ReadOnlyBufferPacked to ...">
<polygon fill="none" stroke="black" points="706,-99 706,-118 859,-118 859,-99 706,-99"/>
<text text-anchor="middle" x="782.5" y="-106" font-family="Helvetica,sans-Serif" font-size="10.00">Ogre::MetalTexBufferPacked</text>
</a>
</g>
</g>
<!-- Node10&#45;&gt;Node15 -->
<g id="edge14" class="edge">
<title>Node10&#45;&gt;Node15</title>
<path fill="none" stroke="midnightblue" d="M632.44,-140.81C665.28,-133.69 706.7,-124.71 737.54,-118.03"/>
<polygon fill="midnightblue" stroke="midnightblue" points="631.58,-137.41 622.55,-142.95 633.06,-144.25 631.58,-137.41"/>
</g>
<!-- Node17 -->
<g id="node17" class="node">
<title>Node17</title>
<g id="a_node17"><a xlink:href="class_ogre_1_1_n_u_l_l_read_only_buffer_packed.html" target="_top" xlink:title=" ">
<polygon fill="none" stroke="black" points="708.5,-49.5 708.5,-79.5 856.5,-79.5 856.5,-49.5 708.5,-49.5"/>
<text text-anchor="start" x="716.5" y="-67.5" font-family="Helvetica,sans-Serif" font-size="10.00">Ogre::NULLReadOnlyBuffer</text>
<text text-anchor="middle" x="782.5" y="-56.5" font-family="Helvetica,sans-Serif" font-size="10.00">Packed</text>
</a>
</g>
</g>
<!-- Node10&#45;&gt;Node17 -->
<g id="edge16" class="edge">
<title>Node10&#45;&gt;Node17</title>
<path fill="none" stroke="midnightblue" d="M654.69,-139.35C658.62,-137.63 662.42,-135.69 666,-133.5 687.55,-120.31 681.07,-103.66 702,-89.5 707.63,-85.69 713.88,-82.43 720.32,-79.66"/>
<polygon fill="midnightblue" stroke="midnightblue" points="653.39,-136.1 645.32,-142.97 655.91,-142.63 653.39,-136.1"/>
</g>
<!-- Node18 -->
<g id="node18" class="node">
<title>Node18</title>
<g id="a_node18"><a xlink:href="class_ogre_1_1_vulkan_read_only_buffer_packed.html" target="_top" xlink:title=" ">
<polygon fill="none" stroke="black" points="705,-0.5 705,-30.5 860,-30.5 860,-0.5 705,-0.5"/>
<text text-anchor="start" x="713" y="-18.5" font-family="Helvetica,sans-Serif" font-size="10.00">Ogre::VulkanReadOnlyBuffer</text>
<text text-anchor="middle" x="782.5" y="-7.5" font-family="Helvetica,sans-Serif" font-size="10.00">Packed</text>
</a>
</g>
</g>
<!-- Node10&#45;&gt;Node18 -->
<g id="edge17" class="edge">
<title>Node10&#45;&gt;Node18</title>
<path fill="none" stroke="midnightblue" d="M660.42,-137.73C662.36,-136.43 664.23,-135.02 666,-133.5 699.94,-104.36 669.24,-69.97 702,-39.5 705.7,-36.06 709.87,-33.12 714.31,-30.59"/>
<polygon fill="midnightblue" stroke="midnightblue" points="658.44,-134.83 651.46,-142.8 661.89,-140.92 658.44,-134.83"/>
</g>
<!-- Node16 -->
<g id="node16" class="node">
<title>Node16</title>
<g id="a_node16"><a xlink:href="class_ogre_1_1_metal_read_only_buffer_packed.html" target="_top" xlink:title=" ">
<polygon fill="none" stroke="black" points="899,-93.5 899,-123.5 1049,-123.5 1049,-93.5 899,-93.5"/>
<text text-anchor="start" x="907" y="-111.5" font-family="Helvetica,sans-Serif" font-size="10.00">Ogre::MetalReadOnlyBuffer</text>
<text text-anchor="middle" x="974" y="-100.5" font-family="Helvetica,sans-Serif" font-size="10.00">Packed</text>
</a>
</g>
</g>
<!-- Node15&#45;&gt;Node16 -->
<g id="edge15" class="edge">
<title>Node15&#45;&gt;Node16</title>
<path fill="none" stroke="midnightblue" d="M869.42,-108.5C879.28,-108.5 889.27,-108.5 898.95,-108.5"/>
<polygon fill="midnightblue" stroke="midnightblue" points="869.21,-105 859.21,-108.5 869.21,-112 869.21,-105"/>
</g>
</g>
</svg>
