<?xml version="1.0" encoding="UTF-8" standalone="no"?>
<!DOCTYPE svg PUBLIC "-//W3C//DTD SVG 1.1//EN"
 "http://www.w3.org/Graphics/SVG/1.1/DTD/svg11.dtd">
<!-- Generated by graphviz version 2.43.0 (0)
 -->
<!-- Title: Ogre::StringInterface Pages: 1 -->
<svg width="693pt" height="1283pt"
 viewBox="0.00 0.00 693.00 1282.50" xmlns="http://www.w3.org/2000/svg" xmlns:xlink="http://www.w3.org/1999/xlink">
<g id="graph0" class="graph" transform="scale(1 1) rotate(0) translate(4 1278.5)">
<title>Ogre::StringInterface</title>
<!-- Node1 -->
<g id="Node000001" class="node">
<title>Node1</title>
<g id="a_Node000001"><a xlink:title="Class defining the common interface which classes can use to present a reflection&#45;style,...">
<polygon fill="#999999" stroke="#666666" points="118,-402.5 0,-402.5 0,-383.5 118,-383.5 118,-402.5"/>
<text text-anchor="middle" x="59" y="-390.5" font-family="Helvetica,sans-Serif" font-size="10.00">Ogre::StringInterface</text>
</a>
</g>
</g>
<!-- Node2 -->
<g id="Node000002" class="node">
<title>Node2</title>
<g id="a_Node000002"><a xlink:href="class_ogre_1_1_external_texture_source.html" target="_top" xlink:title="IMPORTANT: Plugins must override default dictionary name! Base class that texture plugins derive from...">
<polygon fill="white" stroke="#666666" points="313,-1086.5 158,-1086.5 158,-1067.5 313,-1067.5 313,-1086.5"/>
<text text-anchor="middle" x="235.5" y="-1074.5" font-family="Helvetica,sans-Serif" font-size="10.00">Ogre::ExternalTextureSource</text>
</a>
</g>
</g>
<!-- Node1&#45;&gt;Node2 -->
<g id="edge1_Node000001_Node000002" class="edge">
<title>Node1&#45;&gt;Node2</title>
<g id="a_edge1_Node000001_Node000002"><a xlink:title=" ">
<path fill="none" stroke="#63b8ff" d="M59.88,-412.94C59.72,-513.24 64.09,-961.62 154,-1059 157.01,-1062.26 160.47,-1065 164.23,-1067.29"/>
<polygon fill="#63b8ff" stroke="#63b8ff" points="63.39,-412.72 59.92,-402.71 56.39,-412.69 63.39,-412.72"/>
</a>
</g>
</g>
<!-- Node3 -->
<g id="Node000003" class="node">
<title>Node3</title>
<g id="a_Node000003"><a xlink:href="class_ogre_1_1_particle_affector.html" target="_top" xlink:title="Abstract class defining the interface to be implemented by particle affectors.">
<polygon fill="white" stroke="#666666" points="295.5,-1049.5 175.5,-1049.5 175.5,-1030.5 295.5,-1030.5 295.5,-1049.5"/>
<text text-anchor="middle" x="235.5" y="-1037.5" font-family="Helvetica,sans-Serif" font-size="10.00">Ogre::ParticleAffector</text>
</a>
</g>
</g>
<!-- Node1&#45;&gt;Node3 -->
<g id="edge2_Node000001_Node000003" class="edge">
<title>Node1&#45;&gt;Node3</title>
<g id="a_edge2_Node000001_Node000003"><a xlink:title=" ">
<path fill="none" stroke="#63b8ff" d="M65.27,-412.54C92.05,-511.84 212.56,-958.66 231.88,-1030.3"/>
<polygon fill="#63b8ff" stroke="#63b8ff" points="68.59,-411.39 62.6,-402.65 61.83,-413.21 68.59,-411.39"/>
</a>
</g>
</g>
<!-- Node14 -->
<g id="Node000014" class="node">
<title>Node14</title>
<g id="a_Node000014"><a xlink:href="class_ogre_1_1_particle_affector2.html" target="_top" xlink:title="Affectors are per ParticleSystemDef.">
<polygon fill="white" stroke="#666666" points="298.5,-677.5 172.5,-677.5 172.5,-658.5 298.5,-658.5 298.5,-677.5"/>
<text text-anchor="middle" x="235.5" y="-665.5" font-family="Helvetica,sans-Serif" font-size="10.00">Ogre::ParticleAffector2</text>
</a>
</g>
</g>
<!-- Node1&#45;&gt;Node14 -->
<g id="edge13_Node000001_Node000014" class="edge">
<title>Node1&#45;&gt;Node14</title>
<g id="a_edge13_Node000001_Node000014"><a xlink:title=" ">
<path fill="none" stroke="#63b8ff" d="M71.57,-411.24C105.33,-464.43 202.9,-618.2 228.36,-658.33"/>
<polygon fill="#63b8ff" stroke="#63b8ff" points="74.52,-409.36 66.21,-402.79 68.61,-413.11 74.52,-409.36"/>
</a>
</g>
</g>
<!-- Node25 -->
<g id="Node000025" class="node">
<title>Node25</title>
<g id="a_Node000025"><a xlink:href="class_ogre_1_1_particle_emitter.html" target="_top" xlink:title="Abstract class defining the interface to be implemented by particle emitters.">
<polygon fill="white" stroke="#666666" points="294.5,-439.5 176.5,-439.5 176.5,-420.5 294.5,-420.5 294.5,-439.5"/>
<text text-anchor="middle" x="235.5" y="-427.5" font-family="Helvetica,sans-Serif" font-size="10.00">Ogre::ParticleEmitter</text>
</a>
</g>
</g>
<!-- Node1&#45;&gt;Node25 -->
<g id="edge24_Node000001_Node000025" class="edge">
<title>Node1&#45;&gt;Node25</title>
<g id="a_edge24_Node000001_Node000025"><a xlink:title=" ">
<path fill="none" stroke="#63b8ff" d="M114.95,-404.65C138.92,-409.73 166.68,-415.62 189.41,-420.44"/>
<polygon fill="#63b8ff" stroke="#63b8ff" points="115.45,-401.18 104.94,-402.53 113.99,-408.03 115.45,-401.18"/>
</a>
</g>
</g>
<!-- Node41 -->
<g id="Node000041" class="node">
<title>Node41</title>
<g id="a_Node000041"><a xlink:href="class_ogre_1_1_particle_system.html" target="_top" xlink:title="Class defining particle system based special effects.">
<polygon fill="white" stroke="#666666" points="295,-384.5 176,-384.5 176,-365.5 295,-365.5 295,-384.5"/>
<text text-anchor="middle" x="235.5" y="-372.5" font-family="Helvetica,sans-Serif" font-size="10.00">Ogre::ParticleSystem</text>
</a>
</g>
</g>
<!-- Node1&#45;&gt;Node41 -->
<g id="edge34_Node000001_Node000041" class="edge">
<title>Node1&#45;&gt;Node41</title>
<g id="a_edge34_Node000001_Node000041"><a xlink:title=" ">
<path fill="none" stroke="#63b8ff" d="M128.27,-385.96C143.96,-384.34 160.51,-382.63 175.75,-381.06"/>
<polygon fill="#63b8ff" stroke="#63b8ff" points="127.69,-382.5 118.11,-387.01 128.41,-389.46 127.69,-382.5"/>
</a>
</g>
</g>
<!-- Node44 -->
<g id="Node000044" class="node">
<title>Node44</title>
<g id="a_Node000044"><a xlink:href="class_ogre_1_1_particle_system_renderer.html" target="_top" xlink:title="Abstract class defining the interface required to be implemented by classes which provide rendering c...">
<polygon fill="white" stroke="#666666" points="317,-339.5 154,-339.5 154,-320.5 317,-320.5 317,-339.5"/>
<text text-anchor="middle" x="235.5" y="-327.5" font-family="Helvetica,sans-Serif" font-size="10.00">Ogre::ParticleSystemRenderer</text>
</a>
</g>
</g>
<!-- Node1&#45;&gt;Node44 -->
<g id="edge37_Node000001_Node000044" class="edge">
<title>Node1&#45;&gt;Node44</title>
<g id="a_edge37_Node000001_Node000044"><a xlink:title=" ">
<path fill="none" stroke="#63b8ff" d="M93.66,-379.72C111.52,-372.77 133.88,-364.22 154,-357 170.79,-350.97 189.69,-344.61 204.96,-339.58"/>
<polygon fill="#63b8ff" stroke="#63b8ff" points="92.28,-376.5 84.24,-383.39 94.83,-383.02 92.28,-376.5"/>
</a>
</g>
</g>
<!-- Node46 -->
<g id="Node000046" class="node">
<title>Node46</title>
<g id="a_Node000046"><a xlink:href="class_ogre_1_1_resource.html" target="_top" xlink:title="Abstract class representing a loadable resource (e.g.">
<polygon fill="white" stroke="#666666" points="281,-215.5 190,-215.5 190,-196.5 281,-196.5 281,-215.5"/>
<text text-anchor="middle" x="235.5" y="-203.5" font-family="Helvetica,sans-Serif" font-size="10.00">Ogre::Resource</text>
</a>
</g>
</g>
<!-- Node1&#45;&gt;Node46 -->
<g id="edge39_Node000001_Node000046" class="edge">
<title>Node1&#45;&gt;Node46</title>
<g id="a_edge39_Node000001_Node000046"><a xlink:title=" ">
<path fill="none" stroke="#63b8ff" d="M76.14,-375.71C112,-337.27 197.39,-245.77 225.42,-215.74"/>
<polygon fill="#63b8ff" stroke="#63b8ff" points="73.16,-373.77 68.89,-383.47 78.27,-378.55 73.16,-373.77"/>
</a>
</g>
</g>
<!-- Node61 -->
<g id="Node000061" class="node">
<title>Node61</title>
<g id="a_Node000061"><a xlink:href="class_ogre_1_1v1_1_1_overlay_element.html" target="_top" xlink:title="Abstract definition of a 2D element to be displayed in an Overlay.">
<polygon fill="white" stroke="#666666" points="307,-67.5 164,-67.5 164,-48.5 307,-48.5 307,-67.5"/>
<text text-anchor="middle" x="235.5" y="-55.5" font-family="Helvetica,sans-Serif" font-size="10.00">Ogre::v1::OverlayElement</text>
</a>
</g>
</g>
<!-- Node1&#45;&gt;Node61 -->
<g id="edge46_Node000001_Node000061" class="edge">
<title>Node1&#45;&gt;Node61</title>
<g id="a_edge46_Node000001_Node000061"><a xlink:title=" ">
<path fill="none" stroke="#63b8ff" d="M67.8,-373.94C83.01,-337.25 118.3,-254.58 154,-188 178.96,-141.44 213.76,-88.71 228.02,-67.54"/>
<polygon fill="#63b8ff" stroke="#63b8ff" points="64.48,-372.82 63.9,-383.4 70.95,-375.49 64.48,-372.82"/>
</a>
</g>
</g>
<!-- Node4 -->
<g id="Node000004" class="node">
<title>Node4</title>
<g id="a_Node000004"><a xlink:href="class_ogre_1_1_colour_fader_affector.html" target="_top" xlink:title="This plugin subclass of ParticleAffector allows you to alter the colour of particles.">
<polygon fill="white" stroke="#666666" points="510.5,-1274.5 368.5,-1274.5 368.5,-1255.5 510.5,-1255.5 510.5,-1274.5"/>
<text text-anchor="middle" x="439.5" y="-1262.5" font-family="Helvetica,sans-Serif" font-size="10.00">Ogre::ColourFaderAffector</text>
</a>
</g>
</g>
<!-- Node3&#45;&gt;Node4 -->
<g id="edge3_Node000003_Node000004" class="edge">
<title>Node3&#45;&gt;Node4</title>
<g id="a_edge3_Node000003_Node000004"><a xlink:title=" ">
<path fill="none" stroke="#63b8ff" d="M305.11,-1049.91C309.48,-1052.37 313.52,-1055.37 317,-1059 375.86,-1120.42 293.4,-1186.3 353,-1247 357.36,-1251.44 362.51,-1254.92 368.1,-1257.63"/>
<polygon fill="#63b8ff" stroke="#63b8ff" points="306.27,-1046.59 295.73,-1045.57 303.33,-1052.95 306.27,-1046.59"/>
</a>
</g>
</g>
<!-- Node5 -->
<g id="Node000005" class="node">
<title>Node5</title>
<g id="a_Node000005"><a xlink:href="class_ogre_1_1_colour_fader_affector2.html" target="_top" xlink:title="This plugin subclass of ParticleAffector allows you to alter the colour of particles.">
<polygon fill="white" stroke="#666666" points="513.5,-1237.5 365.5,-1237.5 365.5,-1218.5 513.5,-1218.5 513.5,-1237.5"/>
<text text-anchor="middle" x="439.5" y="-1225.5" font-family="Helvetica,sans-Serif" font-size="10.00">Ogre::ColourFaderAffector2</text>
</a>
</g>
</g>
<!-- Node3&#45;&gt;Node5 -->
<g id="edge4_Node000003_Node000005" class="edge">
<title>Node3&#45;&gt;Node5</title>
<g id="a_edge4_Node000003_Node000005"><a xlink:title=" ">
<path fill="none" stroke="#63b8ff" d="M305.16,-1050.21C309.48,-1052.61 313.5,-1055.51 317,-1059 365.84,-1107.73 303.57,-1161.87 353,-1210 356.69,-1213.6 360.92,-1216.56 365.46,-1218.99"/>
<polygon fill="#63b8ff" stroke="#63b8ff" points="306.44,-1046.95 295.9,-1045.96 303.52,-1053.31 306.44,-1046.95"/>
</a>
</g>
</g>
<!-- Node6 -->
<g id="Node000006" class="node">
<title>Node6</title>
<g id="a_Node000006"><a xlink:href="class_ogre_1_1_colour_image_affector.html" target="_top" xlink:title=" ">
<polygon fill="white" stroke="#666666" points="512.5,-1200.5 366.5,-1200.5 366.5,-1181.5 512.5,-1181.5 512.5,-1200.5"/>
<text text-anchor="middle" x="439.5" y="-1188.5" font-family="Helvetica,sans-Serif" font-size="10.00">Ogre::ColourImageAffector</text>
</a>
</g>
</g>
<!-- Node3&#45;&gt;Node6 -->
<g id="edge5_Node000003_Node000006" class="edge">
<title>Node3&#45;&gt;Node6</title>
<g id="a_edge5_Node000003_Node000006"><a xlink:title=" ">
<path fill="none" stroke="#63b8ff" d="M304.87,-1050.51C309.26,-1052.84 313.37,-1055.64 317,-1059 355.67,-1094.82 314.09,-1136.44 353,-1172 357.15,-1175.8 361.89,-1178.89 366.96,-1181.41"/>
<polygon fill="#63b8ff" stroke="#63b8ff" points="306.07,-1047.21 295.51,-1046.36 303.23,-1053.61 306.07,-1047.21"/>
</a>
</g>
</g>
<!-- Node7 -->
<g id="Node000007" class="node">
<title>Node7</title>
<g id="a_Node000007"><a xlink:href="class_ogre_1_1_colour_interpolator_affector.html" target="_top" xlink:title=" ">
<polygon fill="white" stroke="#666666" points="506.5,-1163 372.5,-1163 372.5,-1133 506.5,-1133 506.5,-1163"/>
<text text-anchor="start" x="380.5" y="-1151" font-family="Helvetica,sans-Serif" font-size="10.00">Ogre::ColourInterpolator</text>
<text text-anchor="middle" x="439.5" y="-1140" font-family="Helvetica,sans-Serif" font-size="10.00">Affector</text>
</a>
</g>
</g>
<!-- Node3&#45;&gt;Node7 -->
<g id="edge6_Node000003_Node000007" class="edge">
<title>Node3&#45;&gt;Node7</title>
<g id="a_edge6_Node000003_Node000007"><a xlink:title=" ">
<path fill="none" stroke="#63b8ff" d="M305.21,-1051.85C309.38,-1053.88 313.36,-1056.24 317,-1059 343.32,-1078.94 327.1,-1103.51 353,-1124 358.8,-1128.59 365.44,-1132.31 372.38,-1135.31"/>
<polygon fill="#63b8ff" stroke="#63b8ff" points="306.38,-1048.55 295.81,-1047.92 303.69,-1055.01 306.38,-1048.55"/>
</a>
</g>
</g>
<!-- Node8 -->
<g id="Node000008" class="node">
<title>Node8</title>
<g id="a_Node000008"><a xlink:href="class_ogre_1_1_deflector_plane_affector.html" target="_top" xlink:title="This class defines a ParticleAffector which deflects particles.">
<polygon fill="white" stroke="#666666" points="517,-1114.5 362,-1114.5 362,-1095.5 517,-1095.5 517,-1114.5"/>
<text text-anchor="middle" x="439.5" y="-1102.5" font-family="Helvetica,sans-Serif" font-size="10.00">Ogre::DeflectorPlaneAffector</text>
</a>
</g>
</g>
<!-- Node3&#45;&gt;Node8 -->
<g id="edge7_Node000003_Node000008" class="edge">
<title>Node3&#45;&gt;Node8</title>
<g id="a_edge7_Node000003_Node000008"><a xlink:title=" ">
<path fill="none" stroke="#63b8ff" d="M300.45,-1052.5C306.16,-1054.39 311.75,-1056.54 317,-1059 335.12,-1067.48 334.83,-1077.64 353,-1086 361.43,-1089.88 370.69,-1092.98 379.92,-1095.47"/>
<polygon fill="#63b8ff" stroke="#63b8ff" points="301.39,-1049.13 290.8,-1049.58 299.36,-1055.83 301.39,-1049.13"/>
</a>
</g>
</g>
<!-- Node9 -->
<g id="Node000009" class="node">
<title>Node9</title>
<g id="a_Node000009"><a xlink:href="class_ogre_1_1_direction_randomiser_affector.html" target="_top" xlink:title="This class defines a ParticleAffector which applies randomness to the movement of the particles.">
<polygon fill="white" stroke="#666666" points="514,-1077 365,-1077 365,-1047 514,-1047 514,-1077"/>
<text text-anchor="start" x="373" y="-1065" font-family="Helvetica,sans-Serif" font-size="10.00">Ogre::DirectionRandomiser</text>
<text text-anchor="middle" x="439.5" y="-1054" font-family="Helvetica,sans-Serif" font-size="10.00">Affector</text>
</a>
</g>
</g>
<!-- Node3&#45;&gt;Node9 -->
<g id="edge8_Node000003_Node000009" class="edge">
<title>Node3&#45;&gt;Node9</title>
<g id="a_edge8_Node000003_Node000009"><a xlink:title=" ">
<path fill="none" stroke="#63b8ff" d="M305.84,-1047.55C324.89,-1049.63 345.62,-1051.88 364.91,-1053.99"/>
<polygon fill="#63b8ff" stroke="#63b8ff" points="306.06,-1044.06 295.74,-1046.45 305.3,-1051.01 306.06,-1044.06"/>
</a>
</g>
</g>
<!-- Node10 -->
<g id="Node000010" class="node">
<title>Node10</title>
<g id="a_Node000010"><a xlink:href="class_ogre_1_1_linear_force_affector.html" target="_top" xlink:title="This class defines a ParticleAffector which applies a linear force to particles in a system.">
<polygon fill="white" stroke="#666666" points="509.5,-1028.5 369.5,-1028.5 369.5,-1009.5 509.5,-1009.5 509.5,-1028.5"/>
<text text-anchor="middle" x="439.5" y="-1016.5" font-family="Helvetica,sans-Serif" font-size="10.00">Ogre::LinearForceAffector</text>
</a>
</g>
</g>
<!-- Node3&#45;&gt;Node10 -->
<g id="edge9_Node000003_Node000010" class="edge">
<title>Node3&#45;&gt;Node10</title>
<g id="a_edge9_Node000003_Node000010"><a xlink:title=" ">
<path fill="none" stroke="#63b8ff" d="M305.94,-1032.78C326.42,-1030.65 348.82,-1028.32 369.29,-1026.2"/>
<polygon fill="#63b8ff" stroke="#63b8ff" points="305.33,-1029.33 295.74,-1033.84 306.05,-1036.29 305.33,-1029.33"/>
</a>
</g>
</g>
<!-- Node11 -->
<g id="Node000011" class="node">
<title>Node11</title>
<g id="a_Node000011"><a xlink:href="class_ogre_1_1_rotation_affector.html" target="_top" xlink:title="This plugin subclass of ParticleAffector allows you to alter the rotation of particles.">
<polygon fill="white" stroke="#666666" points="502,-991.5 377,-991.5 377,-972.5 502,-972.5 502,-991.5"/>
<text text-anchor="middle" x="439.5" y="-979.5" font-family="Helvetica,sans-Serif" font-size="10.00">Ogre::RotationAffector</text>
</a>
</g>
</g>
<!-- Node3&#45;&gt;Node11 -->
<g id="edge10_Node000003_Node000011" class="edge">
<title>Node3&#45;&gt;Node11</title>
<g id="a_edge10_Node000003_Node000011"><a xlink:title=" ">
<path fill="none" stroke="#63b8ff" d="M272.27,-1026.95C295.16,-1018.86 325.61,-1008.61 353,-1001 365.31,-997.58 378.74,-994.36 391.24,-991.58"/>
<polygon fill="#63b8ff" stroke="#63b8ff" points="270.88,-1023.73 262.63,-1030.38 273.23,-1030.32 270.88,-1023.73"/>
</a>
</g>
</g>
<!-- Node12 -->
<g id="Node000012" class="node">
<title>Node12</title>
<g id="a_Node000012"><a xlink:href="class_ogre_1_1_scale_affector.html" target="_top" xlink:title="This plugin subclass of ParticleAffector allows you to alter the scale of particles.">
<polygon fill="white" stroke="#666666" points="494.5,-954.5 384.5,-954.5 384.5,-935.5 494.5,-935.5 494.5,-954.5"/>
<text text-anchor="middle" x="439.5" y="-942.5" font-family="Helvetica,sans-Serif" font-size="10.00">Ogre::ScaleAffector</text>
</a>
</g>
</g>
<!-- Node3&#45;&gt;Node12 -->
<g id="edge11_Node000003_Node000012" class="edge">
<title>Node3&#45;&gt;Node12</title>
<g id="a_edge11_Node000003_Node000012"><a xlink:title=" ">
<path fill="none" stroke="#63b8ff" d="M255.89,-1024.18C278.05,-1006.88 316.06,-979.55 353,-964 362.81,-959.87 373.65,-956.58 384.22,-953.98"/>
<polygon fill="#63b8ff" stroke="#63b8ff" points="253.59,-1021.53 247.94,-1030.49 257.94,-1027.01 253.59,-1021.53"/>
</a>
</g>
</g>
<!-- Node13 -->
<g id="Node000013" class="node">
<title>Node13</title>
<g id="a_Node000013"><a xlink:href="class_ogre_1_1_scale_interpolator_affector.html" target="_top" xlink:title=" ">
<polygon fill="white" stroke="#666666" points="523,-917.5 356,-917.5 356,-898.5 523,-898.5 523,-917.5"/>
<text text-anchor="middle" x="439.5" y="-905.5" font-family="Helvetica,sans-Serif" font-size="10.00">Ogre::ScaleInterpolatorAffector</text>
</a>
</g>
</g>
<!-- Node3&#45;&gt;Node13 -->
<g id="edge12_Node000003_Node000013" class="edge">
<title>Node3&#45;&gt;Node13</title>
<g id="a_edge12_Node000003_Node000013"><a xlink:title=" ">
<path fill="none" stroke="#63b8ff" d="M249.47,-1022.32C268.98,-997.05 308.4,-951.04 353,-927 360.23,-923.1 368.21,-920.01 376.31,-917.54"/>
<polygon fill="#63b8ff" stroke="#63b8ff" points="246.66,-1020.23 243.42,-1030.32 252.24,-1024.45 246.66,-1020.23"/>
</a>
</g>
</g>
<!-- Node15 -->
<g id="Node000015" class="node">
<title>Node15</title>
<g id="a_Node000015"><a xlink:href="class_ogre_1_1_colour_fader_affector2_f_x2.html" target="_top" xlink:title="This plugin subclass of ParticleAffector allows you to alter the colour of particles.">
<polygon fill="white" stroke="#666666" points="523,-880.5 356,-880.5 356,-861.5 523,-861.5 523,-880.5"/>
<text text-anchor="middle" x="439.5" y="-868.5" font-family="Helvetica,sans-Serif" font-size="10.00">Ogre::ColourFaderAffector2FX2</text>
</a>
</g>
</g>
<!-- Node14&#45;&gt;Node15 -->
<g id="edge14_Node000014_Node000015" class="edge">
<title>Node14&#45;&gt;Node15</title>
<g id="a_edge14_Node000014_Node000015"><a xlink:title=" ">
<path fill="none" stroke="#63b8ff" d="M242.89,-687.44C256.54,-725.71 292.33,-810.76 353,-853 357.86,-856.38 363.22,-859.15 368.81,-861.41"/>
<polygon fill="#63b8ff" stroke="#63b8ff" points="246.06,-685.88 239.5,-677.56 239.44,-688.15 246.06,-685.88"/>
</a>
</g>
</g>
<!-- Node16 -->
<g id="Node000016" class="node">
<title>Node16</title>
<g id="a_Node000016"><a xlink:href="class_ogre_1_1_colour_fader_affector_f_x2.html" target="_top" xlink:title="This plugin subclass of ParticleAffector allows you to alter the colour of particles.">
<polygon fill="white" stroke="#666666" points="520,-843.5 359,-843.5 359,-824.5 520,-824.5 520,-843.5"/>
<text text-anchor="middle" x="439.5" y="-831.5" font-family="Helvetica,sans-Serif" font-size="10.00">Ogre::ColourFaderAffectorFX2</text>
</a>
</g>
</g>
<!-- Node14&#45;&gt;Node16 -->
<g id="edge15_Node000014_Node000016" class="edge">
<title>Node14&#45;&gt;Node16</title>
<g id="a_edge15_Node000014_Node000016"><a xlink:title=" ">
<path fill="none" stroke="#63b8ff" d="M245.82,-687.07C262.55,-719.17 300.86,-783.62 353,-816 358.54,-819.44 364.63,-822.23 370.93,-824.5"/>
<polygon fill="#63b8ff" stroke="#63b8ff" points="248.8,-685.21 241.16,-677.87 242.56,-688.38 248.8,-685.21"/>
</a>
</g>
</g>
<!-- Node17 -->
<g id="Node000017" class="node">
<title>Node17</title>
<g id="a_Node000017"><a xlink:href="class_ogre_1_1_colour_image_affector2.html" target="_top" xlink:title=" ">
<polygon fill="white" stroke="#666666" points="515.5,-806.5 363.5,-806.5 363.5,-787.5 515.5,-787.5 515.5,-806.5"/>
<text text-anchor="middle" x="439.5" y="-794.5" font-family="Helvetica,sans-Serif" font-size="10.00">Ogre::ColourImageAffector2</text>
</a>
</g>
</g>
<!-- Node14&#45;&gt;Node17 -->
<g id="edge16_Node000014_Node000017" class="edge">
<title>Node14&#45;&gt;Node17</title>
<g id="a_edge16_Node000014_Node000017"><a xlink:title=" ">
<path fill="none" stroke="#63b8ff" d="M250.13,-685.9C269.97,-710.62 309.23,-754.78 353,-778 360.25,-781.85 368.25,-784.92 376.36,-787.37"/>
<polygon fill="#63b8ff" stroke="#63b8ff" points="252.66,-683.45 243.73,-677.75 247.15,-687.77 252.66,-683.45"/>
</a>
</g>
</g>
<!-- Node18 -->
<g id="Node000018" class="node">
<title>Node18</title>
<g id="a_Node000018"><a xlink:href="class_ogre_1_1_colour_interpolator_affector2.html" target="_top" xlink:title=" ">
<polygon fill="white" stroke="#666666" points="506.5,-769 372.5,-769 372.5,-739 506.5,-739 506.5,-769"/>
<text text-anchor="start" x="380.5" y="-757" font-family="Helvetica,sans-Serif" font-size="10.00">Ogre::ColourInterpolator</text>
<text text-anchor="middle" x="439.5" y="-746" font-family="Helvetica,sans-Serif" font-size="10.00">Affector2</text>
</a>
</g>
</g>
<!-- Node14&#45;&gt;Node18 -->
<g id="edge17_Node000014_Node000018" class="edge">
<title>Node14&#45;&gt;Node18</title>
<g id="a_edge17_Node000014_Node000018"><a xlink:title=" ">
<path fill="none" stroke="#63b8ff" d="M260.56,-682.78C283.62,-696.47 319.73,-716.66 353,-730 361.16,-733.27 369.92,-736.27 378.61,-738.97"/>
<polygon fill="#63b8ff" stroke="#63b8ff" points="262.19,-679.68 251.81,-677.53 258.58,-685.68 262.19,-679.68"/>
</a>
</g>
</g>
<!-- Node19 -->
<g id="Node000019" class="node">
<title>Node19</title>
<g id="a_Node000019"><a xlink:href="class_ogre_1_1_deflector_plane_affector2.html" target="_top" xlink:title="This class defines a ParticleAffector which deflects particles.">
<polygon fill="white" stroke="#666666" points="520,-720.5 359,-720.5 359,-701.5 520,-701.5 520,-720.5"/>
<text text-anchor="middle" x="439.5" y="-708.5" font-family="Helvetica,sans-Serif" font-size="10.00">Ogre::DeflectorPlaneAffector2</text>
</a>
</g>
</g>
<!-- Node14&#45;&gt;Node19 -->
<g id="edge18_Node000014_Node000019" class="edge">
<title>Node14&#45;&gt;Node19</title>
<g id="a_edge18_Node000014_Node000019"><a xlink:title=" ">
<path fill="none" stroke="#63b8ff" d="M291.46,-679.7C323.59,-686.54 363.62,-695.06 393.79,-701.48"/>
<polygon fill="#63b8ff" stroke="#63b8ff" points="291.84,-676.2 281.33,-677.54 290.38,-683.05 291.84,-676.2"/>
</a>
</g>
</g>
<!-- Node20 -->
<g id="Node000020" class="node">
<title>Node20</title>
<g id="a_Node000020"><a xlink:href="class_ogre_1_1_direction_randomiser_affector2.html" target="_top" xlink:title="This class defines a ParticleAffector which applies randomness to the movement of the particles.">
<polygon fill="white" stroke="#666666" points="514,-683 365,-683 365,-653 514,-653 514,-683"/>
<text text-anchor="start" x="373" y="-671" font-family="Helvetica,sans-Serif" font-size="10.00">Ogre::DirectionRandomiser</text>
<text text-anchor="middle" x="439.5" y="-660" font-family="Helvetica,sans-Serif" font-size="10.00">Affector2</text>
</a>
</g>
</g>
<!-- Node14&#45;&gt;Node20 -->
<g id="edge19_Node000014_Node000020" class="edge">
<title>Node14&#45;&gt;Node20</title>
<g id="a_edge19_Node000014_Node000020"><a xlink:title=" ">
<path fill="none" stroke="#63b8ff" d="M308.96,-668C327.09,-668 346.56,-668 364.75,-668"/>
<polygon fill="#63b8ff" stroke="#63b8ff" points="308.75,-664.5 298.75,-668 308.75,-671.5 308.75,-664.5"/>
</a>
</g>
</g>
<!-- Node21 -->
<g id="Node000021" class="node">
<title>Node21</title>
<g id="a_Node000021"><a xlink:href="class_ogre_1_1_linear_force_affector2.html" target="_top" xlink:title="This class defines a ParticleAffector which applies a linear force to particles in a system.">
<polygon fill="white" stroke="#666666" points="512.5,-634.5 366.5,-634.5 366.5,-615.5 512.5,-615.5 512.5,-634.5"/>
<text text-anchor="middle" x="439.5" y="-622.5" font-family="Helvetica,sans-Serif" font-size="10.00">Ogre::LinearForceAffector2</text>
</a>
</g>
</g>
<!-- Node14&#45;&gt;Node21 -->
<g id="edge20_Node000014_Node000021" class="edge">
<title>Node14&#45;&gt;Node21</title>
<g id="a_edge20_Node000014_Node000021"><a xlink:title=" ">
<path fill="none" stroke="#63b8ff" d="M291.46,-656.3C323.59,-649.46 363.62,-640.94 393.79,-634.52"/>
<polygon fill="#63b8ff" stroke="#63b8ff" points="290.38,-652.95 281.33,-658.46 291.84,-659.8 290.38,-652.95"/>
</a>
</g>
</g>
<!-- Node22 -->
<g id="Node000022" class="node">
<title>Node22</title>
<g id="a_Node000022"><a xlink:href="class_ogre_1_1_rotation_affector2.html" target="_top" xlink:title="This plugin subclass of ParticleAffector allows you to alter the rotation of particles.">
<polygon fill="white" stroke="#666666" points="505,-597.5 374,-597.5 374,-578.5 505,-578.5 505,-597.5"/>
<text text-anchor="middle" x="439.5" y="-585.5" font-family="Helvetica,sans-Serif" font-size="10.00">Ogre::RotationAffector2</text>
</a>
</g>
</g>
<!-- Node14&#45;&gt;Node22 -->
<g id="edge21_Node000014_Node000022" class="edge">
<title>Node14&#45;&gt;Node22</title>
<g id="a_edge21_Node000014_Node000022"><a xlink:title=" ">
<path fill="none" stroke="#63b8ff" d="M260.43,-653.06C283.4,-639.32 319.45,-619.26 353,-607 363.28,-603.24 374.54,-600.09 385.42,-597.51"/>
<polygon fill="#63b8ff" stroke="#63b8ff" points="258.46,-650.17 251.73,-658.35 262.09,-656.15 258.46,-650.17"/>
</a>
</g>
</g>
<!-- Node23 -->
<g id="Node000023" class="node">
<title>Node23</title>
<g id="a_Node000023"><a xlink:href="class_ogre_1_1_scale_affector2.html" target="_top" xlink:title="This plugin subclass of ParticleAffector allows you to alter the scale of particles.">
<polygon fill="white" stroke="#666666" points="497.5,-560.5 381.5,-560.5 381.5,-541.5 497.5,-541.5 497.5,-560.5"/>
<text text-anchor="middle" x="439.5" y="-548.5" font-family="Helvetica,sans-Serif" font-size="10.00">Ogre::ScaleAffector2</text>
</a>
</g>
</g>
<!-- Node14&#45;&gt;Node23 -->
<g id="edge22_Node000014_Node000023" class="edge">
<title>Node14&#45;&gt;Node23</title>
<g id="a_edge22_Node000014_Node000023"><a xlink:title=" ">
<path fill="none" stroke="#63b8ff" d="M251.77,-650.81C272.46,-628.63 311.61,-590.46 353,-570 361.72,-565.69 371.43,-562.34 381.08,-559.76"/>
<polygon fill="#63b8ff" stroke="#63b8ff" points="248.94,-648.72 244.77,-658.46 254.1,-653.44 248.94,-648.72"/>
</a>
</g>
</g>
<!-- Node24 -->
<g id="Node000024" class="node">
<title>Node24</title>
<g id="a_Node000024"><a xlink:href="class_ogre_1_1_scale_interpolator_affector2.html" target="_top" xlink:title=" ">
<polygon fill="white" stroke="#666666" points="526,-523.5 353,-523.5 353,-504.5 526,-504.5 526,-523.5"/>
<text text-anchor="middle" x="439.5" y="-511.5" font-family="Helvetica,sans-Serif" font-size="10.00">Ogre::ScaleInterpolatorAffector2</text>
</a>
</g>
</g>
<!-- Node14&#45;&gt;Node24 -->
<g id="edge23_Node000014_Node000024" class="edge">
<title>Node14&#45;&gt;Node24</title>
<g id="a_edge23_Node000014_Node000024"><a xlink:title=" ">
<path fill="none" stroke="#63b8ff" d="M247.05,-649.43C264.86,-619.85 303.82,-562.4 353,-533 359.53,-529.1 366.76,-526 374.19,-523.53"/>
<polygon fill="#63b8ff" stroke="#63b8ff" points="243.88,-647.91 241.83,-658.31 249.91,-651.46 243.88,-647.91"/>
</a>
</g>
</g>
<!-- Node26 -->
<g id="Node000026" class="node">
<title>Node26</title>
<g id="a_Node000026"><a xlink:href="class_ogre_1_1_area_emitter.html" target="_top" xlink:title="Particle emitter which emits particles randomly from points inside an area (box, sphere,...">
<polygon fill="white" stroke="#666666" points="491.5,-486.5 387.5,-486.5 387.5,-467.5 491.5,-467.5 491.5,-486.5"/>
<text text-anchor="middle" x="439.5" y="-474.5" font-family="Helvetica,sans-Serif" font-size="10.00">Ogre::AreaEmitter</text>
</a>
</g>
</g>
<!-- Node25&#45;&gt;Node26 -->
<g id="edge25_Node000025_Node000026" class="edge">
<title>Node25&#45;&gt;Node26</title>
<g id="a_edge25_Node000025_Node000026"><a xlink:title=" ">
<path fill="none" stroke="#63b8ff" d="M283.16,-442.03C304.42,-447.4 329.94,-453.7 353,-459 365.57,-461.89 379.21,-464.84 391.84,-467.5"/>
<polygon fill="#63b8ff" stroke="#63b8ff" points="283.96,-438.62 273.41,-439.55 282.24,-445.41 283.96,-438.62"/>
</a>
</g>
</g>
<!-- Node32 -->
<g id="Node000032" class="node">
<title>Node32</title>
<g id="a_Node000032"><a xlink:href="class_ogre_1_1_emitter_def_data.html" target="_top" xlink:title="EmitterDefData are per ParticleSystemDef.">
<polygon fill="white" stroke="#666666" points="500.5,-449.5 378.5,-449.5 378.5,-430.5 500.5,-430.5 500.5,-449.5"/>
<text text-anchor="middle" x="439.5" y="-437.5" font-family="Helvetica,sans-Serif" font-size="10.00">Ogre::EmitterDefData</text>
</a>
</g>
</g>
<!-- Node25&#45;&gt;Node32 -->
<g id="edge30_Node000025_Node000032" class="edge">
<title>Node25&#45;&gt;Node32</title>
<g id="a_edge30_Node000025_Node000032"><a xlink:title=" ">
<path fill="none" stroke="#8b1a1a" d="M304.69,-433.38C328.55,-434.56 355.14,-435.87 378.3,-437.02"/>
<polygon fill="#8b1a1a" stroke="#8b1a1a" points="304.82,-429.88 294.66,-432.88 304.47,-436.87 304.82,-429.88"/>
</a>
</g>
</g>
<!-- Node40 -->
<g id="Node000040" class="node">
<title>Node40</title>
<g id="a_Node000040"><a xlink:href="class_ogre_1_1_point_emitter.html" target="_top" xlink:title="Particle emitter which emits particles from a single point.">
<polygon fill="white" stroke="#666666" points="493,-412.5 386,-412.5 386,-393.5 493,-393.5 493,-412.5"/>
<text text-anchor="middle" x="439.5" y="-400.5" font-family="Helvetica,sans-Serif" font-size="10.00">Ogre::PointEmitter</text>
</a>
</g>
</g>
<!-- Node25&#45;&gt;Node40 -->
<g id="edge33_Node000025_Node000040" class="edge">
<title>Node25&#45;&gt;Node40</title>
<g id="a_edge33_Node000025_Node000040"><a xlink:title=" ">
<path fill="none" stroke="#63b8ff" d="M304.64,-420.89C331.17,-417.35 361.1,-413.35 385.92,-410.03"/>
<polygon fill="#63b8ff" stroke="#63b8ff" points="304.1,-417.43 294.66,-422.23 305.03,-424.37 304.1,-417.43"/>
</a>
</g>
</g>
<!-- Node27 -->
<g id="Node000027" class="node">
<title>Node27</title>
<g id="a_Node000027"><a xlink:href="class_ogre_1_1_box_emitter.html" target="_top" xlink:title="Particle emitter which emits particles randomly from points inside a box.">
<polygon fill="white" stroke="#666666" points="674,-597.5 573,-597.5 573,-578.5 674,-578.5 674,-597.5"/>
<text text-anchor="middle" x="623.5" y="-585.5" font-family="Helvetica,sans-Serif" font-size="10.00">Ogre::BoxEmitter</text>
</a>
</g>
</g>
<!-- Node26&#45;&gt;Node27 -->
<g id="edge26_Node000026_Node000027" class="edge">
<title>Node26&#45;&gt;Node27</title>
<g id="a_edge26_Node000026_Node000027"><a xlink:title=" ">
<path fill="none" stroke="#63b8ff" d="M501.42,-483.38C510.28,-486.27 518.81,-490.33 526,-496 554.71,-518.66 534.11,-546.34 562,-570 566.01,-573.4 570.64,-576.16 575.53,-578.4"/>
<polygon fill="#63b8ff" stroke="#63b8ff" points="502.31,-480 491.74,-480.69 500.44,-486.74 502.31,-480"/>
</a>
</g>
</g>
<!-- Node28 -->
<g id="Node000028" class="node">
<title>Node28</title>
<g id="a_Node000028"><a xlink:href="class_ogre_1_1_cylinder_emitter.html" target="_top" xlink:title="Particle emitter which emits particles randomly from points inside a cylinder.">
<polygon fill="white" stroke="#666666" points="684.5,-560.5 562.5,-560.5 562.5,-541.5 684.5,-541.5 684.5,-560.5"/>
<text text-anchor="middle" x="623.5" y="-548.5" font-family="Helvetica,sans-Serif" font-size="10.00">Ogre::CylinderEmitter</text>
</a>
</g>
</g>
<!-- Node26&#45;&gt;Node28 -->
<g id="edge27_Node000026_Node000028" class="edge">
<title>Node26&#45;&gt;Node28</title>
<g id="a_edge27_Node000026_Node000028"><a xlink:title=" ">
<path fill="none" stroke="#63b8ff" d="M501.27,-485.89C509.88,-488.45 518.38,-491.75 526,-496 546.04,-507.18 542.37,-521.12 562,-533 567.63,-536.4 573.94,-539.2 580.3,-541.49"/>
<polygon fill="#63b8ff" stroke="#63b8ff" points="502.12,-482.49 491.55,-483.3 500.32,-489.25 502.12,-482.49"/>
</a>
</g>
</g>
<!-- Node29 -->
<g id="Node000029" class="node">
<title>Node29</title>
<g id="a_Node000029"><a xlink:href="class_ogre_1_1_ellipsoid_emitter.html" target="_top" xlink:title="Particle emitter which emits particles randomly from points inside an ellipsoid.">
<polygon fill="#fff0f0" stroke="red" points="685,-523.5 562,-523.5 562,-504.5 685,-504.5 685,-523.5"/>
<text text-anchor="middle" x="623.5" y="-511.5" font-family="Helvetica,sans-Serif" font-size="10.00">Ogre::EllipsoidEmitter</text>
</a>
</g>
</g>
<!-- Node26&#45;&gt;Node29 -->
<g id="edge28_Node000026_Node000029" class="edge">
<title>Node26&#45;&gt;Node29</title>
<g id="a_edge28_Node000026_Node000029"><a xlink:title=" ">
<path fill="none" stroke="#63b8ff" d="M497.48,-488.58C522.56,-493.68 551.66,-499.6 575.47,-504.44"/>
<polygon fill="#63b8ff" stroke="#63b8ff" points="497.87,-485.09 487.37,-486.53 496.47,-491.95 497.87,-485.09"/>
</a>
</g>
</g>
<!-- Node31 -->
<g id="Node000031" class="node">
<title>Node31</title>
<g id="a_Node000031"><a xlink:href="class_ogre_1_1_ring_emitter.html" target="_top" xlink:title="Particle emitter which emits particles randomly from points inside a ring (e.g.">
<polygon fill="white" stroke="#666666" points="675.5,-486.5 571.5,-486.5 571.5,-467.5 675.5,-467.5 675.5,-486.5"/>
<text text-anchor="middle" x="623.5" y="-474.5" font-family="Helvetica,sans-Serif" font-size="10.00">Ogre::RingEmitter</text>
</a>
</g>
</g>
<!-- Node26&#45;&gt;Node31 -->
<g id="edge29_Node000026_Node000031" class="edge">
<title>Node26&#45;&gt;Node31</title>
<g id="a_edge29_Node000026_Node000031"><a xlink:title=" ">
<path fill="none" stroke="#63b8ff" d="M501.85,-477C524.45,-477 549.79,-477 571.39,-477"/>
<polygon fill="#63b8ff" stroke="#63b8ff" points="501.68,-473.5 491.68,-477 501.68,-480.5 501.68,-473.5"/>
</a>
</g>
</g>
<!-- Node33 -->
<g id="Node000033" class="node">
<title>Node33</title>
<g id="a_Node000033"><a xlink:href="class_ogre_1_1_area_emitter2.html" target="_top" xlink:title="Particle emitter which emits particles randomly from points inside an area (box, sphere,...">
<polygon fill="#fff0f0" stroke="red" points="678.5,-449.5 568.5,-449.5 568.5,-430.5 678.5,-430.5 678.5,-449.5"/>
<text text-anchor="middle" x="623.5" y="-437.5" font-family="Helvetica,sans-Serif" font-size="10.00">Ogre::AreaEmitter2</text>
</a>
</g>
</g>
<!-- Node32&#45;&gt;Node33 -->
<g id="edge31_Node000032_Node000033" class="edge">
<title>Node32&#45;&gt;Node33</title>
<g id="a_edge31_Node000032_Node000033"><a xlink:title=" ">
<path fill="none" stroke="#63b8ff" d="M510.75,-440C529.85,-440 550.23,-440 568.3,-440"/>
<polygon fill="#63b8ff" stroke="#63b8ff" points="510.6,-436.5 500.6,-440 510.6,-443.5 510.6,-436.5"/>
</a>
</g>
</g>
<!-- Node39 -->
<g id="Node000039" class="node">
<title>Node39</title>
<g id="a_Node000039"><a xlink:href="class_ogre_1_1_point_emitter2.html" target="_top" xlink:title=" ">
<polygon fill="white" stroke="#666666" points="680,-412.5 567,-412.5 567,-393.5 680,-393.5 680,-412.5"/>
<text text-anchor="middle" x="623.5" y="-400.5" font-family="Helvetica,sans-Serif" font-size="10.00">Ogre::PointEmitter2</text>
</a>
</g>
</g>
<!-- Node32&#45;&gt;Node39 -->
<g id="edge32_Node000032_Node000039" class="edge">
<title>Node32&#45;&gt;Node39</title>
<g id="a_edge32_Node000032_Node000039"><a xlink:title=" ">
<path fill="none" stroke="#63b8ff" d="M497.48,-428.42C522.56,-423.32 551.66,-417.4 575.47,-412.56"/>
<polygon fill="#63b8ff" stroke="#63b8ff" points="496.47,-425.05 487.37,-430.47 497.87,-431.91 496.47,-425.05"/>
</a>
</g>
</g>
<!-- Node42 -->
<g id="Node000042" class="node">
<title>Node42</title>
<g id="a_Node000042"><a xlink:href="class_ogre_1_1_particle_system_def.html" target="_top" xlink:title="A ParticleSystemDef does not form part of the scene.">
<polygon fill="white" stroke="#666666" points="507.5,-375.5 371.5,-375.5 371.5,-356.5 507.5,-356.5 507.5,-375.5"/>
<text text-anchor="middle" x="439.5" y="-363.5" font-family="Helvetica,sans-Serif" font-size="10.00">Ogre::ParticleSystemDef</text>
</a>
</g>
</g>
<!-- Node41&#45;&gt;Node42 -->
<g id="edge35_Node000041_Node000042" class="edge">
<title>Node41&#45;&gt;Node42</title>
<g id="a_edge35_Node000041_Node000042"><a xlink:title=" ">
<path fill="none" stroke="#63b8ff" d="M305.19,-371.94C326.6,-370.99 350.18,-369.94 371.48,-368.99"/>
<polygon fill="#63b8ff" stroke="#63b8ff" points="305.03,-368.44 295.2,-372.38 305.34,-375.44 305.03,-368.44"/>
</a>
</g>
</g>
<!-- Node43 -->
<g id="Node000043" class="node">
<title>Node43</title>
<g id="a_Node000043"><a xlink:href="class_ogre_1_1_billboard_set.html" target="_top" xlink:title="A BillboardSet is just a ParticleSystemDef directly exposed to the user but without emitters,...">
<polygon fill="white" stroke="#666666" points="676,-375.5 571,-375.5 571,-356.5 676,-356.5 676,-375.5"/>
<text text-anchor="middle" x="623.5" y="-363.5" font-family="Helvetica,sans-Serif" font-size="10.00">Ogre::BillboardSet</text>
</a>
</g>
</g>
<!-- Node42&#45;&gt;Node43 -->
<g id="edge36_Node000042_Node000043" class="edge">
<title>Node42&#45;&gt;Node43</title>
<g id="a_edge36_Node000042_Node000043"><a xlink:title=" ">
<path fill="none" stroke="#63b8ff" d="M518.14,-366C535.96,-366 554.48,-366 570.88,-366"/>
<polygon fill="#63b8ff" stroke="#63b8ff" points="517.75,-362.5 507.75,-366 517.75,-369.5 517.75,-362.5"/>
</a>
</g>
</g>
<!-- Node45 -->
<g id="Node000045" class="node">
<title>Node45</title>
<g id="a_Node000045"><a xlink:href="class_ogre_1_1v1_1_1_billboard_particle_renderer.html" target="_top" xlink:title="Specialisation of ParticleSystemRenderer to render particles using a BillboardSet.">
<polygon fill="white" stroke="#666666" points="511,-338 368,-338 368,-308 511,-308 511,-338"/>
<text text-anchor="start" x="376" y="-326" font-family="Helvetica,sans-Serif" font-size="10.00">Ogre::v1::BillboardParticle</text>
<text text-anchor="middle" x="439.5" y="-315" font-family="Helvetica,sans-Serif" font-size="10.00">Renderer</text>
</a>
</g>
</g>
<!-- Node44&#45;&gt;Node45 -->
<g id="edge38_Node000044_Node000045" class="edge">
<title>Node44&#45;&gt;Node45</title>
<g id="a_edge38_Node000044_Node000045"><a xlink:title=" ">
<path fill="none" stroke="#63b8ff" d="M327.46,-326.85C340.96,-326.38 354.7,-325.9 367.7,-325.45"/>
<polygon fill="#63b8ff" stroke="#63b8ff" points="327.08,-323.36 317.21,-327.2 327.32,-330.35 327.08,-323.36"/>
</a>
</g>
</g>
<!-- Node47 -->
<g id="Node000047" class="node">
<title>Node47</title>
<g id="a_Node000047"><a xlink:href="class_ogre_1_1_font.html" target="_top" xlink:title="Class representing a font in the system.">
<polygon fill="white" stroke="#666666" points="473,-289.5 406,-289.5 406,-270.5 473,-270.5 473,-289.5"/>
<text text-anchor="middle" x="439.5" y="-277.5" font-family="Helvetica,sans-Serif" font-size="10.00">Ogre::Font</text>
</a>
</g>
</g>
<!-- Node46&#45;&gt;Node47 -->
<g id="edge40_Node000046_Node000047" class="edge">
<title>Node46&#45;&gt;Node47</title>
<g id="a_edge40_Node000046_Node000047"><a xlink:title=" ">
<path fill="none" stroke="#63b8ff" d="M262.15,-220.55C285.26,-233.12 320.51,-250.95 353,-262 370.09,-267.81 389.77,-272.11 405.93,-275.05"/>
<polygon fill="#63b8ff" stroke="#63b8ff" points="263.77,-217.45 253.32,-215.69 260.39,-223.58 263.77,-217.45"/>
</a>
</g>
</g>
<!-- Node48 -->
<g id="Node000048" class="node">
<title>Node48</title>
<g id="a_Node000048"><a xlink:href="class_ogre_1_1_gpu_program.html" target="_top" xlink:title="Defines a program which runs on the GPU such as a vertex or fragment program.">
<polygon fill="#fff0f0" stroke="red" points="493,-252.5 386,-252.5 386,-233.5 493,-233.5 493,-252.5"/>
<text text-anchor="middle" x="439.5" y="-240.5" font-family="Helvetica,sans-Serif" font-size="10.00">Ogre::GpuProgram</text>
</a>
</g>
</g>
<!-- Node46&#45;&gt;Node48 -->
<g id="edge41_Node000046_Node000048" class="edge">
<title>Node46&#45;&gt;Node48</title>
<g id="a_edge41_Node000046_Node000048"><a xlink:title=" ">
<path fill="none" stroke="#63b8ff" d="M291.47,-216.07C321,-221.48 357.2,-228.11 386.3,-233.44"/>
<polygon fill="#63b8ff" stroke="#63b8ff" points="291.8,-212.57 281.33,-214.21 290.54,-219.46 291.8,-212.57"/>
</a>
</g>
</g>
<!-- Node55 -->
<g id="Node000055" class="node">
<title>Node55</title>
<g id="a_Node000055"><a xlink:href="class_ogre_1_1_material.html" target="_top" xlink:title="Class encapsulates rendering properties of an object.">
<polygon fill="white" stroke="#666666" points="482.5,-215.5 396.5,-215.5 396.5,-196.5 482.5,-196.5 482.5,-215.5"/>
<text text-anchor="middle" x="439.5" y="-203.5" font-family="Helvetica,sans-Serif" font-size="10.00">Ogre::Material</text>
</a>
</g>
</g>
<!-- Node46&#45;&gt;Node55 -->
<g id="edge42_Node000046_Node000055" class="edge">
<title>Node46&#45;&gt;Node55</title>
<g id="a_edge42_Node000046_Node000055"><a xlink:title=" ">
<path fill="none" stroke="#63b8ff" d="M291.71,-206C324.66,-206 365.86,-206 396.21,-206"/>
<polygon fill="#63b8ff" stroke="#63b8ff" points="291.33,-202.5 281.33,-206 291.33,-209.5 291.33,-202.5"/>
</a>
</g>
</g>
<!-- Node56 -->
<g id="Node000056" class="node">
<title>Node56</title>
<g id="a_Node000056"><a xlink:href="class_ogre_1_1_mesh.html" target="_top" xlink:title="Resource holding data about 3D mesh.">
<polygon fill="white" stroke="#666666" points="475.5,-178.5 403.5,-178.5 403.5,-159.5 475.5,-159.5 475.5,-178.5"/>
<text text-anchor="middle" x="439.5" y="-166.5" font-family="Helvetica,sans-Serif" font-size="10.00">Ogre::Mesh</text>
</a>
</g>
</g>
<!-- Node46&#45;&gt;Node56 -->
<g id="edge43_Node000046_Node000056" class="edge">
<title>Node46&#45;&gt;Node56</title>
<g id="a_edge43_Node000046_Node000056"><a xlink:title=" ">
<path fill="none" stroke="#63b8ff" d="M291.56,-195.91C327.13,-189.4 372.36,-181.11 403.18,-175.47"/>
<polygon fill="#63b8ff" stroke="#63b8ff" points="290.54,-192.54 281.33,-197.79 291.8,-199.43 290.54,-192.54"/>
</a>
</g>
</g>
<!-- Node57 -->
<g id="Node000057" class="node">
<title>Node57</title>
<g id="a_Node000057"><a xlink:href="class_ogre_1_1v1_1_1_mesh.html" target="_top" xlink:title="Resource holding data about 3D mesh.">
<polygon fill="#fff0f0" stroke="red" points="484.5,-141.5 394.5,-141.5 394.5,-122.5 484.5,-122.5 484.5,-141.5"/>
<text text-anchor="middle" x="439.5" y="-129.5" font-family="Helvetica,sans-Serif" font-size="10.00">Ogre::v1::Mesh</text>
</a>
</g>
</g>
<!-- Node46&#45;&gt;Node57 -->
<g id="edge44_Node000046_Node000057" class="edge">
<title>Node46&#45;&gt;Node57</title>
<g id="a_edge44_Node000046_Node000057"><a xlink:title=" ">
<path fill="none" stroke="#63b8ff" d="M262.61,-191.61C285.77,-179.35 320.83,-162.02 353,-151 366.24,-146.47 381,-142.74 394.49,-139.82"/>
<polygon fill="#63b8ff" stroke="#63b8ff" points="260.91,-188.55 253.75,-196.36 264.22,-194.72 260.91,-188.55"/>
</a>
</g>
</g>
<!-- Node59 -->
<g id="Node000059" class="node">
<title>Node59</title>
<g id="a_Node000059"><a xlink:href="class_ogre_1_1v1_1_1_skeleton.html" target="_top" xlink:title="A collection of OldBone objects used to animate a skinned mesh.">
<polygon fill="#fff0f0" stroke="red" points="492.5,-104.5 386.5,-104.5 386.5,-85.5 492.5,-85.5 492.5,-104.5"/>
<text text-anchor="middle" x="439.5" y="-92.5" font-family="Helvetica,sans-Serif" font-size="10.00">Ogre::v1::Skeleton</text>
</a>
</g>
</g>
<!-- Node46&#45;&gt;Node59 -->
<g id="edge45_Node000046_Node000059" class="edge">
<title>Node46&#45;&gt;Node59</title>
<g id="a_edge45_Node000046_Node000059"><a xlink:title=" ">
<path fill="none" stroke="#63b8ff" d="M252.63,-189.26C273.72,-168.38 312.75,-133.12 353,-114 363.3,-109.11 374.9,-105.45 386.16,-102.72"/>
<polygon fill="#63b8ff" stroke="#63b8ff" points="250.02,-186.93 245.46,-196.49 254.99,-191.86 250.02,-186.93"/>
</a>
</g>
</g>
<!-- Node62 -->
<g id="Node000062" class="node">
<title>Node62</title>
<g id="a_Node000062"><a xlink:href="class_ogre_1_1v1_1_1_overlay_container.html" target="_top" xlink:title="A 2D element which contains other OverlayElement instances.">
<polygon fill="#fff0f0" stroke="red" points="514,-67.5 365,-67.5 365,-48.5 514,-48.5 514,-67.5"/>
<text text-anchor="middle" x="439.5" y="-55.5" font-family="Helvetica,sans-Serif" font-size="10.00">Ogre::v1::OverlayContainer</text>
</a>
</g>
</g>
<!-- Node61&#45;&gt;Node62 -->
<g id="edge47_Node000061_Node000062" class="edge">
<title>Node61&#45;&gt;Node62</title>
<g id="a_edge47_Node000061_Node000062"><a xlink:title=" ">
<path fill="none" stroke="#63b8ff" d="M317.34,-58C333.02,-58 349.37,-58 364.81,-58"/>
<polygon fill="#63b8ff" stroke="#63b8ff" points="317.15,-54.5 307.15,-58 317.15,-61.5 317.15,-54.5"/>
</a>
</g>
</g>
<!-- Node65 -->
<g id="Node000065" class="node">
<title>Node65</title>
<g id="a_Node000065"><a xlink:href="class_ogre_1_1v1_1_1_text_area_overlay_element.html" target="_top" xlink:title="This class implements an overlay element which contains simple unformatted text.">
<polygon fill="white" stroke="#666666" points="512,-30 367,-30 367,0 512,0 512,-30"/>
<text text-anchor="start" x="375" y="-18" font-family="Helvetica,sans-Serif" font-size="10.00">Ogre::v1::TextAreaOverlay</text>
<text text-anchor="middle" x="439.5" y="-7" font-family="Helvetica,sans-Serif" font-size="10.00">Element</text>
</a>
</g>
</g>
<!-- Node61&#45;&gt;Node65 -->
<g id="edge48_Node000061_Node000065" class="edge">
<title>Node61&#45;&gt;Node65</title>
<g id="a_edge48_Node000061_Node000065"><a xlink:title=" ">
<path fill="none" stroke="#63b8ff" d="M291.18,-46.36C314.84,-41.32 342.82,-35.37 368.01,-30.01"/>
<polygon fill="#63b8ff" stroke="#63b8ff" points="290.38,-42.95 281.33,-48.46 291.84,-49.8 290.38,-42.95"/>
</a>
</g>
</g>
</g>
</svg>
