<?xml version="1.0" encoding="UTF-8" standalone="no"?>
<!DOCTYPE svg PUBLIC "-//W3C//DTD SVG 1.1//EN"
 "http://www.w3.org/Graphics/SVG/1.1/DTD/svg11.dtd">
<!-- Generated by graphviz version 2.43.0 (0)
 -->
<!-- Title: Ogre::v1::HardwareBufferManager Pages: 1 -->
<svg width="686pt" height="382pt"
 viewBox="0.00 0.00 686.00 382.00" xmlns="http://www.w3.org/2000/svg" xmlns:xlink="http://www.w3.org/1999/xlink">
<g id="graph0" class="graph" transform="scale(1 1) rotate(0) translate(4 378)">
<title>Ogre::v1::HardwareBufferManager</title>
<!-- Node1 -->
<g id="node1" class="node">
<title>Node1</title>
<g id="a_node1"><a xlink:title="Singleton wrapper for hardware buffer manager.">
<polygon fill="#bfbfbf" stroke="black" points="324,-171.5 324,-201.5 464,-201.5 464,-171.5 324,-171.5"/>
<text text-anchor="start" x="332" y="-189.5" font-family="Helvetica,sans-Serif" font-size="10.00">Ogre::v1::HardwareBuffer</text>
<text text-anchor="middle" x="394" y="-178.5" font-family="Helvetica,sans-Serif" font-size="10.00">Manager</text>
</a>
</g>
</g>
<!-- Node5 -->
<g id="node5" class="node">
<title>Node5</title>
<g id="a_node5"><a xlink:href="class_ogre_1_1v1_1_1_d3_d11_hardware_buffer_manager.html" target="_top" xlink:title="D3D11HardwareBufferManagerBase as a Singleton.">
<polygon fill="none" stroke="black" points="502.5,-343.5 502.5,-373.5 675.5,-373.5 675.5,-343.5 502.5,-343.5"/>
<text text-anchor="start" x="510.5" y="-361.5" font-family="Helvetica,sans-Serif" font-size="10.00">Ogre::v1::D3D11HardwareBuffer</text>
<text text-anchor="middle" x="589" y="-350.5" font-family="Helvetica,sans-Serif" font-size="10.00">Manager</text>
</a>
</g>
</g>
<!-- Node1&#45;&gt;Node5 -->
<g id="edge4" class="edge">
<title>Node1&#45;&gt;Node5</title>
<path fill="none" stroke="midnightblue" d="M405.84,-211.12C421.7,-244.22 454.37,-302.61 500,-334.5 504.93,-337.95 510.34,-340.9 515.97,-343.43"/>
<polygon fill="midnightblue" stroke="midnightblue" points="408.86,-209.3 401.47,-201.71 402.51,-212.25 408.86,-209.3"/>
</g>
<!-- Node6 -->
<g id="node6" class="node">
<title>Node6</title>
<g id="a_node6"><a xlink:href="class_ogre_1_1v1_1_1_default_hardware_buffer_manager.html" target="_top" xlink:title="DefaultHardwareBufferManager as a Singleton.">
<polygon fill="none" stroke="black" points="515.5,-294.5 515.5,-324.5 662.5,-324.5 662.5,-294.5 515.5,-294.5"/>
<text text-anchor="start" x="523.5" y="-312.5" font-family="Helvetica,sans-Serif" font-size="10.00">Ogre::v1::DefaultHardware</text>
<text text-anchor="middle" x="589" y="-301.5" font-family="Helvetica,sans-Serif" font-size="10.00">BufferManager</text>
</a>
</g>
</g>
<!-- Node1&#45;&gt;Node6 -->
<g id="edge5" class="edge">
<title>Node1&#45;&gt;Node6</title>
<path fill="none" stroke="midnightblue" d="M413.36,-209.42C432.64,-231.99 464.97,-265.85 500,-285.5 506.08,-288.91 512.67,-291.85 519.41,-294.4"/>
<polygon fill="midnightblue" stroke="midnightblue" points="415.97,-207.09 406.87,-201.66 410.6,-211.58 415.97,-207.09"/>
</g>
<!-- Node7 -->
<g id="node7" class="node">
<title>Node7</title>
<g id="a_node7"><a xlink:href="class_ogre_1_1v1_1_1_g_l3_plus_default_hardware_buffer_manager.html" target="_top" xlink:title="GL3PlusDefaultHardwareBufferManagerBase as a Singleton.">
<polygon fill="none" stroke="black" points="519.5,-245.5 519.5,-275.5 658.5,-275.5 658.5,-245.5 519.5,-245.5"/>
<text text-anchor="start" x="527.5" y="-263.5" font-family="Helvetica,sans-Serif" font-size="10.00">Ogre::v1::GL3PlusDefault</text>
<text text-anchor="middle" x="589" y="-252.5" font-family="Helvetica,sans-Serif" font-size="10.00">HardwareBufferManager</text>
</a>
</g>
</g>
<!-- Node1&#45;&gt;Node7 -->
<g id="edge6" class="edge">
<title>Node1&#45;&gt;Node7</title>
<path fill="none" stroke="midnightblue" d="M432.34,-206.28C452.09,-216.23 476.96,-227.95 500,-236.5 508.61,-239.7 517.84,-242.67 526.96,-245.37"/>
<polygon fill="midnightblue" stroke="midnightblue" points="433.87,-203.13 423.37,-201.71 430.69,-209.37 433.87,-203.13"/>
</g>
<!-- Node8 -->
<g id="node8" class="node">
<title>Node8</title>
<g id="a_node8"><a xlink:href="class_ogre_1_1v1_1_1_g_l3_plus_hardware_buffer_manager.html" target="_top" xlink:title="GL3PlusHardwareBufferManagerBase as a Singleton.">
<polygon fill="none" stroke="black" points="514,-196.5 514,-226.5 664,-226.5 664,-196.5 514,-196.5"/>
<text text-anchor="start" x="522" y="-214.5" font-family="Helvetica,sans-Serif" font-size="10.00">Ogre::v1::GL3PlusHardware</text>
<text text-anchor="middle" x="589" y="-203.5" font-family="Helvetica,sans-Serif" font-size="10.00">BufferManager</text>
</a>
</g>
</g>
<!-- Node1&#45;&gt;Node8 -->
<g id="edge7" class="edge">
<title>Node1&#45;&gt;Node8</title>
<path fill="none" stroke="midnightblue" d="M474.07,-196.74C487.21,-198.44 500.79,-200.2 513.8,-201.89"/>
<polygon fill="midnightblue" stroke="midnightblue" points="474.5,-193.27 464.13,-195.45 473.6,-200.21 474.5,-193.27"/>
</g>
<!-- Node9 -->
<g id="node9" class="node">
<title>Node9</title>
<g id="a_node9"><a xlink:href="class_ogre_1_1v1_1_1_g_l_e_s2_default_hardware_buffer_manager.html" target="_top" xlink:title="GLES2DefaultHardwareBufferManagerBase as a Singleton.">
<polygon fill="none" stroke="black" points="500,-147.5 500,-177.5 678,-177.5 678,-147.5 500,-147.5"/>
<text text-anchor="start" x="508" y="-165.5" font-family="Helvetica,sans-Serif" font-size="10.00">Ogre::v1::GLES2DefaultHardware</text>
<text text-anchor="middle" x="589" y="-154.5" font-family="Helvetica,sans-Serif" font-size="10.00">BufferManager</text>
</a>
</g>
</g>
<!-- Node1&#45;&gt;Node9 -->
<g id="edge8" class="edge">
<title>Node1&#45;&gt;Node9</title>
<path fill="none" stroke="midnightblue" d="M474.29,-176.64C482.71,-175.59 491.31,-174.52 499.83,-173.46"/>
<polygon fill="midnightblue" stroke="midnightblue" points="473.62,-173.2 464.13,-177.9 474.49,-180.14 473.62,-173.2"/>
</g>
<!-- Node10 -->
<g id="node10" class="node">
<title>Node10</title>
<g id="a_node10"><a xlink:href="class_ogre_1_1v1_1_1_g_l_e_s2_hardware_buffer_manager.html" target="_top" xlink:title="GLES2HardwareBufferManagerBase as a Singleton.">
<polygon fill="none" stroke="black" points="503.5,-98.5 503.5,-128.5 674.5,-128.5 674.5,-98.5 503.5,-98.5"/>
<text text-anchor="start" x="511.5" y="-116.5" font-family="Helvetica,sans-Serif" font-size="10.00">Ogre::v1::GLES2HardwareBuffer</text>
<text text-anchor="middle" x="589" y="-105.5" font-family="Helvetica,sans-Serif" font-size="10.00">Manager</text>
</a>
</g>
</g>
<!-- Node1&#45;&gt;Node10 -->
<g id="edge9" class="edge">
<title>Node1&#45;&gt;Node10</title>
<path fill="none" stroke="midnightblue" d="M432.81,-166.95C452.5,-157.26 477.17,-145.87 500,-137.5 508.77,-134.28 518.17,-131.28 527.45,-128.55"/>
<polygon fill="midnightblue" stroke="midnightblue" points="431.24,-163.82 423.85,-171.41 434.36,-170.08 431.24,-163.82"/>
</g>
<!-- Node11 -->
<g id="node11" class="node">
<title>Node11</title>
<g id="a_node11"><a xlink:href="class_ogre_1_1v1_1_1_metal_hardware_buffer_manager.html" target="_top" xlink:title="MetalHardwareBufferManagerBase as a Singleton.">
<polygon fill="none" stroke="black" points="505,-49.5 505,-79.5 673,-79.5 673,-49.5 505,-49.5"/>
<text text-anchor="start" x="513" y="-67.5" font-family="Helvetica,sans-Serif" font-size="10.00">Ogre::v1::MetalHardwareBuffer</text>
<text text-anchor="middle" x="589" y="-56.5" font-family="Helvetica,sans-Serif" font-size="10.00">Manager</text>
</a>
</g>
</g>
<!-- Node1&#45;&gt;Node11 -->
<g id="edge10" class="edge">
<title>Node1&#45;&gt;Node11</title>
<path fill="none" stroke="midnightblue" d="M413.41,-163.82C432.72,-141.48 465.08,-107.97 500,-88.5 506.09,-85.11 512.68,-82.17 519.43,-79.64"/>
<polygon fill="midnightblue" stroke="midnightblue" points="410.7,-161.6 406.9,-171.5 416.04,-166.13 410.7,-161.6"/>
</g>
<!-- Node12 -->
<g id="node12" class="node">
<title>Node12</title>
<g id="a_node12"><a xlink:href="class_ogre_1_1v1_1_1_vulkan_hardware_buffer_manager.html" target="_top" xlink:title=" ">
<polygon fill="none" stroke="black" points="517.5,-0.5 517.5,-30.5 660.5,-30.5 660.5,-0.5 517.5,-0.5"/>
<text text-anchor="start" x="525.5" y="-18.5" font-family="Helvetica,sans-Serif" font-size="10.00">Ogre::v1::VulkanHardware</text>
<text text-anchor="middle" x="589" y="-7.5" font-family="Helvetica,sans-Serif" font-size="10.00">BufferManager</text>
</a>
</g>
</g>
<!-- Node1&#45;&gt;Node12 -->
<g id="edge11" class="edge">
<title>Node1&#45;&gt;Node12</title>
<path fill="none" stroke="midnightblue" d="M405.89,-162.05C421.8,-129.17 454.52,-71.18 500,-39.5 505.33,-35.79 511.21,-32.65 517.32,-30"/>
<polygon fill="midnightblue" stroke="midnightblue" points="402.58,-160.85 401.5,-171.39 408.92,-163.83 402.58,-160.85"/>
</g>
<!-- Node2 -->
<g id="node2" class="node">
<title>Node2</title>
<g id="a_node2"><a xlink:href="class_ogre_1_1v1_1_1_hardware_buffer_manager_base.html" target="_top" xlink:title="Base definition of a hardware buffer manager.">
<polygon fill="none" stroke="black" points="143,-196.5 143,-226.5 283,-226.5 283,-196.5 143,-196.5"/>
<text text-anchor="start" x="151" y="-214.5" font-family="Helvetica,sans-Serif" font-size="10.00">Ogre::v1::HardwareBuffer</text>
<text text-anchor="middle" x="213" y="-203.5" font-family="Helvetica,sans-Serif" font-size="10.00">ManagerBase</text>
</a>
</g>
</g>
<!-- Node2&#45;&gt;Node1 -->
<g id="edge1" class="edge">
<title>Node2&#45;&gt;Node1</title>
<path fill="none" stroke="midnightblue" d="M293.34,-200.42C303.55,-198.99 313.95,-197.54 323.98,-196.14"/>
<polygon fill="midnightblue" stroke="midnightblue" points="292.63,-196.98 283.21,-201.83 293.59,-203.92 292.63,-196.98"/>
</g>
<!-- Node3 -->
<g id="node3" class="node">
<title>Node3</title>
<g id="a_node3"><a xlink:title=" ">
<polygon fill="none" stroke="#bfbfbf" points="0,-202 0,-221 102,-221 102,-202 0,-202"/>
<text text-anchor="middle" x="51" y="-209" font-family="Helvetica,sans-Serif" font-size="10.00">OgreAllocatedObj</text>
</a>
</g>
</g>
<!-- Node3&#45;&gt;Node2 -->
<g id="edge2" class="edge">
<title>Node3&#45;&gt;Node2</title>
<path fill="none" stroke="midnightblue" d="M112.39,-211.5C122.37,-211.5 132.77,-211.5 142.94,-211.5"/>
<polygon fill="midnightblue" stroke="midnightblue" points="112.19,-208 102.19,-211.5 112.19,-215 112.19,-208"/>
</g>
<!-- Node4 -->
<g id="node4" class="node">
<title>Node4</title>
<g id="a_node4"><a xlink:href="class_ogre_1_1_singleton.html" target="_top" xlink:title=" ">
<polygon fill="none" stroke="black" points="138,-147.5 138,-177.5 288,-177.5 288,-147.5 138,-147.5"/>
<text text-anchor="start" x="146" y="-165.5" font-family="Helvetica,sans-Serif" font-size="10.00">Ogre::Singleton&lt; Hardware</text>
<text text-anchor="middle" x="213" y="-154.5" font-family="Helvetica,sans-Serif" font-size="10.00">BufferManager &gt;</text>
</a>
</g>
</g>
<!-- Node4&#45;&gt;Node1 -->
<g id="edge3" class="edge">
<title>Node4&#45;&gt;Node1</title>
<path fill="none" stroke="midnightblue" d="M298.15,-173.78C306.75,-174.94 315.42,-176.1 323.84,-177.23"/>
<polygon fill="midnightblue" stroke="midnightblue" points="298.47,-170.29 288.1,-172.43 297.54,-177.23 298.47,-170.29"/>
</g>
</g>
</svg>
