<?xml version="1.0" encoding="UTF-8" standalone="no"?>
<!DOCTYPE svg PUBLIC "-//W3C//DTD SVG 1.1//EN"
 "http://www.w3.org/Graphics/SVG/1.1/DTD/svg11.dtd">
<!-- Generated by graphviz version 7.0.5 (20221223.1930)
 -->
<!-- Title: Ogre::UavBufferPacked Pages: 1 -->
<svg width="630pt" height="175pt"
 viewBox="0.00 0.00 630.00 175.00" xmlns="http://www.w3.org/2000/svg" xmlns:xlink="http://www.w3.org/1999/xlink">
<g id="graph0" class="graph" transform="scale(1 1) rotate(0) translate(4 171)">
<title>Ogre::UavBufferPacked</title>
<!-- Node1 -->
<g id="node1" class="node">
<title>Node1</title>
<g id="a_node1"><a xlink:title="Represents UAV buffers (also known as SSBOs in OpenGL) Uav buffers are supported in DX10/DX10....">
<polygon fill="#999999" stroke="#666666" points="429,-93 310,-93 310,-74 429,-74 429,-93"/>
<text text-anchor="middle" x="369.5" y="-81" font-family="Helvetica,sans-Serif" font-size="10.00">Ogre::UavBufferPacked</text>
</a>
</g>
</g>
<!-- Node5 -->
<g id="node5" class="node">
<title>Node5</title>
<g id="a_node5"><a xlink:href="class_ogre_1_1_d3_d11_uav_buffer_packed.html" target="_top" xlink:title=" ">
<polygon fill="white" stroke="#666666" points="617.5,-167 469.5,-167 469.5,-148 617.5,-148 617.5,-167"/>
<text text-anchor="middle" x="543.5" y="-155" font-family="Helvetica,sans-Serif" font-size="10.00">Ogre::D3D11UavBufferPacked</text>
</a>
</g>
</g>
<!-- Node1&#45;&gt;Node5 -->
<g id="edge4" class="edge">
<title>Node1&#45;&gt;Node5</title>
<path fill="none" stroke="#63b8ff" d="M393.55,-99.9C412.07,-112.38 439.17,-129.13 465,-139.5 472.82,-142.64 481.31,-145.3 489.72,-147.54"/>
<polygon fill="#63b8ff" stroke="#63b8ff" points="395.67,-97.11 385.45,-94.33 391.7,-102.88 395.67,-97.11"/>
</g>
<!-- Node6 -->
<g id="node6" class="node">
<title>Node6</title>
<g id="a_node6"><a xlink:href="class_ogre_1_1_g_l3_plus_uav_buffer_packed.html" target="_top" xlink:title=" ">
<polygon fill="white" stroke="#666666" points="622,-130 465,-130 465,-111 622,-111 622,-130"/>
<text text-anchor="middle" x="543.5" y="-118" font-family="Helvetica,sans-Serif" font-size="10.00">Ogre::GL3PlusUavBufferPacked</text>
</a>
</g>
</g>
<!-- Node1&#45;&gt;Node6 -->
<g id="edge5" class="edge">
<title>Node1&#45;&gt;Node6</title>
<path fill="none" stroke="#63b8ff" d="M427.61,-95.79C449.92,-100.58 475.15,-106.01 496.28,-110.56"/>
<polygon fill="#63b8ff" stroke="#63b8ff" points="428.58,-92.42 418.07,-93.73 427.11,-99.26 428.58,-92.42"/>
</g>
<!-- Node7 -->
<g id="node7" class="node">
<title>Node7</title>
<g id="a_node7"><a xlink:href="class_ogre_1_1_metal_uav_buffer_packed.html" target="_top" xlink:title=" ">
<polygon fill="white" stroke="#666666" points="615,-93 472,-93 472,-74 615,-74 615,-93"/>
<text text-anchor="middle" x="543.5" y="-81" font-family="Helvetica,sans-Serif" font-size="10.00">Ogre::MetalUavBufferPacked</text>
</a>
</g>
</g>
<!-- Node1&#45;&gt;Node7 -->
<g id="edge6" class="edge">
<title>Node1&#45;&gt;Node7</title>
<path fill="none" stroke="#63b8ff" d="M440.58,-83.5C450.8,-83.5 461.33,-83.5 471.57,-83.5"/>
<polygon fill="#63b8ff" stroke="#63b8ff" points="440.73,-80 430.73,-83.5 440.73,-87 440.73,-80"/>
</g>
<!-- Node8 -->
<g id="node8" class="node">
<title>Node8</title>
<g id="a_node8"><a xlink:href="class_ogre_1_1_n_u_l_l_uav_buffer_packed.html" target="_top" xlink:title=" ">
<polygon fill="white" stroke="#666666" points="616.5,-56 470.5,-56 470.5,-37 616.5,-37 616.5,-56"/>
<text text-anchor="middle" x="543.5" y="-44" font-family="Helvetica,sans-Serif" font-size="10.00">Ogre::NULLUavBufferPacked</text>
</a>
</g>
</g>
<!-- Node1&#45;&gt;Node8 -->
<g id="edge7" class="edge">
<title>Node1&#45;&gt;Node8</title>
<path fill="none" stroke="#63b8ff" d="M427.61,-71.21C449.92,-66.42 475.15,-60.99 496.28,-56.44"/>
<polygon fill="#63b8ff" stroke="#63b8ff" points="427.11,-67.74 418.07,-73.27 428.58,-74.58 427.11,-67.74"/>
</g>
<!-- Node9 -->
<g id="node9" class="node">
<title>Node9</title>
<g id="a_node9"><a xlink:href="class_ogre_1_1_vulkan_uav_buffer_packed.html" target="_top" xlink:title=" ">
<polygon fill="white" stroke="#666666" points="618,-19 469,-19 469,0 618,0 618,-19"/>
<text text-anchor="middle" x="543.5" y="-7" font-family="Helvetica,sans-Serif" font-size="10.00">Ogre::VulkanUavBufferPacked</text>
</a>
</g>
</g>
<!-- Node1&#45;&gt;Node9 -->
<g id="edge8" class="edge">
<title>Node1&#45;&gt;Node9</title>
<path fill="none" stroke="#63b8ff" d="M393.55,-67.1C412.07,-54.62 439.17,-37.87 465,-27.5 472.82,-24.36 481.31,-21.7 489.72,-19.46"/>
<polygon fill="#63b8ff" stroke="#63b8ff" points="391.7,-64.12 385.45,-72.67 395.67,-69.89 391.7,-64.12"/>
</g>
<!-- Node2 -->
<g id="node2" class="node">
<title>Node2</title>
<g id="a_node2"><a xlink:href="class_ogre_1_1_buffer_packed.html" target="_top" xlink:title=" ">
<polygon fill="white" stroke="#666666" points="274,-93 173,-93 173,-74 274,-74 274,-93"/>
<text text-anchor="middle" x="223.5" y="-81" font-family="Helvetica,sans-Serif" font-size="10.00">Ogre::BufferPacked</text>
</a>
</g>
</g>
<!-- Node2&#45;&gt;Node1 -->
<g id="edge1" class="edge">
<title>Node2&#45;&gt;Node1</title>
<path fill="none" stroke="#63b8ff" d="M285.87,-83.5C293.78,-83.5 301.86,-83.5 309.72,-83.5"/>
<polygon fill="#63b8ff" stroke="#63b8ff" points="285.97,-80 275.97,-83.5 285.97,-87 285.97,-80"/>
</g>
<!-- Node3 -->
<g id="node3" class="node">
<title>Node3</title>
<g id="a_node3"><a xlink:href="struct_ogre_1_1_gpu_tracked_resource.html" target="_top" xlink:title=" ">
<polygon fill="white" stroke="#666666" points="137,-112 0,-112 0,-93 137,-93 137,-112"/>
<text text-anchor="middle" x="68.5" y="-100" font-family="Helvetica,sans-Serif" font-size="10.00">Ogre::GpuTrackedResource</text>
</a>
</g>
</g>
<!-- Node3&#45;&gt;Node2 -->
<g id="edge2" class="edge">
<title>Node3&#45;&gt;Node2</title>
<path fill="none" stroke="#63b8ff" d="M148.9,-92.64C156.96,-91.64 164.99,-90.64 172.61,-89.7"/>
<polygon fill="#63b8ff" stroke="#63b8ff" points="148.49,-89.16 139,-93.87 149.36,-96.11 148.49,-89.16"/>
</g>
<!-- Node4 -->
<g id="node4" class="node">
<title>Node4</title>
<g id="a_node4"><a xlink:title=" ">
<polygon fill="white" stroke="#666666" points="128,-75 9,-75 9,-56 128,-56 128,-75"/>
<text text-anchor="middle" x="68.5" y="-63" font-family="Helvetica,sans-Serif" font-size="10.00">Ogre::OgreAllocatedObj</text>
</a>
</g>
</g>
<!-- Node4&#45;&gt;Node2 -->
<g id="edge3" class="edge">
<title>Node4&#45;&gt;Node2</title>
<path fill="none" stroke="#63b8ff" d="M139.35,-73.72C150.59,-75.04 162.01,-76.38 172.65,-77.64"/>
<polygon fill="#63b8ff" stroke="#63b8ff" points="140.06,-70.28 129.72,-72.58 139.24,-77.23 140.06,-70.28"/>
</g>
</g>
</svg>
