<?xml version="1.0" encoding="UTF-8" standalone="no"?>
<!DOCTYPE svg PUBLIC "-//W3C//DTD SVG 1.1//EN"
 "http://www.w3.org/Graphics/SVG/1.1/DTD/svg11.dtd">
<!-- Generated by graphviz version 7.0.5 (20221223.1930)
 -->
<!-- Title: Ogre::CompositorPassUav Pages: 1 -->
<svg width="271pt" height="137pt"
 viewBox="0.00 0.00 270.50 137.00" xmlns="http://www.w3.org/2000/svg" xmlns:xlink="http://www.w3.org/1999/xlink">
<g id="graph0" class="graph" transform="scale(1 1) rotate(0) translate(4 133)">
<title>Ogre::CompositorPassUav</title>
<!-- Node1 -->
<g id="node1" class="node">
<title>Node1</title>
<g id="a_node1"><a xlink:title="Implementation of CompositorPass This implementation will set UAVs.">
<polygon fill="#999999" stroke="#666666" points="194.5,-19 62.5,-19 62.5,0 194.5,0 194.5,-19"/>
<text text-anchor="middle" x="128.5" y="-7" font-family="Helvetica,sans-Serif" font-size="10.00">Ogre::CompositorPassUav</text>
</a>
</g>
</g>
<!-- Node2 -->
<g id="node2" class="node">
<title>Node2</title>
<g id="a_node2"><a xlink:href="class_ogre_1_1_compositor_pass.html" target="_top" xlink:title="Abstract class for compositor passes.">
<polygon fill="white" stroke="#666666" points="116.5,-74 2.5,-74 2.5,-55 116.5,-55 116.5,-74"/>
<text text-anchor="middle" x="59.5" y="-62" font-family="Helvetica,sans-Serif" font-size="10.00">Ogre::CompositorPass</text>
</a>
</g>
</g>
<!-- Node2&#45;&gt;Node1 -->
<g id="edge1" class="edge">
<title>Node2&#45;&gt;Node1</title>
<path fill="none" stroke="#63b8ff" d="M80.15,-47.64C92.2,-38.39 106.95,-27.05 116.97,-19.36"/>
<polygon fill="#63b8ff" stroke="#63b8ff" points="78.2,-44.72 72.41,-53.59 82.47,-50.27 78.2,-44.72"/>
</g>
<!-- Node3 -->
<g id="node3" class="node">
<title>Node3</title>
<g id="a_node3"><a xlink:title=" ">
<polygon fill="white" stroke="#666666" points="119,-129 0,-129 0,-110 119,-110 119,-129"/>
<text text-anchor="middle" x="59.5" y="-117" font-family="Helvetica,sans-Serif" font-size="10.00">Ogre::OgreAllocatedObj</text>
</a>
</g>
</g>
<!-- Node3&#45;&gt;Node2 -->
<g id="edge2" class="edge">
<title>Node3&#45;&gt;Node2</title>
<path fill="none" stroke="#63b8ff" d="M59.5,-98.35C59.5,-90.1 59.5,-80.97 59.5,-74.44"/>
<polygon fill="#63b8ff" stroke="#63b8ff" points="56,-98.23 59.5,-108.23 63,-98.23 56,-98.23"/>
</g>
<!-- Node4 -->
<g id="node4" class="node">
<title>Node4</title>
<g id="a_node4"><a xlink:href="class_ogre_1_1_texture_gpu_listener.html" target="_top" xlink:title=" ">
<polygon fill="white" stroke="#666666" points="262.5,-74 134.5,-74 134.5,-55 262.5,-55 262.5,-74"/>
<text text-anchor="middle" x="198.5" y="-62" font-family="Helvetica,sans-Serif" font-size="10.00">Ogre::TextureGpuListener</text>
</a>
</g>
</g>
<!-- Node4&#45;&gt;Node1 -->
<g id="edge3" class="edge">
<title>Node4&#45;&gt;Node1</title>
<path fill="none" stroke="#63b8ff" d="M177.55,-47.64C165.33,-38.39 150.36,-27.05 140.2,-19.36"/>
<polygon fill="#63b8ff" stroke="#63b8ff" points="175.33,-50.35 185.42,-53.6 179.56,-44.77 175.33,-50.35"/>
</g>
</g>
</svg>
