<?xml version="1.0" encoding="UTF-8" standalone="no"?>
<!DOCTYPE svg PUBLIC "-//W3C//DTD SVG 1.1//EN"
 "http://www.w3.org/Graphics/SVG/1.1/DTD/svg11.dtd">
<!-- Generated by graphviz version 7.0.5 (20221223.1930)
 -->
<!-- Title: Ogre::TextureFilter::FilterBase Pages: 1 -->
<svg width="432pt" height="230pt"
 viewBox="0.00 0.00 432.00 230.00" xmlns="http://www.w3.org/2000/svg" xmlns:xlink="http://www.w3.org/1999/xlink">
<g id="graph0" class="graph" transform="scale(1 1) rotate(0) translate(4 226)">
<title>Ogre::TextureFilter::FilterBase</title>
<!-- Node1 -->
<g id="node1" class="node">
<title>Node1</title>
<g id="a_node1"><a xlink:title=" ">
<polygon fill="#999999" stroke="#666666" points="251,-126 155,-126 155,-96 251,-96 251,-126"/>
<text text-anchor="start" x="163" y="-114" font-family="Helvetica,sans-Serif" font-size="10.00">Ogre::TextureFilter</text>
<text text-anchor="middle" x="203" y="-103" font-family="Helvetica,sans-Serif" font-size="10.00">::FilterBase</text>
</a>
</g>
</g>
<!-- Node3 -->
<g id="node3" class="node">
<title>Node3</title>
<g id="a_node3"><a xlink:href="class_ogre_1_1_texture_filter_1_1_generate_hw_mipmaps.html" target="_top" xlink:title=" ">
<polygon fill="white" stroke="#666666" points="413.5,-222 297.5,-222 297.5,-192 413.5,-192 413.5,-222"/>
<text text-anchor="start" x="305.5" y="-210" font-family="Helvetica,sans-Serif" font-size="10.00">Ogre::TextureFilter</text>
<text text-anchor="middle" x="355.5" y="-199" font-family="Helvetica,sans-Serif" font-size="10.00">::GenerateHwMipmaps</text>
</a>
</g>
</g>
<!-- Node1&#45;&gt;Node3 -->
<g id="edge2" class="edge">
<title>Node1&#45;&gt;Node3</title>
<path fill="none" stroke="#63b8ff" d="M226.31,-134.49C242.07,-149.98 264.34,-169.78 287,-183 292.48,-186.2 298.45,-189.07 304.51,-191.63"/>
<polygon fill="#63b8ff" stroke="#63b8ff" points="228.87,-132.1 219.34,-127.47 223.9,-137.03 228.87,-132.1"/>
</g>
<!-- Node4 -->
<g id="node4" class="node">
<title>Node4</title>
<g id="a_node4"><a xlink:href="class_ogre_1_1_texture_filter_1_1_generate_sw_mipmaps.html" target="_top" xlink:title=" ">
<polygon fill="white" stroke="#666666" points="413,-174 298,-174 298,-144 413,-144 413,-174"/>
<text text-anchor="start" x="306" y="-162" font-family="Helvetica,sans-Serif" font-size="10.00">Ogre::TextureFilter</text>
<text text-anchor="middle" x="355.5" y="-151" font-family="Helvetica,sans-Serif" font-size="10.00">::GenerateSwMipmaps</text>
</a>
</g>
</g>
<!-- Node1&#45;&gt;Node4 -->
<g id="edge3" class="edge">
<title>Node1&#45;&gt;Node4</title>
<path fill="none" stroke="#63b8ff" d="M262.07,-129.52C276.55,-134.14 291.93,-139.04 305.9,-143.5"/>
<polygon fill="#63b8ff" stroke="#63b8ff" points="263.24,-126.22 252.65,-126.52 261.11,-132.89 263.24,-126.22"/>
</g>
<!-- Node5 -->
<g id="node5" class="node">
<title>Node5</title>
<g id="a_node5"><a xlink:href="class_ogre_1_1_texture_filter_1_1_leave_channel_r.html" target="_top" xlink:title=" ">
<polygon fill="white" stroke="#666666" points="403.5,-126 307.5,-126 307.5,-96 403.5,-96 403.5,-126"/>
<text text-anchor="start" x="315.5" y="-114" font-family="Helvetica,sans-Serif" font-size="10.00">Ogre::TextureFilter</text>
<text text-anchor="middle" x="355.5" y="-103" font-family="Helvetica,sans-Serif" font-size="10.00">::LeaveChannelR</text>
</a>
</g>
</g>
<!-- Node1&#45;&gt;Node5 -->
<g id="edge4" class="edge">
<title>Node1&#45;&gt;Node5</title>
<path fill="none" stroke="#63b8ff" d="M262.34,-111C277.2,-111 292.98,-111 307.2,-111"/>
<polygon fill="#63b8ff" stroke="#63b8ff" points="262.72,-107.5 252.72,-111 262.72,-114.5 262.72,-107.5"/>
</g>
<!-- Node6 -->
<g id="node6" class="node">
<title>Node6</title>
<g id="a_node6"><a xlink:href="class_ogre_1_1_texture_filter_1_1_premultiply_alpha.html" target="_top" xlink:title=" ">
<polygon fill="white" stroke="#666666" points="403.5,-78 307.5,-78 307.5,-48 403.5,-48 403.5,-78"/>
<text text-anchor="start" x="315.5" y="-66" font-family="Helvetica,sans-Serif" font-size="10.00">Ogre::TextureFilter</text>
<text text-anchor="middle" x="355.5" y="-55" font-family="Helvetica,sans-Serif" font-size="10.00">::PremultiplyAlpha</text>
</a>
</g>
</g>
<!-- Node1&#45;&gt;Node6 -->
<g id="edge5" class="edge">
<title>Node1&#45;&gt;Node6</title>
<path fill="none" stroke="#63b8ff" d="M261.91,-92.53C276.89,-87.75 292.84,-82.67 307.2,-78.08"/>
<polygon fill="#63b8ff" stroke="#63b8ff" points="261.11,-89.11 252.65,-95.48 263.24,-95.78 261.11,-89.11"/>
</g>
<!-- Node7 -->
<g id="node7" class="node">
<title>Node7</title>
<g id="a_node7"><a xlink:href="class_ogre_1_1_texture_filter_1_1_prepare_for_normal_mapping.html" target="_top" xlink:title=" ">
<polygon fill="white" stroke="#666666" points="424,-30 287,-30 287,0 424,0 424,-30"/>
<text text-anchor="start" x="295" y="-18" font-family="Helvetica,sans-Serif" font-size="10.00">Ogre::TextureFilter</text>
<text text-anchor="middle" x="355.5" y="-7" font-family="Helvetica,sans-Serif" font-size="10.00">::PrepareForNormalMapping</text>
</a>
</g>
</g>
<!-- Node1&#45;&gt;Node7 -->
<g id="edge6" class="edge">
<title>Node1&#45;&gt;Node7</title>
<path fill="none" stroke="#63b8ff" d="M226.31,-87.51C242.07,-72.02 264.34,-52.22 287,-39 292.48,-35.8 298.45,-32.93 304.51,-30.37"/>
<polygon fill="#63b8ff" stroke="#63b8ff" points="223.9,-84.97 219.34,-94.53 228.87,-89.9 223.9,-84.97"/>
</g>
<!-- Node2 -->
<g id="node2" class="node">
<title>Node2</title>
<g id="a_node2"><a xlink:title=" ">
<polygon fill="white" stroke="#666666" points="119,-120.5 0,-120.5 0,-101.5 119,-101.5 119,-120.5"/>
<text text-anchor="middle" x="59.5" y="-108.5" font-family="Helvetica,sans-Serif" font-size="10.00">Ogre::OgreAllocatedObj</text>
</a>
</g>
</g>
<!-- Node2&#45;&gt;Node1 -->
<g id="edge1" class="edge">
<title>Node2&#45;&gt;Node1</title>
<path fill="none" stroke="#63b8ff" d="M130.76,-111C138.91,-111 147.08,-111 154.82,-111"/>
<polygon fill="#63b8ff" stroke="#63b8ff" points="130.79,-107.5 120.79,-111 130.79,-114.5 130.79,-107.5"/>
</g>
</g>
</svg>
