<?xml version="1.0" encoding="UTF-8" standalone="no"?>
<!DOCTYPE svg PUBLIC "-//W3C//DTD SVG 1.1//EN"
 "http://www.w3.org/Graphics/SVG/1.1/DTD/svg11.dtd">
<!-- Generated by graphviz version 7.0.5 (20221223.1930)
 -->
<!-- Title: Ogre::VctVoxelizerSourceBase Pages: 1 -->
<svg width="246pt" height="137pt"
 viewBox="0.00 0.00 245.50 137.00" xmlns="http://www.w3.org/2000/svg" xmlns:xlink="http://www.w3.org/1999/xlink">
<g id="graph0" class="graph" transform="scale(1 1) rotate(0) translate(4 133)">
<title>Ogre::VctVoxelizerSourceBase</title>
<!-- Node1 -->
<g id="node1" class="node">
<title>Node1</title>
<g id="a_node1"><a xlink:title="This class contains shared functionality between voxelizer; and is used by VctLighting to source its ...">
<polygon fill="#999999" stroke="#666666" points="200,-74 51,-74 51,-55 200,-55 200,-74"/>
<text text-anchor="middle" x="125.5" y="-62" font-family="Helvetica,sans-Serif" font-size="10.00">Ogre::VctVoxelizerSourceBase</text>
</a>
</g>
</g>
<!-- Node3 -->
<g id="node3" class="node">
<title>Node3</title>
<g id="a_node3"><a xlink:href="class_ogre_1_1_vct_image_voxelizer.html" target="_top" xlink:title="The image voxelizer aims to be faster than VctImageVoxelizer for the whole scene by following a diffe...">
<polygon fill="white" stroke="#666666" points="123,-19 0,-19 0,0 123,0 123,-19"/>
<text text-anchor="middle" x="61.5" y="-7" font-family="Helvetica,sans-Serif" font-size="10.00">Ogre::VctImageVoxelizer</text>
</a>
</g>
</g>
<!-- Node1&#45;&gt;Node3 -->
<g id="edge2" class="edge">
<title>Node1&#45;&gt;Node3</title>
<path fill="none" stroke="#63b8ff" d="M106.02,-47.37C94.9,-38.16 81.4,-26.98 72.2,-19.36"/>
<polygon fill="#63b8ff" stroke="#63b8ff" points="103.54,-49.86 113.48,-53.54 108.01,-44.47 103.54,-49.86"/>
</g>
<!-- Node4 -->
<g id="node4" class="node">
<title>Node4</title>
<g id="a_node4"><a xlink:href="class_ogre_1_1_vct_voxelizer.html" target="_top" xlink:title="The voxelizer consists in several stages.">
<polygon fill="white" stroke="#666666" points="237.5,-19 141.5,-19 141.5,0 237.5,0 237.5,-19"/>
<text text-anchor="middle" x="189.5" y="-7" font-family="Helvetica,sans-Serif" font-size="10.00">Ogre::VctVoxelizer</text>
</a>
</g>
</g>
<!-- Node1&#45;&gt;Node4 -->
<g id="edge3" class="edge">
<title>Node1&#45;&gt;Node4</title>
<path fill="none" stroke="#63b8ff" d="M144.98,-47.37C156.1,-38.16 169.6,-26.98 178.8,-19.36"/>
<polygon fill="#63b8ff" stroke="#63b8ff" points="142.99,-44.47 137.52,-53.54 147.46,-49.86 142.99,-44.47"/>
</g>
<!-- Node2 -->
<g id="node2" class="node">
<title>Node2</title>
<g id="a_node2"><a xlink:href="class_ogre_1_1_id_object.html" target="_top" xlink:title=" ">
<polygon fill="white" stroke="#666666" points="165,-129 86,-129 86,-110 165,-110 165,-129"/>
<text text-anchor="middle" x="125.5" y="-117" font-family="Helvetica,sans-Serif" font-size="10.00">Ogre::IdObject</text>
</a>
</g>
</g>
<!-- Node2&#45;&gt;Node1 -->
<g id="edge1" class="edge">
<title>Node2&#45;&gt;Node1</title>
<path fill="none" stroke="#63b8ff" d="M125.5,-98.35C125.5,-90.1 125.5,-80.97 125.5,-74.44"/>
<polygon fill="#63b8ff" stroke="#63b8ff" points="122,-98.23 125.5,-108.23 129,-98.23 122,-98.23"/>
</g>
</g>
</svg>
