<?xml version="1.0" encoding="UTF-8" standalone="no"?>
<!DOCTYPE svg PUBLIC "-//W3C//DTD SVG 1.1//EN"
 "http://www.w3.org/Graphics/SVG/1.1/DTD/svg11.dtd">
<!-- Generated by graphviz version 7.0.5 (20221223.1930)
 -->
<!-- Title: Ogre::GL3PlusSupport Pages: 1 -->
<svg width="293pt" height="286pt"
 viewBox="0.00 0.00 293.00 286.00" xmlns="http://www.w3.org/2000/svg" xmlns:xlink="http://www.w3.org/1999/xlink">
<g id="graph0" class="graph" transform="scale(1 1) rotate(0) translate(4 282)">
<title>Ogre::GL3PlusSupport</title>
<!-- Node1 -->
<g id="node1" class="node">
<title>Node1</title>
<g id="a_node1"><a xlink:title=" ">
<polygon fill="#999999" stroke="#666666" points="114,-148 0,-148 0,-129 114,-129 114,-148"/>
<text text-anchor="middle" x="57" y="-136" font-family="Helvetica,sans-Serif" font-size="10.00">Ogre::GL3PlusSupport</text>
</a>
</g>
</g>
<!-- Node2 -->
<g id="node2" class="node">
<title>Node2</title>
<g id="a_node2"><a xlink:href="class_ogre_1_1_e_g_l_g_l_support.html" target="_top" xlink:title=" ">
<polygon fill="white" stroke="#666666" points="272,-278 163,-278 163,-259 272,-259 272,-278"/>
<text text-anchor="middle" x="217.5" y="-266" font-family="Helvetica,sans-Serif" font-size="10.00">Ogre::EGLGLSupport</text>
</a>
</g>
</g>
<!-- Node1&#45;&gt;Node2 -->
<g id="edge1" class="edge">
<title>Node1&#45;&gt;Node2</title>
<path fill="none" stroke="#63b8ff" d="M68.9,-158.2C83.87,-183.43 113.18,-226.71 150,-250.5 155.02,-253.75 160.62,-256.41 166.38,-258.6"/>
<polygon fill="#63b8ff" stroke="#63b8ff" points="71.98,-156.55 63.97,-149.62 65.91,-160.04 71.98,-156.55"/>
</g>
<!-- Node3 -->
<g id="node3" class="node">
<title>Node3</title>
<g id="a_node3"><a xlink:href="class_ogre_1_1_egl_p_buffer_support.html" target="_top" xlink:title=" ">
<polygon fill="white" stroke="#666666" points="278.5,-241 156.5,-241 156.5,-222 278.5,-222 278.5,-241"/>
<text text-anchor="middle" x="217.5" y="-229" font-family="Helvetica,sans-Serif" font-size="10.00">Ogre::EglPBufferSupport</text>
</a>
</g>
</g>
<!-- Node1&#45;&gt;Node3 -->
<g id="edge2" class="edge">
<title>Node1&#45;&gt;Node3</title>
<path fill="none" stroke="#63b8ff" d="M75.26,-156.4C92.64,-173.43 120.96,-198.6 150,-213.5 156.17,-216.67 162.96,-219.32 169.77,-221.54"/>
<polygon fill="#63b8ff" stroke="#63b8ff" points="77.83,-154.02 68.29,-149.4 72.87,-158.96 77.83,-154.02"/>
</g>
<!-- Node4 -->
<g id="node4" class="node">
<title>Node4</title>
<g id="a_node4"><a xlink:href="class_ogre_1_1_g_l_x_g_l_support.html" target="_top" xlink:title=" ">
<polygon fill="white" stroke="#666666" points="272.5,-204 162.5,-204 162.5,-185 272.5,-185 272.5,-204"/>
<text text-anchor="middle" x="217.5" y="-192" font-family="Helvetica,sans-Serif" font-size="10.00">Ogre::GLXGLSupport</text>
</a>
</g>
</g>
<!-- Node1&#45;&gt;Node4 -->
<g id="edge3" class="edge">
<title>Node1&#45;&gt;Node4</title>
<path fill="none" stroke="#63b8ff" d="M89.88,-152.84C107.42,-160.43 129.68,-169.58 150,-176.5 158.49,-179.39 167.72,-182.13 176.51,-184.56"/>
<polygon fill="#63b8ff" stroke="#63b8ff" points="91.59,-149.77 81.02,-148.96 88.78,-156.18 91.59,-149.77"/>
</g>
<!-- Node5 -->
<g id="node5" class="node">
<title>Node5</title>
<g id="a_node5"><a xlink:href="class_ogre_1_1_g_t_k_g_l_support.html" target="_top" xlink:title="GL support in a GTK window.">
<polygon fill="white" stroke="#666666" points="272.5,-167 162.5,-167 162.5,-148 272.5,-148 272.5,-167"/>
<text text-anchor="middle" x="217.5" y="-155" font-family="Helvetica,sans-Serif" font-size="10.00">Ogre::GTKGLSupport</text>
</a>
</g>
</g>
<!-- Node1&#45;&gt;Node5 -->
<g id="edge4" class="edge">
<title>Node1&#45;&gt;Node5</title>
<path fill="none" stroke="#63b8ff" d="M125.45,-146.59C137.73,-148.06 150.38,-149.57 162.21,-150.99"/>
<polygon fill="#63b8ff" stroke="#63b8ff" points="126.18,-143.15 115.83,-145.43 125.34,-150.1 126.18,-143.15"/>
</g>
<!-- Node6 -->
<g id="node6" class="node">
<title>Node6</title>
<g id="a_node6"><a xlink:href="class_ogre_1_1_gl_switchable_support.html" target="_top" xlink:title=" ">
<polygon fill="white" stroke="#666666" points="284.5,-130 150.5,-130 150.5,-111 284.5,-111 284.5,-130"/>
<text text-anchor="middle" x="217.5" y="-118" font-family="Helvetica,sans-Serif" font-size="10.00">Ogre::GlSwitchableSupport</text>
</a>
</g>
</g>
<!-- Node1&#45;&gt;Node6 -->
<g id="edge5" class="edge">
<title>Node1&#45;&gt;Node6</title>
<path fill="none" stroke="#63b8ff" d="M125.63,-130.82C133.72,-129.9 141.98,-128.96 150.06,-128.05"/>
<polygon fill="#63b8ff" stroke="#63b8ff" points="125.37,-127.33 115.83,-131.93 126.16,-134.28 125.37,-127.33"/>
</g>
<!-- Node7 -->
<g id="node7" class="node">
<title>Node7</title>
<g id="a_node7"><a xlink:href="class_ogre_1_1_o_s_x_g_l3_plus_support.html" target="_top" xlink:title=" ">
<polygon fill="white" stroke="#666666" points="285,-93 150,-93 150,-74 285,-74 285,-93"/>
<text text-anchor="middle" x="217.5" y="-81" font-family="Helvetica,sans-Serif" font-size="10.00">Ogre::OSXGL3PlusSupport</text>
</a>
</g>
</g>
<!-- Node1&#45;&gt;Node7 -->
<g id="edge6" class="edge">
<title>Node1&#45;&gt;Node7</title>
<path fill="none" stroke="#63b8ff" d="M92.25,-124.21C109.44,-117.26 130.67,-109.03 150,-102.5 159.44,-99.31 169.75,-96.19 179.37,-93.44"/>
<polygon fill="#63b8ff" stroke="#63b8ff" points="90.94,-120.96 83,-127.98 93.58,-127.44 90.94,-120.96"/>
</g>
<!-- Node8 -->
<g id="node8" class="node">
<title>Node8</title>
<g id="a_node8"><a xlink:href="class_ogre_1_1_s_d_l_g_l_support.html" target="_top" xlink:title=" ">
<polygon fill="white" stroke="#666666" points="272,-56 163,-56 163,-37 272,-37 272,-56"/>
<text text-anchor="middle" x="217.5" y="-44" font-family="Helvetica,sans-Serif" font-size="10.00">Ogre::SDLGLSupport</text>
</a>
</g>
</g>
<!-- Node1&#45;&gt;Node8 -->
<g id="edge7" class="edge">
<title>Node1&#45;&gt;Node8</title>
<path fill="none" stroke="#63b8ff" d="M75.4,-121.19C92.88,-104.7 121.27,-80.26 150,-65.5 156.94,-61.93 164.65,-58.95 172.28,-56.49"/>
<polygon fill="#63b8ff" stroke="#63b8ff" points="73.16,-118.48 68.4,-127.95 78.02,-123.52 73.16,-118.48"/>
</g>
<!-- Node9 -->
<g id="node9" class="node">
<title>Node9</title>
<g id="a_node9"><a xlink:href="class_ogre_1_1_win32_g_l_support.html" target="_top" xlink:title=" ">
<polygon fill="white" stroke="#666666" points="275.5,-19 159.5,-19 159.5,0 275.5,0 275.5,-19"/>
<text text-anchor="middle" x="217.5" y="-7" font-family="Helvetica,sans-Serif" font-size="10.00">Ogre::Win32GLSupport</text>
</a>
</g>
</g>
<!-- Node1&#45;&gt;Node9 -->
<g id="edge8" class="edge">
<title>Node1&#45;&gt;Node9</title>
<path fill="none" stroke="#63b8ff" d="M69.26,-118.86C84.45,-94.12 113.81,-52.02 150,-28.5 155.64,-24.84 161.99,-21.87 168.48,-19.46"/>
<polygon fill="#63b8ff" stroke="#63b8ff" points="66.35,-116.9 64.25,-127.28 72.37,-120.48 66.35,-116.9"/>
</g>
</g>
</svg>
