<?xml version="1.0" encoding="UTF-8" standalone="no"?>
<!DOCTYPE svg PUBLIC "-//W3C//DTD SVG 1.1//EN"
 "http://www.w3.org/Graphics/SVG/1.1/DTD/svg11.dtd">
<!-- Generated by graphviz version 7.0.5 (20221223.1930)
 -->
<!-- Title: Ogre::ParallaxCorrectedCubemapAuto Pages: 1 -->
<svg width="373pt" height="148pt"
 viewBox="0.00 0.00 373.00 148.00" xmlns="http://www.w3.org/2000/svg" xmlns:xlink="http://www.w3.org/1999/xlink">
<g id="graph0" class="graph" transform="scale(1 1) rotate(0) translate(4 144)">
<title>Ogre::ParallaxCorrectedCubemapAuto</title>
<!-- Node1 -->
<g id="node1" class="node">
<title>Node1</title>
<g id="a_node1"><a xlink:title="Per&#45;Pixel reflection probes.">
<polygon fill="#999999" stroke="#666666" points="321.5,-19 141.5,-19 141.5,0 321.5,0 321.5,-19"/>
<text text-anchor="middle" x="231.5" y="-7" font-family="Helvetica,sans-Serif" font-size="10.00">Ogre::ParallaxCorrectedCubemapAuto</text>
</a>
</g>
</g>
<!-- Node2 -->
<g id="node2" class="node">
<title>Node2</title>
<g id="a_node2"><a xlink:href="class_ogre_1_1_parallax_corrected_cubemap_base.html" target="_top" xlink:title=" ">
<polygon fill="white" stroke="#666666" points="241.5,-74 59.5,-74 59.5,-55 241.5,-55 241.5,-74"/>
<text text-anchor="middle" x="150.5" y="-62" font-family="Helvetica,sans-Serif" font-size="10.00">Ogre::ParallaxCorrectedCubemapBase</text>
</a>
</g>
</g>
<!-- Node2&#45;&gt;Node1 -->
<g id="edge1" class="edge">
<title>Node2&#45;&gt;Node1</title>
<path fill="none" stroke="#63b8ff" d="M173.49,-48.46C187.85,-39.06 205.85,-27.28 217.96,-19.36"/>
<polygon fill="#63b8ff" stroke="#63b8ff" points="171.96,-45.28 165.51,-53.68 175.79,-51.13 171.96,-45.28"/>
</g>
<!-- Node3 -->
<g id="node3" class="node">
<title>Node3</title>
<g id="a_node3"><a xlink:href="class_ogre_1_1_id_object.html" target="_top" xlink:title=" ">
<polygon fill="white" stroke="#666666" points="79,-134.5 0,-134.5 0,-115.5 79,-115.5 79,-134.5"/>
<text text-anchor="middle" x="39.5" y="-122.5" font-family="Helvetica,sans-Serif" font-size="10.00">Ogre::IdObject</text>
</a>
</g>
</g>
<!-- Node3&#45;&gt;Node2 -->
<g id="edge2" class="edge">
<title>Node3&#45;&gt;Node2</title>
<path fill="none" stroke="#63b8ff" d="M66.51,-109.76C87.39,-98.76 115.65,-83.86 133.48,-74.47"/>
<polygon fill="#63b8ff" stroke="#63b8ff" points="64.91,-106.65 57.7,-114.41 68.18,-112.84 64.91,-106.65"/>
</g>
<!-- Node4 -->
<g id="node4" class="node">
<title>Node4</title>
<g id="a_node4"><a xlink:href="class_ogre_1_1_render_system_1_1_listener.html" target="_top" xlink:title="Defines a listener on the custom events that this render system can raise.">
<polygon fill="white" stroke="#666666" points="203.5,-140 97.5,-140 97.5,-110 203.5,-110 203.5,-140"/>
<text text-anchor="start" x="105.5" y="-128" font-family="Helvetica,sans-Serif" font-size="10.00">Ogre::RenderSystem</text>
<text text-anchor="middle" x="150.5" y="-117" font-family="Helvetica,sans-Serif" font-size="10.00">::Listener</text>
</a>
</g>
</g>
<!-- Node4&#45;&gt;Node2 -->
<g id="edge3" class="edge">
<title>Node4&#45;&gt;Node2</title>
<path fill="none" stroke="#63b8ff" d="M150.5,-98.3C150.5,-89.65 150.5,-80.58 150.5,-74.18"/>
<polygon fill="#63b8ff" stroke="#63b8ff" points="147,-98.03 150.5,-108.03 154,-98.03 147,-98.03"/>
</g>
<!-- Node5 -->
<g id="node5" class="node">
<title>Node5</title>
<g id="a_node5"><a xlink:href="class_ogre_1_1_compositor_workspace_listener.html" target="_top" xlink:title=" ">
<polygon fill="white" stroke="#666666" points="361.5,-140 221.5,-140 221.5,-110 361.5,-110 361.5,-140"/>
<text text-anchor="start" x="229.5" y="-128" font-family="Helvetica,sans-Serif" font-size="10.00">Ogre::CompositorWorkspace</text>
<text text-anchor="middle" x="291.5" y="-117" font-family="Helvetica,sans-Serif" font-size="10.00">Listener</text>
</a>
</g>
</g>
<!-- Node5&#45;&gt;Node2 -->
<g id="edge4" class="edge">
<title>Node5&#45;&gt;Node2</title>
<path fill="none" stroke="#63b8ff" d="M246.29,-105.24C221.33,-94.89 191.49,-82.51 171.82,-74.35"/>
<polygon fill="#63b8ff" stroke="#63b8ff" points="244.67,-108.36 255.25,-108.96 247.35,-101.89 244.67,-108.36"/>
</g>
<!-- Node6 -->
<g id="node6" class="node">
<title>Node6</title>
<g id="a_node6"><a xlink:href="class_ogre_1_1_frame_listener.html" target="_top" xlink:title="A interface class defining a listener which can be used to receive notifications of frame events.">
<polygon fill="white" stroke="#666666" points="365,-74 260,-74 260,-55 365,-55 365,-74"/>
<text text-anchor="middle" x="312.5" y="-62" font-family="Helvetica,sans-Serif" font-size="10.00">Ogre::FrameListener</text>
</a>
</g>
</g>
<!-- Node6&#45;&gt;Node1 -->
<g id="edge5" class="edge">
<title>Node6&#45;&gt;Node1</title>
<path fill="none" stroke="#63b8ff" d="M289.51,-48.46C275.15,-39.06 257.15,-27.28 245.04,-19.36"/>
<polygon fill="#63b8ff" stroke="#63b8ff" points="287.21,-51.13 297.49,-53.68 291.04,-45.28 287.21,-51.13"/>
</g>
</g>
</svg>
