<?xml version="1.0" encoding="UTF-8" standalone="no"?>
<!DOCTYPE svg PUBLIC "-//W3C//DTD SVG 1.1//EN"
 "http://www.w3.org/Graphics/SVG/1.1/DTD/svg11.dtd">
<!-- Generated by graphviz version 2.43.0 (0)
 -->
<!-- Title: Ogre::D3D11TextureGpuRenderTarget Pages: 1 -->
<svg width="382pt" height="319pt"
 viewBox="0.00 0.00 381.50 319.00" xmlns="http://www.w3.org/2000/svg" xmlns:xlink="http://www.w3.org/1999/xlink">
<g id="graph0" class="graph" transform="scale(1 1) rotate(0) translate(4 315)">
<title>Ogre::D3D11TextureGpuRenderTarget</title>
<!-- Node1 -->
<g id="node1" class="node">
<title>Node1</title>
<g id="a_node1"><a xlink:title=" ">
<polygon fill="#bfbfbf" stroke="black" points="136,-56.5 136,-86.5 305,-86.5 305,-56.5 136,-56.5"/>
<text text-anchor="start" x="144" y="-74.5" font-family="Helvetica,sans-Serif" font-size="10.00">Ogre::D3D11TextureGpuRender</text>
<text text-anchor="middle" x="220.5" y="-63.5" font-family="Helvetica,sans-Serif" font-size="10.00">Target</text>
</a>
</g>
</g>
<!-- Node8 -->
<g id="node8" class="node">
<title>Node8</title>
<g id="a_node8"><a xlink:href="class_ogre_1_1_d3_d11_texture_gpu_window.html" target="_top" xlink:title=" ">
<polygon fill="none" stroke="black" points="134,-0.5 134,-19.5 307,-19.5 307,-0.5 134,-0.5"/>
<text text-anchor="middle" x="220.5" y="-7.5" font-family="Helvetica,sans-Serif" font-size="10.00">Ogre::D3D11TextureGpuWindow</text>
</a>
</g>
</g>
<!-- Node1&#45;&gt;Node8 -->
<g id="edge7" class="edge">
<title>Node1&#45;&gt;Node8</title>
<path fill="none" stroke="midnightblue" d="M220.5,-46.29C220.5,-36.86 220.5,-26.65 220.5,-19.66"/>
<polygon fill="midnightblue" stroke="midnightblue" points="217,-46.4 220.5,-56.4 224,-46.4 217,-46.4"/>
</g>
<!-- Node2 -->
<g id="node2" class="node">
<title>Node2</title>
<g id="a_node2"><a xlink:href="class_ogre_1_1_d3_d11_texture_gpu.html" target="_top" xlink:title=" ">
<polygon fill="none" stroke="black" points="153.5,-123.5 153.5,-142.5 287.5,-142.5 287.5,-123.5 153.5,-123.5"/>
<text text-anchor="middle" x="220.5" y="-130.5" font-family="Helvetica,sans-Serif" font-size="10.00">Ogre::D3D11TextureGpu</text>
</a>
</g>
</g>
<!-- Node2&#45;&gt;Node1 -->
<g id="edge1" class="edge">
<title>Node2&#45;&gt;Node1</title>
<path fill="none" stroke="midnightblue" d="M220.5,-113.23C220.5,-104.59 220.5,-94.5 220.5,-86.52"/>
<polygon fill="midnightblue" stroke="midnightblue" points="217,-113.48 220.5,-123.48 224,-113.48 217,-113.48"/>
</g>
<!-- Node3 -->
<g id="node3" class="node">
<title>Node3</title>
<g id="a_node3"><a xlink:href="class_ogre_1_1_texture_gpu.html" target="_top" xlink:title=" ">
<polygon fill="none" stroke="black" points="96,-179.5 96,-198.5 197,-198.5 197,-179.5 96,-179.5"/>
<text text-anchor="middle" x="146.5" y="-186.5" font-family="Helvetica,sans-Serif" font-size="10.00">Ogre::TextureGpu</text>
</a>
</g>
</g>
<!-- Node3&#45;&gt;Node2 -->
<g id="edge2" class="edge">
<title>Node3&#45;&gt;Node2</title>
<path fill="none" stroke="midnightblue" d="M166.53,-173.38C179.91,-163.62 197.06,-151.11 208.39,-142.83"/>
<polygon fill="midnightblue" stroke="midnightblue" points="164.4,-170.6 158.39,-179.32 168.53,-176.26 164.4,-170.6"/>
</g>
<!-- Node4 -->
<g id="node4" class="node">
<title>Node4</title>
<g id="a_node4"><a xlink:href="struct_ogre_1_1_gpu_tracked_resource.html" target="_top" xlink:title=" ">
<polygon fill="none" stroke="black" points="0,-235.5 0,-254.5 147,-254.5 147,-235.5 0,-235.5"/>
<text text-anchor="middle" x="73.5" y="-242.5" font-family="Helvetica,sans-Serif" font-size="10.00">Ogre::GpuTrackedResource</text>
</a>
</g>
</g>
<!-- Node4&#45;&gt;Node3 -->
<g id="edge3" class="edge">
<title>Node4&#45;&gt;Node3</title>
<path fill="none" stroke="midnightblue" d="M93.64,-229.1C106.78,-219.38 123.48,-207.03 134.56,-198.83"/>
<polygon fill="midnightblue" stroke="midnightblue" points="91.19,-226.56 85.23,-235.32 95.35,-232.19 91.19,-226.56"/>
</g>
<!-- Node5 -->
<g id="node5" class="node">
<title>Node5</title>
<g id="a_node5"><a xlink:href="class_ogre_1_1_gpu_resource.html" target="_top" xlink:title=" ">
<polygon fill="none" stroke="black" points="165.5,-235.5 165.5,-254.5 275.5,-254.5 275.5,-235.5 165.5,-235.5"/>
<text text-anchor="middle" x="220.5" y="-242.5" font-family="Helvetica,sans-Serif" font-size="10.00">Ogre::GpuResource</text>
</a>
</g>
</g>
<!-- Node5&#45;&gt;Node3 -->
<g id="edge4" class="edge">
<title>Node5&#45;&gt;Node3</title>
<path fill="none" stroke="midnightblue" d="M200.47,-229.38C187.09,-219.62 169.94,-207.11 158.61,-198.83"/>
<polygon fill="midnightblue" stroke="midnightblue" points="198.47,-232.26 208.61,-235.32 202.6,-226.6 198.47,-232.26"/>
</g>
<!-- Node6 -->
<g id="node6" class="node">
<title>Node6</title>
<g id="a_node6"><a xlink:title=" ">
<polygon fill="none" stroke="#bfbfbf" points="169.5,-291.5 169.5,-310.5 271.5,-310.5 271.5,-291.5 169.5,-291.5"/>
<text text-anchor="middle" x="220.5" y="-298.5" font-family="Helvetica,sans-Serif" font-size="10.00">OgreAllocatedObj</text>
</a>
</g>
</g>
<!-- Node6&#45;&gt;Node5 -->
<g id="edge5" class="edge">
<title>Node6&#45;&gt;Node5</title>
<path fill="none" stroke="midnightblue" d="M220.5,-280.8C220.5,-271.91 220.5,-261.78 220.5,-254.75"/>
<polygon fill="midnightblue" stroke="midnightblue" points="217,-281.08 220.5,-291.08 224,-281.08 217,-281.08"/>
</g>
<!-- Node7 -->
<g id="node7" class="node">
<title>Node7</title>
<g id="a_node7"><a xlink:href="class_ogre_1_1_d3_d11_device_resource.html" target="_top" xlink:title="Represents a Direct3D rendering resource.">
<polygon fill="none" stroke="black" points="215.5,-179.5 215.5,-198.5 373.5,-198.5 373.5,-179.5 215.5,-179.5"/>
<text text-anchor="middle" x="294.5" y="-186.5" font-family="Helvetica,sans-Serif" font-size="10.00">Ogre::D3D11DeviceResource</text>
</a>
</g>
</g>
<!-- Node7&#45;&gt;Node2 -->
<g id="edge6" class="edge">
<title>Node7&#45;&gt;Node2</title>
<path fill="none" stroke="#8b1a1a" d="M274.47,-173.38C261.09,-163.62 243.94,-151.11 232.61,-142.83"/>
<polygon fill="#8b1a1a" stroke="#8b1a1a" points="272.47,-176.26 282.61,-179.32 276.6,-170.6 272.47,-176.26"/>
</g>
</g>
</svg>
