<?xml version="1.0" encoding="UTF-8" standalone="no"?>
<!DOCTYPE svg PUBLIC "-//W3C//DTD SVG 1.1//EN"
 "http://www.w3.org/Graphics/SVG/1.1/DTD/svg11.dtd">
<!-- Generated by graphviz version 7.0.5 (20221223.1930)
 -->
<!-- Title: Ogre::ParticleEmitter Pages: 1 -->
<svg width="460pt" height="302pt"
 viewBox="0.00 0.00 459.50 302.00" xmlns="http://www.w3.org/2000/svg" xmlns:xlink="http://www.w3.org/1999/xlink">
<g id="graph0" class="graph" transform="scale(1 1) rotate(0) translate(4 298)">
<title>Ogre::ParticleEmitter</title>
<!-- Node1 -->
<g id="node1" class="node">
<title>Node1</title>
<g id="a_node1"><a xlink:title="Abstract class defining the interface to be implemented by particle emitters.">
<polygon fill="#999999" stroke="#666666" points="332.5,-184 226.5,-184 226.5,-165 332.5,-165 332.5,-184"/>
<text text-anchor="middle" x="279.5" y="-172" font-family="Helvetica,sans-Serif" font-size="10.00">Ogre::ParticleEmitter</text>
</a>
</g>
</g>
<!-- Node5 -->
<g id="node5" class="node">
<title>Node5</title>
<g id="a_node5"><a xlink:href="class_ogre_1_1_area_emitter.html" target="_top" xlink:title="Particle emitter which emits particles randomly from points inside an area (box, sphere,...">
<polygon fill="white" stroke="#666666" points="270,-129 177,-129 177,-110 270,-110 270,-129"/>
<text text-anchor="middle" x="223.5" y="-117" font-family="Helvetica,sans-Serif" font-size="10.00">Ogre::AreaEmitter</text>
</a>
</g>
</g>
<!-- Node1&#45;&gt;Node5 -->
<g id="edge4" class="edge">
<title>Node1&#45;&gt;Node5</title>
<path fill="none" stroke="#63b8ff" d="M261.87,-156.81C252.26,-147.72 240.75,-136.82 232.86,-129.36"/>
<polygon fill="#63b8ff" stroke="#63b8ff" points="259.23,-159.14 268.9,-163.47 264.04,-154.05 259.23,-159.14"/>
</g>
<!-- Node11 -->
<g id="node11" class="node">
<title>Node11</title>
<g id="a_node11"><a xlink:href="class_ogre_1_1_point_emitter.html" target="_top" xlink:title="Particle emitter which emits particles from a single point.">
<polygon fill="white" stroke="#666666" points="383,-129 288,-129 288,-110 383,-110 383,-129"/>
<text text-anchor="middle" x="335.5" y="-117" font-family="Helvetica,sans-Serif" font-size="10.00">Ogre::PointEmitter</text>
</a>
</g>
</g>
<!-- Node1&#45;&gt;Node11 -->
<g id="edge10" class="edge">
<title>Node1&#45;&gt;Node11</title>
<path fill="none" stroke="#63b8ff" d="M297.13,-156.81C306.74,-147.72 318.25,-136.82 326.14,-129.36"/>
<polygon fill="#63b8ff" stroke="#63b8ff" points="294.96,-154.05 290.1,-163.47 299.77,-159.14 294.96,-154.05"/>
</g>
<!-- Node2 -->
<g id="node2" class="node">
<title>Node2</title>
<g id="a_node2"><a xlink:href="class_ogre_1_1_string_interface.html" target="_top" xlink:title="Class defining the common interface which classes can use to present a reflection&#45;style,...">
<polygon fill="white" stroke="#666666" points="278.5,-239 172.5,-239 172.5,-220 278.5,-220 278.5,-239"/>
<text text-anchor="middle" x="225.5" y="-227" font-family="Helvetica,sans-Serif" font-size="10.00">Ogre::StringInterface</text>
</a>
</g>
</g>
<!-- Node2&#45;&gt;Node1 -->
<g id="edge1" class="edge">
<title>Node2&#45;&gt;Node1</title>
<path fill="none" stroke="#63b8ff" d="M242.54,-211.78C251.76,-202.72 262.79,-191.9 270.39,-184.44"/>
<polygon fill="#63b8ff" stroke="#63b8ff" points="240.18,-209.19 235.5,-218.69 245.09,-214.18 240.18,-209.19"/>
</g>
<!-- Node3 -->
<g id="node3" class="node">
<title>Node3</title>
<g id="a_node3"><a xlink:href="class_ogre_1_1_particle.html" target="_top" xlink:title="Class representing a single particle instance.">
<polygon fill="white" stroke="#666666" points="372,-239 297,-239 297,-220 372,-220 372,-239"/>
<text text-anchor="middle" x="334.5" y="-227" font-family="Helvetica,sans-Serif" font-size="10.00">Ogre::Particle</text>
</a>
</g>
</g>
<!-- Node3&#45;&gt;Node1 -->
<g id="edge2" class="edge">
<title>Node3&#45;&gt;Node1</title>
<path fill="none" stroke="#63b8ff" d="M317.15,-211.78C307.75,-202.72 296.52,-191.9 288.78,-184.44"/>
<polygon fill="#63b8ff" stroke="#63b8ff" points="314.7,-214.28 324.33,-218.7 319.56,-209.24 314.7,-214.28"/>
</g>
<!-- Node4 -->
<g id="node4" class="node">
<title>Node4</title>
<g id="a_node4"><a xlink:title=" ">
<polygon fill="white" stroke="#666666" points="394,-294 275,-294 275,-275 394,-275 394,-294"/>
<text text-anchor="middle" x="334.5" y="-282" font-family="Helvetica,sans-Serif" font-size="10.00">Ogre::OgreAllocatedObj</text>
</a>
</g>
</g>
<!-- Node4&#45;&gt;Node3 -->
<g id="edge3" class="edge">
<title>Node4&#45;&gt;Node3</title>
<path fill="none" stroke="#63b8ff" d="M334.5,-263.35C334.5,-255.1 334.5,-245.97 334.5,-239.44"/>
<polygon fill="#63b8ff" stroke="#63b8ff" points="331,-263.23 334.5,-273.23 338,-263.23 331,-263.23"/>
</g>
<!-- Node6 -->
<g id="node6" class="node">
<title>Node6</title>
<g id="a_node6"><a xlink:href="class_ogre_1_1_box_emitter.html" target="_top" xlink:title="Particle emitter which emits particles randomly from points inside a box.">
<polygon fill="white" stroke="#666666" points="89,-74 0,-74 0,-55 89,-55 89,-74"/>
<text text-anchor="middle" x="44.5" y="-62" font-family="Helvetica,sans-Serif" font-size="10.00">Ogre::BoxEmitter</text>
</a>
</g>
</g>
<!-- Node5&#45;&gt;Node6 -->
<g id="edge5" class="edge">
<title>Node5&#45;&gt;Node6</title>
<path fill="none" stroke="#63b8ff" d="M182.52,-106.36C149.67,-96.64 104.32,-83.21 74.71,-74.45"/>
<polygon fill="#63b8ff" stroke="#63b8ff" points="181.1,-109.6 191.68,-109.08 183.09,-102.88 181.1,-109.6"/>
</g>
<!-- Node7 -->
<g id="node7" class="node">
<title>Node7</title>
<g id="a_node7"><a xlink:href="class_ogre_1_1_cylinder_emitter.html" target="_top" xlink:title="Particle emitter which emits particles randomly from points inside a cylinder.">
<polygon fill="white" stroke="#666666" points="214,-74 107,-74 107,-55 214,-55 214,-74"/>
<text text-anchor="middle" x="160.5" y="-62" font-family="Helvetica,sans-Serif" font-size="10.00">Ogre::CylinderEmitter</text>
</a>
</g>
</g>
<!-- Node5&#45;&gt;Node7 -->
<g id="edge6" class="edge">
<title>Node5&#45;&gt;Node7</title>
<path fill="none" stroke="#63b8ff" d="M204.32,-102.37C193.38,-93.16 180.09,-81.98 171.03,-74.36"/>
<polygon fill="#63b8ff" stroke="#63b8ff" points="201.75,-104.78 211.65,-108.53 206.26,-99.42 201.75,-104.78"/>
</g>
<!-- Node8 -->
<g id="node8" class="node">
<title>Node8</title>
<g id="a_node8"><a xlink:href="class_ogre_1_1_ellipsoid_emitter.html" target="_top" xlink:title="Particle emitter which emits particles randomly from points inside an ellipsoid.">
<polygon fill="white" stroke="#666666" points="341,-74 232,-74 232,-55 341,-55 341,-74"/>
<text text-anchor="middle" x="286.5" y="-62" font-family="Helvetica,sans-Serif" font-size="10.00">Ogre::EllipsoidEmitter</text>
</a>
</g>
</g>
<!-- Node5&#45;&gt;Node8 -->
<g id="edge7" class="edge">
<title>Node5&#45;&gt;Node8</title>
<path fill="none" stroke="#63b8ff" d="M242.68,-102.37C253.62,-93.16 266.91,-81.98 275.97,-74.36"/>
<polygon fill="#63b8ff" stroke="#63b8ff" points="240.74,-99.42 235.35,-108.53 245.25,-104.78 240.74,-99.42"/>
</g>
<!-- Node10 -->
<g id="node10" class="node">
<title>Node10</title>
<g id="a_node10"><a xlink:href="class_ogre_1_1_ring_emitter.html" target="_top" xlink:title="Particle emitter which emits particles randomly from points inside a ring (e.g.">
<polygon fill="white" stroke="#666666" points="451.5,-74 359.5,-74 359.5,-55 451.5,-55 451.5,-74"/>
<text text-anchor="middle" x="405.5" y="-62" font-family="Helvetica,sans-Serif" font-size="10.00">Ogre::RingEmitter</text>
</a>
</g>
</g>
<!-- Node5&#45;&gt;Node10 -->
<g id="edge9" class="edge">
<title>Node5&#45;&gt;Node10</title>
<path fill="none" stroke="#63b8ff" d="M265.17,-106.36C298.57,-96.64 344.67,-83.21 374.78,-74.45"/>
<polygon fill="#63b8ff" stroke="#63b8ff" points="264.45,-102.93 255.83,-109.09 266.41,-109.65 264.45,-102.93"/>
</g>
<!-- Node9 -->
<g id="node9" class="node">
<title>Node9</title>
<g id="a_node9"><a xlink:href="class_ogre_1_1_hollow_ellipsoid_emitter.html" target="_top" xlink:title="Particle emitter which emits particles randomly from points inside a hollow ellipsoid.">
<polygon fill="white" stroke="#666666" points="356,-19 217,-19 217,0 356,0 356,-19"/>
<text text-anchor="middle" x="286.5" y="-7" font-family="Helvetica,sans-Serif" font-size="10.00">Ogre::HollowEllipsoidEmitter</text>
</a>
</g>
</g>
<!-- Node8&#45;&gt;Node9 -->
<g id="edge8" class="edge">
<title>Node8&#45;&gt;Node9</title>
<path fill="none" stroke="#63b8ff" d="M286.5,-43.35C286.5,-35.1 286.5,-25.97 286.5,-19.44"/>
<polygon fill="#63b8ff" stroke="#63b8ff" points="283,-43.23 286.5,-53.23 290,-43.23 283,-43.23"/>
</g>
</g>
</svg>
