<?xml version="1.0" encoding="UTF-8" standalone="no"?>
<!DOCTYPE svg PUBLIC "-//W3C//DTD SVG 1.1//EN"
 "http://www.w3.org/Graphics/SVG/1.1/DTD/svg11.dtd">
<!-- Generated by graphviz version 7.0.5 (20221223.1930)
 -->
<!-- Title: Ogre::DataStream Pages: 1 -->
<svg width="434pt" height="175pt"
 viewBox="0.00 0.00 434.00 175.00" xmlns="http://www.w3.org/2000/svg" xmlns:xlink="http://www.w3.org/1999/xlink">
<g id="graph0" class="graph" transform="scale(1 1) rotate(0) translate(4 171)">
<title>Ogre::DataStream</title>
<!-- Node1 -->
<g id="node1" class="node">
<title>Node1</title>
<g id="a_node1"><a xlink:title="General purpose class used for encapsulating the reading and writing of data.">
<polygon fill="#999999" stroke="#666666" points="249,-93 155,-93 155,-74 249,-74 249,-93"/>
<text text-anchor="middle" x="202" y="-81" font-family="Helvetica,sans-Serif" font-size="10.00">Ogre::DataStream</text>
</a>
</g>
</g>
<!-- Node3 -->
<g id="node3" class="node">
<title>Node3</title>
<g id="a_node3"><a xlink:href="class_ogre_1_1_deflate_stream.html" target="_top" xlink:title="Stream which compresses / uncompresses data using the &#39;deflate&#39; compression algorithm.">
<polygon fill="white" stroke="#666666" points="407.5,-167 303.5,-167 303.5,-148 407.5,-148 407.5,-167"/>
<text text-anchor="middle" x="355.5" y="-155" font-family="Helvetica,sans-Serif" font-size="10.00">Ogre::DeflateStream</text>
</a>
</g>
</g>
<!-- Node1&#45;&gt;Node3 -->
<g id="edge2" class="edge">
<title>Node1&#45;&gt;Node3</title>
<path fill="none" stroke="#63b8ff" d="M223.62,-100.57C239.51,-112.97 262.51,-129.29 285,-139.5 291.92,-142.64 299.49,-145.31 307.01,-147.55"/>
<polygon fill="#63b8ff" stroke="#63b8ff" points="225.89,-97.91 215.89,-94.4 221.52,-103.37 225.89,-97.91"/>
</g>
<!-- Node4 -->
<g id="node4" class="node">
<title>Node4</title>
<g id="a_node4"><a xlink:href="class_ogre_1_1_file_handle_data_stream.html" target="_top" xlink:title="Common subclass of DataStream for handling data from C&#45;style file handles.">
<polygon fill="white" stroke="#666666" points="425.5,-130 285.5,-130 285.5,-111 425.5,-111 425.5,-130"/>
<text text-anchor="middle" x="355.5" y="-118" font-family="Helvetica,sans-Serif" font-size="10.00">Ogre::FileHandleDataStream</text>
</a>
</g>
</g>
<!-- Node1&#45;&gt;Node4 -->
<g id="edge3" class="edge">
<title>Node1&#45;&gt;Node4</title>
<path fill="none" stroke="#63b8ff" d="M254.65,-96.12C273.96,-100.83 295.6,-106.12 313.79,-110.56"/>
<polygon fill="#63b8ff" stroke="#63b8ff" points="255.61,-92.75 245.07,-93.77 253.95,-99.55 255.61,-92.75"/>
</g>
<!-- Node5 -->
<g id="node5" class="node">
<title>Node5</title>
<g id="a_node5"><a xlink:href="class_ogre_1_1_file_stream_data_stream.html" target="_top" xlink:title="Common subclass of DataStream for handling data from std::basic_istream.">
<polygon fill="white" stroke="#666666" points="426,-93 285,-93 285,-74 426,-74 426,-93"/>
<text text-anchor="middle" x="355.5" y="-81" font-family="Helvetica,sans-Serif" font-size="10.00">Ogre::FileStreamDataStream</text>
</a>
</g>
</g>
<!-- Node1&#45;&gt;Node5 -->
<g id="edge4" class="edge">
<title>Node1&#45;&gt;Node5</title>
<path fill="none" stroke="#63b8ff" d="M260.53,-83.5C268.37,-83.5 276.48,-83.5 284.52,-83.5"/>
<polygon fill="#63b8ff" stroke="#63b8ff" points="260.79,-80 250.79,-83.5 260.79,-87 260.79,-80"/>
</g>
<!-- Node6 -->
<g id="node6" class="node">
<title>Node6</title>
<g id="a_node6"><a xlink:href="class_ogre_1_1_memory_data_stream.html" target="_top" xlink:title="Common subclass of DataStream for handling data from chunks of memory.">
<polygon fill="white" stroke="#666666" points="419.5,-56 291.5,-56 291.5,-37 419.5,-37 419.5,-56"/>
<text text-anchor="middle" x="355.5" y="-44" font-family="Helvetica,sans-Serif" font-size="10.00">Ogre::MemoryDataStream</text>
</a>
</g>
</g>
<!-- Node1&#45;&gt;Node6 -->
<g id="edge5" class="edge">
<title>Node1&#45;&gt;Node6</title>
<path fill="none" stroke="#63b8ff" d="M254.65,-70.88C273.96,-66.17 295.6,-60.88 313.79,-56.44"/>
<polygon fill="#63b8ff" stroke="#63b8ff" points="253.95,-67.45 245.07,-73.23 255.61,-74.25 253.95,-67.45"/>
</g>
<!-- Node7 -->
<g id="node7" class="node">
<title>Node7</title>
<g id="a_node7"><a xlink:href="class_ogre_1_1_zip_data_stream.html" target="_top" xlink:title="Specialisation of DataStream to handle streaming data from zip archives.">
<polygon fill="white" stroke="#666666" points="409,-19 302,-19 302,0 409,0 409,-19"/>
<text text-anchor="middle" x="355.5" y="-7" font-family="Helvetica,sans-Serif" font-size="10.00">Ogre::ZipDataStream</text>
</a>
</g>
</g>
<!-- Node1&#45;&gt;Node7 -->
<g id="edge6" class="edge">
<title>Node1&#45;&gt;Node7</title>
<path fill="none" stroke="#63b8ff" d="M223.62,-66.43C239.51,-54.03 262.51,-37.71 285,-27.5 291.92,-24.36 299.49,-21.69 307.01,-19.45"/>
<polygon fill="#63b8ff" stroke="#63b8ff" points="221.52,-63.63 215.89,-72.6 225.89,-69.09 221.52,-63.63"/>
</g>
<!-- Node2 -->
<g id="node2" class="node">
<title>Node2</title>
<g id="a_node2"><a xlink:title=" ">
<polygon fill="white" stroke="#666666" points="119,-93 0,-93 0,-74 119,-74 119,-93"/>
<text text-anchor="middle" x="59.5" y="-81" font-family="Helvetica,sans-Serif" font-size="10.00">Ogre::OgreAllocatedObj</text>
</a>
</g>
</g>
<!-- Node2&#45;&gt;Node1 -->
<g id="edge1" class="edge">
<title>Node2&#45;&gt;Node1</title>
<path fill="none" stroke="#63b8ff" d="M130.78,-83.5C138.95,-83.5 147.13,-83.5 154.86,-83.5"/>
<polygon fill="#63b8ff" stroke="#63b8ff" points="130.78,-80 120.78,-83.5 130.78,-87 130.78,-80"/>
</g>
</g>
</svg>
