<?xml version="1.0" encoding="UTF-8" standalone="no"?>
<!DOCTYPE svg PUBLIC "-//W3C//DTD SVG 1.1//EN"
 "http://www.w3.org/Graphics/SVG/1.1/DTD/svg11.dtd">
<!-- Generated by graphviz version 7.0.5 (20221223.1930)
 -->
<!-- Title: Ogre::CompositorPass Pages: 1 -->
<svg width="476pt" height="446pt"
 viewBox="0.00 0.00 476.00 446.00" xmlns="http://www.w3.org/2000/svg" xmlns:xlink="http://www.w3.org/1999/xlink">
<g id="graph0" class="graph" transform="scale(1 1) rotate(0) translate(4 442)">
<title>Ogre::CompositorPass</title>
<!-- Node1 -->
<g id="node1" class="node">
<title>Node1</title>
<g id="a_node1"><a xlink:title="Abstract class for compositor passes.">
<polygon fill="#999999" stroke="#666666" points="269,-234 155,-234 155,-215 269,-215 269,-234"/>
<text text-anchor="middle" x="212" y="-222" font-family="Helvetica,sans-Serif" font-size="10.00">Ogre::CompositorPass</text>
</a>
</g>
</g>
<!-- Node3 -->
<g id="node3" class="node">
<title>Node3</title>
<g id="a_node3"><a xlink:href="class_ogre_1_1_compositor_pass_clear.html" target="_top" xlink:title="Implementation of CompositorPass This implementation will clear the RenderTarget using the parameters...">
<polygon fill="white" stroke="#666666" points="455,-438 318,-438 318,-419 455,-419 455,-438"/>
<text text-anchor="middle" x="386.5" y="-426" font-family="Helvetica,sans-Serif" font-size="10.00">Ogre::CompositorPassClear</text>
</a>
</g>
</g>
<!-- Node1&#45;&gt;Node3 -->
<g id="edge2" class="edge">
<title>Node1&#45;&gt;Node3</title>
<path fill="none" stroke="#63b8ff" d="M217.21,-245.68C226.11,-284.7 250.66,-367.83 305,-410.5 309.05,-413.68 313.56,-416.33 318.31,-418.52"/>
<polygon fill="#63b8ff" stroke="#63b8ff" points="220.64,-245 215.12,-235.95 213.79,-246.46 220.64,-245"/>
</g>
<!-- Node4 -->
<g id="node4" class="node">
<title>Node4</title>
<g id="a_node4"><a xlink:href="class_ogre_1_1_compositor_pass_compute.html" target="_top" xlink:title="Implementation of CompositorPass This implementation will render a fullscreen triangle/quad to the Re...">
<polygon fill="white" stroke="#666666" points="463,-401 310,-401 310,-382 463,-382 463,-401"/>
<text text-anchor="middle" x="386.5" y="-389" font-family="Helvetica,sans-Serif" font-size="10.00">Ogre::CompositorPassCompute</text>
</a>
</g>
</g>
<!-- Node1&#45;&gt;Node4 -->
<g id="edge3" class="edge">
<title>Node1&#45;&gt;Node4</title>
<path fill="none" stroke="#63b8ff" d="M219.68,-244.87C231.47,-277.42 259.12,-340.83 305,-373.5 309.55,-376.74 314.58,-379.41 319.84,-381.61"/>
<polygon fill="#63b8ff" stroke="#63b8ff" points="223.13,-244.12 216.55,-235.81 216.51,-246.41 223.13,-244.12"/>
</g>
<!-- Node5 -->
<g id="node5" class="node">
<title>Node5</title>
<g id="a_node5"><a xlink:href="class_ogre_1_1_compositor_pass_depth_copy.html" target="_top" xlink:title="Implementation of CompositorPass This implementation will copy one DepthBuffer to another DepthBuffer...">
<polygon fill="white" stroke="#666666" points="467,-364 306,-364 306,-345 467,-345 467,-364"/>
<text text-anchor="middle" x="386.5" y="-352" font-family="Helvetica,sans-Serif" font-size="10.00">Ogre::CompositorPassDepthCopy</text>
</a>
</g>
</g>
<!-- Node1&#45;&gt;Node5 -->
<g id="edge4" class="edge">
<title>Node1&#45;&gt;Node5</title>
<path fill="none" stroke="#63b8ff" d="M223.74,-244.45C238.54,-269.95 267.66,-313.53 305,-336.5 310.24,-339.73 316,-342.38 321.94,-344.55"/>
<polygon fill="#63b8ff" stroke="#63b8ff" points="226.81,-242.78 218.87,-235.77 220.7,-246.2 226.81,-242.78"/>
</g>
<!-- Node6 -->
<g id="node6" class="node">
<title>Node6</title>
<g id="a_node6"><a xlink:href="class_ogre_1_1_compositor_pass_ibl_specular.html" target="_top" xlink:title="Implementation of CompositorPass This implementation will generate IblSpeculars for the specified tex...">
<polygon fill="white" stroke="#666666" points="468,-327 305,-327 305,-308 468,-308 468,-327"/>
<text text-anchor="middle" x="386.5" y="-315" font-family="Helvetica,sans-Serif" font-size="10.00">Ogre::CompositorPassIblSpecular</text>
</a>
</g>
</g>
<!-- Node1&#45;&gt;Node6 -->
<g id="edge5" class="edge">
<title>Node1&#45;&gt;Node6</title>
<path fill="none" stroke="#63b8ff" d="M229.84,-242.4C247.09,-259.65 275.48,-285.17 305,-299.5 311.7,-302.75 319,-305.43 326.38,-307.62"/>
<polygon fill="#63b8ff" stroke="#63b8ff" points="232.43,-240.05 222.95,-235.32 227.42,-244.93 232.43,-240.05"/>
</g>
<!-- Node7 -->
<g id="node7" class="node">
<title>Node7</title>
<g id="a_node7"><a xlink:href="class_ogre_1_1_compositor_pass_mipmap.html" target="_top" xlink:title="Implementation of CompositorPass This implementation will generate mipmaps for the specified texture.">
<polygon fill="white" stroke="#666666" points="461,-290 312,-290 312,-271 461,-271 461,-290"/>
<text text-anchor="middle" x="386.5" y="-278" font-family="Helvetica,sans-Serif" font-size="10.00">Ogre::CompositorPassMipmap</text>
</a>
</g>
</g>
<!-- Node1&#45;&gt;Node7 -->
<g id="edge6" class="edge">
<title>Node1&#45;&gt;Node7</title>
<path fill="none" stroke="#63b8ff" d="M244.42,-239.05C261.97,-246.78 284.39,-255.99 305,-262.5 314.56,-265.52 324.91,-268.23 334.9,-270.58"/>
<polygon fill="#63b8ff" stroke="#63b8ff" points="246.12,-235.98 235.56,-235.09 243.26,-242.37 246.12,-235.98"/>
</g>
<!-- Node8 -->
<g id="node8" class="node">
<title>Node8</title>
<g id="a_node8"><a xlink:href="class_ogre_1_1_compositor_pass_quad.html" target="_top" xlink:title="Implementation of CompositorPass This implementation will render a fullscreen triangle/quad to the Re...">
<polygon fill="white" stroke="#666666" points="455,-253 318,-253 318,-234 455,-234 455,-253"/>
<text text-anchor="middle" x="386.5" y="-241" font-family="Helvetica,sans-Serif" font-size="10.00">Ogre::CompositorPassQuad</text>
</a>
</g>
</g>
<!-- Node1&#45;&gt;Node8 -->
<g id="edge7" class="edge">
<title>Node1&#45;&gt;Node8</title>
<path fill="none" stroke="#63b8ff" d="M280.91,-231.98C293.03,-233.32 305.66,-234.71 317.77,-236.04"/>
<polygon fill="#63b8ff" stroke="#63b8ff" points="281.31,-228.5 270.99,-230.89 280.54,-235.46 281.31,-228.5"/>
</g>
<!-- Node9 -->
<g id="node9" class="node">
<title>Node9</title>
<g id="a_node9"><a xlink:href="class_ogre_1_1_compositor_pass_scene.html" target="_top" xlink:title="Implementation of CompositorPass This implementation will perform main rendering, selecting several p...">
<polygon fill="white" stroke="#666666" points="457.5,-216 315.5,-216 315.5,-197 457.5,-197 457.5,-216"/>
<text text-anchor="middle" x="386.5" y="-204" font-family="Helvetica,sans-Serif" font-size="10.00">Ogre::CompositorPassScene</text>
</a>
</g>
</g>
<!-- Node1&#45;&gt;Node9 -->
<g id="edge8" class="edge">
<title>Node1&#45;&gt;Node9</title>
<path fill="none" stroke="#63b8ff" d="M280.6,-217.45C291.9,-216.27 303.64,-215.04 315.01,-213.86"/>
<polygon fill="#63b8ff" stroke="#63b8ff" points="280.57,-213.93 270.99,-218.45 281.3,-220.89 280.57,-213.93"/>
</g>
<!-- Node10 -->
<g id="node10" class="node">
<title>Node10</title>
<g id="a_node10"><a xlink:href="class_ogre_1_1_compositor_pass_shadows.html" target="_top" xlink:title="CompositorPassShadows This class enables force&#45;updating multiple shadow nodes in batch in its own pas...">
<polygon fill="white" stroke="#666666" points="464,-179 309,-179 309,-160 464,-160 464,-179"/>
<text text-anchor="middle" x="386.5" y="-167" font-family="Helvetica,sans-Serif" font-size="10.00">Ogre::CompositorPassShadows</text>
</a>
</g>
</g>
<!-- Node1&#45;&gt;Node10 -->
<g id="edge9" class="edge">
<title>Node1&#45;&gt;Node10</title>
<path fill="none" stroke="#63b8ff" d="M244.8,-210.22C262.31,-202.74 284.58,-193.84 305,-187.5 314.57,-184.53 324.93,-181.83 334.93,-179.49"/>
<polygon fill="#63b8ff" stroke="#63b8ff" points="243.74,-206.87 235.96,-214.06 246.53,-213.29 243.74,-206.87"/>
</g>
<!-- Node11 -->
<g id="node11" class="node">
<title>Node11</title>
<g id="a_node11"><a xlink:href="class_ogre_1_1_compositor_pass_stencil.html" target="_top" xlink:title="Implementation of CompositorPass This implementation will clear the RenderTarget using the parameters...">
<polygon fill="white" stroke="#666666" points="458.5,-142 314.5,-142 314.5,-123 458.5,-123 458.5,-142"/>
<text text-anchor="middle" x="386.5" y="-130" font-family="Helvetica,sans-Serif" font-size="10.00">Ogre::CompositorPassStencil</text>
</a>
</g>
</g>
<!-- Node1&#45;&gt;Node11 -->
<g id="edge10" class="edge">
<title>Node1&#45;&gt;Node11</title>
<path fill="none" stroke="#63b8ff" d="M230.17,-206.57C247.47,-189.57 275.75,-164.58 305,-150.5 311.71,-147.27 319.02,-144.61 326.4,-142.42"/>
<polygon fill="#63b8ff" stroke="#63b8ff" points="227.79,-204 223.23,-213.56 232.76,-208.93 227.79,-204"/>
</g>
<!-- Node12 -->
<g id="node12" class="node">
<title>Node12</title>
<g id="a_node12"><a xlink:href="class_ogre_1_1_compositor_pass_target_barrier.html" target="_top" xlink:title=" ">
<polygon fill="white" stroke="#666666" points="457.5,-104.5 315.5,-104.5 315.5,-74.5 457.5,-74.5 457.5,-104.5"/>
<text text-anchor="start" x="323.5" y="-92.5" font-family="Helvetica,sans-Serif" font-size="10.00">Ogre::CompositorPassTarget</text>
<text text-anchor="middle" x="386.5" y="-81.5" font-family="Helvetica,sans-Serif" font-size="10.00">Barrier</text>
</a>
</g>
</g>
<!-- Node1&#45;&gt;Node12 -->
<g id="edge11" class="edge">
<title>Node1&#45;&gt;Node12</title>
<path fill="none" stroke="#63b8ff" d="M224.26,-204.74C239.45,-179.85 268.81,-137.43 305,-113.5 309.99,-110.2 315.44,-107.34 321.09,-104.87"/>
<polygon fill="#63b8ff" stroke="#63b8ff" points="221.32,-202.84 219.24,-213.22 227.35,-206.4 221.32,-202.84"/>
</g>
<!-- Node13 -->
<g id="node13" class="node">
<title>Node13</title>
<g id="a_node13"><a xlink:href="class_ogre_1_1_compositor_pass_uav.html" target="_top" xlink:title="Implementation of CompositorPass This implementation will set UAVs.">
<polygon fill="white" stroke="#666666" points="452.5,-56 320.5,-56 320.5,-37 452.5,-37 452.5,-56"/>
<text text-anchor="middle" x="386.5" y="-44" font-family="Helvetica,sans-Serif" font-size="10.00">Ogre::CompositorPassUav</text>
</a>
</g>
</g>
<!-- Node1&#45;&gt;Node13 -->
<g id="edge12" class="edge">
<title>Node1&#45;&gt;Node13</title>
<path fill="none" stroke="#63b8ff" d="M219.01,-203.84C230.1,-169.54 257.12,-101.07 305,-65.5 309.96,-61.82 315.52,-58.84 321.34,-56.42"/>
<polygon fill="#63b8ff" stroke="#63b8ff" points="215.67,-202.78 216.08,-213.37 222.37,-204.84 215.67,-202.78"/>
</g>
<!-- Node14 -->
<g id="node14" class="node">
<title>Node14</title>
<g id="a_node14"><a xlink:href="class_ogre_1_1_compositor_pass_warm_up.html" target="_top" xlink:title="Implementation of CompositorPass.">
<polygon fill="white" stroke="#666666" points="462.5,-19 310.5,-19 310.5,0 462.5,0 462.5,-19"/>
<text text-anchor="middle" x="386.5" y="-7" font-family="Helvetica,sans-Serif" font-size="10.00">Ogre::CompositorPassWarmUp</text>
</a>
</g>
</g>
<!-- Node1&#45;&gt;Node14 -->
<g id="edge13" class="edge">
<title>Node1&#45;&gt;Node14</title>
<path fill="none" stroke="#63b8ff" d="M216.48,-203.77C224.42,-163.24 247.79,-73.47 305,-27.5 309.02,-24.27 313.5,-21.59 318.23,-19.38"/>
<polygon fill="#63b8ff" stroke="#63b8ff" points="213.08,-202.92 214.73,-213.38 219.96,-204.17 213.08,-202.92"/>
</g>
<!-- Node2 -->
<g id="node2" class="node">
<title>Node2</title>
<g id="a_node2"><a xlink:title=" ">
<polygon fill="white" stroke="#666666" points="119,-234 0,-234 0,-215 119,-215 119,-234"/>
<text text-anchor="middle" x="59.5" y="-222" font-family="Helvetica,sans-Serif" font-size="10.00">Ogre::OgreAllocatedObj</text>
</a>
</g>
</g>
<!-- Node2&#45;&gt;Node1 -->
<g id="edge1" class="edge">
<title>Node2&#45;&gt;Node1</title>
<path fill="none" stroke="#63b8ff" d="M130.51,-224.5C138.64,-224.5 146.85,-224.5 154.76,-224.5"/>
<polygon fill="#63b8ff" stroke="#63b8ff" points="130.63,-221 120.63,-224.5 130.63,-228 130.63,-221"/>
</g>
</g>
</svg>
