<?xml version="1.0" encoding="UTF-8" standalone="no"?>
<!DOCTYPE svg PUBLIC "-//W3C//DTD SVG 1.1//EN"
 "http://www.w3.org/Graphics/SVG/1.1/DTD/svg11.dtd">
<!-- Generated by graphviz version 2.43.0 (0)
 -->
<!-- Title: Ogre::ParticleAffector2 Pages: 1 -->
<svg width="497pt" height="384pt"
 viewBox="0.00 0.00 497.00 384.00" xmlns="http://www.w3.org/2000/svg" xmlns:xlink="http://www.w3.org/1999/xlink">
<g id="graph0" class="graph" transform="scale(1 1) rotate(0) translate(4 380)">
<title>Ogre::ParticleAffector2</title>
<!-- Node1 -->
<g id="Node000001" class="node">
<title>Node1</title>
<g id="a_Node000001"><a xlink:title="Affectors are per ParticleSystemDef.">
<polygon fill="#999999" stroke="#666666" points="280,-194 154,-194 154,-175 280,-175 280,-194"/>
<text text-anchor="middle" x="217" y="-182" font-family="Helvetica,sans-Serif" font-size="10.00">Ogre::ParticleAffector2</text>
</a>
</g>
</g>
<!-- Node3 -->
<g id="Node000003" class="node">
<title>Node3</title>
<g id="a_Node000003"><a xlink:href="class_ogre_1_1_colour_fader_affector2_f_x2.html" target="_top" xlink:title="This plugin subclass of ParticleAffector allows you to alter the colour of particles.">
<polygon fill="white" stroke="#666666" points="486,-376 319,-376 319,-357 486,-357 486,-376"/>
<text text-anchor="middle" x="402.5" y="-364" font-family="Helvetica,sans-Serif" font-size="10.00">Ogre::ColourFaderAffector2FX2</text>
</a>
</g>
</g>
<!-- Node1&#45;&gt;Node3 -->
<g id="edge2_Node000001_Node000003" class="edge">
<title>Node1&#45;&gt;Node3</title>
<g id="a_edge2_Node000001_Node000003"><a xlink:title=" ">
<path fill="none" stroke="#63b8ff" d="M223.88,-204.06C235.45,-238.98 264.6,-311.82 316,-348.5 320.69,-351.85 325.87,-354.6 331.3,-356.86"/>
<polygon fill="#63b8ff" stroke="#63b8ff" points="227.1,-202.63 220.74,-194.15 220.43,-204.74 227.1,-202.63"/>
</a>
</g>
</g>
<!-- Node4 -->
<g id="Node000004" class="node">
<title>Node4</title>
<g id="a_Node000004"><a xlink:href="class_ogre_1_1_colour_fader_affector_f_x2.html" target="_top" xlink:title="This plugin subclass of ParticleAffector allows you to alter the colour of particles.">
<polygon fill="white" stroke="#666666" points="483,-339 322,-339 322,-320 483,-320 483,-339"/>
<text text-anchor="middle" x="402.5" y="-327" font-family="Helvetica,sans-Serif" font-size="10.00">Ogre::ColourFaderAffectorFX2</text>
</a>
</g>
</g>
<!-- Node1&#45;&gt;Node4 -->
<g id="edge3_Node000001_Node000004" class="edge">
<title>Node1&#45;&gt;Node4</title>
<g id="a_edge3_Node000001_Node000004"><a xlink:title=" ">
<path fill="none" stroke="#63b8ff" d="M227.15,-203.59C241.76,-231.91 273.14,-284.6 316,-311.5 321.4,-314.89 327.32,-317.65 333.46,-319.9"/>
<polygon fill="#63b8ff" stroke="#63b8ff" points="230.13,-201.74 222.53,-194.35 223.87,-204.86 230.13,-201.74"/>
</a>
</g>
</g>
<!-- Node5 -->
<g id="Node000005" class="node">
<title>Node5</title>
<g id="a_Node000005"><a xlink:href="class_ogre_1_1_colour_image_affector2.html" target="_top" xlink:title=" ">
<polygon fill="white" stroke="#666666" points="478.5,-302 326.5,-302 326.5,-283 478.5,-283 478.5,-302"/>
<text text-anchor="middle" x="402.5" y="-290" font-family="Helvetica,sans-Serif" font-size="10.00">Ogre::ColourImageAffector2</text>
</a>
</g>
</g>
<!-- Node1&#45;&gt;Node5 -->
<g id="edge4_Node000001_Node000005" class="edge">
<title>Node1&#45;&gt;Node5</title>
<g id="a_edge4_Node000001_Node000005"><a xlink:title=" ">
<path fill="none" stroke="#63b8ff" d="M232.08,-201.89C249.57,-222.28 281.36,-255.55 316,-273.5 323.43,-277.35 331.61,-280.42 339.88,-282.87"/>
<polygon fill="#63b8ff" stroke="#63b8ff" points="234.6,-199.44 225.49,-194.02 229.23,-203.94 234.6,-199.44"/>
</a>
</g>
</g>
<!-- Node6 -->
<g id="Node000006" class="node">
<title>Node6</title>
<g id="a_Node000006"><a xlink:href="class_ogre_1_1_colour_interpolator_affector2.html" target="_top" xlink:title=" ">
<polygon fill="white" stroke="#666666" points="469.5,-264.5 335.5,-264.5 335.5,-234.5 469.5,-234.5 469.5,-264.5"/>
<text text-anchor="start" x="343.5" y="-252.5" font-family="Helvetica,sans-Serif" font-size="10.00">Ogre::ColourInterpolator</text>
<text text-anchor="middle" x="402.5" y="-241.5" font-family="Helvetica,sans-Serif" font-size="10.00">Affector2</text>
</a>
</g>
</g>
<!-- Node1&#45;&gt;Node6 -->
<g id="edge5_Node000001_Node000006" class="edge">
<title>Node1&#45;&gt;Node6</title>
<g id="a_edge5_Node000001_Node000006"><a xlink:title=" ">
<path fill="none" stroke="#63b8ff" d="M247.89,-198.13C267.11,-206.61 292.76,-217.41 316,-225.5 325.03,-228.64 334.7,-231.67 344.17,-234.45"/>
<polygon fill="#63b8ff" stroke="#63b8ff" points="249.3,-194.92 238.74,-194.05 246.45,-201.32 249.3,-194.92"/>
</a>
</g>
</g>
<!-- Node7 -->
<g id="Node000007" class="node">
<title>Node7</title>
<g id="a_Node000007"><a xlink:href="class_ogre_1_1_deflector_plane_affector2.html" target="_top" xlink:title="This class defines a ParticleAffector which deflects particles.">
<polygon fill="white" stroke="#666666" points="483,-216 322,-216 322,-197 483,-197 483,-216"/>
<text text-anchor="middle" x="402.5" y="-204" font-family="Helvetica,sans-Serif" font-size="10.00">Ogre::DeflectorPlaneAffector2</text>
</a>
</g>
</g>
<!-- Node1&#45;&gt;Node7 -->
<g id="edge6_Node000001_Node000007" class="edge">
<title>Node1&#45;&gt;Node7</title>
<g id="a_edge6_Node000001_Node000007"><a xlink:title=" ">
<path fill="none" stroke="#63b8ff" d="M290.1,-193.14C300.63,-194.41 311.53,-195.71 322.2,-196.99"/>
<polygon fill="#63b8ff" stroke="#63b8ff" points="290.47,-189.66 280.12,-191.95 289.64,-196.61 290.47,-189.66"/>
</a>
</g>
</g>
<!-- Node8 -->
<g id="Node000008" class="node">
<title>Node8</title>
<g id="a_Node000008"><a xlink:href="class_ogre_1_1_direction_randomiser_affector2.html" target="_top" xlink:title="This class defines a ParticleAffector which applies randomness to the movement of the particles.">
<polygon fill="white" stroke="#666666" points="477,-178.5 328,-178.5 328,-148.5 477,-148.5 477,-178.5"/>
<text text-anchor="start" x="336" y="-166.5" font-family="Helvetica,sans-Serif" font-size="10.00">Ogre::DirectionRandomiser</text>
<text text-anchor="middle" x="402.5" y="-155.5" font-family="Helvetica,sans-Serif" font-size="10.00">Affector2</text>
</a>
</g>
</g>
<!-- Node1&#45;&gt;Node8 -->
<g id="edge7_Node000001_Node000008" class="edge">
<title>Node1&#45;&gt;Node8</title>
<g id="a_edge7_Node000001_Node000008"><a xlink:title=" ">
<path fill="none" stroke="#63b8ff" d="M290.31,-176.22C302.6,-174.82 315.37,-173.36 327.7,-171.95"/>
<polygon fill="#63b8ff" stroke="#63b8ff" points="289.66,-172.78 280.12,-177.39 290.46,-179.73 289.66,-172.78"/>
</a>
</g>
</g>
<!-- Node9 -->
<g id="Node000009" class="node">
<title>Node9</title>
<g id="a_Node000009"><a xlink:href="class_ogre_1_1_linear_force_affector2.html" target="_top" xlink:title="This class defines a ParticleAffector which applies a linear force to particles in a system.">
<polygon fill="white" stroke="#666666" points="475.5,-130 329.5,-130 329.5,-111 475.5,-111 475.5,-130"/>
<text text-anchor="middle" x="402.5" y="-118" font-family="Helvetica,sans-Serif" font-size="10.00">Ogre::LinearForceAffector2</text>
</a>
</g>
</g>
<!-- Node1&#45;&gt;Node9 -->
<g id="edge8_Node000001_Node000009" class="edge">
<title>Node1&#45;&gt;Node9</title>
<g id="a_edge8_Node000001_Node000009"><a xlink:title=" ">
<path fill="none" stroke="#63b8ff" d="M245.06,-170.19C264.39,-160.43 291.26,-147.83 316,-139.5 326.95,-135.81 338.94,-132.64 350.38,-130"/>
<polygon fill="#63b8ff" stroke="#63b8ff" points="243.26,-167.18 235.95,-174.85 246.45,-173.41 243.26,-167.18"/>
</a>
</g>
</g>
<!-- Node10 -->
<g id="Node000010" class="node">
<title>Node10</title>
<g id="a_Node000010"><a xlink:href="class_ogre_1_1_rotation_affector2.html" target="_top" xlink:title="This plugin subclass of ParticleAffector allows you to alter the rotation of particles.">
<polygon fill="white" stroke="#666666" points="468,-93 337,-93 337,-74 468,-74 468,-93"/>
<text text-anchor="middle" x="402.5" y="-81" font-family="Helvetica,sans-Serif" font-size="10.00">Ogre::RotationAffector2</text>
</a>
</g>
</g>
<!-- Node1&#45;&gt;Node10 -->
<g id="edge9_Node000001_Node000010" class="edge">
<title>Node1&#45;&gt;Node10</title>
<g id="a_edge9_Node000001_Node000010"><a xlink:title=" ">
<path fill="none" stroke="#63b8ff" d="M233.13,-167.36C250.99,-148.25 282.53,-117.88 316,-101.5 322.95,-98.1 330.52,-95.34 338.2,-93.1"/>
<polygon fill="#63b8ff" stroke="#63b8ff" points="230.51,-165.04 226.35,-174.78 235.68,-169.76 230.51,-165.04"/>
</a>
</g>
</g>
<!-- Node11 -->
<g id="Node000011" class="node">
<title>Node11</title>
<g id="a_Node000011"><a xlink:href="class_ogre_1_1_scale_affector2.html" target="_top" xlink:title="This plugin subclass of ParticleAffector allows you to alter the scale of particles.">
<polygon fill="white" stroke="#666666" points="460.5,-56 344.5,-56 344.5,-37 460.5,-37 460.5,-56"/>
<text text-anchor="middle" x="402.5" y="-44" font-family="Helvetica,sans-Serif" font-size="10.00">Ogre::ScaleAffector2</text>
</a>
</g>
</g>
<!-- Node1&#45;&gt;Node11 -->
<g id="edge10_Node000001_Node000011" class="edge">
<title>Node1&#45;&gt;Node11</title>
<g id="a_edge10_Node000001_Node000011"><a xlink:title=" ">
<path fill="none" stroke="#63b8ff" d="M227.65,-166.06C242.71,-139.21 274.46,-89.78 316,-64.5 324.55,-59.29 334.38,-55.58 344.25,-52.93"/>
<polygon fill="#63b8ff" stroke="#63b8ff" points="224.57,-164.39 222.86,-174.85 230.72,-167.74 224.57,-164.39"/>
</a>
</g>
</g>
<!-- Node12 -->
<g id="Node000012" class="node">
<title>Node12</title>
<g id="a_Node000012"><a xlink:href="class_ogre_1_1_scale_interpolator_affector2.html" target="_top" xlink:title=" ">
<polygon fill="white" stroke="#666666" points="489,-19 316,-19 316,0 489,0 489,-19"/>
<text text-anchor="middle" x="402.5" y="-7" font-family="Helvetica,sans-Serif" font-size="10.00">Ogre::ScaleInterpolatorAffector2</text>
</a>
</g>
</g>
<!-- Node1&#45;&gt;Node12 -->
<g id="edge11_Node000001_Node000012" class="edge">
<title>Node1&#45;&gt;Node12</title>
<g id="a_edge11_Node000001_Node000012"><a xlink:title=" ">
<path fill="none" stroke="#63b8ff" d="M224.3,-165.28C236.38,-131.65 266.1,-62.39 316,-27.5 320.85,-24.11 326.2,-21.34 331.8,-19.07"/>
<polygon fill="#63b8ff" stroke="#63b8ff" points="220.95,-164.26 221,-174.86 227.57,-166.55 220.95,-164.26"/>
</a>
</g>
</g>
<!-- Node2 -->
<g id="Node000002" class="node">
<title>Node2</title>
<g id="a_Node000002"><a xlink:href="class_ogre_1_1_string_interface.html" target="_top" xlink:title="Class defining the common interface which classes can use to present a reflection&#45;style,...">
<polygon fill="white" stroke="#666666" points="118,-194 0,-194 0,-175 118,-175 118,-194"/>
<text text-anchor="middle" x="59" y="-182" font-family="Helvetica,sans-Serif" font-size="10.00">Ogre::StringInterface</text>
</a>
</g>
</g>
<!-- Node2&#45;&gt;Node1 -->
<g id="edge1_Node000001_Node000002" class="edge">
<title>Node2&#45;&gt;Node1</title>
<g id="a_edge1_Node000001_Node000002"><a xlink:title=" ">
<path fill="none" stroke="#63b8ff" d="M128.36,-184.5C136.87,-184.5 145.54,-184.5 153.94,-184.5"/>
<polygon fill="#63b8ff" stroke="#63b8ff" points="128.09,-181 118.09,-184.5 128.09,-188 128.09,-181"/>
</a>
</g>
</g>
</g>
</svg>
