<?xml version="1.0" encoding="UTF-8" standalone="no"?>
<!DOCTYPE svg PUBLIC "-//W3C//DTD SVG 1.1//EN"
 "http://www.w3.org/Graphics/SVG/1.1/DTD/svg11.dtd">
<!-- Generated by graphviz version 2.43.0 (0)
 -->
<!-- Title: Ogre::RegionSceneQuery Pages: 1 -->
<svg width="868pt" height="134pt"
 viewBox="0.00 0.00 868.00 134.00" xmlns="http://www.w3.org/2000/svg" xmlns:xlink="http://www.w3.org/1999/xlink">
<g id="graph0" class="graph" transform="scale(1 1) rotate(0) translate(4 130)">
<title>Ogre::RegionSceneQuery</title>
<!-- Node1 -->
<g id="Node000001" class="node">
<title>Node1</title>
<g id="a_Node000001"><a xlink:title="Abstract class defining a query which returns single results from a region.">
<polygon fill="#999999" stroke="#666666" points="484,-72.5 346,-72.5 346,-53.5 484,-53.5 484,-72.5"/>
<text text-anchor="middle" x="415" y="-60.5" font-family="Helvetica,sans-Serif" font-size="10.00">Ogre::RegionSceneQuery</text>
</a>
</g>
</g>
<!-- Node5 -->
<g id="Node000005" class="node">
<title>Node5</title>
<g id="a_Node000005"><a xlink:href="class_ogre_1_1_axis_aligned_box_scene_query.html" target="_top" xlink:title="Specialises the SceneQuery class for querying within an axis aligned box.">
<polygon fill="white" stroke="#666666" points="672,-126 520,-126 520,-96 672,-96 672,-126"/>
<text text-anchor="start" x="528" y="-114" font-family="Helvetica,sans-Serif" font-size="10.00">Ogre::AxisAlignedBoxScene</text>
<text text-anchor="middle" x="596" y="-103" font-family="Helvetica,sans-Serif" font-size="10.00">Query</text>
</a>
</g>
</g>
<!-- Node1&#45;&gt;Node5 -->
<g id="edge4_Node000001_Node000005" class="edge">
<title>Node1&#45;&gt;Node5</title>
<g id="a_edge4_Node000001_Node000005"><a xlink:title=" ">
<path fill="none" stroke="#63b8ff" d="M461.51,-75.2C485.03,-81.51 513.93,-89.26 538.83,-95.94"/>
<polygon fill="#63b8ff" stroke="#63b8ff" points="462.36,-71.81 451.79,-72.6 460.55,-78.57 462.36,-71.81"/>
</a>
</g>
</g>
<!-- Node7 -->
<g id="Node000007" class="node">
<title>Node7</title>
<g id="a_Node000007"><a xlink:href="class_ogre_1_1_plane_bounded_volume_list_scene_query.html" target="_top" xlink:title="Specialises the SceneQuery class for querying within a plane&#45;bounded volume.">
<polygon fill="white" stroke="#666666" points="672,-78 520,-78 520,-48 672,-48 672,-78"/>
<text text-anchor="start" x="528" y="-66" font-family="Helvetica,sans-Serif" font-size="10.00">Ogre::PlaneBoundedVolume</text>
<text text-anchor="middle" x="596" y="-55" font-family="Helvetica,sans-Serif" font-size="10.00">ListSceneQuery</text>
</a>
</g>
</g>
<!-- Node1&#45;&gt;Node7 -->
<g id="edge6_Node000001_Node000007" class="edge">
<title>Node1&#45;&gt;Node7</title>
<g id="a_edge6_Node000001_Node000007"><a xlink:title=" ">
<path fill="none" stroke="#63b8ff" d="M494.4,-63C502.85,-63 511.43,-63 519.84,-63"/>
<polygon fill="#63b8ff" stroke="#63b8ff" points="494.18,-59.5 484.18,-63 494.18,-66.5 494.18,-59.5"/>
</a>
</g>
</g>
<!-- Node9 -->
<g id="Node000009" class="node">
<title>Node9</title>
<g id="a_Node000009"><a xlink:href="class_ogre_1_1_sphere_scene_query.html" target="_top" xlink:title="Specialises the SceneQuery class for querying within a sphere.">
<polygon fill="white" stroke="#666666" points="665,-27.5 527,-27.5 527,-8.5 665,-8.5 665,-27.5"/>
<text text-anchor="middle" x="596" y="-15.5" font-family="Helvetica,sans-Serif" font-size="10.00">Ogre::SphereSceneQuery</text>
</a>
</g>
</g>
<!-- Node1&#45;&gt;Node9 -->
<g id="edge8_Node000001_Node000009" class="edge">
<title>Node1&#45;&gt;Node9</title>
<g id="a_edge8_Node000001_Node000009"><a xlink:title=" ">
<path fill="none" stroke="#63b8ff" d="M463.95,-50.95C493.15,-43.61 529.93,-34.36 557.09,-27.53"/>
<polygon fill="#63b8ff" stroke="#63b8ff" points="462.81,-47.62 453.96,-53.46 464.51,-54.41 462.81,-47.62"/>
</a>
</g>
</g>
<!-- Node2 -->
<g id="Node000002" class="node">
<title>Node2</title>
<g id="a_Node000002"><a xlink:href="class_ogre_1_1_scene_query.html" target="_top" xlink:title="A class for performing queries on a scene.">
<polygon fill="white" stroke="#666666" points="290.5,-91.5 186.5,-91.5 186.5,-72.5 290.5,-72.5 290.5,-91.5"/>
<text text-anchor="middle" x="238.5" y="-79.5" font-family="Helvetica,sans-Serif" font-size="10.00">Ogre::SceneQuery</text>
</a>
</g>
</g>
<!-- Node2&#45;&gt;Node1 -->
<g id="edge1_Node000001_Node000002" class="edge">
<title>Node2&#45;&gt;Node1</title>
<g id="a_edge1_Node000001_Node000002"><a xlink:title=" ">
<path fill="none" stroke="#63b8ff" d="M301.22,-75.28C315.65,-73.71 331.11,-72.03 345.81,-70.42"/>
<polygon fill="#63b8ff" stroke="#63b8ff" points="300.47,-71.84 290.91,-76.4 301.23,-78.8 300.47,-71.84"/>
</a>
</g>
</g>
<!-- Node3 -->
<g id="Node000003" class="node">
<title>Node3</title>
<g id="a_Node000003"><a xlink:title=" ">
<polygon fill="white" stroke="#666666" points="131,-91.5 0,-91.5 0,-72.5 131,-72.5 131,-91.5"/>
<text text-anchor="middle" x="65.5" y="-79.5" font-family="Helvetica,sans-Serif" font-size="10.00">Ogre::OgreAllocatedObj</text>
</a>
</g>
</g>
<!-- Node3&#45;&gt;Node2 -->
<g id="edge2_Node000002_Node000003" class="edge">
<title>Node3&#45;&gt;Node2</title>
<g id="a_edge2_Node000002_Node000003"><a xlink:title=" ">
<path fill="none" stroke="#63b8ff" d="M141.53,-82C156.67,-82 172.26,-82 186.35,-82"/>
<polygon fill="#63b8ff" stroke="#63b8ff" points="141.15,-78.5 131.15,-82 141.15,-85.5 141.15,-78.5"/>
</a>
</g>
</g>
<!-- Node4 -->
<g id="Node000004" class="node">
<title>Node4</title>
<g id="a_Node000004"><a xlink:href="class_ogre_1_1_scene_query_listener.html" target="_top" xlink:title="This optional class allows you to receive per&#45;result callbacks from SceneQuery executions instead of ...">
<polygon fill="white" stroke="#666666" points="310,-54.5 167,-54.5 167,-35.5 310,-35.5 310,-54.5"/>
<text text-anchor="middle" x="238.5" y="-42.5" font-family="Helvetica,sans-Serif" font-size="10.00">Ogre::SceneQueryListener</text>
</a>
</g>
</g>
<!-- Node4&#45;&gt;Node1 -->
<g id="edge3_Node000001_Node000004" class="edge">
<title>Node4&#45;&gt;Node1</title>
<g id="a_edge3_Node000001_Node000004"><a xlink:title=" ">
<path fill="none" stroke="#63b8ff" d="M320.19,-53.32C328.72,-54.2 337.34,-55.09 345.72,-55.96"/>
<polygon fill="#63b8ff" stroke="#63b8ff" points="320.53,-49.84 310.22,-52.3 319.81,-56.8 320.53,-49.84"/>
</a>
</g>
</g>
<!-- Node6 -->
<g id="Node000006" class="node">
<title>Node6</title>
<g id="a_Node000006"><a xlink:href="class_ogre_1_1_default_axis_aligned_box_scene_query.html" target="_top" xlink:title="Default implementation of AxisAlignedBoxSceneQuery.">
<polygon fill="white" stroke="#666666" points="854,-126 714,-126 714,-96 854,-96 854,-126"/>
<text text-anchor="start" x="722" y="-114" font-family="Helvetica,sans-Serif" font-size="10.00">Ogre::DefaultAxisAligned</text>
<text text-anchor="middle" x="784" y="-103" font-family="Helvetica,sans-Serif" font-size="10.00">BoxSceneQuery</text>
</a>
</g>
</g>
<!-- Node5&#45;&gt;Node6 -->
<g id="edge5_Node000005_Node000006" class="edge">
<title>Node5&#45;&gt;Node6</title>
<g id="a_edge5_Node000005_Node000006"><a xlink:title=" ">
<path fill="none" stroke="#63b8ff" d="M682.23,-111C692.84,-111 703.59,-111 713.91,-111"/>
<polygon fill="#63b8ff" stroke="#63b8ff" points="682.12,-107.5 672.12,-111 682.12,-114.5 682.12,-107.5"/>
</a>
</g>
</g>
<!-- Node8 -->
<g id="Node000008" class="node">
<title>Node8</title>
<g id="a_Node000008"><a xlink:href="class_ogre_1_1_default_plane_bounded_volume_list_scene_query.html" target="_top" xlink:title="Default implementation of PlaneBoundedVolumeListSceneQuery.">
<polygon fill="white" stroke="#666666" points="860,-78 708,-78 708,-48 860,-48 860,-78"/>
<text text-anchor="start" x="716" y="-66" font-family="Helvetica,sans-Serif" font-size="10.00">Ogre::DefaultPlaneBounded</text>
<text text-anchor="middle" x="784" y="-55" font-family="Helvetica,sans-Serif" font-size="10.00">VolumeListSceneQuery</text>
</a>
</g>
</g>
<!-- Node7&#45;&gt;Node8 -->
<g id="edge7_Node000007_Node000008" class="edge">
<title>Node7&#45;&gt;Node8</title>
<g id="a_edge7_Node000007_Node000008"><a xlink:title=" ">
<path fill="none" stroke="#63b8ff" d="M682.15,-63C690.74,-63 699.43,-63 707.9,-63"/>
<polygon fill="#63b8ff" stroke="#63b8ff" points="682.12,-59.5 672.12,-63 682.12,-66.5 682.12,-59.5"/>
</a>
</g>
</g>
<!-- Node10 -->
<g id="Node000010" class="node">
<title>Node10</title>
<g id="a_Node000010"><a xlink:href="class_ogre_1_1_default_sphere_scene_query.html" target="_top" xlink:title="Default implementation of SphereSceneQuery.">
<polygon fill="white" stroke="#666666" points="856.5,-30 711.5,-30 711.5,0 856.5,0 856.5,-30"/>
<text text-anchor="start" x="719.5" y="-18" font-family="Helvetica,sans-Serif" font-size="10.00">Ogre::DefaultSphereScene</text>
<text text-anchor="middle" x="784" y="-7" font-family="Helvetica,sans-Serif" font-size="10.00">Query</text>
</a>
</g>
</g>
<!-- Node9&#45;&gt;Node10 -->
<g id="edge9_Node000009_Node000010" class="edge">
<title>Node9&#45;&gt;Node10</title>
<g id="a_edge9_Node000009_Node000010"><a xlink:title=" ">
<path fill="none" stroke="#63b8ff" d="M675.55,-16.73C687.43,-16.54 699.64,-16.34 711.37,-16.16"/>
<polygon fill="#63b8ff" stroke="#63b8ff" points="675.15,-13.24 665.2,-16.9 675.26,-20.24 675.15,-13.24"/>
</a>
</g>
</g>
</g>
</svg>
