<?xml version="1.0" encoding="UTF-8" standalone="no"?>
<!DOCTYPE svg PUBLIC "-//W3C//DTD SVG 1.1//EN"
 "http://www.w3.org/Graphics/SVG/1.1/DTD/svg11.dtd">
<!-- Generated by graphviz version 3.0.0 (20220413.0106)
 -->
<!-- Title: Ogre::Window Pages: 1 -->
<svg width="563pt" height="344pt"
 viewBox="0.00 0.00 563.00 343.50" xmlns="http://www.w3.org/2000/svg" xmlns:xlink="http://www.w3.org/1999/xlink">
<g id="graph0" class="graph" transform="scale(1 1) rotate(0) translate(4 339.5)">
<title>Ogre::Window</title>
<!-- Node1 -->
<g id="node1" class="node">
<title>Node1</title>
<g id="a_node1"><a xlink:title=" ">
<polygon fill="#bfbfbf" stroke="black" points="129,-152.5 129,-171.5 206,-171.5 206,-152.5 129,-152.5"/>
<text text-anchor="middle" x="167.5" y="-159.5" font-family="Helvetica,sans-Serif" font-size="10.00">Ogre::Window</text>
</a>
</g>
</g>
<!-- Node3 -->
<g id="node3" class="node">
<title>Node3</title>
<g id="a_node3"><a xlink:href="class_ogre_1_1_cocoa_window.html" target="_top" xlink:title=" ">
<polygon fill="none" stroke="black" points="251,-304.5 251,-323.5 355,-323.5 355,-304.5 251,-304.5"/>
<text text-anchor="middle" x="303" y="-311.5" font-family="Helvetica,sans-Serif" font-size="10.00">Ogre::CocoaWindow</text>
</a>
</g>
</g>
<!-- Node1&#45;&gt;Node3 -->
<g id="edge2" class="edge">
<title>Node1&#45;&gt;Node3</title>
<path fill="none" stroke="midnightblue" d="M174.1,-181.39C183.43,-210.32 204.9,-264.61 242,-295 246.73,-298.88 252.27,-301.97 258.02,-304.43"/>
<polygon fill="midnightblue" stroke="midnightblue" points="177.39,-180.19 171.11,-171.65 170.7,-182.24 177.39,-180.19"/>
</g>
<!-- Node4 -->
<g id="node4" class="node">
<title>Node4</title>
<g id="a_node4"><a xlink:href="class_ogre_1_1_d3_d11_window.html" target="_top" xlink:title=" ">
<polygon fill="none" stroke="black" points="250,-266.5 250,-285.5 356,-285.5 356,-266.5 250,-266.5"/>
<text text-anchor="middle" x="303" y="-273.5" font-family="Helvetica,sans-Serif" font-size="10.00">Ogre::D3D11Window</text>
</a>
</g>
</g>
<!-- Node1&#45;&gt;Node4 -->
<g id="edge3" class="edge">
<title>Node1&#45;&gt;Node4</title>
<path fill="none" stroke="midnightblue" d="M178.16,-180.43C190.3,-201.84 213.09,-236.81 242,-257 247.55,-260.88 253.94,-263.99 260.42,-266.48"/>
<polygon fill="midnightblue" stroke="midnightblue" points="181.23,-178.74 173.35,-171.65 175.09,-182.1 181.23,-178.74"/>
</g>
<!-- Node6 -->
<g id="node6" class="node">
<title>Node6</title>
<g id="a_node6"><a xlink:href="class_ogre_1_1_e_g_l_window.html" target="_top" xlink:title=" ">
<polygon fill="none" stroke="black" points="255,-228.5 255,-247.5 351,-247.5 351,-228.5 255,-228.5"/>
<text text-anchor="middle" x="303" y="-235.5" font-family="Helvetica,sans-Serif" font-size="10.00">Ogre::EGLWindow</text>
</a>
</g>
</g>
<!-- Node1&#45;&gt;Node6 -->
<g id="edge5" class="edge">
<title>Node1&#45;&gt;Node6</title>
<path fill="none" stroke="midnightblue" d="M186.14,-178.6C200.31,-191.18 221.2,-208.09 242,-219 249.06,-222.71 256.98,-225.84 264.68,-228.43"/>
<polygon fill="midnightblue" stroke="midnightblue" points="188.39,-175.91 178.63,-171.78 183.68,-181.09 188.39,-175.91"/>
</g>
<!-- Node11 -->
<g id="node11" class="node">
<title>Node11</title>
<g id="a_node11"><a xlink:href="class_ogre_1_1_egl_p_buffer_window.html" target="_top" xlink:title="PBuffer implementation of EGL When supported, PBuffer is a surface&#45;less implementation of OpenGL.">
<polygon fill="none" stroke="black" points="242,-190.5 242,-209.5 364,-209.5 364,-190.5 242,-190.5"/>
<text text-anchor="middle" x="303" y="-197.5" font-family="Helvetica,sans-Serif" font-size="10.00">Ogre::EglPBufferWindow</text>
</a>
</g>
</g>
<!-- Node1&#45;&gt;Node11 -->
<g id="edge10" class="edge">
<title>Node1&#45;&gt;Node11</title>
<path fill="none" stroke="midnightblue" d="M212.03,-174.39C230.31,-179.59 251.25,-185.55 268.32,-190.41"/>
<polygon fill="midnightblue" stroke="midnightblue" points="212.76,-170.96 202.19,-171.59 210.85,-177.69 212.76,-170.96"/>
</g>
<!-- Node12 -->
<g id="node12" class="node">
<title>Node12</title>
<g id="a_node12"><a xlink:href="class_ogre_1_1_g_l_x_window.html" target="_top" xlink:title=" ">
<polygon fill="none" stroke="black" points="254.5,-152.5 254.5,-171.5 351.5,-171.5 351.5,-152.5 254.5,-152.5"/>
<text text-anchor="middle" x="303" y="-159.5" font-family="Helvetica,sans-Serif" font-size="10.00">Ogre::GLXWindow</text>
</a>
</g>
</g>
<!-- Node1&#45;&gt;Node12 -->
<g id="edge11" class="edge">
<title>Node1&#45;&gt;Node12</title>
<path fill="none" stroke="midnightblue" d="M216.17,-162C228.54,-162 241.87,-162 254.25,-162"/>
<polygon fill="midnightblue" stroke="midnightblue" points="216.04,-158.5 206.04,-162 216.04,-165.5 216.04,-158.5"/>
</g>
<!-- Node13 -->
<g id="node13" class="node">
<title>Node13</title>
<g id="a_node13"><a xlink:href="class_ogre_1_1_metal_window.html" target="_top" xlink:title=" ">
<polygon fill="none" stroke="black" points="252.5,-114.5 252.5,-133.5 353.5,-133.5 353.5,-114.5 252.5,-114.5"/>
<text text-anchor="middle" x="303" y="-121.5" font-family="Helvetica,sans-Serif" font-size="10.00">Ogre::MetalWindow</text>
</a>
</g>
</g>
<!-- Node1&#45;&gt;Node13 -->
<g id="edge12" class="edge">
<title>Node1&#45;&gt;Node13</title>
<path fill="none" stroke="midnightblue" d="M212.03,-149.61C230.31,-144.41 251.25,-138.45 268.32,-133.59"/>
<polygon fill="midnightblue" stroke="midnightblue" points="210.85,-146.31 202.19,-152.41 212.76,-153.04 210.85,-146.31"/>
</g>
<!-- Node14 -->
<g id="node14" class="node">
<title>Node14</title>
<g id="a_node14"><a xlink:href="class_ogre_1_1_n_u_l_l_window.html" target="_top" xlink:title=" ">
<polygon fill="none" stroke="black" points="251,-76.5 251,-95.5 355,-95.5 355,-76.5 251,-76.5"/>
<text text-anchor="middle" x="303" y="-83.5" font-family="Helvetica,sans-Serif" font-size="10.00">Ogre::NULLWindow</text>
</a>
</g>
</g>
<!-- Node1&#45;&gt;Node14 -->
<g id="edge13" class="edge">
<title>Node1&#45;&gt;Node14</title>
<path fill="none" stroke="midnightblue" d="M186.14,-145.4C200.31,-132.82 221.2,-115.91 242,-105 249.06,-101.29 256.98,-98.16 264.68,-95.57"/>
<polygon fill="midnightblue" stroke="midnightblue" points="183.68,-142.91 178.63,-152.22 188.39,-148.09 183.68,-142.91"/>
</g>
<!-- Node15 -->
<g id="node15" class="node">
<title>Node15</title>
<g id="a_node15"><a xlink:href="class_ogre_1_1_vulkan_window.html" target="_top" xlink:title=" ">
<polygon fill="none" stroke="black" points="249.5,-38.5 249.5,-57.5 356.5,-57.5 356.5,-38.5 249.5,-38.5"/>
<text text-anchor="middle" x="303" y="-45.5" font-family="Helvetica,sans-Serif" font-size="10.00">Ogre::VulkanWindow</text>
</a>
</g>
</g>
<!-- Node1&#45;&gt;Node15 -->
<g id="edge14" class="edge">
<title>Node1&#45;&gt;Node15</title>
<path fill="none" stroke="midnightblue" d="M178.16,-143.57C190.3,-122.16 213.09,-87.19 242,-67 247.55,-63.12 253.94,-60.01 260.42,-57.52"/>
<polygon fill="midnightblue" stroke="midnightblue" points="175.09,-141.9 173.35,-152.35 181.23,-145.26 175.09,-141.9"/>
</g>
<!-- Node19 -->
<g id="node19" class="node">
<title>Node19</title>
<g id="a_node19"><a xlink:href="class_ogre_1_1_win32_window.html" target="_top" xlink:title=" ">
<polygon fill="none" stroke="black" points="251,-0.5 251,-19.5 355,-19.5 355,-0.5 251,-0.5"/>
<text text-anchor="middle" x="303" y="-7.5" font-family="Helvetica,sans-Serif" font-size="10.00">Ogre::Win32Window</text>
</a>
</g>
</g>
<!-- Node1&#45;&gt;Node19 -->
<g id="edge18" class="edge">
<title>Node1&#45;&gt;Node19</title>
<path fill="none" stroke="midnightblue" d="M174.1,-142.61C183.43,-113.68 204.9,-59.39 242,-29 246.73,-25.12 252.27,-22.03 258.02,-19.57"/>
<polygon fill="midnightblue" stroke="midnightblue" points="170.7,-141.76 171.11,-152.35 177.39,-143.81 170.7,-141.76"/>
</g>
<!-- Node2 -->
<g id="node2" class="node">
<title>Node2</title>
<g id="a_node2"><a xlink:href="class_ogre_1_1_allocated_object.html" target="_top" xlink:title="Superclass for all objects that wish to use custom memory allocators when their new / delete operator...">
<polygon fill="none" stroke="black" points="0,-152.5 0,-171.5 93,-171.5 93,-152.5 0,-152.5"/>
<text text-anchor="middle" x="46.5" y="-159.5" font-family="Helvetica,sans-Serif" font-size="10.00">OgreAllocatedObj</text>
</a>
</g>
</g>
<!-- Node2&#45;&gt;Node1 -->
<g id="edge1" class="edge">
<title>Node2&#45;&gt;Node1</title>
<path fill="none" stroke="midnightblue" d="M103.26,-162C111.94,-162 120.72,-162 128.87,-162"/>
<polygon fill="midnightblue" stroke="midnightblue" points="103.17,-158.5 93.17,-162 103.17,-165.5 103.17,-158.5"/>
</g>
<!-- Node5 -->
<g id="node5" class="node">
<title>Node5</title>
<g id="a_node5"><a xlink:href="class_ogre_1_1_d3_d11_window_swap_chain_based.html" target="_top" xlink:title=" ">
<polygon fill="none" stroke="black" points="400,-305 400,-335 555,-335 555,-305 400,-305"/>
<text text-anchor="start" x="408" y="-323" font-family="Helvetica,sans-Serif" font-size="10.00">Ogre::D3D11WindowSwapChain</text>
<text text-anchor="middle" x="477.5" y="-312" font-family="Helvetica,sans-Serif" font-size="10.00">Based</text>
</a>
</g>
</g>
<!-- Node4&#45;&gt;Node5 -->
<g id="edge4" class="edge">
<title>Node4&#45;&gt;Node5</title>
<path fill="none" stroke="midnightblue" d="M351.15,-288.03C371.61,-293.25 395.8,-299.41 417.44,-304.93"/>
<polygon fill="midnightblue" stroke="midnightblue" points="351.98,-284.63 341.43,-285.55 350.25,-291.41 351.98,-284.63"/>
</g>
<!-- Node7 -->
<g id="node7" class="node">
<title>Node7</title>
<g id="a_node7"><a xlink:href="class_ogre_1_1_android_e_g_l_window.html" target="_top" xlink:title=" ">
<polygon fill="none" stroke="black" points="413,-266.5 413,-285.5 542,-285.5 542,-266.5 413,-266.5"/>
<text text-anchor="middle" x="477.5" y="-273.5" font-family="Helvetica,sans-Serif" font-size="10.00">Ogre::AndroidEGLWindow</text>
</a>
</g>
</g>
<!-- Node6&#45;&gt;Node7 -->
<g id="edge6" class="edge">
<title>Node6&#45;&gt;Node7</title>
<path fill="none" stroke="midnightblue" d="M357.35,-249.75C381.74,-255.13 410.26,-261.41 433.28,-266.48"/>
<polygon fill="midnightblue" stroke="midnightblue" points="358.05,-246.32 347.53,-247.59 356.54,-253.16 358.05,-246.32"/>
</g>
<!-- Node8 -->
<g id="node8" class="node">
<title>Node8</title>
<g id="a_node8"><a xlink:href="class_ogre_1_1_emscripten_e_g_l_window.html" target="_top" xlink:title=" ">
<polygon fill="none" stroke="black" points="405,-228.5 405,-247.5 550,-247.5 550,-228.5 405,-228.5"/>
<text text-anchor="middle" x="477.5" y="-235.5" font-family="Helvetica,sans-Serif" font-size="10.00">Ogre::EmscriptenEGLWindow</text>
</a>
</g>
</g>
<!-- Node6&#45;&gt;Node8 -->
<g id="edge7" class="edge">
<title>Node6&#45;&gt;Node8</title>
<path fill="none" stroke="midnightblue" d="M361.5,-238C375.38,-238 390.38,-238 404.81,-238"/>
<polygon fill="midnightblue" stroke="midnightblue" points="361.14,-234.5 351.14,-238 361.14,-241.5 361.14,-234.5"/>
</g>
<!-- Node9 -->
<g id="node9" class="node">
<title>Node9</title>
<g id="a_node9"><a xlink:href="class_ogre_1_1_win32_e_g_l_window.html" target="_top" xlink:title=" ">
<polygon fill="none" stroke="black" points="416,-190.5 416,-209.5 539,-209.5 539,-190.5 416,-190.5"/>
<text text-anchor="middle" x="477.5" y="-197.5" font-family="Helvetica,sans-Serif" font-size="10.00">Ogre::Win32EGLWindow</text>
</a>
</g>
</g>
<!-- Node6&#45;&gt;Node9 -->
<g id="edge8" class="edge">
<title>Node6&#45;&gt;Node9</title>
<path fill="none" stroke="midnightblue" d="M357.35,-226.25C381.74,-220.87 410.26,-214.59 433.28,-209.52"/>
<polygon fill="midnightblue" stroke="midnightblue" points="356.54,-222.84 347.53,-228.41 358.05,-229.68 356.54,-222.84"/>
</g>
<!-- Node10 -->
<g id="node10" class="node">
<title>Node10</title>
<g id="a_node10"><a xlink:href="class_ogre_1_1_x11_e_g_l_window.html" target="_top" xlink:title=" ">
<polygon fill="none" stroke="black" points="421,-152.5 421,-171.5 534,-171.5 534,-152.5 421,-152.5"/>
<text text-anchor="middle" x="477.5" y="-159.5" font-family="Helvetica,sans-Serif" font-size="10.00">Ogre::X11EGLWindow</text>
</a>
</g>
</g>
<!-- Node6&#45;&gt;Node10 -->
<g id="edge9" class="edge">
<title>Node6&#45;&gt;Node10</title>
<path fill="none" stroke="midnightblue" d="M353.36,-224.66C357.07,-222.97 360.66,-221.09 364,-219 383.72,-206.65 379.9,-192.72 400,-181 406.62,-177.14 414,-174.06 421.5,-171.6"/>
<polygon fill="midnightblue" stroke="midnightblue" points="351.94,-221.46 343.99,-228.46 354.57,-227.94 351.94,-221.46"/>
</g>
<!-- Node16 -->
<g id="node16" class="node">
<title>Node16</title>
<g id="a_node16"><a xlink:href="class_ogre_1_1_vulkan_android_window.html" target="_top" xlink:title=" ">
<polygon fill="none" stroke="black" points="407.5,-76.5 407.5,-95.5 547.5,-95.5 547.5,-76.5 407.5,-76.5"/>
<text text-anchor="middle" x="477.5" y="-83.5" font-family="Helvetica,sans-Serif" font-size="10.00">Ogre::VulkanAndroidWindow</text>
</a>
</g>
</g>
<!-- Node15&#45;&gt;Node16 -->
<g id="edge15" class="edge">
<title>Node15&#45;&gt;Node16</title>
<path fill="none" stroke="midnightblue" d="M357.35,-59.75C381.74,-65.13 410.26,-71.41 433.28,-76.48"/>
<polygon fill="midnightblue" stroke="midnightblue" points="358.05,-56.32 347.53,-57.59 356.54,-63.16 358.05,-56.32"/>
</g>
<!-- Node17 -->
<g id="node17" class="node">
<title>Node17</title>
<g id="a_node17"><a xlink:href="class_ogre_1_1_vulkan_win32_window.html" target="_top" xlink:title=" ">
<polygon fill="none" stroke="black" points="410.5,-38.5 410.5,-57.5 544.5,-57.5 544.5,-38.5 410.5,-38.5"/>
<text text-anchor="middle" x="477.5" y="-45.5" font-family="Helvetica,sans-Serif" font-size="10.00">Ogre::VulkanWin32Window</text>
</a>
</g>
</g>
<!-- Node15&#45;&gt;Node17 -->
<g id="edge16" class="edge">
<title>Node15&#45;&gt;Node17</title>
<path fill="none" stroke="midnightblue" d="M366.83,-48C381.01,-48 396.1,-48 410.4,-48"/>
<polygon fill="midnightblue" stroke="midnightblue" points="366.69,-44.5 356.69,-48 366.69,-51.5 366.69,-44.5"/>
</g>
<!-- Node18 -->
<g id="node18" class="node">
<title>Node18</title>
<g id="a_node18"><a xlink:href="class_ogre_1_1_vulkan_xcb_window.html" target="_top" xlink:title=" ">
<polygon fill="none" stroke="black" points="415.5,-0.5 415.5,-19.5 539.5,-19.5 539.5,-0.5 415.5,-0.5"/>
<text text-anchor="middle" x="477.5" y="-7.5" font-family="Helvetica,sans-Serif" font-size="10.00">Ogre::VulkanXcbWindow</text>
</a>
</g>
</g>
<!-- Node15&#45;&gt;Node18 -->
<g id="edge17" class="edge">
<title>Node15&#45;&gt;Node18</title>
<path fill="none" stroke="midnightblue" d="M357.35,-36.25C381.74,-30.87 410.26,-24.59 433.28,-19.52"/>
<polygon fill="midnightblue" stroke="midnightblue" points="356.54,-32.84 347.53,-38.41 358.05,-39.68 356.54,-32.84"/>
</g>
</g>
</svg>
