<?xml version="1.0" encoding="UTF-8" standalone="no"?>
<!DOCTYPE svg PUBLIC "-//W3C//DTD SVG 1.1//EN"
 "http://www.w3.org/Graphics/SVG/1.1/DTD/svg11.dtd">
<!-- Generated by graphviz version 2.43.0 (0)
 -->
<!-- Title: Ogre::CompositorWorkspaceListener Pages: 1 -->
<svg width="474pt" height="151pt"
 viewBox="0.00 0.00 474.00 151.00" xmlns="http://www.w3.org/2000/svg" xmlns:xlink="http://www.w3.org/1999/xlink">
<g id="graph0" class="graph" transform="scale(1 1) rotate(0) translate(4 147)">
<title>Ogre::CompositorWorkspaceListener</title>
<!-- Node1 -->
<g id="node1" class="node">
<title>Node1</title>
<g id="a_node1"><a xlink:title=" ">
<polygon fill="#bfbfbf" stroke="black" points="214,-112.5 214,-142.5 369,-142.5 369,-112.5 214,-112.5"/>
<text text-anchor="start" x="222" y="-130.5" font-family="Helvetica,sans-Serif" font-size="10.00">Ogre::CompositorWorkspace</text>
<text text-anchor="middle" x="291.5" y="-119.5" font-family="Helvetica,sans-Serif" font-size="10.00">Listener</text>
</a>
</g>
</g>
<!-- Node2 -->
<g id="node2" class="node">
<title>Node2</title>
<g id="a_node2"><a xlink:href="class_ogre_1_1_parallax_corrected_cubemap_base.html" target="_top" xlink:title=" ">
<polygon fill="none" stroke="black" points="92,-56.5 92,-75.5 295,-75.5 295,-56.5 92,-56.5"/>
<text text-anchor="middle" x="193.5" y="-63.5" font-family="Helvetica,sans-Serif" font-size="10.00">Ogre::ParallaxCorrectedCubemapBase</text>
</a>
</g>
</g>
<!-- Node1&#45;&gt;Node2 -->
<g id="edge1" class="edge">
<title>Node1&#45;&gt;Node2</title>
<path fill="none" stroke="midnightblue" d="M259.5,-107.07C242.03,-96.46 221.27,-83.86 207.76,-75.66"/>
<polygon fill="midnightblue" stroke="midnightblue" points="257.91,-110.2 268.28,-112.4 261.54,-104.22 257.91,-110.2"/>
</g>
<!-- Node5 -->
<g id="node5" class="node">
<title>Node5</title>
<g id="a_node5"><a xlink:href="class_ogre_1_1_vct_cascaded_voxelizer.html" target="_top" xlink:title="This class manages multiple cascades of Voxels and each cascade can be composed of VctImageVoxelizer.">
<polygon fill="none" stroke="black" points="313,-56.5 313,-75.5 466,-75.5 466,-56.5 313,-56.5"/>
<text text-anchor="middle" x="389.5" y="-63.5" font-family="Helvetica,sans-Serif" font-size="10.00">Ogre::VctCascadedVoxelizer</text>
</a>
</g>
</g>
<!-- Node1&#45;&gt;Node5 -->
<g id="edge4" class="edge">
<title>Node1&#45;&gt;Node5</title>
<path fill="none" stroke="midnightblue" d="M323.5,-107.07C340.97,-96.46 361.73,-83.86 375.24,-75.66"/>
<polygon fill="midnightblue" stroke="midnightblue" points="321.46,-104.22 314.72,-112.4 325.09,-110.2 321.46,-104.22"/>
</g>
<!-- Node3 -->
<g id="node3" class="node">
<title>Node3</title>
<g id="a_node3"><a xlink:href="class_ogre_1_1_parallax_corrected_cubemap.html" target="_top" xlink:title=" ">
<polygon fill="none" stroke="black" points="0,-0.5 0,-19.5 179,-19.5 179,-0.5 0,-0.5"/>
<text text-anchor="middle" x="89.5" y="-7.5" font-family="Helvetica,sans-Serif" font-size="10.00">Ogre::ParallaxCorrectedCubemap</text>
</a>
</g>
</g>
<!-- Node2&#45;&gt;Node3 -->
<g id="edge2" class="edge">
<title>Node2&#45;&gt;Node3</title>
<path fill="none" stroke="midnightblue" d="M167.67,-51.59C148.44,-41.61 122.76,-28.27 106.17,-19.65"/>
<polygon fill="midnightblue" stroke="midnightblue" points="166.3,-54.82 176.79,-56.32 169.53,-48.61 166.3,-54.82"/>
</g>
<!-- Node4 -->
<g id="node4" class="node">
<title>Node4</title>
<g id="a_node4"><a xlink:href="class_ogre_1_1_parallax_corrected_cubemap_auto.html" target="_top" xlink:title="Per&#45;Pixel reflection probes.">
<polygon fill="none" stroke="black" points="197,-0.5 197,-19.5 398,-19.5 398,-0.5 197,-0.5"/>
<text text-anchor="middle" x="297.5" y="-7.5" font-family="Helvetica,sans-Serif" font-size="10.00">Ogre::ParallaxCorrectedCubemapAuto</text>
</a>
</g>
</g>
<!-- Node2&#45;&gt;Node4 -->
<g id="edge3" class="edge">
<title>Node2&#45;&gt;Node4</title>
<path fill="none" stroke="midnightblue" d="M219.33,-51.59C238.56,-41.61 264.24,-28.27 280.83,-19.65"/>
<polygon fill="midnightblue" stroke="midnightblue" points="217.47,-48.61 210.21,-56.32 220.7,-54.82 217.47,-48.61"/>
</g>
</g>
</svg>
