<?xml version="1.0" encoding="UTF-8" standalone="no"?>
<!DOCTYPE svg PUBLIC "-//W3C//DTD SVG 1.1//EN"
 "http://www.w3.org/Graphics/SVG/1.1/DTD/svg11.dtd">
<!-- Generated by graphviz version 2.50.0 (20220203.2022)
 -->
<!-- Title: Ogre::TextureFilter::FilterBase Pages: 1 -->
<svg width="406pt" height="186pt"
 viewBox="0.00 0.00 406.00 186.00" xmlns="http://www.w3.org/2000/svg" xmlns:xlink="http://www.w3.org/1999/xlink">
<g id="graph0" class="graph" transform="scale(1 1) rotate(0) translate(4 182)">
<title>Ogre::TextureFilter::FilterBase</title>
<!-- Node1 -->
<g id="node1" class="node">
<title>Node1</title>
<g id="a_node1"><a xlink:title=" ">
<polygon fill="#bfbfbf" stroke="black" points="129,-73.5 129,-103.5 225,-103.5 225,-73.5 129,-73.5"/>
<text text-anchor="start" x="137" y="-91.5" font-family="Helvetica,sans-Serif" font-size="10.00">Ogre::TextureFilter</text>
<text text-anchor="middle" x="177" y="-80.5" font-family="Helvetica,sans-Serif" font-size="10.00">::FilterBase</text>
</a>
</g>
</g>
<!-- Node3 -->
<g id="node3" class="node">
<title>Node3</title>
<g id="a_node3"><a xlink:href="class_ogre_1_1_texture_filter_1_1_generate_hw_mipmaps.html" target="_top" xlink:title=" ">
<polygon fill="none" stroke="black" points="271.5,-147.5 271.5,-177.5 387.5,-177.5 387.5,-147.5 271.5,-147.5"/>
<text text-anchor="start" x="279.5" y="-165.5" font-family="Helvetica,sans-Serif" font-size="10.00">Ogre::TextureFilter</text>
<text text-anchor="middle" x="329.5" y="-154.5" font-family="Helvetica,sans-Serif" font-size="10.00">::GenerateHwMipmaps</text>
</a>
</g>
</g>
<!-- Node1&#45;&gt;Node3 -->
<g id="edge2" class="edge">
<title>Node1&#45;&gt;Node3</title>
<path fill="none" stroke="midnightblue" d="M208.76,-109.06C224.06,-118.75 243.08,-130.02 261,-138.5 267.75,-141.69 275.04,-144.71 282.25,-147.45"/>
<polygon fill="midnightblue" stroke="midnightblue" points="210.52,-106.03 200.22,-103.56 206.74,-111.92 210.52,-106.03"/>
</g>
<!-- Node4 -->
<g id="node4" class="node">
<title>Node4</title>
<g id="a_node4"><a xlink:href="class_ogre_1_1_texture_filter_1_1_generate_sw_mipmaps.html" target="_top" xlink:title=" ">
<polygon fill="none" stroke="black" points="272,-98.5 272,-128.5 387,-128.5 387,-98.5 272,-98.5"/>
<text text-anchor="start" x="280" y="-116.5" font-family="Helvetica,sans-Serif" font-size="10.00">Ogre::TextureFilter</text>
<text text-anchor="middle" x="329.5" y="-105.5" font-family="Helvetica,sans-Serif" font-size="10.00">::GenerateSwMipmaps</text>
</a>
</g>
</g>
<!-- Node1&#45;&gt;Node4 -->
<g id="edge3" class="edge">
<title>Node1&#45;&gt;Node4</title>
<path fill="none" stroke="midnightblue" d="M235.15,-97.99C247.21,-100 259.93,-102.11 271.96,-104.11"/>
<polygon fill="midnightblue" stroke="midnightblue" points="235.64,-94.53 225.21,-96.34 234.5,-101.43 235.64,-94.53"/>
</g>
<!-- Node5 -->
<g id="node5" class="node">
<title>Node5</title>
<g id="a_node5"><a xlink:href="class_ogre_1_1_texture_filter_1_1_leave_channel_r.html" target="_top" xlink:title=" ">
<polygon fill="none" stroke="black" points="281.5,-49.5 281.5,-79.5 377.5,-79.5 377.5,-49.5 281.5,-49.5"/>
<text text-anchor="start" x="289.5" y="-67.5" font-family="Helvetica,sans-Serif" font-size="10.00">Ogre::TextureFilter</text>
<text text-anchor="middle" x="329.5" y="-56.5" font-family="Helvetica,sans-Serif" font-size="10.00">::LeaveChannelR</text>
</a>
</g>
</g>
<!-- Node1&#45;&gt;Node5 -->
<g id="edge4" class="edge">
<title>Node1&#45;&gt;Node5</title>
<path fill="none" stroke="midnightblue" d="M235.08,-79.4C250.39,-76.96 266.77,-74.34 281.46,-72"/>
<polygon fill="midnightblue" stroke="midnightblue" points="234.53,-75.94 225.21,-80.97 235.63,-82.85 234.53,-75.94"/>
</g>
<!-- Node6 -->
<g id="node6" class="node">
<title>Node6</title>
<g id="a_node6"><a xlink:href="class_ogre_1_1_texture_filter_1_1_prepare_for_normal_mapping.html" target="_top" xlink:title=" ">
<polygon fill="none" stroke="black" points="261,-0.5 261,-30.5 398,-30.5 398,-0.5 261,-0.5"/>
<text text-anchor="start" x="269" y="-18.5" font-family="Helvetica,sans-Serif" font-size="10.00">Ogre::TextureFilter</text>
<text text-anchor="middle" x="329.5" y="-7.5" font-family="Helvetica,sans-Serif" font-size="10.00">::PrepareForNormalMapping</text>
</a>
</g>
</g>
<!-- Node1&#45;&gt;Node6 -->
<g id="edge5" class="edge">
<title>Node1&#45;&gt;Node6</title>
<path fill="none" stroke="midnightblue" d="M209.47,-67.99C224.66,-58.59 243.39,-47.74 261,-39.5 267.76,-36.34 275.06,-33.34 282.27,-30.6"/>
<polygon fill="midnightblue" stroke="midnightblue" points="207.57,-65.05 200.96,-73.33 211.29,-70.98 207.57,-65.05"/>
</g>
<!-- Node2 -->
<g id="node2" class="node">
<title>Node2</title>
<g id="a_node2"><a xlink:href="class_ogre_1_1_allocated_object.html" target="_top" xlink:title="Superclass for all objects that wish to use custom memory allocators when their new / delete operator...">
<polygon fill="none" stroke="black" points="0,-79 0,-98 93,-98 93,-79 0,-79"/>
<text text-anchor="middle" x="46.5" y="-86" font-family="Helvetica,sans-Serif" font-size="10.00">OgreAllocatedObj</text>
</a>
</g>
</g>
<!-- Node2&#45;&gt;Node1 -->
<g id="edge1" class="edge">
<title>Node2&#45;&gt;Node1</title>
<path fill="none" stroke="midnightblue" d="M103.35,-88.5C111.82,-88.5 120.48,-88.5 128.74,-88.5"/>
<polygon fill="midnightblue" stroke="midnightblue" points="103.17,-85 93.17,-88.5 103.17,-92 103.17,-85"/>
</g>
</g>
</svg>
