<?xml version="1.0" encoding="UTF-8" standalone="no"?>
<!DOCTYPE svg PUBLIC "-//W3C//DTD SVG 1.1//EN"
 "http://www.w3.org/Graphics/SVG/1.1/DTD/svg11.dtd">
<!-- Generated by graphviz version 7.0.5 (20221223.1930)
 -->
<!-- Title: Ogre::VectorIterator&lt; T &gt; Pages: 1 -->
<svg width="145pt" height="159pt"
 viewBox="0.00 0.00 145.00 159.00" xmlns="http://www.w3.org/2000/svg" xmlns:xlink="http://www.w3.org/1999/xlink">
<g id="graph0" class="graph" transform="scale(1 1) rotate(0) translate(4 155)">
<title>Ogre::VectorIterator&lt; T &gt;</title>
<!-- Node1 -->
<g id="node1" class="node">
<title>Node1</title>
<g id="a_node1"><a xlink:title="Concrete IteratorWrapper for nonconst access to the underlying container.">
<polygon fill="#999999" stroke="#666666" points="130.5,-19 6.5,-19 6.5,0 130.5,0 130.5,-19"/>
<text text-anchor="middle" x="68.5" y="-7" font-family="Helvetica,sans-Serif" font-size="10.00">Ogre::VectorIterator&lt; T &gt;</text>
</a>
</g>
</g>
<!-- Node2 -->
<g id="node2" class="node">
<title>Node2</title>
<g id="a_node2"><a xlink:href="class_ogre_1_1_vector_iterator_wrapper.html" target="_top" xlink:title=" ">
<polygon fill="white" stroke="#666666" points="137,-85 0,-85 0,-55 137,-55 137,-85"/>
<text text-anchor="start" x="8" y="-73" font-family="Helvetica,sans-Serif" font-size="10.00">Ogre::VectorIteratorWrapper</text>
<text text-anchor="middle" x="68.5" y="-62" font-family="Helvetica,sans-Serif" font-size="10.00">&lt; T, T::iterator &gt;</text>
</a>
</g>
</g>
<!-- Node2&#45;&gt;Node1 -->
<g id="edge1" class="edge">
<title>Node2&#45;&gt;Node1</title>
<path fill="none" stroke="#63b8ff" d="M68.5,-43.3C68.5,-34.65 68.5,-25.58 68.5,-19.18"/>
<polygon fill="#63b8ff" stroke="#63b8ff" points="65,-43.03 68.5,-53.03 72,-43.03 65,-43.03"/>
</g>
<!-- Node3 -->
<g id="node3" class="node">
<title>Node3</title>
<g id="a_node3"><a xlink:href="class_ogre_1_1_iterator_wrapper.html" target="_top" xlink:title="Basefunctionality for IteratorWrappers.">
<polygon fill="white" stroke="#666666" points="137,-151 0,-151 0,-121 137,-121 137,-151"/>
<text text-anchor="start" x="8" y="-139" font-family="Helvetica,sans-Serif" font-size="10.00">Ogre::IteratorWrapper</text>
<text text-anchor="middle" x="68.5" y="-128" font-family="Helvetica,sans-Serif" font-size="10.00">&lt; T, IteratorType, ValType &gt;</text>
</a>
</g>
</g>
<!-- Node3&#45;&gt;Node2 -->
<g id="edge2" class="edge">
<title>Node3&#45;&gt;Node2</title>
<path fill="none" stroke="#63b8ff" d="M68.5,-109.39C68.5,-101.13 68.5,-92.28 68.5,-85.16"/>
<polygon fill="#63b8ff" stroke="#63b8ff" points="65,-109.28 68.5,-119.28 72,-109.28 65,-109.28"/>
</g>
</g>
</svg>
