<?xml version="1.0" encoding="UTF-8" standalone="no"?>
<!DOCTYPE svg PUBLIC "-//W3C//DTD SVG 1.1//EN"
 "http://www.w3.org/Graphics/SVG/1.1/DTD/svg11.dtd">
<!-- Generated by graphviz version 2.43.0 (0)
 -->
<!-- Title: Ogre::CompositorPassProvider Pages: 1 -->
<svg width="172pt" height="148pt"
 viewBox="0.00 0.00 172.00 148.00" xmlns="http://www.w3.org/2000/svg" xmlns:xlink="http://www.w3.org/1999/xlink">
<g id="graph0" class="graph" transform="scale(1 1) rotate(0) translate(4 144)">
<title>Ogre::CompositorPassProvider</title>
<!-- Node1 -->
<g id="Node000001" class="node">
<title>Node1</title>
<g id="a_Node000001"><a xlink:title="Base class that users can derive from in order to implement custom passes for the compositor.">
<polygon fill="#999999" stroke="#666666" points="164,-85 0,-85 0,-66 164,-66 164,-85"/>
<text text-anchor="middle" x="82" y="-73" font-family="Helvetica,sans-Serif" font-size="10.00">Ogre::CompositorPassProvider</text>
</a>
</g>
</g>
<!-- Node3 -->
<g id="Node000003" class="node">
<title>Node3</title>
<g id="a_Node000003"><a xlink:href="class_ogre_1_1_compositor_pass_imgui_provider.html" target="_top" xlink:title="Generates the CompositorPassImgui pass needed to render imgui UI Also ensures the compositor scripts ...">
<polygon fill="white" stroke="#666666" points="158,-30 6,-30 6,0 158,0 158,-30"/>
<text text-anchor="start" x="14" y="-18" font-family="Helvetica,sans-Serif" font-size="10.00">Ogre::CompositorPassImgui</text>
<text text-anchor="middle" x="82" y="-7" font-family="Helvetica,sans-Serif" font-size="10.00">Provider</text>
</a>
</g>
</g>
<!-- Node1&#45;&gt;Node3 -->
<g id="edge2_Node000001_Node000003" class="edge">
<title>Node1&#45;&gt;Node3</title>
<g id="a_edge2_Node000001_Node000003"><a xlink:title=" ">
<path fill="none" stroke="#63b8ff" d="M82,-55.65C82,-47.36 82,-37.78 82,-30.11"/>
<polygon fill="#63b8ff" stroke="#63b8ff" points="78.5,-55.87 82,-65.87 85.5,-55.87 78.5,-55.87"/>
</a>
</g>
</g>
<!-- Node2 -->
<g id="Node000002" class="node">
<title>Node2</title>
<g id="a_Node000002"><a xlink:title=" ">
<polygon fill="white" stroke="#666666" points="147.5,-140 16.5,-140 16.5,-121 147.5,-121 147.5,-140"/>
<text text-anchor="middle" x="82" y="-128" font-family="Helvetica,sans-Serif" font-size="10.00">Ogre::OgreAllocatedObj</text>
</a>
</g>
</g>
<!-- Node2&#45;&gt;Node1 -->
<g id="edge1_Node000001_Node000002" class="edge">
<title>Node2&#45;&gt;Node1</title>
<g id="a_edge1_Node000001_Node000002"><a xlink:title=" ">
<path fill="none" stroke="#63b8ff" d="M82,-110.66C82,-101.93 82,-91.99 82,-85.09"/>
<polygon fill="#63b8ff" stroke="#63b8ff" points="78.5,-110.75 82,-120.75 85.5,-110.75 78.5,-110.75"/>
</a>
</g>
</g>
</g>
</svg>
