<?xml version="1.0" encoding="UTF-8" standalone="no"?>
<!DOCTYPE svg PUBLIC "-//W3C//DTD SVG 1.1//EN"
 "http://www.w3.org/Graphics/SVG/1.1/DTD/svg11.dtd">
<!-- Generated by graphviz version 2.43.0 (0)
 -->
<!-- Title: Ogre::Plugin Pages: 1 -->
<svg width="389pt" height="294pt"
 viewBox="0.00 0.00 389.00 294.00" xmlns="http://www.w3.org/2000/svg" xmlns:xlink="http://www.w3.org/1999/xlink">
<g id="graph0" class="graph" transform="scale(1 1) rotate(0) translate(4 290)">
<title>Ogre::Plugin</title>
<!-- Node1 -->
<g id="node1" class="node">
<title>Node1</title>
<g id="a_node1"><a xlink:title="Class defining a generic OGRE plugin.">
<polygon fill="#bfbfbf" stroke="black" points="138,-133.5 138,-152.5 214,-152.5 214,-133.5 138,-133.5"/>
<text text-anchor="middle" x="176" y="-140.5" font-family="Helvetica,sans-Serif" font-size="10.00">Ogre::Plugin</text>
</a>
</g>
</g>
<!-- Node3 -->
<g id="node3" class="node">
<title>Node3</title>
<g id="a_node3"><a xlink:href="class_ogre_1_1_d3_d11_plugin.html" target="_top" xlink:title="Plugin instance for D3D11 Manager.">
<polygon fill="none" stroke="black" points="261,-266.5 261,-285.5 370,-285.5 370,-266.5 261,-266.5"/>
<text text-anchor="middle" x="315.5" y="-273.5" font-family="Helvetica,sans-Serif" font-size="10.00">Ogre::D3D11Plugin</text>
</a>
</g>
</g>
<!-- Node1&#45;&gt;Node3 -->
<g id="edge2" class="edge">
<title>Node1&#45;&gt;Node3</title>
<path fill="none" stroke="midnightblue" d="M184.26,-162.22C194.85,-187.66 216.94,-232.19 250,-257 255.14,-260.85 261.04,-263.93 267.15,-266.38"/>
<polygon fill="midnightblue" stroke="midnightblue" points="187.38,-160.59 180.43,-152.6 180.88,-163.18 187.38,-160.59"/>
</g>
<!-- Node4 -->
<g id="node4" class="node">
<title>Node4</title>
<g id="a_node4"><a xlink:href="class_ogre_1_1_g_l3_plus_plugin.html" target="_top" xlink:title="Plugin instance for GL3Plus Manager.">
<polygon fill="none" stroke="black" points="258,-228.5 258,-247.5 373,-247.5 373,-228.5 258,-228.5"/>
<text text-anchor="middle" x="315.5" y="-235.5" font-family="Helvetica,sans-Serif" font-size="10.00">Ogre::GL3PlusPlugin</text>
</a>
</g>
</g>
<!-- Node1&#45;&gt;Node4 -->
<g id="edge3" class="edge">
<title>Node1&#45;&gt;Node4</title>
<path fill="none" stroke="midnightblue" d="M189.73,-160.88C202.93,-178.16 225.1,-203.87 250,-219 256.29,-222.82 263.38,-225.91 270.51,-228.4"/>
<polygon fill="midnightblue" stroke="midnightblue" points="192.45,-158.66 183.68,-152.72 186.82,-162.83 192.45,-158.66"/>
</g>
<!-- Node5 -->
<g id="node5" class="node">
<title>Node5</title>
<g id="a_node5"><a xlink:href="class_ogre_1_1_g_l_e_s2_plugin.html" target="_top" xlink:title="Plugin instance for GL ES 2 Manager.">
<polygon fill="none" stroke="black" points="262,-190.5 262,-209.5 369,-209.5 369,-190.5 262,-190.5"/>
<text text-anchor="middle" x="315.5" y="-197.5" font-family="Helvetica,sans-Serif" font-size="10.00">Ogre::GLES2Plugin</text>
</a>
</g>
</g>
<!-- Node1&#45;&gt;Node5 -->
<g id="edge4" class="edge">
<title>Node1&#45;&gt;Node5</title>
<path fill="none" stroke="midnightblue" d="M202,-157.55C215.84,-165.21 233.53,-174.36 250,-181 258.77,-184.54 268.45,-187.74 277.58,-190.46"/>
<polygon fill="midnightblue" stroke="midnightblue" points="203.53,-154.39 193.1,-152.53 200.09,-160.49 203.53,-154.39"/>
</g>
<!-- Node6 -->
<g id="node6" class="node">
<title>Node6</title>
<g id="a_node6"><a xlink:href="class_ogre_1_1_metal_plugin.html" target="_top" xlink:title="Plugin instance for Metal Manager.">
<polygon fill="none" stroke="black" points="263.5,-152.5 263.5,-171.5 367.5,-171.5 367.5,-152.5 263.5,-152.5"/>
<text text-anchor="middle" x="315.5" y="-159.5" font-family="Helvetica,sans-Serif" font-size="10.00">Ogre::MetalPlugin</text>
</a>
</g>
</g>
<!-- Node1&#45;&gt;Node6 -->
<g id="edge5" class="edge">
<title>Node1&#45;&gt;Node6</title>
<path fill="none" stroke="midnightblue" d="M224.46,-149.56C237,-151.29 250.59,-153.17 263.32,-154.93"/>
<polygon fill="midnightblue" stroke="midnightblue" points="224.59,-146.04 214.21,-148.14 223.64,-152.98 224.59,-146.04"/>
</g>
<!-- Node7 -->
<g id="node7" class="node">
<title>Node7</title>
<g id="a_node7"><a xlink:href="class_ogre_1_1_n_u_l_l_plugin.html" target="_top" xlink:title="Plugin instance for NULL Manager.">
<polygon fill="none" stroke="black" points="265,-114.5 265,-133.5 366,-133.5 366,-114.5 265,-114.5"/>
<text text-anchor="middle" x="315.5" y="-121.5" font-family="Helvetica,sans-Serif" font-size="10.00">Ogre::NULLPlugin</text>
</a>
</g>
</g>
<!-- Node1&#45;&gt;Node7 -->
<g id="edge6" class="edge">
<title>Node1&#45;&gt;Node7</title>
<path fill="none" stroke="midnightblue" d="M224.4,-136.45C237.47,-134.64 251.67,-132.68 264.86,-130.86"/>
<polygon fill="midnightblue" stroke="midnightblue" points="223.64,-133.02 214.21,-137.86 224.59,-139.96 223.64,-133.02"/>
</g>
<!-- Node8 -->
<g id="node8" class="node">
<title>Node8</title>
<g id="a_node8"><a xlink:href="class_ogre_1_1_particle_f_x2_plugin.html" target="_top" xlink:title="Plugin instance for ParticleFX2 Manager.">
<polygon fill="none" stroke="black" points="250,-76.5 250,-95.5 381,-95.5 381,-76.5 250,-76.5"/>
<text text-anchor="middle" x="315.5" y="-83.5" font-family="Helvetica,sans-Serif" font-size="10.00">Ogre::ParticleFX2Plugin</text>
</a>
</g>
</g>
<!-- Node1&#45;&gt;Node8 -->
<g id="edge7" class="edge">
<title>Node1&#45;&gt;Node8</title>
<path fill="none" stroke="midnightblue" d="M202,-128.45C215.84,-120.79 233.53,-111.64 250,-105 258.77,-101.46 268.45,-98.26 277.58,-95.54"/>
<polygon fill="midnightblue" stroke="midnightblue" points="200.09,-125.51 193.1,-133.47 203.53,-131.61 200.09,-125.51"/>
</g>
<!-- Node9 -->
<g id="node9" class="node">
<title>Node9</title>
<g id="a_node9"><a xlink:href="class_ogre_1_1_particle_f_x_plugin.html" target="_top" xlink:title="Plugin instance for ParticleFX Manager.">
<polygon fill="none" stroke="black" points="253,-38.5 253,-57.5 378,-57.5 378,-38.5 253,-38.5"/>
<text text-anchor="middle" x="315.5" y="-45.5" font-family="Helvetica,sans-Serif" font-size="10.00">Ogre::ParticleFXPlugin</text>
</a>
</g>
</g>
<!-- Node1&#45;&gt;Node9 -->
<g id="edge8" class="edge">
<title>Node1&#45;&gt;Node9</title>
<path fill="none" stroke="midnightblue" d="M189.73,-125.12C202.93,-107.84 225.1,-82.13 250,-67 256.29,-63.18 263.38,-60.09 270.51,-57.6"/>
<polygon fill="midnightblue" stroke="midnightblue" points="186.82,-123.17 183.68,-133.28 192.45,-127.34 186.82,-123.17"/>
</g>
<!-- Node10 -->
<g id="node10" class="node">
<title>Node10</title>
<g id="a_node10"><a xlink:href="class_ogre_1_1_vulkan_plugin.html" target="_top" xlink:title="Plugin instance for Vulkan Manager.">
<polygon fill="none" stroke="black" points="261.5,-0.5 261.5,-19.5 369.5,-19.5 369.5,-0.5 261.5,-0.5"/>
<text text-anchor="middle" x="315.5" y="-7.5" font-family="Helvetica,sans-Serif" font-size="10.00">Ogre::VulkanPlugin</text>
</a>
</g>
</g>
<!-- Node1&#45;&gt;Node10 -->
<g id="edge9" class="edge">
<title>Node1&#45;&gt;Node10</title>
<path fill="none" stroke="midnightblue" d="M184.26,-123.78C194.85,-98.34 216.94,-53.81 250,-29 255.14,-25.15 261.04,-22.07 267.15,-19.62"/>
<polygon fill="midnightblue" stroke="midnightblue" points="180.88,-122.82 180.43,-133.4 187.38,-125.41 180.88,-122.82"/>
</g>
<!-- Node2 -->
<g id="node2" class="node">
<title>Node2</title>
<g id="a_node2"><a xlink:title=" ">
<polygon fill="none" stroke="#bfbfbf" points="0,-133.5 0,-152.5 102,-152.5 102,-133.5 0,-133.5"/>
<text text-anchor="middle" x="51" y="-140.5" font-family="Helvetica,sans-Serif" font-size="10.00">OgreAllocatedObj</text>
</a>
</g>
</g>
<!-- Node2&#45;&gt;Node1 -->
<g id="edge1" class="edge">
<title>Node2&#45;&gt;Node1</title>
<path fill="none" stroke="midnightblue" d="M112.23,-143C120.97,-143 129.74,-143 137.85,-143"/>
<polygon fill="midnightblue" stroke="midnightblue" points="112.03,-139.5 102.03,-143 112.03,-146.5 112.03,-139.5"/>
</g>
</g>
</svg>
