<?xml version="1.0" encoding="UTF-8" standalone="no"?>
<!DOCTYPE svg PUBLIC "-//W3C//DTD SVG 1.1//EN"
 "http://www.w3.org/Graphics/SVG/1.1/DTD/svg11.dtd">
<!-- Generated by graphviz version 2.43.0 (0)
 -->
<!-- Title: Ogre::CompositorPassDef Pages: 1 -->
<svg width="547pt" height="507pt"
 viewBox="0.00 0.00 547.00 506.50" xmlns="http://www.w3.org/2000/svg" xmlns:xlink="http://www.w3.org/1999/xlink">
<g id="graph0" class="graph" transform="scale(1 1) rotate(0) translate(4 502.5)">
<title>Ogre::CompositorPassDef</title>
<!-- Node1 -->
<g id="Node000001" class="node">
<title>Node1</title>
<g id="a_Node000001"><a xlink:title="Interface to abstract all types of pass definitions (see CompositorPassType):">
<polygon fill="#999999" stroke="#666666" points="308,-264.5 167,-264.5 167,-245.5 308,-245.5 308,-264.5"/>
<text text-anchor="middle" x="237.5" y="-252.5" font-family="Helvetica,sans-Serif" font-size="10.00">Ogre::CompositorPassDef</text>
</a>
</g>
</g>
<!-- Node3 -->
<g id="Node000003" class="node">
<title>Node3</title>
<g id="a_Node000003"><a xlink:href="class_ogre_1_1_compositor_pass_clear_def.html" target="_top" xlink:title=" ">
<polygon fill="white" stroke="#666666" points="525,-498.5 358,-498.5 358,-479.5 525,-479.5 525,-498.5"/>
<text text-anchor="middle" x="441.5" y="-486.5" font-family="Helvetica,sans-Serif" font-size="10.00">Ogre::CompositorPassClearDef</text>
</a>
</g>
</g>
<!-- Node1&#45;&gt;Node3 -->
<g id="edge2_Node000001_Node000003" class="edge">
<title>Node1&#45;&gt;Node3</title>
<g id="a_edge2_Node000001_Node000003"><a xlink:title=" ">
<path fill="none" stroke="#63b8ff" d="M242.01,-274.75C250.76,-317.88 277.84,-420.66 344,-471 348.34,-474.3 353.1,-477.06 358.12,-479.36"/>
<polygon fill="#63b8ff" stroke="#63b8ff" points="245.4,-273.86 240.08,-264.69 238.52,-275.17 245.4,-273.86"/>
</a>
</g>
</g>
<!-- Node4 -->
<g id="Node000004" class="node">
<title>Node4</title>
<g id="a_Node000004"><a xlink:href="class_ogre_1_1_compositor_pass_compute_def.html" target="_top" xlink:title=" ">
<polygon fill="white" stroke="#666666" points="534,-461.5 349,-461.5 349,-442.5 534,-442.5 534,-461.5"/>
<text text-anchor="middle" x="441.5" y="-449.5" font-family="Helvetica,sans-Serif" font-size="10.00">Ogre::CompositorPassComputeDef</text>
</a>
</g>
</g>
<!-- Node1&#45;&gt;Node4 -->
<g id="edge3_Node000001_Node000004" class="edge">
<title>Node1&#45;&gt;Node4</title>
<g id="a_edge3_Node000001_Node000004"><a xlink:title=" ">
<path fill="none" stroke="#63b8ff" d="M244.08,-274.27C255.89,-311.41 287.12,-392.82 344,-433 349.44,-436.84 355.46,-439.96 361.76,-442.47"/>
<polygon fill="#63b8ff" stroke="#63b8ff" points="247.41,-273.19 241.14,-264.64 240.71,-275.23 247.41,-273.19"/>
</a>
</g>
</g>
<!-- Node5 -->
<g id="Node000005" class="node">
<title>Node5</title>
<g id="a_Node000005"><a xlink:href="class_ogre_1_1_compositor_pass_depth_copy_def.html" target="_top" xlink:title=" ">
<polygon fill="white" stroke="#666666" points="518,-424 365,-424 365,-394 518,-394 518,-424"/>
<text text-anchor="start" x="373" y="-412" font-family="Helvetica,sans-Serif" font-size="10.00">Ogre::CompositorPassDepth</text>
<text text-anchor="middle" x="441.5" y="-401" font-family="Helvetica,sans-Serif" font-size="10.00">CopyDef</text>
</a>
</g>
</g>
<!-- Node1&#45;&gt;Node5 -->
<g id="edge4_Node000001_Node000005" class="edge">
<title>Node1&#45;&gt;Node5</title>
<g id="a_edge4_Node000001_Node000005"><a xlink:title=" ">
<path fill="none" stroke="#63b8ff" d="M248.29,-273.54C264.35,-302.07 299.02,-356.4 344,-385 350.41,-389.08 357.47,-392.46 364.76,-395.27"/>
<polygon fill="#63b8ff" stroke="#63b8ff" points="251.28,-271.71 243.41,-264.62 245.14,-275.07 251.28,-271.71"/>
</a>
</g>
</g>
<!-- Node6 -->
<g id="Node000006" class="node">
<title>Node6</title>
<g id="a_Node000006"><a xlink:href="class_ogre_1_1_compositor_pass_ibl_specular_def.html" target="_top" xlink:title=" ">
<polygon fill="white" stroke="#666666" points="539,-375.5 344,-375.5 344,-356.5 539,-356.5 539,-375.5"/>
<text text-anchor="middle" x="441.5" y="-363.5" font-family="Helvetica,sans-Serif" font-size="10.00">Ogre::CompositorPassIblSpecularDef</text>
</a>
</g>
</g>
<!-- Node1&#45;&gt;Node6 -->
<g id="edge5_Node000001_Node000006" class="edge">
<title>Node1&#45;&gt;Node6</title>
<g id="a_edge5_Node000001_Node000006"><a xlink:title=" ">
<path fill="none" stroke="#63b8ff" d="M252.88,-272.47C271.54,-293.88 306.22,-329.59 344,-348 351.05,-351.43 358.68,-354.22 366.45,-356.47"/>
<polygon fill="#63b8ff" stroke="#63b8ff" points="255.47,-270.12 246.33,-264.77 250.14,-274.65 255.47,-270.12"/>
</a>
</g>
</g>
<!-- Node7 -->
<g id="Node000007" class="node">
<title>Node7</title>
<g id="a_Node000007"><a xlink:href="class_ogre_1_1_compositor_pass_imgui_def.html" target="_top" xlink:title=" ">
<polygon fill="white" stroke="#666666" points="526,-338.5 357,-338.5 357,-319.5 526,-319.5 526,-338.5"/>
<text text-anchor="middle" x="441.5" y="-326.5" font-family="Helvetica,sans-Serif" font-size="10.00">Ogre::CompositorPassImguiDef</text>
</a>
</g>
</g>
<!-- Node1&#45;&gt;Node7 -->
<g id="edge6_Node000001_Node000007" class="edge">
<title>Node1&#45;&gt;Node7</title>
<g id="a_edge6_Node000001_Node000007"><a xlink:title=" ">
<path fill="none" stroke="#63b8ff" d="M261.96,-270.13C282.73,-282.87 314.29,-300.62 344,-311 353.73,-314.4 364.26,-317.2 374.65,-319.49"/>
<polygon fill="#63b8ff" stroke="#63b8ff" points="263.55,-267 253.21,-264.68 259.84,-272.94 263.55,-267"/>
</a>
</g>
</g>
<!-- Node8 -->
<g id="Node000008" class="node">
<title>Node8</title>
<g id="a_Node000008"><a xlink:href="class_ogre_1_1_compositor_pass_mipmap_def.html" target="_top" xlink:title=" ">
<polygon fill="white" stroke="#666666" points="532,-301.5 351,-301.5 351,-282.5 532,-282.5 532,-301.5"/>
<text text-anchor="middle" x="441.5" y="-289.5" font-family="Helvetica,sans-Serif" font-size="10.00">Ogre::CompositorPassMipmapDef</text>
</a>
</g>
</g>
<!-- Node1&#45;&gt;Node8 -->
<g id="edge7_Node000001_Node000008" class="edge">
<title>Node1&#45;&gt;Node8</title>
<g id="a_edge7_Node000001_Node000008"><a xlink:title=" ">
<path fill="none" stroke="#63b8ff" d="M300.63,-266.38C328.71,-271.52 361.52,-277.53 388.31,-282.44"/>
<polygon fill="#63b8ff" stroke="#63b8ff" points="300.99,-262.89 290.52,-264.53 299.73,-269.77 300.99,-262.89"/>
</a>
</g>
</g>
<!-- Node9 -->
<g id="Node000009" class="node">
<title>Node9</title>
<g id="a_Node000009"><a xlink:href="class_ogre_1_1_compositor_pass_quad_def.html" target="_top" xlink:title=" ">
<polygon fill="white" stroke="#666666" points="525,-264.5 358,-264.5 358,-245.5 525,-245.5 525,-264.5"/>
<text text-anchor="middle" x="441.5" y="-252.5" font-family="Helvetica,sans-Serif" font-size="10.00">Ogre::CompositorPassQuadDef</text>
</a>
</g>
</g>
<!-- Node1&#45;&gt;Node9 -->
<g id="edge8_Node000001_Node000009" class="edge">
<title>Node1&#45;&gt;Node9</title>
<g id="a_edge8_Node000001_Node000009"><a xlink:title=" ">
<path fill="none" stroke="#63b8ff" d="M318.34,-255C331.37,-255 344.88,-255 357.97,-255"/>
<polygon fill="#63b8ff" stroke="#63b8ff" points="318.02,-251.5 308.02,-255 318.02,-258.5 318.02,-251.5"/>
</a>
</g>
</g>
<!-- Node10 -->
<g id="Node000010" class="node">
<title>Node10</title>
<g id="a_Node000010"><a xlink:href="class_ogre_1_1_compositor_pass_scene_def.html" target="_top" xlink:title=" ">
<polygon fill="white" stroke="#666666" points="526.5,-227.5 356.5,-227.5 356.5,-208.5 526.5,-208.5 526.5,-227.5"/>
<text text-anchor="middle" x="441.5" y="-215.5" font-family="Helvetica,sans-Serif" font-size="10.00">Ogre::CompositorPassSceneDef</text>
</a>
</g>
</g>
<!-- Node1&#45;&gt;Node10 -->
<g id="edge9_Node000001_Node000010" class="edge">
<title>Node1&#45;&gt;Node10</title>
<g id="a_edge9_Node000001_Node000010"><a xlink:title=" ">
<path fill="none" stroke="#63b8ff" d="M300.63,-243.62C328.71,-238.48 361.52,-232.47 388.31,-227.56"/>
<polygon fill="#63b8ff" stroke="#63b8ff" points="299.73,-240.23 290.52,-245.47 300.99,-247.11 299.73,-240.23"/>
</a>
</g>
</g>
<!-- Node11 -->
<g id="Node000011" class="node">
<title>Node11</title>
<g id="a_Node000011"><a xlink:href="class_ogre_1_1_compositor_pass_shadows_def.html" target="_top" xlink:title=" ">
<polygon fill="white" stroke="#666666" points="534,-190.5 349,-190.5 349,-171.5 534,-171.5 534,-190.5"/>
<text text-anchor="middle" x="441.5" y="-178.5" font-family="Helvetica,sans-Serif" font-size="10.00">Ogre::CompositorPassShadowsDef</text>
</a>
</g>
</g>
<!-- Node1&#45;&gt;Node11 -->
<g id="edge10_Node000001_Node000011" class="edge">
<title>Node1&#45;&gt;Node11</title>
<g id="a_edge10_Node000001_Node000011"><a xlink:title=" ">
<path fill="none" stroke="#63b8ff" d="M261.96,-239.87C282.73,-227.13 314.29,-209.38 344,-199 353.73,-195.6 364.26,-192.8 374.65,-190.51"/>
<polygon fill="#63b8ff" stroke="#63b8ff" points="259.84,-237.06 253.21,-245.32 263.55,-243 259.84,-237.06"/>
</a>
</g>
</g>
<!-- Node12 -->
<g id="Node000012" class="node">
<title>Node12</title>
<g id="a_Node000012"><a xlink:href="class_ogre_1_1_compositor_pass_stencil_def.html" target="_top" xlink:title=" ">
<polygon fill="white" stroke="#666666" points="528.5,-153.5 354.5,-153.5 354.5,-134.5 528.5,-134.5 528.5,-153.5"/>
<text text-anchor="middle" x="441.5" y="-141.5" font-family="Helvetica,sans-Serif" font-size="10.00">Ogre::CompositorPassStencilDef</text>
</a>
</g>
</g>
<!-- Node1&#45;&gt;Node12 -->
<g id="edge11_Node000001_Node000012" class="edge">
<title>Node1&#45;&gt;Node12</title>
<g id="a_edge11_Node000001_Node000012"><a xlink:title=" ">
<path fill="none" stroke="#63b8ff" d="M252.88,-237.53C271.54,-216.12 306.22,-180.41 344,-162 351.05,-158.57 358.68,-155.78 366.45,-153.53"/>
<polygon fill="#63b8ff" stroke="#63b8ff" points="250.14,-235.35 246.33,-245.23 255.47,-239.88 250.14,-235.35"/>
</a>
</g>
</g>
<!-- Node13 -->
<g id="Node000013" class="node">
<title>Node13</title>
<g id="a_Node000013"><a xlink:href="class_ogre_1_1_compositor_pass_target_barrier_def.html" target="_top" xlink:title=" ">
<polygon fill="white" stroke="#666666" points="518.5,-116 364.5,-116 364.5,-86 518.5,-86 518.5,-116"/>
<text text-anchor="start" x="372.5" y="-104" font-family="Helvetica,sans-Serif" font-size="10.00">Ogre::CompositorPassTarget</text>
<text text-anchor="middle" x="441.5" y="-93" font-family="Helvetica,sans-Serif" font-size="10.00">BarrierDef</text>
</a>
</g>
</g>
<!-- Node1&#45;&gt;Node13 -->
<g id="edge12_Node000001_Node000013" class="edge">
<title>Node1&#45;&gt;Node13</title>
<g id="a_edge12_Node000001_Node000013"><a xlink:title=" ">
<path fill="none" stroke="#63b8ff" d="M248.29,-236.46C264.35,-207.93 299.02,-153.6 344,-125 350.26,-121.02 357.15,-117.69 364.26,-114.92"/>
<polygon fill="#63b8ff" stroke="#63b8ff" points="245.14,-234.93 243.41,-245.38 251.28,-238.29 245.14,-234.93"/>
</a>
</g>
</g>
<!-- Node14 -->
<g id="Node000014" class="node">
<title>Node14</title>
<g id="a_Node000014"><a xlink:href="class_ogre_1_1_compositor_pass_uav_def.html" target="_top" xlink:title=" ">
<polygon fill="white" stroke="#666666" points="522,-67.5 361,-67.5 361,-48.5 522,-48.5 522,-67.5"/>
<text text-anchor="middle" x="441.5" y="-55.5" font-family="Helvetica,sans-Serif" font-size="10.00">Ogre::CompositorPassUavDef</text>
</a>
</g>
</g>
<!-- Node1&#45;&gt;Node14 -->
<g id="edge13_Node000001_Node000014" class="edge">
<title>Node1&#45;&gt;Node14</title>
<g id="a_edge13_Node000001_Node000014"><a xlink:title=" ">
<path fill="none" stroke="#63b8ff" d="M244.08,-235.73C255.89,-198.59 287.12,-117.18 344,-77 349.44,-73.16 355.46,-70.04 361.76,-67.53"/>
<polygon fill="#63b8ff" stroke="#63b8ff" points="240.71,-234.77 241.14,-245.36 247.41,-236.81 240.71,-234.77"/>
</a>
</g>
</g>
<!-- Node15 -->
<g id="Node000015" class="node">
<title>Node15</title>
<g id="a_Node000015"><a xlink:href="class_ogre_1_1_compositor_pass_warm_up_def.html" target="_top" xlink:title=" ">
<polygon fill="white" stroke="#666666" points="517.5,-30 365.5,-30 365.5,0 517.5,0 517.5,-30"/>
<text text-anchor="start" x="373.5" y="-18" font-family="Helvetica,sans-Serif" font-size="10.00">Ogre::CompositorPassWarm</text>
<text text-anchor="middle" x="441.5" y="-7" font-family="Helvetica,sans-Serif" font-size="10.00">UpDef</text>
</a>
</g>
</g>
<!-- Node1&#45;&gt;Node15 -->
<g id="edge14_Node000001_Node000015" class="edge">
<title>Node1&#45;&gt;Node15</title>
<g id="a_edge14_Node000001_Node000015"><a xlink:title=" ">
<path fill="none" stroke="#63b8ff" d="M242.23,-235.54C251.44,-192.98 279.36,-91.28 344,-39 350.31,-33.9 357.55,-29.86 365.18,-26.67"/>
<polygon fill="#63b8ff" stroke="#63b8ff" points="238.78,-234.95 240.2,-245.45 245.63,-236.36 238.78,-234.95"/>
</a>
</g>
</g>
<!-- Node2 -->
<g id="Node000002" class="node">
<title>Node2</title>
<g id="a_Node000002"><a xlink:title=" ">
<polygon fill="white" stroke="#666666" points="131,-264.5 0,-264.5 0,-245.5 131,-245.5 131,-264.5"/>
<text text-anchor="middle" x="65.5" y="-252.5" font-family="Helvetica,sans-Serif" font-size="10.00">Ogre::OgreAllocatedObj</text>
</a>
</g>
</g>
<!-- Node2&#45;&gt;Node1 -->
<g id="edge1_Node000001_Node000002" class="edge">
<title>Node2&#45;&gt;Node1</title>
<g id="a_edge1_Node000001_Node000002"><a xlink:title=" ">
<path fill="none" stroke="#63b8ff" d="M141.46,-255C149.89,-255 158.46,-255 166.83,-255"/>
<polygon fill="#63b8ff" stroke="#63b8ff" points="141.25,-251.5 131.25,-255 141.25,-258.5 141.25,-251.5"/>
</a>
</g>
</g>
</g>
</svg>
