<?xml version="1.0" encoding="UTF-8" standalone="no"?>
<!DOCTYPE svg PUBLIC "-//W3C//DTD SVG 1.1//EN"
 "http://www.w3.org/Graphics/SVG/1.1/DTD/svg11.dtd">
<!-- Generated by graphviz version 2.43.0 (0)
 -->
<!-- Title: Ogre::ConstBufferPacked Pages: 1 -->
<svg width="679pt" height="224pt"
 viewBox="0.00 0.00 679.00 224.00" xmlns="http://www.w3.org/2000/svg" xmlns:xlink="http://www.w3.org/1999/xlink">
<g id="graph0" class="graph" transform="scale(1 1) rotate(0) translate(4 220)">
<title>Ogre::ConstBufferPacked</title>
<!-- Node1 -->
<g id="Node000001" class="node">
<title>Node1</title>
<g id="a_Node000001"><a xlink:title="Represents constant buffers (also known as Uniform Buffers in GL)">
<polygon fill="#999999" stroke="#666666" points="465,-111 328,-111 328,-92 465,-92 465,-111"/>
<text text-anchor="middle" x="396.5" y="-99" font-family="Helvetica,sans-Serif" font-size="10.00">Ogre::ConstBufferPacked</text>
</a>
</g>
</g>
<!-- Node5 -->
<g id="Node000005" class="node">
<title>Node5</title>
<g id="a_Node000005"><a xlink:href="class_ogre_1_1_d3_d11_const_buffer_packed.html" target="_top" xlink:title=" ">
<polygon fill="white" stroke="#666666" points="671,-216 501,-216 501,-197 671,-197 671,-216"/>
<text text-anchor="middle" x="586" y="-204" font-family="Helvetica,sans-Serif" font-size="10.00">Ogre::D3D11ConstBufferPacked</text>
</a>
</g>
</g>
<!-- Node1&#45;&gt;Node5 -->
<g id="edge4_Node000001_Node000005" class="edge">
<title>Node1&#45;&gt;Node5</title>
<g id="a_edge4_Node000001_Node000005"><a xlink:title=" ">
<path fill="none" stroke="#63b8ff" d="M413.05,-118.59C431.92,-138.25 465.64,-170.07 501,-187.5 508.91,-191.4 517.64,-194.51 526.39,-196.99"/>
<polygon fill="#63b8ff" stroke="#63b8ff" points="415.53,-116.11 406.13,-111.22 410.42,-120.9 415.53,-116.11"/>
</a>
</g>
</g>
<!-- Node6 -->
<g id="Node000006" class="node">
<title>Node6</title>
<g id="a_Node000006"><a xlink:href="class_ogre_1_1_g_l3_plus_const_buffer_packed.html" target="_top" xlink:title=" ">
<polygon fill="white" stroke="#666666" points="657,-178.5 515,-178.5 515,-148.5 657,-148.5 657,-178.5"/>
<text text-anchor="start" x="523" y="-166.5" font-family="Helvetica,sans-Serif" font-size="10.00">Ogre::GL3PlusConstBuffer</text>
<text text-anchor="middle" x="586" y="-155.5" font-family="Helvetica,sans-Serif" font-size="10.00">Packed</text>
</a>
</g>
</g>
<!-- Node1&#45;&gt;Node6 -->
<g id="edge5_Node000001_Node000006" class="edge">
<title>Node1&#45;&gt;Node6</title>
<g id="a_edge5_Node000001_Node000006"><a xlink:title=" ">
<path fill="none" stroke="#63b8ff" d="M431.35,-114.64C451.46,-122.27 477.54,-131.85 501,-139.5 510.37,-142.56 520.4,-145.61 530.15,-148.46"/>
<polygon fill="#63b8ff" stroke="#63b8ff" points="432.59,-111.37 422,-111.07 430.09,-117.91 432.59,-111.37"/>
</a>
</g>
</g>
<!-- Node7 -->
<g id="Node000007" class="node">
<title>Node7</title>
<g id="a_Node000007"><a xlink:href="class_ogre_1_1_g_l_e_s2_const_buffer_packed.html" target="_top" xlink:title=" ">
<polygon fill="white" stroke="#666666" points="669.5,-130 502.5,-130 502.5,-111 669.5,-111 669.5,-130"/>
<text text-anchor="middle" x="586" y="-118" font-family="Helvetica,sans-Serif" font-size="10.00">Ogre::GLES2ConstBufferPacked</text>
</a>
</g>
</g>
<!-- Node1&#45;&gt;Node7 -->
<g id="edge6_Node000001_Node000007" class="edge">
<title>Node1&#45;&gt;Node7</title>
<g id="a_edge6_Node000001_Node000007"><a xlink:title=" ">
<path fill="none" stroke="#63b8ff" d="M475.21,-109.37C484.17,-110.28 493.34,-111.21 502.37,-112.13"/>
<polygon fill="#63b8ff" stroke="#63b8ff" points="475.49,-105.89 465.19,-108.36 474.79,-112.85 475.49,-105.89"/>
</a>
</g>
</g>
<!-- Node8 -->
<g id="Node000008" class="node">
<title>Node8</title>
<g id="a_Node000008"><a xlink:href="class_ogre_1_1_metal_const_buffer_packed.html" target="_top" xlink:title=" ">
<polygon fill="white" stroke="#666666" points="668,-93 504,-93 504,-74 668,-74 668,-93"/>
<text text-anchor="middle" x="586" y="-81" font-family="Helvetica,sans-Serif" font-size="10.00">Ogre::MetalConstBufferPacked</text>
</a>
</g>
</g>
<!-- Node1&#45;&gt;Node8 -->
<g id="edge7_Node000001_Node000008" class="edge">
<title>Node1&#45;&gt;Node8</title>
<g id="a_edge7_Node000001_Node000008"><a xlink:title=" ">
<path fill="none" stroke="#63b8ff" d="M475.35,-94.03C484.8,-93.12 494.48,-92.19 503.99,-91.28"/>
<polygon fill="#63b8ff" stroke="#63b8ff" points="474.81,-90.56 465.19,-95 475.48,-97.53 474.81,-90.56"/>
</a>
</g>
</g>
<!-- Node9 -->
<g id="Node000009" class="node">
<title>Node9</title>
<g id="a_Node000009"><a xlink:href="class_ogre_1_1_n_u_l_l_const_buffer_packed.html" target="_top" xlink:title=" ">
<polygon fill="white" stroke="#666666" points="667,-56 505,-56 505,-37 667,-37 667,-56"/>
<text text-anchor="middle" x="586" y="-44" font-family="Helvetica,sans-Serif" font-size="10.00">Ogre::NULLConstBufferPacked</text>
</a>
</g>
</g>
<!-- Node1&#45;&gt;Node9 -->
<g id="edge8_Node000001_Node000009" class="edge">
<title>Node1&#45;&gt;Node9</title>
<g id="a_edge8_Node000001_Node000009"><a xlink:title=" ">
<path fill="none" stroke="#63b8ff" d="M430.81,-88.33C450.92,-80.69 477.18,-71.28 501,-64.5 511.9,-61.4 523.73,-58.55 534.98,-56.08"/>
<polygon fill="#63b8ff" stroke="#63b8ff" points="429.55,-85.06 421.46,-91.91 432.05,-91.6 429.55,-85.06"/>
</a>
</g>
</g>
<!-- Node10 -->
<g id="Node000010" class="node">
<title>Node10</title>
<g id="a_Node000010"><a xlink:href="class_ogre_1_1_vulkan_const_buffer_packed.html" target="_top" xlink:title=" ">
<polygon fill="white" stroke="#666666" points="670.5,-19 501.5,-19 501.5,0 670.5,0 670.5,-19"/>
<text text-anchor="middle" x="586" y="-7" font-family="Helvetica,sans-Serif" font-size="10.00">Ogre::VulkanConstBufferPacked</text>
</a>
</g>
</g>
<!-- Node1&#45;&gt;Node10 -->
<g id="edge9_Node000001_Node000010" class="edge">
<title>Node1&#45;&gt;Node10</title>
<g id="a_edge9_Node000001_Node000010"><a xlink:title=" ">
<path fill="none" stroke="#63b8ff" d="M415.29,-85.25C434.86,-68.27 467.94,-42.1 501,-27.5 508.64,-24.13 516.96,-21.37 525.29,-19.11"/>
<polygon fill="#63b8ff" stroke="#63b8ff" points="412.94,-82.66 407.77,-91.91 417.58,-87.9 412.94,-82.66"/>
</a>
</g>
</g>
<!-- Node2 -->
<g id="Node000002" class="node">
<title>Node2</title>
<g id="a_Node000002"><a xlink:href="class_ogre_1_1_buffer_packed.html" target="_top" xlink:title=" ">
<polygon fill="white" stroke="#666666" points="292,-111 183,-111 183,-92 292,-92 292,-111"/>
<text text-anchor="middle" x="237.5" y="-99" font-family="Helvetica,sans-Serif" font-size="10.00">Ogre::BufferPacked</text>
</a>
</g>
</g>
<!-- Node2&#45;&gt;Node1 -->
<g id="edge1_Node000001_Node000002" class="edge">
<title>Node2&#45;&gt;Node1</title>
<g id="a_edge1_Node000001_Node000002"><a xlink:title=" ">
<path fill="none" stroke="#63b8ff" d="M302.28,-101.5C310.75,-101.5 319.46,-101.5 327.99,-101.5"/>
<polygon fill="#63b8ff" stroke="#63b8ff" points="302.09,-98 292.09,-101.5 302.09,-105 302.09,-98"/>
</a>
</g>
</g>
<!-- Node3 -->
<g id="Node000003" class="node">
<title>Node3</title>
<g id="a_Node000003"><a xlink:href="struct_ogre_1_1_gpu_tracked_resource.html" target="_top" xlink:title=" ">
<polygon fill="white" stroke="#666666" points="147,-130 0,-130 0,-111 147,-111 147,-130"/>
<text text-anchor="middle" x="73.5" y="-118" font-family="Helvetica,sans-Serif" font-size="10.00">Ogre::GpuTrackedResource</text>
</a>
</g>
</g>
<!-- Node3&#45;&gt;Node2 -->
<g id="edge2_Node000002_Node000003" class="edge">
<title>Node3&#45;&gt;Node2</title>
<g id="a_edge2_Node000002_Node000003"><a xlink:title=" ">
<path fill="none" stroke="#63b8ff" d="M157.54,-110.76C166.15,-109.75 174.72,-108.75 182.88,-107.79"/>
<polygon fill="#63b8ff" stroke="#63b8ff" points="156.97,-107.3 147.44,-111.94 157.78,-114.26 156.97,-107.3"/>
</a>
</g>
</g>
<!-- Node4 -->
<g id="Node000004" class="node">
<title>Node4</title>
<g id="a_Node000004"><a xlink:title=" ">
<polygon fill="white" stroke="#666666" points="139,-93 8,-93 8,-74 139,-74 139,-93"/>
<text text-anchor="middle" x="73.5" y="-81" font-family="Helvetica,sans-Serif" font-size="10.00">Ogre::OgreAllocatedObj</text>
</a>
</g>
</g>
<!-- Node4&#45;&gt;Node2 -->
<g id="edge3_Node000002_Node000004" class="edge">
<title>Node4&#45;&gt;Node2</title>
<g id="a_edge3_Node000002_Node000004"><a xlink:title=" ">
<path fill="none" stroke="#63b8ff" d="M149.7,-91.86C160.93,-93.1 172.3,-94.37 182.96,-95.55"/>
<polygon fill="#63b8ff" stroke="#63b8ff" points="149.78,-88.34 139.46,-90.72 149.01,-95.3 149.78,-88.34"/>
</a>
</g>
</g>
</g>
</svg>
