<?xml version="1.0" encoding="UTF-8" standalone="no"?>
<!DOCTYPE svg PUBLIC "-//W3C//DTD SVG 1.1//EN"
 "http://www.w3.org/Graphics/SVG/1.1/DTD/svg11.dtd">
<!-- Generated by graphviz version 7.0.5 (20221223.1930)
 -->
<!-- Title: Ogre::GpuProgram Pages: 1 -->
<svg width="726pt" height="187pt"
 viewBox="0.00 0.00 726.00 187.00" xmlns="http://www.w3.org/2000/svg" xmlns:xlink="http://www.w3.org/1999/xlink">
<g id="graph0" class="graph" transform="scale(1 1) rotate(0) translate(4 183)">
<title>Ogre::GpuProgram</title>
<!-- Node1 -->
<g id="node1" class="node">
<title>Node1</title>
<g id="a_node1"><a xlink:title="Defines a program which runs on the GPU such as a vertex or fragment program.">
<polygon fill="#999999" stroke="#666666" points="371,-105 274,-105 274,-86 371,-86 371,-105"/>
<text text-anchor="middle" x="322.5" y="-93" font-family="Helvetica,sans-Serif" font-size="10.00">Ogre::GpuProgram</text>
</a>
</g>
</g>
<!-- Node5 -->
<g id="node5" class="node">
<title>Node5</title>
<g id="a_node5"><a xlink:href="class_ogre_1_1_high_level_gpu_program.html" target="_top" xlink:title="Abstract base class representing a high&#45;level program (a vertex or fragment program).">
<polygon fill="white" stroke="#666666" points="548,-105 407,-105 407,-86 548,-86 548,-105"/>
<text text-anchor="middle" x="477.5" y="-93" font-family="Helvetica,sans-Serif" font-size="10.00">Ogre::HighLevelGpuProgram</text>
</a>
</g>
</g>
<!-- Node1&#45;&gt;Node5 -->
<g id="edge4" class="edge">
<title>Node1&#45;&gt;Node5</title>
<path fill="none" stroke="#63b8ff" d="M382.98,-95.5C390.71,-95.5 398.67,-95.5 406.55,-95.5"/>
<polygon fill="#63b8ff" stroke="#63b8ff" points="383,-92 373,-95.5 383,-99 383,-92"/>
</g>
<!-- Node2 -->
<g id="node2" class="node">
<title>Node2</title>
<g id="a_node2"><a xlink:href="class_ogre_1_1_resource.html" target="_top" xlink:title="Abstract class representing a loadable resource (e.g.">
<polygon fill="white" stroke="#666666" points="238,-105 155,-105 155,-86 238,-86 238,-105"/>
<text text-anchor="middle" x="196.5" y="-93" font-family="Helvetica,sans-Serif" font-size="10.00">Ogre::Resource</text>
</a>
</g>
</g>
<!-- Node2&#45;&gt;Node1 -->
<g id="edge1" class="edge">
<title>Node2&#45;&gt;Node1</title>
<path fill="none" stroke="#63b8ff" d="M249.84,-95.5C257.76,-95.5 265.89,-95.5 273.71,-95.5"/>
<polygon fill="#63b8ff" stroke="#63b8ff" points="249.96,-92 239.96,-95.5 249.96,-99 249.96,-92"/>
</g>
<!-- Node3 -->
<g id="node3" class="node">
<title>Node3</title>
<g id="a_node3"><a xlink:href="class_ogre_1_1_string_interface.html" target="_top" xlink:title="Class defining the common interface which classes can use to present a reflection&#45;style,...">
<polygon fill="white" stroke="#666666" points="112.5,-124 6.5,-124 6.5,-105 112.5,-105 112.5,-124"/>
<text text-anchor="middle" x="59.5" y="-112" font-family="Helvetica,sans-Serif" font-size="10.00">Ogre::StringInterface</text>
</a>
</g>
</g>
<!-- Node3&#45;&gt;Node2 -->
<g id="edge2" class="edge">
<title>Node3&#45;&gt;Node2</title>
<path fill="none" stroke="#63b8ff" d="M123.96,-105.57C134.43,-104.1 145.03,-102.6 154.75,-101.24"/>
<polygon fill="#63b8ff" stroke="#63b8ff" points="123.61,-102.08 114.19,-106.94 124.58,-109.02 123.61,-102.08"/>
</g>
<!-- Node4 -->
<g id="node4" class="node">
<title>Node4</title>
<g id="a_node4"><a xlink:title=" ">
<polygon fill="white" stroke="#666666" points="119,-87 0,-87 0,-68 119,-68 119,-87"/>
<text text-anchor="middle" x="59.5" y="-75" font-family="Helvetica,sans-Serif" font-size="10.00">Ogre::OgreAllocatedObj</text>
</a>
</g>
</g>
<!-- Node4&#45;&gt;Node2 -->
<g id="edge3" class="edge">
<title>Node4&#45;&gt;Node2</title>
<path fill="none" stroke="#63b8ff" d="M130.57,-86.84C138.84,-87.94 147.05,-89.04 154.71,-90.06"/>
<polygon fill="#63b8ff" stroke="#63b8ff" points="131.2,-83.4 120.82,-85.54 130.27,-90.33 131.2,-83.4"/>
</g>
<!-- Node6 -->
<g id="node6" class="node">
<title>Node6</title>
<g id="a_node6"><a xlink:href="class_ogre_1_1_d3_d11_h_l_s_l_program.html" target="_top" xlink:title="Specialization of HighLevelGpuProgram to provide support for D3D11 High&#45;Level Shader Language (HLSL).">
<polygon fill="white" stroke="#666666" points="718,-179 584,-179 584,-160 718,-160 718,-179"/>
<text text-anchor="middle" x="651" y="-167" font-family="Helvetica,sans-Serif" font-size="10.00">Ogre::D3D11HLSLProgram</text>
</a>
</g>
</g>
<!-- Node5&#45;&gt;Node6 -->
<g id="edge5" class="edge">
<title>Node5&#45;&gt;Node6</title>
<path fill="none" stroke="#63b8ff" d="M504.12,-111.17C525.02,-123.44 555.63,-140.26 584,-151.5 591.62,-154.52 599.93,-157.22 608,-159.55"/>
<polygon fill="#63b8ff" stroke="#63b8ff" points="506.09,-108.27 495.71,-106.16 502.51,-114.29 506.09,-108.27"/>
</g>
<!-- Node7 -->
<g id="node7" class="node">
<title>Node7</title>
<g id="a_node7"><a xlink:href="class_ogre_1_1_g_l_s_l_shader.html" target="_top" xlink:title="Specialisation of HighLevelGpuProgram to encapsulate shader objects obtained from compiled shaders wr...">
<polygon fill="white" stroke="#666666" points="700.5,-142 601.5,-142 601.5,-123 700.5,-123 700.5,-142"/>
<text text-anchor="middle" x="651" y="-130" font-family="Helvetica,sans-Serif" font-size="10.00">Ogre::GLSLShader</text>
</a>
</g>
</g>
<!-- Node5&#45;&gt;Node7 -->
<g id="edge6" class="edge">
<title>Node5&#45;&gt;Node7</title>
<path fill="none" stroke="#63b8ff" d="M535.45,-107.79C557.68,-112.58 582.85,-118.01 603.91,-122.56"/>
<polygon fill="#63b8ff" stroke="#63b8ff" points="536.45,-104.42 525.94,-105.73 534.98,-111.26 536.45,-104.42"/>
</g>
<!-- Node8 -->
<g id="node8" class="node">
<title>Node8</title>
<g id="a_node8"><a xlink:href="class_ogre_1_1_metal_program.html" target="_top" xlink:title="Specialisation of HighLevelGpuProgram to provide support for Metal Shader Language.">
<polygon fill="white" stroke="#666666" points="702.5,-105 599.5,-105 599.5,-86 702.5,-86 702.5,-105"/>
<text text-anchor="middle" x="651" y="-93" font-family="Helvetica,sans-Serif" font-size="10.00">Ogre::MetalProgram</text>
</a>
</g>
</g>
<!-- Node5&#45;&gt;Node8 -->
<g id="edge7" class="edge">
<title>Node5&#45;&gt;Node8</title>
<path fill="none" stroke="#63b8ff" d="M559.55,-95.5C573.07,-95.5 586.75,-95.5 599.24,-95.5"/>
<polygon fill="#63b8ff" stroke="#63b8ff" points="559.77,-92 549.77,-95.5 559.77,-99 559.77,-92"/>
</g>
<!-- Node9 -->
<g id="node9" class="node">
<title>Node9</title>
<g id="a_node9"><a xlink:href="class_ogre_1_1_unified_high_level_gpu_program.html" target="_top" xlink:title="Specialisation of HighLevelGpuProgram which just delegates its implementation to one other high level...">
<polygon fill="white" stroke="#666666" points="718,-67.5 584,-67.5 584,-37.5 718,-37.5 718,-67.5"/>
<text text-anchor="start" x="592" y="-55.5" font-family="Helvetica,sans-Serif" font-size="10.00">Ogre::UnifiedHighLevelGpu</text>
<text text-anchor="middle" x="651" y="-44.5" font-family="Helvetica,sans-Serif" font-size="10.00">Program</text>
</a>
</g>
</g>
<!-- Node5&#45;&gt;Node9 -->
<g id="edge8" class="edge">
<title>Node5&#45;&gt;Node9</title>
<path fill="none" stroke="#63b8ff" d="M529.41,-82.74C547.88,-78.1 568.96,-72.82 588.27,-67.98"/>
<polygon fill="#63b8ff" stroke="#63b8ff" points="528.59,-79.33 519.74,-85.16 530.3,-86.12 528.59,-79.33"/>
</g>
<!-- Node10 -->
<g id="node10" class="node">
<title>Node10</title>
<g id="a_node10"><a xlink:href="class_ogre_1_1_vulkan_program.html" target="_top" xlink:title="Specialisation of HighLevelGpuProgram to provide support for Vulkan Shader Language.">
<polygon fill="white" stroke="#666666" points="705.5,-19 596.5,-19 596.5,0 705.5,0 705.5,-19"/>
<text text-anchor="middle" x="651" y="-7" font-family="Helvetica,sans-Serif" font-size="10.00">Ogre::VulkanProgram</text>
</a>
</g>
</g>
<!-- Node5&#45;&gt;Node10 -->
<g id="edge9" class="edge">
<title>Node5&#45;&gt;Node10</title>
<path fill="none" stroke="#63b8ff" d="M500.61,-78.8C521.26,-63.87 553.4,-42.28 584,-28.5 591.72,-25.02 600.23,-22.02 608.51,-19.48"/>
<polygon fill="#63b8ff" stroke="#63b8ff" points="498.66,-75.89 492.68,-84.63 502.81,-81.53 498.66,-75.89"/>
</g>
</g>
</svg>
