<?xml version="1.0" encoding="UTF-8" standalone="no"?>
<!DOCTYPE svg PUBLIC "-//W3C//DTD SVG 1.1//EN"
 "http://www.w3.org/Graphics/SVG/1.1/DTD/svg11.dtd">
<!-- Generated by graphviz version 7.0.5 (20221223.1930)
 -->
<!-- Title: Ogre::ResourceManager::ResourcePool Pages: 1 -->
<svg width="278pt" height="93pt"
 viewBox="0.00 0.00 277.50 93.00" xmlns="http://www.w3.org/2000/svg" xmlns:xlink="http://www.w3.org/1999/xlink">
<g id="graph0" class="graph" transform="scale(1 1) rotate(0) translate(4 89)">
<title>Ogre::ResourceManager::ResourcePool</title>
<!-- Node1 -->
<g id="node1" class="node">
<title>Node1</title>
<g id="a_node1"><a xlink:title="Definition of a pool of resources, which users can use to reuse similar resources many times without ...">
<polygon fill="#999999" stroke="#666666" points="198.5,-30 77.5,-30 77.5,0 198.5,0 198.5,-30"/>
<text text-anchor="start" x="85.5" y="-18" font-family="Helvetica,sans-Serif" font-size="10.00">Ogre::ResourceManager</text>
<text text-anchor="middle" x="138" y="-7" font-family="Helvetica,sans-Serif" font-size="10.00">::ResourcePool</text>
</a>
</g>
</g>
<!-- Node2 -->
<g id="node2" class="node">
<title>Node2</title>
<g id="a_node2"><a xlink:href="class_ogre_1_1_pool.html" target="_top" xlink:title=" ">
<polygon fill="white" stroke="#666666" points="132,-85 0,-85 0,-66 132,-66 132,-85"/>
<text text-anchor="middle" x="66" y="-73" font-family="Helvetica,sans-Serif" font-size="10.00">Ogre::Pool&lt; ResourcePtr &gt;</text>
</a>
</g>
</g>
<!-- Node2&#45;&gt;Node1 -->
<g id="edge1" class="edge">
<title>Node2&#45;&gt;Node1</title>
<path fill="none" stroke="#63b8ff" d="M85.65,-58.53C96.45,-49.76 109.74,-38.96 120.23,-30.44"/>
<polygon fill="#63b8ff" stroke="#63b8ff" points="83.66,-55.64 78.11,-64.66 88.08,-61.07 83.66,-55.64"/>
</g>
<!-- Node3 -->
<g id="node3" class="node">
<title>Node3</title>
<g id="a_node3"><a xlink:title=" ">
<polygon fill="white" stroke="#666666" points="269.5,-85 150.5,-85 150.5,-66 269.5,-66 269.5,-85"/>
<text text-anchor="middle" x="210" y="-73" font-family="Helvetica,sans-Serif" font-size="10.00">Ogre::OgreAllocatedObj</text>
</a>
</g>
</g>
<!-- Node3&#45;&gt;Node1 -->
<g id="edge2" class="edge">
<title>Node3&#45;&gt;Node1</title>
<path fill="none" stroke="#63b8ff" d="M190.35,-58.53C179.55,-49.76 166.26,-38.96 155.77,-30.44"/>
<polygon fill="#63b8ff" stroke="#63b8ff" points="187.92,-61.07 197.89,-64.66 192.34,-55.64 187.92,-61.07"/>
</g>
</g>
</svg>
