<?xml version="1.0" encoding="UTF-8" standalone="no"?>
<!DOCTYPE svg PUBLIC "-//W3C//DTD SVG 1.1//EN"
 "http://www.w3.org/Graphics/SVG/1.1/DTD/svg11.dtd">
<!-- Generated by graphviz version 7.0.5 (20221223.1930)
 -->
<!-- Title: Ogre::ForwardClustered Pages: 1 -->
<svg width="282pt" height="137pt"
 viewBox="0.00 0.00 281.50 137.00" xmlns="http://www.w3.org/2000/svg" xmlns:xlink="http://www.w3.org/1999/xlink">
<g id="graph0" class="graph" transform="scale(1 1) rotate(0) translate(4 133)">
<title>Ogre::ForwardClustered</title>
<!-- Node1 -->
<g id="node1" class="node">
<title>Node1</title>
<g id="a_node1"><a xlink:title="Implementation of Clustered Forward Shading.">
<polygon fill="#999999" stroke="#666666" points="192,-19 73,-19 73,0 192,0 192,-19"/>
<text text-anchor="middle" x="132.5" y="-7" font-family="Helvetica,sans-Serif" font-size="10.00">Ogre::ForwardClustered</text>
</a>
</g>
</g>
<!-- Node2 -->
<g id="node2" class="node">
<title>Node2</title>
<g id="a_node2"><a xlink:href="class_ogre_1_1_forward_plus_base.html" target="_top" xlink:title="ForwardPlusBase.">
<polygon fill="white" stroke="#666666" points="119,-74 0,-74 0,-55 119,-55 119,-74"/>
<text text-anchor="middle" x="59.5" y="-62" font-family="Helvetica,sans-Serif" font-size="10.00">Ogre::ForwardPlusBase</text>
</a>
</g>
</g>
<!-- Node2&#45;&gt;Node1 -->
<g id="edge1" class="edge">
<title>Node2&#45;&gt;Node1</title>
<path fill="none" stroke="#63b8ff" d="M80.97,-47.92C93.78,-38.61 109.6,-27.13 120.3,-19.36"/>
<polygon fill="#63b8ff" stroke="#63b8ff" points="79.14,-44.91 73.11,-53.62 83.26,-50.58 79.14,-44.91"/>
</g>
<!-- Node3 -->
<g id="node3" class="node">
<title>Node3</title>
<g id="a_node3"><a xlink:title=" ">
<polygon fill="white" stroke="#666666" points="119,-129 0,-129 0,-110 119,-110 119,-129"/>
<text text-anchor="middle" x="59.5" y="-117" font-family="Helvetica,sans-Serif" font-size="10.00">Ogre::OgreAllocatedObj</text>
</a>
</g>
</g>
<!-- Node3&#45;&gt;Node2 -->
<g id="edge2" class="edge">
<title>Node3&#45;&gt;Node2</title>
<path fill="none" stroke="#63b8ff" d="M59.5,-98.35C59.5,-90.1 59.5,-80.97 59.5,-74.44"/>
<polygon fill="#63b8ff" stroke="#63b8ff" points="56,-98.23 59.5,-108.23 63,-98.23 56,-98.23"/>
</g>
<!-- Node4 -->
<g id="node4" class="node">
<title>Node4</title>
<g id="a_node4"><a xlink:href="class_ogre_1_1_uniform_scalable_task.html" target="_top" xlink:title="A uniform task is a highly parallelizable task that can be divided in many threads where all threads ...">
<polygon fill="white" stroke="#666666" points="273.5,-74 137.5,-74 137.5,-55 273.5,-55 273.5,-74"/>
<text text-anchor="middle" x="205.5" y="-62" font-family="Helvetica,sans-Serif" font-size="10.00">Ogre::UniformScalableTask</text>
</a>
</g>
</g>
<!-- Node4&#45;&gt;Node1 -->
<g id="edge3" class="edge">
<title>Node4&#45;&gt;Node1</title>
<path fill="none" stroke="#63b8ff" d="M184.03,-47.92C171.22,-38.61 155.4,-27.13 144.7,-19.36"/>
<polygon fill="#63b8ff" stroke="#63b8ff" points="181.74,-50.58 191.89,-53.62 185.86,-44.91 181.74,-50.58"/>
</g>
</g>
</svg>
