<?xml version="1.0" encoding="UTF-8" standalone="no"?>
<!DOCTYPE svg PUBLIC "-//W3C//DTD SVG 1.1//EN"
 "http://www.w3.org/Graphics/SVG/1.1/DTD/svg11.dtd">
<!-- Generated by graphviz version 2.43.0 (0)
 -->
<!-- Title: Ogre::ConfigDialog Pages: 1 -->
<svg width="139pt" height="82pt"
 viewBox="0.00 0.00 139.00 82.00" xmlns="http://www.w3.org/2000/svg" xmlns:xlink="http://www.w3.org/1999/xlink">
<g id="graph0" class="graph" transform="scale(1 1) rotate(0) translate(4 78)">
<title>Ogre::ConfigDialog</title>
<!-- Node1 -->
<g id="Node000001" class="node">
<title>Node1</title>
<g id="a_Node000001"><a xlink:title="Defines the behaviour of an automatic renderer configuration dialog.">
<polygon fill="#999999" stroke="#666666" points="119.5,-19 11.5,-19 11.5,0 119.5,0 119.5,-19"/>
<text text-anchor="middle" x="65.5" y="-7" font-family="Helvetica,sans-Serif" font-size="10.00">Ogre::ConfigDialog</text>
</a>
</g>
</g>
<!-- Node2 -->
<g id="Node000002" class="node">
<title>Node2</title>
<g id="a_Node000002"><a xlink:title=" ">
<polygon fill="white" stroke="#666666" points="131,-74 0,-74 0,-55 131,-55 131,-74"/>
<text text-anchor="middle" x="65.5" y="-62" font-family="Helvetica,sans-Serif" font-size="10.00">Ogre::OgreAllocatedObj</text>
</a>
</g>
</g>
<!-- Node2&#45;&gt;Node1 -->
<g id="edge1_Node000001_Node000002" class="edge">
<title>Node2&#45;&gt;Node1</title>
<g id="a_edge1_Node000001_Node000002"><a xlink:title=" ">
<path fill="none" stroke="#63b8ff" d="M22.1,-48.04C15.15,-38.64 17.6,-26.98 29.46,-19.17"/>
<polygon fill="#63b8ff" stroke="#63b8ff" points="19.95,-50.82 29.7,-54.98 24.68,-45.65 19.95,-50.82"/>
</a>
</g>
</g>
<!-- Node2&#45;&gt;Node1 -->
<g id="edge2_Node000001_Node000002" class="edge">
<title>Node2&#45;&gt;Node1</title>
<g id="a_edge2_Node000001_Node000002"><a xlink:title=" ">
<path fill="none" stroke="#63b8ff" d="M33.95,-46.92C29.69,-37.72 31.62,-26.67 39.76,-19.17"/>
<polygon fill="#63b8ff" stroke="#63b8ff" points="31.16,-49.04 39.93,-54.98 36.78,-44.87 31.16,-49.04"/>
</a>
</g>
</g>
<!-- Node2&#45;&gt;Node1 -->
<g id="edge3_Node000001_Node000002" class="edge">
<title>Node2&#45;&gt;Node1</title>
<g id="a_edge3_Node000001_Node000002"><a xlink:title=" ">
<path fill="none" stroke="#63b8ff" d="M46.15,-45.24C44.16,-36.37 45.48,-26.14 50.11,-19.09"/>
<polygon fill="#63b8ff" stroke="#63b8ff" points="43,-46.8 50,-54.75 49.49,-44.17 43,-46.8"/>
</a>
</g>
</g>
<!-- Node2&#45;&gt;Node1 -->
<g id="edge4_Node000001_Node000002" class="edge">
<title>Node2&#45;&gt;Node1</title>
<g id="a_edge4_Node000001_Node000002"><a xlink:title=" ">
<path fill="none" stroke="#63b8ff" d="M59.01,-44.66C58.41,-35.93 58.86,-25.99 60.37,-19.09"/>
<polygon fill="#63b8ff" stroke="#63b8ff" points="55.56,-45.29 60.33,-54.75 62.5,-44.38 55.56,-45.29"/>
</a>
</g>
</g>
<!-- Node2&#45;&gt;Node1 -->
<g id="edge5_Node000001_Node000002" class="edge">
<title>Node2&#45;&gt;Node1</title>
<g id="a_edge5_Node000001_Node000002"><a xlink:title=" ">
<path fill="none" stroke="#63b8ff" d="M71.99,-44.66C72.59,-35.93 72.14,-25.99 70.63,-19.09"/>
<polygon fill="#63b8ff" stroke="#63b8ff" points="68.5,-44.38 70.67,-54.75 75.44,-45.29 68.5,-44.38"/>
</a>
</g>
</g>
<!-- Node2&#45;&gt;Node1 -->
<g id="edge6_Node000001_Node000002" class="edge">
<title>Node2&#45;&gt;Node1</title>
<g id="a_edge6_Node000001_Node000002"><a xlink:title=" ">
<path fill="none" stroke="#63b8ff" d="M84.85,-45.24C86.84,-36.37 85.52,-26.14 80.89,-19.09"/>
<polygon fill="#63b8ff" stroke="#63b8ff" points="81.51,-44.17 81,-54.75 88,-46.8 81.51,-44.17"/>
</a>
</g>
</g>
<!-- Node2&#45;&gt;Node1 -->
<g id="edge7_Node000001_Node000002" class="edge">
<title>Node2&#45;&gt;Node1</title>
<g id="a_edge7_Node000001_Node000002"><a xlink:title=" ">
<path fill="none" stroke="#63b8ff" d="M97.05,-46.92C101.31,-37.72 99.38,-26.67 91.24,-19.17"/>
<polygon fill="#63b8ff" stroke="#63b8ff" points="94.22,-44.87 91.07,-54.98 99.84,-49.04 94.22,-44.87"/>
</a>
</g>
</g>
<!-- Node2&#45;&gt;Node1 -->
<g id="edge8_Node000001_Node000002" class="edge">
<title>Node2&#45;&gt;Node1</title>
<g id="a_edge8_Node000001_Node000002"><a xlink:title=" ">
<path fill="none" stroke="#63b8ff" d="M108.9,-48.04C115.85,-38.64 113.4,-26.98 101.54,-19.17"/>
<polygon fill="#63b8ff" stroke="#63b8ff" points="106.32,-45.65 101.3,-54.98 111.05,-50.82 106.32,-45.65"/>
</a>
</g>
</g>
</g>
</svg>
