<?xml version="1.0" encoding="UTF-8" standalone="no"?>
<!DOCTYPE svg PUBLIC "-//W3C//DTD SVG 1.1//EN"
 "http://www.w3.org/Graphics/SVG/1.1/DTD/svg11.dtd">
<!-- Generated by graphviz version 7.0.5 (20221223.1930)
 -->
<!-- Title: Ogre::v1::GL3PlusDefaultHardwareBufferManager Pages: 1 -->
<svg width="284pt" height="225pt"
 viewBox="0.00 0.00 284.00 225.00" xmlns="http://www.w3.org/2000/svg" xmlns:xlink="http://www.w3.org/1999/xlink">
<g id="graph0" class="graph" transform="scale(1 1) rotate(0) translate(4 221)">
<title>Ogre::v1::GL3PlusDefaultHardwareBufferManager</title>
<!-- Node1 -->
<g id="node1" class="node">
<title>Node1</title>
<g id="a_node1"><a xlink:title="GL3PlusDefaultHardwareBufferManagerBase as a Singleton.">
<polygon fill="#999999" stroke="#666666" points="198.5,-30 72.5,-30 72.5,0 198.5,0 198.5,-30"/>
<text text-anchor="start" x="80.5" y="-18" font-family="Helvetica,sans-Serif" font-size="10.00">Ogre::v1::GL3PlusDefault</text>
<text text-anchor="middle" x="135.5" y="-7" font-family="Helvetica,sans-Serif" font-size="10.00">HardwareBufferManager</text>
</a>
</g>
</g>
<!-- Node2 -->
<g id="node2" class="node">
<title>Node2</title>
<g id="a_node2"><a xlink:href="class_ogre_1_1v1_1_1_hardware_buffer_manager.html" target="_top" xlink:title="Singleton wrapper for hardware buffer manager.">
<polygon fill="white" stroke="#666666" points="198,-96 73,-96 73,-66 198,-66 198,-96"/>
<text text-anchor="start" x="81" y="-84" font-family="Helvetica,sans-Serif" font-size="10.00">Ogre::v1::HardwareBuffer</text>
<text text-anchor="middle" x="135.5" y="-73" font-family="Helvetica,sans-Serif" font-size="10.00">Manager</text>
</a>
</g>
</g>
<!-- Node2&#45;&gt;Node1 -->
<g id="edge1" class="edge">
<title>Node2&#45;&gt;Node1</title>
<path fill="none" stroke="#63b8ff" d="M135.5,-54.39C135.5,-46.13 135.5,-37.28 135.5,-30.16"/>
<polygon fill="#63b8ff" stroke="#63b8ff" points="132,-54.28 135.5,-64.28 139,-54.28 132,-54.28"/>
</g>
<!-- Node3 -->
<g id="node3" class="node">
<title>Node3</title>
<g id="a_node3"><a xlink:href="class_ogre_1_1v1_1_1_hardware_buffer_manager_base.html" target="_top" xlink:title="Base definition of a hardware buffer manager.">
<polygon fill="white" stroke="#666666" points="125,-162 0,-162 0,-132 125,-132 125,-162"/>
<text text-anchor="start" x="8" y="-150" font-family="Helvetica,sans-Serif" font-size="10.00">Ogre::v1::HardwareBuffer</text>
<text text-anchor="middle" x="62.5" y="-139" font-family="Helvetica,sans-Serif" font-size="10.00">ManagerBase</text>
</a>
</g>
</g>
<!-- Node3&#45;&gt;Node2 -->
<g id="edge2" class="edge">
<title>Node3&#45;&gt;Node2</title>
<path fill="none" stroke="#63b8ff" d="M87.11,-124.42C97.65,-115.18 109.67,-104.65 119.09,-96.39"/>
<polygon fill="#63b8ff" stroke="#63b8ff" points="85.05,-121.57 79.84,-130.8 89.67,-126.84 85.05,-121.57"/>
</g>
<!-- Node4 -->
<g id="node4" class="node">
<title>Node4</title>
<g id="a_node4"><a xlink:title=" ">
<polygon fill="white" stroke="#666666" points="122,-217 3,-217 3,-198 122,-198 122,-217"/>
<text text-anchor="middle" x="62.5" y="-205" font-family="Helvetica,sans-Serif" font-size="10.00">Ogre::OgreAllocatedObj</text>
</a>
</g>
</g>
<!-- Node4&#45;&gt;Node3 -->
<g id="edge3" class="edge">
<title>Node4&#45;&gt;Node3</title>
<path fill="none" stroke="#63b8ff" d="M62.5,-186.51C62.5,-178.49 62.5,-169.43 62.5,-162.11"/>
<polygon fill="#63b8ff" stroke="#63b8ff" points="59,-186.35 62.5,-196.35 66,-186.35 59,-186.35"/>
</g>
<!-- Node5 -->
<g id="node5" class="node">
<title>Node5</title>
<g id="a_node5"><a xlink:href="class_ogre_1_1_singleton.html" target="_top" xlink:title=" ">
<polygon fill="white" stroke="#666666" points="276,-162 143,-162 143,-132 276,-132 276,-162"/>
<text text-anchor="start" x="151" y="-150" font-family="Helvetica,sans-Serif" font-size="10.00">Ogre::Singleton&lt; Hardware</text>
<text text-anchor="middle" x="209.5" y="-139" font-family="Helvetica,sans-Serif" font-size="10.00">BufferManager &gt;</text>
</a>
</g>
</g>
<!-- Node5&#45;&gt;Node2 -->
<g id="edge4" class="edge">
<title>Node5&#45;&gt;Node2</title>
<path fill="none" stroke="#63b8ff" d="M184.55,-124.42C173.87,-115.18 161.69,-104.65 152.13,-96.39"/>
<polygon fill="#63b8ff" stroke="#63b8ff" points="182.08,-126.91 191.93,-130.81 186.66,-121.62 182.08,-126.91"/>
</g>
</g>
</svg>
