<?xml version="1.0" encoding="UTF-8" standalone="no"?>
<!DOCTYPE svg PUBLIC "-//W3C//DTD SVG 1.1//EN"
 "http://www.w3.org/Graphics/SVG/1.1/DTD/svg11.dtd">
<!-- Generated by graphviz version 3.0.0 (20220413.0106)
 -->
<!-- Title: Ogre::MovableObjectFactory Pages: 1 -->
<svg width="462pt" height="546pt"
 viewBox="0.00 0.00 462.00 546.00" xmlns="http://www.w3.org/2000/svg" xmlns:xlink="http://www.w3.org/1999/xlink">
<g id="graph0" class="graph" transform="scale(1 1) rotate(0) translate(4 542)">
<title>Ogre::MovableObjectFactory</title>
<!-- Node1 -->
<g id="node1" class="node">
<title>Node1</title>
<g id="a_node1"><a xlink:title="Interface definition for a factory class which produces a certain kind of MovableObject,...">
<polygon fill="#bfbfbf" stroke="black" points="129,-259.5 129,-278.5 269,-278.5 269,-259.5 129,-259.5"/>
<text text-anchor="middle" x="199" y="-266.5" font-family="Helvetica,sans-Serif" font-size="10.00">Ogre::MovableObjectFactory</text>
</a>
</g>
</g>
<!-- Node3 -->
<g id="node3" class="node">
<title>Node3</title>
<g id="a_node3"><a xlink:href="class_ogre_1_1_decal_factory.html" target="_top" xlink:title=" ">
<polygon fill="none" stroke="black" points="330,-518.5 330,-537.5 429,-537.5 429,-518.5 330,-518.5"/>
<text text-anchor="middle" x="379.5" y="-525.5" font-family="Helvetica,sans-Serif" font-size="10.00">Ogre::DecalFactory</text>
</a>
</g>
</g>
<!-- Node1&#45;&gt;Node3 -->
<g id="edge2" class="edge">
<title>Node1&#45;&gt;Node3</title>
<path fill="none" stroke="midnightblue" d="M202.72,-288.65C210.15,-334.56 235.11,-449.45 305,-509 312.12,-515.07 320.95,-519.23 329.98,-522.08"/>
<polygon fill="midnightblue" stroke="midnightblue" points="206.15,-287.91 201.2,-278.54 199.23,-288.95 206.15,-287.91"/>
</g>
<!-- Node4 -->
<g id="node4" class="node">
<title>Node4</title>
<g id="a_node4"><a xlink:href="class_ogre_1_1_internal_cubemap_probe_factory.html" target="_top" xlink:title=" ">
<polygon fill="none" stroke="black" points="309,-469 309,-499 450,-499 450,-469 309,-469"/>
<text text-anchor="start" x="317" y="-487" font-family="Helvetica,sans-Serif" font-size="10.00">Ogre::InternalCubemapProbe</text>
<text text-anchor="middle" x="379.5" y="-476" font-family="Helvetica,sans-Serif" font-size="10.00">Factory</text>
</a>
</g>
</g>
<!-- Node1&#45;&gt;Node4 -->
<g id="edge3" class="edge">
<title>Node1&#45;&gt;Node4</title>
<path fill="none" stroke="midnightblue" d="M205.65,-288.86C217.59,-327.28 248.97,-412.1 305,-459 309.65,-462.89 314.94,-466.19 320.49,-468.98"/>
<polygon fill="midnightblue" stroke="midnightblue" points="208.9,-287.5 202.68,-278.92 202.19,-289.5 208.9,-287.5"/>
</g>
<!-- Node5 -->
<g id="node5" class="node">
<title>Node5</title>
<g id="a_node5"><a xlink:href="class_ogre_1_1_item_factory.html" target="_top" xlink:title="FItemy object for creating Item instances.">
<polygon fill="none" stroke="black" points="332.5,-430.5 332.5,-449.5 426.5,-449.5 426.5,-430.5 332.5,-430.5"/>
<text text-anchor="middle" x="379.5" y="-437.5" font-family="Helvetica,sans-Serif" font-size="10.00">Ogre::ItemFactory</text>
</a>
</g>
</g>
<!-- Node1&#45;&gt;Node5 -->
<g id="edge4" class="edge">
<title>Node1&#45;&gt;Node5</title>
<path fill="none" stroke="midnightblue" d="M207.69,-287.86C221.9,-320.27 255.41,-386.37 305,-421 313.1,-426.66 322.77,-430.63 332.38,-433.42"/>
<polygon fill="midnightblue" stroke="midnightblue" points="210.89,-286.44 203.76,-278.61 204.45,-289.18 210.89,-286.44"/>
</g>
<!-- Node6 -->
<g id="node6" class="node">
<title>Node6</title>
<g id="a_node6"><a xlink:href="class_ogre_1_1_light_factory.html" target="_top" xlink:title="Factory object for creating Light instances.">
<polygon fill="none" stroke="black" points="331.5,-392.5 331.5,-411.5 427.5,-411.5 427.5,-392.5 331.5,-392.5"/>
<text text-anchor="middle" x="379.5" y="-399.5" font-family="Helvetica,sans-Serif" font-size="10.00">Ogre::LightFactory</text>
</a>
</g>
</g>
<!-- Node1&#45;&gt;Node6 -->
<g id="edge5" class="edge">
<title>Node1&#45;&gt;Node6</title>
<path fill="none" stroke="midnightblue" d="M211.56,-287.01C228.8,-312.37 263.68,-358.25 305,-383 313.03,-387.81 322.26,-391.41 331.4,-394.11"/>
<polygon fill="midnightblue" stroke="midnightblue" points="214.48,-285.07 206.03,-278.68 208.65,-288.94 214.48,-285.07"/>
</g>
<!-- Node7 -->
<g id="node7" class="node">
<title>Node7</title>
<g id="a_node7"><a xlink:href="class_ogre_1_1_manual_object_factory.html" target="_top" xlink:title="Factory object for creating ManualObject instances.">
<polygon fill="none" stroke="black" points="312.5,-354.5 312.5,-373.5 446.5,-373.5 446.5,-354.5 312.5,-354.5"/>
<text text-anchor="middle" x="379.5" y="-361.5" font-family="Helvetica,sans-Serif" font-size="10.00">Ogre::ManualObjectFactory</text>
</a>
</g>
</g>
<!-- Node1&#45;&gt;Node7 -->
<g id="edge6" class="edge">
<title>Node1&#45;&gt;Node7</title>
<path fill="none" stroke="midnightblue" d="M218.13,-285.42C238.06,-302.64 271.68,-329.32 305,-345 313.11,-348.82 322.1,-351.94 330.92,-354.48"/>
<polygon fill="midnightblue" stroke="midnightblue" points="220.29,-282.66 210.47,-278.68 215.67,-287.92 220.29,-282.66"/>
</g>
<!-- Node8 -->
<g id="node8" class="node">
<title>Node8</title>
<g id="a_node8"><a xlink:href="class_ogre_1_1_particle_system_factory.html" target="_top" xlink:title="Factory object for creating ParticleSystem instances.">
<polygon fill="none" stroke="black" points="309.5,-316.5 309.5,-335.5 449.5,-335.5 449.5,-316.5 309.5,-316.5"/>
<text text-anchor="middle" x="379.5" y="-323.5" font-family="Helvetica,sans-Serif" font-size="10.00">Ogre::ParticleSystemFactory</text>
</a>
</g>
</g>
<!-- Node1&#45;&gt;Node8 -->
<g id="edge7" class="edge">
<title>Node1&#45;&gt;Node8</title>
<path fill="none" stroke="midnightblue" d="M233.88,-282.18C254.32,-289.9 280.97,-299.56 305,-307 315.83,-310.35 327.68,-313.59 338.64,-316.42"/>
<polygon fill="midnightblue" stroke="midnightblue" points="234.98,-278.85 224.39,-278.57 232.49,-285.4 234.98,-278.85"/>
</g>
<!-- Node9 -->
<g id="node9" class="node">
<title>Node9</title>
<g id="a_node9"><a xlink:href="class_ogre_1_1_rectangle2_d_factory.html" target="_top" xlink:title="Factory object for creating Entity instances.">
<polygon fill="none" stroke="black" points="314.5,-278.5 314.5,-297.5 444.5,-297.5 444.5,-278.5 314.5,-278.5"/>
<text text-anchor="middle" x="379.5" y="-285.5" font-family="Helvetica,sans-Serif" font-size="10.00">Ogre::Rectangle2DFactory</text>
</a>
</g>
</g>
<!-- Node1&#45;&gt;Node9 -->
<g id="edge8" class="edge">
<title>Node1&#45;&gt;Node9</title>
<path fill="none" stroke="midnightblue" d="M279.25,-277.44C290.99,-278.69 302.97,-279.96 314.35,-281.17"/>
<polygon fill="midnightblue" stroke="midnightblue" points="279.33,-273.92 269.01,-276.35 278.59,-280.88 279.33,-273.92"/>
</g>
<!-- Node10 -->
<g id="node10" class="node">
<title>Node10</title>
<g id="a_node10"><a xlink:href="class_ogre_1_1_wire_aabb_factory.html" target="_top" xlink:title="Factory object for creating WireAabb instances.">
<polygon fill="none" stroke="black" points="321.5,-240.5 321.5,-259.5 437.5,-259.5 437.5,-240.5 321.5,-240.5"/>
<text text-anchor="middle" x="379.5" y="-247.5" font-family="Helvetica,sans-Serif" font-size="10.00">Ogre::WireAabbFactory</text>
</a>
</g>
</g>
<!-- Node1&#45;&gt;Node10 -->
<g id="edge9" class="edge">
<title>Node1&#45;&gt;Node10</title>
<path fill="none" stroke="midnightblue" d="M279.23,-260.57C293.38,-259.06 307.86,-257.52 321.24,-256.1"/>
<polygon fill="midnightblue" stroke="midnightblue" points="278.59,-257.12 269.01,-261.65 279.33,-264.08 278.59,-257.12"/>
</g>
<!-- Node11 -->
<g id="node11" class="node">
<title>Node11</title>
<g id="a_node11"><a xlink:href="class_ogre_1_1v1_1_1_billboard_chain_factory.html" target="_top" xlink:title="Factory object for creating BillboardChain instances.">
<polygon fill="none" stroke="black" points="320,-191 320,-221 439,-221 439,-191 320,-191"/>
<text text-anchor="start" x="328" y="-209" font-family="Helvetica,sans-Serif" font-size="10.00">Ogre::v1::BillboardChain</text>
<text text-anchor="middle" x="379.5" y="-198" font-family="Helvetica,sans-Serif" font-size="10.00">Factory</text>
</a>
</g>
</g>
<!-- Node1&#45;&gt;Node11 -->
<g id="edge10" class="edge">
<title>Node1&#45;&gt;Node11</title>
<path fill="none" stroke="midnightblue" d="M235.33,-256.02C255.67,-248.6 281.73,-239.17 305,-231 314.28,-227.74 324.25,-224.31 333.75,-221.07"/>
<polygon fill="midnightblue" stroke="midnightblue" points="234.03,-252.77 225.84,-259.49 236.43,-259.34 234.03,-252.77"/>
</g>
<!-- Node12 -->
<g id="node12" class="node">
<title>Node12</title>
<g id="a_node12"><a xlink:href="class_ogre_1_1v1_1_1_billboard_set_factory.html" target="_top" xlink:title="Factory object for creating BillboardSet instances.">
<polygon fill="none" stroke="black" points="308.5,-152.5 308.5,-171.5 450.5,-171.5 450.5,-152.5 308.5,-152.5"/>
<text text-anchor="middle" x="379.5" y="-159.5" font-family="Helvetica,sans-Serif" font-size="10.00">Ogre::v1::BillboardSetFactory</text>
</a>
</g>
</g>
<!-- Node1&#45;&gt;Node12 -->
<g id="edge11" class="edge">
<title>Node1&#45;&gt;Node12</title>
<path fill="none" stroke="midnightblue" d="M215.54,-252.01C234.69,-232.09 269.13,-199.46 305,-181 312.5,-177.14 320.84,-174.02 329.14,-171.52"/>
<polygon fill="midnightblue" stroke="midnightblue" points="212.84,-249.77 208.53,-259.45 217.94,-254.57 212.84,-249.77"/>
</g>
<!-- Node13 -->
<g id="node13" class="node">
<title>Node13</title>
<g id="a_node13"><a xlink:href="class_ogre_1_1v1_1_1_entity_factory.html" target="_top" xlink:title="Factory object for creating Entity instances.">
<polygon fill="none" stroke="black" points="323,-114.5 323,-133.5 436,-133.5 436,-114.5 323,-114.5"/>
<text text-anchor="middle" x="379.5" y="-121.5" font-family="Helvetica,sans-Serif" font-size="10.00">Ogre::v1::EntityFactory</text>
</a>
</g>
</g>
<!-- Node1&#45;&gt;Node13 -->
<g id="edge12" class="edge">
<title>Node1&#45;&gt;Node13</title>
<path fill="none" stroke="midnightblue" d="M210.14,-250.67C226.43,-222.99 261.1,-170.8 305,-143 311.12,-139.12 318.01,-136.03 325.05,-133.57"/>
<polygon fill="midnightblue" stroke="midnightblue" points="207.1,-248.95 205.16,-259.36 213.17,-252.43 207.1,-248.95"/>
</g>
<!-- Node14 -->
<g id="node14" class="node">
<title>Node14</title>
<g id="a_node14"><a xlink:href="class_ogre_1_1v1_1_1_manual_object_factory.html" target="_top" xlink:title="Factory object for creating ManualObject instances.">
<polygon fill="none" stroke="black" points="305,-76.5 305,-95.5 454,-95.5 454,-76.5 305,-76.5"/>
<text text-anchor="middle" x="379.5" y="-83.5" font-family="Helvetica,sans-Serif" font-size="10.00">Ogre::v1::ManualObjectFactory</text>
</a>
</g>
</g>
<!-- Node1&#45;&gt;Node14 -->
<g id="edge13" class="edge">
<title>Node1&#45;&gt;Node14</title>
<path fill="none" stroke="midnightblue" d="M206.88,-249.65C220.21,-215.07 252.88,-142.77 305,-105 310.34,-101.13 316.39,-98.05 322.68,-95.6"/>
<polygon fill="midnightblue" stroke="midnightblue" points="203.44,-248.87 203.24,-259.46 210,-251.31 203.44,-248.87"/>
</g>
<!-- Node15 -->
<g id="node15" class="node">
<title>Node15</title>
<g id="a_node15"><a xlink:href="class_ogre_1_1v1_1_1_rectangle2_d_factory.html" target="_top" xlink:title="Factory object for creating Entity instances.">
<polygon fill="none" stroke="black" points="307,-38.5 307,-57.5 452,-57.5 452,-38.5 307,-38.5"/>
<text text-anchor="middle" x="379.5" y="-45.5" font-family="Helvetica,sans-Serif" font-size="10.00">Ogre::v1::Rectangle2DFactory</text>
</a>
</g>
</g>
<!-- Node1&#45;&gt;Node15 -->
<g id="edge14" class="edge">
<title>Node1&#45;&gt;Node15</title>
<path fill="none" stroke="midnightblue" d="M204.46,-249.45C214.76,-208.92 244.09,-115.47 305,-67 309.85,-63.14 315.39,-60.06 321.21,-57.6"/>
<polygon fill="midnightblue" stroke="midnightblue" points="201.06,-248.64 202.1,-259.19 207.86,-250.29 201.06,-248.64"/>
</g>
<!-- Node16 -->
<g id="node16" class="node">
<title>Node16</title>
<g id="a_node16"><a xlink:href="class_ogre_1_1v1_1_1_ribbon_trail_factory.html" target="_top" xlink:title="Factory object for creating RibbonTrail instances.">
<polygon fill="none" stroke="black" points="310.5,-0.5 310.5,-19.5 448.5,-19.5 448.5,-0.5 310.5,-0.5"/>
<text text-anchor="middle" x="379.5" y="-7.5" font-family="Helvetica,sans-Serif" font-size="10.00">Ogre::v1::RibbonTrailFactory</text>
</a>
</g>
</g>
<!-- Node1&#45;&gt;Node16 -->
<g id="edge15" class="edge">
<title>Node1&#45;&gt;Node16</title>
<path fill="none" stroke="midnightblue" d="M202.72,-249.35C210.15,-203.44 235.11,-88.55 305,-29 309.51,-25.15 314.71,-22.07 320.22,-19.61"/>
<polygon fill="midnightblue" stroke="midnightblue" points="199.23,-249.05 201.2,-259.46 206.15,-250.09 199.23,-249.05"/>
</g>
<!-- Node2 -->
<g id="node2" class="node">
<title>Node2</title>
<g id="a_node2"><a xlink:href="class_ogre_1_1_allocated_object.html" target="_top" xlink:title="Superclass for all objects that wish to use custom memory allocators when their new / delete operator...">
<polygon fill="none" stroke="black" points="0,-259.5 0,-278.5 93,-278.5 93,-259.5 0,-259.5"/>
<text text-anchor="middle" x="46.5" y="-266.5" font-family="Helvetica,sans-Serif" font-size="10.00">OgreAllocatedObj</text>
</a>
</g>
</g>
<!-- Node2&#45;&gt;Node1 -->
<g id="edge1" class="edge">
<title>Node2&#45;&gt;Node1</title>
<path fill="none" stroke="midnightblue" d="M103.13,-269C111.55,-269 120.32,-269 128.98,-269"/>
<polygon fill="midnightblue" stroke="midnightblue" points="103.06,-265.5 93.06,-269 103.06,-272.5 103.06,-265.5"/>
</g>
</g>
</svg>
