<?xml version="1.0" encoding="UTF-8" standalone="no"?>
<!DOCTYPE svg PUBLIC "-//W3C//DTD SVG 1.1//EN"
 "http://www.w3.org/Graphics/SVG/1.1/DTD/svg11.dtd">
<!-- Generated by graphviz version 2.43.0 (0)
 -->
<!-- Title: Ogre::VulkanTextureGpuRenderTarget Pages: 1 -->
<svg width="284pt" height="319pt"
 viewBox="0.00 0.00 283.50 319.00" xmlns="http://www.w3.org/2000/svg" xmlns:xlink="http://www.w3.org/1999/xlink">
<g id="graph0" class="graph" transform="scale(1 1) rotate(0) translate(4 315)">
<title>Ogre::VulkanTextureGpuRenderTarget</title>
<!-- Node1 -->
<g id="node1" class="node">
<title>Node1</title>
<g id="a_node1"><a xlink:title=" ">
<polygon fill="#bfbfbf" stroke="black" points="62.5,-56.5 62.5,-86.5 230.5,-86.5 230.5,-56.5 62.5,-56.5"/>
<text text-anchor="start" x="70.5" y="-74.5" font-family="Helvetica,sans-Serif" font-size="10.00">Ogre::VulkanTextureGpuRender</text>
<text text-anchor="middle" x="146.5" y="-63.5" font-family="Helvetica,sans-Serif" font-size="10.00">Target</text>
</a>
</g>
</g>
<!-- Node7 -->
<g id="node7" class="node">
<title>Node7</title>
<g id="a_node7"><a xlink:href="class_ogre_1_1_vulkan_texture_gpu_window.html" target="_top" xlink:title=" ">
<polygon fill="none" stroke="black" points="60,-0.5 60,-19.5 233,-19.5 233,-0.5 60,-0.5"/>
<text text-anchor="middle" x="146.5" y="-7.5" font-family="Helvetica,sans-Serif" font-size="10.00">Ogre::VulkanTextureGpuWindow</text>
</a>
</g>
</g>
<!-- Node1&#45;&gt;Node7 -->
<g id="edge6" class="edge">
<title>Node1&#45;&gt;Node7</title>
<path fill="none" stroke="midnightblue" d="M146.5,-46.29C146.5,-36.86 146.5,-26.65 146.5,-19.66"/>
<polygon fill="midnightblue" stroke="midnightblue" points="143,-46.4 146.5,-56.4 150,-46.4 143,-46.4"/>
</g>
<!-- Node2 -->
<g id="node2" class="node">
<title>Node2</title>
<g id="a_node2"><a xlink:href="class_ogre_1_1_vulkan_texture_gpu.html" target="_top" xlink:title=" ">
<polygon fill="none" stroke="black" points="79.5,-123.5 79.5,-142.5 213.5,-142.5 213.5,-123.5 79.5,-123.5"/>
<text text-anchor="middle" x="146.5" y="-130.5" font-family="Helvetica,sans-Serif" font-size="10.00">Ogre::VulkanTextureGpu</text>
</a>
</g>
</g>
<!-- Node2&#45;&gt;Node1 -->
<g id="edge1" class="edge">
<title>Node2&#45;&gt;Node1</title>
<path fill="none" stroke="midnightblue" d="M146.5,-113.23C146.5,-104.59 146.5,-94.5 146.5,-86.52"/>
<polygon fill="midnightblue" stroke="midnightblue" points="143,-113.48 146.5,-123.48 150,-113.48 143,-113.48"/>
</g>
<!-- Node3 -->
<g id="node3" class="node">
<title>Node3</title>
<g id="a_node3"><a xlink:href="class_ogre_1_1_texture_gpu.html" target="_top" xlink:title=" ">
<polygon fill="none" stroke="black" points="96,-179.5 96,-198.5 197,-198.5 197,-179.5 96,-179.5"/>
<text text-anchor="middle" x="146.5" y="-186.5" font-family="Helvetica,sans-Serif" font-size="10.00">Ogre::TextureGpu</text>
</a>
</g>
</g>
<!-- Node3&#45;&gt;Node2 -->
<g id="edge2" class="edge">
<title>Node3&#45;&gt;Node2</title>
<path fill="none" stroke="midnightblue" d="M146.5,-168.8C146.5,-159.91 146.5,-149.78 146.5,-142.75"/>
<polygon fill="midnightblue" stroke="midnightblue" points="143,-169.08 146.5,-179.08 150,-169.08 143,-169.08"/>
</g>
<!-- Node4 -->
<g id="node4" class="node">
<title>Node4</title>
<g id="a_node4"><a xlink:href="struct_ogre_1_1_gpu_tracked_resource.html" target="_top" xlink:title=" ">
<polygon fill="none" stroke="black" points="0,-235.5 0,-254.5 147,-254.5 147,-235.5 0,-235.5"/>
<text text-anchor="middle" x="73.5" y="-242.5" font-family="Helvetica,sans-Serif" font-size="10.00">Ogre::GpuTrackedResource</text>
</a>
</g>
</g>
<!-- Node4&#45;&gt;Node3 -->
<g id="edge3" class="edge">
<title>Node4&#45;&gt;Node3</title>
<path fill="none" stroke="midnightblue" d="M93.64,-229.1C106.78,-219.38 123.48,-207.03 134.56,-198.83"/>
<polygon fill="midnightblue" stroke="midnightblue" points="91.19,-226.56 85.23,-235.32 95.35,-232.19 91.19,-226.56"/>
</g>
<!-- Node5 -->
<g id="node5" class="node">
<title>Node5</title>
<g id="a_node5"><a xlink:href="class_ogre_1_1_gpu_resource.html" target="_top" xlink:title=" ">
<polygon fill="none" stroke="black" points="165.5,-235.5 165.5,-254.5 275.5,-254.5 275.5,-235.5 165.5,-235.5"/>
<text text-anchor="middle" x="220.5" y="-242.5" font-family="Helvetica,sans-Serif" font-size="10.00">Ogre::GpuResource</text>
</a>
</g>
</g>
<!-- Node5&#45;&gt;Node3 -->
<g id="edge4" class="edge">
<title>Node5&#45;&gt;Node3</title>
<path fill="none" stroke="midnightblue" d="M200.47,-229.38C187.09,-219.62 169.94,-207.11 158.61,-198.83"/>
<polygon fill="midnightblue" stroke="midnightblue" points="198.47,-232.26 208.61,-235.32 202.6,-226.6 198.47,-232.26"/>
</g>
<!-- Node6 -->
<g id="node6" class="node">
<title>Node6</title>
<g id="a_node6"><a xlink:title=" ">
<polygon fill="none" stroke="#bfbfbf" points="169.5,-291.5 169.5,-310.5 271.5,-310.5 271.5,-291.5 169.5,-291.5"/>
<text text-anchor="middle" x="220.5" y="-298.5" font-family="Helvetica,sans-Serif" font-size="10.00">OgreAllocatedObj</text>
</a>
</g>
</g>
<!-- Node6&#45;&gt;Node5 -->
<g id="edge5" class="edge">
<title>Node6&#45;&gt;Node5</title>
<path fill="none" stroke="midnightblue" d="M220.5,-280.8C220.5,-271.91 220.5,-261.78 220.5,-254.75"/>
<polygon fill="midnightblue" stroke="midnightblue" points="217,-281.08 220.5,-291.08 224,-281.08 217,-281.08"/>
</g>
</g>
</svg>
