<?xml version="1.0" encoding="UTF-8" standalone="no"?>
<!DOCTYPE svg PUBLIC "-//W3C//DTD SVG 1.1//EN"
 "http://www.w3.org/Graphics/SVG/1.1/DTD/svg11.dtd">
<!-- Generated by graphviz version 2.50.0 (20220203.2022)
 -->
<!-- Title: Ogre::LodStrategy Pages: 1 -->
<svg width="632pt" height="165pt"
 viewBox="0.00 0.00 632.00 164.50" xmlns="http://www.w3.org/2000/svg" xmlns:xlink="http://www.w3.org/1999/xlink">
<g id="graph0" class="graph" transform="scale(1 1) rotate(0) translate(4 160.5)">
<title>Ogre::LodStrategy</title>
<!-- Node1 -->
<g id="node1" class="node">
<title>Node1</title>
<g id="a_node1"><a xlink:title="Strategy for determining level of detail.">
<polygon fill="#bfbfbf" stroke="black" points="129,-77 129,-96 224,-96 224,-77 129,-77"/>
<text text-anchor="middle" x="176.5" y="-84" font-family="Helvetica,sans-Serif" font-size="10.00">Ogre::LodStrategy</text>
</a>
</g>
</g>
<!-- Node3 -->
<g id="node3" class="node">
<title>Node3</title>
<g id="a_node3"><a xlink:href="class_ogre_1_1_distance_lod_strategy_base.html" target="_top" xlink:title="Level of detail strategy based on distance from camera.">
<polygon fill="none" stroke="black" points="264.5,-99 264.5,-118 419.5,-118 419.5,-99 264.5,-99"/>
<text text-anchor="middle" x="342" y="-106" font-family="Helvetica,sans-Serif" font-size="10.00">Ogre::DistanceLodStrategyBase</text>
</a>
</g>
</g>
<!-- Node1&#45;&gt;Node3 -->
<g id="edge2" class="edge">
<title>Node1&#45;&gt;Node3</title>
<path fill="none" stroke="midnightblue" d="M234.35,-94.15C245.97,-95.71 258.33,-97.38 270.36,-99"/>
<polygon fill="midnightblue" stroke="midnightblue" points="234.73,-90.67 224.35,-92.8 233.8,-97.61 234.73,-90.67"/>
</g>
<!-- Node6 -->
<g id="node6" class="node">
<title>Node6</title>
<g id="a_node6"><a xlink:href="class_ogre_1_1_pixel_count_lod_strategy_base.html" target="_top" xlink:title="Abstract base class for level of detail strategy based on pixel count approximations from bounding sp...">
<polygon fill="none" stroke="black" points="260,-55 260,-74 424,-74 424,-55 260,-55"/>
<text text-anchor="middle" x="342" y="-62" font-family="Helvetica,sans-Serif" font-size="10.00">Ogre::PixelCountLodStrategyBase</text>
</a>
</g>
</g>
<!-- Node1&#45;&gt;Node6 -->
<g id="edge5" class="edge">
<title>Node1&#45;&gt;Node6</title>
<path fill="none" stroke="midnightblue" d="M234.35,-78.85C245.97,-77.29 258.33,-75.62 270.36,-74"/>
<polygon fill="midnightblue" stroke="midnightblue" points="233.8,-75.39 224.35,-80.2 234.73,-82.33 233.8,-75.39"/>
</g>
<!-- Node2 -->
<g id="node2" class="node">
<title>Node2</title>
<g id="a_node2"><a xlink:href="class_ogre_1_1_allocated_object.html" target="_top" xlink:title="Superclass for all objects that wish to use custom memory allocators when their new / delete operator...">
<polygon fill="none" stroke="black" points="0,-77 0,-96 93,-96 93,-77 0,-77"/>
<text text-anchor="middle" x="46.5" y="-84" font-family="Helvetica,sans-Serif" font-size="10.00">OgreAllocatedObj</text>
</a>
</g>
</g>
<!-- Node2&#45;&gt;Node1 -->
<g id="edge1" class="edge">
<title>Node2&#45;&gt;Node1</title>
<path fill="none" stroke="midnightblue" d="M103.48,-86.5C111.89,-86.5 120.48,-86.5 128.68,-86.5"/>
<polygon fill="midnightblue" stroke="midnightblue" points="103.35,-83 93.35,-86.5 103.35,-90 103.35,-83"/>
</g>
<!-- Node4 -->
<g id="node4" class="node">
<title>Node4</title>
<g id="a_node4"><a xlink:href="class_ogre_1_1_distance_lod_box_strategy.html" target="_top" xlink:title="Level of detail strategy based on distance from camera to an object&#39;s bounding box.">
<polygon fill="none" stroke="black" points="467.5,-137 467.5,-156 616.5,-156 616.5,-137 467.5,-137"/>
<text text-anchor="middle" x="542" y="-144" font-family="Helvetica,sans-Serif" font-size="10.00">Ogre::DistanceLodBoxStrategy</text>
</a>
</g>
</g>
<!-- Node3&#45;&gt;Node4 -->
<g id="edge3" class="edge">
<title>Node3&#45;&gt;Node4</title>
<path fill="none" stroke="midnightblue" d="M402.87,-119.99C431.12,-125.41 464.44,-131.81 491.27,-136.96"/>
<polygon fill="midnightblue" stroke="midnightblue" points="403.19,-116.49 392.71,-118.04 401.87,-123.36 403.19,-116.49"/>
</g>
<!-- Node5 -->
<g id="node5" class="node">
<title>Node5</title>
<g id="a_node5"><a xlink:href="class_ogre_1_1_distance_lod_sphere_strategy.html" target="_top" xlink:title="Level of detail strategy based on distance from camera to an object&#39;s bounding sphere.">
<polygon fill="none" stroke="black" points="460,-99 460,-118 624,-118 624,-99 460,-99"/>
<text text-anchor="middle" x="542" y="-106" font-family="Helvetica,sans-Serif" font-size="10.00">Ogre::DistanceLodSphereStrategy</text>
</a>
</g>
</g>
<!-- Node3&#45;&gt;Node5 -->
<g id="edge4" class="edge">
<title>Node3&#45;&gt;Node5</title>
<path fill="none" stroke="midnightblue" d="M429.83,-108.5C439.77,-108.5 449.87,-108.5 459.73,-108.5"/>
<polygon fill="midnightblue" stroke="midnightblue" points="429.55,-105 419.55,-108.5 429.55,-112 429.55,-105"/>
</g>
<!-- Node7 -->
<g id="node7" class="node">
<title>Node7</title>
<g id="a_node7"><a xlink:href="class_ogre_1_1_absolute_pixel_count_lod_strategy.html" target="_top" xlink:title="The AbsolutePixelCountLodStrategy class LOD strategy that works like ScreenRatioPixelCountLodStrategy...">
<polygon fill="none" stroke="black" points="478.5,-49.5 478.5,-79.5 605.5,-79.5 605.5,-49.5 478.5,-49.5"/>
<text text-anchor="start" x="486.5" y="-67.5" font-family="Helvetica,sans-Serif" font-size="10.00">Ogre::AbsolutePixelCount</text>
<text text-anchor="middle" x="542" y="-56.5" font-family="Helvetica,sans-Serif" font-size="10.00">LodStrategy</text>
</a>
</g>
</g>
<!-- Node6&#45;&gt;Node7 -->
<g id="edge6" class="edge">
<title>Node6&#45;&gt;Node7</title>
<path fill="none" stroke="midnightblue" d="M434.33,-64.5C449.17,-64.5 464.25,-64.5 478.21,-64.5"/>
<polygon fill="midnightblue" stroke="midnightblue" points="434.11,-61 424.11,-64.5 434.11,-68 434.11,-61"/>
</g>
<!-- Node8 -->
<g id="node8" class="node">
<title>Node8</title>
<g id="a_node8"><a xlink:href="class_ogre_1_1_screen_ratio_pixel_count_lod_strategy.html" target="_top" xlink:title="The ScreenRatioPixelCountLodStrategy class Implement a strategy which calculates LOD ratios based on ...">
<polygon fill="none" stroke="black" points="471,-0.5 471,-30.5 613,-30.5 613,-0.5 471,-0.5"/>
<text text-anchor="start" x="479" y="-18.5" font-family="Helvetica,sans-Serif" font-size="10.00">Ogre::ScreenRatioPixelCount</text>
<text text-anchor="middle" x="542" y="-7.5" font-family="Helvetica,sans-Serif" font-size="10.00">LodStrategy</text>
</a>
</g>
</g>
<!-- Node6&#45;&gt;Node8 -->
<g id="edge7" class="edge">
<title>Node6&#45;&gt;Node8</title>
<path fill="none" stroke="midnightblue" d="M391.55,-52.49C418.3,-45.86 451.76,-37.58 480.24,-30.54"/>
<polygon fill="midnightblue" stroke="midnightblue" points="390.51,-49.14 381.65,-54.94 392.19,-55.93 390.51,-49.14"/>
</g>
</g>
</svg>
