<?xml version="1.0" encoding="UTF-8" standalone="no"?>
<!DOCTYPE svg PUBLIC "-//W3C//DTD SVG 1.1//EN"
 "http://www.w3.org/Graphics/SVG/1.1/DTD/svg11.dtd">
<!-- Generated by graphviz version 2.43.0 (0)
 -->
<!-- Title: Ogre::LodStrategy Pages: 1 -->
<svg width="683pt" height="165pt"
 viewBox="0.00 0.00 683.00 164.50" xmlns="http://www.w3.org/2000/svg" xmlns:xlink="http://www.w3.org/1999/xlink">
<g id="graph0" class="graph" transform="scale(1 1) rotate(0) translate(4 160.5)">
<title>Ogre::LodStrategy</title>
<!-- Node1 -->
<g id="node1" class="node">
<title>Node1</title>
<g id="a_node1"><a xlink:title="Strategy for determining level of detail.">
<polygon fill="#bfbfbf" stroke="black" points="138,-77 138,-96 242,-96 242,-77 138,-77"/>
<text text-anchor="middle" x="190" y="-84" font-family="Helvetica,sans-Serif" font-size="10.00">Ogre::LodStrategy</text>
</a>
</g>
</g>
<!-- Node3 -->
<g id="node3" class="node">
<title>Node3</title>
<g id="a_node3"><a xlink:href="class_ogre_1_1_distance_lod_strategy_base.html" target="_top" xlink:title="Level of detail strategy based on distance from camera.">
<polygon fill="none" stroke="black" points="282.5,-99 282.5,-118 453.5,-118 453.5,-99 282.5,-99"/>
<text text-anchor="middle" x="368" y="-106" font-family="Helvetica,sans-Serif" font-size="10.00">Ogre::DistanceLodStrategyBase</text>
</a>
</g>
</g>
<!-- Node1&#45;&gt;Node3 -->
<g id="edge2" class="edge">
<title>Node1&#45;&gt;Node3</title>
<path fill="none" stroke="midnightblue" d="M252.53,-94.19C264.85,-95.73 277.94,-97.37 290.7,-98.96"/>
<polygon fill="midnightblue" stroke="midnightblue" points="252.74,-90.69 242.38,-92.92 251.87,-97.64 252.74,-90.69"/>
</g>
<!-- Node6 -->
<g id="node6" class="node">
<title>Node6</title>
<g id="a_node6"><a xlink:href="class_ogre_1_1_pixel_count_lod_strategy_base.html" target="_top" xlink:title="Abstract base class for level of detail strategy based on pixel count approximations from bounding sp...">
<polygon fill="none" stroke="black" points="278,-55 278,-74 458,-74 458,-55 278,-55"/>
<text text-anchor="middle" x="368" y="-62" font-family="Helvetica,sans-Serif" font-size="10.00">Ogre::PixelCountLodStrategyBase</text>
</a>
</g>
</g>
<!-- Node1&#45;&gt;Node6 -->
<g id="edge5" class="edge">
<title>Node1&#45;&gt;Node6</title>
<path fill="none" stroke="midnightblue" d="M252.53,-78.81C264.85,-77.27 277.94,-75.63 290.7,-74.04"/>
<polygon fill="midnightblue" stroke="midnightblue" points="251.87,-75.36 242.38,-80.08 252.74,-82.31 251.87,-75.36"/>
</g>
<!-- Node2 -->
<g id="node2" class="node">
<title>Node2</title>
<g id="a_node2"><a xlink:title=" ">
<polygon fill="none" stroke="#bfbfbf" points="0,-77 0,-96 102,-96 102,-77 0,-77"/>
<text text-anchor="middle" x="51" y="-84" font-family="Helvetica,sans-Serif" font-size="10.00">OgreAllocatedObj</text>
</a>
</g>
</g>
<!-- Node2&#45;&gt;Node1 -->
<g id="edge1" class="edge">
<title>Node2&#45;&gt;Node1</title>
<path fill="none" stroke="midnightblue" d="M112.46,-86.5C120.93,-86.5 129.57,-86.5 137.85,-86.5"/>
<polygon fill="midnightblue" stroke="midnightblue" points="112.24,-83 102.24,-86.5 112.24,-90 112.24,-83"/>
</g>
<!-- Node4 -->
<g id="node4" class="node">
<title>Node4</title>
<g id="a_node4"><a xlink:href="class_ogre_1_1_distance_lod_box_strategy.html" target="_top" xlink:title="Level of detail strategy based on distance from camera to an object&#39;s bounding box.">
<polygon fill="none" stroke="black" points="501.5,-137 501.5,-156 667.5,-156 667.5,-137 501.5,-137"/>
<text text-anchor="middle" x="584.5" y="-144" font-family="Helvetica,sans-Serif" font-size="10.00">Ogre::DistanceLodBoxStrategy</text>
</a>
</g>
</g>
<!-- Node3&#45;&gt;Node4 -->
<g id="edge3" class="edge">
<title>Node3&#45;&gt;Node4</title>
<path fill="none" stroke="midnightblue" d="M433.05,-119.85C463.83,-125.3 500.3,-131.76 529.63,-136.96"/>
<polygon fill="midnightblue" stroke="midnightblue" points="433.31,-116.34 422.85,-118.04 432.09,-123.23 433.31,-116.34"/>
</g>
<!-- Node5 -->
<g id="node5" class="node">
<title>Node5</title>
<g id="a_node5"><a xlink:href="class_ogre_1_1_distance_lod_sphere_strategy.html" target="_top" xlink:title="Level of detail strategy based on distance from camera to an object&#39;s bounding sphere.">
<polygon fill="none" stroke="black" points="494,-99 494,-118 675,-118 675,-99 494,-99"/>
<text text-anchor="middle" x="584.5" y="-106" font-family="Helvetica,sans-Serif" font-size="10.00">Ogre::DistanceLodSphereStrategy</text>
</a>
</g>
</g>
<!-- Node3&#45;&gt;Node5 -->
<g id="edge4" class="edge">
<title>Node3&#45;&gt;Node5</title>
<path fill="none" stroke="midnightblue" d="M464,-108.5C473.87,-108.5 483.89,-108.5 493.7,-108.5"/>
<polygon fill="midnightblue" stroke="midnightblue" points="463.78,-105 453.78,-108.5 463.78,-112 463.78,-105"/>
</g>
<!-- Node7 -->
<g id="node7" class="node">
<title>Node7</title>
<g id="a_node7"><a xlink:href="class_ogre_1_1_absolute_pixel_count_lod_strategy.html" target="_top" xlink:title="The AbsolutePixelCountLodStrategy class LOD strategy that works like ScreenRatioPixelCountLodStrategy...">
<polygon fill="none" stroke="black" points="514.5,-49.5 514.5,-79.5 654.5,-79.5 654.5,-49.5 514.5,-49.5"/>
<text text-anchor="start" x="522.5" y="-67.5" font-family="Helvetica,sans-Serif" font-size="10.00">Ogre::AbsolutePixelCount</text>
<text text-anchor="middle" x="584.5" y="-56.5" font-family="Helvetica,sans-Serif" font-size="10.00">LodStrategy</text>
</a>
</g>
</g>
<!-- Node6&#45;&gt;Node7 -->
<g id="edge6" class="edge">
<title>Node6&#45;&gt;Node7</title>
<path fill="none" stroke="midnightblue" d="M468.28,-64.5C483.83,-64.5 499.61,-64.5 514.29,-64.5"/>
<polygon fill="midnightblue" stroke="midnightblue" points="468.1,-61 458.1,-64.5 468.1,-68 468.1,-61"/>
</g>
<!-- Node8 -->
<g id="node8" class="node">
<title>Node8</title>
<g id="a_node8"><a xlink:href="class_ogre_1_1_screen_ratio_pixel_count_lod_strategy.html" target="_top" xlink:title="The ScreenRatioPixelCountLodStrategy class Implement a strategy which calculates LOD ratios based on ...">
<polygon fill="none" stroke="black" points="506.5,-0.5 506.5,-30.5 662.5,-30.5 662.5,-0.5 506.5,-0.5"/>
<text text-anchor="start" x="514.5" y="-18.5" font-family="Helvetica,sans-Serif" font-size="10.00">Ogre::ScreenRatioPixelCount</text>
<text text-anchor="middle" x="584.5" y="-7.5" font-family="Helvetica,sans-Serif" font-size="10.00">LodStrategy</text>
</a>
</g>
</g>
<!-- Node6&#45;&gt;Node8 -->
<g id="edge7" class="edge">
<title>Node6&#45;&gt;Node8</title>
<path fill="none" stroke="midnightblue" d="M420.57,-52.72C449.67,-46.07 486.34,-37.69 517.52,-30.57"/>
<polygon fill="midnightblue" stroke="midnightblue" points="419.58,-49.36 410.61,-54.99 421.14,-56.18 419.58,-49.36"/>
</g>
</g>
</svg>
