<?xml version="1.0" encoding="UTF-8" standalone="no"?>
<!DOCTYPE svg PUBLIC "-//W3C//DTD SVG 1.1//EN"
 "http://www.w3.org/Graphics/SVG/1.1/DTD/svg11.dtd">
<!-- Generated by graphviz version 7.0.5 (20221223.1930)
 -->
<!-- Title: Ogre::VulkanTextureGpu Pages: 1 -->
<svg width="273pt" height="313pt"
 viewBox="0.00 0.00 273.00 313.00" xmlns="http://www.w3.org/2000/svg" xmlns:xlink="http://www.w3.org/1999/xlink">
<g id="graph0" class="graph" transform="scale(1 1) rotate(0) translate(4 309)">
<title>Ogre::VulkanTextureGpu</title>
<!-- Node1 -->
<g id="node1" class="node">
<title>Node1</title>
<g id="a_node1"><a xlink:title=" ">
<polygon fill="#999999" stroke="#666666" points="197.5,-140 75.5,-140 75.5,-121 197.5,-121 197.5,-140"/>
<text text-anchor="middle" x="136.5" y="-128" font-family="Helvetica,sans-Serif" font-size="10.00">Ogre::VulkanTextureGpu</text>
</a>
</g>
</g>
<!-- Node6 -->
<g id="node6" class="node">
<title>Node6</title>
<g id="a_node6"><a xlink:href="class_ogre_1_1_vulkan_texture_gpu_render_target.html" target="_top" xlink:title=" ">
<polygon fill="white" stroke="#666666" points="213,-85 60,-85 60,-55 213,-55 213,-85"/>
<text text-anchor="start" x="68" y="-73" font-family="Helvetica,sans-Serif" font-size="10.00">Ogre::VulkanTextureGpuRender</text>
<text text-anchor="middle" x="136.5" y="-62" font-family="Helvetica,sans-Serif" font-size="10.00">Target</text>
</a>
</g>
</g>
<!-- Node1&#45;&gt;Node6 -->
<g id="edge5" class="edge">
<title>Node1&#45;&gt;Node6</title>
<path fill="none" stroke="#63b8ff" d="M136.5,-109.51C136.5,-101.49 136.5,-92.43 136.5,-85.11"/>
<polygon fill="#63b8ff" stroke="#63b8ff" points="133,-109.35 136.5,-119.35 140,-109.35 133,-109.35"/>
</g>
<!-- Node2 -->
<g id="node2" class="node">
<title>Node2</title>
<g id="a_node2"><a xlink:href="class_ogre_1_1_texture_gpu.html" target="_top" xlink:title=" ">
<polygon fill="white" stroke="#666666" points="182.5,-195 90.5,-195 90.5,-176 182.5,-176 182.5,-195"/>
<text text-anchor="middle" x="136.5" y="-183" font-family="Helvetica,sans-Serif" font-size="10.00">Ogre::TextureGpu</text>
</a>
</g>
</g>
<!-- Node2&#45;&gt;Node1 -->
<g id="edge1" class="edge">
<title>Node2&#45;&gt;Node1</title>
<path fill="none" stroke="#63b8ff" d="M136.5,-164.35C136.5,-156.1 136.5,-146.97 136.5,-140.44"/>
<polygon fill="#63b8ff" stroke="#63b8ff" points="133,-164.23 136.5,-174.23 140,-164.23 133,-164.23"/>
</g>
<!-- Node3 -->
<g id="node3" class="node">
<title>Node3</title>
<g id="a_node3"><a xlink:href="struct_ogre_1_1_gpu_tracked_resource.html" target="_top" xlink:title=" ">
<polygon fill="white" stroke="#666666" points="137,-250 0,-250 0,-231 137,-231 137,-250"/>
<text text-anchor="middle" x="68.5" y="-238" font-family="Helvetica,sans-Serif" font-size="10.00">Ogre::GpuTrackedResource</text>
</a>
</g>
</g>
<!-- Node3&#45;&gt;Node2 -->
<g id="edge2" class="edge">
<title>Node3&#45;&gt;Node2</title>
<path fill="none" stroke="#63b8ff" d="M88.85,-223.64C100.72,-214.39 115.26,-203.05 125.14,-195.36"/>
<polygon fill="#63b8ff" stroke="#63b8ff" points="86.96,-220.67 81.23,-229.58 91.27,-226.19 86.96,-220.67"/>
</g>
<!-- Node4 -->
<g id="node4" class="node">
<title>Node4</title>
<g id="a_node4"><a xlink:href="class_ogre_1_1_gpu_resource.html" target="_top" xlink:title=" ">
<polygon fill="white" stroke="#666666" points="256,-250 155,-250 155,-231 256,-231 256,-250"/>
<text text-anchor="middle" x="205.5" y="-238" font-family="Helvetica,sans-Serif" font-size="10.00">Ogre::GpuResource</text>
</a>
</g>
</g>
<!-- Node4&#45;&gt;Node2 -->
<g id="edge3" class="edge">
<title>Node4&#45;&gt;Node2</title>
<path fill="none" stroke="#63b8ff" d="M184.85,-223.64C172.8,-214.39 158.05,-203.05 148.03,-195.36"/>
<polygon fill="#63b8ff" stroke="#63b8ff" points="182.53,-226.27 192.59,-229.59 186.8,-220.72 182.53,-226.27"/>
</g>
<!-- Node5 -->
<g id="node5" class="node">
<title>Node5</title>
<g id="a_node5"><a xlink:title=" ">
<polygon fill="white" stroke="#666666" points="265,-305 146,-305 146,-286 265,-286 265,-305"/>
<text text-anchor="middle" x="205.5" y="-293" font-family="Helvetica,sans-Serif" font-size="10.00">Ogre::OgreAllocatedObj</text>
</a>
</g>
</g>
<!-- Node5&#45;&gt;Node4 -->
<g id="edge4" class="edge">
<title>Node5&#45;&gt;Node4</title>
<path fill="none" stroke="#63b8ff" d="M205.5,-274.35C205.5,-266.1 205.5,-256.97 205.5,-250.44"/>
<polygon fill="#63b8ff" stroke="#63b8ff" points="202,-274.23 205.5,-284.23 209,-274.23 202,-274.23"/>
</g>
<!-- Node7 -->
<g id="node7" class="node">
<title>Node7</title>
<g id="a_node7"><a xlink:href="class_ogre_1_1_vulkan_texture_gpu_window.html" target="_top" xlink:title=" ">
<polygon fill="white" stroke="#666666" points="215,-19 58,-19 58,0 215,0 215,-19"/>
<text text-anchor="middle" x="136.5" y="-7" font-family="Helvetica,sans-Serif" font-size="10.00">Ogre::VulkanTextureGpuWindow</text>
</a>
</g>
</g>
<!-- Node6&#45;&gt;Node7 -->
<g id="edge6" class="edge">
<title>Node6&#45;&gt;Node7</title>
<path fill="none" stroke="#63b8ff" d="M136.5,-43.3C136.5,-34.65 136.5,-25.58 136.5,-19.18"/>
<polygon fill="#63b8ff" stroke="#63b8ff" points="133,-43.03 136.5,-53.03 140,-43.03 133,-43.03"/>
</g>
</g>
</svg>
