<?xml version="1.0" encoding="UTF-8" standalone="no"?>
<!DOCTYPE svg PUBLIC "-//W3C//DTD SVG 1.1//EN"
 "http://www.w3.org/Graphics/SVG/1.1/DTD/svg11.dtd">
<!-- Generated by graphviz version 7.0.5 (20221223.1930)
 -->
<!-- Title: Ogre::v1::GLES2HardwarePixelBuffer Pages: 1 -->
<svg width="318pt" height="148pt"
 viewBox="0.00 0.00 317.50 148.00" xmlns="http://www.w3.org/2000/svg" xmlns:xlink="http://www.w3.org/1999/xlink">
<g id="graph0" class="graph" transform="scale(1 1) rotate(0) translate(4 144)">
<title>Ogre::v1::GLES2HardwarePixelBuffer</title>
<!-- Node1 -->
<g id="node1" class="node">
<title>Node1</title>
<g id="a_node1"><a xlink:title=" ">
<polygon fill="#999999" stroke="#666666" points="230.5,-85 78.5,-85 78.5,-55 230.5,-55 230.5,-85"/>
<text text-anchor="start" x="86.5" y="-73" font-family="Helvetica,sans-Serif" font-size="10.00">Ogre::v1::GLES2HardwarePixel</text>
<text text-anchor="middle" x="154.5" y="-62" font-family="Helvetica,sans-Serif" font-size="10.00">Buffer</text>
</a>
</g>
</g>
<!-- Node3 -->
<g id="node3" class="node">
<title>Node3</title>
<g id="a_node3"><a xlink:href="class_ogre_1_1v1_1_1_g_l_e_s2_render_buffer.html" target="_top" xlink:title="Renderbuffer surface.">
<polygon fill="white" stroke="#666666" points="145,-19 0,-19 0,0 145,0 145,-19"/>
<text text-anchor="middle" x="72.5" y="-7" font-family="Helvetica,sans-Serif" font-size="10.00">Ogre::v1::GLES2RenderBuffer</text>
</a>
</g>
</g>
<!-- Node1&#45;&gt;Node3 -->
<g id="edge2" class="edge">
<title>Node1&#45;&gt;Node3</title>
<path fill="none" stroke="#63b8ff" d="M125,-47.95C111.09,-38.03 95.27,-26.74 84.66,-19.18"/>
<polygon fill="#63b8ff" stroke="#63b8ff" points="122.82,-50.7 133,-53.66 126.89,-45 122.82,-50.7"/>
</g>
<!-- Node4 -->
<g id="node4" class="node">
<title>Node4</title>
<g id="a_node4"><a xlink:href="class_ogre_1_1v1_1_1_g_l_e_s2_texture_buffer.html" target="_top" xlink:title="Texture surface.">
<polygon fill="white" stroke="#666666" points="309.5,-19 163.5,-19 163.5,0 309.5,0 309.5,-19"/>
<text text-anchor="middle" x="236.5" y="-7" font-family="Helvetica,sans-Serif" font-size="10.00">Ogre::v1::GLES2TextureBuffer</text>
</a>
</g>
</g>
<!-- Node1&#45;&gt;Node4 -->
<g id="edge3" class="edge">
<title>Node1&#45;&gt;Node4</title>
<path fill="none" stroke="#63b8ff" d="M184,-47.95C197.91,-38.03 213.73,-26.74 224.34,-19.18"/>
<polygon fill="#63b8ff" stroke="#63b8ff" points="182.11,-45 176,-53.66 186.18,-50.7 182.11,-45"/>
</g>
<!-- Node2 -->
<g id="node2" class="node">
<title>Node2</title>
<g id="a_node2"><a xlink:title=" ">
<polygon fill="white" stroke="#666666" points="207,-140 102,-140 102,-121 207,-121 207,-140"/>
<text text-anchor="middle" x="154.5" y="-128" font-family="Helvetica,sans-Serif" font-size="10.00">HardwarePixelBuffer</text>
</a>
</g>
</g>
<!-- Node2&#45;&gt;Node1 -->
<g id="edge1" class="edge">
<title>Node2&#45;&gt;Node1</title>
<path fill="none" stroke="#63b8ff" d="M154.5,-109.51C154.5,-101.49 154.5,-92.43 154.5,-85.11"/>
<polygon fill="#63b8ff" stroke="#63b8ff" points="151,-109.35 154.5,-119.35 158,-109.35 151,-109.35"/>
</g>
</g>
</svg>
