<?xml version="1.0" encoding="UTF-8" standalone="no"?>
<!DOCTYPE svg PUBLIC "-//W3C//DTD SVG 1.1//EN"
 "http://www.w3.org/Graphics/SVG/1.1/DTD/svg11.dtd">
<!-- Generated by graphviz version 7.0.5 (20221223.1930)
 -->
<!-- Title: Ogre::D3D11RenderPassDescriptor Pages: 1 -->
<svg width="434pt" height="148pt"
 viewBox="0.00 0.00 433.50 148.00" xmlns="http://www.w3.org/2000/svg" xmlns:xlink="http://www.w3.org/1999/xlink">
<g id="graph0" class="graph" transform="scale(1 1) rotate(0) translate(4 144)">
<title>Ogre::D3D11RenderPassDescriptor</title>
<!-- Node1 -->
<g id="node1" class="node">
<title>Node1</title>
<g id="a_node1"><a xlink:title="D3D11 will share groups of ID3D11RenderTargetView all D3D11RenderPassDescriptor that share the same R...">
<polygon fill="#999999" stroke="#666666" points="295.5,-19 126.5,-19 126.5,0 295.5,0 295.5,-19"/>
<text text-anchor="middle" x="211" y="-7" font-family="Helvetica,sans-Serif" font-size="10.00">Ogre::D3D11RenderPassDescriptor</text>
</a>
</g>
</g>
<!-- Node2 -->
<g id="node2" class="node">
<title>Node2</title>
<g id="a_node2"><a xlink:href="class_ogre_1_1_render_pass_descriptor.html" target="_top" xlink:title=" ">
<polygon fill="white" stroke="#666666" points="140,-79.5 0,-79.5 0,-60.5 140,-60.5 140,-79.5"/>
<text text-anchor="middle" x="70" y="-67.5" font-family="Helvetica,sans-Serif" font-size="10.00">Ogre::RenderPassDescriptor</text>
</a>
</g>
</g>
<!-- Node2&#45;&gt;Node1 -->
<g id="edge1" class="edge">
<title>Node2&#45;&gt;Node1</title>
<path fill="none" stroke="#63b8ff" d="M101.79,-55.81C128.52,-44.72 166.01,-29.17 189.38,-19.47"/>
<polygon fill="#63b8ff" stroke="#63b8ff" points="100.71,-52.47 92.81,-59.54 103.39,-58.94 100.71,-52.47"/>
</g>
<!-- Node3 -->
<g id="node3" class="node">
<title>Node3</title>
<g id="a_node3"><a xlink:title=" ">
<polygon fill="white" stroke="#666666" points="129.5,-140 10.5,-140 10.5,-121 129.5,-121 129.5,-140"/>
<text text-anchor="middle" x="70" y="-128" font-family="Helvetica,sans-Serif" font-size="10.00">Ogre::OgreAllocatedObj</text>
</a>
</g>
</g>
<!-- Node3&#45;&gt;Node2 -->
<g id="edge2" class="edge">
<title>Node3&#45;&gt;Node2</title>
<path fill="none" stroke="#63b8ff" d="M70,-109.66C70,-99.45 70,-87.54 70,-79.67"/>
<polygon fill="#63b8ff" stroke="#63b8ff" points="66.5,-109.35 70,-119.35 73.5,-109.35 66.5,-109.35"/>
</g>
<!-- Node4 -->
<g id="node4" class="node">
<title>Node4</title>
<g id="a_node4"><a xlink:href="class_ogre_1_1_render_system_1_1_listener.html" target="_top" xlink:title="Defines a listener on the custom events that this render system can raise.">
<polygon fill="white" stroke="#666666" points="264,-85 158,-85 158,-55 264,-55 264,-85"/>
<text text-anchor="start" x="166" y="-73" font-family="Helvetica,sans-Serif" font-size="10.00">Ogre::RenderSystem</text>
<text text-anchor="middle" x="211" y="-62" font-family="Helvetica,sans-Serif" font-size="10.00">::Listener</text>
</a>
</g>
</g>
<!-- Node4&#45;&gt;Node1 -->
<g id="edge3" class="edge">
<title>Node4&#45;&gt;Node1</title>
<path fill="none" stroke="#63b8ff" d="M211,-43.3C211,-34.65 211,-25.58 211,-19.18"/>
<polygon fill="#63b8ff" stroke="#63b8ff" points="207.5,-43.03 211,-53.03 214.5,-43.03 207.5,-43.03"/>
</g>
<!-- Node5 -->
<g id="node5" class="node">
<title>Node5</title>
<g id="a_node5"><a xlink:href="class_ogre_1_1_d3_d11_device_resource.html" target="_top" xlink:title="Represents a Direct3D rendering resource.">
<polygon fill="white" stroke="#666666" points="425.5,-79.5 282.5,-79.5 282.5,-60.5 425.5,-60.5 425.5,-79.5"/>
<text text-anchor="middle" x="354" y="-67.5" font-family="Helvetica,sans-Serif" font-size="10.00">Ogre::D3D11DeviceResource</text>
</a>
</g>
</g>
<!-- Node5&#45;&gt;Node1 -->
<g id="edge4" class="edge">
<title>Node5&#45;&gt;Node1</title>
<path fill="none" stroke="#8b1a1a" d="M321.76,-55.81C294.65,-44.72 256.63,-29.17 232.92,-19.47"/>
<polygon fill="#8b1a1a" stroke="#8b1a1a" points="320.3,-59 330.88,-59.54 322.95,-52.52 320.3,-59"/>
</g>
</g>
</svg>
