<?xml version="1.0" encoding="UTF-8" standalone="no"?>
<!DOCTYPE svg PUBLIC "-//W3C//DTD SVG 1.1//EN"
 "http://www.w3.org/Graphics/SVG/1.1/DTD/svg11.dtd">
<!-- Generated by graphviz version 7.0.5 (20221223.1930)
 -->
<!-- Title: Ogre::v1::AnimationContainer Pages: 1 -->
<svg width="282pt" height="137pt"
 viewBox="0.00 0.00 281.50 137.00" xmlns="http://www.w3.org/2000/svg" xmlns:xlink="http://www.w3.org/1999/xlink">
<g id="graph0" class="graph" transform="scale(1 1) rotate(0) translate(4 133)">
<title>Ogre::v1::AnimationContainer</title>
<!-- Node1 -->
<g id="node1" class="node">
<title>Node1</title>
<g id="a_node1"><a xlink:title="An animation container interface, which allows generic access to sibling animations.">
<polygon fill="#999999" stroke="#666666" points="197.5,-129 55.5,-129 55.5,-110 197.5,-110 197.5,-129"/>
<text text-anchor="middle" x="126.5" y="-117" font-family="Helvetica,sans-Serif" font-size="10.00">Ogre::v1::AnimationContainer</text>
</a>
</g>
</g>
<!-- Node2 -->
<g id="node2" class="node">
<title>Node2</title>
<g id="a_node2"><a xlink:href="class_ogre_1_1v1_1_1_mesh.html" target="_top" xlink:title="Resource holding data about 3D mesh.">
<polygon fill="white" stroke="#666666" points="114,-74 33,-74 33,-55 114,-55 114,-74"/>
<text text-anchor="middle" x="73.5" y="-62" font-family="Helvetica,sans-Serif" font-size="10.00">Ogre::v1::Mesh</text>
</a>
</g>
</g>
<!-- Node1&#45;&gt;Node2 -->
<g id="edge1" class="edge">
<title>Node1&#45;&gt;Node2</title>
<path fill="none" stroke="#63b8ff" d="M109.78,-101.78C100.72,-92.72 89.9,-81.9 82.44,-74.44"/>
<polygon fill="#63b8ff" stroke="#63b8ff" points="107.13,-104.08 116.68,-108.68 112.08,-99.13 107.13,-104.08"/>
</g>
<!-- Node4 -->
<g id="node4" class="node">
<title>Node4</title>
<g id="a_node4"><a xlink:href="class_ogre_1_1v1_1_1_skeleton.html" target="_top" xlink:title="A collection of OldBone objects used to animate a skinned mesh.">
<polygon fill="white" stroke="#666666" points="237,-74 142,-74 142,-55 237,-55 237,-74"/>
<text text-anchor="middle" x="189.5" y="-62" font-family="Helvetica,sans-Serif" font-size="10.00">Ogre::v1::Skeleton</text>
</a>
</g>
</g>
<!-- Node1&#45;&gt;Node4 -->
<g id="edge3" class="edge">
<title>Node1&#45;&gt;Node4</title>
<path fill="none" stroke="#63b8ff" d="M145.68,-102.37C156.62,-93.16 169.91,-81.98 178.97,-74.36"/>
<polygon fill="#63b8ff" stroke="#63b8ff" points="143.74,-99.42 138.35,-108.53 148.25,-104.78 143.74,-99.42"/>
</g>
<!-- Node3 -->
<g id="node3" class="node">
<title>Node3</title>
<g id="a_node3"><a xlink:href="class_ogre_1_1v1_1_1_patch_mesh.html" target="_top" xlink:title="Patch specialisation of Mesh.">
<polygon fill="white" stroke="#666666" points="107,-19 0,-19 0,0 107,0 107,-19"/>
<text text-anchor="middle" x="53.5" y="-7" font-family="Helvetica,sans-Serif" font-size="10.00">Ogre::v1::PatchMesh</text>
</a>
</g>
</g>
<!-- Node2&#45;&gt;Node3 -->
<g id="edge2" class="edge">
<title>Node2&#45;&gt;Node3</title>
<path fill="none" stroke="#63b8ff" d="M66.22,-44.22C63.03,-35.74 59.43,-26.21 56.87,-19.44"/>
<polygon fill="#63b8ff" stroke="#63b8ff" points="62.86,-45.21 69.66,-53.33 69.41,-42.74 62.86,-45.21"/>
</g>
<!-- Node5 -->
<g id="node5" class="node">
<title>Node5</title>
<g id="a_node5"><a xlink:href="class_ogre_1_1v1_1_1_old_skeleton_instance.html" target="_top" xlink:title="A OldSkeletonInstance is a single instance of a Skeleton used by a world object.">
<polygon fill="white" stroke="#666666" points="273.5,-19 125.5,-19 125.5,0 273.5,0 273.5,-19"/>
<text text-anchor="middle" x="199.5" y="-7" font-family="Helvetica,sans-Serif" font-size="10.00">Ogre::v1::OldSkeletonInstance</text>
</a>
</g>
</g>
<!-- Node4&#45;&gt;Node5 -->
<g id="edge4" class="edge">
<title>Node4&#45;&gt;Node5</title>
<path fill="none" stroke="#63b8ff" d="M193.25,-43.64C194.82,-35.31 196.57,-26.05 197.81,-19.44"/>
<polygon fill="#63b8ff" stroke="#63b8ff" points="189.85,-42.79 191.43,-53.26 196.73,-44.08 189.85,-42.79"/>
</g>
</g>
</svg>
