<?xml version="1.0" encoding="UTF-8" standalone="no"?>
<!DOCTYPE svg PUBLIC "-//W3C//DTD SVG 1.1//EN"
 "http://www.w3.org/Graphics/SVG/1.1/DTD/svg11.dtd">
<!-- Generated by graphviz version 2.43.0 (0)
 -->
<!-- Title: Ogre::TextureFilter::FilterBase Pages: 1 -->
<svg width="442pt" height="235pt"
 viewBox="0.00 0.00 442.00 235.00" xmlns="http://www.w3.org/2000/svg" xmlns:xlink="http://www.w3.org/1999/xlink">
<g id="graph0" class="graph" transform="scale(1 1) rotate(0) translate(4 231)">
<title>Ogre::TextureFilter::FilterBase</title>
<!-- Node1 -->
<g id="node1" class="node">
<title>Node1</title>
<g id="a_node1"><a xlink:title=" ">
<polygon fill="#bfbfbf" stroke="black" points="138,-98.5 138,-128.5 245,-128.5 245,-98.5 138,-98.5"/>
<text text-anchor="start" x="146" y="-116.5" font-family="Helvetica,sans-Serif" font-size="10.00">Ogre::TextureFilter</text>
<text text-anchor="middle" x="191.5" y="-105.5" font-family="Helvetica,sans-Serif" font-size="10.00">::FilterBase</text>
</a>
</g>
</g>
<!-- Node3 -->
<g id="node3" class="node">
<title>Node3</title>
<g id="a_node3"><a xlink:href="class_ogre_1_1_texture_filter_1_1_generate_hw_mipmaps.html" target="_top" xlink:title=" ">
<polygon fill="none" stroke="black" points="293.5,-196.5 293.5,-226.5 421.5,-226.5 421.5,-196.5 293.5,-196.5"/>
<text text-anchor="start" x="301.5" y="-214.5" font-family="Helvetica,sans-Serif" font-size="10.00">Ogre::TextureFilter</text>
<text text-anchor="middle" x="357.5" y="-203.5" font-family="Helvetica,sans-Serif" font-size="10.00">::GenerateHwMipmaps</text>
</a>
</g>
</g>
<!-- Node1&#45;&gt;Node3 -->
<g id="edge2" class="edge">
<title>Node1&#45;&gt;Node3</title>
<path fill="none" stroke="midnightblue" d="M214,-135.64C230.89,-151.96 255.73,-173.62 281,-187.5 287.15,-190.88 293.84,-193.86 300.62,-196.47"/>
<polygon fill="midnightblue" stroke="midnightblue" points="216.4,-133.1 206.82,-128.57 211.49,-138.09 216.4,-133.1"/>
</g>
<!-- Node4 -->
<g id="node4" class="node">
<title>Node4</title>
<g id="a_node4"><a xlink:href="class_ogre_1_1_texture_filter_1_1_generate_sw_mipmaps.html" target="_top" xlink:title=" ">
<polygon fill="none" stroke="black" points="294,-147.5 294,-177.5 421,-177.5 421,-147.5 294,-147.5"/>
<text text-anchor="start" x="302" y="-165.5" font-family="Helvetica,sans-Serif" font-size="10.00">Ogre::TextureFilter</text>
<text text-anchor="middle" x="357.5" y="-154.5" font-family="Helvetica,sans-Serif" font-size="10.00">::GenerateSwMipmaps</text>
</a>
</g>
</g>
<!-- Node1&#45;&gt;Node4 -->
<g id="edge3" class="edge">
<title>Node1&#45;&gt;Node4</title>
<path fill="none" stroke="midnightblue" d="M252.63,-131.47C270.21,-136.72 289.22,-142.4 306.12,-147.45"/>
<polygon fill="midnightblue" stroke="midnightblue" points="253.63,-128.11 243.04,-128.6 251.62,-134.82 253.63,-128.11"/>
</g>
<!-- Node5 -->
<g id="node5" class="node">
<title>Node5</title>
<g id="a_node5"><a xlink:href="class_ogre_1_1_texture_filter_1_1_leave_channel_r.html" target="_top" xlink:title=" ">
<polygon fill="none" stroke="black" points="304,-98.5 304,-128.5 411,-128.5 411,-98.5 304,-98.5"/>
<text text-anchor="start" x="312" y="-116.5" font-family="Helvetica,sans-Serif" font-size="10.00">Ogre::TextureFilter</text>
<text text-anchor="middle" x="357.5" y="-105.5" font-family="Helvetica,sans-Serif" font-size="10.00">::LeaveChannelR</text>
</a>
</g>
</g>
<!-- Node1&#45;&gt;Node5 -->
<g id="edge4" class="edge">
<title>Node1&#45;&gt;Node5</title>
<path fill="none" stroke="midnightblue" d="M255.59,-113.5C271.52,-113.5 288.45,-113.5 303.81,-113.5"/>
<polygon fill="midnightblue" stroke="midnightblue" points="255.29,-110 245.29,-113.5 255.29,-117 255.29,-110"/>
</g>
<!-- Node6 -->
<g id="node6" class="node">
<title>Node6</title>
<g id="a_node6"><a xlink:href="class_ogre_1_1_texture_filter_1_1_premultiply_alpha.html" target="_top" xlink:title=" ">
<polygon fill="none" stroke="black" points="304,-49.5 304,-79.5 411,-79.5 411,-49.5 304,-49.5"/>
<text text-anchor="start" x="312" y="-67.5" font-family="Helvetica,sans-Serif" font-size="10.00">Ogre::TextureFilter</text>
<text text-anchor="middle" x="357.5" y="-56.5" font-family="Helvetica,sans-Serif" font-size="10.00">::PremultiplyAlpha</text>
</a>
</g>
</g>
<!-- Node1&#45;&gt;Node6 -->
<g id="edge5" class="edge">
<title>Node1&#45;&gt;Node6</title>
<path fill="none" stroke="midnightblue" d="M252.63,-95.53C270.21,-90.28 289.22,-84.6 306.12,-79.55"/>
<polygon fill="midnightblue" stroke="midnightblue" points="251.62,-92.18 243.04,-98.4 253.63,-98.89 251.62,-92.18"/>
</g>
<!-- Node7 -->
<g id="node7" class="node">
<title>Node7</title>
<g id="a_node7"><a xlink:href="class_ogre_1_1_texture_filter_1_1_prepare_for_normal_mapping.html" target="_top" xlink:title=" ">
<polygon fill="none" stroke="black" points="281,-0.5 281,-30.5 434,-30.5 434,-0.5 281,-0.5"/>
<text text-anchor="start" x="289" y="-18.5" font-family="Helvetica,sans-Serif" font-size="10.00">Ogre::TextureFilter</text>
<text text-anchor="middle" x="357.5" y="-7.5" font-family="Helvetica,sans-Serif" font-size="10.00">::PrepareForNormalMapping</text>
</a>
</g>
</g>
<!-- Node1&#45;&gt;Node7 -->
<g id="edge6" class="edge">
<title>Node1&#45;&gt;Node7</title>
<path fill="none" stroke="midnightblue" d="M214,-91.36C230.89,-75.04 255.73,-53.38 281,-39.5 287.15,-36.12 293.84,-33.14 300.62,-30.53"/>
<polygon fill="midnightblue" stroke="midnightblue" points="211.49,-88.91 206.82,-98.43 216.4,-93.9 211.49,-88.91"/>
</g>
<!-- Node2 -->
<g id="node2" class="node">
<title>Node2</title>
<g id="a_node2"><a xlink:title=" ">
<polygon fill="none" stroke="#bfbfbf" points="0,-104 0,-123 102,-123 102,-104 0,-104"/>
<text text-anchor="middle" x="51" y="-111" font-family="Helvetica,sans-Serif" font-size="10.00">OgreAllocatedObj</text>
</a>
</g>
</g>
<!-- Node2&#45;&gt;Node1 -->
<g id="edge1" class="edge">
<title>Node2&#45;&gt;Node1</title>
<path fill="none" stroke="midnightblue" d="M112.24,-113.5C120.74,-113.5 129.43,-113.5 137.77,-113.5"/>
<polygon fill="midnightblue" stroke="midnightblue" points="112,-110 102,-113.5 112,-117 112,-110"/>
</g>
</g>
</svg>
