<?xml version="1.0" encoding="UTF-8" standalone="no"?>
<!DOCTYPE svg PUBLIC "-//W3C//DTD SVG 1.1//EN"
 "http://www.w3.org/Graphics/SVG/1.1/DTD/svg11.dtd">
<!-- Generated by graphviz version 2.43.0 (0)
 -->
<!-- Title: Ogre::D3D11TexBufferPacked Pages: 1 -->
<svg width="392pt" height="196pt"
 viewBox="0.00 0.00 391.50 196.00" xmlns="http://www.w3.org/2000/svg" xmlns:xlink="http://www.w3.org/1999/xlink">
<g id="graph0" class="graph" transform="scale(1 1) rotate(0) translate(4 192)">
<title>Ogre::D3D11TexBufferPacked</title>
<!-- Node1 -->
<g id="node1" class="node">
<title>Node1</title>
<g id="a_node1"><a xlink:title=" ">
<polygon fill="#bfbfbf" stroke="black" points="145.5,-0.5 145.5,-19.5 303.5,-19.5 303.5,-0.5 145.5,-0.5"/>
<text text-anchor="middle" x="224.5" y="-7.5" font-family="Helvetica,sans-Serif" font-size="10.00">Ogre::D3D11TexBufferPacked</text>
</a>
</g>
</g>
<!-- Node2 -->
<g id="node2" class="node">
<title>Node2</title>
<g id="a_node2"><a xlink:href="class_ogre_1_1_tex_buffer_packed.html" target="_top" xlink:title="Represents Texture buffers (also known as tbuffers in D3D11)">
<polygon fill="none" stroke="black" points="82,-56.5 82,-75.5 207,-75.5 207,-56.5 82,-56.5"/>
<text text-anchor="middle" x="144.5" y="-63.5" font-family="Helvetica,sans-Serif" font-size="10.00">Ogre::TexBufferPacked</text>
</a>
</g>
</g>
<!-- Node2&#45;&gt;Node1 -->
<g id="edge1" class="edge">
<title>Node2&#45;&gt;Node1</title>
<path fill="none" stroke="midnightblue" d="M165.8,-50.62C180.42,-40.76 199.33,-27.99 211.68,-19.65"/>
<polygon fill="midnightblue" stroke="midnightblue" points="163.68,-47.83 157.35,-56.32 167.6,-53.63 163.68,-47.83"/>
</g>
<!-- Node3 -->
<g id="node3" class="node">
<title>Node3</title>
<g id="a_node3"><a xlink:href="class_ogre_1_1_buffer_packed.html" target="_top" xlink:title=" ">
<polygon fill="none" stroke="black" points="90,-112.5 90,-131.5 199,-131.5 199,-112.5 90,-112.5"/>
<text text-anchor="middle" x="144.5" y="-119.5" font-family="Helvetica,sans-Serif" font-size="10.00">Ogre::BufferPacked</text>
</a>
</g>
</g>
<!-- Node3&#45;&gt;Node2 -->
<g id="edge2" class="edge">
<title>Node3&#45;&gt;Node2</title>
<path fill="none" stroke="midnightblue" d="M144.5,-101.8C144.5,-92.91 144.5,-82.78 144.5,-75.75"/>
<polygon fill="midnightblue" stroke="midnightblue" points="141,-102.08 144.5,-112.08 148,-102.08 141,-102.08"/>
</g>
<!-- Node4 -->
<g id="node4" class="node">
<title>Node4</title>
<g id="a_node4"><a xlink:href="struct_ogre_1_1_gpu_tracked_resource.html" target="_top" xlink:title=" ">
<polygon fill="none" stroke="black" points="0,-168.5 0,-187.5 147,-187.5 147,-168.5 0,-168.5"/>
<text text-anchor="middle" x="73.5" y="-175.5" font-family="Helvetica,sans-Serif" font-size="10.00">Ogre::GpuTrackedResource</text>
</a>
</g>
</g>
<!-- Node4&#45;&gt;Node3 -->
<g id="edge3" class="edge">
<title>Node4&#45;&gt;Node3</title>
<path fill="none" stroke="midnightblue" d="M93.09,-162.1C105.87,-152.38 122.11,-140.03 132.89,-131.83"/>
<polygon fill="midnightblue" stroke="midnightblue" points="90.75,-159.48 84.91,-168.32 94.99,-165.06 90.75,-159.48"/>
</g>
<!-- Node5 -->
<g id="node5" class="node">
<title>Node5</title>
<g id="a_node5"><a xlink:title=" ">
<polygon fill="none" stroke="#bfbfbf" points="165.5,-168.5 165.5,-187.5 267.5,-187.5 267.5,-168.5 165.5,-168.5"/>
<text text-anchor="middle" x="216.5" y="-175.5" font-family="Helvetica,sans-Serif" font-size="10.00">OgreAllocatedObj</text>
</a>
</g>
</g>
<!-- Node5&#45;&gt;Node3 -->
<g id="edge4" class="edge">
<title>Node5&#45;&gt;Node3</title>
<path fill="none" stroke="midnightblue" d="M196.63,-162.1C183.68,-152.38 167.2,-140.03 156.28,-131.83"/>
<polygon fill="midnightblue" stroke="midnightblue" points="194.83,-165.12 204.93,-168.32 199.03,-159.52 194.83,-165.12"/>
</g>
<!-- Node6 -->
<g id="node6" class="node">
<title>Node6</title>
<g id="a_node6"><a xlink:href="class_ogre_1_1_d3_d11_device_resource.html" target="_top" xlink:title="Represents a Direct3D rendering resource.">
<polygon fill="none" stroke="black" points="225.5,-56.5 225.5,-75.5 383.5,-75.5 383.5,-56.5 225.5,-56.5"/>
<text text-anchor="middle" x="304.5" y="-63.5" font-family="Helvetica,sans-Serif" font-size="10.00">Ogre::D3D11DeviceResource</text>
</a>
</g>
</g>
<!-- Node6&#45;&gt;Node1 -->
<g id="edge5" class="edge">
<title>Node6&#45;&gt;Node1</title>
<path fill="none" stroke="#8b1a1a" d="M283.2,-50.62C268.58,-40.76 249.67,-27.99 237.32,-19.65"/>
<polygon fill="#8b1a1a" stroke="#8b1a1a" points="281.4,-53.63 291.65,-56.32 285.32,-47.83 281.4,-53.63"/>
</g>
</g>
</svg>
