<?xml version="1.0" encoding="UTF-8" standalone="no"?>
<!DOCTYPE svg PUBLIC "-//W3C//DTD SVG 1.1//EN"
 "http://www.w3.org/Graphics/SVG/1.1/DTD/svg11.dtd">
<!-- Generated by graphviz version 7.0.5 (20221223.1930)
 -->
<!-- Title: Ogre::CompositorPassDef Pages: 1 -->
<svg width="506pt" height="470pt"
 viewBox="0.00 0.00 506.00 469.50" xmlns="http://www.w3.org/2000/svg" xmlns:xlink="http://www.w3.org/1999/xlink">
<g id="graph0" class="graph" transform="scale(1 1) rotate(0) translate(4 465.5)">
<title>Ogre::CompositorPassDef</title>
<!-- Node1 -->
<g id="node1" class="node">
<title>Node1</title>
<g id="a_node1"><a xlink:title="Interface to abstract all types of pass definitions (see CompositorPassType):">
<polygon fill="#999999" stroke="#666666" points="284,-245.5 155,-245.5 155,-226.5 284,-226.5 284,-245.5"/>
<text text-anchor="middle" x="219.5" y="-233.5" font-family="Helvetica,sans-Serif" font-size="10.00">Ogre::CompositorPassDef</text>
</a>
</g>
</g>
<!-- Node3 -->
<g id="node3" class="node">
<title>Node3</title>
<g id="a_node3"><a xlink:href="class_ogre_1_1_compositor_pass_clear_def.html" target="_top" xlink:title=" ">
<polygon fill="white" stroke="#666666" points="485,-461.5 333,-461.5 333,-442.5 485,-442.5 485,-461.5"/>
<text text-anchor="middle" x="409" y="-449.5" font-family="Helvetica,sans-Serif" font-size="10.00">Ogre::CompositorPassClearDef</text>
</a>
</g>
</g>
<!-- Node1&#45;&gt;Node3 -->
<g id="edge2" class="edge">
<title>Node1&#45;&gt;Node3</title>
<path fill="none" stroke="#63b8ff" d="M224.69,-256.96C234.04,-297.92 260.61,-388.53 320,-434 324.21,-437.22 328.85,-439.91 333.74,-442.14"/>
<polygon fill="#63b8ff" stroke="#63b8ff" points="228.12,-256.26 222.6,-247.22 221.28,-257.73 228.12,-256.26"/>
</g>
<!-- Node4 -->
<g id="node4" class="node">
<title>Node4</title>
<g id="a_node4"><a xlink:href="class_ogre_1_1_compositor_pass_compute_def.html" target="_top" xlink:title=" ">
<polygon fill="white" stroke="#666666" points="493,-424.5 325,-424.5 325,-405.5 493,-405.5 493,-424.5"/>
<text text-anchor="middle" x="409" y="-412.5" font-family="Helvetica,sans-Serif" font-size="10.00">Ogre::CompositorPassComputeDef</text>
</a>
</g>
</g>
<!-- Node1&#45;&gt;Node4 -->
<g id="edge3" class="edge">
<title>Node1&#45;&gt;Node4</title>
<path fill="none" stroke="#63b8ff" d="M227.22,-256.46C239.68,-291.01 269.76,-360.62 320,-396 325.24,-399.69 331.06,-402.68 337.14,-405.11"/>
<polygon fill="#63b8ff" stroke="#63b8ff" points="230.61,-255.55 224.04,-247.24 223.99,-257.84 230.61,-255.55"/>
</g>
<!-- Node5 -->
<g id="node5" class="node">
<title>Node5</title>
<g id="a_node5"><a xlink:href="class_ogre_1_1_compositor_pass_depth_copy_def.html" target="_top" xlink:title=" ">
<polygon fill="white" stroke="#666666" points="479,-387 339,-387 339,-357 479,-357 479,-387"/>
<text text-anchor="start" x="347" y="-375" font-family="Helvetica,sans-Serif" font-size="10.00">Ogre::CompositorPassDepth</text>
<text text-anchor="middle" x="409" y="-364" font-family="Helvetica,sans-Serif" font-size="10.00">CopyDef</text>
</a>
</g>
</g>
<!-- Node1&#45;&gt;Node5 -->
<g id="edge4" class="edge">
<title>Node1&#45;&gt;Node5</title>
<path fill="none" stroke="#63b8ff" d="M232.46,-255.33C249.03,-280.48 281.32,-324 320,-348 325.79,-351.59 332.11,-354.65 338.63,-357.26"/>
<polygon fill="#63b8ff" stroke="#63b8ff" points="235.51,-253.6 227.17,-247.07 229.62,-257.38 235.51,-253.6"/>
</g>
<!-- Node6 -->
<g id="node6" class="node">
<title>Node6</title>
<g id="a_node6"><a xlink:href="class_ogre_1_1_compositor_pass_ibl_specular_def.html" target="_top" xlink:title=" ">
<polygon fill="white" stroke="#666666" points="498,-338.5 320,-338.5 320,-319.5 498,-319.5 498,-338.5"/>
<text text-anchor="middle" x="409" y="-326.5" font-family="Helvetica,sans-Serif" font-size="10.00">Ogre::CompositorPassIblSpecularDef</text>
</a>
</g>
</g>
<!-- Node1&#45;&gt;Node6 -->
<g id="edge5" class="edge">
<title>Node1&#45;&gt;Node6</title>
<path fill="none" stroke="#63b8ff" d="M238.43,-253.5C257.2,-270.8 288.31,-296.7 320,-311 327.11,-314.21 334.8,-316.85 342.57,-319.02"/>
<polygon fill="#63b8ff" stroke="#63b8ff" points="241.03,-251.14 231.35,-246.82 236.22,-256.23 241.03,-251.14"/>
</g>
<!-- Node7 -->
<g id="node7" class="node">
<title>Node7</title>
<g id="a_node7"><a xlink:href="class_ogre_1_1_compositor_pass_mipmap_def.html" target="_top" xlink:title=" ">
<polygon fill="white" stroke="#666666" points="491,-301.5 327,-301.5 327,-282.5 491,-282.5 491,-301.5"/>
<text text-anchor="middle" x="409" y="-289.5" font-family="Helvetica,sans-Serif" font-size="10.00">Ogre::CompositorPassMipmapDef</text>
</a>
</g>
</g>
<!-- Node1&#45;&gt;Node7 -->
<g id="edge6" class="edge">
<title>Node1&#45;&gt;Node7</title>
<path fill="none" stroke="#63b8ff" d="M254.01,-250.37C273.09,-258.15 297.59,-267.48 320,-274 330.33,-277.01 341.49,-279.7 352.27,-282.03"/>
<polygon fill="#63b8ff" stroke="#63b8ff" points="255.43,-247.17 244.85,-246.57 252.75,-253.63 255.43,-247.17"/>
</g>
<!-- Node8 -->
<g id="node8" class="node">
<title>Node8</title>
<g id="a_node8"><a xlink:href="class_ogre_1_1_compositor_pass_quad_def.html" target="_top" xlink:title=" ">
<polygon fill="white" stroke="#666666" points="485,-264.5 333,-264.5 333,-245.5 485,-245.5 485,-264.5"/>
<text text-anchor="middle" x="409" y="-252.5" font-family="Helvetica,sans-Serif" font-size="10.00">Ogre::CompositorPassQuadDef</text>
</a>
</g>
</g>
<!-- Node1&#45;&gt;Node8 -->
<g id="edge7" class="edge">
<title>Node1&#45;&gt;Node8</title>
<path fill="none" stroke="#63b8ff" d="M295.39,-243.59C307.7,-244.84 320.46,-246.13 332.78,-247.38"/>
<polygon fill="#63b8ff" stroke="#63b8ff" points="296.05,-240.14 285.75,-242.61 295.34,-247.1 296.05,-240.14"/>
</g>
<!-- Node9 -->
<g id="node9" class="node">
<title>Node9</title>
<g id="a_node9"><a xlink:href="class_ogre_1_1_compositor_pass_scene_def.html" target="_top" xlink:title=" ">
<polygon fill="white" stroke="#666666" points="487.5,-227.5 330.5,-227.5 330.5,-208.5 487.5,-208.5 487.5,-227.5"/>
<text text-anchor="middle" x="409" y="-215.5" font-family="Helvetica,sans-Serif" font-size="10.00">Ogre::CompositorPassSceneDef</text>
</a>
</g>
</g>
<!-- Node1&#45;&gt;Node9 -->
<g id="edge8" class="edge">
<title>Node1&#45;&gt;Node9</title>
<path fill="none" stroke="#63b8ff" d="M295.49,-228.8C306.89,-227.71 318.68,-226.57 330.15,-225.47"/>
<polygon fill="#63b8ff" stroke="#63b8ff" points="295.37,-225.3 285.75,-229.74 296.04,-232.26 295.37,-225.3"/>
</g>
<!-- Node10 -->
<g id="node10" class="node">
<title>Node10</title>
<g id="a_node10"><a xlink:href="class_ogre_1_1_compositor_pass_shadows_def.html" target="_top" xlink:title=" ">
<polygon fill="white" stroke="#666666" points="494,-190.5 324,-190.5 324,-171.5 494,-171.5 494,-190.5"/>
<text text-anchor="middle" x="409" y="-178.5" font-family="Helvetica,sans-Serif" font-size="10.00">Ogre::CompositorPassShadowsDef</text>
</a>
</g>
</g>
<!-- Node1&#45;&gt;Node10 -->
<g id="edge9" class="edge">
<title>Node1&#45;&gt;Node10</title>
<path fill="none" stroke="#63b8ff" d="M254.42,-221.9C273.46,-214.37 297.78,-205.36 320,-199 330.49,-196 341.83,-193.29 352.76,-190.94"/>
<polygon fill="#63b8ff" stroke="#63b8ff" points="253.26,-218.6 245.28,-225.57 255.87,-225.09 253.26,-218.6"/>
</g>
<!-- Node11 -->
<g id="node11" class="node">
<title>Node11</title>
<g id="a_node11"><a xlink:href="class_ogre_1_1_compositor_pass_stencil_def.html" target="_top" xlink:title=" ">
<polygon fill="white" stroke="#666666" points="488.5,-153.5 329.5,-153.5 329.5,-134.5 488.5,-134.5 488.5,-153.5"/>
<text text-anchor="middle" x="409" y="-141.5" font-family="Helvetica,sans-Serif" font-size="10.00">Ogre::CompositorPassStencilDef</text>
</a>
</g>
</g>
<!-- Node1&#45;&gt;Node11 -->
<g id="edge10" class="edge">
<title>Node1&#45;&gt;Node11</title>
<path fill="none" stroke="#63b8ff" d="M238.77,-218.47C257.61,-201.41 288.59,-176.05 320,-162 327.26,-158.75 335.12,-156.08 343.05,-153.89"/>
<polygon fill="#63b8ff" stroke="#63b8ff" points="236.61,-215.7 231.66,-225.07 241.37,-220.83 236.61,-215.7"/>
</g>
<!-- Node12 -->
<g id="node12" class="node">
<title>Node12</title>
<g id="a_node12"><a xlink:href="class_ogre_1_1_compositor_pass_target_barrier_def.html" target="_top" xlink:title=" ">
<polygon fill="white" stroke="#666666" points="480,-116 338,-116 338,-86 480,-86 480,-116"/>
<text text-anchor="start" x="346" y="-104" font-family="Helvetica,sans-Serif" font-size="10.00">Ogre::CompositorPassTarget</text>
<text text-anchor="middle" x="409" y="-93" font-family="Helvetica,sans-Serif" font-size="10.00">BarrierDef</text>
</a>
</g>
</g>
<!-- Node1&#45;&gt;Node12 -->
<g id="edge11" class="edge">
<title>Node1&#45;&gt;Node12</title>
<path fill="none" stroke="#63b8ff" d="M232.51,-216.84C249.12,-191.93 281.46,-148.79 320,-125 325.52,-121.59 331.54,-118.66 337.74,-116.13"/>
<polygon fill="#63b8ff" stroke="#63b8ff" points="229.7,-214.73 227.2,-225.02 235.58,-218.54 229.7,-214.73"/>
</g>
<!-- Node13 -->
<g id="node13" class="node">
<title>Node13</title>
<g id="a_node13"><a xlink:href="class_ogre_1_1_compositor_pass_uav_def.html" target="_top" xlink:title=" ">
<polygon fill="white" stroke="#666666" points="482.5,-67.5 335.5,-67.5 335.5,-48.5 482.5,-48.5 482.5,-67.5"/>
<text text-anchor="middle" x="409" y="-55.5" font-family="Helvetica,sans-Serif" font-size="10.00">Ogre::CompositorPassUavDef</text>
</a>
</g>
</g>
<!-- Node1&#45;&gt;Node13 -->
<g id="edge12" class="edge">
<title>Node1&#45;&gt;Node13</title>
<path fill="none" stroke="#63b8ff" d="M227.26,-215.67C239.77,-181.33 269.94,-112.15 320,-77 325.24,-73.32 331.07,-70.33 337.15,-67.9"/>
<polygon fill="#63b8ff" stroke="#63b8ff" points="224.05,-214.23 224.06,-224.82 230.66,-216.53 224.05,-214.23"/>
</g>
<!-- Node14 -->
<g id="node14" class="node">
<title>Node14</title>
<g id="a_node14"><a xlink:href="class_ogre_1_1_compositor_pass_warm_up_def.html" target="_top" xlink:title=" ">
<polygon fill="white" stroke="#666666" points="479,-30 339,-30 339,0 479,0 479,-30"/>
<text text-anchor="start" x="347" y="-18" font-family="Helvetica,sans-Serif" font-size="10.00">Ogre::CompositorPassWarm</text>
<text text-anchor="middle" x="409" y="-7" font-family="Helvetica,sans-Serif" font-size="10.00">UpDef</text>
</a>
</g>
</g>
<!-- Node1&#45;&gt;Node14 -->
<g id="edge13" class="edge">
<title>Node1&#45;&gt;Node14</title>
<path fill="none" stroke="#63b8ff" d="M225.12,-214.9C235.1,-174.46 262.56,-85.89 320,-39 325.64,-34.39 332.1,-30.67 338.89,-27.65"/>
<polygon fill="#63b8ff" stroke="#63b8ff" points="221.74,-214.01 222.87,-224.55 228.55,-215.6 221.74,-214.01"/>
</g>
<!-- Node2 -->
<g id="node2" class="node">
<title>Node2</title>
<g id="a_node2"><a xlink:title=" ">
<polygon fill="white" stroke="#666666" points="119,-245.5 0,-245.5 0,-226.5 119,-226.5 119,-245.5"/>
<text text-anchor="middle" x="59.5" y="-233.5" font-family="Helvetica,sans-Serif" font-size="10.00">Ogre::OgreAllocatedObj</text>
</a>
</g>
</g>
<!-- Node2&#45;&gt;Node1 -->
<g id="edge1" class="edge">
<title>Node2&#45;&gt;Node1</title>
<path fill="none" stroke="#63b8ff" d="M130.81,-236C138.72,-236 146.75,-236 154.58,-236"/>
<polygon fill="#63b8ff" stroke="#63b8ff" points="130.85,-232.5 120.85,-236 130.85,-239.5 130.85,-232.5"/>
</g>
</g>
</svg>
