<?xml version="1.0" encoding="UTF-8" standalone="no"?>
<!DOCTYPE svg PUBLIC "-//W3C//DTD SVG 1.1//EN"
 "http://www.w3.org/Graphics/SVG/1.1/DTD/svg11.dtd">
<!-- Generated by graphviz version 7.0.5 (20221223.1930)
 -->
<!-- Title: Ogre::TextureGpuManager Pages: 1 -->
<svg width="506pt" height="175pt"
 viewBox="0.00 0.00 506.00 175.00" xmlns="http://www.w3.org/2000/svg" xmlns:xlink="http://www.w3.org/1999/xlink">
<g id="graph0" class="graph" transform="scale(1 1) rotate(0) translate(4 171)">
<title>Ogre::TextureGpuManager</title>
<!-- Node1 -->
<g id="node1" class="node">
<title>Node1</title>
<g id="a_node1"><a xlink:title="This class manages all textures (i.e.">
<polygon fill="#999999" stroke="#666666" points="294,-93 164,-93 164,-74 294,-74 294,-93"/>
<text text-anchor="middle" x="229" y="-81" font-family="Helvetica,sans-Serif" font-size="10.00">Ogre::TextureGpuManager</text>
</a>
</g>
</g>
<!-- Node4 -->
<g id="node4" class="node">
<title>Node4</title>
<g id="a_node4"><a xlink:href="class_ogre_1_1_d3_d11_texture_gpu_manager.html" target="_top" xlink:title=" ">
<polygon fill="white" stroke="#666666" points="493.5,-167 334.5,-167 334.5,-148 493.5,-148 493.5,-167"/>
<text text-anchor="middle" x="414" y="-155" font-family="Helvetica,sans-Serif" font-size="10.00">Ogre::D3D11TextureGpuManager</text>
</a>
</g>
</g>
<!-- Node1&#45;&gt;Node4 -->
<g id="edge3" class="edge">
<title>Node1&#45;&gt;Node4</title>
<path fill="none" stroke="#63b8ff" d="M254.21,-99.77C273.87,-112.3 302.71,-129.17 330,-139.5 338.27,-142.63 347.23,-145.29 356.09,-147.51"/>
<polygon fill="#63b8ff" stroke="#63b8ff" points="256.13,-96.84 245.84,-94.32 252.31,-102.71 256.13,-96.84"/>
</g>
<!-- Node5 -->
<g id="node5" class="node">
<title>Node5</title>
<g id="a_node5"><a xlink:href="class_ogre_1_1_g_l3_plus_texture_gpu_manager.html" target="_top" xlink:title=" ">
<polygon fill="white" stroke="#666666" points="498,-130 330,-130 330,-111 498,-111 498,-130"/>
<text text-anchor="middle" x="414" y="-118" font-family="Helvetica,sans-Serif" font-size="10.00">Ogre::GL3PlusTextureGpuManager</text>
</a>
</g>
</g>
<!-- Node1&#45;&gt;Node5 -->
<g id="edge4" class="edge">
<title>Node1&#45;&gt;Node5</title>
<path fill="none" stroke="#63b8ff" d="M290.12,-95.65C314,-100.48 341.14,-105.97 363.82,-110.56"/>
<polygon fill="#63b8ff" stroke="#63b8ff" points="291.02,-92.27 280.52,-93.72 289.63,-99.13 291.02,-92.27"/>
</g>
<!-- Node6 -->
<g id="node6" class="node">
<title>Node6</title>
<g id="a_node6"><a xlink:href="class_ogre_1_1_metal_texture_gpu_manager.html" target="_top" xlink:title=" ">
<polygon fill="white" stroke="#666666" points="491,-93 337,-93 337,-74 491,-74 491,-93"/>
<text text-anchor="middle" x="414" y="-81" font-family="Helvetica,sans-Serif" font-size="10.00">Ogre::MetalTextureGpuManager</text>
</a>
</g>
</g>
<!-- Node1&#45;&gt;Node6 -->
<g id="edge5" class="edge">
<title>Node1&#45;&gt;Node6</title>
<path fill="none" stroke="#63b8ff" d="M305.67,-83.5C315.9,-83.5 326.41,-83.5 336.65,-83.5"/>
<polygon fill="#63b8ff" stroke="#63b8ff" points="305.78,-80 295.78,-83.5 305.78,-87 305.78,-80"/>
</g>
<!-- Node7 -->
<g id="node7" class="node">
<title>Node7</title>
<g id="a_node7"><a xlink:href="class_ogre_1_1_n_u_l_l_texture_gpu_manager.html" target="_top" xlink:title=" ">
<polygon fill="white" stroke="#666666" points="492.5,-56 335.5,-56 335.5,-37 492.5,-37 492.5,-56"/>
<text text-anchor="middle" x="414" y="-44" font-family="Helvetica,sans-Serif" font-size="10.00">Ogre::NULLTextureGpuManager</text>
</a>
</g>
</g>
<!-- Node1&#45;&gt;Node7 -->
<g id="edge6" class="edge">
<title>Node1&#45;&gt;Node7</title>
<path fill="none" stroke="#63b8ff" d="M290.12,-71.35C314,-66.52 341.14,-61.03 363.82,-56.44"/>
<polygon fill="#63b8ff" stroke="#63b8ff" points="289.63,-67.87 280.52,-73.28 291.02,-74.73 289.63,-67.87"/>
</g>
<!-- Node8 -->
<g id="node8" class="node">
<title>Node8</title>
<g id="a_node8"><a xlink:href="class_ogre_1_1_vulkan_texture_gpu_manager.html" target="_top" xlink:title=" ">
<polygon fill="white" stroke="#666666" points="494,-19 334,-19 334,0 494,0 494,-19"/>
<text text-anchor="middle" x="414" y="-7" font-family="Helvetica,sans-Serif" font-size="10.00">Ogre::VulkanTextureGpuManager</text>
</a>
</g>
</g>
<!-- Node1&#45;&gt;Node8 -->
<g id="edge7" class="edge">
<title>Node1&#45;&gt;Node8</title>
<path fill="none" stroke="#63b8ff" d="M254.21,-67.23C273.87,-54.7 302.71,-37.83 330,-27.5 338.27,-24.37 347.23,-21.71 356.09,-19.49"/>
<polygon fill="#63b8ff" stroke="#63b8ff" points="252.31,-64.29 245.84,-72.68 256.13,-70.16 252.31,-64.29"/>
</g>
<!-- Node2 -->
<g id="node2" class="node">
<title>Node2</title>
<g id="a_node2"><a xlink:title=" ">
<polygon fill="white" stroke="#666666" points="123.5,-112 4.5,-112 4.5,-93 123.5,-93 123.5,-112"/>
<text text-anchor="middle" x="64" y="-100" font-family="Helvetica,sans-Serif" font-size="10.00">Ogre::OgreAllocatedObj</text>
</a>
</g>
</g>
<!-- Node2&#45;&gt;Node1 -->
<g id="edge1" class="edge">
<title>Node2&#45;&gt;Node1</title>
<path fill="none" stroke="#63b8ff" d="M135.25,-94.31C144.71,-93.21 154.37,-92.08 163.72,-90.99"/>
<polygon fill="#63b8ff" stroke="#63b8ff" points="134.88,-90.83 125.35,-95.47 135.69,-97.78 134.88,-90.83"/>
</g>
<!-- Node3 -->
<g id="node3" class="node">
<title>Node3</title>
<g id="a_node3"><a xlink:href="class_ogre_1_1_texture_gpu_listener.html" target="_top" xlink:title=" ">
<polygon fill="white" stroke="#666666" points="128,-75 0,-75 0,-56 128,-56 128,-75"/>
<text text-anchor="middle" x="64" y="-63" font-family="Helvetica,sans-Serif" font-size="10.00">Ogre::TextureGpuListener</text>
</a>
</g>
</g>
<!-- Node3&#45;&gt;Node1 -->
<g id="edge2" class="edge">
<title>Node3&#45;&gt;Node1</title>
<path fill="none" stroke="#63b8ff" d="M139.69,-73.75C147.68,-74.63 155.76,-75.52 163.61,-76.39"/>
<polygon fill="#63b8ff" stroke="#63b8ff" points="140.31,-70.3 129.99,-72.68 139.55,-77.25 140.31,-70.3"/>
</g>
</g>
</svg>
