<?xml version="1.0" encoding="UTF-8" standalone="no"?>
<!DOCTYPE svg PUBLIC "-//W3C//DTD SVG 1.1//EN"
 "http://www.w3.org/Graphics/SVG/1.1/DTD/svg11.dtd">
<!-- Generated by graphviz version 2.43.0 (0)
 -->
<!-- Title: Ogre::AbsolutePixelCountLodStrategy Pages: 1 -->
<svg width="352pt" height="214pt"
 viewBox="0.00 0.00 352.00 214.00" xmlns="http://www.w3.org/2000/svg" xmlns:xlink="http://www.w3.org/1999/xlink">
<g id="graph0" class="graph" transform="scale(1 1) rotate(0) translate(4 210)">
<title>Ogre::AbsolutePixelCountLodStrategy</title>
<!-- Node1 -->
<g id="Node000001" class="node">
<title>Node1</title>
<g id="a_Node000001"><a xlink:title="The AbsolutePixelCountLodStrategy class LOD strategy that works like ScreenRatioPixelCountLodStrategy...">
<polygon fill="#999999" stroke="#666666" points="250,-30 110,-30 110,0 250,0 250,-30"/>
<text text-anchor="start" x="118" y="-18" font-family="Helvetica,sans-Serif" font-size="10.00">Ogre::AbsolutePixelCount</text>
<text text-anchor="middle" x="180" y="-7" font-family="Helvetica,sans-Serif" font-size="10.00">LodStrategy</text>
</a>
</g>
</g>
<!-- Node2 -->
<g id="Node000002" class="node">
<title>Node2</title>
<g id="a_Node000002"><a xlink:href="class_ogre_1_1_pixel_count_lod_strategy_base.html" target="_top" xlink:title="Abstract base class for level of detail strategy based on pixel count approximations from bounding sp...">
<polygon fill="white" stroke="#666666" points="180,-90.5 0,-90.5 0,-71.5 180,-71.5 180,-90.5"/>
<text text-anchor="middle" x="90" y="-78.5" font-family="Helvetica,sans-Serif" font-size="10.00">Ogre::PixelCountLodStrategyBase</text>
</a>
</g>
</g>
<!-- Node2&#45;&gt;Node1 -->
<g id="edge1_Node000001_Node000002" class="edge">
<title>Node2&#45;&gt;Node1</title>
<g id="a_edge1_Node000001_Node000002"><a xlink:title=" ">
<path fill="none" stroke="#63b8ff" d="M110.65,-65.32C125.52,-54.74 145.47,-40.56 160.15,-30.12"/>
<polygon fill="#63b8ff" stroke="#63b8ff" points="108.26,-62.72 102.14,-71.37 112.32,-68.43 108.26,-62.72"/>
</a>
</g>
</g>
<!-- Node3 -->
<g id="Node000003" class="node">
<title>Node3</title>
<g id="a_Node000003"><a xlink:href="class_ogre_1_1_lod_strategy.html" target="_top" xlink:title="Strategy for determining level of detail.">
<polygon fill="white" stroke="#666666" points="142,-151 38,-151 38,-132 142,-132 142,-151"/>
<text text-anchor="middle" x="90" y="-139" font-family="Helvetica,sans-Serif" font-size="10.00">Ogre::LodStrategy</text>
</a>
</g>
</g>
<!-- Node3&#45;&gt;Node2 -->
<g id="edge2_Node000002_Node000003" class="edge">
<title>Node3&#45;&gt;Node2</title>
<g id="a_edge2_Node000002_Node000003"><a xlink:title=" ">
<path fill="none" stroke="#63b8ff" d="M90,-121.66C90,-111.24 90,-98.8 90,-90.67"/>
<polygon fill="#63b8ff" stroke="#63b8ff" points="86.5,-121.87 90,-131.87 93.5,-121.87 86.5,-121.87"/>
</a>
</g>
</g>
<!-- Node4 -->
<g id="Node000004" class="node">
<title>Node4</title>
<g id="a_Node000004"><a xlink:title=" ">
<polygon fill="white" stroke="#666666" points="155.5,-206 24.5,-206 24.5,-187 155.5,-187 155.5,-206"/>
<text text-anchor="middle" x="90" y="-194" font-family="Helvetica,sans-Serif" font-size="10.00">Ogre::OgreAllocatedObj</text>
</a>
</g>
</g>
<!-- Node4&#45;&gt;Node3 -->
<g id="edge3_Node000003_Node000004" class="edge">
<title>Node4&#45;&gt;Node3</title>
<g id="a_edge3_Node000003_Node000004"><a xlink:title=" ">
<path fill="none" stroke="#63b8ff" d="M90,-176.66C90,-167.93 90,-157.99 90,-151.09"/>
<polygon fill="#63b8ff" stroke="#63b8ff" points="86.5,-176.75 90,-186.75 93.5,-176.75 86.5,-176.75"/>
</a>
</g>
</g>
<!-- Node5 -->
<g id="Node000005" class="node">
<title>Node5</title>
<g id="a_Node000005"><a xlink:href="class_ogre_1_1_singleton.html" target="_top" xlink:title=" ">
<polygon fill="white" stroke="#666666" points="344,-96 198,-96 198,-66 344,-66 344,-96"/>
<text text-anchor="start" x="206" y="-84" font-family="Helvetica,sans-Serif" font-size="10.00">Ogre::Singleton&lt; Absolute</text>
<text text-anchor="middle" x="271" y="-73" font-family="Helvetica,sans-Serif" font-size="10.00">PixelCountLodStrategy &gt;</text>
</a>
</g>
</g>
<!-- Node5&#45;&gt;Node1 -->
<g id="edge4_Node000001_Node000005" class="edge">
<title>Node5&#45;&gt;Node1</title>
<g id="a_edge4_Node000001_Node000005"><a xlink:title=" ">
<path fill="none" stroke="#63b8ff" d="M242.6,-60.03C228.83,-50.34 212.62,-38.94 200.14,-30.16"/>
<polygon fill="#63b8ff" stroke="#63b8ff" points="240.61,-62.91 250.8,-65.8 244.64,-57.18 240.61,-62.91"/>
</a>
</g>
</g>
</g>
</svg>
