<?xml version="1.0" encoding="UTF-8" standalone="no"?>
<!DOCTYPE svg PUBLIC "-//W3C//DTD SVG 1.1//EN"
 "http://www.w3.org/Graphics/SVG/1.1/DTD/svg11.dtd">
<!-- Generated by graphviz version 2.43.0 (0)
 -->
<!-- Title: Ogre::ParticleEmitterFactory Pages: 1 -->
<svg width="493pt" height="230pt"
 viewBox="0.00 0.00 493.00 230.00" xmlns="http://www.w3.org/2000/svg" xmlns:xlink="http://www.w3.org/1999/xlink">
<g id="graph0" class="graph" transform="scale(1 1) rotate(0) translate(4 226)">
<title>Ogre::ParticleEmitterFactory</title>
<!-- Node1 -->
<g id="node1" class="node">
<title>Node1</title>
<g id="a_node1"><a xlink:title="Abstract class defining the interface to be implemented by creators of ParticleEmitter subclasses.">
<polygon fill="#bfbfbf" stroke="black" points="138,-104.5 138,-123.5 291,-123.5 291,-104.5 138,-104.5"/>
<text text-anchor="middle" x="214.5" y="-111.5" font-family="Helvetica,sans-Serif" font-size="10.00">Ogre::ParticleEmitterFactory</text>
</a>
</g>
</g>
<!-- Node3 -->
<g id="node3" class="node">
<title>Node3</title>
<g id="a_node3"><a xlink:href="class_ogre_1_1_box_emitter_factory.html" target="_top" xlink:title="Factory class for particle emitter of type &quot;Box&quot;.">
<polygon fill="none" stroke="black" points="338,-202.5 338,-221.5 474,-221.5 474,-202.5 338,-202.5"/>
<text text-anchor="middle" x="406" y="-209.5" font-family="Helvetica,sans-Serif" font-size="10.00">Ogre::BoxEmitterFactory</text>
</a>
</g>
</g>
<!-- Node1&#45;&gt;Node3 -->
<g id="edge2" class="edge">
<title>Node1&#45;&gt;Node3</title>
<path fill="none" stroke="midnightblue" d="M233.82,-130.33C254.87,-148.26 291.14,-176.65 327,-193 335.37,-196.82 344.61,-199.93 353.71,-202.44"/>
<polygon fill="midnightblue" stroke="midnightblue" points="235.88,-127.48 226.03,-123.58 231.29,-132.77 235.88,-127.48"/>
</g>
<!-- Node4 -->
<g id="node4" class="node">
<title>Node4</title>
<g id="a_node4"><a xlink:href="class_ogre_1_1_cylinder_emitter_factory.html" target="_top" xlink:title="Factory class for particle emitter of type &quot;Cylinder&quot;.">
<polygon fill="none" stroke="black" points="327,-164.5 327,-183.5 485,-183.5 485,-164.5 327,-164.5"/>
<text text-anchor="middle" x="406" y="-171.5" font-family="Helvetica,sans-Serif" font-size="10.00">Ogre::CylinderEmitterFactory</text>
</a>
</g>
</g>
<!-- Node1&#45;&gt;Node4 -->
<g id="edge3" class="edge">
<title>Node1&#45;&gt;Node4</title>
<path fill="none" stroke="midnightblue" d="M248.69,-127.33C270.69,-135.88 300.31,-146.87 327,-155 338.2,-158.41 350.45,-161.63 361.85,-164.41"/>
<polygon fill="midnightblue" stroke="midnightblue" points="249.75,-123.98 239.16,-123.59 247.19,-130.5 249.75,-123.98"/>
</g>
<!-- Node5 -->
<g id="node5" class="node">
<title>Node5</title>
<g id="a_node5"><a xlink:href="class_ogre_1_1_ellipsoid_emitter_factory.html" target="_top" xlink:title="Factory class for particle emitter of type &quot;Ellipsoid&quot;.">
<polygon fill="none" stroke="black" points="327,-126.5 327,-145.5 485,-145.5 485,-126.5 327,-126.5"/>
<text text-anchor="middle" x="406" y="-133.5" font-family="Helvetica,sans-Serif" font-size="10.00">Ogre::EllipsoidEmitterFactory</text>
</a>
</g>
</g>
<!-- Node1&#45;&gt;Node5 -->
<g id="edge4" class="edge">
<title>Node1&#45;&gt;Node5</title>
<path fill="none" stroke="midnightblue" d="M301.21,-123.95C309.78,-124.95 318.44,-125.95 326.93,-126.94"/>
<polygon fill="midnightblue" stroke="midnightblue" points="301.55,-120.47 291.21,-122.79 300.74,-127.42 301.55,-120.47"/>
</g>
<!-- Node6 -->
<g id="node6" class="node">
<title>Node6</title>
<g id="a_node6"><a xlink:href="class_ogre_1_1_hollow_ellipsoid_emitter_factory.html" target="_top" xlink:title="Factory class for particle emitter of type &quot;HollowEllipsoid&quot;.">
<polygon fill="none" stroke="black" points="327.5,-77 327.5,-107 484.5,-107 484.5,-77 327.5,-77"/>
<text text-anchor="start" x="335.5" y="-95" font-family="Helvetica,sans-Serif" font-size="10.00">Ogre::HollowEllipsoidEmitter</text>
<text text-anchor="middle" x="406" y="-84" font-family="Helvetica,sans-Serif" font-size="10.00">Factory</text>
</a>
</g>
</g>
<!-- Node1&#45;&gt;Node6 -->
<g id="edge5" class="edge">
<title>Node1&#45;&gt;Node6</title>
<path fill="none" stroke="midnightblue" d="M301.3,-104.04C309.94,-103.04 318.69,-102.02 327.24,-101.03"/>
<polygon fill="midnightblue" stroke="midnightblue" points="300.74,-100.58 291.21,-105.21 301.55,-107.53 300.74,-100.58"/>
</g>
<!-- Node7 -->
<g id="node7" class="node">
<title>Node7</title>
<g id="a_node7"><a xlink:href="class_ogre_1_1_point_emitter_factory.html" target="_top" xlink:title="Factory class for particle emitter of type &quot;Point&quot;.">
<polygon fill="none" stroke="black" points="335,-38.5 335,-57.5 477,-57.5 477,-38.5 335,-38.5"/>
<text text-anchor="middle" x="406" y="-45.5" font-family="Helvetica,sans-Serif" font-size="10.00">Ogre::PointEmitterFactory</text>
</a>
</g>
</g>
<!-- Node1&#45;&gt;Node7 -->
<g id="edge6" class="edge">
<title>Node1&#45;&gt;Node7</title>
<path fill="none" stroke="midnightblue" d="M244.89,-100.09C267.09,-89.95 298.5,-76.41 327,-67 337.72,-63.46 349.47,-60.26 360.51,-57.53"/>
<polygon fill="midnightblue" stroke="midnightblue" points="243.29,-96.97 235.68,-104.34 246.22,-103.33 243.29,-96.97"/>
</g>
<!-- Node8 -->
<g id="node8" class="node">
<title>Node8</title>
<g id="a_node8"><a xlink:href="class_ogre_1_1_ring_emitter_factory.html" target="_top" xlink:title="Factory class for particle emitter of type &quot;Ring&quot;.">
<polygon fill="none" stroke="black" points="336.5,-0.5 336.5,-19.5 475.5,-19.5 475.5,-0.5 336.5,-0.5"/>
<text text-anchor="middle" x="406" y="-7.5" font-family="Helvetica,sans-Serif" font-size="10.00">Ogre::RingEmitterFactory</text>
</a>
</g>
</g>
<!-- Node1&#45;&gt;Node8 -->
<g id="edge7" class="edge">
<title>Node1&#45;&gt;Node8</title>
<path fill="none" stroke="midnightblue" d="M232.33,-97.53C252.96,-78.27 289.76,-46.77 327,-29 335.05,-25.16 343.95,-22.05 352.77,-19.55"/>
<polygon fill="midnightblue" stroke="midnightblue" points="229.85,-95.06 225.01,-104.49 234.67,-100.14 229.85,-95.06"/>
</g>
<!-- Node2 -->
<g id="node2" class="node">
<title>Node2</title>
<g id="a_node2"><a xlink:title=" ">
<polygon fill="none" stroke="#bfbfbf" points="0,-104.5 0,-123.5 102,-123.5 102,-104.5 0,-104.5"/>
<text text-anchor="middle" x="51" y="-111.5" font-family="Helvetica,sans-Serif" font-size="10.00">OgreAllocatedObj</text>
</a>
</g>
</g>
<!-- Node2&#45;&gt;Node1 -->
<g id="edge1" class="edge">
<title>Node2&#45;&gt;Node1</title>
<path fill="none" stroke="midnightblue" d="M112.22,-114C120.57,-114 129.23,-114 137.82,-114"/>
<polygon fill="midnightblue" stroke="midnightblue" points="112.21,-110.5 102.21,-114 112.21,-117.5 112.21,-110.5"/>
</g>
</g>
</svg>
