<?xml version="1.0" encoding="UTF-8" standalone="no"?>
<!DOCTYPE svg PUBLIC "-//W3C//DTD SVG 1.1//EN"
 "http://www.w3.org/Graphics/SVG/1.1/DTD/svg11.dtd">
<!-- Generated by graphviz version 2.43.0 (0)
 -->
<!-- Title: Ogre::HlmsBufferManager Pages: 1 -->
<svg width="210pt" height="207pt"
 viewBox="0.00 0.00 210.00 207.00" xmlns="http://www.w3.org/2000/svg" xmlns:xlink="http://www.w3.org/1999/xlink">
<g id="graph0" class="graph" transform="scale(1 1) rotate(0) translate(4 203)">
<title>Ogre::HlmsBufferManager</title>
<!-- Node1 -->
<g id="node1" class="node">
<title>Node1</title>
<g id="a_node1"><a xlink:title="Managing constant and texture buffers for sending shader parameters is a very similar process to most...">
<polygon fill="#bfbfbf" stroke="black" points="28,-56.5 28,-75.5 171,-75.5 171,-56.5 28,-56.5"/>
<text text-anchor="middle" x="99.5" y="-63.5" font-family="Helvetica,sans-Serif" font-size="10.00">Ogre::HlmsBufferManager</text>
</a>
</g>
</g>
<!-- Node4 -->
<g id="node4" class="node">
<title>Node4</title>
<g id="a_node4"><a xlink:href="class_ogre_1_1_hlms_pbs.html" target="_top" xlink:title="Physically based shading implementation specfically designed for OpenGL 3+, D3D11 and other RenderSys...">
<polygon fill="none" stroke="black" points="0,-0.5 0,-19.5 89,-19.5 89,-0.5 0,-0.5"/>
<text text-anchor="middle" x="44.5" y="-7.5" font-family="Helvetica,sans-Serif" font-size="10.00">Ogre::HlmsPbs</text>
</a>
</g>
</g>
<!-- Node1&#45;&gt;Node4 -->
<g id="edge3" class="edge">
<title>Node1&#45;&gt;Node4</title>
<path fill="none" stroke="midnightblue" d="M83.21,-49C73.46,-39.43 61.45,-27.64 53.41,-19.75"/>
<polygon fill="midnightblue" stroke="midnightblue" points="80.83,-51.57 90.42,-56.08 85.73,-46.58 80.83,-51.57"/>
</g>
<!-- Node5 -->
<g id="node5" class="node">
<title>Node5</title>
<g id="a_node5"><a xlink:href="class_ogre_1_1_hlms_unlit.html" target="_top" xlink:title="Implementation without lighting or skeletal animation specfically designed for OpenGL 3+,...">
<polygon fill="none" stroke="black" points="107,-0.5 107,-19.5 202,-19.5 202,-0.5 107,-0.5"/>
<text text-anchor="middle" x="154.5" y="-7.5" font-family="Helvetica,sans-Serif" font-size="10.00">Ogre::HlmsUnlit</text>
</a>
</g>
</g>
<!-- Node1&#45;&gt;Node5 -->
<g id="edge4" class="edge">
<title>Node1&#45;&gt;Node5</title>
<path fill="none" stroke="midnightblue" d="M115.79,-49C125.54,-39.43 137.55,-27.64 145.59,-19.75"/>
<polygon fill="midnightblue" stroke="midnightblue" points="113.27,-46.58 108.58,-56.08 118.17,-51.57 113.27,-46.58"/>
</g>
<!-- Node2 -->
<g id="node2" class="node">
<title>Node2</title>
<g id="a_node2"><a xlink:href="class_ogre_1_1_hlms.html" target="_top" xlink:title="HLMS stands for &quot;High Level Material System&quot;.">
<polygon fill="none" stroke="black" points="64,-112.5 64,-131.5 135,-131.5 135,-112.5 64,-112.5"/>
<text text-anchor="middle" x="99.5" y="-119.5" font-family="Helvetica,sans-Serif" font-size="10.00">Ogre::Hlms</text>
</a>
</g>
</g>
<!-- Node2&#45;&gt;Node1 -->
<g id="edge1" class="edge">
<title>Node2&#45;&gt;Node1</title>
<path fill="none" stroke="midnightblue" d="M99.5,-101.8C99.5,-92.91 99.5,-82.78 99.5,-75.75"/>
<polygon fill="midnightblue" stroke="midnightblue" points="96,-102.08 99.5,-112.08 103,-102.08 96,-102.08"/>
</g>
<!-- Node3 -->
<g id="node3" class="node">
<title>Node3</title>
<g id="a_node3"><a xlink:title=" ">
<polygon fill="none" stroke="#bfbfbf" points="32.5,-168.5 32.5,-198.5 166.5,-198.5 166.5,-168.5 32.5,-168.5"/>
<text text-anchor="start" x="40.5" y="-186.5" font-family="Helvetica,sans-Serif" font-size="10.00">Ogre::AllocatedObject</text>
<text text-anchor="middle" x="99.5" y="-175.5" font-family="Helvetica,sans-Serif" font-size="10.00">&lt; AlignAllocPolicy&lt;&gt; &gt;</text>
</a>
</g>
</g>
<!-- Node3&#45;&gt;Node2 -->
<g id="edge2" class="edge">
<title>Node3&#45;&gt;Node2</title>
<path fill="none" stroke="midnightblue" d="M99.5,-158.29C99.5,-148.86 99.5,-138.65 99.5,-131.66"/>
<polygon fill="midnightblue" stroke="midnightblue" points="96,-158.4 99.5,-168.4 103,-158.4 96,-158.4"/>
</g>
</g>
</svg>
