<?xml version="1.0" encoding="UTF-8" standalone="no"?>
<!DOCTYPE svg PUBLIC "-//W3C//DTD SVG 1.1//EN"
 "http://www.w3.org/Graphics/SVG/1.1/DTD/svg11.dtd">
<!-- Generated by graphviz version 7.0.5 (20221223.1930)
 -->
<!-- Title: Ogre::Timer Pages: 1 -->
<svg width="127pt" height="82pt"
 viewBox="0.00 0.00 127.00 82.00" xmlns="http://www.w3.org/2000/svg" xmlns:xlink="http://www.w3.org/1999/xlink">
<g id="graph0" class="graph" transform="scale(1 1) rotate(0) translate(4 78)">
<title>Ogre::Timer</title>
<!-- Node1 -->
<g id="node1" class="node">
<title>Node1</title>
<g id="a_node1"><a xlink:title="Timer class.">
<polygon fill="#999999" stroke="#666666" points="93,-19 26,-19 26,0 93,0 93,-19"/>
<text text-anchor="middle" x="59.5" y="-7" font-family="Helvetica,sans-Serif" font-size="10.00">Ogre::Timer</text>
</a>
</g>
</g>
<!-- Node2 -->
<g id="node2" class="node">
<title>Node2</title>
<g id="a_node2"><a xlink:title=" ">
<polygon fill="white" stroke="#666666" points="119,-74 0,-74 0,-55 119,-55 119,-74"/>
<text text-anchor="middle" x="59.5" y="-62" font-family="Helvetica,sans-Serif" font-size="10.00">Ogre::OgreAllocatedObj</text>
</a>
</g>
</g>
<!-- Node2&#45;&gt;Node1 -->
<g id="edge1" class="edge">
<title>Node2&#45;&gt;Node1</title>
<path fill="none" stroke="#63b8ff" d="M27.2,-45.12C23.99,-36.39 26.11,-26.37 33.56,-19.36"/>
<polygon fill="#63b8ff" stroke="#63b8ff" points="24.14,-46.84 32.58,-53.25 29.98,-42.98 24.14,-46.84"/>
</g>
<!-- Node2&#45;&gt;Node1 -->
<g id="edge2" class="edge">
<title>Node2&#45;&gt;Node1</title>
<path fill="none" stroke="#63b8ff" d="M39.93,-44.22C38.29,-35.74 39.61,-26.21 43.88,-19.44"/>
<polygon fill="#63b8ff" stroke="#63b8ff" points="36.59,-45.27 43.46,-53.34 43.12,-42.75 36.59,-45.27"/>
</g>
<!-- Node2&#45;&gt;Node1 -->
<g id="edge3" class="edge">
<title>Node2&#45;&gt;Node1</title>
<path fill="none" stroke="#63b8ff" d="M52.93,-43.35C52.46,-35.1 52.92,-25.97 54.29,-19.44"/>
<polygon fill="#63b8ff" stroke="#63b8ff" points="49.45,-43.75 54.15,-53.25 56.4,-42.89 49.45,-43.75"/>
</g>
<!-- Node2&#45;&gt;Node1 -->
<g id="edge4" class="edge">
<title>Node2&#45;&gt;Node1</title>
<path fill="none" stroke="#63b8ff" d="M66.07,-43.35C66.54,-35.1 66.08,-25.97 64.71,-19.44"/>
<polygon fill="#63b8ff" stroke="#63b8ff" points="62.6,-42.89 64.85,-53.25 69.55,-43.75 62.6,-42.89"/>
</g>
<!-- Node2&#45;&gt;Node1 -->
<g id="edge5" class="edge">
<title>Node2&#45;&gt;Node1</title>
<path fill="none" stroke="#63b8ff" d="M79.07,-44.22C80.71,-35.74 79.39,-26.21 75.12,-19.44"/>
<polygon fill="#63b8ff" stroke="#63b8ff" points="75.88,-42.75 75.54,-53.34 82.41,-45.27 75.88,-42.75"/>
</g>
<!-- Node2&#45;&gt;Node1 -->
<g id="edge6" class="edge">
<title>Node2&#45;&gt;Node1</title>
<path fill="none" stroke="#63b8ff" d="M91.8,-45.12C95.01,-36.39 92.89,-26.37 85.44,-19.36"/>
<polygon fill="#63b8ff" stroke="#63b8ff" points="89.02,-42.98 86.42,-53.25 94.86,-46.84 89.02,-42.98"/>
</g>
</g>
</svg>
