<?xml version="1.0" encoding="UTF-8" standalone="no"?>
<!DOCTYPE svg PUBLIC "-//W3C//DTD SVG 1.1//EN"
 "http://www.w3.org/Graphics/SVG/1.1/DTD/svg11.dtd">
<!-- Generated by graphviz version 2.43.0 (0)
 -->
<!-- Title: Ogre::D3D11StagingBuffer Pages: 1 -->
<svg width="312pt" height="140pt"
 viewBox="0.00 0.00 312.00 140.00" xmlns="http://www.w3.org/2000/svg" xmlns:xlink="http://www.w3.org/1999/xlink">
<g id="graph0" class="graph" transform="scale(1 1) rotate(0) translate(4 136)">
<title>Ogre::D3D11StagingBuffer</title>
<!-- Node1 -->
<g id="node1" class="node">
<title>Node1</title>
<g id="a_node1"><a xlink:title="NOTE FOR D3D12 PORTING: The GL3Plus implementation should be used as reference, since it is much lowe...">
<polygon fill="#bfbfbf" stroke="black" points="63.5,-0.5 63.5,-19.5 208.5,-19.5 208.5,-0.5 63.5,-0.5"/>
<text text-anchor="middle" x="136" y="-7.5" font-family="Helvetica,sans-Serif" font-size="10.00">Ogre::D3D11StagingBuffer</text>
</a>
</g>
</g>
<!-- Node2 -->
<g id="node2" class="node">
<title>Node2</title>
<g id="a_node2"><a xlink:href="class_ogre_1_1_staging_buffer.html" target="_top" xlink:title="A staging buffer is a buffer that resides on the GPU and be written to/from both CPU &amp; GPU However th...">
<polygon fill="none" stroke="black" points="0,-56.5 0,-75.5 112,-75.5 112,-56.5 0,-56.5"/>
<text text-anchor="middle" x="56" y="-63.5" font-family="Helvetica,sans-Serif" font-size="10.00">Ogre::StagingBuffer</text>
</a>
</g>
</g>
<!-- Node2&#45;&gt;Node1 -->
<g id="edge1" class="edge">
<title>Node2&#45;&gt;Node1</title>
<path fill="none" stroke="midnightblue" d="M77.3,-50.62C91.92,-40.76 110.83,-27.99 123.18,-19.65"/>
<polygon fill="midnightblue" stroke="midnightblue" points="75.18,-47.83 68.85,-56.32 79.1,-53.63 75.18,-47.83"/>
</g>
<!-- Node3 -->
<g id="node3" class="node">
<title>Node3</title>
<g id="a_node3"><a xlink:title=" ">
<polygon fill="none" stroke="#bfbfbf" points="5,-112.5 5,-131.5 107,-131.5 107,-112.5 5,-112.5"/>
<text text-anchor="middle" x="56" y="-119.5" font-family="Helvetica,sans-Serif" font-size="10.00">OgreAllocatedObj</text>
</a>
</g>
</g>
<!-- Node3&#45;&gt;Node2 -->
<g id="edge2" class="edge">
<title>Node3&#45;&gt;Node2</title>
<path fill="none" stroke="midnightblue" d="M56,-101.8C56,-92.91 56,-82.78 56,-75.75"/>
<polygon fill="midnightblue" stroke="midnightblue" points="52.5,-102.08 56,-112.08 59.5,-102.08 52.5,-102.08"/>
</g>
<!-- Node4 -->
<g id="node4" class="node">
<title>Node4</title>
<g id="a_node4"><a xlink:href="class_ogre_1_1_device_depended_resource.html" target="_top" xlink:title="Represents a GPU device depended resource.">
<polygon fill="none" stroke="black" points="130,-56.5 130,-75.5 304,-75.5 304,-56.5 130,-56.5"/>
<text text-anchor="middle" x="217" y="-63.5" font-family="Helvetica,sans-Serif" font-size="10.00">Ogre::DeviceDependedResource</text>
</a>
</g>
</g>
<!-- Node4&#45;&gt;Node1 -->
<g id="edge3" class="edge">
<title>Node4&#45;&gt;Node1</title>
<path fill="none" stroke="#8b1a1a" d="M195.43,-50.62C180.64,-40.76 161.49,-27.99 148.98,-19.65"/>
<polygon fill="#8b1a1a" stroke="#8b1a1a" points="193.72,-53.69 203.99,-56.32 197.61,-47.86 193.72,-53.69"/>
</g>
</g>
</svg>
