<?xml version="1.0" encoding="UTF-8" standalone="no"?>
<!DOCTYPE svg PUBLIC "-//W3C//DTD SVG 1.1//EN"
 "http://www.w3.org/Graphics/SVG/1.1/DTD/svg11.dtd">
<!-- Generated by graphviz version 2.44.0 ()
 -->
<!-- Title: Ogre::v1::SimpleRenderable Pages: 1 -->
<svg width="346pt" height="196pt"
 viewBox="0.00 0.00 346.00 196.00" xmlns="http://www.w3.org/2000/svg" xmlns:xlink="http://www.w3.org/1999/xlink">
<g id="graph0" class="graph" transform="scale(1 1) rotate(0) translate(4 192)">
<title>Ogre::v1::SimpleRenderable</title>
<!-- Node1 -->
<g id="node1" class="node">
<title>Node1</title>
<g id="a_node1"><a xlink:title="Simple implementation of MovableObject and Renderable for single&#45;part custom objects.">
<polygon fill="#bfbfbf" stroke="black" points="165.5,-56.5 165.5,-75.5 301.5,-75.5 301.5,-56.5 165.5,-56.5"/>
<text text-anchor="middle" x="233.5" y="-63.5" font-family="Helvetica,sans-Serif" font-size="10.00">Ogre::v1::SimpleRenderable</text>
</a>
</g>
</g>
<!-- Node7 -->
<g id="node7" class="node">
<title>Node7</title>
<g id="a_node7"><a xlink:href="class_ogre_1_1v1_1_1_wire_bounding_box.html" target="_top" xlink:title="Allows the rendering of a wireframe bounding box.">
<polygon fill="none" stroke="black" points="166.5,-0.5 166.5,-19.5 300.5,-19.5 300.5,-0.5 166.5,-0.5"/>
<text text-anchor="middle" x="233.5" y="-7.5" font-family="Helvetica,sans-Serif" font-size="10.00">Ogre::v1::WireBoundingBox</text>
</a>
</g>
</g>
<!-- Node1&#45;&gt;Node7 -->
<g id="edge6" class="edge">
<title>Node1&#45;&gt;Node7</title>
<path fill="none" stroke="midnightblue" d="M233.5,-45.8C233.5,-36.91 233.5,-26.78 233.5,-19.75"/>
<polygon fill="midnightblue" stroke="midnightblue" points="230,-46.08 233.5,-56.08 237,-46.08 230,-46.08"/>
</g>
<!-- Node2 -->
<g id="node2" class="node">
<title>Node2</title>
<g id="a_node2"><a xlink:href="class_ogre_1_1_movable_object.html" target="_top" xlink:title="Abstract class defining a movable object in a scene.">
<polygon fill="none" stroke="black" points="122,-112.5 122,-131.5 229,-131.5 229,-112.5 122,-112.5"/>
<text text-anchor="middle" x="175.5" y="-119.5" font-family="Helvetica,sans-Serif" font-size="10.00">Ogre::MovableObject</text>
</a>
</g>
</g>
<!-- Node2&#45;&gt;Node1 -->
<g id="edge1" class="edge">
<title>Node2&#45;&gt;Node1</title>
<path fill="none" stroke="midnightblue" d="M192.41,-105.25C202.7,-95.67 215.47,-83.79 224.01,-75.83"/>
<polygon fill="midnightblue" stroke="midnightblue" points="189.75,-102.95 184.82,-112.32 194.52,-108.07 189.75,-102.95"/>
</g>
<!-- Node3 -->
<g id="node3" class="node">
<title>Node3</title>
<g id="a_node3"><a xlink:href="class_ogre_1_1_animable_object.html" target="_top" xlink:title="Defines an interface to classes which have one or more AnimableValue instances to expose.">
<polygon fill="none" stroke="black" points="0,-168.5 0,-187.5 111,-187.5 111,-168.5 0,-168.5"/>
<text text-anchor="middle" x="55.5" y="-175.5" font-family="Helvetica,sans-Serif" font-size="10.00">Ogre::AnimableObject</text>
</a>
</g>
</g>
<!-- Node3&#45;&gt;Node2 -->
<g id="edge2" class="edge">
<title>Node3&#45;&gt;Node2</title>
<path fill="none" stroke="midnightblue" d="M83.87,-164.23C106.32,-154.13 137.04,-140.31 156.57,-131.52"/>
<polygon fill="midnightblue" stroke="midnightblue" points="82.2,-161.15 74.51,-168.44 85.07,-167.53 82.2,-161.15"/>
</g>
<!-- Node4 -->
<g id="node4" class="node">
<title>Node4</title>
<g id="a_node4"><a xlink:href="class_ogre_1_1_allocated_object.html" target="_top" xlink:title="Superclass for all objects that wish to use custom memory allocators when their new / delete operator...">
<polygon fill="none" stroke="black" points="129,-168.5 129,-187.5 222,-187.5 222,-168.5 129,-168.5"/>
<text text-anchor="middle" x="175.5" y="-175.5" font-family="Helvetica,sans-Serif" font-size="10.00">OgreAllocatedObj</text>
</a>
</g>
</g>
<!-- Node4&#45;&gt;Node2 -->
<g id="edge3" class="edge">
<title>Node4&#45;&gt;Node2</title>
<path fill="none" stroke="midnightblue" d="M175.5,-157.8C175.5,-148.91 175.5,-138.78 175.5,-131.75"/>
<polygon fill="midnightblue" stroke="midnightblue" points="172,-158.08 175.5,-168.08 179,-158.08 172,-158.08"/>
</g>
<!-- Node5 -->
<g id="node5" class="node">
<title>Node5</title>
<g id="a_node5"><a xlink:href="class_ogre_1_1_id_object.html" target="_top" xlink:title=" ">
<polygon fill="none" stroke="black" points="240,-168.5 240,-187.5 319,-187.5 319,-168.5 240,-168.5"/>
<text text-anchor="middle" x="279.5" y="-175.5" font-family="Helvetica,sans-Serif" font-size="10.00">Ogre::IdObject</text>
</a>
</g>
</g>
<!-- Node5&#45;&gt;Node2 -->
<g id="edge4" class="edge">
<title>Node5&#45;&gt;Node2</title>
<path fill="none" stroke="midnightblue" d="M253.67,-163.59C234.44,-153.61 208.76,-140.27 192.17,-131.65"/>
<polygon fill="midnightblue" stroke="midnightblue" points="252.3,-166.82 262.79,-168.32 255.53,-160.61 252.3,-166.82"/>
</g>
<!-- Node6 -->
<g id="node6" class="node">
<title>Node6</title>
<g id="a_node6"><a xlink:href="class_ogre_1_1_renderable.html" target="_top" xlink:title="Abstract class defining the interface all renderable objects must implement.">
<polygon fill="none" stroke="black" points="247,-112.5 247,-131.5 338,-131.5 338,-112.5 247,-112.5"/>
<text text-anchor="middle" x="292.5" y="-119.5" font-family="Helvetica,sans-Serif" font-size="10.00">Ogre::Renderable</text>
</a>
</g>
</g>
<!-- Node6&#45;&gt;Node1 -->
<g id="edge5" class="edge">
<title>Node6&#45;&gt;Node1</title>
<path fill="none" stroke="midnightblue" d="M275.61,-105.54C265.09,-95.91 251.93,-83.87 243.15,-75.83"/>
<polygon fill="midnightblue" stroke="midnightblue" points="273.28,-108.15 283.02,-112.32 278.01,-102.99 273.28,-108.15"/>
</g>
</g>
</svg>
