<?xml version="1.0" encoding="UTF-8" standalone="no"?>
<!DOCTYPE svg PUBLIC "-//W3C//DTD SVG 1.1//EN"
 "http://www.w3.org/Graphics/SVG/1.1/DTD/svg11.dtd">
<!-- Generated by graphviz version 2.43.0 (0)
 -->
<!-- Title: Ogre::EmitterDefData Pages: 1 -->
<svg width="538pt" height="357pt"
 viewBox="0.00 0.00 537.50 357.00" xmlns="http://www.w3.org/2000/svg" xmlns:xlink="http://www.w3.org/1999/xlink">
<g id="graph0" class="graph" transform="scale(1 1) rotate(0) translate(4 353)">
<title>Ogre::EmitterDefData</title>
<!-- Node1 -->
<g id="Node000001" class="node">
<title>Node1</title>
<g id="a_Node000001"><a xlink:title="EmitterDefData are per ParticleSystemDef.">
<polygon fill="#999999" stroke="#666666" points="388.5,-184 266.5,-184 266.5,-165 388.5,-165 388.5,-184"/>
<text text-anchor="middle" x="327.5" y="-172" font-family="Helvetica,sans-Serif" font-size="10.00">Ogre::EmitterDefData</text>
</a>
</g>
</g>
<!-- Node6 -->
<g id="Node000006" class="node">
<title>Node6</title>
<g id="a_Node000006"><a xlink:href="class_ogre_1_1_area_emitter2.html" target="_top" xlink:title="Particle emitter which emits particles randomly from points inside an area (box, sphere,...">
<polygon fill="white" stroke="#666666" points="317.5,-129 207.5,-129 207.5,-110 317.5,-110 317.5,-129"/>
<text text-anchor="middle" x="262.5" y="-117" font-family="Helvetica,sans-Serif" font-size="10.00">Ogre::AreaEmitter2</text>
</a>
</g>
</g>
<!-- Node1&#45;&gt;Node6 -->
<g id="edge5_Node000001_Node000006" class="edge">
<title>Node1&#45;&gt;Node6</title>
<g id="a_edge5_Node000001_Node000006"><a xlink:title=" ">
<path fill="none" stroke="#63b8ff" d="M309.23,-158.6C297.58,-149.11 282.9,-137.13 273.13,-129.17"/>
<polygon fill="#63b8ff" stroke="#63b8ff" points="307.09,-161.38 317.06,-164.98 311.52,-155.95 307.09,-161.38"/>
</a>
</g>
</g>
<!-- Node12 -->
<g id="Node000012" class="node">
<title>Node12</title>
<g id="a_Node000012"><a xlink:href="class_ogre_1_1_point_emitter2.html" target="_top" xlink:title=" ">
<polygon fill="white" stroke="#666666" points="449,-129 336,-129 336,-110 449,-110 449,-129"/>
<text text-anchor="middle" x="392.5" y="-117" font-family="Helvetica,sans-Serif" font-size="10.00">Ogre::PointEmitter2</text>
</a>
</g>
</g>
<!-- Node1&#45;&gt;Node12 -->
<g id="edge11_Node000001_Node000012" class="edge">
<title>Node1&#45;&gt;Node12</title>
<g id="a_edge11_Node000001_Node000012"><a xlink:title=" ">
<path fill="none" stroke="#63b8ff" d="M345.77,-158.6C357.42,-149.11 372.1,-137.13 381.87,-129.17"/>
<polygon fill="#63b8ff" stroke="#63b8ff" points="343.48,-155.95 337.94,-164.98 347.91,-161.38 343.48,-155.95"/>
</a>
</g>
</g>
<!-- Node2 -->
<g id="Node000002" class="node">
<title>Node2</title>
<g id="a_Node000002"><a xlink:href="class_ogre_1_1_particle_emitter.html" target="_top" xlink:title="Abstract class defining the interface to be implemented by particle emitters.">
<polygon fill="white" stroke="#666666" points="386.5,-239 268.5,-239 268.5,-220 386.5,-220 386.5,-239"/>
<text text-anchor="middle" x="327.5" y="-227" font-family="Helvetica,sans-Serif" font-size="10.00">Ogre::ParticleEmitter</text>
</a>
</g>
</g>
<!-- Node2&#45;&gt;Node1 -->
<g id="edge1_Node000001_Node000002" class="edge">
<title>Node2&#45;&gt;Node1</title>
<g id="a_edge1_Node000001_Node000002"><a xlink:title=" ">
<path fill="none" stroke="#8b1a1a" d="M327.5,-209.66C327.5,-200.93 327.5,-190.99 327.5,-184.09"/>
<polygon fill="#8b1a1a" stroke="#8b1a1a" points="324,-209.75 327.5,-219.75 331,-209.75 324,-209.75"/>
</a>
</g>
</g>
<!-- Node3 -->
<g id="Node000003" class="node">
<title>Node3</title>
<g id="a_Node000003"><a xlink:href="class_ogre_1_1_string_interface.html" target="_top" xlink:title="Class defining the common interface which classes can use to present a reflection&#45;style,...">
<polygon fill="white" stroke="#666666" points="327.5,-294 209.5,-294 209.5,-275 327.5,-275 327.5,-294"/>
<text text-anchor="middle" x="268.5" y="-282" font-family="Helvetica,sans-Serif" font-size="10.00">Ogre::StringInterface</text>
</a>
</g>
</g>
<!-- Node3&#45;&gt;Node2 -->
<g id="edge2_Node000002_Node000003" class="edge">
<title>Node3&#45;&gt;Node2</title>
<g id="a_edge2_Node000002_Node000003"><a xlink:title=" ">
<path fill="none" stroke="#63b8ff" d="M285.7,-268.04C296.17,-258.64 309.15,-246.98 317.85,-239.17"/>
<polygon fill="#63b8ff" stroke="#63b8ff" points="283.08,-265.7 277.98,-274.98 287.76,-270.91 283.08,-265.7"/>
</a>
</g>
</g>
<!-- Node4 -->
<g id="Node000004" class="node">
<title>Node4</title>
<g id="a_Node000004"><a xlink:href="class_ogre_1_1_particle.html" target="_top" xlink:title="Class representing a single particle instance.">
<polygon fill="white" stroke="#666666" points="427.5,-294 345.5,-294 345.5,-275 427.5,-275 427.5,-294"/>
<text text-anchor="middle" x="386.5" y="-282" font-family="Helvetica,sans-Serif" font-size="10.00">Ogre::Particle</text>
</a>
</g>
</g>
<!-- Node4&#45;&gt;Node2 -->
<g id="edge3_Node000002_Node000004" class="edge">
<title>Node4&#45;&gt;Node2</title>
<g id="a_edge3_Node000002_Node000004"><a xlink:title=" ">
<path fill="none" stroke="#63b8ff" d="M369.3,-268.04C358.83,-258.64 345.85,-246.98 337.15,-239.17"/>
<polygon fill="#63b8ff" stroke="#63b8ff" points="367.24,-270.91 377.02,-274.98 371.92,-265.7 367.24,-270.91"/>
</a>
</g>
</g>
<!-- Node5 -->
<g id="Node000005" class="node">
<title>Node5</title>
<g id="a_Node000005"><a xlink:title=" ">
<polygon fill="white" stroke="#666666" points="452,-349 321,-349 321,-330 452,-330 452,-349"/>
<text text-anchor="middle" x="386.5" y="-337" font-family="Helvetica,sans-Serif" font-size="10.00">Ogre::OgreAllocatedObj</text>
</a>
</g>
</g>
<!-- Node5&#45;&gt;Node4 -->
<g id="edge4_Node000004_Node000005" class="edge">
<title>Node5&#45;&gt;Node4</title>
<g id="a_edge4_Node000004_Node000005"><a xlink:title=" ">
<path fill="none" stroke="#63b8ff" d="M386.5,-319.66C386.5,-310.93 386.5,-300.99 386.5,-294.09"/>
<polygon fill="#63b8ff" stroke="#63b8ff" points="383,-319.75 386.5,-329.75 390,-319.75 383,-319.75"/>
</a>
</g>
</g>
<!-- Node7 -->
<g id="Node000007" class="node">
<title>Node7</title>
<g id="a_Node000007"><a xlink:href="class_ogre_1_1_box_emitter2.html" target="_top" xlink:title="Particle emitter which emits particles randomly from points inside a box.">
<polygon fill="white" stroke="#666666" points="107,-74 0,-74 0,-55 107,-55 107,-74"/>
<text text-anchor="middle" x="53.5" y="-62" font-family="Helvetica,sans-Serif" font-size="10.00">Ogre::BoxEmitter2</text>
</a>
</g>
</g>
<!-- Node6&#45;&gt;Node7 -->
<g id="edge6_Node000006_Node000007" class="edge">
<title>Node6&#45;&gt;Node7</title>
<g id="a_edge6_Node000006_Node000007"><a xlink:title=" ">
<path fill="none" stroke="#63b8ff" d="M219.13,-107.5C179.99,-97.58 123.22,-83.18 87.34,-74.08"/>
<polygon fill="#63b8ff" stroke="#63b8ff" points="218.37,-110.92 228.92,-109.98 220.09,-104.13 218.37,-110.92"/>
</a>
</g>
</g>
<!-- Node8 -->
<g id="Node000008" class="node">
<title>Node8</title>
<g id="a_Node000008"><a xlink:href="class_ogre_1_1_cylinder_emitter2.html" target="_top" xlink:title="Particle emitter which emits particles randomly from points inside a cylinder.">
<polygon fill="white" stroke="#666666" points="253.5,-74 125.5,-74 125.5,-55 253.5,-55 253.5,-74"/>
<text text-anchor="middle" x="189.5" y="-62" font-family="Helvetica,sans-Serif" font-size="10.00">Ogre::CylinderEmitter2</text>
</a>
</g>
</g>
<!-- Node6&#45;&gt;Node8 -->
<g id="edge7_Node000006_Node000008" class="edge">
<title>Node6&#45;&gt;Node8</title>
<g id="a_edge7_Node000006_Node000008"><a xlink:title=" ">
<path fill="none" stroke="#63b8ff" d="M242.36,-103.88C229.22,-94.34 212.52,-82.21 201.44,-74.17"/>
<polygon fill="#63b8ff" stroke="#63b8ff" points="240.62,-106.94 250.77,-109.98 244.74,-101.28 240.62,-106.94"/>
</a>
</g>
</g>
<!-- Node9 -->
<g id="Node000009" class="node">
<title>Node9</title>
<g id="a_Node000009"><a xlink:href="class_ogre_1_1_ellipsoid_emitter2.html" target="_top" xlink:title="Particle emitter which emits particles randomly from points inside an ellipsoid.">
<polygon fill="white" stroke="#666666" points="401,-74 272,-74 272,-55 401,-55 401,-74"/>
<text text-anchor="middle" x="336.5" y="-62" font-family="Helvetica,sans-Serif" font-size="10.00">Ogre::EllipsoidEmitter2</text>
</a>
</g>
</g>
<!-- Node6&#45;&gt;Node9 -->
<g id="edge8_Node000006_Node000009" class="edge">
<title>Node6&#45;&gt;Node9</title>
<g id="a_edge8_Node000006_Node000009"><a xlink:title=" ">
<path fill="none" stroke="#63b8ff" d="M282.53,-104.15C295.91,-94.57 313.06,-82.29 324.39,-74.17"/>
<polygon fill="#63b8ff" stroke="#63b8ff" points="280.48,-101.32 274.39,-109.98 284.56,-107.01 280.48,-101.32"/>
</a>
</g>
</g>
<!-- Node11 -->
<g id="Node000011" class="node">
<title>Node11</title>
<g id="a_Node000011"><a xlink:href="class_ogre_1_1_ring_emitter2.html" target="_top" xlink:title="Particle emitter which emits particles randomly from points inside a ring (e.g.">
<polygon fill="white" stroke="#666666" points="529.5,-74 419.5,-74 419.5,-55 529.5,-55 529.5,-74"/>
<text text-anchor="middle" x="474.5" y="-62" font-family="Helvetica,sans-Serif" font-size="10.00">Ogre::RingEmitter2</text>
</a>
</g>
</g>
<!-- Node6&#45;&gt;Node11 -->
<g id="edge10_Node000006_Node000011" class="edge">
<title>Node6&#45;&gt;Node11</title>
<g id="a_edge10_Node000006_Node000011"><a xlink:title=" ">
<path fill="none" stroke="#63b8ff" d="M306.5,-107.5C346.19,-97.58 403.78,-83.18 440.17,-74.08"/>
<polygon fill="#63b8ff" stroke="#63b8ff" points="305.41,-104.16 296.56,-109.98 307.11,-110.95 305.41,-104.16"/>
</a>
</g>
</g>
<!-- Node10 -->
<g id="Node000010" class="node">
<title>Node10</title>
<g id="a_Node000010"><a xlink:href="class_ogre_1_1_hollow_ellipsoid_emitter2.html" target="_top" xlink:title="Particle emitter which emits particles randomly from points inside a hollow ellipsoid.">
<polygon fill="white" stroke="#666666" points="418,-19 255,-19 255,0 418,0 418,-19"/>
<text text-anchor="middle" x="336.5" y="-7" font-family="Helvetica,sans-Serif" font-size="10.00">Ogre::HollowEllipsoidEmitter2</text>
</a>
</g>
</g>
<!-- Node9&#45;&gt;Node10 -->
<g id="edge9_Node000009_Node000010" class="edge">
<title>Node9&#45;&gt;Node10</title>
<g id="a_edge9_Node000009_Node000010"><a xlink:title=" ">
<path fill="none" stroke="#63b8ff" d="M336.5,-44.66C336.5,-35.93 336.5,-25.99 336.5,-19.09"/>
<polygon fill="#63b8ff" stroke="#63b8ff" points="333,-44.75 336.5,-54.75 340,-44.75 333,-44.75"/>
</a>
</g>
</g>
</g>
</svg>
