<?xml version="1.0" encoding="UTF-8" standalone="no"?>
<!DOCTYPE svg PUBLIC "-//W3C//DTD SVG 1.1//EN"
 "http://www.w3.org/Graphics/SVG/1.1/DTD/svg11.dtd">
<!-- Generated by graphviz version 7.0.5 (20221223.1930)
 -->
<!-- Title: Ogre::MaterialManager Pages: 1 -->
<svg width="324pt" height="148pt"
 viewBox="0.00 0.00 323.50 148.00" xmlns="http://www.w3.org/2000/svg" xmlns:xlink="http://www.w3.org/1999/xlink">
<g id="graph0" class="graph" transform="scale(1 1) rotate(0) translate(4 144)">
<title>Ogre::MaterialManager</title>
<!-- Node1 -->
<g id="node1" class="node">
<title>Node1</title>
<g id="a_node1"><a xlink:title="Class for managing Material settings for Ogre.">
<polygon fill="#999999" stroke="#666666" points="239,-19 125,-19 125,0 239,0 239,-19"/>
<text text-anchor="middle" x="182" y="-7" font-family="Helvetica,sans-Serif" font-size="10.00">Ogre::MaterialManager</text>
</a>
</g>
</g>
<!-- Node2 -->
<g id="node2" class="node">
<title>Node2</title>
<g id="a_node2"><a xlink:href="class_ogre_1_1_resource_manager.html" target="_top" xlink:title="Defines a generic resource handler.">
<polygon fill="white" stroke="#666666" points="172.5,-79.5 51.5,-79.5 51.5,-60.5 172.5,-60.5 172.5,-79.5"/>
<text text-anchor="middle" x="112" y="-67.5" font-family="Helvetica,sans-Serif" font-size="10.00">Ogre::ResourceManager</text>
</a>
</g>
</g>
<!-- Node2&#45;&gt;Node1 -->
<g id="edge1" class="edge">
<title>Node2&#45;&gt;Node1</title>
<path fill="none" stroke="#63b8ff" d="M131.25,-52.91C144.14,-42.14 160.64,-28.35 171.27,-19.47"/>
<polygon fill="#63b8ff" stroke="#63b8ff" points="129.22,-50.05 123.79,-59.14 133.71,-55.42 129.22,-50.05"/>
</g>
<!-- Node3 -->
<g id="node3" class="node">
<title>Node3</title>
<g id="a_node3"><a xlink:href="class_ogre_1_1_script_loader.html" target="_top" xlink:title="Abstract class defining the interface used by classes which wish to perform script loading to define ...">
<polygon fill="white" stroke="#666666" points="98,-140 0,-140 0,-121 98,-121 98,-140"/>
<text text-anchor="middle" x="49" y="-128" font-family="Helvetica,sans-Serif" font-size="10.00">Ogre::ScriptLoader</text>
</a>
</g>
</g>
<!-- Node3&#45;&gt;Node2 -->
<g id="edge2" class="edge">
<title>Node3&#45;&gt;Node2</title>
<path fill="none" stroke="#63b8ff" d="M67,-112.78C78.5,-102.1 92.97,-88.67 102.34,-79.97"/>
<polygon fill="#63b8ff" stroke="#63b8ff" points="64.62,-110.22 59.68,-119.59 69.39,-115.35 64.62,-110.22"/>
</g>
<!-- Node4 -->
<g id="node4" class="node">
<title>Node4</title>
<g id="a_node4"><a xlink:title=" ">
<polygon fill="white" stroke="#666666" points="235.5,-140 116.5,-140 116.5,-121 235.5,-121 235.5,-140"/>
<text text-anchor="middle" x="176" y="-128" font-family="Helvetica,sans-Serif" font-size="10.00">Ogre::OgreAllocatedObj</text>
</a>
</g>
</g>
<!-- Node4&#45;&gt;Node2 -->
<g id="edge3" class="edge">
<title>Node4&#45;&gt;Node2</title>
<path fill="none" stroke="#63b8ff" d="M158.06,-113.1C146.32,-102.37 131.43,-88.76 121.81,-79.97"/>
<polygon fill="#63b8ff" stroke="#63b8ff" points="155.42,-115.43 165.16,-119.59 160.14,-110.26 155.42,-115.43"/>
</g>
<!-- Node5 -->
<g id="node5" class="node">
<title>Node5</title>
<g id="a_node5"><a xlink:href="class_ogre_1_1_singleton.html" target="_top" xlink:title=" ">
<polygon fill="white" stroke="#666666" points="315.5,-85 190.5,-85 190.5,-55 315.5,-55 315.5,-85"/>
<text text-anchor="start" x="198.5" y="-73" font-family="Helvetica,sans-Serif" font-size="10.00">Ogre::Singleton&lt; Material</text>
<text text-anchor="middle" x="253" y="-62" font-family="Helvetica,sans-Serif" font-size="10.00">Manager &gt;</text>
</a>
</g>
</g>
<!-- Node5&#45;&gt;Node1 -->
<g id="edge4" class="edge">
<title>Node5&#45;&gt;Node1</title>
<path fill="none" stroke="#63b8ff" d="M226.76,-47.38C214.89,-37.6 201.54,-26.6 192.53,-19.18"/>
<polygon fill="#63b8ff" stroke="#63b8ff" points="224.34,-49.92 234.28,-53.58 228.79,-44.52 224.34,-49.92"/>
</g>
</g>
</svg>
