<?xml version="1.0" encoding="UTF-8" standalone="no"?>
<!DOCTYPE svg PUBLIC "-//W3C//DTD SVG 1.1//EN"
 "http://www.w3.org/Graphics/SVG/1.1/DTD/svg11.dtd">
<!-- Generated by graphviz version 7.0.5 (20221223.1930)
 -->
<!-- Title: Ogre::v1::Rectangle2DFactory Pages: 1 -->
<svg width="153pt" height="137pt"
 viewBox="0.00 0.00 153.00 137.00" xmlns="http://www.w3.org/2000/svg" xmlns:xlink="http://www.w3.org/1999/xlink">
<g id="graph0" class="graph" transform="scale(1 1) rotate(0) translate(4 133)">
<title>Ogre::v1::Rectangle2DFactory</title>
<!-- Node1 -->
<g id="node1" class="node">
<title>Node1</title>
<g id="a_node1"><a xlink:title="Factory object for creating Entity instances.">
<polygon fill="#999999" stroke="#666666" points="145,-19 0,-19 0,0 145,0 145,-19"/>
<text text-anchor="middle" x="72.5" y="-7" font-family="Helvetica,sans-Serif" font-size="10.00">Ogre::v1::Rectangle2DFactory</text>
</a>
</g>
</g>
<!-- Node2 -->
<g id="node2" class="node">
<title>Node2</title>
<g id="a_node2"><a xlink:href="class_ogre_1_1_movable_object_factory.html" target="_top" xlink:title="Interface definition for a factory class which produces a certain kind of MovableObject,...">
<polygon fill="white" stroke="#666666" points="142.5,-74 2.5,-74 2.5,-55 142.5,-55 142.5,-74"/>
<text text-anchor="middle" x="72.5" y="-62" font-family="Helvetica,sans-Serif" font-size="10.00">Ogre::MovableObjectFactory</text>
</a>
</g>
</g>
<!-- Node2&#45;&gt;Node1 -->
<g id="edge1" class="edge">
<title>Node2&#45;&gt;Node1</title>
<path fill="none" stroke="#63b8ff" d="M72.5,-43.35C72.5,-35.1 72.5,-25.97 72.5,-19.44"/>
<polygon fill="#63b8ff" stroke="#63b8ff" points="69,-43.23 72.5,-53.23 76,-43.23 69,-43.23"/>
</g>
<!-- Node3 -->
<g id="node3" class="node">
<title>Node3</title>
<g id="a_node3"><a xlink:title=" ">
<polygon fill="white" stroke="#666666" points="132,-129 13,-129 13,-110 132,-110 132,-129"/>
<text text-anchor="middle" x="72.5" y="-117" font-family="Helvetica,sans-Serif" font-size="10.00">Ogre::OgreAllocatedObj</text>
</a>
</g>
</g>
<!-- Node3&#45;&gt;Node2 -->
<g id="edge2" class="edge">
<title>Node3&#45;&gt;Node2</title>
<path fill="none" stroke="#63b8ff" d="M72.5,-98.35C72.5,-90.1 72.5,-80.97 72.5,-74.44"/>
<polygon fill="#63b8ff" stroke="#63b8ff" points="69,-98.23 72.5,-108.23 76,-98.23 69,-98.23"/>
</g>
</g>
</svg>
