<?xml version="1.0" encoding="UTF-8" standalone="no"?>
<!DOCTYPE svg PUBLIC "-//W3C//DTD SVG 1.1//EN"
 "http://www.w3.org/Graphics/SVG/1.1/DTD/svg11.dtd">
<!-- Generated by graphviz version 7.0.5 (20221223.1930)
 -->
<!-- Title: Ogre::CompositorWorkspaceListener Pages: 1 -->
<svg width="431pt" height="148pt"
 viewBox="0.00 0.00 431.00 148.00" xmlns="http://www.w3.org/2000/svg" xmlns:xlink="http://www.w3.org/1999/xlink">
<g id="graph0" class="graph" transform="scale(1 1) rotate(0) translate(4 144)">
<title>Ogre::CompositorWorkspaceListener</title>
<!-- Node1 -->
<g id="node1" class="node">
<title>Node1</title>
<g id="a_node1"><a xlink:title=" ">
<polygon fill="#999999" stroke="#666666" points="333,-140 193,-140 193,-110 333,-110 333,-140"/>
<text text-anchor="start" x="201" y="-128" font-family="Helvetica,sans-Serif" font-size="10.00">Ogre::CompositorWorkspace</text>
<text text-anchor="middle" x="263" y="-117" font-family="Helvetica,sans-Serif" font-size="10.00">Listener</text>
</a>
</g>
</g>
<!-- Node2 -->
<g id="node2" class="node">
<title>Node2</title>
<g id="a_node2"><a xlink:href="class_ogre_1_1_parallax_corrected_cubemap_base.html" target="_top" xlink:title=" ">
<polygon fill="white" stroke="#666666" points="265,-74 83,-74 83,-55 265,-55 265,-74"/>
<text text-anchor="middle" x="174" y="-62" font-family="Helvetica,sans-Serif" font-size="10.00">Ogre::ParallaxCorrectedCubemapBase</text>
</a>
</g>
</g>
<!-- Node1&#45;&gt;Node2 -->
<g id="edge1" class="edge">
<title>Node1&#45;&gt;Node2</title>
<path fill="none" stroke="#63b8ff" d="M231.48,-103.28C216.38,-93.35 199.1,-82 187.46,-74.35"/>
<polygon fill="#63b8ff" stroke="#63b8ff" points="229.46,-106.14 239.74,-108.71 233.3,-100.29 229.46,-106.14"/>
</g>
<!-- Node5 -->
<g id="node5" class="node">
<title>Node5</title>
<g id="a_node5"><a xlink:href="class_ogre_1_1_vct_cascaded_voxelizer.html" target="_top" xlink:title="This class manages multiple cascades of Voxels and each cascade can be composed of VctImageVoxelizer.">
<polygon fill="white" stroke="#666666" points="423,-74 283,-74 283,-55 423,-55 423,-74"/>
<text text-anchor="middle" x="353" y="-62" font-family="Helvetica,sans-Serif" font-size="10.00">Ogre::VctCascadedVoxelizer</text>
</a>
</g>
</g>
<!-- Node1&#45;&gt;Node5 -->
<g id="edge4" class="edge">
<title>Node1&#45;&gt;Node5</title>
<path fill="none" stroke="#63b8ff" d="M294.88,-103.28C310.15,-93.35 327.62,-82 339.39,-74.35"/>
<polygon fill="#63b8ff" stroke="#63b8ff" points="292.99,-100.33 286.52,-108.71 296.81,-106.2 292.99,-100.33"/>
</g>
<!-- Node3 -->
<g id="node3" class="node">
<title>Node3</title>
<g id="a_node3"><a xlink:href="class_ogre_1_1_parallax_corrected_cubemap.html" target="_top" xlink:title=" ">
<polygon fill="white" stroke="#666666" points="160,-19 0,-19 0,0 160,0 160,-19"/>
<text text-anchor="middle" x="80" y="-7" font-family="Helvetica,sans-Serif" font-size="10.00">Ogre::ParallaxCorrectedCubemap</text>
</a>
</g>
</g>
<!-- Node2&#45;&gt;Node3 -->
<g id="edge2" class="edge">
<title>Node2&#45;&gt;Node3</title>
<path fill="none" stroke="#63b8ff" d="M148.28,-49C131.46,-39.52 110.03,-27.43 95.71,-19.36"/>
<polygon fill="#63b8ff" stroke="#63b8ff" points="146.31,-51.9 156.74,-53.77 149.74,-45.81 146.31,-51.9"/>
</g>
<!-- Node4 -->
<g id="node4" class="node">
<title>Node4</title>
<g id="a_node4"><a xlink:href="class_ogre_1_1_parallax_corrected_cubemap_auto.html" target="_top" xlink:title="Per&#45;Pixel reflection probes.">
<polygon fill="white" stroke="#666666" points="358,-19 178,-19 178,0 358,0 358,-19"/>
<text text-anchor="middle" x="268" y="-7" font-family="Helvetica,sans-Serif" font-size="10.00">Ogre::ParallaxCorrectedCubemapAuto</text>
</a>
</g>
</g>
<!-- Node2&#45;&gt;Node4 -->
<g id="edge3" class="edge">
<title>Node2&#45;&gt;Node4</title>
<path fill="none" stroke="#63b8ff" d="M199.72,-49C216.54,-39.52 237.97,-27.43 252.29,-19.36"/>
<polygon fill="#63b8ff" stroke="#63b8ff" points="198.26,-45.81 191.26,-53.77 201.69,-51.9 198.26,-45.81"/>
</g>
</g>
</svg>
