<?xml version="1.0" encoding="UTF-8" standalone="no"?>
<!DOCTYPE svg PUBLIC "-//W3C//DTD SVG 1.1//EN"
 "http://www.w3.org/Graphics/SVG/1.1/DTD/svg11.dtd">
<!-- Generated by graphviz version 2.44.0 ()
 -->
<!-- Title: Ogre::AbstractNode Pages: 1 -->
<svg width="445pt" height="180pt"
 viewBox="0.00 0.00 445.00 180.00" xmlns="http://www.w3.org/2000/svg" xmlns:xlink="http://www.w3.org/1999/xlink">
<g id="graph0" class="graph" transform="scale(1 1) rotate(0) translate(4 176)">
<title>Ogre::AbstractNode</title>
<!-- Node1 -->
<g id="node1" class="node">
<title>Node1</title>
<g id="a_node1"><a xlink:title=" ">
<polygon fill="#bfbfbf" stroke="black" points="129,-76.5 129,-95.5 231,-95.5 231,-76.5 129,-76.5"/>
<text text-anchor="middle" x="180" y="-83.5" font-family="Helvetica,sans-Serif" font-size="10.00">Ogre::AbstractNode</text>
</a>
</g>
</g>
<!-- Node3 -->
<g id="node3" class="node">
<title>Node3</title>
<g id="a_node3"><a xlink:href="class_ogre_1_1_atom_abstract_node.html" target="_top" xlink:title="This is an abstract node which cannot be broken down further.">
<polygon fill="none" stroke="black" points="289.5,-152.5 289.5,-171.5 414.5,-171.5 414.5,-152.5 289.5,-152.5"/>
<text text-anchor="middle" x="352" y="-159.5" font-family="Helvetica,sans-Serif" font-size="10.00">Ogre::AtomAbstractNode</text>
</a>
</g>
</g>
<!-- Node1&#45;&gt;Node3 -->
<g id="edge2" class="edge">
<title>Node1&#45;&gt;Node3</title>
<path fill="none" stroke="midnightblue" d="M200.36,-101.83C217.06,-114.72 242.31,-132.45 267,-143 275.94,-146.82 285.75,-149.92 295.42,-152.43"/>
<polygon fill="midnightblue" stroke="midnightblue" points="202.47,-99.04 192.45,-95.59 198.14,-104.53 202.47,-99.04"/>
</g>
<!-- Node4 -->
<g id="node4" class="node">
<title>Node4</title>
<g id="a_node4"><a xlink:href="class_ogre_1_1_import_abstract_node.html" target="_top" xlink:title="This abstract node represents an import statement.">
<polygon fill="none" stroke="black" points="287,-114.5 287,-133.5 417,-133.5 417,-114.5 287,-114.5"/>
<text text-anchor="middle" x="352" y="-121.5" font-family="Helvetica,sans-Serif" font-size="10.00">Ogre::ImportAbstractNode</text>
</a>
</g>
</g>
<!-- Node1&#45;&gt;Node4 -->
<g id="edge3" class="edge">
<title>Node1&#45;&gt;Node4</title>
<path fill="none" stroke="midnightblue" d="M233.9,-97.82C257.87,-103.18 285.82,-109.43 308.41,-114.48"/>
<polygon fill="midnightblue" stroke="midnightblue" points="234.42,-94.35 223.9,-95.59 232.89,-101.19 234.42,-94.35"/>
</g>
<!-- Node5 -->
<g id="node5" class="node">
<title>Node5</title>
<g id="a_node5"><a xlink:href="class_ogre_1_1_object_abstract_node.html" target="_top" xlink:title="This specific abstract node represents a script object.">
<polygon fill="none" stroke="black" points="286.5,-76.5 286.5,-95.5 417.5,-95.5 417.5,-76.5 286.5,-76.5"/>
<text text-anchor="middle" x="352" y="-83.5" font-family="Helvetica,sans-Serif" font-size="10.00">Ogre::ObjectAbstractNode</text>
</a>
</g>
</g>
<!-- Node1&#45;&gt;Node5 -->
<g id="edge4" class="edge">
<title>Node1&#45;&gt;Node5</title>
<path fill="none" stroke="midnightblue" d="M241.48,-86C256.06,-86 271.68,-86 286.43,-86"/>
<polygon fill="midnightblue" stroke="midnightblue" points="241.09,-82.5 231.09,-86 241.09,-89.5 241.09,-82.5"/>
</g>
<!-- Node6 -->
<g id="node6" class="node">
<title>Node6</title>
<g id="a_node6"><a xlink:href="class_ogre_1_1_property_abstract_node.html" target="_top" xlink:title="This abstract node represents a script property.">
<polygon fill="none" stroke="black" points="283,-38.5 283,-57.5 421,-57.5 421,-38.5 283,-38.5"/>
<text text-anchor="middle" x="352" y="-45.5" font-family="Helvetica,sans-Serif" font-size="10.00">Ogre::PropertyAbstractNode</text>
</a>
</g>
</g>
<!-- Node1&#45;&gt;Node6 -->
<g id="edge5" class="edge">
<title>Node1&#45;&gt;Node6</title>
<path fill="none" stroke="midnightblue" d="M233.9,-74.18C257.87,-68.82 285.82,-62.57 308.41,-57.52"/>
<polygon fill="midnightblue" stroke="midnightblue" points="232.89,-70.81 223.9,-76.41 234.42,-77.65 232.89,-70.81"/>
</g>
<!-- Node7 -->
<g id="node7" class="node">
<title>Node7</title>
<g id="a_node7"><a xlink:href="class_ogre_1_1_variable_access_abstract_node.html" target="_top" xlink:title="This abstract node represents a variable assignment.">
<polygon fill="none" stroke="black" points="267,-0.5 267,-19.5 437,-19.5 437,-0.5 267,-0.5"/>
<text text-anchor="middle" x="352" y="-7.5" font-family="Helvetica,sans-Serif" font-size="10.00">Ogre::VariableAccessAbstractNode</text>
</a>
</g>
</g>
<!-- Node1&#45;&gt;Node7 -->
<g id="edge6" class="edge">
<title>Node1&#45;&gt;Node7</title>
<path fill="none" stroke="midnightblue" d="M200.36,-70.17C217.06,-57.28 242.31,-39.55 267,-29 275.94,-25.18 285.75,-22.08 295.42,-19.57"/>
<polygon fill="midnightblue" stroke="midnightblue" points="198.14,-67.47 192.45,-76.41 202.47,-72.96 198.14,-67.47"/>
</g>
<!-- Node2 -->
<g id="node2" class="node">
<title>Node2</title>
<g id="a_node2"><a xlink:href="class_ogre_1_1_allocated_object.html" target="_top" xlink:title="Superclass for all objects that wish to use custom memory allocators when their new / delete operator...">
<polygon fill="none" stroke="black" points="0,-76.5 0,-95.5 93,-95.5 93,-76.5 0,-76.5"/>
<text text-anchor="middle" x="46.5" y="-83.5" font-family="Helvetica,sans-Serif" font-size="10.00">OgreAllocatedObj</text>
</a>
</g>
</g>
<!-- Node2&#45;&gt;Node1 -->
<g id="edge1" class="edge">
<title>Node2&#45;&gt;Node1</title>
<path fill="none" stroke="midnightblue" d="M103.35,-86C111.86,-86 120.59,-86 128.97,-86"/>
<polygon fill="midnightblue" stroke="midnightblue" points="103.12,-82.5 93.12,-86 103.12,-89.5 103.12,-82.5"/>
</g>
</g>
</svg>
