<?xml version="1.0" encoding="UTF-8" standalone="no"?>
<!DOCTYPE svg PUBLIC "-//W3C//DTD SVG 1.1//EN"
 "http://www.w3.org/Graphics/SVG/1.1/DTD/svg11.dtd">
<!-- Generated by graphviz version 2.43.0 (0)
 -->
<!-- Title: Ogre::IdObject Pages: 1 -->
<svg width="898pt" height="1026pt"
 viewBox="0.00 0.00 898.00 1026.00" xmlns="http://www.w3.org/2000/svg" xmlns:xlink="http://www.w3.org/1999/xlink">
<g id="graph0" class="graph" transform="scale(1 1) rotate(0) translate(4 1022)">
<title>Ogre::IdObject</title>
<!-- Node1 -->
<g id="Node000001" class="node">
<title>Node1</title>
<g id="a_Node000001"><a xlink:title=" ">
<polygon fill="#999999" stroke="#666666" points="86,-222 0,-222 0,-203 86,-203 86,-222"/>
<text text-anchor="middle" x="43" y="-210" font-family="Helvetica,sans-Serif" font-size="10.00">Ogre::IdObject</text>
</a>
</g>
</g>
<!-- Node2 -->
<g id="Node000002" class="node">
<title>Node2</title>
<g id="a_Node000002"><a xlink:href="class_ogre_1_1_bone.html" target="_top" xlink:title="Class representing a Bone in the join hierarchy of a skeleton.">
<polygon fill="white" stroke="#666666" points="259,-685 188,-685 188,-666 259,-666 259,-685"/>
<text text-anchor="middle" x="223.5" y="-673" font-family="Helvetica,sans-Serif" font-size="10.00">Ogre::Bone</text>
</a>
</g>
</g>
<!-- Node1&#45;&gt;Node2 -->
<g id="edge1_Node000001_Node000002" class="edge">
<title>Node1&#45;&gt;Node2</title>
<g id="a_edge1_Node000001_Node000002"><a xlink:title=" ">
<path fill="none" stroke="#63b8ff" d="M44.57,-232.59C47.24,-311.16 61.05,-596.32 122,-657.5 138.89,-674.45 165.91,-678.53 187.69,-678.6"/>
<polygon fill="#63b8ff" stroke="#63b8ff" points="48.06,-232.06 44.25,-222.18 41.06,-232.29 48.06,-232.06"/>
</a>
</g>
</g>
<!-- Node3 -->
<g id="Node000003" class="node">
<title>Node3</title>
<g id="a_Node000003"><a xlink:href="class_ogre_1_1_compositor_node.html" target="_top" xlink:title="Compositor nodes are the core subject of compositing.">
<polygon fill="white" stroke="#666666" points="287.5,-648 159.5,-648 159.5,-629 287.5,-629 287.5,-648"/>
<text text-anchor="middle" x="223.5" y="-636" font-family="Helvetica,sans-Serif" font-size="10.00">Ogre::CompositorNode</text>
</a>
</g>
</g>
<!-- Node1&#45;&gt;Node3 -->
<g id="edge2_Node000001_Node000003" class="edge">
<title>Node1&#45;&gt;Node3</title>
<g id="a_edge2_Node000001_Node000003"><a xlink:title=" ">
<path fill="none" stroke="#63b8ff" d="M44.91,-232.33C48.72,-306.35 65.89,-565.04 122,-620.5 132.02,-630.41 145.51,-635.9 159.35,-638.76"/>
<polygon fill="#63b8ff" stroke="#63b8ff" points="48.39,-231.92 44.41,-222.1 41.4,-232.26 48.39,-231.92"/>
</a>
</g>
</g>
<!-- Node5 -->
<g id="Node000005" class="node">
<title>Node5</title>
<g id="a_Node000005"><a xlink:href="class_ogre_1_1_compositor_workspace.html" target="_top" xlink:title="A compositor workspace is the main interface to render into an RT, be it a RenderWindow or an RTT (Re...">
<polygon fill="white" stroke="#666666" points="301,-611 146,-611 146,-592 301,-592 301,-611"/>
<text text-anchor="middle" x="223.5" y="-599" font-family="Helvetica,sans-Serif" font-size="10.00">Ogre::CompositorWorkspace</text>
</a>
</g>
</g>
<!-- Node1&#45;&gt;Node5 -->
<g id="edge4_Node000001_Node000005" class="edge">
<title>Node1&#45;&gt;Node5</title>
<g id="a_edge4_Node000001_Node000005"><a xlink:title=" ">
<path fill="none" stroke="#63b8ff" d="M45.32,-232.32C50.36,-301.94 70.77,-533.78 122,-583.5 128.74,-590.04 137,-594.65 145.86,-597.84"/>
<polygon fill="#63b8ff" stroke="#63b8ff" points="48.8,-231.99 44.62,-222.26 41.82,-232.48 48.8,-231.99"/>
</a>
</g>
</g>
<!-- Node6 -->
<g id="Node000006" class="node">
<title>Node6</title>
<g id="a_Node000006"><a xlink:href="class_ogre_1_1_irradiance_field.html" target="_top" xlink:title="Implements an Irradiance Field with Depth, inspired on DDGI.">
<polygon fill="white" stroke="#666666" points="282.5,-574 164.5,-574 164.5,-555 282.5,-555 282.5,-574"/>
<text text-anchor="middle" x="223.5" y="-562" font-family="Helvetica,sans-Serif" font-size="10.00">Ogre::IrradianceField</text>
</a>
</g>
</g>
<!-- Node1&#45;&gt;Node6 -->
<g id="edge5_Node000001_Node000006" class="edge">
<title>Node1&#45;&gt;Node6</title>
<g id="a_edge5_Node000001_Node000006"><a xlink:title=" ">
<path fill="none" stroke="#63b8ff" d="M45.82,-232.42C52.2,-297.54 75.65,-502.51 122,-546.5 133.38,-557.3 148.9,-562.78 164.34,-565.34"/>
<polygon fill="#63b8ff" stroke="#63b8ff" points="49.29,-231.89 44.86,-222.26 42.32,-232.55 49.29,-231.89"/>
</a>
</g>
</g>
<!-- Node7 -->
<g id="Node000007" class="node">
<title>Node7</title>
<g id="a_Node000007"><a xlink:href="class_ogre_1_1_movable_object.html" target="_top" xlink:title="Abstract class defining a movable object in a scene.">
<polygon fill="white" stroke="#666666" points="283,-537 164,-537 164,-518 283,-518 283,-537"/>
<text text-anchor="middle" x="223.5" y="-525" font-family="Helvetica,sans-Serif" font-size="10.00">Ogre::MovableObject</text>
</a>
</g>
</g>
<!-- Node1&#45;&gt;Node7 -->
<g id="edge6_Node000001_Node000007" class="edge">
<title>Node1&#45;&gt;Node7</title>
<g id="a_edge6_Node000001_Node000007"><a xlink:title=" ">
<path fill="none" stroke="#63b8ff" d="M54.66,-231.31C88.39,-290.83 192.02,-473.71 217.03,-517.84"/>
<polygon fill="#63b8ff" stroke="#63b8ff" points="57.51,-229.25 49.54,-222.27 51.42,-232.7 57.51,-229.25"/>
</a>
</g>
</g>
<!-- Node34 -->
<g id="Node000034" class="node">
<title>Node34</title>
<g id="a_Node000034"><a xlink:href="class_ogre_1_1_node.html" target="_top" xlink:title="Class representing a general&#45;purpose node an articulated scene graph.">
<polygon fill="white" stroke="#666666" points="259,-241 188,-241 188,-222 259,-222 259,-241"/>
<text text-anchor="middle" x="223.5" y="-229" font-family="Helvetica,sans-Serif" font-size="10.00">Ogre::Node</text>
</a>
</g>
</g>
<!-- Node1&#45;&gt;Node34 -->
<g id="edge33_Node000001_Node000034" class="edge">
<title>Node1&#45;&gt;Node34</title>
<g id="a_edge33_Node000001_Node000034"><a xlink:title=" ">
<path fill="none" stroke="#63b8ff" d="M96.45,-218.08C125.97,-221.23 162.01,-225.06 187.98,-227.83"/>
<polygon fill="#63b8ff" stroke="#63b8ff" points="96.62,-214.58 86.3,-217 95.88,-221.54 96.62,-214.58"/>
</a>
</g>
</g>
<!-- Node37 -->
<g id="Node000037" class="node">
<title>Node37</title>
<g id="a_Node000037"><a xlink:href="class_ogre_1_1_parallax_corrected_cubemap_base.html" target="_top" xlink:title=" ">
<polygon fill="white" stroke="#666666" points="325,-204 122,-204 122,-185 325,-185 325,-204"/>
<text text-anchor="middle" x="223.5" y="-192" font-family="Helvetica,sans-Serif" font-size="10.00">Ogre::ParallaxCorrectedCubemapBase</text>
</a>
</g>
</g>
<!-- Node1&#45;&gt;Node37 -->
<g id="edge36_Node000001_Node000037" class="edge">
<title>Node1&#45;&gt;Node37</title>
<g id="a_edge36_Node000001_Node000037"><a xlink:title=" ">
<path fill="none" stroke="#63b8ff" d="M96.44,-207.21C106.45,-206.2 117.2,-205.12 128.07,-204.02"/>
<polygon fill="#63b8ff" stroke="#63b8ff" points="95.9,-203.75 86.3,-208.23 96.6,-210.71 95.9,-203.75"/>
</a>
</g>
</g>
<!-- Node40 -->
<g id="Node000040" class="node">
<title>Node40</title>
<g id="a_Node000040"><a xlink:href="class_ogre_1_1_scene_manager.html" target="_top" xlink:title="Manages the organisation and rendering of a &#39;scene&#39; i.e.">
<polygon fill="white" stroke="#666666" points="282.5,-167 164.5,-167 164.5,-148 282.5,-148 282.5,-167"/>
<text text-anchor="middle" x="223.5" y="-155" font-family="Helvetica,sans-Serif" font-size="10.00">Ogre::SceneManager</text>
</a>
</g>
</g>
<!-- Node1&#45;&gt;Node40 -->
<g id="edge39_Node000001_Node000040" class="edge">
<title>Node1&#45;&gt;Node40</title>
<g id="a_edge39_Node000001_Node000040"><a xlink:title=" ">
<path fill="none" stroke="#63b8ff" d="M69.89,-198.08C84.74,-190.36 103.97,-181.28 122,-175.5 135.5,-171.17 150.38,-167.79 164.46,-165.19"/>
<polygon fill="#63b8ff" stroke="#63b8ff" points="68,-195.13 60.81,-202.91 71.28,-201.3 68,-195.13"/>
</a>
</g>
</g>
<!-- Node42 -->
<g id="Node000042" class="node">
<title>Node42</title>
<g id="a_Node000042"><a xlink:href="class_ogre_1_1_vct_lighting.html" target="_top" xlink:title=" ">
<polygon fill="white" stroke="#666666" points="274,-130 173,-130 173,-111 274,-111 274,-130"/>
<text text-anchor="middle" x="223.5" y="-118" font-family="Helvetica,sans-Serif" font-size="10.00">Ogre::VctLighting</text>
</a>
</g>
</g>
<!-- Node1&#45;&gt;Node42 -->
<g id="edge41_Node000001_Node000042" class="edge">
<title>Node1&#45;&gt;Node42</title>
<g id="a_edge41_Node000001_Node000042"><a xlink:title=" ">
<path fill="none" stroke="#63b8ff" d="M57.41,-194.8C71.51,-177.54 95.33,-151.98 122,-138.5 137.58,-130.62 156.05,-126.14 172.88,-123.61"/>
<polygon fill="#63b8ff" stroke="#63b8ff" points="54.42,-192.95 50.96,-202.96 59.91,-197.29 54.42,-192.95"/>
</a>
</g>
</g>
<!-- Node43 -->
<g id="Node000043" class="node">
<title>Node43</title>
<g id="a_Node000043"><a xlink:href="class_ogre_1_1_vct_material.html" target="_top" xlink:title=" ">
<polygon fill="white" stroke="#666666" points="274.5,-93 172.5,-93 172.5,-74 274.5,-74 274.5,-93"/>
<text text-anchor="middle" x="223.5" y="-81" font-family="Helvetica,sans-Serif" font-size="10.00">Ogre::VctMaterial</text>
</a>
</g>
</g>
<!-- Node1&#45;&gt;Node43 -->
<g id="edge42_Node000001_Node000043" class="edge">
<title>Node1&#45;&gt;Node43</title>
<g id="a_edge42_Node000001_Node000043"><a xlink:title=" ">
<path fill="none" stroke="#63b8ff" d="M51.72,-193.57C63.11,-168.23 86.92,-123.87 122,-101.5 136.87,-92.02 155.36,-87.19 172.42,-84.82"/>
<polygon fill="#63b8ff" stroke="#63b8ff" points="48.47,-192.29 47.73,-202.86 54.9,-195.05 48.47,-192.29"/>
</a>
</g>
</g>
<!-- Node44 -->
<g id="Node000044" class="node">
<title>Node44</title>
<g id="a_Node000044"><a xlink:href="class_ogre_1_1_vct_voxelizer_source_base.html" target="_top" xlink:title="This class contains shared functionality between voxelizer; and is used by VctLighting to source its ...">
<polygon fill="white" stroke="#666666" points="305,-56 142,-56 142,-37 305,-37 305,-56"/>
<text text-anchor="middle" x="223.5" y="-44" font-family="Helvetica,sans-Serif" font-size="10.00">Ogre::VctVoxelizerSourceBase</text>
</a>
</g>
</g>
<!-- Node1&#45;&gt;Node44 -->
<g id="edge43_Node000001_Node000044" class="edge">
<title>Node1&#45;&gt;Node44</title>
<g id="a_edge43_Node000001_Node000044"><a xlink:title=" ">
<path fill="none" stroke="#63b8ff" d="M48.4,-193.01C56.76,-160.73 78.17,-96.56 122,-64.5 128.01,-60.1 134.75,-56.67 141.82,-53.99"/>
<polygon fill="#63b8ff" stroke="#63b8ff" points="44.93,-192.45 45.97,-202.99 51.73,-194.1 44.93,-192.45"/>
</a>
</g>
</g>
<!-- Node47 -->
<g id="Node000047" class="node">
<title>Node47</title>
<g id="a_Node000047"><a xlink:href="class_ogre_1_1_voxelized_mesh_cache.html" target="_top" xlink:title="Uses a VctVoxelizer to convert a single mesh made up of triangles into a voxel 3D texture representat...">
<polygon fill="white" stroke="#666666" points="298,-19 149,-19 149,0 298,0 298,-19"/>
<text text-anchor="middle" x="223.5" y="-7" font-family="Helvetica,sans-Serif" font-size="10.00">Ogre::VoxelizedMeshCache</text>
</a>
</g>
</g>
<!-- Node1&#45;&gt;Node47 -->
<g id="edge46_Node000001_Node000047" class="edge">
<title>Node1&#45;&gt;Node47</title>
<g id="a_edge46_Node000001_Node000047"><a xlink:title=" ">
<path fill="none" stroke="#8b1a1a" d="M46.22,-192.6C51.64,-154.14 69.2,-69.72 122,-27.5 129.82,-21.25 139.09,-16.88 148.78,-13.86"/>
<polygon fill="#8b1a1a" stroke="#8b1a1a" points="42.69,-192.6 44.91,-202.96 49.64,-193.48 42.69,-192.6"/>
</a>
</g>
</g>
<!-- Node4 -->
<g id="Node000004" class="node">
<title>Node4</title>
<g id="a_Node000004"><a xlink:href="class_ogre_1_1_compositor_shadow_node.html" target="_top" xlink:title="Shadow Nodes are special nodes (not to be confused with CompositorNode) that are only used for render...">
<polygon fill="white" stroke="#666666" points="544.5,-1018 378.5,-1018 378.5,-999 544.5,-999 544.5,-1018"/>
<text text-anchor="middle" x="461.5" y="-1006" font-family="Helvetica,sans-Serif" font-size="10.00">Ogre::CompositorShadowNode</text>
</a>
</g>
</g>
<!-- Node3&#45;&gt;Node4 -->
<g id="edge3_Node000003_Node000004" class="edge">
<title>Node3&#45;&gt;Node4</title>
<g id="a_edge3_Node000003_Node000004"><a xlink:title=" ">
<path fill="none" stroke="#63b8ff" d="M297.29,-640.76C307.78,-644.13 317.53,-649.41 325,-657.5 426.01,-766.84 259.56,-881.55 361,-990.5 365.9,-995.77 371.79,-999.81 378.22,-1002.88"/>
<polygon fill="#63b8ff" stroke="#63b8ff" points="298.06,-637.35 287.5,-638.19 296.28,-644.11 298.06,-637.35"/>
</a>
</g>
</g>
<!-- Node8 -->
<g id="Node000008" class="node">
<title>Node8</title>
<g id="a_Node000008"><a xlink:href="class_ogre_1_1_decal.html" target="_top" xlink:title="Decals can have diffuse, normal map, and emissive on top of regular objects.">
<polygon fill="white" stroke="#666666" points="498.5,-981 424.5,-981 424.5,-962 498.5,-962 498.5,-981"/>
<text text-anchor="middle" x="461.5" y="-969" font-family="Helvetica,sans-Serif" font-size="10.00">Ogre::Decal</text>
</a>
</g>
</g>
<!-- Node7&#45;&gt;Node8 -->
<g id="edge7_Node000007_Node000008" class="edge">
<title>Node7&#45;&gt;Node8</title>
<g id="a_edge7_Node000007_Node000008"><a xlink:title=" ">
<path fill="none" stroke="#63b8ff" d="M293.03,-528.34C305.16,-531.59 316.58,-537.21 325,-546.5 385.96,-613.79 299.77,-886.45 361,-953.5 376.63,-970.61 402.59,-974.86 424.08,-974.97"/>
<polygon fill="#63b8ff" stroke="#63b8ff" points="293.71,-524.91 283.2,-526.21 292.23,-531.75 293.71,-524.91"/>
</a>
</g>
</g>
<!-- Node9 -->
<g id="Node000009" class="node">
<title>Node9</title>
<g id="a_Node000009"><a xlink:href="class_ogre_1_1_frustum.html" target="_top" xlink:title="A frustum represents a pyramid, capped at the near and far end which is used to represent either a vi...">
<polygon fill="white" stroke="#666666" points="504.5,-944 418.5,-944 418.5,-925 504.5,-925 504.5,-944"/>
<text text-anchor="middle" x="461.5" y="-932" font-family="Helvetica,sans-Serif" font-size="10.00">Ogre::Frustum</text>
</a>
</g>
</g>
<!-- Node7&#45;&gt;Node9 -->
<g id="edge8_Node000007_Node000009" class="edge">
<title>Node7&#45;&gt;Node9</title>
<g id="a_edge8_Node000007_Node000009"><a xlink:title=" ">
<path fill="none" stroke="#63b8ff" d="M292.97,-528.4C305.1,-531.65 316.54,-537.24 325,-546.5 380.73,-607.48 305.03,-855.74 361,-916.5 375.33,-932.06 398.22,-936.96 418.43,-937.79"/>
<polygon fill="#63b8ff" stroke="#63b8ff" points="293.65,-524.96 283.13,-526.27 292.17,-531.81 293.65,-524.96"/>
</a>
</g>
</g>
<!-- Node11 -->
<g id="Node000011" class="node">
<title>Node11</title>
<g id="a_Node000011"><a xlink:href="class_ogre_1_1_ifd_probe_visualizer.html" target="_top" xlink:title=" ">
<polygon fill="white" stroke="#666666" points="528.5,-907 394.5,-907 394.5,-888 528.5,-888 528.5,-907"/>
<text text-anchor="middle" x="461.5" y="-895" font-family="Helvetica,sans-Serif" font-size="10.00">Ogre::IfdProbeVisualizer</text>
</a>
</g>
</g>
<!-- Node7&#45;&gt;Node11 -->
<g id="edge10_Node000007_Node000011" class="edge">
<title>Node7&#45;&gt;Node11</title>
<g id="a_edge10_Node000007_Node000011"><a xlink:title=" ">
<path fill="none" stroke="#63b8ff" d="M292.89,-528.47C305.03,-531.71 316.49,-537.29 325,-546.5 426.01,-655.84 259.56,-770.55 361,-879.5 369.79,-888.94 381.74,-894.45 394.3,-897.5"/>
<polygon fill="#63b8ff" stroke="#63b8ff" points="293.57,-525.04 283.05,-526.34 292.09,-531.88 293.57,-525.04"/>
</a>
</g>
</g>
<!-- Node12 -->
<g id="Node000012" class="node">
<title>Node12</title>
<g id="a_Node000012"><a xlink:href="class_ogre_1_1_internal_cubemap_probe.html" target="_top" xlink:title="This class is internal and should not be interfaced directly by users.">
<polygon fill="white" stroke="#666666" points="540.5,-870 382.5,-870 382.5,-851 540.5,-851 540.5,-870"/>
<text text-anchor="middle" x="461.5" y="-858" font-family="Helvetica,sans-Serif" font-size="10.00">Ogre::InternalCubemapProbe</text>
</a>
</g>
</g>
<!-- Node7&#45;&gt;Node12 -->
<g id="edge11_Node000007_Node000012" class="edge">
<title>Node7&#45;&gt;Node12</title>
<g id="a_edge11_Node000007_Node000012"><a xlink:title=" ">
<path fill="none" stroke="#63b8ff" d="M293,-528.61C305.07,-531.86 316.48,-537.4 325,-546.5 415.58,-643.24 270.04,-746.12 361,-842.5 366.9,-848.76 374.19,-853.28 382.12,-856.5"/>
<polygon fill="#63b8ff" stroke="#63b8ff" points="293.73,-525.19 283.22,-526.48 292.24,-532.03 293.73,-525.19"/>
</a>
</g>
</g>
<!-- Node13 -->
<g id="Node000013" class="node">
<title>Node13</title>
<g id="a_Node000013"><a xlink:href="class_ogre_1_1_item.html" target="_top" xlink:title="Defines an instance of a discrete, movable object based on a Mesh.">
<polygon fill="white" stroke="#666666" points="495.5,-833 427.5,-833 427.5,-814 495.5,-814 495.5,-833"/>
<text text-anchor="middle" x="461.5" y="-821" font-family="Helvetica,sans-Serif" font-size="10.00">Ogre::Item</text>
</a>
</g>
</g>
<!-- Node7&#45;&gt;Node13 -->
<g id="edge12_Node000007_Node000013" class="edge">
<title>Node7&#45;&gt;Node13</title>
<g id="a_edge12_Node000007_Node000013"><a xlink:title=" ">
<path fill="none" stroke="#63b8ff" d="M292.87,-528.73C304.96,-531.96 316.4,-537.47 325,-546.5 405.15,-630.66 280.52,-721.66 361,-805.5 377.78,-822.98 405.38,-826.84 427.26,-826.69"/>
<polygon fill="#63b8ff" stroke="#63b8ff" points="293.61,-525.31 283.09,-526.6 292.12,-532.15 293.61,-525.31"/>
</a>
</g>
</g>
<!-- Node14 -->
<g id="Node000014" class="node">
<title>Node14</title>
<g id="a_Node000014"><a xlink:href="class_ogre_1_1_light.html" target="_top" xlink:title="Representation of a dynamic light source in the scene.">
<polygon fill="white" stroke="#666666" points="496.5,-796 426.5,-796 426.5,-777 496.5,-777 496.5,-796"/>
<text text-anchor="middle" x="461.5" y="-784" font-family="Helvetica,sans-Serif" font-size="10.00">Ogre::Light</text>
</a>
</g>
</g>
<!-- Node7&#45;&gt;Node14 -->
<g id="edge13_Node000007_Node000014" class="edge">
<title>Node7&#45;&gt;Node14</title>
<g id="a_edge13_Node000007_Node000014"><a xlink:title=" ">
<path fill="none" stroke="#63b8ff" d="M293.27,-529.04C305.16,-532.28 316.43,-537.71 325,-546.5 394.75,-618.1 290.97,-697.18 361,-768.5 377.73,-785.53 404.76,-789.55 426.43,-789.57"/>
<polygon fill="#63b8ff" stroke="#63b8ff" points="293.71,-525.55 283.19,-526.8 292.19,-532.38 293.71,-525.55"/>
</a>
</g>
</g>
<!-- Node15 -->
<g id="Node000015" class="node">
<title>Node15</title>
<g id="a_Node000015"><a xlink:href="class_ogre_1_1_manual_object.html" target="_top" xlink:title=" ">
<polygon fill="white" stroke="#666666" points="518,-759 405,-759 405,-740 518,-740 518,-759"/>
<text text-anchor="middle" x="461.5" y="-747" font-family="Helvetica,sans-Serif" font-size="10.00">Ogre::ManualObject</text>
</a>
</g>
</g>
<!-- Node7&#45;&gt;Node15 -->
<g id="edge14_Node000007_Node000015" class="edge">
<title>Node7&#45;&gt;Node15</title>
<g id="a_edge14_Node000007_Node000015"><a xlink:title=" ">
<path fill="none" stroke="#63b8ff" d="M293.26,-529.31C305.09,-532.54 316.34,-537.89 325,-546.5 384.39,-605.57 301.38,-672.66 361,-731.5 372.62,-742.97 388.93,-748.48 404.99,-750.85"/>
<polygon fill="#63b8ff" stroke="#63b8ff" points="293.75,-525.83 283.22,-527.07 292.22,-532.66 293.75,-525.83"/>
</a>
</g>
</g>
<!-- Node16 -->
<g id="Node000016" class="node">
<title>Node16</title>
<g id="a_Node000016"><a xlink:href="class_ogre_1_1_movable_plane.html" target="_top" xlink:title="Definition of a Plane that may be attached to a node, and the derived details of it retrieved simply.">
<polygon fill="white" stroke="#666666" points="519,-722 404,-722 404,-703 519,-703 519,-722"/>
<text text-anchor="middle" x="461.5" y="-710" font-family="Helvetica,sans-Serif" font-size="10.00">Ogre::MovablePlane</text>
</a>
</g>
</g>
<!-- Node7&#45;&gt;Node16 -->
<g id="edge15_Node000007_Node000016" class="edge">
<title>Node7&#45;&gt;Node16</title>
<g id="a_edge15_Node000007_Node000016"><a xlink:title=" ">
<path fill="none" stroke="#63b8ff" d="M293.14,-529.69C304.93,-532.89 316.2,-538.14 325,-546.5 374.09,-593.11 311.73,-648.08 361,-694.5 372.5,-705.33 388.21,-710.77 403.75,-713.28"/>
<polygon fill="#63b8ff" stroke="#63b8ff" points="293.68,-526.22 283.16,-527.45 292.15,-533.05 293.68,-526.22"/>
</a>
</g>
</g>
<!-- Node17 -->
<g id="Node000017" class="node">
<title>Node17</title>
<g id="a_Node000017"><a xlink:href="class_ogre_1_1_null_entity.html" target="_top" xlink:title=" ">
<polygon fill="white" stroke="#666666" points="508.5,-685 414.5,-685 414.5,-666 508.5,-666 508.5,-685"/>
<text text-anchor="middle" x="461.5" y="-673" font-family="Helvetica,sans-Serif" font-size="10.00">Ogre::NullEntity</text>
</a>
</g>
</g>
<!-- Node7&#45;&gt;Node17 -->
<g id="edge16_Node000007_Node000017" class="edge">
<title>Node7&#45;&gt;Node17</title>
<g id="a_edge16_Node000007_Node000017"><a xlink:title=" ">
<path fill="none" stroke="#63b8ff" d="M293.05,-530.34C304.74,-533.5 315.99,-538.57 325,-546.5 363.92,-580.78 321.94,-623.38 361,-657.5 375.48,-670.15 395.77,-675.27 414.26,-676.99"/>
<polygon fill="#63b8ff" stroke="#63b8ff" points="293.7,-526.9 283.17,-528.11 292.16,-533.72 293.7,-526.9"/>
</a>
</g>
</g>
<!-- Node18 -->
<g id="Node000018" class="node">
<title>Node18</title>
<g id="a_Node000018"><a xlink:href="class_ogre_1_1_particle_system.html" target="_top" xlink:title="Class defining particle system based special effects.">
<polygon fill="white" stroke="#666666" points="521,-648 402,-648 402,-629 521,-629 521,-648"/>
<text text-anchor="middle" x="461.5" y="-636" font-family="Helvetica,sans-Serif" font-size="10.00">Ogre::ParticleSystem</text>
</a>
</g>
</g>
<!-- Node7&#45;&gt;Node18 -->
<g id="edge17_Node000007_Node000018" class="edge">
<title>Node7&#45;&gt;Node18</title>
<g id="a_edge17_Node000007_Node000018"><a xlink:title=" ">
<path fill="none" stroke="#63b8ff" d="M293.15,-531.64C304.58,-534.71 315.72,-539.41 325,-546.5 354.06,-568.71 331.85,-598.41 361,-620.5 372.68,-629.35 387.33,-634.35 401.76,-637.06"/>
<polygon fill="#63b8ff" stroke="#63b8ff" points="293.59,-528.15 283.07,-529.34 292.04,-534.98 293.59,-528.15"/>
</a>
</g>
</g>
<!-- Node21 -->
<g id="Node000021" class="node">
<title>Node21</title>
<g id="a_Node000021"><a xlink:href="class_ogre_1_1_particle_system2.html" target="_top" xlink:title=" ">
<polygon fill="white" stroke="#666666" points="524,-611 399,-611 399,-592 524,-592 524,-611"/>
<text text-anchor="middle" x="461.5" y="-599" font-family="Helvetica,sans-Serif" font-size="10.00">Ogre::ParticleSystem2</text>
</a>
</g>
</g>
<!-- Node7&#45;&gt;Node21 -->
<g id="edge20_Node000007_Node000021" class="edge">
<title>Node7&#45;&gt;Node21</title>
<g id="a_edge20_Node000007_Node000021"><a xlink:title=" ">
<path fill="none" stroke="#63b8ff" d="M293.25,-534.67C304.27,-537.44 315.24,-541.26 325,-546.5 345.21,-557.36 340.75,-572.72 361,-583.5 372.55,-589.64 385.8,-593.74 398.79,-596.45"/>
<polygon fill="#63b8ff" stroke="#63b8ff" points="293.68,-531.18 283.16,-532.4 292.15,-538.01 293.68,-531.18"/>
</a>
</g>
</g>
<!-- Node22 -->
<g id="Node000022" class="node">
<title>Node22</title>
<g id="a_Node000022"><a xlink:href="class_ogre_1_1_rectangle2_d.html" target="_top" xlink:title=" ">
<polygon fill="white" stroke="#666666" points="515.5,-574 407.5,-574 407.5,-555 515.5,-555 515.5,-574"/>
<text text-anchor="middle" x="461.5" y="-562" font-family="Helvetica,sans-Serif" font-size="10.00">Ogre::Rectangle2D</text>
</a>
</g>
</g>
<!-- Node7&#45;&gt;Node22 -->
<g id="edge21_Node000007_Node000022" class="edge">
<title>Node7&#45;&gt;Node22</title>
<g id="a_edge21_Node000007_Node000022"><a xlink:title=" ">
<path fill="none" stroke="#63b8ff" d="M293.19,-538.27C329.6,-543.98 373.64,-550.88 407.4,-556.18"/>
<polygon fill="#63b8ff" stroke="#63b8ff" points="293.56,-534.78 283.14,-536.69 292.48,-541.7 293.56,-534.78"/>
</a>
</g>
</g>
<!-- Node23 -->
<g id="Node000023" class="node">
<title>Node23</title>
<g id="a_Node000023"><a xlink:href="class_ogre_1_1_voxel_visualizer.html" target="_top" xlink:title=" ">
<polygon fill="white" stroke="#666666" points="521.5,-537 401.5,-537 401.5,-518 521.5,-518 521.5,-537"/>
<text text-anchor="middle" x="461.5" y="-525" font-family="Helvetica,sans-Serif" font-size="10.00">Ogre::VoxelVisualizer</text>
</a>
</g>
</g>
<!-- Node7&#45;&gt;Node23 -->
<g id="edge22_Node000007_Node000023" class="edge">
<title>Node7&#45;&gt;Node23</title>
<g id="a_edge22_Node000007_Node000023"><a xlink:title=" ">
<path fill="none" stroke="#63b8ff" d="M293.52,-527.5C327.72,-527.5 368.6,-527.5 401.34,-527.5"/>
<polygon fill="#63b8ff" stroke="#63b8ff" points="293.14,-524 283.14,-527.5 293.14,-531 293.14,-524"/>
</a>
</g>
</g>
<!-- Node24 -->
<g id="Node000024" class="node">
<title>Node24</title>
<g id="a_Node000024"><a xlink:href="class_ogre_1_1_wire_aabb.html" target="_top" xlink:title="Helper class to display the Aabb of a MovableObject as lines.">
<polygon fill="white" stroke="#666666" points="508,-500 415,-500 415,-481 508,-481 508,-500"/>
<text text-anchor="middle" x="461.5" y="-488" font-family="Helvetica,sans-Serif" font-size="10.00">Ogre::WireAabb</text>
</a>
</g>
</g>
<!-- Node7&#45;&gt;Node24 -->
<g id="edge23_Node000007_Node000024" class="edge">
<title>Node7&#45;&gt;Node24</title>
<g id="a_edge23_Node000007_Node000024"><a xlink:title=" ">
<path fill="none" stroke="#63b8ff" d="M293.39,-516.7C332.48,-510.57 380.31,-503.07 414.77,-497.67"/>
<polygon fill="#63b8ff" stroke="#63b8ff" points="292.48,-513.3 283.14,-518.31 293.56,-520.22 292.48,-513.3"/>
</a>
</g>
</g>
<!-- Node25 -->
<g id="Node000025" class="node">
<title>Node25</title>
<g id="a_Node000025"><a xlink:href="class_ogre_1_1v1_1_1_billboard_chain.html" target="_top" xlink:title="Allows the rendering of a chain of connected billboards.">
<polygon fill="white" stroke="#666666" points="529,-463 394,-463 394,-444 529,-444 529,-463"/>
<text text-anchor="middle" x="461.5" y="-451" font-family="Helvetica,sans-Serif" font-size="10.00">Ogre::v1::BillboardChain</text>
</a>
</g>
</g>
<!-- Node7&#45;&gt;Node25 -->
<g id="edge24_Node000007_Node000025" class="edge">
<title>Node7&#45;&gt;Node25</title>
<g id="a_edge24_Node000007_Node000025"><a xlink:title=" ">
<path fill="none" stroke="#63b8ff" d="M254.22,-513.57C281.48,-501.26 323.23,-483.6 361,-472.5 373.57,-468.81 387.25,-465.65 400.33,-463.04"/>
<polygon fill="#63b8ff" stroke="#63b8ff" points="252.51,-510.5 244.87,-517.83 255.42,-516.87 252.51,-510.5"/>
</a>
</g>
</g>
<!-- Node27 -->
<g id="Node000027" class="node">
<title>Node27</title>
<g id="a_Node000027"><a xlink:href="class_ogre_1_1v1_1_1_billboard_set.html" target="_top" xlink:title="A collection of billboards (faces which are always facing the given direction) with the same (default...">
<polygon fill="white" stroke="#666666" points="523,-426 400,-426 400,-407 523,-407 523,-426"/>
<text text-anchor="middle" x="461.5" y="-414" font-family="Helvetica,sans-Serif" font-size="10.00">Ogre::v1::BillboardSet</text>
</a>
</g>
</g>
<!-- Node7&#45;&gt;Node27 -->
<g id="edge26_Node000007_Node000027" class="edge">
<title>Node7&#45;&gt;Node27</title>
<g id="a_edge26_Node000007_Node000027"><a xlink:title=" ">
<path fill="none" stroke="#63b8ff" d="M243.2,-511.22C268.26,-490.32 314.91,-454.49 361,-435.5 373.2,-430.47 386.78,-426.76 399.91,-424.03"/>
<polygon fill="#63b8ff" stroke="#63b8ff" points="240.64,-508.8 235.28,-517.94 245.17,-514.14 240.64,-508.8"/>
</a>
</g>
</g>
<!-- Node28 -->
<g id="Node000028" class="node">
<title>Node28</title>
<g id="a_Node000028"><a xlink:href="class_ogre_1_1v1_1_1_entity.html" target="_top" xlink:title="Defines an instance of a discrete, movable object based on a Mesh.">
<polygon fill="white" stroke="#666666" points="507.5,-389 415.5,-389 415.5,-370 507.5,-370 507.5,-389"/>
<text text-anchor="middle" x="461.5" y="-377" font-family="Helvetica,sans-Serif" font-size="10.00">Ogre::v1::Entity</text>
</a>
</g>
</g>
<!-- Node7&#45;&gt;Node28 -->
<g id="edge27_Node000007_Node000028" class="edge">
<title>Node7&#45;&gt;Node28</title>
<g id="a_edge27_Node000007_Node000028"><a xlink:title=" ">
<path fill="none" stroke="#63b8ff" d="M237.79,-509.57C259.94,-481.1 307.3,-425.97 361,-398.5 377.6,-390.01 397.51,-385.29 415.14,-382.68"/>
<polygon fill="#63b8ff" stroke="#63b8ff" points="234.79,-507.73 231.51,-517.81 240.36,-511.98 234.79,-507.73"/>
</a>
</g>
</g>
<!-- Node29 -->
<g id="Node000029" class="node">
<title>Node29</title>
<g id="a_Node000029"><a xlink:href="class_ogre_1_1v1_1_1_manual_object.html" target="_top" xlink:title="Class providing a much simplified interface to generating manual objects with custom geometry.">
<polygon fill="white" stroke="#666666" points="527,-352 396,-352 396,-333 527,-333 527,-352"/>
<text text-anchor="middle" x="461.5" y="-340" font-family="Helvetica,sans-Serif" font-size="10.00">Ogre::v1::ManualObject</text>
</a>
</g>
</g>
<!-- Node7&#45;&gt;Node29 -->
<g id="edge28_Node000007_Node000029" class="edge">
<title>Node7&#45;&gt;Node29</title>
<g id="a_edge28_Node000007_Node000029"><a xlink:title=" ">
<path fill="none" stroke="#63b8ff" d="M234.26,-508.44C253.4,-473.19 299.38,-398.07 361,-361.5 371.51,-355.26 383.65,-351.01 395.75,-348.13"/>
<polygon fill="#63b8ff" stroke="#63b8ff" points="230.98,-507.16 229.39,-517.64 237.17,-510.44 230.98,-507.16"/>
</a>
</g>
</g>
<!-- Node30 -->
<g id="Node000030" class="node">
<title>Node30</title>
<g id="a_Node000030"><a xlink:href="class_ogre_1_1v1_1_1_overlay.html" target="_top" xlink:title="Represents a layer which is rendered on top of the &#39;normal&#39; scene contents.">
<polygon fill="white" stroke="#666666" points="512.5,-315 410.5,-315 410.5,-296 512.5,-296 512.5,-315"/>
<text text-anchor="middle" x="461.5" y="-303" font-family="Helvetica,sans-Serif" font-size="10.00">Ogre::v1::Overlay</text>
</a>
</g>
</g>
<!-- Node7&#45;&gt;Node30 -->
<g id="edge29_Node000007_Node000030" class="edge">
<title>Node7&#45;&gt;Node30</title>
<g id="a_edge29_Node000007_Node000030"><a xlink:title=" ">
<path fill="none" stroke="#63b8ff" d="M231.47,-508.27C247.43,-467.21 290.74,-370.91 361,-324.5 375.45,-314.95 393.52,-309.94 410.27,-307.38"/>
<polygon fill="#63b8ff" stroke="#63b8ff" points="228.1,-507.29 227.85,-517.88 234.65,-509.76 228.1,-507.29"/>
</a>
</g>
</g>
<!-- Node31 -->
<g id="Node000031" class="node">
<title>Node31</title>
<g id="a_Node000031"><a xlink:href="class_ogre_1_1v1_1_1_rectangle2_d.html" target="_top" xlink:title="Allows the rendering of a simple 2D rectangle This class renders a simple 2D rectangle; this rectangl...">
<polygon fill="white" stroke="#666666" points="524.5,-278 398.5,-278 398.5,-259 524.5,-259 524.5,-278"/>
<text text-anchor="middle" x="461.5" y="-266" font-family="Helvetica,sans-Serif" font-size="10.00">Ogre::v1::Rectangle2D</text>
</a>
</g>
</g>
<!-- Node7&#45;&gt;Node31 -->
<g id="edge30_Node000007_Node000031" class="edge">
<title>Node7&#45;&gt;Node31</title>
<g id="a_edge30_Node000007_Node000031"><a xlink:title=" ">
<path fill="none" stroke="#63b8ff" d="M229.41,-508.32C242.32,-462.1 281.79,-344.19 361,-287.5 371.94,-279.67 385.23,-274.82 398.48,-271.88"/>
<polygon fill="#63b8ff" stroke="#63b8ff" points="226.03,-507.42 226.82,-517.99 232.79,-509.24 226.03,-507.42"/>
</a>
</g>
</g>
<!-- Node32 -->
<g id="Node000032" class="node">
<title>Node32</title>
<g id="a_Node000032"><a xlink:href="class_ogre_1_1v1_1_1_simple_renderable.html" target="_top" xlink:title="Simple implementation of MovableObject and Renderable for single&#45;part custom objects.">
<polygon fill="white" stroke="#666666" points="538,-241 385,-241 385,-222 538,-222 538,-241"/>
<text text-anchor="middle" x="461.5" y="-229" font-family="Helvetica,sans-Serif" font-size="10.00">Ogre::v1::SimpleRenderable</text>
</a>
</g>
</g>
<!-- Node7&#45;&gt;Node32 -->
<g id="edge31_Node000007_Node000032" class="edge">
<title>Node7&#45;&gt;Node32</title>
<g id="a_edge31_Node000007_Node000032"><a xlink:title=" ">
<path fill="none" stroke="#63b8ff" d="M227.97,-507.88C238.16,-456.53 272.97,-317.54 361,-250.5 368.07,-245.12 376.22,-241.12 384.75,-238.17"/>
<polygon fill="#63b8ff" stroke="#63b8ff" points="224.49,-507.48 226.07,-517.96 231.37,-508.78 224.49,-507.48"/>
</a>
</g>
</g>
<!-- Node10 -->
<g id="Node000010" class="node">
<title>Node10</title>
<g id="a_Node000010"><a xlink:href="class_ogre_1_1_camera.html" target="_top" xlink:title="A viewpoint from which the scene will be rendered.">
<polygon fill="white" stroke="#666666" points="715.5,-944 631.5,-944 631.5,-925 715.5,-925 715.5,-944"/>
<text text-anchor="middle" x="673.5" y="-932" font-family="Helvetica,sans-Serif" font-size="10.00">Ogre::Camera</text>
</a>
</g>
</g>
<!-- Node9&#45;&gt;Node10 -->
<g id="edge9_Node000009_Node000010" class="edge">
<title>Node9&#45;&gt;Node10</title>
<g id="a_edge9_Node000009_Node000010"><a xlink:title=" ">
<path fill="none" stroke="#63b8ff" d="M515.06,-934.5C551.06,-934.5 598.13,-934.5 631.4,-934.5"/>
<polygon fill="#63b8ff" stroke="#63b8ff" points="514.74,-931 504.74,-934.5 514.74,-938 514.74,-931"/>
</a>
</g>
</g>
<!-- Node19 -->
<g id="Node000019" class="node">
<title>Node19</title>
<g id="a_Node000019"><a xlink:href="class_ogre_1_1_particle_system_def.html" target="_top" xlink:title="A ParticleSystemDef does not form part of the scene.">
<polygon fill="white" stroke="#666666" points="741.5,-648 605.5,-648 605.5,-629 741.5,-629 741.5,-648"/>
<text text-anchor="middle" x="673.5" y="-636" font-family="Helvetica,sans-Serif" font-size="10.00">Ogre::ParticleSystemDef</text>
</a>
</g>
</g>
<!-- Node18&#45;&gt;Node19 -->
<g id="edge18_Node000018_Node000019" class="edge">
<title>Node18&#45;&gt;Node19</title>
<g id="a_edge18_Node000018_Node000019"><a xlink:title=" ">
<path fill="none" stroke="#63b8ff" d="M531.58,-638.5C555.25,-638.5 581.69,-638.5 605.21,-638.5"/>
<polygon fill="#63b8ff" stroke="#63b8ff" points="531.28,-635 521.28,-638.5 531.28,-642 531.28,-635"/>
</a>
</g>
</g>
<!-- Node20 -->
<g id="Node000020" class="node">
<title>Node20</title>
<g id="a_Node000020"><a xlink:href="class_ogre_1_1_billboard_set.html" target="_top" xlink:title="A BillboardSet is just a ParticleSystemDef directly exposed to the user but without emitters,...">
<polygon fill="white" stroke="#666666" points="890,-648 785,-648 785,-629 890,-629 890,-648"/>
<text text-anchor="middle" x="837.5" y="-636" font-family="Helvetica,sans-Serif" font-size="10.00">Ogre::BillboardSet</text>
</a>
</g>
</g>
<!-- Node19&#45;&gt;Node20 -->
<g id="edge19_Node000019_Node000020" class="edge">
<title>Node19&#45;&gt;Node20</title>
<g id="a_edge19_Node000019_Node000020"><a xlink:title=" ">
<path fill="none" stroke="#63b8ff" d="M752.02,-638.5C763.2,-638.5 774.47,-638.5 784.98,-638.5"/>
<polygon fill="#63b8ff" stroke="#63b8ff" points="751.8,-635 741.8,-638.5 751.8,-642 751.8,-635"/>
</a>
</g>
</g>
<!-- Node26 -->
<g id="Node000026" class="node">
<title>Node26</title>
<g id="a_Node000026"><a xlink:href="class_ogre_1_1v1_1_1_ribbon_trail.html" target="_top" xlink:title="Subclass of BillboardChain which automatically leaves a trail behind one or more Node instances.">
<polygon fill="white" stroke="#666666" points="732.5,-463 614.5,-463 614.5,-444 732.5,-444 732.5,-463"/>
<text text-anchor="middle" x="673.5" y="-451" font-family="Helvetica,sans-Serif" font-size="10.00">Ogre::v1::RibbonTrail</text>
</a>
</g>
</g>
<!-- Node25&#45;&gt;Node26 -->
<g id="edge25_Node000025_Node000026" class="edge">
<title>Node25&#45;&gt;Node26</title>
<g id="a_edge25_Node000025_Node000026"><a xlink:title=" ">
<path fill="none" stroke="#63b8ff" d="M539.34,-453.5C564.15,-453.5 591.22,-453.5 614.44,-453.5"/>
<polygon fill="#63b8ff" stroke="#63b8ff" points="539.23,-450 529.23,-453.5 539.23,-457 539.23,-450"/>
</a>
</g>
</g>
<!-- Node33 -->
<g id="Node000033" class="node">
<title>Node33</title>
<g id="a_Node000033"><a xlink:href="class_ogre_1_1v1_1_1_wire_bounding_box.html" target="_top" xlink:title="Allows the rendering of a wireframe bounding box.">
<polygon fill="white" stroke="#666666" points="749,-241 598,-241 598,-222 749,-222 749,-241"/>
<text text-anchor="middle" x="673.5" y="-229" font-family="Helvetica,sans-Serif" font-size="10.00">Ogre::v1::WireBoundingBox</text>
</a>
</g>
</g>
<!-- Node32&#45;&gt;Node33 -->
<g id="edge32_Node000032_Node000033" class="edge">
<title>Node32&#45;&gt;Node33</title>
<g id="a_edge32_Node000032_Node000033"><a xlink:title=" ">
<path fill="none" stroke="#63b8ff" d="M548.14,-231.5C564.55,-231.5 581.61,-231.5 597.65,-231.5"/>
<polygon fill="#63b8ff" stroke="#63b8ff" points="548.02,-228 538.02,-231.5 548.02,-235 548.02,-228"/>
</a>
</g>
</g>
<!-- Node35 -->
<g id="Node000035" class="node">
<title>Node35</title>
<g id="a_Node000035"><a xlink:href="class_ogre_1_1_scene_node.html" target="_top" xlink:title="Class representing a node in the scene graph.">
<polygon fill="white" stroke="#666666" points="512,-204 411,-204 411,-185 512,-185 512,-204"/>
<text text-anchor="middle" x="461.5" y="-192" font-family="Helvetica,sans-Serif" font-size="10.00">Ogre::SceneNode</text>
</a>
</g>
</g>
<!-- Node34&#45;&gt;Node35 -->
<g id="edge34_Node000034_Node000035" class="edge">
<title>Node34&#45;&gt;Node35</title>
<g id="a_edge34_Node000034_Node000035"><a xlink:title=" ">
<path fill="none" stroke="#63b8ff" d="M269.14,-224.5C309.46,-218.18 368.72,-208.89 410.59,-202.32"/>
<polygon fill="#63b8ff" stroke="#63b8ff" points="268.41,-221.07 259.07,-226.08 269.49,-227.99 268.41,-221.07"/>
</a>
</g>
</g>
<!-- Node36 -->
<g id="Node000036" class="node">
<title>Node36</title>
<g id="a_Node000036"><a xlink:href="class_ogre_1_1_tag_point.html" target="_top" xlink:title="TagPoints are like SceneNodes, that can be children of a Bone.">
<polygon fill="white" stroke="#666666" points="717,-204 630,-204 630,-185 717,-185 717,-204"/>
<text text-anchor="middle" x="673.5" y="-192" font-family="Helvetica,sans-Serif" font-size="10.00">Ogre::TagPoint</text>
</a>
</g>
</g>
<!-- Node35&#45;&gt;Node36 -->
<g id="edge35_Node000035_Node000036" class="edge">
<title>Node35&#45;&gt;Node36</title>
<g id="a_edge35_Node000035_Node000036"><a xlink:title=" ">
<path fill="none" stroke="#63b8ff" d="M522.36,-194.5C556.62,-194.5 598.8,-194.5 629.72,-194.5"/>
<polygon fill="#63b8ff" stroke="#63b8ff" points="522,-191 512,-194.5 522,-198 522,-191"/>
</a>
</g>
</g>
<!-- Node38 -->
<g id="Node000038" class="node">
<title>Node38</title>
<g id="a_Node000038"><a xlink:href="class_ogre_1_1_parallax_corrected_cubemap.html" target="_top" xlink:title=" ">
<polygon fill="white" stroke="#666666" points="551,-167 372,-167 372,-148 551,-148 551,-167"/>
<text text-anchor="middle" x="461.5" y="-155" font-family="Helvetica,sans-Serif" font-size="10.00">Ogre::ParallaxCorrectedCubemap</text>
</a>
</g>
</g>
<!-- Node37&#45;&gt;Node38 -->
<g id="edge37_Node000037_Node000038" class="edge">
<title>Node37&#45;&gt;Node38</title>
<g id="a_edge37_Node000037_Node000038"><a xlink:title=" ">
<path fill="none" stroke="#63b8ff" d="M295.37,-183.39C328.55,-178.19 367.68,-172.05 399.52,-167.06"/>
<polygon fill="#63b8ff" stroke="#63b8ff" points="294.61,-179.96 285.28,-184.97 295.7,-186.88 294.61,-179.96"/>
</a>
</g>
</g>
<!-- Node39 -->
<g id="Node000039" class="node">
<title>Node39</title>
<g id="a_Node000039"><a xlink:href="class_ogre_1_1_parallax_corrected_cubemap_auto.html" target="_top" xlink:title="Per&#45;Pixel reflection probes.">
<polygon fill="white" stroke="#666666" points="562,-130 361,-130 361,-111 562,-111 562,-130"/>
<text text-anchor="middle" x="461.5" y="-118" font-family="Helvetica,sans-Serif" font-size="10.00">Ogre::ParallaxCorrectedCubemapAuto</text>
</a>
</g>
</g>
<!-- Node37&#45;&gt;Node39 -->
<g id="edge38_Node000037_Node000039" class="edge">
<title>Node37&#45;&gt;Node39</title>
<g id="a_edge38_Node000037_Node000039"><a xlink:title=" ">
<path fill="none" stroke="#63b8ff" d="M311.58,-181.6C316.22,-179.82 320.73,-177.8 325,-175.5 345.21,-164.64 340.75,-149.28 361,-138.5 367.43,-135.08 374.39,-132.29 381.54,-130.03"/>
<polygon fill="#63b8ff" stroke="#63b8ff" points="310.22,-178.36 301.91,-184.92 312.5,-184.98 310.22,-178.36"/>
</a>
</g>
</g>
<!-- Node41 -->
<g id="Node000041" class="node">
<title>Node41</title>
<g id="a_Node000041"><a xlink:href="class_ogre_1_1_default_scene_manager.html" target="_top" xlink:title="Default scene manager.">
<polygon fill="white" stroke="#666666" points="538.5,-93 384.5,-93 384.5,-74 538.5,-74 538.5,-93"/>
<text text-anchor="middle" x="461.5" y="-81" font-family="Helvetica,sans-Serif" font-size="10.00">Ogre::DefaultSceneManager</text>
</a>
</g>
</g>
<!-- Node40&#45;&gt;Node41 -->
<g id="edge40_Node000040_Node000041" class="edge">
<title>Node40&#45;&gt;Node41</title>
<g id="a_edge40_Node000040_Node000041"><a xlink:title=" ">
<path fill="none" stroke="#63b8ff" d="M292.5,-150.52C303.77,-147.73 315.02,-143.86 325,-138.5 345.21,-127.64 340.75,-112.28 361,-101.5 368.28,-97.62 376.25,-94.56 384.39,-92.15"/>
<polygon fill="#63b8ff" stroke="#63b8ff" points="291.64,-147.13 282.63,-152.7 293.15,-153.96 291.64,-147.13"/>
</a>
</g>
</g>
<!-- Node45 -->
<g id="Node000045" class="node">
<title>Node45</title>
<g id="a_Node000045"><a xlink:href="class_ogre_1_1_vct_image_voxelizer.html" target="_top" xlink:title="The image voxelizer aims to be faster than VctImageVoxelizer for the whole scene by following a diffe...">
<polygon fill="white" stroke="#666666" points="530,-56 393,-56 393,-37 530,-37 530,-56"/>
<text text-anchor="middle" x="461.5" y="-44" font-family="Helvetica,sans-Serif" font-size="10.00">Ogre::VctImageVoxelizer</text>
</a>
</g>
</g>
<!-- Node44&#45;&gt;Node45 -->
<g id="edge44_Node000044_Node000045" class="edge">
<title>Node44&#45;&gt;Node45</title>
<g id="a_edge44_Node000044_Node000045"><a xlink:title=" ">
<path fill="none" stroke="#63b8ff" d="M315.23,-46.5C341.04,-46.5 368.69,-46.5 392.86,-46.5"/>
<polygon fill="#63b8ff" stroke="#63b8ff" points="315.06,-43 305.06,-46.5 315.06,-50 315.06,-43"/>
</a>
</g>
</g>
<!-- Node46 -->
<g id="Node000046" class="node">
<title>Node46</title>
<g id="a_Node000046"><a xlink:href="class_ogre_1_1_vct_voxelizer.html" target="_top" xlink:title="The voxelizer consists in several stages.">
<polygon fill="white" stroke="#666666" points="514.5,-19 408.5,-19 408.5,0 514.5,0 514.5,-19"/>
<text text-anchor="middle" x="461.5" y="-7" font-family="Helvetica,sans-Serif" font-size="10.00">Ogre::VctVoxelizer</text>
</a>
</g>
</g>
<!-- Node44&#45;&gt;Node46 -->
<g id="edge45_Node000044_Node000046" class="edge">
<title>Node44&#45;&gt;Node46</title>
<g id="a_edge45_Node000044_Node000046"><a xlink:title=" ">
<path fill="none" stroke="#63b8ff" d="M295.32,-35.4C331.64,-29.7 375.11,-22.89 408.34,-17.68"/>
<polygon fill="#63b8ff" stroke="#63b8ff" points="294.61,-31.96 285.28,-36.97 295.7,-38.88 294.61,-31.96"/>
</a>
</g>
</g>
</g>
</svg>
