<?xml version="1.0" encoding="UTF-8" standalone="no"?>
<!DOCTYPE svg PUBLIC "-//W3C//DTD SVG 1.1//EN"
 "http://www.w3.org/Graphics/SVG/1.1/DTD/svg11.dtd">
<!-- Generated by graphviz version 7.0.5 (20221223.1930)
 -->
<!-- Title: Ogre::PassthroughControllerFunction Pages: 1 -->
<svg width="146pt" height="159pt"
 viewBox="0.00 0.00 146.00 159.00" xmlns="http://www.w3.org/2000/svg" xmlns:xlink="http://www.w3.org/1999/xlink">
<g id="graph0" class="graph" transform="scale(1 1) rotate(0) translate(4 155)">
<title>Ogre::PassthroughControllerFunction</title>
<!-- Node1 -->
<g id="node1" class="node">
<title>Node1</title>
<g id="a_node1"><a xlink:title="Predefined controller function which just passes through the original source directly to dest.">
<polygon fill="#999999" stroke="#666666" points="138,-30 0,-30 0,0 138,0 138,-30"/>
<text text-anchor="start" x="8" y="-18" font-family="Helvetica,sans-Serif" font-size="10.00">Ogre::PassthroughController</text>
<text text-anchor="middle" x="69" y="-7" font-family="Helvetica,sans-Serif" font-size="10.00">Function</text>
</a>
</g>
</g>
<!-- Node2 -->
<g id="node2" class="node">
<title>Node2</title>
<g id="a_node2"><a xlink:href="class_ogre_1_1_controller_function.html" target="_top" xlink:title=" ">
<polygon fill="white" stroke="#666666" points="129.5,-96 8.5,-96 8.5,-66 129.5,-66 129.5,-96"/>
<text text-anchor="start" x="16.5" y="-84" font-family="Helvetica,sans-Serif" font-size="10.00">Ogre::ControllerFunction</text>
<text text-anchor="middle" x="69" y="-73" font-family="Helvetica,sans-Serif" font-size="10.00">&lt; Real &gt;</text>
</a>
</g>
</g>
<!-- Node2&#45;&gt;Node1 -->
<g id="edge1" class="edge">
<title>Node2&#45;&gt;Node1</title>
<path fill="none" stroke="#63b8ff" d="M69,-54.39C69,-46.13 69,-37.28 69,-30.16"/>
<polygon fill="#63b8ff" stroke="#63b8ff" points="65.5,-54.28 69,-64.28 72.5,-54.28 65.5,-54.28"/>
</g>
<!-- Node3 -->
<g id="node3" class="node">
<title>Node3</title>
<g id="a_node3"><a xlink:title=" ">
<polygon fill="white" stroke="#666666" points="115.5,-151 22.5,-151 22.5,-132 115.5,-132 115.5,-151"/>
<text text-anchor="middle" x="69" y="-139" font-family="Helvetica,sans-Serif" font-size="10.00">OgreAllocatedObj</text>
</a>
</g>
</g>
<!-- Node3&#45;&gt;Node2 -->
<g id="edge2" class="edge">
<title>Node3&#45;&gt;Node2</title>
<path fill="none" stroke="#63b8ff" d="M69,-120.51C69,-112.49 69,-103.43 69,-96.11"/>
<polygon fill="#63b8ff" stroke="#63b8ff" points="65.5,-120.35 69,-130.35 72.5,-120.35 65.5,-120.35"/>
</g>
</g>
</svg>
