<?xml version="1.0" encoding="UTF-8" standalone="no"?>
<!DOCTYPE svg PUBLIC "-//W3C//DTD SVG 1.1//EN"
 "http://www.w3.org/Graphics/SVG/1.1/DTD/svg11.dtd">
<!-- Generated by graphviz version 2.43.0 (0)
 -->
<!-- Title: Ogre::DefaultTextureGpuManagerListener Pages: 1 -->
<svg width="191pt" height="148pt"
 viewBox="0.00 0.00 191.00 148.00" xmlns="http://www.w3.org/2000/svg" xmlns:xlink="http://www.w3.org/1999/xlink">
<g id="graph0" class="graph" transform="scale(1 1) rotate(0) translate(4 144)">
<title>Ogre::DefaultTextureGpuManagerListener</title>
<!-- Node1 -->
<g id="Node000001" class="node">
<title>Node1</title>
<g id="a_Node000001"><a xlink:title="This is a Default implementation of TextureGpuManagerListener based on heuristics.">
<polygon fill="#999999" stroke="#666666" points="181.5,-30 1.5,-30 1.5,0 181.5,0 181.5,-30"/>
<text text-anchor="start" x="9.5" y="-18" font-family="Helvetica,sans-Serif" font-size="10.00">Ogre::DefaultTextureGpuManager</text>
<text text-anchor="middle" x="91.5" y="-7" font-family="Helvetica,sans-Serif" font-size="10.00">Listener</text>
</a>
</g>
</g>
<!-- Node2 -->
<g id="Node000002" class="node">
<title>Node2</title>
<g id="a_Node000002"><a xlink:href="class_ogre_1_1_texture_gpu_manager_listener.html" target="_top" xlink:title=" ">
<polygon fill="white" stroke="#666666" points="183,-85 0,-85 0,-66 183,-66 183,-85"/>
<text text-anchor="middle" x="91.5" y="-73" font-family="Helvetica,sans-Serif" font-size="10.00">Ogre::TextureGpuManagerListener</text>
</a>
</g>
</g>
<!-- Node2&#45;&gt;Node1 -->
<g id="edge1_Node000001_Node000002" class="edge">
<title>Node2&#45;&gt;Node1</title>
<g id="a_edge1_Node000001_Node000002"><a xlink:title=" ">
<path fill="none" stroke="#63b8ff" d="M91.5,-55.65C91.5,-47.36 91.5,-37.78 91.5,-30.11"/>
<polygon fill="#63b8ff" stroke="#63b8ff" points="88,-55.87 91.5,-65.87 95,-55.87 88,-55.87"/>
</a>
</g>
</g>
<!-- Node3 -->
<g id="Node000003" class="node">
<title>Node3</title>
<g id="a_Node000003"><a xlink:href="class_ogre_1_1_texture_gpu_listener.html" target="_top" xlink:title=" ">
<polygon fill="white" stroke="#666666" points="161.5,-140 21.5,-140 21.5,-121 161.5,-121 161.5,-140"/>
<text text-anchor="middle" x="91.5" y="-128" font-family="Helvetica,sans-Serif" font-size="10.00">Ogre::TextureGpuListener</text>
</a>
</g>
</g>
<!-- Node3&#45;&gt;Node2 -->
<g id="edge2_Node000002_Node000003" class="edge">
<title>Node3&#45;&gt;Node2</title>
<g id="a_edge2_Node000002_Node000003"><a xlink:title=" ">
<path fill="none" stroke="#63b8ff" d="M91.5,-110.66C91.5,-101.93 91.5,-91.99 91.5,-85.09"/>
<polygon fill="#63b8ff" stroke="#63b8ff" points="88,-110.75 91.5,-120.75 95,-110.75 88,-110.75"/>
</a>
</g>
</g>
</g>
</svg>
