<?xml version="1.0" encoding="UTF-8" standalone="no"?>
<!DOCTYPE svg PUBLIC "-//W3C//DTD SVG 1.1//EN"
 "http://www.w3.org/Graphics/SVG/1.1/DTD/svg11.dtd">
<!-- Generated by graphviz version 2.43.0 (0)
 -->
<!-- Title: Ogre::APKFileSystemArchiveFactory Pages: 1 -->
<svg width="314pt" height="148pt"
 viewBox="0.00 0.00 314.00 148.00" xmlns="http://www.w3.org/2000/svg" xmlns:xlink="http://www.w3.org/1999/xlink">
<g id="graph0" class="graph" transform="scale(1 1) rotate(0) translate(4 144)">
<title>Ogre::APKFileSystemArchiveFactory</title>
<!-- Node1 -->
<g id="Node000001" class="node">
<title>Node1</title>
<g id="a_Node000001"><a xlink:title=" ">
<polygon fill="#999999" stroke="#666666" points="237.5,-30 81.5,-30 81.5,0 237.5,0 237.5,-30"/>
<text text-anchor="start" x="89.5" y="-18" font-family="Helvetica,sans-Serif" font-size="10.00">Ogre::APKFileSystemArchive</text>
<text text-anchor="middle" x="159.5" y="-7" font-family="Helvetica,sans-Serif" font-size="10.00">Factory</text>
</a>
</g>
</g>
<!-- Node2 -->
<g id="Node000002" class="node">
<title>Node2</title>
<g id="a_Node000002"><a xlink:href="class_ogre_1_1_archive_factory.html" target="_top" xlink:title="Abstract factory class, archive codec plugins can register concrete subclasses of this.">
<polygon fill="white" stroke="#666666" points="218.5,-85 100.5,-85 100.5,-66 218.5,-66 218.5,-85"/>
<text text-anchor="middle" x="159.5" y="-73" font-family="Helvetica,sans-Serif" font-size="10.00">Ogre::ArchiveFactory</text>
</a>
</g>
</g>
<!-- Node2&#45;&gt;Node1 -->
<g id="edge1_Node000001_Node000002" class="edge">
<title>Node2&#45;&gt;Node1</title>
<g id="a_edge1_Node000001_Node000002"><a xlink:title=" ">
<path fill="none" stroke="#63b8ff" d="M159.5,-55.65C159.5,-47.36 159.5,-37.78 159.5,-30.11"/>
<polygon fill="#63b8ff" stroke="#63b8ff" points="156,-55.87 159.5,-65.87 163,-55.87 156,-55.87"/>
</a>
</g>
</g>
<!-- Node3 -->
<g id="Node000003" class="node">
<title>Node3</title>
<g id="a_Node000003"><a xlink:href="class_ogre_1_1_factory_obj.html" target="_top" xlink:title=" ">
<polygon fill="white" stroke="#666666" points="157,-140 0,-140 0,-121 157,-121 157,-140"/>
<text text-anchor="middle" x="78.5" y="-128" font-family="Helvetica,sans-Serif" font-size="10.00">Ogre::FactoryObj&lt; Archive &gt;</text>
</a>
</g>
</g>
<!-- Node3&#45;&gt;Node2 -->
<g id="edge2_Node000002_Node000003" class="edge">
<title>Node3&#45;&gt;Node2</title>
<g id="a_edge2_Node000002_Node000003"><a xlink:title=" ">
<path fill="none" stroke="#63b8ff" d="M100.01,-115.42C114.71,-105.81 133.72,-93.37 146.25,-85.17"/>
<polygon fill="#63b8ff" stroke="#63b8ff" points="97.97,-112.58 91.51,-120.98 101.8,-118.44 97.97,-112.58"/>
</a>
</g>
</g>
<!-- Node4 -->
<g id="Node000004" class="node">
<title>Node4</title>
<g id="a_Node000004"><a xlink:title=" ">
<polygon fill="white" stroke="#666666" points="306,-140 175,-140 175,-121 306,-121 306,-140"/>
<text text-anchor="middle" x="240.5" y="-128" font-family="Helvetica,sans-Serif" font-size="10.00">Ogre::OgreAllocatedObj</text>
</a>
</g>
</g>
<!-- Node4&#45;&gt;Node2 -->
<g id="edge3_Node000002_Node000004" class="edge">
<title>Node4&#45;&gt;Node2</title>
<g id="a_edge3_Node000002_Node000004"><a xlink:title=" ">
<path fill="none" stroke="#63b8ff" d="M218.99,-115.42C204.29,-105.81 185.28,-93.37 172.75,-85.17"/>
<polygon fill="#63b8ff" stroke="#63b8ff" points="217.2,-118.44 227.49,-120.98 221.03,-112.58 217.2,-118.44"/>
</a>
</g>
</g>
</g>
</svg>
