<?xml version="1.0" encoding="UTF-8" standalone="no"?>
<!DOCTYPE svg PUBLIC "-//W3C//DTD SVG 1.1//EN"
 "http://www.w3.org/Graphics/SVG/1.1/DTD/svg11.dtd">
<!-- Generated by graphviz version 2.43.0 (0)
 -->
<!-- Title: Ogre::EllipsoidEmitter2 Pages: 1 -->
<svg width="226pt" height="302pt"
 viewBox="0.00 0.00 226.00 302.00" xmlns="http://www.w3.org/2000/svg" xmlns:xlink="http://www.w3.org/1999/xlink">
<g id="graph0" class="graph" transform="scale(1 1) rotate(0) translate(4 298)">
<title>Ogre::EllipsoidEmitter2</title>
<!-- Node1 -->
<g id="Node000001" class="node">
<title>Node1</title>
<g id="a_Node000001"><a xlink:title="Particle emitter which emits particles randomly from points inside an ellipsoid.">
<polygon fill="#999999" stroke="#666666" points="182.5,-74 53.5,-74 53.5,-55 182.5,-55 182.5,-74"/>
<text text-anchor="middle" x="118" y="-62" font-family="Helvetica,sans-Serif" font-size="10.00">Ogre::EllipsoidEmitter2</text>
</a>
</g>
</g>
<!-- Node8 -->
<g id="Node000008" class="node">
<title>Node8</title>
<g id="a_Node000008"><a xlink:href="class_ogre_1_1_hollow_ellipsoid_emitter2.html" target="_top" xlink:title="Particle emitter which emits particles randomly from points inside a hollow ellipsoid.">
<polygon fill="white" stroke="#666666" points="199.5,-19 36.5,-19 36.5,0 199.5,0 199.5,-19"/>
<text text-anchor="middle" x="118" y="-7" font-family="Helvetica,sans-Serif" font-size="10.00">Ogre::HollowEllipsoidEmitter2</text>
</a>
</g>
</g>
<!-- Node1&#45;&gt;Node8 -->
<g id="edge6_Node000001_Node000008" class="edge">
<title>Node1&#45;&gt;Node8</title>
<g id="a_edge6_Node000001_Node000008"><a xlink:title=" ">
<path fill="none" stroke="#63b8ff" d="M118,-44.66C118,-35.93 118,-25.99 118,-19.09"/>
<polygon fill="#63b8ff" stroke="#63b8ff" points="114.5,-44.75 118,-54.75 121.5,-44.75 114.5,-44.75"/>
</a>
</g>
</g>
<!-- Node2 -->
<g id="Node000002" class="node">
<title>Node2</title>
<g id="a_Node000002"><a xlink:href="class_ogre_1_1_area_emitter2.html" target="_top" xlink:title="Particle emitter which emits particles randomly from points inside an area (box, sphere,...">
<polygon fill="white" stroke="#666666" points="173,-129 63,-129 63,-110 173,-110 173,-129"/>
<text text-anchor="middle" x="118" y="-117" font-family="Helvetica,sans-Serif" font-size="10.00">Ogre::AreaEmitter2</text>
</a>
</g>
</g>
<!-- Node2&#45;&gt;Node1 -->
<g id="edge1_Node000001_Node000002" class="edge">
<title>Node2&#45;&gt;Node1</title>
<g id="a_edge1_Node000001_Node000002"><a xlink:title=" ">
<path fill="none" stroke="#63b8ff" d="M118,-99.66C118,-90.93 118,-80.99 118,-74.09"/>
<polygon fill="#63b8ff" stroke="#63b8ff" points="114.5,-99.75 118,-109.75 121.5,-99.75 114.5,-99.75"/>
</a>
</g>
</g>
<!-- Node3 -->
<g id="Node000003" class="node">
<title>Node3</title>
<g id="a_Node000003"><a xlink:href="class_ogre_1_1_emitter_def_data.html" target="_top" xlink:title="EmitterDefData are per ParticleSystemDef.">
<polygon fill="white" stroke="#666666" points="179,-184 57,-184 57,-165 179,-165 179,-184"/>
<text text-anchor="middle" x="118" y="-172" font-family="Helvetica,sans-Serif" font-size="10.00">Ogre::EmitterDefData</text>
</a>
</g>
</g>
<!-- Node3&#45;&gt;Node2 -->
<g id="edge2_Node000002_Node000003" class="edge">
<title>Node3&#45;&gt;Node2</title>
<g id="a_edge2_Node000002_Node000003"><a xlink:title=" ">
<path fill="none" stroke="#63b8ff" d="M118,-154.66C118,-145.93 118,-135.99 118,-129.09"/>
<polygon fill="#63b8ff" stroke="#63b8ff" points="114.5,-154.75 118,-164.75 121.5,-154.75 114.5,-154.75"/>
</a>
</g>
</g>
<!-- Node4 -->
<g id="Node000004" class="node">
<title>Node4</title>
<g id="a_Node000004"><a xlink:href="class_ogre_1_1_particle_emitter.html" target="_top" xlink:title="Abstract class defining the interface to be implemented by particle emitters.">
<polygon fill="white" stroke="#666666" points="177,-239 59,-239 59,-220 177,-220 177,-239"/>
<text text-anchor="middle" x="118" y="-227" font-family="Helvetica,sans-Serif" font-size="10.00">Ogre::ParticleEmitter</text>
</a>
</g>
</g>
<!-- Node4&#45;&gt;Node3 -->
<g id="edge3_Node000003_Node000004" class="edge">
<title>Node4&#45;&gt;Node3</title>
<g id="a_edge3_Node000003_Node000004"><a xlink:title=" ">
<path fill="none" stroke="#8b1a1a" d="M118,-209.66C118,-200.93 118,-190.99 118,-184.09"/>
<polygon fill="#8b1a1a" stroke="#8b1a1a" points="114.5,-209.75 118,-219.75 121.5,-209.75 114.5,-209.75"/>
</a>
</g>
</g>
<!-- Node5 -->
<g id="Node000005" class="node">
<title>Node5</title>
<g id="a_Node000005"><a xlink:href="class_ogre_1_1_string_interface.html" target="_top" xlink:title="Class defining the common interface which classes can use to present a reflection&#45;style,...">
<polygon fill="white" stroke="#666666" points="118,-294 0,-294 0,-275 118,-275 118,-294"/>
<text text-anchor="middle" x="59" y="-282" font-family="Helvetica,sans-Serif" font-size="10.00">Ogre::StringInterface</text>
</a>
</g>
</g>
<!-- Node5&#45;&gt;Node4 -->
<g id="edge4_Node000004_Node000005" class="edge">
<title>Node5&#45;&gt;Node4</title>
<g id="a_edge4_Node000004_Node000005"><a xlink:title=" ">
<path fill="none" stroke="#63b8ff" d="M76.2,-268.04C86.67,-258.64 99.65,-246.98 108.35,-239.17"/>
<polygon fill="#63b8ff" stroke="#63b8ff" points="73.58,-265.7 68.48,-274.98 78.26,-270.91 73.58,-265.7"/>
</a>
</g>
</g>
<!-- Node6 -->
<g id="Node000006" class="node">
<title>Node6</title>
<g id="a_Node000006"><a xlink:href="class_ogre_1_1_particle.html" target="_top" xlink:title="Class representing a single particle instance.">
<polygon fill="#fff0f0" stroke="red" points="218,-294 136,-294 136,-275 218,-275 218,-294"/>
<text text-anchor="middle" x="177" y="-282" font-family="Helvetica,sans-Serif" font-size="10.00">Ogre::Particle</text>
</a>
</g>
</g>
<!-- Node6&#45;&gt;Node4 -->
<g id="edge5_Node000004_Node000006" class="edge">
<title>Node6&#45;&gt;Node4</title>
<g id="a_edge5_Node000004_Node000006"><a xlink:title=" ">
<path fill="none" stroke="#63b8ff" d="M159.8,-268.04C149.33,-258.64 136.35,-246.98 127.65,-239.17"/>
<polygon fill="#63b8ff" stroke="#63b8ff" points="157.74,-270.91 167.52,-274.98 162.42,-265.7 157.74,-270.91"/>
</a>
</g>
</g>
</g>
</svg>
