<?xml version="1.0" encoding="UTF-8" standalone="no"?>
<!DOCTYPE svg PUBLIC "-//W3C//DTD SVG 1.1//EN"
 "http://www.w3.org/Graphics/SVG/1.1/DTD/svg11.dtd">
<!-- Generated by graphviz version 2.43.0 (0)
 -->
<!-- Title: Ogre::Volume::CSGOperationSource Pages: 1 -->
<svg width="529pt" height="127pt"
 viewBox="0.00 0.00 529.00 126.50" xmlns="http://www.w3.org/2000/svg" xmlns:xlink="http://www.w3.org/1999/xlink">
<g id="graph0" class="graph" transform="scale(1 1) rotate(0) translate(4 122.5)">
<title>Ogre::Volume::CSGOperationSource</title>
<!-- Node1 -->
<g id="node1" class="node">
<title>Node1</title>
<g id="a_node1"><a xlink:title="Abstract operation volume source holding two sources as operants.">
<polygon fill="#bfbfbf" stroke="black" points="158,-39 158,-69 315,-69 315,-39 158,-39"/>
<text text-anchor="start" x="166" y="-57" font-family="Helvetica,sans-Serif" font-size="10.00">Ogre::Volume::CSGOperation</text>
<text text-anchor="middle" x="236.5" y="-46" font-family="Helvetica,sans-Serif" font-size="10.00">Source</text>
</a>
</g>
</g>
<!-- Node3 -->
<g id="node3" class="node">
<title>Node3</title>
<g id="a_node3"><a xlink:href="class_ogre_1_1_volume_1_1_c_s_g_difference_source.html" target="_top" xlink:title="Builds the difference between two sources.">
<polygon fill="none" stroke="black" points="356.5,-88 356.5,-118 515.5,-118 515.5,-88 356.5,-88"/>
<text text-anchor="start" x="364.5" y="-106" font-family="Helvetica,sans-Serif" font-size="10.00">Ogre::Volume::CSGDifference</text>
<text text-anchor="middle" x="436" y="-95" font-family="Helvetica,sans-Serif" font-size="10.00">Source</text>
</a>
</g>
</g>
<!-- Node1&#45;&gt;Node3 -->
<g id="edge2" class="edge">
<title>Node1&#45;&gt;Node3</title>
<path fill="none" stroke="midnightblue" d="M307.94,-71.48C329.71,-76.88 353.48,-82.78 374.52,-87.99"/>
<polygon fill="midnightblue" stroke="midnightblue" points="308.65,-68.05 298.1,-69.03 306.96,-74.84 308.65,-68.05"/>
</g>
<!-- Node4 -->
<g id="node4" class="node">
<title>Node4</title>
<g id="a_node4"><a xlink:href="class_ogre_1_1_volume_1_1_c_s_g_intersection_source.html" target="_top" xlink:title="Builds the intersection between two sources.">
<polygon fill="none" stroke="black" points="352.5,-39 352.5,-69 519.5,-69 519.5,-39 352.5,-39"/>
<text text-anchor="start" x="360.5" y="-57" font-family="Helvetica,sans-Serif" font-size="10.00">Ogre::Volume::CSGIntersection</text>
<text text-anchor="middle" x="436" y="-46" font-family="Helvetica,sans-Serif" font-size="10.00">Source</text>
</a>
</g>
</g>
<!-- Node1&#45;&gt;Node4 -->
<g id="edge3" class="edge">
<title>Node1&#45;&gt;Node4</title>
<path fill="none" stroke="midnightblue" d="M325.36,-54C334.36,-54 343.48,-54 352.42,-54"/>
<polygon fill="midnightblue" stroke="midnightblue" points="325.27,-50.5 315.27,-54 325.27,-57.5 325.27,-50.5"/>
</g>
<!-- Node5 -->
<g id="node5" class="node">
<title>Node5</title>
<g id="a_node5"><a xlink:href="class_ogre_1_1_volume_1_1_c_s_g_union_source.html" target="_top" xlink:title="Builds the union between two sources.">
<polygon fill="none" stroke="black" points="351,-0.5 351,-19.5 521,-19.5 521,-0.5 351,-0.5"/>
<text text-anchor="middle" x="436" y="-7.5" font-family="Helvetica,sans-Serif" font-size="10.00">Ogre::Volume::CSGUnionSource</text>
</a>
</g>
</g>
<!-- Node1&#45;&gt;Node5 -->
<g id="edge4" class="edge">
<title>Node1&#45;&gt;Node5</title>
<path fill="none" stroke="midnightblue" d="M314.89,-36.76C341.23,-30.89 369.69,-24.55 392.3,-19.51"/>
<polygon fill="midnightblue" stroke="midnightblue" points="313.92,-33.39 304.92,-38.98 315.44,-40.22 313.92,-33.39"/>
</g>
<!-- Node2 -->
<g id="node2" class="node">
<title>Node2</title>
<g id="a_node2"><a xlink:href="class_ogre_1_1_volume_1_1_source.html" target="_top" xlink:title="Abstract class defining the density function.">
<polygon fill="none" stroke="black" points="0,-44.5 0,-63.5 122,-63.5 122,-44.5 0,-44.5"/>
<text text-anchor="middle" x="61" y="-51.5" font-family="Helvetica,sans-Serif" font-size="10.00">Ogre::Volume::Source</text>
</a>
</g>
</g>
<!-- Node2&#45;&gt;Node1 -->
<g id="edge1" class="edge">
<title>Node2&#45;&gt;Node1</title>
<path fill="none" stroke="midnightblue" d="M132.36,-54C140.8,-54 149.46,-54 157.99,-54"/>
<polygon fill="midnightblue" stroke="midnightblue" points="132.19,-50.5 122.19,-54 132.19,-57.5 132.19,-50.5"/>
</g>
</g>
</svg>
