<?xml version="1.0" encoding="UTF-8" standalone="no"?>
<!DOCTYPE svg PUBLIC "-//W3C//DTD SVG 1.1//EN"
 "http://www.w3.org/Graphics/SVG/1.1/DTD/svg11.dtd">
<!-- Generated by graphviz version 2.43.0 (0)
 -->
<!-- Title: Ogre::AbstractNode Pages: 1 -->
<svg width="479pt" height="180pt"
 viewBox="0.00 0.00 479.00 180.00" xmlns="http://www.w3.org/2000/svg" xmlns:xlink="http://www.w3.org/1999/xlink">
<g id="graph0" class="graph" transform="scale(1 1) rotate(0) translate(4 176)">
<title>Ogre::AbstractNode</title>
<!-- Node1 -->
<g id="node1" class="node">
<title>Node1</title>
<g id="a_node1"><a xlink:title=" ">
<polygon fill="#bfbfbf" stroke="black" points="138,-76.5 138,-95.5 250,-95.5 250,-76.5 138,-76.5"/>
<text text-anchor="middle" x="194" y="-83.5" font-family="Helvetica,sans-Serif" font-size="10.00">Ogre::AbstractNode</text>
</a>
</g>
</g>
<!-- Node3 -->
<g id="node3" class="node">
<title>Node3</title>
<g id="a_node3"><a xlink:href="class_ogre_1_1_atom_abstract_node.html" target="_top" xlink:title="This is an abstract node which cannot be broken down further.">
<polygon fill="none" stroke="black" points="309.5,-152.5 309.5,-171.5 447.5,-171.5 447.5,-152.5 309.5,-152.5"/>
<text text-anchor="middle" x="378.5" y="-159.5" font-family="Helvetica,sans-Serif" font-size="10.00">Ogre::AtomAbstractNode</text>
</a>
</g>
</g>
<!-- Node1&#45;&gt;Node3 -->
<g id="edge2" class="edge">
<title>Node1&#45;&gt;Node3</title>
<path fill="none" stroke="midnightblue" d="M215.58,-101.89C233.32,-114.82 260.08,-132.58 286,-143 295.48,-146.81 305.84,-149.9 316.07,-152.39"/>
<polygon fill="midnightblue" stroke="midnightblue" points="217.3,-98.8 207.19,-95.64 213.11,-104.42 217.3,-98.8"/>
</g>
<!-- Node4 -->
<g id="node4" class="node">
<title>Node4</title>
<g id="a_node4"><a xlink:href="class_ogre_1_1_import_abstract_node.html" target="_top" xlink:title="This abstract node represents an import statement.">
<polygon fill="none" stroke="black" points="306.5,-114.5 306.5,-133.5 450.5,-133.5 450.5,-114.5 306.5,-114.5"/>
<text text-anchor="middle" x="378.5" y="-121.5" font-family="Helvetica,sans-Serif" font-size="10.00">Ogre::ImportAbstractNode</text>
</a>
</g>
</g>
<!-- Node1&#45;&gt;Node4 -->
<g id="edge3" class="edge">
<title>Node1&#45;&gt;Node4</title>
<path fill="none" stroke="midnightblue" d="M250.86,-97.67C262.47,-100.1 274.63,-102.63 286,-105 300.77,-108.08 316.89,-111.42 331.42,-114.44"/>
<polygon fill="midnightblue" stroke="midnightblue" points="251.33,-94.2 240.83,-95.58 249.9,-101.05 251.33,-94.2"/>
</g>
<!-- Node5 -->
<g id="node5" class="node">
<title>Node5</title>
<g id="a_node5"><a xlink:href="class_ogre_1_1_object_abstract_node.html" target="_top" xlink:title="This specific abstract node represents a script object.">
<polygon fill="none" stroke="black" points="307,-76.5 307,-95.5 450,-95.5 450,-76.5 307,-76.5"/>
<text text-anchor="middle" x="378.5" y="-83.5" font-family="Helvetica,sans-Serif" font-size="10.00">Ogre::ObjectAbstractNode</text>
</a>
</g>
</g>
<!-- Node1&#45;&gt;Node5 -->
<g id="edge4" class="edge">
<title>Node1&#45;&gt;Node5</title>
<path fill="none" stroke="midnightblue" d="M260.49,-86C275.55,-86 291.63,-86 306.89,-86"/>
<polygon fill="midnightblue" stroke="midnightblue" points="260.25,-82.5 250.25,-86 260.25,-89.5 260.25,-82.5"/>
</g>
<!-- Node6 -->
<g id="node6" class="node">
<title>Node6</title>
<g id="a_node6"><a xlink:href="class_ogre_1_1_property_abstract_node.html" target="_top" xlink:title="This abstract node represents a script property.">
<polygon fill="none" stroke="black" points="302,-38.5 302,-57.5 455,-57.5 455,-38.5 302,-38.5"/>
<text text-anchor="middle" x="378.5" y="-45.5" font-family="Helvetica,sans-Serif" font-size="10.00">Ogre::PropertyAbstractNode</text>
</a>
</g>
</g>
<!-- Node1&#45;&gt;Node6 -->
<g id="edge5" class="edge">
<title>Node1&#45;&gt;Node6</title>
<path fill="none" stroke="midnightblue" d="M250.86,-74.33C262.47,-71.9 274.63,-69.37 286,-67 300.77,-63.92 316.89,-60.58 331.42,-57.56"/>
<polygon fill="midnightblue" stroke="midnightblue" points="249.9,-70.95 240.83,-76.42 251.33,-77.8 249.9,-70.95"/>
</g>
<!-- Node7 -->
<g id="node7" class="node">
<title>Node7</title>
<g id="a_node7"><a xlink:href="class_ogre_1_1_variable_access_abstract_node.html" target="_top" xlink:title="This abstract node represents a variable assignment.">
<polygon fill="none" stroke="black" points="286,-0.5 286,-19.5 471,-19.5 471,-0.5 286,-0.5"/>
<text text-anchor="middle" x="378.5" y="-7.5" font-family="Helvetica,sans-Serif" font-size="10.00">Ogre::VariableAccessAbstractNode</text>
</a>
</g>
</g>
<!-- Node1&#45;&gt;Node7 -->
<g id="edge6" class="edge">
<title>Node1&#45;&gt;Node7</title>
<path fill="none" stroke="midnightblue" d="M215.58,-70.11C233.32,-57.18 260.08,-39.42 286,-29 295.48,-25.19 305.84,-22.1 316.07,-19.61"/>
<polygon fill="midnightblue" stroke="midnightblue" points="213.11,-67.58 207.19,-76.36 217.3,-73.2 213.11,-67.58"/>
</g>
<!-- Node2 -->
<g id="node2" class="node">
<title>Node2</title>
<g id="a_node2"><a xlink:title=" ">
<polygon fill="none" stroke="#bfbfbf" points="0,-76.5 0,-95.5 102,-95.5 102,-76.5 0,-76.5"/>
<text text-anchor="middle" x="51" y="-83.5" font-family="Helvetica,sans-Serif" font-size="10.00">OgreAllocatedObj</text>
</a>
</g>
</g>
<!-- Node2&#45;&gt;Node1 -->
<g id="edge1" class="edge">
<title>Node2&#45;&gt;Node1</title>
<path fill="none" stroke="midnightblue" d="M112.3,-86C120.76,-86 129.42,-86 137.78,-86"/>
<polygon fill="midnightblue" stroke="midnightblue" points="112.11,-82.5 102.11,-86 112.11,-89.5 112.11,-82.5"/>
</g>
</g>
</svg>
