<?xml version="1.0" encoding="UTF-8" standalone="no"?>
<!DOCTYPE svg PUBLIC "-//W3C//DTD SVG 1.1//EN"
 "http://www.w3.org/Graphics/SVG/1.1/DTD/svg11.dtd">
<!-- Generated by graphviz version 7.0.5 (20221223.1930)
 -->
<!-- Title: Ogre::AsyncTextureTicket Pages: 1 -->
<svg width="494pt" height="199pt"
 viewBox="0.00 0.00 494.00 198.50" xmlns="http://www.w3.org/2000/svg" xmlns:xlink="http://www.w3.org/1999/xlink">
<g id="graph0" class="graph" transform="scale(1 1) rotate(0) translate(4 194.5)">
<title>Ogre::AsyncTextureTicket</title>
<!-- Node1 -->
<g id="node1" class="node">
<title>Node1</title>
<g id="a_node1"><a xlink:title="In Ogre 2.2 reading data from GPU back to CPU is asynchronous.">
<polygon fill="#999999" stroke="#666666" points="292,-104.5 164,-104.5 164,-85.5 292,-85.5 292,-104.5"/>
<text text-anchor="middle" x="228" y="-92.5" font-family="Helvetica,sans-Serif" font-size="10.00">Ogre::AsyncTextureTicket</text>
</a>
</g>
</g>
<!-- Node4 -->
<g id="node4" class="node">
<title>Node4</title>
<g id="a_node4"><a xlink:href="class_ogre_1_1_d3_d11_async_texture_ticket.html" target="_top" xlink:title="See AsyncTextureTicket.">
<polygon fill="white" stroke="#666666" points="486,-190.5 328,-190.5 328,-171.5 486,-171.5 486,-190.5"/>
<text text-anchor="middle" x="407" y="-178.5" font-family="Helvetica,sans-Serif" font-size="10.00">Ogre::D3D11AsyncTextureTicket</text>
</a>
</g>
</g>
<!-- Node1&#45;&gt;Node4 -->
<g id="edge3" class="edge">
<title>Node1&#45;&gt;Node4</title>
<path fill="none" stroke="#63b8ff" d="M249.4,-112.02C268.56,-127.2 298.62,-148.99 328,-162 336.16,-165.61 345.11,-168.61 353.95,-171.06"/>
<polygon fill="#63b8ff" stroke="#63b8ff" points="251.82,-109.48 241.85,-105.92 247.42,-114.93 251.82,-109.48"/>
</g>
<!-- Node5 -->
<g id="node5" class="node">
<title>Node5</title>
<g id="a_node5"><a xlink:href="class_ogre_1_1_g_l3_plus_async_texture_ticket.html" target="_top" xlink:title="See AsyncTextureTicket.">
<polygon fill="white" stroke="#666666" points="477,-153 337,-153 337,-123 477,-123 477,-153"/>
<text text-anchor="start" x="345" y="-141" font-family="Helvetica,sans-Serif" font-size="10.00">Ogre::GL3PlusAsyncTexture</text>
<text text-anchor="middle" x="407" y="-130" font-family="Helvetica,sans-Serif" font-size="10.00">Ticket</text>
</a>
</g>
</g>
<!-- Node1&#45;&gt;Node5 -->
<g id="edge4" class="edge">
<title>Node1&#45;&gt;Node5</title>
<path fill="none" stroke="#63b8ff" d="M281,-107.63C300.2,-112.3 322.17,-117.63 342.29,-122.52"/>
<polygon fill="#63b8ff" stroke="#63b8ff" points="282.07,-104.29 271.52,-105.33 280.41,-111.09 282.07,-104.29"/>
</g>
<!-- Node6 -->
<g id="node6" class="node">
<title>Node6</title>
<g id="a_node6"><a xlink:href="class_ogre_1_1_metal_async_texture_ticket.html" target="_top" xlink:title="See AsyncTextureTicket.">
<polygon fill="white" stroke="#666666" points="483,-104.5 331,-104.5 331,-85.5 483,-85.5 483,-104.5"/>
<text text-anchor="middle" x="407" y="-92.5" font-family="Helvetica,sans-Serif" font-size="10.00">Ogre::MetalAsyncTextureTicket</text>
</a>
</g>
</g>
<!-- Node1&#45;&gt;Node6 -->
<g id="edge5" class="edge">
<title>Node1&#45;&gt;Node6</title>
<path fill="none" stroke="#63b8ff" d="M303.9,-95C312.76,-95 321.8,-95 330.66,-95"/>
<polygon fill="#63b8ff" stroke="#63b8ff" points="303.91,-91.5 293.91,-95 303.91,-98.5 303.91,-91.5"/>
</g>
<!-- Node7 -->
<g id="node7" class="node">
<title>Node7</title>
<g id="a_node7"><a xlink:href="class_ogre_1_1_n_u_l_l_async_texture_ticket.html" target="_top" xlink:title="See AsyncTextureTicket.">
<polygon fill="white" stroke="#666666" points="484.5,-67.5 329.5,-67.5 329.5,-48.5 484.5,-48.5 484.5,-67.5"/>
<text text-anchor="middle" x="407" y="-55.5" font-family="Helvetica,sans-Serif" font-size="10.00">Ogre::NULLAsyncTextureTicket</text>
</a>
</g>
</g>
<!-- Node1&#45;&gt;Node7 -->
<g id="edge6" class="edge">
<title>Node1&#45;&gt;Node7</title>
<path fill="none" stroke="#63b8ff" d="M287.46,-82.78C310.49,-77.97 336.59,-72.51 358.44,-67.94"/>
<polygon fill="#63b8ff" stroke="#63b8ff" points="286.99,-79.3 277.91,-84.77 288.42,-86.15 286.99,-79.3"/>
</g>
<!-- Node8 -->
<g id="node8" class="node">
<title>Node8</title>
<g id="a_node8"><a xlink:href="class_ogre_1_1_vulkan_async_texture_ticket.html" target="_top" xlink:title="See AsyncTextureTicket.">
<polygon fill="white" stroke="#666666" points="472.5,-30 341.5,-30 341.5,0 472.5,0 472.5,-30"/>
<text text-anchor="start" x="349.5" y="-18" font-family="Helvetica,sans-Serif" font-size="10.00">Ogre::VulkanAsyncTexture</text>
<text text-anchor="middle" x="407" y="-7" font-family="Helvetica,sans-Serif" font-size="10.00">Ticket</text>
</a>
</g>
</g>
<!-- Node1&#45;&gt;Node8 -->
<g id="edge7" class="edge">
<title>Node1&#45;&gt;Node8</title>
<path fill="none" stroke="#63b8ff" d="M253.54,-79.13C273.12,-66.97 301.56,-50.39 328,-39 335.16,-35.92 342.84,-33.05 350.49,-30.45"/>
<polygon fill="#63b8ff" stroke="#63b8ff" points="251.78,-76.11 245.19,-84.4 255.51,-82.03 251.78,-76.11"/>
</g>
<!-- Node2 -->
<g id="node2" class="node">
<title>Node2</title>
<g id="a_node2"><a xlink:title=" ">
<polygon fill="white" stroke="#666666" points="123.5,-123.5 4.5,-123.5 4.5,-104.5 123.5,-104.5 123.5,-123.5"/>
<text text-anchor="middle" x="64" y="-111.5" font-family="Helvetica,sans-Serif" font-size="10.00">Ogre::OgreAllocatedObj</text>
</a>
</g>
</g>
<!-- Node2&#45;&gt;Node1 -->
<g id="edge1" class="edge">
<title>Node2&#45;&gt;Node1</title>
<path fill="none" stroke="#63b8ff" d="M135.33,-105.75C144.78,-104.64 154.42,-103.51 163.73,-102.42"/>
<polygon fill="#63b8ff" stroke="#63b8ff" points="134.97,-102.27 125.45,-106.91 135.79,-109.22 134.97,-102.27"/>
</g>
<!-- Node3 -->
<g id="node3" class="node">
<title>Node3</title>
<g id="a_node3"><a xlink:href="class_ogre_1_1_texture_gpu_listener.html" target="_top" xlink:title=" ">
<polygon fill="white" stroke="#666666" points="128,-86.5 0,-86.5 0,-67.5 128,-67.5 128,-86.5"/>
<text text-anchor="middle" x="64" y="-74.5" font-family="Helvetica,sans-Serif" font-size="10.00">Ogre::TextureGpuListener</text>
</a>
</g>
</g>
<!-- Node3&#45;&gt;Node1 -->
<g id="edge2" class="edge">
<title>Node3&#45;&gt;Node1</title>
<path fill="none" stroke="#63b8ff" d="M139.41,-85.27C147.47,-86.16 155.62,-87.07 163.54,-87.95"/>
<polygon fill="#63b8ff" stroke="#63b8ff" points="139.93,-81.8 129.6,-84.18 139.15,-88.76 139.93,-81.8"/>
</g>
</g>
</svg>
