<?xml version="1.0" encoding="UTF-8" standalone="no"?>
<!DOCTYPE svg PUBLIC "-//W3C//DTD SVG 1.1//EN"
 "http://www.w3.org/Graphics/SVG/1.1/DTD/svg11.dtd">
<!-- Generated by graphviz version 2.43.0 (0)
 -->
<!-- Title: Ogre::DefaultPlaneBoundedVolumeListSceneQuery Pages: 1 -->
<svg width="287pt" height="269pt"
 viewBox="0.00 0.00 287.00 269.00" xmlns="http://www.w3.org/2000/svg" xmlns:xlink="http://www.w3.org/1999/xlink">
<g id="graph0" class="graph" transform="scale(1 1) rotate(0) translate(4 265)">
<title>Ogre::DefaultPlaneBoundedVolumeListSceneQuery</title>
<!-- Node1 -->
<g id="Node000001" class="node">
<title>Node1</title>
<g id="a_Node000001"><a xlink:title="Default implementation of PlaneBoundedVolumeListSceneQuery.">
<polygon fill="#999999" stroke="#666666" points="212.5,-30 60.5,-30 60.5,0 212.5,0 212.5,-30"/>
<text text-anchor="start" x="68.5" y="-18" font-family="Helvetica,sans-Serif" font-size="10.00">Ogre::DefaultPlaneBounded</text>
<text text-anchor="middle" x="136.5" y="-7" font-family="Helvetica,sans-Serif" font-size="10.00">VolumeListSceneQuery</text>
</a>
</g>
</g>
<!-- Node2 -->
<g id="Node000002" class="node">
<title>Node2</title>
<g id="a_Node000002"><a xlink:href="class_ogre_1_1_plane_bounded_volume_list_scene_query.html" target="_top" xlink:title="Specialises the SceneQuery class for querying within a plane&#45;bounded volume.">
<polygon fill="white" stroke="#666666" points="212.5,-96 60.5,-96 60.5,-66 212.5,-66 212.5,-96"/>
<text text-anchor="start" x="68.5" y="-84" font-family="Helvetica,sans-Serif" font-size="10.00">Ogre::PlaneBoundedVolume</text>
<text text-anchor="middle" x="136.5" y="-73" font-family="Helvetica,sans-Serif" font-size="10.00">ListSceneQuery</text>
</a>
</g>
</g>
<!-- Node2&#45;&gt;Node1 -->
<g id="edge1_Node000001_Node000002" class="edge">
<title>Node2&#45;&gt;Node1</title>
<g id="a_edge1_Node000001_Node000002"><a xlink:title=" ">
<path fill="none" stroke="#63b8ff" d="M136.5,-55.54C136.5,-46.96 136.5,-37.61 136.5,-30.16"/>
<polygon fill="#63b8ff" stroke="#63b8ff" points="133,-55.8 136.5,-65.8 140,-55.8 133,-55.8"/>
</a>
</g>
</g>
<!-- Node3 -->
<g id="Node000003" class="node">
<title>Node3</title>
<g id="a_Node000003"><a xlink:href="class_ogre_1_1_region_scene_query.html" target="_top" xlink:title="Abstract class defining a query which returns single results from a region.">
<polygon fill="white" stroke="#666666" points="205.5,-151 67.5,-151 67.5,-132 205.5,-132 205.5,-151"/>
<text text-anchor="middle" x="136.5" y="-139" font-family="Helvetica,sans-Serif" font-size="10.00">Ogre::RegionSceneQuery</text>
</a>
</g>
</g>
<!-- Node3&#45;&gt;Node2 -->
<g id="edge2_Node000002_Node000003" class="edge">
<title>Node3&#45;&gt;Node2</title>
<g id="a_edge2_Node000002_Node000003"><a xlink:title=" ">
<path fill="none" stroke="#63b8ff" d="M136.5,-121.65C136.5,-113.36 136.5,-103.78 136.5,-96.11"/>
<polygon fill="#63b8ff" stroke="#63b8ff" points="133,-121.87 136.5,-131.87 140,-121.87 133,-121.87"/>
</a>
</g>
</g>
<!-- Node4 -->
<g id="Node000004" class="node">
<title>Node4</title>
<g id="a_Node000004"><a xlink:href="class_ogre_1_1_scene_query.html" target="_top" xlink:title="A class for performing queries on a scene.">
<polygon fill="white" stroke="#666666" points="117.5,-206 13.5,-206 13.5,-187 117.5,-187 117.5,-206"/>
<text text-anchor="middle" x="65.5" y="-194" font-family="Helvetica,sans-Serif" font-size="10.00">Ogre::SceneQuery</text>
</a>
</g>
</g>
<!-- Node4&#45;&gt;Node3 -->
<g id="edge3_Node000003_Node000004" class="edge">
<title>Node4&#45;&gt;Node3</title>
<g id="a_edge3_Node000003_Node000004"><a xlink:title=" ">
<path fill="none" stroke="#63b8ff" d="M85.09,-180.88C97.87,-171.34 114.11,-159.21 124.89,-151.17"/>
<polygon fill="#63b8ff" stroke="#63b8ff" points="82.83,-178.2 76.91,-186.98 87.01,-183.81 82.83,-178.2"/>
</a>
</g>
</g>
<!-- Node5 -->
<g id="Node000005" class="node">
<title>Node5</title>
<g id="a_Node000005"><a xlink:title=" ">
<polygon fill="white" stroke="#666666" points="131,-261 0,-261 0,-242 131,-242 131,-261"/>
<text text-anchor="middle" x="65.5" y="-249" font-family="Helvetica,sans-Serif" font-size="10.00">Ogre::OgreAllocatedObj</text>
</a>
</g>
</g>
<!-- Node5&#45;&gt;Node4 -->
<g id="edge4_Node000004_Node000005" class="edge">
<title>Node5&#45;&gt;Node4</title>
<g id="a_edge4_Node000004_Node000005"><a xlink:title=" ">
<path fill="none" stroke="#63b8ff" d="M65.5,-231.66C65.5,-222.93 65.5,-212.99 65.5,-206.09"/>
<polygon fill="#63b8ff" stroke="#63b8ff" points="62,-231.75 65.5,-241.75 69,-231.75 62,-231.75"/>
</a>
</g>
</g>
<!-- Node6 -->
<g id="Node000006" class="node">
<title>Node6</title>
<g id="a_Node000006"><a xlink:href="class_ogre_1_1_scene_query_listener.html" target="_top" xlink:title="This optional class allows you to receive per&#45;result callbacks from SceneQuery executions instead of ...">
<polygon fill="white" stroke="#666666" points="279,-206 136,-206 136,-187 279,-187 279,-206"/>
<text text-anchor="middle" x="207.5" y="-194" font-family="Helvetica,sans-Serif" font-size="10.00">Ogre::SceneQueryListener</text>
</a>
</g>
</g>
<!-- Node6&#45;&gt;Node3 -->
<g id="edge5_Node000003_Node000006" class="edge">
<title>Node6&#45;&gt;Node3</title>
<g id="a_edge5_Node000003_Node000006"><a xlink:title=" ">
<path fill="none" stroke="#63b8ff" d="M187.91,-180.88C175.13,-171.34 158.89,-159.21 148.11,-151.17"/>
<polygon fill="#63b8ff" stroke="#63b8ff" points="185.99,-183.81 196.09,-186.98 190.17,-178.2 185.99,-183.81"/>
</a>
</g>
</g>
</g>
</svg>
