<?xml version="1.0" encoding="UTF-8" standalone="no"?>
<!DOCTYPE svg PUBLIC "-//W3C//DTD SVG 1.1//EN"
 "http://www.w3.org/Graphics/SVG/1.1/DTD/svg11.dtd">
<!-- Generated by graphviz version 7.0.5 (20221223.1930)
 -->
<!-- Title: Graphical Class Hierarchy Pages: 1 -->
<svg width="471pt" height="1656pt"
 viewBox="0.00 0.00 471.00 1655.50" xmlns="http://www.w3.org/2000/svg" xmlns:xlink="http://www.w3.org/1999/xlink">
<g id="graph0" class="graph" transform="scale(1 1) rotate(0) translate(4 1651.5)">
<title>Graphical Class Hierarchy</title>
<!-- Node0 -->
<g id="node1" class="node">
<title>Node0</title>
<g id="a_node1"><a xlink:title=" ">
<polygon fill="#e0e0e0" stroke="#999999" points="80,-806 0,-806 0,-787 80,-787 80,-806"/>
<text text-anchor="middle" x="40" y="-794" font-family="Helvetica,sans-Serif" font-size="10.00">std::shared_ptr</text>
</a>
</g>
</g>
<!-- Node1 -->
<g id="node2" class="node">
<title>Node1</title>
<g id="a_node2"><a xlink:href="class_ogre_1_1_shared_ptr.html" target="_top" xlink:title=" ">
<polygon fill="white" stroke="#666666" points="265.5,-1647.5 129.5,-1647.5 129.5,-1617.5 265.5,-1617.5 265.5,-1647.5"/>
<text text-anchor="start" x="137.5" y="-1635.5" font-family="Helvetica,sans-Serif" font-size="10.00">Ogre::SharedPtr&lt; Hardware</text>
<text text-anchor="middle" x="197.5" y="-1624.5" font-family="Helvetica,sans-Serif" font-size="10.00">IndexBuffer &gt;</text>
</a>
</g>
</g>
<!-- Node0&#45;&gt;Node1 -->
<g id="edge1" class="edge">
<title>Node0&#45;&gt;Node1</title>
<path fill="none" stroke="#63b8ff" d="M41.56,-817.79C44.96,-939.67 64.37,-1545.51 116,-1608.5 119.7,-1613.01 124.21,-1616.7 129.18,-1619.71"/>
<polygon fill="#63b8ff" stroke="#63b8ff" points="45.07,-817.86 41.29,-807.96 38.07,-818.05 45.07,-817.86"/>
</g>
<!-- Node3 -->
<g id="node4" class="node">
<title>Node3</title>
<g id="a_node4"><a xlink:href="class_ogre_1_1_shared_ptr.html" target="_top" xlink:title=" ">
<polygon fill="white" stroke="#666666" points="265.5,-1599.5 129.5,-1599.5 129.5,-1569.5 265.5,-1569.5 265.5,-1599.5"/>
<text text-anchor="start" x="137.5" y="-1587.5" font-family="Helvetica,sans-Serif" font-size="10.00">Ogre::SharedPtr&lt; Hardware</text>
<text text-anchor="middle" x="197.5" y="-1576.5" font-family="Helvetica,sans-Serif" font-size="10.00">VertexBuffer &gt;</text>
</a>
</g>
</g>
<!-- Node0&#45;&gt;Node3 -->
<g id="edge3" class="edge">
<title>Node0&#45;&gt;Node3</title>
<path fill="none" stroke="#63b8ff" d="M41.7,-817.58C45.75,-934.52 67.77,-1500.33 116,-1559.5 119.7,-1564.04 124.21,-1567.77 129.18,-1570.83"/>
<polygon fill="#63b8ff" stroke="#63b8ff" points="45.21,-817.76 41.37,-807.89 38.21,-818 45.21,-817.76"/>
</g>
<!-- Node5 -->
<g id="node6" class="node">
<title>Node5</title>
<g id="a_node6"><a xlink:href="class_ogre_1_1_shared_ptr.html" target="_top" xlink:title=" ">
<polygon fill="white" stroke="#666666" points="266,-1551 129,-1551 129,-1532 266,-1532 266,-1551"/>
<text text-anchor="middle" x="197.5" y="-1539" font-family="Helvetica,sans-Serif" font-size="10.00">Ogre::SharedPtr&lt; Material &gt;</text>
</a>
</g>
</g>
<!-- Node0&#45;&gt;Node5 -->
<g id="edge5" class="edge">
<title>Node0&#45;&gt;Node5</title>
<path fill="none" stroke="#63b8ff" d="M41.75,-817.67C45.95,-931.54 68.18,-1468.08 116,-1522.5 119.6,-1526.6 123.91,-1529.9 128.63,-1532.55"/>
<polygon fill="#63b8ff" stroke="#63b8ff" points="45.25,-817.82 41.39,-807.95 38.26,-818.07 45.25,-817.82"/>
</g>
<!-- Node6 -->
<g id="node7" class="node">
<title>Node6</title>
<g id="a_node7"><a xlink:href="class_ogre_1_1_shared_ptr.html" target="_top" xlink:title=" ">
<polygon fill="white" stroke="#666666" points="279,-1513.5 116,-1513.5 116,-1483.5 279,-1483.5 279,-1513.5"/>
<text text-anchor="start" x="124" y="-1501.5" font-family="Helvetica,sans-Serif" font-size="10.00">Ogre::SharedPtr&lt; ShadowCamera</text>
<text text-anchor="middle" x="197.5" y="-1490.5" font-family="Helvetica,sans-Serif" font-size="10.00">Setup &gt;</text>
</a>
</g>
</g>
<!-- Node0&#45;&gt;Node6 -->
<g id="edge6" class="edge">
<title>Node0&#45;&gt;Node6</title>
<path fill="none" stroke="#63b8ff" d="M41.96,-817.57C47.1,-926.49 72.79,-1422.74 116,-1474.5 118.71,-1477.75 121.84,-1480.57 125.26,-1483.01"/>
<polygon fill="#63b8ff" stroke="#63b8ff" points="45.47,-817.6 41.51,-807.77 38.47,-817.92 45.47,-817.6"/>
</g>
<!-- Node7 -->
<g id="node8" class="node">
<title>Node7</title>
<g id="a_node8"><a xlink:href="class_ogre_1_1_shared_ptr.html" target="_top" xlink:title=" ">
<polygon fill="white" stroke="#666666" points="256.5,-1465.5 138.5,-1465.5 138.5,-1435.5 256.5,-1435.5 256.5,-1465.5"/>
<text text-anchor="start" x="146.5" y="-1453.5" font-family="Helvetica,sans-Serif" font-size="10.00">Ogre::SharedPtr&lt; Ogre</text>
<text text-anchor="middle" x="197.5" y="-1442.5" font-family="Helvetica,sans-Serif" font-size="10.00">::ControllerValue&lt; T &gt; &gt;</text>
</a>
</g>
</g>
<!-- Node0&#45;&gt;Node7 -->
<g id="edge7" class="edge">
<title>Node0&#45;&gt;Node7</title>
<path fill="none" stroke="#63b8ff" d="M40.55,-817.88C38.89,-916.94 36.88,-1330.45 116,-1425.5 121.9,-1432.59 129.77,-1437.7 138.28,-1441.38"/>
<polygon fill="#63b8ff" stroke="#63b8ff" points="44.05,-818.08 40.73,-808.01 37.05,-817.94 44.05,-818.08"/>
</g>
<!-- Node8 -->
<g id="node9" class="node">
<title>Node8</title>
<g id="a_node9"><a xlink:href="class_ogre_1_1_shared_ptr.html" target="_top" xlink:title=" ">
<polygon fill="white" stroke="#666666" points="255,-1417 140,-1417 140,-1376 255,-1376 255,-1417"/>
<text text-anchor="start" x="148" y="-1405" font-family="Helvetica,sans-Serif" font-size="10.00">Ogre::SharedPtr&lt; Ogre</text>
<text text-anchor="start" x="148" y="-1394" font-family="Helvetica,sans-Serif" font-size="10.00">::ControllerFunction</text>
<text text-anchor="middle" x="197.5" y="-1383" font-family="Helvetica,sans-Serif" font-size="10.00">&lt; T &gt; &gt;</text>
</a>
</g>
</g>
<!-- Node0&#45;&gt;Node8 -->
<g id="edge8" class="edge">
<title>Node0&#45;&gt;Node8</title>
<path fill="none" stroke="#63b8ff" d="M40.96,-817.81C41.2,-910.68 46.6,-1279.34 116,-1366.5 122.22,-1374.32 130.7,-1380.1 139.83,-1384.37"/>
<polygon fill="#63b8ff" stroke="#63b8ff" points="44.46,-817.89 40.96,-807.89 37.46,-817.9 44.46,-817.89"/>
</g>
<!-- Node9 -->
<g id="node10" class="node">
<title>Node9</title>
<g id="a_node10"><a xlink:href="class_ogre_1_1_shared_ptr.html" target="_top" xlink:title=" ">
<polygon fill="white" stroke="#666666" points="265,-1357.5 130,-1357.5 130,-1327.5 265,-1327.5 265,-1357.5"/>
<text text-anchor="start" x="138" y="-1345.5" font-family="Helvetica,sans-Serif" font-size="10.00">Ogre::SharedPtr&lt; Controller</text>
<text text-anchor="middle" x="197.5" y="-1334.5" font-family="Helvetica,sans-Serif" font-size="10.00">Value&lt; Real &gt; &gt;</text>
</a>
</g>
</g>
<!-- Node0&#45;&gt;Node9 -->
<g id="edge9" class="edge">
<title>Node0&#45;&gt;Node9</title>
<path fill="none" stroke="#63b8ff" d="M41.11,-817.78C41.97,-905.96 49.66,-1241.61 116,-1318.5 119.91,-1323.03 124.63,-1326.72 129.8,-1329.73"/>
<polygon fill="#63b8ff" stroke="#63b8ff" points="44.61,-817.91 41.03,-807.94 37.61,-817.97 44.61,-817.91"/>
</g>
<!-- Node10 -->
<g id="node11" class="node">
<title>Node10</title>
<g id="a_node11"><a xlink:href="class_ogre_1_1_shared_ptr.html" target="_top" xlink:title=" ">
<polygon fill="white" stroke="#666666" points="265,-1309.5 130,-1309.5 130,-1279.5 265,-1279.5 265,-1309.5"/>
<text text-anchor="start" x="138" y="-1297.5" font-family="Helvetica,sans-Serif" font-size="10.00">Ogre::SharedPtr&lt; Controller</text>
<text text-anchor="middle" x="197.5" y="-1286.5" font-family="Helvetica,sans-Serif" font-size="10.00">Function&lt; Real &gt; &gt;</text>
</a>
</g>
</g>
<!-- Node0&#45;&gt;Node10 -->
<g id="edge10" class="edge">
<title>Node0&#45;&gt;Node10</title>
<path fill="none" stroke="#63b8ff" d="M41.44,-817.65C43.61,-900.45 55.58,-1201.47 116,-1270.5 119.94,-1275 124.68,-1278.67 129.87,-1281.67"/>
<polygon fill="#63b8ff" stroke="#63b8ff" points="44.95,-817.73 41.21,-807.81 37.95,-817.89 44.95,-817.73"/>
</g>
<!-- Node11 -->
<g id="node12" class="node">
<title>Node11</title>
<g id="a_node12"><a xlink:href="class_ogre_1_1_shared_ptr.html" target="_top" xlink:title=" ">
<polygon fill="white" stroke="#666666" points="259.5,-1261.5 135.5,-1261.5 135.5,-1231.5 259.5,-1231.5 259.5,-1261.5"/>
<text text-anchor="start" x="143.5" y="-1249.5" font-family="Helvetica,sans-Serif" font-size="10.00">Ogre::SharedPtr&lt; Ogre</text>
<text text-anchor="middle" x="197.5" y="-1238.5" font-family="Helvetica,sans-Serif" font-size="10.00">::D3D11VideoModeList &gt;</text>
</a>
</g>
</g>
<!-- Node0&#45;&gt;Node11 -->
<g id="edge11" class="edge">
<title>Node0&#45;&gt;Node11</title>
<path fill="none" stroke="#63b8ff" d="M41.9,-817.87C45.6,-895.37 62.04,-1160.25 116,-1221.5 121.32,-1227.54 128.07,-1232.14 135.39,-1235.64"/>
<polygon fill="#63b8ff" stroke="#63b8ff" points="45.4,-817.73 41.45,-807.89 38.41,-818.04 45.4,-817.73"/>
</g>
<!-- Node12 -->
<g id="node13" class="node">
<title>Node12</title>
<g id="a_node13"><a xlink:href="class_ogre_1_1_shared_ptr.html" target="_top" xlink:title=" ">
<polygon fill="white" stroke="#666666" points="274.5,-1213 120.5,-1213 120.5,-1194 274.5,-1194 274.5,-1213"/>
<text text-anchor="middle" x="197.5" y="-1201" font-family="Helvetica,sans-Serif" font-size="10.00">Ogre::SharedPtr&lt; DataStream &gt;</text>
</a>
</g>
</g>
<!-- Node0&#45;&gt;Node12 -->
<g id="edge12" class="edge">
<title>Node0&#45;&gt;Node12</title>
<path fill="none" stroke="#63b8ff" d="M42.13,-817.53C46.49,-890.46 64.57,-1130.92 116,-1184.5 119.48,-1188.13 123.51,-1191.12 127.88,-1193.57"/>
<polygon fill="#63b8ff" stroke="#63b8ff" points="45.64,-817.58 41.58,-807.8 38.65,-817.98 45.64,-817.58"/>
</g>
<!-- Node13 -->
<g id="node14" class="node">
<title>Node13</title>
<g id="a_node14"><a xlink:href="class_ogre_1_1_shared_ptr.html" target="_top" xlink:title=" ">
<polygon fill="white" stroke="#666666" points="272,-1175.5 123,-1175.5 123,-1145.5 272,-1145.5 272,-1175.5"/>
<text text-anchor="start" x="131" y="-1163.5" font-family="Helvetica,sans-Serif" font-size="10.00">Ogre::SharedPtr&lt; GpuProgram</text>
<text text-anchor="middle" x="197.5" y="-1152.5" font-family="Helvetica,sans-Serif" font-size="10.00">Parameters &gt;</text>
</a>
</g>
</g>
<!-- Node0&#45;&gt;Node13 -->
<g id="edge13" class="edge">
<title>Node0&#45;&gt;Node13</title>
<path fill="none" stroke="#63b8ff" d="M42.86,-817.38C49.2,-883.9 72.01,-1089.2 116,-1136.5 119.08,-1139.81 122.59,-1142.67 126.39,-1145.14"/>
<polygon fill="#63b8ff" stroke="#63b8ff" points="46.39,-817.47 41.98,-807.84 39.41,-818.12 46.39,-817.47"/>
</g>
<!-- Node14 -->
<g id="node15" class="node">
<title>Node14</title>
<g id="a_node15"><a xlink:href="class_ogre_1_1_shared_ptr.html" target="_top" xlink:title=" ">
<polygon fill="white" stroke="#666666" points="258,-1127.5 137,-1127.5 137,-1097.5 258,-1097.5 258,-1127.5"/>
<text text-anchor="start" x="145" y="-1115.5" font-family="Helvetica,sans-Serif" font-size="10.00">Ogre::SharedPtr&lt; vector</text>
<text text-anchor="middle" x="197.5" y="-1104.5" font-family="Helvetica,sans-Serif" font-size="10.00">&lt; Image &gt;::type &gt;</text>
</a>
</g>
</g>
<!-- Node0&#45;&gt;Node14 -->
<g id="edge14" class="edge">
<title>Node0&#45;&gt;Node14</title>
<path fill="none" stroke="#63b8ff" d="M43.7,-817.51C51.82,-877.68 77.88,-1048.89 116,-1088.5 121.76,-1094.49 128.95,-1099 136.64,-1102.4"/>
<polygon fill="#63b8ff" stroke="#63b8ff" points="47.21,-817.4 42.43,-807.94 40.27,-818.31 47.21,-817.4"/>
</g>
<!-- Node15 -->
<g id="node16" class="node">
<title>Node15</title>
<g id="a_node16"><a xlink:href="class_ogre_1_1_shared_ptr.html" target="_top" xlink:title=" ">
<polygon fill="white" stroke="#666666" points="269,-1079.5 126,-1079.5 126,-1049.5 269,-1049.5 269,-1079.5"/>
<text text-anchor="start" x="134" y="-1067.5" font-family="Helvetica,sans-Serif" font-size="10.00">Ogre::SharedPtr&lt; GpuLogical</text>
<text text-anchor="middle" x="197.5" y="-1056.5" font-family="Helvetica,sans-Serif" font-size="10.00">BufferStruct &gt;</text>
</a>
</g>
</g>
<!-- Node0&#45;&gt;Node15 -->
<g id="edge15" class="edge">
<title>Node0&#45;&gt;Node15</title>
<path fill="none" stroke="#63b8ff" d="M41.17,-817.66C42.72,-864.59 53.15,-978.18 116,-1040.5 119.31,-1043.79 123.06,-1046.63 127.07,-1049.08"/>
<polygon fill="#63b8ff" stroke="#63b8ff" points="44.67,-817.72 40.96,-807.8 37.67,-817.87 44.67,-817.72"/>
</g>
<!-- Node16 -->
<g id="node17" class="node">
<title>Node16</title>
<g id="a_node17"><a xlink:href="class_ogre_1_1_shared_ptr.html" target="_top" xlink:title=" ">
<polygon fill="white" stroke="#666666" points="269,-1031.5 126,-1031.5 126,-1001.5 269,-1001.5 269,-1031.5"/>
<text text-anchor="start" x="134" y="-1019.5" font-family="Helvetica,sans-Serif" font-size="10.00">Ogre::SharedPtr&lt; GpuNamed</text>
<text text-anchor="middle" x="197.5" y="-1008.5" font-family="Helvetica,sans-Serif" font-size="10.00">Constants &gt;</text>
</a>
</g>
</g>
<!-- Node0&#45;&gt;Node16 -->
<g id="edge16" class="edge">
<title>Node0&#45;&gt;Node16</title>
<path fill="none" stroke="#63b8ff" d="M43.13,-817.62C48.27,-857.4 64.98,-943.74 116,-991.5 119.95,-995.2 124.45,-998.35 129.24,-1001.04"/>
<polygon fill="#63b8ff" stroke="#63b8ff" points="46.61,-817.28 41.99,-807.74 39.66,-818.08 46.61,-817.28"/>
</g>
<!-- Node17 -->
<g id="node18" class="node">
<title>Node17</title>
<g id="a_node18"><a xlink:href="class_ogre_1_1_shared_ptr.html" target="_top" xlink:title=" ">
<polygon fill="white" stroke="#666666" points="276,-983 119,-983 119,-964 276,-964 276,-983"/>
<text text-anchor="middle" x="197.5" y="-971" font-family="Helvetica,sans-Serif" font-size="10.00">Ogre::SharedPtr&lt; GpuProgram &gt;</text>
</a>
</g>
</g>
<!-- Node0&#45;&gt;Node17 -->
<g id="edge17" class="edge">
<title>Node0&#45;&gt;Node17</title>
<path fill="none" stroke="#63b8ff" d="M44.89,-817.44C52.36,-851.58 72.04,-918.97 116,-954.5 120.58,-958.2 125.76,-961.2 131.22,-963.64"/>
<polygon fill="#63b8ff" stroke="#63b8ff" points="48.38,-817.08 42.97,-807.97 41.52,-818.47 48.38,-817.08"/>
</g>
<!-- Node18 -->
<g id="node19" class="node">
<title>Node18</title>
<g id="a_node19"><a xlink:href="class_ogre_1_1_shared_ptr.html" target="_top" xlink:title=" ">
<polygon fill="white" stroke="#666666" points="269,-945.5 126,-945.5 126,-915.5 269,-915.5 269,-945.5"/>
<text text-anchor="start" x="134" y="-933.5" font-family="Helvetica,sans-Serif" font-size="10.00">Ogre::SharedPtr&lt; GpuShared</text>
<text text-anchor="middle" x="197.5" y="-922.5" font-family="Helvetica,sans-Serif" font-size="10.00">Parameters &gt;</text>
</a>
</g>
</g>
<!-- Node0&#45;&gt;Node18 -->
<g id="edge18" class="edge">
<title>Node0&#45;&gt;Node18</title>
<path fill="none" stroke="#63b8ff" d="M49.69,-816.53C61.32,-841.02 84.22,-882.1 116,-905.5 121.07,-909.23 126.7,-912.41 132.57,-915.13"/>
<polygon fill="#63b8ff" stroke="#63b8ff" points="52.98,-815.3 45.65,-807.65 46.61,-818.2 52.98,-815.3"/>
</g>
<!-- Node19 -->
<g id="node20" class="node">
<title>Node19</title>
<g id="a_node20"><a xlink:href="class_ogre_1_1_shared_ptr.html" target="_top" xlink:title=" ">
<polygon fill="white" stroke="#666666" points="260.5,-897 134.5,-897 134.5,-878 260.5,-878 260.5,-897"/>
<text text-anchor="middle" x="197.5" y="-885" font-family="Helvetica,sans-Serif" font-size="10.00">Ogre::SharedPtr&lt; Mesh &gt;</text>
</a>
</g>
</g>
<!-- Node0&#45;&gt;Node19 -->
<g id="edge19" class="edge">
<title>Node0&#45;&gt;Node19</title>
<path fill="none" stroke="#63b8ff" d="M55.21,-814.88C68.98,-831.41 91.35,-855.08 116,-868.5 122.81,-872.21 130.33,-875.19 137.96,-877.6"/>
<polygon fill="#63b8ff" stroke="#63b8ff" points="58.09,-812.88 49.09,-807.29 52.64,-817.27 58.09,-812.88"/>
</g>
<!-- Node20 -->
<g id="node21" class="node">
<title>Node20</title>
<g id="a_node21"><a xlink:href="class_ogre_1_1_shared_ptr.html" target="_top" xlink:title=" ">
<polygon fill="white" stroke="#666666" points="271.5,-859.5 123.5,-859.5 123.5,-829.5 271.5,-829.5 271.5,-859.5"/>
<text text-anchor="start" x="131.5" y="-847.5" font-family="Helvetica,sans-Serif" font-size="10.00">Ogre::SharedPtr&lt; LodCollapse</text>
<text text-anchor="middle" x="197.5" y="-836.5" font-family="Helvetica,sans-Serif" font-size="10.00">Cost &gt;</text>
</a>
</g>
</g>
<!-- Node0&#45;&gt;Node20 -->
<g id="edge20" class="edge">
<title>Node0&#45;&gt;Node20</title>
<path fill="none" stroke="#63b8ff" d="M82.56,-809.96C93.43,-813.44 105.14,-817.14 116,-820.5 125.06,-823.3 134.7,-826.22 144.06,-829.03"/>
<polygon fill="#63b8ff" stroke="#63b8ff" points="83.64,-806.63 73.05,-806.91 81.5,-813.3 83.64,-806.63"/>
</g>
<!-- Node21 -->
<g id="node22" class="node">
<title>Node21</title>
<g id="a_node22"><a xlink:href="class_ogre_1_1_shared_ptr.html" target="_top" xlink:title=" ">
<polygon fill="white" stroke="#666666" points="264,-811.5 131,-811.5 131,-781.5 264,-781.5 264,-811.5"/>
<text text-anchor="start" x="139" y="-799.5" font-family="Helvetica,sans-Serif" font-size="10.00">Ogre::SharedPtr&lt; unsigned</text>
<text text-anchor="middle" x="197.5" y="-788.5" font-family="Helvetica,sans-Serif" font-size="10.00"> char &gt;</text>
</a>
</g>
</g>
<!-- Node0&#45;&gt;Node21 -->
<g id="edge21" class="edge">
<title>Node0&#45;&gt;Node21</title>
<path fill="none" stroke="#63b8ff" d="M91.39,-796.5C103.91,-796.5 117.51,-796.5 130.65,-796.5"/>
<polygon fill="#63b8ff" stroke="#63b8ff" points="91.75,-793 81.75,-796.5 91.75,-800 91.75,-793"/>
</g>
<!-- Node22 -->
<g id="node23" class="node">
<title>Node22</title>
<g id="a_node23"><a xlink:href="class_ogre_1_1_shared_ptr.html" target="_top" xlink:title=" ">
<polygon fill="white" stroke="#666666" points="255,-763.5 140,-763.5 140,-733.5 255,-733.5 255,-763.5"/>
<text text-anchor="start" x="148" y="-751.5" font-family="Helvetica,sans-Serif" font-size="10.00">Ogre::SharedPtr&lt; Ogre</text>
<text text-anchor="middle" x="197.5" y="-740.5" font-family="Helvetica,sans-Serif" font-size="10.00">::Vector3 &gt;</text>
</a>
</g>
</g>
<!-- Node0&#45;&gt;Node22 -->
<g id="edge22" class="edge">
<title>Node0&#45;&gt;Node22</title>
<path fill="none" stroke="#63b8ff" d="M82.56,-783.04C93.43,-779.56 105.14,-775.86 116,-772.5 125.06,-769.7 134.7,-766.78 144.06,-763.97"/>
<polygon fill="#63b8ff" stroke="#63b8ff" points="81.5,-779.7 73.05,-786.09 83.64,-786.37 81.5,-779.7"/>
</g>
<!-- Node23 -->
<g id="node24" class="node">
<title>Node23</title>
<g id="a_node24"><a xlink:href="class_ogre_1_1_shared_ptr.html" target="_top" xlink:title=" ">
<polygon fill="white" stroke="#666666" points="267,-715 128,-715 128,-696 267,-696 267,-715"/>
<text text-anchor="middle" x="197.5" y="-703" font-family="Helvetica,sans-Serif" font-size="10.00">Ogre::SharedPtr&lt; LodData &gt;</text>
</a>
</g>
</g>
<!-- Node0&#45;&gt;Node23 -->
<g id="edge23" class="edge">
<title>Node0&#45;&gt;Node23</title>
<path fill="none" stroke="#63b8ff" d="M55.21,-778.12C68.98,-761.59 91.35,-737.92 116,-724.5 122.81,-720.79 130.33,-717.81 137.96,-715.4"/>
<polygon fill="#63b8ff" stroke="#63b8ff" points="52.64,-775.73 49.09,-785.71 58.09,-780.12 52.64,-775.73"/>
</g>
<!-- Node24 -->
<g id="node25" class="node">
<title>Node24</title>
<g id="a_node25"><a xlink:href="class_ogre_1_1_shared_ptr.html" target="_top" xlink:title=" ">
<polygon fill="white" stroke="#666666" points="263.5,-677.5 131.5,-677.5 131.5,-647.5 263.5,-647.5 263.5,-677.5"/>
<text text-anchor="start" x="139.5" y="-665.5" font-family="Helvetica,sans-Serif" font-size="10.00">Ogre::SharedPtr&lt; LodInput</text>
<text text-anchor="middle" x="197.5" y="-654.5" font-family="Helvetica,sans-Serif" font-size="10.00">Provider &gt;</text>
</a>
</g>
</g>
<!-- Node0&#45;&gt;Node24 -->
<g id="edge24" class="edge">
<title>Node0&#45;&gt;Node24</title>
<path fill="none" stroke="#63b8ff" d="M49.6,-776.23C61.13,-751.45 83.94,-709.93 116,-686.5 120.71,-683.06 125.91,-680.11 131.34,-677.57"/>
<polygon fill="#63b8ff" stroke="#63b8ff" points="46.47,-774.66 45.59,-785.22 52.86,-777.51 46.47,-774.66"/>
</g>
<!-- Node25 -->
<g id="node26" class="node">
<title>Node25</title>
<g id="a_node26"><a xlink:href="class_ogre_1_1_shared_ptr.html" target="_top" xlink:title=" ">
<polygon fill="white" stroke="#666666" points="267.5,-629.5 127.5,-629.5 127.5,-599.5 267.5,-599.5 267.5,-629.5"/>
<text text-anchor="start" x="135.5" y="-617.5" font-family="Helvetica,sans-Serif" font-size="10.00">Ogre::SharedPtr&lt; LodOutput</text>
<text text-anchor="middle" x="197.5" y="-606.5" font-family="Helvetica,sans-Serif" font-size="10.00">Provider &gt;</text>
</a>
</g>
</g>
<!-- Node0&#45;&gt;Node25 -->
<g id="edge25" class="edge">
<title>Node0&#45;&gt;Node25</title>
<path fill="none" stroke="#63b8ff" d="M45.12,-775.84C52.93,-742.11 73.09,-675.28 116,-638.5 119.88,-635.18 124.2,-632.32 128.77,-629.85"/>
<polygon fill="#63b8ff" stroke="#63b8ff" points="41.79,-774.66 43.1,-785.18 48.64,-776.14 41.79,-774.66"/>
</g>
<!-- Node26 -->
<g id="node27" class="node">
<title>Node26</title>
<g id="a_node27"><a xlink:href="class_ogre_1_1_shared_ptr.html" target="_top" xlink:title=" ">
<polygon fill="white" stroke="#666666" points="277,-581 118,-581 118,-562 277,-562 277,-581"/>
<text text-anchor="middle" x="197.5" y="-569" font-family="Helvetica,sans-Serif" font-size="10.00">Ogre::SharedPtr&lt; LodCollapser &gt;</text>
</a>
</g>
</g>
<!-- Node0&#45;&gt;Node26 -->
<g id="edge26" class="edge">
<title>Node0&#45;&gt;Node26</title>
<path fill="none" stroke="#63b8ff" d="M42.31,-775.28C46.07,-733.37 60.58,-639.77 116,-590.5 120.08,-586.87 124.72,-583.91 129.67,-581.48"/>
<polygon fill="#63b8ff" stroke="#63b8ff" points="38.84,-774.78 41.56,-785.02 45.81,-775.31 38.84,-774.78"/>
</g>
<!-- Node27 -->
<g id="node28" class="node">
<title>Node27</title>
<g id="a_node28"><a xlink:href="class_ogre_1_1_shared_ptr.html" target="_top" xlink:title=" ">
<polygon fill="white" stroke="#666666" points="263.5,-543.5 131.5,-543.5 131.5,-513.5 263.5,-513.5 263.5,-543.5"/>
<text text-anchor="start" x="139.5" y="-531.5" font-family="Helvetica,sans-Serif" font-size="10.00">Ogre::SharedPtr&lt; Skeleton</text>
<text text-anchor="middle" x="197.5" y="-520.5" font-family="Helvetica,sans-Serif" font-size="10.00">Def &gt;</text>
</a>
</g>
</g>
<!-- Node0&#45;&gt;Node27 -->
<g id="edge27" class="edge">
<title>Node0&#45;&gt;Node27</title>
<path fill="none" stroke="#63b8ff" d="M41.17,-775.34C42.72,-728.41 53.15,-614.82 116,-552.5 120.45,-548.08 125.68,-544.48 131.3,-541.53"/>
<polygon fill="#63b8ff" stroke="#63b8ff" points="37.67,-775.13 40.96,-785.2 44.67,-775.28 37.67,-775.13"/>
</g>
<!-- Node28 -->
<g id="node29" class="node">
<title>Node28</title>
<g id="a_node29"><a xlink:href="class_ogre_1_1_shared_ptr.html" target="_top" xlink:title=" ">
<polygon fill="white" stroke="#666666" points="263,-495.5 132,-495.5 132,-465.5 263,-465.5 263,-495.5"/>
<text text-anchor="start" x="140" y="-483.5" font-family="Helvetica,sans-Serif" font-size="10.00">Ogre::SharedPtr&lt; Ogre</text>
<text text-anchor="middle" x="197.5" y="-472.5" font-family="Helvetica,sans-Serif" font-size="10.00">::ControllerValue&lt; Real &gt; &gt;</text>
</a>
</g>
</g>
<!-- Node0&#45;&gt;Node28 -->
<g id="edge28" class="edge">
<title>Node0&#45;&gt;Node28</title>
<path fill="none" stroke="#63b8ff" d="M43.7,-775.49C51.82,-715.32 77.88,-544.11 116,-504.5 120.55,-499.77 125.99,-495.96 131.86,-492.9"/>
<polygon fill="#63b8ff" stroke="#63b8ff" points="40.27,-774.69 42.43,-785.06 47.21,-775.6 40.27,-774.69"/>
</g>
<!-- Node29 -->
<g id="node30" class="node">
<title>Node29</title>
<g id="a_node30"><a xlink:href="class_ogre_1_1_shared_ptr.html" target="_top" xlink:title=" ">
<polygon fill="white" stroke="#666666" points="255,-447 140,-447 140,-406 255,-406 255,-447"/>
<text text-anchor="start" x="148" y="-435" font-family="Helvetica,sans-Serif" font-size="10.00">Ogre::SharedPtr&lt; Ogre</text>
<text text-anchor="start" x="148" y="-424" font-family="Helvetica,sans-Serif" font-size="10.00">::ControllerFunction</text>
<text text-anchor="middle" x="197.5" y="-413" font-family="Helvetica,sans-Serif" font-size="10.00">&lt; Real &gt; &gt;</text>
</a>
</g>
</g>
<!-- Node0&#45;&gt;Node29 -->
<g id="edge29" class="edge">
<title>Node0&#45;&gt;Node29</title>
<path fill="none" stroke="#63b8ff" d="M43.04,-775.32C49.83,-708.73 73.71,-505.15 116,-456.5 122.36,-449.18 130.68,-443.65 139.56,-439.46"/>
<polygon fill="#63b8ff" stroke="#63b8ff" points="39.56,-774.92 42.05,-785.22 46.52,-775.61 39.56,-774.92"/>
</g>
<!-- Node30 -->
<g id="node31" class="node">
<title>Node30</title>
<g id="a_node31"><a xlink:href="class_ogre_1_1_shared_ptr.html" target="_top" xlink:title=" ">
<polygon fill="white" stroke="#666666" points="270,-388 125,-388 125,-369 270,-369 270,-388"/>
<text text-anchor="middle" x="197.5" y="-376" font-family="Helvetica,sans-Serif" font-size="10.00">Ogre::SharedPtr&lt; PoseData &gt;</text>
</a>
</g>
</g>
<!-- Node0&#45;&gt;Node30 -->
<g id="edge30" class="edge">
<title>Node0&#45;&gt;Node30</title>
<path fill="none" stroke="#63b8ff" d="M41.98,-775.29C45.89,-700.65 62.75,-451.63 116,-396.5 119.08,-393.31 122.6,-390.62 126.4,-388.37"/>
<polygon fill="#63b8ff" stroke="#63b8ff" points="38.49,-775.1 41.49,-785.26 45.48,-775.44 38.49,-775.1"/>
</g>
<!-- Node31 -->
<g id="node32" class="node">
<title>Node31</title>
<g id="a_node32"><a xlink:href="class_ogre_1_1_shared_ptr.html" target="_top" xlink:title=" ">
<polygon fill="white" stroke="#666666" points="269,-351 126,-351 126,-332 269,-332 269,-351"/>
<text text-anchor="middle" x="197.5" y="-339" font-family="Helvetica,sans-Serif" font-size="10.00">Ogre::SharedPtr&lt; Resource &gt;</text>
</a>
</g>
</g>
<!-- Node0&#45;&gt;Node31 -->
<g id="edge31" class="edge">
<title>Node0&#45;&gt;Node31</title>
<path fill="none" stroke="#63b8ff" d="M41.61,-775.38C44.34,-696.5 57.96,-420.52 116,-359.5 119.06,-356.28 122.56,-353.58 126.35,-351.32"/>
<polygon fill="#63b8ff" stroke="#63b8ff" points="38.12,-775.03 41.3,-785.14 45.12,-775.26 38.12,-775.03"/>
</g>
<!-- Node32 -->
<g id="node33" class="node">
<title>Node32</title>
<g id="a_node33"><a xlink:href="class_ogre_1_1_shared_ptr.html" target="_top" xlink:title=" ">
<polygon fill="white" stroke="#666666" points="263,-313.5 132,-313.5 132,-283.5 263,-283.5 263,-313.5"/>
<text text-anchor="start" x="140" y="-301.5" font-family="Helvetica,sans-Serif" font-size="10.00">Ogre::SharedPtr&lt; Abstract</text>
<text text-anchor="middle" x="197.5" y="-290.5" font-family="Helvetica,sans-Serif" font-size="10.00">NodeList &gt;</text>
</a>
</g>
</g>
<!-- Node0&#45;&gt;Node32 -->
<g id="edge32" class="edge">
<title>Node0&#45;&gt;Node32</title>
<path fill="none" stroke="#63b8ff" d="M41.44,-775.35C43.61,-692.55 55.58,-391.53 116,-322.5 120.42,-317.45 125.85,-313.44 131.78,-310.26"/>
<polygon fill="#63b8ff" stroke="#63b8ff" points="37.95,-775.11 41.21,-785.19 44.95,-775.27 37.95,-775.11"/>
</g>
<!-- Node33 -->
<g id="node34" class="node">
<title>Node33</title>
<g id="a_node34"><a xlink:href="class_ogre_1_1_shared_ptr.html" target="_top" xlink:title=" ">
<polygon fill="white" stroke="#666666" points="279,-265 116,-265 116,-246 279,-246 279,-265"/>
<text text-anchor="middle" x="197.5" y="-253" font-family="Helvetica,sans-Serif" font-size="10.00">Ogre::SharedPtr&lt; ThreadHandle &gt;</text>
</a>
</g>
</g>
<!-- Node0&#45;&gt;Node33 -->
<g id="edge33" class="edge">
<title>Node0&#45;&gt;Node33</title>
<path fill="none" stroke="#63b8ff" d="M40.99,-775.11C41.39,-686.52 47.46,-349.44 116,-274.5 119.3,-270.9 123.14,-267.92 127.32,-265.46"/>
<polygon fill="#63b8ff" stroke="#63b8ff" points="37.49,-775 40.97,-785.01 44.49,-775.02 37.49,-775"/>
</g>
<!-- Node34 -->
<g id="node35" class="node">
<title>Node34</title>
<g id="a_node35"><a xlink:href="class_ogre_1_1_shared_ptr.html" target="_top" xlink:title=" ">
<polygon fill="white" stroke="#666666" points="266.5,-227.5 128.5,-227.5 128.5,-197.5 266.5,-197.5 266.5,-227.5"/>
<text text-anchor="start" x="136.5" y="-215.5" font-family="Helvetica,sans-Serif" font-size="10.00">Ogre::SharedPtr&lt; HighLevel</text>
<text text-anchor="middle" x="197.5" y="-204.5" font-family="Helvetica,sans-Serif" font-size="10.00">GpuProgram &gt;</text>
</a>
</g>
</g>
<!-- Node0&#45;&gt;Node34 -->
<g id="edge34" class="edge">
<title>Node0&#45;&gt;Node34</title>
<path fill="none" stroke="#63b8ff" d="M40.88,-775.45C40.76,-683.71 44.87,-319.75 116,-236.5 119.51,-232.4 123.68,-228.98 128.25,-226.13"/>
<polygon fill="#63b8ff" stroke="#63b8ff" points="37.38,-775.24 40.91,-785.22 44.38,-775.21 37.38,-775.24"/>
</g>
<!-- Node35 -->
<g id="node36" class="node">
<title>Node35</title>
<g id="a_node36"><a xlink:href="class_ogre_1_1_shared_ptr.html" target="_top" xlink:title=" ">
<polygon fill="white" stroke="#666666" points="275.5,-179 119.5,-179 119.5,-160 275.5,-160 275.5,-179"/>
<text text-anchor="middle" x="197.5" y="-167" font-family="Helvetica,sans-Serif" font-size="10.00">Ogre::SharedPtr&lt; AsyncTicket &gt;</text>
</a>
</g>
</g>
<!-- Node0&#45;&gt;Node35 -->
<g id="edge35" class="edge">
<title>Node0&#45;&gt;Node35</title>
<path fill="none" stroke="#63b8ff" d="M42.19,-775.37C48.12,-673.19 75.87,-233.26 116,-188.5 119.26,-184.86 123.07,-181.86 127.24,-179.38"/>
<polygon fill="#63b8ff" stroke="#63b8ff" points="38.7,-775.11 41.62,-785.29 45.69,-775.51 38.7,-775.11"/>
</g>
<!-- Node36 -->
<g id="node37" class="node">
<title>Node36</title>
<g id="a_node37"><a xlink:href="class_ogre_1_1_shared_ptr.html" target="_top" xlink:title=" ">
<polygon fill="white" stroke="#666666" points="267.5,-142 127.5,-142 127.5,-123 267.5,-123 267.5,-142"/>
<text text-anchor="middle" x="197.5" y="-130" font-family="Helvetica,sans-Serif" font-size="10.00">Ogre::SharedPtr&lt; Skeleton &gt;</text>
</a>
</g>
</g>
<!-- Node0&#45;&gt;Node36 -->
<g id="edge36" class="edge">
<title>Node0&#45;&gt;Node36</title>
<path fill="none" stroke="#63b8ff" d="M42.02,-775.38C47.31,-669.34 73.11,-198.12 116,-150.5 119.26,-146.88 123.07,-143.91 127.23,-141.47"/>
<polygon fill="#63b8ff" stroke="#63b8ff" points="38.53,-775.02 41.54,-785.18 45.52,-775.36 38.53,-775.02"/>
</g>
<!-- Node37 -->
<g id="node38" class="node">
<title>Node37</title>
<g id="a_node38"><a xlink:href="class_ogre_1_1_shared_ptr.html" target="_top" xlink:title=" ">
<polygon fill="white" stroke="#666666" points="264.5,-104.5 130.5,-104.5 130.5,-74.5 264.5,-74.5 264.5,-104.5"/>
<text text-anchor="start" x="138.5" y="-92.5" font-family="Helvetica,sans-Serif" font-size="10.00">Ogre::SharedPtr&lt; Animable</text>
<text text-anchor="middle" x="197.5" y="-81.5" font-family="Helvetica,sans-Serif" font-size="10.00">Value &gt;</text>
</a>
</g>
</g>
<!-- Node0&#45;&gt;Node37 -->
<g id="edge37" class="edge">
<title>Node0&#45;&gt;Node37</title>
<path fill="none" stroke="#63b8ff" d="M41.95,-775.28C47.04,-665.55 72.5,-165.66 116,-113.5 119.92,-108.8 124.73,-104.99 130.01,-101.91"/>
<polygon fill="#63b8ff" stroke="#63b8ff" points="38.46,-775.01 41.5,-785.16 45.45,-775.33 38.46,-775.01"/>
</g>
<!-- Node38 -->
<g id="node39" class="node">
<title>Node38</title>
<g id="a_node39"><a xlink:href="class_ogre_1_1_shared_ptr.html" target="_top" xlink:title=" ">
<polygon fill="white" stroke="#666666" points="258.5,-56 136.5,-56 136.5,-37 258.5,-37 258.5,-56"/>
<text text-anchor="middle" x="197.5" y="-44" font-family="Helvetica,sans-Serif" font-size="10.00">Ogre::SharedPtr&lt; Font &gt;</text>
</a>
</g>
</g>
<!-- Node0&#45;&gt;Node38 -->
<g id="edge38" class="edge">
<title>Node0&#45;&gt;Node38</title>
<path fill="none" stroke="#63b8ff" d="M41.72,-775.54C45.83,-661.67 67.82,-120.36 116,-65.5 121.5,-59.24 128.63,-54.84 136.39,-51.79"/>
<polygon fill="#63b8ff" stroke="#63b8ff" points="38.24,-775.12 41.38,-785.24 45.23,-775.37 38.24,-775.12"/>
</g>
<!-- Node39 -->
<g id="node40" class="node">
<title>Node39</title>
<g id="a_node40"><a xlink:href="class_ogre_1_1_shared_ptr.html" target="_top" xlink:title=" ">
<polygon fill="white" stroke="#666666" points="251.5,-19 143.5,-19 143.5,0 251.5,0 251.5,-19"/>
<text text-anchor="middle" x="197.5" y="-7" font-family="Helvetica,sans-Serif" font-size="10.00">Ogre::SharedPtr&lt; T &gt;</text>
</a>
</g>
</g>
<!-- Node0&#45;&gt;Node39 -->
<g id="edge39" class="edge">
<title>Node0&#45;&gt;Node39</title>
<path fill="none" stroke="#63b8ff" d="M41.61,-775.19C45.19,-656.97 65.04,-85.13 116,-27.5 123.11,-19.45 132.97,-14.58 143.35,-11.7"/>
<polygon fill="#63b8ff" stroke="#63b8ff" points="38.12,-774.9 41.32,-785 45.11,-775.11 38.12,-774.9"/>
</g>
<!-- Node2 -->
<g id="node3" class="node">
<title>Node2</title>
<g id="a_node3"><a xlink:href="class_ogre_1_1v1_1_1_hardware_index_buffer_shared_ptr.html" target="_top" xlink:title="Shared pointer implementation used to share index buffers.">
<polygon fill="white" stroke="#666666" points="463,-1647.5 315,-1647.5 315,-1617.5 463,-1617.5 463,-1647.5"/>
<text text-anchor="start" x="323" y="-1635.5" font-family="Helvetica,sans-Serif" font-size="10.00">Ogre::v1::HardwareIndexBuffer</text>
<text text-anchor="middle" x="389" y="-1624.5" font-family="Helvetica,sans-Serif" font-size="10.00">SharedPtr</text>
</a>
</g>
</g>
<!-- Node1&#45;&gt;Node2 -->
<g id="edge2" class="edge">
<title>Node1&#45;&gt;Node2</title>
<path fill="none" stroke="#63b8ff" d="M277.15,-1632.5C289.6,-1632.5 302.44,-1632.5 314.76,-1632.5"/>
<polygon fill="#63b8ff" stroke="#63b8ff" points="277.36,-1629 267.36,-1632.5 277.36,-1636 277.36,-1629"/>
</g>
<!-- Node4 -->
<g id="node5" class="node">
<title>Node4</title>
<g id="a_node5"><a xlink:href="class_ogre_1_1v1_1_1_hardware_vertex_buffer_shared_ptr.html" target="_top" xlink:title="Shared pointer implementation used to share vertex buffers.">
<polygon fill="white" stroke="#666666" points="452.5,-1599.5 325.5,-1599.5 325.5,-1569.5 452.5,-1569.5 452.5,-1599.5"/>
<text text-anchor="start" x="333.5" y="-1587.5" font-family="Helvetica,sans-Serif" font-size="10.00">Ogre::v1::HardwareVertex</text>
<text text-anchor="middle" x="389" y="-1576.5" font-family="Helvetica,sans-Serif" font-size="10.00">BufferSharedPtr</text>
</a>
</g>
</g>
<!-- Node3&#45;&gt;Node4 -->
<g id="edge4" class="edge">
<title>Node3&#45;&gt;Node4</title>
<path fill="none" stroke="#63b8ff" d="M277.35,-1584.5C293.35,-1584.5 309.96,-1584.5 325.31,-1584.5"/>
<polygon fill="#63b8ff" stroke="#63b8ff" points="277.36,-1581 267.36,-1584.5 277.36,-1588 277.36,-1581"/>
</g>
</g>
</svg>
