<?xml version="1.0" encoding="UTF-8" standalone="no"?>
<!DOCTYPE svg PUBLIC "-//W3C//DTD SVG 1.1//EN"
 "http://www.w3.org/Graphics/SVG/1.1/DTD/svg11.dtd">
<!-- Generated by graphviz version 2.43.0 (0)
 -->
<!-- Title: Graphical Class Hierarchy Pages: 1 -->
<svg width="442pt" height="360pt"
 viewBox="0.00 0.00 442.00 360.00" xmlns="http://www.w3.org/2000/svg" xmlns:xlink="http://www.w3.org/1999/xlink">
<g id="graph0" class="graph" transform="scale(1 1) rotate(0) translate(4 356)">
<title>Graphical Class Hierarchy</title>
<!-- Node0 -->
<g id="Node000000" class="node">
<title>Node0</title>
<g id="a_Node000000"><a xlink:title=" ">
<polygon fill="#e0e0e0" stroke="#999999" points="86,-185 0,-185 0,-166 86,-166 86,-185"/>
<text text-anchor="middle" x="43" y="-173" font-family="Helvetica,sans-Serif" font-size="10.00">std::exception</text>
</a>
</g>
</g>
<!-- Node1 -->
<g id="Node000001" class="node">
<title>Node1</title>
<g id="a_Node000001"><a xlink:href="class_ogre_1_1_exception.html" target="_top" xlink:title="When thrown, provides information about an error that has occurred inside the engine.">
<polygon fill="white" stroke="#666666" points="216,-185 122,-185 122,-166 216,-166 216,-185"/>
<text text-anchor="middle" x="169" y="-173" font-family="Helvetica,sans-Serif" font-size="10.00">Ogre::Exception</text>
</a>
</g>
</g>
<!-- Node0&#45;&gt;Node1 -->
<g id="edge1172_Node000000_Node000001" class="edge">
<title>Node0&#45;&gt;Node1</title>
<g id="a_edge1172_Node000000_Node000001"><a xlink:title=" ">
<path fill="none" stroke="#63b8ff" d="M96.39,-175.5C104.77,-175.5 113.39,-175.5 121.62,-175.5"/>
<polygon fill="#63b8ff" stroke="#63b8ff" points="96.33,-172 86.33,-175.5 96.33,-179 96.33,-172"/>
</a>
</g>
</g>
<!-- Node2 -->
<g id="Node000002" class="node">
<title>Node2</title>
<g id="a_Node000002"><a xlink:href="class_ogre_1_1_file_not_found_exception.html" target="_top" xlink:title=" ">
<polygon fill="white" stroke="#666666" points="422,-352 264,-352 264,-333 422,-333 422,-352"/>
<text text-anchor="middle" x="343" y="-340" font-family="Helvetica,sans-Serif" font-size="10.00">Ogre::FileNotFoundException</text>
</a>
</g>
</g>
<!-- Node1&#45;&gt;Node2 -->
<g id="edge1173_Node000001_Node000002" class="edge">
<title>Node1&#45;&gt;Node2</title>
<g id="a_edge1173_Node000001_Node000002"><a xlink:title=" ">
<path fill="none" stroke="#63b8ff" d="M174.96,-195.05C184.25,-227.43 207.48,-291.86 252,-324.5 256.63,-327.89 261.73,-330.68 267.09,-332.98"/>
<polygon fill="#63b8ff" stroke="#63b8ff" points="178.24,-193.77 172.24,-185.03 171.49,-195.6 178.24,-193.77"/>
</a>
</g>
</g>
<!-- Node3 -->
<g id="Node000003" class="node">
<title>Node3</title>
<g id="a_Node000003"><a xlink:href="class_ogre_1_1_i_o_exception.html" target="_top" xlink:title=" ">
<polygon fill="white" stroke="#666666" points="395,-315 291,-315 291,-296 395,-296 395,-315"/>
<text text-anchor="middle" x="343" y="-303" font-family="Helvetica,sans-Serif" font-size="10.00">Ogre::IOException</text>
</a>
</g>
</g>
<!-- Node1&#45;&gt;Node3 -->
<g id="edge1174_Node000001_Node000003" class="edge">
<title>Node1&#45;&gt;Node3</title>
<g id="a_edge1174_Node000001_Node000003"><a xlink:title=" ">
<path fill="none" stroke="#63b8ff" d="M178.41,-194.5C190.71,-219.97 216.11,-264.59 252,-287.5 263.55,-294.87 277.5,-299.32 290.93,-301.98"/>
<polygon fill="#63b8ff" stroke="#63b8ff" points="181.46,-192.77 174.07,-185.18 175.11,-195.72 181.46,-192.77"/>
</a>
</g>
</g>
<!-- Node4 -->
<g id="Node000004" class="node">
<title>Node4</title>
<g id="a_Node000004"><a xlink:href="class_ogre_1_1_internal_error_exception.html" target="_top" xlink:title=" ">
<polygon fill="white" stroke="#666666" points="420.5,-278 265.5,-278 265.5,-259 420.5,-259 420.5,-278"/>
<text text-anchor="middle" x="343" y="-266" font-family="Helvetica,sans-Serif" font-size="10.00">Ogre::InternalErrorException</text>
</a>
</g>
</g>
<!-- Node1&#45;&gt;Node4 -->
<g id="edge1175_Node000001_Node000004" class="edge">
<title>Node1&#45;&gt;Node4</title>
<g id="a_edge1175_Node000001_Node000004"><a xlink:title=" ">
<path fill="none" stroke="#63b8ff" d="M183.89,-192.84C198.83,-210.23 224.2,-236.41 252,-250.5 258.68,-253.89 265.94,-256.64 273.34,-258.87"/>
<polygon fill="#63b8ff" stroke="#63b8ff" points="186.53,-190.53 177.44,-185.09 181.15,-195.01 186.53,-190.53"/>
</a>
</g>
</g>
<!-- Node5 -->
<g id="Node000005" class="node">
<title>Node5</title>
<g id="a_Node000005"><a xlink:href="class_ogre_1_1_invalid_call_exception.html" target="_top" xlink:title=" ">
<polygon fill="white" stroke="#666666" points="416,-241 270,-241 270,-222 416,-222 416,-241"/>
<text text-anchor="middle" x="343" y="-229" font-family="Helvetica,sans-Serif" font-size="10.00">Ogre::InvalidCallException</text>
</a>
</g>
</g>
<!-- Node1&#45;&gt;Node5 -->
<g id="edge1176_Node000001_Node000005" class="edge">
<title>Node1&#45;&gt;Node5</title>
<g id="a_edge1176_Node000001_Node000005"><a xlink:title=" ">
<path fill="none" stroke="#63b8ff" d="M196.55,-189.76C212.29,-197.71 232.86,-207.25 252,-213.5 262.15,-216.81 273.15,-219.63 283.86,-221.97"/>
<polygon fill="#63b8ff" stroke="#63b8ff" points="197.92,-186.52 187.42,-185.05 194.71,-192.75 197.92,-186.52"/>
</a>
</g>
</g>
<!-- Node6 -->
<g id="Node000006" class="node">
<title>Node6</title>
<g id="a_Node000006"><a xlink:href="class_ogre_1_1_invalid_parameters_exception.html" target="_top" xlink:title=" ">
<polygon fill="white" stroke="#666666" points="434,-204 252,-204 252,-185 434,-185 434,-204"/>
<text text-anchor="middle" x="343" y="-192" font-family="Helvetica,sans-Serif" font-size="10.00">Ogre::InvalidParametersException</text>
</a>
</g>
</g>
<!-- Node1&#45;&gt;Node6 -->
<g id="edge1177_Node000001_Node000006" class="edge">
<title>Node1&#45;&gt;Node6</title>
<g id="a_edge1177_Node000001_Node000006"><a xlink:title=" ">
<path fill="none" stroke="#63b8ff" d="M226.2,-181.71C235.74,-182.76 245.83,-183.88 255.93,-184.99"/>
<polygon fill="#63b8ff" stroke="#63b8ff" points="226.42,-178.21 216.09,-180.59 225.65,-185.17 226.42,-178.21"/>
</a>
</g>
</g>
<!-- Node7 -->
<g id="Node000007" class="node">
<title>Node7</title>
<g id="a_Node000007"><a xlink:href="class_ogre_1_1_invalid_state_exception.html" target="_top" xlink:title=" ">
<polygon fill="white" stroke="#666666" points="419,-167 267,-167 267,-148 419,-148 419,-167"/>
<text text-anchor="middle" x="343" y="-155" font-family="Helvetica,sans-Serif" font-size="10.00">Ogre::InvalidStateException</text>
</a>
</g>
</g>
<!-- Node1&#45;&gt;Node7 -->
<g id="edge1178_Node000001_Node000007" class="edge">
<title>Node1&#45;&gt;Node7</title>
<g id="a_edge1178_Node000001_Node000007"><a xlink:title=" ">
<path fill="none" stroke="#63b8ff" d="M226.25,-169.61C239.23,-168.25 253.24,-166.79 266.88,-165.36"/>
<polygon fill="#63b8ff" stroke="#63b8ff" points="225.67,-166.15 216.09,-170.68 226.4,-173.12 225.67,-166.15"/>
</a>
</g>
</g>
<!-- Node8 -->
<g id="Node000008" class="node">
<title>Node8</title>
<g id="a_Node000008"><a xlink:href="class_ogre_1_1_item_identity_exception.html" target="_top" xlink:title=" ">
<polygon fill="white" stroke="#666666" points="420,-130 266,-130 266,-111 420,-111 420,-130"/>
<text text-anchor="middle" x="343" y="-118" font-family="Helvetica,sans-Serif" font-size="10.00">Ogre::ItemIdentityException</text>
</a>
</g>
</g>
<!-- Node1&#45;&gt;Node8 -->
<g id="edge1179_Node000001_Node000008" class="edge">
<title>Node1&#45;&gt;Node8</title>
<g id="a_edge1179_Node000001_Node000008"><a xlink:title=" ">
<path fill="none" stroke="#63b8ff" d="M197.89,-161.55C213.5,-154.17 233.49,-145.45 252,-139.5 263.4,-135.84 275.85,-132.69 287.75,-130.07"/>
<polygon fill="#63b8ff" stroke="#63b8ff" points="196.28,-158.43 188.79,-165.92 199.32,-164.74 196.28,-158.43"/>
</a>
</g>
</g>
<!-- Node9 -->
<g id="Node000009" class="node">
<title>Node9</title>
<g id="a_Node000009"><a xlink:href="class_ogre_1_1_rendering_a_p_i_exception.html" target="_top" xlink:title=" ">
<polygon fill="white" stroke="#666666" points="422.5,-93 263.5,-93 263.5,-74 422.5,-74 422.5,-93"/>
<text text-anchor="middle" x="343" y="-81" font-family="Helvetica,sans-Serif" font-size="10.00">Ogre::RenderingAPIException</text>
</a>
</g>
</g>
<!-- Node1&#45;&gt;Node9 -->
<g id="edge1180_Node000001_Node000009" class="edge">
<title>Node1&#45;&gt;Node9</title>
<g id="a_edge1180_Node000001_Node000009"><a xlink:title=" ">
<path fill="none" stroke="#63b8ff" d="M184.68,-157.96C199.79,-141.09 224.91,-116.18 252,-102.5 259.7,-98.61 268.15,-95.52 276.7,-93.06"/>
<polygon fill="#63b8ff" stroke="#63b8ff" points="181.65,-156.11 177.73,-165.95 186.93,-160.7 181.65,-156.11"/>
</a>
</g>
</g>
<!-- Node10 -->
<g id="Node000010" class="node">
<title>Node10</title>
<g id="a_Node000010"><a xlink:href="class_ogre_1_1_runtime_assertion_exception.html" target="_top" xlink:title=" ">
<polygon fill="white" stroke="#666666" points="433.5,-56 252.5,-56 252.5,-37 433.5,-37 433.5,-56"/>
<text text-anchor="middle" x="343" y="-44" font-family="Helvetica,sans-Serif" font-size="10.00">Ogre::RuntimeAssertionException</text>
</a>
</g>
</g>
<!-- Node1&#45;&gt;Node10 -->
<g id="edge1181_Node000001_Node000010" class="edge">
<title>Node1&#45;&gt;Node10</title>
<g id="a_edge1181_Node000001_Node000010"><a xlink:title=" ">
<path fill="none" stroke="#63b8ff" d="M178.72,-156.51C191.23,-131.5 216.73,-88.06 252,-65.5 258.05,-61.63 264.76,-58.53 271.7,-56.05"/>
<polygon fill="#63b8ff" stroke="#63b8ff" points="175.48,-155.17 174.29,-165.7 181.79,-158.21 175.48,-155.17"/>
</a>
</g>
</g>
<!-- Node11 -->
<g id="Node000011" class="node">
<title>Node11</title>
<g id="a_Node000011"><a xlink:href="class_ogre_1_1_unimplemented_exception.html" target="_top" xlink:title="Template struct which creates a distinct type for each exception code.">
<polygon fill="white" stroke="#666666" points="429.5,-19 256.5,-19 256.5,0 429.5,0 429.5,-19"/>
<text text-anchor="middle" x="343" y="-7" font-family="Helvetica,sans-Serif" font-size="10.00">Ogre::UnimplementedException</text>
</a>
</g>
</g>
<!-- Node1&#45;&gt;Node11 -->
<g id="edge1182_Node000001_Node000011" class="edge">
<title>Node1&#45;&gt;Node11</title>
<g id="a_edge1182_Node000001_Node000011"><a xlink:title=" ">
<path fill="none" stroke="#63b8ff" d="M175.22,-155.8C184.77,-123.78 208.23,-60.75 252,-28.5 257.14,-24.71 262.88,-21.64 268.89,-19.16"/>
<polygon fill="#63b8ff" stroke="#63b8ff" points="171.76,-155.16 172.41,-165.74 178.5,-157.07 171.76,-155.16"/>
</a>
</g>
</g>
</g>
</svg>
