<?xml version="1.0" encoding="UTF-8" standalone="no"?>
<!DOCTYPE svg PUBLIC "-//W3C//DTD SVG 1.1//EN"
 "http://www.w3.org/Graphics/SVG/1.1/DTD/svg11.dtd">
<!-- Generated by graphviz version 2.49.3 (20211027.1534)
 -->
<!-- Title: Graphical Class Hierarchy Pages: 1 -->
<svg width="471pt" height="1289pt"
 viewBox="0.00 0.00 471.00 1288.50" xmlns="http://www.w3.org/2000/svg" xmlns:xlink="http://www.w3.org/1999/xlink">
<g id="graph0" class="graph" transform="scale(1 1) rotate(0) translate(4 1284.5)">
<title>Graphical Class Hierarchy</title>
<!-- Node1574 -->
<g id="node1" class="node">
<title>Node1574</title>
<g id="a_node1"><a xlink:title=" ">
<polygon fill="none" stroke="#bfbfbf" points="0,-609.5 0,-628.5 80,-628.5 80,-609.5 0,-609.5"/>
<text text-anchor="middle" x="40" y="-616.5" font-family="Helvetica,sans-Serif" font-size="10.00">std::shared_ptr</text>
</a>
</g>
</g>
<!-- Node0 -->
<g id="node2" class="node">
<title>Node0</title>
<g id="a_node2"><a xlink:href="class_ogre_1_1_shared_ptr.html" target="_top" xlink:title=" ">
<polygon fill="none" stroke="black" points="129.5,-1250 129.5,-1280 265.5,-1280 265.5,-1250 129.5,-1250"/>
<text text-anchor="start" x="137.5" y="-1268" font-family="Helvetica,sans-Serif" font-size="10.00">Ogre::SharedPtr&lt; Hardware</text>
<text text-anchor="middle" x="197.5" y="-1257" font-family="Helvetica,sans-Serif" font-size="10.00">IndexBuffer &gt;</text>
</a>
</g>
</g>
<!-- Node1574&#45;&gt;Node0 -->
<g id="edge1" class="edge">
<title>Node1574&#45;&gt;Node0</title>
<path fill="none" stroke="midnightblue" d="M40.61,-638.93C39.13,-734.58 37.48,-1145.82 116,-1240 119.75,-1244.5 124.29,-1248.2 129.29,-1251.24"/>
<polygon fill="midnightblue" stroke="midnightblue" points="44.11,-638.93 40.78,-628.87 37.11,-638.81 44.11,-638.93"/>
</g>
<!-- Node1577 -->
<g id="node4" class="node">
<title>Node1577</title>
<g id="a_node4"><a xlink:href="class_ogre_1_1_shared_ptr.html" target="_top" xlink:title=" ">
<polygon fill="none" stroke="black" points="129.5,-1201 129.5,-1231 265.5,-1231 265.5,-1201 129.5,-1201"/>
<text text-anchor="start" x="137.5" y="-1219" font-family="Helvetica,sans-Serif" font-size="10.00">Ogre::SharedPtr&lt; Hardware</text>
<text text-anchor="middle" x="197.5" y="-1208" font-family="Helvetica,sans-Serif" font-size="10.00">VertexBuffer &gt;</text>
</a>
</g>
</g>
<!-- Node1574&#45;&gt;Node1577 -->
<g id="edge3" class="edge">
<title>Node1574&#45;&gt;Node1577</title>
<path fill="none" stroke="midnightblue" d="M40.84,-638.76C40.49,-729.43 43.52,-1104.96 116,-1191 119.77,-1195.48 124.33,-1199.17 129.34,-1202.2"/>
<polygon fill="midnightblue" stroke="midnightblue" points="44.34,-638.55 40.9,-628.53 37.34,-638.5 44.34,-638.55"/>
</g>
<!-- Node1579 -->
<g id="node6" class="node">
<title>Node1579</title>
<g id="a_node6"><a xlink:href="class_ogre_1_1_shared_ptr.html" target="_top" xlink:title=" ">
<polygon fill="none" stroke="black" points="129,-1162.5 129,-1181.5 266,-1181.5 266,-1162.5 129,-1162.5"/>
<text text-anchor="middle" x="197.5" y="-1169.5" font-family="Helvetica,sans-Serif" font-size="10.00">Ogre::SharedPtr&lt; Material &gt;</text>
</a>
</g>
</g>
<!-- Node1574&#45;&gt;Node1579 -->
<g id="edge5" class="edge">
<title>Node1574&#45;&gt;Node1579</title>
<path fill="none" stroke="midnightblue" d="M40.94,-638.88C41.08,-726.15 46.1,-1074.44 116,-1152 119.86,-1156.28 124.47,-1159.71 129.52,-1162.45"/>
<polygon fill="midnightblue" stroke="midnightblue" points="44.44,-638.75 40.94,-628.75 37.44,-638.75 44.44,-638.75"/>
</g>
<!-- Node1580 -->
<g id="node7" class="node">
<title>Node1580</title>
<g id="a_node7"><a xlink:href="class_ogre_1_1_shared_ptr.html" target="_top" xlink:title=" ">
<polygon fill="none" stroke="black" points="116,-1113 116,-1143 279,-1143 279,-1113 116,-1113"/>
<text text-anchor="start" x="124" y="-1131" font-family="Helvetica,sans-Serif" font-size="10.00">Ogre::SharedPtr&lt; ShadowCamera</text>
<text text-anchor="middle" x="197.5" y="-1120" font-family="Helvetica,sans-Serif" font-size="10.00">Setup &gt;</text>
</a>
</g>
</g>
<!-- Node1574&#45;&gt;Node1580 -->
<g id="edge6" class="edge">
<title>Node1574&#45;&gt;Node1580</title>
<path fill="none" stroke="midnightblue" d="M41.37,-639C43.26,-721.16 54.47,-1031.66 116,-1103 119.35,-1106.88 123.28,-1110.16 127.58,-1112.95"/>
<polygon fill="midnightblue" stroke="midnightblue" points="44.86,-638.52 41.15,-628.59 37.86,-638.67 44.86,-638.52"/>
</g>
<!-- Node1581 -->
<g id="node8" class="node">
<title>Node1581</title>
<g id="a_node8"><a xlink:href="class_ogre_1_1_shared_ptr.html" target="_top" xlink:title=" ">
<polygon fill="none" stroke="black" points="130,-1064 130,-1094 265,-1094 265,-1064 130,-1064"/>
<text text-anchor="start" x="138" y="-1082" font-family="Helvetica,sans-Serif" font-size="10.00">Ogre::SharedPtr&lt; Controller</text>
<text text-anchor="middle" x="197.5" y="-1071" font-family="Helvetica,sans-Serif" font-size="10.00">Value&lt; Real &gt; &gt;</text>
</a>
</g>
</g>
<!-- Node1574&#45;&gt;Node1581 -->
<g id="edge7" class="edge">
<title>Node1574&#45;&gt;Node1581</title>
<path fill="none" stroke="midnightblue" d="M41.75,-638.92C45.01,-715.62 60.47,-990.72 116,-1054 119.96,-1058.51 124.71,-1062.22 129.91,-1065.26"/>
<polygon fill="midnightblue" stroke="midnightblue" points="45.24,-638.58 41.34,-628.73 38.24,-638.86 45.24,-638.58"/>
</g>
<!-- Node1582 -->
<g id="node9" class="node">
<title>Node1582</title>
<g id="a_node9"><a xlink:href="class_ogre_1_1_shared_ptr.html" target="_top" xlink:title=" ">
<polygon fill="none" stroke="black" points="130,-1015 130,-1045 265,-1045 265,-1015 130,-1015"/>
<text text-anchor="start" x="138" y="-1033" font-family="Helvetica,sans-Serif" font-size="10.00">Ogre::SharedPtr&lt; Controller</text>
<text text-anchor="middle" x="197.5" y="-1022" font-family="Helvetica,sans-Serif" font-size="10.00">Function&lt; Real &gt; &gt;</text>
</a>
</g>
</g>
<!-- Node1574&#45;&gt;Node1582 -->
<g id="edge8" class="edge">
<title>Node1574&#45;&gt;Node1582</title>
<path fill="none" stroke="midnightblue" d="M42.22,-638.91C46.98,-709.97 66.47,-949.74 116,-1005 119.91,-1009.36 124.56,-1012.97 129.63,-1015.95"/>
<polygon fill="midnightblue" stroke="midnightblue" points="45.7,-638.43 41.56,-628.68 38.71,-638.88 45.7,-638.43"/>
</g>
<!-- Node1583 -->
<g id="node10" class="node">
<title>Node1583</title>
<g id="a_node10"><a xlink:href="class_ogre_1_1_shared_ptr.html" target="_top" xlink:title=" ">
<polygon fill="none" stroke="black" points="120.5,-976.5 120.5,-995.5 274.5,-995.5 274.5,-976.5 120.5,-976.5"/>
<text text-anchor="middle" x="197.5" y="-983.5" font-family="Helvetica,sans-Serif" font-size="10.00">Ogre::SharedPtr&lt; DataStream &gt;</text>
</a>
</g>
</g>
<!-- Node1574&#45;&gt;Node1583 -->
<g id="edge9" class="edge">
<title>Node1574&#45;&gt;Node1583</title>
<path fill="none" stroke="midnightblue" d="M42.6,-639.11C48.31,-705.84 69.85,-918.42 116,-966 120.11,-970.24 124.97,-973.63 130.23,-976.34"/>
<polygon fill="midnightblue" stroke="midnightblue" points="46.05,-638.41 41.74,-628.74 39.08,-638.99 46.05,-638.41"/>
</g>
<!-- Node1584 -->
<g id="node11" class="node">
<title>Node1584</title>
<g id="a_node11"><a xlink:href="class_ogre_1_1_shared_ptr.html" target="_top" xlink:title=" ">
<polygon fill="none" stroke="black" points="123,-927 123,-957 272,-957 272,-927 123,-927"/>
<text text-anchor="start" x="131" y="-945" font-family="Helvetica,sans-Serif" font-size="10.00">Ogre::SharedPtr&lt; GpuProgram</text>
<text text-anchor="middle" x="197.5" y="-934" font-family="Helvetica,sans-Serif" font-size="10.00">Parameters &gt;</text>
</a>
</g>
</g>
<!-- Node1574&#45;&gt;Node1584 -->
<g id="edge10" class="edge">
<title>Node1574&#45;&gt;Node1584</title>
<path fill="none" stroke="midnightblue" d="M43.4,-638.48C51.12,-697.99 77.06,-875.88 116,-917 119.62,-920.83 123.82,-924.07 128.35,-926.82"/>
<polygon fill="midnightblue" stroke="midnightblue" points="46.87,-637.99 42.14,-628.51 39.93,-638.88 46.87,-637.99"/>
</g>
<!-- Node1585 -->
<g id="node12" class="node">
<title>Node1585</title>
<g id="a_node12"><a xlink:href="class_ogre_1_1_shared_ptr.html" target="_top" xlink:title=" ">
<polygon fill="none" stroke="black" points="137,-878 137,-908 258,-908 258,-878 137,-878"/>
<text text-anchor="start" x="145" y="-896" font-family="Helvetica,sans-Serif" font-size="10.00">Ogre::SharedPtr&lt; vector</text>
<text text-anchor="middle" x="197.5" y="-885" font-family="Helvetica,sans-Serif" font-size="10.00">&lt; Image &gt;::type &gt;</text>
</a>
</g>
</g>
<!-- Node1574&#45;&gt;Node1585 -->
<g id="edge11" class="edge">
<title>Node1574&#45;&gt;Node1585</title>
<path fill="none" stroke="midnightblue" d="M41.03,-638.99C42.23,-685.77 51.82,-803.27 116,-868 121.87,-873.92 129.12,-878.45 136.84,-881.9"/>
<polygon fill="midnightblue" stroke="midnightblue" points="44.53,-638.65 40.88,-628.7 37.53,-638.75 44.53,-638.65"/>
</g>
<!-- Node1586 -->
<g id="node13" class="node">
<title>Node1586</title>
<g id="a_node13"><a xlink:href="class_ogre_1_1_shared_ptr.html" target="_top" xlink:title=" ">
<polygon fill="none" stroke="black" points="126,-829 126,-859 269,-859 269,-829 126,-829"/>
<text text-anchor="start" x="134" y="-847" font-family="Helvetica,sans-Serif" font-size="10.00">Ogre::SharedPtr&lt; GpuLogical</text>
<text text-anchor="middle" x="197.5" y="-836" font-family="Helvetica,sans-Serif" font-size="10.00">BufferStruct &gt;</text>
</a>
</g>
</g>
<!-- Node1574&#45;&gt;Node1586 -->
<g id="edge12" class="edge">
<title>Node1574&#45;&gt;Node1586</title>
<path fill="none" stroke="midnightblue" d="M42.71,-638.52C47.24,-678.28 63.12,-769.08 116,-819 120.04,-822.82 124.66,-826.05 129.59,-828.79"/>
<polygon fill="midnightblue" stroke="midnightblue" points="46.19,-638.13 41.69,-628.54 39.23,-638.84 46.19,-638.13"/>
</g>
<!-- Node1587 -->
<g id="node14" class="node">
<title>Node1587</title>
<g id="a_node14"><a xlink:href="class_ogre_1_1_shared_ptr.html" target="_top" xlink:title=" ">
<polygon fill="none" stroke="black" points="126,-780 126,-810 269,-810 269,-780 126,-780"/>
<text text-anchor="start" x="134" y="-798" font-family="Helvetica,sans-Serif" font-size="10.00">Ogre::SharedPtr&lt; GpuNamed</text>
<text text-anchor="middle" x="197.5" y="-787" font-family="Helvetica,sans-Serif" font-size="10.00">Constants &gt;</text>
</a>
</g>
</g>
<!-- Node1574&#45;&gt;Node1587 -->
<g id="edge13" class="edge">
<title>Node1574&#45;&gt;Node1587</title>
<path fill="none" stroke="midnightblue" d="M45.45,-638.75C53.73,-670.94 74.54,-734.69 116,-770 120.57,-773.89 125.74,-777.18 131.2,-779.95"/>
<polygon fill="midnightblue" stroke="midnightblue" points="48.79,-637.67 43.03,-628.77 41.99,-639.31 48.79,-637.67"/>
</g>
<!-- Node1588 -->
<g id="node15" class="node">
<title>Node1588</title>
<g id="a_node15"><a xlink:href="class_ogre_1_1_shared_ptr.html" target="_top" xlink:title=" ">
<polygon fill="none" stroke="black" points="119,-741.5 119,-760.5 276,-760.5 276,-741.5 119,-741.5"/>
<text text-anchor="middle" x="197.5" y="-748.5" font-family="Helvetica,sans-Serif" font-size="10.00">Ogre::SharedPtr&lt; GpuProgram &gt;</text>
</a>
</g>
</g>
<!-- Node1574&#45;&gt;Node1588 -->
<g id="edge14" class="edge">
<title>Node1574&#45;&gt;Node1588</title>
<path fill="none" stroke="midnightblue" d="M48.54,-638.1C59.52,-663.33 82.32,-707.35 116,-731 122.25,-735.39 129.36,-738.81 136.71,-741.49"/>
<polygon fill="midnightblue" stroke="midnightblue" points="51.64,-636.43 44.57,-628.55 45.18,-639.12 51.64,-636.43"/>
</g>
<!-- Node1589 -->
<g id="node16" class="node">
<title>Node1589</title>
<g id="a_node16"><a xlink:href="class_ogre_1_1_shared_ptr.html" target="_top" xlink:title=" ">
<polygon fill="none" stroke="black" points="126,-692 126,-722 269,-722 269,-692 126,-692"/>
<text text-anchor="start" x="134" y="-710" font-family="Helvetica,sans-Serif" font-size="10.00">Ogre::SharedPtr&lt; GpuShared</text>
<text text-anchor="middle" x="197.5" y="-699" font-family="Helvetica,sans-Serif" font-size="10.00">Parameters &gt;</text>
</a>
</g>
</g>
<!-- Node1574&#45;&gt;Node1589 -->
<g id="edge15" class="edge">
<title>Node1574&#45;&gt;Node1589</title>
<path fill="none" stroke="midnightblue" d="M57.36,-636.12C71.66,-650.2 93.59,-669.76 116,-682 122.94,-685.79 130.53,-689.09 138.19,-691.94"/>
<polygon fill="midnightblue" stroke="midnightblue" points="59.77,-633.58 50.25,-628.94 54.8,-638.51 59.77,-633.58"/>
</g>
<!-- Node1590 -->
<g id="node17" class="node">
<title>Node1590</title>
<g id="a_node17"><a xlink:href="class_ogre_1_1_shared_ptr.html" target="_top" xlink:title=" ">
<polygon fill="none" stroke="black" points="134.5,-653.5 134.5,-672.5 260.5,-672.5 260.5,-653.5 134.5,-653.5"/>
<text text-anchor="middle" x="197.5" y="-660.5" font-family="Helvetica,sans-Serif" font-size="10.00">Ogre::SharedPtr&lt; Mesh &gt;</text>
</a>
</g>
</g>
<!-- Node1574&#45;&gt;Node1590 -->
<g id="edge16" class="edge">
<title>Node1574&#45;&gt;Node1590</title>
<path fill="none" stroke="midnightblue" d="M78.93,-631.68C90.76,-635.48 103.88,-639.56 116,-643 128.88,-646.66 143.03,-650.3 155.82,-653.45"/>
<polygon fill="midnightblue" stroke="midnightblue" points="79.95,-628.33 69.36,-628.56 77.78,-634.98 79.95,-628.33"/>
</g>
<!-- Node1591 -->
<g id="node18" class="node">
<title>Node1591</title>
<g id="a_node18"><a xlink:href="class_ogre_1_1_shared_ptr.html" target="_top" xlink:title=" ">
<polygon fill="none" stroke="black" points="123.5,-604 123.5,-634 271.5,-634 271.5,-604 123.5,-604"/>
<text text-anchor="start" x="131.5" y="-622" font-family="Helvetica,sans-Serif" font-size="10.00">Ogre::SharedPtr&lt; LodCollapse</text>
<text text-anchor="middle" x="197.5" y="-611" font-family="Helvetica,sans-Serif" font-size="10.00">Cost &gt;</text>
</a>
</g>
</g>
<!-- Node1574&#45;&gt;Node1591 -->
<g id="edge17" class="edge">
<title>Node1574&#45;&gt;Node1591</title>
<path fill="none" stroke="midnightblue" d="M90.42,-619C100.91,-619 112.19,-619 123.35,-619"/>
<polygon fill="midnightblue" stroke="midnightblue" points="90.24,-615.5 80.24,-619 90.24,-622.5 90.24,-615.5"/>
</g>
<!-- Node1592 -->
<g id="node19" class="node">
<title>Node1592</title>
<g id="a_node19"><a xlink:href="class_ogre_1_1_shared_ptr.html" target="_top" xlink:title=" ">
<polygon fill="none" stroke="black" points="128,-565.5 128,-584.5 267,-584.5 267,-565.5 128,-565.5"/>
<text text-anchor="middle" x="197.5" y="-572.5" font-family="Helvetica,sans-Serif" font-size="10.00">Ogre::SharedPtr&lt; LodData &gt;</text>
</a>
</g>
</g>
<!-- Node1574&#45;&gt;Node1592 -->
<g id="edge18" class="edge">
<title>Node1574&#45;&gt;Node1592</title>
<path fill="none" stroke="midnightblue" d="M77.68,-606.04C89.81,-601.95 103.42,-597.57 116,-594 127.88,-590.63 140.86,-587.37 152.87,-584.54"/>
<polygon fill="midnightblue" stroke="midnightblue" points="76.23,-602.84 67.9,-609.38 78.49,-609.46 76.23,-602.84"/>
</g>
<!-- Node1593 -->
<g id="node20" class="node">
<title>Node1593</title>
<g id="a_node20"><a xlink:href="class_ogre_1_1_shared_ptr.html" target="_top" xlink:title=" ">
<polygon fill="none" stroke="black" points="131.5,-516 131.5,-546 263.5,-546 263.5,-516 131.5,-516"/>
<text text-anchor="start" x="139.5" y="-534" font-family="Helvetica,sans-Serif" font-size="10.00">Ogre::SharedPtr&lt; LodInput</text>
<text text-anchor="middle" x="197.5" y="-523" font-family="Helvetica,sans-Serif" font-size="10.00">Provider &gt;</text>
</a>
</g>
</g>
<!-- Node1574&#45;&gt;Node1593 -->
<g id="edge19" class="edge">
<title>Node1574&#45;&gt;Node1593</title>
<path fill="none" stroke="midnightblue" d="M57.36,-601.88C71.66,-587.8 93.59,-568.24 116,-556 122.94,-552.21 130.53,-548.91 138.19,-546.06"/>
<polygon fill="midnightblue" stroke="midnightblue" points="54.8,-599.49 50.25,-609.06 59.77,-604.42 54.8,-599.49"/>
</g>
<!-- Node1594 -->
<g id="node21" class="node">
<title>Node1594</title>
<g id="a_node21"><a xlink:href="class_ogre_1_1_shared_ptr.html" target="_top" xlink:title=" ">
<polygon fill="none" stroke="black" points="127.5,-467 127.5,-497 267.5,-497 267.5,-467 127.5,-467"/>
<text text-anchor="start" x="135.5" y="-485" font-family="Helvetica,sans-Serif" font-size="10.00">Ogre::SharedPtr&lt; LodOutput</text>
<text text-anchor="middle" x="197.5" y="-474" font-family="Helvetica,sans-Serif" font-size="10.00">Provider &gt;</text>
</a>
</g>
</g>
<!-- Node1574&#45;&gt;Node1594 -->
<g id="edge20" class="edge">
<title>Node1574&#45;&gt;Node1594</title>
<path fill="none" stroke="midnightblue" d="M48.66,-599.96C59.77,-574.76 82.72,-530.64 116,-506 120.69,-502.53 125.88,-499.56 131.3,-497.01"/>
<polygon fill="midnightblue" stroke="midnightblue" points="45.3,-598.92 44.63,-609.49 51.75,-601.65 45.3,-598.92"/>
</g>
<!-- Node1595 -->
<g id="node22" class="node">
<title>Node1595</title>
<g id="a_node22"><a xlink:href="class_ogre_1_1_shared_ptr.html" target="_top" xlink:title=" ">
<polygon fill="none" stroke="black" points="118,-428.5 118,-447.5 277,-447.5 277,-428.5 118,-428.5"/>
<text text-anchor="middle" x="197.5" y="-435.5" font-family="Helvetica,sans-Serif" font-size="10.00">Ogre::SharedPtr&lt; LodCollapser &gt;</text>
</a>
</g>
</g>
<!-- Node1574&#45;&gt;Node1595 -->
<g id="edge21" class="edge">
<title>Node1574&#45;&gt;Node1595</title>
<path fill="none" stroke="midnightblue" d="M44.43,-598.95C51.43,-564.44 70.7,-493.97 116,-457 120.67,-453.19 125.98,-450.11 131.58,-447.64"/>
<polygon fill="midnightblue" stroke="midnightblue" points="40.92,-598.7 42.51,-609.17 47.8,-599.99 40.92,-598.7"/>
</g>
<!-- Node1596 -->
<g id="node23" class="node">
<title>Node1596</title>
<g id="a_node23"><a xlink:href="class_ogre_1_1_shared_ptr.html" target="_top" xlink:title=" ">
<polygon fill="none" stroke="black" points="131.5,-379 131.5,-409 263.5,-409 263.5,-379 131.5,-379"/>
<text text-anchor="start" x="139.5" y="-397" font-family="Helvetica,sans-Serif" font-size="10.00">Ogre::SharedPtr&lt; Skeleton</text>
<text text-anchor="middle" x="197.5" y="-386" font-family="Helvetica,sans-Serif" font-size="10.00">Def &gt;</text>
</a>
</g>
</g>
<!-- Node1574&#45;&gt;Node1596 -->
<g id="edge22" class="edge">
<title>Node1574&#45;&gt;Node1596</title>
<path fill="none" stroke="midnightblue" d="M42.71,-599.48C47.24,-559.72 63.12,-468.92 116,-419 120.47,-414.78 125.64,-411.27 131.16,-408.36"/>
<polygon fill="midnightblue" stroke="midnightblue" points="39.23,-599.16 41.69,-609.46 46.19,-599.87 39.23,-599.16"/>
</g>
<!-- Node1597 -->
<g id="node24" class="node">
<title>Node1597</title>
<g id="a_node24"><a xlink:href="class_ogre_1_1_shared_ptr.html" target="_top" xlink:title=" ">
<polygon fill="none" stroke="black" points="126,-340.5 126,-359.5 269,-359.5 269,-340.5 126,-340.5"/>
<text text-anchor="middle" x="197.5" y="-347.5" font-family="Helvetica,sans-Serif" font-size="10.00">Ogre::SharedPtr&lt; Resource &gt;</text>
</a>
</g>
</g>
<!-- Node1574&#45;&gt;Node1597 -->
<g id="edge23" class="edge">
<title>Node1574&#45;&gt;Node1597</title>
<path fill="none" stroke="midnightblue" d="M40.7,-599.25C41.13,-552.06 49.12,-432.01 116,-369 120.08,-365.16 124.78,-362.05 129.82,-359.53"/>
<polygon fill="midnightblue" stroke="midnightblue" points="37.2,-599.37 40.72,-609.36 44.2,-599.36 37.2,-599.37"/>
</g>
<!-- Node1598 -->
<g id="node25" class="node">
<title>Node1598</title>
<g id="a_node25"><a xlink:href="class_ogre_1_1_shared_ptr.html" target="_top" xlink:title=" ">
<polygon fill="none" stroke="black" points="132,-291 132,-321 263,-321 263,-291 132,-291"/>
<text text-anchor="start" x="140" y="-309" font-family="Helvetica,sans-Serif" font-size="10.00">Ogre::SharedPtr&lt; Abstract</text>
<text text-anchor="middle" x="197.5" y="-298" font-family="Helvetica,sans-Serif" font-size="10.00">NodeList &gt;</text>
</a>
</g>
</g>
<!-- Node1574&#45;&gt;Node1598 -->
<g id="edge24" class="edge">
<title>Node1574&#45;&gt;Node1598</title>
<path fill="none" stroke="midnightblue" d="M43.66,-599.03C51.83,-540.41 78.37,-370.42 116,-331 120.55,-326.24 125.98,-322.38 131.86,-319.25"/>
<polygon fill="midnightblue" stroke="midnightblue" points="40.15,-598.82 42.27,-609.2 47.09,-599.77 40.15,-598.82"/>
</g>
<!-- Node1599 -->
<g id="node26" class="node">
<title>Node1599</title>
<g id="a_node26"><a xlink:href="class_ogre_1_1_shared_ptr.html" target="_top" xlink:title=" ">
<polygon fill="none" stroke="black" points="116,-252.5 116,-271.5 279,-271.5 279,-252.5 116,-252.5"/>
<text text-anchor="middle" x="197.5" y="-259.5" font-family="Helvetica,sans-Serif" font-size="10.00">Ogre::SharedPtr&lt; ThreadHandle &gt;</text>
</a>
</g>
</g>
<!-- Node1574&#45;&gt;Node1599 -->
<g id="edge25" class="edge">
<title>Node1574&#45;&gt;Node1599</title>
<path fill="none" stroke="midnightblue" d="M42.69,-598.96C48.64,-533.39 70.7,-326.91 116,-281 119.73,-277.22 124.07,-274.13 128.75,-271.62"/>
<polygon fill="midnightblue" stroke="midnightblue" points="39.19,-598.91 41.8,-609.17 46.16,-599.52 39.19,-598.91"/>
</g>
<!-- Node1600 -->
<g id="node27" class="node">
<title>Node1600</title>
<g id="a_node27"><a xlink:href="class_ogre_1_1_shared_ptr.html" target="_top" xlink:title=" ">
<polygon fill="none" stroke="black" points="128.5,-203 128.5,-233 266.5,-233 266.5,-203 128.5,-203"/>
<text text-anchor="start" x="136.5" y="-221" font-family="Helvetica,sans-Serif" font-size="10.00">Ogre::SharedPtr&lt; HighLevel</text>
<text text-anchor="middle" x="197.5" y="-210" font-family="Helvetica,sans-Serif" font-size="10.00">GpuProgram &gt;</text>
</a>
</g>
</g>
<!-- Node1574&#45;&gt;Node1600 -->
<g id="edge26" class="edge">
<title>Node1574&#45;&gt;Node1600</title>
<path fill="none" stroke="midnightblue" d="M42.33,-599.14C47.4,-529.35 67.68,-296.64 116,-243 119.53,-239.09 123.65,-235.78 128.14,-232.98"/>
<polygon fill="midnightblue" stroke="midnightblue" points="38.83,-599 41.62,-609.22 45.82,-599.49 38.83,-599"/>
</g>
<!-- Node1601 -->
<g id="node28" class="node">
<title>Node1601</title>
<g id="a_node28"><a xlink:href="class_ogre_1_1_shared_ptr.html" target="_top" xlink:title=" ">
<polygon fill="none" stroke="black" points="119.5,-164.5 119.5,-183.5 275.5,-183.5 275.5,-164.5 119.5,-164.5"/>
<text text-anchor="middle" x="197.5" y="-171.5" font-family="Helvetica,sans-Serif" font-size="10.00">Ogre::SharedPtr&lt; AsyncTicket &gt;</text>
</a>
</g>
</g>
<!-- Node1574&#45;&gt;Node1601 -->
<g id="edge27" class="edge">
<title>Node1574&#45;&gt;Node1601</title>
<path fill="none" stroke="midnightblue" d="M41.68,-599.37C44.7,-523.82 59.36,-252.99 116,-193 119.55,-189.24 123.69,-186.16 128.19,-183.65"/>
<polygon fill="midnightblue" stroke="midnightblue" points="38.18,-599.29 41.3,-609.41 45.18,-599.55 38.18,-599.29"/>
</g>
<!-- Node1602 -->
<g id="node29" class="node">
<title>Node1602</title>
<g id="a_node29"><a xlink:href="class_ogre_1_1_shared_ptr.html" target="_top" xlink:title=" ">
<polygon fill="none" stroke="black" points="127.5,-126.5 127.5,-145.5 267.5,-145.5 267.5,-126.5 127.5,-126.5"/>
<text text-anchor="middle" x="197.5" y="-133.5" font-family="Helvetica,sans-Serif" font-size="10.00">Ogre::SharedPtr&lt; Skeleton &gt;</text>
</a>
</g>
</g>
<!-- Node1574&#45;&gt;Node1602 -->
<g id="edge28" class="edge">
<title>Node1574&#45;&gt;Node1602</title>
<path fill="none" stroke="midnightblue" d="M41.37,-599.19C43.29,-519.18 54.53,-221.04 116,-155 119.52,-151.22 123.65,-148.12 128.13,-145.6"/>
<polygon fill="midnightblue" stroke="midnightblue" points="37.87,-599.28 41.15,-609.36 44.87,-599.44 37.87,-599.28"/>
</g>
<!-- Node1603 -->
<g id="node30" class="node">
<title>Node1603</title>
<g id="a_node30"><a xlink:href="class_ogre_1_1_shared_ptr.html" target="_top" xlink:title=" ">
<polygon fill="none" stroke="black" points="130.5,-77 130.5,-107 264.5,-107 264.5,-77 130.5,-77"/>
<text text-anchor="start" x="138.5" y="-95" font-family="Helvetica,sans-Serif" font-size="10.00">Ogre::SharedPtr&lt; Animable</text>
<text text-anchor="middle" x="197.5" y="-84" font-family="Helvetica,sans-Serif" font-size="10.00">Value &gt;</text>
</a>
</g>
</g>
<!-- Node1574&#45;&gt;Node1603 -->
<g id="edge29" class="edge">
<title>Node1574&#45;&gt;Node1603</title>
<path fill="none" stroke="midnightblue" d="M41.24,-599.32C42.64,-515.78 52.16,-191.42 116,-117 120,-112.33 124.86,-108.53 130.18,-105.42"/>
<polygon fill="midnightblue" stroke="midnightblue" points="37.74,-599.41 41.09,-609.46 44.73,-599.51 37.74,-599.41"/>
</g>
<!-- Node1604 -->
<g id="node31" class="node">
<title>Node1604</title>
<g id="a_node31"><a xlink:href="class_ogre_1_1_shared_ptr.html" target="_top" xlink:title=" ">
<polygon fill="none" stroke="black" points="136.5,-38.5 136.5,-57.5 258.5,-57.5 258.5,-38.5 136.5,-38.5"/>
<text text-anchor="middle" x="197.5" y="-45.5" font-family="Helvetica,sans-Serif" font-size="10.00">Ogre::SharedPtr&lt; Font &gt;</text>
</a>
</g>
</g>
<!-- Node1574&#45;&gt;Node1604 -->
<g id="edge30" class="edge">
<title>Node1574&#45;&gt;Node1604</title>
<path fill="none" stroke="midnightblue" d="M40.81,-599.25C40.37,-510.24 43.14,-147.27 116,-67 121.5,-60.94 128.54,-56.64 136.17,-53.61"/>
<polygon fill="midnightblue" stroke="midnightblue" points="37.31,-599.35 40.88,-609.33 44.31,-599.3 37.31,-599.35"/>
</g>
<!-- Node1605 -->
<g id="node32" class="node">
<title>Node1605</title>
<g id="a_node32"><a xlink:href="class_ogre_1_1_shared_ptr.html" target="_top" xlink:title=" ">
<polygon fill="none" stroke="black" points="143.5,-0.5 143.5,-19.5 251.5,-19.5 251.5,-0.5 143.5,-0.5"/>
<text text-anchor="middle" x="197.5" y="-7.5" font-family="Helvetica,sans-Serif" font-size="10.00">Ogre::SharedPtr&lt; T &gt;</text>
</a>
</g>
</g>
<!-- Node1574&#45;&gt;Node1605 -->
<g id="edge31" class="edge">
<title>Node1574&#45;&gt;Node1605</title>
<path fill="none" stroke="midnightblue" d="M40.62,-599.08C39.25,-506.06 38.26,-115.39 116,-29 123.2,-20.99 133.1,-16.05 143.48,-13.06"/>
<polygon fill="midnightblue" stroke="midnightblue" points="37.12,-599.18 40.78,-609.12 44.12,-599.06 37.12,-599.18"/>
</g>
<!-- Node1 -->
<g id="node3" class="node">
<title>Node1</title>
<g id="a_node3"><a xlink:href="class_ogre_1_1v1_1_1_hardware_index_buffer_shared_ptr.html" target="_top" xlink:title="Shared pointer implementation used to share index buffers.">
<polygon fill="none" stroke="black" points="315,-1250 315,-1280 463,-1280 463,-1250 315,-1250"/>
<text text-anchor="start" x="323" y="-1268" font-family="Helvetica,sans-Serif" font-size="10.00">Ogre::v1::HardwareIndexBuffer</text>
<text text-anchor="middle" x="389" y="-1257" font-family="Helvetica,sans-Serif" font-size="10.00">SharedPtr</text>
</a>
</g>
</g>
<!-- Node0&#45;&gt;Node1 -->
<g id="edge2" class="edge">
<title>Node0&#45;&gt;Node1</title>
<path fill="none" stroke="midnightblue" d="M275.82,-1265C288.73,-1265 302.09,-1265 314.89,-1265"/>
<polygon fill="midnightblue" stroke="midnightblue" points="275.58,-1261.5 265.58,-1265 275.58,-1268.5 275.58,-1261.5"/>
</g>
<!-- Node1578 -->
<g id="node5" class="node">
<title>Node1578</title>
<g id="a_node5"><a xlink:href="class_ogre_1_1v1_1_1_hardware_vertex_buffer_shared_ptr.html" target="_top" xlink:title="Shared pointer implementation used to share vertex buffers.">
<polygon fill="none" stroke="black" points="325.5,-1201 325.5,-1231 452.5,-1231 452.5,-1201 325.5,-1201"/>
<text text-anchor="start" x="333.5" y="-1219" font-family="Helvetica,sans-Serif" font-size="10.00">Ogre::v1::HardwareVertex</text>
<text text-anchor="middle" x="389" y="-1208" font-family="Helvetica,sans-Serif" font-size="10.00">BufferSharedPtr</text>
</a>
</g>
</g>
<!-- Node1577&#45;&gt;Node1578 -->
<g id="edge4" class="edge">
<title>Node1577&#45;&gt;Node1578</title>
<path fill="none" stroke="midnightblue" d="M275.76,-1216C292.29,-1216 309.56,-1216 325.45,-1216"/>
<polygon fill="midnightblue" stroke="midnightblue" points="275.58,-1212.5 265.58,-1216 275.58,-1219.5 275.58,-1212.5"/>
</g>
</g>
</svg>
