<?xml version="1.0" encoding="UTF-8" standalone="no"?>
<!DOCTYPE svg PUBLIC "-//W3C//DTD SVG 1.1//EN"
 "http://www.w3.org/Graphics/SVG/1.1/DTD/svg11.dtd">
<!-- Generated by graphviz version 2.43.0 (0)
 -->
<!-- Title: Graphical Class Hierarchy Pages: 1 -->
<svg width="500pt" height="66pt"
 viewBox="0.00 0.00 500.00 66.00" xmlns="http://www.w3.org/2000/svg" xmlns:xlink="http://www.w3.org/1999/xlink">
<g id="graph0" class="graph" transform="scale(1 1) rotate(0) translate(4 62)">
<title>Graphical Class Hierarchy</title>
<!-- Node1817 -->
<g id="node1" class="node">
<title>Node1817</title>
<g id="a_node1"><a xlink:title=" ">
<polygon fill="none" stroke="#bfbfbf" points="0,-19.5 0,-38.5 165,-38.5 165,-19.5 0,-19.5"/>
<text text-anchor="middle" x="82.5" y="-26.5" font-family="Helvetica,sans-Serif" font-size="10.00">Texture MANAGED_RESOURCE</text>
</a>
</g>
</g>
<!-- Node0 -->
<g id="node2" class="node">
<title>Node0</title>
<g id="a_node2"><a xlink:href="class_ogre_1_1_g_l_e_s2_texture.html" target="_top" xlink:title=" ">
<polygon fill="none" stroke="black" points="201,-19.5 201,-38.5 314,-38.5 314,-19.5 201,-19.5"/>
<text text-anchor="middle" x="257.5" y="-26.5" font-family="Helvetica,sans-Serif" font-size="10.00">Ogre::GLES2Texture</text>
</a>
</g>
</g>
<!-- Node1817&#45;&gt;Node0 -->
<g id="edge1" class="edge">
<title>Node1817&#45;&gt;Node0</title>
<path fill="none" stroke="midnightblue" d="M175.38,-29C184.06,-29 192.66,-29 200.84,-29"/>
<polygon fill="midnightblue" stroke="midnightblue" points="175.19,-25.5 165.19,-29 175.19,-32.5 175.19,-25.5"/>
</g>
<!-- Node1 -->
<g id="node3" class="node">
<title>Node1</title>
<g id="a_node3"><a xlink:href="class_ogre_1_1_g_l_e_s2_depth_texture.html" target="_top" xlink:title=" ">
<polygon fill="none" stroke="black" points="350,-38.5 350,-57.5 492,-57.5 492,-38.5 350,-38.5"/>
<text text-anchor="middle" x="421" y="-45.5" font-family="Helvetica,sans-Serif" font-size="10.00">Ogre::GLES2DepthTexture</text>
</a>
</g>
</g>
<!-- Node0&#45;&gt;Node1 -->
<g id="edge2" class="edge">
<title>Node0&#45;&gt;Node1</title>
<path fill="none" stroke="midnightblue" d="M324.21,-36.73C332.63,-37.72 341.28,-38.74 349.77,-39.74"/>
<polygon fill="midnightblue" stroke="midnightblue" points="324.42,-33.23 314.08,-35.54 323.6,-40.18 324.42,-33.23"/>
</g>
<!-- Node2 -->
<g id="node4" class="node">
<title>Node2</title>
<g id="a_node4"><a xlink:href="class_ogre_1_1_g_l_e_s2_null_texture.html" target="_top" xlink:title=" ">
<polygon fill="none" stroke="black" points="355,-0.5 355,-19.5 487,-19.5 487,-0.5 355,-0.5"/>
<text text-anchor="middle" x="421" y="-7.5" font-family="Helvetica,sans-Serif" font-size="10.00">Ogre::GLES2NullTexture</text>
</a>
</g>
</g>
<!-- Node0&#45;&gt;Node2 -->
<g id="edge3" class="edge">
<title>Node0&#45;&gt;Node2</title>
<path fill="none" stroke="midnightblue" d="M324.09,-21.28C334.24,-20.09 344.72,-18.86 354.86,-17.66"/>
<polygon fill="midnightblue" stroke="midnightblue" points="323.6,-17.82 314.08,-22.46 324.42,-24.77 323.6,-17.82"/>
</g>
</g>
</svg>
