<?xml version="1.0" encoding="UTF-8" standalone="no"?>
<!DOCTYPE svg PUBLIC "-//W3C//DTD SVG 1.1//EN"
 "http://www.w3.org/Graphics/SVG/1.1/DTD/svg11.dtd">
<!-- Generated by graphviz version 2.43.0 (0)
 -->
<!-- Title: Graphical Class Hierarchy Pages: 1 -->
<svg width="410pt" height="274pt"
 viewBox="0.00 0.00 410.00 274.00" xmlns="http://www.w3.org/2000/svg" xmlns:xlink="http://www.w3.org/1999/xlink">
<g id="graph0" class="graph" transform="scale(1 1) rotate(0) translate(4 270)">
<title>Graphical Class Hierarchy</title>
<!-- Node0 -->
<g id="node1" class="node">
<title>Node0</title>
<g id="a_node1"><a xlink:href="class_ogre_1_1_pixel_format_to_shader_type.html" target="_top" xlink:title=" ">
<polygon fill="none" stroke="black" points="0,-118 0,-137 170,-137 170,-118 0,-118"/>
<text text-anchor="middle" x="85" y="-125" font-family="Helvetica,sans-Serif" font-size="10.00">Ogre::PixelFormatToShaderType</text>
</a>
</g>
</g>
<!-- Node1 -->
<g id="node2" class="node">
<title>Node1</title>
<g id="a_node2"><a xlink:href="class_ogre_1_1_d3_d11_pixel_format_to_shader_type.html" target="_top" xlink:title=" ">
<polygon fill="none" stroke="black" points="230.5,-235.5 230.5,-265.5 377.5,-265.5 377.5,-235.5 230.5,-235.5"/>
<text text-anchor="start" x="238.5" y="-253.5" font-family="Helvetica,sans-Serif" font-size="10.00">Ogre::D3D11PixelFormatTo</text>
<text text-anchor="middle" x="304" y="-242.5" font-family="Helvetica,sans-Serif" font-size="10.00">ShaderType</text>
</a>
</g>
</g>
<!-- Node0&#45;&gt;Node1 -->
<g id="edge1" class="edge">
<title>Node0&#45;&gt;Node1</title>
<path fill="none" stroke="midnightblue" d="M101.59,-144.41C123,-166.59 163.67,-205.2 206,-226.5 213.67,-230.36 222,-233.62 230.45,-236.38"/>
<polygon fill="midnightblue" stroke="midnightblue" points="104.03,-141.89 94.61,-137.04 98.95,-146.71 104.03,-141.89"/>
</g>
<!-- Node2 -->
<g id="node3" class="node">
<title>Node2</title>
<g id="a_node3"><a xlink:href="class_ogre_1_1_g_l3_plus_pixel_format_to_shader_type.html" target="_top" xlink:title=" ">
<polygon fill="none" stroke="black" points="232.5,-186.5 232.5,-216.5 375.5,-216.5 375.5,-186.5 232.5,-186.5"/>
<text text-anchor="start" x="240.5" y="-204.5" font-family="Helvetica,sans-Serif" font-size="10.00">Ogre::GL3PlusPixelFormat</text>
<text text-anchor="middle" x="304" y="-193.5" font-family="Helvetica,sans-Serif" font-size="10.00">ToShaderType</text>
</a>
</g>
</g>
<!-- Node0&#45;&gt;Node2 -->
<g id="edge2" class="edge">
<title>Node0&#45;&gt;Node2</title>
<path fill="none" stroke="midnightblue" d="M115.71,-141.37C139.71,-152.21 174.54,-167.12 206,-177.5 215.72,-180.71 226.11,-183.71 236.35,-186.43"/>
<polygon fill="midnightblue" stroke="midnightblue" points="117,-138.11 106.45,-137.15 114.09,-144.48 117,-138.11"/>
</g>
<!-- Node3 -->
<g id="node4" class="node">
<title>Node3</title>
<g id="a_node4"><a xlink:href="class_ogre_1_1_g_l_e_s2_pixel_format_to_shader_type.html" target="_top" xlink:title=" ">
<polygon fill="none" stroke="black" points="231.5,-137.5 231.5,-167.5 376.5,-167.5 376.5,-137.5 231.5,-137.5"/>
<text text-anchor="start" x="239.5" y="-155.5" font-family="Helvetica,sans-Serif" font-size="10.00">Ogre::GLES2PixelFormatTo</text>
<text text-anchor="middle" x="304" y="-144.5" font-family="Helvetica,sans-Serif" font-size="10.00">ShaderType</text>
</a>
</g>
</g>
<!-- Node0&#45;&gt;Node3 -->
<g id="edge3" class="edge">
<title>Node0&#45;&gt;Node3</title>
<path fill="none" stroke="midnightblue" d="M178.89,-138.2C196.4,-140.22 214.47,-142.3 231.21,-144.23"/>
<polygon fill="midnightblue" stroke="midnightblue" points="178.99,-134.69 168.66,-137.02 178.19,-141.64 178.99,-134.69"/>
</g>
<!-- Node4 -->
<g id="node5" class="node">
<title>Node4</title>
<g id="a_node5"><a xlink:href="class_ogre_1_1_metal_pixel_format_to_shader_type.html" target="_top" xlink:title=" ">
<polygon fill="none" stroke="black" points="233,-88.5 233,-118.5 375,-118.5 375,-88.5 233,-88.5"/>
<text text-anchor="start" x="241" y="-106.5" font-family="Helvetica,sans-Serif" font-size="10.00">Ogre::MetalPixelFormatTo</text>
<text text-anchor="middle" x="304" y="-95.5" font-family="Helvetica,sans-Serif" font-size="10.00">ShaderType</text>
</a>
</g>
</g>
<!-- Node0&#45;&gt;Node4 -->
<g id="edge4" class="edge">
<title>Node0&#45;&gt;Node4</title>
<path fill="none" stroke="midnightblue" d="M180.5,-117.05C198.1,-115.1 216.19,-113.1 232.9,-111.25"/>
<polygon fill="midnightblue" stroke="midnightblue" points="179.76,-113.61 170.21,-118.19 180.53,-120.57 179.76,-113.61"/>
</g>
<!-- Node5 -->
<g id="node6" class="node">
<title>Node5</title>
<g id="a_node6"><a xlink:href="class_ogre_1_1_n_u_l_l_pixel_format_to_shader_type.html" target="_top" xlink:title=" ">
<polygon fill="none" stroke="black" points="206,-50 206,-69 402,-69 402,-50 206,-50"/>
<text text-anchor="middle" x="304" y="-57" font-family="Helvetica,sans-Serif" font-size="10.00">Ogre::NULLPixelFormatToShaderType</text>
</a>
</g>
</g>
<!-- Node0&#45;&gt;Node5 -->
<g id="edge5" class="edge">
<title>Node0&#45;&gt;Node5</title>
<path fill="none" stroke="midnightblue" d="M116.1,-113.73C140.06,-103.19 174.65,-88.92 206,-79.5 219.5,-75.44 234.31,-71.93 248.2,-69.03"/>
<polygon fill="midnightblue" stroke="midnightblue" points="114.55,-110.59 106.84,-117.85 117.4,-116.98 114.55,-110.59"/>
</g>
<!-- Node6 -->
<g id="node7" class="node">
<title>Node6</title>
<g id="a_node7"><a xlink:href="class_ogre_1_1_vulkan_pixel_format_to_shader_type.html" target="_top" xlink:title=" ">
<polygon fill="none" stroke="black" points="231,-0.5 231,-30.5 377,-30.5 377,-0.5 231,-0.5"/>
<text text-anchor="start" x="239" y="-18.5" font-family="Helvetica,sans-Serif" font-size="10.00">Ogre::VulkanPixelFormatTo</text>
<text text-anchor="middle" x="304" y="-7.5" font-family="Helvetica,sans-Serif" font-size="10.00">ShaderType</text>
</a>
</g>
</g>
<!-- Node0&#45;&gt;Node6 -->
<g id="edge6" class="edge">
<title>Node0&#45;&gt;Node6</title>
<path fill="none" stroke="midnightblue" d="M104.03,-111.03C126.37,-91.47 166.36,-59.15 206,-40.5 214.1,-36.69 222.87,-33.4 231.71,-30.57"/>
<polygon fill="midnightblue" stroke="midnightblue" points="101.51,-108.59 96.37,-117.85 106.17,-113.82 101.51,-108.59"/>
</g>
</g>
</svg>
