<?xml version="1.0" encoding="UTF-8" standalone="no"?>
<!DOCTYPE svg PUBLIC "-//W3C//DTD SVG 1.1//EN"
 "http://www.w3.org/Graphics/SVG/1.1/DTD/svg11.dtd">
<!-- Generated by graphviz version 7.0.5 (20221223.1930)
 -->
<!-- Title: Graphical Class Hierarchy Pages: 1 -->
<svg width="345pt" height="422pt"
 viewBox="0.00 0.00 345.00 422.00" xmlns="http://www.w3.org/2000/svg" xmlns:xlink="http://www.w3.org/1999/xlink">
<g id="graph0" class="graph" transform="scale(1 1) rotate(0) translate(4 418)">
<title>Graphical Class Hierarchy</title>
<!-- Node0 -->
<g id="node1" class="node">
<title>Node0</title>
<g id="a_node1"><a xlink:href="class_ogre_1_1_script_compiler_event.html" target="_top" xlink:title="This struct is a base class for events which can be thrown by the compilers and caught by subscribers...">
<polygon fill="white" stroke="#666666" points="131,-216.5 0,-216.5 0,-197.5 131,-197.5 131,-216.5"/>
<text text-anchor="middle" x="65.5" y="-204.5" font-family="Helvetica,sans-Serif" font-size="10.00">Ogre::ScriptCompilerEvent</text>
</a>
</g>
</g>
<!-- Node1 -->
<g id="node2" class="node">
<title>Node1</title>
<g id="a_node2"><a xlink:href="class_ogre_1_1_create_compositor_script_compiler_event.html" target="_top" xlink:title=" ">
<polygon fill="white" stroke="#666666" points="325,-414 179,-414 179,-384 325,-384 325,-414"/>
<text text-anchor="start" x="187" y="-402" font-family="Helvetica,sans-Serif" font-size="10.00">Ogre::CreateCompositorScript</text>
<text text-anchor="middle" x="252" y="-391" font-family="Helvetica,sans-Serif" font-size="10.00">CompilerEvent</text>
</a>
</g>
</g>
<!-- Node0&#45;&gt;Node1 -->
<g id="edge1" class="edge">
<title>Node0&#45;&gt;Node1</title>
<path fill="none" stroke="#63b8ff" d="M73.13,-227.6C85.64,-263.14 116.13,-335.92 167,-375 171.33,-378.33 176.1,-381.19 181.11,-383.66"/>
<polygon fill="#63b8ff" stroke="#63b8ff" points="76.45,-226.49 69.94,-218.13 69.82,-228.73 76.45,-226.49"/>
</g>
<!-- Node2 -->
<g id="node3" class="node">
<title>Node2</title>
<g id="a_node3"><a xlink:href="class_ogre_1_1_create_gpu_program_script_compiler_event.html" target="_top" xlink:title=" ">
<polygon fill="white" stroke="#666666" points="327.5,-366 176.5,-366 176.5,-336 327.5,-336 327.5,-366"/>
<text text-anchor="start" x="184.5" y="-354" font-family="Helvetica,sans-Serif" font-size="10.00">Ogre::CreateGpuProgramScript</text>
<text text-anchor="middle" x="252" y="-343" font-family="Helvetica,sans-Serif" font-size="10.00">CompilerEvent</text>
</a>
</g>
</g>
<!-- Node0&#45;&gt;Node2 -->
<g id="edge2" class="edge">
<title>Node0&#45;&gt;Node2</title>
<path fill="none" stroke="#63b8ff" d="M77.63,-226.5C93.86,-253.18 126.54,-300.72 167,-327 172.09,-330.3 177.64,-333.16 183.38,-335.63"/>
<polygon fill="#63b8ff" stroke="#63b8ff" points="80.75,-224.91 72.65,-218.08 74.73,-228.47 80.75,-224.91"/>
</g>
<!-- Node3 -->
<g id="node4" class="node">
<title>Node3</title>
<g id="a_node4"><a xlink:href="class_ogre_1_1_create_gpu_shared_parameters_script_compiler_event.html" target="_top" xlink:title=" ">
<polygon fill="white" stroke="#666666" points="337,-318 167,-318 167,-288 337,-288 337,-318"/>
<text text-anchor="start" x="175" y="-306" font-family="Helvetica,sans-Serif" font-size="10.00">Ogre::CreateGpuSharedParameters</text>
<text text-anchor="middle" x="252" y="-295" font-family="Helvetica,sans-Serif" font-size="10.00">ScriptCompilerEvent</text>
</a>
</g>
</g>
<!-- Node0&#45;&gt;Node3 -->
<g id="edge3" class="edge">
<title>Node0&#45;&gt;Node3</title>
<path fill="none" stroke="#63b8ff" d="M86.2,-224.27C105.57,-240.46 136.58,-264.31 167,-279 173.69,-282.23 180.9,-285.11 188.18,-287.64"/>
<polygon fill="#63b8ff" stroke="#63b8ff" points="88.47,-221.61 78.59,-217.79 83.93,-226.94 88.47,-221.61"/>
</g>
<!-- Node4 -->
<g id="node5" class="node">
<title>Node4</title>
<g id="a_node5"><a xlink:href="class_ogre_1_1_create_high_level_gpu_program_script_compiler_event.html" target="_top" xlink:title=" ">
<polygon fill="white" stroke="#666666" points="323,-270 181,-270 181,-240 323,-240 323,-270"/>
<text text-anchor="start" x="189" y="-258" font-family="Helvetica,sans-Serif" font-size="10.00">Ogre::CreateHighLevelGpu</text>
<text text-anchor="middle" x="252" y="-247" font-family="Helvetica,sans-Serif" font-size="10.00">ProgramScriptCompilerEvent</text>
</a>
</g>
</g>
<!-- Node0&#45;&gt;Node4 -->
<g id="edge4" class="edge">
<title>Node0&#45;&gt;Node4</title>
<path fill="none" stroke="#63b8ff" d="M115.78,-219.82C139.14,-225.9 167.23,-233.21 191.75,-239.58"/>
<polygon fill="#63b8ff" stroke="#63b8ff" points="116.75,-216.46 106.19,-217.33 114.99,-223.23 116.75,-216.46"/>
</g>
<!-- Node5 -->
<g id="node6" class="node">
<title>Node5</title>
<g id="a_node6"><a xlink:href="class_ogre_1_1_create_material_script_compiler_event.html" target="_top" xlink:title=" ">
<polygon fill="white" stroke="#666666" points="317.5,-222 186.5,-222 186.5,-192 317.5,-192 317.5,-222"/>
<text text-anchor="start" x="194.5" y="-210" font-family="Helvetica,sans-Serif" font-size="10.00">Ogre::CreateMaterialScript</text>
<text text-anchor="middle" x="252" y="-199" font-family="Helvetica,sans-Serif" font-size="10.00">CompilerEvent</text>
</a>
</g>
</g>
<!-- Node0&#45;&gt;Node5 -->
<g id="edge5" class="edge">
<title>Node0&#45;&gt;Node5</title>
<path fill="none" stroke="#63b8ff" d="M142.7,-207C157.1,-207 172.04,-207 186.06,-207"/>
<polygon fill="#63b8ff" stroke="#63b8ff" points="142.8,-203.5 132.8,-207 142.8,-210.5 142.8,-203.5"/>
</g>
<!-- Node6 -->
<g id="node7" class="node">
<title>Node6</title>
<g id="a_node7"><a xlink:href="class_ogre_1_1_create_particle_system_script_compiler_event.html" target="_top" xlink:title=" ">
<polygon fill="white" stroke="#666666" points="320.5,-174 183.5,-174 183.5,-144 320.5,-144 320.5,-174"/>
<text text-anchor="start" x="191.5" y="-162" font-family="Helvetica,sans-Serif" font-size="10.00">Ogre::CreateParticleSystem</text>
<text text-anchor="middle" x="252" y="-151" font-family="Helvetica,sans-Serif" font-size="10.00">ScriptCompilerEvent</text>
</a>
</g>
</g>
<!-- Node0&#45;&gt;Node6 -->
<g id="edge6" class="edge">
<title>Node0&#45;&gt;Node6</title>
<path fill="none" stroke="#63b8ff" d="M115.78,-194.18C139.14,-188.1 167.23,-180.79 191.75,-174.42"/>
<polygon fill="#63b8ff" stroke="#63b8ff" points="114.99,-190.77 106.19,-196.67 116.75,-197.54 114.99,-190.77"/>
</g>
<!-- Node7 -->
<g id="node8" class="node">
<title>Node7</title>
<g id="a_node8"><a xlink:href="class_ogre_1_1_pre_apply_texture_aliases_script_compiler_event.html" target="_top" xlink:title=" ">
<polygon fill="white" stroke="#666666" points="325,-126 179,-126 179,-96 325,-96 325,-126"/>
<text text-anchor="start" x="187" y="-114" font-family="Helvetica,sans-Serif" font-size="10.00">Ogre::PreApplyTextureAliases</text>
<text text-anchor="middle" x="252" y="-103" font-family="Helvetica,sans-Serif" font-size="10.00">ScriptCompilerEvent</text>
</a>
</g>
</g>
<!-- Node0&#45;&gt;Node7 -->
<g id="edge7" class="edge">
<title>Node0&#45;&gt;Node7</title>
<path fill="none" stroke="#63b8ff" d="M86.2,-189.73C105.57,-173.54 136.58,-149.69 167,-135 173.69,-131.77 180.9,-128.89 188.18,-126.36"/>
<polygon fill="#63b8ff" stroke="#63b8ff" points="83.93,-187.06 78.59,-196.21 88.47,-192.39 83.93,-187.06"/>
</g>
<!-- Node8 -->
<g id="node9" class="node">
<title>Node8</title>
<g id="a_node9"><a xlink:href="class_ogre_1_1_process_name_exclusion_script_compiler_event.html" target="_top" xlink:title=" ">
<polygon fill="white" stroke="#666666" points="325,-78 179,-78 179,-48 325,-48 325,-78"/>
<text text-anchor="start" x="187" y="-66" font-family="Helvetica,sans-Serif" font-size="10.00">Ogre::ProcessNameExclusion</text>
<text text-anchor="middle" x="252" y="-55" font-family="Helvetica,sans-Serif" font-size="10.00">ScriptCompilerEvent</text>
</a>
</g>
</g>
<!-- Node0&#45;&gt;Node8 -->
<g id="edge8" class="edge">
<title>Node0&#45;&gt;Node8</title>
<path fill="none" stroke="#63b8ff" d="M77.63,-187.5C93.86,-160.82 126.54,-113.28 167,-87 172.09,-83.7 177.64,-80.84 183.38,-78.37"/>
<polygon fill="#63b8ff" stroke="#63b8ff" points="74.73,-185.53 72.65,-195.92 80.75,-189.09 74.73,-185.53"/>
</g>
<!-- Node9 -->
<g id="node10" class="node">
<title>Node9</title>
<g id="a_node10"><a xlink:href="class_ogre_1_1_process_resource_name_script_compiler_event.html" target="_top" xlink:title=" ">
<polygon fill="white" stroke="#666666" points="325,-30 179,-30 179,0 325,0 325,-30"/>
<text text-anchor="start" x="187" y="-18" font-family="Helvetica,sans-Serif" font-size="10.00">Ogre::ProcessResourceName</text>
<text text-anchor="middle" x="252" y="-7" font-family="Helvetica,sans-Serif" font-size="10.00">ScriptCompilerEvent</text>
</a>
</g>
</g>
<!-- Node0&#45;&gt;Node9 -->
<g id="edge9" class="edge">
<title>Node0&#45;&gt;Node9</title>
<path fill="none" stroke="#63b8ff" d="M73.13,-186.4C85.64,-150.86 116.13,-78.08 167,-39 171.33,-35.67 176.1,-32.81 181.11,-30.34"/>
<polygon fill="#63b8ff" stroke="#63b8ff" points="69.82,-185.27 69.94,-195.87 76.45,-187.51 69.82,-185.27"/>
</g>
</g>
</svg>
