<?xml version="1.0" encoding="UTF-8" standalone="no"?>
<!DOCTYPE svg PUBLIC "-//W3C//DTD SVG 1.1//EN"
 "http://www.w3.org/Graphics/SVG/1.1/DTD/svg11.dtd">
<!-- Generated by graphviz version 2.43.0 (0)
 -->
<!-- Title: Graphical Class Hierarchy Pages: 1 -->
<svg width="556pt" height="182pt"
 viewBox="0.00 0.00 556.00 182.00" xmlns="http://www.w3.org/2000/svg" xmlns:xlink="http://www.w3.org/1999/xlink">
<g id="graph0" class="graph" transform="scale(1 1) rotate(0) translate(4 178)">
<title>Graphical Class Hierarchy</title>
<!-- Node0 -->
<g id="Node000000" class="node">
<title>Node0</title>
<g id="a_Node000000"><a xlink:href="class_ogre_1_1_iterator_wrapper.html" target="_top" xlink:title="Basefunctionality for IteratorWrappers.">
<polygon fill="white" stroke="#666666" points="153,-102 0,-102 0,-72 153,-72 153,-102"/>
<text text-anchor="start" x="8" y="-90" font-family="Helvetica,sans-Serif" font-size="10.00">Ogre::IteratorWrapper</text>
<text text-anchor="middle" x="76.5" y="-79" font-family="Helvetica,sans-Serif" font-size="10.00">&lt; T, IteratorType, ValType &gt;</text>
</a>
</g>
</g>
<!-- Node1 -->
<g id="Node000001" class="node">
<title>Node1</title>
<g id="a_Node000001"><a xlink:href="class_ogre_1_1_map_iterator_wrapper.html" target="_top" xlink:title=" ">
<polygon fill="white" stroke="#666666" points="338,-174 194,-174 194,-144 338,-144 338,-174"/>
<text text-anchor="start" x="202" y="-162" font-family="Helvetica,sans-Serif" font-size="10.00">Ogre::MapIteratorWrapper</text>
<text text-anchor="middle" x="266" y="-151" font-family="Helvetica,sans-Serif" font-size="10.00">&lt; T, T::const_iterator &gt;</text>
</a>
</g>
</g>
<!-- Node0&#45;&gt;Node1 -->
<g id="edge895_Node000000_Node000001" class="edge">
<title>Node0&#45;&gt;Node1</title>
<g id="a_edge895_Node000000_Node000001"><a xlink:title=" ">
<path fill="none" stroke="#63b8ff" d="M119.48,-106.26C140.21,-115.46 165.7,-126.33 189,-135 197.3,-138.09 206.2,-141.13 214.88,-143.96"/>
<polygon fill="#63b8ff" stroke="#63b8ff" points="120.88,-103.05 110.32,-102.16 118.02,-109.44 120.88,-103.05"/>
</a>
</g>
</g>
<!-- Node3 -->
<g id="Node000003" class="node">
<title>Node3</title>
<g id="a_Node000003"><a xlink:href="class_ogre_1_1_map_iterator_wrapper.html" target="_top" xlink:title=" ">
<polygon fill="white" stroke="#666666" points="338,-126 194,-126 194,-96 338,-96 338,-126"/>
<text text-anchor="start" x="202" y="-114" font-family="Helvetica,sans-Serif" font-size="10.00">Ogre::MapIteratorWrapper</text>
<text text-anchor="middle" x="266" y="-103" font-family="Helvetica,sans-Serif" font-size="10.00">&lt; T, T::iterator &gt;</text>
</a>
</g>
</g>
<!-- Node0&#45;&gt;Node3 -->
<g id="edge897_Node000000_Node000003" class="edge">
<title>Node0&#45;&gt;Node3</title>
<g id="a_edge897_Node000000_Node000003"><a xlink:title=" ">
<path fill="none" stroke="#63b8ff" d="M163.36,-97.99C173.56,-99.3 183.89,-100.62 193.85,-101.89"/>
<polygon fill="#63b8ff" stroke="#63b8ff" points="163.59,-94.49 153.22,-96.69 162.7,-101.43 163.59,-94.49"/>
</a>
</g>
</g>
<!-- Node5 -->
<g id="Node000005" class="node">
<title>Node5</title>
<g id="a_Node000005"><a xlink:href="class_ogre_1_1_vector_iterator_wrapper.html" target="_top" xlink:title=" ">
<polygon fill="white" stroke="#666666" points="343,-78 189,-78 189,-48 343,-48 343,-78"/>
<text text-anchor="start" x="197" y="-66" font-family="Helvetica,sans-Serif" font-size="10.00">Ogre::VectorIteratorWrapper</text>
<text text-anchor="middle" x="266" y="-55" font-family="Helvetica,sans-Serif" font-size="10.00">&lt; T, T::const_iterator &gt;</text>
</a>
</g>
</g>
<!-- Node0&#45;&gt;Node5 -->
<g id="edge899_Node000000_Node000005" class="edge">
<title>Node0&#45;&gt;Node5</title>
<g id="a_edge899_Node000000_Node000005"><a xlink:title=" ">
<path fill="none" stroke="#63b8ff" d="M163.25,-76.02C171.84,-74.92 180.52,-73.81 188.99,-72.73"/>
<polygon fill="#63b8ff" stroke="#63b8ff" points="162.7,-72.57 153.22,-77.31 163.59,-79.51 162.7,-72.57"/>
</a>
</g>
</g>
<!-- Node7 -->
<g id="Node000007" class="node">
<title>Node7</title>
<g id="a_Node000007"><a xlink:href="class_ogre_1_1_vector_iterator_wrapper.html" target="_top" xlink:title=" ">
<polygon fill="white" stroke="#666666" points="343,-30 189,-30 189,0 343,0 343,-30"/>
<text text-anchor="start" x="197" y="-18" font-family="Helvetica,sans-Serif" font-size="10.00">Ogre::VectorIteratorWrapper</text>
<text text-anchor="middle" x="266" y="-7" font-family="Helvetica,sans-Serif" font-size="10.00">&lt; T, T::iterator &gt;</text>
</a>
</g>
</g>
<!-- Node0&#45;&gt;Node7 -->
<g id="edge901_Node000000_Node000007" class="edge">
<title>Node0&#45;&gt;Node7</title>
<g id="a_edge901_Node000000_Node000007"><a xlink:title=" ">
<path fill="none" stroke="#63b8ff" d="M119.48,-67.74C140.21,-58.54 165.7,-47.67 189,-39 197.3,-35.91 206.2,-32.87 214.88,-30.04"/>
<polygon fill="#63b8ff" stroke="#63b8ff" points="118.02,-64.56 110.32,-71.84 120.88,-70.95 118.02,-64.56"/>
</a>
</g>
</g>
<!-- Node2 -->
<g id="Node000002" class="node">
<title>Node2</title>
<g id="a_Node000002"><a xlink:href="class_ogre_1_1_const_map_iterator.html" target="_top" xlink:title="Concrete IteratorWrapper for const access to the underlying key&#45;value container.">
<polygon fill="white" stroke="#666666" points="543,-168.5 384,-168.5 384,-149.5 543,-149.5 543,-168.5"/>
<text text-anchor="middle" x="463.5" y="-156.5" font-family="Helvetica,sans-Serif" font-size="10.00">Ogre::ConstMapIterator&lt; T &gt;</text>
</a>
</g>
</g>
<!-- Node1&#45;&gt;Node2 -->
<g id="edge896_Node000001_Node000002" class="edge">
<title>Node1&#45;&gt;Node2</title>
<g id="a_edge896_Node000001_Node000002"><a xlink:title=" ">
<path fill="none" stroke="#63b8ff" d="M348.34,-159C360.08,-159 372.14,-159 383.82,-159"/>
<polygon fill="#63b8ff" stroke="#63b8ff" points="348.13,-155.5 338.13,-159 348.13,-162.5 348.13,-155.5"/>
</a>
</g>
</g>
<!-- Node4 -->
<g id="Node000004" class="node">
<title>Node4</title>
<g id="a_Node000004"><a xlink:href="class_ogre_1_1_map_iterator.html" target="_top" xlink:title="Concrete IteratorWrapper for nonconst access to the underlying key&#45;value container.">
<polygon fill="white" stroke="#666666" points="529,-120.5 398,-120.5 398,-101.5 529,-101.5 529,-120.5"/>
<text text-anchor="middle" x="463.5" y="-108.5" font-family="Helvetica,sans-Serif" font-size="10.00">Ogre::MapIterator&lt; T &gt;</text>
</a>
</g>
</g>
<!-- Node3&#45;&gt;Node4 -->
<g id="edge898_Node000003_Node000004" class="edge">
<title>Node3&#45;&gt;Node4</title>
<g id="a_edge898_Node000003_Node000004"><a xlink:title=" ">
<path fill="none" stroke="#63b8ff" d="M348.33,-111C364.86,-111 382.05,-111 397.91,-111"/>
<polygon fill="#63b8ff" stroke="#63b8ff" points="348.13,-107.5 338.13,-111 348.13,-114.5 348.13,-107.5"/>
</a>
</g>
</g>
<!-- Node6 -->
<g id="Node000006" class="node">
<title>Node6</title>
<g id="a_Node000006"><a xlink:href="class_ogre_1_1_const_vector_iterator.html" target="_top" xlink:title="Concrete IteratorWrapper for const access to the underlying container.">
<polygon fill="white" stroke="#666666" points="548,-72.5 379,-72.5 379,-53.5 548,-53.5 548,-72.5"/>
<text text-anchor="middle" x="463.5" y="-60.5" font-family="Helvetica,sans-Serif" font-size="10.00">Ogre::ConstVectorIterator&lt; T &gt;</text>
</a>
</g>
</g>
<!-- Node5&#45;&gt;Node6 -->
<g id="edge900_Node000005_Node000006" class="edge">
<title>Node5&#45;&gt;Node6</title>
<g id="a_edge900_Node000005_Node000006"><a xlink:title=" ">
<path fill="none" stroke="#63b8ff" d="M353.37,-63C361.81,-63 370.37,-63 378.79,-63"/>
<polygon fill="#63b8ff" stroke="#63b8ff" points="353.15,-59.5 343.15,-63 353.15,-66.5 353.15,-59.5"/>
</a>
</g>
</g>
<!-- Node8 -->
<g id="Node000008" class="node">
<title>Node8</title>
<g id="a_Node000008"><a xlink:href="class_ogre_1_1_vector_iterator.html" target="_top" xlink:title="Concrete IteratorWrapper for nonconst access to the underlying container.">
<polygon fill="white" stroke="#666666" points="534,-24.5 393,-24.5 393,-5.5 534,-5.5 534,-24.5"/>
<text text-anchor="middle" x="463.5" y="-12.5" font-family="Helvetica,sans-Serif" font-size="10.00">Ogre::VectorIterator&lt; T &gt;</text>
</a>
</g>
</g>
<!-- Node7&#45;&gt;Node8 -->
<g id="edge902_Node000007_Node000008" class="edge">
<title>Node7&#45;&gt;Node8</title>
<g id="a_edge902_Node000007_Node000008"><a xlink:title=" ">
<path fill="none" stroke="#63b8ff" d="M353.23,-15C366.51,-15 380.08,-15 392.94,-15"/>
<polygon fill="#63b8ff" stroke="#63b8ff" points="353.15,-11.5 343.15,-15 353.15,-18.5 353.15,-11.5"/>
</a>
</g>
</g>
</g>
</svg>
