<?xml version="1.0" encoding="UTF-8" standalone="no"?>
<!DOCTYPE svg PUBLIC "-//W3C//DTD SVG 1.1//EN"
 "http://www.w3.org/Graphics/SVG/1.1/DTD/svg11.dtd">
<!-- Generated by graphviz version 7.0.5 (20221223.1930)
 -->
<!-- Title: Graphical Class Hierarchy Pages: 1 -->
<svg width="346pt" height="76pt"
 viewBox="0.00 0.00 346.00 75.50" xmlns="http://www.w3.org/2000/svg" xmlns:xlink="http://www.w3.org/1999/xlink">
<g id="graph0" class="graph" transform="scale(1 1) rotate(0) translate(4 71.5)">
<title>Graphical Class Hierarchy</title>
<!-- Node0 -->
<g id="node1" class="node">
<title>Node0</title>
<g id="a_node1"><a xlink:href="class_ogre_1_1_singleton.html" target="_top" xlink:title=" ">
<polygon fill="white" stroke="#666666" points="149,-67.5 0,-67.5 0,-37.5 149,-37.5 149,-67.5"/>
<text text-anchor="start" x="8" y="-55.5" font-family="Helvetica,sans-Serif" font-size="10.00">Ogre::Singleton&lt; D3D11Stereo</text>
<text text-anchor="middle" x="74.5" y="-44.5" font-family="Helvetica,sans-Serif" font-size="10.00">DriverBridge &gt;</text>
</a>
</g>
</g>
<!-- Node1 -->
<g id="node2" class="node">
<title>Node1</title>
<g id="a_node2"><a xlink:href="class_ogre_1_1_d3_d11_stereo_driver_bridge.html" target="_top" xlink:title="Bridge interface from the render system to the stereo driver.">
<polygon fill="white" stroke="#666666" points="338,-40 185,-40 185,-21 338,-21 338,-40"/>
<text text-anchor="middle" x="261.5" y="-28" font-family="Helvetica,sans-Serif" font-size="10.00">Ogre::D3D11StereoDriverBridge</text>
</a>
</g>
</g>
<!-- Node0&#45;&gt;Node1 -->
<g id="edge1" class="edge">
<title>Node0&#45;&gt;Node1</title>
<path fill="none" stroke="#63b8ff" d="M160.64,-42.38C168.63,-41.43 176.69,-40.47 184.59,-39.53"/>
<polygon fill="#63b8ff" stroke="#63b8ff" points="160.43,-38.87 150.92,-43.53 161.26,-45.83 160.43,-38.87"/>
</g>
<!-- Node2 -->
<g id="node3" class="node">
<title>Node2</title>
<g id="a_node3"><a xlink:title=" ">
<polygon fill="#e0e0e0" stroke="#999999" points="120.5,-19 28.5,-19 28.5,0 120.5,0 120.5,-19"/>
<text text-anchor="middle" x="74.5" y="-7" font-family="Helvetica,sans-Serif" font-size="10.00">StereoDriverAlloc</text>
</a>
</g>
</g>
<!-- Node2&#45;&gt;Node1 -->
<g id="edge2" class="edge">
<title>Node2&#45;&gt;Node1</title>
<path fill="none" stroke="#63b8ff" d="M131.95,-15.91C148.59,-17.8 167.07,-19.89 184.72,-21.9"/>
<polygon fill="#63b8ff" stroke="#63b8ff" points="132.59,-12.46 122.26,-14.81 131.8,-19.41 132.59,-12.46"/>
</g>
</g>
</svg>
