<?xml version="1.0" encoding="UTF-8" standalone="no"?>
<!DOCTYPE svg PUBLIC "-//W3C//DTD SVG 1.1//EN"
 "http://www.w3.org/Graphics/SVG/1.1/DTD/svg11.dtd">
<!-- Generated by graphviz version 2.50.0 (20220203.2022)
 -->
<!-- Title: Graphical Class Hierarchy Pages: 1 -->
<svg width="471pt" height="1690pt"
 viewBox="0.00 0.00 471.00 1689.50" xmlns="http://www.w3.org/2000/svg" xmlns:xlink="http://www.w3.org/1999/xlink">
<g id="graph0" class="graph" transform="scale(1 1) rotate(0) translate(4 1685.5)">
<title>Graphical Class Hierarchy</title>
<!-- Node0 -->
<g id="node1" class="node">
<title>Node0</title>
<g id="a_node1"><a xlink:title=" ">
<polygon fill="none" stroke="#bfbfbf" points="0,-804.5 0,-823.5 80,-823.5 80,-804.5 0,-804.5"/>
<text text-anchor="middle" x="40" y="-811.5" font-family="Helvetica,sans-Serif" font-size="10.00">std::shared_ptr</text>
</a>
</g>
</g>
<!-- Node1 -->
<g id="node2" class="node">
<title>Node1</title>
<g id="a_node2"><a xlink:href="class_ogre_1_1_shared_ptr.html" target="_top" xlink:title=" ">
<polygon fill="none" stroke="black" points="129.5,-1651 129.5,-1681 265.5,-1681 265.5,-1651 129.5,-1651"/>
<text text-anchor="start" x="137.5" y="-1669" font-family="Helvetica,sans-Serif" font-size="10.00">Ogre::SharedPtr&lt; Hardware</text>
<text text-anchor="middle" x="197.5" y="-1658" font-family="Helvetica,sans-Serif" font-size="10.00">IndexBuffer &gt;</text>
</a>
</g>
</g>
<!-- Node0&#45;&gt;Node1 -->
<g id="edge1" class="edge">
<title>Node0&#45;&gt;Node1</title>
<path fill="none" stroke="midnightblue" d="M41.5,-833.8C44.66,-953.39 63.58,-1576.18 116,-1641 119.68,-1645.55 124.18,-1649.29 129.14,-1652.36"/>
<polygon fill="midnightblue" stroke="midnightblue" points="44.99,-833.48 41.23,-823.57 37.99,-833.66 44.99,-833.48"/>
</g>
<!-- Node3 -->
<g id="node4" class="node">
<title>Node3</title>
<g id="a_node4"><a xlink:href="class_ogre_1_1_shared_ptr.html" target="_top" xlink:title=" ">
<polygon fill="none" stroke="black" points="129.5,-1602 129.5,-1632 265.5,-1632 265.5,-1602 129.5,-1602"/>
<text text-anchor="start" x="137.5" y="-1620" font-family="Helvetica,sans-Serif" font-size="10.00">Ogre::SharedPtr&lt; Hardware</text>
<text text-anchor="middle" x="197.5" y="-1609" font-family="Helvetica,sans-Serif" font-size="10.00">VertexBuffer &gt;</text>
</a>
</g>
</g>
<!-- Node0&#45;&gt;Node3 -->
<g id="edge3" class="edge">
<title>Node0&#45;&gt;Node3</title>
<path fill="none" stroke="midnightblue" d="M41.61,-833.69C45.35,-948.78 66.64,-1531.32 116,-1592 119.69,-1596.54 124.2,-1600.27 129.17,-1603.34"/>
<polygon fill="midnightblue" stroke="midnightblue" points="45.1,-833.41 41.29,-823.53 38.11,-833.64 45.1,-833.41"/>
</g>
<!-- Node5 -->
<g id="node6" class="node">
<title>Node5</title>
<g id="a_node6"><a xlink:href="class_ogre_1_1_shared_ptr.html" target="_top" xlink:title=" ">
<polygon fill="none" stroke="black" points="129,-1563.5 129,-1582.5 266,-1582.5 266,-1563.5 129,-1563.5"/>
<text text-anchor="middle" x="197.5" y="-1570.5" font-family="Helvetica,sans-Serif" font-size="10.00">Ogre::SharedPtr&lt; Material &gt;</text>
</a>
</g>
</g>
<!-- Node0&#45;&gt;Node5 -->
<g id="edge5" class="edge">
<title>Node0&#45;&gt;Node5</title>
<path fill="none" stroke="midnightblue" d="M41.67,-833.78C45.62,-945.75 67.46,-1497 116,-1553 119.68,-1557.24 124.1,-1560.66 128.97,-1563.4"/>
<polygon fill="midnightblue" stroke="midnightblue" points="45.16,-833.46 41.31,-823.59 38.16,-833.7 45.16,-833.46"/>
</g>
<!-- Node6 -->
<g id="node7" class="node">
<title>Node6</title>
<g id="a_node7"><a xlink:href="class_ogre_1_1_shared_ptr.html" target="_top" xlink:title=" ">
<polygon fill="none" stroke="black" points="116,-1514 116,-1544 279,-1544 279,-1514 116,-1514"/>
<text text-anchor="start" x="124" y="-1532" font-family="Helvetica,sans-Serif" font-size="10.00">Ogre::SharedPtr&lt; ShadowCamera</text>
<text text-anchor="middle" x="197.5" y="-1521" font-family="Helvetica,sans-Serif" font-size="10.00">Setup &gt;</text>
</a>
</g>
</g>
<!-- Node0&#45;&gt;Node6 -->
<g id="edge6" class="edge">
<title>Node0&#45;&gt;Node6</title>
<path fill="none" stroke="midnightblue" d="M41.87,-833.76C46.76,-941.04 72.16,-1450.77 116,-1504 119.16,-1507.84 122.91,-1511.1 127.02,-1513.87"/>
<polygon fill="midnightblue" stroke="midnightblue" points="45.36,-833.51 41.42,-823.67 38.37,-833.82 45.36,-833.51"/>
</g>
<!-- Node7 -->
<g id="node8" class="node">
<title>Node7</title>
<g id="a_node8"><a xlink:href="class_ogre_1_1_shared_ptr.html" target="_top" xlink:title=" ">
<polygon fill="none" stroke="black" points="138.5,-1465 138.5,-1495 256.5,-1495 256.5,-1465 138.5,-1465"/>
<text text-anchor="start" x="146.5" y="-1483" font-family="Helvetica,sans-Serif" font-size="10.00">Ogre::SharedPtr&lt; Ogre</text>
<text text-anchor="middle" x="197.5" y="-1472" font-family="Helvetica,sans-Serif" font-size="10.00">::ControllerValue&lt; T &gt; &gt;</text>
</a>
</g>
</g>
<!-- Node0&#45;&gt;Node7 -->
<g id="edge7" class="edge">
<title>Node0&#45;&gt;Node7</title>
<path fill="none" stroke="midnightblue" d="M42.04,-833.98C47.58,-937.18 74.91,-1407.08 116,-1456 121.91,-1463.03 129.79,-1468.06 138.3,-1471.64"/>
<polygon fill="midnightblue" stroke="midnightblue" points="45.52,-833.52 41.5,-823.72 38.53,-833.89 45.52,-833.52"/>
</g>
<!-- Node8 -->
<g id="node9" class="node">
<title>Node8</title>
<g id="a_node9"><a xlink:href="class_ogre_1_1_shared_ptr.html" target="_top" xlink:title=" ">
<polygon fill="none" stroke="black" points="140,-1405.5 140,-1446.5 255,-1446.5 255,-1405.5 140,-1405.5"/>
<text text-anchor="start" x="148" y="-1434.5" font-family="Helvetica,sans-Serif" font-size="10.00">Ogre::SharedPtr&lt; Ogre</text>
<text text-anchor="start" x="148" y="-1423.5" font-family="Helvetica,sans-Serif" font-size="10.00">::ControllerFunction</text>
<text text-anchor="middle" x="197.5" y="-1412.5" font-family="Helvetica,sans-Serif" font-size="10.00">&lt; T &gt; &gt;</text>
</a>
</g>
</g>
<!-- Node0&#45;&gt;Node8 -->
<g id="edge8" class="edge">
<title>Node0&#45;&gt;Node8</title>
<path fill="none" stroke="midnightblue" d="M40.9,-833.73C40.81,-925.08 44.77,-1306.29 116,-1396 122.21,-1403.83 130.69,-1409.61 139.82,-1413.89"/>
<polygon fill="midnightblue" stroke="midnightblue" points="44.4,-833.66 40.93,-823.65 37.4,-833.64 44.4,-833.66"/>
</g>
<!-- Node9 -->
<g id="node10" class="node">
<title>Node9</title>
<g id="a_node10"><a xlink:href="class_ogre_1_1_shared_ptr.html" target="_top" xlink:title=" ">
<polygon fill="none" stroke="black" points="130,-1357 130,-1387 265,-1387 265,-1357 130,-1357"/>
<text text-anchor="start" x="138" y="-1375" font-family="Helvetica,sans-Serif" font-size="10.00">Ogre::SharedPtr&lt; Controller</text>
<text text-anchor="middle" x="197.5" y="-1364" font-family="Helvetica,sans-Serif" font-size="10.00">Value&lt; Real &gt; &gt;</text>
</a>
</g>
</g>
<!-- Node0&#45;&gt;Node9 -->
<g id="edge9" class="edge">
<title>Node0&#45;&gt;Node9</title>
<path fill="none" stroke="midnightblue" d="M41.05,-833.78C41.66,-920.65 48.36,-1267.46 116,-1347 119.89,-1351.57 124.59,-1355.32 129.76,-1358.39"/>
<polygon fill="midnightblue" stroke="midnightblue" points="44.55,-833.68 41,-823.7 37.55,-833.72 44.55,-833.68"/>
</g>
<!-- Node10 -->
<g id="node11" class="node">
<title>Node10</title>
<g id="a_node11"><a xlink:href="class_ogre_1_1_shared_ptr.html" target="_top" xlink:title=" ">
<polygon fill="none" stroke="black" points="130,-1308 130,-1338 265,-1338 265,-1308 130,-1308"/>
<text text-anchor="start" x="138" y="-1326" font-family="Helvetica,sans-Serif" font-size="10.00">Ogre::SharedPtr&lt; Controller</text>
<text text-anchor="middle" x="197.5" y="-1315" font-family="Helvetica,sans-Serif" font-size="10.00">Function&lt; Real &gt; &gt;</text>
</a>
</g>
</g>
<!-- Node0&#45;&gt;Node10 -->
<g id="edge10" class="edge">
<title>Node0&#45;&gt;Node10</title>
<path fill="none" stroke="midnightblue" d="M41.37,-834C43.26,-916.16 54.47,-1226.66 116,-1298 119.92,-1302.54 124.65,-1306.27 129.83,-1309.33"/>
<polygon fill="midnightblue" stroke="midnightblue" points="44.86,-833.52 41.15,-823.59 37.86,-833.67 44.86,-833.52"/>
</g>
<!-- Node11 -->
<g id="node12" class="node">
<title>Node11</title>
<g id="a_node12"><a xlink:href="class_ogre_1_1_shared_ptr.html" target="_top" xlink:title=" ">
<polygon fill="none" stroke="black" points="135.5,-1259 135.5,-1289 259.5,-1289 259.5,-1259 135.5,-1259"/>
<text text-anchor="start" x="143.5" y="-1277" font-family="Helvetica,sans-Serif" font-size="10.00">Ogre::SharedPtr&lt; Ogre</text>
<text text-anchor="middle" x="197.5" y="-1266" font-family="Helvetica,sans-Serif" font-size="10.00">::D3D11VideoModeList &gt;</text>
</a>
</g>
</g>
<!-- Node0&#45;&gt;Node11 -->
<g id="edge11" class="edge">
<title>Node0&#45;&gt;Node11</title>
<path fill="none" stroke="midnightblue" d="M41.75,-833.92C45.01,-910.62 60.47,-1185.72 116,-1249 121.31,-1255.05 128.05,-1259.65 135.37,-1263.15"/>
<polygon fill="midnightblue" stroke="midnightblue" points="45.24,-833.58 41.34,-823.73 38.24,-833.86 45.24,-833.58"/>
</g>
<!-- Node12 -->
<g id="node13" class="node">
<title>Node12</title>
<g id="a_node13"><a xlink:href="class_ogre_1_1_shared_ptr.html" target="_top" xlink:title=" ">
<polygon fill="none" stroke="black" points="120.5,-1220.5 120.5,-1239.5 274.5,-1239.5 274.5,-1220.5 120.5,-1220.5"/>
<text text-anchor="middle" x="197.5" y="-1227.5" font-family="Helvetica,sans-Serif" font-size="10.00">Ogre::SharedPtr&lt; DataStream &gt;</text>
</a>
</g>
</g>
<!-- Node0&#45;&gt;Node12 -->
<g id="edge12" class="edge">
<title>Node0&#45;&gt;Node12</title>
<path fill="none" stroke="midnightblue" d="M41.99,-833.6C46.01,-905.65 63.53,-1154.49 116,-1210 120.06,-1214.29 124.88,-1217.72 130.11,-1220.45"/>
<polygon fill="midnightblue" stroke="midnightblue" points="45.48,-833.41 41.45,-823.61 38.49,-833.79 45.48,-833.41"/>
</g>
<!-- Node13 -->
<g id="node14" class="node">
<title>Node13</title>
<g id="a_node14"><a xlink:href="class_ogre_1_1_shared_ptr.html" target="_top" xlink:title=" ">
<polygon fill="none" stroke="black" points="123,-1171 123,-1201 272,-1201 272,-1171 123,-1171"/>
<text text-anchor="start" x="131" y="-1189" font-family="Helvetica,sans-Serif" font-size="10.00">Ogre::SharedPtr&lt; GpuProgram</text>
<text text-anchor="middle" x="197.5" y="-1178" font-family="Helvetica,sans-Serif" font-size="10.00">Parameters &gt;</text>
</a>
</g>
</g>
<!-- Node0&#45;&gt;Node13 -->
<g id="edge13" class="edge">
<title>Node0&#45;&gt;Node13</title>
<path fill="none" stroke="midnightblue" d="M42.71,-834.01C48.75,-900.42 71.24,-1112.11 116,-1161 119.56,-1164.89 123.71,-1168.17 128.21,-1170.95"/>
<polygon fill="midnightblue" stroke="midnightblue" points="46.16,-833.34 41.79,-823.69 39.19,-833.95 46.16,-833.34"/>
</g>
<!-- Node14 -->
<g id="node15" class="node">
<title>Node14</title>
<g id="a_node15"><a xlink:href="class_ogre_1_1_shared_ptr.html" target="_top" xlink:title=" ">
<polygon fill="none" stroke="black" points="137,-1122 137,-1152 258,-1152 258,-1122 137,-1122"/>
<text text-anchor="start" x="145" y="-1140" font-family="Helvetica,sans-Serif" font-size="10.00">Ogre::SharedPtr&lt; vector</text>
<text text-anchor="middle" x="197.5" y="-1129" font-family="Helvetica,sans-Serif" font-size="10.00">&lt; Image &gt;::type &gt;</text>
</a>
</g>
</g>
<!-- Node0&#45;&gt;Node14 -->
<g id="edge14" class="edge">
<title>Node0&#45;&gt;Node14</title>
<path fill="none" stroke="midnightblue" d="M43.4,-833.48C51.12,-892.99 77.06,-1070.88 116,-1112 121.84,-1118.16 129.16,-1122.82 137,-1126.33"/>
<polygon fill="midnightblue" stroke="midnightblue" points="46.87,-832.99 42.14,-823.51 39.93,-833.88 46.87,-832.99"/>
</g>
<!-- Node15 -->
<g id="node16" class="node">
<title>Node15</title>
<g id="a_node16"><a xlink:href="class_ogre_1_1_shared_ptr.html" target="_top" xlink:title=" ">
<polygon fill="none" stroke="black" points="126,-1073 126,-1103 269,-1103 269,-1073 126,-1073"/>
<text text-anchor="start" x="134" y="-1091" font-family="Helvetica,sans-Serif" font-size="10.00">Ogre::SharedPtr&lt; GpuLogical</text>
<text text-anchor="middle" x="197.5" y="-1080" font-family="Helvetica,sans-Serif" font-size="10.00">BufferStruct &gt;</text>
</a>
</g>
</g>
<!-- Node0&#45;&gt;Node15 -->
<g id="edge15" class="edge">
<title>Node0&#45;&gt;Node15</title>
<path fill="none" stroke="midnightblue" d="M41.03,-833.99C42.23,-880.77 51.82,-998.27 116,-1063 119.81,-1066.85 124.2,-1070.1 128.93,-1072.86"/>
<polygon fill="midnightblue" stroke="midnightblue" points="44.53,-833.65 40.88,-823.7 37.53,-833.75 44.53,-833.65"/>
</g>
<!-- Node16 -->
<g id="node17" class="node">
<title>Node16</title>
<g id="a_node17"><a xlink:href="class_ogre_1_1_shared_ptr.html" target="_top" xlink:title=" ">
<polygon fill="none" stroke="black" points="126,-1024 126,-1054 269,-1054 269,-1024 126,-1024"/>
<text text-anchor="start" x="134" y="-1042" font-family="Helvetica,sans-Serif" font-size="10.00">Ogre::SharedPtr&lt; GpuNamed</text>
<text text-anchor="middle" x="197.5" y="-1031" font-family="Helvetica,sans-Serif" font-size="10.00">Constants &gt;</text>
</a>
</g>
</g>
<!-- Node0&#45;&gt;Node16 -->
<g id="edge16" class="edge">
<title>Node0&#45;&gt;Node16</title>
<path fill="none" stroke="midnightblue" d="M42.71,-833.52C47.24,-873.28 63.12,-964.08 116,-1014 120.04,-1017.82 124.66,-1021.05 129.59,-1023.79"/>
<polygon fill="midnightblue" stroke="midnightblue" points="46.19,-833.13 41.69,-823.54 39.23,-833.84 46.19,-833.13"/>
</g>
<!-- Node17 -->
<g id="node18" class="node">
<title>Node17</title>
<g id="a_node18"><a xlink:href="class_ogre_1_1_shared_ptr.html" target="_top" xlink:title=" ">
<polygon fill="none" stroke="black" points="119,-985.5 119,-1004.5 276,-1004.5 276,-985.5 119,-985.5"/>
<text text-anchor="middle" x="197.5" y="-992.5" font-family="Helvetica,sans-Serif" font-size="10.00">Ogre::SharedPtr&lt; GpuProgram &gt;</text>
</a>
</g>
</g>
<!-- Node0&#45;&gt;Node17 -->
<g id="edge17" class="edge">
<title>Node0&#45;&gt;Node17</title>
<path fill="none" stroke="midnightblue" d="M44.52,-833.87C51.65,-868.09 71.1,-938 116,-975 121.22,-979.3 127.24,-982.7 133.59,-985.38"/>
<polygon fill="midnightblue" stroke="midnightblue" points="47.89,-832.89 42.55,-823.74 41.02,-834.22 47.89,-832.89"/>
</g>
<!-- Node18 -->
<g id="node19" class="node">
<title>Node18</title>
<g id="a_node19"><a xlink:href="class_ogre_1_1_shared_ptr.html" target="_top" xlink:title=" ">
<polygon fill="none" stroke="black" points="126,-936 126,-966 269,-966 269,-936 126,-936"/>
<text text-anchor="start" x="134" y="-954" font-family="Helvetica,sans-Serif" font-size="10.00">Ogre::SharedPtr&lt; GpuShared</text>
<text text-anchor="middle" x="197.5" y="-943" font-family="Helvetica,sans-Serif" font-size="10.00">Parameters &gt;</text>
</a>
</g>
</g>
<!-- Node0&#45;&gt;Node18 -->
<g id="edge18" class="edge">
<title>Node0&#45;&gt;Node18</title>
<path fill="none" stroke="midnightblue" d="M48.92,-833.19C60.18,-858.17 83.17,-901.51 116,-926 121.16,-929.85 126.93,-933.12 132.94,-935.88"/>
<polygon fill="midnightblue" stroke="midnightblue" points="52,-831.5 44.81,-823.72 45.58,-834.28 52,-831.5"/>
</g>
<!-- Node19 -->
<g id="node20" class="node">
<title>Node19</title>
<g id="a_node20"><a xlink:href="class_ogre_1_1_shared_ptr.html" target="_top" xlink:title=" ">
<polygon fill="none" stroke="black" points="134.5,-897.5 134.5,-916.5 260.5,-916.5 260.5,-897.5 134.5,-897.5"/>
<text text-anchor="middle" x="197.5" y="-904.5" font-family="Helvetica,sans-Serif" font-size="10.00">Ogre::SharedPtr&lt; Mesh &gt;</text>
</a>
</g>
</g>
<!-- Node0&#45;&gt;Node19 -->
<g id="edge19" class="edge">
<title>Node0&#45;&gt;Node19</title>
<path fill="none" stroke="midnightblue" d="M54.43,-831.64C68.11,-848.39 90.85,-873.01 116,-887 123.8,-891.34 132.55,-894.75 141.32,-897.43"/>
<polygon fill="midnightblue" stroke="midnightblue" points="57.09,-829.36 48.13,-823.7 51.6,-833.71 57.09,-829.36"/>
</g>
<!-- Node20 -->
<g id="node21" class="node">
<title>Node20</title>
<g id="a_node21"><a xlink:href="class_ogre_1_1_shared_ptr.html" target="_top" xlink:title=" ">
<polygon fill="none" stroke="black" points="123.5,-848 123.5,-878 271.5,-878 271.5,-848 123.5,-848"/>
<text text-anchor="start" x="131.5" y="-866" font-family="Helvetica,sans-Serif" font-size="10.00">Ogre::SharedPtr&lt; LodCollapse</text>
<text text-anchor="middle" x="197.5" y="-855" font-family="Helvetica,sans-Serif" font-size="10.00">Cost &gt;</text>
</a>
</g>
</g>
<!-- Node0&#45;&gt;Node20 -->
<g id="edge20" class="edge">
<title>Node0&#45;&gt;Node20</title>
<path fill="none" stroke="midnightblue" d="M80.31,-826.65C91.81,-830.33 104.4,-834.34 116,-838 126.33,-841.26 137.41,-844.72 147.95,-848"/>
<polygon fill="midnightblue" stroke="midnightblue" points="81.14,-823.24 70.55,-823.52 79,-829.91 81.14,-823.24"/>
</g>
<!-- Node21 -->
<g id="node22" class="node">
<title>Node21</title>
<g id="a_node22"><a xlink:href="class_ogre_1_1_shared_ptr.html" target="_top" xlink:title=" ">
<polygon fill="none" stroke="black" points="131,-799 131,-829 264,-829 264,-799 131,-799"/>
<text text-anchor="start" x="139" y="-817" font-family="Helvetica,sans-Serif" font-size="10.00">Ogre::SharedPtr&lt; unsigned</text>
<text text-anchor="middle" x="197.5" y="-806" font-family="Helvetica,sans-Serif" font-size="10.00"> char &gt;</text>
</a>
</g>
</g>
<!-- Node0&#45;&gt;Node21 -->
<g id="edge21" class="edge">
<title>Node0&#45;&gt;Node21</title>
<path fill="none" stroke="midnightblue" d="M90.3,-814C103.21,-814 117.34,-814 130.96,-814"/>
<polygon fill="midnightblue" stroke="midnightblue" points="90.24,-810.5 80.24,-814 90.24,-817.5 90.24,-810.5"/>
</g>
<!-- Node22 -->
<g id="node23" class="node">
<title>Node22</title>
<g id="a_node23"><a xlink:href="class_ogre_1_1_shared_ptr.html" target="_top" xlink:title=" ">
<polygon fill="none" stroke="black" points="140,-750 140,-780 255,-780 255,-750 140,-750"/>
<text text-anchor="start" x="148" y="-768" font-family="Helvetica,sans-Serif" font-size="10.00">Ogre::SharedPtr&lt; Ogre</text>
<text text-anchor="middle" x="197.5" y="-757" font-family="Helvetica,sans-Serif" font-size="10.00">::Vector3 &gt;</text>
</a>
</g>
</g>
<!-- Node0&#45;&gt;Node22 -->
<g id="edge22" class="edge">
<title>Node0&#45;&gt;Node22</title>
<path fill="none" stroke="midnightblue" d="M78.71,-801.17C90.61,-797.19 103.83,-792.84 116,-789 125.32,-786.06 135.27,-783.01 144.89,-780.12"/>
<polygon fill="midnightblue" stroke="midnightblue" points="77.43,-797.91 69.07,-804.41 79.66,-804.54 77.43,-797.91"/>
</g>
<!-- Node23 -->
<g id="node24" class="node">
<title>Node23</title>
<g id="a_node24"><a xlink:href="class_ogre_1_1_shared_ptr.html" target="_top" xlink:title=" ">
<polygon fill="none" stroke="black" points="128,-711.5 128,-730.5 267,-730.5 267,-711.5 128,-711.5"/>
<text text-anchor="middle" x="197.5" y="-718.5" font-family="Helvetica,sans-Serif" font-size="10.00">Ogre::SharedPtr&lt; LodData &gt;</text>
</a>
</g>
</g>
<!-- Node0&#45;&gt;Node23 -->
<g id="edge23" class="edge">
<title>Node0&#45;&gt;Node23</title>
<path fill="none" stroke="midnightblue" d="M54.12,-796.32C67.71,-779.29 90.51,-754.1 116,-740 123.04,-736.11 130.85,-733.01 138.76,-730.54"/>
<polygon fill="midnightblue" stroke="midnightblue" points="51.24,-794.33 47.89,-804.38 56.77,-798.61 51.24,-794.33"/>
</g>
<!-- Node24 -->
<g id="node25" class="node">
<title>Node24</title>
<g id="a_node25"><a xlink:href="class_ogre_1_1_shared_ptr.html" target="_top" xlink:title=" ">
<polygon fill="none" stroke="black" points="131.5,-662 131.5,-692 263.5,-692 263.5,-662 131.5,-662"/>
<text text-anchor="start" x="139.5" y="-680" font-family="Helvetica,sans-Serif" font-size="10.00">Ogre::SharedPtr&lt; LodInput</text>
<text text-anchor="middle" x="197.5" y="-669" font-family="Helvetica,sans-Serif" font-size="10.00">Provider &gt;</text>
</a>
</g>
</g>
<!-- Node0&#45;&gt;Node24 -->
<g id="edge24" class="edge">
<title>Node0&#45;&gt;Node24</title>
<path fill="none" stroke="midnightblue" d="M48.92,-794.81C60.18,-769.83 83.17,-726.49 116,-702 121.16,-698.15 126.93,-694.88 132.94,-692.12"/>
<polygon fill="midnightblue" stroke="midnightblue" points="45.58,-793.72 44.81,-804.28 52,-796.5 45.58,-793.72"/>
</g>
<!-- Node25 -->
<g id="node26" class="node">
<title>Node25</title>
<g id="a_node26"><a xlink:href="class_ogre_1_1_shared_ptr.html" target="_top" xlink:title=" ">
<polygon fill="none" stroke="black" points="127.5,-613 127.5,-643 267.5,-643 267.5,-613 127.5,-613"/>
<text text-anchor="start" x="135.5" y="-631" font-family="Helvetica,sans-Serif" font-size="10.00">Ogre::SharedPtr&lt; LodOutput</text>
<text text-anchor="middle" x="197.5" y="-620" font-family="Helvetica,sans-Serif" font-size="10.00">Provider &gt;</text>
</a>
</g>
</g>
<!-- Node0&#45;&gt;Node25 -->
<g id="edge25" class="edge">
<title>Node0&#45;&gt;Node25</title>
<path fill="none" stroke="midnightblue" d="M44.66,-794.22C52.01,-760.12 71.79,-690.27 116,-652 119.97,-648.56 124.41,-645.62 129.12,-643.1"/>
<polygon fill="midnightblue" stroke="midnightblue" points="41.17,-793.82 42.63,-804.31 48.03,-795.2 41.17,-793.82"/>
</g>
<!-- Node26 -->
<g id="node27" class="node">
<title>Node26</title>
<g id="a_node27"><a xlink:href="class_ogre_1_1_shared_ptr.html" target="_top" xlink:title=" ">
<polygon fill="none" stroke="black" points="118,-574.5 118,-593.5 277,-593.5 277,-574.5 118,-574.5"/>
<text text-anchor="middle" x="197.5" y="-581.5" font-family="Helvetica,sans-Serif" font-size="10.00">Ogre::SharedPtr&lt; LodCollapser &gt;</text>
</a>
</g>
</g>
<!-- Node0&#45;&gt;Node26 -->
<g id="edge26" class="edge">
<title>Node0&#45;&gt;Node26</title>
<path fill="none" stroke="midnightblue" d="M41.98,-794.24C45.17,-752.36 58.71,-654.33 116,-603 120.28,-599.17 125.18,-596.07 130.42,-593.57"/>
<polygon fill="midnightblue" stroke="midnightblue" points="38.49,-794.06 41.34,-804.26 45.47,-794.5 38.49,-794.06"/>
</g>
<!-- Node27 -->
<g id="node28" class="node">
<title>Node27</title>
<g id="a_node28"><a xlink:href="class_ogre_1_1_shared_ptr.html" target="_top" xlink:title=" ">
<polygon fill="none" stroke="black" points="131.5,-525 131.5,-555 263.5,-555 263.5,-525 131.5,-525"/>
<text text-anchor="start" x="139.5" y="-543" font-family="Helvetica,sans-Serif" font-size="10.00">Ogre::SharedPtr&lt; Skeleton</text>
<text text-anchor="middle" x="197.5" y="-532" font-family="Helvetica,sans-Serif" font-size="10.00">Def &gt;</text>
</a>
</g>
</g>
<!-- Node0&#45;&gt;Node27 -->
<g id="edge27" class="edge">
<title>Node0&#45;&gt;Node27</title>
<path fill="none" stroke="midnightblue" d="M41.03,-794.01C42.23,-747.23 51.82,-629.73 116,-565 120.43,-560.53 125.64,-556.86 131.25,-553.84"/>
<polygon fill="midnightblue" stroke="midnightblue" points="37.53,-794.25 40.88,-804.3 44.53,-794.35 37.53,-794.25"/>
</g>
<!-- Node28 -->
<g id="node29" class="node">
<title>Node28</title>
<g id="a_node29"><a xlink:href="class_ogre_1_1_shared_ptr.html" target="_top" xlink:title=" ">
<polygon fill="none" stroke="black" points="132,-476 132,-506 263,-506 263,-476 132,-476"/>
<text text-anchor="start" x="140" y="-494" font-family="Helvetica,sans-Serif" font-size="10.00">Ogre::SharedPtr&lt; Ogre</text>
<text text-anchor="middle" x="197.5" y="-483" font-family="Helvetica,sans-Serif" font-size="10.00">::ControllerValue&lt; Real &gt; &gt;</text>
</a>
</g>
</g>
<!-- Node0&#45;&gt;Node28 -->
<g id="edge28" class="edge">
<title>Node0&#45;&gt;Node28</title>
<path fill="none" stroke="midnightblue" d="M43.37,-794.44C51.01,-734.67 76.72,-556.05 116,-515 120.54,-510.26 125.97,-506.44 131.83,-503.37"/>
<polygon fill="midnightblue" stroke="midnightblue" points="39.89,-794.09 42.13,-804.44 46.84,-794.95 39.89,-794.09"/>
</g>
<!-- Node29 -->
<g id="node30" class="node">
<title>Node29</title>
<g id="a_node30"><a xlink:href="class_ogre_1_1_shared_ptr.html" target="_top" xlink:title=" ">
<polygon fill="none" stroke="black" points="140,-416.5 140,-457.5 255,-457.5 255,-416.5 140,-416.5"/>
<text text-anchor="start" x="148" y="-445.5" font-family="Helvetica,sans-Serif" font-size="10.00">Ogre::SharedPtr&lt; Ogre</text>
<text text-anchor="start" x="148" y="-434.5" font-family="Helvetica,sans-Serif" font-size="10.00">::ControllerFunction</text>
<text text-anchor="middle" x="197.5" y="-423.5" font-family="Helvetica,sans-Serif" font-size="10.00">&lt; Real &gt; &gt;</text>
</a>
</g>
</g>
<!-- Node0&#45;&gt;Node29 -->
<g id="edge29" class="edge">
<title>Node0&#45;&gt;Node29</title>
<path fill="none" stroke="midnightblue" d="M42.78,-794.01C49.07,-727.64 72.24,-516.03 116,-466 122.45,-458.62 130.93,-453.12 139.96,-449.02"/>
<polygon fill="midnightblue" stroke="midnightblue" points="39.26,-794.05 41.83,-804.32 46.23,-794.69 39.26,-794.05"/>
</g>
<!-- Node30 -->
<g id="node31" class="node">
<title>Node30</title>
<g id="a_node31"><a xlink:href="class_ogre_1_1_shared_ptr.html" target="_top" xlink:title=" ">
<polygon fill="none" stroke="black" points="125,-378.5 125,-397.5 270,-397.5 270,-378.5 125,-378.5"/>
<text text-anchor="middle" x="197.5" y="-385.5" font-family="Helvetica,sans-Serif" font-size="10.00">Ogre::SharedPtr&lt; PoseData &gt;</text>
</a>
</g>
</g>
<!-- Node0&#45;&gt;Node30 -->
<g id="edge30" class="edge">
<title>Node0&#45;&gt;Node30</title>
<path fill="none" stroke="midnightblue" d="M41.86,-794.32C45.47,-720.85 61.81,-463.94 116,-407 119.56,-403.26 123.72,-400.19 128.22,-397.68"/>
<polygon fill="midnightblue" stroke="midnightblue" points="38.35,-794.32 41.39,-804.48 45.35,-794.65 38.35,-794.32"/>
</g>
<!-- Node31 -->
<g id="node32" class="node">
<title>Node31</title>
<g id="a_node32"><a xlink:href="class_ogre_1_1_shared_ptr.html" target="_top" xlink:title=" ">
<polygon fill="none" stroke="black" points="126,-340.5 126,-359.5 269,-359.5 269,-340.5 126,-340.5"/>
<text text-anchor="middle" x="197.5" y="-347.5" font-family="Helvetica,sans-Serif" font-size="10.00">Ogre::SharedPtr&lt; Resource &gt;</text>
</a>
</g>
</g>
<!-- Node0&#45;&gt;Node31 -->
<g id="edge31" class="edge">
<title>Node0&#45;&gt;Node31</title>
<path fill="none" stroke="midnightblue" d="M41.53,-794.01C44.01,-715.84 57.01,-431.94 116,-369 119.54,-365.23 123.67,-362.14 128.16,-359.62"/>
<polygon fill="midnightblue" stroke="midnightblue" points="38.02,-794.27 41.23,-804.37 45.02,-794.48 38.02,-794.27"/>
</g>
<!-- Node32 -->
<g id="node33" class="node">
<title>Node32</title>
<g id="a_node33"><a xlink:href="class_ogre_1_1_shared_ptr.html" target="_top" xlink:title=" ">
<polygon fill="none" stroke="black" points="132,-291 132,-321 263,-321 263,-291 132,-291"/>
<text text-anchor="start" x="140" y="-309" font-family="Helvetica,sans-Serif" font-size="10.00">Ogre::SharedPtr&lt; Abstract</text>
<text text-anchor="middle" x="197.5" y="-298" font-family="Helvetica,sans-Serif" font-size="10.00">NodeList &gt;</text>
</a>
</g>
</g>
<!-- Node0&#45;&gt;Node32 -->
<g id="edge32" class="edge">
<title>Node0&#45;&gt;Node32</title>
<path fill="none" stroke="midnightblue" d="M41.37,-794.04C43.3,-712.05 54.58,-402.19 116,-331 120.4,-325.9 125.81,-321.83 131.74,-318.58"/>
<polygon fill="midnightblue" stroke="midnightblue" points="37.86,-794.35 41.15,-804.43 44.86,-794.5 37.86,-794.35"/>
</g>
<!-- Node33 -->
<g id="node34" class="node">
<title>Node33</title>
<g id="a_node34"><a xlink:href="class_ogre_1_1_shared_ptr.html" target="_top" xlink:title=" ">
<polygon fill="none" stroke="black" points="116,-252.5 116,-271.5 279,-271.5 279,-252.5 116,-252.5"/>
<text text-anchor="middle" x="197.5" y="-259.5" font-family="Helvetica,sans-Serif" font-size="10.00">Ogre::SharedPtr&lt; ThreadHandle &gt;</text>
</a>
</g>
</g>
<!-- Node0&#45;&gt;Node33 -->
<g id="edge33" class="edge">
<title>Node0&#45;&gt;Node33</title>
<path fill="none" stroke="midnightblue" d="M40.92,-794.1C40.97,-706.75 45.64,-358.15 116,-281 119.48,-277.18 123.58,-274.06 128.05,-271.52"/>
<polygon fill="midnightblue" stroke="midnightblue" points="37.42,-794.25 40.93,-804.24 44.42,-794.23 37.42,-794.25"/>
</g>
<!-- Node34 -->
<g id="node35" class="node">
<title>Node34</title>
<g id="a_node35"><a xlink:href="class_ogre_1_1_shared_ptr.html" target="_top" xlink:title=" ">
<polygon fill="none" stroke="black" points="128.5,-203 128.5,-233 266.5,-233 266.5,-203 128.5,-203"/>
<text text-anchor="start" x="136.5" y="-221" font-family="Helvetica,sans-Serif" font-size="10.00">Ogre::SharedPtr&lt; HighLevel</text>
<text text-anchor="middle" x="197.5" y="-210" font-family="Helvetica,sans-Serif" font-size="10.00">GpuProgram &gt;</text>
</a>
</g>
</g>
<!-- Node0&#45;&gt;Node34 -->
<g id="edge34" class="edge">
<title>Node0&#45;&gt;Node34</title>
<path fill="none" stroke="midnightblue" d="M40.84,-794.28C40.52,-703.76 43.64,-328.89 116,-243 119.49,-238.86 123.65,-235.39 128.22,-232.49"/>
<polygon fill="midnightblue" stroke="midnightblue" points="37.34,-794.51 40.9,-804.49 44.34,-794.47 37.34,-794.51"/>
</g>
<!-- Node35 -->
<g id="node36" class="node">
<title>Node35</title>
<g id="a_node36"><a xlink:href="class_ogre_1_1_shared_ptr.html" target="_top" xlink:title=" ">
<polygon fill="none" stroke="black" points="119.5,-164.5 119.5,-183.5 275.5,-183.5 275.5,-164.5 119.5,-164.5"/>
<text text-anchor="middle" x="197.5" y="-171.5" font-family="Helvetica,sans-Serif" font-size="10.00">Ogre::SharedPtr&lt; AsyncTicket &gt;</text>
</a>
</g>
</g>
<!-- Node0&#45;&gt;Node35 -->
<g id="edge35" class="edge">
<title>Node0&#45;&gt;Node35</title>
<path fill="none" stroke="midnightblue" d="M42.07,-793.99C47.66,-692.65 74.88,-238.99 116,-193 119.35,-189.25 123.29,-186.18 127.59,-183.66"/>
<polygon fill="midnightblue" stroke="midnightblue" points="38.57,-793.92 41.52,-804.1 45.56,-794.3 38.57,-793.92"/>
</g>
<!-- Node36 -->
<g id="node37" class="node">
<title>Node36</title>
<g id="a_node37"><a xlink:href="class_ogre_1_1_shared_ptr.html" target="_top" xlink:title=" ">
<polygon fill="none" stroke="black" points="127.5,-126.5 127.5,-145.5 267.5,-145.5 267.5,-126.5 127.5,-126.5"/>
<text text-anchor="middle" x="197.5" y="-133.5" font-family="Helvetica,sans-Serif" font-size="10.00">Ogre::SharedPtr&lt; Skeleton &gt;</text>
</a>
</g>
</g>
<!-- Node0&#45;&gt;Node36 -->
<g id="edge36" class="edge">
<title>Node0&#45;&gt;Node36</title>
<path fill="none" stroke="midnightblue" d="M41.9,-794.44C46.88,-690.32 72.33,-204.17 116,-155 119.34,-151.24 123.27,-148.16 127.56,-145.63"/>
<polygon fill="midnightblue" stroke="midnightblue" points="38.4,-794.34 41.43,-804.49 45.4,-794.67 38.4,-794.34"/>
</g>
<!-- Node37 -->
<g id="node38" class="node">
<title>Node37</title>
<g id="a_node38"><a xlink:href="class_ogre_1_1_shared_ptr.html" target="_top" xlink:title=" ">
<polygon fill="none" stroke="black" points="130.5,-77 130.5,-107 264.5,-107 264.5,-77 130.5,-77"/>
<text text-anchor="start" x="138.5" y="-95" font-family="Helvetica,sans-Serif" font-size="10.00">Ogre::SharedPtr&lt; Animable</text>
<text text-anchor="middle" x="197.5" y="-84" font-family="Helvetica,sans-Serif" font-size="10.00">Value &gt;</text>
</a>
</g>
</g>
<!-- Node0&#45;&gt;Node37 -->
<g id="edge37" class="edge">
<title>Node0&#45;&gt;Node37</title>
<path fill="none" stroke="midnightblue" d="M41.84,-794.38C46.62,-686.76 71.7,-170.84 116,-117 120,-112.14 124.92,-108.21 130.35,-105.03"/>
<polygon fill="midnightblue" stroke="midnightblue" points="38.34,-794.34 41.4,-804.48 45.33,-794.64 38.34,-794.34"/>
</g>
<!-- Node38 -->
<g id="node39" class="node">
<title>Node38</title>
<g id="a_node39"><a xlink:href="class_ogre_1_1_shared_ptr.html" target="_top" xlink:title=" ">
<polygon fill="none" stroke="black" points="136.5,-38.5 136.5,-57.5 258.5,-57.5 258.5,-38.5 136.5,-38.5"/>
<text text-anchor="middle" x="197.5" y="-45.5" font-family="Helvetica,sans-Serif" font-size="10.00">Ogre::SharedPtr&lt; Font &gt;</text>
</a>
</g>
</g>
<!-- Node0&#45;&gt;Node38 -->
<g id="edge38" class="edge">
<title>Node0&#45;&gt;Node38</title>
<path fill="none" stroke="midnightblue" d="M41.64,-793.99C45.45,-680.77 66.64,-123.33 116,-67 121.49,-60.74 128.62,-56.34 136.37,-53.27"/>
<polygon fill="midnightblue" stroke="midnightblue" points="38.13,-794.2 41.3,-804.31 45.13,-794.43 38.13,-794.2"/>
</g>
<!-- Node39 -->
<g id="node40" class="node">
<title>Node39</title>
<g id="a_node40"><a xlink:href="class_ogre_1_1_shared_ptr.html" target="_top" xlink:title=" ">
<polygon fill="none" stroke="black" points="143.5,-0.5 143.5,-19.5 251.5,-19.5 251.5,-0.5 143.5,-0.5"/>
<text text-anchor="middle" x="197.5" y="-7.5" font-family="Helvetica,sans-Serif" font-size="10.00">Ogre::SharedPtr&lt; T &gt;</text>
</a>
</g>
</g>
<!-- Node0&#45;&gt;Node39 -->
<g id="edge39" class="edge">
<title>Node0&#45;&gt;Node39</title>
<path fill="none" stroke="midnightblue" d="M41.54,-794.08C44.85,-677.66 64.13,-88.48 116,-29 123.08,-20.88 132.92,-15.89 143.29,-12.89"/>
<polygon fill="midnightblue" stroke="midnightblue" points="38.03,-794.27 41.25,-804.36 45.03,-794.46 38.03,-794.27"/>
</g>
<!-- Node2 -->
<g id="node3" class="node">
<title>Node2</title>
<g id="a_node3"><a xlink:href="class_ogre_1_1v1_1_1_hardware_index_buffer_shared_ptr.html" target="_top" xlink:title="Shared pointer implementation used to share index buffers.">
<polygon fill="none" stroke="black" points="315,-1651 315,-1681 463,-1681 463,-1651 315,-1651"/>
<text text-anchor="start" x="323" y="-1669" font-family="Helvetica,sans-Serif" font-size="10.00">Ogre::v1::HardwareIndexBuffer</text>
<text text-anchor="middle" x="389" y="-1658" font-family="Helvetica,sans-Serif" font-size="10.00">SharedPtr</text>
</a>
</g>
</g>
<!-- Node1&#45;&gt;Node2 -->
<g id="edge2" class="edge">
<title>Node1&#45;&gt;Node2</title>
<path fill="none" stroke="midnightblue" d="M275.82,-1666C288.73,-1666 302.09,-1666 314.89,-1666"/>
<polygon fill="midnightblue" stroke="midnightblue" points="275.58,-1662.5 265.58,-1666 275.58,-1669.5 275.58,-1662.5"/>
</g>
<!-- Node4 -->
<g id="node5" class="node">
<title>Node4</title>
<g id="a_node5"><a xlink:href="class_ogre_1_1v1_1_1_hardware_vertex_buffer_shared_ptr.html" target="_top" xlink:title="Shared pointer implementation used to share vertex buffers.">
<polygon fill="none" stroke="black" points="325.5,-1602 325.5,-1632 452.5,-1632 452.5,-1602 325.5,-1602"/>
<text text-anchor="start" x="333.5" y="-1620" font-family="Helvetica,sans-Serif" font-size="10.00">Ogre::v1::HardwareVertex</text>
<text text-anchor="middle" x="389" y="-1609" font-family="Helvetica,sans-Serif" font-size="10.00">BufferSharedPtr</text>
</a>
</g>
</g>
<!-- Node3&#45;&gt;Node4 -->
<g id="edge4" class="edge">
<title>Node3&#45;&gt;Node4</title>
<path fill="none" stroke="midnightblue" d="M275.76,-1617C292.29,-1617 309.56,-1617 325.45,-1617"/>
<polygon fill="midnightblue" stroke="midnightblue" points="275.58,-1613.5 265.58,-1617 275.58,-1620.5 275.58,-1613.5"/>
</g>
</g>
</svg>
