<?xml version="1.0" encoding="UTF-8" standalone="no"?>
<!DOCTYPE svg PUBLIC "-//W3C//DTD SVG 1.1//EN"
 "http://www.w3.org/Graphics/SVG/1.1/DTD/svg11.dtd">
<!-- Generated by graphviz version 2.43.0 (0)
 -->
<!-- Title: Graphical Class Hierarchy Pages: 1 -->
<svg width="442pt" height="370pt"
 viewBox="0.00 0.00 442.00 370.00" xmlns="http://www.w3.org/2000/svg" xmlns:xlink="http://www.w3.org/1999/xlink">
<g id="graph0" class="graph" transform="scale(1 1) rotate(0) translate(4 366)">
<title>Graphical Class Hierarchy</title>
<!-- Node1617 -->
<g id="node1" class="node">
<title>Node1617</title>
<g id="a_node1"><a xlink:title=" ">
<polygon fill="none" stroke="#bfbfbf" points="0,-171.5 0,-190.5 86,-190.5 86,-171.5 0,-171.5"/>
<text text-anchor="middle" x="43" y="-178.5" font-family="Helvetica,sans-Serif" font-size="10.00">std::exception</text>
</a>
</g>
</g>
<!-- Node0 -->
<g id="node2" class="node">
<title>Node0</title>
<g id="a_node2"><a xlink:href="class_ogre_1_1_exception.html" target="_top" xlink:title="When thrown, provides information about an error that has occurred inside the engine.">
<polygon fill="none" stroke="black" points="122,-171.5 122,-190.5 216,-190.5 216,-171.5 122,-171.5"/>
<text text-anchor="middle" x="169" y="-178.5" font-family="Helvetica,sans-Serif" font-size="10.00">Ogre::Exception</text>
</a>
</g>
</g>
<!-- Node1617&#45;&gt;Node0 -->
<g id="edge1" class="edge">
<title>Node1617&#45;&gt;Node0</title>
<path fill="none" stroke="midnightblue" d="M96.39,-181C104.77,-181 113.39,-181 121.62,-181"/>
<polygon fill="midnightblue" stroke="midnightblue" points="96.33,-177.5 86.33,-181 96.33,-184.5 96.33,-177.5"/>
</g>
<!-- Node1 -->
<g id="node3" class="node">
<title>Node1</title>
<g id="a_node3"><a xlink:href="class_ogre_1_1_file_not_found_exception.html" target="_top" xlink:title=" ">
<polygon fill="none" stroke="black" points="264,-342.5 264,-361.5 422,-361.5 422,-342.5 264,-342.5"/>
<text text-anchor="middle" x="343" y="-349.5" font-family="Helvetica,sans-Serif" font-size="10.00">Ogre::FileNotFoundException</text>
</a>
</g>
</g>
<!-- Node0&#45;&gt;Node1 -->
<g id="edge2" class="edge">
<title>Node0&#45;&gt;Node1</title>
<path fill="none" stroke="midnightblue" d="M174.76,-200.45C183.85,-233.25 206.91,-299.28 252,-333 257.12,-336.83 262.83,-339.92 268.83,-342.42"/>
<polygon fill="midnightblue" stroke="midnightblue" points="178.12,-199.48 172.2,-190.69 171.35,-201.25 178.12,-199.48"/>
</g>
<!-- Node2 -->
<g id="node4" class="node">
<title>Node2</title>
<g id="a_node4"><a xlink:href="class_ogre_1_1_i_o_exception.html" target="_top" xlink:title=" ">
<polygon fill="none" stroke="black" points="291,-304.5 291,-323.5 395,-323.5 395,-304.5 291,-304.5"/>
<text text-anchor="middle" x="343" y="-311.5" font-family="Helvetica,sans-Serif" font-size="10.00">Ogre::IOException</text>
</a>
</g>
</g>
<!-- Node0&#45;&gt;Node2 -->
<g id="edge3" class="edge">
<title>Node0&#45;&gt;Node2</title>
<path fill="none" stroke="midnightblue" d="M178.19,-199.94C190.36,-225.73 215.76,-271.38 252,-295 263.51,-302.5 277.44,-307.1 290.87,-309.91"/>
<polygon fill="midnightblue" stroke="midnightblue" points="181.37,-198.48 174.04,-190.82 174.99,-201.37 181.37,-198.48"/>
</g>
<!-- Node3 -->
<g id="node5" class="node">
<title>Node3</title>
<g id="a_node5"><a xlink:href="class_ogre_1_1_internal_error_exception.html" target="_top" xlink:title=" ">
<polygon fill="none" stroke="black" points="265.5,-266.5 265.5,-285.5 420.5,-285.5 420.5,-266.5 265.5,-266.5"/>
<text text-anchor="middle" x="343" y="-273.5" font-family="Helvetica,sans-Serif" font-size="10.00">Ogre::InternalErrorException</text>
</a>
</g>
</g>
<!-- Node0&#45;&gt;Node3 -->
<g id="edge4" class="edge">
<title>Node0&#45;&gt;Node3</title>
<path fill="none" stroke="midnightblue" d="M183.87,-198.51C198.79,-216.09 224.15,-242.58 252,-257 259.52,-260.89 267.78,-263.99 276.15,-266.45"/>
<polygon fill="midnightblue" stroke="midnightblue" points="186.49,-196.18 177.42,-190.69 181.09,-200.63 186.49,-196.18"/>
</g>
<!-- Node4 -->
<g id="node6" class="node">
<title>Node4</title>
<g id="a_node6"><a xlink:href="class_ogre_1_1_invalid_call_exception.html" target="_top" xlink:title=" ">
<polygon fill="none" stroke="black" points="270,-228.5 270,-247.5 416,-247.5 416,-228.5 270,-228.5"/>
<text text-anchor="middle" x="343" y="-235.5" font-family="Helvetica,sans-Serif" font-size="10.00">Ogre::InvalidCallException</text>
</a>
</g>
</g>
<!-- Node0&#45;&gt;Node4 -->
<g id="edge5" class="edge">
<title>Node0&#45;&gt;Node4</title>
<path fill="none" stroke="midnightblue" d="M196.88,-195.33C212.59,-203.23 233.01,-212.69 252,-219 263.21,-222.73 275.46,-225.89 287.22,-228.5"/>
<polygon fill="midnightblue" stroke="midnightblue" points="198.26,-192.11 187.76,-190.66 195.06,-198.34 198.26,-192.11"/>
</g>
<!-- Node5 -->
<g id="node7" class="node">
<title>Node5</title>
<g id="a_node7"><a xlink:href="class_ogre_1_1_invalid_parameters_exception.html" target="_top" xlink:title=" ">
<polygon fill="none" stroke="black" points="252,-190.5 252,-209.5 434,-209.5 434,-190.5 252,-190.5"/>
<text text-anchor="middle" x="343" y="-197.5" font-family="Helvetica,sans-Serif" font-size="10.00">Ogre::InvalidParametersException</text>
</a>
</g>
</g>
<!-- Node0&#45;&gt;Node5 -->
<g id="edge6" class="edge">
<title>Node0&#45;&gt;Node5</title>
<path fill="none" stroke="midnightblue" d="M226.2,-187.21C235.74,-188.26 245.83,-189.38 255.93,-190.49"/>
<polygon fill="midnightblue" stroke="midnightblue" points="226.42,-183.71 216.09,-186.09 225.65,-190.67 226.42,-183.71"/>
</g>
<!-- Node6 -->
<g id="node8" class="node">
<title>Node6</title>
<g id="a_node8"><a xlink:href="class_ogre_1_1_invalid_state_exception.html" target="_top" xlink:title=" ">
<polygon fill="none" stroke="black" points="267,-152.5 267,-171.5 419,-171.5 419,-152.5 267,-152.5"/>
<text text-anchor="middle" x="343" y="-159.5" font-family="Helvetica,sans-Serif" font-size="10.00">Ogre::InvalidStateException</text>
</a>
</g>
</g>
<!-- Node0&#45;&gt;Node6 -->
<g id="edge7" class="edge">
<title>Node0&#45;&gt;Node6</title>
<path fill="none" stroke="midnightblue" d="M226.25,-174.79C239.23,-173.35 253.24,-171.8 266.88,-170.3"/>
<polygon fill="midnightblue" stroke="midnightblue" points="225.65,-171.33 216.09,-175.91 226.42,-178.29 225.65,-171.33"/>
</g>
<!-- Node7 -->
<g id="node9" class="node">
<title>Node7</title>
<g id="a_node9"><a xlink:href="class_ogre_1_1_item_identity_exception.html" target="_top" xlink:title=" ">
<polygon fill="none" stroke="black" points="266,-114.5 266,-133.5 420,-133.5 420,-114.5 266,-114.5"/>
<text text-anchor="middle" x="343" y="-121.5" font-family="Helvetica,sans-Serif" font-size="10.00">Ogre::ItemIdentityException</text>
</a>
</g>
</g>
<!-- Node0&#45;&gt;Node7 -->
<g id="edge8" class="edge">
<title>Node0&#45;&gt;Node7</title>
<path fill="none" stroke="midnightblue" d="M196.88,-166.67C212.59,-158.77 233.01,-149.31 252,-143 263.21,-139.27 275.46,-136.11 287.22,-133.5"/>
<polygon fill="midnightblue" stroke="midnightblue" points="195.06,-163.66 187.76,-171.34 198.26,-169.89 195.06,-163.66"/>
</g>
<!-- Node8 -->
<g id="node10" class="node">
<title>Node8</title>
<g id="a_node10"><a xlink:href="class_ogre_1_1_rendering_a_p_i_exception.html" target="_top" xlink:title=" ">
<polygon fill="none" stroke="black" points="263.5,-76.5 263.5,-95.5 422.5,-95.5 422.5,-76.5 263.5,-76.5"/>
<text text-anchor="middle" x="343" y="-83.5" font-family="Helvetica,sans-Serif" font-size="10.00">Ogre::RenderingAPIException</text>
</a>
</g>
</g>
<!-- Node0&#45;&gt;Node8 -->
<g id="edge9" class="edge">
<title>Node0&#45;&gt;Node8</title>
<path fill="none" stroke="midnightblue" d="M183.87,-163.49C198.79,-145.91 224.15,-119.42 252,-105 259.52,-101.11 267.78,-98.01 276.15,-95.55"/>
<polygon fill="midnightblue" stroke="midnightblue" points="181.09,-161.37 177.42,-171.31 186.49,-165.82 181.09,-161.37"/>
</g>
<!-- Node9 -->
<g id="node11" class="node">
<title>Node9</title>
<g id="a_node11"><a xlink:href="class_ogre_1_1_runtime_assertion_exception.html" target="_top" xlink:title=" ">
<polygon fill="none" stroke="black" points="252.5,-38.5 252.5,-57.5 433.5,-57.5 433.5,-38.5 252.5,-38.5"/>
<text text-anchor="middle" x="343" y="-45.5" font-family="Helvetica,sans-Serif" font-size="10.00">Ogre::RuntimeAssertionException</text>
</a>
</g>
</g>
<!-- Node0&#45;&gt;Node9 -->
<g id="edge10" class="edge">
<title>Node0&#45;&gt;Node9</title>
<path fill="none" stroke="midnightblue" d="M178.19,-162.06C190.36,-136.27 215.76,-90.62 252,-67 257.89,-63.16 264.41,-60.08 271.17,-57.62"/>
<polygon fill="midnightblue" stroke="midnightblue" points="174.99,-160.63 174.04,-171.18 181.37,-163.52 174.99,-160.63"/>
</g>
<!-- Node10 -->
<g id="node12" class="node">
<title>Node10</title>
<g id="a_node12"><a xlink:href="class_ogre_1_1_unimplemented_exception.html" target="_top" xlink:title="Template struct which creates a distinct type for each exception code.">
<polygon fill="none" stroke="black" points="256.5,-0.5 256.5,-19.5 429.5,-19.5 429.5,-0.5 256.5,-0.5"/>
<text text-anchor="middle" x="343" y="-7.5" font-family="Helvetica,sans-Serif" font-size="10.00">Ogre::UnimplementedException</text>
</a>
</g>
</g>
<!-- Node0&#45;&gt;Node10 -->
<g id="edge11" class="edge">
<title>Node0&#45;&gt;Node10</title>
<path fill="none" stroke="midnightblue" d="M174.76,-161.55C183.85,-128.75 206.91,-62.72 252,-29 257.12,-25.17 262.83,-22.08 268.83,-19.58"/>
<polygon fill="midnightblue" stroke="midnightblue" points="171.35,-160.75 172.2,-171.31 178.12,-162.52 171.35,-160.75"/>
</g>
</g>
</svg>
