<?xml version="1.0" encoding="UTF-8" standalone="no"?>
<!DOCTYPE svg PUBLIC "-//W3C//DTD SVG 1.1//EN"
 "http://www.w3.org/Graphics/SVG/1.1/DTD/svg11.dtd">
<!-- Generated by graphviz version 7.0.5 (20221223.1930)
 -->
<!-- Title: Graphical Class Hierarchy Pages: 1 -->
<svg width="328pt" height="86pt"
 viewBox="0.00 0.00 328.00 86.00" xmlns="http://www.w3.org/2000/svg" xmlns:xlink="http://www.w3.org/1999/xlink">
<g id="graph0" class="graph" transform="scale(1 1) rotate(0) translate(4 82)">
<title>Graphical Class Hierarchy</title>
<!-- Node0 -->
<g id="node1" class="node">
<title>Node0</title>
<g id="a_node1"><a xlink:title=" ">
<polygon fill="#e0e0e0" stroke="#999999" points="119,-48.5 0,-48.5 0,-29.5 119,-29.5 119,-48.5"/>
<text text-anchor="middle" x="59.5" y="-36.5" font-family="Helvetica,sans-Serif" font-size="10.00">HardwareUniformBuffer</text>
</a>
</g>
</g>
<!-- Node1 -->
<g id="node2" class="node">
<title>Node1</title>
<g id="a_node2"><a xlink:href="class_ogre_1_1v1_1_1_g_l_e_s2_default_hardware_uniform_buffer.html" target="_top" xlink:title="Specialisation of HardwareUniformBuffer for emulation.">
<polygon fill="white" stroke="#666666" points="318,-78 157,-78 157,-48 318,-48 318,-78"/>
<text text-anchor="start" x="165" y="-66" font-family="Helvetica,sans-Serif" font-size="10.00">Ogre::v1::GLES2DefaultHardware</text>
<text text-anchor="middle" x="237.5" y="-55" font-family="Helvetica,sans-Serif" font-size="10.00">UniformBuffer</text>
</a>
</g>
</g>
<!-- Node0&#45;&gt;Node1 -->
<g id="edge1" class="edge">
<title>Node0&#45;&gt;Node1</title>
<path fill="none" stroke="#63b8ff" d="M130.27,-48.51C138.9,-49.69 147.77,-50.9 156.53,-52.1"/>
<polygon fill="#63b8ff" stroke="#63b8ff" points="130.99,-45.08 120.61,-47.2 130.04,-52.02 130.99,-45.08"/>
</g>
<!-- Node2 -->
<g id="node3" class="node">
<title>Node2</title>
<g id="a_node3"><a xlink:href="class_ogre_1_1v1_1_1_g_l_e_s2_hardware_uniform_buffer.html" target="_top" xlink:title="Specialisation of HardwareUniformBuffer for OpenGL.">
<polygon fill="white" stroke="#666666" points="320,-30 155,-30 155,0 320,0 320,-30"/>
<text text-anchor="start" x="163" y="-18" font-family="Helvetica,sans-Serif" font-size="10.00">Ogre::v1::GLES2HardwareUniform</text>
<text text-anchor="middle" x="237.5" y="-7" font-family="Helvetica,sans-Serif" font-size="10.00">Buffer</text>
</a>
</g>
</g>
<!-- Node0&#45;&gt;Node2 -->
<g id="edge2" class="edge">
<title>Node0&#45;&gt;Node2</title>
<path fill="none" stroke="#63b8ff" d="M130.26,-29.49C138.27,-28.4 146.49,-27.27 154.64,-26.16"/>
<polygon fill="#63b8ff" stroke="#63b8ff" points="130.04,-25.98 120.61,-30.8 130.99,-32.92 130.04,-25.98"/>
</g>
</g>
</svg>
