<?xml version="1.0" encoding="UTF-8" standalone="no"?>
<!DOCTYPE svg PUBLIC "-//W3C//DTD SVG 1.1//EN"
 "http://www.w3.org/Graphics/SVG/1.1/DTD/svg11.dtd">
<!-- Generated by graphviz version 2.43.0 (0)
 -->
<!-- Title: Graphical Class Hierarchy Pages: 1 -->
<svg width="345pt" height="64pt"
 viewBox="0.00 0.00 345.00 64.00" xmlns="http://www.w3.org/2000/svg" xmlns:xlink="http://www.w3.org/1999/xlink">
<g id="graph0" class="graph" transform="scale(1 1) rotate(0) translate(4 60)">
<title>Graphical Class Hierarchy</title>
<!-- Node0 -->
<g id="Node000000" class="node">
<title>Node0</title>
<g id="a_Node000000"><a xlink:href="class_ogre_1_1_page_strategy_data.html" target="_top" xlink:title="Abstract marker class representing the data held against the PagedWorldSection which is specifically ...">
<polygon fill="white" stroke="#666666" points="134,-37 0,-37 0,-18 134,-18 134,-37"/>
<text text-anchor="middle" x="67" y="-25" font-family="Helvetica,sans-Serif" font-size="10.00">Ogre::PageStrategyData</text>
</a>
</g>
</g>
<!-- Node1 -->
<g id="Node000001" class="node">
<title>Node1</title>
<g id="a_Node000001"><a xlink:href="class_ogre_1_1_grid2_d_page_strategy_data.html" target="_top" xlink:title="Specialisation of PageStrategyData for Grid2DPageStrategy.">
<polygon fill="white" stroke="#666666" points="337,-56 170,-56 170,-37 337,-37 337,-56"/>
<text text-anchor="middle" x="253.5" y="-44" font-family="Helvetica,sans-Serif" font-size="10.00">Ogre::Grid2DPageStrategyData</text>
</a>
</g>
</g>
<!-- Node0&#45;&gt;Node1 -->
<g id="edge924_Node000000_Node000001" class="edge">
<title>Node0&#45;&gt;Node1</title>
<g id="a_edge924_Node000000_Node000001"><a xlink:title=" ">
<path fill="none" stroke="#63b8ff" d="M144.26,-35.35C152.69,-36.22 161.31,-37.11 169.81,-37.98"/>
<polygon fill="#63b8ff" stroke="#63b8ff" points="144.39,-31.85 134.09,-34.31 143.68,-38.81 144.39,-31.85"/>
</a>
</g>
</g>
<!-- Node2 -->
<g id="Node000002" class="node">
<title>Node2</title>
<g id="a_Node000002"><a xlink:href="class_ogre_1_1_grid3_d_page_strategy_data.html" target="_top" xlink:title="Specialisation of PageStrategyData for Grid3DPageStrategy.">
<polygon fill="white" stroke="#666666" points="337,-19 170,-19 170,0 337,0 337,-19"/>
<text text-anchor="middle" x="253.5" y="-7" font-family="Helvetica,sans-Serif" font-size="10.00">Ogre::Grid3DPageStrategyData</text>
</a>
</g>
</g>
<!-- Node0&#45;&gt;Node2 -->
<g id="edge925_Node000000_Node000002" class="edge">
<title>Node0&#45;&gt;Node2</title>
<g id="a_edge925_Node000000_Node000002"><a xlink:title=" ">
<path fill="none" stroke="#63b8ff" d="M144.26,-20.06C152.69,-19.24 161.31,-18.4 169.81,-17.57"/>
<polygon fill="#63b8ff" stroke="#63b8ff" points="143.7,-16.6 134.09,-21.05 144.38,-23.56 143.7,-16.6"/>
</a>
</g>
</g>
</g>
</svg>
