<?xml version="1.0" encoding="UTF-8" standalone="no"?>
<!DOCTYPE svg PUBLIC "-//W3C//DTD SVG 1.1//EN"
 "http://www.w3.org/Graphics/SVG/1.1/DTD/svg11.dtd">
<!-- Generated by graphviz version 2.43.0 (0)
 -->
<!-- Title: Graphical Class Hierarchy Pages: 1 -->
<svg width="556pt" height="186pt"
 viewBox="0.00 0.00 556.00 186.00" xmlns="http://www.w3.org/2000/svg" xmlns:xlink="http://www.w3.org/1999/xlink">
<g id="graph0" class="graph" transform="scale(1 1) rotate(0) translate(4 182)">
<title>Graphical Class Hierarchy</title>
<!-- Node0 -->
<g id="node1" class="node">
<title>Node0</title>
<g id="a_node1"><a xlink:href="class_ogre_1_1_iterator_wrapper.html" target="_top" xlink:title="Basefunctionality for IteratorWrappers.">
<polygon fill="none" stroke="black" points="0,-73.5 0,-103.5 153,-103.5 153,-73.5 0,-73.5"/>
<text text-anchor="start" x="8" y="-91.5" font-family="Helvetica,sans-Serif" font-size="10.00">Ogre::IteratorWrapper</text>
<text text-anchor="middle" x="76.5" y="-80.5" font-family="Helvetica,sans-Serif" font-size="10.00">&lt; T, IteratorType, ValType &gt;</text>
</a>
</g>
</g>
<!-- Node1 -->
<g id="node2" class="node">
<title>Node1</title>
<g id="a_node2"><a xlink:href="class_ogre_1_1_map_iterator_wrapper.html" target="_top" xlink:title=" ">
<polygon fill="none" stroke="black" points="194,-147.5 194,-177.5 338,-177.5 338,-147.5 194,-147.5"/>
<text text-anchor="start" x="202" y="-165.5" font-family="Helvetica,sans-Serif" font-size="10.00">Ogre::MapIteratorWrapper</text>
<text text-anchor="middle" x="266" y="-154.5" font-family="Helvetica,sans-Serif" font-size="10.00">&lt; T, T::iterator &gt;</text>
</a>
</g>
</g>
<!-- Node0&#45;&gt;Node1 -->
<g id="edge1" class="edge">
<title>Node0&#45;&gt;Node1</title>
<path fill="none" stroke="midnightblue" d="M118.04,-108.04C138.99,-117.79 165.1,-129.4 189,-138.5 197.15,-141.6 205.89,-144.63 214.43,-147.43"/>
<polygon fill="midnightblue" stroke="midnightblue" points="119.35,-104.79 108.81,-103.71 116.38,-111.13 119.35,-104.79"/>
</g>
<!-- Node3 -->
<g id="node4" class="node">
<title>Node3</title>
<g id="a_node4"><a xlink:href="class_ogre_1_1_map_iterator_wrapper.html" target="_top" xlink:title=" ">
<polygon fill="none" stroke="black" points="194,-98.5 194,-128.5 338,-128.5 338,-98.5 194,-98.5"/>
<text text-anchor="start" x="202" y="-116.5" font-family="Helvetica,sans-Serif" font-size="10.00">Ogre::MapIteratorWrapper</text>
<text text-anchor="middle" x="266" y="-105.5" font-family="Helvetica,sans-Serif" font-size="10.00">&lt; T, T::const_iterator &gt;</text>
</a>
</g>
</g>
<!-- Node0&#45;&gt;Node3 -->
<g id="edge3" class="edge">
<title>Node0&#45;&gt;Node3</title>
<path fill="none" stroke="midnightblue" d="M163.36,-99.95C173.56,-101.31 183.89,-102.69 193.85,-104.01"/>
<polygon fill="midnightblue" stroke="midnightblue" points="163.6,-96.45 153.22,-98.6 162.67,-103.39 163.6,-96.45"/>
</g>
<!-- Node5 -->
<g id="node6" class="node">
<title>Node5</title>
<g id="a_node6"><a xlink:href="class_ogre_1_1_vector_iterator_wrapper.html" target="_top" xlink:title=" ">
<polygon fill="none" stroke="black" points="189,-49.5 189,-79.5 343,-79.5 343,-49.5 189,-49.5"/>
<text text-anchor="start" x="197" y="-67.5" font-family="Helvetica,sans-Serif" font-size="10.00">Ogre::VectorIteratorWrapper</text>
<text text-anchor="middle" x="266" y="-56.5" font-family="Helvetica,sans-Serif" font-size="10.00">&lt; T, T::iterator &gt;</text>
</a>
</g>
</g>
<!-- Node0&#45;&gt;Node5 -->
<g id="edge5" class="edge">
<title>Node0&#45;&gt;Node5</title>
<path fill="none" stroke="midnightblue" d="M163.25,-77.52C171.84,-76.42 180.52,-75.31 188.99,-74.23"/>
<polygon fill="midnightblue" stroke="midnightblue" points="162.7,-74.07 153.22,-78.81 163.59,-81.01 162.7,-74.07"/>
</g>
<!-- Node7 -->
<g id="node8" class="node">
<title>Node7</title>
<g id="a_node8"><a xlink:href="class_ogre_1_1_vector_iterator_wrapper.html" target="_top" xlink:title=" ">
<polygon fill="none" stroke="black" points="189,-0.5 189,-30.5 343,-30.5 343,-0.5 189,-0.5"/>
<text text-anchor="start" x="197" y="-18.5" font-family="Helvetica,sans-Serif" font-size="10.00">Ogre::VectorIteratorWrapper</text>
<text text-anchor="middle" x="266" y="-7.5" font-family="Helvetica,sans-Serif" font-size="10.00">&lt; T, T::const_iterator &gt;</text>
</a>
</g>
</g>
<!-- Node0&#45;&gt;Node7 -->
<g id="edge7" class="edge">
<title>Node0&#45;&gt;Node7</title>
<path fill="none" stroke="midnightblue" d="M119.53,-69.36C140.26,-60.19 165.76,-49.31 189,-40.5 197.96,-37.1 207.61,-33.72 216.93,-30.6"/>
<polygon fill="midnightblue" stroke="midnightblue" points="118.07,-66.18 110.36,-73.44 120.92,-72.57 118.07,-66.18"/>
</g>
<!-- Node2 -->
<g id="node3" class="node">
<title>Node2</title>
<g id="a_node3"><a xlink:href="class_ogre_1_1_map_iterator.html" target="_top" xlink:title="Concrete IteratorWrapper for nonconst access to the underlying key&#45;value container.">
<polygon fill="none" stroke="black" points="398,-153 398,-172 529,-172 529,-153 398,-153"/>
<text text-anchor="middle" x="463.5" y="-160" font-family="Helvetica,sans-Serif" font-size="10.00">Ogre::MapIterator&lt; T &gt;</text>
</a>
</g>
</g>
<!-- Node1&#45;&gt;Node2 -->
<g id="edge2" class="edge">
<title>Node1&#45;&gt;Node2</title>
<path fill="none" stroke="midnightblue" d="M348.33,-162.5C364.86,-162.5 382.05,-162.5 397.91,-162.5"/>
<polygon fill="midnightblue" stroke="midnightblue" points="348.13,-159 338.13,-162.5 348.13,-166 348.13,-159"/>
</g>
<!-- Node4 -->
<g id="node5" class="node">
<title>Node4</title>
<g id="a_node5"><a xlink:href="class_ogre_1_1_const_map_iterator.html" target="_top" xlink:title="Concrete IteratorWrapper for const access to the underlying key&#45;value container.">
<polygon fill="none" stroke="black" points="384,-104 384,-123 543,-123 543,-104 384,-104"/>
<text text-anchor="middle" x="463.5" y="-111" font-family="Helvetica,sans-Serif" font-size="10.00">Ogre::ConstMapIterator&lt; T &gt;</text>
</a>
</g>
</g>
<!-- Node3&#45;&gt;Node4 -->
<g id="edge4" class="edge">
<title>Node3&#45;&gt;Node4</title>
<path fill="none" stroke="midnightblue" d="M348.34,-113.5C360.08,-113.5 372.14,-113.5 383.82,-113.5"/>
<polygon fill="midnightblue" stroke="midnightblue" points="348.13,-110 338.13,-113.5 348.13,-117 348.13,-110"/>
</g>
<!-- Node6 -->
<g id="node7" class="node">
<title>Node6</title>
<g id="a_node7"><a xlink:href="class_ogre_1_1_vector_iterator.html" target="_top" xlink:title="Concrete IteratorWrapper for nonconst access to the underlying container.">
<polygon fill="none" stroke="black" points="393,-55 393,-74 534,-74 534,-55 393,-55"/>
<text text-anchor="middle" x="463.5" y="-62" font-family="Helvetica,sans-Serif" font-size="10.00">Ogre::VectorIterator&lt; T &gt;</text>
</a>
</g>
</g>
<!-- Node5&#45;&gt;Node6 -->
<g id="edge6" class="edge">
<title>Node5&#45;&gt;Node6</title>
<path fill="none" stroke="midnightblue" d="M353.23,-64.5C366.51,-64.5 380.08,-64.5 392.94,-64.5"/>
<polygon fill="midnightblue" stroke="midnightblue" points="353.15,-61 343.15,-64.5 353.15,-68 353.15,-61"/>
</g>
<!-- Node8 -->
<g id="node9" class="node">
<title>Node8</title>
<g id="a_node9"><a xlink:href="class_ogre_1_1_const_vector_iterator.html" target="_top" xlink:title="Concrete IteratorWrapper for const access to the underlying container.">
<polygon fill="none" stroke="black" points="379,-6 379,-25 548,-25 548,-6 379,-6"/>
<text text-anchor="middle" x="463.5" y="-13" font-family="Helvetica,sans-Serif" font-size="10.00">Ogre::ConstVectorIterator&lt; T &gt;</text>
</a>
</g>
</g>
<!-- Node7&#45;&gt;Node8 -->
<g id="edge8" class="edge">
<title>Node7&#45;&gt;Node8</title>
<path fill="none" stroke="midnightblue" d="M353.37,-15.5C361.81,-15.5 370.37,-15.5 378.79,-15.5"/>
<polygon fill="midnightblue" stroke="midnightblue" points="353.15,-12 343.15,-15.5 353.15,-19 353.15,-12"/>
</g>
</g>
</svg>
