<?xml version="1.0" encoding="UTF-8" standalone="no"?>
<!DOCTYPE svg PUBLIC "-//W3C//DTD SVG 1.1//EN"
 "http://www.w3.org/Graphics/SVG/1.1/DTD/svg11.dtd">
<!-- Generated by graphviz version 7.0.5 (20221223.1930)
 -->
<!-- Title: Ogre::VertexArrayObject Pages: 1 -->
<svg width="472pt" height="150pt"
 viewBox="0.00 0.00 472.00 150.00" xmlns="http://www.w3.org/2000/svg" xmlns:xlink="http://www.w3.org/1999/xlink">
<g id="graph0" class="graph" transform="scale(1 1) rotate(0) translate(4 146)">
<title>Ogre::VertexArrayObject</title>
<!-- Node1 -->
<g id="node1" class="node">
<title>Node1</title>
<g id="a_node1"><a xlink:title="Vertex array objects (Vaos) are immutable objects that describe a combination of vertex buffers and i...">
<polygon fill="#999999" stroke="#666666" points="276,-77 155,-77 155,-58 276,-58 276,-77"/>
<text text-anchor="middle" x="215.5" y="-65" font-family="Helvetica,sans-Serif" font-size="10.00">Ogre::VertexArrayObject</text>
</a>
</g>
</g>
<!-- Node3 -->
<g id="node3" class="node">
<title>Node3</title>
<g id="a_node3"><a xlink:href="struct_ogre_1_1_d3_d11_vertex_array_object.html" target="_top" xlink:title=" ">
<polygon fill="white" stroke="#666666" points="463,-142 313,-142 313,-123 463,-123 463,-142"/>
<text text-anchor="middle" x="388" y="-130" font-family="Helvetica,sans-Serif" font-size="10.00">Ogre::D3D11VertexArrayObject</text>
</a>
</g>
</g>
<!-- Node1&#45;&gt;Node3 -->
<g id="edge2" class="edge">
<title>Node1&#45;&gt;Node3</title>
<path fill="none" stroke="#63b8ff" d="M244.25,-82.7C262.97,-92.5 288.47,-104.95 312,-113.5 321.47,-116.94 331.83,-120 341.74,-122.6"/>
<polygon fill="#63b8ff" stroke="#63b8ff" points="246.15,-79.75 235.67,-78.14 242.86,-85.93 246.15,-79.75"/>
</g>
<!-- Node4 -->
<g id="node4" class="node">
<title>Node4</title>
<g id="a_node4"><a xlink:href="struct_ogre_1_1_g_l3_plus_vertex_array_object.html" target="_top" xlink:title=" ">
<polygon fill="white" stroke="#666666" points="453.5,-104.5 322.5,-104.5 322.5,-74.5 453.5,-74.5 453.5,-104.5"/>
<text text-anchor="start" x="330.5" y="-92.5" font-family="Helvetica,sans-Serif" font-size="10.00">Ogre::GL3PlusVertexArray</text>
<text text-anchor="middle" x="388" y="-81.5" font-family="Helvetica,sans-Serif" font-size="10.00">Object</text>
</a>
</g>
</g>
<!-- Node1&#45;&gt;Node4 -->
<g id="edge3" class="edge">
<title>Node1&#45;&gt;Node4</title>
<path fill="none" stroke="#63b8ff" d="M287.48,-76.66C298.98,-78.14 310.83,-79.67 322.17,-81.14"/>
<polygon fill="#63b8ff" stroke="#63b8ff" points="288,-73.2 277.63,-75.39 287.1,-80.14 288,-73.2"/>
</g>
<!-- Node5 -->
<g id="node5" class="node">
<title>Node5</title>
<g id="a_node5"><a xlink:href="struct_ogre_1_1_g_l_e_s2_vertex_array_object.html" target="_top" xlink:title=" ">
<polygon fill="white" stroke="#666666" points="464,-56 312,-56 312,-37 464,-37 464,-56"/>
<text text-anchor="middle" x="388" y="-44" font-family="Helvetica,sans-Serif" font-size="10.00">Ogre::GLES2VertexArrayObject</text>
</a>
</g>
</g>
<!-- Node1&#45;&gt;Node5 -->
<g id="edge4" class="edge">
<title>Node1&#45;&gt;Node5</title>
<path fill="none" stroke="#63b8ff" d="M287.29,-58.78C295.29,-57.8 303.46,-56.79 311.51,-55.8"/>
<polygon fill="#63b8ff" stroke="#63b8ff" points="287.13,-55.27 277.63,-59.97 287.99,-62.22 287.13,-55.27"/>
</g>
<!-- Node6 -->
<g id="node6" class="node">
<title>Node6</title>
<g id="a_node6"><a xlink:href="struct_ogre_1_1_n_u_l_l_vertex_array_object.html" target="_top" xlink:title=" ">
<polygon fill="white" stroke="#666666" points="462,-19 314,-19 314,0 462,0 462,-19"/>
<text text-anchor="middle" x="388" y="-7" font-family="Helvetica,sans-Serif" font-size="10.00">Ogre::NULLVertexArrayObject</text>
</a>
</g>
</g>
<!-- Node1&#45;&gt;Node6 -->
<g id="edge5" class="edge">
<title>Node1&#45;&gt;Node6</title>
<path fill="none" stroke="#63b8ff" d="M247.79,-52.89C266.21,-44.67 290.11,-34.66 312,-27.5 321.04,-24.54 330.83,-21.84 340.26,-19.48"/>
<polygon fill="#63b8ff" stroke="#63b8ff" points="246.42,-49.67 238.75,-56.98 249.3,-56.05 246.42,-49.67"/>
</g>
<!-- Node2 -->
<g id="node2" class="node">
<title>Node2</title>
<g id="a_node2"><a xlink:title=" ">
<polygon fill="white" stroke="#666666" points="119,-77 0,-77 0,-58 119,-58 119,-77"/>
<text text-anchor="middle" x="59.5" y="-65" font-family="Helvetica,sans-Serif" font-size="10.00">Ogre::OgreAllocatedObj</text>
</a>
</g>
</g>
<!-- Node2&#45;&gt;Node1 -->
<g id="edge1" class="edge">
<title>Node2&#45;&gt;Node1</title>
<path fill="none" stroke="#63b8ff" d="M130.5,-67.5C138.59,-67.5 146.79,-67.5 154.73,-67.5"/>
<polygon fill="#63b8ff" stroke="#63b8ff" points="130.67,-64 120.67,-67.5 130.67,-71 130.67,-64"/>
</g>
</g>
</svg>
