<?xml version="1.0" encoding="UTF-8" standalone="no"?>
<!DOCTYPE svg PUBLIC "-//W3C//DTD SVG 1.1//EN"
 "http://www.w3.org/Graphics/SVG/1.1/DTD/svg11.dtd">
<!-- Generated by graphviz version 3.0.0 (20220413.0242)
 -->
<!-- Title: Ogre::VertexArrayObject Pages: 1 -->
<svg width="446pt" height="154pt"
 viewBox="0.00 0.00 446.00 154.00" xmlns="http://www.w3.org/2000/svg" xmlns:xlink="http://www.w3.org/1999/xlink">
<g id="graph0" class="graph" transform="scale(1 1) rotate(0) translate(4 150)">
<title>Ogre::VertexArrayObject</title>
<!-- Node1 -->
<g id="node1" class="node">
<title>Node1</title>
<g id="a_node1"><a xlink:title="Vertex array objects (Vaos) are immutable objects that describe a combination of vertex buffers and i...">
<polygon fill="#bfbfbf" stroke="black" points="129,-60.5 129,-79.5 250,-79.5 250,-60.5 129,-60.5"/>
<text text-anchor="middle" x="189.5" y="-67.5" font-family="Helvetica,sans-Serif" font-size="10.00">Ogre::VertexArrayObject</text>
</a>
</g>
</g>
<!-- Node3 -->
<g id="node3" class="node">
<title>Node3</title>
<g id="a_node3"><a xlink:href="struct_ogre_1_1_d3_d11_vertex_array_object.html" target="_top" xlink:title=" ">
<polygon fill="none" stroke="black" points="287,-126.5 287,-145.5 437,-145.5 437,-126.5 287,-126.5"/>
<text text-anchor="middle" x="362" y="-133.5" font-family="Helvetica,sans-Serif" font-size="10.00">Ogre::D3D11VertexArrayObject</text>
</a>
</g>
</g>
<!-- Node1&#45;&gt;Node3 -->
<g id="edge2" class="edge">
<title>Node1&#45;&gt;Node3</title>
<path fill="none" stroke="midnightblue" d="M216.14,-84.45C235,-94.63 261.52,-107.99 286,-117 295.83,-120.62 306.64,-123.8 316.91,-126.47"/>
<polygon fill="midnightblue" stroke="midnightblue" points="217.73,-81.33 207.28,-79.6 214.37,-87.47 217.73,-81.33"/>
</g>
<!-- Node4 -->
<g id="node4" class="node">
<title>Node4</title>
<g id="a_node4"><a xlink:href="struct_ogre_1_1_g_l3_plus_vertex_array_object.html" target="_top" xlink:title=" ">
<polygon fill="none" stroke="black" points="296.5,-77 296.5,-107 427.5,-107 427.5,-77 296.5,-77"/>
<text text-anchor="start" x="304.5" y="-95" font-family="Helvetica,sans-Serif" font-size="10.00">Ogre::GL3PlusVertexArray</text>
<text text-anchor="middle" x="362" y="-84" font-family="Helvetica,sans-Serif" font-size="10.00">Object</text>
</a>
</g>
</g>
<!-- Node1&#45;&gt;Node4 -->
<g id="edge3" class="edge">
<title>Node1&#45;&gt;Node4</title>
<path fill="none" stroke="midnightblue" d="M260.11,-78.98C272.13,-80.53 284.58,-82.14 296.47,-83.67"/>
<polygon fill="midnightblue" stroke="midnightblue" points="260.5,-75.5 250.13,-77.69 259.6,-82.45 260.5,-75.5"/>
</g>
<!-- Node5 -->
<g id="node5" class="node">
<title>Node5</title>
<g id="a_node5"><a xlink:href="struct_ogre_1_1_g_l_e_s2_vertex_array_object.html" target="_top" xlink:title=" ">
<polygon fill="none" stroke="black" points="286,-38.5 286,-57.5 438,-57.5 438,-38.5 286,-38.5"/>
<text text-anchor="middle" x="362" y="-45.5" font-family="Helvetica,sans-Serif" font-size="10.00">Ogre::GLES2VertexArrayObject</text>
</a>
</g>
</g>
<!-- Node1&#45;&gt;Node5 -->
<g id="edge4" class="edge">
<title>Node1&#45;&gt;Node5</title>
<path fill="none" stroke="midnightblue" d="M260.12,-61.02C269.08,-59.86 278.28,-58.67 287.3,-57.51"/>
<polygon fill="midnightblue" stroke="midnightblue" points="259.6,-57.55 250.13,-62.31 260.5,-64.5 259.6,-57.55"/>
</g>
<!-- Node6 -->
<g id="node6" class="node">
<title>Node6</title>
<g id="a_node6"><a xlink:href="struct_ogre_1_1_n_u_l_l_vertex_array_object.html" target="_top" xlink:title=" ">
<polygon fill="none" stroke="black" points="288,-0.5 288,-19.5 436,-19.5 436,-0.5 288,-0.5"/>
<text text-anchor="middle" x="362" y="-7.5" font-family="Helvetica,sans-Serif" font-size="10.00">Ogre::NULLVertexArrayObject</text>
</a>
</g>
</g>
<!-- Node1&#45;&gt;Node6 -->
<g id="edge5" class="edge">
<title>Node1&#45;&gt;Node6</title>
<path fill="none" stroke="midnightblue" d="M219.42,-56.17C238.12,-47.58 263.15,-36.74 286,-29 296.43,-25.46 307.88,-22.24 318.61,-19.5"/>
<polygon fill="midnightblue" stroke="midnightblue" points="217.86,-53.04 210.26,-60.43 220.81,-59.39 217.86,-53.04"/>
</g>
<!-- Node2 -->
<g id="node2" class="node">
<title>Node2</title>
<g id="a_node2"><a xlink:href="class_ogre_1_1_allocated_object.html" target="_top" xlink:title="Superclass for all objects that wish to use custom memory allocators when their new / delete operator...">
<polygon fill="none" stroke="black" points="0,-60.5 0,-79.5 93,-79.5 93,-60.5 0,-60.5"/>
<text text-anchor="middle" x="46.5" y="-67.5" font-family="Helvetica,sans-Serif" font-size="10.00">OgreAllocatedObj</text>
</a>
</g>
</g>
<!-- Node2&#45;&gt;Node1 -->
<g id="edge1" class="edge">
<title>Node2&#45;&gt;Node1</title>
<path fill="none" stroke="midnightblue" d="M103.32,-70C111.7,-70 120.37,-70 128.83,-70"/>
<polygon fill="midnightblue" stroke="midnightblue" points="103.28,-66.5 93.28,-70 103.28,-73.5 103.28,-66.5"/>
</g>
</g>
</svg>
