<?xml version="1.0" encoding="UTF-8" standalone="no"?>
<!DOCTYPE svg PUBLIC "-//W3C//DTD SVG 1.1//EN"
 "http://www.w3.org/Graphics/SVG/1.1/DTD/svg11.dtd">
<!-- Generated by graphviz version 7.0.5 (20221223.1930)
 -->
<!-- Title: Ogre::CbBase Pages: 1 -->
<svg width="439pt" height="464pt"
 viewBox="0.00 0.00 439.00 463.50" xmlns="http://www.w3.org/2000/svg" xmlns:xlink="http://www.w3.org/1999/xlink">
<g id="graph0" class="graph" transform="scale(1 1) rotate(0) translate(4 459.5)">
<title>Ogre::CbBase</title>
<!-- Node1 -->
<g id="node1" class="node">
<title>Node1</title>
<g id="a_node1"><a xlink:title=" ">
<polygon fill="#999999" stroke="#666666" points="77,-233.5 0,-233.5 0,-214.5 77,-214.5 77,-233.5"/>
<text text-anchor="middle" x="38.5" y="-221.5" font-family="Helvetica,sans-Serif" font-size="10.00">Ogre::CbBase</text>
</a>
</g>
</g>
<!-- Node2 -->
<g id="node2" class="node">
<title>Node2</title>
<g id="a_node2"><a xlink:href="struct_ogre_1_1_cb_draw_call.html" target="_top" xlink:title=" ">
<polygon fill="white" stroke="#666666" points="229.5,-437.5 136.5,-437.5 136.5,-418.5 229.5,-418.5 229.5,-437.5"/>
<text text-anchor="middle" x="183" y="-425.5" font-family="Helvetica,sans-Serif" font-size="10.00">Ogre::CbDrawCall</text>
</a>
</g>
</g>
<!-- Node1&#45;&gt;Node2 -->
<g id="edge1" class="edge">
<title>Node1&#45;&gt;Node2</title>
<path fill="none" stroke="#63b8ff" d="M41.68,-245.16C46.81,-283.82 63.26,-365.95 113,-410 119.58,-415.83 127.82,-419.81 136.29,-422.52"/>
<polygon fill="#63b8ff" stroke="#63b8ff" points="45.17,-244.85 40.52,-235.33 38.21,-245.67 45.17,-244.85"/>
</g>
<!-- Node5 -->
<g id="node5" class="node">
<title>Node5</title>
<g id="a_node5"><a xlink:href="struct_ogre_1_1_cb_indirect_buffer.html" target="_top" xlink:title=" ">
<polygon fill="white" stroke="#666666" points="239,-400.5 127,-400.5 127,-381.5 239,-381.5 239,-400.5"/>
<text text-anchor="middle" x="183" y="-388.5" font-family="Helvetica,sans-Serif" font-size="10.00">Ogre::CbIndirectBuffer</text>
</a>
</g>
</g>
<!-- Node1&#45;&gt;Node5 -->
<g id="edge4" class="edge">
<title>Node1&#45;&gt;Node5</title>
<path fill="none" stroke="#63b8ff" d="M43.96,-244.97C51.97,-277.42 71.94,-339.54 113,-373 117.13,-376.36 121.81,-379.1 126.76,-381.34"/>
<polygon fill="#63b8ff" stroke="#63b8ff" points="47.37,-244.19 41.72,-235.23 40.55,-245.76 47.37,-244.19"/>
</g>
<!-- Node6 -->
<g id="node6" class="node">
<title>Node6</title>
<g id="a_node6"><a xlink:href="struct_ogre_1_1_cb_low_level_material.html" target="_top" xlink:title=" ">
<polygon fill="white" stroke="#666666" points="248.5,-363.5 117.5,-363.5 117.5,-344.5 248.5,-344.5 248.5,-363.5"/>
<text text-anchor="middle" x="183" y="-351.5" font-family="Helvetica,sans-Serif" font-size="10.00">Ogre::CbLowLevelMaterial</text>
</a>
</g>
</g>
<!-- Node1&#45;&gt;Node6 -->
<g id="edge5" class="edge">
<title>Node1&#45;&gt;Node6</title>
<path fill="none" stroke="#63b8ff" d="M47.43,-244.44C58.33,-269.81 80.38,-312.58 113,-336 117.53,-339.25 122.59,-341.91 127.87,-344.09"/>
<polygon fill="#63b8ff" stroke="#63b8ff" points="50.69,-243.17 43.66,-235.24 44.21,-245.82 50.69,-243.17"/>
</g>
<!-- Node7 -->
<g id="node7" class="node">
<title>Node7</title>
<g id="a_node7"><a xlink:href="struct_ogre_1_1_cb_pipeline_state_object.html" target="_top" xlink:title=" ">
<polygon fill="white" stroke="#666666" points="253,-326.5 113,-326.5 113,-307.5 253,-307.5 253,-326.5"/>
<text text-anchor="middle" x="183" y="-314.5" font-family="Helvetica,sans-Serif" font-size="10.00">Ogre::CbPipelineStateObject</text>
</a>
</g>
</g>
<!-- Node1&#45;&gt;Node7 -->
<g id="edge6" class="edge">
<title>Node1&#45;&gt;Node7</title>
<path fill="none" stroke="#63b8ff" d="M53.25,-243.03C66.63,-260.17 88.48,-284.78 113,-299 118.57,-302.23 124.72,-304.89 130.99,-307.08"/>
<polygon fill="#63b8ff" stroke="#63b8ff" points="56.13,-241.03 47.31,-235.15 50.54,-245.24 56.13,-241.03"/>
</g>
<!-- Node8 -->
<g id="node8" class="node">
<title>Node8</title>
<g id="a_node8"><a xlink:href="struct_ogre_1_1_cb_samplers.html" target="_top" xlink:title=" ">
<polygon fill="white" stroke="#666666" points="230.5,-289.5 135.5,-289.5 135.5,-270.5 230.5,-270.5 230.5,-289.5"/>
<text text-anchor="middle" x="183" y="-277.5" font-family="Helvetica,sans-Serif" font-size="10.00">Ogre::CbSamplers</text>
</a>
</g>
</g>
<!-- Node1&#45;&gt;Node8 -->
<g id="edge7" class="edge">
<title>Node1&#45;&gt;Node8</title>
<path fill="none" stroke="#63b8ff" d="M65.68,-239.34C79.43,-246.93 96.75,-255.77 113,-262 120.86,-265.01 129.41,-267.7 137.74,-270.01"/>
<polygon fill="#63b8ff" stroke="#63b8ff" points="67.69,-236.46 57.26,-234.59 64.25,-242.55 67.69,-236.46"/>
</g>
<!-- Node9 -->
<g id="node9" class="node">
<title>Node9</title>
<g id="a_node9"><a xlink:href="struct_ogre_1_1_cb_shader_buffer.html" target="_top" xlink:title=" ">
<polygon fill="white" stroke="#666666" points="238,-252.5 128,-252.5 128,-233.5 238,-233.5 238,-252.5"/>
<text text-anchor="middle" x="183" y="-240.5" font-family="Helvetica,sans-Serif" font-size="10.00">Ogre::CbShaderBuffer</text>
</a>
</g>
</g>
<!-- Node1&#45;&gt;Node9 -->
<g id="edge8" class="edge">
<title>Node1&#45;&gt;Node9</title>
<path fill="none" stroke="#63b8ff" d="M88.55,-230.54C101.15,-232.22 114.79,-234.04 127.64,-235.75"/>
<polygon fill="#63b8ff" stroke="#63b8ff" points="89.19,-227.09 78.81,-229.24 88.26,-234.03 89.19,-227.09"/>
</g>
<!-- Node10 -->
<g id="node10" class="node">
<title>Node10</title>
<g id="a_node10"><a xlink:href="struct_ogre_1_1_cb_texture.html" target="_top" xlink:title=" ">
<polygon fill="white" stroke="#666666" points="226,-215.5 140,-215.5 140,-196.5 226,-196.5 226,-215.5"/>
<text text-anchor="middle" x="183" y="-203.5" font-family="Helvetica,sans-Serif" font-size="10.00">Ogre::CbTexture</text>
</a>
</g>
</g>
<!-- Node1&#45;&gt;Node10 -->
<g id="edge9" class="edge">
<title>Node1&#45;&gt;Node10</title>
<path fill="none" stroke="#63b8ff" d="M88.51,-217.81C105.18,-215.7 123.64,-213.37 139.74,-211.34"/>
<polygon fill="#63b8ff" stroke="#63b8ff" points="88.3,-214.31 78.81,-219.03 89.17,-221.25 88.3,-214.31"/>
</g>
<!-- Node11 -->
<g id="node11" class="node">
<title>Node11</title>
<g id="a_node11"><a xlink:href="struct_ogre_1_1_cb_textures.html" target="_top" xlink:title=" ">
<polygon fill="white" stroke="#666666" points="229,-178.5 137,-178.5 137,-159.5 229,-159.5 229,-178.5"/>
<text text-anchor="middle" x="183" y="-166.5" font-family="Helvetica,sans-Serif" font-size="10.00">Ogre::CbTextures</text>
</a>
</g>
</g>
<!-- Node1&#45;&gt;Node11 -->
<g id="edge10" class="edge">
<title>Node1&#45;&gt;Node11</title>
<path fill="none" stroke="#63b8ff" d="M67.58,-208.71C81.05,-201.78 97.59,-193.84 113,-188 121.95,-184.61 131.75,-181.54 141.09,-178.91"/>
<polygon fill="#63b8ff" stroke="#63b8ff" points="66.07,-205.55 58.84,-213.3 69.32,-211.75 66.07,-205.55"/>
</g>
<!-- Node12 -->
<g id="node12" class="node">
<title>Node12</title>
<g id="a_node12"><a xlink:href="struct_ogre_1_1_cb_vao.html" target="_top" xlink:title=" ">
<polygon fill="white" stroke="#666666" points="218.5,-141.5 147.5,-141.5 147.5,-122.5 218.5,-122.5 218.5,-141.5"/>
<text text-anchor="middle" x="183" y="-129.5" font-family="Helvetica,sans-Serif" font-size="10.00">Ogre::CbVao</text>
</a>
</g>
</g>
<!-- Node1&#45;&gt;Node12 -->
<g id="edge11" class="edge">
<title>Node1&#45;&gt;Node12</title>
<path fill="none" stroke="#63b8ff" d="M53.41,-205.56C66.89,-188.94 88.81,-165.02 113,-151 123.43,-144.96 135.86,-140.76 147.28,-137.89"/>
<polygon fill="#63b8ff" stroke="#63b8ff" points="50.85,-203.16 47.42,-213.18 56.35,-207.48 50.85,-203.16"/>
</g>
<!-- Node13 -->
<g id="node13" class="node">
<title>Node13</title>
<g id="a_node13"><a xlink:href="struct_ogre_1_1v1_1_1_cb_draw_call.html" target="_top" xlink:title=" ">
<polygon fill="white" stroke="#666666" points="237,-104.5 129,-104.5 129,-85.5 237,-85.5 237,-104.5"/>
<text text-anchor="middle" x="183" y="-92.5" font-family="Helvetica,sans-Serif" font-size="10.00">Ogre::v1::CbDrawCall</text>
</a>
</g>
</g>
<!-- Node1&#45;&gt;Node13 -->
<g id="edge12" class="edge">
<title>Node1&#45;&gt;Node13</title>
<path fill="none" stroke="#63b8ff" d="M47.74,-203.62C58.85,-178.73 81.01,-137.09 113,-114 118.14,-110.29 123.97,-107.31 130.01,-104.9"/>
<polygon fill="#63b8ff" stroke="#63b8ff" points="44.59,-202.08 43.89,-212.65 51.03,-204.83 44.59,-202.08"/>
</g>
<!-- Node16 -->
<g id="node16" class="node">
<title>Node16</title>
<g id="a_node16"><a xlink:href="struct_ogre_1_1v1_1_1_cb_render_op.html" target="_top" xlink:title=" ">
<polygon fill="white" stroke="#666666" points="239.5,-67.5 126.5,-67.5 126.5,-48.5 239.5,-48.5 239.5,-67.5"/>
<text text-anchor="middle" x="183" y="-55.5" font-family="Helvetica,sans-Serif" font-size="10.00">Ogre::v1::CbRenderOp</text>
</a>
</g>
</g>
<!-- Node1&#45;&gt;Node16 -->
<g id="edge15" class="edge">
<title>Node1&#45;&gt;Node16</title>
<path fill="none" stroke="#63b8ff" d="M44,-203.17C52.07,-170.93 72.12,-109.23 113,-76 116.94,-72.8 121.39,-70.16 126.08,-67.99"/>
<polygon fill="#63b8ff" stroke="#63b8ff" points="40.61,-202.3 41.74,-212.84 47.42,-203.89 40.61,-202.3"/>
</g>
<!-- Node17 -->
<g id="node17" class="node">
<title>Node17</title>
<g id="a_node17"><a xlink:href="struct_ogre_1_1v1_1_1_cb_start_v1_legacy_rendering.html" target="_top" xlink:title=" ">
<polygon fill="white" stroke="#666666" points="250,-30 116,-30 116,0 250,0 250,-30"/>
<text text-anchor="start" x="124" y="-18" font-family="Helvetica,sans-Serif" font-size="10.00">Ogre::v1::CbStartV1Legacy</text>
<text text-anchor="middle" x="183" y="-7" font-family="Helvetica,sans-Serif" font-size="10.00">Rendering</text>
</a>
</g>
</g>
<!-- Node1&#45;&gt;Node17 -->
<g id="edge16" class="edge">
<title>Node1&#45;&gt;Node17</title>
<path fill="none" stroke="#63b8ff" d="M42.05,-203.32C47.81,-165.47 65.23,-84.74 113,-39 116.48,-35.67 120.45,-32.79 124.68,-30.32"/>
<polygon fill="#63b8ff" stroke="#63b8ff" points="38.63,-202.52 40.73,-212.9 45.57,-203.48 38.63,-202.52"/>
</g>
<!-- Node3 -->
<g id="node3" class="node">
<title>Node3</title>
<g id="a_node3"><a xlink:href="struct_ogre_1_1_cb_draw_call_indexed.html" target="_top" xlink:title=" ">
<polygon fill="white" stroke="#666666" points="423.5,-455.5 296.5,-455.5 296.5,-436.5 423.5,-436.5 423.5,-455.5"/>
<text text-anchor="middle" x="360" y="-443.5" font-family="Helvetica,sans-Serif" font-size="10.00">Ogre::CbDrawCallIndexed</text>
</a>
</g>
</g>
<!-- Node2&#45;&gt;Node3 -->
<g id="edge2" class="edge">
<title>Node2&#45;&gt;Node3</title>
<path fill="none" stroke="#63b8ff" d="M241.24,-433.89C258.83,-435.7 278.28,-437.7 296.22,-439.54"/>
<polygon fill="#63b8ff" stroke="#63b8ff" points="241.79,-430.43 231.48,-432.88 241.07,-437.39 241.79,-430.43"/>
</g>
<!-- Node4 -->
<g id="node4" class="node">
<title>Node4</title>
<g id="a_node4"><a xlink:href="struct_ogre_1_1_cb_draw_call_strip.html" target="_top" xlink:title=" ">
<polygon fill="white" stroke="#666666" points="416.5,-418.5 303.5,-418.5 303.5,-399.5 416.5,-399.5 416.5,-418.5"/>
<text text-anchor="middle" x="360" y="-406.5" font-family="Helvetica,sans-Serif" font-size="10.00">Ogre::CbDrawCallStrip</text>
</a>
</g>
</g>
<!-- Node2&#45;&gt;Node4 -->
<g id="edge3" class="edge">
<title>Node2&#45;&gt;Node4</title>
<path fill="none" stroke="#63b8ff" d="M241.34,-421.77C261.16,-419.62 283.33,-417.22 303.03,-415.08"/>
<polygon fill="#63b8ff" stroke="#63b8ff" points="241.05,-418.29 231.48,-422.84 241.8,-425.24 241.05,-418.29"/>
</g>
<!-- Node14 -->
<g id="node14" class="node">
<title>Node14</title>
<g id="a_node14"><a xlink:href="struct_ogre_1_1v1_1_1_cb_draw_call_indexed.html" target="_top" xlink:title=" ">
<polygon fill="white" stroke="#666666" points="431,-122.5 289,-122.5 289,-103.5 431,-103.5 431,-122.5"/>
<text text-anchor="middle" x="360" y="-110.5" font-family="Helvetica,sans-Serif" font-size="10.00">Ogre::v1::CbDrawCallIndexed</text>
</a>
</g>
</g>
<!-- Node13&#45;&gt;Node14 -->
<g id="edge13" class="edge">
<title>Node13&#45;&gt;Node14</title>
<path fill="none" stroke="#63b8ff" d="M248.71,-101.66C261.76,-103 275.54,-104.42 288.77,-105.78"/>
<polygon fill="#63b8ff" stroke="#63b8ff" points="249.27,-98.19 238.96,-100.65 248.55,-105.16 249.27,-98.19"/>
</g>
<!-- Node15 -->
<g id="node15" class="node">
<title>Node15</title>
<g id="a_node15"><a xlink:href="struct_ogre_1_1v1_1_1_cb_draw_call_strip.html" target="_top" xlink:title=" ">
<polygon fill="white" stroke="#666666" points="424,-85.5 296,-85.5 296,-66.5 424,-66.5 424,-85.5"/>
<text text-anchor="middle" x="360" y="-73.5" font-family="Helvetica,sans-Serif" font-size="10.00">Ogre::v1::CbDrawCallStrip</text>
</a>
</g>
</g>
<!-- Node13&#45;&gt;Node15 -->
<g id="edge14" class="edge">
<title>Node13&#45;&gt;Node15</title>
<path fill="none" stroke="#63b8ff" d="M248.48,-88C263.9,-86.32 280.35,-84.54 295.72,-82.87"/>
<polygon fill="#63b8ff" stroke="#63b8ff" points="248.53,-84.47 238.96,-89.03 249.28,-91.43 248.53,-84.47"/>
</g>
</g>
</svg>
