<?xml version="1.0" encoding="UTF-8" standalone="no"?>
<!DOCTYPE svg PUBLIC "-//W3C//DTD SVG 1.1//EN"
 "http://www.w3.org/Graphics/SVG/1.1/DTD/svg11.dtd">
<!-- Generated by graphviz version 9.0.0 (20230911.1827)
 -->
<!-- Title: Ogre::D3D11StereoDriverBridge Pages: 1 -->
<svg width="266pt" height="94pt"
 viewBox="0.00 0.00 265.88 93.75" xmlns="http://www.w3.org/2000/svg" xmlns:xlink="http://www.w3.org/1999/xlink">
<g id="graph0" class="graph" transform="scale(1 1) rotate(0) translate(4 89.75)">
<title>Ogre::D3D11StereoDriverBridge</title>
<!-- Node1 -->
<g id="Node000001" class="node">
<title>Node1</title>
<g id="a_Node000001"><a xlink:title="Bridge interface from the render system to the stereo driver.">
<polygon fill="#999999" stroke="#666666" points="219.25,-19.25 66.75,-19.25 66.75,0 219.25,0 219.25,-19.25"/>
<text text-anchor="middle" x="143" y="-5.75" font-family="Helvetica,sans-Serif" font-size="10.00">Ogre::D3D11StereoDriverBridge</text>
</a>
</g>
</g>
<!-- Node2 -->
<g id="Node000002" class="node">
<title>Node2</title>
<g id="a_Node000002"><a xlink:href="class_ogre_1_1_singleton.html" target="_top" xlink:title=" ">
<polygon fill="white" stroke="#666666" points="148,-85.75 0,-85.75 0,-55.25 148,-55.25 148,-85.75"/>
<text text-anchor="start" x="8" y="-72.25" font-family="Helvetica,sans-Serif" font-size="10.00">Ogre::Singleton&lt; D3D11Stereo</text>
<text text-anchor="middle" x="74" y="-61" font-family="Helvetica,sans-Serif" font-size="10.00">DriverBridge &gt;</text>
</a>
</g>
</g>
<!-- Node2&#45;&gt;Node1 -->
<g id="edge1_Node000001_Node000002" class="edge">
<title>Node2&#45;&gt;Node1</title>
<g id="a_edge1_Node000001_Node000002"><a xlink:title=" ">
<path fill="none" stroke="#63b8ff" d="M99.73,-47.55C111.03,-37.9 123.68,-27.11 132.36,-19.7"/>
<polygon fill="#63b8ff" stroke="#63b8ff" points="97.54,-44.81 92.21,-53.96 102.09,-50.14 97.54,-44.81"/>
</a>
</g>
</g>
<!-- Node3 -->
<g id="Node000003" class="node">
<title>Node3</title>
<g id="a_Node000003"><a xlink:href="class_ogre_1_1_allocated_object.html" target="_top" xlink:title="Superclass for all objects that wish to use custom memory allocators when their new / delete operator...">
<polygon fill="white" stroke="#666666" points="257.88,-80.12 166.12,-80.12 166.12,-60.88 257.88,-60.88 257.88,-80.12"/>
<text text-anchor="middle" x="212" y="-66.62" font-family="Helvetica,sans-Serif" font-size="10.00">StereoDriverAlloc</text>
</a>
</g>
</g>
<!-- Node3&#45;&gt;Node1 -->
<g id="edge2_Node000001_Node000003" class="edge">
<title>Node3&#45;&gt;Node1</title>
<g id="a_edge2_Node000001_Node000003"><a xlink:title=" ">
<path fill="none" stroke="#63b8ff" d="M193.03,-53.31C180.31,-42.46 164.05,-28.59 153.58,-19.65"/>
<polygon fill="#63b8ff" stroke="#63b8ff" points="190.49,-55.75 200.37,-59.58 195.03,-50.42 190.49,-55.75"/>
</a>
</g>
</g>
</g>
</svg>
