<?xml version="1.0" encoding="UTF-8" standalone="no"?>
<!DOCTYPE svg PUBLIC "-//W3C//DTD SVG 1.1//EN"
 "http://www.w3.org/Graphics/SVG/1.1/DTD/svg11.dtd">
<!-- Generated by graphviz version 2.44.0 ()
 -->
<!-- Title: Ogre::GLES2GpuProgramManager Pages: 1 -->
<svg width="335pt" height="207pt"
 viewBox="0.00 0.00 335.00 207.00" xmlns="http://www.w3.org/2000/svg" xmlns:xlink="http://www.w3.org/1999/xlink">
<g id="graph0" class="graph" transform="scale(1 1) rotate(0) translate(4 203)">
<title>Ogre::GLES2GpuProgramManager</title>
<!-- Node1 -->
<g id="node1" class="node">
<title>Node1</title>
<g id="a_node1"><a xlink:title=" ">
<polygon fill="#bfbfbf" stroke="black" points="95,-0.5 95,-19.5 261,-19.5 261,-0.5 95,-0.5"/>
<text text-anchor="middle" x="178" y="-7.5" font-family="Helvetica,sans-Serif" font-size="10.00">Ogre::GLES2GpuProgramManager</text>
</a>
</g>
</g>
<!-- Node2 -->
<g id="node2" class="node">
<title>Node2</title>
<g id="a_node2"><a xlink:href="class_ogre_1_1_gpu_program_manager.html" target="_top" xlink:title=" ">
<polygon fill="none" stroke="black" points="111,-56.5 111,-75.5 245,-75.5 245,-56.5 111,-56.5"/>
<text text-anchor="middle" x="178" y="-63.5" font-family="Helvetica,sans-Serif" font-size="10.00">Ogre::GpuProgramManager</text>
</a>
</g>
</g>
<!-- Node2&#45;&gt;Node1 -->
<g id="edge1" class="edge">
<title>Node2&#45;&gt;Node1</title>
<path fill="none" stroke="midnightblue" d="M178,-45.8C178,-36.91 178,-26.78 178,-19.75"/>
<polygon fill="midnightblue" stroke="midnightblue" points="174.5,-46.08 178,-56.08 181.5,-46.08 174.5,-46.08"/>
</g>
<!-- Node3 -->
<g id="node3" class="node">
<title>Node3</title>
<g id="a_node3"><a xlink:href="class_ogre_1_1_resource_manager.html" target="_top" xlink:title="Defines a generic resource handler.">
<polygon fill="none" stroke="black" points="41.5,-118 41.5,-137 162.5,-137 162.5,-118 41.5,-118"/>
<text text-anchor="middle" x="102" y="-125" font-family="Helvetica,sans-Serif" font-size="10.00">Ogre::ResourceManager</text>
</a>
</g>
</g>
<!-- Node3&#45;&gt;Node2 -->
<g id="edge2" class="edge">
<title>Node3&#45;&gt;Node2</title>
<path fill="none" stroke="midnightblue" d="M120.78,-111.79C135.36,-100.38 155.06,-84.96 167.13,-75.51"/>
<polygon fill="midnightblue" stroke="midnightblue" points="118.61,-109.05 112.89,-117.98 122.92,-114.57 118.61,-109.05"/>
</g>
<!-- Node4 -->
<g id="node4" class="node">
<title>Node4</title>
<g id="a_node4"><a xlink:href="class_ogre_1_1_script_loader.html" target="_top" xlink:title="Abstract class defining the interface used by classes which wish to perform script loading to define ...">
<polygon fill="none" stroke="black" points="0,-179.5 0,-198.5 98,-198.5 98,-179.5 0,-179.5"/>
<text text-anchor="middle" x="49" y="-186.5" font-family="Helvetica,sans-Serif" font-size="10.00">Ogre::ScriptLoader</text>
</a>
</g>
</g>
<!-- Node4&#45;&gt;Node3 -->
<g id="edge3" class="edge">
<title>Node4&#45;&gt;Node3</title>
<path fill="none" stroke="midnightblue" d="M63.25,-172C73.29,-160.74 86.32,-146.1 94.42,-137.01"/>
<polygon fill="midnightblue" stroke="midnightblue" points="60.63,-169.68 56.59,-179.48 65.86,-174.34 60.63,-169.68"/>
</g>
<!-- Node5 -->
<g id="node5" class="node">
<title>Node5</title>
<g id="a_node5"><a xlink:href="class_ogre_1_1_allocated_object.html" target="_top" xlink:title="Superclass for all objects that wish to use custom memory allocators when their new / delete operator...">
<polygon fill="none" stroke="black" points="116,-179.5 116,-198.5 196,-198.5 196,-179.5 116,-179.5"/>
<text text-anchor="middle" x="156" y="-186.5" font-family="Helvetica,sans-Serif" font-size="10.00">ResourceAlloc</text>
</a>
</g>
</g>
<!-- Node5&#45;&gt;Node3 -->
<g id="edge4" class="edge">
<title>Node5&#45;&gt;Node3</title>
<path fill="none" stroke="midnightblue" d="M141.48,-172C131.26,-160.74 117.98,-146.1 109.72,-137.01"/>
<polygon fill="midnightblue" stroke="midnightblue" points="138.95,-174.42 148.26,-179.48 144.13,-169.72 138.95,-174.42"/>
</g>
<!-- Node6 -->
<g id="node6" class="node">
<title>Node6</title>
<g id="a_node6"><a xlink:href="class_ogre_1_1_singleton.html" target="_top" xlink:title=" ">
<polygon fill="none" stroke="black" points="181,-112.5 181,-142.5 327,-142.5 327,-112.5 181,-112.5"/>
<text text-anchor="start" x="189" y="-130.5" font-family="Helvetica,sans-Serif" font-size="10.00">Ogre::Singleton&lt; GpuProgram</text>
<text text-anchor="middle" x="254" y="-119.5" font-family="Helvetica,sans-Serif" font-size="10.00">Manager &gt;</text>
</a>
</g>
</g>
<!-- Node6&#45;&gt;Node2 -->
<g id="edge5" class="edge">
<title>Node6&#45;&gt;Node2</title>
<path fill="none" stroke="midnightblue" d="M228.06,-106.19C214.75,-95.77 199.25,-83.63 189.06,-75.66"/>
<polygon fill="midnightblue" stroke="midnightblue" points="225.96,-108.99 235.99,-112.4 230.27,-103.48 225.96,-108.99"/>
</g>
</g>
</svg>
