<?xml version="1.0" encoding="UTF-8" standalone="no"?>
<!DOCTYPE svg PUBLIC "-//W3C//DTD SVG 1.1//EN"
 "http://www.w3.org/Graphics/SVG/1.1/DTD/svg11.dtd">
<!-- Generated by graphviz version 9.0.0 (20230911.1827)
 -->
<!-- Title: Ogre::RTShader::FFPTransformFactory Pages: 1 -->
<svg width="161pt" height="160pt"
 viewBox="0.00 0.00 160.50 160.25" xmlns="http://www.w3.org/2000/svg" xmlns:xlink="http://www.w3.org/1999/xlink">
<g id="graph0" class="graph" transform="scale(1 1) rotate(0) translate(4 156.25)">
<title>Ogre::RTShader::FFPTransformFactory</title>
<!-- Node1 -->
<g id="Node000001" class="node">
<title>Node1</title>
<g id="a_Node000001"><a xlink:title="A factory that enables creation of FFPTransform instances.">
<polygon fill="#999999" stroke="#666666" points="152.5,-30.5 0,-30.5 0,0 152.5,0 152.5,-30.5"/>
<text text-anchor="start" x="8" y="-17" font-family="Helvetica,sans-Serif" font-size="10.00">Ogre::RTShader::FFPTransform</text>
<text text-anchor="middle" x="76.25" y="-5.75" font-family="Helvetica,sans-Serif" font-size="10.00">Factory</text>
</a>
</g>
</g>
<!-- Node2 -->
<g id="Node000002" class="node">
<title>Node2</title>
<g id="a_Node000002"><a xlink:href="class_ogre_1_1_r_t_shader_1_1_sub_render_state_factory.html" target="_top" xlink:title="Abstract factory interface for creating SubRenderState implementation instances.">
<polygon fill="white" stroke="#666666" points="145,-97 7.5,-97 7.5,-66.5 145,-66.5 145,-97"/>
<text text-anchor="start" x="15.5" y="-83.5" font-family="Helvetica,sans-Serif" font-size="10.00">Ogre::RTShader::SubRender</text>
<text text-anchor="middle" x="76.25" y="-72.25" font-family="Helvetica,sans-Serif" font-size="10.00">StateFactory</text>
</a>
</g>
</g>
<!-- Node2&#45;&gt;Node1 -->
<g id="edge1_Node000001_Node000002" class="edge">
<title>Node2&#45;&gt;Node1</title>
<g id="a_edge1_Node000001_Node000002"><a xlink:title=" ">
<path fill="none" stroke="#63b8ff" d="M76.25,-54.81C76.25,-46.64 76.25,-37.91 76.25,-30.83"/>
<polygon fill="#63b8ff" stroke="#63b8ff" points="72.75,-54.6 76.25,-64.6 79.75,-54.6 72.75,-54.6"/>
</a>
</g>
</g>
<!-- Node3 -->
<g id="Node000003" class="node">
<title>Node3</title>
<g id="a_Node000003"><a xlink:href="class_ogre_1_1_allocated_object.html" target="_top" xlink:title="Superclass for all objects that wish to use custom memory allocators when their new / delete operator...">
<polygon fill="white" stroke="#666666" points="133.38,-152.25 19.12,-152.25 19.12,-133 133.38,-133 133.38,-152.25"/>
<text text-anchor="middle" x="76.25" y="-138.75" font-family="Helvetica,sans-Serif" font-size="10.00">RTShaderSystemAlloc</text>
</a>
</g>
</g>
<!-- Node3&#45;&gt;Node2 -->
<g id="edge2_Node000002_Node000003" class="edge">
<title>Node3&#45;&gt;Node2</title>
<g id="a_edge2_Node000002_Node000003"><a xlink:title=" ">
<path fill="none" stroke="#63b8ff" d="M76.25,-121.42C76.25,-113.49 76.25,-104.56 76.25,-97.28"/>
<polygon fill="#63b8ff" stroke="#63b8ff" points="72.75,-121.17 76.25,-131.17 79.75,-121.17 72.75,-121.17"/>
</a>
</g>
</g>
</g>
</svg>
