<?xml version="1.0" encoding="UTF-8" standalone="no"?>
<!DOCTYPE svg PUBLIC "-//W3C//DTD SVG 1.1//EN"
 "http://www.w3.org/Graphics/SVG/1.1/DTD/svg11.dtd">
<!-- Generated by graphviz version 2.44.0 ()
 -->
<!-- Title: Ogre::TerrainGlobalOptions Pages: 1 -->
<svg width="216pt" height="95pt"
 viewBox="0.00 0.00 215.50 95.00" xmlns="http://www.w3.org/2000/svg" xmlns:xlink="http://www.w3.org/1999/xlink">
<g id="graph0" class="graph" transform="scale(1 1) rotate(0) translate(4 91)">
<title>Ogre::TerrainGlobalOptions</title>
<!-- Node1 -->
<g id="node1" class="node">
<title>Node1</title>
<g id="a_node1"><a xlink:title="Options class which just stores default options for the terrain.">
<polygon fill="#bfbfbf" stroke="black" points="23,-0.5 23,-19.5 157,-19.5 157,-0.5 23,-0.5"/>
<text text-anchor="middle" x="90" y="-7.5" font-family="Helvetica,sans-Serif" font-size="10.00">Ogre::TerrainGlobalOptions</text>
</a>
</g>
</g>
<!-- Node2 -->
<g id="node2" class="node">
<title>Node2</title>
<g id="a_node2"><a xlink:href="class_ogre_1_1_allocated_object.html" target="_top" xlink:title="Superclass for all objects that wish to use custom memory allocators when their new / delete operator...">
<polygon fill="none" stroke="black" points="0,-62 0,-81 68,-81 68,-62 0,-62"/>
<text text-anchor="middle" x="34" y="-69" font-family="Helvetica,sans-Serif" font-size="10.00">TerrainAlloc</text>
</a>
</g>
</g>
<!-- Node2&#45;&gt;Node1 -->
<g id="edge1" class="edge">
<title>Node2&#45;&gt;Node1</title>
<path fill="none" stroke="midnightblue" d="M49.06,-54.5C59.66,-43.24 73.43,-28.6 81.99,-19.51"/>
<polygon fill="midnightblue" stroke="midnightblue" points="46.33,-52.29 42.02,-61.98 51.43,-57.09 46.33,-52.29"/>
</g>
<!-- Node3 -->
<g id="node3" class="node">
<title>Node3</title>
<g id="a_node3"><a xlink:href="class_ogre_1_1_singleton.html" target="_top" xlink:title=" ">
<polygon fill="none" stroke="black" points="86.5,-56.5 86.5,-86.5 207.5,-86.5 207.5,-56.5 86.5,-56.5"/>
<text text-anchor="start" x="94.5" y="-74.5" font-family="Helvetica,sans-Serif" font-size="10.00">Ogre::Singleton&lt; Terrain</text>
<text text-anchor="middle" x="147" y="-63.5" font-family="Helvetica,sans-Serif" font-size="10.00">GlobalOptions &gt;</text>
</a>
</g>
</g>
<!-- Node3&#45;&gt;Node1 -->
<g id="edge2" class="edge">
<title>Node3&#45;&gt;Node1</title>
<path fill="none" stroke="midnightblue" d="M126.41,-49C116.69,-38.86 105.65,-27.33 98.29,-19.66"/>
<polygon fill="midnightblue" stroke="midnightblue" points="124.05,-51.6 133.49,-56.4 129.1,-46.76 124.05,-51.6"/>
</g>
</g>
</svg>
