<?xml version="1.0" encoding="UTF-8" standalone="no"?>
<!DOCTYPE svg PUBLIC "-//W3C//DTD SVG 1.1//EN"
 "http://www.w3.org/Graphics/SVG/1.1/DTD/svg11.dtd">
<!-- Generated by graphviz version 9.0.0 (20230911.1827)
 -->
<!-- Title: Ogre::BufferPacked Pages: 1 -->
<svg width="611pt" height="581pt"
 viewBox="0.00 0.00 610.50 581.25" xmlns="http://www.w3.org/2000/svg" xmlns:xlink="http://www.w3.org/1999/xlink">
<g id="graph0" class="graph" transform="scale(1 1) rotate(0) translate(4 577.25)">
<title>Ogre::BufferPacked</title>
<!-- Node1 -->
<g id="Node000001" class="node">
<title>Node1</title>
<g id="a_Node000001"><a xlink:title=" ">
<polygon fill="#999999" stroke="#666666" points="236.75,-265.25 136.75,-265.25 136.75,-246 236.75,-246 236.75,-265.25"/>
<text text-anchor="middle" x="186.75" y="-251.75" font-family="Helvetica,sans-Serif" font-size="10.00">Ogre::BufferPacked</text>
</a>
</g>
</g>
<!-- Node4 -->
<g id="Node000004" class="node">
<title>Node4</title>
<g id="a_Node000004"><a xlink:href="class_ogre_1_1_const_buffer_packed.html" target="_top" xlink:title="Represents constant buffers (also known as Uniform Buffers in GL)">
<polygon fill="white" stroke="#666666" points="401.62,-468.25 276.12,-468.25 276.12,-449 401.62,-449 401.62,-468.25"/>
<text text-anchor="middle" x="338.88" y="-454.75" font-family="Helvetica,sans-Serif" font-size="10.00">Ogre::ConstBufferPacked</text>
</a>
</g>
</g>
<!-- Node1&#45;&gt;Node4 -->
<g id="edge3_Node000001_Node000004" class="edge">
<title>Node1&#45;&gt;Node4</title>
<g id="a_edge3_Node000001_Node000004"><a xlink:title=" ">
<path fill="none" stroke="#63b8ff" d="M202.04,-274.94C233.43,-317.39 307.46,-417.49 330.74,-448.97"/>
<polygon fill="#63b8ff" stroke="#63b8ff" points="204.85,-272.87 196.09,-266.91 199.23,-277.03 204.85,-272.87"/>
</a>
</g>
</g>
<!-- Node10 -->
<g id="Node000010" class="node">
<title>Node10</title>
<g id="a_Node000010"><a xlink:href="class_ogre_1_1_index_buffer_packed.html" target="_top" xlink:title=" ">
<polygon fill="white" stroke="#666666" points="400.5,-321.25 277.25,-321.25 277.25,-302 400.5,-302 400.5,-321.25"/>
<text text-anchor="middle" x="338.88" y="-307.75" font-family="Helvetica,sans-Serif" font-size="10.00">Ogre::IndexBufferPacked</text>
</a>
</g>
</g>
<!-- Node1&#45;&gt;Node10 -->
<g id="edge9_Node000001_Node000010" class="edge">
<title>Node1&#45;&gt;Node10</title>
<g id="a_edge9_Node000001_Node000010"><a xlink:title=" ">
<path fill="none" stroke="#63b8ff" d="M218.35,-270.65C234.33,-278.15 254.33,-287.01 272.75,-293.62 280.7,-296.48 289.33,-299.16 297.62,-301.52"/>
<polygon fill="#63b8ff" stroke="#63b8ff" points="219.91,-267.51 209.37,-266.37 216.89,-273.83 219.91,-267.51"/>
</a>
</g>
</g>
<!-- Node11 -->
<g id="Node000011" class="node">
<title>Node11</title>
<g id="a_Node000011"><a xlink:href="class_ogre_1_1_indirect_buffer_packed.html" target="_top" xlink:title="Represents Indirect buffers for storing draw call commands.">
<polygon fill="white" stroke="#666666" points="405,-284.25 272.75,-284.25 272.75,-265 405,-265 405,-284.25"/>
<text text-anchor="middle" x="338.88" y="-270.75" font-family="Helvetica,sans-Serif" font-size="10.00">Ogre::IndirectBufferPacked</text>
</a>
</g>
</g>
<!-- Node1&#45;&gt;Node11 -->
<g id="edge10_Node000001_Node000011" class="edge">
<title>Node1&#45;&gt;Node11</title>
<g id="a_edge10_Node000001_Node000011"><a xlink:title=" ">
<path fill="none" stroke="#63b8ff" d="M248.07,-263.26C256.11,-264.28 264.38,-265.32 272.5,-266.35"/>
<polygon fill="#63b8ff" stroke="#63b8ff" points="248.77,-259.82 238.41,-262.04 247.89,-266.76 248.77,-259.82"/>
</a>
</g>
</g>
<!-- Node12 -->
<g id="Node000012" class="node">
<title>Node12</title>
<g id="a_Node000012"><a xlink:href="class_ogre_1_1_tex_buffer_packed.html" target="_top" xlink:title="Represents Texture buffers (also known as tbuffers in D3D11)">
<polygon fill="white" stroke="#666666" points="396.75,-247.25 281,-247.25 281,-228 396.75,-228 396.75,-247.25"/>
<text text-anchor="middle" x="338.88" y="-233.75" font-family="Helvetica,sans-Serif" font-size="10.00">Ogre::TexBufferPacked</text>
</a>
</g>
</g>
<!-- Node1&#45;&gt;Node12 -->
<g id="edge11_Node000001_Node000012" class="edge">
<title>Node1&#45;&gt;Node12</title>
<g id="a_edge11_Node000001_Node000012"><a xlink:title=" ">
<path fill="none" stroke="#63b8ff" d="M248.26,-248.37C258.91,-247.09 269.96,-245.77 280.52,-244.5"/>
<polygon fill="#63b8ff" stroke="#63b8ff" points="247.92,-244.89 238.41,-249.55 248.75,-251.84 247.92,-244.89"/>
</a>
</g>
</g>
<!-- Node19 -->
<g id="Node000019" class="node">
<title>Node19</title>
<g id="a_Node000019"><a xlink:href="class_ogre_1_1_uav_buffer_packed.html" target="_top" xlink:title="Represents UAV buffers (also known as SSBOs in OpenGL) Uav buffers are supported in DX10/DX10....">
<polygon fill="white" stroke="#666666" points="397.88,-112.25 279.88,-112.25 279.88,-93 397.88,-93 397.88,-112.25"/>
<text text-anchor="middle" x="338.88" y="-98.75" font-family="Helvetica,sans-Serif" font-size="10.00">Ogre::UavBufferPacked</text>
</a>
</g>
</g>
<!-- Node1&#45;&gt;Node19 -->
<g id="edge18_Node000001_Node000019" class="edge">
<title>Node1&#45;&gt;Node19</title>
<g id="a_edge18_Node000001_Node000019"><a xlink:title=" ">
<path fill="none" stroke="#63b8ff" d="M205.65,-237.38C237.61,-204.81 303.43,-137.72 328.18,-112.5"/>
<polygon fill="#63b8ff" stroke="#63b8ff" points="203.17,-234.92 198.66,-244.51 208.16,-239.82 203.17,-234.92"/>
</a>
</g>
</g>
<!-- Node24 -->
<g id="Node000024" class="node">
<title>Node24</title>
<g id="a_Node000024"><a xlink:href="class_ogre_1_1_vertex_buffer_packed.html" target="_top" xlink:title=" ">
<polygon fill="white" stroke="#666666" points="402.75,-75.25 275,-75.25 275,-56 402.75,-56 402.75,-75.25"/>
<text text-anchor="middle" x="338.88" y="-61.75" font-family="Helvetica,sans-Serif" font-size="10.00">Ogre::VertexBufferPacked</text>
</a>
</g>
</g>
<!-- Node1&#45;&gt;Node24 -->
<g id="edge23_Node000001_Node000024" class="edge">
<title>Node1&#45;&gt;Node24</title>
<g id="a_edge23_Node000001_Node000024"><a xlink:title=" ">
<path fill="none" stroke="#63b8ff" d="M192.23,-234.54C201.08,-198.17 224.29,-123.68 272.75,-83.62 276.64,-80.41 281.06,-77.77 285.72,-75.6"/>
<polygon fill="#63b8ff" stroke="#63b8ff" points="188.84,-233.7 190.02,-244.22 195.66,-235.26 188.84,-233.7"/>
</a>
</g>
</g>
<!-- Node2 -->
<g id="Node000002" class="node">
<title>Node2</title>
<g id="a_Node000002"><a xlink:href="struct_ogre_1_1_gpu_resource.html" target="_top" xlink:title=" ">
<polygon fill="white" stroke="#666666" points="100.75,-284.25 0,-284.25 0,-265 100.75,-265 100.75,-284.25"/>
<text text-anchor="middle" x="50.38" y="-270.75" font-family="Helvetica,sans-Serif" font-size="10.00">Ogre::GpuResource</text>
</a>
</g>
</g>
<!-- Node2&#45;&gt;Node1 -->
<g id="edge1_Node000001_Node000002" class="edge">
<title>Node2&#45;&gt;Node1</title>
<g id="a_edge1_Node000001_Node000002"><a xlink:title=" ">
<path fill="none" stroke="#63b8ff" d="M112.27,-266.01C120.32,-264.88 128.48,-263.72 136.3,-262.62"/>
<polygon fill="#63b8ff" stroke="#63b8ff" points="111.94,-262.53 102.53,-267.39 112.92,-269.46 111.94,-262.53"/>
</a>
</g>
</g>
<!-- Node3 -->
<g id="Node000003" class="node">
<title>Node3</title>
<g id="a_Node000003"><a xlink:href="class_ogre_1_1_allocated_object.html" target="_top" xlink:title="Superclass for all objects that wish to use custom memory allocators when their new / delete operator...">
<polygon fill="white" stroke="#666666" points="98.5,-247.25 2.25,-247.25 2.25,-228 98.5,-228 98.5,-247.25"/>
<text text-anchor="middle" x="50.38" y="-233.75" font-family="Helvetica,sans-Serif" font-size="10.00">BufferPackedAlloc</text>
</a>
</g>
</g>
<!-- Node3&#45;&gt;Node1 -->
<g id="edge2_Node000001_Node000003" class="edge">
<title>Node3&#45;&gt;Node1</title>
<g id="a_edge2_Node000001_Node000003"><a xlink:title=" ">
<path fill="none" stroke="#63b8ff" d="M110.16,-245.5C118.96,-246.68 127.95,-247.88 136.53,-249.03"/>
<polygon fill="#63b8ff" stroke="#63b8ff" points="110.63,-242.03 100.25,-244.17 109.7,-248.97 110.63,-242.03"/>
</a>
</g>
</g>
<!-- Node5 -->
<g id="Node000005" class="node">
<title>Node5</title>
<g id="a_Node000005"><a xlink:href="class_ogre_1_1_d3_d11_const_buffer_packed.html" target="_top" xlink:title=" ">
<polygon fill="white" stroke="#666666" points="599.12,-573.25 444.38,-573.25 444.38,-554 599.12,-554 599.12,-573.25"/>
<text text-anchor="middle" x="521.75" y="-559.75" font-family="Helvetica,sans-Serif" font-size="10.00">Ogre::D3D11ConstBufferPacked</text>
</a>
</g>
</g>
<!-- Node4&#45;&gt;Node5 -->
<g id="edge4_Node000004_Node000005" class="edge">
<title>Node4&#45;&gt;Node5</title>
<g id="a_edge4_Node000004_Node000005"><a xlink:title=" ">
<path fill="none" stroke="#63b8ff" d="M356.31,-477.02C374.92,-496.71 407.11,-527.44 441,-544.62 448.11,-548.23 455.92,-551.17 463.8,-553.56"/>
<polygon fill="#63b8ff" stroke="#63b8ff" points="358.91,-474.68 349.56,-469.7 353.76,-479.43 358.91,-474.68"/>
</a>
</g>
</g>
<!-- Node6 -->
<g id="Node000006" class="node">
<title>Node6</title>
<g id="a_Node000006"><a xlink:href="class_ogre_1_1_g_l3_plus_const_buffer_packed.html" target="_top" xlink:title=" ">
<polygon fill="white" stroke="#666666" points="587.12,-535.88 456.38,-535.88 456.38,-505.38 587.12,-505.38 587.12,-535.88"/>
<text text-anchor="start" x="464.38" y="-522.38" font-family="Helvetica,sans-Serif" font-size="10.00">Ogre::GL3PlusConstBuffer</text>
<text text-anchor="middle" x="521.75" y="-511.12" font-family="Helvetica,sans-Serif" font-size="10.00">Packed</text>
</a>
</g>
</g>
<!-- Node4&#45;&gt;Node6 -->
<g id="edge5_Node000004_Node000006" class="edge">
<title>Node4&#45;&gt;Node6</title>
<g id="a_edge5_Node000004_Node000006"><a xlink:title=" ">
<path fill="none" stroke="#63b8ff" d="M375.76,-472.78C394.99,-480.2 419.17,-489.25 441,-496.62 449.36,-499.45 458.26,-502.29 466.97,-504.98"/>
<polygon fill="#63b8ff" stroke="#63b8ff" points="377.06,-469.53 366.47,-469.17 374.52,-476.05 377.06,-469.53"/>
</a>
</g>
</g>
<!-- Node7 -->
<g id="Node000007" class="node">
<title>Node7</title>
<g id="a_Node000007"><a xlink:href="class_ogre_1_1_g_l_e_s2_const_buffer_packed.html" target="_top" xlink:title=" ">
<polygon fill="white" stroke="#666666" points="600.25,-487.25 443.25,-487.25 443.25,-468 600.25,-468 600.25,-487.25"/>
<text text-anchor="middle" x="521.75" y="-473.75" font-family="Helvetica,sans-Serif" font-size="10.00">Ogre::GLES2ConstBufferPacked</text>
</a>
</g>
</g>
<!-- Node4&#45;&gt;Node7 -->
<g id="edge6_Node000004_Node000007" class="edge">
<title>Node4&#45;&gt;Node7</title>
<g id="a_edge6_Node000004_Node000007"><a xlink:title=" ">
<path fill="none" stroke="#63b8ff" d="M413.43,-466.35C423.19,-467.38 433.22,-468.43 443.05,-469.46"/>
<polygon fill="#63b8ff" stroke="#63b8ff" points="413.94,-462.89 403.63,-465.32 413.21,-469.85 413.94,-462.89"/>
</a>
</g>
</g>
<!-- Node8 -->
<g id="Node000008" class="node">
<title>Node8</title>
<g id="a_Node000008"><a xlink:href="class_ogre_1_1_metal_const_buffer_packed.html" target="_top" xlink:title=" ">
<polygon fill="white" stroke="#666666" points="596.5,-450.25 447,-450.25 447,-431 596.5,-431 596.5,-450.25"/>
<text text-anchor="middle" x="521.75" y="-436.75" font-family="Helvetica,sans-Serif" font-size="10.00">Ogre::MetalConstBufferPacked</text>
</a>
</g>
</g>
<!-- Node4&#45;&gt;Node8 -->
<g id="edge7_Node000004_Node000008" class="edge">
<title>Node4&#45;&gt;Node8</title>
<g id="a_edge7_Node000004_Node000008"><a xlink:title=" ">
<path fill="none" stroke="#63b8ff" d="M413.37,-451.31C424.3,-450.22 435.58,-449.1 446.54,-448.01"/>
<polygon fill="#63b8ff" stroke="#63b8ff" points="413.23,-447.81 403.63,-452.28 413.93,-454.77 413.23,-447.81"/>
</a>
</g>
</g>
<!-- Node9 -->
<g id="Node000009" class="node">
<title>Node9</title>
<g id="a_Node000009"><a xlink:href="class_ogre_1_1_n_u_l_l_const_buffer_packed.html" target="_top" xlink:title=" ">
<polygon fill="white" stroke="#666666" points="598,-413.25 445.5,-413.25 445.5,-394 598,-394 598,-413.25"/>
<text text-anchor="middle" x="521.75" y="-399.75" font-family="Helvetica,sans-Serif" font-size="10.00">Ogre::NULLConstBufferPacked</text>
</a>
</g>
</g>
<!-- Node4&#45;&gt;Node9 -->
<g id="edge8_Node000004_Node000009" class="edge">
<title>Node4&#45;&gt;Node9</title>
<g id="a_edge8_Node000004_Node000009"><a xlink:title=" ">
<path fill="none" stroke="#63b8ff" d="M375.2,-444.43C394.45,-437.02 418.81,-428.16 441,-421.62 450.8,-418.74 461.4,-416.05 471.57,-413.68"/>
<polygon fill="#63b8ff" stroke="#63b8ff" points="373.97,-441.15 365.92,-448.05 376.51,-447.68 373.97,-441.15"/>
</a>
</g>
</g>
<!-- Node13 -->
<g id="Node000013" class="node">
<title>Node13</title>
<g id="a_Node000013"><a xlink:href="class_ogre_1_1_d3_d11_tex_buffer_packed.html" target="_top" xlink:title=" ">
<polygon fill="white" stroke="#666666" points="594.25,-376.25 449.25,-376.25 449.25,-357 594.25,-357 594.25,-376.25"/>
<text text-anchor="middle" x="521.75" y="-362.75" font-family="Helvetica,sans-Serif" font-size="10.00">Ogre::D3D11TexBufferPacked</text>
</a>
</g>
</g>
<!-- Node12&#45;&gt;Node13 -->
<g id="edge12_Node000012_Node000013" class="edge">
<title>Node12&#45;&gt;Node13</title>
<g id="a_edge12_Node000012_Node000013"><a xlink:title=" ">
<path fill="none" stroke="#63b8ff" d="M402.99,-253.91C403.68,-254.47 404.35,-255.04 405,-255.62 437.61,-285.03 407.87,-318.81 441,-347.62 445.19,-351.27 449.95,-354.24 455.02,-356.67"/>
<polygon fill="#63b8ff" stroke="#63b8ff" points="404.88,-250.97 394.56,-248.55 401.12,-256.87 404.88,-250.97"/>
</a>
</g>
</g>
<!-- Node14 -->
<g id="Node000014" class="node">
<title>Node14</title>
<g id="a_Node000014"><a xlink:href="class_ogre_1_1_g_l3_plus_tex_buffer_emulated_packed.html" target="_top" xlink:title=" ">
<polygon fill="white" stroke="#666666" points="602.5,-338.88 441,-338.88 441,-308.38 602.5,-308.38 602.5,-338.88"/>
<text text-anchor="start" x="449" y="-325.38" font-family="Helvetica,sans-Serif" font-size="10.00">Ogre::GL3PlusTexBufferEmulated</text>
<text text-anchor="middle" x="521.75" y="-314.12" font-family="Helvetica,sans-Serif" font-size="10.00">Packed</text>
</a>
</g>
</g>
<!-- Node12&#45;&gt;Node14 -->
<g id="edge13_Node000012_Node000014" class="edge">
<title>Node12&#45;&gt;Node14</title>
<g id="a_edge13_Node000012_Node000014"><a xlink:title=" ">
<path fill="none" stroke="#63b8ff" d="M399.37,-252.32C401.31,-253.35 403.19,-254.45 405,-255.62 426.17,-269.42 419.99,-285.59 441,-299.62 445.69,-302.76 450.8,-305.49 456.1,-307.88"/>
<polygon fill="#63b8ff" stroke="#63b8ff" points="401.24,-249.32 390.69,-248.37 398.34,-255.7 401.24,-249.32"/>
</a>
</g>
</g>
<!-- Node15 -->
<g id="Node000015" class="node">
<title>Node15</title>
<g id="a_Node000015"><a xlink:href="class_ogre_1_1_g_l3_plus_tex_buffer_packed.html" target="_top" xlink:title=" ">
<polygon fill="white" stroke="#666666" points="598.75,-290.25 444.75,-290.25 444.75,-271 598.75,-271 598.75,-290.25"/>
<text text-anchor="middle" x="521.75" y="-276.75" font-family="Helvetica,sans-Serif" font-size="10.00">Ogre::GL3PlusTexBufferPacked</text>
</a>
</g>
</g>
<!-- Node12&#45;&gt;Node15 -->
<g id="edge14_Node000012_Node000015" class="edge">
<title>Node12&#45;&gt;Node15</title>
<g id="a_edge14_Node000012_Node000015"><a xlink:title=" ">
<path fill="none" stroke="#63b8ff" d="M393.16,-250.29C420.31,-256.75 452.87,-264.49 478.3,-270.53"/>
<polygon fill="#63b8ff" stroke="#63b8ff" points="394.29,-246.96 383.75,-248.06 392.67,-253.77 394.29,-246.96"/>
</a>
</g>
</g>
<!-- Node16 -->
<g id="Node000016" class="node">
<title>Node16</title>
<g id="a_Node000016"><a xlink:href="class_ogre_1_1_g_l_e_s2_tex_buffer_emulated_packed.html" target="_top" xlink:title=" ">
<polygon fill="white" stroke="#666666" points="599.12,-252.88 444.38,-252.88 444.38,-222.38 599.12,-222.38 599.12,-252.88"/>
<text text-anchor="start" x="452.38" y="-239.38" font-family="Helvetica,sans-Serif" font-size="10.00">Ogre::GLES2TexBufferEmulated</text>
<text text-anchor="middle" x="521.75" y="-228.12" font-family="Helvetica,sans-Serif" font-size="10.00">Packed</text>
</a>
</g>
</g>
<!-- Node12&#45;&gt;Node16 -->
<g id="edge15_Node000012_Node000016" class="edge">
<title>Node12&#45;&gt;Node16</title>
<g id="a_edge15_Node000012_Node000016"><a xlink:title=" ">
<path fill="none" stroke="#63b8ff" d="M408.51,-237.62C420.12,-237.62 432.24,-237.62 444.04,-237.62"/>
<polygon fill="#63b8ff" stroke="#63b8ff" points="408.62,-234.13 398.62,-237.63 408.62,-241.13 408.62,-234.13"/>
</a>
</g>
</g>
<!-- Node17 -->
<g id="Node000017" class="node">
<title>Node17</title>
<g id="a_Node000017"><a xlink:href="class_ogre_1_1_metal_tex_buffer_packed.html" target="_top" xlink:title=" ">
<polygon fill="white" stroke="#666666" points="591.62,-204.25 451.88,-204.25 451.88,-185 591.62,-185 591.62,-204.25"/>
<text text-anchor="middle" x="521.75" y="-190.75" font-family="Helvetica,sans-Serif" font-size="10.00">Ogre::MetalTexBufferPacked</text>
</a>
</g>
</g>
<!-- Node12&#45;&gt;Node17 -->
<g id="edge16_Node000012_Node000017" class="edge">
<title>Node12&#45;&gt;Node17</title>
<g id="a_edge16_Node000012_Node000017"><a xlink:title=" ">
<path fill="none" stroke="#63b8ff" d="M393.16,-224.96C420.31,-218.5 452.87,-210.76 478.3,-204.72"/>
<polygon fill="#63b8ff" stroke="#63b8ff" points="392.67,-221.48 383.75,-227.19 394.29,-228.29 392.67,-221.48"/>
</a>
</g>
</g>
<!-- Node18 -->
<g id="Node000018" class="node">
<title>Node18</title>
<g id="a_Node000018"><a xlink:href="class_ogre_1_1_n_u_l_l_tex_buffer_packed.html" target="_top" xlink:title=" ">
<polygon fill="white" stroke="#666666" points="593.12,-167.25 450.38,-167.25 450.38,-148 593.12,-148 593.12,-167.25"/>
<text text-anchor="middle" x="521.75" y="-153.75" font-family="Helvetica,sans-Serif" font-size="10.00">Ogre::NULLTexBufferPacked</text>
</a>
</g>
</g>
<!-- Node12&#45;&gt;Node18 -->
<g id="edge17_Node000012_Node000018" class="edge">
<title>Node12&#45;&gt;Node18</title>
<g id="a_edge17_Node000012_Node000018"><a xlink:title=" ">
<path fill="none" stroke="#63b8ff" d="M361.92,-221.15C381.68,-207.13 411.95,-187.43 441,-175.62 448.63,-172.53 456.89,-169.91 465.11,-167.71"/>
<polygon fill="#63b8ff" stroke="#63b8ff" points="360.13,-218.12 354.09,-226.82 364.24,-223.79 360.13,-218.12"/>
</a>
</g>
</g>
<!-- Node20 -->
<g id="Node000020" class="node">
<title>Node20</title>
<g id="a_Node000020"><a xlink:href="class_ogre_1_1_d3_d11_uav_buffer_packed.html" target="_top" xlink:title=" ">
<polygon fill="white" stroke="#666666" points="595.38,-130.25 448.12,-130.25 448.12,-111 595.38,-111 595.38,-130.25"/>
<text text-anchor="middle" x="521.75" y="-116.75" font-family="Helvetica,sans-Serif" font-size="10.00">Ogre::D3D11UavBufferPacked</text>
</a>
</g>
</g>
<!-- Node19&#45;&gt;Node20 -->
<g id="edge19_Node000019_Node000020" class="edge">
<title>Node19&#45;&gt;Node20</title>
<g id="a_edge19_Node000019_Node000020"><a xlink:title=" ">
<path fill="none" stroke="#63b8ff" d="M409.43,-109.55C421.97,-110.79 435.08,-112.1 447.72,-113.36"/>
<polygon fill="#63b8ff" stroke="#63b8ff" points="409.9,-106.08 399.61,-108.57 409.21,-113.04 409.9,-106.08"/>
</a>
</g>
</g>
<!-- Node21 -->
<g id="Node000021" class="node">
<title>Node21</title>
<g id="a_Node000021"><a xlink:href="class_ogre_1_1_g_l3_plus_uav_buffer_packed.html" target="_top" xlink:title=" ">
<polygon fill="white" stroke="#666666" points="599.88,-93.25 443.62,-93.25 443.62,-74 599.88,-74 599.88,-93.25"/>
<text text-anchor="middle" x="521.75" y="-79.75" font-family="Helvetica,sans-Serif" font-size="10.00">Ogre::GL3PlusUavBufferPacked</text>
</a>
</g>
</g>
<!-- Node19&#45;&gt;Node21 -->
<g id="edge20_Node000019_Node000021" class="edge">
<title>Node19&#45;&gt;Node21</title>
<g id="a_edge20_Node000019_Node000021"><a xlink:title=" ">
<path fill="none" stroke="#63b8ff" d="M409.42,-95.32C420.47,-94.16 431.95,-92.95 443.17,-91.77"/>
<polygon fill="#63b8ff" stroke="#63b8ff" points="409.19,-91.82 399.61,-96.35 409.92,-98.79 409.19,-91.82"/>
</a>
</g>
</g>
<!-- Node22 -->
<g id="Node000022" class="node">
<title>Node22</title>
<g id="a_Node000022"><a xlink:href="class_ogre_1_1_metal_uav_buffer_packed.html" target="_top" xlink:title=" ">
<polygon fill="white" stroke="#666666" points="592.75,-56.25 450.75,-56.25 450.75,-37 592.75,-37 592.75,-56.25"/>
<text text-anchor="middle" x="521.75" y="-42.75" font-family="Helvetica,sans-Serif" font-size="10.00">Ogre::MetalUavBufferPacked</text>
</a>
</g>
</g>
<!-- Node19&#45;&gt;Node22 -->
<g id="edge21_Node000019_Node000022" class="edge">
<title>Node19&#45;&gt;Node22</title>
<g id="a_edge21_Node000019_Node000022"><a xlink:title=" ">
<path fill="none" stroke="#63b8ff" d="M392.98,-89.09C397.09,-87.7 401.14,-86.21 405,-84.62 421.94,-77.69 423.9,-71.15 441,-64.62 449.09,-61.54 457.85,-58.9 466.51,-56.67"/>
<polygon fill="#63b8ff" stroke="#63b8ff" points="391.98,-85.73 383.5,-92.09 394.09,-92.41 391.98,-85.73"/>
</a>
</g>
</g>
<!-- Node23 -->
<g id="Node000023" class="node">
<title>Node23</title>
<g id="a_Node000023"><a xlink:href="class_ogre_1_1_n_u_l_l_uav_buffer_packed.html" target="_top" xlink:title=" ">
<polygon fill="white" stroke="#666666" points="594.25,-19.25 449.25,-19.25 449.25,0 594.25,0 594.25,-19.25"/>
<text text-anchor="middle" x="521.75" y="-5.75" font-family="Helvetica,sans-Serif" font-size="10.00">Ogre::NULLUavBufferPacked</text>
</a>
</g>
</g>
<!-- Node19&#45;&gt;Node23 -->
<g id="edge22_Node000019_Node000023" class="edge">
<title>Node19&#45;&gt;Node23</title>
<g id="a_edge22_Node000019_Node000023"><a xlink:title=" ">
<path fill="none" stroke="#63b8ff" d="M400.88,-87.42C402.3,-86.54 403.68,-85.61 405,-84.62 429.06,-66.77 416.52,-44.91 441,-27.62 445.52,-24.43 450.52,-21.79 455.74,-19.62"/>
<polygon fill="#63b8ff" stroke="#63b8ff" points="399.65,-84.11 392.38,-91.82 402.87,-90.33 399.65,-84.11"/>
</a>
</g>
</g>
</g>
</svg>
