<?xml version="1.0" encoding="UTF-8" standalone="no"?>
<!DOCTYPE svg PUBLIC "-//W3C//DTD SVG 1.1//EN"
 "http://www.w3.org/Graphics/SVG/1.1/DTD/svg11.dtd">
<!-- Generated by graphviz version 9.0.0 (20230911.1827)
 -->
<!-- Title: Ogre::Plugin Pages: 1 -->
<svg width="364pt" height="434pt"
 viewBox="0.00 0.00 364.25 434.25" xmlns="http://www.w3.org/2000/svg" xmlns:xlink="http://www.w3.org/1999/xlink">
<g id="graph0" class="graph" transform="scale(1 1) rotate(0) translate(4 430.25)">
<title>Ogre::Plugin</title>
<!-- Node1 -->
<g id="Node000001" class="node">
<title>Node1</title>
<g id="a_Node000001"><a xlink:title="Class defining a generic OGRE plugin.">
<polygon fill="#999999" stroke="#666666" points="169.25,-222.25 100.75,-222.25 100.75,-203 169.25,-203 169.25,-222.25"/>
<text text-anchor="middle" x="135" y="-208.75" font-family="Helvetica,sans-Serif" font-size="10.00">Ogre::Plugin</text>
</a>
</g>
</g>
<!-- Node3 -->
<g id="Node000003" class="node">
<title>Node3</title>
<g id="a_Node000003"><a xlink:href="class_ogre_1_1_bsp_scene_manager_plugin.html" target="_top" xlink:title="Plugin instance for BSPSceneManager.">
<polygon fill="white" stroke="#666666" points="356.25,-426.25 205.25,-426.25 205.25,-407 356.25,-407 356.25,-426.25"/>
<text text-anchor="middle" x="280.75" y="-412.75" font-family="Helvetica,sans-Serif" font-size="10.00">Ogre::BspSceneManagerPlugin</text>
</a>
</g>
</g>
<!-- Node1&#45;&gt;Node3 -->
<g id="edge2_Node000001_Node000003" class="edge">
<title>Node1&#45;&gt;Node3</title>
<g id="a_edge2_Node000001_Node000003"><a xlink:title=" ">
<path fill="none" stroke="#63b8ff" d="M137.58,-233.84C141.65,-272.59 155.93,-354.86 205.25,-398.62 208.83,-401.8 212.88,-404.45 217.19,-406.64"/>
<polygon fill="#63b8ff" stroke="#63b8ff" points="141.08,-233.64 136.69,-223.99 134.11,-234.26 141.08,-233.64"/>
</a>
</g>
</g>
<!-- Node4 -->
<g id="Node000004" class="node">
<title>Node4</title>
<g id="a_Node000004"><a xlink:href="class_ogre_1_1_cg_plugin.html" target="_top" xlink:title="Plugin instance for Cg Program Manager.">
<polygon fill="white" stroke="#666666" points="321,-389.25 240.5,-389.25 240.5,-370 321,-370 321,-389.25"/>
<text text-anchor="middle" x="280.75" y="-375.75" font-family="Helvetica,sans-Serif" font-size="10.00">Ogre::CgPlugin</text>
</a>
</g>
</g>
<!-- Node1&#45;&gt;Node4 -->
<g id="edge3_Node000001_Node000004" class="edge">
<title>Node1&#45;&gt;Node4</title>
<g id="a_edge3_Node000001_Node000004"><a xlink:title=" ">
<path fill="none" stroke="#63b8ff" d="M139.76,-233.66C146.71,-266.19 164.73,-328.43 205.25,-361.62 215.03,-369.64 227.81,-374.18 240.02,-376.73"/>
<polygon fill="#63b8ff" stroke="#63b8ff" points="143.2,-233.03 137.84,-223.89 136.34,-234.38 143.2,-233.03"/>
</a>
</g>
</g>
<!-- Node5 -->
<g id="Node000005" class="node">
<title>Node5</title>
<g id="a_Node000005"><a xlink:href="class_ogre_1_1_d3_d11_plugin.html" target="_top" xlink:title="Plugin instance for D3D11 Manager.">
<polygon fill="white" stroke="#666666" points="329.62,-352.25 231.88,-352.25 231.88,-333 329.62,-333 329.62,-352.25"/>
<text text-anchor="middle" x="280.75" y="-338.75" font-family="Helvetica,sans-Serif" font-size="10.00">Ogre::D3D11Plugin</text>
</a>
</g>
</g>
<!-- Node1&#45;&gt;Node5 -->
<g id="edge4_Node000001_Node000005" class="edge">
<title>Node1&#45;&gt;Node5</title>
<g id="a_edge4_Node000001_Node000005"><a xlink:title=" ">
<path fill="none" stroke="#63b8ff" d="M143.08,-233.14C152.94,-258.6 173.29,-301.47 205.25,-324.62 213.01,-330.25 222.3,-334.13 231.64,-336.81"/>
<polygon fill="#63b8ff" stroke="#63b8ff" points="146.43,-232.11 139.7,-223.93 139.85,-234.52 146.43,-232.11"/>
</a>
</g>
</g>
<!-- Node6 -->
<g id="Node000006" class="node">
<title>Node6</title>
<g id="a_Node000006"><a xlink:href="class_ogre_1_1_d3_d9_plugin.html" target="_top" xlink:title="Plugin instance for D3D9 Manager.">
<polygon fill="white" stroke="#666666" points="327,-315.25 234.5,-315.25 234.5,-296 327,-296 327,-315.25"/>
<text text-anchor="middle" x="280.75" y="-301.75" font-family="Helvetica,sans-Serif" font-size="10.00">Ogre::D3D9Plugin</text>
</a>
</g>
</g>
<!-- Node1&#45;&gt;Node6 -->
<g id="edge5_Node000001_Node000006" class="edge">
<title>Node1&#45;&gt;Node6</title>
<g id="a_edge5_Node000001_Node000006"><a xlink:title=" ">
<path fill="none" stroke="#63b8ff" d="M148.66,-231.78C161.05,-249 181.49,-273.67 205.25,-287.62 214.08,-292.81 224.34,-296.51 234.37,-299.14"/>
<polygon fill="#63b8ff" stroke="#63b8ff" points="151.76,-230.11 143.19,-223.88 146,-234.09 151.76,-230.11"/>
</a>
</g>
</g>
<!-- Node7 -->
<g id="Node000007" class="node">
<title>Node7</title>
<g id="a_Node000007"><a xlink:href="class_ogre_1_1_g_l3_plus_plugin.html" target="_top" xlink:title="Plugin instance for GL3Plus Manager.">
<polygon fill="white" stroke="#666666" points="334.12,-278.25 227.38,-278.25 227.38,-259 334.12,-259 334.12,-278.25"/>
<text text-anchor="middle" x="280.75" y="-264.75" font-family="Helvetica,sans-Serif" font-size="10.00">Ogre::GL3PlusPlugin</text>
</a>
</g>
</g>
<!-- Node1&#45;&gt;Node7 -->
<g id="edge6_Node000001_Node000007" class="edge">
<title>Node1&#45;&gt;Node7</title>
<g id="a_edge6_Node000001_Node000007"><a xlink:title=" ">
<path fill="none" stroke="#63b8ff" d="M160.89,-228.38C173.75,-235.97 189.91,-244.69 205.25,-250.62 213.07,-253.65 221.55,-256.28 229.89,-258.52"/>
<polygon fill="#63b8ff" stroke="#63b8ff" points="163.04,-225.59 152.67,-223.4 159.41,-231.58 163.04,-225.59"/>
</a>
</g>
</g>
<!-- Node8 -->
<g id="Node000008" class="node">
<title>Node8</title>
<g id="a_Node000008"><a xlink:href="class_ogre_1_1_g_l_e_s2_plugin.html" target="_top" xlink:title="Plugin instance for GL ES 2 Manager.">
<polygon fill="white" stroke="#666666" points="330.75,-241.25 230.75,-241.25 230.75,-222 330.75,-222 330.75,-241.25"/>
<text text-anchor="middle" x="280.75" y="-227.75" font-family="Helvetica,sans-Serif" font-size="10.00">Ogre::GLES2Plugin</text>
</a>
</g>
</g>
<!-- Node1&#45;&gt;Node8 -->
<g id="edge7_Node000001_Node000008" class="edge">
<title>Node1&#45;&gt;Node8</title>
<g id="a_edge7_Node000001_Node000008"><a xlink:title=" ">
<path fill="none" stroke="#63b8ff" d="M180.77,-218.54C196.54,-220.63 214.34,-222.98 230.46,-225.11"/>
<polygon fill="#63b8ff" stroke="#63b8ff" points="181.58,-215.12 171.2,-217.28 180.66,-222.06 181.58,-215.12"/>
</a>
</g>
</g>
<!-- Node9 -->
<g id="Node000009" class="node">
<title>Node9</title>
<g id="a_Node000009"><a xlink:href="class_ogre_1_1_metal_plugin.html" target="_top" xlink:title="Plugin instance for Metal Manager.">
<polygon fill="white" stroke="#666666" points="327,-204.25 234.5,-204.25 234.5,-185 327,-185 327,-204.25"/>
<text text-anchor="middle" x="280.75" y="-190.75" font-family="Helvetica,sans-Serif" font-size="10.00">Ogre::MetalPlugin</text>
</a>
</g>
</g>
<!-- Node1&#45;&gt;Node9 -->
<g id="edge8_Node000001_Node000009" class="edge">
<title>Node1&#45;&gt;Node9</title>
<g id="a_edge8_Node000001_Node000009"><a xlink:title=" ">
<path fill="none" stroke="#63b8ff" d="M180.97,-206.99C197.86,-204.88 217.06,-202.48 234.01,-200.35"/>
<polygon fill="#63b8ff" stroke="#63b8ff" points="180.69,-203.5 171.2,-208.22 181.56,-210.45 180.69,-203.5"/>
</a>
</g>
</g>
<!-- Node10 -->
<g id="Node000010" class="node">
<title>Node10</title>
<g id="a_Node000010"><a xlink:href="class_ogre_1_1_n_u_l_l_plugin.html" target="_top" xlink:title="Plugin instance for NULL Manager.">
<polygon fill="white" stroke="#666666" points="328.5,-167.25 233,-167.25 233,-148 328.5,-148 328.5,-167.25"/>
<text text-anchor="middle" x="280.75" y="-153.75" font-family="Helvetica,sans-Serif" font-size="10.00">Ogre::NULLPlugin</text>
</a>
</g>
</g>
<!-- Node1&#45;&gt;Node10 -->
<g id="edge9_Node000001_Node000010" class="edge">
<title>Node1&#45;&gt;Node10</title>
<g id="a_edge9_Node000001_Node000010"><a xlink:title=" ">
<path fill="none" stroke="#63b8ff" d="M161.83,-196.8C174.55,-189.54 190.32,-181.31 205.25,-175.62 213.95,-172.31 223.47,-169.46 232.7,-167.07"/>
<polygon fill="#63b8ff" stroke="#63b8ff" points="160.12,-193.75 153.26,-201.83 163.66,-199.79 160.12,-193.75"/>
</a>
</g>
</g>
<!-- Node11 -->
<g id="Node000011" class="node">
<title>Node11</title>
<g id="a_Node000011"><a xlink:href="class_ogre_1_1_octree_plugin.html" target="_top" xlink:title="Plugin instance for Octree Manager.">
<polygon fill="white" stroke="#666666" points="329.62,-130.25 231.88,-130.25 231.88,-111 329.62,-111 329.62,-130.25"/>
<text text-anchor="middle" x="280.75" y="-116.75" font-family="Helvetica,sans-Serif" font-size="10.00">Ogre::OctreePlugin</text>
</a>
</g>
</g>
<!-- Node1&#45;&gt;Node11 -->
<g id="edge10_Node000001_Node000011" class="edge">
<title>Node1&#45;&gt;Node11</title>
<g id="a_edge10_Node000001_Node000011"><a xlink:title=" ">
<path fill="none" stroke="#63b8ff" d="M148.71,-193.73C161.14,-176.74 181.62,-152.4 205.25,-138.62 213.3,-133.93 222.51,-130.46 231.66,-127.89"/>
<polygon fill="#63b8ff" stroke="#63b8ff" points="146.13,-191.32 143.23,-201.51 151.85,-195.35 146.13,-191.32"/>
</a>
</g>
</g>
<!-- Node12 -->
<g id="Node000012" class="node">
<title>Node12</title>
<g id="a_Node000012"><a xlink:href="class_ogre_1_1_octree_zone_plugin.html" target="_top" xlink:title="Plugin instance for OctreeZone.">
<polygon fill="white" stroke="#666666" points="340.5,-93.25 221,-93.25 221,-74 340.5,-74 340.5,-93.25"/>
<text text-anchor="middle" x="280.75" y="-79.75" font-family="Helvetica,sans-Serif" font-size="10.00">Ogre::OctreeZonePlugin</text>
</a>
</g>
</g>
<!-- Node1&#45;&gt;Node12 -->
<g id="edge11_Node000001_Node000012" class="edge">
<title>Node1&#45;&gt;Node12</title>
<g id="a_edge11_Node000001_Node000012"><a xlink:title=" ">
<path fill="none" stroke="#63b8ff" d="M143.28,-191.91C153.25,-166.63 173.61,-124.46 205.25,-101.62 210,-98.2 215.31,-95.42 220.86,-93.16"/>
<polygon fill="#63b8ff" stroke="#63b8ff" points="140.07,-190.49 139.85,-201.08 146.63,-192.94 140.07,-190.49"/>
</a>
</g>
</g>
<!-- Node13 -->
<g id="Node000013" class="node">
<title>Node13</title>
<g id="a_Node000013"><a xlink:href="class_ogre_1_1_p_c_z_plugin.html" target="_top" xlink:title="Plugin instance for PCZ Manager.">
<polygon fill="white" stroke="#666666" points="324.75,-56.25 236.75,-56.25 236.75,-37 324.75,-37 324.75,-56.25"/>
<text text-anchor="middle" x="280.75" y="-42.75" font-family="Helvetica,sans-Serif" font-size="10.00">Ogre::PCZPlugin</text>
</a>
</g>
</g>
<!-- Node1&#45;&gt;Node13 -->
<g id="edge12_Node000001_Node000013" class="edge">
<title>Node1&#45;&gt;Node13</title>
<g id="a_edge12_Node000001_Node000013"><a xlink:title=" ">
<path fill="none" stroke="#63b8ff" d="M139.91,-191.26C146.99,-158.81 165.11,-97.43 205.25,-64.62 214.11,-57.38 225.43,-52.98 236.55,-50.32"/>
<polygon fill="#63b8ff" stroke="#63b8ff" points="136.48,-190.54 137.94,-201.03 143.34,-191.92 136.48,-190.54"/>
</a>
</g>
</g>
<!-- Node14 -->
<g id="Node000014" class="node">
<title>Node14</title>
<g id="a_Node000014"><a xlink:href="class_ogre_1_1_particle_f_x_plugin.html" target="_top" xlink:title="Plugin instance for ParticleFX Manager.">
<polygon fill="white" stroke="#666666" points="337.88,-19.25 223.62,-19.25 223.62,0 337.88,0 337.88,-19.25"/>
<text text-anchor="middle" x="280.75" y="-5.75" font-family="Helvetica,sans-Serif" font-size="10.00">Ogre::ParticleFXPlugin</text>
</a>
</g>
</g>
<!-- Node1&#45;&gt;Node14 -->
<g id="edge13_Node000001_Node000014" class="edge">
<title>Node1&#45;&gt;Node14</title>
<g id="a_edge13_Node000001_Node000014"><a xlink:title=" ">
<path fill="none" stroke="#63b8ff" d="M137.62,-191.52C141.75,-152.97 156.12,-71.14 205.25,-27.62 210.53,-22.95 216.82,-19.44 223.47,-16.81"/>
<polygon fill="#63b8ff" stroke="#63b8ff" points="134.15,-191.03 136.72,-201.31 141.12,-191.68 134.15,-191.03"/>
</a>
</g>
</g>
<!-- Node2 -->
<g id="Node000002" class="node">
<title>Node2</title>
<g id="a_Node000002"><a xlink:href="class_ogre_1_1_allocated_object.html" target="_top" xlink:title="Superclass for all objects that wish to use custom memory allocators when their new / delete operator...">
<polygon fill="white" stroke="#666666" points="64.75,-222.25 0,-222.25 0,-203 64.75,-203 64.75,-222.25"/>
<text text-anchor="middle" x="32.38" y="-208.75" font-family="Helvetica,sans-Serif" font-size="10.00">PluginAlloc</text>
</a>
</g>
</g>
<!-- Node2&#45;&gt;Node1 -->
<g id="edge1_Node000001_Node000002" class="edge">
<title>Node2&#45;&gt;Node1</title>
<g id="a_edge1_Node000001_Node000002"><a xlink:title=" ">
<path fill="none" stroke="#63b8ff" d="M76.57,-212.62C84.5,-212.62 92.68,-212.62 100.28,-212.62"/>
<polygon fill="#63b8ff" stroke="#63b8ff" points="76.73,-209.13 66.73,-212.63 76.73,-216.13 76.73,-209.13"/>
</a>
</g>
</g>
</g>
</svg>
