<?xml version="1.0" encoding="UTF-8" standalone="no"?>
<!DOCTYPE svg PUBLIC "-//W3C//DTD SVG 1.1//EN"
 "http://www.w3.org/Graphics/SVG/1.1/DTD/svg11.dtd">
<!-- Generated by graphviz version 9.0.0 (20230911.1827)
 -->
<!-- Title: Ogre::Resource::Listener Pages: 1 -->
<svg width="311pt" height="83pt"
 viewBox="0.00 0.00 310.62 82.50" xmlns="http://www.w3.org/2000/svg" xmlns:xlink="http://www.w3.org/1999/xlink">
<g id="graph0" class="graph" transform="scale(1 1) rotate(0) translate(4 78.5)">
<title>Ogre::Resource::Listener</title>
<!-- Node1 -->
<g id="Node000001" class="node">
<title>Node1</title>
<g id="a_Node000001"><a xlink:title=" ">
<polygon fill="#999999" stroke="#666666" points="234.62,-74.5 112.12,-74.5 112.12,-55.25 234.62,-55.25 234.62,-74.5"/>
<text text-anchor="middle" x="173.38" y="-61" font-family="Helvetica,sans-Serif" font-size="10.00">Ogre::Resource::Listener</text>
</a>
</g>
</g>
<!-- Node2 -->
<g id="Node000002" class="node">
<title>Node2</title>
<g id="a_Node000002"><a xlink:href="class_ogre_1_1_gpu_program_usage.html" target="_top" xlink:title="This class makes the usage of a vertex and fragment programs (low&#45;level or high&#45;level),...">
<polygon fill="white" stroke="#666666" points="124.75,-19.25 0,-19.25 0,0 124.75,0 124.75,-19.25"/>
<text text-anchor="middle" x="62.38" y="-5.75" font-family="Helvetica,sans-Serif" font-size="10.00">Ogre::GpuProgramUsage</text>
</a>
</g>
</g>
<!-- Node1&#45;&gt;Node2 -->
<g id="edge1_Node000001_Node000002" class="edge">
<title>Node1&#45;&gt;Node2</title>
<g id="a_edge1_Node000001_Node000002"><a xlink:title=" ">
<path fill="none" stroke="#63b8ff" d="M144.19,-49.87C124.3,-40.33 98.55,-27.98 81.3,-19.7"/>
<polygon fill="#63b8ff" stroke="#63b8ff" points="142.65,-53.02 153.18,-54.19 145.68,-46.71 142.65,-53.02"/>
</a>
</g>
</g>
<!-- Node3 -->
<g id="Node000003" class="node">
<title>Node3</title>
<g id="a_Node000003"><a xlink:href="class_ogre_1_1_item.html" target="_top" xlink:title="Defines an instance of a discrete, movable object based on a Mesh.">
<polygon fill="white" stroke="#666666" points="203.88,-19.25 142.88,-19.25 142.88,0 203.88,0 203.88,-19.25"/>
<text text-anchor="middle" x="173.38" y="-5.75" font-family="Helvetica,sans-Serif" font-size="10.00">Ogre::Item</text>
</a>
</g>
</g>
<!-- Node1&#45;&gt;Node3 -->
<g id="edge2_Node000001_Node000003" class="edge">
<title>Node1&#45;&gt;Node3</title>
<g id="a_edge2_Node000001_Node000003"><a xlink:title=" ">
<path fill="none" stroke="#63b8ff" d="M173.38,-43.63C173.38,-35.34 173.38,-26.17 173.38,-19.61"/>
<polygon fill="#63b8ff" stroke="#63b8ff" points="169.88,-43.57 173.38,-53.57 176.88,-43.57 169.88,-43.57"/>
</a>
</g>
</g>
<!-- Node4 -->
<g id="Node000004" class="node">
<title>Node4</title>
<g id="a_Node000004"><a xlink:href="class_ogre_1_1v1_1_1_entity.html" target="_top" xlink:title="Defines an instance of a discrete, movable object based on a Mesh.">
<polygon fill="white" stroke="#666666" points="302.62,-19.25 222.12,-19.25 222.12,0 302.62,0 302.62,-19.25"/>
<text text-anchor="middle" x="262.38" y="-5.75" font-family="Helvetica,sans-Serif" font-size="10.00">Ogre::v1::Entity</text>
</a>
</g>
</g>
<!-- Node1&#45;&gt;Node4 -->
<g id="edge3_Node000001_Node000004" class="edge">
<title>Node1&#45;&gt;Node4</title>
<g id="a_edge3_Node000001_Node000004"><a xlink:title=" ">
<path fill="none" stroke="#63b8ff" d="M198.11,-49.07C213.86,-39.65 233.75,-27.75 247.2,-19.7"/>
<polygon fill="#63b8ff" stroke="#63b8ff" points="196.56,-45.93 189.77,-54.06 200.15,-51.93 196.56,-45.93"/>
</a>
</g>
</g>
</g>
</svg>
