<?xml version="1.0" encoding="UTF-8" standalone="no"?>
<!DOCTYPE svg PUBLIC "-//W3C//DTD SVG 1.1//EN"
 "http://www.w3.org/Graphics/SVG/1.1/DTD/svg11.dtd">
<!-- Generated by graphviz version 9.0.0 (20230911.1827)
 -->
<!-- Title: Ogre::EGLWindow Pages: 1 -->
<svg width="699pt" height="138pt"
 viewBox="0.00 0.00 699.25 138.25" xmlns="http://www.w3.org/2000/svg" xmlns:xlink="http://www.w3.org/1999/xlink">
<g id="graph0" class="graph" transform="scale(1 1) rotate(0) translate(4 134.25)">
<title>Ogre::EGLWindow</title>
<!-- Node1 -->
<g id="Node000001" class="node">
<title>Node1</title>
<g id="a_Node000001"><a xlink:title=" ">
<polygon fill="#999999" stroke="#666666" points="511,-74.25 415.5,-74.25 415.5,-55 511,-55 511,-74.25"/>
<text text-anchor="middle" x="463.25" y="-60.75" font-family="Helvetica,sans-Serif" font-size="10.00">Ogre::EGLWindow</text>
</a>
</g>
</g>
<!-- Node6 -->
<g id="Node000006" class="node">
<title>Node6</title>
<g id="a_Node000006"><a xlink:href="class_ogre_1_1_android_e_g_l_window.html" target="_top" xlink:title=" ">
<polygon fill="white" stroke="#666666" points="683.38,-130.25 554.88,-130.25 554.88,-111 683.38,-111 683.38,-130.25"/>
<text text-anchor="middle" x="619.12" y="-116.75" font-family="Helvetica,sans-Serif" font-size="10.00">Ogre::AndroidEGLWindow</text>
</a>
</g>
</g>
<!-- Node1&#45;&gt;Node6 -->
<g id="edge5_Node000001_Node000006" class="edge">
<title>Node1&#45;&gt;Node6</title>
<g id="a_edge5_Node000001_Node000006"><a xlink:title=" ">
<path fill="none" stroke="#63b8ff" d="M493.63,-79.71C509.21,-87.3 528.83,-96.21 547,-102.62 555.29,-105.55 564.28,-108.2 572.98,-110.52"/>
<polygon fill="#63b8ff" stroke="#63b8ff" points="495.43,-76.7 484.92,-75.39 492.32,-82.97 495.43,-76.7"/>
</a>
</g>
</g>
<!-- Node7 -->
<g id="Node000007" class="node">
<title>Node7</title>
<g id="a_Node000007"><a xlink:href="class_ogre_1_1_emscripten_e_g_l_window.html" target="_top" xlink:title=" ">
<polygon fill="white" stroke="#666666" points="691.25,-93.25 547,-93.25 547,-74 691.25,-74 691.25,-93.25"/>
<text text-anchor="middle" x="619.12" y="-79.75" font-family="Helvetica,sans-Serif" font-size="10.00">Ogre::EmscriptenEGLWindow</text>
</a>
</g>
</g>
<!-- Node1&#45;&gt;Node7 -->
<g id="edge6_Node000001_Node000007" class="edge">
<title>Node1&#45;&gt;Node7</title>
<g id="a_edge6_Node000001_Node000007"><a xlink:title=" ">
<path fill="none" stroke="#63b8ff" d="M522.59,-71.83C530.49,-72.8 538.66,-73.81 546.76,-74.81"/>
<polygon fill="#63b8ff" stroke="#63b8ff" points="523.11,-68.37 512.76,-70.61 522.25,-75.31 523.11,-68.37"/>
</a>
</g>
</g>
<!-- Node8 -->
<g id="Node000008" class="node">
<title>Node8</title>
<g id="a_Node000008"><a xlink:href="class_ogre_1_1_win32_e_g_l_window.html" target="_top" xlink:title=" ">
<polygon fill="white" stroke="#666666" points="680.38,-56.25 557.88,-56.25 557.88,-37 680.38,-37 680.38,-56.25"/>
<text text-anchor="middle" x="619.12" y="-42.75" font-family="Helvetica,sans-Serif" font-size="10.00">Ogre::Win32EGLWindow</text>
</a>
</g>
</g>
<!-- Node1&#45;&gt;Node8 -->
<g id="edge7_Node000001_Node000008" class="edge">
<title>Node1&#45;&gt;Node8</title>
<g id="a_edge7_Node000001_Node000008"><a xlink:title=" ">
<path fill="none" stroke="#63b8ff" d="M522.47,-57.81C533.92,-56.47 545.96,-55.07 557.49,-53.72"/>
<polygon fill="#63b8ff" stroke="#63b8ff" points="522.28,-54.31 512.76,-58.95 523.1,-61.27 522.28,-54.31"/>
</a>
</g>
</g>
<!-- Node9 -->
<g id="Node000009" class="node">
<title>Node9</title>
<g id="a_Node000009"><a xlink:href="class_ogre_1_1_x11_e_g_l_window.html" target="_top" xlink:title=" ">
<polygon fill="white" stroke="#666666" points="675.5,-19.25 562.75,-19.25 562.75,0 675.5,0 675.5,-19.25"/>
<text text-anchor="middle" x="619.12" y="-5.75" font-family="Helvetica,sans-Serif" font-size="10.00">Ogre::X11EGLWindow</text>
</a>
</g>
</g>
<!-- Node1&#45;&gt;Node9 -->
<g id="edge8_Node000001_Node000009" class="edge">
<title>Node1&#45;&gt;Node9</title>
<g id="a_edge8_Node000001_Node000009"><a xlink:title=" ">
<path fill="none" stroke="#63b8ff" d="M494.3,-49.68C509.78,-42.37 529.12,-33.83 547,-27.62 555.42,-24.7 564.56,-22.03 573.38,-19.69"/>
<polygon fill="#63b8ff" stroke="#63b8ff" points="493.12,-46.36 485.62,-53.85 496.15,-52.67 493.12,-46.36"/>
</a>
</g>
</g>
<!-- Node2 -->
<g id="Node000002" class="node">
<title>Node2</title>
<g id="a_Node000002"><a xlink:href="class_ogre_1_1_render_window.html" target="_top" xlink:title="Manages the target rendering window.">
<polygon fill="white" stroke="#666666" points="379.5,-74.25 272.75,-74.25 272.75,-55 379.5,-55 379.5,-74.25"/>
<text text-anchor="middle" x="326.12" y="-60.75" font-family="Helvetica,sans-Serif" font-size="10.00">Ogre::RenderWindow</text>
</a>
</g>
</g>
<!-- Node2&#45;&gt;Node1 -->
<g id="edge1_Node000001_Node000002" class="edge">
<title>Node2&#45;&gt;Node1</title>
<g id="a_edge1_Node000001_Node000002"><a xlink:title=" ">
<path fill="none" stroke="#63b8ff" d="M391.15,-64.62C399.28,-64.62 407.47,-64.62 415.27,-64.62"/>
<polygon fill="#63b8ff" stroke="#63b8ff" points="391.27,-61.13 381.27,-64.63 391.27,-68.13 391.27,-61.13"/>
</a>
</g>
</g>
<!-- Node3 -->
<g id="Node000003" class="node">
<title>Node3</title>
<g id="a_Node000003"><a xlink:href="class_ogre_1_1_render_target.html" target="_top" xlink:title="A &#39;canvas&#39; which can receive the results of a rendering operation.">
<polygon fill="white" stroke="#666666" points="236.75,-74.25 136.75,-74.25 136.75,-55 236.75,-55 236.75,-74.25"/>
<text text-anchor="middle" x="186.75" y="-60.75" font-family="Helvetica,sans-Serif" font-size="10.00">Ogre::RenderTarget</text>
</a>
</g>
</g>
<!-- Node3&#45;&gt;Node2 -->
<g id="edge2_Node000002_Node000003" class="edge">
<title>Node3&#45;&gt;Node2</title>
<g id="a_edge2_Node000002_Node000003"><a xlink:title=" ">
<path fill="none" stroke="#63b8ff" d="M248.25,-64.62C256.35,-64.62 264.6,-64.62 272.54,-64.62"/>
<polygon fill="#63b8ff" stroke="#63b8ff" points="248.47,-61.13 238.47,-64.63 248.47,-68.13 248.47,-61.13"/>
</a>
</g>
</g>
<!-- Node4 -->
<g id="Node000004" class="node">
<title>Node4</title>
<g id="a_Node000004"><a xlink:href="struct_ogre_1_1_gpu_resource.html" target="_top" xlink:title=" ">
<polygon fill="white" stroke="#666666" points="100.75,-93.25 0,-93.25 0,-74 100.75,-74 100.75,-93.25"/>
<text text-anchor="middle" x="50.38" y="-79.75" font-family="Helvetica,sans-Serif" font-size="10.00">Ogre::GpuResource</text>
</a>
</g>
</g>
<!-- Node4&#45;&gt;Node3 -->
<g id="edge3_Node000003_Node000004" class="edge">
<title>Node4&#45;&gt;Node3</title>
<g id="a_edge3_Node000003_Node000004"><a xlink:title=" ">
<path fill="none" stroke="#63b8ff" d="M112.27,-75.01C120.32,-73.88 128.48,-72.72 136.3,-71.62"/>
<polygon fill="#63b8ff" stroke="#63b8ff" points="111.94,-71.53 102.53,-76.39 112.92,-78.46 111.94,-71.53"/>
</a>
</g>
</g>
<!-- Node5 -->
<g id="Node000005" class="node">
<title>Node5</title>
<g id="a_Node000005"><a xlink:href="class_ogre_1_1_allocated_object.html" target="_top" xlink:title="Superclass for all objects that wish to use custom memory allocators when their new / delete operator...">
<polygon fill="white" stroke="#666666" points="92.88,-56.25 7.88,-56.25 7.88,-37 92.88,-37 92.88,-56.25"/>
<text text-anchor="middle" x="50.38" y="-42.75" font-family="Helvetica,sans-Serif" font-size="10.00">RenderSysAlloc</text>
</a>
</g>
</g>
<!-- Node5&#45;&gt;Node3 -->
<g id="edge4_Node000003_Node000005" class="edge">
<title>Node5&#45;&gt;Node3</title>
<g id="a_edge4_Node000003_Node000005"><a xlink:title=" ">
<path fill="none" stroke="#63b8ff" d="M104.38,-53.73C114.95,-55.14 126.02,-56.62 136.46,-58.02"/>
<polygon fill="#63b8ff" stroke="#63b8ff" points="105.03,-50.28 94.66,-52.42 104.1,-57.22 105.03,-50.28"/>
</a>
</g>
</g>
</g>
</svg>
