<?xml version="1.0" encoding="UTF-8" standalone="no"?>
<!DOCTYPE svg PUBLIC "-//W3C//DTD SVG 1.1//EN"
 "http://www.w3.org/Graphics/SVG/1.1/DTD/svg11.dtd">
<!-- Generated by graphviz version 2.44.0 ()
 -->
<!-- Title: Ogre::Font Pages: 1 -->
<svg width="321pt" height="140pt"
 viewBox="0.00 0.00 320.50 140.00" xmlns="http://www.w3.org/2000/svg" xmlns:xlink="http://www.w3.org/1999/xlink">
<g id="graph0" class="graph" transform="scale(1 1) rotate(0) translate(4 136)">
<title>Ogre::Font</title>
<!-- Node1 -->
<g id="node1" class="node">
<title>Node1</title>
<g id="a_node1"><a xlink:title="Class representing a font in the system.">
<polygon fill="#bfbfbf" stroke="black" points="143,-0.5 143,-19.5 205,-19.5 205,-0.5 143,-0.5"/>
<text text-anchor="middle" x="174" y="-7.5" font-family="Helvetica,sans-Serif" font-size="10.00">Ogre::Font</text>
</a>
</g>
</g>
<!-- Node2 -->
<g id="node2" class="node">
<title>Node2</title>
<g id="a_node2"><a xlink:href="class_ogre_1_1_resource.html" target="_top" xlink:title="Abstract class representing a loadable resource (e.g.">
<polygon fill="none" stroke="black" points="66.5,-56.5 66.5,-75.5 149.5,-75.5 149.5,-56.5 66.5,-56.5"/>
<text text-anchor="middle" x="108" y="-63.5" font-family="Helvetica,sans-Serif" font-size="10.00">Ogre::Resource</text>
</a>
</g>
</g>
<!-- Node2&#45;&gt;Node1 -->
<g id="edge1" class="edge">
<title>Node2&#45;&gt;Node1</title>
<path fill="none" stroke="midnightblue" d="M126.55,-49.82C138.38,-40.15 153.29,-27.95 163.2,-19.83"/>
<polygon fill="midnightblue" stroke="midnightblue" points="124.13,-47.28 118.6,-56.32 128.56,-52.7 124.13,-47.28"/>
</g>
<!-- Node3 -->
<g id="node3" class="node">
<title>Node3</title>
<g id="a_node3"><a xlink:href="class_ogre_1_1_string_interface.html" target="_top" xlink:title="Class defining the common interface which classes can use to present a reflection&#45;style,...">
<polygon fill="none" stroke="black" points="0,-112.5 0,-131.5 106,-131.5 106,-112.5 0,-112.5"/>
<text text-anchor="middle" x="53" y="-119.5" font-family="Helvetica,sans-Serif" font-size="10.00">Ogre::StringInterface</text>
</a>
</g>
</g>
<!-- Node3&#45;&gt;Node2 -->
<g id="edge2" class="edge">
<title>Node3&#45;&gt;Node2</title>
<path fill="none" stroke="midnightblue" d="M69.29,-105C79.04,-95.43 91.05,-83.64 99.09,-75.75"/>
<polygon fill="midnightblue" stroke="midnightblue" points="66.77,-102.58 62.08,-112.08 71.67,-107.57 66.77,-102.58"/>
</g>
<!-- Node4 -->
<g id="node4" class="node">
<title>Node4</title>
<g id="a_node4"><a xlink:href="class_ogre_1_1_allocated_object.html" target="_top" xlink:title="Superclass for all objects that wish to use custom memory allocators when their new / delete operator...">
<polygon fill="none" stroke="black" points="124,-112.5 124,-131.5 204,-131.5 204,-112.5 124,-112.5"/>
<text text-anchor="middle" x="164" y="-119.5" font-family="Helvetica,sans-Serif" font-size="10.00">ResourceAlloc</text>
</a>
</g>
</g>
<!-- Node4&#45;&gt;Node2 -->
<g id="edge3" class="edge">
<title>Node4&#45;&gt;Node2</title>
<path fill="none" stroke="midnightblue" d="M147.67,-105.25C137.74,-95.67 125.41,-83.79 117.16,-75.83"/>
<polygon fill="midnightblue" stroke="midnightblue" points="145.37,-107.9 155,-112.32 150.23,-102.86 145.37,-107.9"/>
</g>
<!-- Node5 -->
<g id="node5" class="node">
<title>Node5</title>
<g id="a_node5"><a xlink:href="class_ogre_1_1_manual_resource_loader.html" target="_top" xlink:title="Interface describing a manual resource loader.">
<polygon fill="none" stroke="black" points="167.5,-56.5 167.5,-75.5 312.5,-75.5 312.5,-56.5 167.5,-56.5"/>
<text text-anchor="middle" x="240" y="-63.5" font-family="Helvetica,sans-Serif" font-size="10.00">Ogre::ManualResourceLoader</text>
</a>
</g>
</g>
<!-- Node5&#45;&gt;Node1 -->
<g id="edge4" class="edge">
<title>Node5&#45;&gt;Node1</title>
<path fill="none" stroke="midnightblue" d="M221.45,-49.82C209.62,-40.15 194.71,-27.95 184.8,-19.83"/>
<polygon fill="midnightblue" stroke="midnightblue" points="219.44,-52.7 229.4,-56.32 223.87,-47.28 219.44,-52.7"/>
</g>
</g>
</svg>
