<?xml version="1.0" encoding="UTF-8" standalone="no"?>
<!DOCTYPE svg PUBLIC "-//W3C//DTD SVG 1.1//EN"
 "http://www.w3.org/Graphics/SVG/1.1/DTD/svg11.dtd">
<!-- Generated by graphviz version 9.0.0 (20230911.1827)
 -->
<!-- Title: Ogre::GTKGLSupport Pages: 1 -->
<svg width="306pt" height="83pt"
 viewBox="0.00 0.00 305.75 82.50" xmlns="http://www.w3.org/2000/svg" xmlns:xlink="http://www.w3.org/1999/xlink">
<g id="graph0" class="graph" transform="scale(1 1) rotate(0) translate(4 78.5)">
<title>Ogre::GTKGLSupport</title>
<!-- Node1 -->
<g id="Node000001" class="node">
<title>Node1</title>
<g id="a_Node000001"><a xlink:title="GL support in a GTK window.">
<polygon fill="#999999" stroke="#666666" points="190.25,-19.25 81.25,-19.25 81.25,0 190.25,0 190.25,-19.25"/>
<text text-anchor="middle" x="135.75" y="-5.75" font-family="Helvetica,sans-Serif" font-size="10.00">Ogre::GTKGLSupport</text>
</a>
</g>
</g>
<!-- Node2 -->
<g id="Node000002" class="node">
<title>Node2</title>
<g id="a_Node000002"><a xlink:href="class_ogre_1_1_g_l3_plus_support.html" target="_top" xlink:title=" ">
<polygon fill="white" stroke="#666666" points="113.5,-74.5 0,-74.5 0,-55.25 113.5,-55.25 113.5,-74.5"/>
<text text-anchor="middle" x="56.75" y="-61" font-family="Helvetica,sans-Serif" font-size="10.00">Ogre::GL3PlusSupport</text>
</a>
</g>
</g>
<!-- Node2&#45;&gt;Node1 -->
<g id="edge1_Node000001_Node000002" class="edge">
<title>Node2&#45;&gt;Node1</title>
<g id="a_edge1_Node000001_Node000002"><a xlink:title=" ">
<path fill="none" stroke="#63b8ff" d="M79.51,-48.53C93.36,-39.2 110.57,-27.6 122.28,-19.7"/>
<polygon fill="#63b8ff" stroke="#63b8ff" points="77.74,-45.5 71.41,-54 81.65,-51.31 77.74,-45.5"/>
</a>
</g>
</g>
<!-- Node3 -->
<g id="Node000003" class="node">
<title>Node3</title>
<g id="a_Node000003"><a xlink:href="class_ogre_1_1_singleton.html" target="_top" xlink:title=" ">
<polygon fill="white" stroke="#666666" points="297.75,-74.5 131.75,-74.5 131.75,-55.25 297.75,-55.25 297.75,-74.5"/>
<text text-anchor="middle" x="214.75" y="-61" font-family="Helvetica,sans-Serif" font-size="10.00">Ogre::Singleton&lt; GTKGLSupport &gt;</text>
</a>
</g>
</g>
<!-- Node3&#45;&gt;Node1 -->
<g id="edge2_Node000001_Node000003" class="edge">
<title>Node3&#45;&gt;Node1</title>
<g id="a_edge2_Node000001_Node000003"><a xlink:title=" ">
<path fill="none" stroke="#63b8ff" d="M191.99,-48.53C178.14,-39.2 160.93,-27.6 149.22,-19.7"/>
<polygon fill="#63b8ff" stroke="#63b8ff" points="189.85,-51.31 200.09,-54 193.76,-45.5 189.85,-51.31"/>
</a>
</g>
</g>
</g>
</svg>
