<?xml version="1.0" encoding="UTF-8" standalone="no"?>
<!DOCTYPE svg PUBLIC "-//W3C//DTD SVG 1.1//EN"
 "http://www.w3.org/Graphics/SVG/1.1/DTD/svg11.dtd">
<!-- Generated by graphviz version 9.0.0 (20230911.1827)
 -->
<!-- Title: Ogre::ResourceManager::ResourcePool Pages: 1 -->
<svg width="236pt" height="94pt"
 viewBox="0.00 0.00 236.25 93.75" xmlns="http://www.w3.org/2000/svg" xmlns:xlink="http://www.w3.org/1999/xlink">
<g id="graph0" class="graph" transform="scale(1 1) rotate(0) translate(4 89.75)">
<title>Ogre::ResourceManager::ResourcePool</title>
<!-- Node1 -->
<g id="Node000001" class="node">
<title>Node1</title>
<g id="a_Node000001"><a xlink:title="Definition of a pool of resources, which users can use to reuse similar resources many times without ...">
<polygon fill="#999999" stroke="#666666" points="186.88,-30.5 66.62,-30.5 66.62,0 186.88,0 186.88,-30.5"/>
<text text-anchor="start" x="74.62" y="-17" font-family="Helvetica,sans-Serif" font-size="10.00">Ogre::ResourceManager</text>
<text text-anchor="middle" x="126.75" y="-5.75" font-family="Helvetica,sans-Serif" font-size="10.00">::ResourcePool</text>
</a>
</g>
</g>
<!-- Node2 -->
<g id="Node000002" class="node">
<title>Node2</title>
<g id="a_Node000002"><a xlink:href="class_ogre_1_1_pool.html" target="_top" xlink:title=" ">
<polygon fill="white" stroke="#666666" points="131.5,-85.75 0,-85.75 0,-66.5 131.5,-66.5 131.5,-85.75"/>
<text text-anchor="middle" x="65.75" y="-72.25" font-family="Helvetica,sans-Serif" font-size="10.00">Ogre::Pool&lt; ResourcePtr &gt;</text>
</a>
</g>
</g>
<!-- Node2&#45;&gt;Node1 -->
<g id="edge1_Node000001_Node000002" class="edge">
<title>Node2&#45;&gt;Node1</title>
<g id="a_edge1_Node000001_Node000002"><a xlink:title=" ">
<path fill="none" stroke="#63b8ff" d="M83.24,-58.25C92.23,-49.57 103.08,-39.1 111.69,-30.78"/>
<polygon fill="#63b8ff" stroke="#63b8ff" points="80.87,-55.67 76.1,-65.13 85.73,-60.71 80.87,-55.67"/>
</a>
</g>
</g>
<!-- Node3 -->
<g id="Node000003" class="node">
<title>Node3</title>
<g id="a_Node000003"><a xlink:href="class_ogre_1_1_allocated_object.html" target="_top" xlink:title="Superclass for all objects that wish to use custom memory allocators when their new / delete operator...">
<polygon fill="white" stroke="#666666" points="228.25,-85.75 149.25,-85.75 149.25,-66.5 228.25,-66.5 228.25,-85.75"/>
<text text-anchor="middle" x="188.75" y="-72.25" font-family="Helvetica,sans-Serif" font-size="10.00">ResourceAlloc</text>
</a>
</g>
</g>
<!-- Node3&#45;&gt;Node1 -->
<g id="edge2_Node000001_Node000003" class="edge">
<title>Node3&#45;&gt;Node1</title>
<g id="a_edge2_Node000001_Node000003"><a xlink:title=" ">
<path fill="none" stroke="#63b8ff" d="M171.26,-58.52C162.07,-49.79 150.9,-39.18 142.05,-30.78"/>
<polygon fill="#63b8ff" stroke="#63b8ff" points="168.57,-60.79 178.24,-65.14 173.39,-55.72 168.57,-60.79"/>
</a>
</g>
</g>
</g>
</svg>
