<?xml version="1.0" encoding="UTF-8" standalone="no"?>
<!DOCTYPE svg PUBLIC "-//W3C//DTD SVG 1.1//EN"
 "http://www.w3.org/Graphics/SVG/1.1/DTD/svg11.dtd">
<!-- Generated by graphviz version 9.0.0 (20230911.1827)
 -->
<!-- Title: Ogre::Volume::GridSource Pages: 1 -->
<svg width="304pt" height="149pt"
 viewBox="0.00 0.00 304.38 149.00" xmlns="http://www.w3.org/2000/svg" xmlns:xlink="http://www.w3.org/1999/xlink">
<g id="graph0" class="graph" transform="scale(1 1) rotate(0) translate(4 145)">
<title>Ogre::Volume::GridSource</title>
<!-- Node1 -->
<g id="Node000001" class="node">
<title>Node1</title>
<g id="a_Node000001"><a xlink:title="A volume source from a discrete 3d grid.">
<polygon fill="#999999" stroke="#666666" points="210.25,-85.75 82.5,-85.75 82.5,-66.5 210.25,-66.5 210.25,-85.75"/>
<text text-anchor="middle" x="146.38" y="-72.25" font-family="Helvetica,sans-Serif" font-size="10.00">Ogre::Volume::GridSource</text>
</a>
</g>
</g>
<!-- Node3 -->
<g id="Node000003" class="node">
<title>Node3</title>
<g id="a_Node000003"><a xlink:href="class_ogre_1_1_volume_1_1_half_float_grid_source.html" target="_top" xlink:title="A volume source from a 16 Bit float 3D grid capable of loading volume serializations.">
<polygon fill="white" stroke="#666666" points="136.75,-30.5 0,-30.5 0,0 136.75,0 136.75,-30.5"/>
<text text-anchor="start" x="8" y="-17" font-family="Helvetica,sans-Serif" font-size="10.00">Ogre::Volume::HalfFloatGrid</text>
<text text-anchor="middle" x="68.38" y="-5.75" font-family="Helvetica,sans-Serif" font-size="10.00">Source</text>
</a>
</g>
</g>
<!-- Node1&#45;&gt;Node3 -->
<g id="edge2_Node000001_Node000003" class="edge">
<title>Node1&#45;&gt;Node3</title>
<g id="a_edge2_Node000001_Node000003"><a xlink:title=" ">
<path fill="none" stroke="#63b8ff" d="M125.44,-59.32C113.68,-50.45 99.1,-39.44 87.63,-30.78"/>
<polygon fill="#63b8ff" stroke="#63b8ff" points="123.23,-62.04 133.32,-65.27 127.45,-56.45 123.23,-62.04"/>
</a>
</g>
</g>
<!-- Node4 -->
<g id="Node000004" class="node">
<title>Node4</title>
<g id="a_Node000004"><a xlink:href="class_ogre_1_1_volume_1_1_texture_source.html" target="_top" xlink:title="A volume source from a 3D texture.">
<polygon fill="white" stroke="#666666" points="296.38,-24.88 154.38,-24.88 154.38,-5.63 296.38,-5.63 296.38,-24.88"/>
<text text-anchor="middle" x="225.38" y="-11.38" font-family="Helvetica,sans-Serif" font-size="10.00">Ogre::Volume::TextureSource</text>
</a>
</g>
</g>
<!-- Node1&#45;&gt;Node4 -->
<g id="edge3_Node000001_Node000004" class="edge">
<title>Node1&#45;&gt;Node4</title>
<g id="a_edge3_Node000001_Node000004"><a xlink:title=" ">
<path fill="none" stroke="#63b8ff" d="M167.26,-59.56C181.93,-48.63 201.04,-34.39 213.26,-25.28"/>
<polygon fill="#63b8ff" stroke="#63b8ff" points="165.51,-56.5 159.59,-65.28 169.7,-62.11 165.51,-56.5"/>
</a>
</g>
</g>
<!-- Node2 -->
<g id="Node000002" class="node">
<title>Node2</title>
<g id="a_Node000002"><a xlink:href="class_ogre_1_1_volume_1_1_source.html" target="_top" xlink:title="Abstract class defining the density function.">
<polygon fill="white" stroke="#666666" points="201.25,-141 91.5,-141 91.5,-121.75 201.25,-121.75 201.25,-141"/>
<text text-anchor="middle" x="146.38" y="-127.5" font-family="Helvetica,sans-Serif" font-size="10.00">Ogre::Volume::Source</text>
</a>
</g>
</g>
<!-- Node2&#45;&gt;Node1 -->
<g id="edge1_Node000001_Node000002" class="edge">
<title>Node2&#45;&gt;Node1</title>
<g id="a_edge1_Node000001_Node000002"><a xlink:title=" ">
<path fill="none" stroke="#63b8ff" d="M146.38,-110.13C146.38,-101.84 146.38,-92.67 146.38,-86.11"/>
<polygon fill="#63b8ff" stroke="#63b8ff" points="142.88,-110.07 146.38,-120.07 149.88,-110.07 142.88,-110.07"/>
</a>
</g>
</g>
</g>
</svg>
