<?xml version="1.0" encoding="UTF-8" standalone="no"?>
<!DOCTYPE svg PUBLIC "-//W3C//DTD SVG 1.1//EN"
 "http://www.w3.org/Graphics/SVG/1.1/DTD/svg11.dtd">
<!-- Generated by graphviz version 9.0.0 (20230911.1827)
 -->
<!-- Title: Ogre::RenderWindow Pages: 1 -->
<svg width="779pt" height="397pt"
 viewBox="0.00 0.00 778.75 397.25" xmlns="http://www.w3.org/2000/svg" xmlns:xlink="http://www.w3.org/1999/xlink">
<g id="graph0" class="graph" transform="scale(1 1) rotate(0) translate(4 393.25)">
<title>Ogre::RenderWindow</title>
<!-- Node1 -->
<g id="Node000001" class="node">
<title>Node1</title>
<g id="a_Node000001"><a xlink:title="Manages the target rendering window.">
<polygon fill="#999999" stroke="#666666" points="379.5,-204.25 272.75,-204.25 272.75,-185 379.5,-185 379.5,-204.25"/>
<text text-anchor="middle" x="326.12" y="-190.75" font-family="Helvetica,sans-Serif" font-size="10.00">Ogre::RenderWindow</text>
</a>
</g>
</g>
<!-- Node5 -->
<g id="Node000005" class="node">
<title>Node5</title>
<g id="a_Node000005"><a xlink:href="class_ogre_1_1_cocoa_window.html" target="_top" xlink:title=" ">
<polygon fill="white" stroke="#666666" points="546.62,-389.25 442.88,-389.25 442.88,-370 546.62,-370 546.62,-389.25"/>
<text text-anchor="middle" x="494.75" y="-375.75" font-family="Helvetica,sans-Serif" font-size="10.00">Ogre::CocoaWindow</text>
</a>
</g>
</g>
<!-- Node1&#45;&gt;Node5 -->
<g id="edge4_Node000001_Node000005" class="edge">
<title>Node1&#45;&gt;Node5</title>
<g id="a_edge4_Node000001_Node000005"><a xlink:title=" ">
<path fill="none" stroke="#63b8ff" d="M332.05,-215.34C341.66,-251.03 366.4,-323.91 415.5,-361.62 423.35,-367.65 432.86,-371.72 442.51,-374.46"/>
<polygon fill="#63b8ff" stroke="#63b8ff" points="335.5,-214.68 329.64,-205.85 328.71,-216.4 335.5,-214.68"/>
</a>
</g>
</g>
<!-- Node6 -->
<g id="Node000006" class="node">
<title>Node6</title>
<g id="a_Node000006"><a xlink:href="class_ogre_1_1_d3_d11_render_window_base.html" target="_top" xlink:title=" ">
<polygon fill="white" stroke="#666666" points="574,-352.25 415.5,-352.25 415.5,-333 574,-333 574,-352.25"/>
<text text-anchor="middle" x="494.75" y="-338.75" font-family="Helvetica,sans-Serif" font-size="10.00">Ogre::D3D11RenderWindowBase</text>
</a>
</g>
</g>
<!-- Node1&#45;&gt;Node6 -->
<g id="edge5_Node000001_Node000006" class="edge">
<title>Node1&#45;&gt;Node6</title>
<g id="a_edge5_Node000001_Node000006"><a xlink:title=" ">
<path fill="none" stroke="#63b8ff" d="M335.29,-215.2C347.95,-244.3 375.11,-297 415.5,-324.62 420.1,-327.77 425.18,-330.38 430.46,-332.53"/>
<polygon fill="#63b8ff" stroke="#63b8ff" points="338.56,-213.93 331.48,-206.04 332.09,-216.62 338.56,-213.93"/>
</a>
</g>
</g>
<!-- Node8 -->
<g id="Node000008" class="node">
<title>Node8</title>
<g id="a_Node000008"><a xlink:href="class_ogre_1_1_d3_d9_render_window.html" target="_top" xlink:title=" ">
<polygon fill="white" stroke="#666666" points="560.12,-315.25 429.38,-315.25 429.38,-296 560.12,-296 560.12,-315.25"/>
<text text-anchor="middle" x="494.75" y="-301.75" font-family="Helvetica,sans-Serif" font-size="10.00">Ogre::D3D9RenderWindow</text>
</a>
</g>
</g>
<!-- Node1&#45;&gt;Node8 -->
<g id="edge7_Node000001_Node000008" class="edge">
<title>Node1&#45;&gt;Node8</title>
<g id="a_edge7_Node000001_Node000008"><a xlink:title=" ">
<path fill="none" stroke="#63b8ff" d="M340.11,-213.95C355.52,-235.35 383.25,-269.22 415.5,-287.62 421.07,-290.8 427.16,-293.42 433.41,-295.57"/>
<polygon fill="#63b8ff" stroke="#63b8ff" points="343.02,-212.02 334.43,-205.82 337.28,-216.02 343.02,-212.02"/>
</a>
</g>
</g>
<!-- Node9 -->
<g id="Node000009" class="node">
<title>Node9</title>
<g id="a_Node000009"><a xlink:href="class_ogre_1_1_e_g_l_window.html" target="_top" xlink:title=" ">
<polygon fill="white" stroke="#666666" points="542.5,-278.25 447,-278.25 447,-259 542.5,-259 542.5,-278.25"/>
<text text-anchor="middle" x="494.75" y="-264.75" font-family="Helvetica,sans-Serif" font-size="10.00">Ogre::EGLWindow</text>
</a>
</g>
</g>
<!-- Node1&#45;&gt;Node9 -->
<g id="edge8_Node000001_Node000009" class="edge">
<title>Node1&#45;&gt;Node9</title>
<g id="a_edge8_Node000001_Node000009"><a xlink:title=" ">
<path fill="none" stroke="#63b8ff" d="M348.99,-211.46C366.2,-223.95 391.26,-240.51 415.5,-250.62 425.28,-254.71 436.14,-257.95 446.6,-260.5"/>
<polygon fill="#63b8ff" stroke="#63b8ff" points="351.16,-208.71 341.04,-205.55 346.98,-214.33 351.16,-208.71"/>
</a>
</g>
</g>
<!-- Node14 -->
<g id="Node000014" class="node">
<title>Node14</title>
<g id="a_Node000014"><a xlink:href="class_ogre_1_1_g_l_x_window.html" target="_top" xlink:title=" ">
<polygon fill="white" stroke="#666666" points="542.88,-241.25 446.62,-241.25 446.62,-222 542.88,-222 542.88,-241.25"/>
<text text-anchor="middle" x="494.75" y="-227.75" font-family="Helvetica,sans-Serif" font-size="10.00">Ogre::GLXWindow</text>
</a>
</g>
</g>
<!-- Node1&#45;&gt;Node14 -->
<g id="edge13_Node000001_Node000014" class="edge">
<title>Node1&#45;&gt;Node14</title>
<g id="a_edge13_Node000001_Node000014"><a xlink:title=" ">
<path fill="none" stroke="#63b8ff" d="M383.72,-207.19C404.76,-211.87 428.35,-217.1 448.27,-221.53"/>
<polygon fill="#63b8ff" stroke="#63b8ff" points="384.65,-203.81 374.13,-205.06 383.14,-210.65 384.65,-203.81"/>
</a>
</g>
</g>
<!-- Node15 -->
<g id="Node000015" class="node">
<title>Node15</title>
<g id="a_Node000015"><a xlink:href="class_ogre_1_1_g_t_k_window.html" target="_top" xlink:title=" ">
<polygon fill="white" stroke="#666666" points="542.88,-204.25 446.62,-204.25 446.62,-185 542.88,-185 542.88,-204.25"/>
<text text-anchor="middle" x="494.75" y="-190.75" font-family="Helvetica,sans-Serif" font-size="10.00">Ogre::GTKWindow</text>
</a>
</g>
</g>
<!-- Node1&#45;&gt;Node15 -->
<g id="edge14_Node000001_Node000015" class="edge">
<title>Node1&#45;&gt;Node15</title>
<g id="a_edge14_Node000001_Node000015"><a xlink:title=" ">
<path fill="none" stroke="#63b8ff" d="M391.31,-194.62C409.56,-194.62 429.1,-194.62 446.17,-194.62"/>
<polygon fill="#63b8ff" stroke="#63b8ff" points="391.36,-191.13 381.36,-194.63 391.36,-198.13 391.36,-191.13"/>
</a>
</g>
</g>
<!-- Node16 -->
<g id="Node000016" class="node">
<title>Node16</title>
<g id="a_Node000016"><a xlink:href="class_ogre_1_1_metal_render_window.html" target="_top" xlink:title=" ">
<polygon fill="white" stroke="#666666" points="560.12,-167.25 429.38,-167.25 429.38,-148 560.12,-148 560.12,-167.25"/>
<text text-anchor="middle" x="494.75" y="-153.75" font-family="Helvetica,sans-Serif" font-size="10.00">Ogre::MetalRenderWindow</text>
</a>
</g>
</g>
<!-- Node1&#45;&gt;Node16 -->
<g id="edge15_Node000001_Node000016" class="edge">
<title>Node1&#45;&gt;Node16</title>
<g id="a_edge15_Node000001_Node000016"><a xlink:title=" ">
<path fill="none" stroke="#63b8ff" d="M383.72,-182.06C404.76,-177.38 428.35,-172.15 448.27,-167.72"/>
<polygon fill="#63b8ff" stroke="#63b8ff" points="383.14,-178.6 374.13,-184.19 384.65,-185.44 383.14,-178.6"/>
</a>
</g>
</g>
<!-- Node17 -->
<g id="Node000017" class="node">
<title>Node17</title>
<g id="a_Node000017"><a xlink:href="class_ogre_1_1_n_u_l_l_render_window.html" target="_top" xlink:title=" ">
<polygon fill="white" stroke="#666666" points="561.62,-130.25 427.88,-130.25 427.88,-111 561.62,-111 561.62,-130.25"/>
<text text-anchor="middle" x="494.75" y="-116.75" font-family="Helvetica,sans-Serif" font-size="10.00">Ogre::NULLRenderWindow</text>
</a>
</g>
</g>
<!-- Node1&#45;&gt;Node17 -->
<g id="edge16_Node000001_Node000017" class="edge">
<title>Node1&#45;&gt;Node17</title>
<g id="a_edge16_Node000001_Node000017"><a xlink:title=" ">
<path fill="none" stroke="#63b8ff" d="M348.99,-177.79C366.2,-165.3 391.26,-148.74 415.5,-138.62 422.96,-135.51 431.06,-132.88 439.12,-130.68"/>
<polygon fill="#63b8ff" stroke="#63b8ff" points="346.98,-174.92 341.04,-183.7 351.16,-180.54 346.98,-174.92"/>
</a>
</g>
</g>
<!-- Node18 -->
<g id="Node000018" class="node">
<title>Node18</title>
<g id="a_Node000018"><a xlink:href="class_ogre_1_1_na_cl_window.html" target="_top" xlink:title=" ">
<polygon fill="white" stroke="#666666" points="543.62,-93.25 445.88,-93.25 445.88,-74 543.62,-74 543.62,-93.25"/>
<text text-anchor="middle" x="494.75" y="-79.75" font-family="Helvetica,sans-Serif" font-size="10.00">Ogre::NaClWindow</text>
</a>
</g>
</g>
<!-- Node1&#45;&gt;Node18 -->
<g id="edge17_Node000001_Node000018" class="edge">
<title>Node1&#45;&gt;Node18</title>
<g id="a_edge17_Node000001_Node000018"><a xlink:title=" ">
<path fill="none" stroke="#63b8ff" d="M340.11,-175.3C355.52,-153.9 383.25,-120.03 415.5,-101.62 424.7,-96.37 435.34,-92.66 445.74,-90.02"/>
<polygon fill="#63b8ff" stroke="#63b8ff" points="337.28,-173.23 334.43,-183.43 343.02,-177.23 337.28,-173.23"/>
</a>
</g>
</g>
<!-- Node19 -->
<g id="Node000019" class="node">
<title>Node19</title>
<g id="a_Node000019"><a xlink:href="class_ogre_1_1_s_d_l_window.html" target="_top" xlink:title=" ">
<polygon fill="white" stroke="#666666" points="542.5,-56.25 447,-56.25 447,-37 542.5,-37 542.5,-56.25"/>
<text text-anchor="middle" x="494.75" y="-42.75" font-family="Helvetica,sans-Serif" font-size="10.00">Ogre::SDLWindow</text>
</a>
</g>
</g>
<!-- Node1&#45;&gt;Node19 -->
<g id="edge18_Node000001_Node000019" class="edge">
<title>Node1&#45;&gt;Node19</title>
<g id="a_edge18_Node000001_Node000019"><a xlink:title=" ">
<path fill="none" stroke="#63b8ff" d="M335.29,-174.05C347.95,-144.95 375.11,-92.25 415.5,-64.62 424.7,-58.33 435.8,-54.21 446.7,-51.52"/>
<polygon fill="#63b8ff" stroke="#63b8ff" points="332.09,-172.63 331.48,-183.21 338.56,-175.32 332.09,-172.63"/>
</a>
</g>
</g>
<!-- Node20 -->
<g id="Node000020" class="node">
<title>Node20</title>
<g id="a_Node000020"><a xlink:href="class_ogre_1_1_win32_window.html" target="_top" xlink:title=" ">
<polygon fill="white" stroke="#666666" points="546.25,-19.25 443.25,-19.25 443.25,0 546.25,0 546.25,-19.25"/>
<text text-anchor="middle" x="494.75" y="-5.75" font-family="Helvetica,sans-Serif" font-size="10.00">Ogre::Win32Window</text>
</a>
</g>
</g>
<!-- Node1&#45;&gt;Node20 -->
<g id="edge19_Node000001_Node000020" class="edge">
<title>Node1&#45;&gt;Node20</title>
<g id="a_edge19_Node000001_Node000020"><a xlink:title=" ">
<path fill="none" stroke="#63b8ff" d="M332.05,-173.91C341.66,-138.22 366.4,-65.34 415.5,-27.62 423.46,-21.51 433.13,-17.41 442.92,-14.68"/>
<polygon fill="#63b8ff" stroke="#63b8ff" points="328.71,-172.85 329.64,-183.4 335.5,-174.57 328.71,-172.85"/>
</a>
</g>
</g>
<!-- Node2 -->
<g id="Node000002" class="node">
<title>Node2</title>
<g id="a_Node000002"><a xlink:href="class_ogre_1_1_render_target.html" target="_top" xlink:title="A &#39;canvas&#39; which can receive the results of a rendering operation.">
<polygon fill="white" stroke="#666666" points="236.75,-204.25 136.75,-204.25 136.75,-185 236.75,-185 236.75,-204.25"/>
<text text-anchor="middle" x="186.75" y="-190.75" font-family="Helvetica,sans-Serif" font-size="10.00">Ogre::RenderTarget</text>
</a>
</g>
</g>
<!-- Node2&#45;&gt;Node1 -->
<g id="edge1_Node000001_Node000002" class="edge">
<title>Node2&#45;&gt;Node1</title>
<g id="a_edge1_Node000001_Node000002"><a xlink:title=" ">
<path fill="none" stroke="#63b8ff" d="M248.25,-194.62C256.35,-194.62 264.6,-194.62 272.54,-194.62"/>
<polygon fill="#63b8ff" stroke="#63b8ff" points="248.47,-191.13 238.47,-194.63 248.47,-198.13 248.47,-191.13"/>
</a>
</g>
</g>
<!-- Node3 -->
<g id="Node000003" class="node">
<title>Node3</title>
<g id="a_Node000003"><a xlink:href="struct_ogre_1_1_gpu_resource.html" target="_top" xlink:title=" ">
<polygon fill="white" stroke="#666666" points="100.75,-223.25 0,-223.25 0,-204 100.75,-204 100.75,-223.25"/>
<text text-anchor="middle" x="50.38" y="-209.75" font-family="Helvetica,sans-Serif" font-size="10.00">Ogre::GpuResource</text>
</a>
</g>
</g>
<!-- Node3&#45;&gt;Node2 -->
<g id="edge2_Node000002_Node000003" class="edge">
<title>Node3&#45;&gt;Node2</title>
<g id="a_edge2_Node000002_Node000003"><a xlink:title=" ">
<path fill="none" stroke="#63b8ff" d="M112.27,-205.01C120.32,-203.88 128.48,-202.72 136.3,-201.62"/>
<polygon fill="#63b8ff" stroke="#63b8ff" points="111.94,-201.53 102.53,-206.39 112.92,-208.46 111.94,-201.53"/>
</a>
</g>
</g>
<!-- Node4 -->
<g id="Node000004" class="node">
<title>Node4</title>
<g id="a_Node000004"><a xlink:href="class_ogre_1_1_allocated_object.html" target="_top" xlink:title="Superclass for all objects that wish to use custom memory allocators when their new / delete operator...">
<polygon fill="white" stroke="#666666" points="92.88,-186.25 7.88,-186.25 7.88,-167 92.88,-167 92.88,-186.25"/>
<text text-anchor="middle" x="50.38" y="-172.75" font-family="Helvetica,sans-Serif" font-size="10.00">RenderSysAlloc</text>
</a>
</g>
</g>
<!-- Node4&#45;&gt;Node2 -->
<g id="edge3_Node000002_Node000004" class="edge">
<title>Node4&#45;&gt;Node2</title>
<g id="a_edge3_Node000002_Node000004"><a xlink:title=" ">
<path fill="none" stroke="#63b8ff" d="M104.38,-183.73C114.95,-185.14 126.02,-186.62 136.46,-188.02"/>
<polygon fill="#63b8ff" stroke="#63b8ff" points="105.03,-180.28 94.66,-182.42 104.1,-187.22 105.03,-180.28"/>
</a>
</g>
</g>
<!-- Node7 -->
<g id="Node000007" class="node">
<title>Node7</title>
<g id="a_Node000007"><a xlink:href="class_ogre_1_1_d3_d11_render_window_swap_chain_based.html" target="_top" xlink:title=" ">
<polygon fill="white" stroke="#666666" points="770.75,-363.88 610,-363.88 610,-333.38 770.75,-333.38 770.75,-363.88"/>
<text text-anchor="start" x="618" y="-350.38" font-family="Helvetica,sans-Serif" font-size="10.00">Ogre::D3D11RenderWindowSwap</text>
<text text-anchor="middle" x="690.38" y="-339.12" font-family="Helvetica,sans-Serif" font-size="10.00">ChainBased</text>
</a>
</g>
</g>
<!-- Node6&#45;&gt;Node7 -->
<g id="edge6_Node000006_Node000007" class="edge">
<title>Node6&#45;&gt;Node7</title>
<g id="a_edge6_Node000006_Node000007"><a xlink:title=" ">
<path fill="none" stroke="#63b8ff" d="M585.5,-345.41C593.52,-345.65 601.6,-345.91 609.53,-346.15"/>
<polygon fill="#63b8ff" stroke="#63b8ff" points="585.84,-341.92 575.74,-345.1 585.63,-348.91 585.84,-341.92"/>
</a>
</g>
</g>
<!-- Node10 -->
<g id="Node000010" class="node">
<title>Node10</title>
<g id="a_Node000010"><a xlink:href="class_ogre_1_1_android_e_g_l_window.html" target="_top" xlink:title=" ">
<polygon fill="white" stroke="#666666" points="754.62,-315.25 626.12,-315.25 626.12,-296 754.62,-296 754.62,-315.25"/>
<text text-anchor="middle" x="690.38" y="-301.75" font-family="Helvetica,sans-Serif" font-size="10.00">Ogre::AndroidEGLWindow</text>
</a>
</g>
</g>
<!-- Node9&#45;&gt;Node10 -->
<g id="edge9_Node000009_Node000010" class="edge">
<title>Node9&#45;&gt;Node10</title>
<g id="a_edge9_Node000009_Node000010"><a xlink:title=" ">
<path fill="none" stroke="#63b8ff" d="M553.58,-279.68C579.87,-284.7 610.77,-290.6 636.45,-295.51"/>
<polygon fill="#63b8ff" stroke="#63b8ff" points="554.59,-276.3 544.11,-277.87 553.27,-283.18 554.59,-276.3"/>
</a>
</g>
</g>
<!-- Node11 -->
<g id="Node000011" class="node">
<title>Node11</title>
<g id="a_Node000011"><a xlink:href="class_ogre_1_1_emscripten_e_g_l_window.html" target="_top" xlink:title=" ">
<polygon fill="white" stroke="#666666" points="762.5,-278.25 618.25,-278.25 618.25,-259 762.5,-259 762.5,-278.25"/>
<text text-anchor="middle" x="690.38" y="-264.75" font-family="Helvetica,sans-Serif" font-size="10.00">Ogre::EmscriptenEGLWindow</text>
</a>
</g>
</g>
<!-- Node9&#45;&gt;Node11 -->
<g id="edge10_Node000009_Node000011" class="edge">
<title>Node9&#45;&gt;Node11</title>
<g id="a_edge10_Node000009_Node000011"><a xlink:title=" ">
<path fill="none" stroke="#63b8ff" d="M554.12,-268.62C574.22,-268.62 596.97,-268.62 617.99,-268.62"/>
<polygon fill="#63b8ff" stroke="#63b8ff" points="554.13,-265.13 544.13,-268.63 554.13,-272.13 554.13,-265.13"/>
</a>
</g>
</g>
<!-- Node12 -->
<g id="Node000012" class="node">
<title>Node12</title>
<g id="a_Node000012"><a xlink:href="class_ogre_1_1_win32_e_g_l_window.html" target="_top" xlink:title=" ">
<polygon fill="white" stroke="#666666" points="751.62,-241.25 629.12,-241.25 629.12,-222 751.62,-222 751.62,-241.25"/>
<text text-anchor="middle" x="690.38" y="-227.75" font-family="Helvetica,sans-Serif" font-size="10.00">Ogre::Win32EGLWindow</text>
</a>
</g>
</g>
<!-- Node9&#45;&gt;Node12 -->
<g id="edge11_Node000009_Node000012" class="edge">
<title>Node9&#45;&gt;Node12</title>
<g id="a_edge11_Node000009_Node000012"><a xlink:title=" ">
<path fill="none" stroke="#63b8ff" d="M553.58,-257.57C579.87,-252.55 610.77,-246.65 636.45,-241.74"/>
<polygon fill="#63b8ff" stroke="#63b8ff" points="553.27,-254.07 544.11,-259.38 554.59,-260.95 553.27,-254.07"/>
</a>
</g>
</g>
<!-- Node13 -->
<g id="Node000013" class="node">
<title>Node13</title>
<g id="a_Node000013"><a xlink:href="class_ogre_1_1_x11_e_g_l_window.html" target="_top" xlink:title=" ">
<polygon fill="white" stroke="#666666" points="746.75,-204.25 634,-204.25 634,-185 746.75,-185 746.75,-204.25"/>
<text text-anchor="middle" x="690.38" y="-190.75" font-family="Helvetica,sans-Serif" font-size="10.00">Ogre::X11EGLWindow</text>
</a>
</g>
</g>
<!-- Node9&#45;&gt;Node13 -->
<g id="edge12_Node000009_Node000013" class="edge">
<title>Node9&#45;&gt;Node13</title>
<g id="a_edge12_Node000009_Node000013"><a xlink:title=" ">
<path fill="none" stroke="#63b8ff" d="M553.97,-259.3C560.96,-257.01 567.81,-254.17 574,-250.62 594.2,-239.08 589.78,-224.14 610,-212.62 617.24,-208.5 625.37,-205.32 633.57,-202.87"/>
<polygon fill="#63b8ff" stroke="#63b8ff" points="553.05,-255.92 544.4,-262.03 554.97,-262.65 553.05,-255.92"/>
</a>
</g>
</g>
</g>
</svg>
