<?xml version="1.0" encoding="UTF-8" standalone="no"?>
<!DOCTYPE svg PUBLIC "-//W3C//DTD SVG 1.1//EN"
 "http://www.w3.org/Graphics/SVG/1.1/DTD/svg11.dtd">
<!-- Generated by graphviz version 9.0.0 (20230911.1827)
 -->
<!-- Title: Ogre::Renderable Pages: 1 -->
<svg width="841pt" height="562pt"
 viewBox="0.00 0.00 841.00 562.25" xmlns="http://www.w3.org/2000/svg" xmlns:xlink="http://www.w3.org/1999/xlink">
<g id="graph0" class="graph" transform="scale(1 1) rotate(0) translate(4 558.25)">
<title>Ogre::Renderable</title>
<!-- Node1 -->
<g id="Node000001" class="node">
<title>Node1</title>
<g id="a_Node000001"><a xlink:title="Abstract class defining the interface all renderable objects must implement.">
<polygon fill="#999999" stroke="#666666" points="90.25,-283.25 0,-283.25 0,-264 90.25,-264 90.25,-283.25"/>
<text text-anchor="middle" x="45.12" y="-269.75" font-family="Helvetica,sans-Serif" font-size="10.00">Ogre::Renderable</text>
</a>
</g>
</g>
<!-- Node2 -->
<g id="Node000002" class="node">
<title>Node2</title>
<g id="a_Node000002"><a xlink:href="class_ogre_1_1_frustum.html" target="_top" xlink:title="A frustum represents a pyramid, capped at the near and far end which is used to represent either a vi...">
<polygon fill="white" stroke="#666666" points="232.62,-536.25 155.12,-536.25 155.12,-517 232.62,-517 232.62,-536.25"/>
<text text-anchor="middle" x="193.88" y="-522.75" font-family="Helvetica,sans-Serif" font-size="10.00">Ogre::Frustum</text>
</a>
</g>
</g>
<!-- Node1&#45;&gt;Node2 -->
<g id="edge1_Node000001_Node000002" class="edge">
<title>Node1&#45;&gt;Node2</title>
<g id="a_edge1_Node000001_Node000002"><a xlink:title=" ">
<path fill="none" stroke="#63b8ff" d="M47.06,-294.62C50.26,-340.21 64.32,-448.84 126.25,-507.62 134.01,-514.99 144.43,-519.54 154.72,-522.33"/>
<polygon fill="#63b8ff" stroke="#63b8ff" points="50.57,-294.59 46.5,-284.81 43.58,-295 50.57,-294.59"/>
</a>
</g>
</g>
<!-- Node6 -->
<g id="Node000006" class="node">
<title>Node6</title>
<g id="a_Node000006"><a xlink:href="class_ogre_1_1_manual_object_1_1_manual_object_section.html" target="_top" xlink:title="Built, renderable section of geometry.">
<polygon fill="white" stroke="#666666" points="250.62,-498.88 137.12,-498.88 137.12,-468.38 250.62,-468.38 250.62,-498.88"/>
<text text-anchor="start" x="145.12" y="-485.38" font-family="Helvetica,sans-Serif" font-size="10.00">Ogre::ManualObject</text>
<text text-anchor="middle" x="193.88" y="-474.12" font-family="Helvetica,sans-Serif" font-size="10.00">::ManualObjectSection</text>
</a>
</g>
</g>
<!-- Node1&#45;&gt;Node6 -->
<g id="edge5_Node000001_Node000006" class="edge">
<title>Node1&#45;&gt;Node6</title>
<g id="a_edge5_Node000001_Node000006"><a xlink:title=" ">
<path fill="none" stroke="#63b8ff" d="M49.6,-294.93C56.92,-333.17 77.47,-413.74 126.25,-459.62 129.65,-462.83 133.51,-465.61 137.62,-468.02"/>
<polygon fill="#63b8ff" stroke="#63b8ff" points="53.06,-294.42 47.87,-285.18 46.17,-295.64 53.06,-294.42"/>
</a>
</g>
</g>
<!-- Node7 -->
<g id="Node000007" class="node">
<title>Node7</title>
<g id="a_Node000007"><a xlink:href="class_ogre_1_1_renderable_animated.html" target="_top" xlink:title=" ">
<polygon fill="white" stroke="#666666" points="259.62,-450.25 128.12,-450.25 128.12,-431 259.62,-431 259.62,-450.25"/>
<text text-anchor="middle" x="193.88" y="-436.75" font-family="Helvetica,sans-Serif" font-size="10.00">Ogre::RenderableAnimated</text>
</a>
</g>
</g>
<!-- Node1&#45;&gt;Node7 -->
<g id="edge6_Node000001_Node000007" class="edge">
<title>Node1&#45;&gt;Node7</title>
<g id="a_edge6_Node000001_Node000007"><a xlink:title=" ">
<path fill="none" stroke="#63b8ff" d="M51.46,-294.15C60.93,-326.46 83.81,-388.96 126.25,-422.62 130.29,-425.83 134.85,-428.46 139.64,-430.63"/>
<polygon fill="#63b8ff" stroke="#63b8ff" points="54.92,-293.53 48.88,-284.83 48.17,-295.4 54.92,-293.53"/>
</a>
</g>
</g>
<!-- Node9 -->
<g id="Node000009" class="node">
<title>Node9</title>
<g id="a_Node000009"><a xlink:href="class_ogre_1_1_wire_aabb.html" target="_top" xlink:title="Helper class to display the Aabb of a MovableObject as lines.">
<polygon fill="white" stroke="#666666" points="235.62,-413.25 152.12,-413.25 152.12,-394 235.62,-394 235.62,-413.25"/>
<text text-anchor="middle" x="193.88" y="-399.75" font-family="Helvetica,sans-Serif" font-size="10.00">Ogre::WireAabb</text>
</a>
</g>
</g>
<!-- Node1&#45;&gt;Node9 -->
<g id="edge8_Node000001_Node000009" class="edge">
<title>Node1&#45;&gt;Node9</title>
<g id="a_edge8_Node000001_Node000009"><a xlink:title=" ">
<path fill="none" stroke="#63b8ff" d="M55.12,-293.68C67.5,-318.97 92.19,-361.98 126.25,-385.62 133.83,-390.89 142.88,-394.61 151.82,-397.25"/>
<polygon fill="#63b8ff" stroke="#63b8ff" points="58.38,-292.37 50.96,-284.81 52.04,-295.35 58.38,-292.37"/>
</a>
</g>
</g>
<!-- Node10 -->
<g id="Node000010" class="node">
<title>Node10</title>
<g id="a_Node000010"><a xlink:href="class_ogre_1_1v1_1_1_billboard_chain.html" target="_top" xlink:title="Allows the rendering of a chain of connected billboards.">
<polygon fill="white" stroke="#666666" points="253.25,-376.25 134.5,-376.25 134.5,-357 253.25,-357 253.25,-376.25"/>
<text text-anchor="middle" x="193.88" y="-362.75" font-family="Helvetica,sans-Serif" font-size="10.00">Ogre::v1::BillboardChain</text>
</a>
</g>
</g>
<!-- Node1&#45;&gt;Node10 -->
<g id="edge9_Node000001_Node000010" class="edge">
<title>Node1&#45;&gt;Node10</title>
<g id="a_edge9_Node000001_Node000010"><a xlink:title=" ">
<path fill="none" stroke="#63b8ff" d="M61.1,-292.09C75.92,-309.18 100.13,-334.08 126.25,-348.62 131.9,-351.77 138.13,-354.39 144.45,-356.57"/>
<polygon fill="#63b8ff" stroke="#63b8ff" points="63.97,-290.07 54.85,-284.67 58.61,-294.57 63.97,-290.07"/>
</a>
</g>
</g>
<!-- Node12 -->
<g id="Node000012" class="node">
<title>Node12</title>
<g id="a_Node000012"><a xlink:href="class_ogre_1_1v1_1_1_billboard_set.html" target="_top" xlink:title="A collection of billboards (faces which are always facing the given direction) with the same (default...">
<polygon fill="white" stroke="#666666" points="248.38,-339.25 139.38,-339.25 139.38,-320 248.38,-320 248.38,-339.25"/>
<text text-anchor="middle" x="193.88" y="-325.75" font-family="Helvetica,sans-Serif" font-size="10.00">Ogre::v1::BillboardSet</text>
</a>
</g>
</g>
<!-- Node1&#45;&gt;Node12 -->
<g id="edge11_Node000001_Node000012" class="edge">
<title>Node1&#45;&gt;Node12</title>
<g id="a_edge11_Node000001_Node000012"><a xlink:title=" ">
<path fill="none" stroke="#63b8ff" d="M75,-288.86C90.01,-296.38 108.82,-305.19 126.25,-311.62 134.12,-314.53 142.67,-317.19 150.93,-319.52"/>
<polygon fill="#63b8ff" stroke="#63b8ff" points="76.66,-285.78 66.16,-284.35 73.48,-292.01 76.66,-285.78"/>
</a>
</g>
</g>
<!-- Node13 -->
<g id="Node000013" class="node">
<title>Node13</title>
<g id="a_Node000013"><a xlink:href="class_ogre_1_1v1_1_1_border_renderable.html" target="_top" xlink:title="Class for rendering the border of a BorderPanelOverlayElement.">
<polygon fill="white" stroke="#666666" points="260.75,-302.25 127,-302.25 127,-283 260.75,-283 260.75,-302.25"/>
<text text-anchor="middle" x="193.88" y="-288.75" font-family="Helvetica,sans-Serif" font-size="10.00">Ogre::v1::BorderRenderable</text>
</a>
</g>
</g>
<!-- Node1&#45;&gt;Node13 -->
<g id="edge12_Node000001_Node000013" class="edge">
<title>Node1&#45;&gt;Node13</title>
<g id="a_edge12_Node000001_Node000013"><a xlink:title=" ">
<path fill="none" stroke="#63b8ff" d="M101.79,-280.83C109.92,-281.88 118.36,-282.98 126.67,-284.05"/>
<polygon fill="#63b8ff" stroke="#63b8ff" points="102.42,-277.38 92.05,-279.57 101.52,-284.33 102.42,-277.38"/>
</a>
</g>
</g>
<!-- Node14 -->
<g id="Node000014" class="node">
<title>Node14</title>
<g id="a_Node000014"><a xlink:href="class_ogre_1_1v1_1_1_instance_batch.html" target="_top" xlink:title="InstanceBatch forms part of the new Instancing system This is an abstract class that must be derived ...">
<polygon fill="white" stroke="#666666" points="253.62,-265.25 134.12,-265.25 134.12,-246 253.62,-246 253.62,-265.25"/>
<text text-anchor="middle" x="193.88" y="-251.75" font-family="Helvetica,sans-Serif" font-size="10.00">Ogre::v1::InstanceBatch</text>
</a>
</g>
</g>
<!-- Node1&#45;&gt;Node14 -->
<g id="edge13_Node000001_Node000014" class="edge">
<title>Node1&#45;&gt;Node14</title>
<g id="a_edge13_Node000001_Node000014"><a xlink:title=" ">
<path fill="none" stroke="#63b8ff" d="M101.67,-266.81C112.13,-265.53 123.12,-264.18 133.69,-262.88"/>
<polygon fill="#63b8ff" stroke="#63b8ff" points="101.55,-263.3 92.06,-267.99 102.41,-270.25 101.55,-263.3"/>
</a>
</g>
</g>
<!-- Node20 -->
<g id="Node000020" class="node">
<title>Node20</title>
<g id="a_Node000020"><a xlink:href="class_ogre_1_1v1_1_1_manual_object_1_1_manual_object_section.html" target="_top" xlink:title="Built, renderable section of geometry.">
<polygon fill="white" stroke="#666666" points="252.12,-227.88 135.62,-227.88 135.62,-197.38 252.12,-197.38 252.12,-227.88"/>
<text text-anchor="start" x="143.62" y="-214.38" font-family="Helvetica,sans-Serif" font-size="10.00">Ogre::v1::ManualObject</text>
<text text-anchor="middle" x="193.88" y="-203.12" font-family="Helvetica,sans-Serif" font-size="10.00">::ManualObjectSection</text>
</a>
</g>
</g>
<!-- Node1&#45;&gt;Node20 -->
<g id="edge19_Node000001_Node000020" class="edge">
<title>Node1&#45;&gt;Node20</title>
<g id="a_edge19_Node000001_Node000020"><a xlink:title=" ">
<path fill="none" stroke="#63b8ff" d="M76.79,-258.7C91.6,-251.69 109.71,-243.41 126.25,-236.62 133.08,-233.83 140.36,-231.02 147.52,-228.37"/>
<polygon fill="#63b8ff" stroke="#63b8ff" points="75.54,-255.42 68.03,-262.89 78.56,-261.74 75.54,-255.42"/>
</a>
</g>
</g>
<!-- Node21 -->
<g id="Node000021" class="node">
<title>Node21</title>
<g id="a_Node000021"><a xlink:href="class_ogre_1_1v1_1_1_overlay_element.html" target="_top" xlink:title="Abstract definition of a 2D element to be displayed in an Overlay.">
<polygon fill="white" stroke="#666666" points="256.25,-179.25 131.5,-179.25 131.5,-160 256.25,-160 256.25,-179.25"/>
<text text-anchor="middle" x="193.88" y="-165.75" font-family="Helvetica,sans-Serif" font-size="10.00">Ogre::v1::OverlayElement</text>
</a>
</g>
</g>
<!-- Node1&#45;&gt;Node21 -->
<g id="edge20_Node000001_Node000021" class="edge">
<title>Node1&#45;&gt;Node21</title>
<g id="a_edge20_Node000001_Node000021"><a xlink:title=" ">
<path fill="none" stroke="#63b8ff" d="M59.5,-254.22C73.84,-234.86 98.34,-205.6 126.25,-188.62 132.21,-185 138.89,-182.04 145.66,-179.64"/>
<polygon fill="#63b8ff" stroke="#63b8ff" points="56.65,-252.18 53.67,-262.35 62.34,-256.26 56.65,-252.18"/>
</a>
</g>
</g>
<!-- Node26 -->
<g id="Node000026" class="node">
<title>Node26</title>
<g id="a_Node000026"><a xlink:href="class_ogre_1_1v1_1_1_rectangle2_d.html" target="_top" xlink:title="Allows the rendering of a simple 2D rectangle This class renders a simple 2D rectangle; this rectangl...">
<polygon fill="white" stroke="#666666" points="249.88,-142.25 137.88,-142.25 137.88,-123 249.88,-123 249.88,-142.25"/>
<text text-anchor="middle" x="193.88" y="-128.75" font-family="Helvetica,sans-Serif" font-size="10.00">Ogre::v1::Rectangle2D</text>
</a>
</g>
</g>
<!-- Node1&#45;&gt;Node26 -->
<g id="edge25_Node000001_Node000026" class="edge">
<title>Node1&#45;&gt;Node26</title>
<g id="a_edge25_Node000001_Node000026"><a xlink:title=" ">
<path fill="none" stroke="#63b8ff" d="M53.93,-253.18C65.5,-225.66 89.82,-177.11 126.25,-150.62 130.61,-147.45 135.5,-144.84 140.59,-142.69"/>
<polygon fill="#63b8ff" stroke="#63b8ff" points="50.81,-251.57 50.32,-262.15 57.3,-254.18 50.81,-251.57"/>
</a>
</g>
</g>
<!-- Node27 -->
<g id="Node000027" class="node">
<title>Node27</title>
<g id="a_Node000027"><a xlink:href="class_ogre_1_1v1_1_1_simple_renderable.html" target="_top" xlink:title="Simple implementation of MovableObject and Renderable for single&#45;part custom objects.">
<polygon fill="white" stroke="#666666" points="261.5,-105.25 126.25,-105.25 126.25,-86 261.5,-86 261.5,-105.25"/>
<text text-anchor="middle" x="193.88" y="-91.75" font-family="Helvetica,sans-Serif" font-size="10.00">Ogre::v1::SimpleRenderable</text>
</a>
</g>
</g>
<!-- Node1&#45;&gt;Node27 -->
<g id="edge26_Node000001_Node000027" class="edge">
<title>Node1&#45;&gt;Node27</title>
<g id="a_edge26_Node000001_Node000027"><a xlink:title=" ">
<path fill="none" stroke="#63b8ff" d="M50.77,-252.56C59.45,-218.19 81.47,-150.22 126.25,-113.62 130.15,-110.44 134.56,-107.82 139.21,-105.65"/>
<polygon fill="#63b8ff" stroke="#63b8ff" points="47.4,-251.57 48.5,-262.11 54.21,-253.19 47.4,-251.57"/>
</a>
</g>
</g>
<!-- Node29 -->
<g id="Node000029" class="node">
<title>Node29</title>
<g id="a_Node000029"><a xlink:href="class_ogre_1_1v1_1_1_static_geometry_1_1_geometry_bucket.html" target="_top" xlink:title="A GeometryBucket is a the lowest level bucket where geometry with the same vertex &amp; index format is s...">
<polygon fill="white" stroke="#666666" points="255.88,-67.88 131.88,-67.88 131.88,-37.38 255.88,-37.38 255.88,-67.88"/>
<text text-anchor="start" x="139.88" y="-54.38" font-family="Helvetica,sans-Serif" font-size="10.00">Ogre::v1::StaticGeometry</text>
<text text-anchor="middle" x="193.88" y="-43.12" font-family="Helvetica,sans-Serif" font-size="10.00">::GeometryBucket</text>
</a>
</g>
</g>
<!-- Node1&#45;&gt;Node29 -->
<g id="edge28_Node000001_Node000029" class="edge">
<title>Node1&#45;&gt;Node29</title>
<g id="a_edge28_Node000001_Node000029"><a xlink:title=" ">
<path fill="none" stroke="#63b8ff" d="M48.95,-252.74C55.39,-212.98 74.82,-126.01 126.25,-76.62 129.53,-73.47 133.26,-70.73 137.23,-68.35"/>
<polygon fill="#63b8ff" stroke="#63b8ff" points="45.52,-251.97 47.51,-262.38 52.44,-253 45.52,-251.97"/>
</a>
</g>
</g>
<!-- Node30 -->
<g id="Node000030" class="node">
<title>Node30</title>
<g id="a_Node000030"><a xlink:href="class_ogre_1_1v1_1_1_sub_entity.html" target="_top" xlink:title="Utility class which defines the sub&#45;parts of an Entity.">
<polygon fill="white" stroke="#666666" points="242.75,-19.25 145,-19.25 145,0 242.75,0 242.75,-19.25"/>
<text text-anchor="middle" x="193.88" y="-5.75" font-family="Helvetica,sans-Serif" font-size="10.00">Ogre::v1::SubEntity</text>
</a>
</g>
</g>
<!-- Node1&#45;&gt;Node30 -->
<g id="edge29_Node000001_Node000030" class="edge">
<title>Node1&#45;&gt;Node30</title>
<g id="a_edge29_Node000001_Node000030"><a xlink:title=" ">
<path fill="none" stroke="#63b8ff" d="M46.7,-252.27C49.17,-204.96 61.86,-90.59 126.25,-28.62 131.45,-23.62 137.87,-19.92 144.66,-17.18"/>
<polygon fill="#63b8ff" stroke="#63b8ff" points="43.22,-251.86 46.31,-261.99 50.21,-252.14 43.22,-251.86"/>
</a>
</g>
</g>
<!-- Node3 -->
<g id="Node000003" class="node">
<title>Node3</title>
<g id="a_Node000003"><a xlink:href="class_ogre_1_1_camera.html" target="_top" xlink:title="A viewpoint from which the scene will be rendered.">
<polygon fill="white" stroke="#666666" points="415.5,-536.25 340.25,-536.25 340.25,-517 415.5,-517 415.5,-536.25"/>
<text text-anchor="middle" x="377.88" y="-522.75" font-family="Helvetica,sans-Serif" font-size="10.00">Ogre::Camera</text>
</a>
</g>
</g>
<!-- Node2&#45;&gt;Node3 -->
<g id="edge2_Node000002_Node000003" class="edge">
<title>Node2&#45;&gt;Node3</title>
<g id="a_edge2_Node000002_Node000003"><a xlink:title=" ">
<path fill="none" stroke="#63b8ff" d="M244.19,-526.62C274.39,-526.62 312.42,-526.62 340.02,-526.62"/>
<polygon fill="#63b8ff" stroke="#63b8ff" points="244.54,-523.13 234.54,-526.63 244.54,-530.13 244.54,-523.13"/>
</a>
</g>
</g>
<!-- Node4 -->
<g id="Node000004" class="node">
<title>Node4</title>
<g id="a_Node000004"><a xlink:href="class_ogre_1_1_octree_camera.html" target="_top" xlink:title="Specialized viewpoint from which an Octree can be rendered.">
<polygon fill="white" stroke="#666666" points="626.5,-554.25 522,-554.25 522,-535 626.5,-535 626.5,-554.25"/>
<text text-anchor="middle" x="574.25" y="-540.75" font-family="Helvetica,sans-Serif" font-size="10.00">Ogre::OctreeCamera</text>
</a>
</g>
</g>
<!-- Node3&#45;&gt;Node4 -->
<g id="edge3_Node000003_Node000004" class="edge">
<title>Node3&#45;&gt;Node4</title>
<g id="a_edge3_Node000003_Node000004"><a xlink:title=" ">
<path fill="none" stroke="#63b8ff" d="M427.29,-531.11C456.02,-533.77 492.42,-537.14 521.69,-539.85"/>
<polygon fill="#63b8ff" stroke="#63b8ff" points="427.68,-527.63 417.4,-530.19 427.03,-534.6 427.68,-527.63"/>
</a>
</g>
</g>
<!-- Node5 -->
<g id="Node000005" class="node">
<title>Node5</title>
<g id="a_Node000005"><a xlink:href="class_ogre_1_1_p_c_z_camera.html" target="_top" xlink:title="Specialized viewpoint from which an PCZone Scene can be rendered.">
<polygon fill="white" stroke="#666666" points="621.62,-517.25 526.88,-517.25 526.88,-498 621.62,-498 621.62,-517.25"/>
<text text-anchor="middle" x="574.25" y="-503.75" font-family="Helvetica,sans-Serif" font-size="10.00">Ogre::PCZCamera</text>
</a>
</g>
</g>
<!-- Node3&#45;&gt;Node5 -->
<g id="edge4_Node000003_Node000005" class="edge">
<title>Node3&#45;&gt;Node5</title>
<g id="a_edge4_Node000003_Node000005"><a xlink:title=" ">
<path fill="none" stroke="#63b8ff" d="M427.06,-521.92C457.38,-518.95 496.33,-515.14 526.4,-512.2"/>
<polygon fill="#63b8ff" stroke="#63b8ff" points="427.01,-518.4 417.4,-522.86 427.69,-525.37 427.01,-518.4"/>
</a>
</g>
</g>
<!-- Node8 -->
<g id="Node000008" class="node">
<title>Node8</title>
<g id="a_Node000008"><a xlink:href="class_ogre_1_1_sub_item.html" target="_top" xlink:title="Utility class which defines the sub&#45;parts of an Item.">
<polygon fill="white" stroke="#666666" points="417,-450.25 338.75,-450.25 338.75,-431 417,-431 417,-450.25"/>
<text text-anchor="middle" x="377.88" y="-436.75" font-family="Helvetica,sans-Serif" font-size="10.00">Ogre::SubItem</text>
</a>
</g>
</g>
<!-- Node7&#45;&gt;Node8 -->
<g id="edge7_Node000007_Node000008" class="edge">
<title>Node7&#45;&gt;Node8</title>
<g id="a_edge7_Node000007_Node000008"><a xlink:title=" ">
<path fill="none" stroke="#63b8ff" d="M271.28,-440.62C294.4,-440.62 318.8,-440.62 338.32,-440.62"/>
<polygon fill="#63b8ff" stroke="#63b8ff" points="271.58,-437.13 261.58,-440.63 271.58,-444.13 271.58,-437.13"/>
</a>
</g>
</g>
<!-- Node11 -->
<g id="Node000011" class="node">
<title>Node11</title>
<g id="a_Node000011"><a xlink:href="class_ogre_1_1v1_1_1_ribbon_trail.html" target="_top" xlink:title="Subclass of BillboardChain which automatically leaves a trail behind one or more Node instances.">
<polygon fill="white" stroke="#666666" points="430.5,-376.25 325.25,-376.25 325.25,-357 430.5,-357 430.5,-376.25"/>
<text text-anchor="middle" x="377.88" y="-362.75" font-family="Helvetica,sans-Serif" font-size="10.00">Ogre::v1::RibbonTrail</text>
</a>
</g>
</g>
<!-- Node10&#45;&gt;Node11 -->
<g id="edge10_Node000010_Node000011" class="edge">
<title>Node10&#45;&gt;Node11</title>
<g id="a_edge10_Node000010_Node000011"><a xlink:title=" ">
<path fill="none" stroke="#63b8ff" d="M264.95,-366.62C284.92,-366.62 306.31,-366.62 324.99,-366.62"/>
<polygon fill="#63b8ff" stroke="#63b8ff" points="265.23,-363.13 255.23,-366.63 265.23,-370.13 265.23,-363.13"/>
</a>
</g>
</g>
<!-- Node15 -->
<g id="Node000015" class="node">
<title>Node15</title>
<g id="a_Node000015"><a xlink:href="class_ogre_1_1v1_1_1_base_instance_batch_v_t_f.html" target="_top" xlink:title="Instancing implementation using vertex texture through Vertex Texture Fetch (VTF) This implementation...">
<polygon fill="white" stroke="#666666" points="458.25,-302.25 297.5,-302.25 297.5,-283 458.25,-283 458.25,-302.25"/>
<text text-anchor="middle" x="377.88" y="-288.75" font-family="Helvetica,sans-Serif" font-size="10.00">Ogre::v1::BaseInstanceBatchVTF</text>
</a>
</g>
</g>
<!-- Node14&#45;&gt;Node15 -->
<g id="edge14_Node000014_Node000015" class="edge">
<title>Node14&#45;&gt;Node15</title>
<g id="a_edge14_Node000014_Node000015"><a xlink:title=" ">
<path fill="none" stroke="#63b8ff" d="M255.74,-268C278.96,-272.72 305.14,-278.04 327.2,-282.53"/>
<polygon fill="#63b8ff" stroke="#63b8ff" points="256.59,-264.6 246.09,-266.04 255.19,-271.46 256.59,-264.6"/>
</a>
</g>
</g>
<!-- Node18 -->
<g id="Node000018" class="node">
<title>Node18</title>
<g id="a_Node000018"><a xlink:href="class_ogre_1_1v1_1_1_instance_batch_h_w.html" target="_top" xlink:title="This is technique requires true instancing hardware support.">
<polygon fill="white" stroke="#666666" points="445.88,-265.25 309.88,-265.25 309.88,-246 445.88,-246 445.88,-265.25"/>
<text text-anchor="middle" x="377.88" y="-251.75" font-family="Helvetica,sans-Serif" font-size="10.00">Ogre::v1::InstanceBatchHW</text>
</a>
</g>
</g>
<!-- Node14&#45;&gt;Node18 -->
<g id="edge17_Node000014_Node000018" class="edge">
<title>Node14&#45;&gt;Node18</title>
<g id="a_edge17_Node000014_Node000018"><a xlink:title=" ">
<path fill="none" stroke="#63b8ff" d="M265.41,-255.62C279.92,-255.62 295.16,-255.62 309.56,-255.62"/>
<polygon fill="#63b8ff" stroke="#63b8ff" points="265.48,-252.13 255.48,-255.63 265.48,-259.13 265.48,-252.13"/>
</a>
</g>
</g>
<!-- Node19 -->
<g id="Node000019" class="node">
<title>Node19</title>
<g id="a_Node000019"><a xlink:href="class_ogre_1_1v1_1_1_instance_batch_shader.html" target="_top" xlink:title="This is the same technique the old &quot;InstancedGeometry&quot; implementation used (with improvements).">
<polygon fill="white" stroke="#666666" points="453,-228.25 302.75,-228.25 302.75,-209 453,-209 453,-228.25"/>
<text text-anchor="middle" x="377.88" y="-214.75" font-family="Helvetica,sans-Serif" font-size="10.00">Ogre::v1::InstanceBatchShader</text>
</a>
</g>
</g>
<!-- Node14&#45;&gt;Node19 -->
<g id="edge18_Node000014_Node000019" class="edge">
<title>Node14&#45;&gt;Node19</title>
<g id="a_edge18_Node000014_Node000019"><a xlink:title=" ">
<path fill="none" stroke="#63b8ff" d="M255.74,-243.25C278.96,-238.53 305.14,-233.21 327.2,-228.72"/>
<polygon fill="#63b8ff" stroke="#63b8ff" points="255.19,-239.79 246.09,-245.21 256.59,-246.65 255.19,-239.79"/>
</a>
</g>
</g>
<!-- Node16 -->
<g id="Node000016" class="node">
<title>Node16</title>
<g id="a_Node000016"><a xlink:href="class_ogre_1_1v1_1_1_instance_batch_h_w___v_t_f.html" target="_top" xlink:title="Instancing implementation using vertex texture through Vertex Texture Fetch (VTF) and hardware instan...">
<polygon fill="white" stroke="#666666" points="654.25,-320.25 494.25,-320.25 494.25,-301 654.25,-301 654.25,-320.25"/>
<text text-anchor="middle" x="574.25" y="-306.75" font-family="Helvetica,sans-Serif" font-size="10.00">Ogre::v1::InstanceBatchHW_VTF</text>
</a>
</g>
</g>
<!-- Node15&#45;&gt;Node16 -->
<g id="edge15_Node000015_Node000016" class="edge">
<title>Node15&#45;&gt;Node16</title>
<g id="a_edge15_Node000015_Node000016"><a xlink:title=" ">
<path fill="none" stroke="#63b8ff" d="M469.76,-301.04C477.78,-301.78 485.85,-302.53 493.75,-303.26"/>
<polygon fill="#63b8ff" stroke="#63b8ff" points="470.28,-297.57 460,-300.14 469.64,-304.55 470.28,-297.57"/>
</a>
</g>
</g>
<!-- Node17 -->
<g id="Node000017" class="node">
<title>Node17</title>
<g id="a_Node000017"><a xlink:href="class_ogre_1_1v1_1_1_instance_batch_v_t_f.html" target="_top" xlink:title=" ">
<polygon fill="white" stroke="#666666" points="643.38,-283.25 505.12,-283.25 505.12,-264 643.38,-264 643.38,-283.25"/>
<text text-anchor="middle" x="574.25" y="-269.75" font-family="Helvetica,sans-Serif" font-size="10.00">Ogre::v1::InstanceBatchVTF</text>
</a>
</g>
</g>
<!-- Node15&#45;&gt;Node17 -->
<g id="edge16_Node000015_Node000017" class="edge">
<title>Node15&#45;&gt;Node17</title>
<g id="a_edge16_Node000015_Node000017"><a xlink:title=" ">
<path fill="none" stroke="#63b8ff" d="M469.7,-283.75C481.45,-282.6 493.32,-281.44 504.63,-280.33"/>
<polygon fill="#63b8ff" stroke="#63b8ff" points="469.61,-280.24 460,-284.69 470.3,-287.21 469.61,-280.24"/>
</a>
</g>
</g>
<!-- Node22 -->
<g id="Node000022" class="node">
<title>Node22</title>
<g id="a_Node000022"><a xlink:href="class_ogre_1_1v1_1_1_overlay_container.html" target="_top" xlink:title="A 2D element which contains other OverlayElement instances.">
<polygon fill="white" stroke="#666666" points="443.25,-191.25 312.5,-191.25 312.5,-172 443.25,-172 443.25,-191.25"/>
<text text-anchor="middle" x="377.88" y="-177.75" font-family="Helvetica,sans-Serif" font-size="10.00">Ogre::v1::OverlayContainer</text>
</a>
</g>
</g>
<!-- Node21&#45;&gt;Node22 -->
<g id="edge21_Node000021_Node000022" class="edge">
<title>Node21&#45;&gt;Node22</title>
<g id="a_edge21_Node000021_Node000022"><a xlink:title=" ">
<path fill="none" stroke="#63b8ff" d="M268.22,-174.46C282.73,-175.42 297.87,-176.42 312.07,-177.35"/>
<polygon fill="#63b8ff" stroke="#63b8ff" points="268.46,-170.97 258.26,-173.8 268,-177.95 268.46,-170.97"/>
</a>
</g>
</g>
<!-- Node25 -->
<g id="Node000025" class="node">
<title>Node25</title>
<g id="a_Node000025"><a xlink:href="class_ogre_1_1v1_1_1_text_area_overlay_element.html" target="_top" xlink:title="This class implements an overlay element which contains simple unformatted text.">
<polygon fill="white" stroke="#666666" points="442.12,-153.88 313.62,-153.88 313.62,-123.38 442.12,-123.38 442.12,-153.88"/>
<text text-anchor="start" x="321.62" y="-140.38" font-family="Helvetica,sans-Serif" font-size="10.00">Ogre::v1::TextAreaOverlay</text>
<text text-anchor="middle" x="377.88" y="-129.12" font-family="Helvetica,sans-Serif" font-size="10.00">Element</text>
</a>
</g>
</g>
<!-- Node21&#45;&gt;Node25 -->
<g id="edge24_Node000021_Node000025" class="edge">
<title>Node21&#45;&gt;Node25</title>
<g id="a_edge24_Node000021_Node000025"><a xlink:title=" ">
<path fill="none" stroke="#63b8ff" d="M265.49,-157.6C281.21,-154.92 297.8,-152.09 313.22,-149.47"/>
<polygon fill="#63b8ff" stroke="#63b8ff" points="264.98,-154.13 255.71,-159.26 266.15,-161.03 264.98,-154.13"/>
</a>
</g>
</g>
<!-- Node23 -->
<g id="Node000023" class="node">
<title>Node23</title>
<g id="a_Node000023"><a xlink:href="class_ogre_1_1v1_1_1_panel_overlay_element.html" target="_top" xlink:title="OverlayElement representing a flat, single&#45;material (or transparent) panel which can contain other el...">
<polygon fill="white" stroke="#666666" points="649,-191.25 499.5,-191.25 499.5,-172 649,-172 649,-191.25"/>
<text text-anchor="middle" x="574.25" y="-177.75" font-family="Helvetica,sans-Serif" font-size="10.00">Ogre::v1::PanelOverlayElement</text>
</a>
</g>
</g>
<!-- Node22&#45;&gt;Node23 -->
<g id="edge22_Node000022_Node000023" class="edge">
<title>Node22&#45;&gt;Node23</title>
<g id="a_edge22_Node000022_Node000023"><a xlink:title=" ">
<path fill="none" stroke="#63b8ff" d="M455.04,-181.62C469.52,-181.62 484.65,-181.62 499.07,-181.62"/>
<polygon fill="#63b8ff" stroke="#63b8ff" points="455.11,-178.13 445.11,-181.63 455.11,-185.13 455.11,-178.13"/>
</a>
</g>
</g>
<!-- Node24 -->
<g id="Node000024" class="node">
<title>Node24</title>
<g id="a_Node000024"><a xlink:href="class_ogre_1_1v1_1_1_border_panel_overlay_element.html" target="_top" xlink:title="A specialisation of the PanelOverlayElement to provide a panel with a border.">
<polygon fill="white" stroke="#666666" points="833,-196.88 690.25,-196.88 690.25,-166.38 833,-166.38 833,-196.88"/>
<text text-anchor="start" x="698.25" y="-183.38" font-family="Helvetica,sans-Serif" font-size="10.00">Ogre::v1::BorderPanelOverlay</text>
<text text-anchor="middle" x="761.62" y="-172.12" font-family="Helvetica,sans-Serif" font-size="10.00">Element</text>
</a>
</g>
</g>
<!-- Node23&#45;&gt;Node24 -->
<g id="edge23_Node000023_Node000024" class="edge">
<title>Node23&#45;&gt;Node24</title>
<g id="a_edge23_Node000023_Node000024"><a xlink:title=" ">
<path fill="none" stroke="#63b8ff" d="M660.73,-181.62C670.53,-181.62 680.43,-181.62 689.99,-181.62"/>
<polygon fill="#63b8ff" stroke="#63b8ff" points="660.83,-178.13 650.83,-181.63 660.83,-185.13 660.83,-178.13"/>
</a>
</g>
</g>
<!-- Node28 -->
<g id="Node000028" class="node">
<title>Node28</title>
<g id="a_Node000028"><a xlink:href="class_ogre_1_1v1_1_1_wire_bounding_box.html" target="_top" xlink:title="Allows the rendering of a wireframe bounding box.">
<polygon fill="white" stroke="#666666" points="444.38,-105.25 311.38,-105.25 311.38,-86 444.38,-86 444.38,-105.25"/>
<text text-anchor="middle" x="377.88" y="-91.75" font-family="Helvetica,sans-Serif" font-size="10.00">Ogre::v1::WireBoundingBox</text>
</a>
</g>
</g>
<!-- Node27&#45;&gt;Node28 -->
<g id="edge27_Node000027_Node000028" class="edge">
<title>Node27&#45;&gt;Node28</title>
<g id="a_edge27_Node000027_Node000028"><a xlink:title=" ">
<path fill="none" stroke="#63b8ff" d="M273.28,-95.62C285.83,-95.62 298.71,-95.62 310.93,-95.62"/>
<polygon fill="#63b8ff" stroke="#63b8ff" points="273.38,-92.13 263.38,-95.63 273.38,-99.13 273.38,-92.13"/>
</a>
</g>
</g>
</g>
</svg>
