<?xml version="1.0" encoding="UTF-8" standalone="no"?>
<!DOCTYPE svg PUBLIC "-//W3C//DTD SVG 1.1//EN"
 "http://www.w3.org/Graphics/SVG/1.1/DTD/svg11.dtd">
<!-- Generated by graphviz version 9.0.0 (20230911.1827)
 -->
<!-- Title: Ogre::v1::HardwareCounterBuffer Pages: 1 -->
<svg width="572pt" height="137pt"
 viewBox="0.00 0.00 572.25 136.50" xmlns="http://www.w3.org/2000/svg" xmlns:xlink="http://www.w3.org/1999/xlink">
<g id="graph0" class="graph" transform="scale(1 1) rotate(0) translate(4 132.5)">
<title>Ogre::v1::HardwareCounterBuffer</title>
<!-- Node1 -->
<g id="Node000001" class="node">
<title>Node1</title>
<g id="a_Node000001"><a xlink:title="Specialisation of HardwareBuffer for a counter buffer.">
<polygon fill="#999999" stroke="#666666" points="391.5,-79.5 259.25,-79.5 259.25,-49 391.5,-49 391.5,-79.5"/>
<text text-anchor="start" x="267.25" y="-66" font-family="Helvetica,sans-Serif" font-size="10.00">Ogre::v1::HardwareCounter</text>
<text text-anchor="middle" x="325.38" y="-54.75" font-family="Helvetica,sans-Serif" font-size="10.00">Buffer</text>
</a>
</g>
</g>
<!-- Node4 -->
<g id="Node000004" class="node">
<title>Node4</title>
<g id="a_Node000004"><a xlink:href="class_ogre_1_1v1_1_1_default_hardware_counter_buffer.html" target="_top" xlink:title="Specialisation of HardwareCounterBuffer for emulation.">
<polygon fill="white" stroke="#666666" points="560.5,-128.5 431.25,-128.5 431.25,-98 560.5,-98 560.5,-128.5"/>
<text text-anchor="start" x="439.25" y="-115" font-family="Helvetica,sans-Serif" font-size="10.00">Ogre::v1::DefaultHardware</text>
<text text-anchor="middle" x="495.88" y="-103.75" font-family="Helvetica,sans-Serif" font-size="10.00">CounterBuffer</text>
</a>
</g>
</g>
<!-- Node1&#45;&gt;Node4 -->
<g id="edge3_Node000001_Node000004" class="edge">
<title>Node1&#45;&gt;Node4</title>
<g id="a_edge3_Node000001_Node000004"><a xlink:title=" ">
<path fill="none" stroke="#63b8ff" d="M390.8,-82.98C407.28,-87.78 424.84,-92.88 440.74,-97.51"/>
<polygon fill="#63b8ff" stroke="#63b8ff" points="392.19,-79.74 381.61,-80.31 390.23,-86.46 392.19,-79.74"/>
</a>
</g>
</g>
<!-- Node5 -->
<g id="Node000005" class="node">
<title>Node5</title>
<g id="a_Node000005"><a xlink:href="class_ogre_1_1v1_1_1_g_l3_plus_default_hardware_counter_buffer.html" target="_top" xlink:title="Specialisation of HardwareCounterBuffer for emulation.">
<polygon fill="white" stroke="#666666" points="558.62,-79.5 433.12,-79.5 433.12,-49 558.62,-49 558.62,-79.5"/>
<text text-anchor="start" x="441.12" y="-66" font-family="Helvetica,sans-Serif" font-size="10.00">Ogre::v1::GL3PlusDefault</text>
<text text-anchor="middle" x="495.88" y="-54.75" font-family="Helvetica,sans-Serif" font-size="10.00">HardwareCounterBuffer</text>
</a>
</g>
</g>
<!-- Node1&#45;&gt;Node5 -->
<g id="edge4_Node000001_Node000005" class="edge">
<title>Node1&#45;&gt;Node5</title>
<g id="a_edge4_Node000001_Node000005"><a xlink:title=" ">
<path fill="none" stroke="#63b8ff" d="M402.74,-64.25C412.76,-64.25 422.92,-64.25 432.67,-64.25"/>
<polygon fill="#63b8ff" stroke="#63b8ff" points="403.04,-60.75 393.04,-64.25 403.04,-67.75 403.04,-60.75"/>
</a>
</g>
</g>
<!-- Node6 -->
<g id="Node000006" class="node">
<title>Node6</title>
<g id="a_Node000006"><a xlink:href="class_ogre_1_1v1_1_1_g_l3_plus_hardware_counter_buffer.html" target="_top" xlink:title="Specialisation of HardwareCounterBuffer for OpenGL.">
<polygon fill="white" stroke="#666666" points="564.25,-30.5 427.5,-30.5 427.5,0 564.25,0 564.25,-30.5"/>
<text text-anchor="start" x="435.5" y="-17" font-family="Helvetica,sans-Serif" font-size="10.00">Ogre::v1::GL3PlusHardware</text>
<text text-anchor="middle" x="495.88" y="-5.75" font-family="Helvetica,sans-Serif" font-size="10.00">CounterBuffer</text>
</a>
</g>
</g>
<!-- Node1&#45;&gt;Node6 -->
<g id="edge5_Node000001_Node000006" class="edge">
<title>Node1&#45;&gt;Node6</title>
<g id="a_edge5_Node000001_Node000006"><a xlink:title=" ">
<path fill="none" stroke="#63b8ff" d="M390.8,-45.52C407.28,-40.72 424.84,-35.62 440.74,-30.99"/>
<polygon fill="#63b8ff" stroke="#63b8ff" points="390.23,-42.04 381.61,-48.19 392.19,-48.76 390.23,-42.04"/>
</a>
</g>
</g>
<!-- Node2 -->
<g id="Node000002" class="node">
<title>Node2</title>
<g id="a_Node000002"><a xlink:href="class_ogre_1_1v1_1_1_hardware_buffer.html" target="_top" xlink:title="Abstract class defining common features of hardware buffers.">
<polygon fill="white" stroke="#666666" points="223.25,-73.88 99.25,-73.88 99.25,-54.62 223.25,-54.62 223.25,-73.88"/>
<text text-anchor="middle" x="161.25" y="-60.38" font-family="Helvetica,sans-Serif" font-size="10.00">Ogre::v1::HardwareBuffer</text>
</a>
</g>
</g>
<!-- Node2&#45;&gt;Node1 -->
<g id="edge1_Node000001_Node000002" class="edge">
<title>Node2&#45;&gt;Node1</title>
<g id="a_edge1_Node000001_Node000002"><a xlink:title=" ">
<path fill="none" stroke="#63b8ff" d="M234.8,-64.25C242.84,-64.25 250.99,-64.25 258.94,-64.25"/>
<polygon fill="#63b8ff" stroke="#63b8ff" points="235.06,-60.75 225.06,-64.25 235.06,-67.75 235.06,-60.75"/>
</a>
</g>
</g>
<!-- Node3 -->
<g id="Node000003" class="node">
<title>Node3</title>
<g id="a_Node000003"><a xlink:href="class_ogre_1_1_allocated_object.html" target="_top" xlink:title="Superclass for all objects that wish to use custom memory allocators when their new / delete operator...">
<polygon fill="white" stroke="#666666" points="63.25,-73.88 0,-73.88 0,-54.62 63.25,-54.62 63.25,-73.88"/>
<text text-anchor="middle" x="31.62" y="-60.38" font-family="Helvetica,sans-Serif" font-size="10.00">BufferAlloc</text>
</a>
</g>
</g>
<!-- Node3&#45;&gt;Node2 -->
<g id="edge2_Node000002_Node000003" class="edge">
<title>Node3&#45;&gt;Node2</title>
<g id="a_edge2_Node000002_Node000003"><a xlink:title=" ">
<path fill="none" stroke="#63b8ff" d="M74.81,-64.25C82.53,-64.25 90.74,-64.25 98.89,-64.25"/>
<polygon fill="#63b8ff" stroke="#63b8ff" points="75.03,-60.75 65.03,-64.25 75.03,-67.75 75.03,-60.75"/>
</a>
</g>
</g>
</g>
</svg>
