<?xml version="1.0" encoding="UTF-8" standalone="no"?>
<!DOCTYPE svg PUBLIC "-//W3C//DTD SVG 1.1//EN"
 "http://www.w3.org/Graphics/SVG/1.1/DTD/svg11.dtd">
<!-- Generated by graphviz version 2.44.0 ()
 -->
<!-- Title: Ogre::v1::GL3PlusHardwareIndexBuffer Pages: 1 -->
<svg width="156pt" height="207pt"
 viewBox="0.00 0.00 156.00 207.00" xmlns="http://www.w3.org/2000/svg" xmlns:xlink="http://www.w3.org/1999/xlink">
<g id="graph0" class="graph" transform="scale(1 1) rotate(0) translate(4 203)">
<title>Ogre::v1::GL3PlusHardwareIndexBuffer</title>
<!-- Node1 -->
<g id="node1" class="node">
<title>Node1</title>
<g id="a_node1"><a xlink:title=" ">
<polygon fill="#bfbfbf" stroke="black" points="5.5,-0.5 5.5,-30.5 142.5,-30.5 142.5,-0.5 5.5,-0.5"/>
<text text-anchor="start" x="13.5" y="-18.5" font-family="Helvetica,sans-Serif" font-size="10.00">Ogre::v1::GL3PlusHardware</text>
<text text-anchor="middle" x="74" y="-7.5" font-family="Helvetica,sans-Serif" font-size="10.00">IndexBuffer</text>
</a>
</g>
</g>
<!-- Node2 -->
<g id="node2" class="node">
<title>Node2</title>
<g id="a_node2"><a xlink:href="class_ogre_1_1v1_1_1_hardware_index_buffer.html" target="_top" xlink:title="Specialisation of HardwareBuffer for vertex index buffers, still abstract.">
<polygon fill="none" stroke="black" points="0,-67.5 0,-86.5 148,-86.5 148,-67.5 0,-67.5"/>
<text text-anchor="middle" x="74" y="-74.5" font-family="Helvetica,sans-Serif" font-size="10.00">Ogre::v1::HardwareIndexBuffer</text>
</a>
</g>
</g>
<!-- Node2&#45;&gt;Node1 -->
<g id="edge1" class="edge">
<title>Node2&#45;&gt;Node1</title>
<path fill="none" stroke="midnightblue" d="M74,-57.23C74,-48.59 74,-38.5 74,-30.52"/>
<polygon fill="midnightblue" stroke="midnightblue" points="70.5,-57.48 74,-67.48 77.5,-57.48 70.5,-57.48"/>
</g>
<!-- Node3 -->
<g id="node3" class="node">
<title>Node3</title>
<g id="a_node3"><a xlink:href="class_ogre_1_1v1_1_1_hardware_buffer.html" target="_top" xlink:title="Abstract class defining common features of hardware buffers.">
<polygon fill="none" stroke="black" points="11.5,-123.5 11.5,-142.5 136.5,-142.5 136.5,-123.5 11.5,-123.5"/>
<text text-anchor="middle" x="74" y="-130.5" font-family="Helvetica,sans-Serif" font-size="10.00">Ogre::v1::HardwareBuffer</text>
</a>
</g>
</g>
<!-- Node3&#45;&gt;Node2 -->
<g id="edge2" class="edge">
<title>Node3&#45;&gt;Node2</title>
<path fill="none" stroke="midnightblue" d="M74,-112.8C74,-103.91 74,-93.78 74,-86.75"/>
<polygon fill="midnightblue" stroke="midnightblue" points="70.5,-113.08 74,-123.08 77.5,-113.08 70.5,-113.08"/>
</g>
<!-- Node4 -->
<g id="node4" class="node">
<title>Node4</title>
<g id="a_node4"><a xlink:href="class_ogre_1_1_allocated_object.html" target="_top" xlink:title="Superclass for all objects that wish to use custom memory allocators when their new / delete operator...">
<polygon fill="none" stroke="black" points="42,-179.5 42,-198.5 106,-198.5 106,-179.5 42,-179.5"/>
<text text-anchor="middle" x="74" y="-186.5" font-family="Helvetica,sans-Serif" font-size="10.00">BufferAlloc</text>
</a>
</g>
</g>
<!-- Node4&#45;&gt;Node3 -->
<g id="edge3" class="edge">
<title>Node4&#45;&gt;Node3</title>
<path fill="none" stroke="midnightblue" d="M74,-168.8C74,-159.91 74,-149.78 74,-142.75"/>
<polygon fill="midnightblue" stroke="midnightblue" points="70.5,-169.08 74,-179.08 77.5,-169.08 70.5,-169.08"/>
</g>
</g>
</svg>
