<?xml version="1.0" encoding="UTF-8" standalone="no"?>
<!DOCTYPE svg PUBLIC "-//W3C//DTD SVG 1.1//EN"
 "http://www.w3.org/Graphics/SVG/1.1/DTD/svg11.dtd">
<!-- Generated by graphviz version 9.0.0 (20230911.1827)
 -->
<!-- Title: Ogre::OctreeCamera Pages: 1 -->
<svg width="336pt" height="248pt"
 viewBox="0.00 0.00 336.38 248.25" xmlns="http://www.w3.org/2000/svg" xmlns:xlink="http://www.w3.org/1999/xlink">
<g id="graph0" class="graph" transform="scale(1 1) rotate(0) translate(4 244.25)">
<title>Ogre::OctreeCamera</title>
<!-- Node1 -->
<g id="Node000001" class="node">
<title>Node1</title>
<g id="a_Node000001"><a xlink:title="Specialized viewpoint from which an Octree can be rendered.">
<polygon fill="#999999" stroke="#666666" points="276.5,-19.25 172,-19.25 172,0 276.5,0 276.5,-19.25"/>
<text text-anchor="middle" x="224.25" y="-5.75" font-family="Helvetica,sans-Serif" font-size="10.00">Ogre::OctreeCamera</text>
</a>
</g>
</g>
<!-- Node2 -->
<g id="Node000002" class="node">
<title>Node2</title>
<g id="a_Node000002"><a xlink:href="class_ogre_1_1_camera.html" target="_top" xlink:title="A viewpoint from which the scene will be rendered.">
<polygon fill="white" stroke="#666666" points="261.88,-74.5 186.62,-74.5 186.62,-55.25 261.88,-55.25 261.88,-74.5"/>
<text text-anchor="middle" x="224.25" y="-61" font-family="Helvetica,sans-Serif" font-size="10.00">Ogre::Camera</text>
</a>
</g>
</g>
<!-- Node2&#45;&gt;Node1 -->
<g id="edge1_Node000001_Node000002" class="edge">
<title>Node2&#45;&gt;Node1</title>
<g id="a_edge1_Node000001_Node000002"><a xlink:title=" ">
<path fill="none" stroke="#63b8ff" d="M224.25,-43.63C224.25,-35.34 224.25,-26.17 224.25,-19.61"/>
<polygon fill="#63b8ff" stroke="#63b8ff" points="220.75,-43.57 224.25,-53.57 227.75,-43.57 220.75,-43.57"/>
</a>
</g>
</g>
<!-- Node3 -->
<g id="Node000003" class="node">
<title>Node3</title>
<g id="a_Node000003"><a xlink:href="class_ogre_1_1_frustum.html" target="_top" xlink:title="A frustum represents a pyramid, capped at the near and far end which is used to represent either a vi...">
<polygon fill="white" stroke="#666666" points="263,-129.75 185.5,-129.75 185.5,-110.5 263,-110.5 263,-129.75"/>
<text text-anchor="middle" x="224.25" y="-116.25" font-family="Helvetica,sans-Serif" font-size="10.00">Ogre::Frustum</text>
</a>
</g>
</g>
<!-- Node3&#45;&gt;Node2 -->
<g id="edge2_Node000002_Node000003" class="edge">
<title>Node3&#45;&gt;Node2</title>
<g id="a_edge2_Node000002_Node000003"><a xlink:title=" ">
<path fill="none" stroke="#63b8ff" d="M224.25,-98.88C224.25,-90.59 224.25,-81.42 224.25,-74.86"/>
<polygon fill="#63b8ff" stroke="#63b8ff" points="220.75,-98.82 224.25,-108.82 227.75,-98.82 220.75,-98.82"/>
</a>
</g>
</g>
<!-- Node4 -->
<g id="Node000004" class="node">
<title>Node4</title>
<g id="a_Node000004"><a xlink:href="class_ogre_1_1_movable_object.html" target="_top" xlink:title="Abstract class defining a movable object in a scene.">
<polygon fill="white" stroke="#666666" points="219.62,-185 112.88,-185 112.88,-165.75 219.62,-165.75 219.62,-185"/>
<text text-anchor="middle" x="166.25" y="-171.5" font-family="Helvetica,sans-Serif" font-size="10.00">Ogre::MovableObject</text>
</a>
</g>
</g>
<!-- Node4&#45;&gt;Node3 -->
<g id="edge3_Node000003_Node000004" class="edge">
<title>Node4&#45;&gt;Node3</title>
<g id="a_edge3_Node000003_Node000004"><a xlink:title=" ">
<path fill="none" stroke="#63b8ff" d="M184.51,-157.61C194.47,-148.47 206.39,-137.53 214.56,-130.02"/>
<polygon fill="#63b8ff" stroke="#63b8ff" points="182.2,-154.98 177.2,-164.32 186.94,-160.13 182.2,-154.98"/>
</a>
</g>
</g>
<!-- Node5 -->
<g id="Node000005" class="node">
<title>Node5</title>
<g id="a_Node000005"><a xlink:href="class_ogre_1_1_animable_object.html" target="_top" xlink:title="Defines an interface to classes which have one or more AnimableValue instances to expose.">
<polygon fill="white" stroke="#666666" points="110.5,-240.25 0,-240.25 0,-221 110.5,-221 110.5,-240.25"/>
<text text-anchor="middle" x="55.25" y="-226.75" font-family="Helvetica,sans-Serif" font-size="10.00">Ogre::AnimableObject</text>
</a>
</g>
</g>
<!-- Node5&#45;&gt;Node4 -->
<g id="edge4_Node000004_Node000005" class="edge">
<title>Node5&#45;&gt;Node4</title>
<g id="a_edge4_Node000004_Node000005"><a xlink:title=" ">
<path fill="none" stroke="#63b8ff" d="M84.43,-215.62C104.32,-206.08 130.08,-193.73 147.33,-185.45"/>
<polygon fill="#63b8ff" stroke="#63b8ff" points="82.95,-212.46 75.44,-219.94 85.97,-218.77 82.95,-212.46"/>
</a>
</g>
</g>
<!-- Node6 -->
<g id="Node000006" class="node">
<title>Node6</title>
<g id="a_Node000006"><a xlink:href="class_ogre_1_1_allocated_object.html" target="_top" xlink:title="Superclass for all objects that wish to use custom memory allocators when their new / delete operator...">
<polygon fill="white" stroke="#666666" points="203.5,-240.25 129,-240.25 129,-221 203.5,-221 203.5,-240.25"/>
<text text-anchor="middle" x="166.25" y="-226.75" font-family="Helvetica,sans-Serif" font-size="10.00">MovableAlloc</text>
</a>
</g>
</g>
<!-- Node6&#45;&gt;Node4 -->
<g id="edge5_Node000004_Node000006" class="edge">
<title>Node6&#45;&gt;Node4</title>
<g id="a_edge5_Node000004_Node000006"><a xlink:title=" ">
<path fill="none" stroke="#63b8ff" d="M166.25,-209.38C166.25,-201.09 166.25,-191.92 166.25,-185.36"/>
<polygon fill="#63b8ff" stroke="#63b8ff" points="162.75,-209.32 166.25,-219.32 169.75,-209.32 162.75,-209.32"/>
</a>
</g>
</g>
<!-- Node7 -->
<g id="Node000007" class="node">
<title>Node7</title>
<g id="a_Node000007"><a xlink:href="class_ogre_1_1_id_object.html" target="_top" xlink:title=" ">
<polygon fill="white" stroke="#666666" points="299.38,-240.25 221.12,-240.25 221.12,-221 299.38,-221 299.38,-240.25"/>
<text text-anchor="middle" x="260.25" y="-226.75" font-family="Helvetica,sans-Serif" font-size="10.00">Ogre::IdObject</text>
</a>
</g>
</g>
<!-- Node7&#45;&gt;Node4 -->
<g id="edge6_Node000004_Node000007" class="edge">
<title>Node7&#45;&gt;Node4</title>
<g id="a_edge6_Node000004_Node000007"><a xlink:title=" ">
<path fill="none" stroke="#63b8ff" d="M234.6,-215.09C217.89,-205.63 196.61,-193.58 182.27,-185.45"/>
<polygon fill="#63b8ff" stroke="#63b8ff" points="232.56,-217.96 242.99,-219.85 236.01,-211.87 232.56,-217.96"/>
</a>
</g>
</g>
<!-- Node8 -->
<g id="Node000008" class="node">
<title>Node8</title>
<g id="a_Node000008"><a xlink:href="class_ogre_1_1_renderable.html" target="_top" xlink:title="Abstract class defining the interface all renderable objects must implement.">
<polygon fill="white" stroke="#666666" points="328.38,-185 238.12,-185 238.12,-165.75 328.38,-165.75 328.38,-185"/>
<text text-anchor="middle" x="283.25" y="-171.5" font-family="Helvetica,sans-Serif" font-size="10.00">Ogre::Renderable</text>
</a>
</g>
</g>
<!-- Node8&#45;&gt;Node3 -->
<g id="edge7_Node000003_Node000008" class="edge">
<title>Node8&#45;&gt;Node3</title>
<g id="a_edge7_Node000003_Node000008"><a xlink:title=" ">
<path fill="none" stroke="#63b8ff" d="M264.98,-157.89C254.79,-148.69 242.51,-137.6 234.11,-130.02"/>
<polygon fill="#63b8ff" stroke="#63b8ff" points="262.35,-160.23 272.12,-164.33 267.04,-155.03 262.35,-160.23"/>
</a>
</g>
</g>
</g>
</svg>
