<?xml version="1.0" encoding="UTF-8" standalone="no"?>
<!DOCTYPE svg PUBLIC "-//W3C//DTD SVG 1.1//EN"
 "http://www.w3.org/Graphics/SVG/1.1/DTD/svg11.dtd">
<!-- Generated by graphviz version 9.0.0 (20230911.1827)
 -->
<!-- Title: Ogre::TerrainGlobalOptions Pages: 1 -->
<svg width="214pt" height="94pt"
 viewBox="0.00 0.00 214.00 93.75" xmlns="http://www.w3.org/2000/svg" xmlns:xlink="http://www.w3.org/1999/xlink">
<g id="graph0" class="graph" transform="scale(1 1) rotate(0) translate(4 89.75)">
<title>Ogre::TerrainGlobalOptions</title>
<!-- Node1 -->
<g id="Node000001" class="node">
<title>Node1</title>
<g id="a_Node000001"><a xlink:title="Options class which just stores default options for the terrain.">
<polygon fill="#999999" stroke="#666666" points="156.38,-19.25 23.38,-19.25 23.38,0 156.38,0 156.38,-19.25"/>
<text text-anchor="middle" x="89.88" y="-5.75" font-family="Helvetica,sans-Serif" font-size="10.00">Ogre::TerrainGlobalOptions</text>
</a>
</g>
</g>
<!-- Node2 -->
<g id="Node000002" class="node">
<title>Node2</title>
<g id="a_Node000002"><a xlink:href="class_ogre_1_1_allocated_object.html" target="_top" xlink:title="Superclass for all objects that wish to use custom memory allocators when their new / delete operator...">
<polygon fill="white" stroke="#666666" points="67.75,-80.12 0,-80.12 0,-60.88 67.75,-60.88 67.75,-80.12"/>
<text text-anchor="middle" x="33.88" y="-66.62" font-family="Helvetica,sans-Serif" font-size="10.00">TerrainAlloc</text>
</a>
</g>
</g>
<!-- Node2&#45;&gt;Node1 -->
<g id="edge1_Node000001_Node000002" class="edge">
<title>Node2&#45;&gt;Node1</title>
<g id="a_edge1_Node000001_Node000002"><a xlink:title=" ">
<path fill="none" stroke="#63b8ff" d="M50.18,-52.36C60.36,-41.66 73.04,-28.33 81.29,-19.65"/>
<polygon fill="#63b8ff" stroke="#63b8ff" points="47.78,-49.8 43.42,-59.46 52.85,-54.63 47.78,-49.8"/>
</a>
</g>
</g>
<!-- Node3 -->
<g id="Node000003" class="node">
<title>Node3</title>
<g id="a_Node000003"><a xlink:href="class_ogre_1_1_singleton.html" target="_top" xlink:title=" ">
<polygon fill="white" stroke="#666666" points="206,-85.75 85.75,-85.75 85.75,-55.25 206,-55.25 206,-85.75"/>
<text text-anchor="start" x="93.75" y="-72.25" font-family="Helvetica,sans-Serif" font-size="10.00">Ogre::Singleton&lt; Terrain</text>
<text text-anchor="middle" x="145.88" y="-61" font-family="Helvetica,sans-Serif" font-size="10.00">GlobalOptions &gt;</text>
</a>
</g>
</g>
<!-- Node3&#45;&gt;Node1 -->
<g id="edge2_Node000001_Node000003" class="edge">
<title>Node3&#45;&gt;Node1</title>
<g id="a_edge2_Node000001_Node000003"><a xlink:title=" ">
<path fill="none" stroke="#63b8ff" d="M124.17,-46.68C115.21,-37.27 105.35,-26.89 98.51,-19.7"/>
<polygon fill="#63b8ff" stroke="#63b8ff" points="121.56,-49.02 130.99,-53.85 126.63,-44.19 121.56,-49.02"/>
</a>
</g>
</g>
</g>
</svg>
