<?xml version="1.0" encoding="UTF-8" standalone="no"?>
<!DOCTYPE svg PUBLIC "-//W3C//DTD SVG 1.1//EN"
 "http://www.w3.org/Graphics/SVG/1.1/DTD/svg11.dtd">
<!-- Generated by graphviz version 9.0.0 (20230911.1827)
 -->
<!-- Title: Ogre::IntersectionSceneQuery Pages: 1 -->
<svg width="789pt" height="137pt"
 viewBox="0.00 0.00 788.50 136.50" xmlns="http://www.w3.org/2000/svg" xmlns:xlink="http://www.w3.org/1999/xlink">
<g id="graph0" class="graph" transform="scale(1 1) rotate(0) translate(4 132.5)">
<title>Ogre::IntersectionSceneQuery</title>
<!-- Node1 -->
<g id="Node000001" class="node">
<title>Node1</title>
<g id="a_Node000001"><a xlink:title="Separate SceneQuery class to query for pairs of objects which are possibly intersecting one another.">
<polygon fill="#999999" stroke="#666666" points="445.5,-73.88 299.75,-73.88 299.75,-54.62 445.5,-54.62 445.5,-73.88"/>
<text text-anchor="middle" x="372.62" y="-60.38" font-family="Helvetica,sans-Serif" font-size="10.00">Ogre::IntersectionSceneQuery</text>
</a>
</g>
</g>
<!-- Node5 -->
<g id="Node000005" class="node">
<title>Node5</title>
<g id="a_Node000005"><a xlink:href="class_ogre_1_1_default_intersection_scene_query.html" target="_top" xlink:title="Default implementation of IntersectionSceneQuery.">
<polygon fill="white" stroke="#666666" points="604.75,-79.5 481.5,-79.5 481.5,-49 604.75,-49 604.75,-79.5"/>
<text text-anchor="start" x="489.5" y="-66" font-family="Helvetica,sans-Serif" font-size="10.00">Ogre::DefaultIntersection</text>
<text text-anchor="middle" x="543.12" y="-54.75" font-family="Helvetica,sans-Serif" font-size="10.00">SceneQuery</text>
</a>
</g>
</g>
<!-- Node1&#45;&gt;Node5 -->
<g id="edge4_Node000001_Node000005" class="edge">
<title>Node1&#45;&gt;Node5</title>
<g id="a_edge4_Node000001_Node000005"><a xlink:title=" ">
<path fill="none" stroke="#63b8ff" d="M456.99,-64.25C465.09,-64.25 473.2,-64.25 481.03,-64.25"/>
<polygon fill="#63b8ff" stroke="#63b8ff" points="457.09,-60.75 447.09,-64.25 457.09,-67.75 457.09,-60.75"/>
</a>
</g>
</g>
<!-- Node2 -->
<g id="Node000002" class="node">
<title>Node2</title>
<g id="a_Node000002"><a xlink:href="class_ogre_1_1_scene_query.html" target="_top" xlink:title="A class for performing queries on a scene.">
<polygon fill="white" stroke="#666666" points="238.25,-95.88 143.5,-95.88 143.5,-76.62 238.25,-76.62 238.25,-95.88"/>
<text text-anchor="middle" x="190.88" y="-82.38" font-family="Helvetica,sans-Serif" font-size="10.00">Ogre::SceneQuery</text>
</a>
</g>
</g>
<!-- Node2&#45;&gt;Node1 -->
<g id="edge1_Node000001_Node000002" class="edge">
<title>Node2&#45;&gt;Node1</title>
<g id="a_edge1_Node000001_Node000002"><a xlink:title=" ">
<path fill="none" stroke="#63b8ff" d="M249.82,-79.16C265.58,-77.23 282.86,-75.11 299.32,-73.1"/>
<polygon fill="#63b8ff" stroke="#63b8ff" points="249.64,-75.65 240.14,-80.34 250.49,-82.6 249.64,-75.65"/>
</a>
</g>
</g>
<!-- Node3 -->
<g id="Node000003" class="node">
<title>Node3</title>
<g id="a_Node000003"><a xlink:href="class_ogre_1_1_allocated_object.html" target="_top" xlink:title="Superclass for all objects that wish to use custom memory allocators when their new / delete operator...">
<polygon fill="white" stroke="#666666" points="82,-95.88 0,-95.88 0,-76.62 82,-76.62 82,-95.88"/>
<text text-anchor="middle" x="41" y="-82.38" font-family="Helvetica,sans-Serif" font-size="10.00">SceneMgtAlloc</text>
</a>
</g>
</g>
<!-- Node3&#45;&gt;Node2 -->
<g id="edge2_Node000002_Node000003" class="edge">
<title>Node3&#45;&gt;Node2</title>
<g id="a_edge2_Node000002_Node000003"><a xlink:title=" ">
<path fill="none" stroke="#63b8ff" d="M93.8,-86.25C109.89,-86.25 127.52,-86.25 143.24,-86.25"/>
<polygon fill="#63b8ff" stroke="#63b8ff" points="93.92,-82.75 83.92,-86.25 93.92,-89.75 93.92,-82.75"/>
</a>
</g>
</g>
<!-- Node4 -->
<g id="Node000004" class="node">
<title>Node4</title>
<g id="a_Node000004"><a xlink:href="class_ogre_1_1_intersection_scene_query_listener.html" target="_top" xlink:title="Alternative listener class for dealing with IntersectionSceneQuery.">
<polygon fill="white" stroke="#666666" points="263.75,-58.5 118,-58.5 118,-28 263.75,-28 263.75,-58.5"/>
<text text-anchor="start" x="126" y="-45" font-family="Helvetica,sans-Serif" font-size="10.00">Ogre::IntersectionSceneQuery</text>
<text text-anchor="middle" x="190.88" y="-33.75" font-family="Helvetica,sans-Serif" font-size="10.00">Listener</text>
</a>
</g>
</g>
<!-- Node4&#45;&gt;Node1 -->
<g id="edge3_Node000001_Node000004" class="edge">
<title>Node4&#45;&gt;Node1</title>
<g id="a_edge3_Node000001_Node000004"><a xlink:title=" ">
<path fill="none" stroke="#63b8ff" d="M275.46,-53.02C283.47,-53.95 291.55,-54.9 299.44,-55.82"/>
<polygon fill="#63b8ff" stroke="#63b8ff" points="276.05,-49.56 265.71,-51.88 275.24,-56.51 276.05,-49.56"/>
</a>
</g>
</g>
<!-- Node6 -->
<g id="Node000006" class="node">
<title>Node6</title>
<g id="a_Node000006"><a xlink:href="class_ogre_1_1_bsp_intersection_scene_query.html" target="_top" xlink:title="BSP specialisation of IntersectionSceneQuery.">
<polygon fill="white" stroke="#666666" points="779.38,-128.5 641.88,-128.5 641.88,-98 779.38,-98 779.38,-128.5"/>
<text text-anchor="start" x="649.88" y="-115" font-family="Helvetica,sans-Serif" font-size="10.00">Ogre::BspIntersectionScene</text>
<text text-anchor="middle" x="710.62" y="-103.75" font-family="Helvetica,sans-Serif" font-size="10.00">Query</text>
</a>
</g>
</g>
<!-- Node5&#45;&gt;Node6 -->
<g id="edge5_Node000005_Node000006" class="edge">
<title>Node5&#45;&gt;Node6</title>
<g id="a_edge5_Node000005_Node000006"><a xlink:title=" ">
<path fill="none" stroke="#63b8ff" d="M607.87,-83.12C623.92,-87.87 640.98,-92.93 656.45,-97.51"/>
<polygon fill="#63b8ff" stroke="#63b8ff" points="608.98,-79.8 598.4,-80.32 606.99,-86.51 608.98,-79.8"/>
</a>
</g>
</g>
<!-- Node7 -->
<g id="Node000007" class="node">
<title>Node7</title>
<g id="a_Node000007"><a xlink:href="class_ogre_1_1_octree_intersection_scene_query.html" target="_top" xlink:title="Octree implementation of IntersectionSceneQuery.">
<polygon fill="white" stroke="#666666" points="771.5,-79.5 649.75,-79.5 649.75,-49 771.5,-49 771.5,-79.5"/>
<text text-anchor="start" x="657.75" y="-66" font-family="Helvetica,sans-Serif" font-size="10.00">Ogre::OctreeIntersection</text>
<text text-anchor="middle" x="710.62" y="-54.75" font-family="Helvetica,sans-Serif" font-size="10.00">SceneQuery</text>
</a>
</g>
</g>
<!-- Node5&#45;&gt;Node7 -->
<g id="edge6_Node000005_Node000007" class="edge">
<title>Node5&#45;&gt;Node7</title>
<g id="a_edge6_Node000005_Node000007"><a xlink:title=" ">
<path fill="none" stroke="#63b8ff" d="M616.25,-64.25C627.34,-64.25 638.7,-64.25 649.5,-64.25"/>
<polygon fill="#63b8ff" stroke="#63b8ff" points="616.32,-60.75 606.32,-64.25 616.32,-67.75 616.32,-60.75"/>
</a>
</g>
</g>
<!-- Node8 -->
<g id="Node000008" class="node">
<title>Node8</title>
<g id="a_Node000008"><a xlink:href="class_ogre_1_1_p_c_z_intersection_scene_query.html" target="_top" xlink:title="PCZ implementation of IntersectionSceneQuery.">
<polygon fill="white" stroke="#666666" points="780.5,-30.5 640.75,-30.5 640.75,0 780.5,0 780.5,-30.5"/>
<text text-anchor="start" x="648.75" y="-17" font-family="Helvetica,sans-Serif" font-size="10.00">Ogre::PCZIntersectionScene</text>
<text text-anchor="middle" x="710.62" y="-5.75" font-family="Helvetica,sans-Serif" font-size="10.00">Query</text>
</a>
</g>
</g>
<!-- Node5&#45;&gt;Node8 -->
<g id="edge7_Node000005_Node000008" class="edge">
<title>Node5&#45;&gt;Node8</title>
<g id="a_edge7_Node000005_Node000008"><a xlink:title=" ">
<path fill="none" stroke="#63b8ff" d="M607.87,-45.38C623.92,-40.63 640.98,-35.57 656.45,-30.99"/>
<polygon fill="#63b8ff" stroke="#63b8ff" points="606.99,-41.99 598.4,-48.18 608.98,-48.7 606.99,-41.99"/>
</a>
</g>
</g>
</g>
</svg>
