<?xml version="1.0" encoding="UTF-8" standalone="no"?>
<!DOCTYPE svg PUBLIC "-//W3C//DTD SVG 1.1//EN"
 "http://www.w3.org/Graphics/SVG/1.1/DTD/svg11.dtd">
<!-- Generated by graphviz version 9.0.0 (20230911.1827)
 -->
<!-- Title: Ogre::v1::HardwareBufferManagerBase Pages: 1 -->
<svg width="625pt" height="480pt"
 viewBox="0.00 0.00 624.75 479.50" xmlns="http://www.w3.org/2000/svg" xmlns:xlink="http://www.w3.org/1999/xlink">
<g id="graph0" class="graph" transform="scale(1 1) rotate(0) translate(4 475.5)">
<title>Ogre::v1::HardwareBufferManagerBase</title>
<!-- Node1 -->
<g id="Node000001" class="node">
<title>Node1</title>
<g id="a_Node000001"><a xlink:title="Base definition of a hardware buffer manager.">
<polygon fill="#999999" stroke="#666666" points="223.25,-299.5 99.25,-299.5 99.25,-269 223.25,-269 223.25,-299.5"/>
<text text-anchor="start" x="107.25" y="-286" font-family="Helvetica,sans-Serif" font-size="10.00">Ogre::v1::HardwareBuffer</text>
<text text-anchor="middle" x="161.25" y="-274.75" font-family="Helvetica,sans-Serif" font-size="10.00">ManagerBase</text>
</a>
</g>
</g>
<!-- Node3 -->
<g id="Node000003" class="node">
<title>Node3</title>
<g id="a_Node000003"><a xlink:href="class_ogre_1_1v1_1_1_d3_d11_hardware_buffer_manager_base.html" target="_top" xlink:title="Implementation of HardwareBufferManager for D3D11.">
<polygon fill="white" stroke="#666666" points="416.25,-471.5 263,-471.5 263,-441 416.25,-441 416.25,-471.5"/>
<text text-anchor="start" x="271" y="-458" font-family="Helvetica,sans-Serif" font-size="10.00">Ogre::v1::D3D11HardwareBuffer</text>
<text text-anchor="middle" x="339.62" y="-446.75" font-family="Helvetica,sans-Serif" font-size="10.00">ManagerBase</text>
</a>
</g>
</g>
<!-- Node1&#45;&gt;Node3 -->
<g id="edge2_Node000001_Node000003" class="edge">
<title>Node1&#45;&gt;Node3</title>
<g id="a_edge2_Node000001_Node000003"><a xlink:title=" ">
<path fill="none" stroke="#63b8ff" d="M172.58,-309.8C187.13,-342.62 216.71,-399.15 259.25,-431.25 263.98,-434.82 269.23,-437.88 274.71,-440.52"/>
<polygon fill="#63b8ff" stroke="#63b8ff" points="175.99,-308.86 168.83,-301.05 169.55,-311.62 175.99,-308.86"/>
</a>
</g>
</g>
<!-- Node4 -->
<g id="Node000004" class="node">
<title>Node4</title>
<g id="a_Node000004"><a xlink:href="class_ogre_1_1v1_1_1_default_hardware_buffer_manager_base.html" target="_top" xlink:title="Specialisation of HardwareBufferManagerBase to emulate hardware buffers.">
<polygon fill="white" stroke="#666666" points="404.25,-422.5 275,-422.5 275,-392 404.25,-392 404.25,-422.5"/>
<text text-anchor="start" x="283" y="-409" font-family="Helvetica,sans-Serif" font-size="10.00">Ogre::v1::DefaultHardware</text>
<text text-anchor="middle" x="339.62" y="-397.75" font-family="Helvetica,sans-Serif" font-size="10.00">BufferManagerBase</text>
</a>
</g>
</g>
<!-- Node1&#45;&gt;Node4 -->
<g id="edge3_Node000001_Node000004" class="edge">
<title>Node1&#45;&gt;Node4</title>
<g id="a_edge3_Node000001_Node000004"><a xlink:title=" ">
<path fill="none" stroke="#63b8ff" d="M180.58,-308.63C198.42,-330.77 227.42,-362.83 259.25,-382.25 265.05,-385.79 271.39,-388.87 277.88,-391.54"/>
<polygon fill="#63b8ff" stroke="#63b8ff" points="183.52,-306.7 174.58,-301.01 178.02,-311.03 183.52,-306.7"/>
</a>
</g>
</g>
<!-- Node5 -->
<g id="Node000005" class="node">
<title>Node5</title>
<g id="a_Node000005"><a xlink:href="class_ogre_1_1v1_1_1_g_l3_plus_default_hardware_buffer_manager_base.html" target="_top" xlink:title="Specialisation of HardwareBufferManager to emulate hardware buffers.">
<polygon fill="white" stroke="#666666" points="411.38,-373.5 267.88,-373.5 267.88,-343 411.38,-343 411.38,-373.5"/>
<text text-anchor="start" x="275.88" y="-360" font-family="Helvetica,sans-Serif" font-size="10.00">Ogre::v1::GL3PlusDefault</text>
<text text-anchor="middle" x="339.62" y="-348.75" font-family="Helvetica,sans-Serif" font-size="10.00">HardwareBufferManagerBase</text>
</a>
</g>
</g>
<!-- Node1&#45;&gt;Node5 -->
<g id="edge4_Node000001_Node000005" class="edge">
<title>Node1&#45;&gt;Node5</title>
<g id="a_edge4_Node000001_Node000005"><a xlink:title=" ">
<path fill="none" stroke="#63b8ff" d="M200.04,-305.14C217.72,-314.44 239.24,-325.11 259.25,-333.25 267.41,-336.57 276.19,-339.73 284.83,-342.61"/>
<polygon fill="#63b8ff" stroke="#63b8ff" points="201.93,-302.18 191.46,-300.57 198.64,-308.36 201.93,-302.18"/>
</a>
</g>
</g>
<!-- Node6 -->
<g id="Node000006" class="node">
<title>Node6</title>
<g id="a_Node000006"><a xlink:href="class_ogre_1_1v1_1_1_g_l3_plus_hardware_buffer_manager_base.html" target="_top" xlink:title="Implementation of HardwareBufferManager for OpenGL.">
<polygon fill="white" stroke="#666666" points="408,-324.5 271.25,-324.5 271.25,-294 408,-294 408,-324.5"/>
<text text-anchor="start" x="279.25" y="-311" font-family="Helvetica,sans-Serif" font-size="10.00">Ogre::v1::GL3PlusHardware</text>
<text text-anchor="middle" x="339.62" y="-299.75" font-family="Helvetica,sans-Serif" font-size="10.00">BufferManagerBase</text>
</a>
</g>
</g>
<!-- Node1&#45;&gt;Node6 -->
<g id="edge5_Node000001_Node000006" class="edge">
<title>Node1&#45;&gt;Node6</title>
<g id="a_edge5_Node000001_Node000006"><a xlink:title=" ">
<path fill="none" stroke="#63b8ff" d="M234.76,-294.53C246.72,-296.22 259.07,-297.97 270.91,-299.65"/>
<polygon fill="#63b8ff" stroke="#63b8ff" points="235.33,-291.07 224.94,-293.14 234.35,-298 235.33,-291.07"/>
</a>
</g>
</g>
<!-- Node7 -->
<g id="Node000007" class="node">
<title>Node7</title>
<g id="a_Node000007"><a xlink:href="class_ogre_1_1v1_1_1_g_l_e_s2_default_hardware_buffer_manager_base.html" target="_top" xlink:title="Specialisation of HardwareBufferManager to emulate hardware buffers.">
<polygon fill="white" stroke="#666666" points="420,-275.5 259.25,-275.5 259.25,-245 420,-245 420,-275.5"/>
<text text-anchor="start" x="267.25" y="-262" font-family="Helvetica,sans-Serif" font-size="10.00">Ogre::v1::GLES2DefaultHardware</text>
<text text-anchor="middle" x="339.62" y="-250.75" font-family="Helvetica,sans-Serif" font-size="10.00">BufferManagerBase</text>
</a>
</g>
</g>
<!-- Node1&#45;&gt;Node7 -->
<g id="edge6_Node000001_Node000007" class="edge">
<title>Node1&#45;&gt;Node7</title>
<g id="a_edge6_Node000001_Node000007"><a xlink:title=" ">
<path fill="none" stroke="#63b8ff" d="M234.62,-274.4C242.62,-273.31 250.81,-272.2 258.9,-271.1"/>
<polygon fill="#63b8ff" stroke="#63b8ff" points="234.38,-270.9 224.94,-275.72 235.32,-277.84 234.38,-270.9"/>
</a>
</g>
</g>
<!-- Node8 -->
<g id="Node000008" class="node">
<title>Node8</title>
<g id="a_Node000008"><a xlink:href="class_ogre_1_1v1_1_1_g_l_e_s2_hardware_buffer_manager_base.html" target="_top" xlink:title="Implementation of HardwareBufferManager for OpenGL ES.">
<polygon fill="white" stroke="#666666" points="417.38,-226.5 261.88,-226.5 261.88,-196 417.38,-196 417.38,-226.5"/>
<text text-anchor="start" x="269.88" y="-213" font-family="Helvetica,sans-Serif" font-size="10.00">Ogre::v1::GLES2HardwareBuffer</text>
<text text-anchor="middle" x="339.62" y="-201.75" font-family="Helvetica,sans-Serif" font-size="10.00">ManagerBase</text>
</a>
</g>
</g>
<!-- Node1&#45;&gt;Node8 -->
<g id="edge7_Node000001_Node000008" class="edge">
<title>Node1&#45;&gt;Node8</title>
<g id="a_edge7_Node000001_Node000008"><a xlink:title=" ">
<path fill="none" stroke="#63b8ff" d="M200.87,-263.43C218.4,-254.42 239.58,-244.16 259.25,-236.25 267.43,-232.96 276.21,-229.82 284.86,-226.94"/>
<polygon fill="#63b8ff" stroke="#63b8ff" points="199.6,-260.14 192.35,-267.86 202.83,-266.35 199.6,-260.14"/>
</a>
</g>
</g>
<!-- Node9 -->
<g id="Node000009" class="node">
<title>Node9</title>
<g id="a_Node000009"><a xlink:href="class_ogre_1_1v1_1_1_hardware_buffer_manager.html" target="_top" xlink:title="Singleton wrapper for hardware buffer manager.">
<polygon fill="white" stroke="#666666" points="401.62,-177.5 277.62,-177.5 277.62,-147 401.62,-147 401.62,-177.5"/>
<text text-anchor="start" x="285.62" y="-164" font-family="Helvetica,sans-Serif" font-size="10.00">Ogre::v1::HardwareBuffer</text>
<text text-anchor="middle" x="339.62" y="-152.75" font-family="Helvetica,sans-Serif" font-size="10.00">Manager</text>
</a>
</g>
</g>
<!-- Node1&#45;&gt;Node9 -->
<g id="edge8_Node000001_Node000009" class="edge">
<title>Node1&#45;&gt;Node9</title>
<g id="a_edge8_Node000001_Node000009"><a xlink:title=" ">
<path fill="none" stroke="#63b8ff" d="M180.63,-260.13C198.51,-238.22 227.54,-206.49 259.25,-187.25 265.06,-183.73 271.41,-180.66 277.9,-177.99"/>
<polygon fill="#63b8ff" stroke="#63b8ff" points="178.12,-257.66 174.63,-267.66 183.6,-262.02 178.12,-257.66"/>
</a>
</g>
</g>
<!-- Node17 -->
<g id="Node000017" class="node">
<title>Node17</title>
<g id="a_Node000017"><a xlink:href="class_ogre_1_1v1_1_1_metal_hardware_buffer_manager_base.html" target="_top" xlink:title="Implementation of HardwareBufferManager for Metal.">
<polygon fill="white" stroke="#666666" points="413.62,-128.5 265.62,-128.5 265.62,-98 413.62,-98 413.62,-128.5"/>
<text text-anchor="start" x="273.62" y="-115" font-family="Helvetica,sans-Serif" font-size="10.00">Ogre::v1::MetalHardwareBuffer</text>
<text text-anchor="middle" x="339.62" y="-103.75" font-family="Helvetica,sans-Serif" font-size="10.00">ManagerBase</text>
</a>
</g>
</g>
<!-- Node1&#45;&gt;Node17 -->
<g id="edge16_Node000001_Node000017" class="edge">
<title>Node1&#45;&gt;Node17</title>
<g id="a_edge16_Node000001_Node000017"><a xlink:title=" ">
<path fill="none" stroke="#63b8ff" d="M172.82,-258.44C187.48,-225.79 217.04,-169.99 259.25,-138.25 263.98,-134.69 269.24,-131.63 274.72,-129"/>
<polygon fill="#63b8ff" stroke="#63b8ff" points="169.63,-257 168.86,-267.56 176.06,-259.78 169.63,-257"/>
</a>
</g>
</g>
<!-- Node2 -->
<g id="Node000002" class="node">
<title>Node2</title>
<g id="a_Node000002"><a xlink:href="class_ogre_1_1_allocated_object.html" target="_top" xlink:title="Superclass for all objects that wish to use custom memory allocators when their new / delete operator...">
<polygon fill="white" stroke="#666666" points="63.25,-293.88 0,-293.88 0,-274.62 63.25,-274.62 63.25,-293.88"/>
<text text-anchor="middle" x="31.62" y="-280.38" font-family="Helvetica,sans-Serif" font-size="10.00">BufferAlloc</text>
</a>
</g>
</g>
<!-- Node2&#45;&gt;Node1 -->
<g id="edge1_Node000001_Node000002" class="edge">
<title>Node2&#45;&gt;Node1</title>
<g id="a_edge1_Node000001_Node000002"><a xlink:title=" ">
<path fill="none" stroke="#63b8ff" d="M74.81,-284.25C82.53,-284.25 90.74,-284.25 98.89,-284.25"/>
<polygon fill="#63b8ff" stroke="#63b8ff" points="75.03,-280.75 65.03,-284.25 75.03,-287.75 75.03,-280.75"/>
</a>
</g>
</g>
<!-- Node10 -->
<g id="Node000010" class="node">
<title>Node10</title>
<g id="a_Node000010"><a xlink:href="class_ogre_1_1v1_1_1_d3_d11_hardware_buffer_manager.html" target="_top" xlink:title="D3D11HardwareBufferManagerBase as a Singleton.">
<polygon fill="white" stroke="#666666" points="613,-324.5 459.75,-324.5 459.75,-294 613,-294 613,-324.5"/>
<text text-anchor="start" x="467.75" y="-311" font-family="Helvetica,sans-Serif" font-size="10.00">Ogre::v1::D3D11HardwareBuffer</text>
<text text-anchor="middle" x="536.38" y="-299.75" font-family="Helvetica,sans-Serif" font-size="10.00">Manager</text>
</a>
</g>
</g>
<!-- Node9&#45;&gt;Node10 -->
<g id="edge9_Node000009_Node000010" class="edge">
<title>Node9&#45;&gt;Node10</title>
<g id="a_edge9_Node000009_Node000010"><a xlink:title=" ">
<path fill="none" stroke="#63b8ff" d="M411.77,-180.69C414.7,-182.66 417.46,-184.84 420,-187.25 453.32,-218.94 422.68,-252.56 456,-284.25 459.77,-287.83 464.05,-290.9 468.62,-293.54"/>
<polygon fill="#63b8ff" stroke="#63b8ff" points="413.67,-177.75 403.25,-175.84 410.2,-183.83 413.67,-177.75"/>
</a>
</g>
</g>
<!-- Node11 -->
<g id="Node000011" class="node">
<title>Node11</title>
<g id="a_Node000011"><a xlink:href="class_ogre_1_1v1_1_1_default_hardware_buffer_manager.html" target="_top" xlink:title="DefaultHardwareBufferManager as a Singleton.">
<polygon fill="white" stroke="#666666" points="601,-275.5 471.75,-275.5 471.75,-245 601,-245 601,-275.5"/>
<text text-anchor="start" x="479.75" y="-262" font-family="Helvetica,sans-Serif" font-size="10.00">Ogre::v1::DefaultHardware</text>
<text text-anchor="middle" x="536.38" y="-250.75" font-family="Helvetica,sans-Serif" font-size="10.00">BufferManager</text>
</a>
</g>
</g>
<!-- Node9&#45;&gt;Node11 -->
<g id="edge10_Node000009_Node000011" class="edge">
<title>Node9&#45;&gt;Node11</title>
<g id="a_edge10_Node000009_Node000011"><a xlink:title=" ">
<path fill="none" stroke="#63b8ff" d="M412.11,-182.28C414.85,-183.82 417.49,-185.47 420,-187.25 441.76,-202.66 434.24,-219.84 456,-235.25 461.07,-238.84 466.68,-241.93 472.5,-244.59"/>
<polygon fill="#63b8ff" stroke="#63b8ff" points="413.74,-179.18 403.23,-177.86 410.63,-185.45 413.74,-179.18"/>
</a>
</g>
</g>
<!-- Node12 -->
<g id="Node000012" class="node">
<title>Node12</title>
<g id="a_Node000012"><a xlink:href="class_ogre_1_1v1_1_1_g_l3_plus_default_hardware_buffer_manager.html" target="_top" xlink:title="GL3PlusDefaultHardwareBufferManagerBase as a Singleton.">
<polygon fill="white" stroke="#666666" points="599.12,-226.5 473.62,-226.5 473.62,-196 599.12,-196 599.12,-226.5"/>
<text text-anchor="start" x="481.62" y="-213" font-family="Helvetica,sans-Serif" font-size="10.00">Ogre::v1::GL3PlusDefault</text>
<text text-anchor="middle" x="536.38" y="-201.75" font-family="Helvetica,sans-Serif" font-size="10.00">HardwareBufferManager</text>
</a>
</g>
</g>
<!-- Node9&#45;&gt;Node12 -->
<g id="edge11_Node000009_Node000012" class="edge">
<title>Node9&#45;&gt;Node12</title>
<g id="a_edge11_Node000009_Node000012"><a xlink:title=" ">
<path fill="none" stroke="#63b8ff" d="M413.12,-180.49C432.91,-185.47 454.17,-190.82 473.33,-195.64"/>
<polygon fill="#63b8ff" stroke="#63b8ff" points="414,-177.1 403.45,-178.06 412.29,-183.89 414,-177.1"/>
</a>
</g>
</g>
<!-- Node13 -->
<g id="Node000013" class="node">
<title>Node13</title>
<g id="a_Node000013"><a xlink:href="class_ogre_1_1v1_1_1_g_l3_plus_hardware_buffer_manager.html" target="_top" xlink:title="GL3PlusHardwareBufferManagerBase as a Singleton.">
<polygon fill="white" stroke="#666666" points="604.75,-177.5 468,-177.5 468,-147 604.75,-147 604.75,-177.5"/>
<text text-anchor="start" x="476" y="-164" font-family="Helvetica,sans-Serif" font-size="10.00">Ogre::v1::GL3PlusHardware</text>
<text text-anchor="middle" x="536.38" y="-152.75" font-family="Helvetica,sans-Serif" font-size="10.00">BufferManager</text>
</a>
</g>
</g>
<!-- Node9&#45;&gt;Node13 -->
<g id="edge12_Node000009_Node000013" class="edge">
<title>Node9&#45;&gt;Node13</title>
<g id="a_edge12_Node000009_Node000013"><a xlink:title=" ">
<path fill="none" stroke="#63b8ff" d="M413.44,-162.25C431.17,-162.25 450.07,-162.25 467.57,-162.25"/>
<polygon fill="#63b8ff" stroke="#63b8ff" points="413.49,-158.75 403.49,-162.25 413.49,-165.75 413.49,-158.75"/>
</a>
</g>
</g>
<!-- Node14 -->
<g id="Node000014" class="node">
<title>Node14</title>
<g id="a_Node000014"><a xlink:href="class_ogre_1_1v1_1_1_g_l_e_s2_default_hardware_buffer_manager.html" target="_top" xlink:title="GLES2DefaultHardwareBufferManagerBase as a Singleton.">
<polygon fill="white" stroke="#666666" points="616.75,-128.5 456,-128.5 456,-98 616.75,-98 616.75,-128.5"/>
<text text-anchor="start" x="464" y="-115" font-family="Helvetica,sans-Serif" font-size="10.00">Ogre::v1::GLES2DefaultHardware</text>
<text text-anchor="middle" x="536.38" y="-103.75" font-family="Helvetica,sans-Serif" font-size="10.00">BufferManager</text>
</a>
</g>
</g>
<!-- Node9&#45;&gt;Node14 -->
<g id="edge13_Node000009_Node000014" class="edge">
<title>Node9&#45;&gt;Node14</title>
<g id="a_edge13_Node000009_Node000014"><a xlink:title=" ">
<path fill="none" stroke="#63b8ff" d="M413.06,-144.02C432.75,-139.07 453.91,-133.75 472.99,-128.95"/>
<polygon fill="#63b8ff" stroke="#63b8ff" points="412.29,-140.61 403.45,-146.44 414,-147.4 412.29,-140.61"/>
</a>
</g>
</g>
<!-- Node15 -->
<g id="Node000015" class="node">
<title>Node15</title>
<g id="a_Node000015"><a xlink:href="class_ogre_1_1v1_1_1_g_l_e_s2_hardware_buffer_manager.html" target="_top" xlink:title="GLES2HardwareBufferManagerBase as a Singleton.">
<polygon fill="white" stroke="#666666" points="614.12,-79.5 458.62,-79.5 458.62,-49 614.12,-49 614.12,-79.5"/>
<text text-anchor="start" x="466.62" y="-66" font-family="Helvetica,sans-Serif" font-size="10.00">Ogre::v1::GLES2HardwareBuffer</text>
<text text-anchor="middle" x="536.38" y="-54.75" font-family="Helvetica,sans-Serif" font-size="10.00">Manager</text>
</a>
</g>
</g>
<!-- Node9&#45;&gt;Node15 -->
<g id="edge14_Node000009_Node000015" class="edge">
<title>Node9&#45;&gt;Node15</title>
<g id="a_edge14_Node000009_Node000015"><a xlink:title=" ">
<path fill="none" stroke="#63b8ff" d="M412.11,-142.22C414.85,-140.68 417.49,-139.03 420,-137.25 441.76,-121.84 434.24,-104.66 456,-89.25 461.07,-85.66 466.68,-82.57 472.5,-79.91"/>
<polygon fill="#63b8ff" stroke="#63b8ff" points="410.63,-139.05 403.23,-146.64 413.74,-145.32 410.63,-139.05"/>
</a>
</g>
</g>
<!-- Node16 -->
<g id="Node000016" class="node">
<title>Node16</title>
<g id="a_Node000016"><a xlink:href="class_ogre_1_1v1_1_1_metal_hardware_buffer_manager.html" target="_top" xlink:title="MetalHardwareBufferManagerBase as a Singleton.">
<polygon fill="white" stroke="#666666" points="610.38,-30.5 462.38,-30.5 462.38,0 610.38,0 610.38,-30.5"/>
<text text-anchor="start" x="470.38" y="-17" font-family="Helvetica,sans-Serif" font-size="10.00">Ogre::v1::MetalHardwareBuffer</text>
<text text-anchor="middle" x="536.38" y="-5.75" font-family="Helvetica,sans-Serif" font-size="10.00">Manager</text>
</a>
</g>
</g>
<!-- Node9&#45;&gt;Node16 -->
<g id="edge15_Node000009_Node000016" class="edge">
<title>Node9&#45;&gt;Node16</title>
<g id="a_edge15_Node000009_Node000016"><a xlink:title=" ">
<path fill="none" stroke="#63b8ff" d="M411.77,-143.81C414.7,-141.84 417.46,-139.66 420,-137.25 453.32,-105.56 422.68,-71.94 456,-40.25 459.77,-36.67 464.05,-33.6 468.62,-30.96"/>
<polygon fill="#63b8ff" stroke="#63b8ff" points="410.2,-140.67 403.25,-148.66 413.67,-146.75 410.2,-140.67"/>
</a>
</g>
</g>
</g>
</svg>
