<?xml version="1.0" encoding="UTF-8" standalone="no"?>
<!DOCTYPE svg PUBLIC "-//W3C//DTD SVG 1.1//EN"
 "http://www.w3.org/Graphics/SVG/1.1/DTD/svg11.dtd">
<!-- Generated by graphviz version 2.44.0 ()
 -->
<!-- Title: Ogre::HighLevelGpuProgram Pages: 1 -->
<svg width="713pt" height="230pt"
 viewBox="0.00 0.00 713.00 229.50" xmlns="http://www.w3.org/2000/svg" xmlns:xlink="http://www.w3.org/1999/xlink">
<g id="graph0" class="graph" transform="scale(1 1) rotate(0) translate(4 225.5)">
<title>Ogre::HighLevelGpuProgram</title>
<!-- Node1 -->
<g id="node1" class="node">
<title>Node1</title>
<g id="a_node1"><a xlink:title="Abstract base class representing a high&#45;level program (a vertex or fragment program).">
<polygon fill="#bfbfbf" stroke="black" points="394,-107 394,-126 535,-126 535,-107 394,-107"/>
<text text-anchor="middle" x="464.5" y="-114" font-family="Helvetica,sans-Serif" font-size="10.00">Ogre::HighLevelGpuProgram</text>
</a>
</g>
</g>
<!-- Node6 -->
<g id="node6" class="node">
<title>Node6</title>
<g id="a_node6"><a xlink:href="class_ogre_1_1_cg_program.html" target="_top" xlink:title="Specialisation of HighLevelGpuProgram to provide support for nVidia&#39;s CG language.">
<polygon fill="none" stroke="black" points="592.5,-202 592.5,-221 683.5,-221 683.5,-202 592.5,-202"/>
<text text-anchor="middle" x="638" y="-209" font-family="Helvetica,sans-Serif" font-size="10.00">Ogre::CgProgram</text>
</a>
</g>
</g>
<!-- Node1&#45;&gt;Node6 -->
<g id="edge5" class="edge">
<title>Node1&#45;&gt;Node6</title>
<path fill="none" stroke="midnightblue" d="M483.82,-132.74C503.92,-149.8 537.78,-176.36 571,-192.5 578.72,-196.25 587.32,-199.4 595.69,-201.98"/>
<polygon fill="midnightblue" stroke="midnightblue" points="485.94,-129.95 476.09,-126.07 481.37,-135.25 485.94,-129.95"/>
</g>
<!-- Node7 -->
<g id="node7" class="node">
<title>Node7</title>
<g id="a_node7"><a xlink:href="class_ogre_1_1_d3_d11_h_l_s_l_program.html" target="_top" xlink:title="Specialization of HighLevelGpuProgram to provide support for D3D11 High&#45;Level Shader Language (HLSL).">
<polygon fill="none" stroke="black" points="571,-164 571,-183 705,-183 705,-164 571,-164"/>
<text text-anchor="middle" x="638" y="-171" font-family="Helvetica,sans-Serif" font-size="10.00">Ogre::D3D11HLSLProgram</text>
</a>
</g>
</g>
<!-- Node1&#45;&gt;Node7 -->
<g id="edge6" class="edge">
<title>Node1&#45;&gt;Node7</title>
<path fill="none" stroke="midnightblue" d="M500.04,-129.58C520.54,-137.19 547.12,-146.77 571,-154.5 581.1,-157.77 592.15,-161.06 602.27,-163.96"/>
<polygon fill="midnightblue" stroke="midnightblue" points="501.09,-126.24 490.49,-126.02 498.64,-132.8 501.09,-126.24"/>
</g>
<!-- Node8 -->
<g id="node8" class="node">
<title>Node8</title>
<g id="a_node8"><a xlink:href="class_ogre_1_1_d3_d9_h_l_s_l_program.html" target="_top" xlink:title="Specialisation of HighLevelGpuProgram to provide support for D3D9 High&#45;Level Shader Language (HLSL).">
<polygon fill="none" stroke="black" points="573.5,-126 573.5,-145 702.5,-145 702.5,-126 573.5,-126"/>
<text text-anchor="middle" x="638" y="-133" font-family="Helvetica,sans-Serif" font-size="10.00">Ogre::D3D9HLSLProgram</text>
</a>
</g>
</g>
<!-- Node1&#45;&gt;Node8 -->
<g id="edge7" class="edge">
<title>Node1&#45;&gt;Node8</title>
<path fill="none" stroke="midnightblue" d="M545.39,-125.35C554.78,-126.39 564.26,-127.44 573.38,-128.45"/>
<polygon fill="midnightblue" stroke="midnightblue" points="545.58,-121.85 535.26,-124.23 544.81,-128.81 545.58,-121.85"/>
</g>
<!-- Node9 -->
<g id="node9" class="node">
<title>Node9</title>
<g id="a_node9"><a xlink:href="class_ogre_1_1_g_l_s_l_shader.html" target="_top" xlink:title="Specialisation of HighLevelGpuProgram to encapsulate shader objects obtained from compiled shaders wr...">
<polygon fill="none" stroke="black" points="588.5,-88 588.5,-107 687.5,-107 687.5,-88 588.5,-88"/>
<text text-anchor="middle" x="638" y="-95" font-family="Helvetica,sans-Serif" font-size="10.00">Ogre::GLSLShader</text>
</a>
</g>
</g>
<!-- Node1&#45;&gt;Node9 -->
<g id="edge8" class="edge">
<title>Node1&#45;&gt;Node9</title>
<path fill="none" stroke="midnightblue" d="M545.35,-107.65C560.02,-106.03 574.91,-104.38 588.31,-102.89"/>
<polygon fill="midnightblue" stroke="midnightblue" points="544.81,-104.19 535.26,-108.77 545.58,-111.15 544.81,-104.19"/>
</g>
<!-- Node10 -->
<g id="node10" class="node">
<title>Node10</title>
<g id="a_node10"><a xlink:href="class_ogre_1_1_metal_program.html" target="_top" xlink:title="Specialisation of HighLevelGpuProgram to provide support for Metal Shader Language.">
<polygon fill="none" stroke="black" points="586.5,-50 586.5,-69 689.5,-69 689.5,-50 586.5,-50"/>
<text text-anchor="middle" x="638" y="-57" font-family="Helvetica,sans-Serif" font-size="10.00">Ogre::MetalProgram</text>
</a>
</g>
</g>
<!-- Node1&#45;&gt;Node10 -->
<g id="edge9" class="edge">
<title>Node1&#45;&gt;Node10</title>
<path fill="none" stroke="midnightblue" d="M500.04,-103.42C520.54,-95.81 547.12,-86.23 571,-78.5 581.1,-75.23 592.15,-71.94 602.27,-69.04"/>
<polygon fill="midnightblue" stroke="midnightblue" points="498.64,-100.2 490.49,-106.98 501.09,-106.76 498.64,-100.2"/>
</g>
<!-- Node11 -->
<g id="node11" class="node">
<title>Node11</title>
<g id="a_node11"><a xlink:href="class_ogre_1_1_unified_high_level_gpu_program.html" target="_top" xlink:title="Specialisation of HighLevelGpuProgram which just delegates its implementation to one other high level...">
<polygon fill="none" stroke="black" points="571,-0.5 571,-30.5 705,-30.5 705,-0.5 571,-0.5"/>
<text text-anchor="start" x="579" y="-18.5" font-family="Helvetica,sans-Serif" font-size="10.00">Ogre::UnifiedHighLevelGpu</text>
<text text-anchor="middle" x="638" y="-7.5" font-family="Helvetica,sans-Serif" font-size="10.00">Program</text>
</a>
</g>
</g>
<!-- Node1&#45;&gt;Node11 -->
<g id="edge10" class="edge">
<title>Node1&#45;&gt;Node11</title>
<path fill="none" stroke="midnightblue" d="M484.75,-100.25C505.15,-83.61 538.81,-57.8 571,-40.5 577.69,-36.9 585.01,-33.58 592.27,-30.61"/>
<polygon fill="midnightblue" stroke="midnightblue" points="482.34,-97.7 476.86,-106.77 486.79,-103.1 482.34,-97.7"/>
</g>
<!-- Node2 -->
<g id="node2" class="node">
<title>Node2</title>
<g id="a_node2"><a xlink:href="class_ogre_1_1_gpu_program.html" target="_top" xlink:title="Defines a program which runs on the GPU such as a vertex or fragment program.">
<polygon fill="none" stroke="black" points="261,-107 261,-126 358,-126 358,-107 261,-107"/>
<text text-anchor="middle" x="309.5" y="-114" font-family="Helvetica,sans-Serif" font-size="10.00">Ogre::GpuProgram</text>
</a>
</g>
</g>
<!-- Node2&#45;&gt;Node1 -->
<g id="edge1" class="edge">
<title>Node2&#45;&gt;Node1</title>
<path fill="none" stroke="midnightblue" d="M368.1,-116.5C376.48,-116.5 385.19,-116.5 393.77,-116.5"/>
<polygon fill="midnightblue" stroke="midnightblue" points="368.07,-113 358.07,-116.5 368.07,-120 368.07,-113"/>
</g>
<!-- Node3 -->
<g id="node3" class="node">
<title>Node3</title>
<g id="a_node3"><a xlink:href="class_ogre_1_1_resource.html" target="_top" xlink:title="Abstract class representing a loadable resource (e.g.">
<polygon fill="none" stroke="black" points="142,-107 142,-126 225,-126 225,-107 142,-107"/>
<text text-anchor="middle" x="183.5" y="-114" font-family="Helvetica,sans-Serif" font-size="10.00">Ogre::Resource</text>
</a>
</g>
</g>
<!-- Node3&#45;&gt;Node2 -->
<g id="edge2" class="edge">
<title>Node3&#45;&gt;Node2</title>
<path fill="none" stroke="midnightblue" d="M235.26,-116.5C243.74,-116.5 252.51,-116.5 260.91,-116.5"/>
<polygon fill="midnightblue" stroke="midnightblue" points="235.1,-113 225.1,-116.5 235.1,-120 235.1,-113"/>
</g>
<!-- Node4 -->
<g id="node4" class="node">
<title>Node4</title>
<g id="a_node4"><a xlink:href="class_ogre_1_1_string_interface.html" target="_top" xlink:title="Class defining the common interface which classes can use to present a reflection&#45;style,...">
<polygon fill="none" stroke="black" points="0,-126 0,-145 106,-145 106,-126 0,-126"/>
<text text-anchor="middle" x="53" y="-133" font-family="Helvetica,sans-Serif" font-size="10.00">Ogre::StringInterface</text>
</a>
</g>
</g>
<!-- Node4&#45;&gt;Node3 -->
<g id="edge3" class="edge">
<title>Node4&#45;&gt;Node3</title>
<path fill="none" stroke="midnightblue" d="M116.33,-126.28C124.95,-125.01 133.62,-123.73 141.71,-122.53"/>
<polygon fill="midnightblue" stroke="midnightblue" points="115.65,-122.85 106.27,-127.77 116.67,-129.77 115.65,-122.85"/>
</g>
<!-- Node5 -->
<g id="node5" class="node">
<title>Node5</title>
<g id="a_node5"><a xlink:href="class_ogre_1_1_allocated_object.html" target="_top" xlink:title="Superclass for all objects that wish to use custom memory allocators when their new / delete operator...">
<polygon fill="none" stroke="black" points="13,-88 13,-107 93,-107 93,-88 13,-88"/>
<text text-anchor="middle" x="53" y="-95" font-family="Helvetica,sans-Serif" font-size="10.00">ResourceAlloc</text>
</a>
</g>
</g>
<!-- Node5&#45;&gt;Node3 -->
<g id="edge4" class="edge">
<title>Node5&#45;&gt;Node3</title>
<path fill="none" stroke="midnightblue" d="M103.23,-104.78C115.94,-106.66 129.48,-108.66 141.71,-110.47"/>
<polygon fill="midnightblue" stroke="midnightblue" points="103.66,-101.3 93.25,-103.3 102.63,-108.23 103.66,-101.3"/>
</g>
</g>
</svg>
