<?xml version="1.0" encoding="UTF-8" standalone="no"?>
<!DOCTYPE svg PUBLIC "-//W3C//DTD SVG 1.1//EN"
 "http://www.w3.org/Graphics/SVG/1.1/DTD/svg11.dtd">
<!-- Generated by graphviz version 2.44.0 ()
 -->
<!-- Title: Ogre::Plugin Pages: 1 -->
<svg width="366pt" height="446pt"
 viewBox="0.00 0.00 366.00 446.00" xmlns="http://www.w3.org/2000/svg" xmlns:xlink="http://www.w3.org/1999/xlink">
<g id="graph0" class="graph" transform="scale(1 1) rotate(0) translate(4 442)">
<title>Ogre::Plugin</title>
<!-- Node1 -->
<g id="node1" class="node">
<title>Node1</title>
<g id="a_node1"><a xlink:title="Class defining a generic OGRE plugin.">
<polygon fill="#bfbfbf" stroke="black" points="101,-209.5 101,-228.5 170,-228.5 170,-209.5 101,-209.5"/>
<text text-anchor="middle" x="135.5" y="-216.5" font-family="Helvetica,sans-Serif" font-size="10.00">Ogre::Plugin</text>
</a>
</g>
</g>
<!-- Node3 -->
<g id="node3" class="node">
<title>Node3</title>
<g id="a_node3"><a xlink:href="class_ogre_1_1_bsp_scene_manager_plugin.html" target="_top" xlink:title="Plugin instance for BSPSceneManager.">
<polygon fill="none" stroke="black" points="206,-418.5 206,-437.5 358,-437.5 358,-418.5 206,-418.5"/>
<text text-anchor="middle" x="282" y="-425.5" font-family="Helvetica,sans-Serif" font-size="10.00">Ogre::BspSceneManagerPlugin</text>
</a>
</g>
</g>
<!-- Node1&#45;&gt;Node3 -->
<g id="edge2" class="edge">
<title>Node1&#45;&gt;Node3</title>
<path fill="none" stroke="midnightblue" d="M137.86,-239.04C141.59,-277.83 155.43,-363.37 206,-409 210.29,-412.87 215.25,-415.98 220.54,-418.46"/>
<polygon fill="midnightblue" stroke="midnightblue" points="141.31,-238.28 136.99,-228.6 134.33,-238.85 141.31,-238.28"/>
</g>
<!-- Node4 -->
<g id="node4" class="node">
<title>Node4</title>
<g id="a_node4"><a xlink:href="class_ogre_1_1_cg_plugin.html" target="_top" xlink:title="Plugin instance for Cg Program Manager.">
<polygon fill="none" stroke="black" points="241.5,-380.5 241.5,-399.5 322.5,-399.5 322.5,-380.5 241.5,-380.5"/>
<text text-anchor="middle" x="282" y="-387.5" font-family="Helvetica,sans-Serif" font-size="10.00">Ogre::CgPlugin</text>
</a>
</g>
</g>
<!-- Node1&#45;&gt;Node4 -->
<g id="edge3" class="edge">
<title>Node1&#45;&gt;Node4</title>
<path fill="none" stroke="midnightblue" d="M139.85,-238.62C146.46,-271.19 164.34,-336.26 206,-371 215.9,-379.26 228.93,-383.99 241.34,-386.69"/>
<polygon fill="midnightblue" stroke="midnightblue" points="143.24,-237.74 137.96,-228.56 136.36,-239.04 143.24,-237.74"/>
</g>
<!-- Node5 -->
<g id="node5" class="node">
<title>Node5</title>
<g id="a_node5"><a xlink:href="class_ogre_1_1_d3_d11_plugin.html" target="_top" xlink:title="Plugin instance for D3D11 Manager.">
<polygon fill="none" stroke="black" points="233,-342.5 233,-361.5 331,-361.5 331,-342.5 233,-342.5"/>
<text text-anchor="middle" x="282" y="-349.5" font-family="Helvetica,sans-Serif" font-size="10.00">Ogre::D3D11Plugin</text>
</a>
</g>
</g>
<!-- Node1&#45;&gt;Node5 -->
<g id="edge4" class="edge">
<title>Node1&#45;&gt;Node5</title>
<path fill="none" stroke="midnightblue" d="M143.02,-238.4C152.66,-264.04 173.2,-308.79 206,-333 213.89,-338.82 223.38,-342.87 232.91,-345.68"/>
<polygon fill="midnightblue" stroke="midnightblue" points="146.22,-236.93 139.55,-228.69 139.62,-239.29 146.22,-236.93"/>
</g>
<!-- Node6 -->
<g id="node6" class="node">
<title>Node6</title>
<g id="a_node6"><a xlink:href="class_ogre_1_1_d3_d9_plugin.html" target="_top" xlink:title="Plugin instance for D3D9 Manager.">
<polygon fill="none" stroke="black" points="235.5,-304.5 235.5,-323.5 328.5,-323.5 328.5,-304.5 235.5,-304.5"/>
<text text-anchor="middle" x="282" y="-311.5" font-family="Helvetica,sans-Serif" font-size="10.00">Ogre::D3D9Plugin</text>
</a>
</g>
</g>
<!-- Node1&#45;&gt;Node6 -->
<g id="edge5" class="edge">
<title>Node1&#45;&gt;Node6</title>
<path fill="none" stroke="midnightblue" d="M148.45,-237.3C160.8,-254.74 181.66,-280.44 206,-295 214.88,-300.31 225.2,-304.14 235.29,-306.91"/>
<polygon fill="midnightblue" stroke="midnightblue" points="151.03,-234.87 142.5,-228.59 145.25,-238.82 151.03,-234.87"/>
</g>
<!-- Node7 -->
<g id="node7" class="node">
<title>Node7</title>
<g id="a_node7"><a xlink:href="class_ogre_1_1_g_l3_plus_plugin.html" target="_top" xlink:title="Plugin instance for GL3Plus Manager.">
<polygon fill="none" stroke="black" points="228.5,-266.5 228.5,-285.5 335.5,-285.5 335.5,-266.5 228.5,-266.5"/>
<text text-anchor="middle" x="282" y="-273.5" font-family="Helvetica,sans-Serif" font-size="10.00">Ogre::GL3PlusPlugin</text>
</a>
</g>
</g>
<!-- Node1&#45;&gt;Node7 -->
<g id="edge6" class="edge">
<title>Node1&#45;&gt;Node7</title>
<path fill="none" stroke="midnightblue" d="M160.24,-233.93C173.35,-241.67 190.14,-250.77 206,-257 215.38,-260.68 225.7,-263.84 235.6,-266.46"/>
<polygon fill="midnightblue" stroke="midnightblue" points="161.79,-230.78 151.42,-228.6 158.17,-236.77 161.79,-230.78"/>
</g>
<!-- Node8 -->
<g id="node8" class="node">
<title>Node8</title>
<g id="a_node8"><a xlink:href="class_ogre_1_1_g_l_e_s2_plugin.html" target="_top" xlink:title="Plugin instance for GL ES 2 Manager.">
<polygon fill="none" stroke="black" points="231.5,-228.5 231.5,-247.5 332.5,-247.5 332.5,-228.5 231.5,-228.5"/>
<text text-anchor="middle" x="282" y="-235.5" font-family="Helvetica,sans-Serif" font-size="10.00">Ogre::GLES2Plugin</text>
</a>
</g>
</g>
<!-- Node1&#45;&gt;Node8 -->
<g id="edge7" class="edge">
<title>Node1&#45;&gt;Node8</title>
<path fill="none" stroke="midnightblue" d="M180.27,-224.75C196.43,-226.88 214.86,-229.3 231.5,-231.49"/>
<polygon fill="midnightblue" stroke="midnightblue" points="180.39,-221.24 170.01,-223.41 179.47,-228.18 180.39,-221.24"/>
</g>
<!-- Node9 -->
<g id="node9" class="node">
<title>Node9</title>
<g id="a_node9"><a xlink:href="class_ogre_1_1_metal_plugin.html" target="_top" xlink:title="Plugin instance for Metal Manager.">
<polygon fill="none" stroke="black" points="235.5,-190.5 235.5,-209.5 328.5,-209.5 328.5,-190.5 235.5,-190.5"/>
<text text-anchor="middle" x="282" y="-197.5" font-family="Helvetica,sans-Serif" font-size="10.00">Ogre::MetalPlugin</text>
</a>
</g>
</g>
<!-- Node1&#45;&gt;Node9 -->
<g id="edge8" class="edge">
<title>Node1&#45;&gt;Node9</title>
<path fill="none" stroke="midnightblue" d="M179.96,-213.28C197.46,-210.98 217.65,-208.33 235.35,-206"/>
<polygon fill="midnightblue" stroke="midnightblue" points="179.47,-209.82 170.01,-214.59 180.39,-216.76 179.47,-209.82"/>
</g>
<!-- Node10 -->
<g id="node10" class="node">
<title>Node10</title>
<g id="a_node10"><a xlink:href="class_ogre_1_1_n_u_l_l_plugin.html" target="_top" xlink:title="Plugin instance for NULL Manager.">
<polygon fill="none" stroke="black" points="234,-152.5 234,-171.5 330,-171.5 330,-152.5 234,-152.5"/>
<text text-anchor="middle" x="282" y="-159.5" font-family="Helvetica,sans-Serif" font-size="10.00">Ogre::NULLPlugin</text>
</a>
</g>
</g>
<!-- Node1&#45;&gt;Node10 -->
<g id="edge9" class="edge">
<title>Node1&#45;&gt;Node10</title>
<path fill="none" stroke="midnightblue" d="M160.24,-204.07C173.35,-196.33 190.14,-187.23 206,-181 215.38,-177.32 225.7,-174.16 235.6,-171.54"/>
<polygon fill="midnightblue" stroke="midnightblue" points="158.17,-201.23 151.42,-209.4 161.79,-207.22 158.17,-201.23"/>
</g>
<!-- Node11 -->
<g id="node11" class="node">
<title>Node11</title>
<g id="a_node11"><a xlink:href="class_ogre_1_1_octree_plugin.html" target="_top" xlink:title="Plugin instance for Octree Manager.">
<polygon fill="none" stroke="black" points="233,-114.5 233,-133.5 331,-133.5 331,-114.5 233,-114.5"/>
<text text-anchor="middle" x="282" y="-121.5" font-family="Helvetica,sans-Serif" font-size="10.00">Ogre::OctreePlugin</text>
</a>
</g>
</g>
<!-- Node1&#45;&gt;Node11 -->
<g id="edge10" class="edge">
<title>Node1&#45;&gt;Node11</title>
<path fill="none" stroke="midnightblue" d="M148.45,-200.7C160.8,-183.26 181.66,-157.56 206,-143 214.18,-138.1 223.6,-134.46 232.93,-131.76"/>
<polygon fill="midnightblue" stroke="midnightblue" points="145.25,-199.18 142.5,-209.41 151.03,-203.13 145.25,-199.18"/>
</g>
<!-- Node12 -->
<g id="node12" class="node">
<title>Node12</title>
<g id="a_node12"><a xlink:href="class_ogre_1_1_octree_zone_plugin.html" target="_top" xlink:title="Plugin instance for OctreeZone.">
<polygon fill="none" stroke="black" points="222,-76.5 222,-95.5 342,-95.5 342,-76.5 222,-76.5"/>
<text text-anchor="middle" x="282" y="-83.5" font-family="Helvetica,sans-Serif" font-size="10.00">Ogre::OctreeZonePlugin</text>
</a>
</g>
</g>
<!-- Node1&#45;&gt;Node12 -->
<g id="edge11" class="edge">
<title>Node1&#45;&gt;Node12</title>
<path fill="none" stroke="midnightblue" d="M143.02,-199.6C152.66,-173.96 173.2,-129.21 206,-105 211.3,-101.09 217.31,-97.98 223.58,-95.51"/>
<polygon fill="midnightblue" stroke="midnightblue" points="139.62,-198.71 139.55,-209.31 146.22,-201.07 139.62,-198.71"/>
</g>
<!-- Node13 -->
<g id="node13" class="node">
<title>Node13</title>
<g id="a_node13"><a xlink:href="class_ogre_1_1_particle_f_x_plugin.html" target="_top" xlink:title="Plugin instance for ParticleFX Manager.">
<polygon fill="none" stroke="black" points="224.5,-38.5 224.5,-57.5 339.5,-57.5 339.5,-38.5 224.5,-38.5"/>
<text text-anchor="middle" x="282" y="-45.5" font-family="Helvetica,sans-Serif" font-size="10.00">Ogre::ParticleFXPlugin</text>
</a>
</g>
</g>
<!-- Node1&#45;&gt;Node13 -->
<g id="edge12" class="edge">
<title>Node1&#45;&gt;Node13</title>
<path fill="none" stroke="midnightblue" d="M139.85,-199.38C146.46,-166.81 164.34,-101.74 206,-67 211.36,-62.53 217.64,-59.09 224.25,-56.45"/>
<polygon fill="midnightblue" stroke="midnightblue" points="136.36,-198.96 137.96,-209.44 143.24,-200.26 136.36,-198.96"/>
</g>
<!-- Node14 -->
<g id="node14" class="node">
<title>Node14</title>
<g id="a_node14"><a xlink:href="class_ogre_1_1_p_c_z_plugin.html" target="_top" xlink:title="Plugin instance for PCZ Manager.">
<polygon fill="none" stroke="black" points="237.5,-0.5 237.5,-19.5 326.5,-19.5 326.5,-0.5 237.5,-0.5"/>
<text text-anchor="middle" x="282" y="-7.5" font-family="Helvetica,sans-Serif" font-size="10.00">Ogre::PCZPlugin</text>
</a>
</g>
</g>
<!-- Node1&#45;&gt;Node14 -->
<g id="edge13" class="edge">
<title>Node1&#45;&gt;Node14</title>
<path fill="none" stroke="midnightblue" d="M137.86,-198.96C141.59,-160.17 155.43,-74.63 206,-29 214.68,-21.17 226.12,-16.47 237.44,-13.67"/>
<polygon fill="midnightblue" stroke="midnightblue" points="134.33,-199.15 136.99,-209.4 141.31,-199.72 134.33,-199.15"/>
</g>
<!-- Node2 -->
<g id="node2" class="node">
<title>Node2</title>
<g id="a_node2"><a xlink:href="class_ogre_1_1_allocated_object.html" target="_top" xlink:title="Superclass for all objects that wish to use custom memory allocators when their new / delete operator...">
<polygon fill="none" stroke="black" points="0,-209.5 0,-228.5 65,-228.5 65,-209.5 0,-209.5"/>
<text text-anchor="middle" x="32.5" y="-216.5" font-family="Helvetica,sans-Serif" font-size="10.00">PluginAlloc</text>
</a>
</g>
</g>
<!-- Node2&#45;&gt;Node1 -->
<g id="edge1" class="edge">
<title>Node2&#45;&gt;Node1</title>
<path fill="none" stroke="midnightblue" d="M75.32,-219C83.82,-219 92.66,-219 100.84,-219"/>
<polygon fill="midnightblue" stroke="midnightblue" points="75.18,-215.5 65.18,-219 75.18,-222.5 75.18,-215.5"/>
</g>
</g>
</svg>
