<?xml version="1.0" encoding="UTF-8" standalone="no"?>
<!DOCTYPE svg PUBLIC "-//W3C//DTD SVG 1.1//EN"
 "http://www.w3.org/Graphics/SVG/1.1/DTD/svg11.dtd">
<!-- Generated by graphviz version 9.0.0 (20230911.1827)
 -->
<!-- Title: Ogre::D3D11StereoDriverImpl Pages: 1 -->
<svg width="332pt" height="138pt"
 viewBox="0.00 0.00 331.50 137.75" xmlns="http://www.w3.org/2000/svg" xmlns:xlink="http://www.w3.org/1999/xlink">
<g id="graph0" class="graph" transform="scale(1 1) rotate(0) translate(4 133.75)">
<title>Ogre::D3D11StereoDriverImpl</title>
<!-- Node1 -->
<g id="Node000001" class="node">
<title>Node1</title>
<g id="a_Node000001"><a xlink:title="Virtual interface of the stereo driver.">
<polygon fill="#999999" stroke="#666666" points="230,-74.5 86.5,-74.5 86.5,-55.25 230,-55.25 230,-74.5"/>
<text text-anchor="middle" x="158.25" y="-61" font-family="Helvetica,sans-Serif" font-size="10.00">Ogre::D3D11StereoDriverImpl</text>
</a>
</g>
</g>
<!-- Node3 -->
<g id="Node000003" class="node">
<title>Node3</title>
<g id="a_Node000003"><a xlink:href="class_ogre_1_1_d3_d11_stereo_driver_a_m_d.html" target="_top" xlink:title="Virtual interface of the stereo driver.">
<polygon fill="white" stroke="#666666" points="146.5,-19.25 0,-19.25 0,0 146.5,0 146.5,-19.25"/>
<text text-anchor="middle" x="73.25" y="-5.75" font-family="Helvetica,sans-Serif" font-size="10.00">Ogre::D3D11StereoDriverAMD</text>
</a>
</g>
</g>
<!-- Node1&#45;&gt;Node3 -->
<g id="edge2_Node000001_Node000003" class="edge">
<title>Node1&#45;&gt;Node3</title>
<g id="a_edge2_Node000001_Node000003"><a xlink:title=" ">
<path fill="none" stroke="#63b8ff" d="M134.19,-48.8C119.22,-39.42 100.46,-27.67 87.74,-19.7"/>
<polygon fill="#63b8ff" stroke="#63b8ff" points="132.22,-51.7 142.55,-54.04 135.93,-45.76 132.22,-51.7"/>
</a>
</g>
</g>
<!-- Node4 -->
<g id="Node000004" class="node">
<title>Node4</title>
<g id="a_Node000004"><a xlink:href="class_ogre_1_1_d3_d11_stereo_driver_n_v_i_d_i_a.html" target="_top" xlink:title="Interface of the NVIDIA stereo driver.">
<polygon fill="white" stroke="#666666" points="323.5,-19.25 165,-19.25 165,0 323.5,0 323.5,-19.25"/>
<text text-anchor="middle" x="244.25" y="-5.75" font-family="Helvetica,sans-Serif" font-size="10.00">Ogre::D3D11StereoDriverNVIDIA</text>
</a>
</g>
</g>
<!-- Node1&#45;&gt;Node4 -->
<g id="edge3_Node000001_Node000004" class="edge">
<title>Node1&#45;&gt;Node4</title>
<g id="a_edge3_Node000001_Node000004"><a xlink:title=" ">
<path fill="none" stroke="#63b8ff" d="M182.59,-48.8C197.74,-39.42 216.72,-27.67 229.59,-19.7"/>
<polygon fill="#63b8ff" stroke="#63b8ff" points="180.79,-45.8 174.13,-54.05 184.47,-51.76 180.79,-45.8"/>
</a>
</g>
</g>
<!-- Node2 -->
<g id="Node000002" class="node">
<title>Node2</title>
<g id="a_Node000002"><a xlink:href="class_ogre_1_1_allocated_object.html" target="_top" xlink:title="Superclass for all objects that wish to use custom memory allocators when their new / delete operator...">
<polygon fill="white" stroke="#666666" points="197.75,-129.75 118.75,-129.75 118.75,-110.5 197.75,-110.5 197.75,-129.75"/>
<text text-anchor="middle" x="158.25" y="-116.25" font-family="Helvetica,sans-Serif" font-size="10.00">ResourceAlloc</text>
</a>
</g>
</g>
<!-- Node2&#45;&gt;Node1 -->
<g id="edge1_Node000001_Node000002" class="edge">
<title>Node2&#45;&gt;Node1</title>
<g id="a_edge1_Node000001_Node000002"><a xlink:title=" ">
<path fill="none" stroke="#63b8ff" d="M158.25,-98.88C158.25,-90.59 158.25,-81.42 158.25,-74.86"/>
<polygon fill="#63b8ff" stroke="#63b8ff" points="154.75,-98.82 158.25,-108.82 161.75,-98.82 154.75,-98.82"/>
</a>
</g>
</g>
</g>
</svg>
