<?xml version="1.0" encoding="UTF-8" standalone="no"?>
<!DOCTYPE svg PUBLIC "-//W3C//DTD SVG 1.1//EN"
 "http://www.w3.org/Graphics/SVG/1.1/DTD/svg11.dtd">
<!-- Generated by graphviz version 2.44.0 ()
 -->
<!-- Title: Ogre::TexBufferPacked Pages: 1 -->
<svg width="596pt" height="242pt"
 viewBox="0.00 0.00 596.00 242.00" xmlns="http://www.w3.org/2000/svg" xmlns:xlink="http://www.w3.org/1999/xlink">
<g id="graph0" class="graph" transform="scale(1 1) rotate(0) translate(4 238)">
<title>Ogre::TexBufferPacked</title>
<!-- Node1 -->
<g id="node1" class="node">
<title>Node1</title>
<g id="a_node1"><a xlink:title="Represents Texture buffers (also known as tbuffers in D3D11)">
<polygon fill="#bfbfbf" stroke="black" points="274,-104.5 274,-123.5 390,-123.5 390,-104.5 274,-104.5"/>
<text text-anchor="middle" x="332" y="-111.5" font-family="Helvetica,sans-Serif" font-size="10.00">Ogre::TexBufferPacked</text>
</a>
</g>
</g>
<!-- Node5 -->
<g id="node5" class="node">
<title>Node5</title>
<g id="a_node5"><a xlink:href="class_ogre_1_1_d3_d11_tex_buffer_packed.html" target="_top" xlink:title=" ">
<polygon fill="none" stroke="black" points="434,-214.5 434,-233.5 580,-233.5 580,-214.5 434,-214.5"/>
<text text-anchor="middle" x="507" y="-221.5" font-family="Helvetica,sans-Serif" font-size="10.00">Ogre::D3D11TexBufferPacked</text>
</a>
</g>
</g>
<!-- Node1&#45;&gt;Node5 -->
<g id="edge4" class="edge">
<title>Node1&#45;&gt;Node5</title>
<path fill="none" stroke="midnightblue" d="M346.12,-131.72C362.48,-152.51 392.42,-186.49 426,-205 433,-208.86 440.77,-211.94 448.63,-214.4"/>
<polygon fill="midnightblue" stroke="midnightblue" points="348.83,-129.51 339.97,-123.7 343.28,-133.77 348.83,-129.51"/>
</g>
<!-- Node6 -->
<g id="node6" class="node">
<title>Node6</title>
<g id="a_node6"><a xlink:href="class_ogre_1_1_g_l3_plus_tex_buffer_emulated_packed.html" target="_top" xlink:title=" ">
<polygon fill="none" stroke="black" points="426,-165 426,-195 588,-195 588,-165 426,-165"/>
<text text-anchor="start" x="434" y="-183" font-family="Helvetica,sans-Serif" font-size="10.00">Ogre::GL3PlusTexBufferEmulated</text>
<text text-anchor="middle" x="507" y="-172" font-family="Helvetica,sans-Serif" font-size="10.00">Packed</text>
</a>
</g>
</g>
<!-- Node1&#45;&gt;Node6 -->
<g id="edge5" class="edge">
<title>Node1&#45;&gt;Node6</title>
<path fill="none" stroke="midnightblue" d="M362.48,-128.01C380.59,-136.37 404.39,-146.89 426,-155 435.26,-158.48 445.25,-161.87 454.92,-164.98"/>
<polygon fill="midnightblue" stroke="midnightblue" points="363.59,-124.67 353.05,-123.62 360.64,-131.02 363.59,-124.67"/>
</g>
<!-- Node7 -->
<g id="node7" class="node">
<title>Node7</title>
<g id="a_node7"><a xlink:href="class_ogre_1_1_g_l3_plus_tex_buffer_packed.html" target="_top" xlink:title=" ">
<polygon fill="none" stroke="black" points="429.5,-126.5 429.5,-145.5 584.5,-145.5 584.5,-126.5 429.5,-126.5"/>
<text text-anchor="middle" x="507" y="-133.5" font-family="Helvetica,sans-Serif" font-size="10.00">Ogre::GL3PlusTexBufferPacked</text>
</a>
</g>
</g>
<!-- Node1&#45;&gt;Node7 -->
<g id="edge6" class="edge">
<title>Node1&#45;&gt;Node7</title>
<path fill="none" stroke="midnightblue" d="M400.11,-122.53C410.25,-123.82 420.75,-125.16 431.04,-126.47"/>
<polygon fill="midnightblue" stroke="midnightblue" points="400.49,-119.05 390.13,-121.26 399.6,-126 400.49,-119.05"/>
</g>
<!-- Node8 -->
<g id="node8" class="node">
<title>Node8</title>
<g id="a_node8"><a xlink:href="class_ogre_1_1_g_l_e_s2_tex_buffer_emulated_packed.html" target="_top" xlink:title=" ">
<polygon fill="none" stroke="black" points="429.5,-77 429.5,-107 584.5,-107 584.5,-77 429.5,-77"/>
<text text-anchor="start" x="437.5" y="-95" font-family="Helvetica,sans-Serif" font-size="10.00">Ogre::GLES2TexBufferEmulated</text>
<text text-anchor="middle" x="507" y="-84" font-family="Helvetica,sans-Serif" font-size="10.00">Packed</text>
</a>
</g>
</g>
<!-- Node1&#45;&gt;Node8 -->
<g id="edge7" class="edge">
<title>Node1&#45;&gt;Node8</title>
<path fill="none" stroke="midnightblue" d="M400.34,-105.44C409.9,-104.22 419.78,-102.96 429.49,-101.73"/>
<polygon fill="midnightblue" stroke="midnightblue" points="399.6,-102 390.13,-106.74 400.49,-108.95 399.6,-102"/>
</g>
<!-- Node9 -->
<g id="node9" class="node">
<title>Node9</title>
<g id="a_node9"><a xlink:href="class_ogre_1_1_metal_tex_buffer_packed.html" target="_top" xlink:title=" ">
<polygon fill="none" stroke="black" points="437,-38.5 437,-57.5 577,-57.5 577,-38.5 437,-38.5"/>
<text text-anchor="middle" x="507" y="-45.5" font-family="Helvetica,sans-Serif" font-size="10.00">Ogre::MetalTexBufferPacked</text>
</a>
</g>
</g>
<!-- Node1&#45;&gt;Node9 -->
<g id="edge8" class="edge">
<title>Node1&#45;&gt;Node9</title>
<path fill="none" stroke="midnightblue" d="M357.8,-99.45C376.13,-89.2 401.98,-75.78 426,-67 436.06,-63.32 447.09,-60.17 457.66,-57.55"/>
<polygon fill="midnightblue" stroke="midnightblue" points="355.91,-96.5 348.94,-104.48 359.37,-102.58 355.91,-96.5"/>
</g>
<!-- Node10 -->
<g id="node10" class="node">
<title>Node10</title>
<g id="a_node10"><a xlink:href="class_ogre_1_1_n_u_l_l_tex_buffer_packed.html" target="_top" xlink:title=" ">
<polygon fill="none" stroke="black" points="435.5,-0.5 435.5,-19.5 578.5,-19.5 578.5,-0.5 435.5,-0.5"/>
<text text-anchor="middle" x="507" y="-7.5" font-family="Helvetica,sans-Serif" font-size="10.00">Ogre::NULLTexBufferPacked</text>
</a>
</g>
</g>
<!-- Node1&#45;&gt;Node10 -->
<g id="edge9" class="edge">
<title>Node1&#45;&gt;Node10</title>
<path fill="none" stroke="midnightblue" d="M347.12,-96.61C363.89,-77.15 393.67,-46.11 426,-29 433.32,-25.13 441.43,-22.03 449.59,-19.56"/>
<polygon fill="midnightblue" stroke="midnightblue" points="344.33,-94.5 340.57,-104.4 349.69,-99 344.33,-94.5"/>
</g>
<!-- Node2 -->
<g id="node2" class="node">
<title>Node2</title>
<g id="a_node2"><a xlink:href="class_ogre_1_1_buffer_packed.html" target="_top" xlink:title=" ">
<polygon fill="none" stroke="black" points="137,-104.5 137,-123.5 238,-123.5 238,-104.5 137,-104.5"/>
<text text-anchor="middle" x="187.5" y="-111.5" font-family="Helvetica,sans-Serif" font-size="10.00">Ogre::BufferPacked</text>
</a>
</g>
</g>
<!-- Node2&#45;&gt;Node1 -->
<g id="edge1" class="edge">
<title>Node2&#45;&gt;Node1</title>
<path fill="none" stroke="midnightblue" d="M248.39,-114C256.75,-114 265.32,-114 273.62,-114"/>
<polygon fill="midnightblue" stroke="midnightblue" points="248.34,-110.5 238.34,-114 248.34,-117.5 248.34,-110.5"/>
</g>
<!-- Node3 -->
<g id="node3" class="node">
<title>Node3</title>
<g id="a_node3"><a xlink:href="struct_ogre_1_1_gpu_resource.html" target="_top" xlink:title=" ">
<polygon fill="none" stroke="black" points="0,-123.5 0,-142.5 101,-142.5 101,-123.5 0,-123.5"/>
<text text-anchor="middle" x="50.5" y="-130.5" font-family="Helvetica,sans-Serif" font-size="10.00">Ogre::GpuResource</text>
</a>
</g>
</g>
<!-- Node3&#45;&gt;Node2 -->
<g id="edge2" class="edge">
<title>Node3&#45;&gt;Node2</title>
<path fill="none" stroke="midnightblue" d="M110.93,-124.64C119.48,-123.43 128.21,-122.2 136.55,-121.03"/>
<polygon fill="midnightblue" stroke="midnightblue" points="110.42,-121.17 101,-126.03 111.39,-128.11 110.42,-121.17"/>
</g>
<!-- Node4 -->
<g id="node4" class="node">
<title>Node4</title>
<g id="a_node4"><a xlink:href="class_ogre_1_1_allocated_object.html" target="_top" xlink:title="Superclass for all objects that wish to use custom memory allocators when their new / delete operator...">
<polygon fill="none" stroke="black" points="2,-85.5 2,-104.5 99,-104.5 99,-85.5 2,-85.5"/>
<text text-anchor="middle" x="50.5" y="-92.5" font-family="Helvetica,sans-Serif" font-size="10.00">BufferPackedAlloc</text>
</a>
</g>
</g>
<!-- Node4&#45;&gt;Node2 -->
<g id="edge3" class="edge">
<title>Node4&#45;&gt;Node2</title>
<path fill="none" stroke="midnightblue" d="M109.23,-103.13C118.34,-104.41 127.68,-105.72 136.59,-106.98"/>
<polygon fill="midnightblue" stroke="midnightblue" points="109.49,-99.63 99.1,-101.7 108.51,-106.56 109.49,-99.63"/>
</g>
</g>
</svg>
