<?xml version="1.0" encoding="UTF-8" standalone="no"?>
<!DOCTYPE svg PUBLIC "-//W3C//DTD SVG 1.1//EN"
 "http://www.w3.org/Graphics/SVG/1.1/DTD/svg11.dtd">
<!-- Generated by graphviz version 9.0.0 (20230911.1827)
 -->
<!-- Title: Ogre::v1::OldSkeletonManager Pages: 1 -->
<svg width="331pt" height="149pt"
 viewBox="0.00 0.00 331.25 149.00" xmlns="http://www.w3.org/2000/svg" xmlns:xlink="http://www.w3.org/1999/xlink">
<g id="graph0" class="graph" transform="scale(1 1) rotate(0) translate(4 145)">
<title>Ogre::v1::OldSkeletonManager</title>
<!-- Node1 -->
<g id="Node000001" class="node">
<title>Node1</title>
<g id="a_Node000001"><a xlink:title="Handles the management of skeleton resources.">
<polygon fill="#999999" stroke="#666666" points="250.12,-19.25 102.88,-19.25 102.88,0 250.12,0 250.12,-19.25"/>
<text text-anchor="middle" x="176.5" y="-5.75" font-family="Helvetica,sans-Serif" font-size="10.00">Ogre::v1::OldSkeletonManager</text>
</a>
</g>
</g>
<!-- Node2 -->
<g id="Node000002" class="node">
<title>Node2</title>
<g id="a_Node000002"><a xlink:href="class_ogre_1_1_resource_manager.html" target="_top" xlink:title="Defines a generic resource handler.">
<polygon fill="white" stroke="#666666" points="161.62,-80.12 41.38,-80.12 41.38,-60.88 161.62,-60.88 161.62,-80.12"/>
<text text-anchor="middle" x="101.5" y="-66.62" font-family="Helvetica,sans-Serif" font-size="10.00">Ogre::ResourceManager</text>
</a>
</g>
</g>
<!-- Node2&#45;&gt;Node1 -->
<g id="edge1_Node000001_Node000002" class="edge">
<title>Node2&#45;&gt;Node1</title>
<g id="a_edge1_Node000001_Node000002"><a xlink:title=" ">
<path fill="none" stroke="#63b8ff" d="M121.72,-53.63C135.6,-42.73 153.51,-28.67 165,-19.65"/>
<polygon fill="#63b8ff" stroke="#63b8ff" points="119.79,-50.7 114.08,-59.62 124.11,-56.2 119.79,-50.7"/>
</a>
</g>
</g>
<!-- Node3 -->
<g id="Node000003" class="node">
<title>Node3</title>
<g id="a_Node000003"><a xlink:href="class_ogre_1_1_script_loader.html" target="_top" xlink:title="Abstract class defining the interface used by classes which wish to perform script loading to define ...">
<polygon fill="white" stroke="#666666" points="97,-141 0,-141 0,-121.75 97,-121.75 97,-141"/>
<text text-anchor="middle" x="48.5" y="-127.5" font-family="Helvetica,sans-Serif" font-size="10.00">Ogre::ScriptLoader</text>
</a>
</g>
</g>
<!-- Node3&#45;&gt;Node2 -->
<g id="edge2_Node000002_Node000003" class="edge">
<title>Node3&#45;&gt;Node2</title>
<g id="a_edge2_Node000002_Node000003"><a xlink:title=" ">
<path fill="none" stroke="#63b8ff" d="M64.22,-112.91C73.8,-102.27 85.64,-89.11 93.37,-80.53"/>
<polygon fill="#63b8ff" stroke="#63b8ff" points="61.65,-110.53 57.56,-120.31 66.85,-115.22 61.65,-110.53"/>
</a>
</g>
</g>
<!-- Node4 -->
<g id="Node000004" class="node">
<title>Node4</title>
<g id="a_Node000004"><a xlink:href="class_ogre_1_1_allocated_object.html" target="_top" xlink:title="Superclass for all objects that wish to use custom memory allocators when their new / delete operator...">
<polygon fill="white" stroke="#666666" points="194,-141 115,-141 115,-121.75 194,-121.75 194,-141"/>
<text text-anchor="middle" x="154.5" y="-127.5" font-family="Helvetica,sans-Serif" font-size="10.00">ResourceAlloc</text>
</a>
</g>
</g>
<!-- Node4&#45;&gt;Node2 -->
<g id="edge3_Node000002_Node000004" class="edge">
<title>Node4&#45;&gt;Node2</title>
<g id="a_edge3_Node000002_Node000004"><a xlink:title=" ">
<path fill="none" stroke="#63b8ff" d="M138.78,-112.91C129.2,-102.27 117.36,-89.11 109.63,-80.53"/>
<polygon fill="#63b8ff" stroke="#63b8ff" points="136.15,-115.22 145.44,-120.31 141.35,-110.53 136.15,-115.22"/>
</a>
</g>
</g>
<!-- Node5 -->
<g id="Node000005" class="node">
<title>Node5</title>
<g id="a_Node000005"><a xlink:href="class_ogre_1_1_singleton.html" target="_top" xlink:title=" ">
<polygon fill="white" stroke="#666666" points="323.25,-85.75 179.75,-85.75 179.75,-55.25 323.25,-55.25 323.25,-85.75"/>
<text text-anchor="start" x="187.75" y="-72.25" font-family="Helvetica,sans-Serif" font-size="10.00">Ogre::Singleton&lt; OldSkeleton</text>
<text text-anchor="middle" x="251.5" y="-61" font-family="Helvetica,sans-Serif" font-size="10.00">Manager &gt;</text>
</a>
</g>
</g>
<!-- Node5&#45;&gt;Node1 -->
<g id="edge4_Node000001_Node000005" class="edge">
<title>Node5&#45;&gt;Node1</title>
<g id="a_edge4_Node000001_Node000005"><a xlink:title=" ">
<path fill="none" stroke="#63b8ff" d="M224.26,-48.12C211.8,-38.33 197.69,-27.26 188.06,-19.7"/>
<polygon fill="#63b8ff" stroke="#63b8ff" points="221.74,-50.59 231.77,-54.01 226.07,-45.08 221.74,-50.59"/>
</a>
</g>
</g>
</g>
</svg>
