<?xml version="1.0" encoding="UTF-8" standalone="no"?>
<!DOCTYPE svg PUBLIC "-//W3C//DTD SVG 1.1//EN"
 "http://www.w3.org/Graphics/SVG/1.1/DTD/svg11.dtd">
<!-- Generated by graphviz version 9.0.0 (20230911.1827)
 -->
<!-- Title: Ogre::v1::GL3PlusDefaultHardwareBufferManagerBase Pages: 1 -->
<svg width="152pt" height="160pt"
 viewBox="0.00 0.00 151.50 160.25" xmlns="http://www.w3.org/2000/svg" xmlns:xlink="http://www.w3.org/1999/xlink">
<g id="graph0" class="graph" transform="scale(1 1) rotate(0) translate(4 156.25)">
<title>Ogre::v1::GL3PlusDefaultHardwareBufferManagerBase</title>
<!-- Node1 -->
<g id="Node000001" class="node">
<title>Node1</title>
<g id="a_Node000001"><a xlink:title="Specialisation of HardwareBufferManager to emulate hardware buffers.">
<polygon fill="#999999" stroke="#666666" points="143.5,-30.5 0,-30.5 0,0 143.5,0 143.5,-30.5"/>
<text text-anchor="start" x="8" y="-17" font-family="Helvetica,sans-Serif" font-size="10.00">Ogre::v1::GL3PlusDefault</text>
<text text-anchor="middle" x="71.75" y="-5.75" font-family="Helvetica,sans-Serif" font-size="10.00">HardwareBufferManagerBase</text>
</a>
</g>
</g>
<!-- Node2 -->
<g id="Node000002" class="node">
<title>Node2</title>
<g id="a_Node000002"><a xlink:href="class_ogre_1_1v1_1_1_hardware_buffer_manager_base.html" target="_top" xlink:title="Base definition of a hardware buffer manager.">
<polygon fill="white" stroke="#666666" points="133.75,-97 9.75,-97 9.75,-66.5 133.75,-66.5 133.75,-97"/>
<text text-anchor="start" x="17.75" y="-83.5" font-family="Helvetica,sans-Serif" font-size="10.00">Ogre::v1::HardwareBuffer</text>
<text text-anchor="middle" x="71.75" y="-72.25" font-family="Helvetica,sans-Serif" font-size="10.00">ManagerBase</text>
</a>
</g>
</g>
<!-- Node2&#45;&gt;Node1 -->
<g id="edge1_Node000001_Node000002" class="edge">
<title>Node2&#45;&gt;Node1</title>
<g id="a_edge1_Node000001_Node000002"><a xlink:title=" ">
<path fill="none" stroke="#63b8ff" d="M71.75,-54.81C71.75,-46.64 71.75,-37.91 71.75,-30.83"/>
<polygon fill="#63b8ff" stroke="#63b8ff" points="68.25,-54.6 71.75,-64.6 75.25,-54.6 68.25,-54.6"/>
</a>
</g>
</g>
<!-- Node3 -->
<g id="Node000003" class="node">
<title>Node3</title>
<g id="a_Node000003"><a xlink:href="class_ogre_1_1_allocated_object.html" target="_top" xlink:title="Superclass for all objects that wish to use custom memory allocators when their new / delete operator...">
<polygon fill="white" stroke="#666666" points="103.38,-152.25 40.12,-152.25 40.12,-133 103.38,-133 103.38,-152.25"/>
<text text-anchor="middle" x="71.75" y="-138.75" font-family="Helvetica,sans-Serif" font-size="10.00">BufferAlloc</text>
</a>
</g>
</g>
<!-- Node3&#45;&gt;Node2 -->
<g id="edge2_Node000002_Node000003" class="edge">
<title>Node3&#45;&gt;Node2</title>
<g id="a_edge2_Node000002_Node000003"><a xlink:title=" ">
<path fill="none" stroke="#63b8ff" d="M71.75,-121.42C71.75,-113.49 71.75,-104.56 71.75,-97.28"/>
<polygon fill="#63b8ff" stroke="#63b8ff" points="68.25,-121.17 71.75,-131.17 75.25,-121.17 68.25,-121.17"/>
</a>
</g>
</g>
</g>
</svg>
