<?xml version="1.0" encoding="UTF-8" standalone="no"?>
<!DOCTYPE svg PUBLIC "-//W3C//DTD SVG 1.1//EN"
 "http://www.w3.org/Graphics/SVG/1.1/DTD/svg11.dtd">
<!-- Generated by graphviz version 9.0.0 (20230911.1827)
 -->
<!-- Title: Ogre::D3D11GpuProgramManager Pages: 1 -->
<svg width="333pt" height="204pt"
 viewBox="0.00 0.00 333.00 204.25" xmlns="http://www.w3.org/2000/svg" xmlns:xlink="http://www.w3.org/1999/xlink">
<g id="graph0" class="graph" transform="scale(1 1) rotate(0) translate(4 200.25)">
<title>Ogre::D3D11GpuProgramManager</title>
<!-- Node1 -->
<g id="Node000001" class="node">
<title>Node1</title>
<g id="a_Node000001"><a xlink:title=" ">
<polygon fill="#999999" stroke="#666666" points="258,-19.25 95,-19.25 95,0 258,0 258,-19.25"/>
<text text-anchor="middle" x="176.5" y="-5.75" font-family="Helvetica,sans-Serif" font-size="10.00">Ogre::D3D11GpuProgramManager</text>
</a>
</g>
</g>
<!-- Node2 -->
<g id="Node000002" class="node">
<title>Node2</title>
<g id="a_Node000002"><a xlink:href="class_ogre_1_1_gpu_program_manager.html" target="_top" xlink:title=" ">
<polygon fill="white" stroke="#666666" points="243.38,-74.5 109.62,-74.5 109.62,-55.25 243.38,-55.25 243.38,-74.5"/>
<text text-anchor="middle" x="176.5" y="-61" font-family="Helvetica,sans-Serif" font-size="10.00">Ogre::GpuProgramManager</text>
</a>
</g>
</g>
<!-- Node2&#45;&gt;Node1 -->
<g id="edge1_Node000001_Node000002" class="edge">
<title>Node2&#45;&gt;Node1</title>
<g id="a_edge1_Node000001_Node000002"><a xlink:title=" ">
<path fill="none" stroke="#63b8ff" d="M176.5,-43.63C176.5,-35.34 176.5,-26.17 176.5,-19.61"/>
<polygon fill="#63b8ff" stroke="#63b8ff" points="173,-43.57 176.5,-53.57 180,-43.57 173,-43.57"/>
</a>
</g>
</g>
<!-- Node3 -->
<g id="Node000003" class="node">
<title>Node3</title>
<g id="a_Node000003"><a xlink:href="class_ogre_1_1_resource_manager.html" target="_top" xlink:title="Defines a generic resource handler.">
<polygon fill="white" stroke="#666666" points="161.62,-135.38 41.38,-135.38 41.38,-116.12 161.62,-116.12 161.62,-135.38"/>
<text text-anchor="middle" x="101.5" y="-121.88" font-family="Helvetica,sans-Serif" font-size="10.00">Ogre::ResourceManager</text>
</a>
</g>
</g>
<!-- Node3&#45;&gt;Node2 -->
<g id="edge2_Node000002_Node000003" class="edge">
<title>Node3&#45;&gt;Node2</title>
<g id="a_edge2_Node000002_Node000003"><a xlink:title=" ">
<path fill="none" stroke="#63b8ff" d="M121.72,-108.88C135.6,-97.98 153.51,-83.92 165,-74.9"/>
<polygon fill="#63b8ff" stroke="#63b8ff" points="119.79,-105.95 114.08,-114.87 124.11,-111.45 119.79,-105.95"/>
</a>
</g>
</g>
<!-- Node4 -->
<g id="Node000004" class="node">
<title>Node4</title>
<g id="a_Node000004"><a xlink:href="class_ogre_1_1_script_loader.html" target="_top" xlink:title="Abstract class defining the interface used by classes which wish to perform script loading to define ...">
<polygon fill="white" stroke="#666666" points="97,-196.25 0,-196.25 0,-177 97,-177 97,-196.25"/>
<text text-anchor="middle" x="48.5" y="-182.75" font-family="Helvetica,sans-Serif" font-size="10.00">Ogre::ScriptLoader</text>
</a>
</g>
</g>
<!-- Node4&#45;&gt;Node3 -->
<g id="edge3_Node000003_Node000004" class="edge">
<title>Node4&#45;&gt;Node3</title>
<g id="a_edge3_Node000003_Node000004"><a xlink:title=" ">
<path fill="none" stroke="#63b8ff" d="M64.22,-168.16C73.8,-157.52 85.64,-144.36 93.37,-135.78"/>
<polygon fill="#63b8ff" stroke="#63b8ff" points="61.65,-165.78 57.56,-175.56 66.85,-170.47 61.65,-165.78"/>
</a>
</g>
</g>
<!-- Node5 -->
<g id="Node000005" class="node">
<title>Node5</title>
<g id="a_Node000005"><a xlink:href="class_ogre_1_1_allocated_object.html" target="_top" xlink:title="Superclass for all objects that wish to use custom memory allocators when their new / delete operator...">
<polygon fill="white" stroke="#666666" points="194,-196.25 115,-196.25 115,-177 194,-177 194,-196.25"/>
<text text-anchor="middle" x="154.5" y="-182.75" font-family="Helvetica,sans-Serif" font-size="10.00">ResourceAlloc</text>
</a>
</g>
</g>
<!-- Node5&#45;&gt;Node3 -->
<g id="edge4_Node000003_Node000005" class="edge">
<title>Node5&#45;&gt;Node3</title>
<g id="a_edge4_Node000003_Node000005"><a xlink:title=" ">
<path fill="none" stroke="#63b8ff" d="M138.78,-168.16C129.2,-157.52 117.36,-144.36 109.63,-135.78"/>
<polygon fill="#63b8ff" stroke="#63b8ff" points="136.15,-170.47 145.44,-175.56 141.35,-165.78 136.15,-170.47"/>
</a>
</g>
</g>
<!-- Node6 -->
<g id="Node000006" class="node">
<title>Node6</title>
<g id="a_Node000006"><a xlink:href="class_ogre_1_1_singleton.html" target="_top" xlink:title=" ">
<polygon fill="white" stroke="#666666" points="325,-141 180,-141 180,-110.5 325,-110.5 325,-141"/>
<text text-anchor="start" x="188" y="-127.5" font-family="Helvetica,sans-Serif" font-size="10.00">Ogre::Singleton&lt; GpuProgram</text>
<text text-anchor="middle" x="252.5" y="-116.25" font-family="Helvetica,sans-Serif" font-size="10.00">Manager &gt;</text>
</a>
</g>
</g>
<!-- Node6&#45;&gt;Node2 -->
<g id="edge5_Node000002_Node000006" class="edge">
<title>Node6&#45;&gt;Node2</title>
<g id="a_edge5_Node000002_Node000006"><a xlink:title=" ">
<path fill="none" stroke="#63b8ff" d="M224.9,-103.37C212.27,-93.58 197.97,-82.51 188.22,-74.95"/>
<polygon fill="#63b8ff" stroke="#63b8ff" points="222.47,-105.91 232.52,-109.27 226.75,-100.38 222.47,-105.91"/>
</a>
</g>
</g>
</g>
</svg>
