<?xml version="1.0" encoding="UTF-8" standalone="no"?>
<!DOCTYPE svg PUBLIC "-//W3C//DTD SVG 1.1//EN"
 "http://www.w3.org/Graphics/SVG/1.1/DTD/svg11.dtd">
<!-- Generated by graphviz version 9.0.0 (20230911.1827)
 -->
<!-- Title: Ogre::DefaultWorkQueue Pages: 1 -->
<svg width="154pt" height="193pt"
 viewBox="0.00 0.00 153.75 193.00" xmlns="http://www.w3.org/2000/svg" xmlns:xlink="http://www.w3.org/1999/xlink">
<g id="graph0" class="graph" transform="scale(1 1) rotate(0) translate(4 189)">
<title>Ogre::DefaultWorkQueue</title>
<!-- Node1 -->
<g id="Node000001" class="node">
<title>Node1</title>
<g id="a_Node000001"><a xlink:title="Implementation of a general purpose request / response style background work queue.">
<polygon fill="#999999" stroke="#666666" points="134.5,-19.25 11.25,-19.25 11.25,0 134.5,0 134.5,-19.25"/>
<text text-anchor="middle" x="72.88" y="-5.75" font-family="Helvetica,sans-Serif" font-size="10.00">Ogre::DefaultWorkQueue</text>
</a>
</g>
</g>
<!-- Node2 -->
<g id="Node000002" class="node">
<title>Node2</title>
<g id="a_Node000002"><a xlink:href="class_ogre_1_1_default_work_queue_base.html" target="_top" xlink:title="Base for a general purpose request / response style background work queue.">
<polygon fill="white" stroke="#666666" points="145.75,-74.5 0,-74.5 0,-55.25 145.75,-55.25 145.75,-74.5"/>
<text text-anchor="middle" x="72.88" y="-61" font-family="Helvetica,sans-Serif" font-size="10.00">Ogre::DefaultWorkQueueBase</text>
</a>
</g>
</g>
<!-- Node2&#45;&gt;Node1 -->
<g id="edge1_Node000001_Node000002" class="edge">
<title>Node2&#45;&gt;Node1</title>
<g id="a_edge1_Node000001_Node000002"><a xlink:title=" ">
<path fill="none" stroke="#63b8ff" d="M66.32,-43.92C65.83,-35.55 66.28,-26.25 67.67,-19.61"/>
<polygon fill="#63b8ff" stroke="#63b8ff" points="62.81,-44.09 67.52,-53.58 69.76,-43.22 62.81,-44.09"/>
</a>
</g>
</g>
<!-- Node2&#45;&gt;Node1 -->
<g id="edge4_Node000001_Node000002" class="edge">
<title>Node2&#45;&gt;Node1</title>
<g id="a_edge4_Node000001_Node000002"><a xlink:title=" ">
<path fill="none" stroke="#63b8ff" d="M79.43,-43.92C79.92,-35.55 79.47,-26.25 78.08,-19.61"/>
<polygon fill="#63b8ff" stroke="#63b8ff" points="75.99,-43.22 78.23,-53.58 82.94,-44.09 75.99,-43.22"/>
</a>
</g>
</g>
<!-- Node3 -->
<g id="Node000003" class="node">
<title>Node3</title>
<g id="a_Node000003"><a xlink:href="class_ogre_1_1_work_queue.html" target="_top" xlink:title="Interface to a general purpose request / response style background work queue.">
<polygon fill="white" stroke="#666666" points="119.12,-129.75 26.62,-129.75 26.62,-110.5 119.12,-110.5 119.12,-129.75"/>
<text text-anchor="middle" x="72.88" y="-116.25" font-family="Helvetica,sans-Serif" font-size="10.00">Ogre::WorkQueue</text>
</a>
</g>
</g>
<!-- Node3&#45;&gt;Node2 -->
<g id="edge2_Node000002_Node000003" class="edge">
<title>Node3&#45;&gt;Node2</title>
<g id="a_edge2_Node000002_Node000003"><a xlink:title=" ">
<path fill="none" stroke="#63b8ff" d="M72.88,-98.88C72.88,-90.59 72.88,-81.42 72.88,-74.86"/>
<polygon fill="#63b8ff" stroke="#63b8ff" points="69.38,-98.82 72.88,-108.82 76.38,-98.82 69.38,-98.82"/>
</a>
</g>
</g>
<!-- Node4 -->
<g id="Node000004" class="node">
<title>Node4</title>
<g id="a_Node000004"><a xlink:href="class_ogre_1_1_allocated_object.html" target="_top" xlink:title="Superclass for all objects that wish to use custom memory allocators when their new / delete operator...">
<polygon fill="white" stroke="#666666" points="104.12,-185 41.62,-185 41.62,-165.75 104.12,-165.75 104.12,-185"/>
<text text-anchor="middle" x="72.88" y="-171.5" font-family="Helvetica,sans-Serif" font-size="10.00">UtilityAlloc</text>
</a>
</g>
</g>
<!-- Node4&#45;&gt;Node3 -->
<g id="edge3_Node000003_Node000004" class="edge">
<title>Node4&#45;&gt;Node3</title>
<g id="a_edge3_Node000003_Node000004"><a xlink:title=" ">
<path fill="none" stroke="#63b8ff" d="M72.88,-154.13C72.88,-145.84 72.88,-136.67 72.88,-130.11"/>
<polygon fill="#63b8ff" stroke="#63b8ff" points="69.38,-154.07 72.88,-164.07 76.38,-154.07 69.38,-154.07"/>
</a>
</g>
</g>
</g>
</svg>
