<?xml version="1.0" encoding="UTF-8" standalone="no"?>
<!DOCTYPE svg PUBLIC "-//W3C//DTD SVG 1.1//EN"
 "http://www.w3.org/Graphics/SVG/1.1/DTD/svg11.dtd">
<!-- Generated by graphviz version 9.0.0 (20230911.1827)
 -->
<!-- Title: Ogre::GL3PlusTexture Pages: 1 -->
<svg width="292pt" height="248pt"
 viewBox="0.00 0.00 292.38 248.25" xmlns="http://www.w3.org/2000/svg" xmlns:xlink="http://www.w3.org/1999/xlink">
<g id="graph0" class="graph" transform="scale(1 1) rotate(0) translate(4 244.25)">
<title>Ogre::GL3PlusTexture</title>
<!-- Node1 -->
<g id="Node000001" class="node">
<title>Node1</title>
<g id="a_Node000001"><a xlink:title=" ">
<polygon fill="#999999" stroke="#666666" points="199.75,-74.5 87.75,-74.5 87.75,-55.25 199.75,-55.25 199.75,-74.5"/>
<text text-anchor="middle" x="143.75" y="-61" font-family="Helvetica,sans-Serif" font-size="10.00">Ogre::GL3PlusTexture</text>
</a>
</g>
</g>
<!-- Node6 -->
<g id="Node000006" class="node">
<title>Node6</title>
<g id="a_Node000006"><a xlink:href="class_ogre_1_1_g_l3_plus_depth_texture.html" target="_top" xlink:title=" ">
<polygon fill="white" stroke="#666666" points="137.5,-19.25 0,-19.25 0,0 137.5,0 137.5,-19.25"/>
<text text-anchor="middle" x="68.75" y="-5.75" font-family="Helvetica,sans-Serif" font-size="10.00">Ogre::GL3PlusDepthTexture</text>
</a>
</g>
</g>
<!-- Node1&#45;&gt;Node6 -->
<g id="edge5_Node000001_Node000006" class="edge">
<title>Node1&#45;&gt;Node6</title>
<g id="a_edge5_Node000001_Node000006"><a xlink:title=" ">
<path fill="none" stroke="#63b8ff" d="M121.76,-48.26C108.68,-38.97 92.54,-27.52 81.54,-19.7"/>
<polygon fill="#63b8ff" stroke="#63b8ff" points="119.61,-51.03 129.79,-53.97 123.67,-45.32 119.61,-51.03"/>
</a>
</g>
</g>
<!-- Node7 -->
<g id="Node000007" class="node">
<title>Node7</title>
<g id="a_Node000007"><a xlink:href="class_ogre_1_1_g_l3_plus_null_texture.html" target="_top" xlink:title=" ">
<polygon fill="white" stroke="#666666" points="284.38,-19.25 155.12,-19.25 155.12,0 284.38,0 284.38,-19.25"/>
<text text-anchor="middle" x="219.75" y="-5.75" font-family="Helvetica,sans-Serif" font-size="10.00">Ogre::GL3PlusNullTexture</text>
</a>
</g>
</g>
<!-- Node1&#45;&gt;Node7 -->
<g id="edge6_Node000001_Node000007" class="edge">
<title>Node1&#45;&gt;Node7</title>
<g id="a_edge6_Node000001_Node000007"><a xlink:title=" ">
<path fill="none" stroke="#63b8ff" d="M166.04,-48.26C179.29,-38.97 195.64,-27.52 206.79,-19.7"/>
<polygon fill="#63b8ff" stroke="#63b8ff" points="164.06,-45.37 157.88,-53.97 168.08,-51.1 164.06,-45.37"/>
</a>
</g>
</g>
<!-- Node2 -->
<g id="Node000002" class="node">
<title>Node2</title>
<g id="a_Node000002"><a xlink:href="class_ogre_1_1_texture.html" target="_top" xlink:title="Abstract class representing a Texture resource.">
<polygon fill="white" stroke="#666666" points="180.62,-129.75 106.88,-129.75 106.88,-110.5 180.62,-110.5 180.62,-129.75"/>
<text text-anchor="middle" x="143.75" y="-116.25" font-family="Helvetica,sans-Serif" font-size="10.00">Ogre::Texture</text>
</a>
</g>
</g>
<!-- Node2&#45;&gt;Node1 -->
<g id="edge1_Node000001_Node000002" class="edge">
<title>Node2&#45;&gt;Node1</title>
<g id="a_edge1_Node000001_Node000002"><a xlink:title=" ">
<path fill="none" stroke="#63b8ff" d="M143.75,-98.88C143.75,-90.59 143.75,-81.42 143.75,-74.86"/>
<polygon fill="#63b8ff" stroke="#63b8ff" points="140.25,-98.82 143.75,-108.82 147.25,-98.82 140.25,-98.82"/>
</a>
</g>
</g>
<!-- Node3 -->
<g id="Node000003" class="node">
<title>Node3</title>
<g id="a_Node000003"><a xlink:href="class_ogre_1_1_resource.html" target="_top" xlink:title="Abstract class representing a loadable resource (e.g.">
<polygon fill="white" stroke="#666666" points="185.12,-185 102.38,-185 102.38,-165.75 185.12,-165.75 185.12,-185"/>
<text text-anchor="middle" x="143.75" y="-171.5" font-family="Helvetica,sans-Serif" font-size="10.00">Ogre::Resource</text>
</a>
</g>
</g>
<!-- Node3&#45;&gt;Node2 -->
<g id="edge2_Node000002_Node000003" class="edge">
<title>Node3&#45;&gt;Node2</title>
<g id="a_edge2_Node000002_Node000003"><a xlink:title=" ">
<path fill="none" stroke="#63b8ff" d="M143.75,-154.13C143.75,-145.84 143.75,-136.67 143.75,-130.11"/>
<polygon fill="#63b8ff" stroke="#63b8ff" points="140.25,-154.07 143.75,-164.07 147.25,-154.07 140.25,-154.07"/>
</a>
</g>
</g>
<!-- Node4 -->
<g id="Node000004" class="node">
<title>Node4</title>
<g id="a_Node000004"><a xlink:href="class_ogre_1_1_string_interface.html" target="_top" xlink:title="Class defining the common interface which classes can use to present a reflection&#45;style,...">
<polygon fill="white" stroke="#666666" points="141.38,-240.25 36.12,-240.25 36.12,-221 141.38,-221 141.38,-240.25"/>
<text text-anchor="middle" x="88.75" y="-226.75" font-family="Helvetica,sans-Serif" font-size="10.00">Ogre::StringInterface</text>
</a>
</g>
</g>
<!-- Node4&#45;&gt;Node3 -->
<g id="edge3_Node000003_Node000004" class="edge">
<title>Node4&#45;&gt;Node3</title>
<g id="a_edge3_Node000003_Node000004"><a xlink:title=" ">
<path fill="none" stroke="#63b8ff" d="M106.1,-212.82C115.5,-203.73 126.73,-192.85 134.47,-185.36"/>
<polygon fill="#63b8ff" stroke="#63b8ff" points="103.67,-210.31 98.92,-219.78 108.54,-215.34 103.67,-210.31"/>
</a>
</g>
</g>
<!-- Node5 -->
<g id="Node000005" class="node">
<title>Node5</title>
<g id="a_Node000005"><a xlink:href="class_ogre_1_1_allocated_object.html" target="_top" xlink:title="Superclass for all objects that wish to use custom memory allocators when their new / delete operator...">
<polygon fill="white" stroke="#666666" points="238.25,-240.25 159.25,-240.25 159.25,-221 238.25,-221 238.25,-240.25"/>
<text text-anchor="middle" x="198.75" y="-226.75" font-family="Helvetica,sans-Serif" font-size="10.00">ResourceAlloc</text>
</a>
</g>
</g>
<!-- Node5&#45;&gt;Node3 -->
<g id="edge4_Node000003_Node000005" class="edge">
<title>Node5&#45;&gt;Node3</title>
<g id="a_edge4_Node000003_Node000005"><a xlink:title=" ">
<path fill="none" stroke="#63b8ff" d="M181.4,-212.82C172,-203.73 160.77,-192.85 153.03,-185.36"/>
<polygon fill="#63b8ff" stroke="#63b8ff" points="178.96,-215.34 188.58,-219.78 183.83,-210.31 178.96,-215.34"/>
</a>
</g>
</g>
</g>
</svg>
