<?xml version="1.0" encoding="UTF-8" standalone="no"?>
<!DOCTYPE svg PUBLIC "-//W3C//DTD SVG 1.1//EN"
 "http://www.w3.org/Graphics/SVG/1.1/DTD/svg11.dtd">
<!-- Generated by graphviz version 9.0.0 (20230911.1827)
 -->
<!-- Title: Ogre::D3D11RenderTexture Pages: 1 -->
<svg width="325pt" height="193pt"
 viewBox="0.00 0.00 325.38 193.00" xmlns="http://www.w3.org/2000/svg" xmlns:xlink="http://www.w3.org/1999/xlink">
<g id="graph0" class="graph" transform="scale(1 1) rotate(0) translate(4 189)">
<title>Ogre::D3D11RenderTexture</title>
<!-- Node1 -->
<g id="Node000001" class="node">
<title>Node1</title>
<g id="a_Node000001"><a xlink:title="RenderTexture implementation for D3D11.">
<polygon fill="#999999" stroke="#666666" points="242.25,-19.25 108.5,-19.25 108.5,0 242.25,0 242.25,-19.25"/>
<text text-anchor="middle" x="175.38" y="-5.75" font-family="Helvetica,sans-Serif" font-size="10.00">Ogre::D3D11RenderTexture</text>
</a>
</g>
</g>
<!-- Node2 -->
<g id="Node000002" class="node">
<title>Node2</title>
<g id="a_Node000002"><a xlink:href="class_ogre_1_1_render_texture.html" target="_top" xlink:title="This class represents a RenderTarget that renders to a Texture.">
<polygon fill="white" stroke="#666666" points="157.62,-74.5 53.12,-74.5 53.12,-55.25 157.62,-55.25 157.62,-74.5"/>
<text text-anchor="middle" x="105.38" y="-61" font-family="Helvetica,sans-Serif" font-size="10.00">Ogre::RenderTexture</text>
</a>
</g>
</g>
<!-- Node2&#45;&gt;Node1 -->
<g id="edge1_Node000001_Node000002" class="edge">
<title>Node2&#45;&gt;Node1</title>
<g id="a_edge1_Node000001_Node000002"><a xlink:title=" ">
<path fill="none" stroke="#63b8ff" d="M126.32,-47.94C138.55,-38.64 153.51,-27.26 163.68,-19.52"/>
<polygon fill="#63b8ff" stroke="#63b8ff" points="124.29,-45.09 118.45,-53.93 128.53,-50.66 124.29,-45.09"/>
</a>
</g>
</g>
<!-- Node3 -->
<g id="Node000003" class="node">
<title>Node3</title>
<g id="a_Node000003"><a xlink:href="class_ogre_1_1_render_target.html" target="_top" xlink:title="A &#39;canvas&#39; which can receive the results of a rendering operation.">
<polygon fill="white" stroke="#666666" points="155.38,-129.75 55.38,-129.75 55.38,-110.5 155.38,-110.5 155.38,-129.75"/>
<text text-anchor="middle" x="105.38" y="-116.25" font-family="Helvetica,sans-Serif" font-size="10.00">Ogre::RenderTarget</text>
</a>
</g>
</g>
<!-- Node3&#45;&gt;Node2 -->
<g id="edge2_Node000002_Node000003" class="edge">
<title>Node3&#45;&gt;Node2</title>
<g id="a_edge2_Node000002_Node000003"><a xlink:title=" ">
<path fill="none" stroke="#63b8ff" d="M105.38,-98.88C105.38,-90.59 105.38,-81.42 105.38,-74.86"/>
<polygon fill="#63b8ff" stroke="#63b8ff" points="101.88,-98.82 105.38,-108.82 108.88,-98.82 101.88,-98.82"/>
</a>
</g>
</g>
<!-- Node4 -->
<g id="Node000004" class="node">
<title>Node4</title>
<g id="a_Node000004"><a xlink:href="struct_ogre_1_1_gpu_resource.html" target="_top" xlink:title=" ">
<polygon fill="white" stroke="#666666" points="100.75,-185 0,-185 0,-165.75 100.75,-165.75 100.75,-185"/>
<text text-anchor="middle" x="50.38" y="-171.5" font-family="Helvetica,sans-Serif" font-size="10.00">Ogre::GpuResource</text>
</a>
</g>
</g>
<!-- Node4&#45;&gt;Node3 -->
<g id="edge3_Node000003_Node000004" class="edge">
<title>Node4&#45;&gt;Node3</title>
<g id="a_edge3_Node000003_Node000004"><a xlink:title=" ">
<path fill="none" stroke="#63b8ff" d="M67.73,-157.57C77.12,-148.48 88.36,-137.6 96.1,-130.11"/>
<polygon fill="#63b8ff" stroke="#63b8ff" points="65.29,-155.06 60.54,-164.53 70.16,-160.09 65.29,-155.06"/>
</a>
</g>
</g>
<!-- Node5 -->
<g id="Node000005" class="node">
<title>Node5</title>
<g id="a_Node000005"><a xlink:href="class_ogre_1_1_allocated_object.html" target="_top" xlink:title="Superclass for all objects that wish to use custom memory allocators when their new / delete operator...">
<polygon fill="white" stroke="#666666" points="203.88,-185 118.88,-185 118.88,-165.75 203.88,-165.75 203.88,-185"/>
<text text-anchor="middle" x="161.38" y="-171.5" font-family="Helvetica,sans-Serif" font-size="10.00">RenderSysAlloc</text>
</a>
</g>
</g>
<!-- Node5&#45;&gt;Node3 -->
<g id="edge4_Node000003_Node000005" class="edge">
<title>Node5&#45;&gt;Node3</title>
<g id="a_edge4_Node000003_Node000005"><a xlink:title=" ">
<path fill="none" stroke="#63b8ff" d="M143.74,-157.61C134.13,-148.47 122.62,-137.53 114.73,-130.02"/>
<polygon fill="#63b8ff" stroke="#63b8ff" points="141.12,-159.94 150.78,-164.3 145.94,-154.87 141.12,-159.94"/>
</a>
</g>
</g>
<!-- Node6 -->
<g id="Node000006" class="node">
<title>Node6</title>
<g id="a_Node000006"><a xlink:href="class_ogre_1_1_d3_d11_device_resource.html" target="_top" xlink:title="Represents a Direct3D rendering resource.">
<polygon fill="white" stroke="#666666" points="317.38,-74.5 175.38,-74.5 175.38,-55.25 317.38,-55.25 317.38,-74.5"/>
<text text-anchor="middle" x="246.38" y="-61" font-family="Helvetica,sans-Serif" font-size="10.00">Ogre::D3D11DeviceResource</text>
</a>
</g>
</g>
<!-- Node6&#45;&gt;Node1 -->
<g id="edge5_Node000001_Node000006" class="edge">
<title>Node6&#45;&gt;Node1</title>
<g id="a_edge5_Node000001_Node000006"><a xlink:title=" ">
<path fill="none" stroke="#8b1a1a" d="M225.13,-47.94C212.73,-38.64 197.55,-27.26 187.24,-19.52"/>
<polygon fill="#8b1a1a" stroke="#8b1a1a" points="223.02,-50.73 233.12,-53.93 227.22,-45.13 223.02,-50.73"/>
</a>
</g>
</g>
</g>
</svg>
