<?xml version="1.0" encoding="UTF-8" standalone="no"?>
<!DOCTYPE svg PUBLIC "-//W3C//DTD SVG 1.1//EN"
 "http://www.w3.org/Graphics/SVG/1.1/DTD/svg11.dtd">
<!-- Generated by graphviz version 9.0.0 (20230911.1827)
 -->
<!-- Title: Ogre::RTShader::FFPFog Pages: 1 -->
<svg width="146pt" height="149pt"
 viewBox="0.00 0.00 145.50 149.00" xmlns="http://www.w3.org/2000/svg" xmlns:xlink="http://www.w3.org/1999/xlink">
<g id="graph0" class="graph" transform="scale(1 1) rotate(0) translate(4 145)">
<title>Ogre::RTShader::FFPFog</title>
<!-- Node1 -->
<g id="Node000001" class="node">
<title>Node1</title>
<g id="a_Node000001"><a xlink:title="Fog sub render state implementation of the Fixed Function Pipeline.">
<polygon fill="#999999" stroke="#666666" points="131.12,-19.25 6.38,-19.25 6.38,0 131.12,0 131.12,-19.25"/>
<text text-anchor="middle" x="68.75" y="-5.75" font-family="Helvetica,sans-Serif" font-size="10.00">Ogre::RTShader::FFPFog</text>
</a>
</g>
</g>
<!-- Node2 -->
<g id="Node000002" class="node">
<title>Node2</title>
<g id="a_Node000002"><a xlink:href="class_ogre_1_1_r_t_shader_1_1_sub_render_state.html" target="_top" xlink:title="This class is the base interface of sub part from a shader based rendering pipeline.">
<polygon fill="white" stroke="#666666" points="137.5,-85.75 0,-85.75 0,-55.25 137.5,-55.25 137.5,-85.75"/>
<text text-anchor="start" x="8" y="-72.25" font-family="Helvetica,sans-Serif" font-size="10.00">Ogre::RTShader::SubRender</text>
<text text-anchor="middle" x="68.75" y="-61" font-family="Helvetica,sans-Serif" font-size="10.00">State</text>
</a>
</g>
</g>
<!-- Node2&#45;&gt;Node1 -->
<g id="edge1_Node000001_Node000002" class="edge">
<title>Node2&#45;&gt;Node1</title>
<g id="a_edge1_Node000001_Node000002"><a xlink:title=" ">
<path fill="none" stroke="#63b8ff" d="M68.75,-43.48C68.75,-34.98 68.75,-26.09 68.75,-19.7"/>
<polygon fill="#63b8ff" stroke="#63b8ff" points="65.25,-43.43 68.75,-53.43 72.25,-43.43 65.25,-43.43"/>
</a>
</g>
</g>
<!-- Node3 -->
<g id="Node000003" class="node">
<title>Node3</title>
<g id="a_Node000003"><a xlink:href="class_ogre_1_1_allocated_object.html" target="_top" xlink:title="Superclass for all objects that wish to use custom memory allocators when their new / delete operator...">
<polygon fill="white" stroke="#666666" points="125.88,-141 11.62,-141 11.62,-121.75 125.88,-121.75 125.88,-141"/>
<text text-anchor="middle" x="68.75" y="-127.5" font-family="Helvetica,sans-Serif" font-size="10.00">RTShaderSystemAlloc</text>
</a>
</g>
</g>
<!-- Node3&#45;&gt;Node2 -->
<g id="edge2_Node000002_Node000003" class="edge">
<title>Node3&#45;&gt;Node2</title>
<g id="a_edge2_Node000002_Node000003"><a xlink:title=" ">
<path fill="none" stroke="#63b8ff" d="M68.75,-110.17C68.75,-102.24 68.75,-93.31 68.75,-86.03"/>
<polygon fill="#63b8ff" stroke="#63b8ff" points="65.25,-109.92 68.75,-119.92 72.25,-109.92 65.25,-109.92"/>
</a>
</g>
</g>
</g>
</svg>
