<?xml version="1.0" encoding="UTF-8" standalone="no"?>
<!DOCTYPE svg PUBLIC "-//W3C//DTD SVG 1.1//EN"
 "http://www.w3.org/Graphics/SVG/1.1/DTD/svg11.dtd">
<!-- Generated by graphviz version 2.44.0 ()
 -->
<!-- Title: Ogre::v1::InstanceBatchVTF Pages: 1 -->
<svg width="309pt" height="252pt"
 viewBox="0.00 0.00 309.00 252.00" xmlns="http://www.w3.org/2000/svg" xmlns:xlink="http://www.w3.org/1999/xlink">
<g id="graph0" class="graph" transform="scale(1 1) rotate(0) translate(4 248)">
<title>Ogre::v1::InstanceBatchVTF</title>
<!-- Node1 -->
<g id="node1" class="node">
<title>Node1</title>
<g id="a_node1"><a xlink:title=" ">
<polygon fill="#bfbfbf" stroke="black" points="38,-0.5 38,-19.5 177,-19.5 177,-0.5 38,-0.5"/>
<text text-anchor="middle" x="107.5" y="-7.5" font-family="Helvetica,sans-Serif" font-size="10.00">Ogre::v1::InstanceBatchVTF</text>
</a>
</g>
</g>
<!-- Node2 -->
<g id="node2" class="node">
<title>Node2</title>
<g id="a_node2"><a xlink:href="class_ogre_1_1v1_1_1_base_instance_batch_v_t_f.html" target="_top" xlink:title="Instancing implementation using vertex texture through Vertex Texture Fetch (VTF) This implementation...">
<polygon fill="none" stroke="black" points="27,-56.5 27,-75.5 188,-75.5 188,-56.5 27,-56.5"/>
<text text-anchor="middle" x="107.5" y="-63.5" font-family="Helvetica,sans-Serif" font-size="10.00">Ogre::v1::BaseInstanceBatchVTF</text>
</a>
</g>
</g>
<!-- Node2&#45;&gt;Node1 -->
<g id="edge1" class="edge">
<title>Node2&#45;&gt;Node1</title>
<path fill="none" stroke="midnightblue" d="M107.5,-45.8C107.5,-36.91 107.5,-26.78 107.5,-19.75"/>
<polygon fill="midnightblue" stroke="midnightblue" points="104,-46.08 107.5,-56.08 111,-46.08 104,-46.08"/>
</g>
<!-- Node3 -->
<g id="node3" class="node">
<title>Node3</title>
<g id="a_node3"><a xlink:href="class_ogre_1_1v1_1_1_instance_batch.html" target="_top" xlink:title="InstanceBatch forms part of the new Instancing system This is an abstract class that must be derived ...">
<polygon fill="none" stroke="black" points="47.5,-112.5 47.5,-131.5 167.5,-131.5 167.5,-112.5 47.5,-112.5"/>
<text text-anchor="middle" x="107.5" y="-119.5" font-family="Helvetica,sans-Serif" font-size="10.00">Ogre::v1::InstanceBatch</text>
</a>
</g>
</g>
<!-- Node3&#45;&gt;Node2 -->
<g id="edge2" class="edge">
<title>Node3&#45;&gt;Node2</title>
<path fill="none" stroke="midnightblue" d="M107.5,-101.8C107.5,-92.91 107.5,-82.78 107.5,-75.75"/>
<polygon fill="midnightblue" stroke="midnightblue" points="104,-102.08 107.5,-112.08 111,-102.08 104,-102.08"/>
</g>
<!-- Node4 -->
<g id="node4" class="node">
<title>Node4</title>
<g id="a_node4"><a xlink:href="class_ogre_1_1_renderable.html" target="_top" xlink:title="Abstract class defining the interface all renderable objects must implement.">
<polygon fill="none" stroke="black" points="4,-168.5 4,-187.5 95,-187.5 95,-168.5 4,-168.5"/>
<text text-anchor="middle" x="49.5" y="-175.5" font-family="Helvetica,sans-Serif" font-size="10.00">Ogre::Renderable</text>
</a>
</g>
</g>
<!-- Node4&#45;&gt;Node3 -->
<g id="edge3" class="edge">
<title>Node4&#45;&gt;Node3</title>
<path fill="none" stroke="midnightblue" d="M66.41,-161.25C76.7,-151.67 89.47,-139.79 98.01,-131.83"/>
<polygon fill="midnightblue" stroke="midnightblue" points="63.75,-158.95 58.82,-168.32 68.52,-164.07 63.75,-158.95"/>
</g>
<!-- Node5 -->
<g id="node5" class="node">
<title>Node5</title>
<g id="a_node5"><a xlink:href="class_ogre_1_1_movable_object.html" target="_top" xlink:title="Abstract class defining a movable object in a scene.">
<polygon fill="none" stroke="black" points="113,-168.5 113,-187.5 220,-187.5 220,-168.5 113,-168.5"/>
<text text-anchor="middle" x="166.5" y="-175.5" font-family="Helvetica,sans-Serif" font-size="10.00">Ogre::MovableObject</text>
</a>
</g>
</g>
<!-- Node5&#45;&gt;Node3 -->
<g id="edge4" class="edge">
<title>Node5&#45;&gt;Node3</title>
<path fill="none" stroke="midnightblue" d="M149.61,-161.54C139.09,-151.91 125.93,-139.87 117.15,-131.83"/>
<polygon fill="midnightblue" stroke="midnightblue" points="147.28,-164.15 157.02,-168.32 152.01,-158.99 147.28,-164.15"/>
</g>
<!-- Node6 -->
<g id="node6" class="node">
<title>Node6</title>
<g id="a_node6"><a xlink:href="class_ogre_1_1_animable_object.html" target="_top" xlink:title="Defines an interface to classes which have one or more AnimableValue instances to expose.">
<polygon fill="none" stroke="black" points="0,-224.5 0,-243.5 111,-243.5 111,-224.5 0,-224.5"/>
<text text-anchor="middle" x="55.5" y="-231.5" font-family="Helvetica,sans-Serif" font-size="10.00">Ogre::AnimableObject</text>
</a>
</g>
</g>
<!-- Node6&#45;&gt;Node5 -->
<g id="edge5" class="edge">
<title>Node6&#45;&gt;Node5</title>
<path fill="none" stroke="midnightblue" d="M82.51,-219.86C103.09,-209.85 130.84,-196.35 148.71,-187.65"/>
<polygon fill="midnightblue" stroke="midnightblue" points="80.8,-216.8 73.33,-224.32 83.86,-223.1 80.8,-216.8"/>
</g>
<!-- Node7 -->
<g id="node7" class="node">
<title>Node7</title>
<g id="a_node7"><a xlink:href="class_ogre_1_1_allocated_object.html" target="_top" xlink:title="Superclass for all objects that wish to use custom memory allocators when their new / delete operator...">
<polygon fill="none" stroke="black" points="129,-224.5 129,-243.5 204,-243.5 204,-224.5 129,-224.5"/>
<text text-anchor="middle" x="166.5" y="-231.5" font-family="Helvetica,sans-Serif" font-size="10.00">MovableAlloc</text>
</a>
</g>
</g>
<!-- Node7&#45;&gt;Node5 -->
<g id="edge6" class="edge">
<title>Node7&#45;&gt;Node5</title>
<path fill="none" stroke="midnightblue" d="M166.5,-213.8C166.5,-204.91 166.5,-194.78 166.5,-187.75"/>
<polygon fill="midnightblue" stroke="midnightblue" points="163,-214.08 166.5,-224.08 170,-214.08 163,-214.08"/>
</g>
<!-- Node8 -->
<g id="node8" class="node">
<title>Node8</title>
<g id="a_node8"><a xlink:href="class_ogre_1_1_id_object.html" target="_top" xlink:title=" ">
<polygon fill="none" stroke="black" points="222,-224.5 222,-243.5 301,-243.5 301,-224.5 222,-224.5"/>
<text text-anchor="middle" x="261.5" y="-231.5" font-family="Helvetica,sans-Serif" font-size="10.00">Ogre::IdObject</text>
</a>
</g>
</g>
<!-- Node8&#45;&gt;Node5 -->
<g id="edge7" class="edge">
<title>Node8&#45;&gt;Node5</title>
<path fill="none" stroke="midnightblue" d="M237.18,-219.18C219.7,-209.24 196.67,-196.15 181.73,-187.65"/>
<polygon fill="midnightblue" stroke="midnightblue" points="235.81,-222.43 246.24,-224.32 239.27,-216.34 235.81,-222.43"/>
</g>
</g>
</svg>
