<?xml version="1.0" encoding="UTF-8" standalone="no"?>
<!DOCTYPE svg PUBLIC "-//W3C//DTD SVG 1.1//EN"
 "http://www.w3.org/Graphics/SVG/1.1/DTD/svg11.dtd">
<!-- Generated by graphviz version 2.44.0 ()
 -->
<!-- Title: Ogre::CompositorPass Pages: 1 -->
<svg width="459pt" height="294pt"
 viewBox="0.00 0.00 459.00 294.00" xmlns="http://www.w3.org/2000/svg" xmlns:xlink="http://www.w3.org/1999/xlink">
<g id="graph0" class="graph" transform="scale(1 1) rotate(0) translate(4 290)">
<title>Ogre::CompositorPass</title>
<!-- Node1 -->
<g id="node1" class="node">
<title>Node1</title>
<g id="a_node1"><a xlink:title="Abstract class for compositor passes.">
<polygon fill="#bfbfbf" stroke="black" points="140,-133.5 140,-152.5 254,-152.5 254,-133.5 140,-133.5"/>
<text text-anchor="middle" x="197" y="-140.5" font-family="Helvetica,sans-Serif" font-size="10.00">Ogre::CompositorPass</text>
</a>
</g>
</g>
<!-- Node3 -->
<g id="node3" class="node">
<title>Node3</title>
<g id="a_node3"><a xlink:href="class_ogre_1_1_compositor_pass_clear.html" target="_top" xlink:title="Implementation of CompositorPass This implementation will clear the RenderTarget using the parameters...">
<polygon fill="none" stroke="black" points="302,-266.5 302,-285.5 439,-285.5 439,-266.5 302,-266.5"/>
<text text-anchor="middle" x="370.5" y="-273.5" font-family="Helvetica,sans-Serif" font-size="10.00">Ogre::CompositorPassClear</text>
</a>
</g>
</g>
<!-- Node1&#45;&gt;Node3 -->
<g id="edge2" class="edge">
<title>Node1&#45;&gt;Node3</title>
<path fill="none" stroke="midnightblue" d="M207.89,-161.81C222.38,-187.44 251.84,-232.91 290,-257 296.12,-260.86 302.96,-263.94 309.98,-266.39"/>
<polygon fill="midnightblue" stroke="midnightblue" points="210.8,-159.84 202.93,-152.75 204.66,-163.2 210.8,-159.84"/>
</g>
<!-- Node4 -->
<g id="node4" class="node">
<title>Node4</title>
<g id="a_node4"><a xlink:href="class_ogre_1_1_compositor_pass_compute.html" target="_top" xlink:title="Implementation of CompositorPass This implementation will render a fullscreen triangle/quad to the Re...">
<polygon fill="none" stroke="black" points="294,-228.5 294,-247.5 447,-247.5 447,-228.5 294,-228.5"/>
<text text-anchor="middle" x="370.5" y="-235.5" font-family="Helvetica,sans-Serif" font-size="10.00">Ogre::CompositorPassCompute</text>
</a>
</g>
</g>
<!-- Node1&#45;&gt;Node4 -->
<g id="edge3" class="edge">
<title>Node1&#45;&gt;Node4</title>
<path fill="none" stroke="midnightblue" d="M213.63,-159.83C230.73,-177.23 259.77,-203.93 290,-219 297.75,-222.86 306.32,-225.96 314.87,-228.45"/>
<polygon fill="midnightblue" stroke="midnightblue" points="216.1,-157.35 206.65,-152.56 211.05,-162.2 216.1,-157.35"/>
</g>
<!-- Node5 -->
<g id="node5" class="node">
<title>Node5</title>
<g id="a_node5"><a xlink:href="class_ogre_1_1_compositor_pass_depth_copy.html" target="_top" xlink:title="Implementation of CompositorPass This implementation will copy one DepthBuffer to another DepthBuffer...">
<polygon fill="none" stroke="black" points="290,-190.5 290,-209.5 451,-209.5 451,-190.5 290,-190.5"/>
<text text-anchor="middle" x="370.5" y="-197.5" font-family="Helvetica,sans-Serif" font-size="10.00">Ogre::CompositorPassDepthCopy</text>
</a>
</g>
</g>
<!-- Node1&#45;&gt;Node5 -->
<g id="edge4" class="edge">
<title>Node1&#45;&gt;Node5</title>
<path fill="none" stroke="midnightblue" d="M227.76,-156.69C245.56,-164.52 268.78,-174.13 290,-181 300.94,-184.54 312.91,-187.74 324.17,-190.47"/>
<polygon fill="midnightblue" stroke="midnightblue" points="229.04,-153.43 218.48,-152.55 226.19,-159.82 229.04,-153.43"/>
</g>
<!-- Node6 -->
<g id="node6" class="node">
<title>Node6</title>
<g id="a_node6"><a xlink:href="class_ogre_1_1_compositor_pass_mipmap.html" target="_top" xlink:title="Implementation of CompositorPass This implementation will Mipmap the texture used by this RenderTarge...">
<polygon fill="none" stroke="black" points="296,-152.5 296,-171.5 445,-171.5 445,-152.5 296,-152.5"/>
<text text-anchor="middle" x="370.5" y="-159.5" font-family="Helvetica,sans-Serif" font-size="10.00">Ogre::CompositorPassMipmap</text>
</a>
</g>
</g>
<!-- Node1&#45;&gt;Node6 -->
<g id="edge5" class="edge">
<title>Node1&#45;&gt;Node6</title>
<path fill="none" stroke="midnightblue" d="M264.3,-150.35C274.6,-151.49 285.29,-152.67 295.74,-153.83"/>
<polygon fill="midnightblue" stroke="midnightblue" points="264.48,-146.84 254.16,-149.22 263.71,-153.8 264.48,-146.84"/>
</g>
<!-- Node7 -->
<g id="node7" class="node">
<title>Node7</title>
<g id="a_node7"><a xlink:href="class_ogre_1_1_compositor_pass_quad.html" target="_top" xlink:title="Implementation of CompositorPass This implementation will render a fullscreen triangle/quad to the Re...">
<polygon fill="none" stroke="black" points="302,-114.5 302,-133.5 439,-133.5 439,-114.5 302,-114.5"/>
<text text-anchor="middle" x="370.5" y="-121.5" font-family="Helvetica,sans-Serif" font-size="10.00">Ogre::CompositorPassQuad</text>
</a>
</g>
</g>
<!-- Node1&#45;&gt;Node7 -->
<g id="edge6" class="edge">
<title>Node1&#45;&gt;Node7</title>
<path fill="none" stroke="midnightblue" d="M264.34,-135.65C276.64,-134.29 289.51,-132.86 301.86,-131.49"/>
<polygon fill="midnightblue" stroke="midnightblue" points="263.71,-132.2 254.16,-136.78 264.48,-139.16 263.71,-132.2"/>
</g>
<!-- Node8 -->
<g id="node8" class="node">
<title>Node8</title>
<g id="a_node8"><a xlink:href="class_ogre_1_1_compositor_pass_scene.html" target="_top" xlink:title="Implementation of CompositorPass This implementation will perform main rendering, selecting several p...">
<polygon fill="none" stroke="black" points="299.5,-76.5 299.5,-95.5 441.5,-95.5 441.5,-76.5 299.5,-76.5"/>
<text text-anchor="middle" x="370.5" y="-83.5" font-family="Helvetica,sans-Serif" font-size="10.00">Ogre::CompositorPassScene</text>
</a>
</g>
</g>
<!-- Node1&#45;&gt;Node8 -->
<g id="edge7" class="edge">
<title>Node1&#45;&gt;Node8</title>
<path fill="none" stroke="midnightblue" d="M227.76,-129.31C245.56,-121.48 268.78,-111.87 290,-105 300.94,-101.46 312.91,-98.26 324.17,-95.53"/>
<polygon fill="midnightblue" stroke="midnightblue" points="226.19,-126.18 218.48,-133.45 229.04,-132.57 226.19,-126.18"/>
</g>
<!-- Node9 -->
<g id="node9" class="node">
<title>Node9</title>
<g id="a_node9"><a xlink:href="class_ogre_1_1_compositor_pass_stencil.html" target="_top" xlink:title="Implementation of CompositorPass This implementation will clear the RenderTarget using the parameters...">
<polygon fill="none" stroke="black" points="298.5,-38.5 298.5,-57.5 442.5,-57.5 442.5,-38.5 298.5,-38.5"/>
<text text-anchor="middle" x="370.5" y="-45.5" font-family="Helvetica,sans-Serif" font-size="10.00">Ogre::CompositorPassStencil</text>
</a>
</g>
</g>
<!-- Node1&#45;&gt;Node9 -->
<g id="edge8" class="edge">
<title>Node1&#45;&gt;Node9</title>
<path fill="none" stroke="midnightblue" d="M213.63,-126.17C230.73,-108.77 259.77,-82.07 290,-67 297.75,-63.14 306.32,-60.04 314.87,-57.55"/>
<polygon fill="midnightblue" stroke="midnightblue" points="211.05,-123.8 206.65,-133.44 216.1,-128.65 211.05,-123.8"/>
</g>
<!-- Node10 -->
<g id="node10" class="node">
<title>Node10</title>
<g id="a_node10"><a xlink:href="class_ogre_1_1_compositor_pass_uav.html" target="_top" xlink:title="Implementation of CompositorPass This implementation will set UAVs.">
<polygon fill="none" stroke="black" points="304.5,-0.5 304.5,-19.5 436.5,-19.5 436.5,-0.5 304.5,-0.5"/>
<text text-anchor="middle" x="370.5" y="-7.5" font-family="Helvetica,sans-Serif" font-size="10.00">Ogre::CompositorPassUav</text>
</a>
</g>
</g>
<!-- Node1&#45;&gt;Node10 -->
<g id="edge9" class="edge">
<title>Node1&#45;&gt;Node10</title>
<path fill="none" stroke="midnightblue" d="M207.89,-124.19C222.38,-98.56 251.84,-53.09 290,-29 296.12,-25.14 302.96,-22.06 309.98,-19.61"/>
<polygon fill="midnightblue" stroke="midnightblue" points="204.66,-122.8 202.93,-133.25 210.8,-126.16 204.66,-122.8"/>
</g>
<!-- Node2 -->
<g id="node2" class="node">
<title>Node2</title>
<g id="a_node2"><a xlink:href="class_ogre_1_1_allocated_object.html" target="_top" xlink:title="Superclass for all objects that wish to use custom memory allocators when their new / delete operator...">
<polygon fill="none" stroke="black" points="0,-133.5 0,-152.5 104,-152.5 104,-133.5 0,-133.5"/>
<text text-anchor="middle" x="52" y="-140.5" font-family="Helvetica,sans-Serif" font-size="10.00">CompositorInstAlloc</text>
</a>
</g>
</g>
<!-- Node2&#45;&gt;Node1 -->
<g id="edge1" class="edge">
<title>Node2&#45;&gt;Node1</title>
<path fill="none" stroke="midnightblue" d="M114.39,-143C122.83,-143 131.46,-143 139.8,-143"/>
<polygon fill="midnightblue" stroke="midnightblue" points="114.22,-139.5 104.22,-143 114.22,-146.5 114.22,-139.5"/>
</g>
</g>
</svg>
