<?xml version="1.0" encoding="UTF-8" standalone="no"?>
<!DOCTYPE svg PUBLIC "-//W3C//DTD SVG 1.1//EN"
 "http://www.w3.org/Graphics/SVG/1.1/DTD/svg11.dtd">
<!-- Generated by graphviz version 9.0.0 (20230911.1827)
 -->
<!-- Title: Ogre::v1::NULLHardwarePixelBuffer Pages: 1 -->
<svg width="155pt" height="204pt"
 viewBox="0.00 0.00 154.50 204.25" xmlns="http://www.w3.org/2000/svg" xmlns:xlink="http://www.w3.org/1999/xlink">
<g id="graph0" class="graph" transform="scale(1 1) rotate(0) translate(4 200.25)">
<title>Ogre::v1::NULLHardwarePixelBuffer</title>
<!-- Node1 -->
<g id="Node000001" class="node">
<title>Node1</title>
<g id="a_Node000001"><a xlink:title=" ">
<polygon fill="#999999" stroke="#666666" points="146.5,-30.5 0,-30.5 0,0 146.5,0 146.5,-30.5"/>
<text text-anchor="start" x="8" y="-17" font-family="Helvetica,sans-Serif" font-size="10.00">Ogre::v1::NULLHardwarePixel</text>
<text text-anchor="middle" x="73.25" y="-5.75" font-family="Helvetica,sans-Serif" font-size="10.00">Buffer</text>
</a>
</g>
</g>
<!-- Node2 -->
<g id="Node000002" class="node">
<title>Node2</title>
<g id="a_Node000002"><a xlink:href="class_ogre_1_1v1_1_1_hardware_pixel_buffer.html" target="_top" xlink:title="Specialisation of HardwareBuffer for a pixel buffer.">
<polygon fill="white" stroke="#666666" points="145.75,-85.75 0.75,-85.75 0.75,-66.5 145.75,-66.5 145.75,-85.75"/>
<text text-anchor="middle" x="73.25" y="-72.25" font-family="Helvetica,sans-Serif" font-size="10.00">Ogre::v1::HardwarePixelBuffer</text>
</a>
</g>
</g>
<!-- Node2&#45;&gt;Node1 -->
<g id="edge1_Node000001_Node000002" class="edge">
<title>Node2&#45;&gt;Node1</title>
<g id="a_edge1_Node000001_Node000002"><a xlink:title=" ">
<path fill="none" stroke="#63b8ff" d="M73.25,-54.92C73.25,-46.99 73.25,-38.06 73.25,-30.78"/>
<polygon fill="#63b8ff" stroke="#63b8ff" points="69.75,-54.67 73.25,-64.67 76.75,-54.67 69.75,-54.67"/>
</a>
</g>
</g>
<!-- Node3 -->
<g id="Node000003" class="node">
<title>Node3</title>
<g id="a_Node000003"><a xlink:href="class_ogre_1_1v1_1_1_hardware_buffer.html" target="_top" xlink:title="Abstract class defining common features of hardware buffers.">
<polygon fill="white" stroke="#666666" points="135.25,-141 11.25,-141 11.25,-121.75 135.25,-121.75 135.25,-141"/>
<text text-anchor="middle" x="73.25" y="-127.5" font-family="Helvetica,sans-Serif" font-size="10.00">Ogre::v1::HardwareBuffer</text>
</a>
</g>
</g>
<!-- Node3&#45;&gt;Node2 -->
<g id="edge2_Node000002_Node000003" class="edge">
<title>Node3&#45;&gt;Node2</title>
<g id="a_edge2_Node000002_Node000003"><a xlink:title=" ">
<path fill="none" stroke="#63b8ff" d="M73.25,-110.13C73.25,-101.84 73.25,-92.67 73.25,-86.11"/>
<polygon fill="#63b8ff" stroke="#63b8ff" points="69.75,-110.07 73.25,-120.07 76.75,-110.07 69.75,-110.07"/>
</a>
</g>
</g>
<!-- Node4 -->
<g id="Node000004" class="node">
<title>Node4</title>
<g id="a_Node000004"><a xlink:href="class_ogre_1_1_allocated_object.html" target="_top" xlink:title="Superclass for all objects that wish to use custom memory allocators when their new / delete operator...">
<polygon fill="white" stroke="#666666" points="104.88,-196.25 41.62,-196.25 41.62,-177 104.88,-177 104.88,-196.25"/>
<text text-anchor="middle" x="73.25" y="-182.75" font-family="Helvetica,sans-Serif" font-size="10.00">BufferAlloc</text>
</a>
</g>
</g>
<!-- Node4&#45;&gt;Node3 -->
<g id="edge3_Node000003_Node000004" class="edge">
<title>Node4&#45;&gt;Node3</title>
<g id="a_edge3_Node000003_Node000004"><a xlink:title=" ">
<path fill="none" stroke="#63b8ff" d="M73.25,-165.38C73.25,-157.09 73.25,-147.92 73.25,-141.36"/>
<polygon fill="#63b8ff" stroke="#63b8ff" points="69.75,-165.32 73.25,-175.32 76.75,-165.32 69.75,-165.32"/>
</a>
</g>
</g>
</g>
</svg>
