<?xml version="1.0" encoding="UTF-8" standalone="no"?>
<!DOCTYPE svg PUBLIC "-//W3C//DTD SVG 1.1//EN"
 "http://www.w3.org/Graphics/SVG/1.1/DTD/svg11.dtd">
<!-- Generated by graphviz version 2.44.0 ()
 -->
<!-- Title: Ogre::ConstBufferPoolUser Pages: 1 -->
<svg width="282pt" height="84pt"
 viewBox="0.00 0.00 281.50 84.00" xmlns="http://www.w3.org/2000/svg" xmlns:xlink="http://www.w3.org/1999/xlink">
<g id="graph0" class="graph" transform="scale(1 1) rotate(0) translate(4 80)">
<title>Ogre::ConstBufferPoolUser</title>
<!-- Node1 -->
<g id="node1" class="node">
<title>Node1</title>
<g id="a_node1"><a xlink:title=" ">
<polygon fill="#bfbfbf" stroke="black" points="69,-56.5 69,-75.5 203,-75.5 203,-56.5 69,-56.5"/>
<text text-anchor="middle" x="136" y="-63.5" font-family="Helvetica,sans-Serif" font-size="10.00">Ogre::ConstBufferPoolUser</text>
</a>
</g>
</g>
<!-- Node2 -->
<g id="node2" class="node">
<title>Node2</title>
<g id="a_node2"><a xlink:href="class_ogre_1_1_hlms_pbs_datablock.html" target="_top" xlink:title="Contains information needed by PBS (Physically Based Shading) for OpenGL 3+ &amp; D3D11+.">
<polygon fill="none" stroke="black" points="0,-0.5 0,-19.5 126,-19.5 126,-0.5 0,-0.5"/>
<text text-anchor="middle" x="63" y="-7.5" font-family="Helvetica,sans-Serif" font-size="10.00">Ogre::HlmsPbsDatablock</text>
</a>
</g>
</g>
<!-- Node1&#45;&gt;Node2 -->
<g id="edge1" class="edge">
<title>Node1&#45;&gt;Node2</title>
<path fill="none" stroke="midnightblue" d="M115.86,-50.1C102.72,-40.38 86.02,-28.03 74.94,-19.83"/>
<polygon fill="midnightblue" stroke="midnightblue" points="114.15,-53.19 124.27,-56.32 118.31,-47.56 114.15,-53.19"/>
</g>
<!-- Node3 -->
<g id="node3" class="node">
<title>Node3</title>
<g id="a_node3"><a xlink:href="class_ogre_1_1_hlms_unlit_datablock.html" target="_top" xlink:title="Contains information needed by PBS (Physically Based Shading) for OpenGL 3+ &amp; D3D11+.">
<polygon fill="none" stroke="black" points="144.5,-0.5 144.5,-19.5 273.5,-19.5 273.5,-0.5 144.5,-0.5"/>
<text text-anchor="middle" x="209" y="-7.5" font-family="Helvetica,sans-Serif" font-size="10.00">Ogre::HlmsUnlitDatablock</text>
</a>
</g>
</g>
<!-- Node1&#45;&gt;Node3 -->
<g id="edge2" class="edge">
<title>Node1&#45;&gt;Node3</title>
<path fill="none" stroke="midnightblue" d="M156.14,-50.1C169.28,-40.38 185.98,-28.03 197.06,-19.83"/>
<polygon fill="midnightblue" stroke="midnightblue" points="153.69,-47.56 147.73,-56.32 157.85,-53.19 153.69,-47.56"/>
</g>
</g>
</svg>
