<?xml version="1.0" encoding="UTF-8" standalone="no"?>
<!DOCTYPE svg PUBLIC "-//W3C//DTD SVG 1.1//EN"
 "http://www.w3.org/Graphics/SVG/1.1/DTD/svg11.dtd">
<!-- Generated by graphviz version 2.40.1 (20161225.0304)
 -->
<!-- Title: Ogre::StagingBuffer Pages: 1 -->
<svg width="421pt" height="180pt"
 viewBox="0.00 0.00 421.00 180.00" xmlns="http://www.w3.org/2000/svg" xmlns:xlink="http://www.w3.org/1999/xlink">
<g id="graph0" class="graph" transform="scale(1 1) rotate(0) translate(4 176)">
<title>Ogre::StagingBuffer</title>
<!-- Node0 -->
<g id="node1" class="node">
<title>Node0</title>
<polygon fill="#bfbfbf" stroke="#000000" points="134,-76.5 134,-95.5 237,-95.5 237,-76.5 134,-76.5"/>
<text text-anchor="middle" x="185.5" y="-83.5" font-family="Helvetica,sans-Serif" font-size="10.00" fill="#000000">Ogre::StagingBuffer</text>
</g>
<!-- Node2 -->
<g id="node3" class="node">
<title>Node2</title>
<g id="a_node3"><a xlink:href="class_ogre_1_1_d3_d11_staging_buffer.html" target="_top" xlink:title="NOTE FOR D3D12 PORTING: The GL3Plus implementation should be used as reference, since it is much lowe...">
<polygon fill="none" stroke="#000000" points="276,-152.5 276,-171.5 410,-171.5 410,-152.5 276,-152.5"/>
<text text-anchor="middle" x="343" y="-159.5" font-family="Helvetica,sans-Serif" font-size="10.00" fill="#000000">Ogre::D3D11StagingBuffer</text>
</a>
</g>
</g>
<!-- Node0&#45;&gt;Node2 -->
<g id="edge2" class="edge">
<title>Node0&#45;&gt;Node2</title>
<path fill="none" stroke="#191970" d="M205.6518,-101.7547C222.7425,-114.4523 248.3437,-131.9533 273,-143 281.2741,-146.707 290.4312,-149.8318 299.32,-152.4085"/>
<polygon fill="#191970" stroke="#191970" points="207.6253,-98.8589 197.5402,-95.6121 203.3994,-104.4394 207.6253,-98.8589"/>
</g>
<!-- Node3 -->
<g id="node4" class="node">
<title>Node3</title>
<g id="a_node4"><a xlink:href="class_ogre_1_1_g_l3_plus_staging_buffer.html" target="_top" xlink:title="A staging buffer is a buffer that resides on the GPU and be written to/from both CPU &amp; GPU However th...">
<polygon fill="none" stroke="#000000" points="273,-114.5 273,-133.5 413,-133.5 413,-114.5 273,-114.5"/>
<text text-anchor="middle" x="343" y="-121.5" font-family="Helvetica,sans-Serif" font-size="10.00" fill="#000000">Ogre::GL3PlusStagingBuffer</text>
</a>
</g>
</g>
<!-- Node0&#45;&gt;Node3 -->
<g id="edge3" class="edge">
<title>Node0&#45;&gt;Node3</title>
<path fill="none" stroke="#191970" d="M235.1041,-97.968C257.1753,-103.2931 282.8027,-109.4762 303.5419,-114.4799"/>
<polygon fill="#191970" stroke="#191970" points="235.7859,-94.5321 225.2439,-95.589 234.1441,-101.3369 235.7859,-94.5321"/>
</g>
<!-- Node4 -->
<g id="node5" class="node">
<title>Node4</title>
<g id="a_node5"><a xlink:href="class_ogre_1_1_g_l_e_s2_staging_buffer.html" target="_top" xlink:title="A staging buffer is a buffer that resides on the GPU and be written to/from both CPU &amp; GPU However th...">
<polygon fill="none" stroke="#000000" points="276,-76.5 276,-95.5 410,-95.5 410,-76.5 276,-76.5"/>
<text text-anchor="middle" x="343" y="-83.5" font-family="Helvetica,sans-Serif" font-size="10.00" fill="#000000">Ogre::GLES2StagingBuffer</text>
</a>
</g>
</g>
<!-- Node0&#45;&gt;Node4 -->
<g id="edge4" class="edge">
<title>Node0&#45;&gt;Node4</title>
<path fill="none" stroke="#191970" d="M247.1262,-86C256.5416,-86 266.3001,-86 275.8275,-86"/>
<polygon fill="#191970" stroke="#191970" points="247.0714,-82.5001 237.0714,-86 247.0714,-89.5001 247.0714,-82.5001"/>
</g>
<!-- Node5 -->
<g id="node6" class="node">
<title>Node5</title>
<g id="a_node6"><a xlink:href="class_ogre_1_1_metal_staging_buffer.html" target="_top" xlink:title="A staging buffer is a buffer that resides on the GPU and be written to/from both CPU &amp; GPU However th...">
<polygon fill="none" stroke="#000000" points="279.5,-38.5 279.5,-57.5 406.5,-57.5 406.5,-38.5 279.5,-38.5"/>
<text text-anchor="middle" x="343" y="-45.5" font-family="Helvetica,sans-Serif" font-size="10.00" fill="#000000">Ogre::MetalStagingBuffer</text>
</a>
</g>
</g>
<!-- Node0&#45;&gt;Node5 -->
<g id="edge5" class="edge">
<title>Node0&#45;&gt;Node5</title>
<path fill="none" stroke="#191970" d="M235.1041,-74.032C257.1753,-68.7069 282.8027,-62.5238 303.5419,-57.5201"/>
<polygon fill="#191970" stroke="#191970" points="234.1441,-70.6631 225.2439,-76.411 235.7859,-77.4679 234.1441,-70.6631"/>
</g>
<!-- Node6 -->
<g id="node7" class="node">
<title>Node6</title>
<g id="a_node7"><a xlink:href="class_ogre_1_1_n_u_l_l_staging_buffer.html" target="_top" xlink:title="A staging buffer is a buffer that resides on the GPU and be written to/from both CPU &amp; GPU However th...">
<polygon fill="none" stroke="#000000" points="279,-.5 279,-19.5 407,-19.5 407,-.5 279,-.5"/>
<text text-anchor="middle" x="343" y="-7.5" font-family="Helvetica,sans-Serif" font-size="10.00" fill="#000000">Ogre::NULLStagingBuffer</text>
</a>
</g>
</g>
<!-- Node0&#45;&gt;Node6 -->
<g id="edge6" class="edge">
<title>Node0&#45;&gt;Node6</title>
<path fill="none" stroke="#191970" d="M205.6518,-70.2453C222.7425,-57.5477 248.3437,-40.0467 273,-29 281.2741,-25.293 290.4312,-22.1682 299.32,-19.5915"/>
<polygon fill="#191970" stroke="#191970" points="203.3994,-67.5606 197.5402,-76.3879 207.6253,-73.1411 203.3994,-67.5606"/>
</g>
<!-- Node1 -->
<g id="node2" class="node">
<title>Node1</title>
<g id="a_node2"><a xlink:href="class_ogre_1_1_allocated_object.html" target="_top" xlink:title="Superclass for all objects that wish to use custom memory allocators when their new / delete operator...">
<polygon fill="none" stroke="#000000" points="0,-76.5 0,-95.5 98,-95.5 98,-76.5 0,-76.5"/>
<text text-anchor="middle" x="49" y="-83.5" font-family="Helvetica,sans-Serif" font-size="10.00" fill="#000000">StagingBufferAlloc</text>
</a>
</g>
</g>
<!-- Node1&#45;&gt;Node0 -->
<g id="edge1" class="edge">
<title>Node1&#45;&gt;Node0</title>
<path fill="none" stroke="#191970" d="M108.5087,-86C116.9989,-86 125.6726,-86 133.9925,-86"/>
<polygon fill="#191970" stroke="#191970" points="108.2797,-82.5001 98.2796,-86 108.2796,-89.5001 108.2797,-82.5001"/>
</g>
</g>
</svg>
