<?xml version="1.0" encoding="UTF-8" standalone="no"?>
<!DOCTYPE svg PUBLIC "-//W3C//DTD SVG 1.1//EN"
 "http://www.w3.org/Graphics/SVG/1.1/DTD/svg11.dtd">
<!-- Generated by graphviz version 9.0.0 (20230911.1827)
 -->
<!-- Title: Ogre::CompositorPassCompute Pages: 1 -->
<svg width="161pt" height="138pt"
 viewBox="0.00 0.00 160.50 137.75" xmlns="http://www.w3.org/2000/svg" xmlns:xlink="http://www.w3.org/1999/xlink">
<g id="graph0" class="graph" transform="scale(1 1) rotate(0) translate(4 133.75)">
<title>Ogre::CompositorPassCompute</title>
<!-- Node1 -->
<g id="Node000001" class="node">
<title>Node1</title>
<g id="a_Node000001"><a xlink:title="Implementation of CompositorPass This implementation will render a fullscreen triangle/quad to the Re...">
<polygon fill="#999999" stroke="#666666" points="152.5,-19.25 0,-19.25 0,0 152.5,0 152.5,-19.25"/>
<text text-anchor="middle" x="76.25" y="-5.75" font-family="Helvetica,sans-Serif" font-size="10.00">Ogre::CompositorPassCompute</text>
</a>
</g>
</g>
<!-- Node2 -->
<g id="Node000002" class="node">
<title>Node2</title>
<g id="a_Node000002"><a xlink:href="class_ogre_1_1_compositor_pass.html" target="_top" xlink:title="Abstract class for compositor passes.">
<polygon fill="white" stroke="#666666" points="133,-74.5 19.5,-74.5 19.5,-55.25 133,-55.25 133,-74.5"/>
<text text-anchor="middle" x="76.25" y="-61" font-family="Helvetica,sans-Serif" font-size="10.00">Ogre::CompositorPass</text>
</a>
</g>
</g>
<!-- Node2&#45;&gt;Node1 -->
<g id="edge1_Node000001_Node000002" class="edge">
<title>Node2&#45;&gt;Node1</title>
<g id="a_edge1_Node000001_Node000002"><a xlink:title=" ">
<path fill="none" stroke="#63b8ff" d="M76.25,-43.63C76.25,-35.34 76.25,-26.17 76.25,-19.61"/>
<polygon fill="#63b8ff" stroke="#63b8ff" points="72.75,-43.57 76.25,-53.57 79.75,-43.57 72.75,-43.57"/>
</a>
</g>
</g>
<!-- Node3 -->
<g id="Node000003" class="node">
<title>Node3</title>
<g id="a_Node000003"><a xlink:href="class_ogre_1_1_allocated_object.html" target="_top" xlink:title="Superclass for all objects that wish to use custom memory allocators when their new / delete operator...">
<polygon fill="white" stroke="#666666" points="128.12,-129.75 24.38,-129.75 24.38,-110.5 128.12,-110.5 128.12,-129.75"/>
<text text-anchor="middle" x="76.25" y="-116.25" font-family="Helvetica,sans-Serif" font-size="10.00">CompositorInstAlloc</text>
</a>
</g>
</g>
<!-- Node3&#45;&gt;Node2 -->
<g id="edge2_Node000002_Node000003" class="edge">
<title>Node3&#45;&gt;Node2</title>
<g id="a_edge2_Node000002_Node000003"><a xlink:title=" ">
<path fill="none" stroke="#63b8ff" d="M76.25,-98.88C76.25,-90.59 76.25,-81.42 76.25,-74.86"/>
<polygon fill="#63b8ff" stroke="#63b8ff" points="72.75,-98.82 76.25,-108.82 79.75,-98.82 72.75,-98.82"/>
</a>
</g>
</g>
</g>
</svg>
