<?xml version="1.0" encoding="UTF-8" standalone="no"?>
<!DOCTYPE svg PUBLIC "-//W3C//DTD SVG 1.1//EN"
 "http://www.w3.org/Graphics/SVG/1.1/DTD/svg11.dtd">
<!-- Generated by graphviz version 2.44.0 ()
 -->
<!-- Title: Ogre::ScriptTranslator Pages: 1 -->
<svg width="655pt" height="732pt"
 viewBox="0.00 0.00 655.00 732.00" xmlns="http://www.w3.org/2000/svg" xmlns:xlink="http://www.w3.org/1999/xlink">
<g id="graph0" class="graph" transform="scale(1 1) rotate(0) translate(4 728)">
<title>Ogre::ScriptTranslator</title>
<!-- Node1 -->
<g id="node1" class="node">
<title>Node1</title>
<g id="a_node1"><a xlink:title="This class translates script AST (abstract syntax tree) into Ogre resources.">
<polygon fill="#bfbfbf" stroke="black" points="143,-335.5 143,-354.5 254,-354.5 254,-335.5 143,-335.5"/>
<text text-anchor="middle" x="198.5" y="-342.5" font-family="Helvetica,sans-Serif" font-size="10.00">Ogre::ScriptTranslator</text>
</a>
</g>
</g>
<!-- Node3 -->
<g id="node3" class="node">
<title>Node3</title>
<g id="a_node3"><a xlink:href="class_ogre_1_1_compositor_pass_translator.html" target="_top" xlink:title=" ">
<polygon fill="none" stroke="black" points="292.5,-704.5 292.5,-723.5 450.5,-723.5 450.5,-704.5 292.5,-704.5"/>
<text text-anchor="middle" x="371.5" y="-711.5" font-family="Helvetica,sans-Serif" font-size="10.00">Ogre::CompositorPassTranslator</text>
</a>
</g>
</g>
<!-- Node1&#45;&gt;Node3 -->
<g id="edge2" class="edge">
<title>Node1&#45;&gt;Node3</title>
<path fill="none" stroke="midnightblue" d="M201.98,-364.85C210.69,-431.62 242.06,-646.55 290,-694 294.3,-698.25 299.35,-701.65 304.8,-704.36"/>
<polygon fill="midnightblue" stroke="midnightblue" points="205.43,-364.29 200.69,-354.81 198.49,-365.17 205.43,-364.29"/>
</g>
<!-- Node4 -->
<g id="node4" class="node">
<title>Node4</title>
<g id="a_node4"><a xlink:href="class_ogre_1_1_compositor_shadow_map_repeat_translator.html" target="_top" xlink:title=" ">
<polygon fill="none" stroke="black" points="298.5,-655 298.5,-685 444.5,-685 444.5,-655 298.5,-655"/>
<text text-anchor="start" x="306.5" y="-673" font-family="Helvetica,sans-Serif" font-size="10.00">Ogre::CompositorShadowMap</text>
<text text-anchor="middle" x="371.5" y="-662" font-family="Helvetica,sans-Serif" font-size="10.00">RepeatTranslator</text>
</a>
</g>
</g>
<!-- Node1&#45;&gt;Node4 -->
<g id="edge3" class="edge">
<title>Node1&#45;&gt;Node4</title>
<path fill="none" stroke="midnightblue" d="M199.46,-364.75C200.44,-417.83 210.59,-564.94 290,-645 293.81,-648.84 298.21,-652.1 302.93,-654.86"/>
<polygon fill="midnightblue" stroke="midnightblue" points="202.96,-364.62 199.36,-354.65 195.96,-364.68 202.96,-364.62"/>
</g>
<!-- Node5 -->
<g id="node5" class="node">
<title>Node5</title>
<g id="a_node5"><a xlink:href="class_ogre_1_1_compositor_shadow_map_target_translator.html" target="_top" xlink:title=" ">
<polygon fill="none" stroke="black" points="298.5,-606 298.5,-636 444.5,-636 444.5,-606 298.5,-606"/>
<text text-anchor="start" x="306.5" y="-624" font-family="Helvetica,sans-Serif" font-size="10.00">Ogre::CompositorShadowMap</text>
<text text-anchor="middle" x="371.5" y="-613" font-family="Helvetica,sans-Serif" font-size="10.00">TargetTranslator</text>
</a>
</g>
</g>
<!-- Node1&#45;&gt;Node5 -->
<g id="edge4" class="edge">
<title>Node1&#45;&gt;Node5</title>
<path fill="none" stroke="midnightblue" d="M200.8,-364.62C204.99,-411.52 222.1,-531.09 290,-596 294.02,-599.84 298.62,-603.1 303.54,-605.85"/>
<polygon fill="midnightblue" stroke="midnightblue" points="204.29,-364.26 200.01,-354.57 197.31,-364.81 204.29,-364.26"/>
</g>
<!-- Node6 -->
<g id="node6" class="node">
<title>Node6</title>
<g id="a_node6"><a xlink:href="class_ogre_1_1_compositor_shadow_map_target_type_translator.html" target="_top" xlink:title=" ">
<polygon fill="none" stroke="black" points="298.5,-557 298.5,-587 444.5,-587 444.5,-557 298.5,-557"/>
<text text-anchor="start" x="306.5" y="-575" font-family="Helvetica,sans-Serif" font-size="10.00">Ogre::CompositorShadowMap</text>
<text text-anchor="middle" x="371.5" y="-564" font-family="Helvetica,sans-Serif" font-size="10.00">TargetTypeTranslator</text>
</a>
</g>
</g>
<!-- Node1&#45;&gt;Node6 -->
<g id="edge5" class="edge">
<title>Node1&#45;&gt;Node6</title>
<path fill="none" stroke="midnightblue" d="M202.73,-364.53C210.41,-404.68 233.49,-496.9 290,-547 294.38,-550.88 299.36,-554.16 304.64,-556.93"/>
<polygon fill="midnightblue" stroke="midnightblue" points="206.18,-363.89 200.96,-354.67 199.29,-365.13 206.18,-363.89"/>
</g>
<!-- Node7 -->
<g id="node7" class="node">
<title>Node7</title>
<g id="a_node7"><a xlink:href="class_ogre_1_1_compositor_target_translator.html" target="_top" xlink:title=" ">
<polygon fill="none" stroke="black" points="290,-518.5 290,-537.5 453,-537.5 453,-518.5 290,-518.5"/>
<text text-anchor="middle" x="371.5" y="-525.5" font-family="Helvetica,sans-Serif" font-size="10.00">Ogre::CompositorTargetTranslator</text>
</a>
</g>
</g>
<!-- Node1&#45;&gt;Node7 -->
<g id="edge6" class="edge">
<title>Node1&#45;&gt;Node7</title>
<path fill="none" stroke="midnightblue" d="M204.79,-364.74C215.12,-399.31 241.31,-470.7 290,-508 295.72,-512.38 302.27,-515.81 309.12,-518.5"/>
<polygon fill="midnightblue" stroke="midnightblue" points="208.09,-363.55 201.99,-354.89 201.36,-365.47 208.09,-363.55"/>
</g>
<!-- Node8 -->
<g id="node8" class="node">
<title>Node8</title>
<g id="a_node8"><a xlink:href="class_ogre_1_1_compositor_texture_base_translator.html" target="_top" xlink:title=" ">
<polygon fill="none" stroke="black" points="298.5,-469 298.5,-499 444.5,-499 444.5,-469 298.5,-469"/>
<text text-anchor="start" x="306.5" y="-487" font-family="Helvetica,sans-Serif" font-size="10.00">Ogre::CompositorTextureBase</text>
<text text-anchor="middle" x="371.5" y="-476" font-family="Helvetica,sans-Serif" font-size="10.00">Translator</text>
</a>
</g>
</g>
<!-- Node1&#45;&gt;Node8 -->
<g id="edge7" class="edge">
<title>Node1&#45;&gt;Node8</title>
<path fill="none" stroke="midnightblue" d="M209.38,-363.46C223.81,-388.68 253,-433.66 290,-459 295.67,-462.89 301.98,-466.19 308.49,-468.99"/>
<polygon fill="midnightblue" stroke="midnightblue" points="212.35,-361.59 204.43,-354.55 206.23,-364.99 212.35,-361.59"/>
</g>
<!-- Node12 -->
<g id="node12" class="node">
<title>Node12</title>
<g id="a_node12"><a xlink:href="class_ogre_1_1_gpu_program_translator.html" target="_top" xlink:title=" ">
<polygon fill="none" stroke="black" points="301.5,-430.5 301.5,-449.5 441.5,-449.5 441.5,-430.5 301.5,-430.5"/>
<text text-anchor="middle" x="371.5" y="-437.5" font-family="Helvetica,sans-Serif" font-size="10.00">Ogre::GpuProgramTranslator</text>
</a>
</g>
</g>
<!-- Node1&#45;&gt;Node12 -->
<g id="edge11" class="edge">
<title>Node1&#45;&gt;Node12</title>
<path fill="none" stroke="midnightblue" d="M215.27,-362.33C232.1,-379.76 260.37,-406.13 290,-421 297.7,-424.86 306.21,-427.96 314.73,-430.44"/>
<polygon fill="midnightblue" stroke="midnightblue" points="217.37,-359.46 207.97,-354.58 212.27,-364.26 217.37,-359.46"/>
</g>
<!-- Node13 -->
<g id="node13" class="node">
<title>Node13</title>
<g id="a_node13"><a xlink:href="class_ogre_1_1_hlms_translator.html" target="_top" xlink:title=" ">
<polygon fill="none" stroke="black" points="317,-392.5 317,-411.5 426,-411.5 426,-392.5 317,-392.5"/>
<text text-anchor="middle" x="371.5" y="-399.5" font-family="Helvetica,sans-Serif" font-size="10.00">Ogre::HlmsTranslator</text>
</a>
</g>
</g>
<!-- Node1&#45;&gt;Node13 -->
<g id="edge12" class="edge">
<title>Node1&#45;&gt;Node13</title>
<path fill="none" stroke="midnightblue" d="M228.75,-358.74C246.25,-366.59 269.08,-376.19 290,-383 300.92,-386.56 312.88,-389.74 324.16,-392.45"/>
<polygon fill="midnightblue" stroke="midnightblue" points="230.17,-355.54 219.62,-354.59 227.27,-361.91 230.17,-355.54"/>
</g>
<!-- Node14 -->
<g id="node14" class="node">
<title>Node14</title>
<g id="a_node14"><a xlink:href="class_ogre_1_1_material_translator.html" target="_top" xlink:title=" ">
<polygon fill="none" stroke="black" points="311.5,-354.5 311.5,-373.5 431.5,-373.5 431.5,-354.5 311.5,-354.5"/>
<text text-anchor="middle" x="371.5" y="-361.5" font-family="Helvetica,sans-Serif" font-size="10.00">Ogre::MaterialTranslator</text>
</a>
</g>
</g>
<!-- Node1&#45;&gt;Node14 -->
<g id="edge13" class="edge">
<title>Node1&#45;&gt;Node14</title>
<path fill="none" stroke="midnightblue" d="M264.12,-352.18C279.65,-353.91 296.15,-355.74 311.42,-357.44"/>
<polygon fill="midnightblue" stroke="midnightblue" points="264.4,-348.69 254.08,-351.06 263.63,-355.65 264.4,-348.69"/>
</g>
<!-- Node15 -->
<g id="node15" class="node">
<title>Node15</title>
<g id="a_node15"><a xlink:href="class_ogre_1_1_particle_affector_translator.html" target="_top" xlink:title=" ">
<polygon fill="none" stroke="black" points="295.5,-316.5 295.5,-335.5 447.5,-335.5 447.5,-316.5 295.5,-316.5"/>
<text text-anchor="middle" x="371.5" y="-323.5" font-family="Helvetica,sans-Serif" font-size="10.00">Ogre::ParticleAffectorTranslator</text>
</a>
</g>
</g>
<!-- Node1&#45;&gt;Node15 -->
<g id="edge14" class="edge">
<title>Node1&#45;&gt;Node15</title>
<path fill="none" stroke="midnightblue" d="M264.09,-337.82C274.26,-336.69 284.85,-335.52 295.24,-334.36"/>
<polygon fill="midnightblue" stroke="midnightblue" points="263.63,-334.35 254.08,-338.94 264.4,-341.31 263.63,-334.35"/>
</g>
<!-- Node16 -->
<g id="node16" class="node">
<title>Node16</title>
<g id="a_node16"><a xlink:href="class_ogre_1_1_particle_emitter_translator.html" target="_top" xlink:title=" ">
<polygon fill="none" stroke="black" points="297,-278.5 297,-297.5 446,-297.5 446,-278.5 297,-278.5"/>
<text text-anchor="middle" x="371.5" y="-285.5" font-family="Helvetica,sans-Serif" font-size="10.00">Ogre::ParticleEmitterTranslator</text>
</a>
</g>
</g>
<!-- Node1&#45;&gt;Node16 -->
<g id="edge15" class="edge">
<title>Node1&#45;&gt;Node16</title>
<path fill="none" stroke="midnightblue" d="M228.75,-331.26C246.25,-323.41 269.08,-313.81 290,-307 300.92,-303.44 312.88,-300.26 324.16,-297.55"/>
<polygon fill="midnightblue" stroke="midnightblue" points="227.27,-328.09 219.62,-335.41 230.17,-334.46 227.27,-328.09"/>
</g>
<!-- Node17 -->
<g id="node17" class="node">
<title>Node17</title>
<g id="a_node17"><a xlink:href="class_ogre_1_1_particle_system_translator.html" target="_top" xlink:title=" ">
<polygon fill="none" stroke="black" points="295.5,-240.5 295.5,-259.5 447.5,-259.5 447.5,-240.5 295.5,-240.5"/>
<text text-anchor="middle" x="371.5" y="-247.5" font-family="Helvetica,sans-Serif" font-size="10.00">Ogre::ParticleSystemTranslator</text>
</a>
</g>
</g>
<!-- Node1&#45;&gt;Node17 -->
<g id="edge16" class="edge">
<title>Node1&#45;&gt;Node17</title>
<path fill="none" stroke="midnightblue" d="M215.27,-327.67C232.1,-310.24 260.37,-283.87 290,-269 297.7,-265.14 306.21,-262.04 314.73,-259.56"/>
<polygon fill="midnightblue" stroke="midnightblue" points="212.27,-325.74 207.97,-335.42 217.37,-330.54 212.27,-325.74"/>
</g>
<!-- Node18 -->
<g id="node18" class="node">
<title>Node18</title>
<g id="a_node18"><a xlink:href="class_ogre_1_1_pass_translator.html" target="_top" xlink:title=" ">
<polygon fill="none" stroke="black" points="317.5,-202.5 317.5,-221.5 425.5,-221.5 425.5,-202.5 317.5,-202.5"/>
<text text-anchor="middle" x="371.5" y="-209.5" font-family="Helvetica,sans-Serif" font-size="10.00">Ogre::PassTranslator</text>
</a>
</g>
</g>
<!-- Node1&#45;&gt;Node18 -->
<g id="edge17" class="edge">
<title>Node1&#45;&gt;Node18</title>
<path fill="none" stroke="midnightblue" d="M209.14,-326.18C223.29,-300.52 252.15,-255.04 290,-231 298.24,-225.77 307.79,-221.97 317.36,-219.22"/>
<polygon fill="midnightblue" stroke="midnightblue" points="205.92,-324.78 204.3,-335.25 212.1,-328.07 205.92,-324.78"/>
</g>
<!-- Node19 -->
<g id="node19" class="node">
<title>Node19</title>
<g id="a_node19"><a xlink:href="class_ogre_1_1_r_t_shader_1_1_s_g_script_translator.html" target="_top" xlink:title="This class responsible for translating core features of the RT Shader System for Ogre material script...">
<polygon fill="none" stroke="black" points="306.5,-153 306.5,-183 436.5,-183 436.5,-153 306.5,-153"/>
<text text-anchor="start" x="314.5" y="-171" font-family="Helvetica,sans-Serif" font-size="10.00">Ogre::RTShader::SGScript</text>
<text text-anchor="middle" x="371.5" y="-160" font-family="Helvetica,sans-Serif" font-size="10.00">Translator</text>
</a>
</g>
</g>
<!-- Node1&#45;&gt;Node19 -->
<g id="edge18" class="edge">
<title>Node1&#45;&gt;Node19</title>
<path fill="none" stroke="midnightblue" d="M205.87,-325.51C217.43,-293.18 244.92,-228.53 290,-193 294.94,-189.1 300.5,-185.81 306.31,-183.03"/>
<polygon fill="midnightblue" stroke="midnightblue" points="202.5,-324.55 202.56,-335.14 209.12,-326.82 202.5,-324.55"/>
</g>
<!-- Node20 -->
<g id="node20" class="node">
<title>Node20</title>
<g id="a_node20"><a xlink:href="class_ogre_1_1_shared_params_translator.html" target="_top" xlink:title=" ">
<polygon fill="none" stroke="black" points="296.5,-114.5 296.5,-133.5 446.5,-133.5 446.5,-114.5 296.5,-114.5"/>
<text text-anchor="middle" x="371.5" y="-121.5" font-family="Helvetica,sans-Serif" font-size="10.00">Ogre::SharedParamsTranslator</text>
</a>
</g>
</g>
<!-- Node1&#45;&gt;Node20 -->
<g id="edge19" class="edge">
<title>Node1&#45;&gt;Node20</title>
<path fill="none" stroke="midnightblue" d="M202.46,-325.15C209.62,-284.4 231.79,-191.11 290,-143 294.65,-139.16 299.94,-136.06 305.53,-133.58"/>
<polygon fill="midnightblue" stroke="midnightblue" points="198.98,-324.73 200.82,-335.17 205.89,-325.86 198.98,-324.73"/>
</g>
<!-- Node21 -->
<g id="node21" class="node">
<title>Node21</title>
<g id="a_node21"><a xlink:href="class_ogre_1_1_technique_translator.html" target="_top" xlink:title=" ">
<polygon fill="none" stroke="black" points="306,-76.5 306,-95.5 437,-95.5 437,-76.5 306,-76.5"/>
<text text-anchor="middle" x="371.5" y="-83.5" font-family="Helvetica,sans-Serif" font-size="10.00">Ogre::TechniqueTranslator</text>
</a>
</g>
</g>
<!-- Node1&#45;&gt;Node21 -->
<g id="edge20" class="edge">
<title>Node1&#45;&gt;Node21</title>
<path fill="none" stroke="midnightblue" d="M200.87,-325.32C205.17,-279.35 222.47,-164.35 290,-105 294.64,-100.92 299.99,-97.68 305.68,-95.11"/>
<polygon fill="midnightblue" stroke="midnightblue" points="197.37,-325.19 200.03,-335.44 204.34,-325.76 197.37,-325.19"/>
</g>
<!-- Node22 -->
<g id="node22" class="node">
<title>Node22</title>
<g id="a_node22"><a xlink:href="class_ogre_1_1_texture_source_translator.html" target="_top" xlink:title=" ">
<polygon fill="none" stroke="black" points="297,-38.5 297,-57.5 446,-57.5 446,-38.5 297,-38.5"/>
<text text-anchor="middle" x="371.5" y="-45.5" font-family="Helvetica,sans-Serif" font-size="10.00">Ogre::TextureSourceTranslator</text>
</a>
</g>
</g>
<!-- Node1&#45;&gt;Node22 -->
<g id="edge21" class="edge">
<title>Node1&#45;&gt;Node22</title>
<path fill="none" stroke="midnightblue" d="M199.72,-325.05C201.4,-274 213.25,-137.63 290,-67 294.12,-63.21 298.85,-60.13 303.92,-57.64"/>
<polygon fill="midnightblue" stroke="midnightblue" points="196.21,-325.28 199.48,-335.36 203.21,-325.44 196.21,-325.28"/>
</g>
<!-- Node23 -->
<g id="node23" class="node">
<title>Node23</title>
<g id="a_node23"><a xlink:href="class_ogre_1_1_texture_unit_translator.html" target="_top" xlink:title=" ">
<polygon fill="none" stroke="black" points="303.5,-0.5 303.5,-19.5 439.5,-19.5 439.5,-0.5 303.5,-0.5"/>
<text text-anchor="middle" x="371.5" y="-7.5" font-family="Helvetica,sans-Serif" font-size="10.00">Ogre::TextureUnitTranslator</text>
</a>
</g>
</g>
<!-- Node1&#45;&gt;Node23 -->
<g id="edge22" class="edge">
<title>Node1&#45;&gt;Node23</title>
<path fill="none" stroke="midnightblue" d="M198.8,-325.01C198.01,-269.33 203.84,-111.19 290,-29 293.95,-25.23 298.5,-22.17 303.38,-19.67"/>
<polygon fill="midnightblue" stroke="midnightblue" points="195.31,-325.36 199.04,-335.27 202.31,-325.19 195.31,-325.36"/>
</g>
<!-- Node2 -->
<g id="node2" class="node">
<title>Node2</title>
<g id="a_node2"><a xlink:href="class_ogre_1_1_allocated_object.html" target="_top" xlink:title="Superclass for all objects that wish to use custom memory allocators when their new / delete operator...">
<polygon fill="none" stroke="black" points="0,-335.5 0,-354.5 107,-354.5 107,-335.5 0,-335.5"/>
<text text-anchor="middle" x="53.5" y="-342.5" font-family="Helvetica,sans-Serif" font-size="10.00">ScriptTranslatorAlloc</text>
</a>
</g>
</g>
<!-- Node2&#45;&gt;Node1 -->
<g id="edge1" class="edge">
<title>Node2&#45;&gt;Node1</title>
<path fill="none" stroke="midnightblue" d="M117.56,-345C126.03,-345 134.66,-345 142.96,-345"/>
<polygon fill="midnightblue" stroke="midnightblue" points="117.34,-341.5 107.34,-345 117.34,-348.5 117.34,-341.5"/>
</g>
<!-- Node9 -->
<g id="node9" class="node">
<title>Node9</title>
<g id="a_node9"><a xlink:href="class_ogre_1_1_compositor_node_translator.html" target="_top" xlink:title=" ">
<polygon fill="none" stroke="black" points="489,-518.5 489,-537.5 647,-537.5 647,-518.5 489,-518.5"/>
<text text-anchor="middle" x="568" y="-525.5" font-family="Helvetica,sans-Serif" font-size="10.00">Ogre::CompositorNodeTranslator</text>
</a>
</g>
</g>
<!-- Node8&#45;&gt;Node9 -->
<g id="edge8" class="edge">
<title>Node8&#45;&gt;Node9</title>
<path fill="none" stroke="midnightblue" d="M448.71,-501.24C474.65,-507.11 502.69,-513.45 524.95,-518.49"/>
<polygon fill="midnightblue" stroke="midnightblue" points="449.42,-497.81 438.89,-499.02 447.87,-504.64 449.42,-497.81"/>
</g>
<!-- Node10 -->
<g id="node10" class="node">
<title>Node10</title>
<g id="a_node10"><a xlink:href="class_ogre_1_1_compositor_shadow_node_translator.html" target="_top" xlink:title=" ">
<polygon fill="none" stroke="black" points="493,-469 493,-499 643,-499 643,-469 493,-469"/>
<text text-anchor="start" x="501" y="-487" font-family="Helvetica,sans-Serif" font-size="10.00">Ogre::CompositorShadowNode</text>
<text text-anchor="middle" x="568" y="-476" font-family="Helvetica,sans-Serif" font-size="10.00">Translator</text>
</a>
</g>
</g>
<!-- Node8&#45;&gt;Node10 -->
<g id="edge9" class="edge">
<title>Node8&#45;&gt;Node10</title>
<path fill="none" stroke="midnightblue" d="M454.68,-484C467.29,-484 480.26,-484 492.69,-484"/>
<polygon fill="midnightblue" stroke="midnightblue" points="454.65,-480.5 444.65,-484 454.65,-487.5 454.65,-480.5"/>
</g>
<!-- Node11 -->
<g id="node11" class="node">
<title>Node11</title>
<g id="a_node11"><a xlink:href="class_ogre_1_1_compositor_workspace_translator.html" target="_top" xlink:title=" ">
<polygon fill="none" stroke="black" points="498,-420 498,-450 638,-450 638,-420 498,-420"/>
<text text-anchor="start" x="506" y="-438" font-family="Helvetica,sans-Serif" font-size="10.00">Ogre::CompositorWorkspace</text>
<text text-anchor="middle" x="568" y="-427" font-family="Helvetica,sans-Serif" font-size="10.00">Translator</text>
</a>
</g>
</g>
<!-- Node8&#45;&gt;Node11 -->
<g id="edge10" class="edge">
<title>Node8&#45;&gt;Node11</title>
<path fill="none" stroke="midnightblue" d="M442.16,-466.45C463.52,-461.07 486.81,-455.2 507.43,-450.01"/>
<polygon fill="midnightblue" stroke="midnightblue" points="441.02,-463.13 432.18,-468.97 442.73,-469.92 441.02,-463.13"/>
</g>
</g>
</svg>
