<?xml version="1.0" encoding="UTF-8" standalone="no"?>
<!DOCTYPE svg PUBLIC "-//W3C//DTD SVG 1.1//EN"
 "http://www.w3.org/Graphics/SVG/1.1/DTD/svg11.dtd">
<!-- Generated by graphviz version 2.44.0 ()
 -->
<!-- Title: Ogre::HighLevelGpuProgramFactory Pages: 1 -->
<svg width="459pt" height="306pt"
 viewBox="0.00 0.00 459.00 305.50" xmlns="http://www.w3.org/2000/svg" xmlns:xlink="http://www.w3.org/1999/xlink">
<g id="graph0" class="graph" transform="scale(1 1) rotate(0) translate(4 301.5)">
<title>Ogre::HighLevelGpuProgramFactory</title>
<!-- Node1 -->
<g id="node1" class="node">
<title>Node1</title>
<g id="a_node1"><a xlink:title="Interface definition for factories of HighLevelGpuProgram.">
<polygon fill="#bfbfbf" stroke="black" points="107,-139.5 107,-169.5 248,-169.5 248,-139.5 107,-139.5"/>
<text text-anchor="start" x="115" y="-157.5" font-family="Helvetica,sans-Serif" font-size="10.00">Ogre::HighLevelGpuProgram</text>
<text text-anchor="middle" x="177.5" y="-146.5" font-family="Helvetica,sans-Serif" font-size="10.00">Factory</text>
</a>
</g>
</g>
<!-- Node3 -->
<g id="node3" class="node">
<title>Node3</title>
<g id="a_node3"><a xlink:href="class_ogre_1_1_cg_program_factory.html" target="_top" xlink:title="Factory class for Cg programs.">
<polygon fill="none" stroke="black" points="306,-278 306,-297 429,-297 429,-278 306,-278"/>
<text text-anchor="middle" x="367.5" y="-285" font-family="Helvetica,sans-Serif" font-size="10.00">Ogre::CgProgramFactory</text>
</a>
</g>
</g>
<!-- Node1&#45;&gt;Node3 -->
<g id="edge2" class="edge">
<title>Node1&#45;&gt;Node3</title>
<path fill="none" stroke="midnightblue" d="M193.96,-178.36C212.26,-204.59 245.18,-246 284,-268.5 290.74,-272.41 298.23,-275.51 305.86,-277.97"/>
<polygon fill="midnightblue" stroke="midnightblue" points="196.64,-176.07 188.12,-169.77 190.85,-180 196.64,-176.07"/>
</g>
<!-- Node4 -->
<g id="node4" class="node">
<title>Node4</title>
<g id="a_node4"><a xlink:href="class_ogre_1_1_d3_d11_h_l_s_l_program_factory.html" target="_top" xlink:title="Factory class for D3D11 HLSL programs.">
<polygon fill="none" stroke="black" points="284,-240 284,-259 451,-259 451,-240 284,-240"/>
<text text-anchor="middle" x="367.5" y="-247" font-family="Helvetica,sans-Serif" font-size="10.00">Ogre::D3D11HLSLProgramFactory</text>
</a>
</g>
</g>
<!-- Node1&#45;&gt;Node4 -->
<g id="edge3" class="edge">
<title>Node1&#45;&gt;Node4</title>
<path fill="none" stroke="midnightblue" d="M202.88,-176.43C223.2,-193.58 253.64,-216.75 284,-230.5 292.43,-234.32 301.71,-237.41 310.91,-239.9"/>
<polygon fill="midnightblue" stroke="midnightblue" points="204.95,-173.59 195.08,-169.72 200.38,-178.89 204.95,-173.59"/>
</g>
<!-- Node5 -->
<g id="node5" class="node">
<title>Node5</title>
<g id="a_node5"><a xlink:href="class_ogre_1_1_d3_d9_h_l_s_l_program_factory.html" target="_top" xlink:title="Factory class for D3D9 HLSL programs.">
<polygon fill="none" stroke="black" points="287,-202 287,-221 448,-221 448,-202 287,-202"/>
<text text-anchor="middle" x="367.5" y="-209" font-family="Helvetica,sans-Serif" font-size="10.00">Ogre::D3D9HLSLProgramFactory</text>
</a>
</g>
</g>
<!-- Node1&#45;&gt;Node5 -->
<g id="edge4" class="edge">
<title>Node1&#45;&gt;Node5</title>
<path fill="none" stroke="midnightblue" d="M226.37,-173.11C244.29,-179.71 264.93,-186.89 284,-192.5 295.7,-195.94 308.49,-199.15 320.43,-201.91"/>
<polygon fill="midnightblue" stroke="midnightblue" points="227.31,-169.72 216.72,-169.51 224.87,-176.28 227.31,-169.72"/>
</g>
<!-- Node6 -->
<g id="node6" class="node">
<title>Node6</title>
<g id="a_node6"><a xlink:href="class_ogre_1_1_g_l_s_l_e_s_cg_program_factory.html" target="_top" xlink:title="Factory class for GLSL ES programs.">
<polygon fill="none" stroke="black" points="286.5,-164 286.5,-183 448.5,-183 448.5,-164 286.5,-164"/>
<text text-anchor="middle" x="367.5" y="-171" font-family="Helvetica,sans-Serif" font-size="10.00">Ogre::GLSLESCgProgramFactory</text>
</a>
</g>
</g>
<!-- Node1&#45;&gt;Node6 -->
<g id="edge5" class="edge">
<title>Node1&#45;&gt;Node6</title>
<path fill="none" stroke="midnightblue" d="M258.26,-162.56C267.58,-163.5 277.09,-164.46 286.41,-165.41"/>
<polygon fill="midnightblue" stroke="midnightblue" points="258.54,-159.07 248.24,-161.55 257.83,-166.04 258.54,-159.07"/>
</g>
<!-- Node7 -->
<g id="node7" class="node">
<title>Node7</title>
<g id="a_node7"><a xlink:href="class_ogre_1_1_g_l_s_l_e_s_shader_factory.html" target="_top" xlink:title="Factory class for GLSL ES programs.">
<polygon fill="none" stroke="black" points="295.5,-126 295.5,-145 439.5,-145 439.5,-126 295.5,-126"/>
<text text-anchor="middle" x="367.5" y="-133" font-family="Helvetica,sans-Serif" font-size="10.00">Ogre::GLSLESShaderFactory</text>
</a>
</g>
</g>
<!-- Node1&#45;&gt;Node7 -->
<g id="edge6" class="edge">
<title>Node1&#45;&gt;Node7</title>
<path fill="none" stroke="midnightblue" d="M258.43,-146.42C270.68,-145.18 283.26,-143.91 295.31,-142.7"/>
<polygon fill="midnightblue" stroke="midnightblue" points="257.83,-142.96 248.24,-147.45 258.54,-149.93 257.83,-142.96"/>
</g>
<!-- Node8 -->
<g id="node8" class="node">
<title>Node8</title>
<g id="a_node8"><a xlink:href="class_ogre_1_1_g_l_s_l_shader_factory.html" target="_top" xlink:title="Factory class for GLSL shaders.">
<polygon fill="none" stroke="black" points="302,-88 302,-107 433,-107 433,-88 302,-88"/>
<text text-anchor="middle" x="367.5" y="-95" font-family="Helvetica,sans-Serif" font-size="10.00">Ogre::GLSLShaderFactory</text>
</a>
</g>
</g>
<!-- Node1&#45;&gt;Node8 -->
<g id="edge7" class="edge">
<title>Node1&#45;&gt;Node8</title>
<path fill="none" stroke="midnightblue" d="M226.37,-135.89C244.29,-129.29 264.93,-122.11 284,-116.5 295.7,-113.06 308.49,-109.85 320.43,-107.09"/>
<polygon fill="midnightblue" stroke="midnightblue" points="224.87,-132.72 216.72,-139.49 227.31,-139.28 224.87,-132.72"/>
</g>
<!-- Node9 -->
<g id="node9" class="node">
<title>Node9</title>
<g id="a_node9"><a xlink:href="class_ogre_1_1_metal_program_factory.html" target="_top" xlink:title="Factory class for Metal programs.">
<polygon fill="none" stroke="black" points="300,-50 300,-69 435,-69 435,-50 300,-50"/>
<text text-anchor="middle" x="367.5" y="-57" font-family="Helvetica,sans-Serif" font-size="10.00">Ogre::MetalProgramFactory</text>
</a>
</g>
</g>
<!-- Node1&#45;&gt;Node9 -->
<g id="edge8" class="edge">
<title>Node1&#45;&gt;Node9</title>
<path fill="none" stroke="midnightblue" d="M202.88,-132.57C223.2,-115.42 253.64,-92.25 284,-78.5 292.43,-74.68 301.71,-71.59 310.91,-69.1"/>
<polygon fill="midnightblue" stroke="midnightblue" points="200.38,-130.11 195.08,-139.28 204.95,-135.41 200.38,-130.11"/>
</g>
<!-- Node10 -->
<g id="node10" class="node">
<title>Node10</title>
<g id="a_node10"><a xlink:href="class_ogre_1_1_unified_high_level_gpu_program_factory.html" target="_top" xlink:title="Factory class for Unified programs.">
<polygon fill="none" stroke="black" points="300.5,-0.5 300.5,-30.5 434.5,-30.5 434.5,-0.5 300.5,-0.5"/>
<text text-anchor="start" x="308.5" y="-18.5" font-family="Helvetica,sans-Serif" font-size="10.00">Ogre::UnifiedHighLevelGpu</text>
<text text-anchor="middle" x="367.5" y="-7.5" font-family="Helvetica,sans-Serif" font-size="10.00">ProgramFactory</text>
</a>
</g>
</g>
<!-- Node1&#45;&gt;Node10 -->
<g id="edge9" class="edge">
<title>Node1&#45;&gt;Node10</title>
<path fill="none" stroke="midnightblue" d="M194.55,-130.7C213.16,-104.88 246.17,-64.17 284,-40.5 290.09,-36.69 296.8,-33.43 303.67,-30.65"/>
<polygon fill="midnightblue" stroke="midnightblue" points="191.49,-128.97 188.59,-139.16 197.21,-133.01 191.49,-128.97"/>
</g>
<!-- Node2 -->
<g id="node2" class="node">
<title>Node2</title>
<g id="a_node2"><a xlink:href="class_ogre_1_1_allocated_object.html" target="_top" xlink:title="Superclass for all objects that wish to use custom memory allocators when their new / delete operator...">
<polygon fill="none" stroke="black" points="0,-145 0,-164 71,-164 71,-145 0,-145"/>
<text text-anchor="middle" x="35.5" y="-152" font-family="Helvetica,sans-Serif" font-size="10.00">FactoryAlloc</text>
</a>
</g>
</g>
<!-- Node2&#45;&gt;Node1 -->
<g id="edge1" class="edge">
<title>Node2&#45;&gt;Node1</title>
<path fill="none" stroke="midnightblue" d="M81.14,-154.5C89.31,-154.5 98.02,-154.5 106.73,-154.5"/>
<polygon fill="midnightblue" stroke="midnightblue" points="81.11,-151 71.11,-154.5 81.11,-158 81.11,-151"/>
</g>
</g>
</svg>
