<?xml version="1.0" encoding="UTF-8" standalone="no"?>
<!DOCTYPE svg PUBLIC "-//W3C//DTD SVG 1.1//EN"
 "http://www.w3.org/Graphics/SVG/1.1/DTD/svg11.dtd">
<!-- Generated by graphviz version 9.0.0 (20230911.1827)
 -->
<!-- Title: Ogre::WireAabb Pages: 1 -->
<svg width="336pt" height="138pt"
 viewBox="0.00 0.00 336.38 137.75" xmlns="http://www.w3.org/2000/svg" xmlns:xlink="http://www.w3.org/1999/xlink">
<g id="graph0" class="graph" transform="scale(1 1) rotate(0) translate(4 133.75)">
<title>Ogre::WireAabb</title>
<!-- Node1 -->
<g id="Node000001" class="node">
<title>Node1</title>
<g id="a_Node000001"><a xlink:title="Helper class to display the Aabb of a MovableObject as lines.">
<polygon fill="#999999" stroke="#666666" points="266,-19.25 182.5,-19.25 182.5,0 266,0 266,-19.25"/>
<text text-anchor="middle" x="224.25" y="-5.75" font-family="Helvetica,sans-Serif" font-size="10.00">Ogre::WireAabb</text>
</a>
</g>
</g>
<!-- Node2 -->
<g id="Node000002" class="node">
<title>Node2</title>
<g id="a_Node000002"><a xlink:href="class_ogre_1_1_movable_object.html" target="_top" xlink:title="Abstract class defining a movable object in a scene.">
<polygon fill="white" stroke="#666666" points="219.62,-74.5 112.88,-74.5 112.88,-55.25 219.62,-55.25 219.62,-74.5"/>
<text text-anchor="middle" x="166.25" y="-61" font-family="Helvetica,sans-Serif" font-size="10.00">Ogre::MovableObject</text>
</a>
</g>
</g>
<!-- Node2&#45;&gt;Node1 -->
<g id="edge1_Node000001_Node000002" class="edge">
<title>Node2&#45;&gt;Node1</title>
<g id="a_edge1_Node000001_Node000002"><a xlink:title=" ">
<path fill="none" stroke="#63b8ff" d="M184.51,-47.11C194.47,-37.97 206.39,-27.03 214.56,-19.52"/>
<polygon fill="#63b8ff" stroke="#63b8ff" points="182.2,-44.48 177.2,-53.82 186.94,-49.63 182.2,-44.48"/>
</a>
</g>
</g>
<!-- Node3 -->
<g id="Node000003" class="node">
<title>Node3</title>
<g id="a_Node000003"><a xlink:href="class_ogre_1_1_animable_object.html" target="_top" xlink:title="Defines an interface to classes which have one or more AnimableValue instances to expose.">
<polygon fill="white" stroke="#666666" points="110.5,-129.75 0,-129.75 0,-110.5 110.5,-110.5 110.5,-129.75"/>
<text text-anchor="middle" x="55.25" y="-116.25" font-family="Helvetica,sans-Serif" font-size="10.00">Ogre::AnimableObject</text>
</a>
</g>
</g>
<!-- Node3&#45;&gt;Node2 -->
<g id="edge2_Node000002_Node000003" class="edge">
<title>Node3&#45;&gt;Node2</title>
<g id="a_edge2_Node000002_Node000003"><a xlink:title=" ">
<path fill="none" stroke="#63b8ff" d="M84.43,-105.12C104.32,-95.58 130.08,-83.23 147.33,-74.95"/>
<polygon fill="#63b8ff" stroke="#63b8ff" points="82.95,-101.96 75.44,-109.44 85.97,-108.27 82.95,-101.96"/>
</a>
</g>
</g>
<!-- Node4 -->
<g id="Node000004" class="node">
<title>Node4</title>
<g id="a_Node000004"><a xlink:href="class_ogre_1_1_allocated_object.html" target="_top" xlink:title="Superclass for all objects that wish to use custom memory allocators when their new / delete operator...">
<polygon fill="white" stroke="#666666" points="203.5,-129.75 129,-129.75 129,-110.5 203.5,-110.5 203.5,-129.75"/>
<text text-anchor="middle" x="166.25" y="-116.25" font-family="Helvetica,sans-Serif" font-size="10.00">MovableAlloc</text>
</a>
</g>
</g>
<!-- Node4&#45;&gt;Node2 -->
<g id="edge3_Node000002_Node000004" class="edge">
<title>Node4&#45;&gt;Node2</title>
<g id="a_edge3_Node000002_Node000004"><a xlink:title=" ">
<path fill="none" stroke="#63b8ff" d="M166.25,-98.88C166.25,-90.59 166.25,-81.42 166.25,-74.86"/>
<polygon fill="#63b8ff" stroke="#63b8ff" points="162.75,-98.82 166.25,-108.82 169.75,-98.82 162.75,-98.82"/>
</a>
</g>
</g>
<!-- Node5 -->
<g id="Node000005" class="node">
<title>Node5</title>
<g id="a_Node000005"><a xlink:href="class_ogre_1_1_id_object.html" target="_top" xlink:title=" ">
<polygon fill="white" stroke="#666666" points="299.38,-129.75 221.12,-129.75 221.12,-110.5 299.38,-110.5 299.38,-129.75"/>
<text text-anchor="middle" x="260.25" y="-116.25" font-family="Helvetica,sans-Serif" font-size="10.00">Ogre::IdObject</text>
</a>
</g>
</g>
<!-- Node5&#45;&gt;Node2 -->
<g id="edge4_Node000002_Node000005" class="edge">
<title>Node5&#45;&gt;Node2</title>
<g id="a_edge4_Node000002_Node000005"><a xlink:title=" ">
<path fill="none" stroke="#63b8ff" d="M234.6,-104.59C217.89,-95.13 196.61,-83.08 182.27,-74.95"/>
<polygon fill="#63b8ff" stroke="#63b8ff" points="232.56,-107.46 242.99,-109.35 236.01,-101.37 232.56,-107.46"/>
</a>
</g>
</g>
<!-- Node6 -->
<g id="Node000006" class="node">
<title>Node6</title>
<g id="a_Node000006"><a xlink:href="class_ogre_1_1_renderable.html" target="_top" xlink:title="Abstract class defining the interface all renderable objects must implement.">
<polygon fill="white" stroke="#666666" points="328.38,-74.5 238.12,-74.5 238.12,-55.25 328.38,-55.25 328.38,-74.5"/>
<text text-anchor="middle" x="283.25" y="-61" font-family="Helvetica,sans-Serif" font-size="10.00">Ogre::Renderable</text>
</a>
</g>
</g>
<!-- Node6&#45;&gt;Node1 -->
<g id="edge5_Node000001_Node000006" class="edge">
<title>Node6&#45;&gt;Node1</title>
<g id="a_edge5_Node000001_Node000006"><a xlink:title=" ">
<path fill="none" stroke="#63b8ff" d="M264.98,-47.39C254.79,-38.19 242.51,-27.1 234.11,-19.52"/>
<polygon fill="#63b8ff" stroke="#63b8ff" points="262.35,-49.73 272.12,-53.83 267.04,-44.53 262.35,-49.73"/>
</a>
</g>
</g>
</g>
</svg>
