<?xml version="1.0" encoding="UTF-8" standalone="no"?>
<!DOCTYPE svg PUBLIC "-//W3C//DTD SVG 1.1//EN"
 "http://www.w3.org/Graphics/SVG/1.1/DTD/svg11.dtd">
<!-- Generated by graphviz version 2.44.0 ()
 -->
<!-- Title: Ogre::DepthBuffer Pages: 1 -->
<svg width="390pt" height="180pt"
 viewBox="0.00 0.00 390.00 180.00" xmlns="http://www.w3.org/2000/svg" xmlns:xlink="http://www.w3.org/1999/xlink">
<g id="graph0" class="graph" transform="scale(1 1) rotate(0) translate(4 176)">
<title>Ogre::DepthBuffer</title>
<!-- Node1 -->
<g id="node1" class="node">
<title>Node1</title>
<g id="a_node1"><a xlink:title="An abstract class that contains a depth/stencil buffer.">
<polygon fill="#bfbfbf" stroke="black" points="122,-76.5 122,-95.5 215,-95.5 215,-76.5 122,-76.5"/>
<text text-anchor="middle" x="168.5" y="-83.5" font-family="Helvetica,sans-Serif" font-size="10.00">Ogre::DepthBuffer</text>
</a>
</g>
</g>
<!-- Node3 -->
<g id="node3" class="node">
<title>Node3</title>
<g id="a_node3"><a xlink:href="class_ogre_1_1_d3_d11_depth_buffer.html" target="_top" xlink:title=" ">
<polygon fill="none" stroke="black" points="255.5,-152.5 255.5,-171.5 377.5,-171.5 377.5,-152.5 255.5,-152.5"/>
<text text-anchor="middle" x="316.5" y="-159.5" font-family="Helvetica,sans-Serif" font-size="10.00">Ogre::D3D11DepthBuffer</text>
</a>
</g>
</g>
<!-- Node1&#45;&gt;Node3 -->
<g id="edge2" class="edge">
<title>Node1&#45;&gt;Node3</title>
<path fill="none" stroke="midnightblue" d="M188.59,-102.05C204.44,-114.68 228.03,-131.95 251,-143 258.68,-146.69 267.22,-149.83 275.52,-152.42"/>
<polygon fill="midnightblue" stroke="midnightblue" points="190.6,-99.17 180.64,-95.57 186.18,-104.6 190.6,-99.17"/>
</g>
<!-- Node4 -->
<g id="node4" class="node">
<title>Node4</title>
<g id="a_node4"><a xlink:href="class_ogre_1_1_d3_d9_depth_buffer.html" target="_top" xlink:title=" ">
<polygon fill="none" stroke="black" points="258,-114.5 258,-133.5 375,-133.5 375,-114.5 258,-114.5"/>
<text text-anchor="middle" x="316.5" y="-121.5" font-family="Helvetica,sans-Serif" font-size="10.00">Ogre::D3D9DepthBuffer</text>
</a>
</g>
</g>
<!-- Node1&#45;&gt;Node4 -->
<g id="edge3" class="edge">
<title>Node1&#45;&gt;Node4</title>
<path fill="none" stroke="midnightblue" d="M216.04,-98.11C236.37,-103.4 259.87,-109.52 278.92,-114.48"/>
<polygon fill="midnightblue" stroke="midnightblue" points="216.9,-94.72 206.34,-95.59 215.14,-101.5 216.9,-94.72"/>
</g>
<!-- Node5 -->
<g id="node5" class="node">
<title>Node5</title>
<g id="a_node5"><a xlink:href="class_ogre_1_1_g_l3_plus_depth_buffer.html" target="_top" xlink:title=" ">
<polygon fill="none" stroke="black" points="251,-76.5 251,-95.5 382,-95.5 382,-76.5 251,-76.5"/>
<text text-anchor="middle" x="316.5" y="-83.5" font-family="Helvetica,sans-Serif" font-size="10.00">Ogre::GL3PlusDepthBuffer</text>
</a>
</g>
</g>
<!-- Node1&#45;&gt;Node5 -->
<g id="edge4" class="edge">
<title>Node1&#45;&gt;Node5</title>
<path fill="none" stroke="midnightblue" d="M225.31,-86C233.67,-86 242.35,-86 250.88,-86"/>
<polygon fill="midnightblue" stroke="midnightblue" points="225.29,-82.5 215.29,-86 225.29,-89.5 225.29,-82.5"/>
</g>
<!-- Node6 -->
<g id="node6" class="node">
<title>Node6</title>
<g id="a_node6"><a xlink:href="class_ogre_1_1_g_l_e_s2_depth_buffer.html" target="_top" xlink:title=" ">
<polygon fill="none" stroke="black" points="254,-38.5 254,-57.5 379,-57.5 379,-38.5 254,-38.5"/>
<text text-anchor="middle" x="316.5" y="-45.5" font-family="Helvetica,sans-Serif" font-size="10.00">Ogre::GLES2DepthBuffer</text>
</a>
</g>
</g>
<!-- Node1&#45;&gt;Node6 -->
<g id="edge5" class="edge">
<title>Node1&#45;&gt;Node6</title>
<path fill="none" stroke="midnightblue" d="M216.04,-73.89C236.37,-68.6 259.87,-62.48 278.92,-57.52"/>
<polygon fill="midnightblue" stroke="midnightblue" points="215.14,-70.5 206.34,-76.41 216.9,-77.28 215.14,-70.5"/>
</g>
<!-- Node7 -->
<g id="node7" class="node">
<title>Node7</title>
<g id="a_node7"><a xlink:href="class_ogre_1_1_metal_depth_buffer.html" target="_top" xlink:title=" ">
<polygon fill="none" stroke="black" points="258,-0.5 258,-19.5 375,-19.5 375,-0.5 258,-0.5"/>
<text text-anchor="middle" x="316.5" y="-7.5" font-family="Helvetica,sans-Serif" font-size="10.00">Ogre::MetalDepthBuffer</text>
</a>
</g>
</g>
<!-- Node1&#45;&gt;Node7 -->
<g id="edge6" class="edge">
<title>Node1&#45;&gt;Node7</title>
<path fill="none" stroke="midnightblue" d="M188.59,-69.95C204.44,-57.32 228.03,-40.05 251,-29 258.68,-25.31 267.22,-22.17 275.52,-19.58"/>
<polygon fill="midnightblue" stroke="midnightblue" points="186.18,-67.4 180.64,-76.43 190.6,-72.83 186.18,-67.4"/>
</g>
<!-- Node2 -->
<g id="node2" class="node">
<title>Node2</title>
<g id="a_node2"><a xlink:href="class_ogre_1_1_allocated_object.html" target="_top" xlink:title="Superclass for all objects that wish to use custom memory allocators when their new / delete operator...">
<polygon fill="none" stroke="black" points="0,-76.5 0,-95.5 86,-95.5 86,-76.5 0,-76.5"/>
<text text-anchor="middle" x="43" y="-83.5" font-family="Helvetica,sans-Serif" font-size="10.00">RenderSysAlloc</text>
</a>
</g>
</g>
<!-- Node2&#45;&gt;Node1 -->
<g id="edge1" class="edge">
<title>Node2&#45;&gt;Node1</title>
<path fill="none" stroke="midnightblue" d="M96.3,-86C104.75,-86 113.45,-86 121.73,-86"/>
<polygon fill="midnightblue" stroke="midnightblue" points="96.16,-82.5 86.16,-86 96.16,-89.5 96.16,-82.5"/>
</g>
</g>
</svg>
