<?xml version="1.0" encoding="UTF-8" standalone="no"?>
<!DOCTYPE svg PUBLIC "-//W3C//DTD SVG 1.1//EN"
 "http://www.w3.org/Graphics/SVG/1.1/DTD/svg11.dtd">
<!-- Generated by graphviz version 9.0.0 (20230911.1827)
 -->
<!-- Title: Ogre::TerrainMaterialGenerator::Profile Pages: 1 -->
<svg width="157pt" height="160pt"
 viewBox="0.00 0.00 156.75 160.25" xmlns="http://www.w3.org/2000/svg" xmlns:xlink="http://www.w3.org/1999/xlink">
<g id="graph0" class="graph" transform="scale(1 1) rotate(0) translate(4 156.25)">
<title>Ogre::TerrainMaterialGenerator::Profile</title>
<!-- Node1 -->
<g id="Node000001" class="node">
<title>Node1</title>
<g id="a_Node000001"><a xlink:title="Inner class which should also be subclassed to provide profile&#45;specific material generation.">
<polygon fill="#999999" stroke="#666666" points="148.75,-97 0,-97 0,-66.5 148.75,-66.5 148.75,-97"/>
<text text-anchor="start" x="8" y="-83.5" font-family="Helvetica,sans-Serif" font-size="10.00">Ogre::TerrainMaterialGenerator</text>
<text text-anchor="middle" x="74.38" y="-72.25" font-family="Helvetica,sans-Serif" font-size="10.00">::Profile</text>
</a>
</g>
</g>
<!-- Node3 -->
<g id="Node000003" class="node">
<title>Node3</title>
<g id="a_Node000003"><a xlink:href="class_ogre_1_1_terrain_material_generator_a_1_1_s_m2_profile.html" target="_top" xlink:title="Shader model 2 profile target.">
<polygon fill="white" stroke="#666666" points="148.75,-30.5 0,-30.5 0,0 148.75,0 148.75,-30.5"/>
<text text-anchor="start" x="8" y="-17" font-family="Helvetica,sans-Serif" font-size="10.00">Ogre::TerrainMaterialGenerator</text>
<text text-anchor="middle" x="74.38" y="-5.75" font-family="Helvetica,sans-Serif" font-size="10.00">A::SM2Profile</text>
</a>
</g>
</g>
<!-- Node1&#45;&gt;Node3 -->
<g id="edge2_Node000001_Node000003" class="edge">
<title>Node1&#45;&gt;Node3</title>
<g id="a_edge2_Node000001_Node000003"><a xlink:title=" ">
<path fill="none" stroke="#63b8ff" d="M74.38,-54.81C74.38,-46.64 74.38,-37.91 74.38,-30.83"/>
<polygon fill="#63b8ff" stroke="#63b8ff" points="70.88,-54.6 74.38,-64.6 77.88,-54.6 70.88,-54.6"/>
</a>
</g>
</g>
<!-- Node2 -->
<g id="Node000002" class="node">
<title>Node2</title>
<g id="a_Node000002"><a xlink:href="class_ogre_1_1_allocated_object.html" target="_top" xlink:title="Superclass for all objects that wish to use custom memory allocators when their new / delete operator...">
<polygon fill="white" stroke="#666666" points="108.25,-152.25 40.5,-152.25 40.5,-133 108.25,-133 108.25,-152.25"/>
<text text-anchor="middle" x="74.38" y="-138.75" font-family="Helvetica,sans-Serif" font-size="10.00">TerrainAlloc</text>
</a>
</g>
</g>
<!-- Node2&#45;&gt;Node1 -->
<g id="edge1_Node000001_Node000002" class="edge">
<title>Node2&#45;&gt;Node1</title>
<g id="a_edge1_Node000001_Node000002"><a xlink:title=" ">
<path fill="none" stroke="#63b8ff" d="M74.38,-121.42C74.38,-113.49 74.38,-104.56 74.38,-97.28"/>
<polygon fill="#63b8ff" stroke="#63b8ff" points="70.88,-121.17 74.38,-131.17 77.88,-121.17 70.88,-121.17"/>
</a>
</g>
</g>
</g>
</svg>
