<?xml version="1.0" encoding="UTF-8" standalone="no"?>
<!DOCTYPE svg PUBLIC "-//W3C//DTD SVG 1.1//EN"
 "http://www.w3.org/Graphics/SVG/1.1/DTD/svg11.dtd">
<!-- Generated by graphviz version 9.0.0 (20230911.1827)
 -->
<!-- Title: Ogre::RTShader::ShaderGenerator Pages: 1 -->
<svg width="312pt" height="83pt"
 viewBox="0.00 0.00 312.12 82.50" xmlns="http://www.w3.org/2000/svg" xmlns:xlink="http://www.w3.org/1999/xlink">
<g id="graph0" class="graph" transform="scale(1 1) rotate(0) translate(4 78.5)">
<title>Ogre::RTShader::ShaderGenerator</title>
<!-- Node1 -->
<g id="Node000001" class="node">
<title>Node1</title>
<g id="a_Node000001"><a xlink:title="Shader generator system main interface.">
<polygon fill="#999999" stroke="#666666" points="247.5,-19.25 84.5,-19.25 84.5,0 247.5,0 247.5,-19.25"/>
<text text-anchor="middle" x="166" y="-5.75" font-family="Helvetica,sans-Serif" font-size="10.00">Ogre::RTShader::ShaderGenerator</text>
</a>
</g>
</g>
<!-- Node2 -->
<g id="Node000002" class="node">
<title>Node2</title>
<g id="a_Node000002"><a xlink:href="class_ogre_1_1_singleton.html" target="_top" xlink:title=" ">
<polygon fill="white" stroke="#666666" points="172,-74.5 0,-74.5 0,-55.25 172,-55.25 172,-74.5"/>
<text text-anchor="middle" x="86" y="-61" font-family="Helvetica,sans-Serif" font-size="10.00">Ogre::Singleton&lt; ShaderGenerator &gt;</text>
</a>
</g>
</g>
<!-- Node2&#45;&gt;Node1 -->
<g id="edge1_Node000001_Node000002" class="edge">
<title>Node2&#45;&gt;Node1</title>
<g id="a_edge1_Node000001_Node000002"><a xlink:title=" ">
<path fill="none" stroke="#63b8ff" d="M109.05,-48.53C123.07,-39.2 140.5,-27.6 152.36,-19.7"/>
<polygon fill="#63b8ff" stroke="#63b8ff" points="107.22,-45.55 100.83,-54 111.09,-51.38 107.22,-45.55"/>
</a>
</g>
</g>
<!-- Node3 -->
<g id="Node000003" class="node">
<title>Node3</title>
<g id="a_Node000003"><a xlink:href="class_ogre_1_1_allocated_object.html" target="_top" xlink:title="Superclass for all objects that wish to use custom memory allocators when their new / delete operator...">
<polygon fill="white" stroke="#666666" points="304.12,-74.5 189.88,-74.5 189.88,-55.25 304.12,-55.25 304.12,-74.5"/>
<text text-anchor="middle" x="247" y="-61" font-family="Helvetica,sans-Serif" font-size="10.00">RTShaderSystemAlloc</text>
</a>
</g>
</g>
<!-- Node3&#45;&gt;Node1 -->
<g id="edge2_Node000001_Node000003" class="edge">
<title>Node3&#45;&gt;Node1</title>
<g id="a_edge2_Node000001_Node000003"><a xlink:title=" ">
<path fill="none" stroke="#63b8ff" d="M223.66,-48.53C209.46,-39.2 191.81,-27.6 179.81,-19.7"/>
<polygon fill="#63b8ff" stroke="#63b8ff" points="221.72,-51.44 231.99,-54.01 225.56,-45.59 221.72,-51.44"/>
</a>
</g>
</g>
</g>
</svg>
