<?xml version="1.0" encoding="UTF-8" standalone="no"?>
<!DOCTYPE svg PUBLIC "-//W3C//DTD SVG 1.1//EN"
 "http://www.w3.org/Graphics/SVG/1.1/DTD/svg11.dtd">
<!-- Generated by graphviz version 9.0.0 (20230911.1827)
 -->
<!-- Title: Ogre::v1::BillboardParticleRendererFactory Pages: 1 -->
<svg width="206pt" height="172pt"
 viewBox="0.00 0.00 206.25 171.50" xmlns="http://www.w3.org/2000/svg" xmlns:xlink="http://www.w3.org/1999/xlink">
<g id="graph0" class="graph" transform="scale(1 1) rotate(0) translate(4 167.5)">
<title>Ogre::v1::BillboardParticleRendererFactory</title>
<!-- Node1 -->
<g id="Node000001" class="node">
<title>Node1</title>
<g id="a_Node000001"><a xlink:title="Factory class for BillboardParticleRenderer.">
<polygon fill="#999999" stroke="#666666" points="182.5,-30.5 55.5,-30.5 55.5,0 182.5,0 182.5,-30.5"/>
<text text-anchor="start" x="63.5" y="-17" font-family="Helvetica,sans-Serif" font-size="10.00">Ogre::v1::BillboardParticle</text>
<text text-anchor="middle" x="119" y="-5.75" font-family="Helvetica,sans-Serif" font-size="10.00">RendererFactory</text>
</a>
</g>
</g>
<!-- Node2 -->
<g id="Node000002" class="node">
<title>Node2</title>
<g id="a_Node000002"><a xlink:href="class_ogre_1_1_particle_system_renderer_factory.html" target="_top" xlink:title="Abstract class definition of a factory object for ParticleSystemRenderer.">
<polygon fill="white" stroke="#666666" points="192.25,-97 45.75,-97 45.75,-66.5 192.25,-66.5 192.25,-97"/>
<text text-anchor="start" x="53.75" y="-83.5" font-family="Helvetica,sans-Serif" font-size="10.00">Ogre::ParticleSystemRenderer</text>
<text text-anchor="middle" x="119" y="-72.25" font-family="Helvetica,sans-Serif" font-size="10.00">Factory</text>
</a>
</g>
</g>
<!-- Node2&#45;&gt;Node1 -->
<g id="edge1_Node000001_Node000002" class="edge">
<title>Node2&#45;&gt;Node1</title>
<g id="a_edge1_Node000001_Node000002"><a xlink:title=" ">
<path fill="none" stroke="#63b8ff" d="M119,-54.81C119,-46.64 119,-37.91 119,-30.83"/>
<polygon fill="#63b8ff" stroke="#63b8ff" points="115.5,-54.6 119,-64.6 122.5,-54.6 115.5,-54.6"/>
</a>
</g>
</g>
<!-- Node3 -->
<g id="Node000003" class="node">
<title>Node3</title>
<g id="a_Node000003"><a xlink:href="class_ogre_1_1_factory_obj.html" target="_top" xlink:title=" ">
<polygon fill="white" stroke="#666666" points="130,-163.5 0,-163.5 0,-133 130,-133 130,-163.5"/>
<text text-anchor="start" x="8" y="-150" font-family="Helvetica,sans-Serif" font-size="10.00">Ogre::FactoryObj&lt; Particle</text>
<text text-anchor="middle" x="65" y="-138.75" font-family="Helvetica,sans-Serif" font-size="10.00">SystemRenderer &gt;</text>
</a>
</g>
</g>
<!-- Node3&#45;&gt;Node2 -->
<g id="edge2_Node000002_Node000003" class="edge">
<title>Node3&#45;&gt;Node2</title>
<g id="a_edge2_Node000002_Node000003"><a xlink:title=" ">
<path fill="none" stroke="#63b8ff" d="M84.59,-123.85C92.01,-114.98 100.24,-105.15 106.8,-97.33"/>
<polygon fill="#63b8ff" stroke="#63b8ff" points="81.96,-121.54 78.23,-131.45 87.33,-126.03 81.96,-121.54"/>
</a>
</g>
</g>
<!-- Node4 -->
<g id="Node000004" class="node">
<title>Node4</title>
<g id="a_Node000004"><a xlink:href="class_ogre_1_1_allocated_object.html" target="_top" xlink:title="Superclass for all objects that wish to use custom memory allocators when their new / delete operator...">
<polygon fill="white" stroke="#666666" points="198.25,-157.88 147.75,-157.88 147.75,-138.62 198.25,-138.62 198.25,-157.88"/>
<text text-anchor="middle" x="173" y="-144.38" font-family="Helvetica,sans-Serif" font-size="10.00">FXAlloc</text>
</a>
</g>
</g>
<!-- Node4&#45;&gt;Node2 -->
<g id="edge3_Node000002_Node000004" class="edge">
<title>Node4&#45;&gt;Node2</title>
<g id="a_edge3_Node000002_Node000004"><a xlink:title=" ">
<path fill="none" stroke="#63b8ff" d="M158.35,-129.75C149.77,-119.51 139.08,-106.74 131.01,-97.09"/>
<polygon fill="#63b8ff" stroke="#63b8ff" points="155.42,-131.7 164.52,-137.12 160.78,-127.21 155.42,-131.7"/>
</a>
</g>
</g>
</g>
</svg>
