<?xml version="1.0" encoding="UTF-8" standalone="no"?>
<!DOCTYPE svg PUBLIC "-//W3C//DTD SVG 1.1//EN"
 "http://www.w3.org/Graphics/SVG/1.1/DTD/svg11.dtd">
<!-- Generated by graphviz version 9.0.0 (20230911.1827)
 -->
<!-- Title: Ogre::D3D11CompatBufferInterface Pages: 1 -->
<svg width="176pt" height="138pt"
 viewBox="0.00 0.00 176.25 137.75" xmlns="http://www.w3.org/2000/svg" xmlns:xlink="http://www.w3.org/1999/xlink">
<g id="graph0" class="graph" transform="scale(1 1) rotate(0) translate(4 133.75)">
<title>Ogre::D3D11CompatBufferInterface</title>
<!-- Node1 -->
<g id="Node000001" class="node">
<title>Node1</title>
<g id="a_Node000001"><a xlink:title="In D3D11, const buffers can&#39;t be bound by offset.">
<polygon fill="#999999" stroke="#666666" points="168.25,-19.25 0,-19.25 0,0 168.25,0 168.25,-19.25"/>
<text text-anchor="middle" x="84.12" y="-5.75" font-family="Helvetica,sans-Serif" font-size="10.00">Ogre::D3D11CompatBufferInterface</text>
</a>
</g>
</g>
<!-- Node2 -->
<g id="Node000002" class="node">
<title>Node2</title>
<g id="a_Node000002"><a xlink:href="class_ogre_1_1_d3_d11_buffer_interface_base.html" target="_top" xlink:title="For D3D11, most (if not all) buffers, can be treated with the same code.">
<polygon fill="white" stroke="#666666" points="162.62,-74.5 5.62,-74.5 5.62,-55.25 162.62,-55.25 162.62,-74.5"/>
<text text-anchor="middle" x="84.12" y="-61" font-family="Helvetica,sans-Serif" font-size="10.00">Ogre::D3D11BufferInterfaceBase</text>
</a>
</g>
</g>
<!-- Node2&#45;&gt;Node1 -->
<g id="edge1_Node000001_Node000002" class="edge">
<title>Node2&#45;&gt;Node1</title>
<g id="a_edge1_Node000001_Node000002"><a xlink:title=" ">
<path fill="none" stroke="#63b8ff" d="M84.12,-43.63C84.12,-35.34 84.12,-26.17 84.12,-19.61"/>
<polygon fill="#63b8ff" stroke="#63b8ff" points="80.63,-43.57 84.13,-53.57 87.63,-43.57 80.63,-43.57"/>
</a>
</g>
</g>
<!-- Node3 -->
<g id="Node000003" class="node">
<title>Node3</title>
<g id="a_Node000003"><a xlink:href="class_ogre_1_1_buffer_interface.html" target="_top" xlink:title="Most (if not all) buffers, can be treated with the same code.">
<polygon fill="white" stroke="#666666" points="136.75,-129.75 31.5,-129.75 31.5,-110.5 136.75,-110.5 136.75,-129.75"/>
<text text-anchor="middle" x="84.12" y="-116.25" font-family="Helvetica,sans-Serif" font-size="10.00">Ogre::BufferInterface</text>
</a>
</g>
</g>
<!-- Node3&#45;&gt;Node2 -->
<g id="edge2_Node000002_Node000003" class="edge">
<title>Node3&#45;&gt;Node2</title>
<g id="a_edge2_Node000002_Node000003"><a xlink:title=" ">
<path fill="none" stroke="#63b8ff" d="M84.12,-98.88C84.12,-90.59 84.12,-81.42 84.12,-74.86"/>
<polygon fill="#63b8ff" stroke="#63b8ff" points="80.63,-98.82 84.13,-108.82 87.63,-98.82 80.63,-98.82"/>
</a>
</g>
</g>
</g>
</svg>
