<?xml version="1.0" encoding="UTF-8" standalone="no"?>
<!DOCTYPE svg PUBLIC "-//W3C//DTD SVG 1.1//EN"
 "http://www.w3.org/Graphics/SVG/1.1/DTD/svg11.dtd">
<!-- Generated by graphviz version 9.0.0 (20230911.1827)
 -->
<!-- Title: Ogre::GL3PlusNullTextureTarget Pages: 1 -->
<svg width="212pt" height="204pt"
 viewBox="0.00 0.00 211.88 204.25" xmlns="http://www.w3.org/2000/svg" xmlns:xlink="http://www.w3.org/1999/xlink">
<g id="graph0" class="graph" transform="scale(1 1) rotate(0) translate(4 200.25)">
<title>Ogre::GL3PlusNullTextureTarget</title>
<!-- Node1 -->
<g id="Node000001" class="node">
<title>Node1</title>
<g id="a_Node000001"><a xlink:title=" ">
<polygon fill="#999999" stroke="#666666" points="170,-30.5 40.75,-30.5 40.75,0 170,0 170,-30.5"/>
<text text-anchor="start" x="48.75" y="-17" font-family="Helvetica,sans-Serif" font-size="10.00">Ogre::GL3PlusNullTexture</text>
<text text-anchor="middle" x="105.38" y="-5.75" font-family="Helvetica,sans-Serif" font-size="10.00">Target</text>
</a>
</g>
</g>
<!-- Node2 -->
<g id="Node000002" class="node">
<title>Node2</title>
<g id="a_Node000002"><a xlink:href="class_ogre_1_1_render_texture.html" target="_top" xlink:title="This class represents a RenderTarget that renders to a Texture.">
<polygon fill="white" stroke="#666666" points="157.62,-85.75 53.12,-85.75 53.12,-66.5 157.62,-66.5 157.62,-85.75"/>
<text text-anchor="middle" x="105.38" y="-72.25" font-family="Helvetica,sans-Serif" font-size="10.00">Ogre::RenderTexture</text>
</a>
</g>
</g>
<!-- Node2&#45;&gt;Node1 -->
<g id="edge1_Node000001_Node000002" class="edge">
<title>Node2&#45;&gt;Node1</title>
<g id="a_edge1_Node000001_Node000002"><a xlink:title=" ">
<path fill="none" stroke="#63b8ff" d="M105.38,-54.92C105.38,-46.99 105.38,-38.06 105.38,-30.78"/>
<polygon fill="#63b8ff" stroke="#63b8ff" points="101.88,-54.67 105.38,-64.67 108.88,-54.67 101.88,-54.67"/>
</a>
</g>
</g>
<!-- Node3 -->
<g id="Node000003" class="node">
<title>Node3</title>
<g id="a_Node000003"><a xlink:href="class_ogre_1_1_render_target.html" target="_top" xlink:title="A &#39;canvas&#39; which can receive the results of a rendering operation.">
<polygon fill="white" stroke="#666666" points="155.38,-141 55.38,-141 55.38,-121.75 155.38,-121.75 155.38,-141"/>
<text text-anchor="middle" x="105.38" y="-127.5" font-family="Helvetica,sans-Serif" font-size="10.00">Ogre::RenderTarget</text>
</a>
</g>
</g>
<!-- Node3&#45;&gt;Node2 -->
<g id="edge2_Node000002_Node000003" class="edge">
<title>Node3&#45;&gt;Node2</title>
<g id="a_edge2_Node000002_Node000003"><a xlink:title=" ">
<path fill="none" stroke="#63b8ff" d="M105.38,-110.13C105.38,-101.84 105.38,-92.67 105.38,-86.11"/>
<polygon fill="#63b8ff" stroke="#63b8ff" points="101.88,-110.07 105.38,-120.07 108.88,-110.07 101.88,-110.07"/>
</a>
</g>
</g>
<!-- Node4 -->
<g id="Node000004" class="node">
<title>Node4</title>
<g id="a_Node000004"><a xlink:href="struct_ogre_1_1_gpu_resource.html" target="_top" xlink:title=" ">
<polygon fill="white" stroke="#666666" points="100.75,-196.25 0,-196.25 0,-177 100.75,-177 100.75,-196.25"/>
<text text-anchor="middle" x="50.38" y="-182.75" font-family="Helvetica,sans-Serif" font-size="10.00">Ogre::GpuResource</text>
</a>
</g>
</g>
<!-- Node4&#45;&gt;Node3 -->
<g id="edge3_Node000003_Node000004" class="edge">
<title>Node4&#45;&gt;Node3</title>
<g id="a_edge3_Node000003_Node000004"><a xlink:title=" ">
<path fill="none" stroke="#63b8ff" d="M67.73,-168.82C77.12,-159.73 88.36,-148.85 96.1,-141.36"/>
<polygon fill="#63b8ff" stroke="#63b8ff" points="65.29,-166.31 60.54,-175.78 70.16,-171.34 65.29,-166.31"/>
</a>
</g>
</g>
<!-- Node5 -->
<g id="Node000005" class="node">
<title>Node5</title>
<g id="a_Node000005"><a xlink:href="class_ogre_1_1_allocated_object.html" target="_top" xlink:title="Superclass for all objects that wish to use custom memory allocators when their new / delete operator...">
<polygon fill="white" stroke="#666666" points="203.88,-196.25 118.88,-196.25 118.88,-177 203.88,-177 203.88,-196.25"/>
<text text-anchor="middle" x="161.38" y="-182.75" font-family="Helvetica,sans-Serif" font-size="10.00">RenderSysAlloc</text>
</a>
</g>
</g>
<!-- Node5&#45;&gt;Node3 -->
<g id="edge4_Node000003_Node000005" class="edge">
<title>Node5&#45;&gt;Node3</title>
<g id="a_edge4_Node000003_Node000005"><a xlink:title=" ">
<path fill="none" stroke="#63b8ff" d="M143.74,-168.86C134.13,-159.72 122.62,-148.78 114.73,-141.27"/>
<polygon fill="#63b8ff" stroke="#63b8ff" points="141.12,-171.19 150.78,-175.55 145.94,-166.12 141.12,-171.19"/>
</a>
</g>
</g>
</g>
</svg>
