<?xml version="1.0" encoding="UTF-8" standalone="no"?>
<!DOCTYPE svg PUBLIC "-//W3C//DTD SVG 1.1//EN"
 "http://www.w3.org/Graphics/SVG/1.1/DTD/svg11.dtd">
<!-- Generated by graphviz version 2.44.0 ()
 -->
<!-- Title: Ogre::RenderSystem Pages: 1 -->
<svg width="416pt" height="218pt"
 viewBox="0.00 0.00 416.00 218.00" xmlns="http://www.w3.org/2000/svg" xmlns:xlink="http://www.w3.org/1999/xlink">
<g id="graph0" class="graph" transform="scale(1 1) rotate(0) translate(4 214)">
<title>Ogre::RenderSystem</title>
<!-- Node1 -->
<g id="node1" class="node">
<title>Node1</title>
<g id="a_node1"><a xlink:title="Defines the functionality of a 3D API.">
<polygon fill="#bfbfbf" stroke="black" points="122,-95.5 122,-114.5 228,-114.5 228,-95.5 122,-95.5"/>
<text text-anchor="middle" x="175" y="-102.5" font-family="Helvetica,sans-Serif" font-size="10.00">Ogre::RenderSystem</text>
</a>
</g>
</g>
<!-- Node3 -->
<g id="node3" class="node">
<title>Node3</title>
<g id="a_node3"><a xlink:href="class_ogre_1_1_d3_d11_render_system.html" target="_top" xlink:title="Implementation of DirectX11 as a rendering system.">
<polygon fill="none" stroke="black" points="268.5,-190.5 268.5,-209.5 403.5,-209.5 403.5,-190.5 268.5,-190.5"/>
<text text-anchor="middle" x="336" y="-197.5" font-family="Helvetica,sans-Serif" font-size="10.00">Ogre::D3D11RenderSystem</text>
</a>
</g>
</g>
<!-- Node1&#45;&gt;Node3 -->
<g id="edge2" class="edge">
<title>Node1&#45;&gt;Node3</title>
<path fill="none" stroke="midnightblue" d="M191.59,-122.44C207.98,-139.75 235.33,-165.82 264,-181 271.22,-184.82 279.26,-187.92 287.27,-190.42"/>
<polygon fill="midnightblue" stroke="midnightblue" points="193.82,-119.7 184.46,-114.74 188.68,-124.46 193.82,-119.7"/>
</g>
<!-- Node4 -->
<g id="node4" class="node">
<title>Node4</title>
<g id="a_node4"><a xlink:href="class_ogre_1_1_d3_d9_render_system.html" target="_top" xlink:title="Implementation of DirectX9 as a rendering system.">
<polygon fill="none" stroke="black" points="271,-152.5 271,-171.5 401,-171.5 401,-152.5 271,-152.5"/>
<text text-anchor="middle" x="336" y="-159.5" font-family="Helvetica,sans-Serif" font-size="10.00">Ogre::D3D9RenderSystem</text>
</a>
</g>
</g>
<!-- Node1&#45;&gt;Node4 -->
<g id="edge3" class="edge">
<title>Node1&#45;&gt;Node4</title>
<path fill="none" stroke="midnightblue" d="M205.28,-118.93C222.2,-126.64 244.03,-136.06 264,-143 274,-146.48 284.98,-149.7 295.26,-152.46"/>
<polygon fill="midnightblue" stroke="midnightblue" points="206.49,-115.63 195.94,-114.61 203.55,-121.98 206.49,-115.63"/>
</g>
<!-- Node5 -->
<g id="node5" class="node">
<title>Node5</title>
<g id="a_node5"><a xlink:href="class_ogre_1_1_g_l3_plus_render_system.html" target="_top" xlink:title="Implementation of GL 3 as a rendering system.">
<polygon fill="none" stroke="black" points="264,-114.5 264,-133.5 408,-133.5 408,-114.5 264,-114.5"/>
<text text-anchor="middle" x="336" y="-121.5" font-family="Helvetica,sans-Serif" font-size="10.00">Ogre::GL3PlusRenderSystem</text>
</a>
</g>
</g>
<!-- Node1&#45;&gt;Node5 -->
<g id="edge4" class="edge">
<title>Node1&#45;&gt;Node5</title>
<path fill="none" stroke="midnightblue" d="M238.15,-112.43C246.55,-113.43 255.22,-114.47 263.76,-115.49"/>
<polygon fill="midnightblue" stroke="midnightblue" points="238.41,-108.93 228.06,-111.22 237.58,-115.88 238.41,-108.93"/>
</g>
<!-- Node6 -->
<g id="node6" class="node">
<title>Node6</title>
<g id="a_node6"><a xlink:href="class_ogre_1_1_g_l_e_s2_render_system.html" target="_top" xlink:title="Implementation of GL ES 2.x as a rendering system.">
<polygon fill="none" stroke="black" points="267.5,-76.5 267.5,-95.5 404.5,-95.5 404.5,-76.5 267.5,-76.5"/>
<text text-anchor="middle" x="336" y="-83.5" font-family="Helvetica,sans-Serif" font-size="10.00">Ogre::GLES2RenderSystem</text>
</a>
</g>
</g>
<!-- Node1&#45;&gt;Node6 -->
<g id="edge5" class="edge">
<title>Node1&#45;&gt;Node6</title>
<path fill="none" stroke="midnightblue" d="M238.29,-97.56C247.86,-96.41 257.79,-95.23 267.47,-94.07"/>
<polygon fill="midnightblue" stroke="midnightblue" points="237.58,-94.12 228.06,-98.78 238.41,-101.07 237.58,-94.12"/>
</g>
<!-- Node7 -->
<g id="node7" class="node">
<title>Node7</title>
<g id="a_node7"><a xlink:href="class_ogre_1_1_metal_render_system.html" target="_top" xlink:title="Implementation of Metal as a rendering system.">
<polygon fill="none" stroke="black" points="271,-38.5 271,-57.5 401,-57.5 401,-38.5 271,-38.5"/>
<text text-anchor="middle" x="336" y="-45.5" font-family="Helvetica,sans-Serif" font-size="10.00">Ogre::MetalRenderSystem</text>
</a>
</g>
</g>
<!-- Node1&#45;&gt;Node7 -->
<g id="edge6" class="edge">
<title>Node1&#45;&gt;Node7</title>
<path fill="none" stroke="midnightblue" d="M205.28,-91.07C222.2,-83.36 244.03,-73.94 264,-67 274,-63.52 284.98,-60.3 295.26,-57.54"/>
<polygon fill="midnightblue" stroke="midnightblue" points="203.55,-88.02 195.94,-95.39 206.49,-94.37 203.55,-88.02"/>
</g>
<!-- Node8 -->
<g id="node8" class="node">
<title>Node8</title>
<g id="a_node8"><a xlink:href="class_ogre_1_1_n_u_l_l_render_system.html" target="_top" xlink:title="Implementation of NULL as a rendering system.">
<polygon fill="none" stroke="black" points="269.5,-0.5 269.5,-19.5 402.5,-19.5 402.5,-0.5 269.5,-0.5"/>
<text text-anchor="middle" x="336" y="-7.5" font-family="Helvetica,sans-Serif" font-size="10.00">Ogre::NULLRenderSystem</text>
</a>
</g>
</g>
<!-- Node1&#45;&gt;Node8 -->
<g id="edge7" class="edge">
<title>Node1&#45;&gt;Node8</title>
<path fill="none" stroke="midnightblue" d="M191.59,-87.56C207.98,-70.25 235.33,-44.18 264,-29 271.22,-25.18 279.26,-22.08 287.27,-19.58"/>
<polygon fill="midnightblue" stroke="midnightblue" points="188.68,-85.54 184.46,-95.26 193.82,-90.3 188.68,-85.54"/>
</g>
<!-- Node2 -->
<g id="node2" class="node">
<title>Node2</title>
<g id="a_node2"><a xlink:href="class_ogre_1_1_allocated_object.html" target="_top" xlink:title="Superclass for all objects that wish to use custom memory allocators when their new / delete operator...">
<polygon fill="none" stroke="black" points="0,-95.5 0,-114.5 86,-114.5 86,-95.5 0,-95.5"/>
<text text-anchor="middle" x="43" y="-102.5" font-family="Helvetica,sans-Serif" font-size="10.00">RenderSysAlloc</text>
</a>
</g>
</g>
<!-- Node2&#45;&gt;Node1 -->
<g id="edge1" class="edge">
<title>Node2&#45;&gt;Node1</title>
<path fill="none" stroke="midnightblue" d="M96.48,-105C104.74,-105 113.28,-105 121.54,-105"/>
<polygon fill="midnightblue" stroke="midnightblue" points="96.21,-101.5 86.21,-105 96.21,-108.5 96.21,-101.5"/>
</g>
</g>
</svg>
