<?xml version="1.0" encoding="UTF-8" standalone="no"?>
<!DOCTYPE svg PUBLIC "-//W3C//DTD SVG 1.1//EN"
 "http://www.w3.org/Graphics/SVG/1.1/DTD/svg11.dtd">
<!-- Generated by graphviz version 2.40.1 (20161225.0304)
 -->
<!-- Title: Ogre::AsyncTicket Pages: 1 -->
<svg width="401pt" height="180pt"
 viewBox="0.00 0.00 401.00 180.00" xmlns="http://www.w3.org/2000/svg" xmlns:xlink="http://www.w3.org/1999/xlink">
<g id="graph0" class="graph" transform="scale(1 1) rotate(0) translate(4 176)">
<title>Ogre::AsyncTicket</title>
<!-- Node0 -->
<g id="node1" class="node">
<title>Node0</title>
<polygon fill="#bfbfbf" stroke="#000000" points="123,-76.5 123,-95.5 221,-95.5 221,-76.5 123,-76.5"/>
<text text-anchor="middle" x="172" y="-83.5" font-family="Helvetica,sans-Serif" font-size="10.00" fill="#000000">Ogre::AsyncTicket</text>
</g>
<!-- Node2 -->
<g id="node3" class="node">
<title>Node2</title>
<g id="a_node3"><a xlink:href="class_ogre_1_1_d3_d11_async_ticket.html" target="_top" xlink:title="Ogre::D3D11AsyncTicket">
<polygon fill="none" stroke="#000000" points="260.5,-152.5 260.5,-171.5 389.5,-171.5 389.5,-152.5 260.5,-152.5"/>
<text text-anchor="middle" x="325" y="-159.5" font-family="Helvetica,sans-Serif" font-size="10.00" fill="#000000">Ogre::D3D11AsyncTicket</text>
</a>
</g>
</g>
<!-- Node0&#45;&gt;Node2 -->
<g id="edge2" class="edge">
<title>Node0&#45;&gt;Node2</title>
<path fill="none" stroke="#191970" d="M191.9826,-102.0896C208.5522,-114.7481 233.1704,-132.0254 257,-143 265.1276,-146.7431 274.1493,-149.8965 282.8943,-152.492"/>
<polygon fill="#191970" stroke="#191970" points="193.6998,-98.9904 183.6615,-95.6017 189.3956,-104.5107 193.6998,-98.9904"/>
</g>
<!-- Node3 -->
<g id="node4" class="node">
<title>Node3</title>
<g id="a_node4"><a xlink:href="class_ogre_1_1_g_l3_plus_async_ticket.html" target="_top" xlink:title="Ogre::GL3PlusAsyncTicket">
<polygon fill="none" stroke="#000000" points="257,-114.5 257,-133.5 393,-133.5 393,-114.5 257,-114.5"/>
<text text-anchor="middle" x="325" y="-121.5" font-family="Helvetica,sans-Serif" font-size="10.00" fill="#000000">Ogre::GL3PlusAsyncTicket</text>
</a>
</g>
</g>
<!-- Node0&#45;&gt;Node3 -->
<g id="edge3" class="edge">
<title>Node0&#45;&gt;Node3</title>
<path fill="none" stroke="#191970" d="M220.4768,-98.04C241.8517,-103.3488 266.6134,-109.4988 286.6693,-114.4799"/>
<polygon fill="#191970" stroke="#191970" points="221.1572,-94.6027 210.6084,-95.589 219.4698,-101.3963 221.1572,-94.6027"/>
</g>
<!-- Node4 -->
<g id="node5" class="node">
<title>Node4</title>
<g id="a_node5"><a xlink:href="class_ogre_1_1_g_l_e_s2_async_ticket.html" target="_top" xlink:title="Ogre::GLES2AsyncTicket">
<polygon fill="none" stroke="#000000" points="260,-76.5 260,-95.5 390,-95.5 390,-76.5 260,-76.5"/>
<text text-anchor="middle" x="325" y="-83.5" font-family="Helvetica,sans-Serif" font-size="10.00" fill="#000000">Ogre::GLES2AsyncTicket</text>
</a>
</g>
</g>
<!-- Node0&#45;&gt;Node4 -->
<g id="edge4" class="edge">
<title>Node0&#45;&gt;Node4</title>
<path fill="none" stroke="#191970" d="M231.2685,-86C240.6576,-86 250.412,-86 259.9253,-86"/>
<polygon fill="#191970" stroke="#191970" points="231.2524,-82.5001 221.2523,-86 231.2523,-89.5001 231.2524,-82.5001"/>
</g>
<!-- Node5 -->
<g id="node6" class="node">
<title>Node5</title>
<g id="a_node6"><a xlink:href="class_ogre_1_1_metal_async_ticket.html" target="_top" xlink:title="Ogre::MetalAsyncTicket">
<polygon fill="none" stroke="#000000" points="264,-38.5 264,-57.5 386,-57.5 386,-38.5 264,-38.5"/>
<text text-anchor="middle" x="325" y="-45.5" font-family="Helvetica,sans-Serif" font-size="10.00" fill="#000000">Ogre::MetalAsyncTicket</text>
</a>
</g>
</g>
<!-- Node0&#45;&gt;Node5 -->
<g id="edge5" class="edge">
<title>Node0&#45;&gt;Node5</title>
<path fill="none" stroke="#191970" d="M220.4768,-73.96C241.8517,-68.6512 266.6134,-62.5012 286.6693,-57.5201"/>
<polygon fill="#191970" stroke="#191970" points="219.4698,-70.6037 210.6084,-76.411 221.1572,-77.3973 219.4698,-70.6037"/>
</g>
<!-- Node6 -->
<g id="node7" class="node">
<title>Node6</title>
<g id="a_node7"><a xlink:href="class_ogre_1_1_n_u_l_l_async_ticket.html" target="_top" xlink:title="Ogre::NULLAsyncTicket">
<polygon fill="none" stroke="#000000" points="263,-.5 263,-19.5 387,-19.5 387,-.5 263,-.5"/>
<text text-anchor="middle" x="325" y="-7.5" font-family="Helvetica,sans-Serif" font-size="10.00" fill="#000000">Ogre::NULLAsyncTicket</text>
</a>
</g>
</g>
<!-- Node0&#45;&gt;Node6 -->
<g id="edge6" class="edge">
<title>Node0&#45;&gt;Node6</title>
<path fill="none" stroke="#191970" d="M191.9826,-69.9104C208.5522,-57.2519 233.1704,-39.9746 257,-29 265.1276,-25.2569 274.1493,-22.1035 282.8943,-19.508"/>
<polygon fill="#191970" stroke="#191970" points="189.3956,-67.4893 183.6615,-76.3983 193.6998,-73.0096 189.3956,-67.4893"/>
</g>
<!-- Node1 -->
<g id="node2" class="node">
<title>Node1</title>
<g id="a_node2"><a xlink:href="class_ogre_1_1_allocated_object.html" target="_top" xlink:title="Superclass for all objects that wish to use custom memory allocators when their new / delete operator...">
<polygon fill="none" stroke="#000000" points="0,-76.5 0,-95.5 87,-95.5 87,-76.5 0,-76.5"/>
<text text-anchor="middle" x="43.5" y="-83.5" font-family="Helvetica,sans-Serif" font-size="10.00" fill="#000000">RenderSysAlloc</text>
</a>
</g>
</g>
<!-- Node1&#45;&gt;Node0 -->
<g id="edge1" class="edge">
<title>Node1&#45;&gt;Node0</title>
<path fill="none" stroke="#191970" d="M97.1883,-86C105.6739,-86 114.4123,-86 122.7893,-86"/>
<polygon fill="#191970" stroke="#191970" points="97.0043,-82.5001 87.0042,-86 97.0042,-89.5001 97.0043,-82.5001"/>
</g>
</g>
</svg>
