<?xml version="1.0" encoding="UTF-8" standalone="no"?>
<!DOCTYPE svg PUBLIC "-//W3C//DTD SVG 1.1//EN"
 "http://www.w3.org/Graphics/SVG/1.1/DTD/svg11.dtd">
<!-- Generated by graphviz version 2.44.0 ()
 -->
<!-- Title: Ogre::OctreeZoneFactory Pages: 1 -->
<svg width="133pt" height="140pt"
 viewBox="0.00 0.00 133.00 140.00" xmlns="http://www.w3.org/2000/svg" xmlns:xlink="http://www.w3.org/1999/xlink">
<g id="graph0" class="graph" transform="scale(1 1) rotate(0) translate(4 136)">
<title>Ogre::OctreeZoneFactory</title>
<!-- Node1 -->
<g id="node1" class="node">
<title>Node1</title>
<g id="a_node1"><a xlink:title="Factory for OctreeZone.">
<polygon fill="#bfbfbf" stroke="black" points="0,-0.5 0,-19.5 125,-19.5 125,-0.5 0,-0.5"/>
<text text-anchor="middle" x="62.5" y="-7.5" font-family="Helvetica,sans-Serif" font-size="10.00">Ogre::OctreeZoneFactory</text>
</a>
</g>
</g>
<!-- Node2 -->
<g id="node2" class="node">
<title>Node2</title>
<g id="a_node2"><a xlink:href="class_ogre_1_1_p_c_zone_factory.html" target="_top" xlink:title="Factory for PCZones.">
<polygon fill="none" stroke="black" points="7.5,-56.5 7.5,-75.5 117.5,-75.5 117.5,-56.5 7.5,-56.5"/>
<text text-anchor="middle" x="62.5" y="-63.5" font-family="Helvetica,sans-Serif" font-size="10.00">Ogre::PCZoneFactory</text>
</a>
</g>
</g>
<!-- Node2&#45;&gt;Node1 -->
<g id="edge1" class="edge">
<title>Node2&#45;&gt;Node1</title>
<path fill="none" stroke="midnightblue" d="M62.5,-45.8C62.5,-36.91 62.5,-26.78 62.5,-19.75"/>
<polygon fill="midnightblue" stroke="midnightblue" points="59,-46.08 62.5,-56.08 66,-46.08 59,-46.08"/>
</g>
<!-- Node3 -->
<g id="node3" class="node">
<title>Node3</title>
<g id="a_node3"><a xlink:href="class_ogre_1_1_allocated_object.html" target="_top" xlink:title="Superclass for all objects that wish to use custom memory allocators when their new / delete operator...">
<polygon fill="none" stroke="black" points="0,-112.5 0,-131.5 125,-131.5 125,-112.5 0,-112.5"/>
<text text-anchor="middle" x="62.5" y="-119.5" font-family="Helvetica,sans-Serif" font-size="10.00">SceneCtlAllocatedObject</text>
</a>
</g>
</g>
<!-- Node3&#45;&gt;Node2 -->
<g id="edge2" class="edge">
<title>Node3&#45;&gt;Node2</title>
<path fill="none" stroke="midnightblue" d="M62.5,-101.8C62.5,-92.91 62.5,-82.78 62.5,-75.75"/>
<polygon fill="midnightblue" stroke="midnightblue" points="59,-102.08 62.5,-112.08 66,-102.08 59,-102.08"/>
</g>
</g>
</svg>
