<?xml version="1.0" encoding="UTF-8" standalone="no"?>
<!DOCTYPE svg PUBLIC "-//W3C//DTD SVG 1.1//EN"
 "http://www.w3.org/Graphics/SVG/1.1/DTD/svg11.dtd">
<!-- Generated by graphviz version 9.0.0 (20230911.1827)
 -->
<!-- Title: Ogre::X11EGLContext Pages: 1 -->
<svg width="119pt" height="138pt"
 viewBox="0.00 0.00 119.25 137.75" xmlns="http://www.w3.org/2000/svg" xmlns:xlink="http://www.w3.org/1999/xlink">
<g id="graph0" class="graph" transform="scale(1 1) rotate(0) translate(4 133.75)">
<title>Ogre::X11EGLContext</title>
<!-- Node1 -->
<g id="Node000001" class="node">
<title>Node1</title>
<g id="a_Node000001"><a xlink:title=" ">
<polygon fill="#999999" stroke="#666666" points="111.25,-19.25 0,-19.25 0,0 111.25,0 111.25,-19.25"/>
<text text-anchor="middle" x="55.62" y="-5.75" font-family="Helvetica,sans-Serif" font-size="10.00">Ogre::X11EGLContext</text>
</a>
</g>
</g>
<!-- Node2 -->
<g id="Node000002" class="node">
<title>Node2</title>
<g id="a_Node000002"><a xlink:href="class_ogre_1_1_e_g_l_context.html" target="_top" xlink:title=" ">
<polygon fill="white" stroke="#666666" points="102.62,-74.5 8.62,-74.5 8.62,-55.25 102.62,-55.25 102.62,-74.5"/>
<text text-anchor="middle" x="55.62" y="-61" font-family="Helvetica,sans-Serif" font-size="10.00">Ogre::EGLContext</text>
</a>
</g>
</g>
<!-- Node2&#45;&gt;Node1 -->
<g id="edge1_Node000001_Node000002" class="edge">
<title>Node2&#45;&gt;Node1</title>
<g id="a_edge1_Node000001_Node000002"><a xlink:title=" ">
<path fill="none" stroke="#63b8ff" d="M55.62,-43.63C55.62,-35.34 55.62,-26.17 55.62,-19.61"/>
<polygon fill="#63b8ff" stroke="#63b8ff" points="52.13,-43.57 55.63,-53.57 59.13,-43.57 52.13,-43.57"/>
</a>
</g>
</g>
<!-- Node3 -->
<g id="Node000003" class="node">
<title>Node3</title>
<g id="a_Node000003"><a xlink:href="class_ogre_1_1_g_l_e_s2_context.html" target="_top" xlink:title="Class that encapsulates an GL context.">
<polygon fill="white" stroke="#666666" points="108.62,-129.75 2.62,-129.75 2.62,-110.5 108.62,-110.5 108.62,-129.75"/>
<text text-anchor="middle" x="55.62" y="-116.25" font-family="Helvetica,sans-Serif" font-size="10.00">Ogre::GLES2Context</text>
</a>
</g>
</g>
<!-- Node3&#45;&gt;Node2 -->
<g id="edge2_Node000002_Node000003" class="edge">
<title>Node3&#45;&gt;Node2</title>
<g id="a_edge2_Node000002_Node000003"><a xlink:title=" ">
<path fill="none" stroke="#63b8ff" d="M55.62,-98.88C55.62,-90.59 55.62,-81.42 55.62,-74.86"/>
<polygon fill="#63b8ff" stroke="#63b8ff" points="52.13,-98.82 55.63,-108.82 59.13,-98.82 52.13,-98.82"/>
</a>
</g>
</g>
</g>
</svg>
