<?xml version="1.0" encoding="UTF-8" standalone="no"?>
<!DOCTYPE svg PUBLIC "-//W3C//DTD SVG 1.1//EN"
 "http://www.w3.org/Graphics/SVG/1.1/DTD/svg11.dtd">
<!-- Generated by graphviz version 2.44.0 ()
 -->
<!-- Title: Ogre::Texture Pages: 1 -->
<svg width="666pt" height="218pt"
 viewBox="0.00 0.00 666.00 218.00" xmlns="http://www.w3.org/2000/svg" xmlns:xlink="http://www.w3.org/1999/xlink">
<g id="graph0" class="graph" transform="scale(1 1) rotate(0) translate(4 214)">
<title>Ogre::Texture</title>
<!-- Node1 -->
<g id="node1" class="node">
<title>Node1</title>
<g id="a_node1"><a xlink:title="Abstract class representing a Texture resource.">
<polygon fill="#bfbfbf" stroke="black" points="261,-76.5 261,-95.5 335,-95.5 335,-76.5 261,-76.5"/>
<text text-anchor="middle" x="298" y="-83.5" font-family="Helvetica,sans-Serif" font-size="10.00">Ogre::Texture</text>
</a>
</g>
</g>
<!-- Node5 -->
<g id="node5" class="node">
<title>Node5</title>
<g id="a_node5"><a xlink:href="class_ogre_1_1_d3_d11_texture.html" target="_top" xlink:title=" ">
<polygon fill="none" stroke="black" points="375.5,-152.5 375.5,-171.5 479.5,-171.5 479.5,-152.5 375.5,-152.5"/>
<text text-anchor="middle" x="427.5" y="-159.5" font-family="Helvetica,sans-Serif" font-size="10.00">Ogre::D3D11Texture</text>
</a>
</g>
</g>
<!-- Node1&#45;&gt;Node5 -->
<g id="edge4" class="edge">
<title>Node1&#45;&gt;Node5</title>
<path fill="none" stroke="midnightblue" d="M316.3,-102.49C330.18,-115 350.65,-131.89 371,-143 377.7,-146.66 385.24,-149.81 392.55,-152.43"/>
<polygon fill="midnightblue" stroke="midnightblue" points="318.66,-99.91 308.93,-95.71 313.92,-105.06 318.66,-99.91"/>
</g>
<!-- Node8 -->
<g id="node8" class="node">
<title>Node8</title>
<g id="a_node8"><a xlink:href="class_ogre_1_1_d3_d9_texture.html" target="_top" xlink:title=" ">
<polygon fill="none" stroke="black" points="378.5,-114.5 378.5,-133.5 476.5,-133.5 476.5,-114.5 378.5,-114.5"/>
<text text-anchor="middle" x="427.5" y="-121.5" font-family="Helvetica,sans-Serif" font-size="10.00">Ogre::D3D9Texture</text>
</a>
</g>
</g>
<!-- Node1&#45;&gt;Node8 -->
<g id="edge7" class="edge">
<title>Node1&#45;&gt;Node8</title>
<path fill="none" stroke="midnightblue" d="M341.06,-98.54C358.4,-103.7 378.18,-109.6 394.34,-114.41"/>
<polygon fill="midnightblue" stroke="midnightblue" points="341.76,-95.09 331.17,-95.59 339.76,-101.8 341.76,-95.09"/>
</g>
<!-- Node9 -->
<g id="node9" class="node">
<title>Node9</title>
<g id="a_node9"><a xlink:href="class_ogre_1_1_g_l3_plus_texture.html" target="_top" xlink:title=" ">
<polygon fill="none" stroke="black" points="371,-76.5 371,-95.5 484,-95.5 484,-76.5 371,-76.5"/>
<text text-anchor="middle" x="427.5" y="-83.5" font-family="Helvetica,sans-Serif" font-size="10.00">Ogre::GL3PlusTexture</text>
</a>
</g>
</g>
<!-- Node1&#45;&gt;Node9 -->
<g id="edge8" class="edge">
<title>Node1&#45;&gt;Node9</title>
<path fill="none" stroke="midnightblue" d="M345.35,-86C353.57,-86 362.22,-86 370.68,-86"/>
<polygon fill="midnightblue" stroke="midnightblue" points="345.2,-82.5 335.2,-86 345.2,-89.5 345.2,-82.5"/>
</g>
<!-- Node12 -->
<g id="node12" class="node">
<title>Node12</title>
<g id="a_node12"><a xlink:href="class_ogre_1_1_metal_texture.html" target="_top" xlink:title=" ">
<polygon fill="none" stroke="black" points="378.5,-38.5 378.5,-57.5 476.5,-57.5 476.5,-38.5 378.5,-38.5"/>
<text text-anchor="middle" x="427.5" y="-45.5" font-family="Helvetica,sans-Serif" font-size="10.00">Ogre::MetalTexture</text>
</a>
</g>
</g>
<!-- Node1&#45;&gt;Node12 -->
<g id="edge11" class="edge">
<title>Node1&#45;&gt;Node12</title>
<path fill="none" stroke="midnightblue" d="M341.06,-73.46C358.4,-68.3 378.18,-62.4 394.34,-57.59"/>
<polygon fill="midnightblue" stroke="midnightblue" points="339.76,-70.2 331.17,-76.41 341.76,-76.91 339.76,-70.2"/>
</g>
<!-- Node15 -->
<g id="node15" class="node">
<title>Node15</title>
<g id="a_node15"><a xlink:href="class_ogre_1_1_n_u_l_l_texture.html" target="_top" xlink:title=" ">
<polygon fill="none" stroke="black" points="377,-0.5 377,-19.5 478,-19.5 478,-0.5 377,-0.5"/>
<text text-anchor="middle" x="427.5" y="-7.5" font-family="Helvetica,sans-Serif" font-size="10.00">Ogre::NULLTexture</text>
</a>
</g>
</g>
<!-- Node1&#45;&gt;Node15 -->
<g id="edge14" class="edge">
<title>Node1&#45;&gt;Node15</title>
<path fill="none" stroke="midnightblue" d="M316.3,-69.51C330.18,-57 350.65,-40.11 371,-29 377.7,-25.34 385.24,-22.19 392.55,-19.57"/>
<polygon fill="midnightblue" stroke="midnightblue" points="313.92,-66.94 308.93,-76.29 318.66,-72.09 313.92,-66.94"/>
</g>
<!-- Node2 -->
<g id="node2" class="node">
<title>Node2</title>
<g id="a_node2"><a xlink:href="class_ogre_1_1_resource.html" target="_top" xlink:title="Abstract class representing a loadable resource (e.g.">
<polygon fill="none" stroke="black" points="142,-76.5 142,-95.5 225,-95.5 225,-76.5 142,-76.5"/>
<text text-anchor="middle" x="183.5" y="-83.5" font-family="Helvetica,sans-Serif" font-size="10.00">Ogre::Resource</text>
</a>
</g>
</g>
<!-- Node2&#45;&gt;Node1 -->
<g id="edge1" class="edge">
<title>Node2&#45;&gt;Node1</title>
<path fill="none" stroke="midnightblue" d="M235.18,-86C243.86,-86 252.72,-86 260.92,-86"/>
<polygon fill="midnightblue" stroke="midnightblue" points="235.12,-82.5 225.12,-86 235.12,-89.5 235.12,-82.5"/>
</g>
<!-- Node3 -->
<g id="node3" class="node">
<title>Node3</title>
<g id="a_node3"><a xlink:href="class_ogre_1_1_string_interface.html" target="_top" xlink:title="Class defining the common interface which classes can use to present a reflection&#45;style,...">
<polygon fill="none" stroke="black" points="0,-95.5 0,-114.5 106,-114.5 106,-95.5 0,-95.5"/>
<text text-anchor="middle" x="53" y="-102.5" font-family="Helvetica,sans-Serif" font-size="10.00">Ogre::StringInterface</text>
</a>
</g>
</g>
<!-- Node3&#45;&gt;Node2 -->
<g id="edge2" class="edge">
<title>Node3&#45;&gt;Node2</title>
<path fill="none" stroke="midnightblue" d="M116.33,-95.78C124.95,-94.51 133.62,-93.23 141.71,-92.03"/>
<polygon fill="midnightblue" stroke="midnightblue" points="115.65,-92.35 106.27,-97.27 116.67,-99.27 115.65,-92.35"/>
</g>
<!-- Node4 -->
<g id="node4" class="node">
<title>Node4</title>
<g id="a_node4"><a xlink:href="class_ogre_1_1_allocated_object.html" target="_top" xlink:title="Superclass for all objects that wish to use custom memory allocators when their new / delete operator...">
<polygon fill="none" stroke="black" points="13,-57.5 13,-76.5 93,-76.5 93,-57.5 13,-57.5"/>
<text text-anchor="middle" x="53" y="-64.5" font-family="Helvetica,sans-Serif" font-size="10.00">ResourceAlloc</text>
</a>
</g>
</g>
<!-- Node4&#45;&gt;Node2 -->
<g id="edge3" class="edge">
<title>Node4&#45;&gt;Node2</title>
<path fill="none" stroke="midnightblue" d="M103.23,-74.28C115.94,-76.16 129.48,-78.16 141.71,-79.97"/>
<polygon fill="midnightblue" stroke="midnightblue" points="103.66,-70.8 93.25,-72.8 102.63,-77.73 103.66,-70.8"/>
</g>
<!-- Node6 -->
<g id="node6" class="node">
<title>Node6</title>
<g id="a_node6"><a xlink:href="class_ogre_1_1_d3_d11_depth_texture.html" target="_top" xlink:title=" ">
<polygon fill="none" stroke="black" points="524.5,-190.5 524.5,-209.5 653.5,-209.5 653.5,-190.5 524.5,-190.5"/>
<text text-anchor="middle" x="589" y="-197.5" font-family="Helvetica,sans-Serif" font-size="10.00">Ogre::D3D11DepthTexture</text>
</a>
</g>
</g>
<!-- Node5&#45;&gt;Node6 -->
<g id="edge5" class="edge">
<title>Node5&#45;&gt;Node6</title>
<path fill="none" stroke="midnightblue" d="M478.73,-173.97C501.09,-179.29 527.04,-185.48 548.04,-190.48"/>
<polygon fill="midnightblue" stroke="midnightblue" points="479.29,-170.5 468.75,-171.59 477.67,-177.31 479.29,-170.5"/>
</g>
<!-- Node7 -->
<g id="node7" class="node">
<title>Node7</title>
<g id="a_node7"><a xlink:href="class_ogre_1_1_d3_d11_null_texture.html" target="_top" xlink:title=" ">
<polygon fill="none" stroke="black" points="528.5,-152.5 528.5,-171.5 649.5,-171.5 649.5,-152.5 528.5,-152.5"/>
<text text-anchor="middle" x="589" y="-159.5" font-family="Helvetica,sans-Serif" font-size="10.00">Ogre::D3D11NullTexture</text>
</a>
</g>
</g>
<!-- Node5&#45;&gt;Node7 -->
<g id="edge6" class="edge">
<title>Node5&#45;&gt;Node7</title>
<path fill="none" stroke="midnightblue" d="M490.21,-162C502.76,-162 515.94,-162 528.42,-162"/>
<polygon fill="midnightblue" stroke="midnightblue" points="489.84,-158.5 479.84,-162 489.84,-165.5 489.84,-158.5"/>
</g>
<!-- Node10 -->
<g id="node10" class="node">
<title>Node10</title>
<g id="a_node10"><a xlink:href="class_ogre_1_1_g_l3_plus_depth_texture.html" target="_top" xlink:title=" ">
<polygon fill="none" stroke="black" points="520,-114.5 520,-133.5 658,-133.5 658,-114.5 520,-114.5"/>
<text text-anchor="middle" x="589" y="-121.5" font-family="Helvetica,sans-Serif" font-size="10.00">Ogre::GL3PlusDepthTexture</text>
</a>
</g>
</g>
<!-- Node9&#45;&gt;Node10 -->
<g id="edge9" class="edge">
<title>Node9&#45;&gt;Node10</title>
<path fill="none" stroke="midnightblue" d="M478.73,-97.97C501.09,-103.29 527.04,-109.48 548.04,-114.48"/>
<polygon fill="midnightblue" stroke="midnightblue" points="479.29,-94.5 468.75,-95.59 477.67,-101.31 479.29,-94.5"/>
</g>
<!-- Node11 -->
<g id="node11" class="node">
<title>Node11</title>
<g id="a_node11"><a xlink:href="class_ogre_1_1_g_l3_plus_null_texture.html" target="_top" xlink:title=" ">
<polygon fill="none" stroke="black" points="524,-76.5 524,-95.5 654,-95.5 654,-76.5 524,-76.5"/>
<text text-anchor="middle" x="589" y="-83.5" font-family="Helvetica,sans-Serif" font-size="10.00">Ogre::GL3PlusNullTexture</text>
</a>
</g>
</g>
<!-- Node9&#45;&gt;Node11 -->
<g id="edge10" class="edge">
<title>Node9&#45;&gt;Node11</title>
<path fill="none" stroke="midnightblue" d="M494.31,-86C504.05,-86 514.07,-86 523.78,-86"/>
<polygon fill="midnightblue" stroke="midnightblue" points="494.29,-82.5 484.29,-86 494.29,-89.5 494.29,-82.5"/>
</g>
<!-- Node13 -->
<g id="node13" class="node">
<title>Node13</title>
<g id="a_node13"><a xlink:href="class_ogre_1_1_metal_depth_texture.html" target="_top" xlink:title=" ">
<polygon fill="none" stroke="black" points="527,-38.5 527,-57.5 651,-57.5 651,-38.5 527,-38.5"/>
<text text-anchor="middle" x="589" y="-45.5" font-family="Helvetica,sans-Serif" font-size="10.00">Ogre::MetalDepthTexture</text>
</a>
</g>
</g>
<!-- Node12&#45;&gt;Node13 -->
<g id="edge12" class="edge">
<title>Node12&#45;&gt;Node13</title>
<path fill="none" stroke="midnightblue" d="M487,-48C499.99,-48 513.78,-48 526.87,-48"/>
<polygon fill="midnightblue" stroke="midnightblue" points="486.79,-44.5 476.79,-48 486.79,-51.5 486.79,-44.5"/>
</g>
<!-- Node14 -->
<g id="node14" class="node">
<title>Node14</title>
<g id="a_node14"><a xlink:href="class_ogre_1_1_metal_null_texture.html" target="_top" xlink:title=" ">
<polygon fill="none" stroke="black" points="531,-0.5 531,-19.5 647,-19.5 647,-0.5 531,-0.5"/>
<text text-anchor="middle" x="589" y="-7.5" font-family="Helvetica,sans-Serif" font-size="10.00">Ogre::MetalNullTexture</text>
</a>
</g>
</g>
<!-- Node12&#45;&gt;Node14 -->
<g id="edge13" class="edge">
<title>Node12&#45;&gt;Node14</title>
<path fill="none" stroke="midnightblue" d="M478.73,-36.03C501.09,-30.71 527.04,-24.52 548.04,-19.52"/>
<polygon fill="midnightblue" stroke="midnightblue" points="477.67,-32.69 468.75,-38.41 479.29,-39.5 477.67,-32.69"/>
</g>
</g>
</svg>
