<?xml version="1.0" encoding="UTF-8" standalone="no"?>
<!DOCTYPE svg PUBLIC "-//W3C//DTD SVG 1.1//EN"
 "http://www.w3.org/Graphics/SVG/1.1/DTD/svg11.dtd">
<!-- Generated by graphviz version 9.0.0 (20230911.1827)
 -->
<!-- Title: Ogre::ScreenRatioPixelCountLodStrategy Pages: 1 -->
<svg width="569pt" height="76pt"
 viewBox="0.00 0.00 568.50 75.88" xmlns="http://www.w3.org/2000/svg" xmlns:xlink="http://www.w3.org/1999/xlink">
<g id="graph0" class="graph" transform="scale(1 1) rotate(0) translate(4 71.88)">
<title>Ogre::ScreenRatioPixelCountLodStrategy</title>
<!-- Node1 -->
<g id="Node000001" class="node">
<title>Node1</title>
<g id="a_Node000001"><a xlink:title=" ">
<polygon fill="#999999" stroke="#666666" points="560.5,-51.5 419.25,-51.5 419.25,-21 560.5,-21 560.5,-51.5"/>
<text text-anchor="start" x="427.25" y="-38" font-family="Helvetica,sans-Serif" font-size="10.00">Ogre::ScreenRatioPixelCount</text>
<text text-anchor="middle" x="489.88" y="-26.75" font-family="Helvetica,sans-Serif" font-size="10.00">LodStrategy</text>
</a>
</g>
</g>
<!-- Node2 -->
<g id="Node000002" class="node">
<title>Node2</title>
<g id="a_Node000002"><a xlink:href="class_ogre_1_1_pixel_count_lod_strategy_base.html" target="_top" xlink:title="Abstract base class for level of detail strategy based on pixel count approximations from bounding sp...">
<polygon fill="white" stroke="#666666" points="383.25,-67.88 220.25,-67.88 220.25,-48.62 383.25,-48.62 383.25,-67.88"/>
<text text-anchor="middle" x="301.75" y="-54.38" font-family="Helvetica,sans-Serif" font-size="10.00">Ogre::PixelCountLodStrategyBase</text>
</a>
</g>
</g>
<!-- Node2&#45;&gt;Node1 -->
<g id="edge1_Node000001_Node000002" class="edge">
<title>Node2&#45;&gt;Node1</title>
<g id="a_edge1_Node000001_Node000002"><a xlink:title=" ">
<path fill="none" stroke="#63b8ff" d="M394.94,-47.35C403.01,-46.4 411.08,-45.45 418.92,-44.52"/>
<polygon fill="#63b8ff" stroke="#63b8ff" points="394.6,-43.87 385.08,-48.52 395.42,-50.82 394.6,-43.87"/>
</a>
</g>
</g>
<!-- Node3 -->
<g id="Node000003" class="node">
<title>Node3</title>
<g id="a_Node000003"><a xlink:href="class_ogre_1_1_lod_strategy.html" target="_top" xlink:title="Strategy for determining level of detail.">
<polygon fill="white" stroke="#666666" points="184.25,-67.88 90.25,-67.88 90.25,-48.62 184.25,-48.62 184.25,-67.88"/>
<text text-anchor="middle" x="137.25" y="-54.38" font-family="Helvetica,sans-Serif" font-size="10.00">Ogre::LodStrategy</text>
</a>
</g>
</g>
<!-- Node3&#45;&gt;Node2 -->
<g id="edge2_Node000002_Node000003" class="edge">
<title>Node3&#45;&gt;Node2</title>
<g id="a_edge2_Node000002_Node000003"><a xlink:title=" ">
<path fill="none" stroke="#63b8ff" d="M195.69,-58.25C203.59,-58.25 211.83,-58.25 220.05,-58.25"/>
<polygon fill="#63b8ff" stroke="#63b8ff" points="195.89,-54.75 185.89,-58.25 195.89,-61.75 195.89,-54.75"/>
</a>
</g>
</g>
<!-- Node4 -->
<g id="Node000004" class="node">
<title>Node4</title>
<g id="a_Node000004"><a xlink:href="class_ogre_1_1_allocated_object.html" target="_top" xlink:title="Superclass for all objects that wish to use custom memory allocators when their new / delete operator...">
<polygon fill="white" stroke="#666666" points="54.25,-67.88 0,-67.88 0,-48.62 54.25,-48.62 54.25,-67.88"/>
<text text-anchor="middle" x="27.12" y="-54.38" font-family="Helvetica,sans-Serif" font-size="10.00">LodAlloc</text>
</a>
</g>
</g>
<!-- Node4&#45;&gt;Node3 -->
<g id="edge3_Node000003_Node000004" class="edge">
<title>Node4&#45;&gt;Node3</title>
<g id="a_edge3_Node000003_Node000004"><a xlink:title=" ">
<path fill="none" stroke="#63b8ff" d="M65.85,-58.25C73.59,-58.25 81.83,-58.25 89.84,-58.25"/>
<polygon fill="#63b8ff" stroke="#63b8ff" points="66.09,-54.75 56.09,-58.25 66.09,-61.75 66.09,-54.75"/>
</a>
</g>
</g>
<!-- Node5 -->
<g id="Node000005" class="node">
<title>Node5</title>
<g id="a_Node000005"><a xlink:href="class_ogre_1_1_singleton.html" target="_top" xlink:title=" ">
<polygon fill="white" stroke="#666666" points="373.5,-30.5 230,-30.5 230,0 373.5,0 373.5,-30.5"/>
<text text-anchor="start" x="238" y="-17" font-family="Helvetica,sans-Serif" font-size="10.00">Ogre::Singleton&lt; ScreenRatio</text>
<text text-anchor="middle" x="301.75" y="-5.75" font-family="Helvetica,sans-Serif" font-size="10.00">PixelCountLodStrategy &gt;</text>
</a>
</g>
</g>
<!-- Node5&#45;&gt;Node1 -->
<g id="edge4_Node000001_Node000005" class="edge">
<title>Node5&#45;&gt;Node1</title>
<g id="a_edge4_Node000001_Node000005"><a xlink:title=" ">
<path fill="none" stroke="#63b8ff" d="M385.12,-24.54C396.42,-25.82 407.93,-27.12 418.98,-28.36"/>
<polygon fill="#63b8ff" stroke="#63b8ff" points="385.75,-21.09 375.42,-23.45 384.96,-28.05 385.75,-21.09"/>
</a>
</g>
</g>
</g>
</svg>
