<?xml version="1.0" encoding="UTF-8" standalone="no"?>
<!DOCTYPE svg PUBLIC "-//W3C//DTD SVG 1.1//EN"
 "http://www.w3.org/Graphics/SVG/1.1/DTD/svg11.dtd">
<!-- Generated by graphviz version 9.0.0 (20230911.1827)
 -->
<!-- Title: Ogre::v1::HardwareIndexBuffer Pages: 1 -->
<svg width="611pt" height="284pt"
 viewBox="0.00 0.00 611.25 283.50" xmlns="http://www.w3.org/2000/svg" xmlns:xlink="http://www.w3.org/1999/xlink">
<g id="graph0" class="graph" transform="scale(1 1) rotate(0) translate(4 279.5)">
<title>Ogre::v1::HardwareIndexBuffer</title>
<!-- Node1 -->
<g id="Node000001" class="node">
<title>Node1</title>
<g id="a_Node000001"><a xlink:title="Specialisation of HardwareBuffer for vertex index buffers, still abstract.">
<polygon fill="#999999" stroke="#666666" points="406.5,-146.88 259.25,-146.88 259.25,-127.62 406.5,-127.62 406.5,-146.88"/>
<text text-anchor="middle" x="332.88" y="-133.38" font-family="Helvetica,sans-Serif" font-size="10.00">Ogre::v1::HardwareIndexBuffer</text>
</a>
</g>
</g>
<!-- Node4 -->
<g id="Node000004" class="node">
<title>Node4</title>
<g id="a_Node000004"><a xlink:href="class_ogre_1_1v1_1_1_d3_d11_hardware_index_buffer.html" target="_top" xlink:title=" ">
<polygon fill="white" stroke="#666666" points="598.38,-275.5 447.38,-275.5 447.38,-245 598.38,-245 598.38,-275.5"/>
<text text-anchor="start" x="455.38" y="-262" font-family="Helvetica,sans-Serif" font-size="10.00">Ogre::v1::D3D11HardwareIndex</text>
<text text-anchor="middle" x="522.88" y="-250.75" font-family="Helvetica,sans-Serif" font-size="10.00">Buffer</text>
</a>
</g>
</g>
<!-- Node1&#45;&gt;Node4 -->
<g id="edge3_Node000001_Node000004" class="edge">
<title>Node1&#45;&gt;Node4</title>
<g id="a_edge3_Node000001_Node000004"><a xlink:title=" ">
<path fill="none" stroke="#63b8ff" d="M349.51,-155.5C369.15,-177.36 404.88,-213.73 442.5,-235.25 448.65,-238.76 455.35,-241.85 462.16,-244.54"/>
<polygon fill="#63b8ff" stroke="#63b8ff" points="352.35,-153.43 343.12,-148.24 347.1,-158.06 352.35,-153.43"/>
</a>
</g>
</g>
<!-- Node5 -->
<g id="Node000005" class="node">
<title>Node5</title>
<g id="a_Node000005"><a xlink:href="class_ogre_1_1v1_1_1_default_hardware_index_buffer.html" target="_top" xlink:title="Specialisation of HardwareIndexBuffer for emulation.">
<polygon fill="white" stroke="#666666" points="587.5,-226.5 458.25,-226.5 458.25,-196 587.5,-196 587.5,-226.5"/>
<text text-anchor="start" x="466.25" y="-213" font-family="Helvetica,sans-Serif" font-size="10.00">Ogre::v1::DefaultHardware</text>
<text text-anchor="middle" x="522.88" y="-201.75" font-family="Helvetica,sans-Serif" font-size="10.00">IndexBuffer</text>
</a>
</g>
</g>
<!-- Node1&#45;&gt;Node5 -->
<g id="edge4_Node000001_Node000005" class="edge">
<title>Node1&#45;&gt;Node5</title>
<g id="a_edge4_Node000001_Node000005"><a xlink:title=" ">
<path fill="none" stroke="#63b8ff" d="M364.16,-152.08C385.73,-162.35 415.55,-175.97 442.5,-186.25 451,-189.49 460.13,-192.66 469.06,-195.58"/>
<polygon fill="#63b8ff" stroke="#63b8ff" points="365.89,-149.02 355.36,-147.85 362.85,-155.33 365.89,-149.02"/>
</a>
</g>
</g>
<!-- Node6 -->
<g id="Node000006" class="node">
<title>Node6</title>
<g id="a_Node000006"><a xlink:href="class_ogre_1_1v1_1_1_g_l3_plus_default_hardware_index_buffer.html" target="_top" xlink:title="Specialisation of HardwareIndexBuffer for emulation.">
<polygon fill="white" stroke="#666666" points="585.62,-177.5 460.12,-177.5 460.12,-147 585.62,-147 585.62,-177.5"/>
<text text-anchor="start" x="468.12" y="-164" font-family="Helvetica,sans-Serif" font-size="10.00">Ogre::v1::GL3PlusDefault</text>
<text text-anchor="middle" x="522.88" y="-152.75" font-family="Helvetica,sans-Serif" font-size="10.00">HardwareIndexBuffer</text>
</a>
</g>
</g>
<!-- Node1&#45;&gt;Node6 -->
<g id="edge5_Node000001_Node000006" class="edge">
<title>Node1&#45;&gt;Node6</title>
<g id="a_edge5_Node000001_Node000006"><a xlink:title=" ">
<path fill="none" stroke="#63b8ff" d="M417.98,-148.43C431.99,-150.3 446.3,-152.2 459.64,-153.97"/>
<polygon fill="#63b8ff" stroke="#63b8ff" points="418.7,-145 408.33,-147.15 417.78,-151.94 418.7,-145"/>
</a>
</g>
</g>
<!-- Node7 -->
<g id="Node000007" class="node">
<title>Node7</title>
<g id="a_Node000007"><a xlink:href="class_ogre_1_1v1_1_1_g_l3_plus_hardware_index_buffer.html" target="_top" xlink:title=" ">
<polygon fill="white" stroke="#666666" points="591.25,-128.5 454.5,-128.5 454.5,-98 591.25,-98 591.25,-128.5"/>
<text text-anchor="start" x="462.5" y="-115" font-family="Helvetica,sans-Serif" font-size="10.00">Ogre::v1::GL3PlusHardware</text>
<text text-anchor="middle" x="522.88" y="-103.75" font-family="Helvetica,sans-Serif" font-size="10.00">IndexBuffer</text>
</a>
</g>
</g>
<!-- Node1&#45;&gt;Node7 -->
<g id="edge6_Node000001_Node000007" class="edge">
<title>Node1&#45;&gt;Node7</title>
<g id="a_edge6_Node000001_Node000007"><a xlink:title=" ">
<path fill="none" stroke="#63b8ff" d="M417.9,-126.52C430.05,-124.97 442.42,-123.39 454.19,-121.89"/>
<polygon fill="#63b8ff" stroke="#63b8ff" points="417.81,-123.01 408.33,-127.74 418.69,-129.95 417.81,-123.01"/>
</a>
</g>
</g>
<!-- Node8 -->
<g id="Node000008" class="node">
<title>Node8</title>
<g id="a_Node000008"><a xlink:href="class_ogre_1_1v1_1_1_g_l_e_s2_default_hardware_index_buffer.html" target="_top" xlink:title="Specialisation of HardwareIndexBuffer for emulation.">
<polygon fill="white" stroke="#666666" points="603.25,-79.5 442.5,-79.5 442.5,-49 603.25,-49 603.25,-79.5"/>
<text text-anchor="start" x="450.5" y="-66" font-family="Helvetica,sans-Serif" font-size="10.00">Ogre::v1::GLES2DefaultHardware</text>
<text text-anchor="middle" x="522.88" y="-54.75" font-family="Helvetica,sans-Serif" font-size="10.00">IndexBuffer</text>
</a>
</g>
</g>
<!-- Node1&#45;&gt;Node8 -->
<g id="edge7_Node000001_Node000008" class="edge">
<title>Node1&#45;&gt;Node8</title>
<g id="a_edge7_Node000001_Node000008"><a xlink:title=" ">
<path fill="none" stroke="#63b8ff" d="M364.99,-122.4C386.51,-112.4 415.93,-99.27 442.5,-89.25 451.02,-86.04 460.15,-82.89 469.08,-79.98"/>
<polygon fill="#63b8ff" stroke="#63b8ff" points="363.76,-119.11 356.19,-126.52 366.73,-125.45 363.76,-119.11"/>
</a>
</g>
</g>
<!-- Node9 -->
<g id="Node000009" class="node">
<title>Node9</title>
<g id="a_Node000009"><a xlink:href="class_ogre_1_1v1_1_1_metal_hardware_index_buffer.html" target="_top" xlink:title="Specialisation of HardwareIndexBuffer for Metal.">
<polygon fill="white" stroke="#666666" points="595.75,-30.5 450,-30.5 450,0 595.75,0 595.75,-30.5"/>
<text text-anchor="start" x="458" y="-17" font-family="Helvetica,sans-Serif" font-size="10.00">Ogre::v1::MetalHardwareIndex</text>
<text text-anchor="middle" x="522.88" y="-5.75" font-family="Helvetica,sans-Serif" font-size="10.00">Buffer</text>
</a>
</g>
</g>
<!-- Node1&#45;&gt;Node9 -->
<g id="edge8_Node000001_Node000009" class="edge">
<title>Node1&#45;&gt;Node9</title>
<g id="a_edge8_Node000001_Node000009"><a xlink:title=" ">
<path fill="none" stroke="#63b8ff" d="M349.85,-118.86C369.6,-97.19 405.19,-61.46 442.5,-40.25 448.65,-36.75 455.36,-33.68 462.18,-30.99"/>
<polygon fill="#63b8ff" stroke="#63b8ff" points="347.46,-116.29 343.41,-126.07 352.68,-120.95 347.46,-116.29"/>
</a>
</g>
</g>
<!-- Node2 -->
<g id="Node000002" class="node">
<title>Node2</title>
<g id="a_Node000002"><a xlink:href="class_ogre_1_1v1_1_1_hardware_buffer.html" target="_top" xlink:title="Abstract class defining common features of hardware buffers.">
<polygon fill="white" stroke="#666666" points="223.25,-146.88 99.25,-146.88 99.25,-127.62 223.25,-127.62 223.25,-146.88"/>
<text text-anchor="middle" x="161.25" y="-133.38" font-family="Helvetica,sans-Serif" font-size="10.00">Ogre::v1::HardwareBuffer</text>
</a>
</g>
</g>
<!-- Node2&#45;&gt;Node1 -->
<g id="edge1_Node000001_Node000002" class="edge">
<title>Node2&#45;&gt;Node1</title>
<g id="a_edge1_Node000001_Node000002"><a xlink:title=" ">
<path fill="none" stroke="#63b8ff" d="M234.96,-137.25C242.88,-137.25 250.95,-137.25 258.88,-137.25"/>
<polygon fill="#63b8ff" stroke="#63b8ff" points="235,-133.75 225,-137.25 235,-140.75 235,-133.75"/>
</a>
</g>
</g>
<!-- Node3 -->
<g id="Node000003" class="node">
<title>Node3</title>
<g id="a_Node000003"><a xlink:href="class_ogre_1_1_allocated_object.html" target="_top" xlink:title="Superclass for all objects that wish to use custom memory allocators when their new / delete operator...">
<polygon fill="white" stroke="#666666" points="63.25,-146.88 0,-146.88 0,-127.62 63.25,-127.62 63.25,-146.88"/>
<text text-anchor="middle" x="31.62" y="-133.38" font-family="Helvetica,sans-Serif" font-size="10.00">BufferAlloc</text>
</a>
</g>
</g>
<!-- Node3&#45;&gt;Node2 -->
<g id="edge2_Node000002_Node000003" class="edge">
<title>Node3&#45;&gt;Node2</title>
<g id="a_edge2_Node000002_Node000003"><a xlink:title=" ">
<path fill="none" stroke="#63b8ff" d="M74.81,-137.25C82.53,-137.25 90.74,-137.25 98.89,-137.25"/>
<polygon fill="#63b8ff" stroke="#63b8ff" points="75.03,-133.75 65.03,-137.25 75.03,-140.75 75.03,-133.75"/>
</a>
</g>
</g>
</g>
</svg>
