<?xml version="1.0" encoding="UTF-8" standalone="no"?>
<!DOCTYPE svg PUBLIC "-//W3C//DTD SVG 1.1//EN"
 "http://www.w3.org/Graphics/SVG/1.1/DTD/svg11.dtd">
<!-- Generated by graphviz version 9.0.0 (20230911.1827)
 -->
<!-- Title: Graphical Class Hierarchy Pages: 1 -->
<svg width="502pt" height="186pt"
 viewBox="0.00 0.00 501.50 185.50" xmlns="http://www.w3.org/2000/svg" xmlns:xlink="http://www.w3.org/1999/xlink">
<g id="graph0" class="graph" transform="scale(1 1) rotate(0) translate(4 181.5)">
<title>Graphical Class Hierarchy</title>
<!-- Node0 -->
<g id="Node000000" class="node">
<title>Node0</title>
<g id="a_Node000000"><a xlink:href="class_ogre_1_1_iterator_wrapper.html" target="_top" xlink:title="Basefunctionality for IteratorWrappers.">
<polygon fill="white" stroke="#666666" points="136,-103.5 0,-103.5 0,-73 136,-73 136,-103.5"/>
<text text-anchor="start" x="8" y="-90" font-family="Helvetica,sans-Serif" font-size="10.00">Ogre::IteratorWrapper</text>
<text text-anchor="middle" x="68" y="-78.75" font-family="Helvetica,sans-Serif" font-size="10.00">&lt; T, IteratorType, ValType &gt;</text>
</a>
</g>
</g>
<!-- Node1 -->
<g id="Node000001" class="node">
<title>Node1</title>
<g id="a_Node000001"><a xlink:href="class_ogre_1_1_map_iterator_wrapper.html" target="_top" xlink:title=" ">
<polygon fill="white" stroke="#666666" points="303.88,-177.5 176.88,-177.5 176.88,-147 303.88,-147 303.88,-177.5"/>
<text text-anchor="start" x="184.88" y="-164" font-family="Helvetica,sans-Serif" font-size="10.00">Ogre::MapIteratorWrapper</text>
<text text-anchor="middle" x="240.38" y="-152.75" font-family="Helvetica,sans-Serif" font-size="10.00">&lt; T, T::const_iterator &gt;</text>
</a>
</g>
</g>
<!-- Node0&#45;&gt;Node1 -->
<g id="edge1040_Node000000_Node000001" class="edge">
<title>Node0&#45;&gt;Node1</title>
<g id="a_edge1040_Node000000_Node000001"><a xlink:title=" ">
<path fill="none" stroke="#63b8ff" d="M110.44,-109C129.09,-118.06 151.47,-128.58 172,-137.25 179.47,-140.41 187.49,-143.57 195.3,-146.54"/>
<polygon fill="#63b8ff" stroke="#63b8ff" points="112.11,-105.91 101.59,-104.66 109.03,-112.2 112.11,-105.91"/>
</a>
</g>
</g>
<!-- Node3 -->
<g id="Node000003" class="node">
<title>Node3</title>
<g id="a_Node000003"><a xlink:href="class_ogre_1_1_map_iterator_wrapper.html" target="_top" xlink:title=" ">
<polygon fill="white" stroke="#666666" points="303.88,-128.5 176.88,-128.5 176.88,-98 303.88,-98 303.88,-128.5"/>
<text text-anchor="start" x="184.88" y="-115" font-family="Helvetica,sans-Serif" font-size="10.00">Ogre::MapIteratorWrapper</text>
<text text-anchor="middle" x="240.38" y="-103.75" font-family="Helvetica,sans-Serif" font-size="10.00">&lt; T, T::iterator &gt;</text>
</a>
</g>
</g>
<!-- Node0&#45;&gt;Node3 -->
<g id="edge1042_Node000000_Node000003" class="edge">
<title>Node0&#45;&gt;Node3</title>
<g id="a_edge1042_Node000000_Node000003"><a xlink:title=" ">
<path fill="none" stroke="#63b8ff" d="M147.59,-99.78C157.25,-101.2 167.02,-102.63 176.41,-104.01"/>
<polygon fill="#63b8ff" stroke="#63b8ff" points="148.24,-96.34 137.83,-98.35 147.22,-103.27 148.24,-96.34"/>
</a>
</g>
</g>
<!-- Node5 -->
<g id="Node000005" class="node">
<title>Node5</title>
<g id="a_Node000005"><a xlink:href="class_ogre_1_1_vector_iterator_wrapper.html" target="_top" xlink:title=" ">
<polygon fill="white" stroke="#666666" points="308.75,-79.5 172,-79.5 172,-49 308.75,-49 308.75,-79.5"/>
<text text-anchor="start" x="180" y="-66" font-family="Helvetica,sans-Serif" font-size="10.00">Ogre::VectorIteratorWrapper</text>
<text text-anchor="middle" x="240.38" y="-54.75" font-family="Helvetica,sans-Serif" font-size="10.00">&lt; T, T::const_iterator &gt;</text>
</a>
</g>
</g>
<!-- Node0&#45;&gt;Node5 -->
<g id="edge1044_Node000000_Node000005" class="edge">
<title>Node0&#45;&gt;Node5</title>
<g id="a_edge1044_Node000000_Node000005"><a xlink:title=" ">
<path fill="none" stroke="#63b8ff" d="M147.62,-77.17C155.66,-76.04 163.78,-74.9 171.69,-73.78"/>
<polygon fill="#63b8ff" stroke="#63b8ff" points="147.25,-73.69 137.84,-78.55 148.23,-80.62 147.25,-73.69"/>
</a>
</g>
</g>
<!-- Node7 -->
<g id="Node000007" class="node">
<title>Node7</title>
<g id="a_Node000007"><a xlink:href="class_ogre_1_1_vector_iterator_wrapper.html" target="_top" xlink:title=" ">
<polygon fill="white" stroke="#666666" points="308.75,-30.5 172,-30.5 172,0 308.75,0 308.75,-30.5"/>
<text text-anchor="start" x="180" y="-17" font-family="Helvetica,sans-Serif" font-size="10.00">Ogre::VectorIteratorWrapper</text>
<text text-anchor="middle" x="240.38" y="-5.75" font-family="Helvetica,sans-Serif" font-size="10.00">&lt; T, T::iterator &gt;</text>
</a>
</g>
</g>
<!-- Node0&#45;&gt;Node7 -->
<g id="edge1046_Node000000_Node000007" class="edge">
<title>Node0&#45;&gt;Node7</title>
<g id="a_edge1046_Node000000_Node000007"><a xlink:title=" ">
<path fill="none" stroke="#63b8ff" d="M110.9,-67.79C129.47,-58.96 151.67,-48.74 172,-40.25 179.6,-37.08 187.76,-33.88 195.68,-30.88"/>
<polygon fill="#63b8ff" stroke="#63b8ff" points="109.59,-64.53 102.08,-72.01 112.61,-70.85 109.59,-64.53"/>
</a>
</g>
</g>
<!-- Node2 -->
<g id="Node000002" class="node">
<title>Node2</title>
<g id="a_Node000002"><a xlink:href="class_ogre_1_1_const_map_iterator.html" target="_top" xlink:title="Concrete IteratorWrapper for const access to the underlying key&#45;value container.">
<polygon fill="white" stroke="#666666" points="488.62,-171.88 349.62,-171.88 349.62,-152.62 488.62,-152.62 488.62,-171.88"/>
<text text-anchor="middle" x="419.12" y="-158.38" font-family="Helvetica,sans-Serif" font-size="10.00">Ogre::ConstMapIterator&lt; T &gt;</text>
</a>
</g>
</g>
<!-- Node1&#45;&gt;Node2 -->
<g id="edge1041_Node000001_Node000002" class="edge">
<title>Node1&#45;&gt;Node2</title>
<g id="a_edge1041_Node000001_Node000002"><a xlink:title=" ">
<path fill="none" stroke="#63b8ff" d="M315.64,-162.25C326.77,-162.25 338.2,-162.25 349.21,-162.25"/>
<polygon fill="#63b8ff" stroke="#63b8ff" points="315.7,-158.75 305.7,-162.25 315.7,-165.75 315.7,-158.75"/>
</a>
</g>
</g>
<!-- Node4 -->
<g id="Node000004" class="node">
<title>Node4</title>
<g id="a_Node000004"><a xlink:href="class_ogre_1_1_map_iterator.html" target="_top" xlink:title="Concrete IteratorWrapper for nonconst access to the underlying key&#45;value container.">
<polygon fill="white" stroke="#666666" points="475.88,-122.88 362.38,-122.88 362.38,-103.62 475.88,-103.62 475.88,-122.88"/>
<text text-anchor="middle" x="419.12" y="-109.38" font-family="Helvetica,sans-Serif" font-size="10.00">Ogre::MapIterator&lt; T &gt;</text>
</a>
</g>
</g>
<!-- Node3&#45;&gt;Node4 -->
<g id="edge1043_Node000003_Node000004" class="edge">
<title>Node3&#45;&gt;Node4</title>
<g id="a_edge1043_Node000003_Node000004"><a xlink:title=" ">
<path fill="none" stroke="#63b8ff" d="M315.4,-113.25C330.99,-113.25 347.18,-113.25 361.98,-113.25"/>
<polygon fill="#63b8ff" stroke="#63b8ff" points="315.7,-109.75 305.7,-113.25 315.7,-116.75 315.7,-109.75"/>
</a>
</g>
</g>
<!-- Node6 -->
<g id="Node000006" class="node">
<title>Node6</title>
<g id="a_Node000006"><a xlink:href="class_ogre_1_1_const_vector_iterator.html" target="_top" xlink:title="Concrete IteratorWrapper for const access to the underlying container.">
<polygon fill="white" stroke="#666666" points="493.5,-73.88 344.75,-73.88 344.75,-54.62 493.5,-54.62 493.5,-73.88"/>
<text text-anchor="middle" x="419.12" y="-60.38" font-family="Helvetica,sans-Serif" font-size="10.00">Ogre::ConstVectorIterator&lt; T &gt;</text>
</a>
</g>
</g>
<!-- Node5&#45;&gt;Node6 -->
<g id="edge1045_Node000005_Node000006" class="edge">
<title>Node5&#45;&gt;Node6</title>
<g id="a_edge1045_Node000005_Node000006"><a xlink:title=" ">
<path fill="none" stroke="#63b8ff" d="M320.64,-64.25C328.52,-64.25 336.49,-64.25 344.3,-64.25"/>
<polygon fill="#63b8ff" stroke="#63b8ff" points="320.72,-60.75 310.72,-64.25 320.72,-67.75 320.72,-60.75"/>
</a>
</g>
</g>
<!-- Node8 -->
<g id="Node000008" class="node">
<title>Node8</title>
<g id="a_Node000008"><a xlink:href="class_ogre_1_1_vector_iterator.html" target="_top" xlink:title="Concrete IteratorWrapper for nonconst access to the underlying container.">
<polygon fill="white" stroke="#666666" points="480.75,-24.88 357.5,-24.88 357.5,-5.62 480.75,-5.62 480.75,-24.88"/>
<text text-anchor="middle" x="419.12" y="-11.38" font-family="Helvetica,sans-Serif" font-size="10.00">Ogre::VectorIterator&lt; T &gt;</text>
</a>
</g>
</g>
<!-- Node7&#45;&gt;Node8 -->
<g id="edge1047_Node000007_Node000008" class="edge">
<title>Node7&#45;&gt;Node8</title>
<g id="a_edge1047_Node000007_Node000008"><a xlink:title=" ">
<path fill="none" stroke="#63b8ff" d="M320.42,-15.25C332.73,-15.25 345.29,-15.25 357.13,-15.25"/>
<polygon fill="#63b8ff" stroke="#63b8ff" points="320.72,-11.75 310.72,-15.25 320.72,-18.75 320.72,-11.75"/>
</a>
</g>
</g>
</g>
</svg>
