<?xml version="1.0" encoding="UTF-8" standalone="no"?>
<!DOCTYPE svg PUBLIC "-//W3C//DTD SVG 1.1//EN"
 "http://www.w3.org/Graphics/SVG/1.1/DTD/svg11.dtd">
<!-- Generated by graphviz version 9.0.0 (20230911.1827)
 -->
<!-- Title: Graphical Class Hierarchy Pages: 1 -->
<svg width="345pt" height="175pt"
 viewBox="0.00 0.00 344.50 175.25" xmlns="http://www.w3.org/2000/svg" xmlns:xlink="http://www.w3.org/1999/xlink">
<g id="graph0" class="graph" transform="scale(1 1) rotate(0) translate(4 171.25)">
<title>Graphical Class Hierarchy</title>
<!-- Node0 -->
<g id="Node000000" class="node">
<title>Node0</title>
<g id="a_Node000000"><a xlink:href="class_ogre_1_1_g_l3_plus_support.html" target="_top" xlink:title=" ">
<polygon fill="white" stroke="#666666" points="139.75,-93.25 26.25,-93.25 26.25,-74 139.75,-74 139.75,-93.25"/>
<text text-anchor="middle" x="83" y="-79.75" font-family="Helvetica,sans-Serif" font-size="10.00">Ogre::GL3PlusSupport</text>
</a>
</g>
</g>
<!-- Node1 -->
<g id="Node000001" class="node">
<title>Node1</title>
<g id="a_Node000001"><a xlink:href="class_ogre_1_1_g_l_x_g_l_support.html" target="_top" xlink:title=" ">
<polygon fill="white" stroke="#666666" points="323.75,-130.25 214.75,-130.25 214.75,-111 323.75,-111 323.75,-130.25"/>
<text text-anchor="middle" x="269.25" y="-116.75" font-family="Helvetica,sans-Serif" font-size="10.00">Ogre::GLXGLSupport</text>
</a>
</g>
</g>
<!-- Node0&#45;&gt;Node1 -->
<g id="edge1001_Node000000_Node000001" class="edge">
<title>Node0&#45;&gt;Node1</title>
<g id="a_edge1001_Node000000_Node000001"><a xlink:title=" ">
<path fill="none" stroke="#63b8ff" d="M145.62,-96C169.13,-100.72 195.63,-106.04 217.96,-110.53"/>
<polygon fill="#63b8ff" stroke="#63b8ff" points="146.32,-92.57 135.83,-94.03 144.95,-99.43 146.32,-92.57"/>
</a>
</g>
</g>
<!-- Node2 -->
<g id="Node000002" class="node">
<title>Node2</title>
<g id="a_Node000002"><a xlink:href="class_ogre_1_1_g_t_k_g_l_support.html" target="_top" xlink:title="GL support in a GTK window.">
<polygon fill="white" stroke="#666666" points="323.75,-167.25 214.75,-167.25 214.75,-148 323.75,-148 323.75,-167.25"/>
<text text-anchor="middle" x="269.25" y="-153.75" font-family="Helvetica,sans-Serif" font-size="10.00">Ogre::GTKGLSupport</text>
</a>
</g>
</g>
<!-- Node0&#45;&gt;Node2 -->
<g id="edge1002_Node000000_Node000002" class="edge">
<title>Node0&#45;&gt;Node2</title>
<g id="a_edge1002_Node000000_Node000002"><a xlink:title=" ">
<path fill="none" stroke="#63b8ff" d="M112.34,-98.83C135.87,-111.02 170.46,-127.96 202,-139.62 209.83,-142.52 218.32,-145.18 226.54,-147.51"/>
<polygon fill="#63b8ff" stroke="#63b8ff" points="114.18,-95.84 103.7,-94.3 110.93,-102.04 114.18,-95.84"/>
</a>
</g>
</g>
<!-- Node4 -->
<g id="Node000004" class="node">
<title>Node4</title>
<g id="a_Node000004"><a xlink:href="class_ogre_1_1_o_s_x_g_l3_plus_support.html" target="_top" xlink:title=" ">
<polygon fill="white" stroke="#666666" points="336.5,-93.25 202,-93.25 202,-74 336.5,-74 336.5,-93.25"/>
<text text-anchor="middle" x="269.25" y="-79.75" font-family="Helvetica,sans-Serif" font-size="10.00">Ogre::OSXGL3PlusSupport</text>
</a>
</g>
</g>
<!-- Node0&#45;&gt;Node4 -->
<g id="edge1003_Node000000_Node000004" class="edge">
<title>Node0&#45;&gt;Node4</title>
<g id="a_edge1003_Node000000_Node000004"><a xlink:title=" ">
<path fill="none" stroke="#63b8ff" d="M151.23,-83.62C167.71,-83.62 185.35,-83.62 201.79,-83.62"/>
<polygon fill="#63b8ff" stroke="#63b8ff" points="151.55,-80.13 141.55,-83.63 151.55,-87.13 151.55,-80.13"/>
</a>
</g>
</g>
<!-- Node5 -->
<g id="Node000005" class="node">
<title>Node5</title>
<g id="a_Node000005"><a xlink:href="class_ogre_1_1_s_d_l_g_l_support.html" target="_top" xlink:title=" ">
<polygon fill="white" stroke="#666666" points="323.38,-56.25 215.12,-56.25 215.12,-37 323.38,-37 323.38,-56.25"/>
<text text-anchor="middle" x="269.25" y="-42.75" font-family="Helvetica,sans-Serif" font-size="10.00">Ogre::SDLGLSupport</text>
</a>
</g>
</g>
<!-- Node0&#45;&gt;Node5 -->
<g id="edge1004_Node000000_Node000005" class="edge">
<title>Node0&#45;&gt;Node5</title>
<g id="a_edge1004_Node000000_Node000005"><a xlink:title=" ">
<path fill="none" stroke="#63b8ff" d="M145.62,-71.25C169.13,-66.53 195.63,-61.21 217.96,-56.72"/>
<polygon fill="#63b8ff" stroke="#63b8ff" points="144.95,-67.82 135.83,-73.22 146.32,-74.68 144.95,-67.82"/>
</a>
</g>
</g>
<!-- Node6 -->
<g id="Node000006" class="node">
<title>Node6</title>
<g id="a_Node000006"><a xlink:href="class_ogre_1_1_win32_g_l_support.html" target="_top" xlink:title=" ">
<polygon fill="white" stroke="#666666" points="327.12,-19.25 211.38,-19.25 211.38,0 327.12,0 327.12,-19.25"/>
<text text-anchor="middle" x="269.25" y="-5.75" font-family="Helvetica,sans-Serif" font-size="10.00">Ogre::Win32GLSupport</text>
</a>
</g>
</g>
<!-- Node0&#45;&gt;Node6 -->
<g id="edge1005_Node000000_Node000006" class="edge">
<title>Node0&#45;&gt;Node6</title>
<g id="a_edge1005_Node000000_Node000006"><a xlink:title=" ">
<path fill="none" stroke="#63b8ff" d="M112.34,-68.42C135.87,-56.23 170.46,-39.29 202,-27.62 209.83,-24.73 218.32,-22.07 226.54,-19.74"/>
<polygon fill="#63b8ff" stroke="#63b8ff" points="110.93,-65.21 103.7,-72.95 114.18,-71.41 110.93,-65.21"/>
</a>
</g>
</g>
<!-- Node3 -->
<g id="Node000003" class="node">
<title>Node3</title>
<g id="a_Node000003"><a xlink:href="class_ogre_1_1_singleton.html" target="_top" xlink:title=" ">
<polygon fill="white" stroke="#666666" points="166,-167.25 0,-167.25 0,-148 166,-148 166,-167.25"/>
<text text-anchor="middle" x="83" y="-153.75" font-family="Helvetica,sans-Serif" font-size="10.00">Ogre::Singleton&lt; GTKGLSupport &gt;</text>
</a>
</g>
</g>
<!-- Node3&#45;&gt;Node2 -->
<g id="edge1006_Node000003_Node000002" class="edge">
<title>Node3&#45;&gt;Node2</title>
<g id="a_edge1006_Node000003_Node000002"><a xlink:title=" ">
<path fill="none" stroke="#63b8ff" d="M177.92,-157.62C190.45,-157.62 202.94,-157.62 214.45,-157.62"/>
<polygon fill="#63b8ff" stroke="#63b8ff" points="177.94,-154.13 167.94,-157.63 177.94,-161.13 177.94,-154.13"/>
</a>
</g>
</g>
</g>
</svg>
