<?xml version="1.0" encoding="UTF-8" standalone="no"?>
<!DOCTYPE svg PUBLIC "-//W3C//DTD SVG 1.1//EN"
 "http://www.w3.org/Graphics/SVG/1.1/DTD/svg11.dtd">
<!-- Generated by graphviz version 9.0.0 (20230911.1827)
 -->
<!-- Title: Graphical Class Hierarchy Pages: 1 -->
<svg width="384pt" height="137pt"
 viewBox="0.00 0.00 383.50 136.50" xmlns="http://www.w3.org/2000/svg" xmlns:xlink="http://www.w3.org/1999/xlink">
<g id="graph0" class="graph" transform="scale(1 1) rotate(0) translate(4 132.5)">
<title>Graphical Class Hierarchy</title>
<!-- Node0 -->
<g id="Node000000" class="node">
<title>Node0</title>
<g id="a_Node000000"><a xlink:href="class_ogre_1_1_g_l_s_l_e_s_program_manager_common.html" target="_top" xlink:title="Ogre assumes that there are separate programs to deal with but GLSL ES has one program object that re...">
<polygon fill="white" stroke="#666666" points="160.38,-79.5 5.62,-79.5 5.62,-49 160.38,-49 160.38,-79.5"/>
<text text-anchor="start" x="13.62" y="-66" font-family="Helvetica,sans-Serif" font-size="10.00">Ogre::GLSLESProgramManager</text>
<text text-anchor="middle" x="83" y="-54.75" font-family="Helvetica,sans-Serif" font-size="10.00">Common</text>
</a>
</g>
</g>
<!-- Node1 -->
<g id="Node000001" class="node">
<title>Node1</title>
<g id="a_Node000001"><a xlink:href="class_ogre_1_1_g_l_s_l_e_s_link_program_manager.html" target="_top" xlink:title="Ogre assumes that there are separate vertex and fragment programs to deal with but GLSL ES has one pr...">
<polygon fill="white" stroke="#666666" points="375.5,-96.88 202,-96.88 202,-77.62 375.5,-77.62 375.5,-96.88"/>
<text text-anchor="middle" x="288.75" y="-83.38" font-family="Helvetica,sans-Serif" font-size="10.00">Ogre::GLSLESLinkProgramManager</text>
</a>
</g>
</g>
<!-- Node0&#45;&gt;Node1 -->
<g id="edge1021_Node000000_Node000001" class="edge">
<title>Node0&#45;&gt;Node1</title>
<g id="a_edge1021_Node000000_Node000001"><a xlink:title=" ">
<path fill="none" stroke="#63b8ff" d="M172.09,-74.19C181.85,-75.3 191.78,-76.42 201.52,-77.52"/>
<polygon fill="#63b8ff" stroke="#63b8ff" points="172.57,-70.73 162.24,-73.08 171.79,-77.68 172.57,-70.73"/>
</a>
</g>
</g>
<!-- Node3 -->
<g id="Node000003" class="node">
<title>Node3</title>
<g id="a_Node000003"><a xlink:href="class_ogre_1_1_g_l_s_l_e_s_program_pipeline_manager.html" target="_top" xlink:title="Ogre assumes that there are separate vertex and fragment programs to deal with but GLSL ES has one pr...">
<polygon fill="white" stroke="#666666" points="364.62,-56.5 212.88,-56.5 212.88,-26 364.62,-26 364.62,-56.5"/>
<text text-anchor="start" x="220.88" y="-43" font-family="Helvetica,sans-Serif" font-size="10.00">Ogre::GLSLESProgramPipeline</text>
<text text-anchor="middle" x="288.75" y="-31.75" font-family="Helvetica,sans-Serif" font-size="10.00">Manager</text>
</a>
</g>
</g>
<!-- Node0&#45;&gt;Node3 -->
<g id="edge1022_Node000000_Node000003" class="edge">
<title>Node0&#45;&gt;Node3</title>
<g id="a_edge1022_Node000000_Node000003"><a xlink:title=" ">
<path fill="none" stroke="#63b8ff" d="M171.96,-54.32C185.44,-52.8 199.26,-51.24 212.43,-49.75"/>
<polygon fill="#63b8ff" stroke="#63b8ff" points="171.79,-50.82 162.24,-55.42 172.57,-57.77 171.79,-50.82"/>
</a>
</g>
</g>
<!-- Node2 -->
<g id="Node000002" class="node">
<title>Node2</title>
<g id="a_Node000002"><a xlink:href="class_ogre_1_1_singleton.html" target="_top" xlink:title=" ">
<polygon fill="white" stroke="#666666" points="157,-128.5 9,-128.5 9,-98 157,-98 157,-128.5"/>
<text text-anchor="start" x="17" y="-115" font-family="Helvetica,sans-Serif" font-size="10.00">Ogre::Singleton&lt; GLSLESLink</text>
<text text-anchor="middle" x="83" y="-103.75" font-family="Helvetica,sans-Serif" font-size="10.00">ProgramManager &gt;</text>
</a>
</g>
</g>
<!-- Node2&#45;&gt;Node1 -->
<g id="edge1023_Node000002_Node000001" class="edge">
<title>Node2&#45;&gt;Node1</title>
<g id="a_edge1023_Node000002_Node000001"><a xlink:title=" ">
<path fill="none" stroke="#63b8ff" d="M168.34,-102.49C181.66,-100.79 195.39,-99.04 208.58,-97.35"/>
<polygon fill="#63b8ff" stroke="#63b8ff" points="168.25,-98.97 158.77,-103.71 169.13,-105.91 168.25,-98.97"/>
</a>
</g>
</g>
<!-- Node4 -->
<g id="Node000004" class="node">
<title>Node4</title>
<g id="a_Node000004"><a xlink:href="class_ogre_1_1_singleton.html" target="_top" xlink:title=" ">
<polygon fill="white" stroke="#666666" points="166,-30.5 0,-30.5 0,0 166,0 166,-30.5"/>
<text text-anchor="start" x="8" y="-17" font-family="Helvetica,sans-Serif" font-size="10.00">Ogre::Singleton&lt; GLSLESProgram</text>
<text text-anchor="middle" x="83" y="-5.75" font-family="Helvetica,sans-Serif" font-size="10.00">PipelineManager &gt;</text>
</a>
</g>
</g>
<!-- Node4&#45;&gt;Node3 -->
<g id="edge1024_Node000004_Node000003" class="edge">
<title>Node4&#45;&gt;Node3</title>
<g id="a_edge1024_Node000004_Node000003"><a xlink:title=" ">
<path fill="none" stroke="#63b8ff" d="M177.45,-27.17C189.16,-28.67 201.01,-30.18 212.4,-31.63"/>
<polygon fill="#63b8ff" stroke="#63b8ff" points="178.15,-23.74 167.79,-25.94 177.26,-30.68 178.15,-23.74"/>
</a>
</g>
</g>
</g>
</svg>
