<?xml version="1.0" encoding="UTF-8" standalone="no"?>
<!DOCTYPE svg PUBLIC "-//W3C//DTD SVG 1.1//EN"
 "http://www.w3.org/Graphics/SVG/1.1/DTD/svg11.dtd">
<!-- Generated by graphviz version 9.0.0 (20230911.1827)
 -->
<!-- Title: Graphical Class Hierarchy Pages: 1 -->
<svg width="947pt" height="360pt"
 viewBox="0.00 0.00 947.00 359.50" xmlns="http://www.w3.org/2000/svg" xmlns:xlink="http://www.w3.org/1999/xlink">
<g id="graph0" class="graph" transform="scale(1 1) rotate(0) translate(4 355.5)">
<title>Graphical Class Hierarchy</title>
<!-- Node0 -->
<g id="Node000000" class="node">
<title>Node0</title>
<g id="a_Node000000"><a xlink:href="class_ogre_1_1_small_vector_base.html" target="_top" xlink:title="SmallVectorBase &#45; This is all the non&#45;templated stuff common to all SmallVectors.">
<polygon fill="white" stroke="#666666" points="117.25,-176.88 0,-176.88 0,-157.62 117.25,-157.62 117.25,-176.88"/>
<text text-anchor="middle" x="58.62" y="-163.38" font-family="Helvetica,sans-Serif" font-size="10.00">Ogre::SmallVectorBase</text>
</a>
</g>
</g>
<!-- Node1 -->
<g id="Node000001" class="node">
<title>Node1</title>
<g id="a_Node000001"><a xlink:href="class_ogre_1_1_small_vector_template_common.html" target="_top" xlink:title=" ">
<polygon fill="white" stroke="#666666" points="288.5,-231.5 153.25,-231.5 153.25,-201 288.5,-201 288.5,-231.5"/>
<text text-anchor="start" x="161.25" y="-218" font-family="Helvetica,sans-Serif" font-size="10.00">Ogre::SmallVectorTemplate</text>
<text text-anchor="middle" x="220.88" y="-206.75" font-family="Helvetica,sans-Serif" font-size="10.00">Common&lt; Edge &gt;</text>
</a>
</g>
</g>
<!-- Node0&#45;&gt;Node1 -->
<g id="edge1237_Node000000_Node000001" class="edge">
<title>Node0&#45;&gt;Node1</title>
<g id="a_edge1237_Node000000_Node000001"><a xlink:title=" ">
<path fill="none" stroke="#63b8ff" d="M103.19,-180.57C123.35,-186.74 147.44,-194.1 168.49,-200.54"/>
<polygon fill="#63b8ff" stroke="#63b8ff" points="104.47,-177.3 93.89,-177.73 102.43,-184 104.47,-177.3"/>
</a>
</g>
</g>
<!-- Node2 -->
<g id="Node000002" class="node">
<title>Node2</title>
<g id="a_Node000002"><a xlink:href="class_ogre_1_1_small_vector_template_common.html" target="_top" xlink:title=" ">
<polygon fill="white" stroke="#666666" points="288.5,-182.5 153.25,-182.5 153.25,-152 288.5,-152 288.5,-182.5"/>
<text text-anchor="start" x="161.25" y="-169" font-family="Helvetica,sans-Serif" font-size="10.00">Ogre::SmallVectorTemplate</text>
<text text-anchor="middle" x="220.88" y="-157.75" font-family="Helvetica,sans-Serif" font-size="10.00">Common&lt; Triangle * &gt;</text>
</a>
</g>
</g>
<!-- Node0&#45;&gt;Node2 -->
<g id="edge1238_Node000000_Node000002" class="edge">
<title>Node0&#45;&gt;Node2</title>
<g id="a_edge1238_Node000000_Node000002"><a xlink:title=" ">
<path fill="none" stroke="#63b8ff" d="M128.95,-167.25C136.88,-167.25 144.95,-167.25 152.84,-167.25"/>
<polygon fill="#63b8ff" stroke="#63b8ff" points="128.99,-163.75 118.99,-167.25 128.99,-170.75 128.99,-163.75"/>
</a>
</g>
</g>
<!-- Node3 -->
<g id="Node000003" class="node">
<title>Node3</title>
<g id="a_Node000003"><a xlink:href="class_ogre_1_1_small_vector_template_common.html" target="_top" xlink:title=" ">
<polygon fill="white" stroke="#666666" points="288.5,-133.5 153.25,-133.5 153.25,-103 288.5,-103 288.5,-133.5"/>
<text text-anchor="start" x="161.25" y="-120" font-family="Helvetica,sans-Serif" font-size="10.00">Ogre::SmallVectorTemplate</text>
<text text-anchor="middle" x="220.88" y="-108.75" font-family="Helvetica,sans-Serif" font-size="10.00">Common&lt; T &gt;</text>
</a>
</g>
</g>
<!-- Node0&#45;&gt;Node3 -->
<g id="edge1239_Node000000_Node000003" class="edge">
<title>Node0&#45;&gt;Node3</title>
<g id="a_edge1239_Node000000_Node000003"><a xlink:title=" ">
<path fill="none" stroke="#63b8ff" d="M103.19,-153.93C123.35,-147.76 147.44,-140.4 168.49,-133.96"/>
<polygon fill="#63b8ff" stroke="#63b8ff" points="102.43,-150.5 93.89,-156.77 104.47,-157.2 102.43,-150.5"/>
</a>
</g>
</g>
<!-- Node4 -->
<g id="Node000004" class="node">
<title>Node4</title>
<g id="a_Node000004"><a xlink:href="class_ogre_1_1_small_vector_template_base.html" target="_top" xlink:title=" ">
<polygon fill="white" stroke="#666666" points="460.12,-259.12 324.88,-259.12 324.88,-217.38 460.12,-217.38 460.12,-259.12"/>
<text text-anchor="start" x="332.88" y="-245.62" font-family="Helvetica,sans-Serif" font-size="10.00">Ogre::SmallVectorTemplate</text>
<text text-anchor="start" x="332.88" y="-234.38" font-family="Helvetica,sans-Serif" font-size="10.00">Base&lt; T, isPodLike&lt; T &gt;</text>
<text text-anchor="middle" x="392.5" y="-223.12" font-family="Helvetica,sans-Serif" font-size="10.00">::value &gt;</text>
</a>
</g>
</g>
<!-- Node3&#45;&gt;Node4 -->
<g id="edge1240_Node000003_Node000004" class="edge">
<title>Node3&#45;&gt;Node4</title>
<g id="a_edge1240_Node000003_Node000004"><a xlink:title=" ">
<path fill="none" stroke="#63b8ff" d="M284.49,-140.06C285.87,-141.08 287.21,-142.14 288.5,-143.25 313.5,-164.83 300.18,-185.91 324.5,-208.25 327.97,-211.44 331.84,-214.33 335.92,-216.95"/>
<polygon fill="#63b8ff" stroke="#63b8ff" points="286.42,-137.14 276.09,-134.79 282.7,-143.07 286.42,-137.14"/>
</a>
</g>
</g>
<!-- Node14 -->
<g id="Node000014" class="node">
<title>Node14</title>
<g id="a_Node000014"><a xlink:href="class_ogre_1_1_small_vector_template_base.html" target="_top" xlink:title=" ">
<polygon fill="white" stroke="#666666" points="460.12,-199.12 324.88,-199.12 324.88,-157.38 460.12,-157.38 460.12,-199.12"/>
<text text-anchor="start" x="332.88" y="-185.62" font-family="Helvetica,sans-Serif" font-size="10.00">Ogre::SmallVectorTemplate</text>
<text text-anchor="start" x="332.88" y="-174.38" font-family="Helvetica,sans-Serif" font-size="10.00">Base&lt; Edge, isPodLike&lt;</text>
<text text-anchor="middle" x="392.5" y="-163.12" font-family="Helvetica,sans-Serif" font-size="10.00"> Edge &gt;::value &gt;</text>
</a>
</g>
</g>
<!-- Node3&#45;&gt;Node14 -->
<g id="edge1250_Node000003_Node000014" class="edge">
<title>Node3&#45;&gt;Node14</title>
<g id="a_edge1250_Node000003_Node000014"><a xlink:title=" ">
<path fill="none" stroke="#63b8ff" d="M276.59,-137.6C294.06,-143.78 313.48,-150.65 331.32,-156.96"/>
<polygon fill="#63b8ff" stroke="#63b8ff" points="278.02,-134.4 267.43,-134.36 275.69,-141 278.02,-134.4"/>
</a>
</g>
</g>
<!-- Node15 -->
<g id="Node000015" class="node">
<title>Node15</title>
<g id="a_Node000015"><a xlink:href="class_ogre_1_1_small_vector_template_base.html" target="_top" xlink:title=" ">
<polygon fill="white" stroke="#666666" points="460.5,-139.12 324.5,-139.12 324.5,-97.38 460.5,-97.38 460.5,-139.12"/>
<text text-anchor="start" x="332.5" y="-125.62" font-family="Helvetica,sans-Serif" font-size="10.00">Ogre::SmallVectorTemplate</text>
<text text-anchor="start" x="332.5" y="-114.38" font-family="Helvetica,sans-Serif" font-size="10.00">Base&lt; Triangle *, isPodLike</text>
<text text-anchor="middle" x="392.5" y="-103.12" font-family="Helvetica,sans-Serif" font-size="10.00">&lt; Triangle * &gt;::value &gt;</text>
</a>
</g>
</g>
<!-- Node3&#45;&gt;Node15 -->
<g id="edge1251_Node000003_Node000015" class="edge">
<title>Node3&#45;&gt;Node15</title>
<g id="a_edge1251_Node000003_Node000015"><a xlink:title=" ">
<path fill="none" stroke="#63b8ff" d="M300.43,-118.25C308.34,-118.25 316.33,-118.25 324.11,-118.25"/>
<polygon fill="#63b8ff" stroke="#63b8ff" points="300.43,-114.75 290.43,-118.25 300.43,-121.75 300.43,-114.75"/>
</a>
</g>
</g>
<!-- Node16 -->
<g id="Node000016" class="node">
<title>Node16</title>
<g id="a_Node000016"><a xlink:href="class_ogre_1_1_small_vector_template_base.html" target="_top" xlink:title="SmallVectorTemplateBase&lt;isPodLike = false&gt; &#45; This is where we put method implementations that are des...">
<polygon fill="white" stroke="#666666" points="460.12,-79.5 324.88,-79.5 324.88,-49 460.12,-49 460.12,-79.5"/>
<text text-anchor="start" x="332.88" y="-66" font-family="Helvetica,sans-Serif" font-size="10.00">Ogre::SmallVectorTemplate</text>
<text text-anchor="middle" x="392.5" y="-54.75" font-family="Helvetica,sans-Serif" font-size="10.00">Base&lt; T, isPodLike &gt;</text>
</a>
</g>
</g>
<!-- Node3&#45;&gt;Node16 -->
<g id="edge1252_Node000003_Node000016" class="edge">
<title>Node3&#45;&gt;Node16</title>
<g id="a_edge1252_Node000003_Node000016"><a xlink:title=" ">
<path fill="none" stroke="#63b8ff" d="M281.71,-99.2C301.52,-92.89 323.33,-85.95 342.25,-79.93"/>
<polygon fill="#63b8ff" stroke="#63b8ff" points="280.85,-95.8 272.38,-102.17 282.97,-102.47 280.85,-95.8"/>
</a>
</g>
</g>
<!-- Node19 -->
<g id="Node000019" class="node">
<title>Node19</title>
<g id="a_Node000019"><a xlink:href="class_ogre_1_1_small_vector_template_base_3_01_t_00_01true_01_4.html" target="_top" xlink:title="SmallVectorTemplateBase&lt;isPodLike = true&gt; &#45; This is where we put method implementations that are desi...">
<polygon fill="white" stroke="#666666" points="460.12,-30.5 324.88,-30.5 324.88,0 460.12,0 460.12,-30.5"/>
<text text-anchor="start" x="332.88" y="-17" font-family="Helvetica,sans-Serif" font-size="10.00">Ogre::SmallVectorTemplate</text>
<text text-anchor="middle" x="392.5" y="-5.75" font-family="Helvetica,sans-Serif" font-size="10.00">Base&lt; T, true &gt;</text>
</a>
</g>
</g>
<!-- Node3&#45;&gt;Node19 -->
<g id="edge1255_Node000003_Node000019" class="edge">
<title>Node3&#45;&gt;Node19</title>
<g id="a_edge1255_Node000003_Node000019"><a xlink:title=" ">
<path fill="none" stroke="#63b8ff" d="M247.43,-95.44C267.35,-78.52 296.28,-55.79 324.5,-40.25 330.7,-36.84 337.46,-33.7 344.22,-30.89"/>
<polygon fill="#63b8ff" stroke="#63b8ff" points="245.38,-92.58 240.09,-101.76 249.95,-97.88 245.38,-92.58"/>
</a>
</g>
</g>
<!-- Node5 -->
<g id="Node000005" class="node">
<title>Node5</title>
<g id="a_Node000005"><a xlink:href="class_ogre_1_1_small_vector_impl.html" target="_top" xlink:title="SmallVectorImpl &#45; This class consists of common code factored out of the SmallVector class to reduce ...">
<polygon fill="white" stroke="#666666" points="632.5,-247.88 496.5,-247.88 496.5,-228.62 632.5,-228.62 632.5,-247.88"/>
<text text-anchor="middle" x="564.5" y="-234.38" font-family="Helvetica,sans-Serif" font-size="10.00">Ogre::SmallVectorImpl&lt; T &gt;</text>
</a>
</g>
</g>
<!-- Node4&#45;&gt;Node5 -->
<g id="edge1241_Node000004_Node000005" class="edge">
<title>Node4&#45;&gt;Node5</title>
<g id="a_edge1241_Node000004_Node000005"><a xlink:title=" ">
<path fill="none" stroke="#63b8ff" d="M471.67,-238.25C479.85,-238.25 488.11,-238.25 496.15,-238.25"/>
<polygon fill="#63b8ff" stroke="#63b8ff" points="471.71,-234.75 461.71,-238.25 471.71,-241.75 471.71,-234.75"/>
</a>
</g>
</g>
<!-- Node6 -->
<g id="Node000006" class="node">
<title>Node6</title>
<g id="a_Node000006"><a xlink:href="class_ogre_1_1_small_vector.html" target="_top" xlink:title=" ">
<polygon fill="white" stroke="#666666" points="769.25,-351.5 668.5,-351.5 668.5,-321 769.25,-321 769.25,-351.5"/>
<text text-anchor="start" x="676.5" y="-338" font-family="Helvetica,sans-Serif" font-size="10.00">Ogre::SmallVector&lt;</text>
<text text-anchor="middle" x="718.88" y="-326.75" font-family="Helvetica,sans-Serif" font-size="10.00"> T, S &gt;</text>
</a>
</g>
</g>
<!-- Node5&#45;&gt;Node6 -->
<g id="edge1242_Node000005_Node000006" class="edge">
<title>Node5&#45;&gt;Node6</title>
<g id="a_edge1242_Node000005_Node000006"><a xlink:title=" ">
<path fill="none" stroke="#63b8ff" d="M587.49,-255.27C607.91,-270.74 639.47,-293.74 668.5,-311.25 673.77,-314.43 679.48,-317.58 685.1,-320.51"/>
<polygon fill="#63b8ff" stroke="#63b8ff" points="589.69,-252.55 579.61,-249.26 585.44,-258.11 589.69,-252.55"/>
</a>
</g>
</g>
<!-- Node8 -->
<g id="Node000008" class="node">
<title>Node8</title>
<g id="a_Node000008"><a xlink:href="class_ogre_1_1_small_vector.html" target="_top" xlink:title=" ">
<polygon fill="white" stroke="#666666" points="769.25,-302.5 668.5,-302.5 668.5,-272 769.25,-272 769.25,-302.5"/>
<text text-anchor="start" x="676.5" y="-289" font-family="Helvetica,sans-Serif" font-size="10.00">Ogre::SmallVector&lt;</text>
<text text-anchor="middle" x="718.88" y="-277.75" font-family="Helvetica,sans-Serif" font-size="10.00"> Edge, S &gt;</text>
</a>
</g>
</g>
<!-- Node5&#45;&gt;Node8 -->
<g id="edge1244_Node000005_Node000008" class="edge">
<title>Node5&#45;&gt;Node8</title>
<g id="a_edge1244_Node000005_Node000008"><a xlink:title=" ">
<path fill="none" stroke="#63b8ff" d="M607.46,-251.74C626.52,-257.87 649.19,-265.16 669.01,-271.54"/>
<polygon fill="#63b8ff" stroke="#63b8ff" points="608.74,-248.48 598.14,-248.75 606.59,-255.14 608.74,-248.48"/>
</a>
</g>
</g>
<!-- Node9 -->
<g id="Node000009" class="node">
<title>Node9</title>
<g id="a_Node000009"><a xlink:href="class_ogre_1_1_small_vector.html" target="_top" xlink:title=" ">
<polygon fill="white" stroke="#666666" points="769.25,-253.5 668.5,-253.5 668.5,-223 769.25,-223 769.25,-253.5"/>
<text text-anchor="start" x="676.5" y="-240" font-family="Helvetica,sans-Serif" font-size="10.00">Ogre::SmallVector&lt;</text>
<text text-anchor="middle" x="718.88" y="-228.75" font-family="Helvetica,sans-Serif" font-size="10.00"> Triangle *, S &gt;</text>
</a>
</g>
</g>
<!-- Node5&#45;&gt;Node9 -->
<g id="edge1245_Node000005_Node000009" class="edge">
<title>Node5&#45;&gt;Node9</title>
<g id="a_edge1245_Node000005_Node000009"><a xlink:title=" ">
<path fill="none" stroke="#63b8ff" d="M644.04,-238.25C652.31,-238.25 660.54,-238.25 668.34,-238.25"/>
<polygon fill="#63b8ff" stroke="#63b8ff" points="644.29,-234.75 634.29,-238.25 644.29,-241.75 644.29,-234.75"/>
</a>
</g>
</g>
<!-- Node10 -->
<g id="Node000010" class="node">
<title>Node10</title>
<g id="a_Node000010"><a xlink:href="class_ogre_1_1_small_vector.html" target="_top" xlink:title="SmallVector &#45; This is a &#39;vector&#39; (really, a variable&#45;sized array), optimized for the case when the ar...">
<polygon fill="white" stroke="#666666" points="769.25,-204.5 668.5,-204.5 668.5,-174 769.25,-174 769.25,-204.5"/>
<text text-anchor="start" x="676.5" y="-191" font-family="Helvetica,sans-Serif" font-size="10.00">Ogre::SmallVector&lt;</text>
<text text-anchor="middle" x="718.88" y="-179.75" font-family="Helvetica,sans-Serif" font-size="10.00"> T, N &gt;</text>
</a>
</g>
</g>
<!-- Node5&#45;&gt;Node10 -->
<g id="edge1246_Node000005_Node000010" class="edge">
<title>Node5&#45;&gt;Node10</title>
<g id="a_edge1246_Node000005_Node000010"><a xlink:title=" ">
<path fill="none" stroke="#63b8ff" d="M607.46,-224.76C626.52,-218.63 649.19,-211.34 669.01,-204.96"/>
<polygon fill="#63b8ff" stroke="#63b8ff" points="606.59,-221.36 598.14,-227.75 608.74,-228.02 606.59,-221.36"/>
</a>
</g>
</g>
<!-- Node13 -->
<g id="Node000013" class="node">
<title>Node13</title>
<g id="a_Node000013"><a xlink:href="class_ogre_1_1_small_vector_3_01_t_00_010_01_4.html" target="_top" xlink:title="Specialize SmallVector at N=0.">
<polygon fill="white" stroke="#666666" points="769.25,-155.5 668.5,-155.5 668.5,-125 769.25,-125 769.25,-155.5"/>
<text text-anchor="start" x="676.5" y="-142" font-family="Helvetica,sans-Serif" font-size="10.00">Ogre::SmallVector&lt;</text>
<text text-anchor="middle" x="718.88" y="-130.75" font-family="Helvetica,sans-Serif" font-size="10.00"> T, 0 &gt;</text>
</a>
</g>
</g>
<!-- Node5&#45;&gt;Node13 -->
<g id="edge1249_Node000005_Node000013" class="edge">
<title>Node5&#45;&gt;Node13</title>
<g id="a_edge1249_Node000005_Node000013"><a xlink:title=" ">
<path fill="none" stroke="#63b8ff" d="M587.49,-221.23C607.91,-205.76 639.47,-182.76 668.5,-165.25 673.77,-162.07 679.48,-158.92 685.1,-155.99"/>
<polygon fill="#63b8ff" stroke="#63b8ff" points="585.44,-218.39 579.61,-227.24 589.69,-223.95 585.44,-218.39"/>
</a>
</g>
</g>
<!-- Node7 -->
<g id="Node000007" class="node">
<title>Node7</title>
<g id="a_Node000007"><a xlink:href="struct_ogre_1_1_vector_set.html" target="_top" xlink:title="VectorSet is basically a helper to use a vector as a small set container.">
<polygon fill="white" stroke="#666666" points="931.88,-345.88 812.38,-345.88 812.38,-326.62 931.88,-326.62 931.88,-345.88"/>
<text text-anchor="middle" x="872.12" y="-332.38" font-family="Helvetica,sans-Serif" font-size="10.00">Ogre::VectorSet&lt; T, S &gt;</text>
</a>
</g>
</g>
<!-- Node6&#45;&gt;Node7 -->
<g id="edge1243_Node000006_Node000007" class="edge">
<title>Node6&#45;&gt;Node7</title>
<g id="a_edge1243_Node000006_Node000007"><a xlink:title=" ">
<path fill="none" stroke="#63b8ff" d="M780.81,-336.25C791.1,-336.25 801.76,-336.25 812,-336.25"/>
<polygon fill="#63b8ff" stroke="#63b8ff" points="780.91,-332.75 770.91,-336.25 780.91,-339.75 780.91,-332.75"/>
</a>
</g>
</g>
<!-- Node11 -->
<g id="Node000011" class="node">
<title>Node11</title>
<g id="a_Node000011"><a xlink:href="struct_ogre_1_1_vector_set.html" target="_top" xlink:title=" ">
<polygon fill="white" stroke="#666666" points="939,-219.88 805.25,-219.88 805.25,-200.62 939,-200.62 939,-219.88"/>
<text text-anchor="middle" x="872.12" y="-206.38" font-family="Helvetica,sans-Serif" font-size="10.00">Ogre::VectorSet&lt; Edge, 8 &gt;</text>
</a>
</g>
</g>
<!-- Node10&#45;&gt;Node11 -->
<g id="edge1247_Node000010_Node000011" class="edge">
<title>Node10&#45;&gt;Node11</title>
<g id="a_edge1247_Node000010_Node000011"><a xlink:title=" ">
<path fill="none" stroke="#63b8ff" d="M780.56,-197.68C788.6,-198.79 796.87,-199.94 804.99,-201.07"/>
<polygon fill="#63b8ff" stroke="#63b8ff" points="781.29,-194.24 770.9,-196.33 780.32,-201.18 781.29,-194.24"/>
</a>
</g>
</g>
<!-- Node12 -->
<g id="Node000012" class="node">
<title>Node12</title>
<g id="a_Node000012"><a xlink:href="struct_ogre_1_1_vector_set.html" target="_top" xlink:title=" ">
<polygon fill="white" stroke="#666666" points="936,-182.5 808.25,-182.5 808.25,-152 936,-152 936,-182.5"/>
<text text-anchor="start" x="816.25" y="-169" font-family="Helvetica,sans-Serif" font-size="10.00">Ogre::VectorSet&lt; Triangle</text>
<text text-anchor="middle" x="872.12" y="-157.75" font-family="Helvetica,sans-Serif" font-size="10.00"> *, 7 &gt;</text>
</a>
</g>
</g>
<!-- Node10&#45;&gt;Node12 -->
<g id="edge1248_Node000010_Node000012" class="edge">
<title>Node10&#45;&gt;Node12</title>
<g id="a_edge1248_Node000010_Node000012"><a xlink:title=" ">
<path fill="none" stroke="#63b8ff" d="M780.61,-180.42C789.62,-179.11 798.92,-177.75 807.97,-176.44"/>
<polygon fill="#63b8ff" stroke="#63b8ff" points="780.29,-176.93 770.9,-181.83 781.3,-183.85 780.29,-176.93"/>
</a>
</g>
</g>
<!-- Node17 -->
<g id="Node000017" class="node">
<title>Node17</title>
<g id="a_Node000017"><a xlink:href="class_ogre_1_1_small_vector_impl.html" target="_top" xlink:title=" ">
<polygon fill="white" stroke="#666666" points="621.25,-104.5 507.75,-104.5 507.75,-74 621.25,-74 621.25,-104.5"/>
<text text-anchor="start" x="515.75" y="-91" font-family="Helvetica,sans-Serif" font-size="10.00">Ogre::SmallVectorImpl</text>
<text text-anchor="middle" x="564.5" y="-79.75" font-family="Helvetica,sans-Serif" font-size="10.00">&lt; Edge &gt;</text>
</a>
</g>
</g>
<!-- Node16&#45;&gt;Node17 -->
<g id="edge1253_Node000016_Node000017" class="edge">
<title>Node16&#45;&gt;Node17</title>
<g id="a_edge1253_Node000016_Node000017"><a xlink:title=" ">
<path fill="none" stroke="#63b8ff" d="M471.3,-75.69C483.48,-77.48 495.86,-79.3 507.43,-81"/>
<polygon fill="#63b8ff" stroke="#63b8ff" points="472.1,-72.27 461.7,-74.28 471.08,-79.2 472.1,-72.27"/>
</a>
</g>
</g>
<!-- Node18 -->
<g id="Node000018" class="node">
<title>Node18</title>
<g id="a_Node000018"><a xlink:href="class_ogre_1_1_small_vector_impl.html" target="_top" xlink:title=" ">
<polygon fill="white" stroke="#666666" points="621.25,-55.5 507.75,-55.5 507.75,-25 621.25,-25 621.25,-55.5"/>
<text text-anchor="start" x="515.75" y="-42" font-family="Helvetica,sans-Serif" font-size="10.00">Ogre::SmallVectorImpl</text>
<text text-anchor="middle" x="564.5" y="-30.75" font-family="Helvetica,sans-Serif" font-size="10.00">&lt; Triangle * &gt;</text>
</a>
</g>
</g>
<!-- Node16&#45;&gt;Node18 -->
<g id="edge1254_Node000016_Node000018" class="edge">
<title>Node16&#45;&gt;Node18</title>
<g id="a_edge1254_Node000016_Node000018"><a xlink:title=" ">
<path fill="none" stroke="#63b8ff" d="M471.3,-53.27C483.48,-51.55 495.86,-49.8 507.43,-48.17"/>
<polygon fill="#63b8ff" stroke="#63b8ff" points="471.11,-49.76 461.7,-54.62 472.09,-56.69 471.11,-49.76"/>
</a>
</g>
</g>
</g>
</svg>
