<?xml version="1.0" encoding="UTF-8" standalone="no"?>
<!DOCTYPE svg PUBLIC "-//W3C//DTD SVG 1.1//EN"
 "http://www.w3.org/Graphics/SVG/1.1/DTD/svg11.dtd">
<!-- Generated by graphviz version 2.44.0 ()
 -->
<!-- Title: Ogre::CbBase Pages: 1 -->
<svg width="440pt" height="439pt"
 viewBox="0.00 0.00 440.00 438.50" xmlns="http://www.w3.org/2000/svg" xmlns:xlink="http://www.w3.org/1999/xlink">
<g id="graph0" class="graph" transform="scale(1 1) rotate(0) translate(4 434.5)">
<title>Ogre::CbBase</title>
<!-- Node1 -->
<g id="node1" class="node">
<title>Node1</title>
<g id="a_node1"><a xlink:title=" ">
<polygon fill="#bfbfbf" stroke="black" points="0,-202 0,-221 77,-221 77,-202 0,-202"/>
<text text-anchor="middle" x="38.5" y="-209" font-family="Helvetica,sans-Serif" font-size="10.00">Ogre::CbBase</text>
</a>
</g>
</g>
<!-- Node2 -->
<g id="node2" class="node">
<title>Node2</title>
<g id="a_node2"><a xlink:href="struct_ogre_1_1_cb_draw_call.html" target="_top" xlink:title=" ">
<polygon fill="none" stroke="black" points="137,-392 137,-411 230,-411 230,-392 137,-392"/>
<text text-anchor="middle" x="183.5" y="-399" font-family="Helvetica,sans-Serif" font-size="10.00">Ogre::CbDrawCall</text>
</a>
</g>
</g>
<!-- Node1&#45;&gt;Node2 -->
<g id="edge1" class="edge">
<title>Node1&#45;&gt;Node2</title>
<path fill="none" stroke="midnightblue" d="M42.36,-231.48C48.55,-267.22 66.58,-342.12 113,-382.5 119.8,-388.41 128.27,-392.5 136.93,-395.32"/>
<polygon fill="midnightblue" stroke="midnightblue" points="45.78,-230.67 40.75,-221.35 38.86,-231.77 45.78,-230.67"/>
</g>
<!-- Node5 -->
<g id="node5" class="node">
<title>Node5</title>
<g id="a_node5"><a xlink:href="struct_ogre_1_1_cb_indirect_buffer.html" target="_top" xlink:title=" ">
<polygon fill="none" stroke="black" points="127.5,-354 127.5,-373 239.5,-373 239.5,-354 127.5,-354"/>
<text text-anchor="middle" x="183.5" y="-361" font-family="Helvetica,sans-Serif" font-size="10.00">Ogre::CbIndirectBuffer</text>
</a>
</g>
</g>
<!-- Node1&#45;&gt;Node5 -->
<g id="edge4" class="edge">
<title>Node1&#45;&gt;Node5</title>
<path fill="none" stroke="midnightblue" d="M44.95,-231.08C54.08,-260.25 75.3,-314.86 113,-344.5 117.92,-348.37 123.56,-351.45 129.47,-353.9"/>
<polygon fill="midnightblue" stroke="midnightblue" points="48.23,-229.84 42.03,-221.25 41.52,-231.83 48.23,-229.84"/>
</g>
<!-- Node6 -->
<g id="node6" class="node">
<title>Node6</title>
<g id="a_node6"><a xlink:href="struct_ogre_1_1_cb_low_level_material.html" target="_top" xlink:title=" ">
<polygon fill="none" stroke="black" points="118,-316 118,-335 249,-335 249,-316 118,-316"/>
<text text-anchor="middle" x="183.5" y="-323" font-family="Helvetica,sans-Serif" font-size="10.00">Ogre::CbLowLevelMaterial</text>
</a>
</g>
</g>
<!-- Node1&#45;&gt;Node6 -->
<g id="edge5" class="edge">
<title>Node1&#45;&gt;Node6</title>
<path fill="none" stroke="midnightblue" d="M49.03,-230.13C61.03,-251.74 83.69,-286.89 113,-306.5 118.82,-310.39 125.42,-313.49 132.18,-315.96"/>
<polygon fill="midnightblue" stroke="midnightblue" points="52.08,-228.42 44.27,-221.26 45.91,-231.73 52.08,-228.42"/>
</g>
<!-- Node7 -->
<g id="node7" class="node">
<title>Node7</title>
<g id="a_node7"><a xlink:href="struct_ogre_1_1_cb_pipeline_state_object.html" target="_top" xlink:title=" ">
<polygon fill="none" stroke="black" points="113.5,-278 113.5,-297 253.5,-297 253.5,-278 113.5,-278"/>
<text text-anchor="middle" x="183.5" y="-285" font-family="Helvetica,sans-Serif" font-size="10.00">Ogre::CbPipelineStateObject</text>
</a>
</g>
</g>
<!-- Node1&#45;&gt;Node7 -->
<g id="edge6" class="edge">
<title>Node1&#45;&gt;Node7</title>
<path fill="none" stroke="midnightblue" d="M57.03,-228.34C71.13,-241.03 91.99,-258 113,-268.5 120.61,-272.3 129.08,-275.42 137.42,-277.96"/>
<polygon fill="midnightblue" stroke="midnightblue" points="59.28,-225.65 49.56,-221.43 54.53,-230.79 59.28,-225.65"/>
</g>
<!-- Node8 -->
<g id="node8" class="node">
<title>Node8</title>
<g id="a_node8"><a xlink:href="struct_ogre_1_1_cb_shader_buffer.html" target="_top" xlink:title=" ">
<polygon fill="none" stroke="black" points="128.5,-240 128.5,-259 238.5,-259 238.5,-240 128.5,-240"/>
<text text-anchor="middle" x="183.5" y="-247" font-family="Helvetica,sans-Serif" font-size="10.00">Ogre::CbShaderBuffer</text>
</a>
</g>
</g>
<!-- Node1&#45;&gt;Node8 -->
<g id="edge7" class="edge">
<title>Node1&#45;&gt;Node8</title>
<path fill="none" stroke="midnightblue" d="M85.31,-223.67C105.09,-228.93 127.88,-234.99 146.43,-239.91"/>
<polygon fill="midnightblue" stroke="midnightblue" points="86.15,-220.27 75.58,-221.09 84.35,-227.04 86.15,-220.27"/>
</g>
<!-- Node9 -->
<g id="node9" class="node">
<title>Node9</title>
<g id="a_node9"><a xlink:href="struct_ogre_1_1_cb_texture.html" target="_top" xlink:title=" ">
<polygon fill="none" stroke="black" points="140.5,-202 140.5,-221 226.5,-221 226.5,-202 140.5,-202"/>
<text text-anchor="middle" x="183.5" y="-209" font-family="Helvetica,sans-Serif" font-size="10.00">Ogre::CbTexture</text>
</a>
</g>
</g>
<!-- Node1&#45;&gt;Node9 -->
<g id="edge8" class="edge">
<title>Node1&#45;&gt;Node9</title>
<path fill="none" stroke="midnightblue" d="M87.44,-211.5C104.59,-211.5 123.77,-211.5 140.39,-211.5"/>
<polygon fill="midnightblue" stroke="midnightblue" points="87.07,-208 77.07,-211.5 87.07,-215 87.07,-208"/>
</g>
<!-- Node10 -->
<g id="node10" class="node">
<title>Node10</title>
<g id="a_node10"><a xlink:href="struct_ogre_1_1_cb_texture_disable_from.html" target="_top" xlink:title=" ">
<polygon fill="none" stroke="black" points="113,-164 113,-183 254,-183 254,-164 113,-164"/>
<text text-anchor="middle" x="183.5" y="-171" font-family="Helvetica,sans-Serif" font-size="10.00">Ogre::CbTextureDisableFrom</text>
</a>
</g>
</g>
<!-- Node1&#45;&gt;Node10 -->
<g id="edge9" class="edge">
<title>Node1&#45;&gt;Node10</title>
<path fill="none" stroke="midnightblue" d="M85.31,-199.33C105.09,-194.07 127.88,-188.01 146.43,-183.09"/>
<polygon fill="midnightblue" stroke="midnightblue" points="84.35,-195.96 75.58,-201.91 86.15,-202.73 84.35,-195.96"/>
</g>
<!-- Node11 -->
<g id="node11" class="node">
<title>Node11</title>
<g id="a_node11"><a xlink:href="struct_ogre_1_1_cb_vao.html" target="_top" xlink:title=" ">
<polygon fill="none" stroke="black" points="148,-126 148,-145 219,-145 219,-126 148,-126"/>
<text text-anchor="middle" x="183.5" y="-133" font-family="Helvetica,sans-Serif" font-size="10.00">Ogre::CbVao</text>
</a>
</g>
</g>
<!-- Node1&#45;&gt;Node11 -->
<g id="edge10" class="edge">
<title>Node1&#45;&gt;Node11</title>
<path fill="none" stroke="midnightblue" d="M57.03,-194.66C71.13,-181.97 91.99,-165 113,-154.5 123.85,-149.08 136.46,-145.04 147.93,-142.11"/>
<polygon fill="midnightblue" stroke="midnightblue" points="54.53,-192.21 49.56,-201.57 59.28,-197.35 54.53,-192.21"/>
</g>
<!-- Node12 -->
<g id="node12" class="node">
<title>Node12</title>
<g id="a_node12"><a xlink:href="struct_ogre_1_1v1_1_1_cb_draw_call.html" target="_top" xlink:title=" ">
<polygon fill="none" stroke="black" points="129.5,-88 129.5,-107 237.5,-107 237.5,-88 129.5,-88"/>
<text text-anchor="middle" x="183.5" y="-95" font-family="Helvetica,sans-Serif" font-size="10.00">Ogre::v1::CbDrawCall</text>
</a>
</g>
</g>
<!-- Node1&#45;&gt;Node12 -->
<g id="edge11" class="edge">
<title>Node1&#45;&gt;Node12</title>
<path fill="none" stroke="midnightblue" d="M49.03,-192.87C61.03,-171.26 83.69,-136.11 113,-116.5 118.82,-112.61 125.42,-109.51 132.18,-107.04"/>
<polygon fill="midnightblue" stroke="midnightblue" points="45.91,-191.27 44.27,-201.74 52.08,-194.58 45.91,-191.27"/>
</g>
<!-- Node15 -->
<g id="node15" class="node">
<title>Node15</title>
<g id="a_node15"><a xlink:href="struct_ogre_1_1v1_1_1_cb_render_op.html" target="_top" xlink:title=" ">
<polygon fill="none" stroke="black" points="127,-50 127,-69 240,-69 240,-50 127,-50"/>
<text text-anchor="middle" x="183.5" y="-57" font-family="Helvetica,sans-Serif" font-size="10.00">Ogre::v1::CbRenderOp</text>
</a>
</g>
</g>
<!-- Node1&#45;&gt;Node15 -->
<g id="edge14" class="edge">
<title>Node1&#45;&gt;Node15</title>
<path fill="none" stroke="midnightblue" d="M44.95,-191.92C54.08,-162.75 75.3,-108.14 113,-78.5 117.92,-74.63 123.56,-71.55 129.47,-69.1"/>
<polygon fill="midnightblue" stroke="midnightblue" points="41.52,-191.17 42.03,-201.75 48.23,-193.16 41.52,-191.17"/>
</g>
<!-- Node16 -->
<g id="node16" class="node">
<title>Node16</title>
<g id="a_node16"><a xlink:href="struct_ogre_1_1v1_1_1_cb_start_v1_legacy_rendering.html" target="_top" xlink:title=" ">
<polygon fill="none" stroke="black" points="116.5,-0.5 116.5,-30.5 250.5,-30.5 250.5,-0.5 116.5,-0.5"/>
<text text-anchor="start" x="124.5" y="-18.5" font-family="Helvetica,sans-Serif" font-size="10.00">Ogre::v1::CbStartV1Legacy</text>
<text text-anchor="middle" x="183.5" y="-7.5" font-family="Helvetica,sans-Serif" font-size="10.00">Rendering</text>
</a>
</g>
</g>
<!-- Node1&#45;&gt;Node16 -->
<g id="edge15" class="edge">
<title>Node1&#45;&gt;Node16</title>
<path fill="none" stroke="midnightblue" d="M42.68,-191.87C49.38,-156.7 68.2,-82.66 113,-40.5 117.11,-36.63 121.86,-33.36 126.91,-30.58"/>
<polygon fill="midnightblue" stroke="midnightblue" points="39.21,-191.38 40.91,-201.84 46.11,-192.6 39.21,-191.38"/>
</g>
<!-- Node3 -->
<g id="node3" class="node">
<title>Node3</title>
<g id="a_node3"><a xlink:href="struct_ogre_1_1_cb_draw_call_indexed.html" target="_top" xlink:title=" ">
<polygon fill="none" stroke="black" points="297.5,-411 297.5,-430 424.5,-430 424.5,-411 297.5,-411"/>
<text text-anchor="middle" x="361" y="-418" font-family="Helvetica,sans-Serif" font-size="10.00">Ogre::CbDrawCallIndexed</text>
</a>
</g>
</g>
<!-- Node2&#45;&gt;Node3 -->
<g id="edge2" class="edge">
<title>Node2&#45;&gt;Node3</title>
<path fill="none" stroke="midnightblue" d="M240.29,-407.54C258.47,-409.51 278.76,-411.7 297.4,-413.72"/>
<polygon fill="midnightblue" stroke="midnightblue" points="240.47,-404.04 230.15,-406.44 239.72,-411 240.47,-404.04"/>
</g>
<!-- Node4 -->
<g id="node4" class="node">
<title>Node4</title>
<g id="a_node4"><a xlink:href="struct_ogre_1_1_cb_draw_call_strip.html" target="_top" xlink:title=" ">
<polygon fill="none" stroke="black" points="304.5,-373 304.5,-392 417.5,-392 417.5,-373 304.5,-373"/>
<text text-anchor="middle" x="361" y="-380" font-family="Helvetica,sans-Serif" font-size="10.00">Ogre::CbDrawCallStrip</text>
</a>
</g>
</g>
<!-- Node2&#45;&gt;Node4 -->
<g id="edge3" class="edge">
<title>Node2&#45;&gt;Node4</title>
<path fill="none" stroke="midnightblue" d="M240.25,-395.46C260.69,-393.25 283.81,-390.75 304.24,-388.54"/>
<polygon fill="midnightblue" stroke="midnightblue" points="239.72,-392 230.15,-396.56 240.47,-398.96 239.72,-392"/>
</g>
<!-- Node13 -->
<g id="node13" class="node">
<title>Node13</title>
<g id="a_node13"><a xlink:href="struct_ogre_1_1v1_1_1_cb_draw_call_indexed.html" target="_top" xlink:title=" ">
<polygon fill="none" stroke="black" points="290,-107 290,-126 432,-126 432,-107 290,-107"/>
<text text-anchor="middle" x="361" y="-114" font-family="Helvetica,sans-Serif" font-size="10.00">Ogre::v1::CbDrawCallIndexed</text>
</a>
</g>
</g>
<!-- Node12&#45;&gt;Node13 -->
<g id="edge12" class="edge">
<title>Node12&#45;&gt;Node13</title>
<path fill="none" stroke="midnightblue" d="M247.87,-104.36C261.5,-105.84 275.99,-107.4 289.86,-108.91"/>
<polygon fill="midnightblue" stroke="midnightblue" points="247.95,-100.85 237.63,-103.25 247.2,-107.81 247.95,-100.85"/>
</g>
<!-- Node14 -->
<g id="node14" class="node">
<title>Node14</title>
<g id="a_node14"><a xlink:href="struct_ogre_1_1v1_1_1_cb_draw_call_strip.html" target="_top" xlink:title=" ">
<polygon fill="none" stroke="black" points="297,-69 297,-88 425,-88 425,-69 297,-69"/>
<text text-anchor="middle" x="361" y="-76" font-family="Helvetica,sans-Serif" font-size="10.00">Ogre::v1::CbDrawCallStrip</text>
</a>
</g>
</g>
<!-- Node12&#45;&gt;Node14 -->
<g id="edge13" class="edge">
<title>Node12&#45;&gt;Node14</title>
<path fill="none" stroke="midnightblue" d="M247.91,-90.64C263.84,-88.91 280.94,-87.06 296.85,-85.34"/>
<polygon fill="midnightblue" stroke="midnightblue" points="247.2,-87.19 237.63,-91.75 247.95,-94.15 247.2,-87.19"/>
</g>
</g>
</svg>
